<?xml version="1.0" encoding="UTF-8" standalone="no"?>
<!DOCTYPE svg PUBLIC "-//W3C//DTD SVG 1.1//EN"
 "http://www.w3.org/Graphics/SVG/1.1/DTD/svg11.dtd">
<!-- Generated by graphviz version 14.1.2 (20260124.0452)
 -->
<!-- Title: draw_3d_image Pages: 1 -->
<svg width="475pt" height="162pt"
 viewBox="0.00 0.00 475.00 162.00" xmlns="http://www.w3.org/2000/svg" xmlns:xlink="http://www.w3.org/1999/xlink">
<g id="graph0" class="graph" transform="scale(1 1) rotate(0) translate(4 157.91)">
<title>draw_3d_image</title>
<!-- Node1 -->
<g id="Node000001" class="node">
<title>Node1</title>
<g id="a_Node000001"><a xlink:title="Draw a 3d image.">
<polygon fill="#999999" stroke="#666666" points="466.75,-96 382.5,-96 382.5,-76 466.75,-76 466.75,-96"/>
<text xml:space="preserve" text-anchor="middle" x="424.62" y="-82.5" font-family="Helvetica,sans-Serif" font-size="10.00">draw_3d_image</text>
</a>
</g>
</g>
<!-- Node2 -->
<g id="Node000002" class="node">
<title>Node2</title>
<g id="a_Node000002"><a xlink:href="applications_2azure__board__apps_2apps_2kalman__filter_2main_2kalman__filter__demo_8cpp.html#af43b34764385f3f1ad35ce1c00db220f" target="_top" xlink:title="Kalman filter RTOS task (or ESP timer callback).">
<polygon fill="white" stroke="#666666" points="346.5,-96 251,-96 251,-76 346.5,-76 346.5,-96"/>
<text xml:space="preserve" text-anchor="middle" x="298.75" y="-82.5" font-family="Helvetica,sans-Serif" font-size="10.00">kalman_filter_task</text>
</a>
</g>
</g>
<!-- Node1&#45;&gt;Node2 -->
<g id="edge1_Node000001_Node000002" class="edge">
<title>Node1&#45;&gt;Node2</title>
<g id="a_edge1_Node000001_Node000002"><a xlink:title=" ">
<path fill="none" stroke="#63b8ff" d="M370.55,-86C362.58,-86 354.4,-86 346.57,-86"/>
<polygon fill="#63b8ff" stroke="#63b8ff" points="370.52,-89.5 380.52,-86 370.52,-82.5 370.52,-89.5"/>
</a>
</g>
</g>
<!-- Node3 -->
<g id="Node000003" class="node">
<title>Node3</title>
<g id="a_Node000003"><a xlink:href="applications_2azure__board__apps_2apps_2kalman__filter_2main_2kalman__filter__demo_8cpp.html#abce06be17fc37d675118a678a8100a36" target="_top" xlink:title=" ">
<polygon fill="white" stroke="#666666" points="58,-153 0,-153 0,-133 58,-133 58,-153"/>
<text xml:space="preserve" text-anchor="middle" x="29" y="-139.5" font-family="Helvetica,sans-Serif" font-size="10.00">app_main</text>
</a>
</g>
</g>
<!-- Node2&#45;&gt;Node3 -->
<g id="edge2_Node000002_Node000003" class="edge">
<title>Node2&#45;&gt;Node3</title>
<g id="a_edge2_Node000002_Node000003"><a xlink:title=" ">
<path fill="none" stroke="#63b8ff" d="M279.41,-103.56C263.71,-117.29 239.79,-135.29 215,-143 161.64,-159.6 95.35,-153.63 58.36,-148.11"/>
<polygon fill="#63b8ff" stroke="#63b8ff" points="281.47,-106.41 286.52,-97.1 276.77,-101.23 281.47,-106.41"/>
</a>
</g>
</g>
<!-- Node4 -->
<g id="Node000004" class="node">
<title>Node4</title>
<g id="a_Node000004"><a xlink:href="applications_2azure__board__apps_2apps_2kalman__filter_2main_2kalman__filter__demo_8cpp.html#a1967e917dafd16b5f02410c5b10c1d90" target="_top" xlink:title="Kalman filter calibration procedure.">
<polygon fill="white" stroke="#666666" points="215,-134 94,-134 94,-114 215,-114 215,-134"/>
<text xml:space="preserve" text-anchor="middle" x="154.5" y="-120.5" font-family="Helvetica,sans-Serif" font-size="10.00">kalman_filter_calibration</text>
</a>
</g>
</g>
<!-- Node2&#45;&gt;Node4 -->
<g id="edge3_Node000002_Node000004" class="edge">
<title>Node2&#45;&gt;Node4</title>
<g id="a_edge3_Node000002_Node000004"><a xlink:title=" ">
<path fill="none" stroke="#63b8ff" d="M247.42,-99.45C230.08,-104.08 210.93,-109.19 194.62,-113.55"/>
<polygon fill="#63b8ff" stroke="#63b8ff" points="248.28,-102.84 257.04,-96.87 246.48,-96.07 248.28,-102.84"/>
</a>
</g>
</g>
<!-- Node5 -->
<g id="Node000005" class="node">
<title>Node5</title>
<g id="a_Node000005"><a xlink:href="external__examples_2b00f000e_2applications_2azure__board__apps_2apps_2kalman__filter_2main_2kalman__filter__demo_8cpp.html#a1967e917dafd16b5f02410c5b10c1d90" target="_top" xlink:title="Kalman filter calibration procedure.">
<polygon fill="white" stroke="#666666" points="215,-96 94,-96 94,-76 215,-76 215,-96"/>
<text xml:space="preserve" text-anchor="middle" x="154.5" y="-82.5" font-family="Helvetica,sans-Serif" font-size="10.00">kalman_filter_calibration</text>
</a>
</g>
</g>
<!-- Node2&#45;&gt;Node5 -->
<g id="edge5_Node000002_Node000005" class="edge">
<title>Node2&#45;&gt;Node5</title>
<g id="a_edge5_Node000002_Node000005"><a xlink:title=" ">
<path fill="none" stroke="#63b8ff" d="M239.37,-86C231.45,-86 223.31,-86 215.36,-86"/>
<polygon fill="#63b8ff" stroke="#63b8ff" points="239.26,-89.5 249.26,-86 239.26,-82.5 239.26,-89.5"/>
</a>
</g>
</g>
<!-- Node7 -->
<g id="Node000007" class="node">
<title>Node7</title>
<g id="a_Node000007"><a xlink:href="external__examples_2d1468452_2apps_2kalman__filter_2main_2kalman__filter__demo_8cpp.html#a1967e917dafd16b5f02410c5b10c1d90" target="_top" xlink:title="Kalman filter calibration procedure.">
<polygon fill="white" stroke="#666666" points="215,-58 94,-58 94,-38 215,-38 215,-58"/>
<text xml:space="preserve" text-anchor="middle" x="154.5" y="-44.5" font-family="Helvetica,sans-Serif" font-size="10.00">kalman_filter_calibration</text>
</a>
</g>
</g>
<!-- Node2&#45;&gt;Node7 -->
<g id="edge7_Node000002_Node000007" class="edge">
<title>Node2&#45;&gt;Node7</title>
<g id="a_edge7_Node000002_Node000007"><a xlink:title=" ">
<path fill="none" stroke="#63b8ff" d="M247.42,-72.55C230.08,-67.92 210.93,-62.81 194.62,-58.45"/>
<polygon fill="#63b8ff" stroke="#63b8ff" points="246.48,-75.93 257.04,-75.13 248.28,-69.16 246.48,-75.93"/>
</a>
</g>
</g>
<!-- Node9 -->
<g id="Node000009" class="node">
<title>Node9</title>
<g id="a_Node000009"><a xlink:href="external__examples_2f9c2d4b3_2azure__board__apps_2apps_2kalman__filter_2main_2kalman__filter__demo_8cpp.html#a1967e917dafd16b5f02410c5b10c1d90" target="_top" xlink:title="Kalman filter calibration procedure.">
<polygon fill="white" stroke="#666666" points="215,-20 94,-20 94,0 215,0 215,-20"/>
<text xml:space="preserve" text-anchor="middle" x="154.5" y="-6.5" font-family="Helvetica,sans-Serif" font-size="10.00">kalman_filter_calibration</text>
</a>
</g>
</g>
<!-- Node2&#45;&gt;Node9 -->
<g id="edge9_Node000002_Node000009" class="edge">
<title>Node2&#45;&gt;Node9</title>
<g id="a_edge9_Node000002_Node000009"><a xlink:title=" ">
<path fill="none" stroke="#63b8ff" d="M276.69,-68.9C260.57,-56.47 237.39,-39.98 215,-29 208.38,-25.75 201.08,-22.89 193.93,-20.44"/>
<polygon fill="#63b8ff" stroke="#63b8ff" points="274.08,-71.3 284.11,-74.73 278.41,-65.8 274.08,-71.3"/>
</a>
</g>
</g>
<!-- Node4&#45;&gt;Node3 -->
<g id="edge4_Node000004_Node000003" class="edge">
<title>Node4&#45;&gt;Node3</title>
<g id="a_edge4_Node000004_Node000003"><a xlink:title=" ">
<path fill="none" stroke="#63b8ff" d="M82.35,-134.95C73.89,-136.25 65.67,-137.51 58.35,-138.64"/>
<polygon fill="#63b8ff" stroke="#63b8ff" points="82.71,-138.43 92.06,-133.45 81.65,-131.51 82.71,-138.43"/>
</a>
</g>
</g>
<!-- Node6 -->
<g id="Node000006" class="node">
<title>Node6</title>
<g id="a_Node000006"><a xlink:href="external__examples_2b00f000e_2applications_2azure__board__apps_2apps_2kalman__filter_2main_2kalman__filter__demo_8cpp.html#abce06be17fc37d675118a678a8100a36" target="_top" xlink:title=" ">
<polygon fill="white" stroke="#666666" points="58,-96 0,-96 0,-76 58,-76 58,-96"/>
<text xml:space="preserve" text-anchor="middle" x="29" y="-82.5" font-family="Helvetica,sans-Serif" font-size="10.00">app_main</text>
</a>
</g>
</g>
<!-- Node5&#45;&gt;Node6 -->
<g id="edge6_Node000005_Node000006" class="edge">
<title>Node5&#45;&gt;Node6</title>
<g id="a_edge6_Node000005_Node000006"><a xlink:title=" ">
<path fill="none" stroke="#63b8ff" d="M82.07,-86C73.71,-86 65.59,-86 58.35,-86"/>
<polygon fill="#63b8ff" stroke="#63b8ff" points="82.05,-89.5 92.05,-86 82.05,-82.5 82.05,-89.5"/>
</a>
</g>
</g>
<!-- Node8 -->
<g id="Node000008" class="node">
<title>Node8</title>
<g id="a_Node000008"><a xlink:href="external__examples_2d1468452_2apps_2kalman__filter_2main_2kalman__filter__demo_8cpp.html#abce06be17fc37d675118a678a8100a36" target="_top" xlink:title=" ">
<polygon fill="white" stroke="#666666" points="58,-58 0,-58 0,-38 58,-38 58,-58"/>
<text xml:space="preserve" text-anchor="middle" x="29" y="-44.5" font-family="Helvetica,sans-Serif" font-size="10.00">app_main</text>
</a>
</g>
</g>
<!-- Node7&#45;&gt;Node8 -->
<g id="edge8_Node000007_Node000008" class="edge">
<title>Node7&#45;&gt;Node8</title>
<g id="a_edge8_Node000007_Node000008"><a xlink:title=" ">
<path fill="none" stroke="#63b8ff" d="M82.07,-48C73.71,-48 65.59,-48 58.35,-48"/>
<polygon fill="#63b8ff" stroke="#63b8ff" points="82.05,-51.5 92.05,-48 82.05,-44.5 82.05,-51.5"/>
</a>
</g>
</g>
<!-- Node10 -->
<g id="Node000010" class="node">
<title>Node10</title>
<g id="a_Node000010"><a xlink:href="external__examples_2f9c2d4b3_2azure__board__apps_2apps_2kalman__filter_2main_2kalman__filter__demo_8cpp.html#abce06be17fc37d675118a678a8100a36" target="_top" xlink:title=" ">
<polygon fill="white" stroke="#666666" points="58,-20 0,-20 0,0 58,0 58,-20"/>
<text xml:space="preserve" text-anchor="middle" x="29" y="-6.5" font-family="Helvetica,sans-Serif" font-size="10.00">app_main</text>
</a>
</g>
</g>
<!-- Node9&#45;&gt;Node10 -->
<g id="edge10_Node000009_Node000010" class="edge">
<title>Node9&#45;&gt;Node10</title>
<g id="a_edge10_Node000009_Node000010"><a xlink:title=" ">
<path fill="none" stroke="#63b8ff" d="M82.07,-10C73.71,-10 65.59,-10 58.35,-10"/>
<polygon fill="#63b8ff" stroke="#63b8ff" points="82.05,-13.5 92.05,-10 82.05,-6.5 82.05,-13.5"/>
</a>
</g>
</g>
</g>
</svg>
