<?xml version="1.0" encoding="UTF-8" standalone="no"?>
<!DOCTYPE svg PUBLIC "-//W3C//DTD SVG 1.1//EN"
 "http://www.w3.org/Graphics/SVG/1.1/DTD/svg11.dtd">
<!-- Generated by graphviz version 14.1.2 (20260124.0452)
 -->
<!-- Title: update_translation_matrix Pages: 1 -->
<svg width="342pt" height="446pt"
 viewBox="0.00 0.00 342.00 446.00" xmlns="http://www.w3.org/2000/svg" xmlns:xlink="http://www.w3.org/1999/xlink">

<svg id="main" version="1.1" xmlns="http://www.w3.org/2000/svg" xmlns:xlink="http://www.w3.org/1999/xlink" xml:space="preserve">

<style type="text/css"><![CDATA[
.node, .edge {opacity: 0.7;}
.node.selected, .edge.selected {opacity: 1;}
.edge:hover path { stroke: red; }
.edge:hover polygon { stroke: red; fill: red; }
]]></style>
<script type="application/ecmascript" xlink:href="svg.min.js"/>
<svg id="graph" class="graph">
<g id="graph0" class="graph" transform="scale(1 1) rotate(0) translate(4 442)">
<title>update_translation_matrix</title>
<!-- Node1 -->
<g id="Node000001" class="node">
<title>Node1</title>
<g id="a_Node000001"><a xlink:title="update translation matrix">
<polygon fill="#999999" stroke="#666666" points="333.75,-235 238.25,-235 238.25,-203 333.75,-203 333.75,-235"/>
<text xml:space="preserve" text-anchor="start" x="246.25" y="-221.5" font-family="Helvetica,sans-Serif" font-size="10.00">update_translation</text>
<text xml:space="preserve" text-anchor="middle" x="286" y="-209.5" font-family="Helvetica,sans-Serif" font-size="10.00">_matrix</text>
</a>
</g>
</g>
<!-- Node2 -->
<g id="Node000002" class="node">
<title>Node2</title>
<g id="a_Node000002"><a xlink:href="applications_2azure__board__apps_2apps_23d__graphics_2main_23d__graphics__demo_8cpp.html#a0edd8bfc49beafeacd3540ba291680c3" target="_top" xlink:title="Display ESPRESSIF text.">
<polygon fill="white" stroke="#666666" points="192.88,-438 103.38,-438 103.38,-418 192.88,-418 192.88,-438"/>
<text xml:space="preserve" text-anchor="middle" x="148.12" y="-424.5" font-family="Helvetica,sans-Serif" font-size="10.00">dispaly_esp_text</text>
</a>
</g>
</g>
<!-- Node1&#45;&gt;Node2 -->
<g id="edge1_Node000001_Node000002" class="edge">
<title>Node1&#45;&gt;Node2</title>
<g id="a_edge1_Node000001_Node000002"><a xlink:title=" ">
<path fill="none" stroke="#63b8ff" d="M280.19,-246.48C271.64,-287.42 249.99,-364.37 202.25,-409 198.6,-412.41 194.3,-415.22 189.74,-417.52"/>
<polygon fill="#63b8ff" stroke="#63b8ff" points="283.62,-247.22 282.11,-236.73 276.75,-245.87 283.62,-247.22"/>
</a>
</g>
</g>
<!-- Node4 -->
<g id="Node000004" class="node">
<title>Node4</title>
<g id="a_Node000004"><a xlink:href="external__examples_2b00f000e_2applications_2azure__board__apps_2apps_23d__graphics_2main_23d__graphics__demo_8cpp.html#a0edd8bfc49beafeacd3540ba291680c3" target="_top" xlink:title="Display ESPRESSIF text.">
<polygon fill="white" stroke="#666666" points="192.88,-362 103.38,-362 103.38,-342 192.88,-342 192.88,-362"/>
<text xml:space="preserve" text-anchor="middle" x="148.12" y="-348.5" font-family="Helvetica,sans-Serif" font-size="10.00">dispaly_esp_text</text>
</a>
</g>
</g>
<!-- Node1&#45;&gt;Node4 -->
<g id="edge3_Node000001_Node000004" class="edge">
<title>Node1&#45;&gt;Node4</title>
<g id="a_edge3_Node000001_Node000004"><a xlink:title=" ">
<path fill="none" stroke="#63b8ff" d="M271.83,-245.53C257.83,-271.23 233.41,-309.64 202.25,-333 197.7,-336.41 192.49,-339.25 187.15,-341.6"/>
<polygon fill="#63b8ff" stroke="#63b8ff" points="274.91,-247.2 276.48,-236.72 268.72,-243.93 274.91,-247.2"/>
</a>
</g>
</g>
<!-- Node6 -->
<g id="Node000006" class="node">
<title>Node6</title>
<g id="a_Node000006"><a xlink:href="external__examples_2d1468452_2apps_23d__graphics_2main_23d__graphics__demo_8cpp.html#a0edd8bfc49beafeacd3540ba291680c3" target="_top" xlink:title="Display ESPRESSIF text.">
<polygon fill="white" stroke="#666666" points="192.88,-324 103.38,-324 103.38,-304 192.88,-304 192.88,-324"/>
<text xml:space="preserve" text-anchor="middle" x="148.12" y="-310.5" font-family="Helvetica,sans-Serif" font-size="10.00">dispaly_esp_text</text>
</a>
</g>
</g>
<!-- Node1&#45;&gt;Node6 -->
<g id="edge5_Node000001_Node000006" class="edge">
<title>Node1&#45;&gt;Node6</title>
<g id="a_edge5_Node000001_Node000006"><a xlink:title=" ">
<path fill="none" stroke="#63b8ff" d="M263.42,-243.4C247.8,-259.84 225.43,-281.01 202.25,-295 196.8,-298.29 190.69,-301.14 184.61,-303.55"/>
<polygon fill="#63b8ff" stroke="#63b8ff" points="265.68,-246.12 269.92,-236.41 260.55,-241.35 265.68,-246.12"/>
</a>
</g>
</g>
<!-- Node8 -->
<g id="Node000008" class="node">
<title>Node8</title>
<g id="a_Node000008"><a xlink:href="external__examples_2f9c2d4b3_2azure__board__apps_2apps_23d__graphics_2main_23d__graphics__demo_8cpp.html#a0edd8bfc49beafeacd3540ba291680c3" target="_top" xlink:title="Display ESPRESSIF text.">
<polygon fill="white" stroke="#666666" points="192.88,-286 103.38,-286 103.38,-266 192.88,-266 192.88,-286"/>
<text xml:space="preserve" text-anchor="middle" x="148.12" y="-272.5" font-family="Helvetica,sans-Serif" font-size="10.00">dispaly_esp_text</text>
</a>
</g>
</g>
<!-- Node1&#45;&gt;Node8 -->
<g id="edge7_Node000001_Node000008" class="edge">
<title>Node1&#45;&gt;Node8</title>
<g id="a_edge7_Node000001_Node000008"><a xlink:title=" ">
<path fill="none" stroke="#63b8ff" d="M240.96,-240.09C228.54,-245.8 214.95,-251.83 202.25,-257 194.99,-259.96 187.08,-262.92 179.64,-265.6"/>
<polygon fill="#63b8ff" stroke="#63b8ff" points="242.1,-243.41 249.7,-236.03 239.15,-237.06 242.1,-243.41"/>
</a>
</g>
</g>
<!-- Node10 -->
<g id="Node000010" class="node">
<title>Node10</title>
<g id="a_Node000010"><a xlink:href="applications_2azure__board__apps_2apps_23d__graphics_2main_23d__graphics__demo_8cpp.html#af3debef909dca35dbf0b6f842df6def3" target="_top" xlink:title="RTOS task to draw a 3d image.">
<polygon fill="white" stroke="#666666" points="202.25,-400 94,-400 94,-380 202.25,-380 202.25,-400"/>
<text xml:space="preserve" text-anchor="middle" x="148.12" y="-386.5" font-family="Helvetica,sans-Serif" font-size="10.00">draw_3d_image_task</text>
</a>
</g>
</g>
<!-- Node1&#45;&gt;Node10 -->
<g id="edge9_Node000001_Node000010" class="edge">
<title>Node1&#45;&gt;Node10</title>
<g id="a_edge9_Node000001_Node000010"><a xlink:title=" ">
<path fill="none" stroke="#63b8ff" d="M276.93,-246.12C265.55,-279.91 241.66,-337.27 202.25,-371 198.23,-374.44 193.54,-377.27 188.65,-379.6"/>
<polygon fill="#63b8ff" stroke="#63b8ff" points="280.24,-247.27 279.97,-236.68 273.57,-245.12 280.24,-247.27"/>
</a>
</g>
</g>
<!-- Node11 -->
<g id="Node000011" class="node">
<title>Node11</title>
<g id="a_Node000011"><a xlink:href="applications_2m5stack__core__s3_2apps_23d__graphics_2main_23d__graphics__demo_8cpp.html#af3debef909dca35dbf0b6f842df6def3" target="_top" xlink:title="RTOS task to draw a 3d image.">
<polygon fill="white" stroke="#666666" points="202.25,-248 94,-248 94,-228 202.25,-228 202.25,-248"/>
<text xml:space="preserve" text-anchor="middle" x="148.12" y="-234.5" font-family="Helvetica,sans-Serif" font-size="10.00">draw_3d_image_task</text>
</a>
</g>
</g>
<!-- Node1&#45;&gt;Node11 -->
<g id="edge11_Node000001_Node000011" class="edge">
<title>Node1&#45;&gt;Node11</title>
<g id="a_edge11_Node000001_Node000011"><a xlink:title=" ">
<path fill="none" stroke="#63b8ff" d="M226.47,-227.18C218.57,-228.29 210.5,-229.42 202.7,-230.51"/>
<polygon fill="#63b8ff" stroke="#63b8ff" points="226.94,-230.65 236.36,-225.8 225.97,-223.72 226.94,-230.65"/>
</a>
</g>
</g>
<!-- Node12 -->
<g id="Node000012" class="node">
<title>Node12</title>
<g id="a_Node000012"><a xlink:href="applications_2m5stack__core__s3_2apps_2kalman__filter_2main_23d__kalman__demo_8cpp.html#af3debef909dca35dbf0b6f842df6def3" target="_top" xlink:title="RTOS task to draw a 3d image.">
<polygon fill="white" stroke="#666666" points="202.25,-210 94,-210 94,-190 202.25,-190 202.25,-210"/>
<text xml:space="preserve" text-anchor="middle" x="148.12" y="-196.5" font-family="Helvetica,sans-Serif" font-size="10.00">draw_3d_image_task</text>
</a>
</g>
</g>
<!-- Node1&#45;&gt;Node12 -->
<g id="edge12_Node000001_Node000012" class="edge">
<title>Node1&#45;&gt;Node12</title>
<g id="a_edge12_Node000001_Node000012"><a xlink:title=" ">
<path fill="none" stroke="#63b8ff" d="M226.47,-210.82C218.57,-209.71 210.5,-208.58 202.7,-207.49"/>
<polygon fill="#63b8ff" stroke="#63b8ff" points="225.97,-214.28 236.36,-212.2 226.94,-207.35 225.97,-214.28"/>
</a>
</g>
</g>
<!-- Node13 -->
<g id="Node000013" class="node">
<title>Node13</title>
<g id="a_Node000013"><a xlink:href="external__examples_2b00f000e_2applications_2azure__board__apps_2apps_23d__graphics_2main_23d__graphics__demo_8cpp.html#af3debef909dca35dbf0b6f842df6def3" target="_top" xlink:title="RTOS task to draw a 3d image.">
<polygon fill="white" stroke="#666666" points="202.25,-172 94,-172 94,-152 202.25,-152 202.25,-172"/>
<text xml:space="preserve" text-anchor="middle" x="148.12" y="-158.5" font-family="Helvetica,sans-Serif" font-size="10.00">draw_3d_image_task</text>
</a>
</g>
</g>
<!-- Node1&#45;&gt;Node13 -->
<g id="edge13_Node000001_Node000013" class="edge">
<title>Node1&#45;&gt;Node13</title>
<g id="a_edge13_Node000001_Node000013"><a xlink:title=" ">
<path fill="none" stroke="#63b8ff" d="M240.96,-197.91C228.54,-192.2 214.95,-186.17 202.25,-181 194.99,-178.04 187.08,-175.08 179.64,-172.4"/>
<polygon fill="#63b8ff" stroke="#63b8ff" points="239.15,-200.94 249.7,-201.97 242.1,-194.59 239.15,-200.94"/>
</a>
</g>
</g>
<!-- Node14 -->
<g id="Node000014" class="node">
<title>Node14</title>
<g id="a_Node000014"><a xlink:href="external__examples_2b00f000e_2applications_2m5stack__core__s3_2apps_23d__graphics_2main_23d__graphics__demo_8cpp.html#af3debef909dca35dbf0b6f842df6def3" target="_top" xlink:title="RTOS task to draw a 3d image.">
<polygon fill="white" stroke="#666666" points="202.25,-134 94,-134 94,-114 202.25,-114 202.25,-134"/>
<text xml:space="preserve" text-anchor="middle" x="148.12" y="-120.5" font-family="Helvetica,sans-Serif" font-size="10.00">draw_3d_image_task</text>
</a>
</g>
</g>
<!-- Node1&#45;&gt;Node14 -->
<g id="edge14_Node000001_Node000014" class="edge">
<title>Node1&#45;&gt;Node14</title>
<g id="a_edge14_Node000001_Node000014"><a xlink:title=" ">
<path fill="none" stroke="#63b8ff" d="M263.42,-194.6C247.8,-178.16 225.43,-156.99 202.25,-143 196.8,-139.71 190.69,-136.86 184.61,-134.45"/>
<polygon fill="#63b8ff" stroke="#63b8ff" points="260.55,-196.65 269.92,-201.59 265.68,-191.88 260.55,-196.65"/>
</a>
</g>
</g>
<!-- Node15 -->
<g id="Node000015" class="node">
<title>Node15</title>
<g id="a_Node000015"><a xlink:href="external__examples_2b00f000e_2applications_2m5stack__core__s3_2apps_2kalman__filter_2main_23d__kalman__demo_8cpp.html#af3debef909dca35dbf0b6f842df6def3" target="_top" xlink:title="RTOS task to draw a 3d image.">
<polygon fill="white" stroke="#666666" points="202.25,-96 94,-96 94,-76 202.25,-76 202.25,-96"/>
<text xml:space="preserve" text-anchor="middle" x="148.12" y="-82.5" font-family="Helvetica,sans-Serif" font-size="10.00">draw_3d_image_task</text>
</a>
</g>
</g>
<!-- Node1&#45;&gt;Node15 -->
<g id="edge15_Node000001_Node000015" class="edge">
<title>Node1&#45;&gt;Node15</title>
<g id="a_edge15_Node000001_Node000015"><a xlink:title=" ">
<path fill="none" stroke="#63b8ff" d="M271.83,-192.47C257.83,-166.77 233.41,-128.36 202.25,-105 197.7,-101.59 192.49,-98.75 187.15,-96.4"/>
<polygon fill="#63b8ff" stroke="#63b8ff" points="268.72,-194.07 276.48,-201.28 274.91,-190.8 268.72,-194.07"/>
</a>
</g>
</g>
<!-- Node16 -->
<g id="Node000016" class="node">
<title>Node16</title>
<g id="a_Node000016"><a xlink:href="external__examples_2d1468452_2apps_23d__graphics_2main_23d__graphics__demo_8cpp.html#af3debef909dca35dbf0b6f842df6def3" target="_top" xlink:title="RTOS task to draw a 3d image.">
<polygon fill="white" stroke="#666666" points="202.25,-58 94,-58 94,-38 202.25,-38 202.25,-58"/>
<text xml:space="preserve" text-anchor="middle" x="148.12" y="-44.5" font-family="Helvetica,sans-Serif" font-size="10.00">draw_3d_image_task</text>
</a>
</g>
</g>
<!-- Node1&#45;&gt;Node16 -->
<g id="edge16_Node000001_Node000016" class="edge">
<title>Node1&#45;&gt;Node16</title>
<g id="a_edge16_Node000001_Node000016"><a xlink:title=" ">
<path fill="none" stroke="#63b8ff" d="M276.93,-191.88C265.55,-158.09 241.66,-100.73 202.25,-67 198.23,-63.56 193.54,-60.73 188.65,-58.4"/>
<polygon fill="#63b8ff" stroke="#63b8ff" points="273.57,-192.88 279.97,-201.32 280.24,-190.73 273.57,-192.88"/>
</a>
</g>
</g>
<!-- Node17 -->
<g id="Node000017" class="node">
<title>Node17</title>
<g id="a_Node000017"><a xlink:href="external__examples_2f9c2d4b3_2azure__board__apps_2apps_23d__graphics_2main_23d__graphics__demo_8cpp.html#af3debef909dca35dbf0b6f842df6def3" target="_top" xlink:title="RTOS task to draw a 3d image.">
<polygon fill="white" stroke="#666666" points="202.25,-20 94,-20 94,0 202.25,0 202.25,-20"/>
<text xml:space="preserve" text-anchor="middle" x="148.12" y="-6.5" font-family="Helvetica,sans-Serif" font-size="10.00">draw_3d_image_task</text>
</a>
</g>
</g>
<!-- Node1&#45;&gt;Node17 -->
<g id="edge17_Node000001_Node000017" class="edge">
<title>Node1&#45;&gt;Node17</title>
<g id="a_edge17_Node000001_Node000017"><a xlink:title=" ">
<path fill="none" stroke="#63b8ff" d="M280.19,-191.52C271.64,-150.58 249.99,-73.63 202.25,-29 198.6,-25.59 194.3,-22.78 189.74,-20.48"/>
<polygon fill="#63b8ff" stroke="#63b8ff" points="276.75,-192.13 282.11,-201.27 283.62,-190.78 276.75,-192.13"/>
</a>
</g>
</g>
<!-- Node3 -->
<g id="Node000003" class="node">
<title>Node3</title>
<g id="a_Node000003"><a xlink:href="applications_2azure__board__apps_2apps_23d__graphics_2main_23d__graphics__demo_8cpp.html#abce06be17fc37d675118a678a8100a36" target="_top" xlink:title=" ">
<polygon fill="white" stroke="#666666" points="58,-419 0,-419 0,-399 58,-399 58,-419"/>
<text xml:space="preserve" text-anchor="middle" x="29" y="-405.5" font-family="Helvetica,sans-Serif" font-size="10.00">app_main</text>
</a>
</g>
</g>
<!-- Node2&#45;&gt;Node3 -->
<g id="edge2_Node000002_Node000003" class="edge">
<title>Node2&#45;&gt;Node3</title>
<g id="a_edge2_Node000002_Node000003"><a xlink:title=" ">
<path fill="none" stroke="#63b8ff" d="M92.06,-419.07C80.33,-417.16 68.42,-415.23 58.21,-413.58"/>
<polygon fill="#63b8ff" stroke="#63b8ff" points="91.25,-422.48 101.68,-420.63 92.37,-415.57 91.25,-422.48"/>
</a>
</g>
</g>
<!-- Node5 -->
<g id="Node000005" class="node">
<title>Node5</title>
<g id="a_Node000005"><a xlink:href="external__examples_2b00f000e_2applications_2azure__board__apps_2apps_23d__graphics_2main_23d__graphics__demo_8cpp.html#abce06be17fc37d675118a678a8100a36" target="_top" xlink:title=" ">
<polygon fill="white" stroke="#666666" points="58,-362 0,-362 0,-342 58,-342 58,-362"/>
<text xml:space="preserve" text-anchor="middle" x="29" y="-348.5" font-family="Helvetica,sans-Serif" font-size="10.00">app_main</text>
</a>
</g>
</g>
<!-- Node4&#45;&gt;Node5 -->
<g id="edge4_Node000004_Node000005" class="edge">
<title>Node4&#45;&gt;Node5</title>
<g id="a_edge4_Node000004_Node000005"><a xlink:title=" ">
<path fill="none" stroke="#63b8ff" d="M91.69,-352C80.09,-352 68.31,-352 58.21,-352"/>
<polygon fill="#63b8ff" stroke="#63b8ff" points="91.67,-355.5 101.67,-352 91.67,-348.5 91.67,-355.5"/>
</a>
</g>
</g>
<!-- Node7 -->
<g id="Node000007" class="node">
<title>Node7</title>
<g id="a_Node000007"><a xlink:href="external__examples_2d1468452_2apps_23d__graphics_2main_23d__graphics__demo_8cpp.html#abce06be17fc37d675118a678a8100a36" target="_top" xlink:title=" ">
<polygon fill="white" stroke="#666666" points="58,-324 0,-324 0,-304 58,-304 58,-324"/>
<text xml:space="preserve" text-anchor="middle" x="29" y="-310.5" font-family="Helvetica,sans-Serif" font-size="10.00">app_main</text>
</a>
</g>
</g>
<!-- Node6&#45;&gt;Node7 -->
<g id="edge6_Node000006_Node000007" class="edge">
<title>Node6&#45;&gt;Node7</title>
<g id="a_edge6_Node000006_Node000007"><a xlink:title=" ">
<path fill="none" stroke="#63b8ff" d="M91.69,-314C80.09,-314 68.31,-314 58.21,-314"/>
<polygon fill="#63b8ff" stroke="#63b8ff" points="91.67,-317.5 101.67,-314 91.67,-310.5 91.67,-317.5"/>
</a>
</g>
</g>
<!-- Node9 -->
<g id="Node000009" class="node">
<title>Node9</title>
<g id="a_Node000009"><a xlink:href="external__examples_2f9c2d4b3_2azure__board__apps_2apps_23d__graphics_2main_23d__graphics__demo_8cpp.html#abce06be17fc37d675118a678a8100a36" target="_top" xlink:title=" ">
<polygon fill="white" stroke="#666666" points="58,-286 0,-286 0,-266 58,-266 58,-286"/>
<text xml:space="preserve" text-anchor="middle" x="29" y="-272.5" font-family="Helvetica,sans-Serif" font-size="10.00">app_main</text>
</a>
</g>
</g>
<!-- Node8&#45;&gt;Node9 -->
<g id="edge8_Node000008_Node000009" class="edge">
<title>Node8&#45;&gt;Node9</title>
<g id="a_edge8_Node000008_Node000009"><a xlink:title=" ">
<path fill="none" stroke="#63b8ff" d="M91.69,-276C80.09,-276 68.31,-276 58.21,-276"/>
<polygon fill="#63b8ff" stroke="#63b8ff" points="91.67,-279.5 101.67,-276 91.67,-272.5 91.67,-279.5"/>
</a>
</g>
</g>
<!-- Node10&#45;&gt;Node3 -->
<g id="edge10_Node000010_Node000003" class="edge">
<title>Node10&#45;&gt;Node3</title>
<g id="a_edge10_Node000010_Node000003"><a xlink:title=" ">
<path fill="none" stroke="#63b8ff" d="M82.54,-400.48C74.08,-401.85 65.78,-403.2 58.38,-404.4"/>
<polygon fill="#63b8ff" stroke="#63b8ff" points="82.9,-403.96 92.21,-398.91 81.78,-397.05 82.9,-403.96"/>
</a>
</g>
</g>
</g>
</svg>
</svg>

<style type='text/css'>
<![CDATA[
[data-mouse-over-selected='false'] { opacity: 0.7; }
[data-mouse-over-selected='true']  { opacity: 1.0; }
]]>
</style>
<script type="application/ecmascript"><![CDATA[
document.addEventListener('DOMContentLoaded', (event) => {
  highlightEdges();
  highlightAdjacentNodes();
});
]]></script>
</svg>
