<?xml version="1.0" encoding="UTF-8" standalone="no"?>
<!DOCTYPE svg PUBLIC "-//W3C//DTD SVG 1.1//EN"
 "http://www.w3.org/Graphics/SVG/1.1/DTD/svg11.dtd">
<!-- Generated by graphviz version 14.1.2 (20260124.0452)
 -->
<!-- Title: graphics_support.cpp Pages: 1 -->
<svg width="2107pt" height="364pt"
 viewBox="0.00 0.00 2107.00 364.00" xmlns="http://www.w3.org/2000/svg" xmlns:xlink="http://www.w3.org/1999/xlink">
<g id="graph0" class="graph" transform="scale(1 1) rotate(0) translate(4 360)">
<title>graphics_support.cpp</title>
<!-- Node1 -->
<g id="Node000001" class="node">
<title>Node1</title>
<g id="a_Node000001"><a xlink:title=" ">
<polygon fill="#999999" stroke="#666666" points="1365.5,-356 1256.5,-356 1256.5,-336 1365.5,-336 1365.5,-356"/>
<text xml:space="preserve" text-anchor="middle" x="1311" y="-342.5" font-family="Helvetica,sans-Serif" font-size="10.00">graphics_support.cpp</text>
</a>
</g>
</g>
<!-- Node2 -->
<g id="Node000002" class="node">
<title>Node2</title>
<g id="a_Node000002"><a xlink:title=" ">
<polygon fill="#e0e0e0" stroke="#999999" points="1243.38,-300 1190.62,-300 1190.62,-280 1243.38,-280 1243.38,-300"/>
<text xml:space="preserve" text-anchor="middle" x="1217" y="-286.5" font-family="Helvetica,sans-Serif" font-size="10.00">malloc.h</text>
</a>
</g>
</g>
<!-- Node1&#45;&gt;Node2 -->
<g id="edge1_Node000001_Node000002" class="edge">
<title>Node1&#45;&gt;Node2</title>
<g id="a_edge1_Node000001_Node000002"><a xlink:title=" ">
<path fill="none" stroke="#63b8ff" d="M1294.63,-335.59C1280.43,-327.44 1259.62,-315.48 1243.12,-306"/>
<polygon fill="#63b8ff" stroke="#63b8ff" points="1245.23,-303.18 1234.81,-301.23 1241.74,-309.25 1245.23,-303.18"/>
</a>
</g>
</g>
<!-- Node3 -->
<g id="Node000003" class="node">
<title>Node3</title>
<g id="a_Node000003"><a xlink:title=" ">
<polygon fill="#e0e0e0" stroke="#999999" points="2099,-132 2053,-132 2053,-112 2099,-112 2099,-132"/>
<text xml:space="preserve" text-anchor="middle" x="2076" y="-118.5" font-family="Helvetica,sans-Serif" font-size="10.00">math.h</text>
</a>
</g>
</g>
<!-- Node1&#45;&gt;Node3 -->
<g id="edge2_Node000001_Node000003" class="edge">
<title>Node1&#45;&gt;Node3</title>
<g id="a_edge2_Node000001_Node000003"><a xlink:title=" ">
<path fill="none" stroke="#63b8ff" d="M1365.83,-340.85C1520.97,-328.02 1958.28,-283.91 2059,-188 2070.89,-176.68 2074.84,-158.15 2076,-143.77"/>
<polygon fill="#63b8ff" stroke="#63b8ff" points="2079.48,-144.12 2076.36,-134 2072.49,-143.86 2079.48,-144.12"/>
</a>
</g>
</g>
<!-- Node4 -->
<g id="Node000004" class="node">
<title>Node4</title>
<g id="a_Node000004"><a xlink:href="applications_2azure__board__apps_2graphics_23d__matrix_23d__matrix__src_2graphics__support_8h.html" target="_top" xlink:title=" ">
<polygon fill="white" stroke="#666666" points="1360.25,-300 1261.75,-300 1261.75,-280 1360.25,-280 1360.25,-300"/>
<text xml:space="preserve" text-anchor="middle" x="1311" y="-286.5" font-family="Helvetica,sans-Serif" font-size="10.00">graphics_support.h</text>
</a>
</g>
</g>
<!-- Node1&#45;&gt;Node4 -->
<g id="edge3_Node000001_Node000004" class="edge">
<title>Node1&#45;&gt;Node4</title>
<g id="a_edge3_Node000001_Node000004"><a xlink:title=" ">
<path fill="none" stroke="#63b8ff" d="M1311,-335.59C1311,-329.01 1311,-319.96 1311,-311.73"/>
<polygon fill="#63b8ff" stroke="#63b8ff" points="1314.5,-311.81 1311,-301.81 1307.5,-311.81 1314.5,-311.81"/>
</a>
</g>
</g>
<!-- Node5 -->
<g id="Node000005" class="node">
<title>Node5</title>
<g id="a_Node000005"><a xlink:href="esp__dsp_8h.html" target="_top" xlink:title=" ">
<polygon fill="white" stroke="#666666" points="1093.5,-244 1032.5,-244 1032.5,-224 1093.5,-224 1093.5,-244"/>
<text xml:space="preserve" text-anchor="middle" x="1063" y="-230.5" font-family="Helvetica,sans-Serif" font-size="10.00">esp_dsp.h</text>
</a>
</g>
</g>
<!-- Node4&#45;&gt;Node5 -->
<g id="edge4_Node000004_Node000005" class="edge">
<title>Node4&#45;&gt;Node5</title>
<g id="a_edge4_Node000004_Node000005"><a xlink:title=" ">
<path fill="none" stroke="#63b8ff" d="M1267.52,-279.53C1221.77,-269.57 1150.26,-254 1105.05,-244.16"/>
<polygon fill="#63b8ff" stroke="#63b8ff" points="1105.87,-240.75 1095.36,-242.05 1104.38,-247.59 1105.87,-240.75"/>
</a>
</g>
</g>
<!-- Node7 -->
<g id="Node000007" class="node">
<title>Node7</title>
<g id="a_Node000007"><a xlink:title=" ">
<polygon fill="#e0e0e0" stroke="#999999" points="340.12,-20 291.88,-20 291.88,0 340.12,0 340.12,-20"/>
<text xml:space="preserve" text-anchor="middle" x="316" y="-6.5" font-family="Helvetica,sans-Serif" font-size="10.00">stdint.h</text>
</a>
</g>
</g>
<!-- Node4&#45;&gt;Node7 -->
<g id="edge38_Node000004_Node000007" class="edge">
<title>Node4&#45;&gt;Node7</title>
<g id="a_edge38_Node000004_Node000007"><a xlink:title=" ">
<path fill="none" stroke="#63b8ff" d="M1261.46,-281.16C1258.26,-280.74 1255.09,-280.35 1252,-280 1113.33,-264.27 0,-318.56 0,-179 0,-179 0,-179 0,-121 0,-62.24 197.33,-27.66 280.12,-15.73"/>
<polygon fill="#63b8ff" stroke="#63b8ff" points="280.55,-19.21 289.97,-14.35 279.58,-12.28 280.55,-19.21"/>
</a>
</g>
</g>
<!-- Node75 -->
<g id="Node000075" class="node">
<title>Node75</title>
<g id="a_Node000075"><a xlink:href="ekf__imu13states_8h.html" target="_top" xlink:title=" ">
<polygon fill="white" stroke="#666666" points="1607.12,-244 1510.88,-244 1510.88,-224 1607.12,-224 1607.12,-244"/>
<text xml:space="preserve" text-anchor="middle" x="1559" y="-230.5" font-family="Helvetica,sans-Serif" font-size="10.00">ekf_imu13states.h</text>
</a>
</g>
</g>
<!-- Node4&#45;&gt;Node75 -->
<g id="edge34_Node000004_Node000075" class="edge">
<title>Node4&#45;&gt;Node75</title>
<g id="a_edge34_Node000004_Node000075"><a xlink:title=" ">
<path fill="none" stroke="#63b8ff" d="M1354.48,-279.53C1396.23,-270.44 1459.43,-256.68 1504.52,-246.86"/>
<polygon fill="#63b8ff" stroke="#63b8ff" points="1505.06,-250.33 1514.09,-244.78 1503.57,-243.49 1505.06,-250.33"/>
</a>
</g>
</g>
<!-- Node6 -->
<g id="Node000006" class="node">
<title>Node6</title>
<g id="a_Node000006"><a xlink:href="dsp__common_8h.html" target="_top" xlink:title=" ">
<polygon fill="#fff0f0" stroke="red" points="376.38,-76 293.62,-76 293.62,-56 376.38,-56 376.38,-76"/>
<text xml:space="preserve" text-anchor="middle" x="335" y="-62.5" font-family="Helvetica,sans-Serif" font-size="10.00">dsp_common.h</text>
</a>
</g>
</g>
<!-- Node5&#45;&gt;Node6 -->
<g id="edge5_Node000005_Node000006" class="edge">
<title>Node5&#45;&gt;Node6</title>
<g id="a_edge5_Node000005_Node000006"><a xlink:title=" ">
<path fill="none" stroke="#63b8ff" d="M1093.99,-232.04C1250.77,-227.08 1949.65,-204.13 1965,-188 1971.13,-181.56 1971.09,-174.48 1965,-168 1909.69,-109.16 661.58,-75.05 387.78,-68.26"/>
<polygon fill="#63b8ff" stroke="#63b8ff" points="388.19,-64.77 378.1,-68.02 388.01,-71.77 388.19,-64.77"/>
</a>
</g>
</g>
<!-- Node15 -->
<g id="Node000015" class="node">
<title>Node15</title>
<g id="a_Node000015"><a xlink:href="dsp__types_8h.html" target="_top" xlink:title=" ">
<polygon fill="#fff0f0" stroke="red" points="225.62,-132 156.38,-132 156.38,-112 225.62,-112 225.62,-132"/>
<text xml:space="preserve" text-anchor="middle" x="191" y="-118.5" font-family="Helvetica,sans-Serif" font-size="10.00">dsp_types.h</text>
</a>
</g>
</g>
<!-- Node5&#45;&gt;Node15 -->
<g id="edge7_Node000005_Node000015" class="edge">
<title>Node5&#45;&gt;Node15</title>
<g id="a_edge7_Node000005_Node000015"><a xlink:title=" ">
<path fill="none" stroke="#63b8ff" d="M1032.42,-232.83C891.91,-231.82 312.05,-225.43 241,-188 222.15,-178.07 208.25,-157.53 199.95,-142.18"/>
<polygon fill="#63b8ff" stroke="#63b8ff" points="203.21,-140.87 195.6,-133.51 196.96,-144.01 203.21,-140.87"/>
</a>
</g>
</g>
<!-- Node17 -->
<g id="Node000017" class="node">
<title>Node17</title>
<g id="a_Node000017"><a xlink:href="dsps__dotprod_8h.html" target="_top" xlink:title=" ">
<polygon fill="#fff0f0" stroke="red" points="482.38,-188 399.62,-188 399.62,-168 482.38,-168 482.38,-188"/>
<text xml:space="preserve" text-anchor="middle" x="441" y="-174.5" font-family="Helvetica,sans-Serif" font-size="10.00">dsps_dotprod.h</text>
</a>
</g>
</g>
<!-- Node5&#45;&gt;Node17 -->
<g id="edge9_Node000005_Node000017" class="edge">
<title>Node5&#45;&gt;Node17</title>
<g id="a_edge9_Node000005_Node000017"><a xlink:title=" ">
<path fill="none" stroke="#63b8ff" d="M1032.25,-231.62C948,-227.61 706.13,-214.63 494.05,-188.13"/>
<polygon fill="#63b8ff" stroke="#63b8ff" points="494.56,-184.67 484.2,-186.88 493.68,-191.61 494.56,-184.67"/>
</a>
</g>
</g>
<!-- Node21 -->
<g id="Node000021" class="node">
<title>Node21</title>
<g id="a_Node000021"><a xlink:href="dsps__math_8h.html" target="_top" xlink:title=" ">
<polygon fill="#fff0f0" stroke="red" points="573.12,-188 500.88,-188 500.88,-168 573.12,-168 573.12,-188"/>
<text xml:space="preserve" text-anchor="middle" x="537" y="-174.5" font-family="Helvetica,sans-Serif" font-size="10.00">dsps_math.h</text>
</a>
</g>
</g>
<!-- Node5&#45;&gt;Node21 -->
<g id="edge10_Node000005_Node000021" class="edge">
<title>Node5&#45;&gt;Node21</title>
<g id="a_edge10_Node000005_Node000021"><a xlink:title=" ">
<path fill="none" stroke="#63b8ff" d="M1032.2,-231.23C957.32,-226.71 759.62,-213.33 584.53,-188.23"/>
<polygon fill="#63b8ff" stroke="#63b8ff" points="585.19,-184.79 574.79,-186.81 584.18,-191.71 585.19,-184.79"/>
</a>
</g>
</g>
<!-- Node33 -->
<g id="Node000033" class="node">
<title>Node33</title>
<g id="a_Node000033"><a xlink:href="dsps__fir_8h.html" target="_top" xlink:title=" ">
<polygon fill="#fff0f0" stroke="red" points="364.38,-132 305.62,-132 305.62,-112 364.38,-112 364.38,-132"/>
<text xml:space="preserve" text-anchor="middle" x="335" y="-118.5" font-family="Helvetica,sans-Serif" font-size="10.00">dsps_fir.h</text>
</a>
</g>
</g>
<!-- Node5&#45;&gt;Node33 -->
<g id="edge11_Node000005_Node000033" class="edge">
<title>Node5&#45;&gt;Node33</title>
<g id="a_edge11_Node000005_Node000033"><a xlink:title=" ">
<path fill="none" stroke="#63b8ff" d="M1032.41,-232.34C908.65,-229.46 448.86,-216.9 391,-188 370.86,-177.94 354.98,-157.11 345.36,-141.72"/>
<polygon fill="#63b8ff" stroke="#63b8ff" points="348.57,-140.29 340.48,-133.45 342.54,-143.84 348.57,-140.29"/>
</a>
</g>
</g>
<!-- Node35 -->
<g id="Node000035" class="node">
<title>Node35</title>
<g id="a_Node000035"><a xlink:href="dsps__resampler_8h.html" target="_top" xlink:title=" ">
<polygon fill="#fff0f0" stroke="red" points="343.62,-188 250.38,-188 250.38,-168 343.62,-168 343.62,-188"/>
<text xml:space="preserve" text-anchor="middle" x="297" y="-174.5" font-family="Helvetica,sans-Serif" font-size="10.00">dsps_resampler.h</text>
</a>
</g>
</g>
<!-- Node5&#45;&gt;Node35 -->
<g id="edge13_Node000005_Node000035" class="edge">
<title>Node5&#45;&gt;Node35</title>
<g id="a_edge13_Node000005_Node000035"><a xlink:title=" ">
<path fill="none" stroke="#63b8ff" d="M1032.35,-231.95C934.07,-228.39 618.1,-215.44 358,-188 357,-187.89 355.99,-187.78 354.97,-187.67"/>
<polygon fill="#63b8ff" stroke="#63b8ff" points="355.76,-184.24 345.41,-186.5 354.91,-191.19 355.76,-184.24"/>
</a>
</g>
</g>
<!-- Node36 -->
<g id="Node000036" class="node">
<title>Node36</title>
<g id="a_Node000036"><a xlink:href="dsps__biquad_8h.html" target="_top" xlink:title=" ">
<polygon fill="#fff0f0" stroke="red" points="670.5,-188 591.5,-188 591.5,-168 670.5,-168 670.5,-188"/>
<text xml:space="preserve" text-anchor="middle" x="631" y="-174.5" font-family="Helvetica,sans-Serif" font-size="10.00">dsps_biquad.h</text>
</a>
</g>
</g>
<!-- Node5&#45;&gt;Node36 -->
<g id="edge15_Node000005_Node000036" class="edge">
<title>Node5&#45;&gt;Node36</title>
<g id="a_edge15_Node000005_Node000036"><a xlink:title=" ">
<path fill="none" stroke="#63b8ff" d="M1032.13,-230.06C968.64,-223.86 818.61,-208.46 681.89,-188.19"/>
<polygon fill="#63b8ff" stroke="#63b8ff" points="682.71,-184.78 672.31,-186.76 681.68,-191.7 682.71,-184.78"/>
</a>
</g>
</g>
<!-- Node38 -->
<g id="Node000038" class="node">
<title>Node38</title>
<g id="a_Node000038"><a xlink:href="dsps__biquad__gen_8h.html" target="_top" xlink:title=" ">
<polygon fill="#fff0f0" stroke="red" points="789,-188 689,-188 689,-168 789,-168 789,-188"/>
<text xml:space="preserve" text-anchor="middle" x="739" y="-174.5" font-family="Helvetica,sans-Serif" font-size="10.00">dsps_biquad_gen.h</text>
</a>
</g>
</g>
<!-- Node5&#45;&gt;Node38 -->
<g id="edge16_Node000005_Node000038" class="edge">
<title>Node5&#45;&gt;Node38</title>
<g id="a_edge16_Node000005_Node000038"><a xlink:title=" ">
<path fill="none" stroke="#63b8ff" d="M1032.23,-227.87C979.18,-219.03 869.58,-200.76 800.43,-189.24"/>
<polygon fill="#63b8ff" stroke="#63b8ff" points="801.21,-185.82 790.77,-187.63 800.06,-192.72 801.21,-185.82"/>
</a>
</g>
</g>
<!-- Node39 -->
<g id="Node000039" class="node">
<title>Node39</title>
<g id="a_Node000039"><a xlink:href="dsps__wind_8h.html" target="_top" xlink:title=" ">
<polygon fill="#fff0f0" stroke="red" points="877.38,-188 806.62,-188 806.62,-168 877.38,-168 877.38,-188"/>
<text xml:space="preserve" text-anchor="middle" x="842" y="-174.5" font-family="Helvetica,sans-Serif" font-size="10.00">dsps_wind.h</text>
</a>
</g>
</g>
<!-- Node5&#45;&gt;Node39 -->
<g id="edge17_Node000005_Node000039" class="edge">
<title>Node5&#45;&gt;Node39</title>
<g id="a_edge17_Node000005_Node000039"><a xlink:title=" ">
<path fill="none" stroke="#63b8ff" d="M1032.27,-225.49C995.04,-216.39 931.93,-200.97 888.67,-190.4"/>
<polygon fill="#63b8ff" stroke="#63b8ff" points="889.6,-187.03 879.05,-188.05 887.94,-193.83 889.6,-187.03"/>
</a>
</g>
</g>
<!-- Node46 -->
<g id="Node000046" class="node">
<title>Node46</title>
<g id="a_Node000046"><a xlink:href="dsps__conv_8h.html" target="_top" xlink:title=" ">
<polygon fill="#fff0f0" stroke="red" points="966.38,-188 895.62,-188 895.62,-168 966.38,-168 966.38,-188"/>
<text xml:space="preserve" text-anchor="middle" x="931" y="-174.5" font-family="Helvetica,sans-Serif" font-size="10.00">dsps_conv.h</text>
</a>
</g>
</g>
<!-- Node5&#45;&gt;Node46 -->
<g id="edge18_Node000005_Node000046" class="edge">
<title>Node5&#45;&gt;Node46</title>
<g id="a_edge18_Node000005_Node000046"><a xlink:title=" ">
<path fill="none" stroke="#63b8ff" d="M1040.01,-223.59C1019.22,-215.09 988.35,-202.46 964.76,-192.81"/>
<polygon fill="#63b8ff" stroke="#63b8ff" points="966.15,-189.6 955.57,-189.05 963.5,-196.08 966.15,-189.6"/>
</a>
</g>
</g>
<!-- Node48 -->
<g id="Node000048" class="node">
<title>Node48</title>
<g id="a_Node000048"><a xlink:href="dsps__corr_8h.html" target="_top" xlink:title=" ">
<polygon fill="#fff0f0" stroke="red" points="1051.5,-188 984.5,-188 984.5,-168 1051.5,-168 1051.5,-188"/>
<text xml:space="preserve" text-anchor="middle" x="1018" y="-174.5" font-family="Helvetica,sans-Serif" font-size="10.00">dsps_corr.h</text>
</a>
</g>
</g>
<!-- Node5&#45;&gt;Node48 -->
<g id="edge19_Node000005_Node000048" class="edge">
<title>Node5&#45;&gt;Node48</title>
<g id="a_edge19_Node000005_Node000048"><a xlink:title=" ">
<path fill="none" stroke="#63b8ff" d="M1055.16,-223.59C1049.03,-216.24 1040.33,-205.8 1032.89,-196.87"/>
<polygon fill="#63b8ff" stroke="#63b8ff" points="1035.81,-194.9 1026.72,-189.46 1030.43,-199.38 1035.81,-194.9"/>
</a>
</g>
</g>
<!-- Node49 -->
<g id="Node000049" class="node">
<title>Node49</title>
<g id="a_Node000049"><a xlink:href="dsps__d__gen_8h.html" target="_top" xlink:title=" ">
<polygon fill="#fff0f0" stroke="red" points="1146.38,-188 1069.62,-188 1069.62,-168 1146.38,-168 1146.38,-188"/>
<text xml:space="preserve" text-anchor="middle" x="1108" y="-174.5" font-family="Helvetica,sans-Serif" font-size="10.00">dsps_d_gen.h</text>
</a>
</g>
</g>
<!-- Node5&#45;&gt;Node49 -->
<g id="edge20_Node000005_Node000049" class="edge">
<title>Node5&#45;&gt;Node49</title>
<g id="a_edge20_Node000005_Node000049"><a xlink:title=" ">
<path fill="none" stroke="#63b8ff" d="M1070.84,-223.59C1076.97,-216.24 1085.67,-205.8 1093.11,-196.87"/>
<polygon fill="#63b8ff" stroke="#63b8ff" points="1095.57,-199.38 1099.28,-189.46 1090.19,-194.9 1095.57,-199.38"/>
</a>
</g>
</g>
<!-- Node50 -->
<g id="Node000050" class="node">
<title>Node50</title>
<g id="a_Node000050"><a xlink:href="dsps__h__gen_8h.html" target="_top" xlink:title=" ">
<polygon fill="#fff0f0" stroke="red" points="1241.38,-188 1164.62,-188 1164.62,-168 1241.38,-168 1241.38,-188"/>
<text xml:space="preserve" text-anchor="middle" x="1203" y="-174.5" font-family="Helvetica,sans-Serif" font-size="10.00">dsps_h_gen.h</text>
</a>
</g>
</g>
<!-- Node5&#45;&gt;Node50 -->
<g id="edge21_Node000005_Node000050" class="edge">
<title>Node5&#45;&gt;Node50</title>
<g id="a_edge21_Node000005_Node000050"><a xlink:title=" ">
<path fill="none" stroke="#63b8ff" d="M1087.39,-223.59C1109.63,-215.01 1142.77,-202.23 1167.87,-192.55"/>
<polygon fill="#63b8ff" stroke="#63b8ff" points="1168.94,-195.89 1177.01,-189.02 1166.42,-189.36 1168.94,-195.89"/>
</a>
</g>
</g>
<!-- Node51 -->
<g id="Node000051" class="node">
<title>Node51</title>
<g id="a_Node000051"><a xlink:href="dsps__tone__gen_8h.html" target="_top" xlink:title=" ">
<polygon fill="#fff0f0" stroke="red" points="1350.12,-188 1259.88,-188 1259.88,-168 1350.12,-168 1350.12,-188"/>
<text xml:space="preserve" text-anchor="middle" x="1305" y="-174.5" font-family="Helvetica,sans-Serif" font-size="10.00">dsps_tone_gen.h</text>
</a>
</g>
</g>
<!-- Node5&#45;&gt;Node51 -->
<g id="edge22_Node000005_Node000051" class="edge">
<title>Node5&#45;&gt;Node51</title>
<g id="a_edge22_Node000005_Node000051"><a xlink:title=" ">
<path fill="none" stroke="#63b8ff" d="M1093.65,-226.16C1133.33,-217.31 1203.13,-201.73 1251.61,-190.91"/>
<polygon fill="#63b8ff" stroke="#63b8ff" points="1252.35,-194.33 1261.35,-188.74 1250.83,-187.5 1252.35,-194.33"/>
</a>
</g>
</g>
<!-- Node52 -->
<g id="Node000052" class="node">
<title>Node52</title>
<g id="a_Node000052"><a xlink:href="dsps__snr_8h.html" target="_top" xlink:title=" ">
<polygon fill="#fff0f0" stroke="red" points="1432,-188 1368,-188 1368,-168 1432,-168 1432,-188"/>
<text xml:space="preserve" text-anchor="middle" x="1400" y="-174.5" font-family="Helvetica,sans-Serif" font-size="10.00">dsps_snr.h</text>
</a>
</g>
</g>
<!-- Node5&#45;&gt;Node52 -->
<g id="edge23_Node000005_Node000052" class="edge">
<title>Node5&#45;&gt;Node52</title>
<g id="a_edge23_Node000005_Node000052"><a xlink:title=" ">
<path fill="none" stroke="#63b8ff" d="M1093.79,-228.99C1145.82,-222.08 1254.66,-206.99 1356.69,-188.33"/>
<polygon fill="#63b8ff" stroke="#63b8ff" points="1357.12,-191.81 1366.32,-186.55 1355.85,-184.92 1357.12,-191.81"/>
</a>
</g>
</g>
<!-- Node53 -->
<g id="Node000053" class="node">
<title>Node53</title>
<g id="a_Node000053"><a xlink:href="dsps__sfdr_8h.html" target="_top" xlink:title=" ">
<polygon fill="#fff0f0" stroke="red" points="1517.5,-188 1450.5,-188 1450.5,-168 1517.5,-168 1517.5,-188"/>
<text xml:space="preserve" text-anchor="middle" x="1484" y="-174.5" font-family="Helvetica,sans-Serif" font-size="10.00">dsps_sfdr.h</text>
</a>
</g>
</g>
<!-- Node5&#45;&gt;Node53 -->
<g id="edge24_Node000005_Node000053" class="edge">
<title>Node5&#45;&gt;Node53</title>
<g id="a_edge24_Node000005_Node000053"><a xlink:title=" ">
<path fill="none" stroke="#63b8ff" d="M1094,-230.24C1156.95,-224.44 1304.48,-209.83 1438.94,-188.2"/>
<polygon fill="#63b8ff" stroke="#63b8ff" points="1439.45,-191.66 1448.76,-186.6 1438.33,-184.75 1439.45,-191.66"/>
</a>
</g>
</g>
<!-- Node54 -->
<g id="Node000054" class="node">
<title>Node54</title>
<g id="a_Node000054"><a xlink:href="dsps__fft2r_8h.html" target="_top" xlink:title=" ">
<polygon fill="#fff0f0" stroke="red" points="1602.5,-188 1535.5,-188 1535.5,-168 1602.5,-168 1602.5,-188"/>
<text xml:space="preserve" text-anchor="middle" x="1569" y="-174.5" font-family="Helvetica,sans-Serif" font-size="10.00">dsps_fft2r.h</text>
</a>
</g>
</g>
<!-- Node5&#45;&gt;Node54 -->
<g id="edge25_Node000005_Node000054" class="edge">
<title>Node5&#45;&gt;Node54</title>
<g id="a_edge25_Node000005_Node000054"><a xlink:title=" ">
<path fill="none" stroke="#63b8ff" d="M1093.83,-231.23C1166.86,-226.79 1356.28,-213.74 1523.87,-188.34"/>
<polygon fill="#63b8ff" stroke="#63b8ff" points="1524.29,-191.81 1533.64,-186.83 1523.22,-184.89 1524.29,-191.81"/>
</a>
</g>
</g>
<!-- Node57 -->
<g id="Node000057" class="node">
<title>Node57</title>
<g id="a_Node000057"><a xlink:href="dsps__fft4r_8h.html" target="_top" xlink:title=" ">
<polygon fill="#fff0f0" stroke="red" points="1687.5,-188 1620.5,-188 1620.5,-168 1687.5,-168 1687.5,-188"/>
<text xml:space="preserve" text-anchor="middle" x="1654" y="-174.5" font-family="Helvetica,sans-Serif" font-size="10.00">dsps_fft4r.h</text>
</a>
</g>
</g>
<!-- Node5&#45;&gt;Node57 -->
<g id="edge26_Node000005_Node000057" class="edge">
<title>Node5&#45;&gt;Node57</title>
<g id="a_edge26_Node000005_Node000057"><a xlink:title=" ">
<path fill="none" stroke="#63b8ff" d="M1093.81,-231.87C1175.99,-228.57 1407.36,-217.34 1609.04,-188.27"/>
<polygon fill="#63b8ff" stroke="#63b8ff" points="1609.26,-191.78 1618.64,-186.87 1608.24,-184.85 1609.26,-191.78"/>
</a>
</g>
</g>
<!-- Node59 -->
<g id="Node000059" class="node">
<title>Node59</title>
<g id="a_Node000059"><a xlink:href="dsps__dct_8h.html" target="_top" xlink:title=" ">
<polygon fill="#fff0f0" stroke="red" points="1770,-188 1706,-188 1706,-168 1770,-168 1770,-188"/>
<text xml:space="preserve" text-anchor="middle" x="1738" y="-174.5" font-family="Helvetica,sans-Serif" font-size="10.00">dsps_dct.h</text>
</a>
</g>
</g>
<!-- Node5&#45;&gt;Node59 -->
<g id="edge27_Node000005_Node000059" class="edge">
<title>Node5&#45;&gt;Node59</title>
<g id="a_edge27_Node000005_Node000059"><a xlink:title=" ">
<path fill="none" stroke="#63b8ff" d="M1093.85,-232.4C1184.51,-230.29 1458.1,-221.53 1694.62,-188.13"/>
<polygon fill="#63b8ff" stroke="#63b8ff" points="1694.95,-191.62 1704.35,-186.73 1693.96,-184.69 1694.95,-191.62"/>
</a>
</g>
</g>
<!-- Node60 -->
<g id="Node000060" class="node">
<title>Node60</title>
<g id="a_Node000060"><a xlink:href="dspm__matrix_8h.html" target="_top" xlink:title=" ">
<polygon fill="#fff0f0" stroke="red" points="1868.25,-188 1787.75,-188 1787.75,-168 1868.25,-168 1868.25,-188"/>
<text xml:space="preserve" text-anchor="middle" x="1828" y="-174.5" font-family="Helvetica,sans-Serif" font-size="10.00">dspm_matrix.h</text>
</a>
</g>
</g>
<!-- Node5&#45;&gt;Node60 -->
<g id="edge28_Node000005_Node000060" class="edge">
<title>Node5&#45;&gt;Node60</title>
<g id="a_edge28_Node000005_Node000060"><a xlink:title=" ">
<path fill="none" stroke="#63b8ff" d="M1093.83,-232.37C1192.01,-230.09 1506.31,-220.68 1776.22,-188.2"/>
<polygon fill="#63b8ff" stroke="#63b8ff" points="1776.41,-191.7 1785.91,-187.02 1775.56,-184.76 1776.41,-191.7"/>
</a>
</g>
</g>
<!-- Node71 -->
<g id="Node000071" class="node">
<title>Node71</title>
<g id="a_Node000071"><a xlink:href="dsps__view_8h.html" target="_top" xlink:title=" ">
<polygon fill="#fff0f0" stroke="red" points="1956,-188 1886,-188 1886,-168 1956,-168 1956,-188"/>
<text xml:space="preserve" text-anchor="middle" x="1921" y="-174.5" font-family="Helvetica,sans-Serif" font-size="10.00">dsps_view.h</text>
</a>
</g>
</g>
<!-- Node5&#45;&gt;Node71 -->
<g id="edge29_Node000005_Node000071" class="edge">
<title>Node5&#45;&gt;Node71</title>
<g id="a_edge29_Node000005_Node000071"><a xlink:title=" ">
<path fill="none" stroke="#63b8ff" d="M1093.83,-232.92C1200.63,-232.3 1564.78,-227.34 1874.54,-188.13"/>
<polygon fill="#63b8ff" stroke="#63b8ff" points="1874.56,-191.65 1884.03,-186.91 1873.67,-184.71 1874.56,-191.65"/>
</a>
</g>
</g>
<!-- Node72 -->
<g id="Node000072" class="node">
<title>Node72</title>
<g id="a_Node000072"><a xlink:href="dspi__dotprod_8h.html" target="_top" xlink:title=" ">
<polygon fill="#fff0f0" stroke="red" points="107.88,-188 28.12,-188 28.12,-168 107.88,-168 107.88,-188"/>
<text xml:space="preserve" text-anchor="middle" x="68" y="-174.5" font-family="Helvetica,sans-Serif" font-size="10.00">dspi_dotprod.h</text>
</a>
</g>
</g>
<!-- Node5&#45;&gt;Node72 -->
<g id="edge30_Node000005_Node000072" class="edge">
<title>Node5&#45;&gt;Node72</title>
<g id="a_edge30_Node000005_Node000072"><a xlink:title=" ">
<path fill="none" stroke="#63b8ff" d="M1032.25,-233.03C914.93,-232.84 484.09,-229.29 119.62,-188.14"/>
<polygon fill="#63b8ff" stroke="#63b8ff" points="120.15,-184.68 109.82,-187.02 119.35,-191.63 120.15,-184.68"/>
</a>
</g>
</g>
<!-- Node74 -->
<g id="Node000074" class="node">
<title>Node74</title>
<g id="a_Node000074"><a xlink:href="dspi__conv_8h.html" target="_top" xlink:title=" ">
<polygon fill="#fff0f0" stroke="red" points="193.88,-188 126.12,-188 126.12,-168 193.88,-168 193.88,-188"/>
<text xml:space="preserve" text-anchor="middle" x="160" y="-174.5" font-family="Helvetica,sans-Serif" font-size="10.00">dspi_conv.h</text>
</a>
</g>
</g>
<!-- Node5&#45;&gt;Node74 -->
<g id="edge32_Node000005_Node000074" class="edge">
<title>Node5&#45;&gt;Node74</title>
<g id="a_edge32_Node000005_Node000074"><a xlink:title=" ">
<path fill="none" stroke="#63b8ff" d="M1032.2,-232.85C920.82,-232.01 528.64,-226.33 208,-188 207.16,-187.9 206.32,-187.79 205.47,-187.68"/>
<polygon fill="#63b8ff" stroke="#63b8ff" points="206.17,-184.25 195.76,-186.22 205.13,-191.17 206.17,-184.25"/>
</a>
</g>
</g>
<!-- Node6&#45;&gt;Node7 -->
<g id="edge6_Node000006_Node000007" class="edge">
<title>Node6&#45;&gt;Node7</title>
<g id="a_edge6_Node000006_Node000007"><a xlink:title=" ">
<path fill="none" stroke="#63b8ff" d="M331.69,-55.59C329.32,-48.86 326.04,-39.53 323.09,-31.15"/>
<polygon fill="#63b8ff" stroke="#63b8ff" points="326.39,-30 319.77,-21.73 319.79,-32.32 326.39,-30"/>
</a>
</g>
</g>
<!-- Node15&#45;&gt;Node7 -->
<g id="edge8_Node000015_Node000007" class="edge">
<title>Node15&#45;&gt;Node7</title>
<g id="a_edge8_Node000015_Node000007"><a xlink:title=" ">
<path fill="none" stroke="#63b8ff" d="M201.66,-111.62C222.78,-93.03 270.23,-51.28 296.88,-27.82"/>
<polygon fill="#63b8ff" stroke="#63b8ff" points="299.04,-30.59 304.23,-21.35 294.41,-25.33 299.04,-30.59"/>
</a>
</g>
</g>
<!-- Node33&#45;&gt;Node6 -->
<g id="edge12_Node000033_Node000006" class="edge">
<title>Node33&#45;&gt;Node6</title>
<g id="a_edge12_Node000033_Node000006"><a xlink:title=" ">
<path fill="none" stroke="#63b8ff" d="M335,-111.59C335,-105.01 335,-95.96 335,-87.73"/>
<polygon fill="#63b8ff" stroke="#63b8ff" points="338.5,-87.81 335,-77.81 331.5,-87.81 338.5,-87.81"/>
</a>
</g>
</g>
<!-- Node35&#45;&gt;Node33 -->
<g id="edge14_Node000035_Node000033" class="edge">
<title>Node35&#45;&gt;Node33</title>
<g id="a_edge14_Node000035_Node000033"><a xlink:title=" ">
<path fill="none" stroke="#63b8ff" d="M303.62,-167.59C308.69,-160.39 315.84,-150.23 322.03,-141.43"/>
<polygon fill="#63b8ff" stroke="#63b8ff" points="324.69,-143.73 327.59,-133.54 318.97,-139.7 324.69,-143.73"/>
</a>
</g>
</g>
<!-- Node72&#45;&gt;Node15 -->
<g id="edge31_Node000072_Node000015" class="edge">
<title>Node72&#45;&gt;Node15</title>
<g id="a_edge31_Node000072_Node000015"><a xlink:title=" ">
<path fill="none" stroke="#63b8ff" d="M89.42,-167.59C108.62,-159.17 137.04,-146.69 158.94,-137.07"/>
<polygon fill="#63b8ff" stroke="#63b8ff" points="160.27,-140.31 168.02,-133.09 157.46,-133.9 160.27,-140.31"/>
</a>
</g>
</g>
<!-- Node74&#45;&gt;Node15 -->
<g id="edge33_Node000074_Node000015" class="edge">
<title>Node74&#45;&gt;Node15</title>
<g id="a_edge33_Node000074_Node000015"><a xlink:title=" ">
<path fill="none" stroke="#63b8ff" d="M165.4,-167.59C169.44,-160.55 175.12,-150.67 180.09,-142"/>
<polygon fill="#63b8ff" stroke="#63b8ff" points="182.97,-144.03 184.91,-133.61 176.89,-140.54 182.97,-144.03"/>
</a>
</g>
</g>
<!-- Node76 -->
<g id="Node000076" class="node">
<title>Node76</title>
<g id="a_Node000076"><a xlink:href="ekf_8h.html" target="_top" xlink:title=" ">
<polygon fill="#fff0f0" stroke="red" points="2049.88,-188 2012.12,-188 2012.12,-168 2049.88,-168 2049.88,-188"/>
<text xml:space="preserve" text-anchor="middle" x="2031" y="-174.5" font-family="Helvetica,sans-Serif" font-size="10.00">ekf.h</text>
</a>
</g>
</g>
<!-- Node75&#45;&gt;Node76 -->
<g id="edge35_Node000075_Node000076" class="edge">
<title>Node75&#45;&gt;Node76</title>
<g id="a_edge35_Node000075_Node000076"><a xlink:title=" ">
<path fill="none" stroke="#63b8ff" d="M1607.44,-230.64C1688.74,-226.09 1857.53,-214.17 1998,-188 1999,-187.81 2000.01,-187.61 2001.02,-187.4"/>
<polygon fill="#63b8ff" stroke="#63b8ff" points="2001.56,-190.87 2010.46,-185.13 1999.92,-184.07 2001.56,-190.87"/>
</a>
</g>
</g>
<!-- Node76&#45;&gt;Node3 -->
<g id="edge37_Node000076_Node000003" class="edge">
<title>Node76&#45;&gt;Node3</title>
<g id="a_edge37_Node000076_Node000003"><a xlink:title=" ">
<path fill="none" stroke="#63b8ff" d="M2038.84,-167.59C2044.97,-160.24 2053.67,-149.8 2061.11,-140.87"/>
<polygon fill="#63b8ff" stroke="#63b8ff" points="2063.57,-143.38 2067.28,-133.46 2058.19,-138.9 2063.57,-143.38"/>
</a>
</g>
</g>
<!-- Node76&#45;&gt;Node7 -->
<g id="edge36_Node000076_Node000007" class="edge">
<title>Node76&#45;&gt;Node7</title>
<g id="a_edge36_Node000076_Node000007"><a xlink:title=" ">
<path fill="none" stroke="#63b8ff" d="M2011.67,-173.03C1955.85,-161.73 1789.54,-129.05 1650,-112 1136.02,-49.2 505.54,-19.18 351.28,-12.48"/>
<polygon fill="#63b8ff" stroke="#63b8ff" points="351.85,-9 341.71,-12.06 351.55,-15.99 351.85,-9"/>
</a>
</g>
</g>
</g>
</svg>
