<?xml version="1.0" encoding="UTF-8" standalone="no"?>
<!DOCTYPE svg PUBLIC "-//W3C//DTD SVG 1.1//EN"
 "http://www.w3.org/Graphics/SVG/1.1/DTD/svg11.dtd">
<!-- Generated by graphviz version 14.1.2 (20260124.0452)
 -->
<!-- Title: kalman_filter_task Pages: 1 -->
<svg width="622pt" height="268pt"
 viewBox="0.00 0.00 622.00 268.00" xmlns="http://www.w3.org/2000/svg" xmlns:xlink="http://www.w3.org/1999/xlink">
<g id="graph0" class="graph" transform="scale(1 1) rotate(0) translate(4 264)">
<title>kalman_filter_task</title>
<!-- Node1 -->
<g id="Node000001" class="node">
<title>Node1</title>
<g id="a_Node000001"><a xlink:title="Kalman filter RTOS task (or ESP timer callback).">
<polygon fill="#999999" stroke="#666666" points="95.5,-67 0,-67 0,-47 95.5,-47 95.5,-67"/>
<text xml:space="preserve" text-anchor="middle" x="47.75" y="-53.5" font-family="Helvetica,sans-Serif" font-size="10.00">kalman_filter_task</text>
</a>
</g>
</g>
<!-- Node2 -->
<g id="Node000002" class="node">
<title>Node2</title>
<g id="a_Node000002"><a xlink:href="applications_2azure__board__apps_2apps_2kalman__filter_2main_2kalman__filter__demo_8cpp.html#a2955b9e77f5bd23f109feaaed1496af5" target="_top" xlink:title="Draw a 3d image.">
<polygon fill="white" stroke="#666666" points="218.75,-127 134.5,-127 134.5,-107 218.75,-107 218.75,-127"/>
<text xml:space="preserve" text-anchor="middle" x="176.62" y="-113.5" font-family="Helvetica,sans-Serif" font-size="10.00">draw_3d_image</text>
</a>
</g>
</g>
<!-- Node1&#45;&gt;Node2 -->
<g id="edge1_Node000001_Node000002" class="edge">
<title>Node1&#45;&gt;Node2</title>
<g id="a_edge1_Node000001_Node000002"><a xlink:title=" ">
<path fill="none" stroke="#63b8ff" d="M70.85,-67.45C90.95,-76.96 120.87,-91.1 143.59,-101.85"/>
<polygon fill="#63b8ff" stroke="#63b8ff" points="141.87,-104.91 152.41,-106.02 144.87,-98.58 141.87,-104.91"/>
</a>
</g>
</g>
<!-- Node10 -->
<g id="Node000010" class="node">
<title>Node10</title>
<g id="a_Node000010"><a xlink:href="applications_2azure__board__apps_2graphics_23d__matrix_23d__matrix__src_2graphics__support_8cpp.html#a7361f858eac611923f3e090a2a4837c8" target="_top" xlink:title="update perspective matrix">
<polygon fill="white" stroke="#666666" points="365.62,-32 264.88,-32 264.88,0 365.62,0 365.62,-32"/>
<text xml:space="preserve" text-anchor="start" x="272.88" y="-18.5" font-family="Helvetica,sans-Serif" font-size="10.00">update_perspective</text>
<text xml:space="preserve" text-anchor="middle" x="315.25" y="-6.5" font-family="Helvetica,sans-Serif" font-size="10.00">_matrix</text>
</a>
</g>
</g>
<!-- Node1&#45;&gt;Node10 -->
<g id="edge14_Node000001_Node000010" class="edge">
<title>Node1&#45;&gt;Node10</title>
<g id="a_edge14_Node000001_Node000010"><a xlink:title=" ">
<path fill="none" stroke="#63b8ff" d="M95.96,-53.41C130.87,-50.37 179.47,-45.32 221.75,-38 232.02,-36.22 242.86,-33.98 253.35,-31.62"/>
<polygon fill="#63b8ff" stroke="#63b8ff" points="254.13,-35.03 263.08,-29.36 252.55,-28.21 254.13,-35.03"/>
</a>
</g>
</g>
<!-- Node13 -->
<g id="Node000013" class="node">
<title>Node13</title>
<g id="a_Node000013"><a xlink:href="classdspm_1_1_mat.html#a3b4566db0f4ad277e70c09f5e934b91e" target="_top" xlink:title=" ">
<polygon fill="white" stroke="#666666" points="221.75,-29 131.5,-29 131.5,-9 221.75,-9 221.75,-29"/>
<text xml:space="preserve" text-anchor="middle" x="176.62" y="-15.5" font-family="Helvetica,sans-Serif" font-size="10.00">dspm::Mat::norm</text>
</a>
</g>
</g>
<!-- Node1&#45;&gt;Node13 -->
<g id="edge13_Node000001_Node000013" class="edge">
<title>Node1&#45;&gt;Node13</title>
<g id="a_edge13_Node000001_Node000013"><a xlink:title=" ">
<path fill="none" stroke="#63b8ff" d="M83.76,-46.52C98.04,-42.24 114.75,-37.23 129.97,-32.67"/>
<polygon fill="#63b8ff" stroke="#63b8ff" points="130.71,-36.11 139.28,-29.88 128.7,-29.4 130.71,-36.11"/>
</a>
</g>
</g>
<!-- Node3 -->
<g id="Node000003" class="node">
<title>Node3</title>
<g id="a_Node000003"><a xlink:href="applications_2azure__board__apps_2apps_2kalman__filter_2main_2kalman__filter__demo_8cpp.html#a4b024d66e45ca738ce324999e3d8f75b" target="_top" xlink:title="Display a 3d image.">
<polygon fill="white" stroke="#666666" points="362.25,-222 268.25,-222 268.25,-202 362.25,-202 362.25,-222"/>
<text xml:space="preserve" text-anchor="middle" x="315.25" y="-208.5" font-family="Helvetica,sans-Serif" font-size="10.00">display_3d_image</text>
</a>
</g>
</g>
<!-- Node2&#45;&gt;Node3 -->
<g id="edge2_Node000002_Node000003" class="edge">
<title>Node2&#45;&gt;Node3</title>
<g id="a_edge2_Node000002_Node000003"><a xlink:title=" ">
<path fill="none" stroke="#63b8ff" d="M187.14,-127.33C201.34,-142.29 229.47,-170.13 257.75,-188 262.93,-191.27 268.63,-194.29 274.37,-196.99"/>
<polygon fill="#63b8ff" stroke="#63b8ff" points="272.66,-200.06 283.22,-200.91 275.49,-193.66 272.66,-200.06"/>
</a>
</g>
</g>
<!-- Node4 -->
<g id="Node000004" class="node">
<title>Node4</title>
<g id="a_Node000004"><a xlink:href="classekf.html#a6e279ffd67d217145d7891a44ea0d9e8" target="_top" xlink:title=" ">
<polygon fill="white" stroke="#666666" points="487.38,-203 414.38,-203 414.38,-183 487.38,-183 487.38,-203"/>
<text xml:space="preserve" text-anchor="middle" x="450.88" y="-189.5" font-family="Helvetica,sans-Serif" font-size="10.00">ekf::eul2rotm</text>
</a>
</g>
</g>
<!-- Node2&#45;&gt;Node4 -->
<g id="edge3_Node000002_Node000004" class="edge">
<title>Node2&#45;&gt;Node4</title>
<g id="a_edge3_Node000002_Node000004"><a xlink:title=" ">
<path fill="none" stroke="#63b8ff" d="M200.04,-127.44C215.9,-134.52 237.81,-143.71 257.75,-150 306.41,-165.34 363.64,-177.41 402.91,-184.81"/>
<polygon fill="#63b8ff" stroke="#63b8ff" points="402.03,-188.21 412.5,-186.59 403.3,-181.32 402.03,-188.21"/>
</a>
</g>
</g>
<!-- Node5 -->
<g id="Node000005" class="node">
<title>Node5</title>
<g id="a_Node000005"><a xlink:href="classdspm_1_1_mat.html#a7502c6d836d1ae05f6880620c1a832b5" target="_top" xlink:title=" ">
<polygon fill="white" stroke="#666666" points="493,-165 408.75,-165 408.75,-145 493,-145 493,-165"/>
<text xml:space="preserve" text-anchor="middle" x="450.88" y="-151.5" font-family="Helvetica,sans-Serif" font-size="10.00">dspm::Mat::eye</text>
</a>
</g>
</g>
<!-- Node2&#45;&gt;Node5 -->
<g id="edge4_Node000002_Node000005" class="edge">
<title>Node2&#45;&gt;Node5</title>
<g id="a_edge4_Node000002_Node000005"><a xlink:title=" ">
<path fill="none" stroke="#63b8ff" d="M218.97,-122.77C266.68,-129.43 345.23,-140.39 397.26,-147.66"/>
<polygon fill="#63b8ff" stroke="#63b8ff" points="396.7,-151.11 407.08,-149.03 397.66,-144.18 396.7,-151.11"/>
</a>
</g>
</g>
<!-- Node8 -->
<g id="Node000008" class="node">
<title>Node8</title>
<g id="a_Node000008"><a xlink:href="classekf.html#a535f152864f2732a9888d4f959bd21fa" target="_top" xlink:title=" ">
<polygon fill="white" stroke="#666666" points="354.75,-108 275.75,-108 275.75,-88 354.75,-88 354.75,-108"/>
<text xml:space="preserve" text-anchor="middle" x="315.25" y="-94.5" font-family="Helvetica,sans-Serif" font-size="10.00">ekf::quat2rotm</text>
</a>
</g>
</g>
<!-- Node2&#45;&gt;Node8 -->
<g id="edge6_Node000002_Node000008" class="edge">
<title>Node2&#45;&gt;Node8</title>
<g id="a_edge6_Node000002_Node000008"><a xlink:title=" ">
<path fill="none" stroke="#63b8ff" d="M218.99,-111.25C233.26,-109.26 249.4,-107.02 264.28,-104.95"/>
<polygon fill="#63b8ff" stroke="#63b8ff" points="264.44,-108.46 273.87,-103.62 263.48,-101.53 264.44,-108.46"/>
</a>
</g>
</g>
<!-- Node9 -->
<g id="Node000009" class="node">
<title>Node9</title>
<g id="a_Node000009"><a xlink:href="classekf.html#a744bf24c20081158a4327aba7d922547" target="_top" xlink:title=" ">
<polygon fill="white" stroke="#666666" points="351.75,-70 278.75,-70 278.75,-50 351.75,-50 351.75,-70"/>
<text xml:space="preserve" text-anchor="middle" x="315.25" y="-56.5" font-family="Helvetica,sans-Serif" font-size="10.00">ekf::rotm2eul</text>
</a>
</g>
</g>
<!-- Node2&#45;&gt;Node9 -->
<g id="edge7_Node000002_Node000009" class="edge">
<title>Node2&#45;&gt;Node9</title>
<g id="a_edge7_Node000002_Node000009"><a xlink:title=" ">
<path fill="none" stroke="#63b8ff" d="M197.75,-106.64C213.78,-98.59 236.91,-87.41 257.75,-79 261.84,-77.35 266.14,-75.72 270.46,-74.15"/>
<polygon fill="#63b8ff" stroke="#63b8ff" points="271.44,-77.52 279.72,-70.9 269.12,-70.91 271.44,-77.52"/>
</a>
</g>
</g>
<!-- Node2&#45;&gt;Node10 -->
<g id="edge8_Node000002_Node000010" class="edge">
<title>Node2&#45;&gt;Node10</title>
<g id="a_edge8_Node000002_Node000010"><a xlink:title=" ">
<path fill="none" stroke="#63b8ff" d="M187.55,-106.75C205.41,-88.46 242.51,-51.15 257.75,-41 259.35,-39.94 260.99,-38.9 262.68,-37.89"/>
<polygon fill="#63b8ff" stroke="#63b8ff" points="264.23,-41.04 271.31,-33.16 260.86,-34.9 264.23,-41.04"/>
</a>
</g>
</g>
<!-- Node11 -->
<g id="Node000011" class="node">
<title>Node11</title>
<g id="a_Node000011"><a xlink:href="applications_2azure__board__apps_2graphics_23d__matrix_23d__matrix__src_2graphics__support_8cpp.html#abddf00a5f71e067190147e3ecdb49d3f" target="_top" xlink:title="update rotation matrix">
<polygon fill="white" stroke="#666666" points="372.75,-260 257.75,-260 257.75,-240 372.75,-240 372.75,-260"/>
<text xml:space="preserve" text-anchor="middle" x="315.25" y="-246.5" font-family="Helvetica,sans-Serif" font-size="10.00">update_rotation_matrix</text>
</a>
</g>
</g>
<!-- Node2&#45;&gt;Node11 -->
<g id="edge9_Node000002_Node000011" class="edge">
<title>Node2&#45;&gt;Node11</title>
<g id="a_edge9_Node000002_Node000011"><a xlink:title=" ">
<path fill="none" stroke="#63b8ff" d="M182.19,-127.49C192.43,-149.82 219.37,-202.35 257.75,-231 259.32,-232.17 260.96,-233.27 262.66,-234.31"/>
<polygon fill="#63b8ff" stroke="#63b8ff" points="261.05,-237.41 271.54,-238.86 264.24,-231.18 261.05,-237.41"/>
</a>
</g>
</g>
<!-- Node6 -->
<g id="Node000006" class="node">
<title>Node6</title>
<g id="a_Node000006"><a xlink:href="classdspm_1_1_mat.html#a5eb6987452e618ba8d638a6773a074df" target="_top" xlink:title=" ">
<polygon fill="#fff0f0" stroke="red" points="614,-203 529,-203 529,-183 614,-183 614,-203"/>
<text xml:space="preserve" text-anchor="middle" x="571.5" y="-189.5" font-family="Helvetica,sans-Serif" font-size="10.00">dspm::Mat::Mat</text>
</a>
</g>
</g>
<!-- Node5&#45;&gt;Node6 -->
<g id="edge5_Node000005_Node000006" class="edge">
<title>Node5&#45;&gt;Node6</title>
<g id="a_edge5_Node000005_Node000006"><a xlink:title=" ">
<path fill="none" stroke="#63b8ff" d="M484.6,-165.48C497.7,-169.68 512.97,-174.57 526.98,-179.06"/>
<polygon fill="#63b8ff" stroke="#63b8ff" points="525.85,-182.37 536.44,-182.09 527.98,-175.7 525.85,-182.37"/>
</a>
</g>
</g>
<!-- Node11&#45;&gt;Node4 -->
<g id="edge10_Node000011_Node000004" class="edge">
<title>Node11&#45;&gt;Node4</title>
<g id="a_edge10_Node000011_Node000004"><a xlink:title=" ">
<path fill="none" stroke="#63b8ff" d="M349.69,-239.58C357.34,-236.97 365.38,-234.04 372.75,-231 388.81,-224.38 406.2,-215.93 420.39,-208.68"/>
<polygon fill="#63b8ff" stroke="#63b8ff" points="421.94,-211.82 429.21,-204.11 418.72,-205.6 421.94,-211.82"/>
</a>
</g>
</g>
<!-- Node12 -->
<g id="Node000012" class="node">
<title>Node12</title>
<g id="a_Node000012"><a xlink:href="classdspm_1_1_mat.html#af1013adcb6d601fba7bf788fd52d80b4" target="_top" xlink:title=" ">
<polygon fill="white" stroke="#666666" points="486.62,-250 415.12,-250 415.12,-230 486.62,-230 486.62,-250"/>
<text xml:space="preserve" text-anchor="middle" x="450.88" y="-236.5" font-family="Helvetica,sans-Serif" font-size="10.00">dspm::Mat::t</text>
</a>
</g>
</g>
<!-- Node11&#45;&gt;Node12 -->
<g id="edge11_Node000011_Node000012" class="edge">
<title>Node11&#45;&gt;Node12</title>
<g id="a_edge11_Node000011_Node000012"><a xlink:title=" ">
<path fill="none" stroke="#63b8ff" d="M372.92,-245.76C383.14,-244.99 393.69,-244.2 403.58,-243.46"/>
<polygon fill="#63b8ff" stroke="#63b8ff" points="403.6,-246.97 413.31,-242.74 403.08,-239.99 403.6,-246.97"/>
</a>
</g>
</g>
<!-- Node12&#45;&gt;Node6 -->
<g id="edge12_Node000012_Node000006" class="edge">
<title>Node12&#45;&gt;Node6</title>
<g id="a_edge12_Node000012_Node000006"><a xlink:title=" ">
<path fill="none" stroke="#63b8ff" d="M478.2,-229.57C494.48,-223.12 515.62,-214.74 533.56,-207.64"/>
<polygon fill="#63b8ff" stroke="#63b8ff" points="534.83,-210.9 542.84,-203.96 532.25,-204.39 534.83,-210.9"/>
</a>
</g>
</g>
</g>
</svg>
