<?xml version="1.0" encoding="UTF-8" standalone="no"?>
<!DOCTYPE svg PUBLIC "-//W3C//DTD SVG 1.1//EN"
 "http://www.w3.org/Graphics/SVG/1.1/DTD/svg11.dtd">
<!-- Generated by graphviz version 14.1.2 (20260124.0452)
 -->
<!-- Title: audio_read_task Pages: 1 -->
<svg width="328pt" height="104pt"
 viewBox="0.00 0.00 328.00 104.00" xmlns="http://www.w3.org/2000/svg" xmlns:xlink="http://www.w3.org/1999/xlink">

<svg id="main" version="1.1" xmlns="http://www.w3.org/2000/svg" xmlns:xlink="http://www.w3.org/1999/xlink" xml:space="preserve">

<style type="text/css"><![CDATA[
.node, .edge {opacity: 0.7;}
.node.selected, .edge.selected {opacity: 1;}
.edge:hover path { stroke: red; }
.edge:hover polygon { stroke: red; fill: red; }
]]></style>
<script type="application/ecmascript" xlink:href="svg.min.js"/>
<svg id="graph" class="graph">
<g id="graph0" class="graph" transform="scale(1 1) rotate(0) translate(4 100)">
<title>audio_read_task</title>
<!-- Node1 -->
<g id="Node000001" class="node">
<title>Node1</title>
<g id="a_Node000001"><a xlink:title=" ">
<polygon fill="#999999" stroke="#666666" points="320.25,-58 233,-58 233,-38 320.25,-38 320.25,-58"/>
<text xml:space="preserve" text-anchor="middle" x="276.62" y="-44.5" font-family="Helvetica,sans-Serif" font-size="10.00">audio_read_task</text>
</a>
</g>
</g>
<!-- Node2 -->
<g id="Node000002" class="node">
<title>Node2</title>
<g id="a_Node000002"><a xlink:href="applications_2lyrat__board__app_2main_2audio__amp__main_8c.html#ab091c1cbf0cdee1a9e75495e68236ab6" target="_top" xlink:title=" ">
<polygon fill="white" stroke="#666666" points="197,-96 94,-96 94,-76 197,-76 197,-96"/>
<text xml:space="preserve" text-anchor="middle" x="145.5" y="-82.5" font-family="Helvetica,sans-Serif" font-size="10.00">audio_process_task</text>
</a>
</g>
</g>
<!-- Node1&#45;&gt;Node2 -->
<g id="edge1_Node000001_Node000002" class="edge">
<title>Node1&#45;&gt;Node2</title>
<g id="a_edge1_Node000001_Node000002"><a xlink:title=" ">
<path fill="none" stroke="#63b8ff" d="M229.04,-61.71C213.53,-66.27 196.53,-71.28 182.01,-75.55"/>
<polygon fill="#63b8ff" stroke="#63b8ff" points="229.94,-65.09 238.55,-58.91 227.97,-58.38 229.94,-65.09"/>
</a>
</g>
</g>
<!-- Node4 -->
<g id="Node000004" class="node">
<title>Node4</title>
<g id="a_Node000004"><a xlink:href="external__examples_21fa4e38f_2lyrat__board__app_2main_2audio__amp__main_8c.html#ab091c1cbf0cdee1a9e75495e68236ab6" target="_top" xlink:title=" ">
<polygon fill="white" stroke="#666666" points="197,-58 94,-58 94,-38 197,-38 197,-58"/>
<text xml:space="preserve" text-anchor="middle" x="145.5" y="-44.5" font-family="Helvetica,sans-Serif" font-size="10.00">audio_process_task</text>
</a>
</g>
</g>
<!-- Node1&#45;&gt;Node4 -->
<g id="edge3_Node000001_Node000004" class="edge">
<title>Node1&#45;&gt;Node4</title>
<g id="a_edge3_Node000001_Node000004"><a xlink:title=" ">
<path fill="none" stroke="#63b8ff" d="M221.24,-48C213.33,-48 205.21,-48 197.37,-48"/>
<polygon fill="#63b8ff" stroke="#63b8ff" points="221.11,-51.5 231.11,-48 221.11,-44.5 221.11,-51.5"/>
</a>
</g>
</g>
<!-- Node5 -->
<g id="Node000005" class="node">
<title>Node5</title>
<g id="a_Node000005"><a xlink:href="external__examples_2b00f000e_2applications_2lyrat__board__app_2main_2audio__amp__main_8c.html#ab091c1cbf0cdee1a9e75495e68236ab6" target="_top" xlink:title=" ">
<polygon fill="white" stroke="#666666" points="197,-20 94,-20 94,0 197,0 197,-20"/>
<text xml:space="preserve" text-anchor="middle" x="145.5" y="-6.5" font-family="Helvetica,sans-Serif" font-size="10.00">audio_process_task</text>
</a>
</g>
</g>
<!-- Node1&#45;&gt;Node5 -->
<g id="edge4_Node000001_Node000005" class="edge">
<title>Node1&#45;&gt;Node5</title>
<g id="a_edge4_Node000001_Node000005"><a xlink:title=" ">
<path fill="none" stroke="#63b8ff" d="M229.04,-34.29C213.53,-29.73 196.53,-24.72 182.01,-20.45"/>
<polygon fill="#63b8ff" stroke="#63b8ff" points="227.97,-37.62 238.55,-37.09 229.94,-30.91 227.97,-37.62"/>
</a>
</g>
</g>
<!-- Node3 -->
<g id="Node000003" class="node">
<title>Node3</title>
<g id="a_Node000003"><a xlink:href="applications_2lyrat__board__app_2main_2audio__amp__main_8c.html#a630544a7f0a2cc40d8a7fefab7e2fe70" target="_top" xlink:title=" ">
<polygon fill="white" stroke="#666666" points="58,-96 0,-96 0,-76 58,-76 58,-96"/>
<text xml:space="preserve" text-anchor="middle" x="29" y="-82.5" font-family="Helvetica,sans-Serif" font-size="10.00">app_main</text>
</a>
</g>
</g>
<!-- Node2&#45;&gt;Node3 -->
<g id="edge2_Node000002_Node000003" class="edge">
<title>Node2&#45;&gt;Node3</title>
<g id="a_edge2_Node000002_Node000003"><a xlink:title=" ">
<path fill="none" stroke="#63b8ff" d="M82.26,-86C73.94,-86 65.77,-86 58.45,-86"/>
<polygon fill="#63b8ff" stroke="#63b8ff" points="82.1,-89.5 92.1,-86 82.1,-82.5 82.1,-89.5"/>
</a>
</g>
</g>
</g>
</svg>
</svg>

<style type='text/css'>
<![CDATA[
[data-mouse-over-selected='false'] { opacity: 0.7; }
[data-mouse-over-selected='true']  { opacity: 1.0; }
]]>
</style>
<script type="application/ecmascript"><![CDATA[
document.addEventListener('DOMContentLoaded', (event) => {
  highlightEdges();
  highlightAdjacentNodes();
});
]]></script>
</svg>
