<?xml version="1.0" encoding="UTF-8" standalone="no"?>
<!DOCTYPE svg PUBLIC "-//W3C//DTD SVG 1.1//EN"
 "http://www.w3.org/Graphics/SVG/1.1/DTD/svg11.dtd">
<!-- Generated by graphviz version 14.1.2 (20260124.0452)
 -->
<!-- Title: app_init Pages: 1 -->
<svg width="198pt" height="180pt"
 viewBox="0.00 0.00 198.00 180.00" xmlns="http://www.w3.org/2000/svg" xmlns:xlink="http://www.w3.org/1999/xlink">

<svg id="main" version="1.1" xmlns="http://www.w3.org/2000/svg" xmlns:xlink="http://www.w3.org/1999/xlink" xml:space="preserve">

<style type="text/css"><![CDATA[
.node, .edge {opacity: 0.7;}
.node.selected, .edge.selected {opacity: 1;}
.edge:hover path { stroke: red; }
.edge:hover polygon { stroke: red; fill: red; }
]]></style>
<script type="application/ecmascript" xlink:href="svg.min.js"/>
<svg id="graph" class="graph">
<g id="graph0" class="graph" transform="scale(1 1) rotate(0) translate(4 176)">
<title>app_init</title>
<!-- Node1 -->
<g id="Node000001" class="node">
<title>Node1</title>
<g id="a_Node000001"><a xlink:title="Initialize the application.">
<polygon fill="#999999" stroke="#666666" points="49.75,-96 0,-96 0,-76 49.75,-76 49.75,-96"/>
<text xml:space="preserve" text-anchor="middle" x="24.88" y="-82.5" font-family="Helvetica,sans-Serif" font-size="10.00">app_init</text>
</a>
</g>
</g>
<!-- Node2 -->
<g id="Node000002" class="node">
<title>Node2</title>
<g id="a_Node000002"><a xlink:href="applications_2m5stack__core__s3_2apps_2kalman__filter_2main_23d__kalman__demo_8cpp.html#af738e0476293a8e7822b85ba126ba159" target="_top" xlink:title=" ">
<polygon fill="white" stroke="#666666" points="182.75,-172 92.5,-172 92.5,-152 182.75,-152 182.75,-172"/>
<text xml:space="preserve" text-anchor="middle" x="137.62" y="-158.5" font-family="Helvetica,sans-Serif" font-size="10.00">read_bmi270_reg</text>
</a>
</g>
</g>
<!-- Node1&#45;&gt;Node2 -->
<g id="edge1_Node000001_Node000002" class="edge">
<title>Node1&#45;&gt;Node2</title>
<g id="a_edge1_Node000001_Node000002"><a xlink:title=" ">
<path fill="none" stroke="#63b8ff" d="M34.22,-96.15C44.99,-108.68 64.82,-129.91 85.75,-143 87.89,-144.34 90.15,-145.61 92.46,-146.81"/>
<polygon fill="#63b8ff" stroke="#63b8ff" points="90.95,-149.96 101.49,-150.96 93.87,-143.6 90.95,-149.96"/>
</a>
</g>
</g>
<!-- Node3 -->
<g id="Node000003" class="node">
<title>Node3</title>
<g id="a_Node000003"><a xlink:href="applications_2m5stack__core__s3_2apps_2kalman__filter_2main_23d__kalman__demo_8cpp.html#aaa70e24a0cabfe8a2f7b4d1a8cb38915" target="_top" xlink:title=" ">
<polygon fill="white" stroke="#666666" points="188.38,-134 86.88,-134 86.88,-114 188.38,-114 188.38,-134"/>
<text xml:space="preserve" text-anchor="middle" x="137.62" y="-120.5" font-family="Helvetica,sans-Serif" font-size="10.00">read_bmm150_data</text>
</a>
</g>
</g>
<!-- Node1&#45;&gt;Node3 -->
<g id="edge2_Node000001_Node000003" class="edge">
<title>Node1&#45;&gt;Node3</title>
<g id="a_edge2_Node000001_Node000003"><a xlink:title=" ">
<path fill="none" stroke="#63b8ff" d="M50.18,-94.34C63.4,-98.88 80.11,-104.61 95.31,-109.82"/>
<polygon fill="#63b8ff" stroke="#63b8ff" points="94.01,-113.08 104.61,-113.01 96.28,-106.46 94.01,-113.08"/>
</a>
</g>
</g>
<!-- Node4 -->
<g id="Node000004" class="node">
<title>Node4</title>
<g id="a_Node000004"><a xlink:href="applications_2m5stack__core__s3_2apps_2kalman__filter_2main_23d__kalman__demo_8cpp.html#a3bbb9efa771a4f9e06817a8cb0d14501" target="_top" xlink:title=" ">
<polygon fill="white" stroke="#666666" points="186.5,-96 88.75,-96 88.75,-76 186.5,-76 186.5,-96"/>
<text xml:space="preserve" text-anchor="middle" x="137.62" y="-82.5" font-family="Helvetica,sans-Serif" font-size="10.00">write_bmi270_data</text>
</a>
</g>
</g>
<!-- Node1&#45;&gt;Node4 -->
<g id="edge3_Node000001_Node000004" class="edge">
<title>Node1&#45;&gt;Node4</title>
<g id="a_edge3_Node000001_Node000004"><a xlink:title=" ">
<path fill="none" stroke="#63b8ff" d="M50.18,-86C58.15,-86 67.38,-86 76.79,-86"/>
<polygon fill="#63b8ff" stroke="#63b8ff" points="76.77,-89.5 86.77,-86 76.77,-82.5 76.77,-89.5"/>
</a>
</g>
</g>
<!-- Node5 -->
<g id="Node000005" class="node">
<title>Node5</title>
<g id="a_Node000005"><a xlink:href="applications_2m5stack__core__s3_2apps_2kalman__filter_2main_23d__kalman__demo_8cpp.html#a41d4e2f025faabb41f47bc054cf3d92a" target="_top" xlink:title=" ">
<polygon fill="white" stroke="#666666" points="183.88,-58 91.38,-58 91.38,-38 183.88,-38 183.88,-58"/>
<text xml:space="preserve" text-anchor="middle" x="137.62" y="-44.5" font-family="Helvetica,sans-Serif" font-size="10.00">write_bmi270_reg</text>
</a>
</g>
</g>
<!-- Node1&#45;&gt;Node5 -->
<g id="edge4_Node000001_Node000005" class="edge">
<title>Node1&#45;&gt;Node5</title>
<g id="a_edge4_Node000001_Node000005"><a xlink:title=" ">
<path fill="none" stroke="#63b8ff" d="M50.18,-77.66C63.4,-73.12 80.11,-67.39 95.31,-62.18"/>
<polygon fill="#63b8ff" stroke="#63b8ff" points="96.28,-65.54 104.61,-58.99 94.01,-58.92 96.28,-65.54"/>
</a>
</g>
</g>
<!-- Node6 -->
<g id="Node000006" class="node">
<title>Node6</title>
<g id="a_Node000006"><a xlink:href="applications_2m5stack__core__s3_2apps_2kalman__filter_2main_23d__kalman__demo_8cpp.html#a3ea8f747686c9736edb1c30a2bf5d3ca" target="_top" xlink:title=" ">
<polygon fill="white" stroke="#666666" points="189.5,-20 85.75,-20 85.75,0 189.5,0 189.5,-20"/>
<text xml:space="preserve" text-anchor="middle" x="137.62" y="-6.5" font-family="Helvetica,sans-Serif" font-size="10.00">write_bmm150_data</text>
</a>
</g>
</g>
<!-- Node1&#45;&gt;Node6 -->
<g id="edge5_Node000001_Node000006" class="edge">
<title>Node1&#45;&gt;Node6</title>
<g id="a_edge5_Node000001_Node000006"><a xlink:title=" ">
<path fill="none" stroke="#63b8ff" d="M34.22,-75.85C44.99,-63.32 64.82,-42.09 85.75,-29 87.89,-27.66 90.15,-26.39 92.46,-25.19"/>
<polygon fill="#63b8ff" stroke="#63b8ff" points="93.87,-28.4 101.49,-21.04 90.95,-22.04 93.87,-28.4"/>
</a>
</g>
</g>
</g>
</svg>
</svg>

<style type='text/css'>
<![CDATA[
[data-mouse-over-selected='false'] { opacity: 0.7; }
[data-mouse-over-selected='true']  { opacity: 1.0; }
]]>
</style>
<script type="application/ecmascript"><![CDATA[
document.addEventListener('DOMContentLoaded', (event) => {
  highlightEdges();
  highlightAdjacentNodes();
});
]]></script>
</svg>
