<?xml version="1.0" encoding="UTF-8" standalone="no"?>
<!DOCTYPE svg PUBLIC "-//W3C//DTD SVG 1.1//EN"
 "http://www.w3.org/Graphics/SVG/1.1/DTD/svg11.dtd">
<!-- Generated by graphviz version 14.1.2 (20260124.0452)
 -->
<!-- Title: draw_3d_image_task Pages: 1 -->
<!--zoomable 344 -->

<svg id="main" version="1.1" xmlns="http://www.w3.org/2000/svg" xmlns:xlink="http://www.w3.org/1999/xlink" xml:space="preserve" onload="init(evt)">

<style type="text/css"><![CDATA[
.node, .edge {opacity: 0.7;}
.node.selected, .edge.selected {opacity: 1;}
.edge:hover path { stroke: red; }
.edge:hover polygon { stroke: red; fill: red; }
]]></style>

<defs>
  <circle id="rim" cx="0" cy="0" r="7"/>
  <circle id="rim2" cx="0" cy="0" r="3.5"/>
  <g id="zoomPlus">
    <use xlink:href="#rim" fill="#404040"><set attributeName="fill" to="#808080" begin="zoomplus.mouseover" end="zoomplus.mouseout"/></use>
    <path d="M-4,0h8M0,-4v8" fill="none" stroke="white" stroke-width="1.5" pointer-events="none"/>
  </g>
  <g id="zoomMin">
    <use xlink:href="#rim" fill="#404040"><set attributeName="fill" to="#808080" begin="zoomminus.mouseover" end="zoomminus.mouseout"/></use>
    <path d="M-4,0h8" fill="none" stroke="white" stroke-width="1.5" pointer-events="none"/>
  </g>
  <g id="arrowUp" transform="translate(30 24)">
    <use xlink:href="#rim"/>
    <path pointer-events="none" fill="none" stroke="white" stroke-width="1.5" d="M0,-3.0v7 M-2.5,-0.5L0,-3.0L2.5,-0.5"/>
  </g>
  <g id="arrowRight" transform="rotate(90) translate(36 -43)">
    <use xlink:href="#rim"/>
    <path pointer-events="none" fill="none" stroke="white" stroke-width="1.5" d="M0,-3.0v7 M-2.5,-0.5L0,-3.0L2.5,-0.5"/>
  </g>
  <g id="arrowDown" transform="rotate(180) translate(-30 -48)">
    <use xlink:href="#rim"/>
    <path pointer-events="none" fill="none" stroke="white" stroke-width="1.5" d="M0,-3.0v7 M-2.5,-0.5L0,-3.0L2.5,-0.5"/>
  </g>
  <g id="arrowLeft" transform="rotate(270) translate(-36 17)">
    <use xlink:href="#rim"/>
    <path pointer-events="none" fill="none" stroke="white" stroke-width="1.5" d="M0,-3.0v7 M-2.5,-0.5L0,-3.0L2.5,-0.5"/>
  </g>
  <g id="resetDef">
    <use xlink:href="#rim2" fill="#404040"><set attributeName="fill" to="#808080" begin="reset.mouseover" end="reset.mouseout"/></use>
  </g>
</defs>
<script type="application/ecmascript">
var viewWidth = 647;
var viewHeight = 344;
var sectionId = 'dynsection-5';
</script>
<script type="application/ecmascript" xlink:href="svg.min.js"/>
<svg id="graph" class="graph">
<g id="viewport">
<title>draw_3d_image_task</title>
<!-- Node1 -->
<g id="Node000001" class="node">
<title>Node1</title>
<g id="a_Node000001"><a xlink:title="RTOS task to draw a 3d image.">
<polygon fill="#999999" stroke="#666666" points="108.25,-184 0,-184 0,-164 108.25,-164 108.25,-184"/>
<text xml:space="preserve" text-anchor="middle" x="54.12" y="-170.5" font-family="Helvetica,sans-Serif" font-size="10.00">draw_3d_image_task</text>
</a>
</g>
</g>
<!-- Node2 -->
<g id="Node000002" class="node">
<title>Node2</title>
<g id="a_Node000002"><a xlink:href="applications_2m5stack__core__s3_2apps_2kalman__filter_2main_23d__kalman__demo_8cpp.html#a4b024d66e45ca738ce324999e3d8f75b" target="_top" xlink:title="Display a 3d image.">
<polygon fill="white" stroke="#666666" points="248.75,-336 154.75,-336 154.75,-316 248.75,-316 248.75,-336"/>
<text xml:space="preserve" text-anchor="middle" x="201.75" y="-322.5" font-family="Helvetica,sans-Serif" font-size="10.00">display_3d_image</text>
</a>
</g>
</g>
<!-- Node1&#45;&gt;Node2 -->
<g id="edge1_Node000001_Node000002" class="edge">
<title>Node1&#45;&gt;Node2</title>
<g id="a_edge1_Node000001_Node000002"><a xlink:title=" ">
<path fill="none" stroke="#63b8ff" d="M59.85,-184.43C71.15,-208.35 102,-267.69 144.25,-302 148.22,-305.22 152.69,-308.08 157.32,-310.6"/>
<polygon fill="#63b8ff" stroke="#63b8ff" points="155.73,-313.72 166.26,-314.91 158.78,-307.41 155.73,-313.72"/>
</a>
</g>
</g>
<!-- Node3 -->
<g id="Node000003" class="node">
<title>Node3</title>
<g id="a_Node000003"><a xlink:href="classdspm_1_1_mat.html#a7502c6d836d1ae05f6880620c1a832b5" target="_top" xlink:title=" ">
<polygon fill="white" stroke="#666666" points="379.5,-222 295.25,-222 295.25,-202 379.5,-202 379.5,-222"/>
<text xml:space="preserve" text-anchor="middle" x="337.38" y="-208.5" font-family="Helvetica,sans-Serif" font-size="10.00">dspm::Mat::eye</text>
</a>
</g>
</g>
<!-- Node1&#45;&gt;Node3 -->
<g id="edge2_Node000001_Node000003" class="edge">
<title>Node1&#45;&gt;Node3</title>
<g id="a_edge2_Node000001_Node000003"><a xlink:title=" ">
<path fill="none" stroke="#63b8ff" d="M60.81,-184.31C72.94,-205.06 103.57,-251.39 144.25,-269 191.15,-289.31 210.71,-284.99 259.25,-269 282.56,-261.32 304.6,-243.59 319.1,-229.92"/>
<polygon fill="#63b8ff" stroke="#63b8ff" points="321.34,-232.63 326.02,-223.13 316.43,-227.64 321.34,-232.63"/>
</a>
</g>
</g>
<!-- Node6 -->
<g id="Node000006" class="node">
<title>Node6</title>
<g id="a_Node000006"><a xlink:href="classdspm_1_1_mat.html#a3b4566db0f4ad277e70c09f5e934b91e" target="_top" xlink:title=" ">
<polygon fill="white" stroke="#666666" points="246.88,-260 156.62,-260 156.62,-240 246.88,-240 246.88,-260"/>
<text xml:space="preserve" text-anchor="middle" x="201.75" y="-246.5" font-family="Helvetica,sans-Serif" font-size="10.00">dspm::Mat::norm</text>
</a>
</g>
</g>
<!-- Node1&#45;&gt;Node6 -->
<g id="edge5_Node000001_Node000006" class="edge">
<title>Node1&#45;&gt;Node6</title>
<g id="a_edge5_Node000001_Node000006"><a xlink:title=" ">
<path fill="none" stroke="#63b8ff" d="M69.01,-184.41C86.03,-196.8 116.09,-217.51 144.25,-231 147.56,-232.59 151.04,-234.1 154.58,-235.53"/>
<polygon fill="#63b8ff" stroke="#63b8ff" points="153.25,-238.77 163.84,-239.01 155.72,-232.21 153.25,-238.77"/>
</a>
</g>
</g>
<!-- Node7 -->
<g id="Node000007" class="node">
<title>Node7</title>
<g id="a_Node000007"><a xlink:href="classekf.html#a535f152864f2732a9888d4f959bd21fa" target="_top" xlink:title=" ">
<polygon fill="white" stroke="#666666" points="241.25,-222 162.25,-222 162.25,-202 241.25,-202 241.25,-222"/>
<text xml:space="preserve" text-anchor="middle" x="201.75" y="-208.5" font-family="Helvetica,sans-Serif" font-size="10.00">ekf::quat2rotm</text>
</a>
</g>
</g>
<!-- Node1&#45;&gt;Node7 -->
<g id="edge6_Node000001_Node000007" class="edge">
<title>Node1&#45;&gt;Node7</title>
<g id="a_edge6_Node000001_Node000007"><a xlink:title=" ">
<path fill="none" stroke="#63b8ff" d="M95.3,-184.48C112.52,-188.98 132.81,-194.27 150.97,-199.01"/>
<polygon fill="#63b8ff" stroke="#63b8ff" points="149.93,-202.36 160.49,-201.5 151.7,-195.58 149.93,-202.36"/>
</a>
</g>
</g>
<!-- Node8 -->
<g id="Node000008" class="node">
<title>Node8</title>
<g id="a_Node000008"><a xlink:href="applications_2m5stack__core__s3_2apps_2kalman__filter_2main_23d__kalman__demo_8cpp.html#a0eb4c2dc5d13163ccfd6157eadb637e5" target="_top" xlink:title=" ">
<polygon fill="white" stroke="#666666" points="249.5,-184 154,-184 154,-164 249.5,-164 249.5,-184"/>
<text xml:space="preserve" text-anchor="middle" x="201.75" y="-170.5" font-family="Helvetica,sans-Serif" font-size="10.00">read_bmi270_data</text>
</a>
</g>
</g>
<!-- Node1&#45;&gt;Node8 -->
<g id="edge7_Node000001_Node000008" class="edge">
<title>Node1&#45;&gt;Node8</title>
<g id="a_edge7_Node000001_Node000008"><a xlink:title=" ">
<path fill="none" stroke="#63b8ff" d="M108.52,-174C119.49,-174 131.09,-174 142.22,-174"/>
<polygon fill="#63b8ff" stroke="#63b8ff" points="142.1,-177.5 152.1,-174 142.1,-170.5 142.1,-177.5"/>
</a>
</g>
</g>
<!-- Node9 -->
<g id="Node000009" class="node">
<title>Node9</title>
<g id="a_Node000009"><a xlink:href="classekf.html#a744bf24c20081158a4327aba7d922547" target="_top" xlink:title=" ">
<polygon fill="white" stroke="#666666" points="238.25,-146 165.25,-146 165.25,-126 238.25,-126 238.25,-146"/>
<text xml:space="preserve" text-anchor="middle" x="201.75" y="-132.5" font-family="Helvetica,sans-Serif" font-size="10.00">ekf::rotm2eul</text>
</a>
</g>
</g>
<!-- Node1&#45;&gt;Node9 -->
<g id="edge8_Node000001_Node000009" class="edge">
<title>Node1&#45;&gt;Node9</title>
<g id="a_edge8_Node000001_Node000009"><a xlink:title=" ">
<path fill="none" stroke="#63b8ff" d="M95.3,-163.52C113.52,-158.76 135.16,-153.11 154.09,-148.18"/>
<polygon fill="#63b8ff" stroke="#63b8ff" points="154.91,-151.58 163.71,-145.67 153.15,-144.8 154.91,-151.58"/>
</a>
</g>
</g>
<!-- Node10 -->
<g id="Node000010" class="node">
<title>Node10</title>
<g id="a_Node000010"><a xlink:href="classdspm_1_1_mat.html#af1013adcb6d601fba7bf788fd52d80b4" target="_top" xlink:title=" ">
<polygon fill="white" stroke="#666666" points="373.12,-108 301.62,-108 301.62,-88 373.12,-88 373.12,-108"/>
<text xml:space="preserve" text-anchor="middle" x="337.38" y="-94.5" font-family="Helvetica,sans-Serif" font-size="10.00">dspm::Mat::t</text>
</a>
</g>
</g>
<!-- Node1&#45;&gt;Node10 -->
<g id="edge9_Node000001_Node000010" class="edge">
<title>Node1&#45;&gt;Node10</title>
<g id="a_edge9_Node000001_Node000010"><a xlink:title=" ">
<path fill="none" stroke="#63b8ff" d="M67.13,-163.65C83.38,-150.3 113.88,-127.53 144.25,-117 191.99,-100.44 250.14,-96.8 289.87,-96.6"/>
<polygon fill="#63b8ff" stroke="#63b8ff" points="289.8,-100.1 299.81,-96.63 289.82,-93.1 289.8,-100.1"/>
</a>
</g>
</g>
<!-- Node11 -->
<g id="Node000011" class="node">
<title>Node11</title>
<g id="a_Node000011"><a xlink:href="applications_2azure__board__apps_2graphics_23d__matrix_23d__matrix__src_2graphics__support_8cpp.html#abddf00a5f71e067190147e3ecdb49d3f" target="_top" xlink:title="update rotation matrix">
<polygon fill="white" stroke="#666666" points="259.25,-70 144.25,-70 144.25,-50 259.25,-50 259.25,-70"/>
<text xml:space="preserve" text-anchor="middle" x="201.75" y="-56.5" font-family="Helvetica,sans-Serif" font-size="10.00">update_rotation_matrix</text>
</a>
</g>
</g>
<!-- Node1&#45;&gt;Node11 -->
<g id="edge11_Node000001_Node000011" class="edge">
<title>Node1&#45;&gt;Node11</title>
<g id="a_edge11_Node000001_Node000011"><a xlink:title=" ">
<path fill="none" stroke="#63b8ff" d="M63.18,-163.53C77.67,-145.27 109.85,-107.33 144.25,-84 149.09,-80.72 154.44,-77.74 159.88,-75.09"/>
<polygon fill="#63b8ff" stroke="#63b8ff" points="161.24,-78.31 168.92,-71.02 158.37,-71.93 161.24,-78.31"/>
</a>
</g>
</g>
<!-- Node13 -->
<g id="Node000013" class="node">
<title>Node13</title>
<g id="a_Node000013"><a xlink:href="applications_2azure__board__apps_2graphics_23d__matrix_23d__matrix__src_2graphics__support_8cpp.html#a2f5dfc8616993b1485635978ec29513d" target="_top" xlink:title="update translation matrix">
<polygon fill="white" stroke="#666666" points="249.5,-32 154,-32 154,0 249.5,0 249.5,-32"/>
<text xml:space="preserve" text-anchor="start" x="162" y="-18.5" font-family="Helvetica,sans-Serif" font-size="10.00">update_translation</text>
<text xml:space="preserve" text-anchor="middle" x="201.75" y="-6.5" font-family="Helvetica,sans-Serif" font-size="10.00">_matrix</text>
</a>
</g>
</g>
<!-- Node1&#45;&gt;Node13 -->
<g id="edge14_Node000001_Node000013" class="edge">
<title>Node1&#45;&gt;Node13</title>
<g id="a_edge14_Node000001_Node000013"><a xlink:title=" ">
<path fill="none" stroke="#63b8ff" d="M59.61,-163.56C70.62,-139.04 101.25,-77.11 144.25,-41 145.19,-40.21 146.17,-39.43 147.17,-38.68"/>
<polygon fill="#63b8ff" stroke="#63b8ff" points="148.97,-41.69 155.43,-33.29 145.14,-35.83 148.97,-41.69"/>
</a>
</g>
</g>
<!-- Node4 -->
<g id="Node000004" class="node">
<title>Node4</title>
<g id="a_Node000004"><a xlink:href="classdspm_1_1_mat.html#a5eb6987452e618ba8d638a6773a074df" target="_top" xlink:title=" ">
<polygon fill="white" stroke="#666666" points="500.5,-165 415.5,-165 415.5,-145 500.5,-145 500.5,-165"/>
<text xml:space="preserve" text-anchor="middle" x="458" y="-151.5" font-family="Helvetica,sans-Serif" font-size="10.00">dspm::Mat::Mat</text>
</a>
</g>
</g>
<!-- Node3&#45;&gt;Node4 -->
<g id="edge3_Node000003_Node000004" class="edge">
<title>Node3&#45;&gt;Node4</title>
<g id="a_edge3_Node000003_Node000004"><a xlink:title=" ">
<path fill="none" stroke="#63b8ff" d="M360.13,-201.55C378.36,-192.79 404.62,-180.17 425.21,-170.28"/>
<polygon fill="#63b8ff" stroke="#63b8ff" points="426.52,-173.53 434.02,-166.04 423.49,-167.22 426.52,-173.53"/>
</a>
</g>
</g>
<!-- Node5 -->
<g id="Node000005" class="node">
<title>Node5</title>
<g id="a_Node000005"><a xlink:href="classdspm_1_1_mat.html#aa82f099abe2da9662fd06e72056df323" target="_top" xlink:title=" ">
<polygon fill="white" stroke="#666666" points="638.75,-165 536.5,-165 536.5,-145 638.75,-145 638.75,-165"/>
<text xml:space="preserve" text-anchor="middle" x="587.62" y="-151.5" font-family="Helvetica,sans-Serif" font-size="10.00">dspm::Mat::allocate</text>
</a>
</g>
</g>
<!-- Node4&#45;&gt;Node5 -->
<g id="edge4_Node000004_Node000005" class="edge">
<title>Node4&#45;&gt;Node5</title>
<g id="a_edge4_Node000004_Node000005"><a xlink:title=" ">
<path fill="none" stroke="#63b8ff" d="M500.79,-155C508.5,-155 516.69,-155 524.85,-155"/>
<polygon fill="#63b8ff" stroke="#63b8ff" points="524.77,-158.5 534.77,-155 524.77,-151.5 524.77,-158.5"/>
</a>
</g>
</g>
<!-- Node10&#45;&gt;Node4 -->
<g id="edge10_Node000010_Node000004" class="edge">
<title>Node10&#45;&gt;Node4</title>
<g id="a_edge10_Node000010_Node000004"><a xlink:title=" ">
<path fill="none" stroke="#63b8ff" d="M360.13,-108.45C378.36,-117.21 404.62,-129.83 425.21,-139.72"/>
<polygon fill="#63b8ff" stroke="#63b8ff" points="423.49,-142.78 434.02,-143.96 426.52,-136.47 423.49,-142.78"/>
</a>
</g>
</g>
<!-- Node11&#45;&gt;Node10 -->
<g id="edge13_Node000011_Node000010" class="edge">
<title>Node11&#45;&gt;Node10</title>
<g id="a_edge13_Node000011_Node000010"><a xlink:title=" ">
<path fill="none" stroke="#63b8ff" d="M239.62,-70.48C255.46,-74.99 274.13,-80.3 290.83,-85.05"/>
<polygon fill="#63b8ff" stroke="#63b8ff" points="289.44,-88.29 300.01,-87.66 291.35,-81.56 289.44,-88.29"/>
</a>
</g>
</g>
<!-- Node12 -->
<g id="Node000012" class="node">
<title>Node12</title>
<g id="a_Node000012"><a xlink:href="classekf.html#a6e279ffd67d217145d7891a44ea0d9e8" target="_top" xlink:title=" ">
<polygon fill="white" stroke="#666666" points="373.88,-70 300.88,-70 300.88,-50 373.88,-50 373.88,-70"/>
<text xml:space="preserve" text-anchor="middle" x="337.38" y="-56.5" font-family="Helvetica,sans-Serif" font-size="10.00">ekf::eul2rotm</text>
</a>
</g>
</g>
<!-- Node11&#45;&gt;Node12 -->
<g id="edge12_Node000011_Node000012" class="edge">
<title>Node11&#45;&gt;Node12</title>
<g id="a_edge12_Node000011_Node000012"><a xlink:title=" ">
<path fill="none" stroke="#63b8ff" d="M259.42,-60C269.33,-60 279.55,-60 289.17,-60"/>
<polygon fill="#63b8ff" stroke="#63b8ff" points="289.04,-63.5 299.04,-60 289.04,-56.5 289.04,-63.5"/>
</a>
</g>
</g>
</g>
</svg>

<g id="navigator" transform="translate(0 0)" fill="#404254">
  <rect fill="#f2f5e9" fill-opacity="0.5" stroke="#606060" stroke-width=".5" x="0" y="0" width="60" height="60"/>
  <use id="zoomplus" xlink:href="#zoomPlus" x="17" y="9" onmousedown="handleZoom(evt,'in')"/>
  <use id="zoomminus" xlink:href="#zoomMin" x="42" y="9" onmousedown="handleZoom(evt,'out')"/>
  <use id="reset" xlink:href="#resetDef" x="30" y="36" onmousedown="handleReset()"/>
   <use id="arrowup" xlink:href="#arrowUp" x="0" y="0" onmousedown="handlePan(0,-1)"/>
  <use id="arrowright" xlink:href="#arrowRight" x="0" y="0" onmousedown="handlePan(1,0)"/>
  <use id="arrowdown" xlink:href="#arrowDown" x="0" y="0" onmousedown="handlePan(0,1)"/>
  <use id="arrowleft" xlink:href="#arrowLeft" x="0" y="0" onmousedown="handlePan(-1,0)"/>
</g>
<svg viewBox="0 0 15 15" width="100%" height="30px" preserveAspectRatio="xMaxYMin meet">
 <g id="arrow_out" transform="scale(0.3 0.3)">
  <a xlink:href="applications_2m5stack__core__s3_2apps_2kalman__filter_2main_23d__kalman__demo_8cpp_af3debef909dca35dbf0b6f842df6def3_cgraph_org.svg" target="_base">
   <rect id="button" ry="5" rx="5" y="6" x="6" height="38" width="38"
        fill="#f2f5e9" fill-opacity="0.5" stroke="#606060" stroke-width="1.0"/>
   <path id="arrow"
     d="M 11.500037,31.436501 C 11.940474,20.09759 22.043105,11.32322 32.158766,21.979434 L 37.068811,17.246167 C 37.068811,17.246167 37.088388,32 37.088388,32 L 22.160133,31.978069 C 22.160133,31.978069 26.997745,27.140456 26.997745,27.140456 C 18.528582,18.264221 13.291696,25.230495 11.500037,31.436501 z"
     style="fill:#404040;"/>
  </a>
 </g>
</svg>

<style type='text/css'>
<![CDATA[
[data-mouse-over-selected='false'] { opacity: 0.7; }
[data-mouse-over-selected='true']  { opacity: 1.0; }
]]>
</style>
<script type="application/ecmascript"><![CDATA[
document.addEventListener('DOMContentLoaded', (event) => {
  highlightEdges();
  highlightAdjacentNodes();
});
]]></script>
</svg>
