<?xml version="1.0" encoding="UTF-8" standalone="no"?>
<!DOCTYPE svg PUBLIC "-//W3C//DTD SVG 1.1//EN"
 "http://www.w3.org/Graphics/SVG/1.1/DTD/svg11.dtd">
<!-- Generated by graphviz version 14.1.2 (20260124.0452)
 -->
<!-- Title: kalman_filter_calibration Pages: 1 -->
<svg width="647pt" height="268pt"
 viewBox="0.00 0.00 647.00 268.00" xmlns="http://www.w3.org/2000/svg" xmlns:xlink="http://www.w3.org/1999/xlink">
<g id="graph0" class="graph" transform="scale(1 1) rotate(0) translate(4 264)">
<title>kalman_filter_calibration</title>
<!-- Node1 -->
<g id="Node000001" class="node">
<title>Node1</title>
<g id="a_Node000001"><a xlink:title="Kalman filter calibration procedure.">
<polygon fill="#999999" stroke="#666666" points="121,-58 0,-58 0,-38 121,-38 121,-58"/>
<text xml:space="preserve" text-anchor="middle" x="60.5" y="-44.5" font-family="Helvetica,sans-Serif" font-size="10.00">kalman_filter_calibration</text>
</a>
</g>
</g>
<!-- Node2 -->
<g id="Node000002" class="node">
<title>Node2</title>
<g id="a_Node000002"><a xlink:href="applications_2azure__board__apps_2apps_2kalman__filter_2main_2kalman__filter__demo_8cpp.html#af43b34764385f3f1ad35ce1c00db220f" target="_top" xlink:title="Kalman filter RTOS task (or ESP timer callback).">
<polygon fill="white" stroke="#666666" points="252.5,-58 157,-58 157,-38 252.5,-38 252.5,-58"/>
<text xml:space="preserve" text-anchor="middle" x="204.75" y="-44.5" font-family="Helvetica,sans-Serif" font-size="10.00">kalman_filter_task</text>
</a>
</g>
</g>
<!-- Node1&#45;&gt;Node2 -->
<g id="edge1_Node000001_Node000002" class="edge">
<title>Node1&#45;&gt;Node2</title>
<g id="a_edge1_Node000001_Node000002"><a xlink:title=" ">
<path fill="none" stroke="#63b8ff" d="M121.41,-48C129.37,-48 137.52,-48 145.45,-48"/>
<polygon fill="#63b8ff" stroke="#63b8ff" points="145.35,-51.5 155.35,-48 145.35,-44.5 145.35,-51.5"/>
</a>
</g>
</g>
<!-- Node3 -->
<g id="Node000003" class="node">
<title>Node3</title>
<g id="a_Node000003"><a xlink:href="applications_2azure__board__apps_2apps_2kalman__filter_2main_2kalman__filter__demo_8cpp.html#a2955b9e77f5bd23f109feaaed1496af5" target="_top" xlink:title="Draw a 3d image.">
<polygon fill="white" stroke="#666666" points="375.75,-127 291.5,-127 291.5,-107 375.75,-107 375.75,-127"/>
<text xml:space="preserve" text-anchor="middle" x="333.62" y="-113.5" font-family="Helvetica,sans-Serif" font-size="10.00">draw_3d_image</text>
</a>
</g>
</g>
<!-- Node2&#45;&gt;Node3 -->
<g id="edge2_Node000002_Node000003" class="edge">
<title>Node2&#45;&gt;Node3</title>
<g id="a_edge2_Node000002_Node000003"><a xlink:title=" ">
<path fill="none" stroke="#63b8ff" d="M225.02,-58.48C245.91,-69.84 279.5,-88.11 303.59,-101.21"/>
<polygon fill="#63b8ff" stroke="#63b8ff" points="301.8,-104.22 312.26,-105.92 305.15,-98.07 301.8,-104.22"/>
</a>
</g>
</g>
<!-- Node11 -->
<g id="Node000011" class="node">
<title>Node11</title>
<g id="a_Node000011"><a xlink:href="applications_2azure__board__apps_2graphics_23d__matrix_23d__matrix__src_2graphics__support_8cpp.html#a7361f858eac611923f3e090a2a4837c8" target="_top" xlink:title="update perspective matrix">
<polygon fill="white" stroke="#666666" points="522.62,-32 421.88,-32 421.88,0 522.62,0 522.62,-32"/>
<text xml:space="preserve" text-anchor="start" x="429.88" y="-18.5" font-family="Helvetica,sans-Serif" font-size="10.00">update_perspective</text>
<text xml:space="preserve" text-anchor="middle" x="472.25" y="-6.5" font-family="Helvetica,sans-Serif" font-size="10.00">_matrix</text>
</a>
</g>
</g>
<!-- Node2&#45;&gt;Node11 -->
<g id="edge12_Node000002_Node000011" class="edge">
<title>Node2&#45;&gt;Node11</title>
<g id="a_edge12_Node000002_Node000011"><a xlink:title=" ">
<path fill="none" stroke="#63b8ff" d="M252.79,-43.22C287.6,-39.59 336.18,-34.33 378.75,-29 389.03,-27.71 399.94,-26.26 410.53,-24.8"/>
<polygon fill="#63b8ff" stroke="#63b8ff" points="410.92,-28.28 420.34,-23.43 409.96,-21.35 410.92,-28.28"/>
</a>
</g>
</g>
<!-- Node14 -->
<g id="Node000014" class="node">
<title>Node14</title>
<g id="a_Node000014"><a xlink:href="classdspm_1_1_mat.html#a3b4566db0f4ad277e70c09f5e934b91e" target="_top" xlink:title=" ">
<polygon fill="white" stroke="#666666" points="378.75,-20 288.5,-20 288.5,0 378.75,0 378.75,-20"/>
<text xml:space="preserve" text-anchor="middle" x="333.62" y="-6.5" font-family="Helvetica,sans-Serif" font-size="10.00">dspm::Mat::norm</text>
</a>
</g>
</g>
<!-- Node2&#45;&gt;Node14 -->
<g id="edge11_Node000002_Node000014" class="edge">
<title>Node2&#45;&gt;Node14</title>
<g id="a_edge11_Node000002_Node000014"><a xlink:title=" ">
<path fill="none" stroke="#63b8ff" d="M240.76,-37.52C255.04,-33.24 271.75,-28.23 286.97,-23.67"/>
<polygon fill="#63b8ff" stroke="#63b8ff" points="287.71,-27.11 296.28,-20.88 285.7,-20.4 287.71,-27.11"/>
</a>
</g>
</g>
<!-- Node4 -->
<g id="Node000004" class="node">
<title>Node4</title>
<g id="a_Node000004"><a xlink:href="applications_2azure__board__apps_2apps_2kalman__filter_2main_2kalman__filter__demo_8cpp.html#a4b024d66e45ca738ce324999e3d8f75b" target="_top" xlink:title="Display a 3d image.">
<polygon fill="white" stroke="#666666" points="519.25,-260 425.25,-260 425.25,-240 519.25,-240 519.25,-260"/>
<text xml:space="preserve" text-anchor="middle" x="472.25" y="-246.5" font-family="Helvetica,sans-Serif" font-size="10.00">display_3d_image</text>
</a>
</g>
</g>
<!-- Node3&#45;&gt;Node4 -->
<g id="edge3_Node000003_Node000004" class="edge">
<title>Node3&#45;&gt;Node4</title>
<g id="a_edge3_Node000003_Node000004"><a xlink:title=" ">
<path fill="none" stroke="#63b8ff" d="M339.82,-127.45C350.86,-148.72 378.65,-197.44 414.75,-226 418.92,-229.3 423.61,-232.22 428.46,-234.79"/>
<polygon fill="#63b8ff" stroke="#63b8ff" points="426.61,-237.79 437.15,-238.93 429.62,-231.47 426.61,-237.79"/>
</a>
</g>
</g>
<!-- Node5 -->
<g id="Node000005" class="node">
<title>Node5</title>
<g id="a_Node000005"><a xlink:href="classekf.html#a6e279ffd67d217145d7891a44ea0d9e8" target="_top" xlink:title=" ">
<polygon fill="white" stroke="#666666" points="638.75,-146 565.75,-146 565.75,-126 638.75,-126 638.75,-146"/>
<text xml:space="preserve" text-anchor="middle" x="602.25" y="-132.5" font-family="Helvetica,sans-Serif" font-size="10.00">ekf::eul2rotm</text>
</a>
</g>
</g>
<!-- Node3&#45;&gt;Node5 -->
<g id="edge4_Node000003_Node000005" class="edge">
<title>Node3&#45;&gt;Node5</title>
<g id="a_edge4_Node000003_Node000005"><a xlink:title=" ">
<path fill="none" stroke="#63b8ff" d="M341.49,-127.41C353.75,-144.92 381.27,-179.65 414.75,-193 462.22,-211.93 481.51,-209.88 529.75,-193 551.63,-185.35 571.81,-167.88 585.11,-154.28"/>
<polygon fill="#63b8ff" stroke="#63b8ff" points="587.5,-156.85 591.78,-147.16 582.39,-152.07 587.5,-156.85"/>
</a>
</g>
</g>
<!-- Node6 -->
<g id="Node000006" class="node">
<title>Node6</title>
<g id="a_Node000006"><a xlink:href="classdspm_1_1_mat.html#a7502c6d836d1ae05f6880620c1a832b5" target="_top" xlink:title=" ">
<polygon fill="#fff0f0" stroke="red" points="514.38,-184 430.12,-184 430.12,-164 514.38,-164 514.38,-184"/>
<text xml:space="preserve" text-anchor="middle" x="472.25" y="-170.5" font-family="Helvetica,sans-Serif" font-size="10.00">dspm::Mat::eye</text>
</a>
</g>
</g>
<!-- Node3&#45;&gt;Node6 -->
<g id="edge5_Node000003_Node000006" class="edge">
<title>Node3&#45;&gt;Node6</title>
<g id="a_edge5_Node000003_Node000006"><a xlink:title=" ">
<path fill="none" stroke="#63b8ff" d="M354.75,-127.36C370.78,-135.41 393.91,-146.59 414.75,-155 418.84,-156.65 423.14,-158.28 427.46,-159.85"/>
<polygon fill="#63b8ff" stroke="#63b8ff" points="426.12,-163.09 436.72,-163.1 428.44,-156.48 426.12,-163.09"/>
</a>
</g>
</g>
<!-- Node9 -->
<g id="Node000009" class="node">
<title>Node9</title>
<g id="a_Node000009"><a xlink:href="classekf.html#a535f152864f2732a9888d4f959bd21fa" target="_top" xlink:title=" ">
<polygon fill="white" stroke="#666666" points="511.75,-146 432.75,-146 432.75,-126 511.75,-126 511.75,-146"/>
<text xml:space="preserve" text-anchor="middle" x="472.25" y="-132.5" font-family="Helvetica,sans-Serif" font-size="10.00">ekf::quat2rotm</text>
</a>
</g>
</g>
<!-- Node3&#45;&gt;Node9 -->
<g id="edge6_Node000003_Node000009" class="edge">
<title>Node3&#45;&gt;Node9</title>
<g id="a_edge6_Node000003_Node000009"><a xlink:title=" ">
<path fill="none" stroke="#63b8ff" d="M375.99,-122.75C390.26,-124.74 406.4,-126.98 421.28,-129.05"/>
<polygon fill="#63b8ff" stroke="#63b8ff" points="420.48,-132.47 430.87,-130.38 421.44,-125.54 420.48,-132.47"/>
</a>
</g>
</g>
<!-- Node10 -->
<g id="Node000010" class="node">
<title>Node10</title>
<g id="a_Node000010"><a xlink:href="classekf.html#a744bf24c20081158a4327aba7d922547" target="_top" xlink:title=" ">
<polygon fill="white" stroke="#666666" points="508.75,-108 435.75,-108 435.75,-88 508.75,-88 508.75,-108"/>
<text xml:space="preserve" text-anchor="middle" x="472.25" y="-94.5" font-family="Helvetica,sans-Serif" font-size="10.00">ekf::rotm2eul</text>
</a>
</g>
</g>
<!-- Node3&#45;&gt;Node10 -->
<g id="edge7_Node000003_Node000010" class="edge">
<title>Node3&#45;&gt;Node10</title>
<g id="a_edge7_Node000003_Node000010"><a xlink:title=" ">
<path fill="none" stroke="#63b8ff" d="M375.99,-111.25C391.28,-109.12 408.72,-106.7 424.46,-104.51"/>
<polygon fill="#63b8ff" stroke="#63b8ff" points="424.65,-108.01 434.07,-103.17 423.69,-101.08 424.65,-108.01"/>
</a>
</g>
</g>
<!-- Node3&#45;&gt;Node11 -->
<g id="edge8_Node000003_Node000011" class="edge">
<title>Node3&#45;&gt;Node11</title>
<g id="a_edge8_Node000003_Node000011"><a xlink:title=" ">
<path fill="none" stroke="#63b8ff" d="M343.33,-106.73C357.15,-90.93 385.55,-60.46 414.75,-41 416.35,-39.94 417.99,-38.9 419.68,-37.89"/>
<polygon fill="#63b8ff" stroke="#63b8ff" points="421.23,-41.04 428.31,-33.16 417.86,-34.9 421.23,-41.04"/>
</a>
</g>
</g>
<!-- Node12 -->
<g id="Node000012" class="node">
<title>Node12</title>
<g id="a_Node000012"><a xlink:href="applications_2azure__board__apps_2graphics_23d__matrix_23d__matrix__src_2graphics__support_8cpp.html#abddf00a5f71e067190147e3ecdb49d3f" target="_top" xlink:title="update rotation matrix">
<polygon fill="#fff0f0" stroke="red" points="529.75,-70 414.75,-70 414.75,-50 529.75,-50 529.75,-70"/>
<text xml:space="preserve" text-anchor="middle" x="472.25" y="-56.5" font-family="Helvetica,sans-Serif" font-size="10.00">update_rotation_matrix</text>
</a>
</g>
</g>
<!-- Node3&#45;&gt;Node12 -->
<g id="edge9_Node000003_Node000012" class="edge">
<title>Node3&#45;&gt;Node12</title>
<g id="a_edge9_Node000003_Node000012"><a xlink:title=" ">
<path fill="none" stroke="#63b8ff" d="M354.75,-106.64C370.78,-98.59 393.91,-87.41 414.75,-79 418.84,-77.35 423.14,-75.72 427.46,-74.15"/>
<polygon fill="#63b8ff" stroke="#63b8ff" points="428.44,-77.52 436.72,-70.9 426.12,-70.91 428.44,-77.52"/>
</a>
</g>
</g>
<!-- Node12&#45;&gt;Node5 -->
<g id="edge10_Node000012_Node000005" class="edge">
<title>Node12&#45;&gt;Node5</title>
<g id="a_edge10_Node000012_Node000005"><a xlink:title=" ">
<path fill="none" stroke="#63b8ff" d="M510.51,-70.46C517.09,-72.89 523.75,-75.73 529.75,-79 549.42,-89.71 569.13,-105.93 582.86,-118.33"/>
<polygon fill="#63b8ff" stroke="#63b8ff" points="580.13,-120.58 589.84,-124.81 584.89,-115.44 580.13,-120.58"/>
</a>
</g>
</g>
</g>
</svg>
