<?xml version="1.0" encoding="UTF-8" standalone="no"?>
<!DOCTYPE svg PUBLIC "-//W3C//DTD SVG 1.1//EN"
 "http://www.w3.org/Graphics/SVG/1.1/DTD/svg11.dtd">
<!-- Generated by graphviz version 14.1.2 (20260124.0452)
 -->
<!-- Title: display_3d_image Pages: 1 -->
<!--zoomable 162 -->

<svg id="main" version="1.1" xmlns="http://www.w3.org/2000/svg" xmlns:xlink="http://www.w3.org/1999/xlink" xml:space="preserve" onload="init(evt)">

<style type="text/css"><![CDATA[
.node, .edge {opacity: 0.7;}
.node.selected, .edge.selected {opacity: 1;}
.edge:hover path { stroke: red; }
.edge:hover polygon { stroke: red; fill: red; }
]]></style>

<defs>
  <circle id="rim" cx="0" cy="0" r="7"/>
  <circle id="rim2" cx="0" cy="0" r="3.5"/>
  <g id="zoomPlus">
    <use xlink:href="#rim" fill="#404040"><set attributeName="fill" to="#808080" begin="zoomplus.mouseover" end="zoomplus.mouseout"/></use>
    <path d="M-4,0h8M0,-4v8" fill="none" stroke="white" stroke-width="1.5" pointer-events="none"/>
  </g>
  <g id="zoomMin">
    <use xlink:href="#rim" fill="#404040"><set attributeName="fill" to="#808080" begin="zoomminus.mouseover" end="zoomminus.mouseout"/></use>
    <path d="M-4,0h8" fill="none" stroke="white" stroke-width="1.5" pointer-events="none"/>
  </g>
  <g id="arrowUp" transform="translate(30 24)">
    <use xlink:href="#rim"/>
    <path pointer-events="none" fill="none" stroke="white" stroke-width="1.5" d="M0,-3.0v7 M-2.5,-0.5L0,-3.0L2.5,-0.5"/>
  </g>
  <g id="arrowRight" transform="rotate(90) translate(36 -43)">
    <use xlink:href="#rim"/>
    <path pointer-events="none" fill="none" stroke="white" stroke-width="1.5" d="M0,-3.0v7 M-2.5,-0.5L0,-3.0L2.5,-0.5"/>
  </g>
  <g id="arrowDown" transform="rotate(180) translate(-30 -48)">
    <use xlink:href="#rim"/>
    <path pointer-events="none" fill="none" stroke="white" stroke-width="1.5" d="M0,-3.0v7 M-2.5,-0.5L0,-3.0L2.5,-0.5"/>
  </g>
  <g id="arrowLeft" transform="rotate(270) translate(-36 17)">
    <use xlink:href="#rim"/>
    <path pointer-events="none" fill="none" stroke="white" stroke-width="1.5" d="M0,-3.0v7 M-2.5,-0.5L0,-3.0L2.5,-0.5"/>
  </g>
  <g id="resetDef">
    <use xlink:href="#rim2" fill="#404040"><set attributeName="fill" to="#808080" begin="reset.mouseover" end="reset.mouseout"/></use>
  </g>
</defs>
<script type="application/ecmascript">
var viewWidth = 605;
var viewHeight = 162;
var sectionId = 'dynsection-5';
</script>
<script type="application/ecmascript" xlink:href="svg.min.js"/>
<svg id="graph" class="graph">
<g id="viewport">
<title>display_3d_image</title>
<!-- Node1 -->
<g id="Node000001" class="node">
<title>Node1</title>
<g id="a_Node000001"><a xlink:title="Display a 3d image.">
<polygon fill="#999999" stroke="#666666" points="596.75,-96 502.75,-96 502.75,-76 596.75,-76 596.75,-96"/>
<text xml:space="preserve" text-anchor="middle" x="549.75" y="-82.5" font-family="Helvetica,sans-Serif" font-size="10.00">display_3d_image</text>
</a>
</g>
</g>
<!-- Node2 -->
<g id="Node000002" class="node">
<title>Node2</title>
<g id="a_Node000002"><a xlink:href="applications_2azure__board__apps_2apps_2kalman__filter_2main_2kalman__filter__demo_8cpp.html#a2955b9e77f5bd23f109feaaed1496af5" target="_top" xlink:title="Draw a 3d image.">
<polygon fill="white" stroke="#666666" points="466.75,-96 382.5,-96 382.5,-76 466.75,-76 466.75,-96"/>
<text xml:space="preserve" text-anchor="middle" x="424.62" y="-82.5" font-family="Helvetica,sans-Serif" font-size="10.00">draw_3d_image</text>
</a>
</g>
</g>
<!-- Node1&#45;&gt;Node2 -->
<g id="edge1_Node000001_Node000002" class="edge">
<title>Node1&#45;&gt;Node2</title>
<g id="a_edge1_Node000001_Node000002"><a xlink:title=" ">
<path fill="none" stroke="#63b8ff" d="M491.23,-86C483.13,-86 474.94,-86 467.21,-86"/>
<polygon fill="#63b8ff" stroke="#63b8ff" points="491.04,-89.5 501.04,-86 491.04,-82.5 491.04,-89.5"/>
</a>
</g>
</g>
<!-- Node3 -->
<g id="Node000003" class="node">
<title>Node3</title>
<g id="a_Node000003"><a xlink:href="applications_2azure__board__apps_2apps_2kalman__filter_2main_2kalman__filter__demo_8cpp.html#af43b34764385f3f1ad35ce1c00db220f" target="_top" xlink:title="Kalman filter RTOS task (or ESP timer callback).">
<polygon fill="white" stroke="#666666" points="346.5,-96 251,-96 251,-76 346.5,-76 346.5,-96"/>
<text xml:space="preserve" text-anchor="middle" x="298.75" y="-82.5" font-family="Helvetica,sans-Serif" font-size="10.00">kalman_filter_task</text>
</a>
</g>
</g>
<!-- Node2&#45;&gt;Node3 -->
<g id="edge2_Node000002_Node000003" class="edge">
<title>Node2&#45;&gt;Node3</title>
<g id="a_edge2_Node000002_Node000003"><a xlink:title=" ">
<path fill="none" stroke="#63b8ff" d="M370.55,-86C362.58,-86 354.4,-86 346.57,-86"/>
<polygon fill="#63b8ff" stroke="#63b8ff" points="370.52,-89.5 380.52,-86 370.52,-82.5 370.52,-89.5"/>
</a>
</g>
</g>
<!-- Node4 -->
<g id="Node000004" class="node">
<title>Node4</title>
<g id="a_Node000004"><a xlink:href="applications_2azure__board__apps_2apps_2kalman__filter_2main_2kalman__filter__demo_8cpp.html#abce06be17fc37d675118a678a8100a36" target="_top" xlink:title=" ">
<polygon fill="white" stroke="#666666" points="58,-153 0,-153 0,-133 58,-133 58,-153"/>
<text xml:space="preserve" text-anchor="middle" x="29" y="-139.5" font-family="Helvetica,sans-Serif" font-size="10.00">app_main</text>
</a>
</g>
</g>
<!-- Node3&#45;&gt;Node4 -->
<g id="edge3_Node000003_Node000004" class="edge">
<title>Node3&#45;&gt;Node4</title>
<g id="a_edge3_Node000003_Node000004"><a xlink:title=" ">
<path fill="none" stroke="#63b8ff" d="M279.41,-103.56C263.71,-117.29 239.79,-135.29 215,-143 161.64,-159.6 95.35,-153.63 58.36,-148.11"/>
<polygon fill="#63b8ff" stroke="#63b8ff" points="281.47,-106.41 286.52,-97.1 276.77,-101.23 281.47,-106.41"/>
</a>
</g>
</g>
<!-- Node5 -->
<g id="Node000005" class="node">
<title>Node5</title>
<g id="a_Node000005"><a xlink:href="applications_2azure__board__apps_2apps_2kalman__filter_2main_2kalman__filter__demo_8cpp.html#a1967e917dafd16b5f02410c5b10c1d90" target="_top" xlink:title="Kalman filter calibration procedure.">
<polygon fill="white" stroke="#666666" points="215,-134 94,-134 94,-114 215,-114 215,-134"/>
<text xml:space="preserve" text-anchor="middle" x="154.5" y="-120.5" font-family="Helvetica,sans-Serif" font-size="10.00">kalman_filter_calibration</text>
</a>
</g>
</g>
<!-- Node3&#45;&gt;Node5 -->
<g id="edge4_Node000003_Node000005" class="edge">
<title>Node3&#45;&gt;Node5</title>
<g id="a_edge4_Node000003_Node000005"><a xlink:title=" ">
<path fill="none" stroke="#63b8ff" d="M247.42,-99.45C230.08,-104.08 210.93,-109.19 194.62,-113.55"/>
<polygon fill="#63b8ff" stroke="#63b8ff" points="248.28,-102.84 257.04,-96.87 246.48,-96.07 248.28,-102.84"/>
</a>
</g>
</g>
<!-- Node6 -->
<g id="Node000006" class="node">
<title>Node6</title>
<g id="a_Node000006"><a xlink:href="external__examples_2b00f000e_2applications_2azure__board__apps_2apps_2kalman__filter_2main_2kalman__filter__demo_8cpp.html#a1967e917dafd16b5f02410c5b10c1d90" target="_top" xlink:title="Kalman filter calibration procedure.">
<polygon fill="#fff0f0" stroke="red" points="215,-96 94,-96 94,-76 215,-76 215,-96"/>
<text xml:space="preserve" text-anchor="middle" x="154.5" y="-82.5" font-family="Helvetica,sans-Serif" font-size="10.00">kalman_filter_calibration</text>
</a>
</g>
</g>
<!-- Node3&#45;&gt;Node6 -->
<g id="edge6_Node000003_Node000006" class="edge">
<title>Node3&#45;&gt;Node6</title>
<g id="a_edge6_Node000003_Node000006"><a xlink:title=" ">
<path fill="none" stroke="#63b8ff" d="M239.37,-86C231.45,-86 223.31,-86 215.36,-86"/>
<polygon fill="#63b8ff" stroke="#63b8ff" points="239.26,-89.5 249.26,-86 239.26,-82.5 239.26,-89.5"/>
</a>
</g>
</g>
<!-- Node8 -->
<g id="Node000008" class="node">
<title>Node8</title>
<g id="a_Node000008"><a xlink:href="external__examples_2d1468452_2apps_2kalman__filter_2main_2kalman__filter__demo_8cpp.html#a1967e917dafd16b5f02410c5b10c1d90" target="_top" xlink:title="Kalman filter calibration procedure.">
<polygon fill="#fff0f0" stroke="red" points="215,-58 94,-58 94,-38 215,-38 215,-58"/>
<text xml:space="preserve" text-anchor="middle" x="154.5" y="-44.5" font-family="Helvetica,sans-Serif" font-size="10.00">kalman_filter_calibration</text>
</a>
</g>
</g>
<!-- Node3&#45;&gt;Node8 -->
<g id="edge7_Node000003_Node000008" class="edge">
<title>Node3&#45;&gt;Node8</title>
<g id="a_edge7_Node000003_Node000008"><a xlink:title=" ">
<path fill="none" stroke="#63b8ff" d="M247.42,-72.55C230.08,-67.92 210.93,-62.81 194.62,-58.45"/>
<polygon fill="#63b8ff" stroke="#63b8ff" points="246.48,-75.93 257.04,-75.13 248.28,-69.16 246.48,-75.93"/>
</a>
</g>
</g>
<!-- Node10 -->
<g id="Node000010" class="node">
<title>Node10</title>
<g id="a_Node000010"><a xlink:href="external__examples_2f9c2d4b3_2azure__board__apps_2apps_2kalman__filter_2main_2kalman__filter__demo_8cpp.html#a1967e917dafd16b5f02410c5b10c1d90" target="_top" xlink:title="Kalman filter calibration procedure.">
<polygon fill="#fff0f0" stroke="red" points="215,-20 94,-20 94,0 215,0 215,-20"/>
<text xml:space="preserve" text-anchor="middle" x="154.5" y="-6.5" font-family="Helvetica,sans-Serif" font-size="10.00">kalman_filter_calibration</text>
</a>
</g>
</g>
<!-- Node3&#45;&gt;Node10 -->
<g id="edge8_Node000003_Node000010" class="edge">
<title>Node3&#45;&gt;Node10</title>
<g id="a_edge8_Node000003_Node000010"><a xlink:title=" ">
<path fill="none" stroke="#63b8ff" d="M276.69,-68.9C260.57,-56.47 237.39,-39.98 215,-29 208.38,-25.75 201.08,-22.89 193.93,-20.44"/>
<polygon fill="#63b8ff" stroke="#63b8ff" points="274.08,-71.3 284.11,-74.73 278.41,-65.8 274.08,-71.3"/>
</a>
</g>
</g>
<!-- Node5&#45;&gt;Node4 -->
<g id="edge5_Node000005_Node000004" class="edge">
<title>Node5&#45;&gt;Node4</title>
<g id="a_edge5_Node000005_Node000004"><a xlink:title=" ">
<path fill="none" stroke="#63b8ff" d="M82.35,-134.95C73.89,-136.25 65.67,-137.51 58.35,-138.64"/>
<polygon fill="#63b8ff" stroke="#63b8ff" points="82.71,-138.43 92.06,-133.45 81.65,-131.51 82.71,-138.43"/>
</a>
</g>
</g>
</g>
</svg>

<g id="navigator" transform="translate(0 0)" fill="#404254">
  <rect fill="#f2f5e9" fill-opacity="0.5" stroke="#606060" stroke-width=".5" x="0" y="0" width="60" height="60"/>
  <use id="zoomplus" xlink:href="#zoomPlus" x="17" y="9" onmousedown="handleZoom(evt,'in')"/>
  <use id="zoomminus" xlink:href="#zoomMin" x="42" y="9" onmousedown="handleZoom(evt,'out')"/>
  <use id="reset" xlink:href="#resetDef" x="30" y="36" onmousedown="handleReset()"/>
   <use id="arrowup" xlink:href="#arrowUp" x="0" y="0" onmousedown="handlePan(0,-1)"/>
  <use id="arrowright" xlink:href="#arrowRight" x="0" y="0" onmousedown="handlePan(1,0)"/>
  <use id="arrowdown" xlink:href="#arrowDown" x="0" y="0" onmousedown="handlePan(0,1)"/>
  <use id="arrowleft" xlink:href="#arrowLeft" x="0" y="0" onmousedown="handlePan(-1,0)"/>
</g>
<svg viewBox="0 0 15 15" width="100%" height="30px" preserveAspectRatio="xMaxYMin meet">
 <g id="arrow_out" transform="scale(0.3 0.3)">
  <a xlink:href="applications_2azure__board__apps_2apps_2kalman__filter_2main_2kalman__filter__demo_8cpp_a4b024d66e45ca738ce324999e3d8f75b_icgraph_org.svg" target="_base">
   <rect id="button" ry="5" rx="5" y="6" x="6" height="38" width="38"
        fill="#f2f5e9" fill-opacity="0.5" stroke="#606060" stroke-width="1.0"/>
   <path id="arrow"
     d="M 11.500037,31.436501 C 11.940474,20.09759 22.043105,11.32322 32.158766,21.979434 L 37.068811,17.246167 C 37.068811,17.246167 37.088388,32 37.088388,32 L 22.160133,31.978069 C 22.160133,31.978069 26.997745,27.140456 26.997745,27.140456 C 18.528582,18.264221 13.291696,25.230495 11.500037,31.436501 z"
     style="fill:#404040;"/>
  </a>
 </g>
</svg>

<style type='text/css'>
<![CDATA[
[data-mouse-over-selected='false'] { opacity: 0.7; }
[data-mouse-over-selected='true']  { opacity: 1.0; }
]]>
</style>
<script type="application/ecmascript"><![CDATA[
document.addEventListener('DOMContentLoaded', (event) => {
  highlightEdges();
  highlightAdjacentNodes();
});
]]></script>
</svg>
