<?xml version="1.0" encoding="UTF-8" standalone="no"?>
<!DOCTYPE svg PUBLIC "-//W3C//DTD SVG 1.1//EN"
 "http://www.w3.org/Graphics/SVG/1.1/DTD/svg11.dtd">
<!-- Generated by graphviz version 14.1.2 (20260124.0452)
 -->
<!-- Title: dsp_display_new Pages: 1 -->
<svg width="340pt" height="66pt"
 viewBox="0.00 0.00 340.00 66.00" xmlns="http://www.w3.org/2000/svg" xmlns:xlink="http://www.w3.org/1999/xlink">
<g id="graph0" class="graph" transform="scale(1 1) rotate(0) translate(4 62)">
<title>dsp_display_new</title>
<!-- Node1 -->
<g id="Node000001" class="node">
<title>Node1</title>
<g id="a_Node000001"><a xlink:title=" ">
<polygon fill="#999999" stroke="#666666" points="91,-39 0,-39 0,-19 91,-19 91,-39"/>
<text xml:space="preserve" text-anchor="middle" x="45.5" y="-25.5" font-family="Helvetica,sans-Serif" font-size="10.00">dsp_display_new</text>
</a>
</g>
</g>
<!-- Node2 -->
<g id="Node000002" class="node">
<title>Node2</title>
<g id="a_Node000002"><a xlink:href="applications_2m5stack__core__s3_2apps_23d__graphics_2main_2init__display_8c.html#ad7f56c5752f2747c0774a27b5622674b" target="_top" xlink:title=" ">
<polygon fill="white" stroke="#666666" points="227.75,-58 127,-58 127,-38 227.75,-38 227.75,-58"/>
<text xml:space="preserve" text-anchor="middle" x="177.38" y="-44.5" font-family="Helvetica,sans-Serif" font-size="10.00">bsp_enable_feature</text>
</a>
</g>
</g>
<!-- Node1&#45;&gt;Node2 -->
<g id="edge1_Node000001_Node000002" class="edge">
<title>Node1&#45;&gt;Node2</title>
<g id="a_edge1_Node000001_Node000002"><a xlink:title=" ">
<path fill="none" stroke="#63b8ff" d="M91.2,-35.54C98.98,-36.68 107.19,-37.88 115.32,-39.07"/>
<polygon fill="#63b8ff" stroke="#63b8ff" points="114.8,-42.53 125.2,-40.51 115.82,-35.6 114.8,-42.53"/>
</a>
</g>
</g>
<!-- Node4 -->
<g id="Node000004" class="node">
<title>Node4</title>
<g id="a_Node000004"><a xlink:href="applications_2m5stack__core__s3_2apps_23d__graphics_2main_2init__display_8c.html#ab742706b828d976fd293882d63d561a7" target="_top" xlink:title=" ">
<polygon fill="white" stroke="#666666" points="211.25,-20 143.5,-20 143.5,0 211.25,0 211.25,-20"/>
<text xml:space="preserve" text-anchor="middle" x="177.38" y="-6.5" font-family="Helvetica,sans-Serif" font-size="10.00">bsp_spi_init</text>
</a>
</g>
</g>
<!-- Node1&#45;&gt;Node4 -->
<g id="edge3_Node000001_Node000004" class="edge">
<title>Node1&#45;&gt;Node4</title>
<g id="a_edge3_Node000001_Node000004"><a xlink:title=" ">
<path fill="none" stroke="#63b8ff" d="M91.2,-22.46C104.36,-20.54 118.76,-18.43 131.91,-16.5"/>
<polygon fill="#63b8ff" stroke="#63b8ff" points="132.2,-20 141.59,-15.09 131.19,-13.07 132.2,-20"/>
</a>
</g>
</g>
<!-- Node3 -->
<g id="Node000003" class="node">
<title>Node3</title>
<g id="a_Node000003"><a xlink:href="applications_2m5stack__core__s3_2apps_23d__graphics_2main_2init__display_8c.html#afb504c284aa8a47f2ffee89038bd5b98" target="_top" xlink:title=" ">
<polygon fill="white" stroke="#666666" points="331.5,-58 263.75,-58 263.75,-38 331.5,-38 331.5,-58"/>
<text xml:space="preserve" text-anchor="middle" x="297.62" y="-44.5" font-family="Helvetica,sans-Serif" font-size="10.00">bsp_i2c_init</text>
</a>
</g>
</g>
<!-- Node2&#45;&gt;Node3 -->
<g id="edge2_Node000002_Node000003" class="edge">
<title>Node2&#45;&gt;Node3</title>
<g id="a_edge2_Node000002_Node000003"><a xlink:title=" ">
<path fill="none" stroke="#63b8ff" d="M228.18,-48C236.06,-48 244.17,-48 251.92,-48"/>
<polygon fill="#63b8ff" stroke="#63b8ff" points="251.83,-51.5 261.83,-48 251.83,-44.5 251.83,-51.5"/>
</a>
</g>
</g>
</g>
</svg>
