<?xml version="1.0" encoding="UTF-8" standalone="no"?>
<!DOCTYPE svg PUBLIC "-//W3C//DTD SVG 1.1//EN"
 "http://www.w3.org/Graphics/SVG/1.1/DTD/svg11.dtd">
<!-- Generated by graphviz version 14.1.2 (20260124.0452)
 -->
<!-- Title: tinyusb_cdc_deinit Pages: 1 -->
<svg width="517pt" height="80pt"
 viewBox="0.00 0.00 517.00 80.00" xmlns="http://www.w3.org/2000/svg" xmlns:xlink="http://www.w3.org/1999/xlink">
<g id="graph0" class="graph" transform="scale(1 1) rotate(0) translate(4 75.62)">
<title>tinyusb_cdc_deinit</title>
<!-- Node1 -->
<g id="Node000001" class="node">
<title>Node1</title>
<g id="a_Node000001"><a xlink:title="De&#45;initializing CDC. Clean its objects.">
<polygon fill="#999999" stroke="#666666" points="97,-58 0,-58 0,-38 97,-38 97,-58"/>
<text xml:space="preserve" text-anchor="middle" x="48.5" y="-44.5" font-family="Helvetica,sans-Serif" font-size="10.00">tinyusb_cdc_deinit</text>
</a>
</g>
</g>
<!-- Node2 -->
<g id="Node000002" class="node">
<title>Node2</title>
<g id="a_Node000002"><a xlink:href="cdc_8c.html#a53a3cac48508654d002fa4d573f87504" target="_top" xlink:title=" ">
<polygon fill="white" stroke="#666666" points="366.75,-58 285.5,-58 285.5,-38 366.75,-38 366.75,-58"/>
<text xml:space="preserve" text-anchor="middle" x="326.12" y="-44.5" font-family="Helvetica,sans-Serif" font-size="10.00">cdc_obj_check</text>
</a>
</g>
</g>
<!-- Node1&#45;&gt;Node2 -->
<g id="edge1_Node000001_Node000002" class="edge">
<title>Node1&#45;&gt;Node2</title>
<g id="a_edge1_Node000001_Node000002"><a xlink:title=" ">
<path fill="none" stroke="#63b8ff" d="M87.02,-58.42C101.29,-61.88 117.78,-65.29 133,-67 184.45,-72.78 198.11,-73.36 249.5,-67 259.55,-65.76 270.19,-63.62 280.21,-61.21"/>
<polygon fill="#63b8ff" stroke="#63b8ff" points="280.91,-64.64 289.74,-58.79 279.18,-57.86 280.91,-64.64"/>
</a>
</g>
</g>
<!-- Node4 -->
<g id="Node000004" class="node">
<title>Node4</title>
<g id="a_Node000004"><a xlink:href="cdc_8c.html#a4475f282177737b28e4f3c87051e10a0" target="_top" xlink:title=" ">
<polygon fill="white" stroke="#666666" points="249.5,-58 133,-58 133,-38 249.5,-38 249.5,-58"/>
<text xml:space="preserve" text-anchor="middle" x="191.25" y="-44.5" font-family="Helvetica,sans-Serif" font-size="10.00">tusb_cdc_deinit_comm</text>
</a>
</g>
</g>
<!-- Node1&#45;&gt;Node4 -->
<g id="edge3_Node000001_Node000004" class="edge">
<title>Node1&#45;&gt;Node4</title>
<g id="a_edge3_Node000001_Node000004"><a xlink:title=" ">
<path fill="none" stroke="#63b8ff" d="M97.15,-48C105.05,-48 113.37,-48 121.66,-48"/>
<polygon fill="#63b8ff" stroke="#63b8ff" points="121.39,-51.5 131.39,-48 121.39,-44.5 121.39,-51.5"/>
</a>
</g>
</g>
<!-- Node5 -->
<g id="Node000005" class="node">
<title>Node5</title>
<g id="a_Node000005"><a xlink:href="cdc_8c.html#a72a407d111850958c2a043f05798308f" target="_top" xlink:title=" ">
<polygon fill="white" stroke="#666666" points="245.38,-20 137.12,-20 137.12,0 245.38,0 245.38,-20"/>
<text xml:space="preserve" text-anchor="middle" x="191.25" y="-6.5" font-family="Helvetica,sans-Serif" font-size="10.00">tusb_cdc_deinit_data</text>
</a>
</g>
</g>
<!-- Node1&#45;&gt;Node5 -->
<g id="edge5_Node000001_Node000005" class="edge">
<title>Node1&#45;&gt;Node5</title>
<g id="a_edge5_Node000001_Node000005"><a xlink:title=" ">
<path fill="none" stroke="#63b8ff" d="M88.33,-37.52C104.49,-33.15 123.43,-28.04 140.58,-23.41"/>
<polygon fill="#63b8ff" stroke="#63b8ff" points="141.34,-26.83 150.08,-20.84 139.52,-20.07 141.34,-26.83"/>
</a>
</g>
</g>
<!-- Node3 -->
<g id="Node000003" class="node">
<title>Node3</title>
<g id="a_Node000003"><a xlink:href="cdc_8c.html#a19af1be61f3d48fb87311dd61c06cbae" target="_top" xlink:title="Return interface of a CDC device.">
<polygon fill="white" stroke="#666666" points="508.75,-58 402.75,-58 402.75,-38 508.75,-38 508.75,-58"/>
<text xml:space="preserve" text-anchor="middle" x="455.75" y="-44.5" font-family="Helvetica,sans-Serif" font-size="10.00">tinyusb_cdc_get_intf</text>
</a>
</g>
</g>
<!-- Node2&#45;&gt;Node3 -->
<g id="edge2_Node000002_Node000003" class="edge">
<title>Node2&#45;&gt;Node3</title>
<g id="a_edge2_Node000002_Node000003"><a xlink:title=" ">
<path fill="none" stroke="#63b8ff" d="M367.16,-48C374.81,-48 382.99,-48 391.17,-48"/>
<polygon fill="#63b8ff" stroke="#63b8ff" points="391.16,-51.5 401.16,-48 391.16,-44.5 391.16,-51.5"/>
</a>
</g>
</g>
<!-- Node4&#45;&gt;Node2 -->
<g id="edge4_Node000004_Node000002" class="edge">
<title>Node4&#45;&gt;Node2</title>
<g id="a_edge4_Node000004_Node000002"><a xlink:title=" ">
<path fill="none" stroke="#63b8ff" d="M249.76,-48C257.77,-48 265.96,-48 273.84,-48"/>
<polygon fill="#63b8ff" stroke="#63b8ff" points="273.61,-51.5 283.61,-48 273.61,-44.5 273.61,-51.5"/>
</a>
</g>
</g>
<!-- Node5&#45;&gt;Node2 -->
<g id="edge6_Node000005_Node000002" class="edge">
<title>Node5&#45;&gt;Node2</title>
<g id="a_edge6_Node000005_Node000002"><a xlink:title=" ">
<path fill="none" stroke="#63b8ff" d="M228.91,-20.48C244.01,-24.8 261.71,-29.86 277.77,-34.46"/>
<polygon fill="#63b8ff" stroke="#63b8ff" points="276.55,-37.75 287.13,-37.13 278.48,-31.02 276.55,-37.75"/>
</a>
</g>
</g>
</g>
</svg>
