<?xml version="1.0" encoding="UTF-8" standalone="no"?>
<!DOCTYPE svg PUBLIC "-//W3C//DTD SVG 1.1//EN"
 "http://www.w3.org/Graphics/SVG/1.1/DTD/svg11.dtd">
<!-- Generated by graphviz version 14.1.2 (20260124.0452)
 -->
<!-- Title: cdc.h Pages: 1 -->
<svg width="254pt" height="84pt"
 viewBox="0.00 0.00 254.00 84.00" xmlns="http://www.w3.org/2000/svg" xmlns:xlink="http://www.w3.org/1999/xlink">
<g id="graph0" class="graph" transform="scale(1 1) rotate(0) translate(4 80)">
<title>cdc.h</title>
<!-- Node1 -->
<g id="Node000001" class="node">
<title>Node1</title>
<g id="a_Node000001"><a xlink:title=" ">
<polygon fill="#999999" stroke="#666666" points="122,-76 82,-76 82,-56 122,-56 122,-76"/>
<text xml:space="preserve" text-anchor="middle" x="102" y="-62.5" font-family="Helvetica,sans-Serif" font-size="10.00">cdc.h</text>
</a>
</g>
</g>
<!-- Node2 -->
<g id="Node000002" class="node">
<title>Node2</title>
<g id="a_Node000002"><a xlink:href="cdc_8c.html" target="_top" xlink:title=" ">
<polygon fill="white" stroke="#666666" points="40,-20 0,-20 0,0 40,0 40,-20"/>
<text xml:space="preserve" text-anchor="middle" x="20" y="-6.5" font-family="Helvetica,sans-Serif" font-size="10.00">cdc.c</text>
</a>
</g>
</g>
<!-- Node1&#45;&gt;Node2 -->
<g id="edge1_Node000001_Node000002" class="edge">
<title>Node1&#45;&gt;Node2</title>
<g id="a_edge1_Node000001_Node000002"><a xlink:title=" ">
<path fill="none" stroke="#63b8ff" d="M78.11,-49.27C63.95,-39.94 46.47,-28.43 34.39,-20.48"/>
<polygon fill="#63b8ff" stroke="#63b8ff" points="76.18,-52.18 86.45,-54.76 80.03,-46.34 76.18,-52.18"/>
</a>
</g>
</g>
<!-- Node3 -->
<g id="Node000003" class="node">
<title>Node3</title>
<g id="a_Node000003"><a xlink:href="tusb__cdc__acm_8c.html" target="_top" xlink:title=" ">
<polygon fill="white" stroke="#666666" points="146,-20 58,-20 58,0 146,0 146,-20"/>
<text xml:space="preserve" text-anchor="middle" x="102" y="-6.5" font-family="Helvetica,sans-Serif" font-size="10.00">tusb_cdc_acm.c</text>
</a>
</g>
</g>
<!-- Node1&#45;&gt;Node3 -->
<g id="edge2_Node000001_Node000003" class="edge">
<title>Node1&#45;&gt;Node3</title>
<g id="a_edge2_Node000001_Node000003"><a xlink:title=" ">
<path fill="none" stroke="#63b8ff" d="M102,-44.13C102,-35.9 102,-26.85 102,-20.3"/>
<polygon fill="#63b8ff" stroke="#63b8ff" points="98.5,-44.08 102,-54.08 105.5,-44.08 98.5,-44.08"/>
</a>
</g>
</g>
<!-- Node4 -->
<g id="Node000004" class="node">
<title>Node4</title>
<g id="a_Node000004"><a xlink:href="tusb__console_8c.html" target="_top" xlink:title=" ">
<polygon fill="white" stroke="#666666" points="246,-20 164,-20 164,0 246,0 246,-20"/>
<text xml:space="preserve" text-anchor="middle" x="205" y="-6.5" font-family="Helvetica,sans-Serif" font-size="10.00">tusb_console.c</text>
</a>
</g>
</g>
<!-- Node1&#45;&gt;Node4 -->
<g id="edge3_Node000001_Node000004" class="edge">
<title>Node1&#45;&gt;Node4</title>
<g id="a_edge3_Node000001_Node000004"><a xlink:title=" ">
<path fill="none" stroke="#63b8ff" d="M129.95,-50.35C148.08,-40.84 171.17,-28.74 186.92,-20.48"/>
<polygon fill="#63b8ff" stroke="#63b8ff" points="128.51,-47.15 121.28,-54.89 131.76,-53.35 128.51,-47.15"/>
</a>
</g>
</g>
</g>
</svg>
