<?xml version="1.0" encoding="UTF-8" standalone="no"?>
<!DOCTYPE svg PUBLIC "-//W3C//DTD SVG 1.1//EN"
 "http://www.w3.org/Graphics/SVG/1.1/DTD/svg11.dtd">
<!-- Generated by graphviz version 14.1.2 (20260124.0452)
 -->
<!-- Title: cdc_obj_check Pages: 1 -->
<!--zoomable 201 -->

<svg id="main" version="1.1" xmlns="http://www.w3.org/2000/svg" xmlns:xlink="http://www.w3.org/1999/xlink" xml:space="preserve" onload="init(evt)">

<style type="text/css"><![CDATA[
.node, .edge {opacity: 0.7;}
.node.selected, .edge.selected {opacity: 1;}
.edge:hover path { stroke: red; }
.edge:hover polygon { stroke: red; fill: red; }
]]></style>

<defs>
  <circle id="rim" cx="0" cy="0" r="7"/>
  <circle id="rim2" cx="0" cy="0" r="3.5"/>
  <g id="zoomPlus">
    <use xlink:href="#rim" fill="#404040"><set attributeName="fill" to="#808080" begin="zoomplus.mouseover" end="zoomplus.mouseout"/></use>
    <path d="M-4,0h8M0,-4v8" fill="none" stroke="white" stroke-width="1.5" pointer-events="none"/>
  </g>
  <g id="zoomMin">
    <use xlink:href="#rim" fill="#404040"><set attributeName="fill" to="#808080" begin="zoomminus.mouseover" end="zoomminus.mouseout"/></use>
    <path d="M-4,0h8" fill="none" stroke="white" stroke-width="1.5" pointer-events="none"/>
  </g>
  <g id="arrowUp" transform="translate(30 24)">
    <use xlink:href="#rim"/>
    <path pointer-events="none" fill="none" stroke="white" stroke-width="1.5" d="M0,-3.0v7 M-2.5,-0.5L0,-3.0L2.5,-0.5"/>
  </g>
  <g id="arrowRight" transform="rotate(90) translate(36 -43)">
    <use xlink:href="#rim"/>
    <path pointer-events="none" fill="none" stroke="white" stroke-width="1.5" d="M0,-3.0v7 M-2.5,-0.5L0,-3.0L2.5,-0.5"/>
  </g>
  <g id="arrowDown" transform="rotate(180) translate(-30 -48)">
    <use xlink:href="#rim"/>
    <path pointer-events="none" fill="none" stroke="white" stroke-width="1.5" d="M0,-3.0v7 M-2.5,-0.5L0,-3.0L2.5,-0.5"/>
  </g>
  <g id="arrowLeft" transform="rotate(270) translate(-36 17)">
    <use xlink:href="#rim"/>
    <path pointer-events="none" fill="none" stroke="white" stroke-width="1.5" d="M0,-3.0v7 M-2.5,-0.5L0,-3.0L2.5,-0.5"/>
  </g>
  <g id="resetDef">
    <use xlink:href="#rim2" fill="#404040"><set attributeName="fill" to="#808080" begin="reset.mouseover" end="reset.mouseout"/></use>
  </g>
</defs>
<script type="application/ecmascript">
var viewWidth = 603;
var viewHeight = 201;
var sectionId = 'dynsection-2';
</script>
<script type="application/ecmascript" xlink:href="svg.min.js"/>
<svg id="graph" class="graph">
<g id="viewport">
<title>cdc_obj_check</title>
<!-- Node1 -->
<g id="Node000001" class="node">
<title>Node1</title>
<g id="a_Node000001"><a xlink:title=" ">
<polygon fill="#999999" stroke="#666666" points="594.5,-115 513.25,-115 513.25,-95 594.5,-95 594.5,-115"/>
<text xml:space="preserve" text-anchor="middle" x="553.88" y="-101.5" font-family="Helvetica,sans-Serif" font-size="10.00">cdc_obj_check</text>
</a>
</g>
</g>
<!-- Node2 -->
<g id="Node000002" class="node">
<title>Node2</title>
<g id="a_Node000002"><a xlink:href="cdc_8c.html#a0fea5ebace85419b82be50d14552a846" target="_top" xlink:title="De&#45;initializing CDC. Clean its objects.">
<polygon fill="white" stroke="#666666" points="324.75,-153 227.75,-153 227.75,-133 324.75,-133 324.75,-153"/>
<text xml:space="preserve" text-anchor="middle" x="276.25" y="-139.5" font-family="Helvetica,sans-Serif" font-size="10.00">tinyusb_cdc_deinit</text>
</a>
</g>
</g>
<!-- Node1&#45;&gt;Node2 -->
<g id="edge1_Node000001_Node000002" class="edge">
<title>Node1&#45;&gt;Node2</title>
<g id="a_edge1_Node000001_Node000002"><a xlink:title=" ">
<path fill="none" stroke="#63b8ff" d="M540.21,-124.7C527.03,-143.2 504.51,-169.67 477.25,-181 429.44,-200.87 411.35,-191.97 360.75,-181 336.47,-175.73 310.77,-162.78 294.4,-153.45"/>
<polygon fill="#63b8ff" stroke="#63b8ff" points="542.96,-126.88 545.69,-116.65 537.17,-122.95 542.96,-126.88"/>
</a>
</g>
</g>
<!-- Node5 -->
<g id="Node000005" class="node">
<title>Node5</title>
<g id="a_Node000005"><a xlink:href="cdc_8c.html#ae8ab12e178b5e70f3da27e93d8d91a90" target="_top" xlink:title="Initializing CDC basic object.">
<polygon fill="white" stroke="#666666" points="319.5,-77 233,-77 233,-57 319.5,-57 319.5,-77"/>
<text xml:space="preserve" text-anchor="middle" x="276.25" y="-63.5" font-family="Helvetica,sans-Serif" font-size="10.00">tinyusb_cdc_init</text>
</a>
</g>
</g>
<!-- Node1&#45;&gt;Node5 -->
<g id="edge4_Node000001_Node000005" class="edge">
<title>Node1&#45;&gt;Node5</title>
<g id="a_edge4_Node000001_Node000005"><a xlink:title=" ">
<path fill="none" stroke="#63b8ff" d="M501.4,-97.9C448.95,-90.67 368.55,-79.59 319.64,-72.84"/>
<polygon fill="#63b8ff" stroke="#63b8ff" points="500.91,-101.37 511.3,-99.27 501.87,-94.43 500.91,-101.37"/>
</a>
</g>
</g>
<!-- Node6 -->
<g id="Node000006" class="node">
<title>Node6</title>
<g id="a_Node000006"><a xlink:href="cdc_8c.html#a36449a7b8addc224dc809d01cc5c887c" target="_top" xlink:title=" ">
<polygon fill="white" stroke="#666666" points="472,-58 366,-58 366,-38 472,-38 472,-58"/>
<text xml:space="preserve" text-anchor="middle" x="419" y="-44.5" font-family="Helvetica,sans-Serif" font-size="10.00">tusb_cdc_comm_init</text>
</a>
</g>
</g>
<!-- Node1&#45;&gt;Node6 -->
<g id="edge6_Node000001_Node000006" class="edge">
<title>Node1&#45;&gt;Node6</title>
<g id="a_edge6_Node000001_Node000006"><a xlink:title=" ">
<path fill="none" stroke="#63b8ff" d="M518.71,-89.97C505.74,-84.29 490.83,-77.81 477.25,-72 466.75,-67.51 455.13,-62.62 445.11,-58.44"/>
<polygon fill="#63b8ff" stroke="#63b8ff" points="517.12,-93.09 527.68,-93.9 519.93,-86.68 517.12,-93.09"/>
</a>
</g>
</g>
<!-- Node7 -->
<g id="Node000007" class="node">
<title>Node7</title>
<g id="a_Node000007"><a xlink:href="cdc_8c.html#aab3601e6d925be67b313996c6ed6cf37" target="_top" xlink:title=" ">
<polygon fill="white" stroke="#666666" points="467.88,-20 370.12,-20 370.12,0 467.88,0 467.88,-20"/>
<text xml:space="preserve" text-anchor="middle" x="419" y="-6.5" font-family="Helvetica,sans-Serif" font-size="10.00">tusb_cdc_data_init</text>
</a>
</g>
</g>
<!-- Node1&#45;&gt;Node7 -->
<g id="edge8_Node000001_Node000007" class="edge">
<title>Node1&#45;&gt;Node7</title>
<g id="a_edge8_Node000001_Node000007"><a xlink:title=" ">
<path fill="none" stroke="#63b8ff" d="M538.37,-86.02C524.4,-68.92 501.82,-44.21 477.25,-29 471.82,-25.64 465.72,-22.8 459.59,-20.43"/>
<polygon fill="#63b8ff" stroke="#63b8ff" points="535.31,-87.78 544.26,-93.44 540.79,-83.43 535.31,-87.78"/>
</a>
</g>
</g>
<!-- Node8 -->
<g id="Node000008" class="node">
<title>Node8</title>
<g id="a_Node000008"><a xlink:href="cdc_8c.html#a4475f282177737b28e4f3c87051e10a0" target="_top" xlink:title=" ">
<polygon fill="white" stroke="#666666" points="477.25,-172 360.75,-172 360.75,-152 477.25,-152 477.25,-172"/>
<text xml:space="preserve" text-anchor="middle" x="419" y="-158.5" font-family="Helvetica,sans-Serif" font-size="10.00">tusb_cdc_deinit_comm</text>
</a>
</g>
</g>
<!-- Node1&#45;&gt;Node8 -->
<g id="edge10_Node000001_Node000008" class="edge">
<title>Node1&#45;&gt;Node8</title>
<g id="a_edge10_Node000001_Node000008"><a xlink:title=" ">
<path fill="none" stroke="#63b8ff" d="M524.01,-120.74C510.1,-128.01 493.04,-136.45 477.25,-143 469.9,-146.05 461.87,-148.96 454.2,-151.55"/>
<polygon fill="#63b8ff" stroke="#63b8ff" points="525.43,-123.95 532.63,-116.18 522.15,-117.77 525.43,-123.95"/>
</a>
</g>
</g>
<!-- Node9 -->
<g id="Node000009" class="node">
<title>Node9</title>
<g id="a_Node000009"><a xlink:href="cdc_8c.html#a72a407d111850958c2a043f05798308f" target="_top" xlink:title=" ">
<polygon fill="white" stroke="#666666" points="473.12,-134 364.88,-134 364.88,-114 473.12,-114 473.12,-134"/>
<text xml:space="preserve" text-anchor="middle" x="419" y="-120.5" font-family="Helvetica,sans-Serif" font-size="10.00">tusb_cdc_deinit_data</text>
</a>
</g>
</g>
<!-- Node1&#45;&gt;Node9 -->
<g id="edge12_Node000001_Node000009" class="edge">
<title>Node1&#45;&gt;Node9</title>
<g id="a_edge12_Node000001_Node000009"><a xlink:title=" ">
<path fill="none" stroke="#63b8ff" d="M501.65,-112.33C492.46,-113.64 482.86,-115.01 473.61,-116.33"/>
<polygon fill="#63b8ff" stroke="#63b8ff" points="502.11,-115.8 511.51,-110.91 501.12,-108.87 502.11,-115.8"/>
</a>
</g>
</g>
<!-- Node3 -->
<g id="Node000003" class="node">
<title>Node3</title>
<g id="a_Node000003"><a xlink:href="tusb__cdc__acm_8c.html#aa240a058986c6de30a807ec424e6ab80" target="_top" xlink:title="Initialize CDC ACM. Initialization will be finished with the tud_cdc_line_state_cb callback.">
<polygon fill="white" stroke="#666666" points="191.75,-124 94,-124 94,-104 191.75,-104 191.75,-124"/>
<text xml:space="preserve" text-anchor="middle" x="142.88" y="-110.5" font-family="Helvetica,sans-Serif" font-size="10.00">tusb_cdc_acm_init</text>
</a>
</g>
</g>
<!-- Node2&#45;&gt;Node3 -->
<g id="edge2_Node000002_Node000003" class="edge">
<title>Node2&#45;&gt;Node3</title>
<g id="a_edge2_Node000002_Node000003"><a xlink:title=" ">
<path fill="none" stroke="#63b8ff" d="M216.74,-130.09C208.21,-128.2 199.51,-126.28 191.23,-124.45"/>
<polygon fill="#63b8ff" stroke="#63b8ff" points="215.82,-133.47 226.34,-132.2 217.33,-126.63 215.82,-133.47"/>
</a>
</g>
</g>
<!-- Node4 -->
<g id="Node000004" class="node">
<title>Node4</title>
<g id="a_Node000004"><a xlink:href="main_2main_8c.html#a630544a7f0a2cc40d8a7fefab7e2fe70" target="_top" xlink:title=" ">
<polygon fill="white" stroke="#666666" points="58,-124 0,-124 0,-104 58,-104 58,-124"/>
<text xml:space="preserve" text-anchor="middle" x="29" y="-110.5" font-family="Helvetica,sans-Serif" font-size="10.00">app_main</text>
</a>
</g>
</g>
<!-- Node3&#45;&gt;Node4 -->
<g id="edge3_Node000003_Node000004" class="edge">
<title>Node3&#45;&gt;Node4</title>
<g id="a_edge3_Node000003_Node000004"><a xlink:title=" ">
<path fill="none" stroke="#63b8ff" d="M82.38,-114C74.01,-114 65.76,-114 58.36,-114"/>
<polygon fill="#63b8ff" stroke="#63b8ff" points="82.27,-117.5 92.27,-114 82.27,-110.5 82.27,-117.5"/>
</a>
</g>
</g>
<!-- Node5&#45;&gt;Node3 -->
<g id="edge5_Node000005_Node000003" class="edge">
<title>Node5&#45;&gt;Node3</title>
<g id="a_edge5_Node000005_Node000003"><a xlink:title=" ">
<path fill="none" stroke="#63b8ff" d="M235.37,-81.27C215.26,-88.46 191.3,-97.03 172.95,-103.6"/>
<polygon fill="#63b8ff" stroke="#63b8ff" points="236.43,-84.6 244.67,-77.94 234.07,-78.01 236.43,-84.6"/>
</a>
</g>
</g>
<!-- Node6&#45;&gt;Node5 -->
<g id="edge7_Node000006_Node000005" class="edge">
<title>Node6&#45;&gt;Node5</title>
<g id="a_edge7_Node000006_Node000005"><a xlink:title=" ">
<path fill="none" stroke="#63b8ff" d="M354.41,-56.58C342.62,-58.18 330.57,-59.8 319.6,-61.28"/>
<polygon fill="#63b8ff" stroke="#63b8ff" points="354.65,-60.08 364.09,-55.28 353.71,-53.15 354.65,-60.08"/>
</a>
</g>
</g>
<!-- Node7&#45;&gt;Node5 -->
<g id="edge9_Node000007_Node000005" class="edge">
<title>Node7&#45;&gt;Node5</title>
<g id="a_edge9_Node000007_Node000005"><a xlink:title=" ">
<path fill="none" stroke="#63b8ff" d="M373.65,-24.19C369.27,-25.75 364.91,-27.37 360.75,-29 339.25,-37.43 315.32,-48.5 298.61,-56.52"/>
<polygon fill="#63b8ff" stroke="#63b8ff" points="374.74,-27.52 383.05,-20.95 372.46,-20.9 374.74,-27.52"/>
</a>
</g>
</g>
<!-- Node8&#45;&gt;Node2 -->
<g id="edge11_Node000008_Node000002" class="edge">
<title>Node8&#45;&gt;Node2</title>
<g id="a_edge11_Node000008_Node000002"><a xlink:title=" ">
<path fill="none" stroke="#63b8ff" d="M349.01,-152.69C340.94,-151.6 332.86,-150.51 325.17,-149.47"/>
<polygon fill="#63b8ff" stroke="#63b8ff" points="348.47,-156.15 358.85,-154.01 349.4,-149.21 348.47,-156.15"/>
</a>
</g>
</g>
<!-- Node9&#45;&gt;Node2 -->
<g id="edge13_Node000009_Node000002" class="edge">
<title>Node9&#45;&gt;Node2</title>
<g id="a_edge13_Node000009_Node000002"><a xlink:title=" ">
<path fill="none" stroke="#63b8ff" d="M353.05,-132.77C343.66,-134.03 334.15,-135.32 325.18,-136.53"/>
<polygon fill="#63b8ff" stroke="#63b8ff" points="353.45,-136.25 362.89,-131.44 352.51,-129.31 353.45,-136.25"/>
</a>
</g>
</g>
</g>
</svg>

<g id="navigator" transform="translate(0 0)" fill="#404254">
  <rect fill="#f2f5e9" fill-opacity="0.5" stroke="#606060" stroke-width=".5" x="0" y="0" width="60" height="60"/>
  <use id="zoomplus" xlink:href="#zoomPlus" x="17" y="9" onmousedown="handleZoom(evt,'in')"/>
  <use id="zoomminus" xlink:href="#zoomMin" x="42" y="9" onmousedown="handleZoom(evt,'out')"/>
  <use id="reset" xlink:href="#resetDef" x="30" y="36" onmousedown="handleReset()"/>
   <use id="arrowup" xlink:href="#arrowUp" x="0" y="0" onmousedown="handlePan(0,-1)"/>
  <use id="arrowright" xlink:href="#arrowRight" x="0" y="0" onmousedown="handlePan(1,0)"/>
  <use id="arrowdown" xlink:href="#arrowDown" x="0" y="0" onmousedown="handlePan(0,1)"/>
  <use id="arrowleft" xlink:href="#arrowLeft" x="0" y="0" onmousedown="handlePan(-1,0)"/>
</g>
<svg viewBox="0 0 15 15" width="100%" height="30px" preserveAspectRatio="xMaxYMin meet">
 <g id="arrow_out" transform="scale(0.3 0.3)">
  <a xlink:href="cdc_8c_a53a3cac48508654d002fa4d573f87504_icgraph_org.svg" target="_base">
   <rect id="button" ry="5" rx="5" y="6" x="6" height="38" width="38"
        fill="#f2f5e9" fill-opacity="0.5" stroke="#606060" stroke-width="1.0"/>
   <path id="arrow"
     d="M 11.500037,31.436501 C 11.940474,20.09759 22.043105,11.32322 32.158766,21.979434 L 37.068811,17.246167 C 37.068811,17.246167 37.088388,32 37.088388,32 L 22.160133,31.978069 C 22.160133,31.978069 26.997745,27.140456 26.997745,27.140456 C 18.528582,18.264221 13.291696,25.230495 11.500037,31.436501 z"
     style="fill:#404040;"/>
  </a>
 </g>
</svg>

<style type='text/css'>
<![CDATA[
[data-mouse-over-selected='false'] { opacity: 0.7; }
[data-mouse-over-selected='true']  { opacity: 1.0; }
]]>
</style>
<script type="application/ecmascript"><![CDATA[
document.addEventListener('DOMContentLoaded', (event) => {
  highlightEdges();
  highlightAdjacentNodes();
});
]]></script>
</svg>
