<?xml version="1.0" encoding="UTF-8" standalone="no"?>
<!DOCTYPE svg PUBLIC "-//W3C//DTD SVG 1.1//EN"
 "http://www.w3.org/Graphics/SVG/1.1/DTD/svg11.dtd">
<!-- Generated by graphviz version 14.1.2 (20260124.0452)
 -->
<!-- Title: tinyusb_cdc_init Pages: 1 -->
<svg width="322pt" height="28pt"
 viewBox="0.00 0.00 322.00 28.00" xmlns="http://www.w3.org/2000/svg" xmlns:xlink="http://www.w3.org/1999/xlink">
<g id="graph0" class="graph" transform="scale(1 1) rotate(0) translate(4 24)">
<title>tinyusb_cdc_init</title>
<!-- Node1 -->
<g id="Node000001" class="node">
<title>Node1</title>
<g id="a_Node000001"><a xlink:title="Initializing CDC basic object.">
<polygon fill="#999999" stroke="#666666" points="314.25,-20 227.75,-20 227.75,0 314.25,0 314.25,-20"/>
<text xml:space="preserve" text-anchor="middle" x="271" y="-6.5" font-family="Helvetica,sans-Serif" font-size="10.00">tinyusb_cdc_init</text>
</a>
</g>
</g>
<!-- Node2 -->
<g id="Node000002" class="node">
<title>Node2</title>
<g id="a_Node000002"><a xlink:href="tusb__cdc__acm_8c.html#aa240a058986c6de30a807ec424e6ab80" target="_top" xlink:title="Initialize CDC ACM. Initialization will be finished with the tud_cdc_line_state_cb callback.">
<polygon fill="white" stroke="#666666" points="191.75,-20 94,-20 94,0 191.75,0 191.75,-20"/>
<text xml:space="preserve" text-anchor="middle" x="142.88" y="-6.5" font-family="Helvetica,sans-Serif" font-size="10.00">tusb_cdc_acm_init</text>
</a>
</g>
</g>
<!-- Node1&#45;&gt;Node2 -->
<g id="edge1_Node000001_Node000002" class="edge">
<title>Node1&#45;&gt;Node2</title>
<g id="a_edge1_Node000001_Node000002"><a xlink:title=" ">
<path fill="none" stroke="#63b8ff" d="M215.93,-10C208.03,-10 199.95,-10 192.18,-10"/>
<polygon fill="#63b8ff" stroke="#63b8ff" points="215.79,-13.5 225.79,-10 215.79,-6.5 215.79,-13.5"/>
</a>
</g>
</g>
<!-- Node3 -->
<g id="Node000003" class="node">
<title>Node3</title>
<g id="a_Node000003"><a xlink:href="main_2main_8c.html#a630544a7f0a2cc40d8a7fefab7e2fe70" target="_top" xlink:title=" ">
<polygon fill="white" stroke="#666666" points="58,-20 0,-20 0,0 58,0 58,-20"/>
<text xml:space="preserve" text-anchor="middle" x="29" y="-6.5" font-family="Helvetica,sans-Serif" font-size="10.00">app_main</text>
</a>
</g>
</g>
<!-- Node2&#45;&gt;Node3 -->
<g id="edge2_Node000002_Node000003" class="edge">
<title>Node2&#45;&gt;Node3</title>
<g id="a_edge2_Node000002_Node000003"><a xlink:title=" ">
<path fill="none" stroke="#63b8ff" d="M82.38,-10C74.01,-10 65.76,-10 58.36,-10"/>
<polygon fill="#63b8ff" stroke="#63b8ff" points="82.27,-13.5 92.27,-10 82.27,-6.5 82.27,-13.5"/>
</a>
</g>
</g>
</g>
</svg>
