<?xml version="1.0" encoding="UTF-8" standalone="no"?>
<!DOCTYPE svg PUBLIC "-//W3C//DTD SVG 1.1//EN"
 "http://www.w3.org/Graphics/SVG/1.1/DTD/svg11.dtd">
<!-- Generated by graphviz version 14.1.2 (20260124.0452)
 -->
<!-- Title: cdc.h Pages: 1 -->
<svg width="562pt" height="84pt"
 viewBox="0.00 0.00 562.00 84.00" xmlns="http://www.w3.org/2000/svg" xmlns:xlink="http://www.w3.org/1999/xlink">
<g id="graph0" class="graph" transform="scale(1 1) rotate(0) translate(4 80)">
<title>cdc.h</title>
<!-- Node1 -->
<g id="Node000001" class="node">
<title>Node1</title>
<g id="a_Node000001"><a xlink:title=" ">
<polygon fill="#999999" stroke="#666666" points="312.12,-76 272.12,-76 272.12,-56 312.12,-56 312.12,-76"/>
<text xml:space="preserve" text-anchor="middle" x="292.12" y="-62.5" font-family="Helvetica,sans-Serif" font-size="10.00">cdc.h</text>
</a>
</g>
</g>
<!-- Node2 -->
<g id="Node000002" class="node">
<title>Node2</title>
<g id="a_Node000002"><a xlink:title=" ">
<polygon fill="#e0e0e0" stroke="#999999" points="48.25,-20 0,-20 0,0 48.25,0 48.25,-20"/>
<text xml:space="preserve" text-anchor="middle" x="24.12" y="-6.5" font-family="Helvetica,sans-Serif" font-size="10.00">stdint.h</text>
</a>
</g>
</g>
<!-- Node1&#45;&gt;Node2 -->
<g id="edge1_Node000001_Node000002" class="edge">
<title>Node1&#45;&gt;Node2</title>
<g id="a_edge1_Node000001_Node000002"><a xlink:title=" ">
<path fill="none" stroke="#63b8ff" d="M271.68,-61.56C232.6,-54.87 144.4,-39.29 59.7,-20.22"/>
<polygon fill="#63b8ff" stroke="#63b8ff" points="60.59,-16.83 50.07,-18.03 59.04,-23.66 60.59,-16.83"/>
</a>
</g>
</g>
<!-- Node3 -->
<g id="Node000003" class="node">
<title>Node3</title>
<g id="a_Node000003"><a xlink:title=" ">
<polygon fill="#e0e0e0" stroke="#999999" points="173.5,-20 66.75,-20 66.75,0 173.5,0 173.5,-20"/>
<text xml:space="preserve" text-anchor="middle" x="120.12" y="-6.5" font-family="Helvetica,sans-Serif" font-size="10.00">freertos/FreeRTOS.h</text>
</a>
</g>
</g>
<!-- Node1&#45;&gt;Node3 -->
<g id="edge2_Node000001_Node000003" class="edge">
<title>Node1&#45;&gt;Node3</title>
<g id="a_edge2_Node000001_Node000003"><a xlink:title=" ">
<path fill="none" stroke="#63b8ff" d="M271.72,-58.59C244.58,-50.07 195.98,-34.82 161.12,-23.87"/>
<polygon fill="#63b8ff" stroke="#63b8ff" points="162.36,-20.59 151.77,-20.94 160.26,-27.27 162.36,-20.59"/>
</a>
</g>
</g>
<!-- Node4 -->
<g id="Node000004" class="node">
<title>Node4</title>
<g id="a_Node000004"><a xlink:title=" ">
<polygon fill="#e0e0e0" stroke="#999999" points="284.38,-20 191.88,-20 191.88,0 284.38,0 284.38,-20"/>
<text xml:space="preserve" text-anchor="middle" x="238.12" y="-6.5" font-family="Helvetica,sans-Serif" font-size="10.00">freertos/semphr.h</text>
</a>
</g>
</g>
<!-- Node1&#45;&gt;Node4 -->
<g id="edge3_Node000001_Node000004" class="edge">
<title>Node1&#45;&gt;Node4</title>
<g id="a_edge3_Node000001_Node000004"><a xlink:title=" ">
<path fill="none" stroke="#63b8ff" d="M282.72,-55.59C275.21,-48.08 264.48,-37.35 255.43,-28.3"/>
<polygon fill="#63b8ff" stroke="#63b8ff" points="258.04,-25.96 248.49,-21.37 253.09,-30.91 258.04,-25.96"/>
</a>
</g>
</g>
<!-- Node5 -->
<g id="Node000005" class="node">
<title>Node5</title>
<g id="a_Node000005"><a xlink:title=" ">
<polygon fill="#e0e0e0" stroke="#999999" points="389.75,-20 302.5,-20 302.5,0 389.75,0 389.75,-20"/>
<text xml:space="preserve" text-anchor="middle" x="346.12" y="-6.5" font-family="Helvetica,sans-Serif" font-size="10.00">freertos/timers.h</text>
</a>
</g>
</g>
<!-- Node1&#45;&gt;Node5 -->
<g id="edge4_Node000001_Node000005" class="edge">
<title>Node1&#45;&gt;Node5</title>
<g id="a_edge4_Node000001_Node000005"><a xlink:title=" ">
<path fill="none" stroke="#63b8ff" d="M301.53,-55.59C309.04,-48.08 319.77,-37.35 328.82,-28.3"/>
<polygon fill="#63b8ff" stroke="#63b8ff" points="331.16,-30.91 335.76,-21.37 326.21,-25.96 331.16,-30.91"/>
</a>
</g>
</g>
<!-- Node6 -->
<g id="Node000006" class="node">
<title>Node6</title>
<g id="a_Node000006"><a xlink:title=" ">
<polygon fill="#e0e0e0" stroke="#999999" points="450.62,-20 407.62,-20 407.62,0 450.62,0 450.62,-20"/>
<text xml:space="preserve" text-anchor="middle" x="429.12" y="-6.5" font-family="Helvetica,sans-Serif" font-size="10.00">tusb.h</text>
</a>
</g>
</g>
<!-- Node1&#45;&gt;Node6 -->
<g id="edge5_Node000001_Node000006" class="edge">
<title>Node1&#45;&gt;Node6</title>
<g id="a_edge5_Node000001_Node000006"><a xlink:title=" ">
<path fill="none" stroke="#63b8ff" d="M312.34,-57.03C334.61,-48.25 370.75,-34.01 396.93,-23.69"/>
<polygon fill="#63b8ff" stroke="#63b8ff" points="398.04,-27.01 406.06,-20.09 395.47,-20.5 398.04,-27.01"/>
</a>
</g>
</g>
<!-- Node7 -->
<g id="Node000007" class="node">
<title>Node7</title>
<g id="a_Node000007"><a xlink:href="tinyusb__types_8h.html" target="_top" xlink:title=" ">
<polygon fill="white" stroke="#666666" points="553.62,-20 468.62,-20 468.62,0 553.62,0 553.62,-20"/>
<text xml:space="preserve" text-anchor="middle" x="511.12" y="-6.5" font-family="Helvetica,sans-Serif" font-size="10.00">tinyusb_types.h</text>
</a>
</g>
</g>
<!-- Node1&#45;&gt;Node7 -->
<g id="edge6_Node000001_Node000007" class="edge">
<title>Node1&#45;&gt;Node7</title>
<g id="a_edge6_Node000001_Node000007"><a xlink:title=" ">
<path fill="none" stroke="#63b8ff" d="M312.34,-60.02C346.06,-51.7 414.74,-34.77 461.84,-23.15"/>
<polygon fill="#63b8ff" stroke="#63b8ff" points="462.39,-26.62 471.26,-20.83 460.71,-19.83 462.39,-26.62"/>
</a>
</g>
</g>
</g>
</svg>
