<?xml version="1.0" encoding="UTF-8" standalone="no"?>
<!DOCTYPE svg PUBLIC "-//W3C//DTD SVG 1.1//EN"
 "http://www.w3.org/Graphics/SVG/1.1/DTD/svg11.dtd">
<!-- Generated by graphviz version 14.1.2 (20260124.0452)
 -->
<!-- Title: tinyusb_cdc_init Pages: 1 -->
<svg width="496pt" height="79pt"
 viewBox="0.00 0.00 496.00 79.00" xmlns="http://www.w3.org/2000/svg" xmlns:xlink="http://www.w3.org/1999/xlink">

<svg id="main" version="1.1" xmlns="http://www.w3.org/2000/svg" xmlns:xlink="http://www.w3.org/1999/xlink" xml:space="preserve">

<style type="text/css"><![CDATA[
.node, .edge {opacity: 0.7;}
.node.selected, .edge.selected {opacity: 1;}
.edge:hover path { stroke: red; }
.edge:hover polygon { stroke: red; fill: red; }
]]></style>
<script type="application/ecmascript" xlink:href="svg.min.js"/>
<svg id="graph" class="graph">
<g id="graph0" class="graph" transform="scale(1 1) rotate(0) translate(4 75.29)">
<title>tinyusb_cdc_init</title>
<!-- Node1 -->
<g id="Node000001" class="node">
<title>Node1</title>
<g id="a_Node000001"><a xlink:title="Initializing CDC basic object.">
<polygon fill="#999999" stroke="#666666" points="86.5,-58 0,-58 0,-38 86.5,-38 86.5,-58"/>
<text xml:space="preserve" text-anchor="middle" x="43.25" y="-44.5" font-family="Helvetica,sans-Serif" font-size="10.00">tinyusb_cdc_init</text>
</a>
</g>
</g>
<!-- Node2 -->
<g id="Node000002" class="node">
<title>Node2</title>
<g id="a_Node000002"><a xlink:href="cdc_8c.html#a53a3cac48508654d002fa4d573f87504" target="_top" xlink:title=" ">
<polygon fill="white" stroke="#666666" points="345.75,-58 264.5,-58 264.5,-38 345.75,-38 345.75,-58"/>
<text xml:space="preserve" text-anchor="middle" x="305.12" y="-44.5" font-family="Helvetica,sans-Serif" font-size="10.00">cdc_obj_check</text>
</a>
</g>
</g>
<!-- Node1&#45;&gt;Node2 -->
<g id="edge1_Node000001_Node000002" class="edge">
<title>Node1&#45;&gt;Node2</title>
<g id="a_edge1_Node000001_Node000002"><a xlink:title=" ">
<path fill="none" stroke="#63b8ff" d="M79.37,-58.41C92.74,-61.88 108.2,-65.29 122.5,-67 169.28,-72.6 181.75,-72.78 228.5,-67 238.55,-65.76 249.19,-63.62 259.21,-61.21"/>
<polygon fill="#63b8ff" stroke="#63b8ff" points="259.91,-64.64 268.74,-58.79 258.18,-57.86 259.91,-64.64"/>
</a>
</g>
</g>
<!-- Node4 -->
<g id="Node000004" class="node">
<title>Node4</title>
<g id="a_Node000004"><a xlink:href="cdc_8c.html#a36449a7b8addc224dc809d01cc5c887c" target="_top" xlink:title=" ">
<polygon fill="white" stroke="#666666" points="228.5,-58 122.5,-58 122.5,-38 228.5,-38 228.5,-58"/>
<text xml:space="preserve" text-anchor="middle" x="175.5" y="-44.5" font-family="Helvetica,sans-Serif" font-size="10.00">tusb_cdc_comm_init</text>
</a>
</g>
</g>
<!-- Node1&#45;&gt;Node4 -->
<g id="edge3_Node000001_Node000004" class="edge">
<title>Node1&#45;&gt;Node4</title>
<g id="a_edge3_Node000001_Node000004"><a xlink:title=" ">
<path fill="none" stroke="#63b8ff" d="M86.9,-48C94.56,-48 102.7,-48 110.81,-48"/>
<polygon fill="#63b8ff" stroke="#63b8ff" points="110.69,-51.5 120.69,-48 110.69,-44.5 110.69,-51.5"/>
</a>
</g>
</g>
<!-- Node5 -->
<g id="Node000005" class="node">
<title>Node5</title>
<g id="a_Node000005"><a xlink:href="cdc_8c.html#aab3601e6d925be67b313996c6ed6cf37" target="_top" xlink:title=" ">
<polygon fill="white" stroke="#666666" points="224.38,-20 126.62,-20 126.62,0 224.38,0 224.38,-20"/>
<text xml:space="preserve" text-anchor="middle" x="175.5" y="-6.5" font-family="Helvetica,sans-Serif" font-size="10.00">tusb_cdc_data_init</text>
</a>
</g>
</g>
<!-- Node1&#45;&gt;Node5 -->
<g id="edge5_Node000001_Node000005" class="edge">
<title>Node1&#45;&gt;Node5</title>
<g id="a_edge5_Node000001_Node000005"><a xlink:title=" ">
<path fill="none" stroke="#63b8ff" d="M80.19,-37.52C94.85,-33.24 112,-28.23 127.63,-23.67"/>
<polygon fill="#63b8ff" stroke="#63b8ff" points="128.61,-27.03 137.23,-20.87 126.65,-20.31 128.61,-27.03"/>
</a>
</g>
</g>
<!-- Node3 -->
<g id="Node000003" class="node">
<title>Node3</title>
<g id="a_Node000003"><a xlink:href="cdc_8c.html#a19af1be61f3d48fb87311dd61c06cbae" target="_top" xlink:title="Return interface of a CDC device.">
<polygon fill="white" stroke="#666666" points="487.75,-58 381.75,-58 381.75,-38 487.75,-38 487.75,-58"/>
<text xml:space="preserve" text-anchor="middle" x="434.75" y="-44.5" font-family="Helvetica,sans-Serif" font-size="10.00">tinyusb_cdc_get_intf</text>
</a>
</g>
</g>
<!-- Node2&#45;&gt;Node3 -->
<g id="edge2_Node000002_Node000003" class="edge">
<title>Node2&#45;&gt;Node3</title>
<g id="a_edge2_Node000002_Node000003"><a xlink:title=" ">
<path fill="none" stroke="#63b8ff" d="M346.16,-48C353.81,-48 361.99,-48 370.17,-48"/>
<polygon fill="#63b8ff" stroke="#63b8ff" points="370.16,-51.5 380.16,-48 370.16,-44.5 370.16,-51.5"/>
</a>
</g>
</g>
<!-- Node4&#45;&gt;Node2 -->
<g id="edge4_Node000004_Node000002" class="edge">
<title>Node4&#45;&gt;Node2</title>
<g id="a_edge4_Node000004_Node000002"><a xlink:title=" ">
<path fill="none" stroke="#63b8ff" d="M228.78,-48C236.73,-48 244.94,-48 252.87,-48"/>
<polygon fill="#63b8ff" stroke="#63b8ff" points="252.73,-51.5 262.73,-48 252.73,-44.5 252.73,-51.5"/>
</a>
</g>
</g>
<!-- Node5&#45;&gt;Node2 -->
<g id="edge6_Node000005_Node000002" class="edge">
<title>Node5&#45;&gt;Node2</title>
<g id="a_edge6_Node000005_Node000002"><a xlink:title=" ">
<path fill="none" stroke="#63b8ff" d="M211.71,-20.48C226.08,-24.76 242.89,-29.77 258.2,-34.33"/>
<polygon fill="#63b8ff" stroke="#63b8ff" points="256.99,-37.62 267.58,-37.12 258.99,-30.91 256.99,-37.62"/>
</a>
</g>
</g>
</g>
</svg>
</svg>

<style type='text/css'>
<![CDATA[
[data-mouse-over-selected='false'] { opacity: 0.7; }
[data-mouse-over-selected='true']  { opacity: 1.0; }
]]>
</style>
<script type="application/ecmascript"><![CDATA[
document.addEventListener('DOMContentLoaded', (event) => {
  highlightEdges();
  highlightAdjacentNodes();
});
]]></script>
</svg>
