<?xml version="1.0" encoding="UTF-8" standalone="no"?>
<!DOCTYPE svg PUBLIC "-//W3C//DTD SVG 1.1//EN"
 "http://www.w3.org/Graphics/SVG/1.1/DTD/svg11.dtd">
<!-- Generated by graphviz version 14.1.2 (20260124.0452)
 -->
<!-- Title: tinyusb_cdc_get_intf Pages: 1 -->
<svg width="829pt" height="776pt"
 viewBox="0.00 0.00 829.00 776.00" xmlns="http://www.w3.org/2000/svg" xmlns:xlink="http://www.w3.org/1999/xlink">
<g id="graph0" class="graph" transform="scale(1 1) rotate(0) translate(4 771.84)">
<title>tinyusb_cdc_get_intf</title>
<!-- Node1 -->
<g id="Node000001" class="node">
<title>Node1</title>
<g id="a_Node000001"><a xlink:title="Return interface of a CDC device.">
<polygon fill="#999999" stroke="#666666" points="820.5,-588 714.5,-588 714.5,-568 820.5,-568 820.5,-588"/>
<text xml:space="preserve" text-anchor="middle" x="767.5" y="-574.5" font-family="Helvetica,sans-Serif" font-size="10.00">tinyusb_cdc_get_intf</text>
</a>
</g>
</g>
<!-- Node2 -->
<g id="Node000002" class="node">
<title>Node2</title>
<g id="a_Node000002"><a xlink:href="tusb__cdc__acm_8c.html#a741ac1f2bfdd0dbf9824ff83c025ded2" target="_top" xlink:title=" ">
<polygon fill="white" stroke="#666666" points="665,-721 610.75,-721 610.75,-701 665,-701 665,-721"/>
<text xml:space="preserve" text-anchor="middle" x="637.88" y="-707.5" font-family="Helvetica,sans-Serif" font-size="10.00">alloc_obj</text>
</a>
</g>
</g>
<!-- Node1&#45;&gt;Node2 -->
<g id="edge1_Node000001_Node000002" class="edge">
<title>Node1&#45;&gt;Node2</title>
<g id="a_edge1_Node000001_Node000002"><a xlink:title=" ">
<path fill="none" stroke="#63b8ff" d="M748.53,-596.73C721.26,-625.15 670.33,-678.22 648.84,-700.61"/>
<polygon fill="#63b8ff" stroke="#63b8ff" points="751.04,-599.17 755.44,-589.53 745.99,-594.32 751.04,-599.17"/>
</a>
</g>
</g>
<!-- Node5 -->
<g id="Node000005" class="node">
<title>Node5</title>
<g id="a_Node000005"><a xlink:href="cdc_8c.html#a53a3cac48508654d002fa4d573f87504" target="_top" xlink:title=" ">
<polygon fill="white" stroke="#666666" points="678.5,-626 597.25,-626 597.25,-606 678.5,-606 678.5,-626"/>
<text xml:space="preserve" text-anchor="middle" x="637.88" y="-612.5" font-family="Helvetica,sans-Serif" font-size="10.00">cdc_obj_check</text>
</a>
</g>
</g>
<!-- Node1&#45;&gt;Node5 -->
<g id="edge4_Node000001_Node000005" class="edge">
<title>Node1&#45;&gt;Node5</title>
<g id="a_edge4_Node000001_Node000005"><a xlink:title=" ">
<path fill="none" stroke="#63b8ff" d="M720.45,-591.71C705.13,-596.27 688.33,-601.28 673.97,-605.55"/>
<polygon fill="#63b8ff" stroke="#63b8ff" points="721.25,-595.12 729.84,-588.92 719.25,-588.42 721.25,-595.12"/>
</a>
</g>
</g>
<!-- Node12 -->
<g id="Node000012" class="node">
<title>Node12</title>
<g id="a_Node000012"><a xlink:href="tusb__cdc__acm_8c.html#a7778a4c7a5f7c7f5d1324b7a8f67c682" target="_top" xlink:title=" ">
<polygon fill="white" stroke="#666666" points="663.12,-550 612.62,-550 612.62,-530 663.12,-530 663.12,-550"/>
<text xml:space="preserve" text-anchor="middle" x="637.88" y="-536.5" font-family="Helvetica,sans-Serif" font-size="10.00">free_obj</text>
</a>
</g>
</g>
<!-- Node1&#45;&gt;Node12 -->
<g id="edge17_Node000001_Node000012" class="edge">
<title>Node1&#45;&gt;Node12</title>
<g id="a_edge17_Node000001_Node000012"><a xlink:title=" ">
<path fill="none" stroke="#63b8ff" d="M720.3,-564.24C701.08,-558.52 679.56,-552.11 663.47,-547.32"/>
<polygon fill="#63b8ff" stroke="#63b8ff" points="719.25,-567.58 729.84,-567.08 721.25,-560.88 719.25,-567.58"/>
</a>
</g>
</g>
<!-- Node13 -->
<g id="Node000013" class="node">
<title>Node13</title>
<g id="a_Node000013"><a xlink:href="tusb__cdc__acm_8c.html#ab24ee802c4641898cbc524df38a75dc1" target="_top" xlink:title=" ">
<polygon fill="white" stroke="#666666" points="664.62,-272 611.12,-272 611.12,-252 664.62,-252 664.62,-272"/>
<text xml:space="preserve" text-anchor="middle" x="637.88" y="-258.5" font-family="Helvetica,sans-Serif" font-size="10.00">get_acm</text>
</a>
</g>
</g>
<!-- Node1&#45;&gt;Node13 -->
<g id="edge19_Node000001_Node000013" class="edge">
<title>Node1&#45;&gt;Node13</title>
<g id="a_edge19_Node000001_Node000013"><a xlink:title=" ">
<path fill="none" stroke="#63b8ff" d="M758.11,-557.22C733.33,-495.87 661.12,-317.09 643.03,-272.28"/>
<polygon fill="#63b8ff" stroke="#63b8ff" points="754.84,-558.48 761.83,-566.44 761.33,-555.86 754.84,-558.48"/>
</a>
</g>
</g>
<!-- Node3 -->
<g id="Node000003" class="node">
<title>Node3</title>
<g id="a_Node000003"><a xlink:href="tusb__cdc__acm_8c.html#aa240a058986c6de30a807ec424e6ab80" target="_top" xlink:title="Initialize CDC ACM. Initialization will be finished with the tud_cdc_line_state_cb callback.">
<polygon fill="white" stroke="#666666" points="209.38,-512 111.62,-512 111.62,-492 209.38,-492 209.38,-512"/>
<text xml:space="preserve" text-anchor="middle" x="160.5" y="-498.5" font-family="Helvetica,sans-Serif" font-size="10.00">tusb_cdc_acm_init</text>
</a>
</g>
</g>
<!-- Node2&#45;&gt;Node3 -->
<g id="edge2_Node000002_Node000003" class="edge">
<title>Node2&#45;&gt;Node3</title>
<g id="a_edge2_Node000002_Node000003"><a xlink:title=" ">
<path fill="none" stroke="#63b8ff" d="M611.95,-727.23C597.73,-735.53 579.2,-744.74 561.25,-749 429.94,-780.14 365.5,-779.79 263,-692 202.79,-640.42 172.69,-543.97 164.13,-512.34"/>
<polygon fill="#63b8ff" stroke="#63b8ff" points="613.46,-730.41 620.19,-722.23 609.82,-724.43 613.46,-730.41"/>
</a>
</g>
</g>
<!-- Node4 -->
<g id="Node000004" class="node">
<title>Node4</title>
<g id="a_Node000004"><a xlink:href="main_2main_8c.html#a630544a7f0a2cc40d8a7fefab7e2fe70" target="_top" xlink:title=" ">
<polygon fill="white" stroke="#666666" points="58,-403 0,-403 0,-383 58,-383 58,-403"/>
<text xml:space="preserve" text-anchor="middle" x="29" y="-389.5" font-family="Helvetica,sans-Serif" font-size="10.00">app_main</text>
</a>
</g>
</g>
<!-- Node3&#45;&gt;Node4 -->
<g id="edge3_Node000003_Node000004" class="edge">
<title>Node3&#45;&gt;Node4</title>
<g id="a_edge3_Node000003_Node000004"><a xlink:title=" ">
<path fill="none" stroke="#63b8ff" d="M138.28,-484.14C110.91,-461.1 64.22,-421.8 42.19,-403.26"/>
<polygon fill="#63b8ff" stroke="#63b8ff" points="136.02,-486.81 145.93,-490.57 140.53,-481.46 136.02,-486.81"/>
</a>
</g>
</g>
<!-- Node6 -->
<g id="Node000006" class="node">
<title>Node6</title>
<g id="a_Node000006"><a xlink:href="cdc_8c.html#a0fea5ebace85419b82be50d14552a846" target="_top" xlink:title="De&#45;initializing CDC. Clean its objects.">
<polygon fill="white" stroke="#666666" points="375,-569 278,-569 278,-549 375,-549 375,-569"/>
<text xml:space="preserve" text-anchor="middle" x="326.5" y="-555.5" font-family="Helvetica,sans-Serif" font-size="10.00">tinyusb_cdc_deinit</text>
</a>
</g>
</g>
<!-- Node5&#45;&gt;Node6 -->
<g id="edge5_Node000005_Node000006" class="edge">
<title>Node5&#45;&gt;Node6</title>
<g id="a_edge5_Node000005_Node000006"><a xlink:title=" ">
<path fill="none" stroke="#63b8ff" d="M620,-598.08C605.82,-584.42 584.23,-566.69 561.25,-559 499.68,-538.39 423.76,-543.55 375.48,-550.31"/>
<polygon fill="#63b8ff" stroke="#63b8ff" points="617.22,-600.25 626.75,-604.86 622.18,-595.31 617.22,-600.25"/>
</a>
</g>
</g>
<!-- Node7 -->
<g id="Node000007" class="node">
<title>Node7</title>
<g id="a_Node000007"><a xlink:href="cdc_8c.html#ae8ab12e178b5e70f3da27e93d8d91a90" target="_top" xlink:title="Initializing CDC basic object.">
<polygon fill="white" stroke="#666666" points="369.75,-683 283.25,-683 283.25,-663 369.75,-663 369.75,-683"/>
<text xml:space="preserve" text-anchor="middle" x="326.5" y="-669.5" font-family="Helvetica,sans-Serif" font-size="10.00">tinyusb_cdc_init</text>
</a>
</g>
</g>
<!-- Node5&#45;&gt;Node7 -->
<g id="edge7_Node000005_Node000007" class="edge">
<title>Node5&#45;&gt;Node7</title>
<g id="a_edge7_Node000005_Node000007"><a xlink:title=" ">
<path fill="none" stroke="#63b8ff" d="M620,-633.92C605.82,-647.58 584.23,-665.31 561.25,-673 497.37,-694.38 418.05,-688.03 370.17,-680.93"/>
<polygon fill="#63b8ff" stroke="#63b8ff" points="622.18,-636.69 626.75,-627.14 617.22,-631.75 622.18,-636.69"/>
</a>
</g>
</g>
<!-- Node8 -->
<g id="Node000008" class="node">
<title>Node8</title>
<g id="a_Node000008"><a xlink:href="cdc_8c.html#a36449a7b8addc224dc809d01cc5c887c" target="_top" xlink:title=" ">
<polygon fill="white" stroke="#666666" points="546.62,-664 440.62,-664 440.62,-644 546.62,-644 546.62,-664"/>
<text xml:space="preserve" text-anchor="middle" x="493.62" y="-650.5" font-family="Helvetica,sans-Serif" font-size="10.00">tusb_cdc_comm_init</text>
</a>
</g>
</g>
<!-- Node5&#45;&gt;Node8 -->
<g id="edge9_Node000005_Node000008" class="edge">
<title>Node5&#45;&gt;Node8</title>
<g id="a_edge9_Node000005_Node000008"><a xlink:title=" ">
<path fill="none" stroke="#63b8ff" d="M586.54,-629.45C569.2,-634.08 550.05,-639.19 533.74,-643.55"/>
<polygon fill="#63b8ff" stroke="#63b8ff" points="587.41,-632.84 596.17,-626.87 585.6,-626.07 587.41,-632.84"/>
</a>
</g>
</g>
<!-- Node9 -->
<g id="Node000009" class="node">
<title>Node9</title>
<g id="a_Node000009"><a xlink:href="cdc_8c.html#aab3601e6d925be67b313996c6ed6cf37" target="_top" xlink:title=" ">
<polygon fill="white" stroke="#666666" points="542.5,-740 444.75,-740 444.75,-720 542.5,-720 542.5,-740"/>
<text xml:space="preserve" text-anchor="middle" x="493.62" y="-726.5" font-family="Helvetica,sans-Serif" font-size="10.00">tusb_cdc_data_init</text>
</a>
</g>
</g>
<!-- Node5&#45;&gt;Node9 -->
<g id="edge11_Node000005_Node000009" class="edge">
<title>Node5&#45;&gt;Node9</title>
<g id="a_edge11_Node000005_Node000009"><a xlink:title=" ">
<path fill="none" stroke="#63b8ff" d="M624.69,-635.92C611.39,-656.15 588.34,-687.11 561.25,-706 553.18,-711.63 543.65,-716.08 534.36,-719.54"/>
<polygon fill="#63b8ff" stroke="#63b8ff" points="627.5,-638.03 629.92,-627.72 621.59,-634.27 627.5,-638.03"/>
</a>
</g>
</g>
<!-- Node10 -->
<g id="Node000010" class="node">
<title>Node10</title>
<g id="a_Node000010"><a xlink:href="cdc_8c.html#a4475f282177737b28e4f3c87051e10a0" target="_top" xlink:title=" ">
<polygon fill="white" stroke="#666666" points="551.88,-626 435.38,-626 435.38,-606 551.88,-606 551.88,-626"/>
<text xml:space="preserve" text-anchor="middle" x="493.62" y="-612.5" font-family="Helvetica,sans-Serif" font-size="10.00">tusb_cdc_deinit_comm</text>
</a>
</g>
</g>
<!-- Node5&#45;&gt;Node10 -->
<g id="edge13_Node000005_Node000010" class="edge">
<title>Node5&#45;&gt;Node10</title>
<g id="a_edge13_Node000005_Node000010"><a xlink:title=" ">
<path fill="none" stroke="#63b8ff" d="M585.51,-616C574.75,-616 563.34,-616 552.37,-616"/>
<polygon fill="#63b8ff" stroke="#63b8ff" points="585.36,-619.5 595.36,-616 585.36,-612.5 585.36,-619.5"/>
</a>
</g>
</g>
<!-- Node11 -->
<g id="Node000011" class="node">
<title>Node11</title>
<g id="a_Node000011"><a xlink:href="cdc_8c.html#a72a407d111850958c2a043f05798308f" target="_top" xlink:title=" ">
<polygon fill="white" stroke="#666666" points="547.75,-588 439.5,-588 439.5,-568 547.75,-568 547.75,-588"/>
<text xml:space="preserve" text-anchor="middle" x="493.62" y="-574.5" font-family="Helvetica,sans-Serif" font-size="10.00">tusb_cdc_deinit_data</text>
</a>
</g>
</g>
<!-- Node5&#45;&gt;Node11 -->
<g id="edge15_Node000005_Node000011" class="edge">
<title>Node5&#45;&gt;Node11</title>
<g id="a_edge15_Node000005_Node000011"><a xlink:title=" ">
<path fill="none" stroke="#63b8ff" d="M586.54,-602.55C569.2,-597.92 550.05,-592.81 533.74,-588.45"/>
<polygon fill="#63b8ff" stroke="#63b8ff" points="585.6,-605.93 596.17,-605.13 587.41,-599.16 585.6,-605.93"/>
</a>
</g>
</g>
<!-- Node6&#45;&gt;Node3 -->
<g id="edge6_Node000006_Node000003" class="edge">
<title>Node6&#45;&gt;Node3</title>
<g id="a_edge6_Node000006_Node000003"><a xlink:title=" ">
<path fill="none" stroke="#63b8ff" d="M284.85,-544.87C255.98,-534.84 217.85,-521.59 191.67,-512.48"/>
<polygon fill="#63b8ff" stroke="#63b8ff" points="283.4,-548.07 293.99,-548.05 285.69,-541.46 283.4,-548.07"/>
</a>
</g>
</g>
<!-- Node7&#45;&gt;Node3 -->
<g id="edge8_Node000007_Node000003" class="edge">
<title>Node7&#45;&gt;Node3</title>
<g id="a_edge8_Node000007_Node000003"><a xlink:title=" ">
<path fill="none" stroke="#63b8ff" d="M307.63,-654.37C273.11,-618.38 198.28,-540.35 171.38,-512.3"/>
<polygon fill="#63b8ff" stroke="#63b8ff" points="304.99,-656.67 314.44,-661.47 310.04,-651.83 304.99,-656.67"/>
</a>
</g>
</g>
<!-- Node8&#45;&gt;Node7 -->
<g id="edge10_Node000008_Node000007" class="edge">
<title>Node8&#45;&gt;Node7</title>
<g id="a_edge10_Node000008_Node000007"><a xlink:title=" ">
<path fill="none" stroke="#63b8ff" d="M428.97,-661.32C409.23,-663.6 387.96,-666.04 370.02,-668.11"/>
<polygon fill="#63b8ff" stroke="#63b8ff" points="429.34,-664.8 438.87,-660.18 428.54,-657.85 429.34,-664.8"/>
</a>
</g>
</g>
<!-- Node9&#45;&gt;Node7 -->
<g id="edge12_Node000009_Node000007" class="edge">
<title>Node9&#45;&gt;Node7</title>
<g id="a_edge12_Node000009_Node000007"><a xlink:title=" ">
<path fill="none" stroke="#63b8ff" d="M451.7,-715.87C422.63,-705.84 384.24,-692.59 357.87,-683.48"/>
<polygon fill="#63b8ff" stroke="#63b8ff" points="450.31,-719.1 460.91,-719.05 452.6,-712.48 450.31,-719.1"/>
</a>
</g>
</g>
<!-- Node10&#45;&gt;Node6 -->
<g id="edge14_Node000010_Node000006" class="edge">
<title>Node10&#45;&gt;Node6</title>
<g id="a_edge14_Node000010_Node000006"><a xlink:title=" ">
<path fill="none" stroke="#63b8ff" d="M442.82,-602.33C437.13,-600.61 431.42,-598.81 426,-597 400.8,-588.56 372.54,-577.49 352.78,-569.48"/>
<polygon fill="#63b8ff" stroke="#63b8ff" points="441.66,-605.64 452.24,-605.11 443.64,-598.92 441.66,-605.64"/>
</a>
</g>
</g>
<!-- Node11&#45;&gt;Node6 -->
<g id="edge16_Node000011_Node000006" class="edge">
<title>Node11&#45;&gt;Node6</title>
<g id="a_edge16_Node000011_Node000006"><a xlink:title=" ">
<path fill="none" stroke="#63b8ff" d="M427.72,-570.53C410.23,-568.52 391.64,-566.38 375.27,-564.5"/>
<polygon fill="#63b8ff" stroke="#63b8ff" points="427.18,-573.99 437.51,-571.66 427.98,-567.04 427.18,-573.99"/>
</a>
</g>
</g>
<!-- Node12&#45;&gt;Node3 -->
<g id="edge18_Node000012_Node000003" class="edge">
<title>Node12&#45;&gt;Node3</title>
<g id="a_edge18_Node000012_Node000003"><a xlink:title=" ">
<path fill="none" stroke="#63b8ff" d="M601.04,-537.14C516.6,-530.39 305.08,-513.48 209.6,-505.84"/>
<polygon fill="#63b8ff" stroke="#63b8ff" points="600.56,-540.61 610.81,-537.92 601.12,-533.63 600.56,-540.61"/>
</a>
</g>
</g>
<!-- Node13&#45;&gt;Node3 -->
<g id="edge37_Node000013_Node000003" class="edge">
<title>Node13&#45;&gt;Node3</title>
<g id="a_edge37_Node000013_Node000003"><a xlink:title=" ">
<path fill="none" stroke="#63b8ff" d="M634.14,-283.18C628.15,-320.3 610.25,-396.78 561.25,-435 507.15,-477.19 303.53,-493.98 209.56,-499.59"/>
<polygon fill="#63b8ff" stroke="#63b8ff" points="637.54,-284.11 635.52,-273.71 630.61,-283.1 637.54,-284.11"/>
</a>
</g>
</g>
<!-- Node14 -->
<g id="Node000014" class="node">
<title>Node14</title>
<g id="a_Node000014"><a xlink:href="tusb__cdc__acm_8c.html#a8be33d0f57d8df1777b2fbd5defd22ca" target="_top" xlink:title="Read a content to the array, and defines it&#39;s size to the sz_store.">
<polygon fill="white" stroke="#666666" points="549.25,-120 438,-120 438,-100 549.25,-100 549.25,-120"/>
<text xml:space="preserve" text-anchor="middle" x="493.62" y="-106.5" font-family="Helvetica,sans-Serif" font-size="10.00">tinyusb_cdcacm_read</text>
</a>
</g>
</g>
<!-- Node13&#45;&gt;Node14 -->
<g id="edge20_Node000013_Node000014" class="edge">
<title>Node13&#45;&gt;Node14</title>
<g id="a_edge20_Node000013_Node000014"><a xlink:title=" ">
<path fill="none" stroke="#63b8ff" d="M629.72,-241.16C619.06,-213.03 596.39,-163.09 561.25,-134 554.34,-128.28 545.95,-123.87 537.49,-120.49"/>
<polygon fill="#63b8ff" stroke="#63b8ff" points="626.35,-242.12 633.05,-250.33 632.93,-239.74 626.35,-242.12"/>
</a>
</g>
</g>
<!-- Node15 -->
<g id="Node000015" class="node">
<title>Node15</title>
<g id="a_Node000015"><a xlink:href="tusb__cdc__acm_8c.html#a486320904bb5b4cdc3fe0ab8ed1a6f19" target="_top" xlink:title="Register a callback invoking on CDC event. If the callback had been already registered,...">
<polygon fill="white" stroke="#666666" points="388.88,-436 264.12,-436 264.12,-404 388.88,-404 388.88,-436"/>
<text xml:space="preserve" text-anchor="start" x="272.12" y="-422.5" font-family="Helvetica,sans-Serif" font-size="10.00">tinyusb_cdcacm_register</text>
<text xml:space="preserve" text-anchor="middle" x="326.5" y="-410.5" font-family="Helvetica,sans-Serif" font-size="10.00">_callback</text>
</a>
</g>
</g>
<!-- Node13&#45;&gt;Node15 -->
<g id="edge21_Node000013_Node000015" class="edge">
<title>Node13&#45;&gt;Node15</title>
<g id="a_edge21_Node000013_Node000015"><a xlink:title=" ">
<path fill="none" stroke="#63b8ff" d="M632.66,-283.48C624.92,-316.47 605.05,-378.75 561.25,-407 510.36,-439.82 439.52,-438.84 389.2,-432.29"/>
<polygon fill="#63b8ff" stroke="#63b8ff" points="636.04,-284.4 634.73,-273.88 629.2,-282.92 636.04,-284.4"/>
</a>
</g>
</g>
<!-- Node16 -->
<g id="Node000016" class="node">
<title>Node16</title>
<g id="a_Node000016"><a xlink:href="tusb__cdc__acm_8c.html#ae0f3d93ac9658bf59720ce4edb7a2fbb" target="_top" xlink:title="Unregister a callback invoking on CDC event.">
<polygon fill="white" stroke="#666666" points="561.25,-32 426,-32 426,0 561.25,0 561.25,-32"/>
<text xml:space="preserve" text-anchor="start" x="434" y="-18.5" font-family="Helvetica,sans-Serif" font-size="10.00">tinyusb_cdcacm_unregister</text>
<text xml:space="preserve" text-anchor="middle" x="493.62" y="-6.5" font-family="Helvetica,sans-Serif" font-size="10.00">_callback</text>
</a>
</g>
</g>
<!-- Node13&#45;&gt;Node16 -->
<g id="edge23_Node000013_Node000016" class="edge">
<title>Node13&#45;&gt;Node16</title>
<g id="a_edge23_Node000013_Node000016"><a xlink:title=" ">
<path fill="none" stroke="#63b8ff" d="M635.44,-240.18C631.42,-196.53 616.42,-97.8 561.25,-41 558.07,-37.72 554.41,-34.87 550.49,-32.38"/>
<polygon fill="#63b8ff" stroke="#63b8ff" points="631.95,-240.42 636.23,-250.11 638.93,-239.87 631.95,-240.42"/>
</a>
</g>
</g>
<!-- Node17 -->
<g id="Node000017" class="node">
<title>Node17</title>
<g id="a_Node000017"><a xlink:href="tusb__cdc__acm_8c.html#ae56eee472acd5c32ac333dc551fd1a84" target="_top" xlink:title="Send all data from a write buffer. Use tinyusb_cdcacm_write_queue to add data to the buffer.">
<polygon fill="white" stroke="#666666" points="550.38,-398 436.88,-398 436.88,-366 550.38,-366 550.38,-398"/>
<text xml:space="preserve" text-anchor="start" x="444.88" y="-384.5" font-family="Helvetica,sans-Serif" font-size="10.00">tinyusb_cdcacm_write</text>
<text xml:space="preserve" text-anchor="middle" x="493.62" y="-372.5" font-family="Helvetica,sans-Serif" font-size="10.00">_flush</text>
</a>
</g>
</g>
<!-- Node13&#45;&gt;Node17 -->
<g id="edge24_Node000013_Node000017" class="edge">
<title>Node13&#45;&gt;Node17</title>
<g id="a_edge24_Node000013_Node000017"><a xlink:title=" ">
<path fill="none" stroke="#63b8ff" d="M625.49,-282.01C612.45,-303.3 589.25,-336.64 561.25,-357 556.85,-360.2 552,-363.03 546.98,-365.54"/>
<polygon fill="#63b8ff" stroke="#63b8ff" points="628.34,-284.07 630.42,-273.68 622.32,-280.5 628.34,-284.07"/>
</a>
</g>
</g>
<!-- Node20 -->
<g id="Node000020" class="node">
<title>Node20</title>
<g id="a_Node000020"><a xlink:href="tusb__cdc__acm_8c.html#a0f1bac102ae6fce8d7211062a899e4b5" target="_top" xlink:title="Write data to write buffer from a byte array.">
<polygon fill="white" stroke="#666666" points="383.25,-243 269.75,-243 269.75,-211 383.25,-211 383.25,-243"/>
<text xml:space="preserve" text-anchor="start" x="277.75" y="-229.5" font-family="Helvetica,sans-Serif" font-size="10.00">tinyusb_cdcacm_write</text>
<text xml:space="preserve" text-anchor="middle" x="326.5" y="-217.5" font-family="Helvetica,sans-Serif" font-size="10.00">_queue</text>
</a>
</g>
</g>
<!-- Node13&#45;&gt;Node20 -->
<g id="edge28_Node000013_Node000020" class="edge">
<title>Node13&#45;&gt;Node20</title>
<g id="a_edge28_Node000013_Node000020"><a xlink:title=" ">
<path fill="none" stroke="#63b8ff" d="M620,-244.08C605.82,-230.42 584.23,-212.69 561.25,-205 500.56,-184.69 426.4,-197.57 378.11,-210.56"/>
<polygon fill="#63b8ff" stroke="#63b8ff" points="617.22,-246.25 626.75,-250.86 622.18,-241.31 617.22,-246.25"/>
</a>
</g>
</g>
<!-- Node21 -->
<g id="Node000021" class="node">
<title>Node21</title>
<g id="a_Node000021"><a xlink:href="tusb__cdc__acm_8c.html#ae29627ebf56d365729a287215fe98afe" target="_top" xlink:title="Sent one character to a write buffer.">
<polygon fill="white" stroke="#666666" points="550.38,-82 436.88,-82 436.88,-50 550.38,-50 550.38,-82"/>
<text xml:space="preserve" text-anchor="start" x="444.88" y="-68.5" font-family="Helvetica,sans-Serif" font-size="10.00">tinyusb_cdcacm_write</text>
<text xml:space="preserve" text-anchor="middle" x="493.62" y="-56.5" font-family="Helvetica,sans-Serif" font-size="10.00">_queue_char</text>
</a>
</g>
</g>
<!-- Node13&#45;&gt;Node21 -->
<g id="edge30_Node000013_Node000021" class="edge">
<title>Node13&#45;&gt;Node21</title>
<g id="a_edge30_Node000013_Node000021"><a xlink:title=" ">
<path fill="none" stroke="#63b8ff" d="M632.97,-240.49C625.39,-204.67 605.38,-132.66 561.25,-91 557.84,-87.78 553.97,-84.96 549.86,-82.5"/>
<polygon fill="#63b8ff" stroke="#63b8ff" points="629.49,-240.92 634.86,-250.05 636.35,-239.56 629.49,-240.92"/>
</a>
</g>
</g>
<!-- Node25 -->
<g id="Node000025" class="node">
<title>Node25</title>
<g id="a_Node000025"><a xlink:href="tusb__cdc__acm_8c.html#a8abb48ab2de042c842086bbd8e009993" target="_top" xlink:title=" ">
<polygon fill="white" stroke="#666666" points="553.75,-348 433.5,-348 433.5,-328 553.75,-328 553.75,-348"/>
<text xml:space="preserve" text-anchor="middle" x="493.62" y="-334.5" font-family="Helvetica,sans-Serif" font-size="10.00">tud_cdc_line_coding_cb</text>
</a>
</g>
</g>
<!-- Node13&#45;&gt;Node25 -->
<g id="edge33_Node000013_Node000025" class="edge">
<title>Node13&#45;&gt;Node25</title>
<g id="a_edge33_Node000013_Node000025"><a xlink:title=" ">
<path fill="none" stroke="#63b8ff" d="M617.4,-279.89C602.86,-292.41 582.02,-308.66 561.25,-319 554.57,-322.32 547.22,-325.15 539.92,-327.53"/>
<polygon fill="#63b8ff" stroke="#63b8ff" points="619.66,-282.56 624.83,-273.32 615.03,-277.32 619.66,-282.56"/>
</a>
</g>
</g>
<!-- Node26 -->
<g id="Node000026" class="node">
<title>Node26</title>
<g id="a_Node000026"><a xlink:href="tusb__cdc__acm_8c.html#a5d9795db7d6eb1685526eb07ecf0c6e6" target="_top" xlink:title=" ">
<polygon fill="white" stroke="#666666" points="550.38,-310 436.88,-310 436.88,-290 550.38,-290 550.38,-310"/>
<text xml:space="preserve" text-anchor="middle" x="493.62" y="-296.5" font-family="Helvetica,sans-Serif" font-size="10.00">tud_cdc_line_state_cb</text>
</a>
</g>
</g>
<!-- Node13&#45;&gt;Node26 -->
<g id="edge34_Node000013_Node000026" class="edge">
<title>Node13&#45;&gt;Node26</title>
<g id="a_edge34_Node000013_Node000026"><a xlink:title=" ">
<path fill="none" stroke="#63b8ff" d="M599.76,-271.91C579.45,-277.34 554.31,-284.06 533.7,-289.56"/>
<polygon fill="#63b8ff" stroke="#63b8ff" points="600.56,-275.32 609.32,-269.36 598.76,-268.56 600.56,-275.32"/>
</a>
</g>
</g>
<!-- Node27 -->
<g id="Node000027" class="node">
<title>Node27</title>
<g id="a_Node000027"><a xlink:href="tusb__cdc__acm_8c.html#a8a10535dfe03a33af833f55b6ba33cfb" target="_top" xlink:title=" ">
<polygon fill="white" stroke="#666666" points="533.5,-272 453.75,-272 453.75,-252 533.5,-252 533.5,-272"/>
<text xml:space="preserve" text-anchor="middle" x="493.62" y="-258.5" font-family="Helvetica,sans-Serif" font-size="10.00">tud_cdc_rx_cb</text>
</a>
</g>
</g>
<!-- Node13&#45;&gt;Node27 -->
<g id="edge35_Node000013_Node000027" class="edge">
<title>Node13&#45;&gt;Node27</title>
<g id="a_edge35_Node000013_Node000027"><a xlink:title=" ">
<path fill="none" stroke="#63b8ff" d="M599.52,-262C579.35,-262 554.45,-262 533.98,-262"/>
<polygon fill="#63b8ff" stroke="#63b8ff" points="599.27,-265.5 609.27,-262 599.27,-258.5 599.27,-265.5"/>
</a>
</g>
</g>
<!-- Node28 -->
<g id="Node000028" class="node">
<title>Node28</title>
<g id="a_Node000028"><a xlink:href="tusb__cdc__acm_8c.html#a16fd5ec08a1f0a7451844464121dcee5" target="_top" xlink:title=" ">
<polygon fill="white" stroke="#666666" points="551.88,-234 435.38,-234 435.38,-214 551.88,-214 551.88,-234"/>
<text xml:space="preserve" text-anchor="middle" x="493.62" y="-220.5" font-family="Helvetica,sans-Serif" font-size="10.00">tud_cdc_rx_wanted_cb</text>
</a>
</g>
</g>
<!-- Node13&#45;&gt;Node28 -->
<g id="edge36_Node000013_Node000028" class="edge">
<title>Node13&#45;&gt;Node28</title>
<g id="a_edge36_Node000013_Node000028"><a xlink:title=" ">
<path fill="none" stroke="#63b8ff" d="M599.76,-252.09C579.45,-246.66 554.31,-239.94 533.7,-234.44"/>
<polygon fill="#63b8ff" stroke="#63b8ff" points="598.76,-255.44 609.32,-254.64 600.56,-248.68 598.76,-255.44"/>
</a>
</g>
</g>
<!-- Node29 -->
<g id="Node000029" class="node">
<title>Node29</title>
<g id="a_Node000029"><a xlink:href="tusb__cdc__acm_8c.html#a659f81b1f0fd5b43eedd4b8bca19e427" target="_top" xlink:title="Check if the ACM initialized.">
<polygon fill="white" stroke="#666666" points="389.25,-158 263.75,-158 263.75,-138 389.25,-138 389.25,-158"/>
<text xml:space="preserve" text-anchor="middle" x="326.5" y="-144.5" font-family="Helvetica,sans-Serif" font-size="10.00">tusb_cdc_acm_initialized</text>
</a>
</g>
</g>
<!-- Node13&#45;&gt;Node29 -->
<g id="edge38_Node000013_Node000029" class="edge">
<title>Node13&#45;&gt;Node29</title>
<g id="a_edge38_Node000013_Node000029"><a xlink:title=" ">
<path fill="none" stroke="#63b8ff" d="M622.23,-242.77C608.4,-226.06 586.12,-202.61 561.25,-190 507.38,-162.68 438.61,-152.87 389.64,-149.48"/>
<polygon fill="#63b8ff" stroke="#63b8ff" points="619.44,-244.88 628.41,-250.51 624.91,-240.51 619.44,-244.88"/>
</a>
</g>
</g>
<!-- Node15&#45;&gt;Node3 -->
<g id="edge22_Node000015_Node000003" class="edge">
<title>Node15&#45;&gt;Node3</title>
<g id="a_edge22_Node000015_Node000003"><a xlink:title=" ">
<path fill="none" stroke="#63b8ff" d="M280.98,-441.19C274.93,-444.13 268.8,-447.12 263,-450 234.44,-464.17 201.66,-481.08 181.26,-491.68"/>
<polygon fill="#63b8ff" stroke="#63b8ff" points="282.19,-444.5 289.67,-437 279.15,-438.19 282.19,-444.5"/>
</a>
</g>
</g>
<!-- Node18 -->
<g id="Node000018" class="node">
<title>Node18</title>
<g id="a_Node000018"><a xlink:href="main_2main_8c.html#adcd8f7518fef8e05fa85c0afaa299c3a" target="_top" xlink:title=" ">
<polygon fill="white" stroke="#666666" points="390,-351 263,-351 263,-331 390,-331 390,-351"/>
<text xml:space="preserve" text-anchor="middle" x="326.5" y="-337.5" font-family="Helvetica,sans-Serif" font-size="10.00">safe_cdcacm_write_flush</text>
</a>
</g>
</g>
<!-- Node17&#45;&gt;Node18 -->
<g id="edge25_Node000017_Node000018" class="edge">
<title>Node17&#45;&gt;Node18</title>
<g id="a_edge25_Node000017_Node000018"><a xlink:title=" ">
<path fill="none" stroke="#63b8ff" d="M425.75,-365.4C406.84,-360.7 386.79,-355.72 369.77,-351.5"/>
<polygon fill="#63b8ff" stroke="#63b8ff" points="424.7,-368.74 435.25,-367.75 426.39,-361.95 424.7,-368.74"/>
</a>
</g>
</g>
<!-- Node19 -->
<g id="Node000019" class="node">
<title>Node19</title>
<g id="a_Node000019"><a xlink:href="main_2main_8c.html#ad159bf0147cc4f5288bae8edf3a846e5" target="_top" xlink:title=" ">
<polygon fill="white" stroke="#666666" points="195.12,-294 125.88,-294 125.88,-274 195.12,-274 195.12,-294"/>
<text xml:space="preserve" text-anchor="middle" x="160.5" y="-280.5" font-family="Helvetica,sans-Serif" font-size="10.00">cdc_tx_task</text>
</a>
</g>
</g>
<!-- Node18&#45;&gt;Node19 -->
<g id="edge26_Node000018_Node000019" class="edge">
<title>Node18&#45;&gt;Node19</title>
<g id="a_edge26_Node000018_Node000019"><a xlink:title=" ">
<path fill="none" stroke="#63b8ff" d="M284.85,-326.87C255.98,-316.84 217.85,-303.59 191.67,-294.48"/>
<polygon fill="#63b8ff" stroke="#63b8ff" points="283.4,-330.07 293.99,-330.05 285.69,-323.46 283.4,-330.07"/>
</a>
</g>
</g>
<!-- Node19&#45;&gt;Node4 -->
<g id="edge27_Node000019_Node000004" class="edge">
<title>Node19&#45;&gt;Node4</title>
<g id="a_edge27_Node000019_Node000004"><a xlink:title=" ">
<path fill="none" stroke="#63b8ff" d="M138.28,-301.86C110.91,-324.9 64.22,-364.2 42.19,-382.74"/>
<polygon fill="#63b8ff" stroke="#63b8ff" points="140.53,-304.54 145.93,-295.43 136.02,-299.19 140.53,-304.54"/>
</a>
</g>
</g>
<!-- Node20&#45;&gt;Node19 -->
<g id="edge29_Node000020_Node000019" class="edge">
<title>Node20&#45;&gt;Node19</title>
<g id="a_edge29_Node000020_Node000019"><a xlink:title=" ">
<path fill="none" stroke="#63b8ff" d="M267.29,-247.23C241.58,-256.17 212.45,-266.29 191.28,-273.65"/>
<polygon fill="#63b8ff" stroke="#63b8ff" points="268.34,-250.57 276.63,-243.98 266.04,-243.96 268.34,-250.57"/>
</a>
</g>
</g>
<!-- Node22 -->
<g id="Node000022" class="node">
<title>Node22</title>
<g id="a_Node000022"><a xlink:href="vfs__tinyusb_8c.html#acd79cfbaa8662bf059523d76611a7eb7" target="_top" xlink:title=" ">
<polygon fill="white" stroke="#666666" points="357,-98 296,-98 296,-78 357,-78 357,-98"/>
<text xml:space="preserve" text-anchor="middle" x="326.5" y="-84.5" font-family="Helvetica,sans-Serif" font-size="10.00">tusb_write</text>
</a>
</g>
</g>
<!-- Node21&#45;&gt;Node22 -->
<g id="edge31_Node000021_Node000022" class="edge">
<title>Node21&#45;&gt;Node22</title>
<g id="a_edge31_Node000021_Node000022"><a xlink:title=" ">
<path fill="none" stroke="#63b8ff" d="M425.62,-74.93C401.92,-78.09 376.43,-81.48 357.38,-84.02"/>
<polygon fill="#63b8ff" stroke="#63b8ff" points="425.77,-78.44 435.22,-73.65 424.85,-71.5 425.77,-78.44"/>
</a>
</g>
</g>
<!-- Node23 -->
<g id="Node000023" class="node">
<title>Node23</title>
<g id="a_Node000023"><a xlink:href="vfs__tinyusb_8c.html#ae56dd480e9fe67841a7da40fe1a0322f" target="_top" xlink:title="Register TinyUSB CDC at VFS with path.">
<polygon fill="#fff0f0" stroke="red" points="227,-128 94,-128 94,-108 227,-108 227,-128"/>
<text xml:space="preserve" text-anchor="middle" x="160.5" y="-114.5" font-family="Helvetica,sans-Serif" font-size="10.00">esp_vfs_tusb_cdc_register</text>
</a>
</g>
</g>
<!-- Node22&#45;&gt;Node23 -->
<g id="edge32_Node000022_Node000023" class="edge">
<title>Node22&#45;&gt;Node23</title>
<g id="a_edge32_Node000022_Node000023"><a xlink:title=" ">
<path fill="none" stroke="#63b8ff" d="M284.65,-95.47C264.78,-99.11 240.55,-103.54 218.85,-107.51"/>
<polygon fill="#63b8ff" stroke="#63b8ff" points="285.11,-98.95 294.31,-93.71 283.85,-92.06 285.11,-98.95"/>
</a>
</g>
</g>
<!-- Node29&#45;&gt;Node19 -->
<g id="edge39_Node000029_Node000019" class="edge">
<title>Node29&#45;&gt;Node19</title>
<g id="a_edge39_Node000029_Node000019"><a xlink:title=" ">
<path fill="none" stroke="#63b8ff" d="M304.47,-165.44C269.83,-194.17 201.83,-250.55 173.91,-273.7"/>
<polygon fill="#63b8ff" stroke="#63b8ff" points="306.28,-168.49 311.74,-159.41 301.81,-163.1 306.28,-168.49"/>
</a>
</g>
</g>
<!-- Node29&#45;&gt;Node23 -->
<g id="edge40_Node000029_Node000023" class="edge">
<title>Node29&#45;&gt;Node23</title>
<g id="a_edge40_Node000029_Node000023"><a xlink:title=" ">
<path fill="none" stroke="#63b8ff" d="M257.1,-135.49C244.37,-133.16 231.18,-130.75 218.83,-128.49"/>
<polygon fill="#63b8ff" stroke="#63b8ff" points="256.19,-138.88 266.65,-137.24 257.44,-131.99 256.19,-138.88"/>
</a>
</g>
</g>
</g>
</svg>
