<?xml version="1.0" encoding="UTF-8" standalone="no"?>
<!DOCTYPE svg PUBLIC "-//W3C//DTD SVG 1.1//EN"
 "http://www.w3.org/Graphics/SVG/1.1/DTD/svg11.dtd">
<!-- Generated by graphviz version 14.1.2 (20260124.0452)
 -->
<!-- Title: dspm::Mat::t Pages: 1 -->
<!--zoomable 716 -->

<svg id="main" version="1.1" xmlns="http://www.w3.org/2000/svg" xmlns:xlink="http://www.w3.org/1999/xlink" xml:space="preserve" onload="init(evt)">

<style type="text/css"><![CDATA[
.node, .edge {opacity: 0.7;}
.node.selected, .edge.selected {opacity: 1;}
.edge:hover path { stroke: red; }
.edge:hover polygon { stroke: red; fill: red; }
]]></style>

<defs>
  <circle id="rim" cx="0" cy="0" r="7"/>
  <circle id="rim2" cx="0" cy="0" r="3.5"/>
  <g id="zoomPlus">
    <use xlink:href="#rim" fill="#404040"><set attributeName="fill" to="#808080" begin="zoomplus.mouseover" end="zoomplus.mouseout"/></use>
    <path d="M-4,0h8M0,-4v8" fill="none" stroke="white" stroke-width="1.5" pointer-events="none"/>
  </g>
  <g id="zoomMin">
    <use xlink:href="#rim" fill="#404040"><set attributeName="fill" to="#808080" begin="zoomminus.mouseover" end="zoomminus.mouseout"/></use>
    <path d="M-4,0h8" fill="none" stroke="white" stroke-width="1.5" pointer-events="none"/>
  </g>
  <g id="arrowUp" transform="translate(30 24)">
    <use xlink:href="#rim"/>
    <path pointer-events="none" fill="none" stroke="white" stroke-width="1.5" d="M0,-3.0v7 M-2.5,-0.5L0,-3.0L2.5,-0.5"/>
  </g>
  <g id="arrowRight" transform="rotate(90) translate(36 -43)">
    <use xlink:href="#rim"/>
    <path pointer-events="none" fill="none" stroke="white" stroke-width="1.5" d="M0,-3.0v7 M-2.5,-0.5L0,-3.0L2.5,-0.5"/>
  </g>
  <g id="arrowDown" transform="rotate(180) translate(-30 -48)">
    <use xlink:href="#rim"/>
    <path pointer-events="none" fill="none" stroke="white" stroke-width="1.5" d="M0,-3.0v7 M-2.5,-0.5L0,-3.0L2.5,-0.5"/>
  </g>
  <g id="arrowLeft" transform="rotate(270) translate(-36 17)">
    <use xlink:href="#rim"/>
    <path pointer-events="none" fill="none" stroke="white" stroke-width="1.5" d="M0,-3.0v7 M-2.5,-0.5L0,-3.0L2.5,-0.5"/>
  </g>
  <g id="resetDef">
    <use xlink:href="#rim2" fill="#404040"><set attributeName="fill" to="#808080" begin="reset.mouseover" end="reset.mouseout"/></use>
  </g>
</defs>
<script type="application/ecmascript">
var viewWidth = 572;
var viewHeight = 716;
var sectionId = 'dynsection-57';
</script>
<script type="application/ecmascript" xlink:href="svg.min.js"/>
<svg id="graph" class="graph">
<g id="viewport">
<title>dspm::Mat::t</title>
<!-- Node1 -->
<g id="Node000001" class="node">
<title>Node1</title>
<g id="a_Node000001"><a xlink:title=" ">
<polygon fill="#999999" stroke="#666666" points="564.25,-405 492.75,-405 492.75,-385 564.25,-385 564.25,-405"/>
<text xml:space="preserve" text-anchor="middle" x="528.5" y="-391.5" font-family="Helvetica,sans-Serif" font-size="10.00">dspm::Mat::t</text>
</a>
</g>
</g>
<!-- Node2 -->
<g id="Node000002" class="node">
<title>Node2</title>
<g id="a_Node000002"><a xlink:href="classekf.html#a6588ad6c3eae0d1a177b35ea75b5a4f3" target="_top" xlink:title=" ">
<polygon fill="white" stroke="#666666" points="447,-620 318.5,-620 318.5,-600 447,-600 447,-620"/>
<text xml:space="preserve" text-anchor="middle" x="382.75" y="-606.5" font-family="Helvetica,sans-Serif" font-size="10.00">ekf::CovariancePrediction</text>
</a>
</g>
</g>
<!-- Node1&#45;&gt;Node2 -->
<g id="edge1_Node000001_Node000002" class="edge">
<title>Node1&#45;&gt;Node2</title>
<g id="a_edge1_Node000001_Node000002"><a xlink:title=" ">
<path fill="none" stroke="#63b8ff" d="M525.44,-416.53C520.57,-455.52 504.89,-538.12 456.75,-585 450.22,-591.36 442.01,-596.1 433.48,-599.64"/>
<polygon fill="#63b8ff" stroke="#63b8ff" points="528.89,-417.12 526.52,-406.8 521.94,-416.35 528.89,-417.12"/>
</a>
</g>
</g>
<!-- Node4 -->
<g id="Node000004" class="node">
<title>Node4</title>
<g id="a_Node000004"><a xlink:href="classekf__imu13states.html#a7f315abd38007e57247edc0967d688f7" target="_top" xlink:title=" ">
<polygon fill="white" stroke="#666666" points="128.5,-690 0,-690 0,-670 128.5,-670 128.5,-690"/>
<text xml:space="preserve" text-anchor="middle" x="64.25" y="-676.5" font-family="Helvetica,sans-Serif" font-size="10.00">ekf_imu13states::TestFull</text>
</a>
</g>
</g>
<!-- Node1&#45;&gt;Node4 -->
<g id="edge11_Node000001_Node000004" class="edge">
<title>Node1&#45;&gt;Node4</title>
<g id="a_edge11_Node000001_Node000004"><a xlink:title=" ">
<path fill="none" stroke="#63b8ff" d="M527.04,-416.8C524.93,-462.23 513.77,-567.84 456.75,-629 365.67,-726.69 297.47,-711.61 164.5,-699 146.51,-697.29 126.93,-693.88 109.95,-690.42"/>
<polygon fill="#63b8ff" stroke="#63b8ff" points="530.54,-417.07 527.38,-406.96 523.54,-416.83 530.54,-417.07"/>
</a>
</g>
</g>
<!-- Node5 -->
<g id="Node000005" class="node">
<title>Node5</title>
<g id="a_Node000005"><a xlink:href="applications_2m5stack__core__s3_2apps_2kalman__filter_2main_23d__kalman__demo_8cpp.html#af3debef909dca35dbf0b6f842df6def3" target="_top" xlink:title="RTOS task to draw a 3d image.">
<polygon fill="white" stroke="#666666" points="272.75,-614 164.5,-614 164.5,-594 272.75,-594 272.75,-614"/>
<text xml:space="preserve" text-anchor="middle" x="218.62" y="-600.5" font-family="Helvetica,sans-Serif" font-size="10.00">draw_3d_image_task</text>
</a>
</g>
</g>
<!-- Node1&#45;&gt;Node5 -->
<g id="edge4_Node000001_Node000005" class="edge">
<title>Node1&#45;&gt;Node5</title>
<g id="a_edge4_Node000001_Node000005"><a xlink:title=" ">
<path fill="none" stroke="#63b8ff" d="M512.93,-413.97C499.68,-430.23 478.86,-453.43 456.75,-469 397.87,-510.47 364.61,-489.54 308.75,-535 287.51,-552.28 294.63,-568.53 272.75,-585 268.21,-588.42 263,-591.26 257.66,-593.61"/>
<polygon fill="#63b8ff" stroke="#63b8ff" points="515.39,-416.5 518.87,-406.49 509.91,-412.14 515.39,-416.5"/>
</a>
</g>
</g>
<!-- Node6 -->
<g id="Node000006" class="node">
<title>Node6</title>
<g id="a_Node000006"><a xlink:href="external__examples_2b00f000e_2applications_2m5stack__core__s3_2apps_2kalman__filter_2main_23d__kalman__demo_8cpp.html#af3debef909dca35dbf0b6f842df6def3" target="_top" xlink:title="RTOS task to draw a 3d image.">
<polygon fill="white" stroke="#666666" points="272.75,-576 164.5,-576 164.5,-556 272.75,-556 272.75,-576"/>
<text xml:space="preserve" text-anchor="middle" x="218.62" y="-562.5" font-family="Helvetica,sans-Serif" font-size="10.00">draw_3d_image_task</text>
</a>
</g>
</g>
<!-- Node1&#45;&gt;Node6 -->
<g id="edge5_Node000001_Node000006" class="edge">
<title>Node1&#45;&gt;Node6</title>
<g id="a_edge5_Node000001_Node000006"><a xlink:title=" ">
<path fill="none" stroke="#63b8ff" d="M486.49,-409.26C431.24,-429.03 336.6,-465.04 308.75,-489 285.75,-508.79 296.35,-527.94 272.75,-547 268.56,-550.38 263.72,-553.19 258.7,-555.51"/>
<polygon fill="#63b8ff" stroke="#63b8ff" points="487.64,-412.57 495.89,-405.92 485.29,-405.97 487.64,-412.57"/>
</a>
</g>
</g>
<!-- Node7 -->
<g id="Node000007" class="node">
<title>Node7</title>
<g id="a_Node000007"><a xlink:href="classdspm_1_1_mat.html#ac5482cf5daed6c1f7f66639913d71b39" target="_top" xlink:title="Gaussian Elimination.">
<polygon fill="white" stroke="#666666" points="456.75,-297 308.75,-297 308.75,-277 456.75,-277 456.75,-297"/>
<text xml:space="preserve" text-anchor="middle" x="382.75" y="-283.5" font-family="Helvetica,sans-Serif" font-size="10.00">dspm::Mat::gaussianEliminate</text>
</a>
</g>
</g>
<!-- Node1&#45;&gt;Node7 -->
<g id="edge6_Node000001_Node000007" class="edge">
<title>Node1&#45;&gt;Node7</title>
<g id="a_edge6_Node000001_Node000007"><a xlink:title=" ">
<path fill="none" stroke="#63b8ff" d="M504.79,-377.94C474.7,-355.33 422.56,-316.16 397.7,-297.48"/>
<polygon fill="#63b8ff" stroke="#63b8ff" points="502.41,-380.53 512.51,-383.74 506.61,-374.93 502.41,-380.53"/>
</a>
</g>
</g>
<!-- Node9 -->
<g id="Node000009" class="node">
<title>Node9</title>
<g id="a_Node000009"><a xlink:href="classekf.html#abd6f35d1ea69828aa0f757762fac9498" target="_top" xlink:title=" ">
<polygon fill="white" stroke="#666666" points="105.62,-139 22.88,-139 22.88,-119 105.62,-119 105.62,-139"/>
<text xml:space="preserve" text-anchor="middle" x="64.25" y="-125.5" font-family="Helvetica,sans-Serif" font-size="10.00">ekf::UpdateRef</text>
</a>
</g>
</g>
<!-- Node1&#45;&gt;Node9 -->
<g id="edge30_Node000001_Node000009" class="edge">
<title>Node1&#45;&gt;Node9</title>
<g id="a_edge30_Node000001_Node000009"><a xlink:title=" ">
<path fill="none" stroke="#63b8ff" d="M527.77,-373.29C527.09,-327.22 518.57,-219.41 456.75,-164 358.3,-75.75 184.62,-101.04 105.97,-118.55"/>
<polygon fill="#63b8ff" stroke="#63b8ff" points="524.27,-373.27 527.79,-383.27 531.27,-373.26 524.27,-373.27"/>
</a>
</g>
</g>
<!-- Node10 -->
<g id="Node000010" class="node">
<title>Node10</title>
<g id="a_Node000010"><a xlink:href="classdspm_1_1_mat.html#a1e7cd45e323d85d2025a9ad1d79b62f0" target="_top" xlink:title=" ">
<polygon fill="white" stroke="#666666" points="453,-205 312.5,-205 312.5,-173 453,-173 453,-205"/>
<text xml:space="preserve" text-anchor="start" x="320.5" y="-191.5" font-family="Helvetica,sans-Serif" font-size="10.00">dspm::Mat::rowReduceFrom</text>
<text xml:space="preserve" text-anchor="middle" x="382.75" y="-179.5" font-family="Helvetica,sans-Serif" font-size="10.00">Gaussian</text>
</a>
</g>
</g>
<!-- Node1&#45;&gt;Node10 -->
<g id="edge9_Node000001_Node000010" class="edge">
<title>Node1&#45;&gt;Node10</title>
<g id="a_edge9_Node000001_Node000010"><a xlink:title=" ">
<path fill="none" stroke="#63b8ff" d="M517.98,-374.52C505.53,-348.65 482.29,-303.25 456.75,-268 439.76,-244.56 416.59,-220.55 400.94,-205.24"/>
<polygon fill="#63b8ff" stroke="#63b8ff" points="514.67,-375.72 522.12,-383.26 521,-372.72 514.67,-375.72"/>
</a>
</g>
</g>
<!-- Node11 -->
<g id="Node000011" class="node">
<title>Node11</title>
<g id="a_Node000011"><a xlink:href="applications_2azure__board__apps_2graphics_23d__matrix_23d__matrix__src_2graphics__support_8cpp.html#abddf00a5f71e067190147e3ecdb49d3f" target="_top" xlink:title="update rotation matrix">
<polygon fill="white" stroke="#666666" points="440.25,-405 325.25,-405 325.25,-385 440.25,-385 440.25,-405"/>
<text xml:space="preserve" text-anchor="middle" x="382.75" y="-391.5" font-family="Helvetica,sans-Serif" font-size="10.00">update_rotation_matrix</text>
</a>
</g>
</g>
<!-- Node1&#45;&gt;Node11 -->
<g id="edge12_Node000001_Node000011" class="edge">
<title>Node1&#45;&gt;Node11</title>
<g id="a_edge12_Node000001_Node000011"><a xlink:title=" ">
<path fill="none" stroke="#63b8ff" d="M480.95,-395C468.11,-395 454.03,-395 440.67,-395"/>
<polygon fill="#63b8ff" stroke="#63b8ff" points="480.82,-398.5 490.82,-395 480.82,-391.5 480.82,-398.5"/>
</a>
</g>
</g>
<!-- Node35 -->
<g id="Node000035" class="node">
<title>Node35</title>
<g id="a_Node000035"><a xlink:href="classekf__imu13states.html#a09f6e9adfc80a65e41a6e11ffd89fc53" target="_top" xlink:title=" ">
<polygon fill="white" stroke="#666666" points="453.38,-82 312.12,-82 312.12,-50 453.38,-50 453.38,-82"/>
<text xml:space="preserve" text-anchor="start" x="320.12" y="-68.5" font-family="Helvetica,sans-Serif" font-size="10.00">ekf_imu13states::UpdateRef</text>
<text xml:space="preserve" text-anchor="middle" x="382.75" y="-56.5" font-family="Helvetica,sans-Serif" font-size="10.00">Measurement</text>
</a>
</g>
</g>
<!-- Node1&#45;&gt;Node35 -->
<g id="edge31_Node000001_Node000035" class="edge">
<title>Node1&#45;&gt;Node35</title>
<g id="a_edge31_Node000001_Node000035"><a xlink:title=" ">
<path fill="none" stroke="#63b8ff" d="M524.95,-373.28C517.33,-311.83 493.04,-138.52 456.75,-96 452.12,-90.58 446.37,-86.13 440.12,-82.47"/>
<polygon fill="#63b8ff" stroke="#63b8ff" points="521.46,-373.59 526.13,-383.1 528.41,-372.75 521.46,-373.59"/>
</a>
</g>
</g>
<!-- Node36 -->
<g id="Node000036" class="node">
<title>Node36</title>
<g id="a_Node000036"><a xlink:href="classekf__imu13states.html#a84709d79f66591f90fea7c532d73ba14" target="_top" xlink:title=" ">
<polygon fill="white" stroke="#666666" points="453.38,-576 312.12,-576 312.12,-544 453.38,-544 453.38,-576"/>
<text xml:space="preserve" text-anchor="start" x="320.12" y="-562.5" font-family="Helvetica,sans-Serif" font-size="10.00">ekf_imu13states::UpdateRef</text>
<text xml:space="preserve" text-anchor="middle" x="382.75" y="-550.5" font-family="Helvetica,sans-Serif" font-size="10.00">Measurement</text>
</a>
</g>
</g>
<!-- Node1&#45;&gt;Node36 -->
<g id="edge32_Node000001_Node000036" class="edge">
<title>Node1&#45;&gt;Node36</title>
<g id="a_edge32_Node000001_Node000036"><a xlink:title=" ">
<path fill="none" stroke="#63b8ff" d="M519.34,-415.87C508.31,-442.02 486.53,-487.02 456.75,-517 446.18,-527.64 432.44,-536.63 419.74,-543.6"/>
<polygon fill="#63b8ff" stroke="#63b8ff" points="522.54,-417.29 523.08,-406.71 516.06,-414.65 522.54,-417.29"/>
</a>
</g>
</g>
<!-- Node37 -->
<g id="Node000037" class="node">
<title>Node37</title>
<g id="a_Node000037"><a xlink:href="classekf__imu13states.html#ad56f37dbe6dece11f6ff670e478099b1" target="_top" xlink:title=" ">
<polygon fill="white" stroke="#666666" points="453.38,-32 312.12,-32 312.12,0 453.38,0 453.38,-32"/>
<text xml:space="preserve" text-anchor="start" x="320.12" y="-18.5" font-family="Helvetica,sans-Serif" font-size="10.00">ekf_imu13states::UpdateRef</text>
<text xml:space="preserve" text-anchor="middle" x="382.75" y="-6.5" font-family="Helvetica,sans-Serif" font-size="10.00">MeasurementMagn</text>
</a>
</g>
</g>
<!-- Node1&#45;&gt;Node37 -->
<g id="edge34_Node000001_Node000037" class="edge">
<title>Node1&#45;&gt;Node37</title>
<g id="a_edge34_Node000001_Node000037"><a xlink:title=" ">
<path fill="none" stroke="#63b8ff" d="M525.96,-373.35C520.63,-304.38 500.86,-91.39 456.75,-41 453.84,-37.67 450.46,-34.79 446.8,-32.29"/>
<polygon fill="#63b8ff" stroke="#63b8ff" points="522.47,-373.59 526.7,-383.3 529.45,-373.07 522.47,-373.59"/>
</a>
</g>
</g>
<!-- Node3 -->
<g id="Node000003" class="node">
<title>Node3</title>
<g id="a_Node000003"><a xlink:href="classekf.html#a42ee022dba96611bf76d0d29bf964323" target="_top" xlink:title=" ">
<polygon fill="white" stroke="#666666" points="254.38,-690 182.88,-690 182.88,-670 254.38,-670 254.38,-690"/>
<text xml:space="preserve" text-anchor="middle" x="218.62" y="-676.5" font-family="Helvetica,sans-Serif" font-size="10.00">ekf::Process</text>
</a>
</g>
</g>
<!-- Node2&#45;&gt;Node3 -->
<g id="edge2_Node000002_Node000003" class="edge">
<title>Node2&#45;&gt;Node3</title>
<g id="a_edge2_Node000002_Node000003"><a xlink:title=" ">
<path fill="none" stroke="#63b8ff" d="M347.1,-624.96C316.01,-638.38 271.17,-657.74 243.8,-669.56"/>
<polygon fill="#63b8ff" stroke="#63b8ff" points="348.3,-628.26 356.09,-621.08 345.52,-621.83 348.3,-628.26"/>
</a>
</g>
</g>
<!-- Node3&#45;&gt;Node4 -->
<g id="edge3_Node000003_Node000004" class="edge">
<title>Node3&#45;&gt;Node4</title>
<g id="a_edge3_Node000003_Node000004"><a xlink:title=" ">
<path fill="none" stroke="#63b8ff" d="M171.32,-680C157.91,-680 143.04,-680 128.78,-680"/>
<polygon fill="#63b8ff" stroke="#63b8ff" points="171.15,-683.5 181.15,-680 171.15,-676.5 171.15,-683.5"/>
</a>
</g>
</g>
<!-- Node8 -->
<g id="Node000008" class="node">
<title>Node8</title>
<g id="a_Node000008"><a xlink:href="classdspm_1_1_mat.html#a3d8be6dbfbc64fa98f08ef9ce8860a12" target="_top" xlink:title=" ">
<polygon fill="white" stroke="#666666" points="261.88,-158 175.38,-158 175.38,-138 261.88,-138 261.88,-158"/>
<text xml:space="preserve" text-anchor="middle" x="218.62" y="-144.5" font-family="Helvetica,sans-Serif" font-size="10.00">dspm::Mat::pinv</text>
</a>
</g>
</g>
<!-- Node7&#45;&gt;Node8 -->
<g id="edge7_Node000007_Node000008" class="edge">
<title>Node7&#45;&gt;Node8</title>
<g id="a_edge7_Node000007_Node000008"><a xlink:title=" ">
<path fill="none" stroke="#63b8ff" d="M362.28,-268.89C347.15,-254.5 325.93,-233.61 308.75,-214 291.41,-194.21 294.01,-182.51 272.75,-167 268.08,-163.59 262.74,-160.75 257.29,-158.39"/>
<polygon fill="#63b8ff" stroke="#63b8ff" points="359.63,-271.2 369.3,-275.51 364.43,-266.1 359.63,-271.2"/>
</a>
</g>
</g>
<!-- Node8&#45;&gt;Node9 -->
<g id="edge8_Node000008_Node000009" class="edge">
<title>Node8&#45;&gt;Node9</title>
<g id="a_edge8_Node000008_Node000009"><a xlink:title=" ">
<path fill="none" stroke="#63b8ff" d="M163.92,-141.3C144.84,-138.92 123.7,-136.29 105.89,-134.07"/>
<polygon fill="#63b8ff" stroke="#63b8ff" points="163.32,-144.76 173.68,-142.52 164.19,-137.81 163.32,-144.76"/>
</a>
</g>
</g>
<!-- Node10&#45;&gt;Node8 -->
<g id="edge10_Node000010_Node000008" class="edge">
<title>Node10&#45;&gt;Node8</title>
<g id="a_edge10_Node000010_Node000008"><a xlink:title=" ">
<path fill="none" stroke="#63b8ff" d="M305.59,-169.74C290.17,-165.84 274.52,-161.88 260.87,-158.43"/>
<polygon fill="#63b8ff" stroke="#63b8ff" points="304.72,-173.13 315.27,-172.19 306.44,-166.34 304.72,-173.13"/>
</a>
</g>
</g>
<!-- Node11&#45;&gt;Node5 -->
<g id="edge24_Node000011_Node000005" class="edge">
<title>Node11&#45;&gt;Node5</title>
<g id="a_edge24_Node000011_Node000005"><a xlink:title=" ">
<path fill="none" stroke="#63b8ff" d="M364.45,-413.7C348.35,-431.86 324.54,-460.74 308.75,-489 286.52,-528.78 305.22,-553.03 272.75,-585 269.26,-588.44 265.11,-591.26 260.68,-593.57"/>
<polygon fill="#63b8ff" stroke="#63b8ff" points="366.96,-416.14 371.06,-406.37 361.76,-411.45 366.96,-416.14"/>
</a>
</g>
</g>
<!-- Node11&#45;&gt;Node6 -->
<g id="edge27_Node000011_Node000006" class="edge">
<title>Node11&#45;&gt;Node6</title>
<g id="a_edge27_Node000011_Node000006"><a xlink:title=" ">
<path fill="none" stroke="#63b8ff" d="M330.06,-410.07C322.12,-414.21 314.62,-419.43 308.75,-426 271.37,-467.84 311.33,-506.26 272.75,-547 269.52,-550.41 265.63,-553.22 261.44,-555.51"/>
<polygon fill="#63b8ff" stroke="#63b8ff" points="331.26,-413.37 338.89,-406.02 328.34,-407.01 331.26,-413.37"/>
</a>
</g>
</g>
<!-- Node12 -->
<g id="Node000012" class="node">
<title>Node12</title>
<g id="a_Node000012"><a xlink:href="applications_2azure__board__apps_2apps_2kalman__filter_2main_2kalman__filter__demo_8cpp.html#a2955b9e77f5bd23f109feaaed1496af5" target="_top" xlink:title="Draw a 3d image.">
<polygon fill="white" stroke="#666666" points="260.75,-500 176.5,-500 176.5,-480 260.75,-480 260.75,-500"/>
<text xml:space="preserve" text-anchor="middle" x="218.62" y="-486.5" font-family="Helvetica,sans-Serif" font-size="10.00">draw_3d_image</text>
</a>
</g>
</g>
<!-- Node11&#45;&gt;Node12 -->
<g id="edge13_Node000011_Node000012" class="edge">
<title>Node11&#45;&gt;Node12</title>
<g id="a_edge13_Node000011_Node000012"><a xlink:title=" ">
<path fill="none" stroke="#63b8ff" d="M337.3,-409.73C327.39,-414.12 317.29,-419.52 308.75,-426 288.34,-441.48 293.6,-456.12 272.75,-471 268.05,-474.36 262.69,-477.18 257.23,-479.53"/>
<polygon fill="#63b8ff" stroke="#63b8ff" points="338.59,-412.99 346.51,-405.95 335.93,-406.51 338.59,-412.99"/>
</a>
</g>
</g>
<!-- Node22 -->
<g id="Node000022" class="node">
<title>Node22</title>
<g id="a_Node000022"><a xlink:href="external__examples_2b00f000e_2applications_2azure__board__apps_2apps_2kalman__filter_2main_2kalman__filter__demo_8cpp.html#a2955b9e77f5bd23f109feaaed1496af5" target="_top" xlink:title="Draw a 3d image.">
<polygon fill="white" stroke="#666666" points="260.75,-462 176.5,-462 176.5,-442 260.75,-442 260.75,-462"/>
<text xml:space="preserve" text-anchor="middle" x="218.62" y="-448.5" font-family="Helvetica,sans-Serif" font-size="10.00">draw_3d_image</text>
</a>
</g>
</g>
<!-- Node11&#45;&gt;Node22 -->
<g id="edge15_Node000011_Node000022" class="edge">
<title>Node11&#45;&gt;Node22</title>
<g id="a_edge15_Node000011_Node000022"><a xlink:title=" ">
<path fill="none" stroke="#63b8ff" d="M341.19,-409.26C312.7,-419.28 275.22,-432.46 249.45,-441.52"/>
<polygon fill="#63b8ff" stroke="#63b8ff" points="342.31,-412.58 350.59,-405.96 339.99,-405.97 342.31,-412.58"/>
</a>
</g>
</g>
<!-- Node24 -->
<g id="Node000024" class="node">
<title>Node24</title>
<g id="a_Node000024"><a xlink:href="external__examples_2d1468452_2apps_2kalman__filter_2main_2kalman__filter__demo_8cpp.html#a2955b9e77f5bd23f109feaaed1496af5" target="_top" xlink:title="Draw a 3d image.">
<polygon fill="white" stroke="#666666" points="260.75,-424 176.5,-424 176.5,-404 260.75,-404 260.75,-424"/>
<text xml:space="preserve" text-anchor="middle" x="218.62" y="-410.5" font-family="Helvetica,sans-Serif" font-size="10.00">draw_3d_image</text>
</a>
</g>
</g>
<!-- Node11&#45;&gt;Node24 -->
<g id="edge17_Node000011_Node000024" class="edge">
<title>Node11&#45;&gt;Node24</title>
<g id="a_edge17_Node000011_Node000024"><a xlink:title=" ">
<path fill="none" stroke="#63b8ff" d="M313.78,-402.97C295.94,-405.06 277.23,-407.25 261.22,-409.12"/>
<polygon fill="#63b8ff" stroke="#63b8ff" points="314.02,-406.46 323.54,-401.82 313.2,-399.51 314.02,-406.46"/>
</a>
</g>
</g>
<!-- Node26 -->
<g id="Node000026" class="node">
<title>Node26</title>
<g id="a_Node000026"><a xlink:href="external__examples_2f9c2d4b3_2azure__board__apps_2apps_2kalman__filter_2main_2kalman__filter__demo_8cpp.html#a2955b9e77f5bd23f109feaaed1496af5" target="_top" xlink:title="Draw a 3d image.">
<polygon fill="white" stroke="#666666" points="260.75,-386 176.5,-386 176.5,-366 260.75,-366 260.75,-386"/>
<text xml:space="preserve" text-anchor="middle" x="218.62" y="-372.5" font-family="Helvetica,sans-Serif" font-size="10.00">draw_3d_image</text>
</a>
</g>
</g>
<!-- Node11&#45;&gt;Node26 -->
<g id="edge19_Node000011_Node000026" class="edge">
<title>Node11&#45;&gt;Node26</title>
<g id="a_edge19_Node000011_Node000026"><a xlink:title=" ">
<path fill="none" stroke="#63b8ff" d="M313.78,-387.03C295.94,-384.94 277.23,-382.75 261.22,-380.88"/>
<polygon fill="#63b8ff" stroke="#63b8ff" points="313.2,-390.49 323.54,-388.18 314.02,-383.54 313.2,-390.49"/>
</a>
</g>
</g>
<!-- Node28 -->
<g id="Node000028" class="node">
<title>Node28</title>
<g id="a_Node000028"><a xlink:href="applications_2azure__board__apps_2apps_23d__graphics_2main_23d__graphics__demo_8cpp.html#af3debef909dca35dbf0b6f842df6def3" target="_top" xlink:title="RTOS task to draw a 3d image.">
<polygon fill="white" stroke="#666666" points="272.75,-348 164.5,-348 164.5,-328 272.75,-328 272.75,-348"/>
<text xml:space="preserve" text-anchor="middle" x="218.62" y="-334.5" font-family="Helvetica,sans-Serif" font-size="10.00">draw_3d_image_task</text>
</a>
</g>
</g>
<!-- Node11&#45;&gt;Node28 -->
<g id="edge21_Node000011_Node000028" class="edge">
<title>Node11&#45;&gt;Node28</title>
<g id="a_edge21_Node000011_Node000028"><a xlink:title=" ">
<path fill="none" stroke="#63b8ff" d="M341.19,-380.74C312.7,-370.72 275.22,-357.54 249.45,-348.48"/>
<polygon fill="#63b8ff" stroke="#63b8ff" points="339.99,-384.03 350.59,-384.04 342.31,-377.42 339.99,-384.03"/>
</a>
</g>
</g>
<!-- Node30 -->
<g id="Node000030" class="node">
<title>Node30</title>
<g id="a_Node000030"><a xlink:href="applications_2m5stack__core__s3_2apps_23d__graphics_2main_23d__graphics__demo_8cpp.html#af3debef909dca35dbf0b6f842df6def3" target="_top" xlink:title="RTOS task to draw a 3d image.">
<polygon fill="white" stroke="#666666" points="272.75,-310 164.5,-310 164.5,-290 272.75,-290 272.75,-310"/>
<text xml:space="preserve" text-anchor="middle" x="218.62" y="-296.5" font-family="Helvetica,sans-Serif" font-size="10.00">draw_3d_image_task</text>
</a>
</g>
</g>
<!-- Node11&#45;&gt;Node30 -->
<g id="edge23_Node000011_Node000030" class="edge">
<title>Node11&#45;&gt;Node30</title>
<g id="a_edge23_Node000011_Node000030"><a xlink:title=" ">
<path fill="none" stroke="#63b8ff" d="M360.58,-377.68C339.37,-360.96 305.29,-335.78 272.75,-319 266.57,-315.81 259.73,-312.93 253.07,-310.43"/>
<polygon fill="#63b8ff" stroke="#63b8ff" points="358.19,-380.25 368.19,-383.76 362.56,-374.78 358.19,-380.25"/>
</a>
</g>
</g>
<!-- Node31 -->
<g id="Node000031" class="node">
<title>Node31</title>
<g id="a_Node000031"><a xlink:href="external__examples_2b00f000e_2applications_2azure__board__apps_2apps_23d__graphics_2main_23d__graphics__demo_8cpp.html#af3debef909dca35dbf0b6f842df6def3" target="_top" xlink:title="RTOS task to draw a 3d image.">
<polygon fill="white" stroke="#666666" points="272.75,-272 164.5,-272 164.5,-252 272.75,-252 272.75,-272"/>
<text xml:space="preserve" text-anchor="middle" x="218.62" y="-258.5" font-family="Helvetica,sans-Serif" font-size="10.00">draw_3d_image_task</text>
</a>
</g>
</g>
<!-- Node11&#45;&gt;Node31 -->
<g id="edge25_Node000011_Node000031" class="edge">
<title>Node11&#45;&gt;Node31</title>
<g id="a_edge25_Node000011_Node000031"><a xlink:title=" ">
<path fill="none" stroke="#63b8ff" d="M367.67,-375.4C348.72,-350.29 312.72,-306.94 272.75,-281 267.57,-277.64 261.73,-274.78 255.85,-272.39"/>
<polygon fill="#63b8ff" stroke="#63b8ff" points="364.85,-377.46 373.6,-383.42 370.48,-373.3 364.85,-377.46"/>
</a>
</g>
</g>
<!-- Node32 -->
<g id="Node000032" class="node">
<title>Node32</title>
<g id="a_Node000032"><a xlink:href="external__examples_2b00f000e_2applications_2m5stack__core__s3_2apps_23d__graphics_2main_23d__graphics__demo_8cpp.html#af3debef909dca35dbf0b6f842df6def3" target="_top" xlink:title="RTOS task to draw a 3d image.">
<polygon fill="white" stroke="#666666" points="272.75,-234 164.5,-234 164.5,-214 272.75,-214 272.75,-234"/>
<text xml:space="preserve" text-anchor="middle" x="218.62" y="-220.5" font-family="Helvetica,sans-Serif" font-size="10.00">draw_3d_image_task</text>
</a>
</g>
</g>
<!-- Node11&#45;&gt;Node32 -->
<g id="edge26_Node000011_Node000032" class="edge">
<title>Node11&#45;&gt;Node32</title>
<g id="a_edge26_Node000011_Node000032"><a xlink:title=" ">
<path fill="none" stroke="#63b8ff" d="M365.08,-376.57C349.62,-359.05 326.41,-331.65 308.75,-306 290.46,-279.44 297.47,-263.72 272.75,-243 268.7,-239.6 263.99,-236.79 259.08,-234.47"/>
<polygon fill="#63b8ff" stroke="#63b8ff" points="362.11,-378.5 371.38,-383.63 367.34,-373.84 362.11,-378.5"/>
</a>
</g>
</g>
<!-- Node33 -->
<g id="Node000033" class="node">
<title>Node33</title>
<g id="a_Node000033"><a xlink:href="external__examples_2d1468452_2apps_23d__graphics_2main_23d__graphics__demo_8cpp.html#af3debef909dca35dbf0b6f842df6def3" target="_top" xlink:title="RTOS task to draw a 3d image.">
<polygon fill="white" stroke="#666666" points="272.75,-196 164.5,-196 164.5,-176 272.75,-176 272.75,-196"/>
<text xml:space="preserve" text-anchor="middle" x="218.62" y="-182.5" font-family="Helvetica,sans-Serif" font-size="10.00">draw_3d_image_task</text>
</a>
</g>
</g>
<!-- Node11&#45;&gt;Node33 -->
<g id="edge28_Node000011_Node000033" class="edge">
<title>Node11&#45;&gt;Node33</title>
<g id="a_edge28_Node000011_Node000033"><a xlink:title=" ">
<path fill="none" stroke="#63b8ff" d="M363.47,-376.67C347.28,-359.6 323.91,-332.81 308.75,-306 285.29,-264.52 306.43,-238.72 272.75,-205 269.29,-201.54 265.15,-198.7 260.74,-196.38"/>
<polygon fill="#63b8ff" stroke="#63b8ff" points="360.69,-378.83 370.16,-383.58 365.72,-373.96 360.69,-378.83"/>
</a>
</g>
</g>
<!-- Node34 -->
<g id="Node000034" class="node">
<title>Node34</title>
<g id="a_Node000034"><a xlink:href="external__examples_2f9c2d4b3_2azure__board__apps_2apps_23d__graphics_2main_23d__graphics__demo_8cpp.html#af3debef909dca35dbf0b6f842df6def3" target="_top" xlink:title="RTOS task to draw a 3d image.">
<polygon fill="white" stroke="#666666" points="272.75,-538 164.5,-538 164.5,-518 272.75,-518 272.75,-538"/>
<text xml:space="preserve" text-anchor="middle" x="218.62" y="-524.5" font-family="Helvetica,sans-Serif" font-size="10.00">draw_3d_image_task</text>
</a>
</g>
</g>
<!-- Node11&#45;&gt;Node34 -->
<g id="edge29_Node000011_Node000034" class="edge">
<title>Node11&#45;&gt;Node34</title>
<g id="a_edge29_Node000011_Node000034"><a xlink:title=" ">
<path fill="none" stroke="#63b8ff" d="M332.04,-410.02C323.55,-414.2 315.35,-419.45 308.75,-426 280.21,-454.32 302.1,-481.52 272.75,-509 269.1,-512.41 264.8,-515.22 260.25,-517.53"/>
<polygon fill="#63b8ff" stroke="#63b8ff" points="333.34,-413.27 341.08,-406.04 330.52,-406.86 333.34,-413.27"/>
</a>
</g>
</g>
<!-- Node13 -->
<g id="Node000013" class="node">
<title>Node13</title>
<g id="a_Node000013"><a xlink:href="applications_2azure__board__apps_2apps_2kalman__filter_2main_2kalman__filter__demo_8cpp.html#af43b34764385f3f1ad35ce1c00db220f" target="_top" xlink:title="Kalman filter RTOS task (or ESP timer callback).">
<polygon fill="#fff0f0" stroke="red" points="112,-500 16.5,-500 16.5,-480 112,-480 112,-500"/>
<text xml:space="preserve" text-anchor="middle" x="64.25" y="-486.5" font-family="Helvetica,sans-Serif" font-size="10.00">kalman_filter_task</text>
</a>
</g>
</g>
<!-- Node12&#45;&gt;Node13 -->
<g id="edge14_Node000012_Node000013" class="edge">
<title>Node12&#45;&gt;Node13</title>
<g id="a_edge14_Node000012_Node000013"><a xlink:title=" ">
<path fill="none" stroke="#63b8ff" d="M164.91,-490C147.86,-490 129.07,-490 112.44,-490"/>
<polygon fill="#63b8ff" stroke="#63b8ff" points="164.88,-493.5 174.88,-490 164.88,-486.5 164.88,-493.5"/>
</a>
</g>
</g>
<!-- Node23 -->
<g id="Node000023" class="node">
<title>Node23</title>
<g id="a_Node000023"><a xlink:href="external__examples_2b00f000e_2applications_2azure__board__apps_2apps_2kalman__filter_2main_2kalman__filter__demo_8cpp.html#af43b34764385f3f1ad35ce1c00db220f" target="_top" xlink:title="Kalman filter RTOS task (or ESP timer callback).">
<polygon fill="white" stroke="#666666" points="112,-462 16.5,-462 16.5,-442 112,-442 112,-462"/>
<text xml:space="preserve" text-anchor="middle" x="64.25" y="-448.5" font-family="Helvetica,sans-Serif" font-size="10.00">kalman_filter_task</text>
</a>
</g>
</g>
<!-- Node22&#45;&gt;Node23 -->
<g id="edge16_Node000022_Node000023" class="edge">
<title>Node22&#45;&gt;Node23</title>
<g id="a_edge16_Node000022_Node000023"><a xlink:title=" ">
<path fill="none" stroke="#63b8ff" d="M164.91,-452C147.86,-452 129.07,-452 112.44,-452"/>
<polygon fill="#63b8ff" stroke="#63b8ff" points="164.88,-455.5 174.88,-452 164.88,-448.5 164.88,-455.5"/>
</a>
</g>
</g>
<!-- Node25 -->
<g id="Node000025" class="node">
<title>Node25</title>
<g id="a_Node000025"><a xlink:href="external__examples_2d1468452_2apps_2kalman__filter_2main_2kalman__filter__demo_8cpp.html#af43b34764385f3f1ad35ce1c00db220f" target="_top" xlink:title="Kalman filter RTOS task (or ESP timer callback).">
<polygon fill="white" stroke="#666666" points="112,-424 16.5,-424 16.5,-404 112,-404 112,-424"/>
<text xml:space="preserve" text-anchor="middle" x="64.25" y="-410.5" font-family="Helvetica,sans-Serif" font-size="10.00">kalman_filter_task</text>
</a>
</g>
</g>
<!-- Node24&#45;&gt;Node25 -->
<g id="edge18_Node000024_Node000025" class="edge">
<title>Node24&#45;&gt;Node25</title>
<g id="a_edge18_Node000024_Node000025"><a xlink:title=" ">
<path fill="none" stroke="#63b8ff" d="M164.91,-414C147.86,-414 129.07,-414 112.44,-414"/>
<polygon fill="#63b8ff" stroke="#63b8ff" points="164.88,-417.5 174.88,-414 164.88,-410.5 164.88,-417.5"/>
</a>
</g>
</g>
<!-- Node27 -->
<g id="Node000027" class="node">
<title>Node27</title>
<g id="a_Node000027"><a xlink:href="external__examples_2f9c2d4b3_2azure__board__apps_2apps_2kalman__filter_2main_2kalman__filter__demo_8cpp.html#af43b34764385f3f1ad35ce1c00db220f" target="_top" xlink:title="Kalman filter RTOS task (or ESP timer callback).">
<polygon fill="white" stroke="#666666" points="112,-386 16.5,-386 16.5,-366 112,-366 112,-386"/>
<text xml:space="preserve" text-anchor="middle" x="64.25" y="-372.5" font-family="Helvetica,sans-Serif" font-size="10.00">kalman_filter_task</text>
</a>
</g>
</g>
<!-- Node26&#45;&gt;Node27 -->
<g id="edge20_Node000026_Node000027" class="edge">
<title>Node26&#45;&gt;Node27</title>
<g id="a_edge20_Node000026_Node000027"><a xlink:title=" ">
<path fill="none" stroke="#63b8ff" d="M164.91,-376C147.86,-376 129.07,-376 112.44,-376"/>
<polygon fill="#63b8ff" stroke="#63b8ff" points="164.88,-379.5 174.88,-376 164.88,-372.5 164.88,-379.5"/>
</a>
</g>
</g>
<!-- Node29 -->
<g id="Node000029" class="node">
<title>Node29</title>
<g id="a_Node000029"><a xlink:href="applications_2azure__board__apps_2apps_23d__graphics_2main_23d__graphics__demo_8cpp.html#abce06be17fc37d675118a678a8100a36" target="_top" xlink:title=" ">
<polygon fill="white" stroke="#666666" points="93.25,-348 35.25,-348 35.25,-328 93.25,-328 93.25,-348"/>
<text xml:space="preserve" text-anchor="middle" x="64.25" y="-334.5" font-family="Helvetica,sans-Serif" font-size="10.00">app_main</text>
</a>
</g>
</g>
<!-- Node28&#45;&gt;Node29 -->
<g id="edge22_Node000028_Node000029" class="edge">
<title>Node28&#45;&gt;Node29</title>
<g id="a_edge22_Node000028_Node000029"><a xlink:title=" ">
<path fill="none" stroke="#63b8ff" d="M152.95,-338C132.16,-338 110.21,-338 93.47,-338"/>
<polygon fill="#63b8ff" stroke="#63b8ff" points="152.82,-341.5 162.82,-338 152.82,-334.5 152.82,-341.5"/>
</a>
</g>
</g>
<!-- Node36&#45;&gt;Node4 -->
<g id="edge33_Node000036_Node000004" class="edge">
<title>Node36&#45;&gt;Node4</title>
<g id="a_edge33_Node000036_Node000004"><a xlink:title=" ">
<path fill="none" stroke="#63b8ff" d="M326.32,-581.25C320.24,-584.25 314.27,-587.51 308.75,-591 290.66,-602.45 291.56,-612.79 272.75,-623 245.33,-637.88 165.39,-657.61 113.11,-669.52"/>
<polygon fill="#63b8ff" stroke="#63b8ff" points="327.62,-584.51 335.21,-577.11 324.67,-578.16 327.62,-584.51"/>
</a>
</g>
</g>
</g>
</svg>

<g id="navigator" transform="translate(0 0)" fill="#404254">
  <rect fill="#f2f5e9" fill-opacity="0.5" stroke="#606060" stroke-width=".5" x="0" y="0" width="60" height="60"/>
  <use id="zoomplus" xlink:href="#zoomPlus" x="17" y="9" onmousedown="handleZoom(evt,'in')"/>
  <use id="zoomminus" xlink:href="#zoomMin" x="42" y="9" onmousedown="handleZoom(evt,'out')"/>
  <use id="reset" xlink:href="#resetDef" x="30" y="36" onmousedown="handleReset()"/>
   <use id="arrowup" xlink:href="#arrowUp" x="0" y="0" onmousedown="handlePan(0,-1)"/>
  <use id="arrowright" xlink:href="#arrowRight" x="0" y="0" onmousedown="handlePan(1,0)"/>
  <use id="arrowdown" xlink:href="#arrowDown" x="0" y="0" onmousedown="handlePan(0,1)"/>
  <use id="arrowleft" xlink:href="#arrowLeft" x="0" y="0" onmousedown="handlePan(-1,0)"/>
</g>
<svg viewBox="0 0 15 15" width="100%" height="30px" preserveAspectRatio="xMaxYMin meet">
 <g id="arrow_out" transform="scale(0.3 0.3)">
  <a xlink:href="classdspm_1_1_mat_af1013adcb6d601fba7bf788fd52d80b4_icgraph_org.svg" target="_base">
   <rect id="button" ry="5" rx="5" y="6" x="6" height="38" width="38"
        fill="#f2f5e9" fill-opacity="0.5" stroke="#606060" stroke-width="1.0"/>
   <path id="arrow"
     d="M 11.500037,31.436501 C 11.940474,20.09759 22.043105,11.32322 32.158766,21.979434 L 37.068811,17.246167 C 37.068811,17.246167 37.088388,32 37.088388,32 L 22.160133,31.978069 C 22.160133,31.978069 26.997745,27.140456 26.997745,27.140456 C 18.528582,18.264221 13.291696,25.230495 11.500037,31.436501 z"
     style="fill:#404040;"/>
  </a>
 </g>
</svg>

<style type='text/css'>
<![CDATA[
[data-mouse-over-selected='false'] { opacity: 0.7; }
[data-mouse-over-selected='true']  { opacity: 1.0; }
]]>
</style>
<script type="application/ecmascript"><![CDATA[
document.addEventListener('DOMContentLoaded', (event) => {
  highlightEdges();
  highlightAdjacentNodes();
});
]]></script>
</svg>
