<?xml version="1.0" encoding="UTF-8" standalone="no"?>
<!DOCTYPE svg PUBLIC "-//W3C//DTD SVG 1.1//EN"
 "http://www.w3.org/Graphics/SVG/1.1/DTD/svg11.dtd">
<!-- Generated by graphviz version 14.1.2 (20260124.0452)
 -->
<!-- Title: ekf::quat2rotm Pages: 1 -->
<svg width="685pt" height="463pt"
 viewBox="0.00 0.00 685.00 463.00" xmlns="http://www.w3.org/2000/svg" xmlns:xlink="http://www.w3.org/1999/xlink">
<g id="graph0" class="graph" transform="scale(1 1) rotate(0) translate(4 459)">
<title>ekf::quat2rotm</title>
<!-- Node1 -->
<g id="Node000001" class="node">
<title>Node1</title>
<g id="a_Node000001"><a xlink:title=" ">
<polygon fill="#999999" stroke="#666666" points="677,-227 598,-227 598,-207 677,-207 677,-227"/>
<text xml:space="preserve" text-anchor="middle" x="637.5" y="-213.5" font-family="Helvetica,sans-Serif" font-size="10.00">ekf::quat2rotm</text>
</a>
</g>
</g>
<!-- Node2 -->
<g id="Node000002" class="node">
<title>Node2</title>
<g id="a_Node000002"><a xlink:href="applications_2azure__board__apps_2apps_2kalman__filter_2main_2kalman__filter__demo_8cpp.html#a2955b9e77f5bd23f109feaaed1496af5" target="_top" xlink:title="Draw a 3d image.">
<polygon fill="white" stroke="#666666" points="530.88,-398 446.62,-398 446.62,-378 530.88,-378 530.88,-398"/>
<text xml:space="preserve" text-anchor="middle" x="488.75" y="-384.5" font-family="Helvetica,sans-Serif" font-size="10.00">draw_3d_image</text>
</a>
</g>
</g>
<!-- Node1&#45;&gt;Node2 -->
<g id="edge1_Node000001_Node000002" class="edge">
<title>Node1&#45;&gt;Node2</title>
<g id="a_edge1_Node000001_Node000002"><a xlink:title=" ">
<path fill="none" stroke="#63b8ff" d="M632,-238.42C623.92,-271.52 603.74,-334.83 562,-369 553.27,-376.15 542.13,-380.63 531.22,-383.44"/>
<polygon fill="#63b8ff" stroke="#63b8ff" points="635.38,-239.34 634.19,-228.81 628.56,-237.79 635.38,-239.34"/>
</a>
</g>
</g>
<!-- Node12 -->
<g id="Node000012" class="node">
<title>Node12</title>
<g id="a_Node000012"><a xlink:href="external__examples_2b00f000e_2applications_2azure__board__apps_2apps_2kalman__filter_2main_2kalman__filter__demo_8cpp.html#a2955b9e77f5bd23f109feaaed1496af5" target="_top" xlink:title="Draw a 3d image.">
<polygon fill="white" stroke="#666666" points="530.88,-360 446.62,-360 446.62,-340 530.88,-340 530.88,-360"/>
<text xml:space="preserve" text-anchor="middle" x="488.75" y="-346.5" font-family="Helvetica,sans-Serif" font-size="10.00">draw_3d_image</text>
</a>
</g>
</g>
<!-- Node1&#45;&gt;Node12 -->
<g id="edge9_Node000001_Node000012" class="edge">
<title>Node1&#45;&gt;Node12</title>
<g id="a_edge9_Node000001_Node000012"><a xlink:title=" ">
<path fill="none" stroke="#63b8ff" d="M628.47,-237.83C617.43,-263.65 595.1,-307.14 562,-331 552.95,-337.52 541.83,-341.81 531.05,-344.62"/>
<polygon fill="#63b8ff" stroke="#63b8ff" points="631.63,-239.33 632.17,-228.75 625.15,-236.69 631.63,-239.33"/>
</a>
</g>
</g>
<!-- Node14 -->
<g id="Node000014" class="node">
<title>Node14</title>
<g id="a_Node000014"><a xlink:href="external__examples_2d1468452_2apps_2kalman__filter_2main_2kalman__filter__demo_8cpp.html#a2955b9e77f5bd23f109feaaed1496af5" target="_top" xlink:title="Draw a 3d image.">
<polygon fill="white" stroke="#666666" points="530.88,-322 446.62,-322 446.62,-302 530.88,-302 530.88,-322"/>
<text xml:space="preserve" text-anchor="middle" x="488.75" y="-308.5" font-family="Helvetica,sans-Serif" font-size="10.00">draw_3d_image</text>
</a>
</g>
</g>
<!-- Node1&#45;&gt;Node14 -->
<g id="edge11_Node000001_Node000014" class="edge">
<title>Node1&#45;&gt;Node14</title>
<g id="a_edge11_Node000001_Node000014"><a xlink:title=" ">
<path fill="none" stroke="#63b8ff" d="M622.71,-236.07C609.16,-253.44 586.94,-278.51 562,-293 552.58,-298.47 541.56,-302.4 531.01,-305.21"/>
<polygon fill="#63b8ff" stroke="#63b8ff" points="625.16,-238.63 628.4,-228.54 619.58,-234.41 625.16,-238.63"/>
</a>
</g>
</g>
<!-- Node16 -->
<g id="Node000016" class="node">
<title>Node16</title>
<g id="a_Node000016"><a xlink:href="external__examples_2f9c2d4b3_2azure__board__apps_2apps_2kalman__filter_2main_2kalman__filter__demo_8cpp.html#a2955b9e77f5bd23f109feaaed1496af5" target="_top" xlink:title="Draw a 3d image.">
<polygon fill="white" stroke="#666666" points="530.88,-284 446.62,-284 446.62,-264 530.88,-264 530.88,-284"/>
<text xml:space="preserve" text-anchor="middle" x="488.75" y="-270.5" font-family="Helvetica,sans-Serif" font-size="10.00">draw_3d_image</text>
</a>
</g>
</g>
<!-- Node1&#45;&gt;Node16 -->
<g id="edge13_Node000001_Node000016" class="edge">
<title>Node1&#45;&gt;Node16</title>
<g id="a_edge13_Node000001_Node000016"><a xlink:title=" ">
<path fill="none" stroke="#63b8ff" d="M608.83,-232.91C595.07,-240.35 578,-248.9 562,-255 552.18,-258.74 541.35,-262.02 531.12,-264.75"/>
<polygon fill="#63b8ff" stroke="#63b8ff" points="610.25,-236.13 617.3,-228.23 606.86,-230 610.25,-236.13"/>
</a>
</g>
</g>
<!-- Node18 -->
<g id="Node000018" class="node">
<title>Node18</title>
<g id="a_Node000018"><a xlink:href="applications_2m5stack__core__s3_2apps_2kalman__filter_2main_23d__kalman__demo_8cpp.html#af3debef909dca35dbf0b6f842df6def3" target="_top" xlink:title="RTOS task to draw a 3d image.">
<polygon fill="white" stroke="#666666" points="542.88,-246 434.62,-246 434.62,-226 542.88,-226 542.88,-246"/>
<text xml:space="preserve" text-anchor="middle" x="488.75" y="-232.5" font-family="Helvetica,sans-Serif" font-size="10.00">draw_3d_image_task</text>
</a>
</g>
</g>
<!-- Node1&#45;&gt;Node18 -->
<g id="edge15_Node000001_Node000018" class="edge">
<title>Node1&#45;&gt;Node18</title>
<g id="a_edge15_Node000001_Node000018"><a xlink:title=" ">
<path fill="none" stroke="#63b8ff" d="M586.25,-223.51C572.38,-225.3 557.28,-227.26 543.24,-229.07"/>
<polygon fill="#63b8ff" stroke="#63b8ff" points="586.59,-226.99 596.06,-222.24 585.69,-220.05 586.59,-226.99"/>
</a>
</g>
</g>
<!-- Node19 -->
<g id="Node000019" class="node">
<title>Node19</title>
<g id="a_Node000019"><a xlink:href="external__examples_2b00f000e_2applications_2m5stack__core__s3_2apps_2kalman__filter_2main_23d__kalman__demo_8cpp.html#af3debef909dca35dbf0b6f842df6def3" target="_top" xlink:title="RTOS task to draw a 3d image.">
<polygon fill="white" stroke="#666666" points="542.88,-208 434.62,-208 434.62,-188 542.88,-188 542.88,-208"/>
<text xml:space="preserve" text-anchor="middle" x="488.75" y="-194.5" font-family="Helvetica,sans-Serif" font-size="10.00">draw_3d_image_task</text>
</a>
</g>
</g>
<!-- Node1&#45;&gt;Node19 -->
<g id="edge16_Node000001_Node000019" class="edge">
<title>Node1&#45;&gt;Node19</title>
<g id="a_edge16_Node000001_Node000019"><a xlink:title=" ">
<path fill="none" stroke="#63b8ff" d="M586.25,-210.49C572.38,-208.7 557.28,-206.74 543.24,-204.93"/>
<polygon fill="#63b8ff" stroke="#63b8ff" points="585.69,-213.95 596.06,-211.76 586.59,-207.01 585.69,-213.95"/>
</a>
</g>
</g>
<!-- Node20 -->
<g id="Node000020" class="node">
<title>Node20</title>
<g id="a_Node000020"><a xlink:href="classekf__imu13states.html#aa45e9518c23a0fb627e9018d75195008" target="_top" xlink:title=" ">
<polygon fill="white" stroke="#666666" points="562,-170 415.5,-170 415.5,-150 562,-150 562,-170"/>
<text xml:space="preserve" text-anchor="middle" x="488.75" y="-156.5" font-family="Helvetica,sans-Serif" font-size="10.00">ekf_imu13states::LinearizeFG</text>
</a>
</g>
</g>
<!-- Node1&#45;&gt;Node20 -->
<g id="edge17_Node000001_Node000020" class="edge">
<title>Node1&#45;&gt;Node20</title>
<g id="a_edge17_Node000001_Node000020"><a xlink:title=" ">
<path fill="none" stroke="#63b8ff" d="M608.83,-201.09C595.07,-193.65 578,-185.1 562,-179 553.64,-175.81 544.54,-172.96 535.7,-170.5"/>
<polygon fill="#63b8ff" stroke="#63b8ff" points="606.86,-204 617.3,-205.77 610.25,-197.87 606.86,-204"/>
</a>
</g>
</g>
<!-- Node21 -->
<g id="Node000021" class="node">
<title>Node21</title>
<g id="a_Node000021"><a xlink:href="classekf__imu13states.html#a09f6e9adfc80a65e41a6e11ffd89fc53" target="_top" xlink:title=" ">
<polygon fill="white" stroke="#666666" points="559.38,-132 418.12,-132 418.12,-100 559.38,-100 559.38,-132"/>
<text xml:space="preserve" text-anchor="start" x="426.12" y="-118.5" font-family="Helvetica,sans-Serif" font-size="10.00">ekf_imu13states::UpdateRef</text>
<text xml:space="preserve" text-anchor="middle" x="488.75" y="-106.5" font-family="Helvetica,sans-Serif" font-size="10.00">Measurement</text>
</a>
</g>
</g>
<!-- Node1&#45;&gt;Node21 -->
<g id="edge18_Node000001_Node000021" class="edge">
<title>Node1&#45;&gt;Node21</title>
<g id="a_edge18_Node000001_Node000021"><a xlink:title=" ">
<path fill="none" stroke="#63b8ff" d="M622.23,-198.08C608.48,-181.03 586.24,-156.34 562,-141 556.95,-137.81 551.45,-134.96 545.8,-132.44"/>
<polygon fill="#63b8ff" stroke="#63b8ff" points="619.1,-199.76 628.02,-205.47 624.61,-195.44 619.1,-199.76"/>
</a>
</g>
</g>
<!-- Node22 -->
<g id="Node000022" class="node">
<title>Node22</title>
<g id="a_Node000022"><a xlink:href="classekf__imu13states.html#a84709d79f66591f90fea7c532d73ba14" target="_top" xlink:title=" ">
<polygon fill="white" stroke="#666666" points="559.38,-82 418.12,-82 418.12,-50 559.38,-50 559.38,-82"/>
<text xml:space="preserve" text-anchor="start" x="426.12" y="-68.5" font-family="Helvetica,sans-Serif" font-size="10.00">ekf_imu13states::UpdateRef</text>
<text xml:space="preserve" text-anchor="middle" x="488.75" y="-56.5" font-family="Helvetica,sans-Serif" font-size="10.00">Measurement</text>
</a>
</g>
</g>
<!-- Node1&#45;&gt;Node22 -->
<g id="edge19_Node000001_Node000022" class="edge">
<title>Node1&#45;&gt;Node22</title>
<g id="a_edge19_Node000001_Node000022"><a xlink:title=" ">
<path fill="none" stroke="#63b8ff" d="M629.35,-196.01C618.83,-168.17 596.61,-119.28 562,-91 557.99,-87.73 553.53,-84.87 548.84,-82.38"/>
<polygon fill="#63b8ff" stroke="#63b8ff" points="625.94,-196.88 632.63,-205.1 632.53,-194.51 625.94,-196.88"/>
</a>
</g>
</g>
<!-- Node24 -->
<g id="Node000024" class="node">
<title>Node24</title>
<g id="a_Node000024"><a xlink:href="classekf__imu13states.html#ad56f37dbe6dece11f6ff670e478099b1" target="_top" xlink:title=" ">
<polygon fill="white" stroke="#666666" points="559.38,-32 418.12,-32 418.12,0 559.38,0 559.38,-32"/>
<text xml:space="preserve" text-anchor="start" x="426.12" y="-18.5" font-family="Helvetica,sans-Serif" font-size="10.00">ekf_imu13states::UpdateRef</text>
<text xml:space="preserve" text-anchor="middle" x="488.75" y="-6.5" font-family="Helvetica,sans-Serif" font-size="10.00">MeasurementMagn</text>
</a>
</g>
</g>
<!-- Node1&#45;&gt;Node24 -->
<g id="edge21_Node000001_Node000024" class="edge">
<title>Node1&#45;&gt;Node24</title>
<g id="a_edge21_Node000001_Node000024"><a xlink:title=" ">
<path fill="none" stroke="#63b8ff" d="M633.15,-195.27C626.36,-158.43 607.53,-83.57 562,-41 558.51,-37.74 554.57,-34.9 550.38,-32.43"/>
<polygon fill="#63b8ff" stroke="#63b8ff" points="629.7,-195.84 634.82,-205.11 636.6,-194.67 629.7,-195.84"/>
</a>
</g>
</g>
<!-- Node3 -->
<g id="Node000003" class="node">
<title>Node3</title>
<g id="a_Node000003"><a xlink:href="applications_2azure__board__apps_2apps_2kalman__filter_2main_2kalman__filter__demo_8cpp.html#af43b34764385f3f1ad35ce1c00db220f" target="_top" xlink:title="Kalman filter RTOS task (or ESP timer callback).">
<polygon fill="white" stroke="#666666" points="363,-398 267.5,-398 267.5,-378 363,-378 363,-398"/>
<text xml:space="preserve" text-anchor="middle" x="315.25" y="-384.5" font-family="Helvetica,sans-Serif" font-size="10.00">kalman_filter_task</text>
</a>
</g>
</g>
<!-- Node2&#45;&gt;Node3 -->
<g id="edge2_Node000002_Node000003" class="edge">
<title>Node2&#45;&gt;Node3</title>
<g id="a_edge2_Node000002_Node000003"><a xlink:title=" ">
<path fill="none" stroke="#63b8ff" d="M435.01,-388C412.16,-388 385.63,-388 363.44,-388"/>
<polygon fill="#63b8ff" stroke="#63b8ff" points="434.72,-391.5 444.72,-388 434.72,-384.5 434.72,-391.5"/>
</a>
</g>
</g>
<!-- Node4 -->
<g id="Node000004" class="node">
<title>Node4</title>
<g id="a_Node000004"><a xlink:href="applications_2azure__board__apps_2apps_2kalman__filter_2main_2kalman__filter__demo_8cpp.html#abce06be17fc37d675118a678a8100a36" target="_top" xlink:title=" ">
<polygon fill="white" stroke="#666666" points="58,-455 0,-455 0,-435 58,-435 58,-455"/>
<text xml:space="preserve" text-anchor="middle" x="29" y="-441.5" font-family="Helvetica,sans-Serif" font-size="10.00">app_main</text>
</a>
</g>
</g>
<!-- Node3&#45;&gt;Node4 -->
<g id="edge3_Node000003_Node000004" class="edge">
<title>Node3&#45;&gt;Node4</title>
<g id="a_edge3_Node000003_Node000004"><a xlink:title=" ">
<path fill="none" stroke="#63b8ff" d="M292.38,-405.07C273.21,-418.89 243.94,-437.28 215,-445 161.16,-459.36 95.32,-454.26 58.48,-449.47"/>
<polygon fill="#63b8ff" stroke="#63b8ff" points="294.28,-408.02 300.22,-399.25 290.11,-402.4 294.28,-408.02"/>
</a>
</g>
</g>
<!-- Node5 -->
<g id="Node000005" class="node">
<title>Node5</title>
<g id="a_Node000005"><a xlink:href="applications_2azure__board__apps_2apps_2kalman__filter_2main_2kalman__filter__demo_8cpp.html#a1967e917dafd16b5f02410c5b10c1d90" target="_top" xlink:title="Kalman filter calibration procedure.">
<polygon fill="white" stroke="#666666" points="215,-436 94,-436 94,-416 215,-416 215,-436"/>
<text xml:space="preserve" text-anchor="middle" x="154.5" y="-422.5" font-family="Helvetica,sans-Serif" font-size="10.00">kalman_filter_calibration</text>
</a>
</g>
</g>
<!-- Node3&#45;&gt;Node5 -->
<g id="edge4_Node000003_Node000005" class="edge">
<title>Node3&#45;&gt;Node5</title>
<g id="a_edge4_Node000003_Node000005"><a xlink:title=" ">
<path fill="none" stroke="#63b8ff" d="M259.46,-401.12C239.75,-405.83 217.79,-411.09 199.16,-415.55"/>
<polygon fill="#63b8ff" stroke="#63b8ff" points="260.07,-404.57 268.98,-398.84 258.44,-397.76 260.07,-404.57"/>
</a>
</g>
</g>
<!-- Node6 -->
<g id="Node000006" class="node">
<title>Node6</title>
<g id="a_Node000006"><a xlink:href="external__examples_2b00f000e_2applications_2azure__board__apps_2apps_2kalman__filter_2main_2kalman__filter__demo_8cpp.html#a1967e917dafd16b5f02410c5b10c1d90" target="_top" xlink:title="Kalman filter calibration procedure.">
<polygon fill="#fff0f0" stroke="red" points="215,-398 94,-398 94,-378 215,-378 215,-398"/>
<text xml:space="preserve" text-anchor="middle" x="154.5" y="-384.5" font-family="Helvetica,sans-Serif" font-size="10.00">kalman_filter_calibration</text>
</a>
</g>
</g>
<!-- Node3&#45;&gt;Node6 -->
<g id="edge6_Node000003_Node000006" class="edge">
<title>Node3&#45;&gt;Node6</title>
<g id="a_edge6_Node000003_Node000006"><a xlink:title=" ">
<path fill="none" stroke="#63b8ff" d="M255.76,-388C242.63,-388 228.69,-388 215.5,-388"/>
<polygon fill="#63b8ff" stroke="#63b8ff" points="255.54,-391.5 265.54,-388 255.54,-384.5 255.54,-391.5"/>
</a>
</g>
</g>
<!-- Node8 -->
<g id="Node000008" class="node">
<title>Node8</title>
<g id="a_Node000008"><a xlink:href="external__examples_2d1468452_2apps_2kalman__filter_2main_2kalman__filter__demo_8cpp.html#a1967e917dafd16b5f02410c5b10c1d90" target="_top" xlink:title="Kalman filter calibration procedure.">
<polygon fill="#fff0f0" stroke="red" points="215,-360 94,-360 94,-340 215,-340 215,-360"/>
<text xml:space="preserve" text-anchor="middle" x="154.5" y="-346.5" font-family="Helvetica,sans-Serif" font-size="10.00">kalman_filter_calibration</text>
</a>
</g>
</g>
<!-- Node3&#45;&gt;Node8 -->
<g id="edge7_Node000003_Node000008" class="edge">
<title>Node3&#45;&gt;Node8</title>
<g id="a_edge7_Node000003_Node000008"><a xlink:title=" ">
<path fill="none" stroke="#63b8ff" d="M259.46,-374.88C239.75,-370.17 217.79,-364.91 199.16,-360.45"/>
<polygon fill="#63b8ff" stroke="#63b8ff" points="258.44,-378.24 268.98,-377.16 260.07,-371.43 258.44,-378.24"/>
</a>
</g>
</g>
<!-- Node10 -->
<g id="Node000010" class="node">
<title>Node10</title>
<g id="a_Node000010"><a xlink:href="external__examples_2f9c2d4b3_2azure__board__apps_2apps_2kalman__filter_2main_2kalman__filter__demo_8cpp.html#a1967e917dafd16b5f02410c5b10c1d90" target="_top" xlink:title="Kalman filter calibration procedure.">
<polygon fill="#fff0f0" stroke="red" points="215,-322 94,-322 94,-302 215,-302 215,-322"/>
<text xml:space="preserve" text-anchor="middle" x="154.5" y="-308.5" font-family="Helvetica,sans-Serif" font-size="10.00">kalman_filter_calibration</text>
</a>
</g>
</g>
<!-- Node3&#45;&gt;Node10 -->
<g id="edge8_Node000003_Node000010" class="edge">
<title>Node3&#45;&gt;Node10</title>
<g id="a_edge8_Node000003_Node000010"><a xlink:title=" ">
<path fill="none" stroke="#63b8ff" d="M258.63,-373.17C255.99,-371.89 253.43,-370.5 251,-369 231.19,-356.8 234.7,-343.37 215,-331 209.58,-327.6 203.5,-324.75 197.35,-322.39"/>
<polygon fill="#63b8ff" stroke="#63b8ff" points="257.13,-376.34 267.7,-377.03 259.87,-369.89 257.13,-376.34"/>
</a>
</g>
</g>
<!-- Node5&#45;&gt;Node4 -->
<g id="edge5_Node000005_Node000004" class="edge">
<title>Node5&#45;&gt;Node4</title>
<g id="a_edge5_Node000005_Node000004"><a xlink:title=" ">
<path fill="none" stroke="#63b8ff" d="M82.35,-436.95C73.89,-438.25 65.67,-439.51 58.35,-440.64"/>
<polygon fill="#63b8ff" stroke="#63b8ff" points="82.71,-440.43 92.06,-435.45 81.65,-433.51 82.71,-440.43"/>
</a>
</g>
</g>
<!-- Node13 -->
<g id="Node000013" class="node">
<title>Node13</title>
<g id="a_Node000013"><a xlink:href="external__examples_2b00f000e_2applications_2azure__board__apps_2apps_2kalman__filter_2main_2kalman__filter__demo_8cpp.html#af43b34764385f3f1ad35ce1c00db220f" target="_top" xlink:title="Kalman filter RTOS task (or ESP timer callback).">
<polygon fill="white" stroke="#666666" points="363,-360 267.5,-360 267.5,-340 363,-340 363,-360"/>
<text xml:space="preserve" text-anchor="middle" x="315.25" y="-346.5" font-family="Helvetica,sans-Serif" font-size="10.00">kalman_filter_task</text>
</a>
</g>
</g>
<!-- Node12&#45;&gt;Node13 -->
<g id="edge10_Node000012_Node000013" class="edge">
<title>Node12&#45;&gt;Node13</title>
<g id="a_edge10_Node000012_Node000013"><a xlink:title=" ">
<path fill="none" stroke="#63b8ff" d="M435.01,-350C412.16,-350 385.63,-350 363.44,-350"/>
<polygon fill="#63b8ff" stroke="#63b8ff" points="434.72,-353.5 444.72,-350 434.72,-346.5 434.72,-353.5"/>
</a>
</g>
</g>
<!-- Node15 -->
<g id="Node000015" class="node">
<title>Node15</title>
<g id="a_Node000015"><a xlink:href="external__examples_2d1468452_2apps_2kalman__filter_2main_2kalman__filter__demo_8cpp.html#af43b34764385f3f1ad35ce1c00db220f" target="_top" xlink:title="Kalman filter RTOS task (or ESP timer callback).">
<polygon fill="white" stroke="#666666" points="363,-322 267.5,-322 267.5,-302 363,-302 363,-322"/>
<text xml:space="preserve" text-anchor="middle" x="315.25" y="-308.5" font-family="Helvetica,sans-Serif" font-size="10.00">kalman_filter_task</text>
</a>
</g>
</g>
<!-- Node14&#45;&gt;Node15 -->
<g id="edge12_Node000014_Node000015" class="edge">
<title>Node14&#45;&gt;Node15</title>
<g id="a_edge12_Node000014_Node000015"><a xlink:title=" ">
<path fill="none" stroke="#63b8ff" d="M435.01,-312C412.16,-312 385.63,-312 363.44,-312"/>
<polygon fill="#63b8ff" stroke="#63b8ff" points="434.72,-315.5 444.72,-312 434.72,-308.5 434.72,-315.5"/>
</a>
</g>
</g>
<!-- Node17 -->
<g id="Node000017" class="node">
<title>Node17</title>
<g id="a_Node000017"><a xlink:href="external__examples_2f9c2d4b3_2azure__board__apps_2apps_2kalman__filter_2main_2kalman__filter__demo_8cpp.html#af43b34764385f3f1ad35ce1c00db220f" target="_top" xlink:title="Kalman filter RTOS task (or ESP timer callback).">
<polygon fill="white" stroke="#666666" points="363,-284 267.5,-284 267.5,-264 363,-264 363,-284"/>
<text xml:space="preserve" text-anchor="middle" x="315.25" y="-270.5" font-family="Helvetica,sans-Serif" font-size="10.00">kalman_filter_task</text>
</a>
</g>
</g>
<!-- Node16&#45;&gt;Node17 -->
<g id="edge14_Node000016_Node000017" class="edge">
<title>Node16&#45;&gt;Node17</title>
<g id="a_edge14_Node000016_Node000017"><a xlink:title=" ">
<path fill="none" stroke="#63b8ff" d="M435.01,-274C412.16,-274 385.63,-274 363.44,-274"/>
<polygon fill="#63b8ff" stroke="#63b8ff" points="434.72,-277.5 444.72,-274 434.72,-270.5 434.72,-277.5"/>
</a>
</g>
</g>
<!-- Node23 -->
<g id="Node000023" class="node">
<title>Node23</title>
<g id="a_Node000023"><a xlink:href="classekf__imu13states.html#a7f315abd38007e57247edc0967d688f7" target="_top" xlink:title=" ">
<polygon fill="white" stroke="#666666" points="379.5,-76 251,-76 251,-56 379.5,-56 379.5,-76"/>
<text xml:space="preserve" text-anchor="middle" x="315.25" y="-62.5" font-family="Helvetica,sans-Serif" font-size="10.00">ekf_imu13states::TestFull</text>
</a>
</g>
</g>
<!-- Node22&#45;&gt;Node23 -->
<g id="edge20_Node000022_Node000023" class="edge">
<title>Node22&#45;&gt;Node23</title>
<g id="a_edge20_Node000022_Node000023"><a xlink:title=" ">
<path fill="none" stroke="#63b8ff" d="M406.67,-66C397.67,-66 388.6,-66 379.87,-66"/>
<polygon fill="#63b8ff" stroke="#63b8ff" points="406.48,-69.5 416.48,-66 406.48,-62.5 406.48,-69.5"/>
</a>
</g>
</g>
</g>
</svg>
