<?xml version="1.0" encoding="UTF-8" standalone="no"?>
<!DOCTYPE svg PUBLIC "-//W3C//DTD SVG 1.1//EN"
 "http://www.w3.org/Graphics/SVG/1.1/DTD/svg11.dtd">
<!-- Generated by graphviz version 14.1.2 (20260124.0452)
 -->
<!-- Title: ekf_imu13states::StateXdot Pages: 1 -->
<svg width="537pt" height="66pt"
 viewBox="0.00 0.00 537.00 66.00" xmlns="http://www.w3.org/2000/svg" xmlns:xlink="http://www.w3.org/1999/xlink">
<g id="graph0" class="graph" transform="scale(1 1) rotate(0) translate(4 62)">
<title>ekf_imu13states::StateXdot</title>
<!-- Node1 -->
<g id="Node000001" class="node">
<title>Node1</title>
<g id="a_Node000001"><a xlink:title=" ">
<polygon fill="#999999" stroke="#666666" points="137.5,-39 0,-39 0,-19 137.5,-19 137.5,-39"/>
<text xml:space="preserve" text-anchor="middle" x="68.75" y="-25.5" font-family="Helvetica,sans-Serif" font-size="10.00">ekf_imu13states::StateXdot</text>
</a>
</g>
</g>
<!-- Node2 -->
<g id="Node000002" class="node">
<title>Node2</title>
<g id="a_Node000002"><a xlink:href="classdspm_1_1_mat.html#a9b11a8f5022e6c54b212bf9af880b670" target="_top" xlink:title=" ">
<polygon fill="white" stroke="#666666" points="267.5,-58 175.75,-58 175.75,-38 267.5,-38 267.5,-58"/>
<text xml:space="preserve" text-anchor="middle" x="221.62" y="-44.5" font-family="Helvetica,sans-Serif" font-size="10.00">dspm::Mat::Copy</text>
</a>
</g>
</g>
<!-- Node1&#45;&gt;Node2 -->
<g id="edge1_Node000001_Node000002" class="edge">
<title>Node1&#45;&gt;Node2</title>
<g id="a_edge1_Node000001_Node000002"><a xlink:title=" ">
<path fill="none" stroke="#63b8ff" d="M137.68,-37.56C146.6,-38.68 155.66,-39.82 164.36,-40.91"/>
<polygon fill="#63b8ff" stroke="#63b8ff" points="163.68,-44.36 174.04,-42.13 164.55,-37.41 163.68,-44.36"/>
</a>
</g>
</g>
<!-- Node5 -->
<g id="Node000005" class="node">
<title>Node5</title>
<g id="a_Node000005"><a xlink:href="classekf.html#aeca3bb4b4c62c2e5aa7728abb652d7b5" target="_top" xlink:title=" ">
<polygon fill="white" stroke="#666666" points="269.75,-20 173.5,-20 173.5,0 269.75,0 269.75,-20"/>
<text xml:space="preserve" text-anchor="middle" x="221.62" y="-6.5" font-family="Helvetica,sans-Serif" font-size="10.00">ekf::SkewSym4x4</text>
</a>
</g>
</g>
<!-- Node1&#45;&gt;Node5 -->
<g id="edge4_Node000001_Node000005" class="edge">
<title>Node1&#45;&gt;Node5</title>
<g id="a_edge4_Node000001_Node000005"><a xlink:title=" ">
<path fill="none" stroke="#63b8ff" d="M137.68,-20.44C145.78,-19.43 153.99,-18.39 161.93,-17.39"/>
<polygon fill="#63b8ff" stroke="#63b8ff" points="162.36,-20.86 171.85,-16.14 161.49,-13.92 162.36,-20.86"/>
</a>
</g>
</g>
<!-- Node3 -->
<g id="Node000003" class="node">
<title>Node3</title>
<g id="a_Node000003"><a xlink:href="classdspm_1_1_mat.html#a5eb6987452e618ba8d638a6773a074df" target="_top" xlink:title=" ">
<polygon fill="white" stroke="#666666" points="390.75,-58 305.75,-58 305.75,-38 390.75,-38 390.75,-58"/>
<text xml:space="preserve" text-anchor="middle" x="348.25" y="-44.5" font-family="Helvetica,sans-Serif" font-size="10.00">dspm::Mat::Mat</text>
</a>
</g>
</g>
<!-- Node2&#45;&gt;Node3 -->
<g id="edge2_Node000002_Node000003" class="edge">
<title>Node2&#45;&gt;Node3</title>
<g id="a_edge2_Node000002_Node000003"><a xlink:title=" ">
<path fill="none" stroke="#63b8ff" d="M267.97,-48C276.49,-48 285.46,-48 294.19,-48"/>
<polygon fill="#63b8ff" stroke="#63b8ff" points="293.95,-51.5 303.95,-48 293.95,-44.5 293.95,-51.5"/>
</a>
</g>
</g>
<!-- Node4 -->
<g id="Node000004" class="node">
<title>Node4</title>
<g id="a_Node000004"><a xlink:href="classdspm_1_1_mat.html#aa82f099abe2da9662fd06e72056df323" target="_top" xlink:title=" ">
<polygon fill="white" stroke="#666666" points="529,-58 426.75,-58 426.75,-38 529,-38 529,-58"/>
<text xml:space="preserve" text-anchor="middle" x="477.88" y="-44.5" font-family="Helvetica,sans-Serif" font-size="10.00">dspm::Mat::allocate</text>
</a>
</g>
</g>
<!-- Node3&#45;&gt;Node4 -->
<g id="edge3_Node000003_Node000004" class="edge">
<title>Node3&#45;&gt;Node4</title>
<g id="a_edge3_Node000003_Node000004"><a xlink:title=" ">
<path fill="none" stroke="#63b8ff" d="M391.04,-48C398.75,-48 406.94,-48 415.1,-48"/>
<polygon fill="#63b8ff" stroke="#63b8ff" points="415.02,-51.5 425.02,-48 415.02,-44.5 415.02,-51.5"/>
</a>
</g>
</g>
</g>
</svg>
