<?xml version="1.0" encoding="UTF-8" standalone="no"?>
<!DOCTYPE svg PUBLIC "-//W3C//DTD SVG 1.1//EN"
 "http://www.w3.org/Graphics/SVG/1.1/DTD/svg11.dtd">
<!-- Generated by graphviz version 14.1.2 (20260124.0452)
 -->
<!-- Title: dspm::Mat::operator+= Pages: 1 -->
<svg width="403pt" height="66pt"
 viewBox="0.00 0.00 403.00 66.00" xmlns="http://www.w3.org/2000/svg" xmlns:xlink="http://www.w3.org/1999/xlink">
<g id="graph0" class="graph" transform="scale(1 1) rotate(0) translate(4 62)">
<title>dspm::Mat::operator+=</title>
<!-- Node1 -->
<g id="Node000001" class="node">
<title>Node1</title>
<g id="a_Node000001"><a xlink:title=" ">
<polygon fill="#999999" stroke="#666666" points="115.75,-39 0,-39 0,-19 115.75,-19 115.75,-39"/>
<text xml:space="preserve" text-anchor="middle" x="57.88" y="-25.5" font-family="Helvetica,sans-Serif" font-size="10.00">dspm::Mat::operator+=</text>
</a>
</g>
</g>
<!-- Node2 -->
<g id="Node000002" class="node">
<title>Node2</title>
<g id="a_Node000002"><a xlink:href="dsps__addc__f32__ansi_8c.html#ada8973331709849575d7c14c65808016" target="_top" xlink:title="add constant">
<polygon fill="white" stroke="#666666" points="257,-58 151.75,-58 151.75,-38 257,-38 257,-58"/>
<text xml:space="preserve" text-anchor="middle" x="204.38" y="-44.5" font-family="Helvetica,sans-Serif" font-size="10.00">dsps_addc_f32_ansi</text>
</a>
</g>
</g>
<!-- Node1&#45;&gt;Node2 -->
<g id="edge1_Node000001_Node000002" class="edge">
<title>Node1&#45;&gt;Node2</title>
<g id="a_edge1_Node000001_Node000002"><a xlink:title=" ">
<path fill="none" stroke="#63b8ff" d="M115.99,-36.51C123.92,-37.55 132.11,-38.63 140.15,-39.69"/>
<polygon fill="#63b8ff" stroke="#63b8ff" points="139.5,-43.13 149.87,-40.97 140.41,-36.19 139.5,-43.13"/>
</a>
</g>
</g>
<!-- Node3 -->
<g id="Node000003" class="node">
<title>Node3</title>
<g id="a_Node000003"><a xlink:href="classdspm_1_1_mat.html#a5eb6987452e618ba8d638a6773a074df" target="_top" xlink:title=" ">
<polygon fill="white" stroke="#666666" points="246.88,-20 161.88,-20 161.88,0 246.88,0 246.88,-20"/>
<text xml:space="preserve" text-anchor="middle" x="204.38" y="-6.5" font-family="Helvetica,sans-Serif" font-size="10.00">dspm::Mat::Mat</text>
</a>
</g>
</g>
<!-- Node1&#45;&gt;Node3 -->
<g id="edge2_Node000001_Node000003" class="edge">
<title>Node1&#45;&gt;Node3</title>
<g id="a_edge2_Node000001_Node000003"><a xlink:title=" ">
<path fill="none" stroke="#63b8ff" d="M115.99,-21.49C127.23,-20.01 138.98,-18.47 150.09,-17.01"/>
<polygon fill="#63b8ff" stroke="#63b8ff" points="150.43,-20.49 159.88,-15.72 149.51,-13.55 150.43,-20.49"/>
</a>
</g>
</g>
<!-- Node4 -->
<g id="Node000004" class="node">
<title>Node4</title>
<g id="a_Node000004"><a xlink:href="classdspm_1_1_mat.html#aa82f099abe2da9662fd06e72056df323" target="_top" xlink:title=" ">
<polygon fill="white" stroke="#666666" points="395.25,-20 293,-20 293,0 395.25,0 395.25,-20"/>
<text xml:space="preserve" text-anchor="middle" x="344.12" y="-6.5" font-family="Helvetica,sans-Serif" font-size="10.00">dspm::Mat::allocate</text>
</a>
</g>
</g>
<!-- Node3&#45;&gt;Node4 -->
<g id="edge3_Node000003_Node000004" class="edge">
<title>Node3&#45;&gt;Node4</title>
<g id="a_edge3_Node000003_Node000004"><a xlink:title=" ">
<path fill="none" stroke="#63b8ff" d="M247.08,-10C257.89,-10 269.76,-10 281.36,-10"/>
<polygon fill="#63b8ff" stroke="#63b8ff" points="281.31,-13.5 291.31,-10 281.31,-6.5 281.31,-13.5"/>
</a>
</g>
</g>
</g>
</svg>
