<?xml version="1.0" encoding="UTF-8" standalone="no"?>
<!DOCTYPE svg PUBLIC "-//W3C//DTD SVG 1.1//EN"
 "http://www.w3.org/Graphics/SVG/1.1/DTD/svg11.dtd">
<!-- Generated by graphviz version 14.1.2 (20260124.0452)
 -->
<!-- Title: dspm::Mat::roots Pages: 1 -->
<svg width="500pt" height="47pt"
 viewBox="0.00 0.00 500.00 47.00" xmlns="http://www.w3.org/2000/svg" xmlns:xlink="http://www.w3.org/1999/xlink">
<g id="graph0" class="graph" transform="scale(1 1) rotate(0) translate(4 43)">
<title>dspm::Mat::roots</title>
<!-- Node1 -->
<g id="Node000001" class="node">
<title>Node1</title>
<g id="a_Node000001"><a xlink:title="Solve the matrix.">
<polygon fill="#999999" stroke="#666666" points="90.25,-20 0,-20 0,0 90.25,0 90.25,-20"/>
<text xml:space="preserve" text-anchor="middle" x="45.12" y="-6.5" font-family="Helvetica,sans-Serif" font-size="10.00">dspm::Mat::roots</text>
</a>
</g>
</g>
<!-- Node2 -->
<g id="Node000002" class="node">
<title>Node2</title>
<g id="a_Node000002"><a xlink:href="classdspm_1_1_mat.html#ad6b5781e65c612fa063313333abad614" target="_top" xlink:title="Augmented matrices.">
<polygon fill="white" stroke="#666666" points="232.25,-39 126.25,-39 126.25,-19 232.25,-19 232.25,-39"/>
<text xml:space="preserve" text-anchor="middle" x="179.25" y="-25.5" font-family="Helvetica,sans-Serif" font-size="10.00">dspm::Mat::augment</text>
</a>
</g>
</g>
<!-- Node1&#45;&gt;Node2 -->
<g id="edge1_Node000001_Node000002" class="edge">
<title>Node1&#45;&gt;Node2</title>
<g id="a_edge1_Node000001_Node000002"><a xlink:title=" ">
<path fill="none" stroke="#63b8ff" d="M90.49,-16.38C98.32,-17.51 106.61,-18.7 114.85,-19.88"/>
<polygon fill="#63b8ff" stroke="#63b8ff" points="114.11,-23.31 124.5,-21.27 115.1,-16.38 114.11,-23.31"/>
</a>
</g>
</g>
<!-- Node3 -->
<g id="Node000003" class="node">
<title>Node3</title>
<g id="a_Node000003"><a xlink:href="classdspm_1_1_mat.html#a5eb6987452e618ba8d638a6773a074df" target="_top" xlink:title=" ">
<polygon fill="white" stroke="#666666" points="353.25,-20 268.25,-20 268.25,0 353.25,0 353.25,-20"/>
<text xml:space="preserve" text-anchor="middle" x="310.75" y="-6.5" font-family="Helvetica,sans-Serif" font-size="10.00">dspm::Mat::Mat</text>
</a>
</g>
</g>
<!-- Node1&#45;&gt;Node3 -->
<g id="edge4_Node000001_Node000003" class="edge">
<title>Node1&#45;&gt;Node3</title>
<g id="a_edge4_Node000001_Node000003"><a xlink:title=" ">
<path fill="none" stroke="#63b8ff" d="M90.55,-10C136.33,-10 207.71,-10 256.49,-10"/>
<polygon fill="#63b8ff" stroke="#63b8ff" points="256.25,-13.5 266.25,-10 256.25,-6.5 256.25,-13.5"/>
</a>
</g>
</g>
<!-- Node2&#45;&gt;Node3 -->
<g id="edge2_Node000002_Node000003" class="edge">
<title>Node2&#45;&gt;Node3</title>
<g id="a_edge2_Node000002_Node000003"><a xlink:title=" ">
<path fill="none" stroke="#63b8ff" d="M232.55,-21.33C240.56,-20.15 248.85,-18.94 256.87,-17.76"/>
<polygon fill="#63b8ff" stroke="#63b8ff" points="257.12,-21.26 266.5,-16.35 256.1,-14.33 257.12,-21.26"/>
</a>
</g>
</g>
<!-- Node4 -->
<g id="Node000004" class="node">
<title>Node4</title>
<g id="a_Node000004"><a xlink:href="classdspm_1_1_mat.html#aa82f099abe2da9662fd06e72056df323" target="_top" xlink:title=" ">
<polygon fill="white" stroke="#666666" points="491.5,-20 389.25,-20 389.25,0 491.5,0 491.5,-20"/>
<text xml:space="preserve" text-anchor="middle" x="440.38" y="-6.5" font-family="Helvetica,sans-Serif" font-size="10.00">dspm::Mat::allocate</text>
</a>
</g>
</g>
<!-- Node3&#45;&gt;Node4 -->
<g id="edge3_Node000003_Node000004" class="edge">
<title>Node3&#45;&gt;Node4</title>
<g id="a_edge3_Node000003_Node000004"><a xlink:title=" ">
<path fill="none" stroke="#63b8ff" d="M353.54,-10C361.25,-10 369.44,-10 377.6,-10"/>
<polygon fill="#63b8ff" stroke="#63b8ff" points="377.52,-13.5 387.52,-10 377.52,-6.5 377.52,-13.5"/>
</a>
</g>
</g>
</g>
</svg>
