<?xml version="1.0" encoding="UTF-8" standalone="no"?>
<!DOCTYPE svg PUBLIC "-//W3C//DTD SVG 1.1//EN"
 "http://www.w3.org/Graphics/SVG/1.1/DTD/svg11.dtd">
<!-- Generated by graphviz version 14.1.2 (20260124.0452)
 -->
<!-- Title: dspm::Mat::adjoint Pages: 1 -->
<svg width="536pt" height="142pt"
 viewBox="0.00 0.00 536.00 142.00" xmlns="http://www.w3.org/2000/svg" xmlns:xlink="http://www.w3.org/1999/xlink">
<g id="graph0" class="graph" transform="scale(1 1) rotate(0) translate(4 138)">
<title>dspm::Mat::adjoint</title>
<!-- Node1 -->
<g id="Node000001" class="node">
<title>Node1</title>
<g id="a_Node000001"><a xlink:title=" ">
<polygon fill="#999999" stroke="#666666" points="97,-96 0,-96 0,-76 97,-76 97,-96"/>
<text xml:space="preserve" text-anchor="middle" x="48.5" y="-82.5" font-family="Helvetica,sans-Serif" font-size="10.00">dspm::Mat::adjoint</text>
</a>
</g>
</g>
<!-- Node2 -->
<g id="Node000002" class="node">
<title>Node2</title>
<g id="a_Node000002"><a xlink:href="classdspm_1_1_mat.html#ae8001066240ab06aa1390ac944835ff1" target="_top" xlink:title=" ">
<polygon fill="white" stroke="#666666" points="236.75,-134 133,-134 133,-114 236.75,-114 236.75,-134"/>
<text xml:space="preserve" text-anchor="middle" x="184.88" y="-120.5" font-family="Helvetica,sans-Serif" font-size="10.00">dspm::Mat::cofactor</text>
</a>
</g>
</g>
<!-- Node1&#45;&gt;Node2 -->
<g id="edge1_Node000001_Node000002" class="edge">
<title>Node1&#45;&gt;Node2</title>
<g id="a_edge1_Node000001_Node000002"><a xlink:title=" ">
<path fill="none" stroke="#63b8ff" d="M86.57,-96.48C101.85,-100.8 119.74,-105.86 135.99,-110.46"/>
<polygon fill="#63b8ff" stroke="#63b8ff" points="134.89,-113.78 145.47,-113.14 136.8,-107.05 134.89,-113.78"/>
</a>
</g>
</g>
<!-- Node3 -->
<g id="Node000003" class="node">
<title>Node3</title>
<g id="a_Node000003"><a xlink:href="classdspm_1_1_mat.html#a5eb6987452e618ba8d638a6773a074df" target="_top" xlink:title=" ">
<polygon fill="white" stroke="#666666" points="373.88,-96 288.88,-96 288.88,-76 373.88,-76 373.88,-96"/>
<text xml:space="preserve" text-anchor="middle" x="331.38" y="-82.5" font-family="Helvetica,sans-Serif" font-size="10.00">dspm::Mat::Mat</text>
</a>
</g>
</g>
<!-- Node1&#45;&gt;Node3 -->
<g id="edge10_Node000001_Node000003" class="edge">
<title>Node1&#45;&gt;Node3</title>
<g id="a_edge10_Node000001_Node000003"><a xlink:title=" ">
<path fill="none" stroke="#63b8ff" d="M97.46,-86C147.43,-86 225.5,-86 277.29,-86"/>
<polygon fill="#63b8ff" stroke="#63b8ff" points="277.05,-89.5 287.05,-86 277.05,-82.5 277.05,-89.5"/>
</a>
</g>
</g>
<!-- Node5 -->
<g id="Node000005" class="node">
<title>Node5</title>
<g id="a_Node000005"><a xlink:href="classdspm_1_1_mat.html#a1307da8f13edcf4b1f2bdbf23c9f0ce8" target="_top" xlink:title=" ">
<polygon fill="white" stroke="#666666" points="225.88,-40 143.88,-40 143.88,-20 225.88,-20 225.88,-40"/>
<text xml:space="preserve" text-anchor="middle" x="184.88" y="-26.5" font-family="Helvetica,sans-Serif" font-size="10.00">dspm::Mat::det</text>
</a>
</g>
</g>
<!-- Node1&#45;&gt;Node5 -->
<g id="edge4_Node000001_Node000005" class="edge">
<title>Node1&#45;&gt;Node5</title>
<g id="a_edge4_Node000001_Node000005"><a xlink:title=" ">
<path fill="none" stroke="#63b8ff" d="M74.46,-75.6C95.3,-66.91 125.24,-54.43 148.54,-44.72"/>
<polygon fill="#63b8ff" stroke="#63b8ff" points="149.77,-48.01 157.65,-40.93 147.07,-41.54 149.77,-48.01"/>
</a>
</g>
</g>
<!-- Node2&#45;&gt;Node3 -->
<g id="edge2_Node000002_Node000003" class="edge">
<title>Node2&#45;&gt;Node3</title>
<g id="a_edge2_Node000002_Node000003"><a xlink:title=" ">
<path fill="none" stroke="#63b8ff" d="M225.74,-113.52C242.41,-109.13 261.96,-103.99 279.64,-99.34"/>
<polygon fill="#63b8ff" stroke="#63b8ff" points="280.39,-102.76 289.17,-96.83 278.61,-95.99 280.39,-102.76"/>
</a>
</g>
</g>
<!-- Node4 -->
<g id="Node000004" class="node">
<title>Node4</title>
<g id="a_Node000004"><a xlink:href="classdspm_1_1_mat.html#aa82f099abe2da9662fd06e72056df323" target="_top" xlink:title=" ">
<polygon fill="white" stroke="#666666" points="528.25,-77 426,-77 426,-57 528.25,-57 528.25,-77"/>
<text xml:space="preserve" text-anchor="middle" x="477.12" y="-63.5" font-family="Helvetica,sans-Serif" font-size="10.00">dspm::Mat::allocate</text>
</a>
</g>
</g>
<!-- Node3&#45;&gt;Node4 -->
<g id="edge3_Node000003_Node000004" class="edge">
<title>Node3&#45;&gt;Node4</title>
<g id="a_edge3_Node000003_Node000004"><a xlink:title=" ">
<path fill="none" stroke="#63b8ff" d="M374.34,-80.45C386.9,-78.79 400.94,-76.94 414.49,-75.15"/>
<polygon fill="#63b8ff" stroke="#63b8ff" points="414.76,-78.64 424.21,-73.86 413.84,-71.7 414.76,-78.64"/>
</a>
</g>
</g>
<!-- Node5&#45;&gt;Node3 -->
<g id="edge8_Node000005_Node000003" class="edge">
<title>Node5&#45;&gt;Node3</title>
<g id="a_edge8_Node000005_Node000003"><a xlink:title=" ">
<path fill="none" stroke="#63b8ff" d="M208.89,-40.43C226.28,-48.15 250.81,-58.73 272.75,-67 277.13,-68.65 281.73,-70.3 286.33,-71.9"/>
<polygon fill="#63b8ff" stroke="#63b8ff" points="284.97,-75.14 295.56,-75.04 287.22,-68.51 284.97,-75.14"/>
</a>
</g>
</g>
<!-- Node5&#45;&gt;Node5 -->
<g id="edge5_Node000005_Node000005" class="edge">
<title>Node5&#45;&gt;Node5</title>
<g id="a_edge5_Node000005_Node000005"><a xlink:title=" ">
<path fill="none" stroke="#63b8ff" d="M163.21,-40.34C153.95,-48.98 161.17,-58 184.88,-58 197.84,-58 205.87,-55.3 208.98,-51.44"/>
<polygon fill="#63b8ff" stroke="#63b8ff" points="212.43,-50.84 206.87,-41.82 205.59,-52.33 212.43,-50.84"/>
</a>
</g>
</g>
<!-- Node6 -->
<g id="Node000006" class="node">
<title>Node6</title>
<g id="a_Node000006"><a xlink:href="classdspm_1_1_mat.html#a4c822cafab693f430803cc91f0143214" target="_top" xlink:title=" ">
<polygon fill="white" stroke="#666666" points="373.88,-58 288.88,-58 288.88,-38 373.88,-38 373.88,-58"/>
<text xml:space="preserve" text-anchor="middle" x="331.38" y="-44.5" font-family="Helvetica,sans-Serif" font-size="10.00">dspm::Mat::Mat</text>
</a>
</g>
</g>
<!-- Node5&#45;&gt;Node6 -->
<g id="edge6_Node000005_Node000006" class="edge">
<title>Node5&#45;&gt;Node6</title>
<g id="a_edge6_Node000005_Node000006"><a xlink:title=" ">
<path fill="none" stroke="#63b8ff" d="M226.13,-35.01C241.94,-36.98 260.31,-39.27 277.18,-41.37"/>
<polygon fill="#63b8ff" stroke="#63b8ff" points="276.72,-44.84 287.08,-42.61 277.59,-37.9 276.72,-44.84"/>
</a>
</g>
</g>
<!-- Node7 -->
<g id="Node000007" class="node">
<title>Node7</title>
<g id="a_Node000007"><a xlink:href="classdspm_1_1_mat.html#a9de682e7d416fa60f41a25da37350d7f" target="_top" xlink:title=" ">
<polygon fill="white" stroke="#666666" points="390,-20 272.75,-20 272.75,0 390,0 390,-20"/>
<text xml:space="preserve" text-anchor="middle" x="331.38" y="-6.5" font-family="Helvetica,sans-Serif" font-size="10.00">dspm::Mat::swapRows</text>
</a>
</g>
</g>
<!-- Node5&#45;&gt;Node7 -->
<g id="edge9_Node000005_Node000007" class="edge">
<title>Node5&#45;&gt;Node7</title>
<g id="a_edge9_Node000005_Node000007"><a xlink:title=" ">
<path fill="none" stroke="#63b8ff" d="M226.13,-24.43C237.12,-22.91 249.36,-21.21 261.47,-19.54"/>
<polygon fill="#63b8ff" stroke="#63b8ff" points="261.59,-23.05 271.02,-18.22 260.63,-16.12 261.59,-23.05"/>
</a>
</g>
</g>
<!-- Node6&#45;&gt;Node4 -->
<g id="edge7_Node000006_Node000004" class="edge">
<title>Node6&#45;&gt;Node4</title>
<g id="a_edge7_Node000006_Node000004"><a xlink:title=" ">
<path fill="none" stroke="#63b8ff" d="M374.34,-53.55C386.9,-55.21 400.94,-57.06 414.49,-58.85"/>
<polygon fill="#63b8ff" stroke="#63b8ff" points="413.84,-62.3 424.21,-60.14 414.76,-55.36 413.84,-62.3"/>
</a>
</g>
</g>
</g>
</svg>
