<?xml version="1.0" encoding="UTF-8" standalone="no"?>
<!DOCTYPE svg PUBLIC "-//W3C//DTD SVG 1.1//EN"
 "http://www.w3.org/Graphics/SVG/1.1/DTD/svg11.dtd">
<!-- Generated by graphviz version 14.1.2 (20260124.0452)
 -->
<!-- Title: dspm::Mat::operator^ Pages: 1 -->
<svg width="506pt" height="85pt"
 viewBox="0.00 0.00 506.00 85.00" xmlns="http://www.w3.org/2000/svg" xmlns:xlink="http://www.w3.org/1999/xlink">
<g id="graph0" class="graph" transform="scale(1 1) rotate(0) translate(4 81)">
<title>dspm::Mat::operator^</title>
<!-- Node1 -->
<g id="Node000001" class="node">
<title>Node1</title>
<g id="a_Node000001"><a xlink:title=" ">
<polygon fill="#999999" stroke="#666666" points="108.25,-20 0,-20 0,0 108.25,0 108.25,-20"/>
<text xml:space="preserve" text-anchor="middle" x="54.12" y="-6.5" font-family="Helvetica,sans-Serif" font-size="10.00">dspm::Mat::operator^</text>
</a>
</g>
</g>
<!-- Node2 -->
<g id="Node000002" class="node">
<title>Node2</title>
<g id="a_Node000002"><a xlink:href="classdspm_1_1_mat.html#a765a86e94b3d404e8578e22a36e7d424" target="_top" xlink:title=" ">
<polygon fill="white" stroke="#666666" points="257,-39 144.25,-39 144.25,-19 257,-19 257,-39"/>
<text xml:space="preserve" text-anchor="middle" x="200.62" y="-25.5" font-family="Helvetica,sans-Serif" font-size="10.00">dspm::Mat::expHelper</text>
</a>
</g>
</g>
<!-- Node1&#45;&gt;Node2 -->
<g id="edge1_Node000001_Node000002" class="edge">
<title>Node1&#45;&gt;Node2</title>
<g id="a_edge1_Node000001_Node000002"><a xlink:title=" ">
<path fill="none" stroke="#63b8ff" d="M108.52,-17.02C116.39,-18.06 124.58,-19.13 132.68,-20.2"/>
<polygon fill="#63b8ff" stroke="#63b8ff" points="132.16,-23.66 142.53,-21.49 133.07,-16.72 132.16,-23.66"/>
</a>
</g>
</g>
<!-- Node4 -->
<g id="Node000004" class="node">
<title>Node4</title>
<g id="a_Node000004"><a xlink:href="classdspm_1_1_mat.html#a5eb6987452e618ba8d638a6773a074df" target="_top" xlink:title=" ">
<polygon fill="#fff0f0" stroke="red" points="498.25,-39 413.25,-39 413.25,-19 498.25,-19 498.25,-39"/>
<text xml:space="preserve" text-anchor="middle" x="455.75" y="-25.5" font-family="Helvetica,sans-Serif" font-size="10.00">dspm::Mat::Mat</text>
</a>
</g>
</g>
<!-- Node1&#45;&gt;Node4 -->
<g id="edge6_Node000001_Node000004" class="edge">
<title>Node1&#45;&gt;Node4</title>
<g id="a_edge6_Node000001_Node000004"><a xlink:title=" ">
<path fill="none" stroke="#63b8ff" d="M108.71,-8.61C149.42,-7.88 206.76,-7.59 257,-10 306.07,-12.35 361.76,-17.97 401.5,-22.49"/>
<polygon fill="#63b8ff" stroke="#63b8ff" points="400.95,-25.95 411.28,-23.62 401.75,-18.99 400.95,-25.95"/>
</a>
</g>
</g>
<!-- Node2&#45;&gt;Node2 -->
<g id="edge2_Node000002_Node000002" class="edge">
<title>Node2&#45;&gt;Node2</title>
<g id="a_edge2_Node000002_Node000002"><a xlink:title=" ">
<path fill="none" stroke="#63b8ff" d="M179.25,-39.34C170.12,-47.98 177.25,-57 200.62,-57 213.41,-57 221.33,-54.3 224.4,-50.44"/>
<polygon fill="#63b8ff" stroke="#63b8ff" points="227.85,-49.85 222.32,-40.82 221.01,-51.33 227.85,-49.85"/>
</a>
</g>
</g>
<!-- Node3 -->
<g id="Node000003" class="node">
<title>Node3</title>
<g id="a_Node000003"><a xlink:href="classdspm_1_1_mat.html#a7502c6d836d1ae05f6880620c1a832b5" target="_top" xlink:title=" ">
<polygon fill="white" stroke="#666666" points="377.25,-77 293,-77 293,-57 377.25,-57 377.25,-77"/>
<text xml:space="preserve" text-anchor="middle" x="335.12" y="-63.5" font-family="Helvetica,sans-Serif" font-size="10.00">dspm::Mat::eye</text>
</a>
</g>
</g>
<!-- Node2&#45;&gt;Node3 -->
<g id="edge3_Node000002_Node000003" class="edge">
<title>Node2&#45;&gt;Node3</title>
<g id="a_edge3_Node000002_Node000003"><a xlink:title=" ">
<path fill="none" stroke="#63b8ff" d="M238.18,-39.48C253.24,-43.8 270.89,-48.86 286.91,-53.46"/>
<polygon fill="#63b8ff" stroke="#63b8ff" points="285.66,-56.74 296.23,-56.13 287.58,-50.01 285.66,-56.74"/>
</a>
</g>
</g>
<!-- Node2&#45;&gt;Node4 -->
<g id="edge5_Node000002_Node000004" class="edge">
<title>Node2&#45;&gt;Node4</title>
<g id="a_edge5_Node000002_Node000004"><a xlink:title=" ">
<path fill="none" stroke="#63b8ff" d="M257.49,-29C300.34,-29 359.11,-29 401.34,-29"/>
<polygon fill="#63b8ff" stroke="#63b8ff" points="401.27,-32.5 411.27,-29 401.27,-25.5 401.27,-32.5"/>
</a>
</g>
</g>
<!-- Node3&#45;&gt;Node4 -->
<g id="edge4_Node000003_Node000004" class="edge">
<title>Node3&#45;&gt;Node4</title>
<g id="a_edge4_Node000003_Node000004"><a xlink:title=" ">
<path fill="none" stroke="#63b8ff" d="M368.85,-56.52C381.95,-52.32 397.22,-47.43 411.23,-42.94"/>
<polygon fill="#63b8ff" stroke="#63b8ff" points="412.23,-46.3 420.69,-39.91 410.1,-39.63 412.23,-46.3"/>
</a>
</g>
</g>
</g>
</svg>
