<?xml version="1.0" encoding="UTF-8" standalone="no"?>
<!DOCTYPE svg PUBLIC "-//W3C//DTD SVG 1.1//EN"
 "http://www.w3.org/Graphics/SVG/1.1/DTD/svg11.dtd">
<!-- Generated by graphviz version 14.1.2 (20260124.0452)
 -->
<!-- Title: ekf_imu13states::Test Pages: 1 -->
<svg width="548pt" height="66pt"
 viewBox="0.00 0.00 548.00 66.00" xmlns="http://www.w3.org/2000/svg" xmlns:xlink="http://www.w3.org/1999/xlink">
<g id="graph0" class="graph" transform="scale(1 1) rotate(0) translate(4 62)">
<title>ekf_imu13states::Test</title>
<!-- Node1 -->
<g id="Node000001" class="node">
<title>Node1</title>
<g id="a_Node000001"><a xlink:title=" ">
<polygon fill="#999999" stroke="#666666" points="112.75,-39 0,-39 0,-19 112.75,-19 112.75,-39"/>
<text xml:space="preserve" text-anchor="middle" x="56.38" y="-25.5" font-family="Helvetica,sans-Serif" font-size="10.00">ekf_imu13states::Test</text>
</a>
</g>
</g>
<!-- Node2 -->
<g id="Node000002" class="node">
<title>Node2</title>
<g id="a_Node000002"><a xlink:href="classekf__imu13states.html#af497d6d258b35c5e602f9816cd515267" target="_top" xlink:title=" ">
<polygon fill="white" stroke="#666666" points="286.25,-39 148.75,-39 148.75,-19 286.25,-19 286.25,-39"/>
<text xml:space="preserve" text-anchor="middle" x="217.5" y="-25.5" font-family="Helvetica,sans-Serif" font-size="10.00">ekf_imu13states::StateXdot</text>
</a>
</g>
</g>
<!-- Node1&#45;&gt;Node2 -->
<g id="edge1_Node000001_Node000002" class="edge">
<title>Node1&#45;&gt;Node2</title>
<g id="a_edge1_Node000001_Node000002"><a xlink:title=" ">
<path fill="none" stroke="#63b8ff" d="M113.03,-29C120.77,-29 128.83,-29 136.9,-29"/>
<polygon fill="#63b8ff" stroke="#63b8ff" points="136.76,-32.5 146.76,-29 136.76,-25.5 136.76,-32.5"/>
</a>
</g>
</g>
<!-- Node3 -->
<g id="Node000003" class="node">
<title>Node3</title>
<g id="a_Node000003"><a xlink:href="classdspm_1_1_mat.html#a9b11a8f5022e6c54b212bf9af880b670" target="_top" xlink:title=" ">
<polygon fill="white" stroke="#666666" points="416.25,-58 324.5,-58 324.5,-38 416.25,-38 416.25,-58"/>
<text xml:space="preserve" text-anchor="middle" x="370.38" y="-44.5" font-family="Helvetica,sans-Serif" font-size="10.00">dspm::Mat::Copy</text>
</a>
</g>
</g>
<!-- Node2&#45;&gt;Node3 -->
<g id="edge2_Node000002_Node000003" class="edge">
<title>Node2&#45;&gt;Node3</title>
<g id="a_edge2_Node000002_Node000003"><a xlink:title=" ">
<path fill="none" stroke="#63b8ff" d="M286.43,-37.56C295.35,-38.68 304.41,-39.82 313.11,-40.91"/>
<polygon fill="#63b8ff" stroke="#63b8ff" points="312.43,-44.36 322.79,-42.13 313.3,-37.41 312.43,-44.36"/>
</a>
</g>
</g>
<!-- Node6 -->
<g id="Node000006" class="node">
<title>Node6</title>
<g id="a_Node000006"><a xlink:href="classekf.html#aeca3bb4b4c62c2e5aa7728abb652d7b5" target="_top" xlink:title=" ">
<polygon fill="white" stroke="#666666" points="418.5,-20 322.25,-20 322.25,0 418.5,0 418.5,-20"/>
<text xml:space="preserve" text-anchor="middle" x="370.38" y="-6.5" font-family="Helvetica,sans-Serif" font-size="10.00">ekf::SkewSym4x4</text>
</a>
</g>
</g>
<!-- Node2&#45;&gt;Node6 -->
<g id="edge4_Node000002_Node000006" class="edge">
<title>Node2&#45;&gt;Node6</title>
<g id="a_edge4_Node000002_Node000006"><a xlink:title=" ">
<path fill="none" stroke="#63b8ff" d="M286.43,-20.44C294.53,-19.43 302.74,-18.39 310.68,-17.39"/>
<polygon fill="#63b8ff" stroke="#63b8ff" points="311.11,-20.86 320.6,-16.14 310.24,-13.92 311.11,-20.86"/>
</a>
</g>
</g>
<!-- Node4 -->
<g id="Node000004" class="node">
<title>Node4</title>
<g id="a_Node000004"><a xlink:href="classdspm_1_1_mat.html#a5eb6987452e618ba8d638a6773a074df" target="_top" xlink:title=" ">
<polygon fill="#fff0f0" stroke="red" points="539.5,-58 454.5,-58 454.5,-38 539.5,-38 539.5,-58"/>
<text xml:space="preserve" text-anchor="middle" x="497" y="-44.5" font-family="Helvetica,sans-Serif" font-size="10.00">dspm::Mat::Mat</text>
</a>
</g>
</g>
<!-- Node3&#45;&gt;Node4 -->
<g id="edge3_Node000003_Node000004" class="edge">
<title>Node3&#45;&gt;Node4</title>
<g id="a_edge3_Node000003_Node000004"><a xlink:title=" ">
<path fill="none" stroke="#63b8ff" d="M416.72,-48C425.24,-48 434.21,-48 442.94,-48"/>
<polygon fill="#63b8ff" stroke="#63b8ff" points="442.7,-51.5 452.7,-48 442.7,-44.5 442.7,-51.5"/>
</a>
</g>
</g>
</g>
</svg>
