<?xml version="1.0" encoding="UTF-8" standalone="no"?>
<!DOCTYPE svg PUBLIC "-//W3C//DTD SVG 1.1//EN"
 "http://www.w3.org/Graphics/SVG/1.1/DTD/svg11.dtd">
<!-- Generated by graphviz version 14.1.2 (20260124.0452)
 -->
<!-- Title: dspm::Mat::bandSolve Pages: 1 -->
<svg width="382pt" height="28pt"
 viewBox="0.00 0.00 382.00 28.00" xmlns="http://www.w3.org/2000/svg" xmlns:xlink="http://www.w3.org/1999/xlink">
<g id="graph0" class="graph" transform="scale(1 1) rotate(0) translate(4 24)">
<title>dspm::Mat::bandSolve</title>
<!-- Node1 -->
<g id="Node000001" class="node">
<title>Node1</title>
<g id="a_Node000001"><a xlink:title="Band solve the matrix.">
<polygon fill="#999999" stroke="#666666" points="114.25,-20 0,-20 0,0 114.25,0 114.25,-20"/>
<text xml:space="preserve" text-anchor="middle" x="57.12" y="-6.5" font-family="Helvetica,sans-Serif" font-size="10.00">dspm::Mat::bandSolve</text>
</a>
</g>
</g>
<!-- Node2 -->
<g id="Node000002" class="node">
<title>Node2</title>
<g id="a_Node000002"><a xlink:href="classdspm_1_1_mat.html#a5eb6987452e618ba8d638a6773a074df" target="_top" xlink:title=" ">
<polygon fill="white" stroke="#666666" points="235.25,-20 150.25,-20 150.25,0 235.25,0 235.25,-20"/>
<text xml:space="preserve" text-anchor="middle" x="192.75" y="-6.5" font-family="Helvetica,sans-Serif" font-size="10.00">dspm::Mat::Mat</text>
</a>
</g>
</g>
<!-- Node1&#45;&gt;Node2 -->
<g id="edge1_Node000001_Node000002" class="edge">
<title>Node1&#45;&gt;Node2</title>
<g id="a_edge1_Node000001_Node000002"><a xlink:title=" ">
<path fill="none" stroke="#63b8ff" d="M114.41,-10C122.46,-10 130.72,-10 138.7,-10"/>
<polygon fill="#63b8ff" stroke="#63b8ff" points="138.64,-13.5 148.64,-10 138.64,-6.5 138.64,-13.5"/>
</a>
</g>
</g>
<!-- Node3 -->
<g id="Node000003" class="node">
<title>Node3</title>
<g id="a_Node000003"><a xlink:href="classdspm_1_1_mat.html#aa82f099abe2da9662fd06e72056df323" target="_top" xlink:title=" ">
<polygon fill="white" stroke="#666666" points="373.5,-20 271.25,-20 271.25,0 373.5,0 373.5,-20"/>
<text xml:space="preserve" text-anchor="middle" x="322.38" y="-6.5" font-family="Helvetica,sans-Serif" font-size="10.00">dspm::Mat::allocate</text>
</a>
</g>
</g>
<!-- Node2&#45;&gt;Node3 -->
<g id="edge2_Node000002_Node000003" class="edge">
<title>Node2&#45;&gt;Node3</title>
<g id="a_edge2_Node000002_Node000003"><a xlink:title=" ">
<path fill="none" stroke="#63b8ff" d="M235.54,-10C243.25,-10 251.44,-10 259.6,-10"/>
<polygon fill="#63b8ff" stroke="#63b8ff" points="259.52,-13.5 269.52,-10 259.52,-6.5 259.52,-13.5"/>
</a>
</g>
</g>
</g>
</svg>
