<?xml version="1.0" encoding="UTF-8" standalone="no"?>
<!DOCTYPE svg PUBLIC "-//W3C//DTD SVG 1.1//EN"
 "http://www.w3.org/Graphics/SVG/1.1/DTD/svg11.dtd">
<!-- Generated by graphviz version 14.1.2 (20260124.0452)
 -->
<!-- Title: dspm::Mat::Copy Pages: 1 -->
<svg width="442pt" height="178pt"
 viewBox="0.00 0.00 442.00 178.00" xmlns="http://www.w3.org/2000/svg" xmlns:xlink="http://www.w3.org/1999/xlink">

<svg id="main" version="1.1" xmlns="http://www.w3.org/2000/svg" xmlns:xlink="http://www.w3.org/1999/xlink" xml:space="preserve">

<style type="text/css"><![CDATA[
.node, .edge {opacity: 0.7;}
.node.selected, .edge.selected {opacity: 1;}
.edge:hover path { stroke: red; }
.edge:hover polygon { stroke: red; fill: red; }
]]></style>
<script type="application/ecmascript" xlink:href="svg.min.js"/>
<svg id="graph" class="graph">
<g id="graph0" class="graph" transform="scale(1 1) rotate(0) translate(4 174)">
<title>dspm::Mat::Copy</title>
<!-- Node1 -->
<g id="Node000001" class="node">
<title>Node1</title>
<g id="a_Node000001"><a xlink:title=" ">
<polygon fill="#999999" stroke="#666666" points="433.5,-101 341.75,-101 341.75,-81 433.5,-81 433.5,-101"/>
<text xml:space="preserve" text-anchor="middle" x="387.62" y="-87.5" font-family="Helvetica,sans-Serif" font-size="10.00">dspm::Mat::Copy</text>
</a>
</g>
</g>
<!-- Node2 -->
<g id="Node000002" class="node">
<title>Node2</title>
<g id="a_Node000002"><a xlink:href="classekf__imu13states.html#af497d6d258b35c5e602f9816cd515267" target="_top" xlink:title=" ">
<polygon fill="white" stroke="#666666" points="303.88,-170 166.38,-170 166.38,-150 303.88,-150 303.88,-170"/>
<text xml:space="preserve" text-anchor="middle" x="235.12" y="-156.5" font-family="Helvetica,sans-Serif" font-size="10.00">ekf_imu13states::StateXdot</text>
</a>
</g>
</g>
<!-- Node1&#45;&gt;Node2 -->
<g id="edge1_Node000001_Node000002" class="edge">
<title>Node1&#45;&gt;Node2</title>
<g id="a_edge1_Node000001_Node000002"><a xlink:title=" ">
<path fill="none" stroke="#63b8ff" d="M363.32,-107.91C347.67,-118.63 326.24,-132.09 305.75,-141 298.17,-144.3 289.86,-147.16 281.72,-149.59"/>
<polygon fill="#63b8ff" stroke="#63b8ff" points="365.28,-110.82 371.46,-102.21 361.26,-105.08 365.28,-110.82"/>
</a>
</g>
</g>
<!-- Node4 -->
<g id="Node000004" class="node">
<title>Node4</title>
<g id="a_Node000004"><a xlink:href="classekf__imu13states.html#a09f6e9adfc80a65e41a6e11ffd89fc53" target="_top" xlink:title=" ">
<polygon fill="white" stroke="#666666" points="305.75,-132 164.5,-132 164.5,-100 305.75,-100 305.75,-132"/>
<text xml:space="preserve" text-anchor="start" x="172.5" y="-118.5" font-family="Helvetica,sans-Serif" font-size="10.00">ekf_imu13states::UpdateRef</text>
<text xml:space="preserve" text-anchor="middle" x="235.12" y="-106.5" font-family="Helvetica,sans-Serif" font-size="10.00">Measurement</text>
</a>
</g>
</g>
<!-- Node1&#45;&gt;Node4 -->
<g id="edge3_Node000001_Node000004" class="edge">
<title>Node1&#45;&gt;Node4</title>
<g id="a_edge3_Node000001_Node000004"><a xlink:title=" ">
<path fill="none" stroke="#63b8ff" d="M330.18,-100.38C322.3,-101.69 314.12,-103.04 306.03,-104.39"/>
<polygon fill="#63b8ff" stroke="#63b8ff" points="330.69,-103.84 339.98,-98.75 329.54,-96.93 330.69,-103.84"/>
</a>
</g>
</g>
<!-- Node5 -->
<g id="Node000005" class="node">
<title>Node5</title>
<g id="a_Node000005"><a xlink:href="classekf__imu13states.html#a84709d79f66591f90fea7c532d73ba14" target="_top" xlink:title=" ">
<polygon fill="white" stroke="#666666" points="305.75,-82 164.5,-82 164.5,-50 305.75,-50 305.75,-82"/>
<text xml:space="preserve" text-anchor="start" x="172.5" y="-68.5" font-family="Helvetica,sans-Serif" font-size="10.00">ekf_imu13states::UpdateRef</text>
<text xml:space="preserve" text-anchor="middle" x="235.12" y="-56.5" font-family="Helvetica,sans-Serif" font-size="10.00">Measurement</text>
</a>
</g>
</g>
<!-- Node1&#45;&gt;Node5 -->
<g id="edge4_Node000001_Node000005" class="edge">
<title>Node1&#45;&gt;Node5</title>
<g id="a_edge4_Node000001_Node000005"><a xlink:title=" ">
<path fill="none" stroke="#63b8ff" d="M330.18,-81.62C322.3,-80.31 314.12,-78.96 306.03,-77.61"/>
<polygon fill="#63b8ff" stroke="#63b8ff" points="329.54,-85.07 339.98,-83.25 330.69,-78.16 329.54,-85.07"/>
</a>
</g>
</g>
<!-- Node7 -->
<g id="Node000007" class="node">
<title>Node7</title>
<g id="a_Node000007"><a xlink:href="classekf__imu13states.html#ad56f37dbe6dece11f6ff670e478099b1" target="_top" xlink:title=" ">
<polygon fill="white" stroke="#666666" points="305.75,-32 164.5,-32 164.5,0 305.75,0 305.75,-32"/>
<text xml:space="preserve" text-anchor="start" x="172.5" y="-18.5" font-family="Helvetica,sans-Serif" font-size="10.00">ekf_imu13states::UpdateRef</text>
<text xml:space="preserve" text-anchor="middle" x="235.12" y="-6.5" font-family="Helvetica,sans-Serif" font-size="10.00">MeasurementMagn</text>
</a>
</g>
</g>
<!-- Node1&#45;&gt;Node7 -->
<g id="edge6_Node000001_Node000007" class="edge">
<title>Node1&#45;&gt;Node7</title>
<g id="a_edge6_Node000001_Node000007"><a xlink:title=" ">
<path fill="none" stroke="#63b8ff" d="M362.5,-74.23C346.81,-63.8 325.63,-50.59 305.75,-41 299.39,-37.93 292.54,-35.03 285.72,-32.36"/>
<polygon fill="#63b8ff" stroke="#63b8ff" points="360.46,-77.08 370.7,-79.78 364.38,-71.28 360.46,-77.08"/>
</a>
</g>
</g>
<!-- Node3 -->
<g id="Node000003" class="node">
<title>Node3</title>
<g id="a_Node000003"><a xlink:href="classekf__imu13states.html#a78292836f30dfd6439ee3bdda30ed20f" target="_top" xlink:title=" ">
<polygon fill="white" stroke="#666666" points="120.62,-170 7.88,-170 7.88,-150 120.62,-150 120.62,-170"/>
<text xml:space="preserve" text-anchor="middle" x="64.25" y="-156.5" font-family="Helvetica,sans-Serif" font-size="10.00">ekf_imu13states::Test</text>
</a>
</g>
</g>
<!-- Node2&#45;&gt;Node3 -->
<g id="edge2_Node000002_Node000003" class="edge">
<title>Node2&#45;&gt;Node3</title>
<g id="a_edge2_Node000002_Node000003"><a xlink:title=" ">
<path fill="none" stroke="#63b8ff" d="M154.63,-160C143.27,-160 131.79,-160 121.01,-160"/>
<polygon fill="#63b8ff" stroke="#63b8ff" points="154.41,-163.5 164.41,-160 154.41,-156.5 154.41,-163.5"/>
</a>
</g>
</g>
<!-- Node6 -->
<g id="Node000006" class="node">
<title>Node6</title>
<g id="a_Node000006"><a xlink:href="classekf__imu13states.html#a7f315abd38007e57247edc0967d688f7" target="_top" xlink:title=" ">
<polygon fill="white" stroke="#666666" points="128.5,-76 0,-76 0,-56 128.5,-56 128.5,-76"/>
<text xml:space="preserve" text-anchor="middle" x="64.25" y="-62.5" font-family="Helvetica,sans-Serif" font-size="10.00">ekf_imu13states::TestFull</text>
</a>
</g>
</g>
<!-- Node5&#45;&gt;Node6 -->
<g id="edge5_Node000005_Node000006" class="edge">
<title>Node5&#45;&gt;Node6</title>
<g id="a_edge5_Node000005_Node000006"><a xlink:title=" ">
<path fill="none" stroke="#63b8ff" d="M153.02,-66C144.89,-66 136.71,-66 128.8,-66"/>
<polygon fill="#63b8ff" stroke="#63b8ff" points="152.95,-69.5 162.95,-66 152.95,-62.5 152.95,-69.5"/>
</a>
</g>
</g>
</g>
</svg>
</svg>

<style type='text/css'>
<![CDATA[
[data-mouse-over-selected='false'] { opacity: 0.7; }
[data-mouse-over-selected='true']  { opacity: 1.0; }
]]>
</style>
<script type="application/ecmascript"><![CDATA[
document.addEventListener('DOMContentLoaded', (event) => {
  highlightEdges();
  highlightAdjacentNodes();
});
]]></script>
</svg>
