<?xml version="1.0" encoding="UTF-8" standalone="no"?>
<!DOCTYPE svg PUBLIC "-//W3C//DTD SVG 1.1//EN"
 "http://www.w3.org/Graphics/SVG/1.1/DTD/svg11.dtd">
<!-- Generated by graphviz version 14.1.2 (20260124.0452)
 -->
<!-- Title: ekf_imu13states::UpdateRefMeasurement Pages: 1 -->
<!--zoomable 218 -->

<svg id="main" version="1.1" xmlns="http://www.w3.org/2000/svg" xmlns:xlink="http://www.w3.org/1999/xlink" xml:space="preserve" onload="init(evt)">

<style type="text/css"><![CDATA[
.node, .edge {opacity: 0.7;}
.node.selected, .edge.selected {opacity: 1;}
.edge:hover path { stroke: red; }
.edge:hover polygon { stroke: red; fill: red; }
]]></style>

<defs>
  <circle id="rim" cx="0" cy="0" r="7"/>
  <circle id="rim2" cx="0" cy="0" r="3.5"/>
  <g id="zoomPlus">
    <use xlink:href="#rim" fill="#404040"><set attributeName="fill" to="#808080" begin="zoomplus.mouseover" end="zoomplus.mouseout"/></use>
    <path d="M-4,0h8M0,-4v8" fill="none" stroke="white" stroke-width="1.5" pointer-events="none"/>
  </g>
  <g id="zoomMin">
    <use xlink:href="#rim" fill="#404040"><set attributeName="fill" to="#808080" begin="zoomminus.mouseover" end="zoomminus.mouseout"/></use>
    <path d="M-4,0h8" fill="none" stroke="white" stroke-width="1.5" pointer-events="none"/>
  </g>
  <g id="arrowUp" transform="translate(30 24)">
    <use xlink:href="#rim"/>
    <path pointer-events="none" fill="none" stroke="white" stroke-width="1.5" d="M0,-3.0v7 M-2.5,-0.5L0,-3.0L2.5,-0.5"/>
  </g>
  <g id="arrowRight" transform="rotate(90) translate(36 -43)">
    <use xlink:href="#rim"/>
    <path pointer-events="none" fill="none" stroke="white" stroke-width="1.5" d="M0,-3.0v7 M-2.5,-0.5L0,-3.0L2.5,-0.5"/>
  </g>
  <g id="arrowDown" transform="rotate(180) translate(-30 -48)">
    <use xlink:href="#rim"/>
    <path pointer-events="none" fill="none" stroke="white" stroke-width="1.5" d="M0,-3.0v7 M-2.5,-0.5L0,-3.0L2.5,-0.5"/>
  </g>
  <g id="arrowLeft" transform="rotate(270) translate(-36 17)">
    <use xlink:href="#rim"/>
    <path pointer-events="none" fill="none" stroke="white" stroke-width="1.5" d="M0,-3.0v7 M-2.5,-0.5L0,-3.0L2.5,-0.5"/>
  </g>
  <g id="resetDef">
    <use xlink:href="#rim2" fill="#404040"><set attributeName="fill" to="#808080" begin="reset.mouseover" end="reset.mouseout"/></use>
  </g>
</defs>
<script type="application/ecmascript">
var viewWidth = 536;
var viewHeight = 218;
var sectionId = 'dynsection-10';
</script>
<script type="application/ecmascript" xlink:href="svg.min.js"/>
<svg id="graph" class="graph">
<g id="viewport">
<title>ekf_imu13states::UpdateRefMeasurement</title>
<!-- Node1 -->
<g id="Node000001" class="node">
<title>Node1</title>
<g id="a_Node000001"><a xlink:title=" ">
<polygon fill="#999999" stroke="#666666" points="141.25,-121 0,-121 0,-89 141.25,-89 141.25,-121"/>
<text xml:space="preserve" text-anchor="start" x="8" y="-107.5" font-family="Helvetica,sans-Serif" font-size="10.00">ekf_imu13states::UpdateRef</text>
<text xml:space="preserve" text-anchor="middle" x="70.62" y="-95.5" font-family="Helvetica,sans-Serif" font-size="10.00">Measurement</text>
</a>
</g>
</g>
<!-- Node2 -->
<g id="Node000002" class="node">
<title>Node2</title>
<g id="a_Node000002"><a xlink:href="classdspm_1_1_mat.html#a9b11a8f5022e6c54b212bf9af880b670" target="_top" xlink:title=" ">
<polygon fill="white" stroke="#666666" points="269,-210 177.25,-210 177.25,-190 269,-190 269,-210"/>
<text xml:space="preserve" text-anchor="middle" x="223.12" y="-196.5" font-family="Helvetica,sans-Serif" font-size="10.00">dspm::Mat::Copy</text>
</a>
</g>
</g>
<!-- Node1&#45;&gt;Node2 -->
<g id="edge1_Node000001_Node000002" class="edge">
<title>Node1&#45;&gt;Node2</title>
<g id="a_edge1_Node000001_Node000002"><a xlink:title=" ">
<path fill="none" stroke="#63b8ff" d="M91.37,-121.27C111.94,-137.71 145.54,-163.18 177.25,-181 179.7,-182.38 182.27,-183.72 184.89,-185.01"/>
<polygon fill="#63b8ff" stroke="#63b8ff" points="183.16,-188.06 193.71,-189.07 186.09,-181.71 183.16,-188.06"/>
</a>
</g>
</g>
<!-- Node5 -->
<g id="Node000005" class="node">
<title>Node5</title>
<g id="a_Node000005"><a xlink:href="classekf.html#a3affa0048058ee2485dcb28d718be907" target="_top" xlink:title=" ">
<polygon fill="white" stroke="#666666" points="260.75,-172 185.5,-172 185.5,-152 260.75,-152 260.75,-172"/>
<text xml:space="preserve" text-anchor="middle" x="223.12" y="-158.5" font-family="Helvetica,sans-Serif" font-size="10.00">ekf::dFdq_inv</text>
</a>
</g>
</g>
<!-- Node1&#45;&gt;Node5 -->
<g id="edge4_Node000001_Node000005" class="edge">
<title>Node1&#45;&gt;Node5</title>
<g id="a_edge4_Node000001_Node000005"><a xlink:title=" ">
<path fill="none" stroke="#63b8ff" d="M115.16,-121.49C136.94,-129.74 163.06,-139.63 184.04,-147.57"/>
<polygon fill="#63b8ff" stroke="#63b8ff" points="182.79,-150.84 193.38,-151.11 185.27,-144.3 182.79,-150.84"/>
</a>
</g>
</g>
<!-- Node6 -->
<g id="Node000006" class="node">
<title>Node6</title>
<g id="a_Node000006"><a xlink:href="classdspm_1_1_mat.html#a3b4566db0f4ad277e70c09f5e934b91e" target="_top" xlink:title=" ">
<polygon fill="white" stroke="#666666" points="268.25,-134 178,-134 178,-114 268.25,-114 268.25,-134"/>
<text xml:space="preserve" text-anchor="middle" x="223.12" y="-120.5" font-family="Helvetica,sans-Serif" font-size="10.00">dspm::Mat::norm</text>
</a>
</g>
</g>
<!-- Node1&#45;&gt;Node6 -->
<g id="edge5_Node000001_Node000006" class="edge">
<title>Node1&#45;&gt;Node6</title>
<g id="a_edge5_Node000001_Node000006"><a xlink:title=" ">
<path fill="none" stroke="#63b8ff" d="M141.59,-113.83C149.94,-114.89 158.37,-115.95 166.48,-116.97"/>
<polygon fill="#63b8ff" stroke="#63b8ff" points="165.82,-120.42 176.18,-118.2 166.7,-113.47 165.82,-120.42"/>
</a>
</g>
</g>
<!-- Node7 -->
<g id="Node000007" class="node">
<title>Node7</title>
<g id="a_Node000007"><a xlink:href="classekf.html#a535f152864f2732a9888d4f959bd21fa" target="_top" xlink:title=" ">
<polygon fill="white" stroke="#666666" points="262.62,-96 183.62,-96 183.62,-76 262.62,-76 262.62,-96"/>
<text xml:space="preserve" text-anchor="middle" x="223.12" y="-82.5" font-family="Helvetica,sans-Serif" font-size="10.00">ekf::quat2rotm</text>
</a>
</g>
</g>
<!-- Node1&#45;&gt;Node7 -->
<g id="edge6_Node000001_Node000007" class="edge">
<title>Node1&#45;&gt;Node7</title>
<g id="a_edge6_Node000001_Node000007"><a xlink:title=" ">
<path fill="none" stroke="#63b8ff" d="M141.59,-96.17C151.96,-94.86 162.47,-93.53 172.32,-92.29"/>
<polygon fill="#63b8ff" stroke="#63b8ff" points="172.54,-95.79 182.02,-91.06 171.67,-88.84 172.54,-95.79"/>
</a>
</g>
</g>
<!-- Node8 -->
<g id="Node000008" class="node">
<title>Node8</title>
<g id="a_Node000008"><a xlink:href="classdspm_1_1_mat.html#af1013adcb6d601fba7bf788fd52d80b4" target="_top" xlink:title=" ">
<polygon fill="white" stroke="#666666" points="258.88,-58 187.38,-58 187.38,-38 258.88,-38 258.88,-58"/>
<text xml:space="preserve" text-anchor="middle" x="223.12" y="-44.5" font-family="Helvetica,sans-Serif" font-size="10.00">dspm::Mat::t</text>
</a>
</g>
</g>
<!-- Node1&#45;&gt;Node8 -->
<g id="edge7_Node000001_Node000008" class="edge">
<title>Node1&#45;&gt;Node8</title>
<g id="a_edge7_Node000001_Node000008"><a xlink:title=" ">
<path fill="none" stroke="#63b8ff" d="M115.16,-88.51C136.94,-80.26 163.06,-70.37 184.04,-62.43"/>
<polygon fill="#63b8ff" stroke="#63b8ff" points="185.27,-65.7 193.38,-58.89 182.79,-59.16 185.27,-65.7"/>
</a>
</g>
</g>
<!-- Node9 -->
<g id="Node000009" class="node">
<title>Node9</title>
<g id="a_Node000009"><a xlink:href="classekf.html#a7df41e0ecb82824766219aa5f9b0baef" target="_top" xlink:title=" ">
<polygon fill="white" stroke="#666666" points="256.62,-20 189.62,-20 189.62,0 256.62,0 256.62,-20"/>
<text xml:space="preserve" text-anchor="middle" x="223.12" y="-6.5" font-family="Helvetica,sans-Serif" font-size="10.00">ekf::Update</text>
</a>
</g>
</g>
<!-- Node1&#45;&gt;Node9 -->
<g id="edge9_Node000001_Node000009" class="edge">
<title>Node1&#45;&gt;Node9</title>
<g id="a_edge9_Node000001_Node000009"><a xlink:title=" ">
<path fill="none" stroke="#63b8ff" d="M91.37,-88.73C111.94,-72.29 145.54,-46.82 177.25,-29 179.7,-27.62 182.27,-26.28 184.89,-24.99"/>
<polygon fill="#63b8ff" stroke="#63b8ff" points="186.09,-28.29 193.71,-20.93 183.16,-21.94 186.09,-28.29"/>
</a>
</g>
</g>
<!-- Node3 -->
<g id="Node000003" class="node">
<title>Node3</title>
<g id="a_Node000003"><a xlink:href="classdspm_1_1_mat.html#a5eb6987452e618ba8d638a6773a074df" target="_top" xlink:title=" ">
<polygon fill="white" stroke="#666666" points="390,-134 305,-134 305,-114 390,-114 390,-134"/>
<text xml:space="preserve" text-anchor="middle" x="347.5" y="-120.5" font-family="Helvetica,sans-Serif" font-size="10.00">dspm::Mat::Mat</text>
</a>
</g>
</g>
<!-- Node2&#45;&gt;Node3 -->
<g id="edge2_Node000002_Node000003" class="edge">
<title>Node2&#45;&gt;Node3</title>
<g id="a_edge2_Node000002_Node000003"><a xlink:title=" ">
<path fill="none" stroke="#63b8ff" d="M251.67,-189.54C257.51,-186.99 263.56,-184.1 269,-181 289.32,-169.44 310.58,-153.48 325.69,-141.39"/>
<polygon fill="#63b8ff" stroke="#63b8ff" points="327.51,-144.42 333.06,-135.39 323.09,-138.99 327.51,-144.42"/>
</a>
</g>
</g>
<!-- Node4 -->
<g id="Node000004" class="node">
<title>Node4</title>
<g id="a_Node000004"><a xlink:href="classdspm_1_1_mat.html#aa82f099abe2da9662fd06e72056df323" target="_top" xlink:title=" ">
<polygon fill="white" stroke="#666666" points="528.25,-134 426,-134 426,-114 528.25,-114 528.25,-134"/>
<text xml:space="preserve" text-anchor="middle" x="477.12" y="-120.5" font-family="Helvetica,sans-Serif" font-size="10.00">dspm::Mat::allocate</text>
</a>
</g>
</g>
<!-- Node3&#45;&gt;Node4 -->
<g id="edge3_Node000003_Node000004" class="edge">
<title>Node3&#45;&gt;Node4</title>
<g id="a_edge3_Node000003_Node000004"><a xlink:title=" ">
<path fill="none" stroke="#63b8ff" d="M390.29,-124C398,-124 406.19,-124 414.35,-124"/>
<polygon fill="#63b8ff" stroke="#63b8ff" points="414.27,-127.5 424.27,-124 414.27,-120.5 414.27,-127.5"/>
</a>
</g>
</g>
<!-- Node8&#45;&gt;Node3 -->
<g id="edge8_Node000008_Node000003" class="edge">
<title>Node8&#45;&gt;Node3</title>
<g id="a_edge8_Node000008_Node000003"><a xlink:title=" ">
<path fill="none" stroke="#63b8ff" d="M251.67,-58.46C257.51,-61.01 263.56,-63.9 269,-67 289.32,-78.56 310.58,-94.52 325.69,-106.61"/>
<polygon fill="#63b8ff" stroke="#63b8ff" points="323.09,-109.01 333.06,-112.61 327.51,-103.58 323.09,-109.01"/>
</a>
</g>
</g>
</g>
</svg>

<g id="navigator" transform="translate(0 0)" fill="#404254">
  <rect fill="#f2f5e9" fill-opacity="0.5" stroke="#606060" stroke-width=".5" x="0" y="0" width="60" height="60"/>
  <use id="zoomplus" xlink:href="#zoomPlus" x="17" y="9" onmousedown="handleZoom(evt,'in')"/>
  <use id="zoomminus" xlink:href="#zoomMin" x="42" y="9" onmousedown="handleZoom(evt,'out')"/>
  <use id="reset" xlink:href="#resetDef" x="30" y="36" onmousedown="handleReset()"/>
   <use id="arrowup" xlink:href="#arrowUp" x="0" y="0" onmousedown="handlePan(0,-1)"/>
  <use id="arrowright" xlink:href="#arrowRight" x="0" y="0" onmousedown="handlePan(1,0)"/>
  <use id="arrowdown" xlink:href="#arrowDown" x="0" y="0" onmousedown="handlePan(0,1)"/>
  <use id="arrowleft" xlink:href="#arrowLeft" x="0" y="0" onmousedown="handlePan(-1,0)"/>
</g>
<svg viewBox="0 0 15 15" width="100%" height="30px" preserveAspectRatio="xMaxYMin meet">
 <g id="arrow_out" transform="scale(0.3 0.3)">
  <a xlink:href="classekf__imu13states_a84709d79f66591f90fea7c532d73ba14_cgraph_org.svg" target="_base">
   <rect id="button" ry="5" rx="5" y="6" x="6" height="38" width="38"
        fill="#f2f5e9" fill-opacity="0.5" stroke="#606060" stroke-width="1.0"/>
   <path id="arrow"
     d="M 11.500037,31.436501 C 11.940474,20.09759 22.043105,11.32322 32.158766,21.979434 L 37.068811,17.246167 C 37.068811,17.246167 37.088388,32 37.088388,32 L 22.160133,31.978069 C 22.160133,31.978069 26.997745,27.140456 26.997745,27.140456 C 18.528582,18.264221 13.291696,25.230495 11.500037,31.436501 z"
     style="fill:#404040;"/>
  </a>
 </g>
</svg>

<style type='text/css'>
<![CDATA[
[data-mouse-over-selected='false'] { opacity: 0.7; }
[data-mouse-over-selected='true']  { opacity: 1.0; }
]]>
</style>
<script type="application/ecmascript"><![CDATA[
document.addEventListener('DOMContentLoaded', (event) => {
  highlightEdges();
  highlightAdjacentNodes();
});
]]></script>
</svg>
