<?xml version="1.0" encoding="UTF-8" standalone="no"?>
<!DOCTYPE svg PUBLIC "-//W3C//DTD SVG 1.1//EN"
 "http://www.w3.org/Graphics/SVG/1.1/DTD/svg11.dtd">
<!-- Generated by graphviz version 14.1.2 (20260124.0452)
 -->
<!-- Title: dspm::Mat::Get Pages: 1 -->
<svg width="472pt" height="47pt"
 viewBox="0.00 0.00 472.00 47.00" xmlns="http://www.w3.org/2000/svg" xmlns:xlink="http://www.w3.org/1999/xlink">
<g id="graph0" class="graph" transform="scale(1 1) rotate(0) translate(4 43)">
<title>dspm::Mat::Get</title>
<!-- Node1 -->
<g id="Node000001" class="node">
<title>Node1</title>
<g id="a_Node000001"><a xlink:title=" ">
<polygon fill="#999999" stroke="#666666" points="84.25,-20 0,-20 0,0 84.25,0 84.25,-20"/>
<text xml:space="preserve" text-anchor="middle" x="42.12" y="-6.5" font-family="Helvetica,sans-Serif" font-size="10.00">dspm::Mat::Get</text>
</a>
</g>
</g>
<!-- Node2 -->
<g id="Node000002" class="node">
<title>Node2</title>
<g id="a_Node000002"><a xlink:href="classdspm_1_1_mat.html#a025beb99e548d50925c88c65272b021e" target="_top" xlink:title=" ">
<polygon fill="white" stroke="#666666" points="204.5,-39 120.25,-39 120.25,-19 204.5,-19 204.5,-39"/>
<text xml:space="preserve" text-anchor="middle" x="162.38" y="-25.5" font-family="Helvetica,sans-Serif" font-size="10.00">dspm::Mat::Get</text>
</a>
</g>
</g>
<!-- Node1&#45;&gt;Node2 -->
<g id="edge1_Node000001_Node000002" class="edge">
<title>Node1&#45;&gt;Node2</title>
<g id="a_edge1_Node000001_Node000002"><a xlink:title=" ">
<path fill="none" stroke="#63b8ff" d="M84.48,-16.65C92.27,-17.9 100.51,-19.22 108.59,-20.52"/>
<polygon fill="#63b8ff" stroke="#63b8ff" points="107.92,-23.96 118.35,-22.09 109.03,-17.04 107.92,-23.96"/>
</a>
</g>
</g>
<!-- Node3 -->
<g id="Node000003" class="node">
<title>Node3</title>
<g id="a_Node000003"><a xlink:href="classdspm_1_1_mat.html#a5eb6987452e618ba8d638a6773a074df" target="_top" xlink:title=" ">
<polygon fill="white" stroke="#666666" points="325.5,-20 240.5,-20 240.5,0 325.5,0 325.5,-20"/>
<text xml:space="preserve" text-anchor="middle" x="283" y="-6.5" font-family="Helvetica,sans-Serif" font-size="10.00">dspm::Mat::Mat</text>
</a>
</g>
</g>
<!-- Node1&#45;&gt;Node3 -->
<g id="edge4_Node000001_Node000003" class="edge">
<title>Node1&#45;&gt;Node3</title>
<g id="a_edge4_Node000001_Node000003"><a xlink:title=" ">
<path fill="none" stroke="#63b8ff" d="M84.73,-10C124.65,-10 185.11,-10 228.57,-10"/>
<polygon fill="#63b8ff" stroke="#63b8ff" points="228.55,-13.5 238.55,-10 228.55,-6.5 228.55,-13.5"/>
</a>
</g>
</g>
<!-- Node2&#45;&gt;Node3 -->
<g id="edge2_Node000002_Node000003" class="edge">
<title>Node2&#45;&gt;Node3</title>
<g id="a_edge2_Node000002_Node000003"><a xlink:title=" ">
<path fill="none" stroke="#63b8ff" d="M204.86,-22.35C212.68,-21.1 220.94,-19.78 229.05,-18.48"/>
<polygon fill="#63b8ff" stroke="#63b8ff" points="229.52,-21.95 238.84,-16.91 228.41,-15.04 229.52,-21.95"/>
</a>
</g>
</g>
<!-- Node4 -->
<g id="Node000004" class="node">
<title>Node4</title>
<g id="a_Node000004"><a xlink:href="classdspm_1_1_mat.html#aa82f099abe2da9662fd06e72056df323" target="_top" xlink:title=" ">
<polygon fill="white" stroke="#666666" points="463.75,-20 361.5,-20 361.5,0 463.75,0 463.75,-20"/>
<text xml:space="preserve" text-anchor="middle" x="412.62" y="-6.5" font-family="Helvetica,sans-Serif" font-size="10.00">dspm::Mat::allocate</text>
</a>
</g>
</g>
<!-- Node3&#45;&gt;Node4 -->
<g id="edge3_Node000003_Node000004" class="edge">
<title>Node3&#45;&gt;Node4</title>
<g id="a_edge3_Node000003_Node000004"><a xlink:title=" ">
<path fill="none" stroke="#63b8ff" d="M325.79,-10C333.5,-10 341.69,-10 349.85,-10"/>
<polygon fill="#63b8ff" stroke="#63b8ff" points="349.77,-13.5 359.77,-10 349.77,-6.5 349.77,-13.5"/>
</a>
</g>
</g>
</g>
</svg>
