<?xml version="1.0" encoding="UTF-8" standalone="no"?>
<!DOCTYPE svg PUBLIC "-//W3C//DTD SVG 1.1//EN"
 "http://www.w3.org/Graphics/SVG/1.1/DTD/svg11.dtd">
<!-- Generated by graphviz version 14.1.2 (20260124.0452)
 -->
<!-- Title: dspm::Mat::augment Pages: 1 -->
<svg width="373pt" height="28pt"
 viewBox="0.00 0.00 373.00 28.00" xmlns="http://www.w3.org/2000/svg" xmlns:xlink="http://www.w3.org/1999/xlink">
<g id="graph0" class="graph" transform="scale(1 1) rotate(0) translate(4 24)">
<title>dspm::Mat::augment</title>
<!-- Node1 -->
<g id="Node000001" class="node">
<title>Node1</title>
<g id="a_Node000001"><a xlink:title="Augmented matrices.">
<polygon fill="#999999" stroke="#666666" points="106,-20 0,-20 0,0 106,0 106,-20"/>
<text xml:space="preserve" text-anchor="middle" x="53" y="-6.5" font-family="Helvetica,sans-Serif" font-size="10.00">dspm::Mat::augment</text>
</a>
</g>
</g>
<!-- Node2 -->
<g id="Node000002" class="node">
<title>Node2</title>
<g id="a_Node000002"><a xlink:href="classdspm_1_1_mat.html#a5eb6987452e618ba8d638a6773a074df" target="_top" xlink:title=" ">
<polygon fill="white" stroke="#666666" points="227,-20 142,-20 142,0 227,0 227,-20"/>
<text xml:space="preserve" text-anchor="middle" x="184.5" y="-6.5" font-family="Helvetica,sans-Serif" font-size="10.00">dspm::Mat::Mat</text>
</a>
</g>
</g>
<!-- Node1&#45;&gt;Node2 -->
<g id="edge1_Node000001_Node000002" class="edge">
<title>Node1&#45;&gt;Node2</title>
<g id="a_edge1_Node000001_Node000002"><a xlink:title=" ">
<path fill="none" stroke="#63b8ff" d="M106.3,-10C114.22,-10 122.4,-10 130.35,-10"/>
<polygon fill="#63b8ff" stroke="#63b8ff" points="130.24,-13.5 140.24,-10 130.24,-6.5 130.24,-13.5"/>
</a>
</g>
</g>
<!-- Node3 -->
<g id="Node000003" class="node">
<title>Node3</title>
<g id="a_Node000003"><a xlink:href="classdspm_1_1_mat.html#aa82f099abe2da9662fd06e72056df323" target="_top" xlink:title=" ">
<polygon fill="white" stroke="#666666" points="365.25,-20 263,-20 263,0 365.25,0 365.25,-20"/>
<text xml:space="preserve" text-anchor="middle" x="314.12" y="-6.5" font-family="Helvetica,sans-Serif" font-size="10.00">dspm::Mat::allocate</text>
</a>
</g>
</g>
<!-- Node2&#45;&gt;Node3 -->
<g id="edge2_Node000002_Node000003" class="edge">
<title>Node2&#45;&gt;Node3</title>
<g id="a_edge2_Node000002_Node000003"><a xlink:title=" ">
<path fill="none" stroke="#63b8ff" d="M227.29,-10C235,-10 243.19,-10 251.35,-10"/>
<polygon fill="#63b8ff" stroke="#63b8ff" points="251.27,-13.5 261.27,-10 251.27,-6.5 251.27,-13.5"/>
</a>
</g>
</g>
</g>
</svg>
