<?xml version="1.0" encoding="UTF-8" standalone="no"?>
<!DOCTYPE svg PUBLIC "-//W3C//DTD SVG 1.1//EN"
 "http://www.w3.org/Graphics/SVG/1.1/DTD/svg11.dtd">
<!-- Generated by graphviz version 14.1.2 (20260124.0452)
 -->
<!-- Title: ekf::dFdq_inv Pages: 1 -->
<svg width="425pt" height="140pt"
 viewBox="0.00 0.00 425.00 140.00" xmlns="http://www.w3.org/2000/svg" xmlns:xlink="http://www.w3.org/1999/xlink">
<g id="graph0" class="graph" transform="scale(1 1) rotate(0) translate(4 136)">
<title>ekf::dFdq_inv</title>
<!-- Node1 -->
<g id="Node000001" class="node">
<title>Node1</title>
<g id="a_Node000001"><a xlink:title=" ">
<polygon fill="#999999" stroke="#666666" points="417,-76 341.75,-76 341.75,-56 417,-56 417,-76"/>
<text xml:space="preserve" text-anchor="middle" x="379.38" y="-62.5" font-family="Helvetica,sans-Serif" font-size="10.00">ekf::dFdq_inv</text>
</a>
</g>
</g>
<!-- Node2 -->
<g id="Node000002" class="node">
<title>Node2</title>
<g id="a_Node000002"><a xlink:href="classekf__imu13states.html#a09f6e9adfc80a65e41a6e11ffd89fc53" target="_top" xlink:title=" ">
<polygon fill="white" stroke="#666666" points="305.75,-132 164.5,-132 164.5,-100 305.75,-100 305.75,-132"/>
<text xml:space="preserve" text-anchor="start" x="172.5" y="-118.5" font-family="Helvetica,sans-Serif" font-size="10.00">ekf_imu13states::UpdateRef</text>
<text xml:space="preserve" text-anchor="middle" x="235.12" y="-106.5" font-family="Helvetica,sans-Serif" font-size="10.00">Measurement</text>
</a>
</g>
</g>
<!-- Node1&#45;&gt;Node2 -->
<g id="edge1_Node000001_Node000002" class="edge">
<title>Node1&#45;&gt;Node2</title>
<g id="a_edge1_Node000001_Node000002"><a xlink:title=" ">
<path fill="none" stroke="#63b8ff" d="M337.79,-80.26C320.7,-86.27 300.7,-93.3 282.99,-99.53"/>
<polygon fill="#63b8ff" stroke="#63b8ff" points="338.85,-83.6 347.13,-76.98 336.53,-77 338.85,-83.6"/>
</a>
</g>
</g>
<!-- Node3 -->
<g id="Node000003" class="node">
<title>Node3</title>
<g id="a_Node000003"><a xlink:href="classekf__imu13states.html#a84709d79f66591f90fea7c532d73ba14" target="_top" xlink:title=" ">
<polygon fill="white" stroke="#666666" points="305.75,-82 164.5,-82 164.5,-50 305.75,-50 305.75,-82"/>
<text xml:space="preserve" text-anchor="start" x="172.5" y="-68.5" font-family="Helvetica,sans-Serif" font-size="10.00">ekf_imu13states::UpdateRef</text>
<text xml:space="preserve" text-anchor="middle" x="235.12" y="-56.5" font-family="Helvetica,sans-Serif" font-size="10.00">Measurement</text>
</a>
</g>
</g>
<!-- Node1&#45;&gt;Node3 -->
<g id="edge2_Node000001_Node000003" class="edge">
<title>Node1&#45;&gt;Node3</title>
<g id="a_edge2_Node000001_Node000003"><a xlink:title=" ">
<path fill="none" stroke="#63b8ff" d="M330,-66C322.27,-66 314.14,-66 306.04,-66"/>
<polygon fill="#63b8ff" stroke="#63b8ff" points="329.86,-69.5 339.86,-66 329.86,-62.5 329.86,-69.5"/>
</a>
</g>
</g>
<!-- Node5 -->
<g id="Node000005" class="node">
<title>Node5</title>
<g id="a_Node000005"><a xlink:href="classekf__imu13states.html#ad56f37dbe6dece11f6ff670e478099b1" target="_top" xlink:title=" ">
<polygon fill="white" stroke="#666666" points="305.75,-32 164.5,-32 164.5,0 305.75,0 305.75,-32"/>
<text xml:space="preserve" text-anchor="start" x="172.5" y="-18.5" font-family="Helvetica,sans-Serif" font-size="10.00">ekf_imu13states::UpdateRef</text>
<text xml:space="preserve" text-anchor="middle" x="235.12" y="-6.5" font-family="Helvetica,sans-Serif" font-size="10.00">MeasurementMagn</text>
</a>
</g>
</g>
<!-- Node1&#45;&gt;Node5 -->
<g id="edge4_Node000001_Node000005" class="edge">
<title>Node1&#45;&gt;Node5</title>
<g id="a_edge4_Node000001_Node000005"><a xlink:title=" ">
<path fill="none" stroke="#63b8ff" d="M337.79,-51.74C320.7,-45.73 300.7,-38.7 282.99,-32.47"/>
<polygon fill="#63b8ff" stroke="#63b8ff" points="336.53,-55 347.13,-55.02 338.85,-48.4 336.53,-55"/>
</a>
</g>
</g>
<!-- Node4 -->
<g id="Node000004" class="node">
<title>Node4</title>
<g id="a_Node000004"><a xlink:href="classekf__imu13states.html#a7f315abd38007e57247edc0967d688f7" target="_top" xlink:title=" ">
<polygon fill="white" stroke="#666666" points="128.5,-76 0,-76 0,-56 128.5,-56 128.5,-76"/>
<text xml:space="preserve" text-anchor="middle" x="64.25" y="-62.5" font-family="Helvetica,sans-Serif" font-size="10.00">ekf_imu13states::TestFull</text>
</a>
</g>
</g>
<!-- Node3&#45;&gt;Node4 -->
<g id="edge3_Node000003_Node000004" class="edge">
<title>Node3&#45;&gt;Node4</title>
<g id="a_edge3_Node000003_Node000004"><a xlink:title=" ">
<path fill="none" stroke="#63b8ff" d="M153.02,-66C144.89,-66 136.71,-66 128.8,-66"/>
<polygon fill="#63b8ff" stroke="#63b8ff" points="152.95,-69.5 162.95,-66 152.95,-62.5 152.95,-69.5"/>
</a>
</g>
</g>
</g>
</svg>
