<?xml version="1.0" encoding="UTF-8" standalone="no"?>
<!DOCTYPE svg PUBLIC "-//W3C//DTD SVG 1.1//EN"
 "http://www.w3.org/Graphics/SVG/1.1/DTD/svg11.dtd">
<!-- Generated by graphviz version 14.1.2 (20260124.0452)
 -->
<!-- Title: ekf::rotm2eul Pages: 1 -->
<svg width="608pt" height="276pt"
 viewBox="0.00 0.00 608.00 276.00" xmlns="http://www.w3.org/2000/svg" xmlns:xlink="http://www.w3.org/1999/xlink">
<g id="graph0" class="graph" transform="scale(1 1) rotate(0) translate(4 271.91)">
<title>ekf::rotm2eul</title>
<!-- Node1 -->
<g id="Node000001" class="node">
<title>Node1</title>
<g id="a_Node000001"><a xlink:title=" ">
<polygon fill="#999999" stroke="#666666" points="599.75,-115 526.75,-115 526.75,-95 599.75,-95 599.75,-115"/>
<text xml:space="preserve" text-anchor="middle" x="563.25" y="-101.5" font-family="Helvetica,sans-Serif" font-size="10.00">ekf::rotm2eul</text>
</a>
</g>
</g>
<!-- Node2 -->
<g id="Node000002" class="node">
<title>Node2</title>
<g id="a_Node000002"><a xlink:href="applications_2azure__board__apps_2apps_2kalman__filter_2main_2kalman__filter__demo_8cpp.html#a2955b9e77f5bd23f109feaaed1496af5" target="_top" xlink:title="Draw a 3d image.">
<polygon fill="white" stroke="#666666" points="478.75,-210 394.5,-210 394.5,-190 478.75,-190 478.75,-210"/>
<text xml:space="preserve" text-anchor="middle" x="436.62" y="-196.5" font-family="Helvetica,sans-Serif" font-size="10.00">draw_3d_image</text>
</a>
</g>
</g>
<!-- Node1&#45;&gt;Node2 -->
<g id="edge1_Node000001_Node000002" class="edge">
<title>Node1&#45;&gt;Node2</title>
<g id="a_edge1_Node000001_Node000002"><a xlink:title=" ">
<path fill="none" stroke="#63b8ff" d="M548.31,-124.37C535.17,-141.38 514.06,-165.74 490.75,-181 485.67,-184.33 479.93,-187.16 474.16,-189.53"/>
<polygon fill="#63b8ff" stroke="#63b8ff" points="550.98,-126.64 554.17,-116.53 545.38,-122.44 550.98,-126.64"/>
</a>
</g>
</g>
<!-- Node12 -->
<g id="Node000012" class="node">
<title>Node12</title>
<g id="a_Node000012"><a xlink:href="external__examples_2b00f000e_2applications_2azure__board__apps_2apps_2kalman__filter_2main_2kalman__filter__demo_8cpp.html#a2955b9e77f5bd23f109feaaed1496af5" target="_top" xlink:title="Draw a 3d image.">
<polygon fill="white" stroke="#666666" points="478.75,-172 394.5,-172 394.5,-152 478.75,-152 478.75,-172"/>
<text xml:space="preserve" text-anchor="middle" x="436.62" y="-158.5" font-family="Helvetica,sans-Serif" font-size="10.00">draw_3d_image</text>
</a>
</g>
</g>
<!-- Node1&#45;&gt;Node12 -->
<g id="edge9_Node000001_Node000012" class="edge">
<title>Node1&#45;&gt;Node12</title>
<g id="a_edge9_Node000001_Node000012"><a xlink:title=" ">
<path fill="none" stroke="#63b8ff" d="M534.6,-120.9C521.52,-128.11 505.56,-136.46 490.75,-143 483.85,-146.05 476.3,-148.98 469.1,-151.59"/>
<polygon fill="#63b8ff" stroke="#63b8ff" points="536.05,-124.1 543.07,-116.16 532.63,-117.99 536.05,-124.1"/>
</a>
</g>
</g>
<!-- Node14 -->
<g id="Node000014" class="node">
<title>Node14</title>
<g id="a_Node000014"><a xlink:href="external__examples_2d1468452_2apps_2kalman__filter_2main_2kalman__filter__demo_8cpp.html#a2955b9e77f5bd23f109feaaed1496af5" target="_top" xlink:title="Draw a 3d image.">
<polygon fill="white" stroke="#666666" points="478.75,-134 394.5,-134 394.5,-114 478.75,-114 478.75,-134"/>
<text xml:space="preserve" text-anchor="middle" x="436.62" y="-120.5" font-family="Helvetica,sans-Serif" font-size="10.00">draw_3d_image</text>
</a>
</g>
</g>
<!-- Node1&#45;&gt;Node14 -->
<g id="edge11_Node000001_Node000014" class="edge">
<title>Node1&#45;&gt;Node14</title>
<g id="a_edge11_Node000001_Node000014"><a xlink:title=" ">
<path fill="none" stroke="#63b8ff" d="M515.4,-112.14C503.46,-113.96 490.71,-115.91 479.06,-117.68"/>
<polygon fill="#63b8ff" stroke="#63b8ff" points="515.68,-115.64 525.04,-110.67 514.63,-108.72 515.68,-115.64"/>
</a>
</g>
</g>
<!-- Node16 -->
<g id="Node000016" class="node">
<title>Node16</title>
<g id="a_Node000016"><a xlink:href="external__examples_2f9c2d4b3_2azure__board__apps_2apps_2kalman__filter_2main_2kalman__filter__demo_8cpp.html#a2955b9e77f5bd23f109feaaed1496af5" target="_top" xlink:title="Draw a 3d image.">
<polygon fill="white" stroke="#666666" points="478.75,-96 394.5,-96 394.5,-76 478.75,-76 478.75,-96"/>
<text xml:space="preserve" text-anchor="middle" x="436.62" y="-82.5" font-family="Helvetica,sans-Serif" font-size="10.00">draw_3d_image</text>
</a>
</g>
</g>
<!-- Node1&#45;&gt;Node16 -->
<g id="edge13_Node000001_Node000016" class="edge">
<title>Node1&#45;&gt;Node16</title>
<g id="a_edge13_Node000001_Node000016"><a xlink:title=" ">
<path fill="none" stroke="#63b8ff" d="M515.4,-97.86C503.46,-96.04 490.71,-94.09 479.06,-92.32"/>
<polygon fill="#63b8ff" stroke="#63b8ff" points="514.63,-101.28 525.04,-99.33 515.68,-94.36 514.63,-101.28"/>
</a>
</g>
</g>
<!-- Node18 -->
<g id="Node000018" class="node">
<title>Node18</title>
<g id="a_Node000018"><a xlink:href="applications_2m5stack__core__s3_2apps_2kalman__filter_2main_23d__kalman__demo_8cpp.html#af3debef909dca35dbf0b6f842df6def3" target="_top" xlink:title="RTOS task to draw a 3d image.">
<polygon fill="white" stroke="#666666" points="490.75,-58 382.5,-58 382.5,-38 490.75,-38 490.75,-58"/>
<text xml:space="preserve" text-anchor="middle" x="436.62" y="-44.5" font-family="Helvetica,sans-Serif" font-size="10.00">draw_3d_image_task</text>
</a>
</g>
</g>
<!-- Node1&#45;&gt;Node18 -->
<g id="edge15_Node000001_Node000018" class="edge">
<title>Node1&#45;&gt;Node18</title>
<g id="a_edge15_Node000001_Node000018"><a xlink:title=" ">
<path fill="none" stroke="#63b8ff" d="M534.6,-89.1C521.52,-81.89 505.56,-73.54 490.75,-67 483.85,-63.95 476.3,-61.02 469.1,-58.41"/>
<polygon fill="#63b8ff" stroke="#63b8ff" points="532.63,-92.01 543.07,-93.84 536.05,-85.9 532.63,-92.01"/>
</a>
</g>
</g>
<!-- Node19 -->
<g id="Node000019" class="node">
<title>Node19</title>
<g id="a_Node000019"><a xlink:href="external__examples_2b00f000e_2applications_2m5stack__core__s3_2apps_2kalman__filter_2main_23d__kalman__demo_8cpp.html#af3debef909dca35dbf0b6f842df6def3" target="_top" xlink:title="RTOS task to draw a 3d image.">
<polygon fill="white" stroke="#666666" points="490.75,-20 382.5,-20 382.5,0 490.75,0 490.75,-20"/>
<text xml:space="preserve" text-anchor="middle" x="436.62" y="-6.5" font-family="Helvetica,sans-Serif" font-size="10.00">draw_3d_image_task</text>
</a>
</g>
</g>
<!-- Node1&#45;&gt;Node19 -->
<g id="edge16_Node000001_Node000019" class="edge">
<title>Node1&#45;&gt;Node19</title>
<g id="a_edge16_Node000001_Node000019"><a xlink:title=" ">
<path fill="none" stroke="#63b8ff" d="M548.31,-85.63C535.17,-68.62 514.06,-44.26 490.75,-29 485.67,-25.67 479.93,-22.84 474.16,-20.47"/>
<polygon fill="#63b8ff" stroke="#63b8ff" points="545.38,-87.56 554.17,-93.47 550.98,-83.36 545.38,-87.56"/>
</a>
</g>
</g>
<!-- Node3 -->
<g id="Node000003" class="node">
<title>Node3</title>
<g id="a_Node000003"><a xlink:href="applications_2azure__board__apps_2apps_2kalman__filter_2main_2kalman__filter__demo_8cpp.html#af43b34764385f3f1ad35ce1c00db220f" target="_top" xlink:title="Kalman filter RTOS task (or ESP timer callback).">
<polygon fill="white" stroke="#666666" points="346.5,-210 251,-210 251,-190 346.5,-190 346.5,-210"/>
<text xml:space="preserve" text-anchor="middle" x="298.75" y="-196.5" font-family="Helvetica,sans-Serif" font-size="10.00">kalman_filter_task</text>
</a>
</g>
</g>
<!-- Node2&#45;&gt;Node3 -->
<g id="edge2_Node000002_Node000003" class="edge">
<title>Node2&#45;&gt;Node3</title>
<g id="a_edge2_Node000002_Node000003"><a xlink:title=" ">
<path fill="none" stroke="#63b8ff" d="M382.93,-200C370.99,-200 358.38,-200 346.7,-200"/>
<polygon fill="#63b8ff" stroke="#63b8ff" points="382.61,-203.5 392.61,-200 382.61,-196.5 382.61,-203.5"/>
</a>
</g>
</g>
<!-- Node4 -->
<g id="Node000004" class="node">
<title>Node4</title>
<g id="a_Node000004"><a xlink:href="applications_2azure__board__apps_2apps_2kalman__filter_2main_2kalman__filter__demo_8cpp.html#abce06be17fc37d675118a678a8100a36" target="_top" xlink:title=" ">
<polygon fill="white" stroke="#666666" points="58,-267 0,-267 0,-247 58,-247 58,-267"/>
<text xml:space="preserve" text-anchor="middle" x="29" y="-253.5" font-family="Helvetica,sans-Serif" font-size="10.00">app_main</text>
</a>
</g>
</g>
<!-- Node3&#45;&gt;Node4 -->
<g id="edge3_Node000003_Node000004" class="edge">
<title>Node3&#45;&gt;Node4</title>
<g id="a_edge3_Node000003_Node000004"><a xlink:title=" ">
<path fill="none" stroke="#63b8ff" d="M279.41,-217.56C263.71,-231.29 239.79,-249.29 215,-257 161.64,-273.6 95.35,-267.63 58.36,-262.11"/>
<polygon fill="#63b8ff" stroke="#63b8ff" points="281.47,-220.41 286.52,-211.1 276.77,-215.23 281.47,-220.41"/>
</a>
</g>
</g>
<!-- Node5 -->
<g id="Node000005" class="node">
<title>Node5</title>
<g id="a_Node000005"><a xlink:href="applications_2azure__board__apps_2apps_2kalman__filter_2main_2kalman__filter__demo_8cpp.html#a1967e917dafd16b5f02410c5b10c1d90" target="_top" xlink:title="Kalman filter calibration procedure.">
<polygon fill="white" stroke="#666666" points="215,-248 94,-248 94,-228 215,-228 215,-248"/>
<text xml:space="preserve" text-anchor="middle" x="154.5" y="-234.5" font-family="Helvetica,sans-Serif" font-size="10.00">kalman_filter_calibration</text>
</a>
</g>
</g>
<!-- Node3&#45;&gt;Node5 -->
<g id="edge4_Node000003_Node000005" class="edge">
<title>Node3&#45;&gt;Node5</title>
<g id="a_edge4_Node000003_Node000005"><a xlink:title=" ">
<path fill="none" stroke="#63b8ff" d="M247.42,-213.45C230.08,-218.08 210.93,-223.19 194.62,-227.55"/>
<polygon fill="#63b8ff" stroke="#63b8ff" points="248.28,-216.84 257.04,-210.87 246.48,-210.07 248.28,-216.84"/>
</a>
</g>
</g>
<!-- Node6 -->
<g id="Node000006" class="node">
<title>Node6</title>
<g id="a_Node000006"><a xlink:href="external__examples_2b00f000e_2applications_2azure__board__apps_2apps_2kalman__filter_2main_2kalman__filter__demo_8cpp.html#a1967e917dafd16b5f02410c5b10c1d90" target="_top" xlink:title="Kalman filter calibration procedure.">
<polygon fill="#fff0f0" stroke="red" points="215,-210 94,-210 94,-190 215,-190 215,-210"/>
<text xml:space="preserve" text-anchor="middle" x="154.5" y="-196.5" font-family="Helvetica,sans-Serif" font-size="10.00">kalman_filter_calibration</text>
</a>
</g>
</g>
<!-- Node3&#45;&gt;Node6 -->
<g id="edge6_Node000003_Node000006" class="edge">
<title>Node3&#45;&gt;Node6</title>
<g id="a_edge6_Node000003_Node000006"><a xlink:title=" ">
<path fill="none" stroke="#63b8ff" d="M239.37,-200C231.45,-200 223.31,-200 215.36,-200"/>
<polygon fill="#63b8ff" stroke="#63b8ff" points="239.26,-203.5 249.26,-200 239.26,-196.5 239.26,-203.5"/>
</a>
</g>
</g>
<!-- Node8 -->
<g id="Node000008" class="node">
<title>Node8</title>
<g id="a_Node000008"><a xlink:href="external__examples_2d1468452_2apps_2kalman__filter_2main_2kalman__filter__demo_8cpp.html#a1967e917dafd16b5f02410c5b10c1d90" target="_top" xlink:title="Kalman filter calibration procedure.">
<polygon fill="#fff0f0" stroke="red" points="215,-172 94,-172 94,-152 215,-152 215,-172"/>
<text xml:space="preserve" text-anchor="middle" x="154.5" y="-158.5" font-family="Helvetica,sans-Serif" font-size="10.00">kalman_filter_calibration</text>
</a>
</g>
</g>
<!-- Node3&#45;&gt;Node8 -->
<g id="edge7_Node000003_Node000008" class="edge">
<title>Node3&#45;&gt;Node8</title>
<g id="a_edge7_Node000003_Node000008"><a xlink:title=" ">
<path fill="none" stroke="#63b8ff" d="M247.42,-186.55C230.08,-181.92 210.93,-176.81 194.62,-172.45"/>
<polygon fill="#63b8ff" stroke="#63b8ff" points="246.48,-189.93 257.04,-189.13 248.28,-183.16 246.48,-189.93"/>
</a>
</g>
</g>
<!-- Node10 -->
<g id="Node000010" class="node">
<title>Node10</title>
<g id="a_Node000010"><a xlink:href="external__examples_2f9c2d4b3_2azure__board__apps_2apps_2kalman__filter_2main_2kalman__filter__demo_8cpp.html#a1967e917dafd16b5f02410c5b10c1d90" target="_top" xlink:title="Kalman filter calibration procedure.">
<polygon fill="#fff0f0" stroke="red" points="215,-134 94,-134 94,-114 215,-114 215,-134"/>
<text xml:space="preserve" text-anchor="middle" x="154.5" y="-120.5" font-family="Helvetica,sans-Serif" font-size="10.00">kalman_filter_calibration</text>
</a>
</g>
</g>
<!-- Node3&#45;&gt;Node10 -->
<g id="edge8_Node000003_Node000010" class="edge">
<title>Node3&#45;&gt;Node10</title>
<g id="a_edge8_Node000003_Node000010"><a xlink:title=" ">
<path fill="none" stroke="#63b8ff" d="M256.61,-184.49C254.67,-183.39 252.79,-182.22 251,-181 231.79,-167.88 234.7,-155.37 215,-143 209.58,-139.6 203.5,-136.75 197.35,-134.39"/>
<polygon fill="#63b8ff" stroke="#63b8ff" points="254.75,-187.48 265.26,-188.85 257.9,-181.22 254.75,-187.48"/>
</a>
</g>
</g>
<!-- Node5&#45;&gt;Node4 -->
<g id="edge5_Node000005_Node000004" class="edge">
<title>Node5&#45;&gt;Node4</title>
<g id="a_edge5_Node000005_Node000004"><a xlink:title=" ">
<path fill="none" stroke="#63b8ff" d="M82.35,-248.95C73.89,-250.25 65.67,-251.51 58.35,-252.64"/>
<polygon fill="#63b8ff" stroke="#63b8ff" points="82.71,-252.43 92.06,-247.45 81.65,-245.51 82.71,-252.43"/>
</a>
</g>
</g>
<!-- Node13 -->
<g id="Node000013" class="node">
<title>Node13</title>
<g id="a_Node000013"><a xlink:href="external__examples_2b00f000e_2applications_2azure__board__apps_2apps_2kalman__filter_2main_2kalman__filter__demo_8cpp.html#af43b34764385f3f1ad35ce1c00db220f" target="_top" xlink:title="Kalman filter RTOS task (or ESP timer callback).">
<polygon fill="white" stroke="#666666" points="346.5,-172 251,-172 251,-152 346.5,-152 346.5,-172"/>
<text xml:space="preserve" text-anchor="middle" x="298.75" y="-158.5" font-family="Helvetica,sans-Serif" font-size="10.00">kalman_filter_task</text>
</a>
</g>
</g>
<!-- Node12&#45;&gt;Node13 -->
<g id="edge10_Node000012_Node000013" class="edge">
<title>Node12&#45;&gt;Node13</title>
<g id="a_edge10_Node000012_Node000013"><a xlink:title=" ">
<path fill="none" stroke="#63b8ff" d="M382.93,-162C370.99,-162 358.38,-162 346.7,-162"/>
<polygon fill="#63b8ff" stroke="#63b8ff" points="382.61,-165.5 392.61,-162 382.61,-158.5 382.61,-165.5"/>
</a>
</g>
</g>
<!-- Node15 -->
<g id="Node000015" class="node">
<title>Node15</title>
<g id="a_Node000015"><a xlink:href="external__examples_2d1468452_2apps_2kalman__filter_2main_2kalman__filter__demo_8cpp.html#af43b34764385f3f1ad35ce1c00db220f" target="_top" xlink:title="Kalman filter RTOS task (or ESP timer callback).">
<polygon fill="white" stroke="#666666" points="346.5,-134 251,-134 251,-114 346.5,-114 346.5,-134"/>
<text xml:space="preserve" text-anchor="middle" x="298.75" y="-120.5" font-family="Helvetica,sans-Serif" font-size="10.00">kalman_filter_task</text>
</a>
</g>
</g>
<!-- Node14&#45;&gt;Node15 -->
<g id="edge12_Node000014_Node000015" class="edge">
<title>Node14&#45;&gt;Node15</title>
<g id="a_edge12_Node000014_Node000015"><a xlink:title=" ">
<path fill="none" stroke="#63b8ff" d="M382.93,-124C370.99,-124 358.38,-124 346.7,-124"/>
<polygon fill="#63b8ff" stroke="#63b8ff" points="382.61,-127.5 392.61,-124 382.61,-120.5 382.61,-127.5"/>
</a>
</g>
</g>
<!-- Node17 -->
<g id="Node000017" class="node">
<title>Node17</title>
<g id="a_Node000017"><a xlink:href="external__examples_2f9c2d4b3_2azure__board__apps_2apps_2kalman__filter_2main_2kalman__filter__demo_8cpp.html#af43b34764385f3f1ad35ce1c00db220f" target="_top" xlink:title="Kalman filter RTOS task (or ESP timer callback).">
<polygon fill="white" stroke="#666666" points="346.5,-96 251,-96 251,-76 346.5,-76 346.5,-96"/>
<text xml:space="preserve" text-anchor="middle" x="298.75" y="-82.5" font-family="Helvetica,sans-Serif" font-size="10.00">kalman_filter_task</text>
</a>
</g>
</g>
<!-- Node16&#45;&gt;Node17 -->
<g id="edge14_Node000016_Node000017" class="edge">
<title>Node16&#45;&gt;Node17</title>
<g id="a_edge14_Node000016_Node000017"><a xlink:title=" ">
<path fill="none" stroke="#63b8ff" d="M382.93,-86C370.99,-86 358.38,-86 346.7,-86"/>
<polygon fill="#63b8ff" stroke="#63b8ff" points="382.61,-89.5 392.61,-86 382.61,-82.5 382.61,-89.5"/>
</a>
</g>
</g>
</g>
</svg>
