<?xml version="1.0" encoding="UTF-8" standalone="no"?>
<!DOCTYPE svg PUBLIC "-//W3C//DTD SVG 1.1//EN"
 "http://www.w3.org/Graphics/SVG/1.1/DTD/svg11.dtd">
<!-- Generated by graphviz version 14.1.2 (20260124.0452)
 -->
<!-- Title: ekf_imu13states::UpdateRefMeasurement Pages: 1 -->
<svg width="536pt" height="218pt"
 viewBox="0.00 0.00 536.00 218.00" xmlns="http://www.w3.org/2000/svg" xmlns:xlink="http://www.w3.org/1999/xlink">
<g id="graph0" class="graph" transform="scale(1 1) rotate(0) translate(4 214)">
<title>ekf_imu13states::UpdateRefMeasurement</title>
<!-- Node1 -->
<g id="Node000001" class="node">
<title>Node1</title>
<g id="a_Node000001"><a xlink:title=" ">
<polygon fill="#999999" stroke="#666666" points="141.25,-121 0,-121 0,-89 141.25,-89 141.25,-121"/>
<text xml:space="preserve" text-anchor="start" x="8" y="-107.5" font-family="Helvetica,sans-Serif" font-size="10.00">ekf_imu13states::UpdateRef</text>
<text xml:space="preserve" text-anchor="middle" x="70.62" y="-95.5" font-family="Helvetica,sans-Serif" font-size="10.00">Measurement</text>
</a>
</g>
</g>
<!-- Node2 -->
<g id="Node000002" class="node">
<title>Node2</title>
<g id="a_Node000002"><a xlink:href="classdspm_1_1_mat.html#a9b11a8f5022e6c54b212bf9af880b670" target="_top" xlink:title=" ">
<polygon fill="white" stroke="#666666" points="269,-210 177.25,-210 177.25,-190 269,-190 269,-210"/>
<text xml:space="preserve" text-anchor="middle" x="223.12" y="-196.5" font-family="Helvetica,sans-Serif" font-size="10.00">dspm::Mat::Copy</text>
</a>
</g>
</g>
<!-- Node1&#45;&gt;Node2 -->
<g id="edge1_Node000001_Node000002" class="edge">
<title>Node1&#45;&gt;Node2</title>
<g id="a_edge1_Node000001_Node000002"><a xlink:title=" ">
<path fill="none" stroke="#63b8ff" d="M91.37,-121.27C111.94,-137.71 145.54,-163.18 177.25,-181 179.7,-182.38 182.27,-183.72 184.89,-185.01"/>
<polygon fill="#63b8ff" stroke="#63b8ff" points="183.16,-188.06 193.71,-189.07 186.09,-181.71 183.16,-188.06"/>
</a>
</g>
</g>
<!-- Node5 -->
<g id="Node000005" class="node">
<title>Node5</title>
<g id="a_Node000005"><a xlink:href="classekf.html#a3affa0048058ee2485dcb28d718be907" target="_top" xlink:title=" ">
<polygon fill="white" stroke="#666666" points="260.75,-172 185.5,-172 185.5,-152 260.75,-152 260.75,-172"/>
<text xml:space="preserve" text-anchor="middle" x="223.12" y="-158.5" font-family="Helvetica,sans-Serif" font-size="10.00">ekf::dFdq_inv</text>
</a>
</g>
</g>
<!-- Node1&#45;&gt;Node5 -->
<g id="edge4_Node000001_Node000005" class="edge">
<title>Node1&#45;&gt;Node5</title>
<g id="a_edge4_Node000001_Node000005"><a xlink:title=" ">
<path fill="none" stroke="#63b8ff" d="M115.16,-121.49C136.94,-129.74 163.06,-139.63 184.04,-147.57"/>
<polygon fill="#63b8ff" stroke="#63b8ff" points="182.79,-150.84 193.38,-151.11 185.27,-144.3 182.79,-150.84"/>
</a>
</g>
</g>
<!-- Node6 -->
<g id="Node000006" class="node">
<title>Node6</title>
<g id="a_Node000006"><a xlink:href="classdspm_1_1_mat.html#a3b4566db0f4ad277e70c09f5e934b91e" target="_top" xlink:title=" ">
<polygon fill="white" stroke="#666666" points="268.25,-134 178,-134 178,-114 268.25,-114 268.25,-134"/>
<text xml:space="preserve" text-anchor="middle" x="223.12" y="-120.5" font-family="Helvetica,sans-Serif" font-size="10.00">dspm::Mat::norm</text>
</a>
</g>
</g>
<!-- Node1&#45;&gt;Node6 -->
<g id="edge5_Node000001_Node000006" class="edge">
<title>Node1&#45;&gt;Node6</title>
<g id="a_edge5_Node000001_Node000006"><a xlink:title=" ">
<path fill="none" stroke="#63b8ff" d="M141.59,-113.83C149.94,-114.89 158.37,-115.95 166.48,-116.97"/>
<polygon fill="#63b8ff" stroke="#63b8ff" points="165.82,-120.42 176.18,-118.2 166.7,-113.47 165.82,-120.42"/>
</a>
</g>
</g>
<!-- Node7 -->
<g id="Node000007" class="node">
<title>Node7</title>
<g id="a_Node000007"><a xlink:href="classekf.html#a535f152864f2732a9888d4f959bd21fa" target="_top" xlink:title=" ">
<polygon fill="white" stroke="#666666" points="262.62,-96 183.62,-96 183.62,-76 262.62,-76 262.62,-96"/>
<text xml:space="preserve" text-anchor="middle" x="223.12" y="-82.5" font-family="Helvetica,sans-Serif" font-size="10.00">ekf::quat2rotm</text>
</a>
</g>
</g>
<!-- Node1&#45;&gt;Node7 -->
<g id="edge6_Node000001_Node000007" class="edge">
<title>Node1&#45;&gt;Node7</title>
<g id="a_edge6_Node000001_Node000007"><a xlink:title=" ">
<path fill="none" stroke="#63b8ff" d="M141.59,-96.17C151.96,-94.86 162.47,-93.53 172.32,-92.29"/>
<polygon fill="#63b8ff" stroke="#63b8ff" points="172.54,-95.79 182.02,-91.06 171.67,-88.84 172.54,-95.79"/>
</a>
</g>
</g>
<!-- Node8 -->
<g id="Node000008" class="node">
<title>Node8</title>
<g id="a_Node000008"><a xlink:href="classdspm_1_1_mat.html#af1013adcb6d601fba7bf788fd52d80b4" target="_top" xlink:title=" ">
<polygon fill="white" stroke="#666666" points="258.88,-58 187.38,-58 187.38,-38 258.88,-38 258.88,-58"/>
<text xml:space="preserve" text-anchor="middle" x="223.12" y="-44.5" font-family="Helvetica,sans-Serif" font-size="10.00">dspm::Mat::t</text>
</a>
</g>
</g>
<!-- Node1&#45;&gt;Node8 -->
<g id="edge7_Node000001_Node000008" class="edge">
<title>Node1&#45;&gt;Node8</title>
<g id="a_edge7_Node000001_Node000008"><a xlink:title=" ">
<path fill="none" stroke="#63b8ff" d="M115.16,-88.51C136.94,-80.26 163.06,-70.37 184.04,-62.43"/>
<polygon fill="#63b8ff" stroke="#63b8ff" points="185.27,-65.7 193.38,-58.89 182.79,-59.16 185.27,-65.7"/>
</a>
</g>
</g>
<!-- Node9 -->
<g id="Node000009" class="node">
<title>Node9</title>
<g id="a_Node000009"><a xlink:href="classekf.html#a7df41e0ecb82824766219aa5f9b0baef" target="_top" xlink:title=" ">
<polygon fill="white" stroke="#666666" points="256.62,-20 189.62,-20 189.62,0 256.62,0 256.62,-20"/>
<text xml:space="preserve" text-anchor="middle" x="223.12" y="-6.5" font-family="Helvetica,sans-Serif" font-size="10.00">ekf::Update</text>
</a>
</g>
</g>
<!-- Node1&#45;&gt;Node9 -->
<g id="edge9_Node000001_Node000009" class="edge">
<title>Node1&#45;&gt;Node9</title>
<g id="a_edge9_Node000001_Node000009"><a xlink:title=" ">
<path fill="none" stroke="#63b8ff" d="M91.37,-88.73C111.94,-72.29 145.54,-46.82 177.25,-29 179.7,-27.62 182.27,-26.28 184.89,-24.99"/>
<polygon fill="#63b8ff" stroke="#63b8ff" points="186.09,-28.29 193.71,-20.93 183.16,-21.94 186.09,-28.29"/>
</a>
</g>
</g>
<!-- Node3 -->
<g id="Node000003" class="node">
<title>Node3</title>
<g id="a_Node000003"><a xlink:href="classdspm_1_1_mat.html#a5eb6987452e618ba8d638a6773a074df" target="_top" xlink:title=" ">
<polygon fill="white" stroke="#666666" points="390,-134 305,-134 305,-114 390,-114 390,-134"/>
<text xml:space="preserve" text-anchor="middle" x="347.5" y="-120.5" font-family="Helvetica,sans-Serif" font-size="10.00">dspm::Mat::Mat</text>
</a>
</g>
</g>
<!-- Node2&#45;&gt;Node3 -->
<g id="edge2_Node000002_Node000003" class="edge">
<title>Node2&#45;&gt;Node3</title>
<g id="a_edge2_Node000002_Node000003"><a xlink:title=" ">
<path fill="none" stroke="#63b8ff" d="M251.67,-189.54C257.51,-186.99 263.56,-184.1 269,-181 289.32,-169.44 310.58,-153.48 325.69,-141.39"/>
<polygon fill="#63b8ff" stroke="#63b8ff" points="327.51,-144.42 333.06,-135.39 323.09,-138.99 327.51,-144.42"/>
</a>
</g>
</g>
<!-- Node4 -->
<g id="Node000004" class="node">
<title>Node4</title>
<g id="a_Node000004"><a xlink:href="classdspm_1_1_mat.html#aa82f099abe2da9662fd06e72056df323" target="_top" xlink:title=" ">
<polygon fill="white" stroke="#666666" points="528.25,-134 426,-134 426,-114 528.25,-114 528.25,-134"/>
<text xml:space="preserve" text-anchor="middle" x="477.12" y="-120.5" font-family="Helvetica,sans-Serif" font-size="10.00">dspm::Mat::allocate</text>
</a>
</g>
</g>
<!-- Node3&#45;&gt;Node4 -->
<g id="edge3_Node000003_Node000004" class="edge">
<title>Node3&#45;&gt;Node4</title>
<g id="a_edge3_Node000003_Node000004"><a xlink:title=" ">
<path fill="none" stroke="#63b8ff" d="M390.29,-124C398,-124 406.19,-124 414.35,-124"/>
<polygon fill="#63b8ff" stroke="#63b8ff" points="414.27,-127.5 424.27,-124 414.27,-120.5 414.27,-127.5"/>
</a>
</g>
</g>
<!-- Node8&#45;&gt;Node3 -->
<g id="edge8_Node000008_Node000003" class="edge">
<title>Node8&#45;&gt;Node3</title>
<g id="a_edge8_Node000008_Node000003"><a xlink:title=" ">
<path fill="none" stroke="#63b8ff" d="M251.67,-58.46C257.51,-61.01 263.56,-63.9 269,-67 289.32,-78.56 310.58,-94.52 325.69,-106.61"/>
<polygon fill="#63b8ff" stroke="#63b8ff" points="323.09,-109.01 333.06,-112.61 327.51,-103.58 323.09,-109.01"/>
</a>
</g>
</g>
</g>
</svg>
