<?xml version="1.0" encoding="UTF-8" standalone="no"?>
<!DOCTYPE svg PUBLIC "-//W3C//DTD SVG 1.1//EN"
 "http://www.w3.org/Graphics/SVG/1.1/DTD/svg11.dtd">
<!-- Generated by graphviz version 14.1.2 (20260124.0452)
 -->
<!-- Title: ekf::StateXdot Pages: 1 -->
<svg width="482pt" height="28pt"
 viewBox="0.00 0.00 482.00 28.00" xmlns="http://www.w3.org/2000/svg" xmlns:xlink="http://www.w3.org/1999/xlink">
<g id="graph0" class="graph" transform="scale(1 1) rotate(0) translate(4 24)">
<title>ekf::StateXdot</title>
<!-- Node1 -->
<g id="Node000001" class="node">
<title>Node1</title>
<g id="a_Node000001"><a xlink:title=" ">
<polygon fill="#999999" stroke="#666666" points="474.25,-20 395.25,-20 395.25,0 474.25,0 474.25,-20"/>
<text xml:space="preserve" text-anchor="middle" x="434.75" y="-6.5" font-family="Helvetica,sans-Serif" font-size="10.00">ekf::StateXdot</text>
</a>
</g>
</g>
<!-- Node2 -->
<g id="Node000002" class="node">
<title>Node2</title>
<g id="a_Node000002"><a xlink:href="classekf.html#a8f28807c86b11b95cc95bd514e65ea61" target="_top" xlink:title=" ">
<polygon fill="white" stroke="#666666" points="359.25,-20 272,-20 272,0 359.25,0 359.25,-20"/>
<text xml:space="preserve" text-anchor="middle" x="315.62" y="-6.5" font-family="Helvetica,sans-Serif" font-size="10.00">ekf::RungeKutta</text>
</a>
</g>
</g>
<!-- Node1&#45;&gt;Node2 -->
<g id="edge1_Node000001_Node000002" class="edge">
<title>Node1&#45;&gt;Node2</title>
<g id="a_edge1_Node000001_Node000002"><a xlink:title=" ">
<path fill="none" stroke="#63b8ff" d="M383.63,-10C375.67,-10 367.49,-10 359.71,-10"/>
<polygon fill="#63b8ff" stroke="#63b8ff" points="383.56,-13.5 393.56,-10 383.56,-6.5 383.56,-13.5"/>
</a>
</g>
</g>
<!-- Node3 -->
<g id="Node000003" class="node">
<title>Node3</title>
<g id="a_Node000003"><a xlink:href="classekf.html#a42ee022dba96611bf76d0d29bf964323" target="_top" xlink:title=" ">
<polygon fill="white" stroke="#666666" points="236,-20 164.5,-20 164.5,0 236,0 236,-20"/>
<text xml:space="preserve" text-anchor="middle" x="200.25" y="-6.5" font-family="Helvetica,sans-Serif" font-size="10.00">ekf::Process</text>
</a>
</g>
</g>
<!-- Node2&#45;&gt;Node3 -->
<g id="edge2_Node000002_Node000003" class="edge">
<title>Node2&#45;&gt;Node3</title>
<g id="a_edge2_Node000002_Node000003"><a xlink:title=" ">
<path fill="none" stroke="#63b8ff" d="M260.37,-10C252.23,-10 244.02,-10 236.42,-10"/>
<polygon fill="#63b8ff" stroke="#63b8ff" points="260.25,-13.5 270.25,-10 260.25,-6.5 260.25,-13.5"/>
</a>
</g>
</g>
<!-- Node4 -->
<g id="Node000004" class="node">
<title>Node4</title>
<g id="a_Node000004"><a xlink:href="classekf__imu13states.html#a7f315abd38007e57247edc0967d688f7" target="_top" xlink:title=" ">
<polygon fill="white" stroke="#666666" points="128.5,-20 0,-20 0,0 128.5,0 128.5,-20"/>
<text xml:space="preserve" text-anchor="middle" x="64.25" y="-6.5" font-family="Helvetica,sans-Serif" font-size="10.00">ekf_imu13states::TestFull</text>
</a>
</g>
</g>
<!-- Node3&#45;&gt;Node4 -->
<g id="edge3_Node000003_Node000004" class="edge">
<title>Node3&#45;&gt;Node4</title>
<g id="a_edge3_Node000003_Node000004"><a xlink:title=" ">
<path fill="none" stroke="#63b8ff" d="M152.76,-10C145.08,-10 137,-10 128.99,-10"/>
<polygon fill="#63b8ff" stroke="#63b8ff" points="152.53,-13.5 162.53,-10 152.53,-6.5 152.53,-13.5"/>
</a>
</g>
</g>
</g>
</svg>
