<?xml version="1.0" encoding="UTF-8" standalone="no"?>
<!DOCTYPE svg PUBLIC "-//W3C//DTD SVG 1.1//EN"
 "http://www.w3.org/Graphics/SVG/1.1/DTD/svg11.dtd">
<!-- Generated by graphviz version 14.1.2 (20260124.0452)
 -->
<!-- Title: dspm::Mat::getROI Pages: 1 -->
<svg width="503pt" height="65pt"
 viewBox="0.00 0.00 503.00 65.00" xmlns="http://www.w3.org/2000/svg" xmlns:xlink="http://www.w3.org/1999/xlink">
<g id="graph0" class="graph" transform="scale(1 1) rotate(0) translate(4 61)">
<title>dspm::Mat::getROI</title>
<!-- Node1 -->
<g id="Node000001" class="node">
<title>Node1</title>
<g id="a_Node000001"><a xlink:title="Create a subset of matrix as ROI (Region of Interest).">
<polygon fill="#999999" stroke="#666666" points="100,-20 0,-20 0,0 100,0 100,-20"/>
<text xml:space="preserve" text-anchor="middle" x="50" y="-6.5" font-family="Helvetica,sans-Serif" font-size="10.00">dspm::Mat::getROI</text>
</a>
</g>
</g>
<!-- Node2 -->
<g id="Node000002" class="node">
<title>Node2</title>
<g id="a_Node000002"><a xlink:href="classdspm_1_1_mat.html#aa70caf8f197878395a4a8324c2bd6594" target="_top" xlink:title="Create a subset of matrix as ROI (Region of Interest).">
<polygon fill="white" stroke="#666666" points="236,-39 136,-39 136,-19 236,-19 236,-39"/>
<text xml:space="preserve" text-anchor="middle" x="186" y="-25.5" font-family="Helvetica,sans-Serif" font-size="10.00">dspm::Mat::getROI</text>
</a>
</g>
</g>
<!-- Node1&#45;&gt;Node2 -->
<g id="edge1_Node000001_Node000002" class="edge">
<title>Node1&#45;&gt;Node2</title>
<g id="a_edge1_Node000001_Node000002"><a xlink:title=" ">
<path fill="none" stroke="#63b8ff" d="M100.14,-16.97C108.06,-18.09 116.33,-19.26 124.48,-20.42"/>
<polygon fill="#63b8ff" stroke="#63b8ff" points="123.98,-23.88 134.37,-21.82 124.96,-16.95 123.98,-23.88"/>
</a>
</g>
</g>
<!-- Node3 -->
<g id="Node000003" class="node">
<title>Node3</title>
<g id="a_Node000003"><a xlink:href="classdspm_1_1_mat.html#a5eb6987452e618ba8d638a6773a074df" target="_top" xlink:title=" ">
<polygon fill="white" stroke="#666666" points="357,-20 272,-20 272,0 357,0 357,-20"/>
<text xml:space="preserve" text-anchor="middle" x="314.5" y="-6.5" font-family="Helvetica,sans-Serif" font-size="10.00">dspm::Mat::Mat</text>
</a>
</g>
</g>
<!-- Node1&#45;&gt;Node3 -->
<g id="edge5_Node000001_Node000003" class="edge">
<title>Node1&#45;&gt;Node3</title>
<g id="a_edge5_Node000001_Node000003"><a xlink:title=" ">
<path fill="none" stroke="#63b8ff" d="M100.37,-10C145.97,-10 213.5,-10 260.28,-10"/>
<polygon fill="#63b8ff" stroke="#63b8ff" points="260.19,-13.5 270.19,-10 260.19,-6.5 260.19,-13.5"/>
</a>
</g>
</g>
<!-- Node2&#45;&gt;Node2 -->
<g id="edge2_Node000002_Node000002" class="edge">
<title>Node2&#45;&gt;Node2</title>
<g id="a_edge2_Node000002_Node000002"><a xlink:title=" ">
<path fill="none" stroke="#63b8ff" d="M165.58,-39.34C156.86,-47.98 163.66,-57 186,-57 198.22,-57 205.79,-54.3 208.71,-50.44"/>
<polygon fill="#63b8ff" stroke="#63b8ff" points="212.17,-49.91 206.72,-40.82 205.32,-51.32 212.17,-49.91"/>
</a>
</g>
</g>
<!-- Node2&#45;&gt;Node3 -->
<g id="edge3_Node000002_Node000003" class="edge">
<title>Node2&#45;&gt;Node3</title>
<g id="a_edge3_Node000002_Node000003"><a xlink:title=" ">
<path fill="none" stroke="#63b8ff" d="M236.27,-21.6C244.19,-20.41 252.42,-19.17 260.43,-17.97"/>
<polygon fill="#63b8ff" stroke="#63b8ff" points="260.68,-21.47 270.05,-16.53 259.64,-14.55 260.68,-21.47"/>
</a>
</g>
</g>
<!-- Node4 -->
<g id="Node000004" class="node">
<title>Node4</title>
<g id="a_Node000004"><a xlink:href="classdspm_1_1_mat.html#aa82f099abe2da9662fd06e72056df323" target="_top" xlink:title=" ">
<polygon fill="white" stroke="#666666" points="495.25,-20 393,-20 393,0 495.25,0 495.25,-20"/>
<text xml:space="preserve" text-anchor="middle" x="444.12" y="-6.5" font-family="Helvetica,sans-Serif" font-size="10.00">dspm::Mat::allocate</text>
</a>
</g>
</g>
<!-- Node3&#45;&gt;Node4 -->
<g id="edge4_Node000003_Node000004" class="edge">
<title>Node3&#45;&gt;Node4</title>
<g id="a_edge4_Node000003_Node000004"><a xlink:title=" ">
<path fill="none" stroke="#63b8ff" d="M357.29,-10C365,-10 373.19,-10 381.35,-10"/>
<polygon fill="#63b8ff" stroke="#63b8ff" points="381.27,-13.5 391.27,-10 381.27,-6.5 381.27,-13.5"/>
</a>
</g>
</g>
</g>
</svg>
