<?xml version="1.0" encoding="UTF-8" standalone="no"?>
<!DOCTYPE svg PUBLIC "-//W3C//DTD SVG 1.1//EN"
 "http://www.w3.org/Graphics/SVG/1.1/DTD/svg11.dtd">
<!-- Generated by graphviz version 14.1.2 (20260124.0452)
 -->
<!-- Title: ekf_imu13states::LinearizeFG Pages: 1 -->
<svg width="546pt" height="180pt"
 viewBox="0.00 0.00 546.00 180.00" xmlns="http://www.w3.org/2000/svg" xmlns:xlink="http://www.w3.org/1999/xlink">
<g id="graph0" class="graph" transform="scale(1 1) rotate(0) translate(4 176)">
<title>ekf_imu13states::LinearizeFG</title>
<!-- Node1 -->
<g id="Node000001" class="node">
<title>Node1</title>
<g id="a_Node000001"><a xlink:title=" ">
<polygon fill="#999999" stroke="#666666" points="146.5,-96 0,-96 0,-76 146.5,-76 146.5,-96"/>
<text xml:space="preserve" text-anchor="middle" x="73.25" y="-82.5" font-family="Helvetica,sans-Serif" font-size="10.00">ekf_imu13states::LinearizeFG</text>
</a>
</g>
</g>
<!-- Node2 -->
<g id="Node000002" class="node">
<title>Node2</title>
<g id="a_Node000002"><a xlink:href="classdspm_1_1_mat.html#a7502c6d836d1ae05f6880620c1a832b5" target="_top" xlink:title=" ">
<polygon fill="white" stroke="#666666" points="272.75,-172 188.5,-172 188.5,-152 272.75,-152 272.75,-172"/>
<text xml:space="preserve" text-anchor="middle" x="230.62" y="-158.5" font-family="Helvetica,sans-Serif" font-size="10.00">dspm::Mat::eye</text>
</a>
</g>
</g>
<!-- Node1&#45;&gt;Node2 -->
<g id="edge1_Node000001_Node000002" class="edge">
<title>Node1&#45;&gt;Node2</title>
<g id="a_edge1_Node000001_Node000002"><a xlink:title=" ">
<path fill="none" stroke="#63b8ff" d="M92.73,-96.47C114.06,-108.37 150.32,-128.09 182.5,-143 185.6,-144.44 188.84,-145.87 192.11,-147.28"/>
<polygon fill="#63b8ff" stroke="#63b8ff" points="190.54,-150.41 201.11,-151.03 193.23,-143.95 190.54,-150.41"/>
</a>
</g>
</g>
<!-- Node5 -->
<g id="Node000005" class="node">
<title>Node5</title>
<g id="a_Node000005"><a xlink:href="classdspm_1_1_mat.html#a025beb99e548d50925c88c65272b021e" target="_top" xlink:title=" ">
<polygon fill="white" stroke="#666666" points="272.75,-134 188.5,-134 188.5,-114 272.75,-114 272.75,-134"/>
<text xml:space="preserve" text-anchor="middle" x="230.62" y="-120.5" font-family="Helvetica,sans-Serif" font-size="10.00">dspm::Mat::Get</text>
</a>
</g>
</g>
<!-- Node1&#45;&gt;Node5 -->
<g id="edge4_Node000001_Node000005" class="edge">
<title>Node1&#45;&gt;Node5</title>
<g id="a_edge4_Node000001_Node000005"><a xlink:title=" ">
<path fill="none" stroke="#63b8ff" d="M117.12,-96.48C135.66,-101.02 157.55,-106.37 177.06,-111.15"/>
<polygon fill="#63b8ff" stroke="#63b8ff" points="176.22,-114.54 186.77,-113.52 177.88,-107.74 176.22,-114.54"/>
</a>
</g>
</g>
<!-- Node6 -->
<g id="Node000006" class="node">
<title>Node6</title>
<g id="a_Node000006"><a xlink:href="classekf.html#ac8d09350d77dfdc0525b1fd72333fa3e" target="_top" xlink:title=" ">
<polygon fill="white" stroke="#666666" points="267.88,-96 193.38,-96 193.38,-76 267.88,-76 267.88,-96"/>
<text xml:space="preserve" text-anchor="middle" x="230.62" y="-82.5" font-family="Helvetica,sans-Serif" font-size="10.00">ekf::qProduct</text>
</a>
</g>
</g>
<!-- Node1&#45;&gt;Node6 -->
<g id="edge6_Node000001_Node000006" class="edge">
<title>Node1&#45;&gt;Node6</title>
<g id="a_edge6_Node000001_Node000006"><a xlink:title=" ">
<path fill="none" stroke="#63b8ff" d="M146.93,-86C158.65,-86 170.52,-86 181.47,-86"/>
<polygon fill="#63b8ff" stroke="#63b8ff" points="181.42,-89.5 191.42,-86 181.42,-82.5 181.42,-89.5"/>
</a>
</g>
</g>
<!-- Node7 -->
<g id="Node000007" class="node">
<title>Node7</title>
<g id="a_Node000007"><a xlink:href="classekf.html#a535f152864f2732a9888d4f959bd21fa" target="_top" xlink:title=" ">
<polygon fill="white" stroke="#666666" points="270.12,-58 191.12,-58 191.12,-38 270.12,-38 270.12,-58"/>
<text xml:space="preserve" text-anchor="middle" x="230.62" y="-44.5" font-family="Helvetica,sans-Serif" font-size="10.00">ekf::quat2rotm</text>
</a>
</g>
</g>
<!-- Node1&#45;&gt;Node7 -->
<g id="edge7_Node000001_Node000007" class="edge">
<title>Node1&#45;&gt;Node7</title>
<g id="a_edge7_Node000001_Node000007"><a xlink:title=" ">
<path fill="none" stroke="#63b8ff" d="M117.12,-75.52C136.51,-70.77 159.54,-65.14 179.7,-60.21"/>
<polygon fill="#63b8ff" stroke="#63b8ff" points="180.53,-63.61 189.41,-57.84 178.86,-56.81 180.53,-63.61"/>
</a>
</g>
</g>
<!-- Node8 -->
<g id="Node000008" class="node">
<title>Node8</title>
<g id="a_Node000008"><a xlink:href="classekf.html#aeca3bb4b4c62c2e5aa7728abb652d7b5" target="_top" xlink:title=" ">
<polygon fill="white" stroke="#666666" points="278.75,-20 182.5,-20 182.5,0 278.75,0 278.75,-20"/>
<text xml:space="preserve" text-anchor="middle" x="230.62" y="-6.5" font-family="Helvetica,sans-Serif" font-size="10.00">ekf::SkewSym4x4</text>
</a>
</g>
</g>
<!-- Node1&#45;&gt;Node8 -->
<g id="edge8_Node000001_Node000008" class="edge">
<title>Node1&#45;&gt;Node8</title>
<g id="a_edge8_Node000001_Node000008"><a xlink:title=" ">
<path fill="none" stroke="#63b8ff" d="M92.73,-75.53C114.06,-63.63 150.32,-43.91 182.5,-29 185.6,-27.56 188.84,-26.13 192.11,-24.72"/>
<polygon fill="#63b8ff" stroke="#63b8ff" points="193.23,-28.05 201.11,-20.97 190.54,-21.59 193.23,-28.05"/>
</a>
</g>
</g>
<!-- Node3 -->
<g id="Node000003" class="node">
<title>Node3</title>
<g id="a_Node000003"><a xlink:href="classdspm_1_1_mat.html#a5eb6987452e618ba8d638a6773a074df" target="_top" xlink:title=" ">
<polygon fill="white" stroke="#666666" points="399.75,-153 314.75,-153 314.75,-133 399.75,-133 399.75,-153"/>
<text xml:space="preserve" text-anchor="middle" x="357.25" y="-139.5" font-family="Helvetica,sans-Serif" font-size="10.00">dspm::Mat::Mat</text>
</a>
</g>
</g>
<!-- Node2&#45;&gt;Node3 -->
<g id="edge2_Node000002_Node000003" class="edge">
<title>Node2&#45;&gt;Node3</title>
<g id="a_edge2_Node000002_Node000003"><a xlink:title=" ">
<path fill="none" stroke="#63b8ff" d="M273.12,-155.67C282.8,-154.2 293.22,-152.61 303.31,-151.07"/>
<polygon fill="#63b8ff" stroke="#63b8ff" points="303.65,-154.56 313.01,-149.59 302.6,-147.64 303.65,-154.56"/>
</a>
</g>
</g>
<!-- Node4 -->
<g id="Node000004" class="node">
<title>Node4</title>
<g id="a_Node000004"><a xlink:href="classdspm_1_1_mat.html#aa82f099abe2da9662fd06e72056df323" target="_top" xlink:title=" ">
<polygon fill="white" stroke="#666666" points="538,-153 435.75,-153 435.75,-133 538,-133 538,-153"/>
<text xml:space="preserve" text-anchor="middle" x="486.88" y="-139.5" font-family="Helvetica,sans-Serif" font-size="10.00">dspm::Mat::allocate</text>
</a>
</g>
</g>
<!-- Node3&#45;&gt;Node4 -->
<g id="edge3_Node000003_Node000004" class="edge">
<title>Node3&#45;&gt;Node4</title>
<g id="a_edge3_Node000003_Node000004"><a xlink:title=" ">
<path fill="none" stroke="#63b8ff" d="M400.04,-143C407.75,-143 415.94,-143 424.1,-143"/>
<polygon fill="#63b8ff" stroke="#63b8ff" points="424.02,-146.5 434.02,-143 424.02,-139.5 424.02,-146.5"/>
</a>
</g>
</g>
<!-- Node5&#45;&gt;Node3 -->
<g id="edge5_Node000005_Node000003" class="edge">
<title>Node5&#45;&gt;Node3</title>
<g id="a_edge5_Node000005_Node000003"><a xlink:title=" ">
<path fill="none" stroke="#63b8ff" d="M273.12,-130.33C282.8,-131.8 293.22,-133.39 303.31,-134.93"/>
<polygon fill="#63b8ff" stroke="#63b8ff" points="302.6,-138.36 313.01,-136.41 303.65,-131.44 302.6,-138.36"/>
</a>
</g>
</g>
</g>
</svg>
