<?xml version="1.0" encoding="UTF-8" standalone="no"?>
<!DOCTYPE svg PUBLIC "-//W3C//DTD SVG 1.1//EN"
 "http://www.w3.org/Graphics/SVG/1.1/DTD/svg11.dtd">
<!-- Generated by graphviz version 14.1.2 (20260124.0452)
 -->
<!-- Title: ekf_imu13states::Init Pages: 1 -->
<svg width="495pt" height="28pt"
 viewBox="0.00 0.00 495.00 28.00" xmlns="http://www.w3.org/2000/svg" xmlns:xlink="http://www.w3.org/1999/xlink">
<g id="graph0" class="graph" transform="scale(1 1) rotate(0) translate(4 24)">
<title>ekf_imu13states::Init</title>
<!-- Node1 -->
<g id="Node000001" class="node">
<title>Node1</title>
<g id="a_Node000001"><a xlink:title=" ">
<polygon fill="#999999" stroke="#666666" points="107.5,-20 0,-20 0,0 107.5,0 107.5,-20"/>
<text xml:space="preserve" text-anchor="middle" x="53.75" y="-6.5" font-family="Helvetica,sans-Serif" font-size="10.00">ekf_imu13states::Init</text>
</a>
</g>
</g>
<!-- Node2 -->
<g id="Node000002" class="node">
<title>Node2</title>
<g id="a_Node000002"><a xlink:href="classdspm_1_1_mat.html#a7502c6d836d1ae05f6880620c1a832b5" target="_top" xlink:title=" ">
<polygon fill="white" stroke="#666666" points="227.75,-20 143.5,-20 143.5,0 227.75,0 227.75,-20"/>
<text xml:space="preserve" text-anchor="middle" x="185.62" y="-6.5" font-family="Helvetica,sans-Serif" font-size="10.00">dspm::Mat::eye</text>
</a>
</g>
</g>
<!-- Node1&#45;&gt;Node2 -->
<g id="edge1_Node000001_Node000002" class="edge">
<title>Node1&#45;&gt;Node2</title>
<g id="a_edge1_Node000001_Node000002"><a xlink:title=" ">
<path fill="none" stroke="#63b8ff" d="M107.95,-10C115.86,-10 124,-10 131.9,-10"/>
<polygon fill="#63b8ff" stroke="#63b8ff" points="131.72,-13.5 141.72,-10 131.72,-6.5 131.72,-13.5"/>
</a>
</g>
</g>
<!-- Node3 -->
<g id="Node000003" class="node">
<title>Node3</title>
<g id="a_Node000003"><a xlink:href="classdspm_1_1_mat.html#a5eb6987452e618ba8d638a6773a074df" target="_top" xlink:title=" ">
<polygon fill="white" stroke="#666666" points="348.75,-20 263.75,-20 263.75,0 348.75,0 348.75,-20"/>
<text xml:space="preserve" text-anchor="middle" x="306.25" y="-6.5" font-family="Helvetica,sans-Serif" font-size="10.00">dspm::Mat::Mat</text>
</a>
</g>
</g>
<!-- Node2&#45;&gt;Node3 -->
<g id="edge2_Node000002_Node000003" class="edge">
<title>Node2&#45;&gt;Node3</title>
<g id="a_edge2_Node000002_Node000003"><a xlink:title=" ">
<path fill="none" stroke="#63b8ff" d="M228.11,-10C235.93,-10 244.19,-10 252.3,-10"/>
<polygon fill="#63b8ff" stroke="#63b8ff" points="252.07,-13.5 262.07,-10 252.07,-6.5 252.07,-13.5"/>
</a>
</g>
</g>
<!-- Node4 -->
<g id="Node000004" class="node">
<title>Node4</title>
<g id="a_Node000004"><a xlink:href="classdspm_1_1_mat.html#aa82f099abe2da9662fd06e72056df323" target="_top" xlink:title=" ">
<polygon fill="white" stroke="#666666" points="487,-20 384.75,-20 384.75,0 487,0 487,-20"/>
<text xml:space="preserve" text-anchor="middle" x="435.88" y="-6.5" font-family="Helvetica,sans-Serif" font-size="10.00">dspm::Mat::allocate</text>
</a>
</g>
</g>
<!-- Node3&#45;&gt;Node4 -->
<g id="edge3_Node000003_Node000004" class="edge">
<title>Node3&#45;&gt;Node4</title>
<g id="a_edge3_Node000003_Node000004"><a xlink:title=" ">
<path fill="none" stroke="#63b8ff" d="M349.04,-10C356.75,-10 364.94,-10 373.1,-10"/>
<polygon fill="#63b8ff" stroke="#63b8ff" points="373.02,-13.5 383.02,-10 373.02,-6.5 373.02,-13.5"/>
</a>
</g>
</g>
</g>
</svg>
