<?xml version="1.0" encoding="UTF-8" standalone="no"?>
<!DOCTYPE svg PUBLIC "-//W3C//DTD SVG 1.1//EN"
 "http://www.w3.org/Graphics/SVG/1.1/DTD/svg11.dtd">
<!-- Generated by graphviz version 14.1.2 (20260124.0452)
 -->
<!-- Title: dspm::Mat::cofactor Pages: 1 -->
<svg width="381pt" height="28pt"
 viewBox="0.00 0.00 381.00 28.00" xmlns="http://www.w3.org/2000/svg" xmlns:xlink="http://www.w3.org/1999/xlink">
<g id="graph0" class="graph" transform="scale(1 1) rotate(0) translate(4 24)">
<title>dspm::Mat::cofactor</title>
<!-- Node1 -->
<g id="Node000001" class="node">
<title>Node1</title>
<g id="a_Node000001"><a xlink:title=" ">
<polygon fill="#999999" stroke="#666666" points="372.75,-20 269,-20 269,0 372.75,0 372.75,-20"/>
<text xml:space="preserve" text-anchor="middle" x="320.88" y="-6.5" font-family="Helvetica,sans-Serif" font-size="10.00">dspm::Mat::cofactor</text>
</a>
</g>
</g>
<!-- Node2 -->
<g id="Node000002" class="node">
<title>Node2</title>
<g id="a_Node000002"><a xlink:href="classdspm_1_1_mat.html#a2944f7de712a8ebe6cbbb68b08372ead" target="_top" xlink:title=" ">
<polygon fill="white" stroke="#666666" points="233,-20 136,-20 136,0 233,0 233,-20"/>
<text xml:space="preserve" text-anchor="middle" x="184.5" y="-6.5" font-family="Helvetica,sans-Serif" font-size="10.00">dspm::Mat::adjoint</text>
</a>
</g>
</g>
<!-- Node1&#45;&gt;Node2 -->
<g id="edge1_Node000001_Node000002" class="edge">
<title>Node1&#45;&gt;Node2</title>
<g id="a_edge1_Node000001_Node000002"><a xlink:title=" ">
<path fill="none" stroke="#63b8ff" d="M257.41,-10C249.36,-10 241.22,-10 233.45,-10"/>
<polygon fill="#63b8ff" stroke="#63b8ff" points="257.18,-13.5 267.18,-10 257.18,-6.5 257.18,-13.5"/>
</a>
</g>
</g>
<!-- Node3 -->
<g id="Node000003" class="node">
<title>Node3</title>
<g id="a_Node000003"><a xlink:href="classdspm_1_1_mat.html#af5c78c8f94cf90af1c9a8bfe9ac4209f" target="_top" xlink:title=" ">
<polygon fill="white" stroke="#666666" points="100,-20 0,-20 0,0 100,0 100,-20"/>
<text xml:space="preserve" text-anchor="middle" x="50" y="-6.5" font-family="Helvetica,sans-Serif" font-size="10.00">dspm::Mat::inverse</text>
</a>
</g>
</g>
<!-- Node2&#45;&gt;Node3 -->
<g id="edge2_Node000002_Node000003" class="edge">
<title>Node2&#45;&gt;Node3</title>
<g id="a_edge2_Node000002_Node000003"><a xlink:title=" ">
<path fill="none" stroke="#63b8ff" d="M124.35,-10C116.25,-10 108,-10 100.1,-10"/>
<polygon fill="#63b8ff" stroke="#63b8ff" points="124.15,-13.5 134.15,-10 124.15,-6.5 124.15,-13.5"/>
</a>
</g>
</g>
</g>
</svg>
