<?xml version="1.0" encoding="UTF-8" standalone="no"?>
<!DOCTYPE svg PUBLIC "-//W3C//DTD SVG 1.1//EN"
 "http://www.w3.org/Graphics/SVG/1.1/DTD/svg11.dtd">
<!-- Generated by graphviz version 14.1.2 (20260124.0452)
 -->
<!-- Title: dspm::Mat::pinv Pages: 1 -->
<svg width="691pt" height="244pt"
 viewBox="0.00 0.00 691.00 244.00" xmlns="http://www.w3.org/2000/svg" xmlns:xlink="http://www.w3.org/1999/xlink">
<g id="graph0" class="graph" transform="scale(1 1) rotate(0) translate(4 240.48)">
<title>dspm::Mat::pinv</title>
<!-- Node1 -->
<g id="Node000001" class="node">
<title>Node1</title>
<g id="a_Node000001"><a xlink:title=" ">
<polygon fill="#999999" stroke="#666666" points="86.5,-160.48 0,-160.48 0,-140.48 86.5,-140.48 86.5,-160.48"/>
<text xml:space="preserve" text-anchor="middle" x="43.25" y="-146.98" font-family="Helvetica,sans-Serif" font-size="10.00">dspm::Mat::pinv</text>
</a>
</g>
</g>
<!-- Node2 -->
<g id="Node000002" class="node">
<title>Node2</title>
<g id="a_Node000002"><a xlink:href="classdspm_1_1_mat.html#ad6b5781e65c612fa063313333abad614" target="_top" xlink:title="Augmented matrices.">
<polygon fill="white" stroke="#666666" points="418.12,-236.48 312.12,-236.48 312.12,-216.48 418.12,-216.48 418.12,-236.48"/>
<text xml:space="preserve" text-anchor="middle" x="365.12" y="-222.98" font-family="Helvetica,sans-Serif" font-size="10.00">dspm::Mat::augment</text>
</a>
</g>
</g>
<!-- Node1&#45;&gt;Node2 -->
<g id="edge1_Node000001_Node000002" class="edge">
<title>Node1&#45;&gt;Node2</title>
<g id="a_edge1_Node000001_Node000002"><a xlink:title=" ">
<path fill="none" stroke="#63b8ff" d="M55.71,-160.77C70.14,-173.05 96.23,-193.11 122.5,-202.48 180.33,-223.12 250.57,-228.04 300.38,-228.45"/>
<polygon fill="#63b8ff" stroke="#63b8ff" points="300.11,-231.95 310.12,-228.47 300.13,-224.95 300.11,-231.95"/>
</a>
</g>
</g>
<!-- Node3 -->
<g id="Node000003" class="node">
<title>Node3</title>
<g id="a_Node000003"><a xlink:href="classdspm_1_1_mat.html#a5eb6987452e618ba8d638a6773a074df" target="_top" xlink:title=" ">
<polygon fill="white" stroke="#666666" points="544.75,-141.48 459.75,-141.48 459.75,-121.48 544.75,-121.48 544.75,-141.48"/>
<text xml:space="preserve" text-anchor="middle" x="502.25" y="-127.98" font-family="Helvetica,sans-Serif" font-size="10.00">dspm::Mat::Mat</text>
</a>
</g>
</g>
<!-- Node1&#45;&gt;Node3 -->
<g id="edge11_Node000001_Node000003" class="edge">
<title>Node1&#45;&gt;Node3</title>
<g id="a_edge11_Node000001_Node000003"><a xlink:title=" ">
<path fill="none" stroke="#63b8ff" d="M79.37,-160.9C92.74,-164.36 108.2,-167.77 122.5,-169.48 255.63,-185.41 292.09,-178.84 423.75,-153.48 435.08,-151.3 447.16,-148.24 458.32,-145.09"/>
<polygon fill="#63b8ff" stroke="#63b8ff" points="459.05,-148.53 467.67,-142.37 457.09,-141.81 459.05,-148.53"/>
</a>
</g>
</g>
<!-- Node5 -->
<g id="Node000005" class="node">
<title>Node5</title>
<g id="a_Node000005"><a xlink:href="classdspm_1_1_mat.html#a7502c6d836d1ae05f6880620c1a832b5" target="_top" xlink:title=" ">
<polygon fill="white" stroke="#666666" points="238.62,-160.48 154.38,-160.48 154.38,-140.48 238.62,-140.48 238.62,-160.48"/>
<text xml:space="preserve" text-anchor="middle" x="196.5" y="-146.98" font-family="Helvetica,sans-Serif" font-size="10.00">dspm::Mat::eye</text>
</a>
</g>
</g>
<!-- Node1&#45;&gt;Node5 -->
<g id="edge4_Node000001_Node000005" class="edge">
<title>Node1&#45;&gt;Node5</title>
<g id="a_edge4_Node000001_Node000005"><a xlink:title=" ">
<path fill="none" stroke="#63b8ff" d="M86.78,-150.48C104.14,-150.48 124.39,-150.48 142.68,-150.48"/>
<polygon fill="#63b8ff" stroke="#63b8ff" points="142.55,-153.98 152.55,-150.48 142.55,-146.98 142.55,-153.98"/>
</a>
</g>
</g>
<!-- Node6 -->
<g id="Node000006" class="node">
<title>Node6</title>
<g id="a_Node000006"><a xlink:href="classdspm_1_1_mat.html#ac5482cf5daed6c1f7f66639913d71b39" target="_top" xlink:title="Gaussian Elimination.">
<polygon fill="white" stroke="#666666" points="270.5,-106.48 122.5,-106.48 122.5,-86.48 270.5,-86.48 270.5,-106.48"/>
<text xml:space="preserve" text-anchor="middle" x="196.5" y="-92.98" font-family="Helvetica,sans-Serif" font-size="10.00">dspm::Mat::gaussianEliminate</text>
</a>
</g>
</g>
<!-- Node1&#45;&gt;Node6 -->
<g id="edge6_Node000001_Node000006" class="edge">
<title>Node1&#45;&gt;Node6</title>
<g id="a_edge6_Node000001_Node000006"><a xlink:title=" ">
<path fill="none" stroke="#63b8ff" d="M73.41,-140.07C96.77,-131.73 129.79,-119.94 155.6,-110.73"/>
<polygon fill="#63b8ff" stroke="#63b8ff" points="156.5,-114.12 164.74,-107.46 154.15,-107.53 156.5,-114.12"/>
</a>
</g>
</g>
<!-- Node9 -->
<g id="Node000009" class="node">
<title>Node9</title>
<g id="a_Node000009"><a xlink:href="classdspm_1_1_mat.html#a1e7cd45e323d85d2025a9ad1d79b62f0" target="_top" xlink:title=" ">
<polygon fill="white" stroke="#666666" points="266.75,-52.48 126.25,-52.48 126.25,-20.48 266.75,-20.48 266.75,-52.48"/>
<text xml:space="preserve" text-anchor="start" x="134.25" y="-38.98" font-family="Helvetica,sans-Serif" font-size="10.00">dspm::Mat::rowReduceFrom</text>
<text xml:space="preserve" text-anchor="middle" x="196.5" y="-26.98" font-family="Helvetica,sans-Serif" font-size="10.00">Gaussian</text>
</a>
</g>
</g>
<!-- Node1&#45;&gt;Node9 -->
<g id="edge12_Node000001_Node000009" class="edge">
<title>Node1&#45;&gt;Node9</title>
<g id="a_edge12_Node000001_Node000009"><a xlink:title=" ">
<path fill="none" stroke="#63b8ff" d="M53.71,-140.22C67.78,-125.29 95.5,-97.22 122.5,-77.48 131.83,-70.66 142.4,-64.12 152.55,-58.35"/>
<polygon fill="#63b8ff" stroke="#63b8ff" points="154.11,-61.49 161.17,-53.58 150.73,-55.36 154.11,-61.49"/>
</a>
</g>
</g>
<!-- Node2&#45;&gt;Node3 -->
<g id="edge2_Node000002_Node000003" class="edge">
<title>Node2&#45;&gt;Node3</title>
<g id="a_edge2_Node000002_Node000003"><a xlink:title=" ">
<path fill="none" stroke="#63b8ff" d="M396.72,-216.04C405.75,-212.35 415.44,-207.79 423.75,-202.48 446.89,-187.71 469.6,-165.77 484.4,-150.2"/>
<polygon fill="#63b8ff" stroke="#63b8ff" points="486.86,-152.68 491.1,-142.97 481.74,-147.92 486.86,-152.68"/>
</a>
</g>
</g>
<!-- Node4 -->
<g id="Node000004" class="node">
<title>Node4</title>
<g id="a_Node000004"><a xlink:href="classdspm_1_1_mat.html#aa82f099abe2da9662fd06e72056df323" target="_top" xlink:title=" ">
<polygon fill="white" stroke="#666666" points="683,-141.48 580.75,-141.48 580.75,-121.48 683,-121.48 683,-141.48"/>
<text xml:space="preserve" text-anchor="middle" x="631.88" y="-127.98" font-family="Helvetica,sans-Serif" font-size="10.00">dspm::Mat::allocate</text>
</a>
</g>
</g>
<!-- Node3&#45;&gt;Node4 -->
<g id="edge3_Node000003_Node000004" class="edge">
<title>Node3&#45;&gt;Node4</title>
<g id="a_edge3_Node000003_Node000004"><a xlink:title=" ">
<path fill="none" stroke="#63b8ff" d="M545.04,-131.48C552.75,-131.48 560.94,-131.48 569.1,-131.48"/>
<polygon fill="#63b8ff" stroke="#63b8ff" points="569.02,-134.98 579.02,-131.48 569.02,-127.98 569.02,-134.98"/>
</a>
</g>
</g>
<!-- Node5&#45;&gt;Node3 -->
<g id="edge5_Node000005_Node000003" class="edge">
<title>Node5&#45;&gt;Node3</title>
<g id="a_edge5_Node000005_Node000003"><a xlink:title=" ">
<path fill="none" stroke="#63b8ff" d="M239.1,-147.88C293.48,-144.48 388.78,-138.52 448.27,-134.79"/>
<polygon fill="#63b8ff" stroke="#63b8ff" points="448.4,-138.29 458.16,-134.18 447.96,-131.31 448.4,-138.29"/>
</a>
</g>
</g>
<!-- Node6&#45;&gt;Node3 -->
<g id="edge7_Node000006_Node000003" class="edge">
<title>Node6&#45;&gt;Node3</title>
<g id="a_edge7_Node000006_Node000003"><a xlink:title=" ">
<path fill="none" stroke="#63b8ff" d="M270.64,-104.91C325.41,-111.22 399.06,-119.71 448.24,-125.37"/>
<polygon fill="#63b8ff" stroke="#63b8ff" points="447.74,-128.84 458.07,-126.51 448.54,-121.88 447.74,-128.84"/>
</a>
</g>
</g>
<!-- Node7 -->
<g id="Node000007" class="node">
<title>Node7</title>
<g id="a_Node000007"><a xlink:href="classdspm_1_1_mat.html#a9de682e7d416fa60f41a25da37350d7f" target="_top" xlink:title=" ">
<polygon fill="white" stroke="#666666" points="423.75,-84.48 306.5,-84.48 306.5,-64.48 423.75,-64.48 423.75,-84.48"/>
<text xml:space="preserve" text-anchor="middle" x="365.12" y="-70.98" font-family="Helvetica,sans-Serif" font-size="10.00">dspm::Mat::swapRows</text>
</a>
</g>
</g>
<!-- Node6&#45;&gt;Node7 -->
<g id="edge8_Node000006_Node000007" class="edge">
<title>Node6&#45;&gt;Node7</title>
<g id="a_edge8_Node000006_Node000007"><a xlink:title=" ">
<path fill="none" stroke="#63b8ff" d="M270.58,-86.83C278.67,-85.76 286.88,-84.68 294.91,-83.62"/>
<polygon fill="#63b8ff" stroke="#63b8ff" points="295.16,-87.12 304.62,-82.34 294.25,-80.18 295.16,-87.12"/>
</a>
</g>
</g>
<!-- Node8 -->
<g id="Node000008" class="node">
<title>Node8</title>
<g id="a_Node000008"><a xlink:href="classdspm_1_1_mat.html#af1013adcb6d601fba7bf788fd52d80b4" target="_top" xlink:title=" ">
<polygon fill="white" stroke="#666666" points="400.88,-46.48 329.38,-46.48 329.38,-26.48 400.88,-26.48 400.88,-46.48"/>
<text xml:space="preserve" text-anchor="middle" x="365.12" y="-32.98" font-family="Helvetica,sans-Serif" font-size="10.00">dspm::Mat::t</text>
</a>
</g>
</g>
<!-- Node6&#45;&gt;Node8 -->
<g id="edge9_Node000006_Node000008" class="edge">
<title>Node6&#45;&gt;Node8</title>
<g id="a_edge9_Node000006_Node000008"><a xlink:title=" ">
<path fill="none" stroke="#63b8ff" d="M224.26,-86.06C246.26,-77.58 278.28,-65.44 306.5,-55.48 311.21,-53.82 316.15,-52.12 321.08,-50.46"/>
<polygon fill="#63b8ff" stroke="#63b8ff" points="321.93,-53.86 330.3,-47.38 319.71,-47.22 321.93,-53.86"/>
</a>
</g>
</g>
<!-- Node8&#45;&gt;Node3 -->
<g id="edge10_Node000008_Node000003" class="edge">
<title>Node8&#45;&gt;Node3</title>
<g id="a_edge10_Node000008_Node000003"><a xlink:title=" ">
<path fill="none" stroke="#63b8ff" d="M401.09,-45.17C408.85,-47.86 416.82,-51.26 423.75,-55.48 448.74,-70.7 471.92,-95.41 486.3,-112.5"/>
<polygon fill="#63b8ff" stroke="#63b8ff" points="483.34,-114.41 492.38,-119.94 488.75,-109.98 483.34,-114.41"/>
</a>
</g>
</g>
<!-- Node9&#45;&gt;Node3 -->
<g id="edge13_Node000009_Node000003" class="edge">
<title>Node9&#45;&gt;Node3</title>
<g id="a_edge13_Node000009_Node000003"><a xlink:title=" ">
<path fill="none" stroke="#63b8ff" d="M239.43,-20.02C287.02,-4.15 365.57,13.32 423.75,-17.48 460.78,-37.09 483.41,-83.2 494.02,-110.39"/>
<polygon fill="#63b8ff" stroke="#63b8ff" points="490.69,-111.47 497.42,-119.65 497.26,-109.06 490.69,-111.47"/>
</a>
</g>
</g>
<!-- Node9&#45;&gt;Node8 -->
<g id="edge14_Node000009_Node000008" class="edge">
<title>Node9&#45;&gt;Node8</title>
<g id="a_edge14_Node000009_Node000008"><a xlink:title=" ">
<path fill="none" stroke="#63b8ff" d="M267.2,-36.48C284.25,-36.48 302.09,-36.48 317.75,-36.48"/>
<polygon fill="#63b8ff" stroke="#63b8ff" points="317.73,-39.98 327.73,-36.48 317.73,-32.98 317.73,-39.98"/>
</a>
</g>
</g>
</g>
</svg>
