<?xml version="1.0" encoding="UTF-8" standalone="no"?>
<!DOCTYPE svg PUBLIC "-//W3C//DTD SVG 1.1//EN"
 "http://www.w3.org/Graphics/SVG/1.1/DTD/svg11.dtd">
<!-- Generated by graphviz version 14.1.2 (20260124.0452)
 -->
<!-- Title: dspm::Mat::gaussianEliminate Pages: 1 -->
<svg width="569pt" height="79pt"
 viewBox="0.00 0.00 569.00 79.00" xmlns="http://www.w3.org/2000/svg" xmlns:xlink="http://www.w3.org/1999/xlink">
<g id="graph0" class="graph" transform="scale(1 1) rotate(0) translate(4 75.25)">
<title>dspm::Mat::gaussianEliminate</title>
<!-- Node1 -->
<g id="Node000001" class="node">
<title>Node1</title>
<g id="a_Node000001"><a xlink:title="Gaussian Elimination.">
<polygon fill="#999999" stroke="#666666" points="148,-58 0,-58 0,-38 148,-38 148,-58"/>
<text xml:space="preserve" text-anchor="middle" x="74" y="-44.5" font-family="Helvetica,sans-Serif" font-size="10.00">dspm::Mat::gaussianEliminate</text>
</a>
</g>
</g>
<!-- Node2 -->
<g id="Node000002" class="node">
<title>Node2</title>
<g id="a_Node000002"><a xlink:href="classdspm_1_1_mat.html#a5eb6987452e618ba8d638a6773a074df" target="_top" xlink:title=" ">
<polygon fill="white" stroke="#666666" points="422.25,-58 337.25,-58 337.25,-38 422.25,-38 422.25,-58"/>
<text xml:space="preserve" text-anchor="middle" x="379.75" y="-44.5" font-family="Helvetica,sans-Serif" font-size="10.00">dspm::Mat::Mat</text>
</a>
</g>
</g>
<!-- Node1&#45;&gt;Node2 -->
<g id="edge1_Node000001_Node000002" class="edge">
<title>Node1&#45;&gt;Node2</title>
<g id="a_edge1_Node000001_Node000002"><a xlink:title=" ">
<path fill="none" stroke="#63b8ff" d="M124.41,-58.47C143,-61.92 164.38,-65.3 184,-67 235.92,-71.49 249.51,-73.25 301.25,-67 311.65,-65.74 322.67,-63.57 333.04,-61.13"/>
<polygon fill="#63b8ff" stroke="#63b8ff" points="333.64,-64.59 342.5,-58.78 331.95,-57.8 333.64,-64.59"/>
</a>
</g>
</g>
<!-- Node4 -->
<g id="Node000004" class="node">
<title>Node4</title>
<g id="a_Node000004"><a xlink:href="classdspm_1_1_mat.html#a9de682e7d416fa60f41a25da37350d7f" target="_top" xlink:title=" ">
<polygon fill="white" stroke="#666666" points="301.25,-58 184,-58 184,-38 301.25,-38 301.25,-58"/>
<text xml:space="preserve" text-anchor="middle" x="242.62" y="-44.5" font-family="Helvetica,sans-Serif" font-size="10.00">dspm::Mat::swapRows</text>
</a>
</g>
</g>
<!-- Node1&#45;&gt;Node4 -->
<g id="edge3_Node000001_Node000004" class="edge">
<title>Node1&#45;&gt;Node4</title>
<g id="a_edge3_Node000001_Node000004"><a xlink:title=" ">
<path fill="none" stroke="#63b8ff" d="M148.08,-48C156.07,-48 164.19,-48 172.14,-48"/>
<polygon fill="#63b8ff" stroke="#63b8ff" points="172.1,-51.5 182.1,-48 172.1,-44.5 172.1,-51.5"/>
</a>
</g>
</g>
<!-- Node5 -->
<g id="Node000005" class="node">
<title>Node5</title>
<g id="a_Node000005"><a xlink:href="classdspm_1_1_mat.html#af1013adcb6d601fba7bf788fd52d80b4" target="_top" xlink:title=" ">
<polygon fill="white" stroke="#666666" points="278.38,-20 206.88,-20 206.88,0 278.38,0 278.38,-20"/>
<text xml:space="preserve" text-anchor="middle" x="242.62" y="-6.5" font-family="Helvetica,sans-Serif" font-size="10.00">dspm::Mat::t</text>
</a>
</g>
</g>
<!-- Node1&#45;&gt;Node5 -->
<g id="edge4_Node000001_Node000005" class="edge">
<title>Node1&#45;&gt;Node5</title>
<g id="a_edge4_Node000001_Node000005"><a xlink:title=" ">
<path fill="none" stroke="#63b8ff" d="M120.97,-37.52C144.23,-32.21 172.39,-25.79 195.65,-20.48"/>
<polygon fill="#63b8ff" stroke="#63b8ff" points="196.19,-23.95 205.16,-18.32 194.63,-17.13 196.19,-23.95"/>
</a>
</g>
</g>
<!-- Node3 -->
<g id="Node000003" class="node">
<title>Node3</title>
<g id="a_Node000003"><a xlink:href="classdspm_1_1_mat.html#aa82f099abe2da9662fd06e72056df323" target="_top" xlink:title=" ">
<polygon fill="white" stroke="#666666" points="560.5,-58 458.25,-58 458.25,-38 560.5,-38 560.5,-58"/>
<text xml:space="preserve" text-anchor="middle" x="509.38" y="-44.5" font-family="Helvetica,sans-Serif" font-size="10.00">dspm::Mat::allocate</text>
</a>
</g>
</g>
<!-- Node2&#45;&gt;Node3 -->
<g id="edge2_Node000002_Node000003" class="edge">
<title>Node2&#45;&gt;Node3</title>
<g id="a_edge2_Node000002_Node000003"><a xlink:title=" ">
<path fill="none" stroke="#63b8ff" d="M422.54,-48C430.25,-48 438.44,-48 446.6,-48"/>
<polygon fill="#63b8ff" stroke="#63b8ff" points="446.52,-51.5 456.52,-48 446.52,-44.5 446.52,-51.5"/>
</a>
</g>
</g>
<!-- Node5&#45;&gt;Node2 -->
<g id="edge5_Node000005_Node000002" class="edge">
<title>Node5&#45;&gt;Node2</title>
<g id="a_edge5_Node000005_Node000002"><a xlink:title=" ">
<path fill="none" stroke="#63b8ff" d="M278.77,-19.88C294.68,-24.36 313.73,-29.72 330.92,-34.55"/>
<polygon fill="#63b8ff" stroke="#63b8ff" points="329.86,-37.89 340.43,-37.22 331.75,-31.15 329.86,-37.89"/>
</a>
</g>
</g>
</g>
</svg>
