<?xml version="1.0" encoding="UTF-8" standalone="no"?>
<!DOCTYPE svg PUBLIC "-//W3C//DTD SVG 1.1//EN"
 "http://www.w3.org/Graphics/SVG/1.1/DTD/svg11.dtd">
<!-- Generated by graphviz version 14.1.2 (20260124.0452)
 -->
<!-- Title: dspm::Mat::eye Pages: 1 -->
<!--zoomable 982 -->

<svg id="main" version="1.1" xmlns="http://www.w3.org/2000/svg" xmlns:xlink="http://www.w3.org/1999/xlink" xml:space="preserve" onload="init(evt)">

<style type="text/css"><![CDATA[
.node, .edge {opacity: 0.7;}
.node.selected, .edge.selected {opacity: 1;}
.edge:hover path { stroke: red; }
.edge:hover polygon { stroke: red; fill: red; }
]]></style>

<defs>
  <circle id="rim" cx="0" cy="0" r="7"/>
  <circle id="rim2" cx="0" cy="0" r="3.5"/>
  <g id="zoomPlus">
    <use xlink:href="#rim" fill="#404040"><set attributeName="fill" to="#808080" begin="zoomplus.mouseover" end="zoomplus.mouseout"/></use>
    <path d="M-4,0h8M0,-4v8" fill="none" stroke="white" stroke-width="1.5" pointer-events="none"/>
  </g>
  <g id="zoomMin">
    <use xlink:href="#rim" fill="#404040"><set attributeName="fill" to="#808080" begin="zoomminus.mouseover" end="zoomminus.mouseout"/></use>
    <path d="M-4,0h8" fill="none" stroke="white" stroke-width="1.5" pointer-events="none"/>
  </g>
  <g id="arrowUp" transform="translate(30 24)">
    <use xlink:href="#rim"/>
    <path pointer-events="none" fill="none" stroke="white" stroke-width="1.5" d="M0,-3.0v7 M-2.5,-0.5L0,-3.0L2.5,-0.5"/>
  </g>
  <g id="arrowRight" transform="rotate(90) translate(36 -43)">
    <use xlink:href="#rim"/>
    <path pointer-events="none" fill="none" stroke="white" stroke-width="1.5" d="M0,-3.0v7 M-2.5,-0.5L0,-3.0L2.5,-0.5"/>
  </g>
  <g id="arrowDown" transform="rotate(180) translate(-30 -48)">
    <use xlink:href="#rim"/>
    <path pointer-events="none" fill="none" stroke="white" stroke-width="1.5" d="M0,-3.0v7 M-2.5,-0.5L0,-3.0L2.5,-0.5"/>
  </g>
  <g id="arrowLeft" transform="rotate(270) translate(-36 17)">
    <use xlink:href="#rim"/>
    <path pointer-events="none" fill="none" stroke="white" stroke-width="1.5" d="M0,-3.0v7 M-2.5,-0.5L0,-3.0L2.5,-0.5"/>
  </g>
  <g id="resetDef">
    <use xlink:href="#rim2" fill="#404040"><set attributeName="fill" to="#808080" begin="reset.mouseover" end="reset.mouseout"/></use>
  </g>
</defs>
<script type="application/ecmascript">
var viewWidth = 678;
var viewHeight = 982;
var sectionId = 'dynsection-24';
</script>
<script type="application/ecmascript" xlink:href="svg.min.js"/>
<svg id="graph" class="graph">
<g id="viewport">
<title>dspm::Mat::eye</title>
<!-- Node1 -->
<g id="Node000001" class="node">
<title>Node1</title>
<g id="a_Node000001"><a xlink:title=" ">
<polygon fill="#999999" stroke="#666666" points="669.5,-518 585.25,-518 585.25,-498 669.5,-498 669.5,-518"/>
<text xml:space="preserve" text-anchor="middle" x="627.38" y="-504.5" font-family="Helvetica,sans-Serif" font-size="10.00">dspm::Mat::eye</text>
</a>
</g>
</g>
<!-- Node2 -->
<g id="Node000002" class="node">
<title>Node2</title>
<g id="a_Node000002"><a xlink:href="classekf.html#a6588ad6c3eae0d1a177b35ea75b5a4f3" target="_top" xlink:title=" ">
<polygon fill="white" stroke="#666666" points="540.25,-974 411.75,-974 411.75,-954 540.25,-954 540.25,-974"/>
<text xml:space="preserve" text-anchor="middle" x="476" y="-960.5" font-family="Helvetica,sans-Serif" font-size="10.00">ekf::CovariancePrediction</text>
</a>
</g>
</g>
<!-- Node1&#45;&gt;Node2 -->
<g id="edge1_Node000001_Node000002" class="edge">
<title>Node1&#45;&gt;Node2</title>
<g id="a_edge1_Node000001_Node000002"><a xlink:title=" ">
<path fill="none" stroke="#63b8ff" d="M625.37,-529.72C621.29,-608.41 603.56,-877.24 549.25,-940 544.23,-945.8 537.78,-950.2 530.8,-953.54"/>
<polygon fill="#63b8ff" stroke="#63b8ff" points="628.85,-530.09 625.85,-519.92 621.86,-529.74 628.85,-530.09"/>
</a>
</g>
</g>
<!-- Node4 -->
<g id="Node000004" class="node">
<title>Node4</title>
<g id="a_Node000004"><a xlink:href="classekf__imu13states.html#a7f315abd38007e57247edc0967d688f7" target="_top" xlink:title=" ">
<polygon fill="white" stroke="#666666" points="222.5,-955 94,-955 94,-935 222.5,-935 222.5,-955"/>
<text xml:space="preserve" text-anchor="middle" x="158.25" y="-941.5" font-family="Helvetica,sans-Serif" font-size="10.00">ekf_imu13states::TestFull</text>
</a>
</g>
</g>
<!-- Node1&#45;&gt;Node4 -->
<g id="edge42_Node000001_Node000004" class="edge">
<title>Node1&#45;&gt;Node4</title>
<g id="a_edge42_Node000001_Node000004"><a xlink:title=" ">
<path fill="none" stroke="#63b8ff" d="M625.49,-529.42C621.91,-604.73 605.84,-855.48 549.25,-907 525.64,-928.5 326.89,-938.9 222.59,-942.92"/>
<polygon fill="#63b8ff" stroke="#63b8ff" points="628.97,-529.85 625.92,-519.7 621.98,-529.54 628.97,-529.85"/>
</a>
</g>
</g>
<!-- Node5 -->
<g id="Node000005" class="node">
<title>Node5</title>
<g id="a_Node000005"><a xlink:href="applications_2azure__board__apps_2apps_23d__graphics_2main_23d__graphics__demo_8cpp.html#a0edd8bfc49beafeacd3540ba291680c3" target="_top" xlink:title="Display ESPRESSIF text.">
<polygon fill="white" stroke="#666666" points="520.75,-898 431.25,-898 431.25,-878 520.75,-878 520.75,-898"/>
<text xml:space="preserve" text-anchor="middle" x="476" y="-884.5" font-family="Helvetica,sans-Serif" font-size="10.00">dispaly_esp_text</text>
</a>
</g>
</g>
<!-- Node1&#45;&gt;Node5 -->
<g id="edge4_Node000001_Node000005" class="edge">
<title>Node1&#45;&gt;Node5</title>
<g id="a_edge4_Node000001_Node000005"><a xlink:title=" ">
<path fill="none" stroke="#63b8ff" d="M624.67,-529.79C618.71,-600.11 596.63,-819.35 549.25,-869 541.82,-876.79 531.61,-881.52 521.21,-884.37"/>
<polygon fill="#63b8ff" stroke="#63b8ff" points="628.14,-530.23 625.47,-519.97 621.16,-529.66 628.14,-530.23"/>
</a>
</g>
</g>
<!-- Node7 -->
<g id="Node000007" class="node">
<title>Node7</title>
<g id="a_Node000007"><a xlink:href="external__examples_2b00f000e_2applications_2azure__board__apps_2apps_23d__graphics_2main_23d__graphics__demo_8cpp.html#a0edd8bfc49beafeacd3540ba291680c3" target="_top" xlink:title="Display ESPRESSIF text.">
<polygon fill="white" stroke="#666666" points="520.75,-822 431.25,-822 431.25,-802 520.75,-802 520.75,-822"/>
<text xml:space="preserve" text-anchor="middle" x="476" y="-808.5" font-family="Helvetica,sans-Serif" font-size="10.00">dispaly_esp_text</text>
</a>
</g>
</g>
<!-- Node1&#45;&gt;Node7 -->
<g id="edge6_Node000001_Node000007" class="edge">
<title>Node1&#45;&gt;Node7</title>
<g id="a_edge6_Node000001_Node000007"><a xlink:title=" ">
<path fill="none" stroke="#63b8ff" d="M623.33,-529.74C614.53,-589.68 587.2,-755.32 549.25,-793 541.61,-800.58 531.33,-805.25 520.92,-808.09"/>
<polygon fill="#63b8ff" stroke="#63b8ff" points="626.8,-530.24 624.76,-519.85 619.87,-529.25 626.8,-530.24"/>
</a>
</g>
</g>
<!-- Node9 -->
<g id="Node000009" class="node">
<title>Node9</title>
<g id="a_Node000009"><a xlink:href="external__examples_2d1468452_2apps_23d__graphics_2main_23d__graphics__demo_8cpp.html#a0edd8bfc49beafeacd3540ba291680c3" target="_top" xlink:title="Display ESPRESSIF text.">
<polygon fill="white" stroke="#666666" points="520.75,-784 431.25,-784 431.25,-764 520.75,-764 520.75,-784"/>
<text xml:space="preserve" text-anchor="middle" x="476" y="-770.5" font-family="Helvetica,sans-Serif" font-size="10.00">dispaly_esp_text</text>
</a>
</g>
</g>
<!-- Node1&#45;&gt;Node9 -->
<g id="edge8_Node000001_Node000009" class="edge">
<title>Node1&#45;&gt;Node9</title>
<g id="a_edge8_Node000001_Node000009"><a xlink:title=" ">
<path fill="none" stroke="#63b8ff" d="M626.23,-529.93C624.66,-577.97 613.96,-693.17 549.25,-755 541.56,-762.35 531.38,-766.94 521.1,-769.78"/>
<polygon fill="#63b8ff" stroke="#63b8ff" points="629.72,-530.08 626.43,-520.01 622.72,-529.94 629.72,-530.08"/>
</a>
</g>
</g>
<!-- Node11 -->
<g id="Node000011" class="node">
<title>Node11</title>
<g id="a_Node000011"><a xlink:href="external__examples_2f9c2d4b3_2azure__board__apps_2apps_23d__graphics_2main_23d__graphics__demo_8cpp.html#a0edd8bfc49beafeacd3540ba291680c3" target="_top" xlink:title="Display ESPRESSIF text.">
<polygon fill="white" stroke="#666666" points="520.75,-746 431.25,-746 431.25,-726 520.75,-726 520.75,-746"/>
<text xml:space="preserve" text-anchor="middle" x="476" y="-732.5" font-family="Helvetica,sans-Serif" font-size="10.00">dispaly_esp_text</text>
</a>
</g>
</g>
<!-- Node1&#45;&gt;Node11 -->
<g id="edge10_Node000001_Node000011" class="edge">
<title>Node1&#45;&gt;Node11</title>
<g id="a_edge10_Node000001_Node000011"><a xlink:title=" ">
<path fill="none" stroke="#63b8ff" d="M624.83,-529.41C620.58,-571.73 605.04,-666.34 549.25,-717 541.47,-724.06 531.38,-728.56 521.22,-731.4"/>
<polygon fill="#63b8ff" stroke="#63b8ff" points="628.3,-529.84 625.68,-519.57 621.33,-529.23 628.3,-529.84"/>
</a>
</g>
</g>
<!-- Node13 -->
<g id="Node000013" class="node">
<title>Node13</title>
<g id="a_Node000013"><a xlink:href="applications_2azure__board__apps_2apps_2kalman__filter_2main_2kalman__filter__demo_8cpp.html#a2955b9e77f5bd23f109feaaed1496af5" target="_top" xlink:title="Draw a 3d image.">
<polygon fill="white" stroke="#666666" points="518.12,-708 433.88,-708 433.88,-688 518.12,-688 518.12,-708"/>
<text xml:space="preserve" text-anchor="middle" x="476" y="-694.5" font-family="Helvetica,sans-Serif" font-size="10.00">draw_3d_image</text>
</a>
</g>
</g>
<!-- Node1&#45;&gt;Node13 -->
<g id="edge12_Node000001_Node000013" class="edge">
<title>Node1&#45;&gt;Node13</title>
<g id="a_edge12_Node000001_Node000013"><a xlink:title=" ">
<path fill="none" stroke="#63b8ff" d="M622.82,-529.5C615.65,-565.89 595.96,-639.49 549.25,-679 540.54,-686.37 529.28,-690.92 518.25,-693.72"/>
<polygon fill="#63b8ff" stroke="#63b8ff" points="626.24,-530.26 624.59,-519.79 619.35,-529 626.24,-530.26"/>
</a>
</g>
</g>
<!-- Node23 -->
<g id="Node000023" class="node">
<title>Node23</title>
<g id="a_Node000023"><a xlink:href="external__examples_2b00f000e_2applications_2azure__board__apps_2apps_2kalman__filter_2main_2kalman__filter__demo_8cpp.html#a2955b9e77f5bd23f109feaaed1496af5" target="_top" xlink:title="Draw a 3d image.">
<polygon fill="white" stroke="#666666" points="518.12,-670 433.88,-670 433.88,-650 518.12,-650 518.12,-670"/>
<text xml:space="preserve" text-anchor="middle" x="476" y="-656.5" font-family="Helvetica,sans-Serif" font-size="10.00">draw_3d_image</text>
</a>
</g>
</g>
<!-- Node1&#45;&gt;Node23 -->
<g id="edge20_Node000001_Node000023" class="edge">
<title>Node1&#45;&gt;Node23</title>
<g id="a_edge20_Node000001_Node000023"><a xlink:title=" ">
<path fill="none" stroke="#63b8ff" d="M620,-528.85C609.89,-558.38 587.31,-611.99 549.25,-641 540.38,-647.76 529.31,-652.12 518.53,-654.94"/>
<polygon fill="#63b8ff" stroke="#63b8ff" points="623.25,-530.18 623.01,-519.59 616.6,-528.02 623.25,-530.18"/>
</a>
</g>
</g>
<!-- Node25 -->
<g id="Node000025" class="node">
<title>Node25</title>
<g id="a_Node000025"><a xlink:href="external__examples_2d1468452_2apps_2kalman__filter_2main_2kalman__filter__demo_8cpp.html#a2955b9e77f5bd23f109feaaed1496af5" target="_top" xlink:title="Draw a 3d image.">
<polygon fill="white" stroke="#666666" points="518.12,-632 433.88,-632 433.88,-612 518.12,-612 518.12,-632"/>
<text xml:space="preserve" text-anchor="middle" x="476" y="-618.5" font-family="Helvetica,sans-Serif" font-size="10.00">draw_3d_image</text>
</a>
</g>
</g>
<!-- Node1&#45;&gt;Node25 -->
<g id="edge22_Node000001_Node000025" class="edge">
<title>Node1&#45;&gt;Node25</title>
<g id="a_edge22_Node000001_Node000025"><a xlink:title=" ">
<path fill="none" stroke="#63b8ff" d="M615.26,-528.23C602.26,-549.98 578.72,-583.98 549.25,-603 540.1,-608.91 529.17,-612.98 518.62,-615.79"/>
<polygon fill="#63b8ff" stroke="#63b8ff" points="618.21,-530.11 620.17,-519.7 612.14,-526.62 618.21,-530.11"/>
</a>
</g>
</g>
<!-- Node27 -->
<g id="Node000027" class="node">
<title>Node27</title>
<g id="a_Node000027"><a xlink:href="external__examples_2f9c2d4b3_2azure__board__apps_2apps_2kalman__filter_2main_2kalman__filter__demo_8cpp.html#a2955b9e77f5bd23f109feaaed1496af5" target="_top" xlink:title="Draw a 3d image.">
<polygon fill="white" stroke="#666666" points="518.12,-594 433.88,-594 433.88,-574 518.12,-574 518.12,-594"/>
<text xml:space="preserve" text-anchor="middle" x="476" y="-580.5" font-family="Helvetica,sans-Serif" font-size="10.00">draw_3d_image</text>
</a>
</g>
</g>
<!-- Node1&#45;&gt;Node27 -->
<g id="edge24_Node000001_Node000027" class="edge">
<title>Node1&#45;&gt;Node27</title>
<g id="a_edge24_Node000001_Node000027"><a xlink:title=" ">
<path fill="none" stroke="#63b8ff" d="M606.94,-525.65C592.1,-538.26 570.64,-554.75 549.25,-565 539.66,-569.6 528.8,-573.2 518.47,-575.97"/>
<polygon fill="#63b8ff" stroke="#63b8ff" points="608.88,-528.59 614.11,-519.38 604.28,-523.32 608.88,-528.59"/>
</a>
</g>
</g>
<!-- Node29 -->
<g id="Node000029" class="node">
<title>Node29</title>
<g id="a_Node000029"><a xlink:href="applications_2azure__board__apps_2apps_23d__graphics_2main_23d__graphics__demo_8cpp.html#af3debef909dca35dbf0b6f842df6def3" target="_top" xlink:title="RTOS task to draw a 3d image.">
<polygon fill="white" stroke="#666666" points="530.12,-860 421.88,-860 421.88,-840 530.12,-840 530.12,-860"/>
<text xml:space="preserve" text-anchor="middle" x="476" y="-846.5" font-family="Helvetica,sans-Serif" font-size="10.00">draw_3d_image_task</text>
</a>
</g>
</g>
<!-- Node1&#45;&gt;Node29 -->
<g id="edge26_Node000001_Node000029" class="edge">
<title>Node1&#45;&gt;Node29</title>
<g id="a_edge26_Node000001_Node000029"><a xlink:title=" ">
<path fill="none" stroke="#63b8ff" d="M624.1,-529.59C616.8,-594.69 591.94,-787.32 549.25,-831 543.99,-836.38 537.41,-840.3 530.37,-843.14"/>
<polygon fill="#63b8ff" stroke="#63b8ff" points="627.55,-530.17 625.16,-519.85 620.59,-529.41 627.55,-530.17"/>
</a>
</g>
</g>
<!-- Node30 -->
<g id="Node000030" class="node">
<title>Node30</title>
<g id="a_Node000030"><a xlink:href="applications_2m5stack__core__s3_2apps_23d__graphics_2main_23d__graphics__demo_8cpp.html#af3debef909dca35dbf0b6f842df6def3" target="_top" xlink:title="RTOS task to draw a 3d image.">
<polygon fill="white" stroke="#666666" points="530.12,-556 421.88,-556 421.88,-536 530.12,-536 530.12,-556"/>
<text xml:space="preserve" text-anchor="middle" x="476" y="-542.5" font-family="Helvetica,sans-Serif" font-size="10.00">draw_3d_image_task</text>
</a>
</g>
</g>
<!-- Node1&#45;&gt;Node30 -->
<g id="edge28_Node000001_Node000030" class="edge">
<title>Node1&#45;&gt;Node30</title>
<g id="a_edge28_Node000001_Node000030"><a xlink:title=" ">
<path fill="none" stroke="#63b8ff" d="M574.04,-521.31C555.7,-525.98 535.37,-531.15 518.08,-535.55"/>
<polygon fill="#63b8ff" stroke="#63b8ff" points="574.87,-524.71 583.7,-518.86 573.14,-517.93 574.87,-524.71"/>
</a>
</g>
</g>
<!-- Node31 -->
<g id="Node000031" class="node">
<title>Node31</title>
<g id="a_Node000031"><a xlink:href="applications_2m5stack__core__s3_2apps_2kalman__filter_2main_23d__kalman__demo_8cpp.html#af3debef909dca35dbf0b6f842df6def3" target="_top" xlink:title="RTOS task to draw a 3d image.">
<polygon fill="white" stroke="#666666" points="530.12,-518 421.88,-518 421.88,-498 530.12,-498 530.12,-518"/>
<text xml:space="preserve" text-anchor="middle" x="476" y="-504.5" font-family="Helvetica,sans-Serif" font-size="10.00">draw_3d_image_task</text>
</a>
</g>
</g>
<!-- Node1&#45;&gt;Node31 -->
<g id="edge29_Node000001_Node000031" class="edge">
<title>Node1&#45;&gt;Node31</title>
<g id="a_edge29_Node000001_Node000031"><a xlink:title=" ">
<path fill="none" stroke="#63b8ff" d="M573.36,-508C559.42,-508 544.38,-508 530.42,-508"/>
<polygon fill="#63b8ff" stroke="#63b8ff" points="573.25,-511.5 583.25,-508 573.25,-504.5 573.25,-511.5"/>
</a>
</g>
</g>
<!-- Node32 -->
<g id="Node000032" class="node">
<title>Node32</title>
<g id="a_Node000032"><a xlink:href="external__examples_2b00f000e_2applications_2azure__board__apps_2apps_23d__graphics_2main_23d__graphics__demo_8cpp.html#af3debef909dca35dbf0b6f842df6def3" target="_top" xlink:title="RTOS task to draw a 3d image.">
<polygon fill="white" stroke="#666666" points="530.12,-480 421.88,-480 421.88,-460 530.12,-460 530.12,-480"/>
<text xml:space="preserve" text-anchor="middle" x="476" y="-466.5" font-family="Helvetica,sans-Serif" font-size="10.00">draw_3d_image_task</text>
</a>
</g>
</g>
<!-- Node1&#45;&gt;Node32 -->
<g id="edge30_Node000001_Node000032" class="edge">
<title>Node1&#45;&gt;Node32</title>
<g id="a_edge30_Node000001_Node000032"><a xlink:title=" ">
<path fill="none" stroke="#63b8ff" d="M574.04,-494.69C555.7,-490.02 535.37,-484.85 518.08,-480.45"/>
<polygon fill="#63b8ff" stroke="#63b8ff" points="573.14,-498.07 583.7,-497.14 574.87,-491.29 573.14,-498.07"/>
</a>
</g>
</g>
<!-- Node33 -->
<g id="Node000033" class="node">
<title>Node33</title>
<g id="a_Node000033"><a xlink:href="external__examples_2b00f000e_2applications_2m5stack__core__s3_2apps_23d__graphics_2main_23d__graphics__demo_8cpp.html#af3debef909dca35dbf0b6f842df6def3" target="_top" xlink:title="RTOS task to draw a 3d image.">
<polygon fill="white" stroke="#666666" points="530.12,-442 421.88,-442 421.88,-422 530.12,-422 530.12,-442"/>
<text xml:space="preserve" text-anchor="middle" x="476" y="-428.5" font-family="Helvetica,sans-Serif" font-size="10.00">draw_3d_image_task</text>
</a>
</g>
</g>
<!-- Node1&#45;&gt;Node33 -->
<g id="edge31_Node000001_Node000033" class="edge">
<title>Node1&#45;&gt;Node33</title>
<g id="a_edge31_Node000001_Node000033"><a xlink:title=" ">
<path fill="none" stroke="#63b8ff" d="M606.94,-490.35C592.1,-477.74 570.64,-461.25 549.25,-451 542.23,-447.64 534.53,-444.81 526.86,-442.45"/>
<polygon fill="#63b8ff" stroke="#63b8ff" points="604.28,-492.68 614.11,-496.62 608.88,-487.41 604.28,-492.68"/>
</a>
</g>
</g>
<!-- Node34 -->
<g id="Node000034" class="node">
<title>Node34</title>
<g id="a_Node000034"><a xlink:href="external__examples_2b00f000e_2applications_2m5stack__core__s3_2apps_2kalman__filter_2main_23d__kalman__demo_8cpp.html#af3debef909dca35dbf0b6f842df6def3" target="_top" xlink:title="RTOS task to draw a 3d image.">
<polygon fill="white" stroke="#666666" points="530.12,-404 421.88,-404 421.88,-384 530.12,-384 530.12,-404"/>
<text xml:space="preserve" text-anchor="middle" x="476" y="-390.5" font-family="Helvetica,sans-Serif" font-size="10.00">draw_3d_image_task</text>
</a>
</g>
</g>
<!-- Node1&#45;&gt;Node34 -->
<g id="edge32_Node000001_Node000034" class="edge">
<title>Node1&#45;&gt;Node34</title>
<g id="a_edge32_Node000001_Node000034"><a xlink:title=" ">
<path fill="none" stroke="#63b8ff" d="M615.26,-487.77C602.26,-466.02 578.72,-432.02 549.25,-413 543.47,-409.27 536.99,-406.28 530.35,-403.86"/>
<polygon fill="#63b8ff" stroke="#63b8ff" points="612.14,-489.38 620.17,-496.3 618.21,-485.89 612.14,-489.38"/>
</a>
</g>
</g>
<!-- Node35 -->
<g id="Node000035" class="node">
<title>Node35</title>
<g id="a_Node000035"><a xlink:href="external__examples_2d1468452_2apps_23d__graphics_2main_23d__graphics__demo_8cpp.html#af3debef909dca35dbf0b6f842df6def3" target="_top" xlink:title="RTOS task to draw a 3d image.">
<polygon fill="white" stroke="#666666" points="530.12,-366 421.88,-366 421.88,-346 530.12,-346 530.12,-366"/>
<text xml:space="preserve" text-anchor="middle" x="476" y="-352.5" font-family="Helvetica,sans-Serif" font-size="10.00">draw_3d_image_task</text>
</a>
</g>
</g>
<!-- Node1&#45;&gt;Node35 -->
<g id="edge33_Node000001_Node000035" class="edge">
<title>Node1&#45;&gt;Node35</title>
<g id="a_edge33_Node000001_Node000035"><a xlink:title=" ">
<path fill="none" stroke="#63b8ff" d="M620,-487.15C609.89,-457.62 587.31,-404.01 549.25,-375 543.68,-370.75 537.24,-367.45 530.56,-364.89"/>
<polygon fill="#63b8ff" stroke="#63b8ff" points="616.6,-487.98 623.01,-496.41 623.25,-485.82 616.6,-487.98"/>
</a>
</g>
</g>
<!-- Node36 -->
<g id="Node000036" class="node">
<title>Node36</title>
<g id="a_Node000036"><a xlink:href="external__examples_2f9c2d4b3_2azure__board__apps_2apps_23d__graphics_2main_23d__graphics__demo_8cpp.html#af3debef909dca35dbf0b6f842df6def3" target="_top" xlink:title="RTOS task to draw a 3d image.">
<polygon fill="white" stroke="#666666" points="530.12,-328 421.88,-328 421.88,-308 530.12,-308 530.12,-328"/>
<text xml:space="preserve" text-anchor="middle" x="476" y="-314.5" font-family="Helvetica,sans-Serif" font-size="10.00">draw_3d_image_task</text>
</a>
</g>
</g>
<!-- Node1&#45;&gt;Node36 -->
<g id="edge34_Node000001_Node000036" class="edge">
<title>Node1&#45;&gt;Node36</title>
<g id="a_edge34_Node000001_Node000036"><a xlink:title=" ">
<path fill="none" stroke="#63b8ff" d="M622.82,-486.5C615.65,-450.11 595.96,-376.51 549.25,-337 543.8,-332.39 537.36,-328.89 530.61,-326.23"/>
<polygon fill="#63b8ff" stroke="#63b8ff" points="619.35,-487 624.59,-496.21 626.24,-485.74 619.35,-487"/>
</a>
</g>
</g>
<!-- Node37 -->
<g id="Node000037" class="node">
<title>Node37</title>
<g id="a_Node000037"><a xlink:href="classdspm_1_1_mat.html#a765a86e94b3d404e8578e22a36e7d424" target="_top" xlink:title=" ">
<polygon fill="white" stroke="#666666" points="532.38,-272 419.62,-272 419.62,-252 532.38,-252 532.38,-272"/>
<text xml:space="preserve" text-anchor="middle" x="476" y="-258.5" font-family="Helvetica,sans-Serif" font-size="10.00">dspm::Mat::expHelper</text>
</a>
</g>
</g>
<!-- Node1&#45;&gt;Node37 -->
<g id="edge35_Node000001_Node000037" class="edge">
<title>Node1&#45;&gt;Node37</title>
<g id="a_edge35_Node000001_Node000037"><a xlink:title=" ">
<path fill="none" stroke="#63b8ff" d="M623.62,-486.16C617.39,-444.92 598.68,-354.74 549.25,-299 538.59,-286.98 523.1,-278.33 509.19,-272.43"/>
<polygon fill="#63b8ff" stroke="#63b8ff" points="620.15,-486.59 625,-496.01 627.08,-485.62 620.15,-486.59"/>
</a>
</g>
</g>
<!-- Node39 -->
<g id="Node000039" class="node">
<title>Node39</title>
<g id="a_Node000039"><a xlink:href="classekf__imu13states.html#af9d689b4d151401d6a654390ac34599e" target="_top" xlink:title=" ">
<polygon fill="white" stroke="#666666" points="529.75,-234 422.25,-234 422.25,-214 529.75,-214 529.75,-234"/>
<text xml:space="preserve" text-anchor="middle" x="476" y="-220.5" font-family="Helvetica,sans-Serif" font-size="10.00">ekf_imu13states::Init</text>
</a>
</g>
</g>
<!-- Node1&#45;&gt;Node39 -->
<g id="edge38_Node000001_Node000039" class="edge">
<title>Node1&#45;&gt;Node39</title>
<g id="a_edge38_Node000001_Node000039"><a xlink:title=" ">
<path fill="none" stroke="#63b8ff" d="M626.78,-486.22C626.47,-435.82 618.39,-310.36 549.25,-243 543.86,-237.75 537.21,-233.9 530.14,-231.1"/>
<polygon fill="#63b8ff" stroke="#63b8ff" points="623.28,-486.05 626.73,-496.07 630.28,-486.09 623.28,-486.05"/>
</a>
</g>
</g>
<!-- Node40 -->
<g id="Node000040" class="node">
<title>Node40</title>
<g id="a_Node000040"><a xlink:href="classekf__imu13states.html#aa45e9518c23a0fb627e9018d75195008" target="_top" xlink:title=" ">
<polygon fill="white" stroke="#666666" points="549.25,-196 402.75,-196 402.75,-176 549.25,-176 549.25,-196"/>
<text xml:space="preserve" text-anchor="middle" x="476" y="-182.5" font-family="Helvetica,sans-Serif" font-size="10.00">ekf_imu13states::LinearizeFG</text>
</a>
</g>
</g>
<!-- Node1&#45;&gt;Node40 -->
<g id="edge39_Node000001_Node000040" class="edge">
<title>Node1&#45;&gt;Node40</title>
<g id="a_edge39_Node000001_Node000040"><a xlink:title=" ">
<path fill="none" stroke="#63b8ff" d="M623.75,-486.53C615.7,-424.28 589.49,-245.56 549.25,-205 545.87,-201.59 541.96,-198.77 537.74,-196.44"/>
<polygon fill="#63b8ff" stroke="#63b8ff" points="620.23,-486.67 624.96,-496.15 627.18,-485.79 620.23,-486.67"/>
</a>
</g>
</g>
<!-- Node41 -->
<g id="Node000041" class="node">
<title>Node41</title>
<g id="a_Node000041"><a xlink:href="classdspm_1_1_mat.html#a3d8be6dbfbc64fa98f08ef9ce8860a12" target="_top" xlink:title=" ">
<polygon fill="white" stroke="#666666" points="519.25,-158 432.75,-158 432.75,-138 519.25,-138 519.25,-158"/>
<text xml:space="preserve" text-anchor="middle" x="476" y="-144.5" font-family="Helvetica,sans-Serif" font-size="10.00">dspm::Mat::pinv</text>
</a>
</g>
</g>
<!-- Node1&#45;&gt;Node41 -->
<g id="edge40_Node000001_Node000041" class="edge">
<title>Node1&#45;&gt;Node41</title>
<g id="a_edge40_Node000001_Node000041"><a xlink:title=" ">
<path fill="none" stroke="#63b8ff" d="M624.4,-486.55C617.78,-419.18 594.21,-213.55 549.25,-167 541.41,-158.88 530.56,-154.09 519.64,-151.3"/>
<polygon fill="#63b8ff" stroke="#63b8ff" points="620.9,-486.64 625.33,-496.26 627.86,-485.98 620.9,-486.64"/>
</a>
</g>
</g>
<!-- Node42 -->
<g id="Node000042" class="node">
<title>Node42</title>
<g id="a_Node000042"><a xlink:href="classekf.html#abd6f35d1ea69828aa0f757762fac9498" target="_top" xlink:title=" ">
<polygon fill="white" stroke="#666666" points="354,-139 271.25,-139 271.25,-119 354,-119 354,-139"/>
<text xml:space="preserve" text-anchor="middle" x="312.62" y="-125.5" font-family="Helvetica,sans-Serif" font-size="10.00">ekf::UpdateRef</text>
</a>
</g>
</g>
<!-- Node1&#45;&gt;Node42 -->
<g id="edge43_Node000001_Node000042" class="edge">
<title>Node1&#45;&gt;Node42</title>
<g id="a_edge43_Node000001_Node000042"><a xlink:title=" ">
<path fill="none" stroke="#63b8ff" d="M625.43,-486.52C621.71,-413.22 605.42,-174.89 549.25,-129 489.85,-80.47 391.06,-103.03 342.45,-118.58"/>
<polygon fill="#63b8ff" stroke="#63b8ff" points="621.93,-486.53 625.9,-496.35 628.92,-486.2 621.93,-486.53"/>
</a>
</g>
</g>
<!-- Node43 -->
<g id="Node000043" class="node">
<title>Node43</title>
<g id="a_Node000043"><a xlink:href="classekf__imu13states.html#a09f6e9adfc80a65e41a6e11ffd89fc53" target="_top" xlink:title=" ">
<polygon fill="white" stroke="#666666" points="546.62,-82 405.38,-82 405.38,-50 546.62,-50 546.62,-82"/>
<text xml:space="preserve" text-anchor="start" x="413.38" y="-68.5" font-family="Helvetica,sans-Serif" font-size="10.00">ekf_imu13states::UpdateRef</text>
<text xml:space="preserve" text-anchor="middle" x="476" y="-56.5" font-family="Helvetica,sans-Serif" font-size="10.00">Measurement</text>
</a>
</g>
</g>
<!-- Node1&#45;&gt;Node43 -->
<g id="edge44_Node000001_Node000043" class="edge">
<title>Node1&#45;&gt;Node43</title>
<g id="a_edge44_Node000001_Node000043"><a xlink:title=" ">
<path fill="none" stroke="#63b8ff" d="M625.01,-486.44C619.8,-410.6 598.96,-157.32 549.25,-96 544.8,-90.51 539.18,-86.02 533.05,-82.34"/>
<polygon fill="#63b8ff" stroke="#63b8ff" points="621.5,-486.5 625.66,-496.24 628.49,-486.04 621.5,-486.5"/>
</a>
</g>
</g>
<!-- Node44 -->
<g id="Node000044" class="node">
<title>Node44</title>
<g id="a_Node000044"><a xlink:href="classekf__imu13states.html#ad56f37dbe6dece11f6ff670e478099b1" target="_top" xlink:title=" ">
<polygon fill="white" stroke="#666666" points="546.62,-32 405.38,-32 405.38,0 546.62,0 546.62,-32"/>
<text xml:space="preserve" text-anchor="start" x="413.38" y="-18.5" font-family="Helvetica,sans-Serif" font-size="10.00">ekf_imu13states::UpdateRef</text>
<text xml:space="preserve" text-anchor="middle" x="476" y="-6.5" font-family="Helvetica,sans-Serif" font-size="10.00">MeasurementMagn</text>
</a>
</g>
</g>
<!-- Node1&#45;&gt;Node44 -->
<g id="edge45_Node000001_Node000044" class="edge">
<title>Node1&#45;&gt;Node44</title>
<g id="a_edge45_Node000001_Node000044"><a xlink:title=" ">
<path fill="none" stroke="#63b8ff" d="M625.65,-486.17C622.5,-403.37 607.34,-109.87 549.25,-41 546.51,-37.75 543.33,-34.93 539.86,-32.47"/>
<polygon fill="#63b8ff" stroke="#63b8ff" points="622.15,-486.2 626.01,-496.07 629.15,-485.95 622.15,-486.2"/>
</a>
</g>
</g>
<!-- Node3 -->
<g id="Node000003" class="node">
<title>Node3</title>
<g id="a_Node000003"><a xlink:href="classekf.html#a42ee022dba96611bf76d0d29bf964323" target="_top" xlink:title=" ">
<polygon fill="white" stroke="#666666" points="348.38,-974 276.88,-974 276.88,-954 348.38,-954 348.38,-974"/>
<text xml:space="preserve" text-anchor="middle" x="312.62" y="-960.5" font-family="Helvetica,sans-Serif" font-size="10.00">ekf::Process</text>
</a>
</g>
</g>
<!-- Node2&#45;&gt;Node3 -->
<g id="edge2_Node000002_Node000003" class="edge">
<title>Node2&#45;&gt;Node3</title>
<g id="a_edge2_Node000002_Node000003"><a xlink:title=" ">
<path fill="none" stroke="#63b8ff" d="M400.29,-964C382.35,-964 364.01,-964 348.84,-964"/>
<polygon fill="#63b8ff" stroke="#63b8ff" points="400.17,-967.5 410.17,-964 400.17,-960.5 400.17,-967.5"/>
</a>
</g>
</g>
<!-- Node3&#45;&gt;Node4 -->
<g id="edge3_Node000003_Node000004" class="edge">
<title>Node3&#45;&gt;Node4</title>
<g id="a_edge3_Node000003_Node000004"><a xlink:title=" ">
<path fill="none" stroke="#63b8ff" d="M265.32,-958.23C251.91,-956.55 237.04,-954.7 222.78,-952.92"/>
<polygon fill="#63b8ff" stroke="#63b8ff" points="264.81,-961.69 275.17,-959.45 265.68,-954.74 264.81,-961.69"/>
</a>
</g>
</g>
<!-- Node6 -->
<g id="Node000006" class="node">
<title>Node6</title>
<g id="a_Node000006"><a xlink:href="applications_2azure__board__apps_2apps_23d__graphics_2main_23d__graphics__demo_8cpp.html#abce06be17fc37d675118a678a8100a36" target="_top" xlink:title=" ">
<polygon fill="white" stroke="#666666" points="341.62,-879 283.62,-879 283.62,-859 341.62,-859 341.62,-879"/>
<text xml:space="preserve" text-anchor="middle" x="312.62" y="-865.5" font-family="Helvetica,sans-Serif" font-size="10.00">app_main</text>
</a>
</g>
</g>
<!-- Node5&#45;&gt;Node6 -->
<g id="edge5_Node000005_Node000006" class="edge">
<title>Node5&#45;&gt;Node6</title>
<g id="a_edge5_Node000005_Node000006"><a xlink:title=" ">
<path fill="none" stroke="#63b8ff" d="M419.59,-881.48C393.44,-878.4 363.34,-874.85 341.92,-872.33"/>
<polygon fill="#63b8ff" stroke="#63b8ff" points="419.06,-884.94 429.4,-882.63 419.88,-877.99 419.06,-884.94"/>
</a>
</g>
</g>
<!-- Node8 -->
<g id="Node000008" class="node">
<title>Node8</title>
<g id="a_Node000008"><a xlink:href="external__examples_2b00f000e_2applications_2azure__board__apps_2apps_23d__graphics_2main_23d__graphics__demo_8cpp.html#abce06be17fc37d675118a678a8100a36" target="_top" xlink:title=" ">
<polygon fill="white" stroke="#666666" points="341.62,-822 283.62,-822 283.62,-802 341.62,-802 341.62,-822"/>
<text xml:space="preserve" text-anchor="middle" x="312.62" y="-808.5" font-family="Helvetica,sans-Serif" font-size="10.00">app_main</text>
</a>
</g>
</g>
<!-- Node7&#45;&gt;Node8 -->
<g id="edge7_Node000007_Node000008" class="edge">
<title>Node7&#45;&gt;Node8</title>
<g id="a_edge7_Node000007_Node000008"><a xlink:title=" ">
<path fill="none" stroke="#63b8ff" d="M419.59,-812C393.44,-812 363.34,-812 341.92,-812"/>
<polygon fill="#63b8ff" stroke="#63b8ff" points="419.39,-815.5 429.39,-812 419.39,-808.5 419.39,-815.5"/>
</a>
</g>
</g>
<!-- Node10 -->
<g id="Node000010" class="node">
<title>Node10</title>
<g id="a_Node000010"><a xlink:href="external__examples_2d1468452_2apps_23d__graphics_2main_23d__graphics__demo_8cpp.html#abce06be17fc37d675118a678a8100a36" target="_top" xlink:title=" ">
<polygon fill="white" stroke="#666666" points="341.62,-784 283.62,-784 283.62,-764 341.62,-764 341.62,-784"/>
<text xml:space="preserve" text-anchor="middle" x="312.62" y="-770.5" font-family="Helvetica,sans-Serif" font-size="10.00">app_main</text>
</a>
</g>
</g>
<!-- Node9&#45;&gt;Node10 -->
<g id="edge9_Node000009_Node000010" class="edge">
<title>Node9&#45;&gt;Node10</title>
<g id="a_edge9_Node000009_Node000010"><a xlink:title=" ">
<path fill="none" stroke="#63b8ff" d="M419.59,-774C393.44,-774 363.34,-774 341.92,-774"/>
<polygon fill="#63b8ff" stroke="#63b8ff" points="419.39,-777.5 429.39,-774 419.39,-770.5 419.39,-777.5"/>
</a>
</g>
</g>
<!-- Node12 -->
<g id="Node000012" class="node">
<title>Node12</title>
<g id="a_Node000012"><a xlink:href="external__examples_2f9c2d4b3_2azure__board__apps_2apps_23d__graphics_2main_23d__graphics__demo_8cpp.html#abce06be17fc37d675118a678a8100a36" target="_top" xlink:title=" ">
<polygon fill="white" stroke="#666666" points="341.62,-746 283.62,-746 283.62,-726 341.62,-726 341.62,-746"/>
<text xml:space="preserve" text-anchor="middle" x="312.62" y="-732.5" font-family="Helvetica,sans-Serif" font-size="10.00">app_main</text>
</a>
</g>
</g>
<!-- Node11&#45;&gt;Node12 -->
<g id="edge11_Node000011_Node000012" class="edge">
<title>Node11&#45;&gt;Node12</title>
<g id="a_edge11_Node000011_Node000012"><a xlink:title=" ">
<path fill="none" stroke="#63b8ff" d="M419.59,-736C393.44,-736 363.34,-736 341.92,-736"/>
<polygon fill="#63b8ff" stroke="#63b8ff" points="419.39,-739.5 429.39,-736 419.39,-732.5 419.39,-739.5"/>
</a>
</g>
</g>
<!-- Node14 -->
<g id="Node000014" class="node">
<title>Node14</title>
<g id="a_Node000014"><a xlink:href="applications_2azure__board__apps_2apps_2kalman__filter_2main_2kalman__filter__demo_8cpp.html#af43b34764385f3f1ad35ce1c00db220f" target="_top" xlink:title="Kalman filter RTOS task (or ESP timer callback).">
<polygon fill="white" stroke="#666666" points="360.38,-708 264.88,-708 264.88,-688 360.38,-688 360.38,-708"/>
<text xml:space="preserve" text-anchor="middle" x="312.62" y="-694.5" font-family="Helvetica,sans-Serif" font-size="10.00">kalman_filter_task</text>
</a>
</g>
</g>
<!-- Node13&#45;&gt;Node14 -->
<g id="edge13_Node000013_Node000014" class="edge">
<title>Node13&#45;&gt;Node14</title>
<g id="a_edge13_Node000013_Node000014"><a xlink:title=" ">
<path fill="none" stroke="#63b8ff" d="M422.12,-698C402.33,-698 379.99,-698 360.75,-698"/>
<polygon fill="#63b8ff" stroke="#63b8ff" points="421.93,-701.5 431.93,-698 421.93,-694.5 421.93,-701.5"/>
</a>
</g>
</g>
<!-- Node15 -->
<g id="Node000015" class="node">
<title>Node15</title>
<g id="a_Node000015"><a xlink:href="applications_2azure__board__apps_2apps_2kalman__filter_2main_2kalman__filter__demo_8cpp.html#abce06be17fc37d675118a678a8100a36" target="_top" xlink:title=" ">
<polygon fill="white" stroke="#666666" points="58,-765 0,-765 0,-745 58,-745 58,-765"/>
<text xml:space="preserve" text-anchor="middle" x="29" y="-751.5" font-family="Helvetica,sans-Serif" font-size="10.00">app_main</text>
</a>
</g>
</g>
<!-- Node14&#45;&gt;Node15 -->
<g id="edge14_Node000014_Node000015" class="edge">
<title>Node14&#45;&gt;Node15</title>
<g id="a_edge14_Node000014_Node000015"><a xlink:title=" ">
<path fill="none" stroke="#63b8ff" d="M264.72,-713.33C262.57,-714.48 260.49,-715.7 258.5,-717 239.01,-729.71 243.87,-745.81 222.5,-755 168.31,-778.31 97.34,-769.48 58.49,-761.74"/>
<polygon fill="#63b8ff" stroke="#63b8ff" points="266.16,-716.53 273.73,-709.12 263.19,-710.19 266.16,-716.53"/>
</a>
</g>
</g>
<!-- Node16 -->
<g id="Node000016" class="node">
<title>Node16</title>
<g id="a_Node000016"><a xlink:href="applications_2azure__board__apps_2apps_2kalman__filter_2main_2kalman__filter__demo_8cpp.html#a1967e917dafd16b5f02410c5b10c1d90" target="_top" xlink:title="Kalman filter calibration procedure.">
<polygon fill="white" stroke="#666666" points="218.75,-746 97.75,-746 97.75,-726 218.75,-726 218.75,-746"/>
<text xml:space="preserve" text-anchor="middle" x="158.25" y="-732.5" font-family="Helvetica,sans-Serif" font-size="10.00">kalman_filter_calibration</text>
</a>
</g>
</g>
<!-- Node14&#45;&gt;Node16 -->
<g id="edge15_Node000014_Node000016" class="edge">
<title>Node14&#45;&gt;Node16</title>
<g id="a_edge15_Node000014_Node000016"><a xlink:title=" ">
<path fill="none" stroke="#63b8ff" d="M258.5,-711.25C239.72,-715.93 218.87,-721.13 201.15,-725.55"/>
<polygon fill="#63b8ff" stroke="#63b8ff" points="259.26,-714.67 268.12,-708.85 257.57,-707.87 259.26,-714.67"/>
</a>
</g>
</g>
<!-- Node17 -->
<g id="Node000017" class="node">
<title>Node17</title>
<g id="a_Node000017"><a xlink:href="external__examples_2b00f000e_2applications_2azure__board__apps_2apps_2kalman__filter_2main_2kalman__filter__demo_8cpp.html#a1967e917dafd16b5f02410c5b10c1d90" target="_top" xlink:title="Kalman filter calibration procedure.">
<polygon fill="#fff0f0" stroke="red" points="218.75,-708 97.75,-708 97.75,-688 218.75,-688 218.75,-708"/>
<text xml:space="preserve" text-anchor="middle" x="158.25" y="-694.5" font-family="Helvetica,sans-Serif" font-size="10.00">kalman_filter_calibration</text>
</a>
</g>
</g>
<!-- Node14&#45;&gt;Node17 -->
<g id="edge17_Node000014_Node000017" class="edge">
<title>Node14&#45;&gt;Node17</title>
<g id="a_edge17_Node000014_Node000017"><a xlink:title=" ">
<path fill="none" stroke="#63b8ff" d="M253.22,-698C242.01,-698 230.25,-698 219,-698"/>
<polygon fill="#63b8ff" stroke="#63b8ff" points="253.15,-701.5 263.15,-698 253.15,-694.5 253.15,-701.5"/>
</a>
</g>
</g>
<!-- Node19 -->
<g id="Node000019" class="node">
<title>Node19</title>
<g id="a_Node000019"><a xlink:href="external__examples_2d1468452_2apps_2kalman__filter_2main_2kalman__filter__demo_8cpp.html#a1967e917dafd16b5f02410c5b10c1d90" target="_top" xlink:title="Kalman filter calibration procedure.">
<polygon fill="#fff0f0" stroke="red" points="218.75,-670 97.75,-670 97.75,-650 218.75,-650 218.75,-670"/>
<text xml:space="preserve" text-anchor="middle" x="158.25" y="-656.5" font-family="Helvetica,sans-Serif" font-size="10.00">kalman_filter_calibration</text>
</a>
</g>
</g>
<!-- Node14&#45;&gt;Node19 -->
<g id="edge18_Node000014_Node000019" class="edge">
<title>Node14&#45;&gt;Node19</title>
<g id="a_edge18_Node000014_Node000019"><a xlink:title=" ">
<path fill="none" stroke="#63b8ff" d="M258.5,-684.75C239.72,-680.07 218.87,-674.87 201.15,-670.45"/>
<polygon fill="#63b8ff" stroke="#63b8ff" points="257.57,-688.13 268.12,-687.15 259.26,-681.33 257.57,-688.13"/>
</a>
</g>
</g>
<!-- Node21 -->
<g id="Node000021" class="node">
<title>Node21</title>
<g id="a_Node000021"><a xlink:href="external__examples_2f9c2d4b3_2azure__board__apps_2apps_2kalman__filter_2main_2kalman__filter__demo_8cpp.html#a1967e917dafd16b5f02410c5b10c1d90" target="_top" xlink:title="Kalman filter calibration procedure.">
<polygon fill="#fff0f0" stroke="red" points="218.75,-632 97.75,-632 97.75,-612 218.75,-612 218.75,-632"/>
<text xml:space="preserve" text-anchor="middle" x="158.25" y="-618.5" font-family="Helvetica,sans-Serif" font-size="10.00">kalman_filter_calibration</text>
</a>
</g>
</g>
<!-- Node14&#45;&gt;Node21 -->
<g id="edge19_Node000014_Node000021" class="edge">
<title>Node14&#45;&gt;Node21</title>
<g id="a_edge19_Node000014_Node000021"><a xlink:title=" ">
<path fill="none" stroke="#63b8ff" d="M264.72,-682.67C262.57,-681.52 260.49,-680.3 258.5,-679 239.01,-666.29 242.31,-653.2 222.5,-641 216.94,-637.57 210.71,-634.73 204.4,-632.38"/>
<polygon fill="#63b8ff" stroke="#63b8ff" points="263.19,-685.81 273.73,-686.88 266.16,-679.47 263.19,-685.81"/>
</a>
</g>
</g>
<!-- Node16&#45;&gt;Node15 -->
<g id="edge16_Node000016_Node000015" class="edge">
<title>Node16&#45;&gt;Node15</title>
<g id="a_edge16_Node000016_Node000015"><a xlink:title=" ">
<path fill="none" stroke="#63b8ff" d="M86.14,-746.62C76.26,-748.09 66.62,-749.53 58.2,-750.79"/>
<polygon fill="#63b8ff" stroke="#63b8ff" points="86.48,-750.11 95.85,-745.17 85.45,-743.18 86.48,-750.11"/>
</a>
</g>
</g>
<!-- Node24 -->
<g id="Node000024" class="node">
<title>Node24</title>
<g id="a_Node000024"><a xlink:href="external__examples_2b00f000e_2applications_2azure__board__apps_2apps_2kalman__filter_2main_2kalman__filter__demo_8cpp.html#af43b34764385f3f1ad35ce1c00db220f" target="_top" xlink:title="Kalman filter RTOS task (or ESP timer callback).">
<polygon fill="white" stroke="#666666" points="360.38,-670 264.88,-670 264.88,-650 360.38,-650 360.38,-670"/>
<text xml:space="preserve" text-anchor="middle" x="312.62" y="-656.5" font-family="Helvetica,sans-Serif" font-size="10.00">kalman_filter_task</text>
</a>
</g>
</g>
<!-- Node23&#45;&gt;Node24 -->
<g id="edge21_Node000023_Node000024" class="edge">
<title>Node23&#45;&gt;Node24</title>
<g id="a_edge21_Node000023_Node000024"><a xlink:title=" ">
<path fill="none" stroke="#63b8ff" d="M422.12,-660C402.33,-660 379.99,-660 360.75,-660"/>
<polygon fill="#63b8ff" stroke="#63b8ff" points="421.93,-663.5 431.93,-660 421.93,-656.5 421.93,-663.5"/>
</a>
</g>
</g>
<!-- Node26 -->
<g id="Node000026" class="node">
<title>Node26</title>
<g id="a_Node000026"><a xlink:href="external__examples_2d1468452_2apps_2kalman__filter_2main_2kalman__filter__demo_8cpp.html#af43b34764385f3f1ad35ce1c00db220f" target="_top" xlink:title="Kalman filter RTOS task (or ESP timer callback).">
<polygon fill="white" stroke="#666666" points="360.38,-632 264.88,-632 264.88,-612 360.38,-612 360.38,-632"/>
<text xml:space="preserve" text-anchor="middle" x="312.62" y="-618.5" font-family="Helvetica,sans-Serif" font-size="10.00">kalman_filter_task</text>
</a>
</g>
</g>
<!-- Node25&#45;&gt;Node26 -->
<g id="edge23_Node000025_Node000026" class="edge">
<title>Node25&#45;&gt;Node26</title>
<g id="a_edge23_Node000025_Node000026"><a xlink:title=" ">
<path fill="none" stroke="#63b8ff" d="M422.12,-622C402.33,-622 379.99,-622 360.75,-622"/>
<polygon fill="#63b8ff" stroke="#63b8ff" points="421.93,-625.5 431.93,-622 421.93,-618.5 421.93,-625.5"/>
</a>
</g>
</g>
<!-- Node28 -->
<g id="Node000028" class="node">
<title>Node28</title>
<g id="a_Node000028"><a xlink:href="external__examples_2f9c2d4b3_2azure__board__apps_2apps_2kalman__filter_2main_2kalman__filter__demo_8cpp.html#af43b34764385f3f1ad35ce1c00db220f" target="_top" xlink:title="Kalman filter RTOS task (or ESP timer callback).">
<polygon fill="white" stroke="#666666" points="360.38,-594 264.88,-594 264.88,-574 360.38,-574 360.38,-594"/>
<text xml:space="preserve" text-anchor="middle" x="312.62" y="-580.5" font-family="Helvetica,sans-Serif" font-size="10.00">kalman_filter_task</text>
</a>
</g>
</g>
<!-- Node27&#45;&gt;Node28 -->
<g id="edge25_Node000027_Node000028" class="edge">
<title>Node27&#45;&gt;Node28</title>
<g id="a_edge25_Node000027_Node000028"><a xlink:title=" ">
<path fill="none" stroke="#63b8ff" d="M422.12,-584C402.33,-584 379.99,-584 360.75,-584"/>
<polygon fill="#63b8ff" stroke="#63b8ff" points="421.93,-587.5 431.93,-584 421.93,-580.5 421.93,-587.5"/>
</a>
</g>
</g>
<!-- Node29&#45;&gt;Node6 -->
<g id="edge27_Node000029_Node000006" class="edge">
<title>Node29&#45;&gt;Node6</title>
<g id="a_edge27_Node000029_Node000006"><a xlink:title=" ">
<path fill="none" stroke="#63b8ff" d="M410.57,-857.59C386.74,-860.39 360.94,-863.43 341.95,-865.67"/>
<polygon fill="#63b8ff" stroke="#63b8ff" points="410.69,-861.1 420.21,-856.45 409.87,-854.14 410.69,-861.1"/>
</a>
</g>
</g>
<!-- Node37&#45;&gt;Node37 -->
<g id="edge36_Node000037_Node000037" class="edge">
<title>Node37&#45;&gt;Node37</title>
<g id="a_edge36_Node000037_Node000037"><a xlink:title=" ">
<path fill="none" stroke="#63b8ff" d="M502.75,-283.44C499.31,-287.3 490.39,-290 476,-290 449.69,-290 441.67,-280.98 451.95,-272.34"/>
<polygon fill="#63b8ff" stroke="#63b8ff" points="506.18,-282.7 500.41,-273.81 499.37,-284.35 506.18,-282.7"/>
</a>
</g>
</g>
<!-- Node38 -->
<g id="Node000038" class="node">
<title>Node38</title>
<g id="a_Node000038"><a xlink:href="classdspm_1_1_mat.html#a169cb1f531813dfe48f94f4392261c61" target="_top" xlink:title=" ">
<polygon fill="white" stroke="#666666" points="366.75,-272 258.5,-272 258.5,-252 366.75,-252 366.75,-272"/>
<text xml:space="preserve" text-anchor="middle" x="312.62" y="-258.5" font-family="Helvetica,sans-Serif" font-size="10.00">dspm::Mat::operator^</text>
</a>
</g>
</g>
<!-- Node37&#45;&gt;Node38 -->
<g id="edge37_Node000037_Node000038" class="edge">
<title>Node37&#45;&gt;Node38</title>
<g id="a_edge37_Node000037_Node000038"><a xlink:title=" ">
<path fill="none" stroke="#63b8ff" d="M408.13,-262C394.45,-262 380.22,-262 367.08,-262"/>
<polygon fill="#63b8ff" stroke="#63b8ff" points="407.95,-265.5 417.95,-262 407.95,-258.5 407.95,-265.5"/>
</a>
</g>
</g>
<!-- Node41&#45;&gt;Node42 -->
<g id="edge41_Node000041_Node000042" class="edge">
<title>Node41&#45;&gt;Node42</title>
<g id="a_edge41_Node000041_Node000042"><a xlink:title=" ">
<path fill="none" stroke="#63b8ff" d="M421.17,-141.66C399.37,-139.1 374.61,-136.18 354.35,-133.79"/>
<polygon fill="#63b8ff" stroke="#63b8ff" points="420.76,-145.14 431.1,-142.83 421.58,-138.19 420.76,-145.14"/>
</a>
</g>
</g>
</g>
</svg>

<g id="navigator" transform="translate(0 0)" fill="#404254">
  <rect fill="#f2f5e9" fill-opacity="0.5" stroke="#606060" stroke-width=".5" x="0" y="0" width="60" height="60"/>
  <use id="zoomplus" xlink:href="#zoomPlus" x="17" y="9" onmousedown="handleZoom(evt,'in')"/>
  <use id="zoomminus" xlink:href="#zoomMin" x="42" y="9" onmousedown="handleZoom(evt,'out')"/>
  <use id="reset" xlink:href="#resetDef" x="30" y="36" onmousedown="handleReset()"/>
   <use id="arrowup" xlink:href="#arrowUp" x="0" y="0" onmousedown="handlePan(0,-1)"/>
  <use id="arrowright" xlink:href="#arrowRight" x="0" y="0" onmousedown="handlePan(1,0)"/>
  <use id="arrowdown" xlink:href="#arrowDown" x="0" y="0" onmousedown="handlePan(0,1)"/>
  <use id="arrowleft" xlink:href="#arrowLeft" x="0" y="0" onmousedown="handlePan(-1,0)"/>
</g>
<svg viewBox="0 0 15 15" width="100%" height="30px" preserveAspectRatio="xMaxYMin meet">
 <g id="arrow_out" transform="scale(0.3 0.3)">
  <a xlink:href="classdspm_1_1_mat_a7502c6d836d1ae05f6880620c1a832b5_icgraph_org.svg" target="_base">
   <rect id="button" ry="5" rx="5" y="6" x="6" height="38" width="38"
        fill="#f2f5e9" fill-opacity="0.5" stroke="#606060" stroke-width="1.0"/>
   <path id="arrow"
     d="M 11.500037,31.436501 C 11.940474,20.09759 22.043105,11.32322 32.158766,21.979434 L 37.068811,17.246167 C 37.068811,17.246167 37.088388,32 37.088388,32 L 22.160133,31.978069 C 22.160133,31.978069 26.997745,27.140456 26.997745,27.140456 C 18.528582,18.264221 13.291696,25.230495 11.500037,31.436501 z"
     style="fill:#404040;"/>
  </a>
 </g>
</svg>

<style type='text/css'>
<![CDATA[
[data-mouse-over-selected='false'] { opacity: 0.7; }
[data-mouse-over-selected='true']  { opacity: 1.0; }
]]>
</style>
<script type="application/ecmascript"><![CDATA[
document.addEventListener('DOMContentLoaded', (event) => {
  highlightEdges();
  highlightAdjacentNodes();
});
]]></script>
</svg>
