<?xml version="1.0" encoding="UTF-8" standalone="no"?>
<!DOCTYPE svg PUBLIC "-//W3C//DTD SVG 1.1//EN"
 "http://www.w3.org/Graphics/SVG/1.1/DTD/svg11.dtd">
<!-- Generated by graphviz version 14.1.2 (20260124.0452)
 -->
<!-- Title: ekf::eul2rotm Pages: 1 -->
<!--zoomable 522 -->

<svg id="main" version="1.1" xmlns="http://www.w3.org/2000/svg" xmlns:xlink="http://www.w3.org/1999/xlink" xml:space="preserve" onload="init(evt)">

<style type="text/css"><![CDATA[
.node, .edge {opacity: 0.7;}
.node.selected, .edge.selected {opacity: 1;}
.edge:hover path { stroke: red; }
.edge:hover polygon { stroke: red; fill: red; }
]]></style>

<defs>
  <circle id="rim" cx="0" cy="0" r="7"/>
  <circle id="rim2" cx="0" cy="0" r="3.5"/>
  <g id="zoomPlus">
    <use xlink:href="#rim" fill="#404040"><set attributeName="fill" to="#808080" begin="zoomplus.mouseover" end="zoomplus.mouseout"/></use>
    <path d="M-4,0h8M0,-4v8" fill="none" stroke="white" stroke-width="1.5" pointer-events="none"/>
  </g>
  <g id="zoomMin">
    <use xlink:href="#rim" fill="#404040"><set attributeName="fill" to="#808080" begin="zoomminus.mouseover" end="zoomminus.mouseout"/></use>
    <path d="M-4,0h8" fill="none" stroke="white" stroke-width="1.5" pointer-events="none"/>
  </g>
  <g id="arrowUp" transform="translate(30 24)">
    <use xlink:href="#rim"/>
    <path pointer-events="none" fill="none" stroke="white" stroke-width="1.5" d="M0,-3.0v7 M-2.5,-0.5L0,-3.0L2.5,-0.5"/>
  </g>
  <g id="arrowRight" transform="rotate(90) translate(36 -43)">
    <use xlink:href="#rim"/>
    <path pointer-events="none" fill="none" stroke="white" stroke-width="1.5" d="M0,-3.0v7 M-2.5,-0.5L0,-3.0L2.5,-0.5"/>
  </g>
  <g id="arrowDown" transform="rotate(180) translate(-30 -48)">
    <use xlink:href="#rim"/>
    <path pointer-events="none" fill="none" stroke="white" stroke-width="1.5" d="M0,-3.0v7 M-2.5,-0.5L0,-3.0L2.5,-0.5"/>
  </g>
  <g id="arrowLeft" transform="rotate(270) translate(-36 17)">
    <use xlink:href="#rim"/>
    <path pointer-events="none" fill="none" stroke="white" stroke-width="1.5" d="M0,-3.0v7 M-2.5,-0.5L0,-3.0L2.5,-0.5"/>
  </g>
  <g id="resetDef">
    <use xlink:href="#rim2" fill="#404040"><set attributeName="fill" to="#808080" begin="reset.mouseover" end="reset.mouseout"/></use>
  </g>
</defs>
<script type="application/ecmascript">
var viewWidth = 772;
var viewHeight = 522;
var sectionId = 'dynsection-6';
</script>
<script type="application/ecmascript" xlink:href="svg.min.js"/>
<svg id="graph" class="graph">
<g id="viewport">
<title>ekf::eul2rotm</title>
<!-- Node1 -->
<g id="Node000001" class="node">
<title>Node1</title>
<g id="a_Node000001"><a xlink:title=" ">
<polygon fill="#999999" stroke="#666666" points="764.25,-343 691.25,-343 691.25,-323 764.25,-323 764.25,-343"/>
<text xml:space="preserve" text-anchor="middle" x="727.75" y="-329.5" font-family="Helvetica,sans-Serif" font-size="10.00">ekf::eul2rotm</text>
</a>
</g>
</g>
<!-- Node2 -->
<g id="Node000002" class="node">
<title>Node2</title>
<g id="a_Node000002"><a xlink:href="applications_2azure__board__apps_2apps_2kalman__filter_2main_2kalman__filter__demo_8cpp.html#a2955b9e77f5bd23f109feaaed1496af5" target="_top" xlink:title="Draw a 3d image.">
<polygon fill="white" stroke="#666666" points="478.75,-438 394.5,-438 394.5,-418 478.75,-418 478.75,-438"/>
<text xml:space="preserve" text-anchor="middle" x="436.62" y="-424.5" font-family="Helvetica,sans-Serif" font-size="10.00">draw_3d_image</text>
</a>
</g>
</g>
<!-- Node1&#45;&gt;Node2 -->
<g id="edge1_Node000001_Node000002" class="edge">
<title>Node1&#45;&gt;Node2</title>
<g id="a_edge1_Node000001_Node000002"><a xlink:title=" ">
<path fill="none" stroke="#63b8ff" d="M705.45,-350.45C691.85,-360.76 673.41,-373.28 655.25,-381 596.91,-405.8 524.01,-418.11 479.14,-423.76"/>
<polygon fill="#63b8ff" stroke="#63b8ff" points="707.52,-353.28 713.24,-344.36 703.2,-347.76 707.52,-353.28"/>
</a>
</g>
</g>
<!-- Node12 -->
<g id="Node000012" class="node">
<title>Node12</title>
<g id="a_Node000012"><a xlink:href="external__examples_2b00f000e_2applications_2azure__board__apps_2apps_2kalman__filter_2main_2kalman__filter__demo_8cpp.html#a2955b9e77f5bd23f109feaaed1496af5" target="_top" xlink:title="Draw a 3d image.">
<polygon fill="white" stroke="#666666" points="478.75,-400 394.5,-400 394.5,-380 478.75,-380 478.75,-400"/>
<text xml:space="preserve" text-anchor="middle" x="436.62" y="-386.5" font-family="Helvetica,sans-Serif" font-size="10.00">draw_3d_image</text>
</a>
</g>
</g>
<!-- Node1&#45;&gt;Node12 -->
<g id="edge9_Node000001_Node000012" class="edge">
<title>Node1&#45;&gt;Node12</title>
<g id="a_edge9_Node000001_Node000012"><a xlink:title=" ">
<path fill="none" stroke="#63b8ff" d="M687.07,-346.98C676.8,-350.26 665.69,-353.52 655.25,-356 594.6,-370.4 522.96,-380.25 478.91,-385.5"/>
<polygon fill="#63b8ff" stroke="#63b8ff" points="687.98,-350.37 696.38,-343.92 685.79,-343.72 687.98,-350.37"/>
</a>
</g>
</g>
<!-- Node14 -->
<g id="Node000014" class="node">
<title>Node14</title>
<g id="a_Node000014"><a xlink:href="external__examples_2d1468452_2apps_2kalman__filter_2main_2kalman__filter__demo_8cpp.html#a2955b9e77f5bd23f109feaaed1496af5" target="_top" xlink:title="Draw a 3d image.">
<polygon fill="white" stroke="#666666" points="478.75,-362 394.5,-362 394.5,-342 478.75,-342 478.75,-362"/>
<text xml:space="preserve" text-anchor="middle" x="436.62" y="-348.5" font-family="Helvetica,sans-Serif" font-size="10.00">draw_3d_image</text>
</a>
</g>
</g>
<!-- Node1&#45;&gt;Node14 -->
<g id="edge11_Node000001_Node000014" class="edge">
<title>Node1&#45;&gt;Node14</title>
<g id="a_edge11_Node000001_Node000014"><a xlink:title=" ">
<path fill="none" stroke="#63b8ff" d="M679.69,-336.09C623.94,-339.76 531.96,-345.8 478.88,-349.29"/>
<polygon fill="#63b8ff" stroke="#63b8ff" points="679.75,-339.6 689.5,-335.45 679.29,-332.61 679.75,-339.6"/>
</a>
</g>
</g>
<!-- Node16 -->
<g id="Node000016" class="node">
<title>Node16</title>
<g id="a_Node000016"><a xlink:href="external__examples_2f9c2d4b3_2azure__board__apps_2apps_2kalman__filter_2main_2kalman__filter__demo_8cpp.html#a2955b9e77f5bd23f109feaaed1496af5" target="_top" xlink:title="Draw a 3d image.">
<polygon fill="white" stroke="#666666" points="478.75,-324 394.5,-324 394.5,-304 478.75,-304 478.75,-324"/>
<text xml:space="preserve" text-anchor="middle" x="436.62" y="-310.5" font-family="Helvetica,sans-Serif" font-size="10.00">draw_3d_image</text>
</a>
</g>
</g>
<!-- Node1&#45;&gt;Node16 -->
<g id="edge13_Node000001_Node000016" class="edge">
<title>Node1&#45;&gt;Node16</title>
<g id="a_edge13_Node000001_Node000016"><a xlink:title=" ">
<path fill="none" stroke="#63b8ff" d="M679.69,-329.91C623.94,-326.24 531.96,-320.2 478.88,-316.71"/>
<polygon fill="#63b8ff" stroke="#63b8ff" points="679.29,-333.39 689.5,-330.55 679.75,-326.4 679.29,-333.39"/>
</a>
</g>
</g>
<!-- Node18 -->
<g id="Node000018" class="node">
<title>Node18</title>
<g id="a_Node000018"><a xlink:href="classekf__imu13states.html#a7f315abd38007e57247edc0967d688f7" target="_top" xlink:title=" ">
<polygon fill="white" stroke="#666666" points="655.25,-229 526.75,-229 526.75,-209 655.25,-209 655.25,-229"/>
<text xml:space="preserve" text-anchor="middle" x="591" y="-215.5" font-family="Helvetica,sans-Serif" font-size="10.00">ekf_imu13states::TestFull</text>
</a>
</g>
</g>
<!-- Node1&#45;&gt;Node18 -->
<g id="edge15_Node000001_Node000018" class="edge">
<title>Node1&#45;&gt;Node18</title>
<g id="a_edge15_Node000001_Node000018"><a xlink:title=" ">
<path fill="none" stroke="#63b8ff" d="M716.52,-312.65C704.65,-291.05 683.08,-257.4 655.25,-238 650.36,-234.59 644.84,-231.78 639.16,-229.47"/>
<polygon fill="#63b8ff" stroke="#63b8ff" points="713.36,-314.16 721.12,-321.37 719.55,-310.89 713.36,-314.16"/>
</a>
</g>
</g>
<!-- Node19 -->
<g id="Node000019" class="node">
<title>Node19</title>
<g id="a_Node000019"><a xlink:href="applications_2azure__board__apps_2graphics_23d__matrix_23d__matrix__src_2graphics__support_8cpp.html#abddf00a5f71e067190147e3ecdb49d3f" target="_top" xlink:title="update rotation matrix">
<polygon fill="white" stroke="#666666" points="648.5,-267 533.5,-267 533.5,-247 648.5,-247 648.5,-267"/>
<text xml:space="preserve" text-anchor="middle" x="591" y="-253.5" font-family="Helvetica,sans-Serif" font-size="10.00">update_rotation_matrix</text>
</a>
</g>
</g>
<!-- Node1&#45;&gt;Node19 -->
<g id="edge16_Node000001_Node000019" class="edge">
<title>Node1&#45;&gt;Node19</title>
<g id="a_edge16_Node000001_Node000019"><a xlink:title=" ">
<path fill="none" stroke="#63b8ff" d="M698.44,-317.03C671.86,-302.04 632.91,-280.07 610.23,-267.28"/>
<polygon fill="#63b8ff" stroke="#63b8ff" points="696.55,-319.98 706.98,-321.85 699.99,-313.89 696.55,-319.98"/>
</a>
</g>
</g>
<!-- Node3 -->
<g id="Node000003" class="node">
<title>Node3</title>
<g id="a_Node000003"><a xlink:href="applications_2azure__board__apps_2apps_2kalman__filter_2main_2kalman__filter__demo_8cpp.html#af43b34764385f3f1ad35ce1c00db220f" target="_top" xlink:title="Kalman filter RTOS task (or ESP timer callback).">
<polygon fill="white" stroke="#666666" points="346.5,-438 251,-438 251,-418 346.5,-418 346.5,-438"/>
<text xml:space="preserve" text-anchor="middle" x="298.75" y="-424.5" font-family="Helvetica,sans-Serif" font-size="10.00">kalman_filter_task</text>
</a>
</g>
</g>
<!-- Node2&#45;&gt;Node3 -->
<g id="edge2_Node000002_Node000003" class="edge">
<title>Node2&#45;&gt;Node3</title>
<g id="a_edge2_Node000002_Node000003"><a xlink:title=" ">
<path fill="none" stroke="#63b8ff" d="M382.93,-428C370.99,-428 358.38,-428 346.7,-428"/>
<polygon fill="#63b8ff" stroke="#63b8ff" points="382.61,-431.5 392.61,-428 382.61,-424.5 382.61,-431.5"/>
</a>
</g>
</g>
<!-- Node4 -->
<g id="Node000004" class="node">
<title>Node4</title>
<g id="a_Node000004"><a xlink:href="applications_2azure__board__apps_2apps_2kalman__filter_2main_2kalman__filter__demo_8cpp.html#abce06be17fc37d675118a678a8100a36" target="_top" xlink:title=" ">
<polygon fill="white" stroke="#666666" points="58,-495 0,-495 0,-475 58,-475 58,-495"/>
<text xml:space="preserve" text-anchor="middle" x="29" y="-481.5" font-family="Helvetica,sans-Serif" font-size="10.00">app_main</text>
</a>
</g>
</g>
<!-- Node3&#45;&gt;Node4 -->
<g id="edge3_Node000003_Node000004" class="edge">
<title>Node3&#45;&gt;Node4</title>
<g id="a_edge3_Node000003_Node000004"><a xlink:title=" ">
<path fill="none" stroke="#63b8ff" d="M241.91,-441.01C232.92,-443.05 223.71,-445.11 215,-447 159.57,-459.05 94.57,-472.17 58.25,-479.41"/>
<polygon fill="#63b8ff" stroke="#63b8ff" points="242.68,-444.42 251.65,-438.78 241.12,-437.6 242.68,-444.42"/>
</a>
</g>
</g>
<!-- Node5 -->
<g id="Node000005" class="node">
<title>Node5</title>
<g id="a_Node000005"><a xlink:href="applications_2azure__board__apps_2apps_2kalman__filter_2main_2kalman__filter__demo_8cpp.html#a1967e917dafd16b5f02410c5b10c1d90" target="_top" xlink:title="Kalman filter calibration procedure.">
<polygon fill="white" stroke="#666666" points="215,-514 94,-514 94,-494 215,-494 215,-514"/>
<text xml:space="preserve" text-anchor="middle" x="154.5" y="-500.5" font-family="Helvetica,sans-Serif" font-size="10.00">kalman_filter_calibration</text>
</a>
</g>
</g>
<!-- Node3&#45;&gt;Node5 -->
<g id="edge4_Node000003_Node000005" class="edge">
<title>Node3&#45;&gt;Node5</title>
<g id="a_edge4_Node000003_Node000005"><a xlink:title=" ">
<path fill="none" stroke="#63b8ff" d="M273.73,-444.69C257.56,-455.52 235.52,-469.52 215,-480 205.28,-484.97 194.28,-489.65 184.41,-493.53"/>
<polygon fill="#63b8ff" stroke="#63b8ff" points="275.41,-447.78 281.72,-439.27 271.48,-441.99 275.41,-447.78"/>
</a>
</g>
</g>
<!-- Node6 -->
<g id="Node000006" class="node">
<title>Node6</title>
<g id="a_Node000006"><a xlink:href="external__examples_2b00f000e_2applications_2azure__board__apps_2apps_2kalman__filter_2main_2kalman__filter__demo_8cpp.html#a1967e917dafd16b5f02410c5b10c1d90" target="_top" xlink:title="Kalman filter calibration procedure.">
<polygon fill="#fff0f0" stroke="red" points="215,-438 94,-438 94,-418 215,-418 215,-438"/>
<text xml:space="preserve" text-anchor="middle" x="154.5" y="-424.5" font-family="Helvetica,sans-Serif" font-size="10.00">kalman_filter_calibration</text>
</a>
</g>
</g>
<!-- Node3&#45;&gt;Node6 -->
<g id="edge6_Node000003_Node000006" class="edge">
<title>Node3&#45;&gt;Node6</title>
<g id="a_edge6_Node000003_Node000006"><a xlink:title=" ">
<path fill="none" stroke="#63b8ff" d="M239.37,-428C231.45,-428 223.31,-428 215.36,-428"/>
<polygon fill="#63b8ff" stroke="#63b8ff" points="239.26,-431.5 249.26,-428 239.26,-424.5 239.26,-431.5"/>
</a>
</g>
</g>
<!-- Node8 -->
<g id="Node000008" class="node">
<title>Node8</title>
<g id="a_Node000008"><a xlink:href="external__examples_2d1468452_2apps_2kalman__filter_2main_2kalman__filter__demo_8cpp.html#a1967e917dafd16b5f02410c5b10c1d90" target="_top" xlink:title="Kalman filter calibration procedure.">
<polygon fill="#fff0f0" stroke="red" points="215,-400 94,-400 94,-380 215,-380 215,-400"/>
<text xml:space="preserve" text-anchor="middle" x="154.5" y="-386.5" font-family="Helvetica,sans-Serif" font-size="10.00">kalman_filter_calibration</text>
</a>
</g>
</g>
<!-- Node3&#45;&gt;Node8 -->
<g id="edge7_Node000003_Node000008" class="edge">
<title>Node3&#45;&gt;Node8</title>
<g id="a_edge7_Node000003_Node000008"><a xlink:title=" ">
<path fill="none" stroke="#63b8ff" d="M247.42,-414.55C230.08,-409.92 210.93,-404.81 194.62,-400.45"/>
<polygon fill="#63b8ff" stroke="#63b8ff" points="246.48,-417.93 257.04,-417.13 248.28,-411.16 246.48,-417.93"/>
</a>
</g>
</g>
<!-- Node10 -->
<g id="Node000010" class="node">
<title>Node10</title>
<g id="a_Node000010"><a xlink:href="external__examples_2f9c2d4b3_2azure__board__apps_2apps_2kalman__filter_2main_2kalman__filter__demo_8cpp.html#a1967e917dafd16b5f02410c5b10c1d90" target="_top" xlink:title="Kalman filter calibration procedure.">
<polygon fill="#fff0f0" stroke="red" points="215,-362 94,-362 94,-342 215,-342 215,-362"/>
<text xml:space="preserve" text-anchor="middle" x="154.5" y="-348.5" font-family="Helvetica,sans-Serif" font-size="10.00">kalman_filter_calibration</text>
</a>
</g>
</g>
<!-- Node3&#45;&gt;Node10 -->
<g id="edge8_Node000003_Node000010" class="edge">
<title>Node3&#45;&gt;Node10</title>
<g id="a_edge8_Node000003_Node000010"><a xlink:title=" ">
<path fill="none" stroke="#63b8ff" d="M256.61,-412.49C254.67,-411.39 252.79,-410.22 251,-409 231.79,-395.88 234.7,-383.37 215,-371 209.58,-367.6 203.5,-364.75 197.35,-362.39"/>
<polygon fill="#63b8ff" stroke="#63b8ff" points="254.75,-415.48 265.26,-416.85 257.9,-409.22 254.75,-415.48"/>
</a>
</g>
</g>
<!-- Node5&#45;&gt;Node4 -->
<g id="edge5_Node000005_Node000004" class="edge">
<title>Node5&#45;&gt;Node4</title>
<g id="a_edge5_Node000005_Node000004"><a xlink:title=" ">
<path fill="none" stroke="#63b8ff" d="M82.35,-493.05C73.89,-491.75 65.67,-490.49 58.35,-489.36"/>
<polygon fill="#63b8ff" stroke="#63b8ff" points="81.65,-496.49 92.06,-494.55 82.71,-489.57 81.65,-496.49"/>
</a>
</g>
</g>
<!-- Node13 -->
<g id="Node000013" class="node">
<title>Node13</title>
<g id="a_Node000013"><a xlink:href="external__examples_2b00f000e_2applications_2azure__board__apps_2apps_2kalman__filter_2main_2kalman__filter__demo_8cpp.html#af43b34764385f3f1ad35ce1c00db220f" target="_top" xlink:title="Kalman filter RTOS task (or ESP timer callback).">
<polygon fill="white" stroke="#666666" points="346.5,-400 251,-400 251,-380 346.5,-380 346.5,-400"/>
<text xml:space="preserve" text-anchor="middle" x="298.75" y="-386.5" font-family="Helvetica,sans-Serif" font-size="10.00">kalman_filter_task</text>
</a>
</g>
</g>
<!-- Node12&#45;&gt;Node13 -->
<g id="edge10_Node000012_Node000013" class="edge">
<title>Node12&#45;&gt;Node13</title>
<g id="a_edge10_Node000012_Node000013"><a xlink:title=" ">
<path fill="none" stroke="#63b8ff" d="M382.93,-390C370.99,-390 358.38,-390 346.7,-390"/>
<polygon fill="#63b8ff" stroke="#63b8ff" points="382.61,-393.5 392.61,-390 382.61,-386.5 382.61,-393.5"/>
</a>
</g>
</g>
<!-- Node15 -->
<g id="Node000015" class="node">
<title>Node15</title>
<g id="a_Node000015"><a xlink:href="external__examples_2d1468452_2apps_2kalman__filter_2main_2kalman__filter__demo_8cpp.html#af43b34764385f3f1ad35ce1c00db220f" target="_top" xlink:title="Kalman filter RTOS task (or ESP timer callback).">
<polygon fill="white" stroke="#666666" points="346.5,-362 251,-362 251,-342 346.5,-342 346.5,-362"/>
<text xml:space="preserve" text-anchor="middle" x="298.75" y="-348.5" font-family="Helvetica,sans-Serif" font-size="10.00">kalman_filter_task</text>
</a>
</g>
</g>
<!-- Node14&#45;&gt;Node15 -->
<g id="edge12_Node000014_Node000015" class="edge">
<title>Node14&#45;&gt;Node15</title>
<g id="a_edge12_Node000014_Node000015"><a xlink:title=" ">
<path fill="none" stroke="#63b8ff" d="M382.93,-352C370.99,-352 358.38,-352 346.7,-352"/>
<polygon fill="#63b8ff" stroke="#63b8ff" points="382.61,-355.5 392.61,-352 382.61,-348.5 382.61,-355.5"/>
</a>
</g>
</g>
<!-- Node17 -->
<g id="Node000017" class="node">
<title>Node17</title>
<g id="a_Node000017"><a xlink:href="external__examples_2f9c2d4b3_2azure__board__apps_2apps_2kalman__filter_2main_2kalman__filter__demo_8cpp.html#af43b34764385f3f1ad35ce1c00db220f" target="_top" xlink:title="Kalman filter RTOS task (or ESP timer callback).">
<polygon fill="white" stroke="#666666" points="346.5,-324 251,-324 251,-304 346.5,-304 346.5,-324"/>
<text xml:space="preserve" text-anchor="middle" x="298.75" y="-310.5" font-family="Helvetica,sans-Serif" font-size="10.00">kalman_filter_task</text>
</a>
</g>
</g>
<!-- Node16&#45;&gt;Node17 -->
<g id="edge14_Node000016_Node000017" class="edge">
<title>Node16&#45;&gt;Node17</title>
<g id="a_edge14_Node000016_Node000017"><a xlink:title=" ">
<path fill="none" stroke="#63b8ff" d="M382.93,-314C370.99,-314 358.38,-314 346.7,-314"/>
<polygon fill="#63b8ff" stroke="#63b8ff" points="382.61,-317.5 392.61,-314 382.61,-310.5 382.61,-317.5"/>
</a>
</g>
</g>
<!-- Node19&#45;&gt;Node2 -->
<g id="edge17_Node000019_Node000002" class="edge">
<title>Node19&#45;&gt;Node2</title>
<g id="a_edge17_Node000019_Node000002"><a xlink:title=" ">
<path fill="none" stroke="#63b8ff" d="M581.75,-277.59C567.76,-310.03 536.37,-373.01 490.75,-409 486.44,-412.4 481.48,-415.22 476.35,-417.55"/>
<polygon fill="#63b8ff" stroke="#63b8ff" points="584.91,-279.11 585.53,-268.53 578.45,-276.41 584.91,-279.11"/>
</a>
</g>
</g>
<!-- Node19&#45;&gt;Node12 -->
<g id="edge18_Node000019_Node000012" class="edge">
<title>Node19&#45;&gt;Node12</title>
<g id="a_edge18_Node000019_Node000012"><a xlink:title=" ">
<path fill="none" stroke="#63b8ff" d="M577.36,-277C560.48,-302.22 528.3,-345.37 490.75,-371 485.82,-374.37 480.22,-377.21 474.55,-379.59"/>
<polygon fill="#63b8ff" stroke="#63b8ff" points="580.27,-278.95 582.81,-268.66 574.41,-275.12 580.27,-278.95"/>
</a>
</g>
</g>
<!-- Node19&#45;&gt;Node14 -->
<g id="edge19_Node000019_Node000014" class="edge">
<title>Node19&#45;&gt;Node14</title>
<g id="a_edge19_Node000019_Node000014"><a xlink:title=" ">
<path fill="none" stroke="#63b8ff" d="M570.47,-274.91C551.33,-291.73 520.73,-316.68 490.75,-333 484.81,-336.23 478.22,-339.1 471.75,-341.57"/>
<polygon fill="#63b8ff" stroke="#63b8ff" points="572.65,-277.67 577.77,-268.39 567.98,-272.45 572.65,-277.67"/>
</a>
</g>
</g>
<!-- Node19&#45;&gt;Node16 -->
<g id="edge20_Node000019_Node000016" class="edge">
<title>Node19&#45;&gt;Node16</title>
<g id="a_edge20_Node000019_Node000016"><a xlink:title=" ">
<path fill="none" stroke="#63b8ff" d="M552.44,-271.61C533.91,-278.76 511.19,-287.43 490.75,-295 483.13,-297.82 474.86,-300.81 467.17,-303.56"/>
<polygon fill="#63b8ff" stroke="#63b8ff" points="553.62,-274.9 561.69,-268.03 551.1,-268.37 553.62,-274.9"/>
</a>
</g>
</g>
<!-- Node20 -->
<g id="Node000020" class="node">
<title>Node20</title>
<g id="a_Node000020"><a xlink:href="applications_2azure__board__apps_2apps_23d__graphics_2main_23d__graphics__demo_8cpp.html#af3debef909dca35dbf0b6f842df6def3" target="_top" xlink:title="RTOS task to draw a 3d image.">
<polygon fill="white" stroke="#666666" points="490.75,-134 382.5,-134 382.5,-114 490.75,-114 490.75,-134"/>
<text xml:space="preserve" text-anchor="middle" x="436.62" y="-120.5" font-family="Helvetica,sans-Serif" font-size="10.00">draw_3d_image_task</text>
</a>
</g>
</g>
<!-- Node19&#45;&gt;Node20 -->
<g id="edge21_Node000019_Node000020" class="edge">
<title>Node19&#45;&gt;Node20</title>
<g id="a_edge21_Node000019_Node000020"><a xlink:title=" ">
<path fill="none" stroke="#63b8ff" d="M529.63,-240.46C528.63,-239.68 527.67,-238.86 526.75,-238 493.72,-207.22 522.98,-174.63 490.75,-143 487.25,-139.57 483.1,-136.75 478.67,-134.44"/>
<polygon fill="#63b8ff" stroke="#63b8ff" points="527.7,-243.39 538.03,-245.76 531.43,-237.47 527.7,-243.39"/>
</a>
</g>
</g>
<!-- Node22 -->
<g id="Node000022" class="node">
<title>Node22</title>
<g id="a_Node000022"><a xlink:href="applications_2m5stack__core__s3_2apps_23d__graphics_2main_23d__graphics__demo_8cpp.html#af3debef909dca35dbf0b6f842df6def3" target="_top" xlink:title="RTOS task to draw a 3d image.">
<polygon fill="white" stroke="#666666" points="490.75,-96 382.5,-96 382.5,-76 490.75,-76 490.75,-96"/>
<text xml:space="preserve" text-anchor="middle" x="436.62" y="-82.5" font-family="Helvetica,sans-Serif" font-size="10.00">draw_3d_image_task</text>
</a>
</g>
</g>
<!-- Node19&#45;&gt;Node22 -->
<g id="edge23_Node000019_Node000022" class="edge">
<title>Node19&#45;&gt;Node22</title>
<g id="a_edge23_Node000019_Node000022"><a xlink:title=" ">
<path fill="none" stroke="#63b8ff" d="M529.04,-240.18C528.25,-239.48 527.48,-238.76 526.75,-238 484.05,-194.11 532.31,-149.98 490.75,-105 487.56,-101.55 483.7,-98.72 479.53,-96.41"/>
<polygon fill="#63b8ff" stroke="#63b8ff" points="526.88,-242.94 537.09,-245.74 530.85,-237.18 526.88,-242.94"/>
</a>
</g>
</g>
<!-- Node23 -->
<g id="Node000023" class="node">
<title>Node23</title>
<g id="a_Node000023"><a xlink:href="applications_2m5stack__core__s3_2apps_2kalman__filter_2main_23d__kalman__demo_8cpp.html#af3debef909dca35dbf0b6f842df6def3" target="_top" xlink:title="RTOS task to draw a 3d image.">
<polygon fill="white" stroke="#666666" points="490.75,-58 382.5,-58 382.5,-38 490.75,-38 490.75,-58"/>
<text xml:space="preserve" text-anchor="middle" x="436.62" y="-44.5" font-family="Helvetica,sans-Serif" font-size="10.00">draw_3d_image_task</text>
</a>
</g>
</g>
<!-- Node19&#45;&gt;Node23 -->
<g id="edge24_Node000019_Node000023" class="edge">
<title>Node19&#45;&gt;Node23</title>
<g id="a_edge24_Node000019_Node000023"><a xlink:title=" ">
<path fill="none" stroke="#63b8ff" d="M528.6,-239.88C527.96,-239.28 527.35,-238.65 526.75,-238 474.2,-180.82 541.81,-125.52 490.75,-67 487.72,-63.53 484.02,-60.7 479.98,-58.38"/>
<polygon fill="#63b8ff" stroke="#63b8ff" points="526.47,-242.66 536.61,-245.74 530.6,-237.01 526.47,-242.66"/>
</a>
</g>
</g>
<!-- Node24 -->
<g id="Node000024" class="node">
<title>Node24</title>
<g id="a_Node000024"><a xlink:href="external__examples_2b00f000e_2applications_2azure__board__apps_2apps_23d__graphics_2main_23d__graphics__demo_8cpp.html#af3debef909dca35dbf0b6f842df6def3" target="_top" xlink:title="RTOS task to draw a 3d image.">
<polygon fill="white" stroke="#666666" points="490.75,-20 382.5,-20 382.5,0 490.75,0 490.75,-20"/>
<text xml:space="preserve" text-anchor="middle" x="436.62" y="-6.5" font-family="Helvetica,sans-Serif" font-size="10.00">draw_3d_image_task</text>
</a>
</g>
</g>
<!-- Node19&#45;&gt;Node24 -->
<g id="edge25_Node000019_Node000024" class="edge">
<title>Node19&#45;&gt;Node24</title>
<g id="a_edge25_Node000019_Node000024"><a xlink:title=" ">
<path fill="none" stroke="#63b8ff" d="M528.52,-239.87C527.91,-239.27 527.32,-238.64 526.75,-238 464.26,-167.43 551.4,-101.16 490.75,-29 487.85,-25.55 484.28,-22.73 480.37,-20.42"/>
<polygon fill="#63b8ff" stroke="#63b8ff" points="526.1,-242.42 536.19,-245.67 530.32,-236.84 526.1,-242.42"/>
</a>
</g>
</g>
<!-- Node25 -->
<g id="Node000025" class="node">
<title>Node25</title>
<g id="a_Node000025"><a xlink:href="external__examples_2b00f000e_2applications_2m5stack__core__s3_2apps_23d__graphics_2main_23d__graphics__demo_8cpp.html#af3debef909dca35dbf0b6f842df6def3" target="_top" xlink:title="RTOS task to draw a 3d image.">
<polygon fill="white" stroke="#666666" points="490.75,-286 382.5,-286 382.5,-266 490.75,-266 490.75,-286"/>
<text xml:space="preserve" text-anchor="middle" x="436.62" y="-272.5" font-family="Helvetica,sans-Serif" font-size="10.00">draw_3d_image_task</text>
</a>
</g>
</g>
<!-- Node19&#45;&gt;Node25 -->
<g id="edge26_Node000019_Node000025" class="edge">
<title>Node19&#45;&gt;Node25</title>
<g id="a_edge26_Node000019_Node000025"><a xlink:title=" ">
<path fill="none" stroke="#63b8ff" d="M522.11,-265.46C511.73,-266.76 501.14,-268.08 491.13,-269.33"/>
<polygon fill="#63b8ff" stroke="#63b8ff" points="522.27,-268.97 531.76,-264.26 521.4,-262.03 522.27,-268.97"/>
</a>
</g>
</g>
<!-- Node26 -->
<g id="Node000026" class="node">
<title>Node26</title>
<g id="a_Node000026"><a xlink:href="external__examples_2b00f000e_2applications_2m5stack__core__s3_2apps_2kalman__filter_2main_23d__kalman__demo_8cpp.html#af3debef909dca35dbf0b6f842df6def3" target="_top" xlink:title="RTOS task to draw a 3d image.">
<polygon fill="white" stroke="#666666" points="490.75,-248 382.5,-248 382.5,-228 490.75,-228 490.75,-248"/>
<text xml:space="preserve" text-anchor="middle" x="436.62" y="-234.5" font-family="Helvetica,sans-Serif" font-size="10.00">draw_3d_image_task</text>
</a>
</g>
</g>
<!-- Node19&#45;&gt;Node26 -->
<g id="edge27_Node000019_Node000026" class="edge">
<title>Node19&#45;&gt;Node26</title>
<g id="a_edge27_Node000019_Node000026"><a xlink:title=" ">
<path fill="none" stroke="#63b8ff" d="M522.11,-248.54C511.73,-247.24 501.14,-245.92 491.13,-244.67"/>
<polygon fill="#63b8ff" stroke="#63b8ff" points="521.4,-251.97 531.76,-249.74 522.27,-245.03 521.4,-251.97"/>
</a>
</g>
</g>
<!-- Node27 -->
<g id="Node000027" class="node">
<title>Node27</title>
<g id="a_Node000027"><a xlink:href="external__examples_2d1468452_2apps_23d__graphics_2main_23d__graphics__demo_8cpp.html#af3debef909dca35dbf0b6f842df6def3" target="_top" xlink:title="RTOS task to draw a 3d image.">
<polygon fill="white" stroke="#666666" points="490.75,-210 382.5,-210 382.5,-190 490.75,-190 490.75,-210"/>
<text xml:space="preserve" text-anchor="middle" x="436.62" y="-196.5" font-family="Helvetica,sans-Serif" font-size="10.00">draw_3d_image_task</text>
</a>
</g>
</g>
<!-- Node19&#45;&gt;Node27 -->
<g id="edge28_Node000019_Node000027" class="edge">
<title>Node19&#45;&gt;Node27</title>
<g id="a_edge28_Node000019_Node000027"><a xlink:title=" ">
<path fill="none" stroke="#63b8ff" d="M540.13,-243.02C535.57,-241.44 531.05,-239.76 526.75,-238 510.01,-231.14 507.31,-226.29 490.75,-219 483.85,-215.96 476.29,-213.03 469.1,-210.42"/>
<polygon fill="#63b8ff" stroke="#63b8ff" points="538.75,-246.25 549.35,-246.04 540.94,-239.6 538.75,-246.25"/>
</a>
</g>
</g>
<!-- Node28 -->
<g id="Node000028" class="node">
<title>Node28</title>
<g id="a_Node000028"><a xlink:href="external__examples_2f9c2d4b3_2azure__board__apps_2apps_23d__graphics_2main_23d__graphics__demo_8cpp.html#af3debef909dca35dbf0b6f842df6def3" target="_top" xlink:title="RTOS task to draw a 3d image.">
<polygon fill="white" stroke="#666666" points="490.75,-172 382.5,-172 382.5,-152 490.75,-152 490.75,-172"/>
<text xml:space="preserve" text-anchor="middle" x="436.62" y="-158.5" font-family="Helvetica,sans-Serif" font-size="10.00">draw_3d_image_task</text>
</a>
</g>
</g>
<!-- Node19&#45;&gt;Node28 -->
<g id="edge29_Node000019_Node000028" class="edge">
<title>Node19&#45;&gt;Node28</title>
<g id="a_edge29_Node000019_Node000028"><a xlink:title=" ">
<path fill="none" stroke="#63b8ff" d="M532.13,-241.64C530.26,-240.51 528.46,-239.3 526.75,-238 502.89,-219.88 514.13,-199.73 490.75,-181 486.47,-177.57 481.52,-174.73 476.4,-172.39"/>
<polygon fill="#63b8ff" stroke="#63b8ff" points="530.07,-244.52 540.57,-245.94 533.24,-238.28 530.07,-244.52"/>
</a>
</g>
</g>
<!-- Node21 -->
<g id="Node000021" class="node">
<title>Node21</title>
<g id="a_Node000021"><a xlink:href="applications_2azure__board__apps_2apps_23d__graphics_2main_23d__graphics__demo_8cpp.html#abce06be17fc37d675118a678a8100a36" target="_top" xlink:title=" ">
<polygon fill="white" stroke="#666666" points="327.75,-134 269.75,-134 269.75,-114 327.75,-114 327.75,-134"/>
<text xml:space="preserve" text-anchor="middle" x="298.75" y="-120.5" font-family="Helvetica,sans-Serif" font-size="10.00">app_main</text>
</a>
</g>
</g>
<!-- Node20&#45;&gt;Node21 -->
<g id="edge22_Node000020_Node000021" class="edge">
<title>Node20&#45;&gt;Node21</title>
<g id="a_edge22_Node000020_Node000021"><a xlink:title=" ">
<path fill="none" stroke="#63b8ff" d="M370.85,-124C355.73,-124 340.41,-124 327.88,-124"/>
<polygon fill="#63b8ff" stroke="#63b8ff" points="370.8,-127.5 380.8,-124 370.8,-120.5 370.8,-127.5"/>
</a>
</g>
</g>
</g>
</svg>

<g id="navigator" transform="translate(0 0)" fill="#404254">
  <rect fill="#f2f5e9" fill-opacity="0.5" stroke="#606060" stroke-width=".5" x="0" y="0" width="60" height="60"/>
  <use id="zoomplus" xlink:href="#zoomPlus" x="17" y="9" onmousedown="handleZoom(evt,'in')"/>
  <use id="zoomminus" xlink:href="#zoomMin" x="42" y="9" onmousedown="handleZoom(evt,'out')"/>
  <use id="reset" xlink:href="#resetDef" x="30" y="36" onmousedown="handleReset()"/>
   <use id="arrowup" xlink:href="#arrowUp" x="0" y="0" onmousedown="handlePan(0,-1)"/>
  <use id="arrowright" xlink:href="#arrowRight" x="0" y="0" onmousedown="handlePan(1,0)"/>
  <use id="arrowdown" xlink:href="#arrowDown" x="0" y="0" onmousedown="handlePan(0,1)"/>
  <use id="arrowleft" xlink:href="#arrowLeft" x="0" y="0" onmousedown="handlePan(-1,0)"/>
</g>
<svg viewBox="0 0 15 15" width="100%" height="30px" preserveAspectRatio="xMaxYMin meet">
 <g id="arrow_out" transform="scale(0.3 0.3)">
  <a xlink:href="classekf_a6e279ffd67d217145d7891a44ea0d9e8_icgraph_org.svg" target="_base">
   <rect id="button" ry="5" rx="5" y="6" x="6" height="38" width="38"
        fill="#f2f5e9" fill-opacity="0.5" stroke="#606060" stroke-width="1.0"/>
   <path id="arrow"
     d="M 11.500037,31.436501 C 11.940474,20.09759 22.043105,11.32322 32.158766,21.979434 L 37.068811,17.246167 C 37.068811,17.246167 37.088388,32 37.088388,32 L 22.160133,31.978069 C 22.160133,31.978069 26.997745,27.140456 26.997745,27.140456 C 18.528582,18.264221 13.291696,25.230495 11.500037,31.436501 z"
     style="fill:#404040;"/>
  </a>
 </g>
</svg>

<style type='text/css'>
<![CDATA[
[data-mouse-over-selected='false'] { opacity: 0.7; }
[data-mouse-over-selected='true']  { opacity: 1.0; }
]]>
</style>
<script type="application/ecmascript"><![CDATA[
document.addEventListener('DOMContentLoaded', (event) => {
  highlightEdges();
  highlightAdjacentNodes();
});
]]></script>
</svg>
