<?xml version="1.0" encoding="UTF-8" standalone="no"?>
<!DOCTYPE svg PUBLIC "-//W3C//DTD SVG 1.1//EN"
 "http://www.w3.org/Graphics/SVG/1.1/DTD/svg11.dtd">
<!-- Generated by graphviz version 14.1.2 (20260124.0452)
 -->
<!-- Title: dspm::Mat::det Pages: 1 -->
<svg width="382pt" height="104pt"
 viewBox="0.00 0.00 382.00 104.00" xmlns="http://www.w3.org/2000/svg" xmlns:xlink="http://www.w3.org/1999/xlink">
<g id="graph0" class="graph" transform="scale(1 1) rotate(0) translate(4 100)">
<title>dspm::Mat::det</title>
<!-- Node1 -->
<g id="Node000001" class="node">
<title>Node1</title>
<g id="a_Node000001"><a xlink:title=" ">
<polygon fill="#999999" stroke="#666666" points="82,-58 0,-58 0,-38 82,-38 82,-58"/>
<text xml:space="preserve" text-anchor="middle" x="41" y="-44.5" font-family="Helvetica,sans-Serif" font-size="10.00">dspm::Mat::det</text>
</a>
</g>
</g>
<!-- Node1&#45;&gt;Node1 -->
<g id="edge1_Node000001_Node000001" class="edge">
<title>Node1&#45;&gt;Node1</title>
<g id="a_edge1_Node000001_Node000001"><a xlink:title=" ">
<path fill="none" stroke="#63b8ff" d="M19.45,-58.34C10.24,-66.98 17.42,-76 41,-76 53.89,-76 61.88,-73.3 64.97,-69.44"/>
<polygon fill="#63b8ff" stroke="#63b8ff" points="68.42,-68.84 62.87,-59.82 61.58,-70.33 68.42,-68.84"/>
</a>
</g>
</g>
<!-- Node2 -->
<g id="Node000002" class="node">
<title>Node2</title>
<g id="a_Node000002"><a xlink:href="classdspm_1_1_mat.html#a4c822cafab693f430803cc91f0143214" target="_top" xlink:title=" ">
<polygon fill="white" stroke="#666666" points="219.12,-96 134.12,-96 134.12,-76 219.12,-76 219.12,-96"/>
<text xml:space="preserve" text-anchor="middle" x="176.62" y="-82.5" font-family="Helvetica,sans-Serif" font-size="10.00">dspm::Mat::Mat</text>
</a>
</g>
</g>
<!-- Node1&#45;&gt;Node2 -->
<g id="edge2_Node000001_Node000002" class="edge">
<title>Node1&#45;&gt;Node2</title>
<g id="a_edge2_Node000001_Node000002"><a xlink:title=" ">
<path fill="none" stroke="#63b8ff" d="M78.87,-58.48C94.06,-62.8 111.85,-67.86 128.01,-72.46"/>
<polygon fill="#63b8ff" stroke="#63b8ff" points="126.85,-75.77 137.42,-75.14 128.76,-69.03 126.85,-75.77"/>
</a>
</g>
</g>
<!-- Node4 -->
<g id="Node000004" class="node">
<title>Node4</title>
<g id="a_Node000004"><a xlink:href="classdspm_1_1_mat.html#a5eb6987452e618ba8d638a6773a074df" target="_top" xlink:title=" ">
<polygon fill="white" stroke="#666666" points="219.12,-58 134.12,-58 134.12,-38 219.12,-38 219.12,-58"/>
<text xml:space="preserve" text-anchor="middle" x="176.62" y="-44.5" font-family="Helvetica,sans-Serif" font-size="10.00">dspm::Mat::Mat</text>
</a>
</g>
</g>
<!-- Node1&#45;&gt;Node4 -->
<g id="edge4_Node000001_Node000004" class="edge">
<title>Node1&#45;&gt;Node4</title>
<g id="a_edge4_Node000001_Node000004"><a xlink:title=" ">
<path fill="none" stroke="#63b8ff" d="M82.45,-48C95.05,-48 109.13,-48 122.46,-48"/>
<polygon fill="#63b8ff" stroke="#63b8ff" points="122.41,-51.5 132.41,-48 122.41,-44.5 122.41,-51.5"/>
</a>
</g>
</g>
<!-- Node5 -->
<g id="Node000005" class="node">
<title>Node5</title>
<g id="a_Node000005"><a xlink:href="classdspm_1_1_mat.html#a9de682e7d416fa60f41a25da37350d7f" target="_top" xlink:title=" ">
<polygon fill="white" stroke="#666666" points="235.25,-20 118,-20 118,0 235.25,0 235.25,-20"/>
<text xml:space="preserve" text-anchor="middle" x="176.62" y="-6.5" font-family="Helvetica,sans-Serif" font-size="10.00">dspm::Mat::swapRows</text>
</a>
</g>
</g>
<!-- Node1&#45;&gt;Node5 -->
<g id="edge6_Node000001_Node000005" class="edge">
<title>Node1&#45;&gt;Node5</title>
<g id="a_edge6_Node000001_Node000005"><a xlink:title=" ">
<path fill="none" stroke="#63b8ff" d="M78.87,-37.52C94.06,-33.2 111.85,-28.14 128.01,-23.54"/>
<polygon fill="#63b8ff" stroke="#63b8ff" points="128.76,-26.97 137.42,-20.86 126.85,-20.23 128.76,-26.97"/>
</a>
</g>
</g>
<!-- Node3 -->
<g id="Node000003" class="node">
<title>Node3</title>
<g id="a_Node000003"><a xlink:href="classdspm_1_1_mat.html#aa82f099abe2da9662fd06e72056df323" target="_top" xlink:title=" ">
<polygon fill="white" stroke="#666666" points="373.5,-77 271.25,-77 271.25,-57 373.5,-57 373.5,-77"/>
<text xml:space="preserve" text-anchor="middle" x="322.38" y="-63.5" font-family="Helvetica,sans-Serif" font-size="10.00">dspm::Mat::allocate</text>
</a>
</g>
</g>
<!-- Node2&#45;&gt;Node3 -->
<g id="edge3_Node000002_Node000003" class="edge">
<title>Node2&#45;&gt;Node3</title>
<g id="a_edge3_Node000002_Node000003"><a xlink:title=" ">
<path fill="none" stroke="#63b8ff" d="M219.59,-80.45C232.15,-78.79 246.19,-76.94 259.74,-75.15"/>
<polygon fill="#63b8ff" stroke="#63b8ff" points="260.01,-78.64 269.46,-73.86 259.09,-71.7 260.01,-78.64"/>
</a>
</g>
</g>
<!-- Node4&#45;&gt;Node3 -->
<g id="edge5_Node000004_Node000003" class="edge">
<title>Node4&#45;&gt;Node3</title>
<g id="a_edge5_Node000004_Node000003"><a xlink:title=" ">
<path fill="none" stroke="#63b8ff" d="M219.59,-53.55C232.15,-55.21 246.19,-57.06 259.74,-58.85"/>
<polygon fill="#63b8ff" stroke="#63b8ff" points="259.09,-62.3 269.46,-60.14 260.01,-55.36 259.09,-62.3"/>
</a>
</g>
</g>
</g>
</svg>
