<?xml version="1.0" encoding="UTF-8" standalone="no"?>
<!DOCTYPE svg PUBLIC "-//W3C//DTD SVG 1.1//EN"
 "http://www.w3.org/Graphics/SVG/1.1/DTD/svg11.dtd">
<!-- Generated by graphviz version 14.1.2 (20260124.0452)
 -->
<!-- Title: ekf::CovariancePrediction Pages: 1 -->
<svg width="516pt" height="66pt"
 viewBox="0.00 0.00 516.00 66.00" xmlns="http://www.w3.org/2000/svg" xmlns:xlink="http://www.w3.org/1999/xlink">
<g id="graph0" class="graph" transform="scale(1 1) rotate(0) translate(4 62)">
<title>ekf::CovariancePrediction</title>
<!-- Node1 -->
<g id="Node000001" class="node">
<title>Node1</title>
<g id="a_Node000001"><a xlink:title=" ">
<polygon fill="#999999" stroke="#666666" points="128.5,-39 0,-39 0,-19 128.5,-19 128.5,-39"/>
<text xml:space="preserve" text-anchor="middle" x="64.25" y="-25.5" font-family="Helvetica,sans-Serif" font-size="10.00">ekf::CovariancePrediction</text>
</a>
</g>
</g>
<!-- Node2 -->
<g id="Node000002" class="node">
<title>Node2</title>
<g id="a_Node000002"><a xlink:href="classdspm_1_1_mat.html#a7502c6d836d1ae05f6880620c1a832b5" target="_top" xlink:title=" ">
<polygon fill="white" stroke="#666666" points="248.75,-58 164.5,-58 164.5,-38 248.75,-38 248.75,-58"/>
<text xml:space="preserve" text-anchor="middle" x="206.62" y="-44.5" font-family="Helvetica,sans-Serif" font-size="10.00">dspm::Mat::eye</text>
</a>
</g>
</g>
<!-- Node1&#45;&gt;Node2 -->
<g id="edge1_Node000001_Node000002" class="edge">
<title>Node1&#45;&gt;Node2</title>
<g id="a_edge1_Node000001_Node000002"><a xlink:title=" ">
<path fill="none" stroke="#63b8ff" d="M128.87,-37.61C136.96,-38.71 145.16,-39.82 153.06,-40.88"/>
<polygon fill="#63b8ff" stroke="#63b8ff" points="152.46,-44.34 162.84,-42.21 153.4,-37.4 152.46,-44.34"/>
</a>
</g>
</g>
<!-- Node5 -->
<g id="Node000005" class="node">
<title>Node5</title>
<g id="a_Node000005"><a xlink:href="classdspm_1_1_mat.html#af1013adcb6d601fba7bf788fd52d80b4" target="_top" xlink:title=" ">
<polygon fill="white" stroke="#666666" points="242.38,-20 170.88,-20 170.88,0 242.38,0 242.38,-20"/>
<text xml:space="preserve" text-anchor="middle" x="206.62" y="-6.5" font-family="Helvetica,sans-Serif" font-size="10.00">dspm::Mat::t</text>
</a>
</g>
</g>
<!-- Node1&#45;&gt;Node5 -->
<g id="edge4_Node000001_Node000005" class="edge">
<title>Node1&#45;&gt;Node5</title>
<g id="a_edge4_Node000001_Node000005"><a xlink:title=" ">
<path fill="none" stroke="#63b8ff" d="M128.87,-20.39C139.19,-18.99 149.7,-17.57 159.51,-16.24"/>
<polygon fill="#63b8ff" stroke="#63b8ff" points="159.69,-19.75 169.13,-14.94 158.75,-12.81 159.69,-19.75"/>
</a>
</g>
</g>
<!-- Node3 -->
<g id="Node000003" class="node">
<title>Node3</title>
<g id="a_Node000003"><a xlink:href="classdspm_1_1_mat.html#a5eb6987452e618ba8d638a6773a074df" target="_top" xlink:title=" ">
<polygon fill="white" stroke="#666666" points="369.75,-39 284.75,-39 284.75,-19 369.75,-19 369.75,-39"/>
<text xml:space="preserve" text-anchor="middle" x="327.25" y="-25.5" font-family="Helvetica,sans-Serif" font-size="10.00">dspm::Mat::Mat</text>
</a>
</g>
</g>
<!-- Node2&#45;&gt;Node3 -->
<g id="edge2_Node000002_Node000003" class="edge">
<title>Node2&#45;&gt;Node3</title>
<g id="a_edge2_Node000002_Node000003"><a xlink:title=" ">
<path fill="none" stroke="#63b8ff" d="M249.11,-41.35C256.93,-40.1 265.19,-38.78 273.3,-37.48"/>
<polygon fill="#63b8ff" stroke="#63b8ff" points="273.77,-40.95 283.09,-35.91 272.66,-34.04 273.77,-40.95"/>
</a>
</g>
</g>
<!-- Node4 -->
<g id="Node000004" class="node">
<title>Node4</title>
<g id="a_Node000004"><a xlink:href="classdspm_1_1_mat.html#aa82f099abe2da9662fd06e72056df323" target="_top" xlink:title=" ">
<polygon fill="white" stroke="#666666" points="508,-39 405.75,-39 405.75,-19 508,-19 508,-39"/>
<text xml:space="preserve" text-anchor="middle" x="456.88" y="-25.5" font-family="Helvetica,sans-Serif" font-size="10.00">dspm::Mat::allocate</text>
</a>
</g>
</g>
<!-- Node3&#45;&gt;Node4 -->
<g id="edge3_Node000003_Node000004" class="edge">
<title>Node3&#45;&gt;Node4</title>
<g id="a_edge3_Node000003_Node000004"><a xlink:title=" ">
<path fill="none" stroke="#63b8ff" d="M370.04,-29C377.75,-29 385.94,-29 394.1,-29"/>
<polygon fill="#63b8ff" stroke="#63b8ff" points="394.02,-32.5 404.02,-29 394.02,-25.5 394.02,-32.5"/>
</a>
</g>
</g>
<!-- Node5&#45;&gt;Node3 -->
<g id="edge5_Node000005_Node000003" class="edge">
<title>Node5&#45;&gt;Node3</title>
<g id="a_edge5_Node000005_Node000003"><a xlink:title=" ">
<path fill="none" stroke="#63b8ff" d="M242.57,-15.6C252.21,-17.14 262.89,-18.85 273.3,-20.52"/>
<polygon fill="#63b8ff" stroke="#63b8ff" points="272.51,-23.94 282.93,-22.06 273.61,-17.02 272.51,-23.94"/>
</a>
</g>
</g>
</g>
</svg>
