<?xml version="1.0" encoding="UTF-8" standalone="no"?>
<!DOCTYPE svg PUBLIC "-//W3C//DTD SVG 1.1//EN"
 "http://www.w3.org/Graphics/SVG/1.1/DTD/svg11.dtd">
<!-- Generated by graphviz version 14.1.2 (20260124.0452)
 -->
<!-- Title: ekf::UpdateRef Pages: 1 -->
<svg width="810pt" height="245pt"
 viewBox="0.00 0.00 810.00 245.00" xmlns="http://www.w3.org/2000/svg" xmlns:xlink="http://www.w3.org/1999/xlink">
<g id="graph0" class="graph" transform="scale(1 1) rotate(0) translate(4 241.43)">
<title>ekf::UpdateRef</title>
<!-- Node1 -->
<g id="Node000001" class="node">
<title>Node1</title>
<g id="a_Node000001"><a xlink:title=" ">
<polygon fill="#999999" stroke="#666666" points="82.75,-161.43 0,-161.43 0,-141.43 82.75,-141.43 82.75,-161.43"/>
<text xml:space="preserve" text-anchor="middle" x="41.38" y="-147.93" font-family="Helvetica,sans-Serif" font-size="10.00">ekf::UpdateRef</text>
</a>
</g>
</g>
<!-- Node2 -->
<g id="Node000002" class="node">
<title>Node2</title>
<g id="a_Node000002"><a xlink:href="classdspm_1_1_mat.html#a7502c6d836d1ae05f6880620c1a832b5" target="_top" xlink:title=" ">
<polygon fill="white" stroke="#666666" points="357.38,-237.43 273.12,-237.43 273.12,-217.43 357.38,-217.43 357.38,-237.43"/>
<text xml:space="preserve" text-anchor="middle" x="315.25" y="-223.93" font-family="Helvetica,sans-Serif" font-size="10.00">dspm::Mat::eye</text>
</a>
</g>
</g>
<!-- Node1&#45;&gt;Node2 -->
<g id="edge1_Node000001_Node000002" class="edge">
<title>Node1&#45;&gt;Node2</title>
<g id="a_edge1_Node000001_Node000002"><a xlink:title=" ">
<path fill="none" stroke="#63b8ff" d="M79.89,-161.92C128.44,-175.49 213.09,-199.15 266.27,-214.02"/>
<polygon fill="#63b8ff" stroke="#63b8ff" points="265.09,-217.32 275.66,-216.64 266.97,-210.58 265.09,-217.32"/>
</a>
</g>
</g>
<!-- Node5 -->
<g id="Node000005" class="node">
<title>Node5</title>
<g id="a_Node000005"><a xlink:href="classdspm_1_1_mat.html#a3d8be6dbfbc64fa98f08ef9ce8860a12" target="_top" xlink:title=" ">
<polygon fill="white" stroke="#666666" points="205.25,-161.43 118.75,-161.43 118.75,-141.43 205.25,-141.43 205.25,-161.43"/>
<text xml:space="preserve" text-anchor="middle" x="162" y="-147.93" font-family="Helvetica,sans-Serif" font-size="10.00">dspm::Mat::pinv</text>
</a>
</g>
</g>
<!-- Node1&#45;&gt;Node5 -->
<g id="edge4_Node000001_Node000005" class="edge">
<title>Node1&#45;&gt;Node5</title>
<g id="a_edge4_Node000001_Node000005"><a xlink:title=" ">
<path fill="none" stroke="#63b8ff" d="M83.2,-151.43C90.94,-151.43 99.15,-151.43 107.23,-151.43"/>
<polygon fill="#63b8ff" stroke="#63b8ff" points="106.97,-154.93 116.97,-151.43 106.97,-147.93 106.97,-154.93"/>
</a>
</g>
</g>
<!-- Node9 -->
<g id="Node000009" class="node">
<title>Node9</title>
<g id="a_Node000009"><a xlink:href="classdspm_1_1_mat.html#af1013adcb6d601fba7bf788fd52d80b4" target="_top" xlink:title=" ">
<polygon fill="white" stroke="#666666" points="519.62,-47.43 448.12,-47.43 448.12,-27.43 519.62,-27.43 519.62,-47.43"/>
<text xml:space="preserve" text-anchor="middle" x="483.88" y="-33.93" font-family="Helvetica,sans-Serif" font-size="10.00">dspm::Mat::t</text>
</a>
</g>
</g>
<!-- Node1&#45;&gt;Node9 -->
<g id="edge17_Node000001_Node000009" class="edge">
<title>Node1&#45;&gt;Node9</title>
<g id="a_edge17_Node000001_Node000009"><a xlink:title=" ">
<path fill="none" stroke="#63b8ff" d="M77.09,-140.94C116.67,-129.11 183.39,-109.54 241.25,-94.43 309.01,-76.74 388.08,-58.54 436.82,-47.61"/>
<polygon fill="#63b8ff" stroke="#63b8ff" points="437.46,-51.05 446.46,-45.46 435.94,-44.22 437.46,-51.05"/>
</a>
</g>
</g>
<!-- Node3 -->
<g id="Node000003" class="node">
<title>Node3</title>
<g id="a_Node000003"><a xlink:href="classdspm_1_1_mat.html#a5eb6987452e618ba8d638a6773a074df" target="_top" xlink:title=" ">
<polygon fill="white" stroke="#666666" points="663.5,-142.43 578.5,-142.43 578.5,-122.43 663.5,-122.43 663.5,-142.43"/>
<text xml:space="preserve" text-anchor="middle" x="621" y="-128.93" font-family="Helvetica,sans-Serif" font-size="10.00">dspm::Mat::Mat</text>
</a>
</g>
</g>
<!-- Node2&#45;&gt;Node3 -->
<g id="edge2_Node000002_Node000003" class="edge">
<title>Node2&#45;&gt;Node3</title>
<g id="a_edge2_Node000002_Node000003"><a xlink:title=" ">
<path fill="none" stroke="#63b8ff" d="M357.47,-230.58C404.41,-232.5 482.37,-230.55 542.5,-203.43 568.32,-191.78 591.33,-168.15 605.44,-151.35"/>
<polygon fill="#63b8ff" stroke="#63b8ff" points="607.8,-154 611.37,-144.02 602.36,-149.59 607.8,-154"/>
</a>
</g>
</g>
<!-- Node4 -->
<g id="Node000004" class="node">
<title>Node4</title>
<g id="a_Node000004"><a xlink:href="classdspm_1_1_mat.html#aa82f099abe2da9662fd06e72056df323" target="_top" xlink:title=" ">
<polygon fill="white" stroke="#666666" points="801.75,-142.43 699.5,-142.43 699.5,-122.43 801.75,-122.43 801.75,-142.43"/>
<text xml:space="preserve" text-anchor="middle" x="750.62" y="-128.93" font-family="Helvetica,sans-Serif" font-size="10.00">dspm::Mat::allocate</text>
</a>
</g>
</g>
<!-- Node3&#45;&gt;Node4 -->
<g id="edge3_Node000003_Node000004" class="edge">
<title>Node3&#45;&gt;Node4</title>
<g id="a_edge3_Node000003_Node000004"><a xlink:title=" ">
<path fill="none" stroke="#63b8ff" d="M663.79,-132.43C671.5,-132.43 679.69,-132.43 687.85,-132.43"/>
<polygon fill="#63b8ff" stroke="#63b8ff" points="687.77,-135.93 697.77,-132.43 687.77,-128.93 687.77,-135.93"/>
</a>
</g>
</g>
<!-- Node5&#45;&gt;Node2 -->
<g id="edge7_Node000005_Node000002" class="edge">
<title>Node5&#45;&gt;Node2</title>
<g id="a_edge7_Node000005_Node000002"><a xlink:title=" ">
<path fill="none" stroke="#63b8ff" d="M176.18,-161.81C191.22,-173.25 216.89,-191.6 241.25,-203.43 248.84,-207.12 257.14,-210.45 265.33,-213.37"/>
<polygon fill="#63b8ff" stroke="#63b8ff" points="263.95,-216.6 274.54,-216.5 266.19,-209.97 263.95,-216.6"/>
</a>
</g>
</g>
<!-- Node5&#45;&gt;Node3 -->
<g id="edge13_Node000005_Node000003" class="edge">
<title>Node5&#45;&gt;Node3</title>
<g id="a_edge13_Node000005_Node000003"><a xlink:title=" ">
<path fill="none" stroke="#63b8ff" d="M205.51,-161.08C276.41,-175.5 422.81,-198.19 542.5,-170.43 560.82,-166.18 579.81,-156.96 594.41,-148.67"/>
<polygon fill="#63b8ff" stroke="#63b8ff" points="596.06,-151.76 602.88,-143.65 592.5,-145.73 596.06,-151.76"/>
</a>
</g>
</g>
<!-- Node6 -->
<g id="Node000006" class="node">
<title>Node6</title>
<g id="a_Node000006"><a xlink:href="classdspm_1_1_mat.html#ad6b5781e65c612fa063313333abad614" target="_top" xlink:title="Augmented matrices.">
<polygon fill="white" stroke="#666666" points="536.88,-161.43 430.88,-161.43 430.88,-141.43 536.88,-141.43 536.88,-161.43"/>
<text xml:space="preserve" text-anchor="middle" x="483.88" y="-147.93" font-family="Helvetica,sans-Serif" font-size="10.00">dspm::Mat::augment</text>
</a>
</g>
</g>
<!-- Node5&#45;&gt;Node6 -->
<g id="edge5_Node000005_Node000006" class="edge">
<title>Node5&#45;&gt;Node6</title>
<g id="a_edge5_Node000005_Node000006"><a xlink:title=" ">
<path fill="none" stroke="#63b8ff" d="M205.48,-151.43C260.11,-151.43 355.51,-151.43 418.93,-151.43"/>
<polygon fill="#63b8ff" stroke="#63b8ff" points="418.87,-154.93 428.87,-151.43 418.87,-147.93 418.87,-154.93"/>
</a>
</g>
</g>
<!-- Node7 -->
<g id="Node000007" class="node">
<title>Node7</title>
<g id="a_Node000007"><a xlink:href="classdspm_1_1_mat.html#ac5482cf5daed6c1f7f66639913d71b39" target="_top" xlink:title="Gaussian Elimination.">
<polygon fill="white" stroke="#666666" points="389.25,-123.43 241.25,-123.43 241.25,-103.43 389.25,-103.43 389.25,-123.43"/>
<text xml:space="preserve" text-anchor="middle" x="315.25" y="-109.93" font-family="Helvetica,sans-Serif" font-size="10.00">dspm::Mat::gaussianEliminate</text>
</a>
</g>
</g>
<!-- Node5&#45;&gt;Node7 -->
<g id="edge8_Node000005_Node000007" class="edge">
<title>Node5&#45;&gt;Node7</title>
<g id="a_edge8_Node000005_Node000007"><a xlink:title=" ">
<path fill="none" stroke="#63b8ff" d="M204.73,-140.95C222.34,-136.52 243.03,-131.32 261.67,-126.64"/>
<polygon fill="#63b8ff" stroke="#63b8ff" points="262.34,-130.08 271.19,-124.25 260.64,-123.29 262.34,-130.08"/>
</a>
</g>
</g>
<!-- Node10 -->
<g id="Node000010" class="node">
<title>Node10</title>
<g id="a_Node000010"><a xlink:href="classdspm_1_1_mat.html#a1e7cd45e323d85d2025a9ad1d79b62f0" target="_top" xlink:title=" ">
<polygon fill="white" stroke="#666666" points="385.5,-47.43 245,-47.43 245,-15.43 385.5,-15.43 385.5,-47.43"/>
<text xml:space="preserve" text-anchor="start" x="253" y="-33.93" font-family="Helvetica,sans-Serif" font-size="10.00">dspm::Mat::rowReduceFrom</text>
<text xml:space="preserve" text-anchor="middle" x="315.25" y="-21.93" font-family="Helvetica,sans-Serif" font-size="10.00">Gaussian</text>
</a>
</g>
</g>
<!-- Node5&#45;&gt;Node10 -->
<g id="edge14_Node000005_Node000010" class="edge">
<title>Node5&#45;&gt;Node10</title>
<g id="a_edge14_Node000005_Node000010"><a xlink:title=" ">
<path fill="none" stroke="#63b8ff" d="M176.16,-140.99C200.27,-121.86 252.06,-80.77 284.92,-54.7"/>
<polygon fill="#63b8ff" stroke="#63b8ff" points="286.8,-57.68 292.46,-48.72 282.45,-52.19 286.8,-57.68"/>
</a>
</g>
</g>
<!-- Node6&#45;&gt;Node3 -->
<g id="edge6_Node000006_Node000003" class="edge">
<title>Node6&#45;&gt;Node3</title>
<g id="a_edge6_Node000006_Node000003"><a xlink:title=" ">
<path fill="none" stroke="#63b8ff" d="M537.12,-144.08C546.94,-142.7 557.22,-141.26 567.06,-139.87"/>
<polygon fill="#63b8ff" stroke="#63b8ff" points="567.45,-143.35 576.86,-138.5 566.47,-136.42 567.45,-143.35"/>
</a>
</g>
</g>
<!-- Node7&#45;&gt;Node3 -->
<g id="edge9_Node000007_Node000003" class="edge">
<title>Node7&#45;&gt;Node3</title>
<g id="a_edge9_Node000007_Node000003"><a xlink:title=" ">
<path fill="none" stroke="#63b8ff" d="M389.39,-118.01C444.16,-121.43 517.81,-126.04 566.99,-129.11"/>
<polygon fill="#63b8ff" stroke="#63b8ff" points="566.62,-132.6 576.82,-129.73 567.06,-125.61 566.62,-132.6"/>
</a>
</g>
</g>
<!-- Node8 -->
<g id="Node000008" class="node">
<title>Node8</title>
<g id="a_Node000008"><a xlink:href="classdspm_1_1_mat.html#a9de682e7d416fa60f41a25da37350d7f" target="_top" xlink:title=" ">
<polygon fill="white" stroke="#666666" points="542.5,-85.43 425.25,-85.43 425.25,-65.43 542.5,-65.43 542.5,-85.43"/>
<text xml:space="preserve" text-anchor="middle" x="483.88" y="-71.93" font-family="Helvetica,sans-Serif" font-size="10.00">dspm::Mat::swapRows</text>
</a>
</g>
</g>
<!-- Node7&#45;&gt;Node8 -->
<g id="edge10_Node000007_Node000008" class="edge">
<title>Node7&#45;&gt;Node8</title>
<g id="a_edge10_Node000007_Node000008"><a xlink:title=" ">
<path fill="none" stroke="#63b8ff" d="M362.22,-102.95C381.98,-98.44 405.28,-93.13 426.1,-88.38"/>
<polygon fill="#63b8ff" stroke="#63b8ff" points="426.61,-91.85 435.58,-86.22 425.05,-85.03 426.61,-91.85"/>
</a>
</g>
</g>
<!-- Node7&#45;&gt;Node9 -->
<g id="edge11_Node000007_Node000009" class="edge">
<title>Node7&#45;&gt;Node9</title>
<g id="a_edge11_Node000007_Node000009"><a xlink:title=" ">
<path fill="none" stroke="#63b8ff" d="M358.11,-103.03C368.66,-99.52 379.69,-95.03 389.25,-89.43 407.98,-78.46 406.53,-67.41 425.25,-56.43 429.03,-54.22 433.1,-52.22 437.26,-50.43"/>
<polygon fill="#63b8ff" stroke="#63b8ff" points="438.23,-53.81 446.3,-46.94 435.71,-47.28 438.23,-53.81"/>
</a>
</g>
</g>
<!-- Node9&#45;&gt;Node3 -->
<g id="edge12_Node000009_Node000003" class="edge">
<title>Node9&#45;&gt;Node3</title>
<g id="a_edge12_Node000009_Node000003"><a xlink:title=" ">
<path fill="none" stroke="#63b8ff" d="M519.84,-46.12C527.6,-48.81 535.57,-52.21 542.5,-56.43 567.49,-71.65 590.67,-96.36 605.05,-113.45"/>
<polygon fill="#63b8ff" stroke="#63b8ff" points="602.09,-115.36 611.13,-120.89 607.5,-110.93 602.09,-115.36"/>
</a>
</g>
</g>
<!-- Node10&#45;&gt;Node3 -->
<g id="edge15_Node000010_Node000003" class="edge">
<title>Node10&#45;&gt;Node3</title>
<g id="a_edge15_Node000010_Node000003"><a xlink:title=" ">
<path fill="none" stroke="#63b8ff" d="M363.92,-15.02C411.93,-1.5 486.69,11.11 542.5,-18.43 579.53,-38.04 602.16,-84.15 612.77,-111.34"/>
<polygon fill="#63b8ff" stroke="#63b8ff" points="609.44,-112.42 616.17,-120.6 616.01,-110.01 609.44,-112.42"/>
</a>
</g>
</g>
<!-- Node10&#45;&gt;Node9 -->
<g id="edge16_Node000010_Node000009" class="edge">
<title>Node10&#45;&gt;Node9</title>
<g id="a_edge16_Node000010_Node000009"><a xlink:title=" ">
<path fill="none" stroke="#63b8ff" d="M385.95,-33.94C403,-34.55 420.84,-35.2 436.5,-35.76"/>
<polygon fill="#63b8ff" stroke="#63b8ff" points="436.36,-39.26 446.48,-36.12 436.62,-32.26 436.36,-39.26"/>
</a>
</g>
</g>
</g>
</svg>
