<?xml version="1.0" encoding="UTF-8" standalone="no"?>
<!DOCTYPE svg PUBLIC "-//W3C//DTD SVG 1.1//EN"
 "http://www.w3.org/Graphics/SVG/1.1/DTD/svg11.dtd">
<!-- Generated by graphviz version 14.1.2 (20260124.0452)
 -->
<!-- Title: dspm::Mat::operator*= Pages: 1 -->
<svg width="501pt" height="47pt"
 viewBox="0.00 0.00 501.00 47.00" xmlns="http://www.w3.org/2000/svg" xmlns:xlink="http://www.w3.org/1999/xlink">
<g id="graph0" class="graph" transform="scale(1 1) rotate(0) translate(4 43)">
<title>dspm::Mat::operator*=</title>
<!-- Node1 -->
<g id="Node000001" class="node">
<title>Node1</title>
<g id="a_Node000001"><a xlink:title=" ">
<polygon fill="#999999" stroke="#666666" points="113.5,-20 0,-20 0,0 113.5,0 113.5,-20"/>
<text xml:space="preserve" text-anchor="middle" x="56.75" y="-6.5" font-family="Helvetica,sans-Serif" font-size="10.00">dspm::Mat::operator*=</text>
</a>
</g>
</g>
<!-- Node2 -->
<g id="Node000002" class="node">
<title>Node2</title>
<g id="a_Node000002"><a xlink:href="classdspm_1_1_mat.html#a025beb99e548d50925c88c65272b021e" target="_top" xlink:title=" ">
<polygon fill="white" stroke="#666666" points="233.75,-39 149.5,-39 149.5,-19 233.75,-19 233.75,-39"/>
<text xml:space="preserve" text-anchor="middle" x="191.62" y="-25.5" font-family="Helvetica,sans-Serif" font-size="10.00">dspm::Mat::Get</text>
</a>
</g>
</g>
<!-- Node1&#45;&gt;Node2 -->
<g id="edge1_Node000001_Node000002" class="edge">
<title>Node1&#45;&gt;Node2</title>
<g id="a_edge1_Node000001_Node000002"><a xlink:title=" ">
<path fill="none" stroke="#63b8ff" d="M113.72,-18C121.72,-19.15 129.94,-20.32 137.88,-21.46"/>
<polygon fill="#63b8ff" stroke="#63b8ff" points="137.37,-24.92 147.76,-22.87 138.36,-17.99 137.37,-24.92"/>
</a>
</g>
</g>
<!-- Node3 -->
<g id="Node000003" class="node">
<title>Node3</title>
<g id="a_Node000003"><a xlink:href="classdspm_1_1_mat.html#a5eb6987452e618ba8d638a6773a074df" target="_top" xlink:title=" ">
<polygon fill="white" stroke="#666666" points="354.75,-20 269.75,-20 269.75,0 354.75,0 354.75,-20"/>
<text xml:space="preserve" text-anchor="middle" x="312.25" y="-6.5" font-family="Helvetica,sans-Serif" font-size="10.00">dspm::Mat::Mat</text>
</a>
</g>
</g>
<!-- Node1&#45;&gt;Node3 -->
<g id="edge4_Node000001_Node000003" class="edge">
<title>Node1&#45;&gt;Node3</title>
<g id="a_edge4_Node000001_Node000003"><a xlink:title=" ">
<path fill="none" stroke="#63b8ff" d="M113.7,-10C156.74,-10 215.84,-10 258.15,-10"/>
<polygon fill="#63b8ff" stroke="#63b8ff" points="258.1,-13.5 268.1,-10 258.1,-6.5 258.1,-13.5"/>
</a>
</g>
</g>
<!-- Node2&#45;&gt;Node3 -->
<g id="edge2_Node000002_Node000003" class="edge">
<title>Node2&#45;&gt;Node3</title>
<g id="a_edge2_Node000002_Node000003"><a xlink:title=" ">
<path fill="none" stroke="#63b8ff" d="M234.11,-22.35C241.93,-21.1 250.19,-19.78 258.3,-18.48"/>
<polygon fill="#63b8ff" stroke="#63b8ff" points="258.77,-21.95 268.09,-16.91 257.66,-15.04 258.77,-21.95"/>
</a>
</g>
</g>
<!-- Node4 -->
<g id="Node000004" class="node">
<title>Node4</title>
<g id="a_Node000004"><a xlink:href="classdspm_1_1_mat.html#aa82f099abe2da9662fd06e72056df323" target="_top" xlink:title=" ">
<polygon fill="white" stroke="#666666" points="493,-20 390.75,-20 390.75,0 493,0 493,-20"/>
<text xml:space="preserve" text-anchor="middle" x="441.88" y="-6.5" font-family="Helvetica,sans-Serif" font-size="10.00">dspm::Mat::allocate</text>
</a>
</g>
</g>
<!-- Node3&#45;&gt;Node4 -->
<g id="edge3_Node000003_Node000004" class="edge">
<title>Node3&#45;&gt;Node4</title>
<g id="a_edge3_Node000003_Node000004"><a xlink:title=" ">
<path fill="none" stroke="#63b8ff" d="M355.04,-10C362.75,-10 370.94,-10 379.1,-10"/>
<polygon fill="#63b8ff" stroke="#63b8ff" points="379.02,-13.5 389.02,-10 379.02,-6.5 379.02,-13.5"/>
</a>
</g>
</g>
</g>
</svg>
