<?xml version="1.0" encoding="UTF-8" standalone="no"?>
<!DOCTYPE svg PUBLIC "-//W3C//DTD SVG 1.1//EN"
 "http://www.w3.org/Graphics/SVG/1.1/DTD/svg11.dtd">
<!-- Generated by graphviz version 14.1.2 (20260124.0452)
 -->
<!-- Title: dspm::Mat::inverse Pages: 1 -->
<svg width="534pt" height="146pt"
 viewBox="0.00 0.00 534.00 146.00" xmlns="http://www.w3.org/2000/svg" xmlns:xlink="http://www.w3.org/1999/xlink">
<g id="graph0" class="graph" transform="scale(1 1) rotate(0) translate(4 141.86)">
<title>dspm::Mat::inverse</title>
<!-- Node1 -->
<g id="Node000001" class="node">
<title>Node1</title>
<g id="a_Node000001"><a xlink:title=" ">
<polygon fill="#999999" stroke="#666666" points="100,-86 0,-86 0,-66 100,-66 100,-86"/>
<text xml:space="preserve" text-anchor="middle" x="50" y="-72.5" font-family="Helvetica,sans-Serif" font-size="10.00">dspm::Mat::inverse</text>
</a>
</g>
</g>
<!-- Node2 -->
<g id="Node000002" class="node">
<title>Node2</title>
<g id="a_Node000002"><a xlink:href="classdspm_1_1_mat.html#a2944f7de712a8ebe6cbbb68b08372ead" target="_top" xlink:title=" ">
<polygon fill="white" stroke="#666666" points="233,-86 136,-86 136,-66 233,-66 233,-86"/>
<text xml:space="preserve" text-anchor="middle" x="184.5" y="-72.5" font-family="Helvetica,sans-Serif" font-size="10.00">dspm::Mat::adjoint</text>
</a>
</g>
</g>
<!-- Node1&#45;&gt;Node2 -->
<g id="edge1_Node000001_Node000002" class="edge">
<title>Node1&#45;&gt;Node2</title>
<g id="a_edge1_Node000001_Node000002"><a xlink:title=" ">
<path fill="none" stroke="#63b8ff" d="M100.34,-76C108.24,-76 116.49,-76 124.58,-76"/>
<polygon fill="#63b8ff" stroke="#63b8ff" points="124.37,-79.5 134.37,-76 124.37,-72.5 124.37,-79.5"/>
</a>
</g>
</g>
<!-- Node4 -->
<g id="Node000004" class="node">
<title>Node4</title>
<g id="a_Node000004"><a xlink:href="classdspm_1_1_mat.html#a5eb6987452e618ba8d638a6773a074df" target="_top" xlink:title=" ">
<polygon fill="#fff0f0" stroke="red" points="509.88,-110 424.88,-110 424.88,-90 509.88,-90 509.88,-110"/>
<text xml:space="preserve" text-anchor="middle" x="467.38" y="-96.5" font-family="Helvetica,sans-Serif" font-size="10.00">dspm::Mat::Mat</text>
</a>
</g>
</g>
<!-- Node1&#45;&gt;Node4 -->
<g id="edge11_Node000001_Node000004" class="edge">
<title>Node1&#45;&gt;Node4</title>
<g id="a_edge11_Node000001_Node000004"><a xlink:title=" ">
<path fill="none" stroke="#63b8ff" d="M76.01,-86.37C130.11,-107.48 262.03,-151.94 372.75,-133 393.47,-129.45 415.7,-121.8 433.3,-114.75"/>
<polygon fill="#63b8ff" stroke="#63b8ff" points="434.57,-118.01 442.47,-110.95 431.89,-111.54 434.57,-118.01"/>
</a>
</g>
</g>
<!-- Node6 -->
<g id="Node000006" class="node">
<title>Node6</title>
<g id="a_Node000006"><a xlink:href="classdspm_1_1_mat.html#a1307da8f13edcf4b1f2bdbf23c9f0ce8" target="_top" xlink:title=" ">
<polygon fill="white" stroke="#666666" points="361.88,-30 279.88,-30 279.88,-10 361.88,-10 361.88,-30"/>
<text xml:space="preserve" text-anchor="middle" x="320.88" y="-16.5" font-family="Helvetica,sans-Serif" font-size="10.00">dspm::Mat::det</text>
</a>
</g>
</g>
<!-- Node1&#45;&gt;Node6 -->
<g id="edge10_Node000001_Node000006" class="edge">
<title>Node1&#45;&gt;Node6</title>
<g id="a_edge10_Node000001_Node000006"><a xlink:title=" ">
<path fill="none" stroke="#63b8ff" d="M96.84,-65.57C109.51,-62.73 123.28,-59.7 136,-57 180.74,-47.5 231.74,-37.28 268.67,-30"/>
<polygon fill="#63b8ff" stroke="#63b8ff" points="269.03,-33.5 278.17,-28.13 267.68,-26.63 269.03,-33.5"/>
</a>
</g>
</g>
<!-- Node3 -->
<g id="Node000003" class="node">
<title>Node3</title>
<g id="a_Node000003"><a xlink:href="classdspm_1_1_mat.html#ae8001066240ab06aa1390ac944835ff1" target="_top" xlink:title=" ">
<polygon fill="white" stroke="#666666" points="372.75,-124 269,-124 269,-104 372.75,-104 372.75,-124"/>
<text xml:space="preserve" text-anchor="middle" x="320.88" y="-110.5" font-family="Helvetica,sans-Serif" font-size="10.00">dspm::Mat::cofactor</text>
</a>
</g>
</g>
<!-- Node2&#45;&gt;Node3 -->
<g id="edge2_Node000002_Node000003" class="edge">
<title>Node2&#45;&gt;Node3</title>
<g id="a_edge2_Node000002_Node000003"><a xlink:title=" ">
<path fill="none" stroke="#63b8ff" d="M222.57,-86.48C237.85,-90.8 255.74,-95.86 271.99,-100.46"/>
<polygon fill="#63b8ff" stroke="#63b8ff" points="270.89,-103.78 281.47,-103.14 272.8,-97.05 270.89,-103.78"/>
</a>
</g>
</g>
<!-- Node2&#45;&gt;Node4 -->
<g id="edge9_Node000002_Node000004" class="edge">
<title>Node2&#45;&gt;Node4</title>
<g id="a_edge9_Node000002_Node000004"><a xlink:title=" ">
<path fill="none" stroke="#63b8ff" d="M233.46,-80.1C283.43,-84.37 361.5,-91.04 413.29,-95.46"/>
<polygon fill="#63b8ff" stroke="#63b8ff" points="412.8,-98.93 423.06,-96.3 413.39,-91.96 412.8,-98.93"/>
</a>
</g>
</g>
<!-- Node2&#45;&gt;Node6 -->
<g id="edge4_Node000002_Node000006" class="edge">
<title>Node2&#45;&gt;Node6</title>
<g id="a_edge4_Node000002_Node000006"><a xlink:title=" ">
<path fill="none" stroke="#63b8ff" d="M210.46,-65.6C231.3,-56.91 261.24,-44.43 284.54,-34.72"/>
<polygon fill="#63b8ff" stroke="#63b8ff" points="285.77,-38.01 293.65,-30.93 283.07,-31.54 285.77,-38.01"/>
</a>
</g>
</g>
<!-- Node3&#45;&gt;Node4 -->
<g id="edge3_Node000003_Node000004" class="edge">
<title>Node3&#45;&gt;Node4</title>
<g id="a_edge3_Node000003_Node000004"><a xlink:title=" ">
<path fill="none" stroke="#63b8ff" d="M373.23,-109.02C386.28,-107.76 400.32,-106.4 413.45,-105.13"/>
<polygon fill="#63b8ff" stroke="#63b8ff" points="413.58,-108.63 423.19,-104.18 412.9,-101.66 413.58,-108.63"/>
</a>
</g>
</g>
<!-- Node6&#45;&gt;Node4 -->
<g id="edge7_Node000006_Node000004" class="edge">
<title>Node6&#45;&gt;Node4</title>
<g id="a_edge7_Node000006_Node000004"><a xlink:title=" ">
<path fill="none" stroke="#63b8ff" d="M340.77,-30.46C365.43,-44.11 408.84,-68.15 437.61,-84.07"/>
<polygon fill="#63b8ff" stroke="#63b8ff" points="435.71,-87.02 446.16,-88.81 439.1,-80.9 435.71,-87.02"/>
</a>
</g>
</g>
<!-- Node6&#45;&gt;Node6 -->
<g id="edge5_Node000006_Node000006" class="edge">
<title>Node6&#45;&gt;Node6</title>
<g id="a_edge5_Node000006_Node000006"><a xlink:title=" ">
<path fill="none" stroke="#63b8ff" d="M299.21,-30.34C289.95,-38.98 297.17,-48 320.88,-48 333.84,-48 341.87,-45.3 344.98,-41.44"/>
<polygon fill="#63b8ff" stroke="#63b8ff" points="348.43,-40.84 342.87,-31.82 341.59,-42.33 348.43,-40.84"/>
</a>
</g>
</g>
<!-- Node7 -->
<g id="Node000007" class="node">
<title>Node7</title>
<g id="a_Node000007"><a xlink:href="classdspm_1_1_mat.html#a4c822cafab693f430803cc91f0143214" target="_top" xlink:title=" ">
<polygon fill="#fff0f0" stroke="red" points="509.88,-20 424.88,-20 424.88,0 509.88,0 509.88,-20"/>
<text xml:space="preserve" text-anchor="middle" x="467.38" y="-6.5" font-family="Helvetica,sans-Serif" font-size="10.00">dspm::Mat::Mat</text>
</a>
</g>
</g>
<!-- Node6&#45;&gt;Node7 -->
<g id="edge6_Node000006_Node000007" class="edge">
<title>Node6&#45;&gt;Node7</title>
<g id="a_edge6_Node000006_Node000007"><a xlink:title=" ">
<path fill="none" stroke="#63b8ff" d="M362.13,-17.21C377.94,-16.12 396.31,-14.85 413.18,-13.68"/>
<polygon fill="#63b8ff" stroke="#63b8ff" points="413.33,-17.18 423.07,-13 412.85,-10.2 413.33,-17.18"/>
</a>
</g>
</g>
<!-- Node8 -->
<g id="Node000008" class="node">
<title>Node8</title>
<g id="a_Node000008"><a xlink:href="classdspm_1_1_mat.html#a9de682e7d416fa60f41a25da37350d7f" target="_top" xlink:title=" ">
<polygon fill="white" stroke="#666666" points="526,-58 408.75,-58 408.75,-38 526,-38 526,-58"/>
<text xml:space="preserve" text-anchor="middle" x="467.38" y="-44.5" font-family="Helvetica,sans-Serif" font-size="10.00">dspm::Mat::swapRows</text>
</a>
</g>
</g>
<!-- Node6&#45;&gt;Node8 -->
<g id="edge8_Node000006_Node000008" class="edge">
<title>Node6&#45;&gt;Node8</title>
<g id="a_edge8_Node000006_Node000008"><a xlink:title=" ">
<path fill="none" stroke="#63b8ff" d="M362.13,-27.8C374.26,-30.15 387.91,-32.79 401.22,-35.38"/>
<polygon fill="#63b8ff" stroke="#63b8ff" points="400.33,-38.77 410.81,-37.23 401.66,-31.89 400.33,-38.77"/>
</a>
</g>
</g>
</g>
</svg>
