<?xml version="1.0" encoding="UTF-8" standalone="no"?>
<!DOCTYPE svg PUBLIC "-//W3C//DTD SVG 1.1//EN"
 "http://www.w3.org/Graphics/SVG/1.1/DTD/svg11.dtd">
<!-- Generated by graphviz version 14.1.2 (20260124.0452)
 -->
<!-- Title: ekf::Process Pages: 1 -->
<svg width="485pt" height="123pt"
 viewBox="0.00 0.00 485.00 123.00" xmlns="http://www.w3.org/2000/svg" xmlns:xlink="http://www.w3.org/1999/xlink">

<svg id="main" version="1.1" xmlns="http://www.w3.org/2000/svg" xmlns:xlink="http://www.w3.org/1999/xlink" xml:space="preserve">

<style type="text/css"><![CDATA[
.node, .edge {opacity: 0.7;}
.node.selected, .edge.selected {opacity: 1;}
.edge:hover path { stroke: red; }
.edge:hover polygon { stroke: red; fill: red; }
]]></style>
<script type="application/ecmascript" xlink:href="svg.min.js"/>
<svg id="graph" class="graph">
<g id="graph0" class="graph" transform="scale(1 1) rotate(0) translate(4 119)">
<title>ekf::Process</title>
<!-- Node1 -->
<g id="Node000001" class="node">
<title>Node1</title>
<g id="a_Node000001"><a xlink:title=" ">
<polygon fill="#999999" stroke="#666666" points="71.5,-58 0,-58 0,-38 71.5,-38 71.5,-58"/>
<text xml:space="preserve" text-anchor="middle" x="35.75" y="-44.5" font-family="Helvetica,sans-Serif" font-size="10.00">ekf::Process</text>
</a>
</g>
</g>
<!-- Node2 -->
<g id="Node000002" class="node">
<title>Node2</title>
<g id="a_Node000002"><a xlink:href="classekf.html#a6588ad6c3eae0d1a177b35ea75b5a4f3" target="_top" xlink:title=" ">
<polygon fill="white" stroke="#666666" points="236,-96 107.5,-96 107.5,-76 236,-76 236,-96"/>
<text xml:space="preserve" text-anchor="middle" x="171.75" y="-82.5" font-family="Helvetica,sans-Serif" font-size="10.00">ekf::CovariancePrediction</text>
</a>
</g>
</g>
<!-- Node1&#45;&gt;Node2 -->
<g id="edge1_Node000001_Node000002" class="edge">
<title>Node1&#45;&gt;Node2</title>
<g id="a_edge1_Node000001_Node000002"><a xlink:title=" ">
<path fill="none" stroke="#63b8ff" d="M71.96,-57.98C87.6,-62.42 106.26,-67.71 123.13,-72.5"/>
<polygon fill="#63b8ff" stroke="#63b8ff" points="121.88,-75.78 132.45,-75.14 123.78,-69.04 121.88,-75.78"/>
</a>
</g>
</g>
<!-- Node7 -->
<g id="Node000007" class="node">
<title>Node7</title>
<g id="a_Node000007"><a xlink:href="classekf.html#a21cccadc5b6e3150a55b8964526e206f" target="_top" xlink:title=" ">
<polygon fill="white" stroke="#666666" points="215.75,-58 127.75,-58 127.75,-38 215.75,-38 215.75,-58"/>
<text xml:space="preserve" text-anchor="middle" x="171.75" y="-44.5" font-family="Helvetica,sans-Serif" font-size="10.00">ekf::LinearizeFG</text>
</a>
</g>
</g>
<!-- Node1&#45;&gt;Node7 -->
<g id="edge6_Node000001_Node000007" class="edge">
<title>Node1&#45;&gt;Node7</title>
<g id="a_edge6_Node000001_Node000007"><a xlink:title=" ">
<path fill="none" stroke="#63b8ff" d="M71.96,-48C85.55,-48 101.42,-48 116.41,-48"/>
<polygon fill="#63b8ff" stroke="#63b8ff" points="116.14,-51.5 126.14,-48 116.14,-44.5 116.14,-51.5"/>
</a>
</g>
</g>
<!-- Node8 -->
<g id="Node000008" class="node">
<title>Node8</title>
<g id="a_Node000008"><a xlink:href="classekf.html#a8f28807c86b11b95cc95bd514e65ea61" target="_top" xlink:title=" ">
<polygon fill="white" stroke="#666666" points="215.38,-20 128.12,-20 128.12,0 215.38,0 215.38,-20"/>
<text xml:space="preserve" text-anchor="middle" x="171.75" y="-6.5" font-family="Helvetica,sans-Serif" font-size="10.00">ekf::RungeKutta</text>
</a>
</g>
</g>
<!-- Node1&#45;&gt;Node8 -->
<g id="edge7_Node000001_Node000008" class="edge">
<title>Node1&#45;&gt;Node8</title>
<g id="a_edge7_Node000001_Node000008"><a xlink:title=" ">
<path fill="none" stroke="#63b8ff" d="M71.96,-38.02C87.6,-33.58 106.26,-28.29 123.13,-23.5"/>
<polygon fill="#63b8ff" stroke="#63b8ff" points="123.78,-26.96 132.45,-20.86 121.88,-20.22 123.78,-26.96"/>
</a>
</g>
</g>
<!-- Node3 -->
<g id="Node000003" class="node">
<title>Node3</title>
<g id="a_Node000003"><a xlink:href="classdspm_1_1_mat.html#a7502c6d836d1ae05f6880620c1a832b5" target="_top" xlink:title=" ">
<polygon fill="white" stroke="#666666" points="356.25,-115 272,-115 272,-95 356.25,-95 356.25,-115"/>
<text xml:space="preserve" text-anchor="middle" x="314.12" y="-101.5" font-family="Helvetica,sans-Serif" font-size="10.00">dspm::Mat::eye</text>
</a>
</g>
</g>
<!-- Node2&#45;&gt;Node3 -->
<g id="edge2_Node000002_Node000003" class="edge">
<title>Node2&#45;&gt;Node3</title>
<g id="a_edge2_Node000002_Node000003"><a xlink:title=" ">
<path fill="none" stroke="#63b8ff" d="M236.37,-94.61C244.46,-95.71 252.66,-96.82 260.56,-97.88"/>
<polygon fill="#63b8ff" stroke="#63b8ff" points="259.96,-101.34 270.34,-99.21 260.9,-94.4 259.96,-101.34"/>
</a>
</g>
</g>
<!-- Node6 -->
<g id="Node000006" class="node">
<title>Node6</title>
<g id="a_Node000006"><a xlink:href="classdspm_1_1_mat.html#af1013adcb6d601fba7bf788fd52d80b4" target="_top" xlink:title=" ">
<polygon fill="white" stroke="#666666" points="349.88,-77 278.38,-77 278.38,-57 349.88,-57 349.88,-77"/>
<text xml:space="preserve" text-anchor="middle" x="314.12" y="-63.5" font-family="Helvetica,sans-Serif" font-size="10.00">dspm::Mat::t</text>
</a>
</g>
</g>
<!-- Node2&#45;&gt;Node6 -->
<g id="edge4_Node000002_Node000006" class="edge">
<title>Node2&#45;&gt;Node6</title>
<g id="a_edge4_Node000002_Node000006"><a xlink:title=" ">
<path fill="none" stroke="#63b8ff" d="M236.37,-77.39C246.69,-75.99 257.2,-74.57 267.01,-73.24"/>
<polygon fill="#63b8ff" stroke="#63b8ff" points="267.19,-76.75 276.63,-71.94 266.25,-69.81 267.19,-76.75"/>
</a>
</g>
</g>
<!-- Node4 -->
<g id="Node000004" class="node">
<title>Node4</title>
<g id="a_Node000004"><a xlink:href="classdspm_1_1_mat.html#a5eb6987452e618ba8d638a6773a074df" target="_top" xlink:title=" ">
<polygon fill="#fff0f0" stroke="red" points="477.25,-96 392.25,-96 392.25,-76 477.25,-76 477.25,-96"/>
<text xml:space="preserve" text-anchor="middle" x="434.75" y="-82.5" font-family="Helvetica,sans-Serif" font-size="10.00">dspm::Mat::Mat</text>
</a>
</g>
</g>
<!-- Node3&#45;&gt;Node4 -->
<g id="edge3_Node000003_Node000004" class="edge">
<title>Node3&#45;&gt;Node4</title>
<g id="a_edge3_Node000003_Node000004"><a xlink:title=" ">
<path fill="none" stroke="#63b8ff" d="M356.61,-98.35C364.43,-97.1 372.69,-95.78 380.8,-94.48"/>
<polygon fill="#63b8ff" stroke="#63b8ff" points="381.27,-97.95 390.59,-92.91 380.16,-91.04 381.27,-97.95"/>
</a>
</g>
</g>
<!-- Node6&#45;&gt;Node4 -->
<g id="edge5_Node000006_Node000004" class="edge">
<title>Node6&#45;&gt;Node4</title>
<g id="a_edge5_Node000006_Node000004"><a xlink:title=" ">
<path fill="none" stroke="#63b8ff" d="M350.07,-72.6C359.71,-74.14 370.39,-75.85 380.8,-77.52"/>
<polygon fill="#63b8ff" stroke="#63b8ff" points="380.01,-80.94 390.43,-79.06 381.11,-74.02 380.01,-80.94"/>
</a>
</g>
</g>
<!-- Node9 -->
<g id="Node000009" class="node">
<title>Node9</title>
<g id="a_Node000009"><a xlink:href="classekf.html#a09a763aeb193404116274d2885c42172" target="_top" xlink:title=" ">
<polygon fill="white" stroke="#666666" points="353.62,-20 274.62,-20 274.62,0 353.62,0 353.62,-20"/>
<text xml:space="preserve" text-anchor="middle" x="314.12" y="-6.5" font-family="Helvetica,sans-Serif" font-size="10.00">ekf::StateXdot</text>
</a>
</g>
</g>
<!-- Node8&#45;&gt;Node9 -->
<g id="edge8_Node000008_Node000009" class="edge">
<title>Node8&#45;&gt;Node9</title>
<g id="a_edge8_Node000008_Node000009"><a xlink:title=" ">
<path fill="none" stroke="#63b8ff" d="M215.63,-10C230.54,-10 247.39,-10 262.84,-10"/>
<polygon fill="#63b8ff" stroke="#63b8ff" points="262.81,-13.5 272.81,-10 262.81,-6.5 262.81,-13.5"/>
</a>
</g>
</g>
</g>
</svg>
</svg>

<style type='text/css'>
<![CDATA[
[data-mouse-over-selected='false'] { opacity: 0.7; }
[data-mouse-over-selected='true']  { opacity: 1.0; }
]]>
</style>
<script type="application/ecmascript"><![CDATA[
document.addEventListener('DOMContentLoaded', (event) => {
  highlightEdges();
  highlightAdjacentNodes();
});
]]></script>
</svg>
