<?xml version="1.0" encoding="UTF-8" standalone="no"?>
<!DOCTYPE svg PUBLIC "-//W3C//DTD SVG 1.1//EN"
 "http://www.w3.org/Graphics/SVG/1.1/DTD/svg11.dtd">
<!-- Generated by graphviz version 14.1.2 (20260124.0452)
 -->
<!-- Title: dspm::Mat::rowReduceFromGaussian Pages: 1 -->
<svg width="515pt" height="53pt"
 viewBox="0.00 0.00 515.00 53.00" xmlns="http://www.w3.org/2000/svg" xmlns:xlink="http://www.w3.org/1999/xlink">
<g id="graph0" class="graph" transform="scale(1 1) rotate(0) translate(4 49)">
<title>dspm::Mat::rowReduceFromGaussian</title>
<!-- Node1 -->
<g id="Node000001" class="node">
<title>Node1</title>
<g id="a_Node000001"><a xlink:title=" ">
<polygon fill="#999999" stroke="#666666" points="140.5,-45 0,-45 0,-13 140.5,-13 140.5,-45"/>
<text xml:space="preserve" text-anchor="start" x="8" y="-31.5" font-family="Helvetica,sans-Serif" font-size="10.00">dspm::Mat::rowReduceFrom</text>
<text xml:space="preserve" text-anchor="middle" x="70.25" y="-19.5" font-family="Helvetica,sans-Serif" font-size="10.00">Gaussian</text>
</a>
</g>
</g>
<!-- Node2 -->
<g id="Node000002" class="node">
<title>Node2</title>
<g id="a_Node000002"><a xlink:href="classdspm_1_1_mat.html#a5eb6987452e618ba8d638a6773a074df" target="_top" xlink:title=" ">
<polygon fill="white" stroke="#666666" points="369,-39 284,-39 284,-19 369,-19 369,-39"/>
<text xml:space="preserve" text-anchor="middle" x="326.5" y="-25.5" font-family="Helvetica,sans-Serif" font-size="10.00">dspm::Mat::Mat</text>
</a>
</g>
</g>
<!-- Node1&#45;&gt;Node2 -->
<g id="edge1_Node000001_Node000002" class="edge">
<title>Node1&#45;&gt;Node2</title>
<g id="a_edge1_Node000001_Node000002"><a xlink:title=" ">
<path fill="none" stroke="#63b8ff" d="M140.72,-29C182.16,-29 233.97,-29 272.18,-29"/>
<polygon fill="#63b8ff" stroke="#63b8ff" points="272.06,-32.5 282.06,-29 272.06,-25.5 272.06,-32.5"/>
</a>
</g>
</g>
<!-- Node4 -->
<g id="Node000004" class="node">
<title>Node4</title>
<g id="a_Node000004"><a xlink:href="classdspm_1_1_mat.html#af1013adcb6d601fba7bf788fd52d80b4" target="_top" xlink:title=" ">
<polygon fill="white" stroke="#666666" points="248,-20 176.5,-20 176.5,0 248,0 248,-20"/>
<text xml:space="preserve" text-anchor="middle" x="212.25" y="-6.5" font-family="Helvetica,sans-Serif" font-size="10.00">dspm::Mat::t</text>
</a>
</g>
</g>
<!-- Node1&#45;&gt;Node4 -->
<g id="edge3_Node000001_Node000004" class="edge">
<title>Node1&#45;&gt;Node4</title>
<g id="a_edge3_Node000001_Node000004"><a xlink:title=" ">
<path fill="none" stroke="#63b8ff" d="M140.84,-19.56C148.95,-18.45 157.07,-17.35 164.76,-16.31"/>
<polygon fill="#63b8ff" stroke="#63b8ff" points="165.11,-19.79 174.55,-14.98 164.17,-12.86 165.11,-19.79"/>
</a>
</g>
</g>
<!-- Node3 -->
<g id="Node000003" class="node">
<title>Node3</title>
<g id="a_Node000003"><a xlink:href="classdspm_1_1_mat.html#aa82f099abe2da9662fd06e72056df323" target="_top" xlink:title=" ">
<polygon fill="white" stroke="#666666" points="507.25,-39 405,-39 405,-19 507.25,-19 507.25,-39"/>
<text xml:space="preserve" text-anchor="middle" x="456.12" y="-25.5" font-family="Helvetica,sans-Serif" font-size="10.00">dspm::Mat::allocate</text>
</a>
</g>
</g>
<!-- Node2&#45;&gt;Node3 -->
<g id="edge2_Node000002_Node000003" class="edge">
<title>Node2&#45;&gt;Node3</title>
<g id="a_edge2_Node000002_Node000003"><a xlink:title=" ">
<path fill="none" stroke="#63b8ff" d="M369.29,-29C377,-29 385.19,-29 393.35,-29"/>
<polygon fill="#63b8ff" stroke="#63b8ff" points="393.27,-32.5 403.27,-29 393.27,-25.5 393.27,-32.5"/>
</a>
</g>
</g>
<!-- Node4&#45;&gt;Node2 -->
<g id="edge4_Node000004_Node000002" class="edge">
<title>Node4&#45;&gt;Node2</title>
<g id="a_edge4_Node000004_Node000002"><a xlink:title=" ">
<path fill="none" stroke="#63b8ff" d="M248.46,-15.96C256.06,-17.25 264.26,-18.63 272.38,-20.01"/>
<polygon fill="#63b8ff" stroke="#63b8ff" points="271.79,-23.46 282.24,-21.68 272.96,-16.56 271.79,-23.46"/>
</a>
</g>
</g>
</g>
</svg>
