<?xml version="1.0" encoding="UTF-8" standalone="no"?>
<!DOCTYPE svg PUBLIC "-//W3C//DTD SVG 1.1//EN"
 "http://www.w3.org/Graphics/SVG/1.1/DTD/svg11.dtd">
<!-- Generated by graphviz version 14.1.2 (20260124.0452)
 -->
<!-- Title: dspm::Mat::norm Pages: 1 -->
<svg width="534pt" height="444pt"
 viewBox="0.00 0.00 534.00 444.00" xmlns="http://www.w3.org/2000/svg" xmlns:xlink="http://www.w3.org/1999/xlink">
<g id="graph0" class="graph" transform="scale(1 1) rotate(0) translate(4 440)">
<title>dspm::Mat::norm</title>
<!-- Node1 -->
<g id="Node000001" class="node">
<title>Node1</title>
<g id="a_Node000001"><a xlink:title=" ">
<polygon fill="#999999" stroke="#666666" points="526,-246 435.75,-246 435.75,-226 526,-226 526,-246"/>
<text xml:space="preserve" text-anchor="middle" x="480.88" y="-232.5" font-family="Helvetica,sans-Serif" font-size="10.00">dspm::Mat::norm</text>
</a>
</g>
</g>
<!-- Node2 -->
<g id="Node000002" class="node">
<title>Node2</title>
<g id="a_Node000002"><a xlink:href="applications_2m5stack__core__s3_2apps_2kalman__filter_2main_23d__kalman__demo_8cpp.html#af3debef909dca35dbf0b6f842df6def3" target="_top" xlink:title="RTOS task to draw a 3d image.">
<polygon fill="white" stroke="#666666" points="383.25,-436 275,-436 275,-416 383.25,-416 383.25,-436"/>
<text xml:space="preserve" text-anchor="middle" x="329.12" y="-422.5" font-family="Helvetica,sans-Serif" font-size="10.00">draw_3d_image_task</text>
</a>
</g>
</g>
<!-- Node1&#45;&gt;Node2 -->
<g id="edge1_Node000001_Node000002" class="edge">
<title>Node1&#45;&gt;Node2</title>
<g id="a_edge1_Node000001_Node000002"><a xlink:title=" ">
<path fill="none" stroke="#63b8ff" d="M475.88,-257.47C467.98,-293.81 446.87,-367.35 399.75,-407 394.96,-411.03 389.38,-414.22 383.51,-416.73"/>
<polygon fill="#63b8ff" stroke="#63b8ff" points="479.29,-258.26 477.85,-247.77 472.43,-256.88 479.29,-258.26"/>
</a>
</g>
</g>
<!-- Node3 -->
<g id="Node000003" class="node">
<title>Node3</title>
<g id="a_Node000003"><a xlink:href="external__examples_2b00f000e_2applications_2m5stack__core__s3_2apps_2kalman__filter_2main_23d__kalman__demo_8cpp.html#af3debef909dca35dbf0b6f842df6def3" target="_top" xlink:title="RTOS task to draw a 3d image.">
<polygon fill="white" stroke="#666666" points="383.25,-398 275,-398 275,-378 383.25,-378 383.25,-398"/>
<text xml:space="preserve" text-anchor="middle" x="329.12" y="-384.5" font-family="Helvetica,sans-Serif" font-size="10.00">draw_3d_image_task</text>
</a>
</g>
</g>
<!-- Node1&#45;&gt;Node3 -->
<g id="edge2_Node000001_Node000003" class="edge">
<title>Node1&#45;&gt;Node3</title>
<g id="a_edge2_Node000001_Node000003"><a xlink:title=" ">
<path fill="none" stroke="#63b8ff" d="M472.83,-257.25C461.92,-286.81 438.11,-339.99 399.75,-369 394.85,-372.7 389.28,-375.69 383.47,-378.09"/>
<polygon fill="#63b8ff" stroke="#63b8ff" points="476.09,-258.52 476.1,-247.93 469.49,-256.2 476.09,-258.52"/>
</a>
</g>
</g>
<!-- Node4 -->
<g id="Node000004" class="node">
<title>Node4</title>
<g id="a_Node000004"><a xlink:href="applications_2azure__board__apps_2apps_2kalman__filter_2main_2kalman__filter__demo_8cpp.html#af43b34764385f3f1ad35ce1c00db220f" target="_top" xlink:title="Kalman filter RTOS task (or ESP timer callback).">
<polygon fill="white" stroke="#666666" points="376.88,-360 281.38,-360 281.38,-340 376.88,-340 376.88,-360"/>
<text xml:space="preserve" text-anchor="middle" x="329.12" y="-346.5" font-family="Helvetica,sans-Serif" font-size="10.00">kalman_filter_task</text>
</a>
</g>
</g>
<!-- Node1&#45;&gt;Node4 -->
<g id="edge3_Node000001_Node000004" class="edge">
<title>Node1&#45;&gt;Node4</title>
<g id="a_edge3_Node000001_Node000004"><a xlink:title=" ">
<path fill="none" stroke="#63b8ff" d="M468.1,-256.17C454.4,-277.87 429.77,-311.83 399.75,-331 392.89,-335.38 385.02,-338.77 377.1,-341.37"/>
<polygon fill="#63b8ff" stroke="#63b8ff" points="471.08,-258.01 473.29,-247.65 465.1,-254.37 471.08,-258.01"/>
</a>
</g>
</g>
<!-- Node13 -->
<g id="Node000013" class="node">
<title>Node13</title>
<g id="a_Node000013"><a xlink:href="external__examples_2b00f000e_2applications_2azure__board__apps_2apps_2kalman__filter_2main_2kalman__filter__demo_8cpp.html#af43b34764385f3f1ad35ce1c00db220f" target="_top" xlink:title="Kalman filter RTOS task (or ESP timer callback).">
<polygon fill="white" stroke="#666666" points="376.88,-322 281.38,-322 281.38,-302 376.88,-302 376.88,-322"/>
<text xml:space="preserve" text-anchor="middle" x="329.12" y="-308.5" font-family="Helvetica,sans-Serif" font-size="10.00">kalman_filter_task</text>
</a>
</g>
</g>
<!-- Node1&#45;&gt;Node13 -->
<g id="edge13_Node000001_Node000013" class="edge">
<title>Node1&#45;&gt;Node13</title>
<g id="a_edge13_Node000001_Node000013"><a xlink:title=" ">
<path fill="none" stroke="#63b8ff" d="M459.54,-253.55C444.05,-266.12 421.73,-282.59 399.75,-293 392.62,-296.38 384.78,-299.25 377.01,-301.65"/>
<polygon fill="#63b8ff" stroke="#63b8ff" points="461.61,-256.38 467.06,-247.29 457.14,-251 461.61,-256.38"/>
</a>
</g>
</g>
<!-- Node14 -->
<g id="Node000014" class="node">
<title>Node14</title>
<g id="a_Node000014"><a xlink:href="external__examples_2d1468452_2apps_2kalman__filter_2main_2kalman__filter__demo_8cpp.html#af43b34764385f3f1ad35ce1c00db220f" target="_top" xlink:title="Kalman filter RTOS task (or ESP timer callback).">
<polygon fill="white" stroke="#666666" points="376.88,-284 281.38,-284 281.38,-264 376.88,-264 376.88,-284"/>
<text xml:space="preserve" text-anchor="middle" x="329.12" y="-270.5" font-family="Helvetica,sans-Serif" font-size="10.00">kalman_filter_task</text>
</a>
</g>
</g>
<!-- Node1&#45;&gt;Node14 -->
<g id="edge14_Node000001_Node000014" class="edge">
<title>Node1&#45;&gt;Node14</title>
<g id="a_edge14_Node000001_Node000014"><a xlink:title=" ">
<path fill="none" stroke="#63b8ff" d="M427.41,-249.31C409.02,-253.98 388.64,-259.15 371.31,-263.55"/>
<polygon fill="#63b8ff" stroke="#63b8ff" points="428.26,-252.71 437.09,-246.86 426.54,-245.92 428.26,-252.71"/>
</a>
</g>
</g>
<!-- Node15 -->
<g id="Node000015" class="node">
<title>Node15</title>
<g id="a_Node000015"><a xlink:href="external__examples_2f9c2d4b3_2azure__board__apps_2apps_2kalman__filter_2main_2kalman__filter__demo_8cpp.html#af43b34764385f3f1ad35ce1c00db220f" target="_top" xlink:title="Kalman filter RTOS task (or ESP timer callback).">
<polygon fill="white" stroke="#666666" points="376.88,-246 281.38,-246 281.38,-226 376.88,-226 376.88,-246"/>
<text xml:space="preserve" text-anchor="middle" x="329.12" y="-232.5" font-family="Helvetica,sans-Serif" font-size="10.00">kalman_filter_task</text>
</a>
</g>
</g>
<!-- Node1&#45;&gt;Node15 -->
<g id="edge15_Node000001_Node000015" class="edge">
<title>Node1&#45;&gt;Node15</title>
<g id="a_edge15_Node000001_Node000015"><a xlink:title=" ">
<path fill="none" stroke="#63b8ff" d="M423.9,-236C408.58,-236 392.12,-236 377.34,-236"/>
<polygon fill="#63b8ff" stroke="#63b8ff" points="423.84,-239.5 433.84,-236 423.84,-232.5 423.84,-239.5"/>
</a>
</g>
</g>
<!-- Node16 -->
<g id="Node000016" class="node">
<title>Node16</title>
<g id="a_Node000016"><a xlink:href="classekf.html#a148bfefd351013bb66d84b160ce31ee3" target="_top" xlink:title=" ">
<polygon fill="white" stroke="#666666" points="368.62,-208 289.62,-208 289.62,-188 368.62,-188 368.62,-208"/>
<text xml:space="preserve" text-anchor="middle" x="329.12" y="-194.5" font-family="Helvetica,sans-Serif" font-size="10.00">ekf::rotm2quat</text>
</a>
</g>
</g>
<!-- Node1&#45;&gt;Node16 -->
<g id="edge16_Node000001_Node000016" class="edge">
<title>Node1&#45;&gt;Node16</title>
<g id="a_edge16_Node000001_Node000016"><a xlink:title=" ">
<path fill="none" stroke="#63b8ff" d="M427.52,-222.72C408.28,-217.83 386.84,-212.39 368.99,-207.86"/>
<polygon fill="#63b8ff" stroke="#63b8ff" points="426.54,-226.08 437.09,-225.14 428.26,-219.29 426.54,-226.08"/>
</a>
</g>
</g>
<!-- Node17 -->
<g id="Node000017" class="node">
<title>Node17</title>
<g id="a_Node000017"><a xlink:href="classekf__imu13states.html#a7f315abd38007e57247edc0967d688f7" target="_top" xlink:title=" ">
<polygon fill="white" stroke="#666666" points="222.5,-170 94,-170 94,-150 222.5,-150 222.5,-170"/>
<text xml:space="preserve" text-anchor="middle" x="158.25" y="-156.5" font-family="Helvetica,sans-Serif" font-size="10.00">ekf_imu13states::TestFull</text>
</a>
</g>
</g>
<!-- Node1&#45;&gt;Node17 -->
<g id="edge18_Node000001_Node000017" class="edge">
<title>Node1&#45;&gt;Node17</title>
<g id="a_edge18_Node000001_Node000017"><a xlink:title=" ">
<path fill="none" stroke="#63b8ff" d="M460.84,-217.89C445.61,-204.6 423,-187.45 399.75,-179 342.47,-158.18 272.62,-154.89 222.98,-155.93"/>
<polygon fill="#63b8ff" stroke="#63b8ff" points="458.43,-220.43 468.2,-224.54 463.13,-215.24 458.43,-220.43"/>
</a>
</g>
</g>
<!-- Node18 -->
<g id="Node000018" class="node">
<title>Node18</title>
<g id="a_Node000018"><a xlink:href="classekf__imu13states.html#a09f6e9adfc80a65e41a6e11ffd89fc53" target="_top" xlink:title=" ">
<polygon fill="white" stroke="#666666" points="399.75,-132 258.5,-132 258.5,-100 399.75,-100 399.75,-132"/>
<text xml:space="preserve" text-anchor="start" x="266.5" y="-118.5" font-family="Helvetica,sans-Serif" font-size="10.00">ekf_imu13states::UpdateRef</text>
<text xml:space="preserve" text-anchor="middle" x="329.12" y="-106.5" font-family="Helvetica,sans-Serif" font-size="10.00">Measurement</text>
</a>
</g>
</g>
<!-- Node1&#45;&gt;Node18 -->
<g id="edge19_Node000001_Node000018" class="edge">
<title>Node1&#45;&gt;Node18</title>
<g id="a_edge19_Node000001_Node000018"><a xlink:title=" ">
<path fill="none" stroke="#63b8ff" d="M466.46,-216.45C451.96,-196.53 427.2,-165.81 399.75,-146 392.6,-140.84 384.42,-136.33 376.25,-132.47"/>
<polygon fill="#63b8ff" stroke="#63b8ff" points="463.56,-218.41 472.2,-224.54 469.27,-214.36 463.56,-218.41"/>
</a>
</g>
</g>
<!-- Node19 -->
<g id="Node000019" class="node">
<title>Node19</title>
<g id="a_Node000019"><a xlink:href="classekf__imu13states.html#a84709d79f66591f90fea7c532d73ba14" target="_top" xlink:title=" ">
<polygon fill="white" stroke="#666666" points="399.75,-82 258.5,-82 258.5,-50 399.75,-50 399.75,-82"/>
<text xml:space="preserve" text-anchor="start" x="266.5" y="-68.5" font-family="Helvetica,sans-Serif" font-size="10.00">ekf_imu13states::UpdateRef</text>
<text xml:space="preserve" text-anchor="middle" x="329.12" y="-56.5" font-family="Helvetica,sans-Serif" font-size="10.00">Measurement</text>
</a>
</g>
</g>
<!-- Node1&#45;&gt;Node19 -->
<g id="edge20_Node000001_Node000019" class="edge">
<title>Node1&#45;&gt;Node19</title>
<g id="a_edge20_Node000001_Node000019"><a xlink:title=" ">
<path fill="none" stroke="#63b8ff" d="M473.48,-214.63C463.02,-183.24 439.38,-124.74 399.75,-91 395.94,-87.75 391.67,-84.91 387.17,-82.44"/>
<polygon fill="#63b8ff" stroke="#63b8ff" points="470.13,-215.66 476.49,-224.14 476.8,-213.55 470.13,-215.66"/>
</a>
</g>
</g>
<!-- Node20 -->
<g id="Node000020" class="node">
<title>Node20</title>
<g id="a_Node000020"><a xlink:href="classekf__imu13states.html#ad56f37dbe6dece11f6ff670e478099b1" target="_top" xlink:title=" ">
<polygon fill="white" stroke="#666666" points="399.75,-32 258.5,-32 258.5,0 399.75,0 399.75,-32"/>
<text xml:space="preserve" text-anchor="start" x="266.5" y="-18.5" font-family="Helvetica,sans-Serif" font-size="10.00">ekf_imu13states::UpdateRef</text>
<text xml:space="preserve" text-anchor="middle" x="329.12" y="-6.5" font-family="Helvetica,sans-Serif" font-size="10.00">MeasurementMagn</text>
</a>
</g>
</g>
<!-- Node1&#45;&gt;Node20 -->
<g id="edge22_Node000001_Node000020" class="edge">
<title>Node1&#45;&gt;Node20</title>
<g id="a_edge22_Node000001_Node000020"><a xlink:title=" ">
<path fill="none" stroke="#63b8ff" d="M476.9,-214.76C470.26,-175.14 450.6,-89.61 399.75,-41 396.31,-37.72 392.42,-34.86 388.27,-32.38"/>
<polygon fill="#63b8ff" stroke="#63b8ff" points="473.41,-215.06 478.39,-224.41 480.32,-213.99 473.41,-215.06"/>
</a>
</g>
</g>
<!-- Node5 -->
<g id="Node000005" class="node">
<title>Node5</title>
<g id="a_Node000005"><a xlink:href="applications_2azure__board__apps_2apps_2kalman__filter_2main_2kalman__filter__demo_8cpp.html#abce06be17fc37d675118a678a8100a36" target="_top" xlink:title=" ">
<polygon fill="white" stroke="#666666" points="58,-417 0,-417 0,-397 58,-397 58,-417"/>
<text xml:space="preserve" text-anchor="middle" x="29" y="-403.5" font-family="Helvetica,sans-Serif" font-size="10.00">app_main</text>
</a>
</g>
</g>
<!-- Node4&#45;&gt;Node5 -->
<g id="edge4_Node000004_Node000005" class="edge">
<title>Node4&#45;&gt;Node5</title>
<g id="a_edge4_Node000004_Node000005"><a xlink:title=" ">
<path fill="none" stroke="#63b8ff" d="M270.46,-363C266.3,-364.76 262.26,-366.75 258.5,-369 238.54,-380.95 243.87,-397.81 222.5,-407 168.31,-430.31 97.34,-421.48 58.49,-413.74"/>
<polygon fill="#63b8ff" stroke="#63b8ff" points="271.42,-366.37 279.57,-359.61 268.98,-359.81 271.42,-366.37"/>
</a>
</g>
</g>
<!-- Node6 -->
<g id="Node000006" class="node">
<title>Node6</title>
<g id="a_Node000006"><a xlink:href="applications_2azure__board__apps_2apps_2kalman__filter_2main_2kalman__filter__demo_8cpp.html#a1967e917dafd16b5f02410c5b10c1d90" target="_top" xlink:title="Kalman filter calibration procedure.">
<polygon fill="white" stroke="#666666" points="218.75,-398 97.75,-398 97.75,-378 218.75,-378 218.75,-398"/>
<text xml:space="preserve" text-anchor="middle" x="158.25" y="-384.5" font-family="Helvetica,sans-Serif" font-size="10.00">kalman_filter_calibration</text>
</a>
</g>
</g>
<!-- Node4&#45;&gt;Node6 -->
<g id="edge5_Node000004_Node000006" class="edge">
<title>Node4&#45;&gt;Node6</title>
<g id="a_edge5_Node000004_Node000006"><a xlink:title=" ">
<path fill="none" stroke="#63b8ff" d="M270.42,-362.98C249.3,-367.74 225.7,-373.05 205.69,-377.55"/>
<polygon fill="#63b8ff" stroke="#63b8ff" points="271.07,-366.43 280.06,-360.82 269.53,-359.6 271.07,-366.43"/>
</a>
</g>
</g>
<!-- Node7 -->
<g id="Node000007" class="node">
<title>Node7</title>
<g id="a_Node000007"><a xlink:href="external__examples_2b00f000e_2applications_2azure__board__apps_2apps_2kalman__filter_2main_2kalman__filter__demo_8cpp.html#a1967e917dafd16b5f02410c5b10c1d90" target="_top" xlink:title="Kalman filter calibration procedure.">
<polygon fill="white" stroke="#666666" points="218.75,-360 97.75,-360 97.75,-340 218.75,-340 218.75,-360"/>
<text xml:space="preserve" text-anchor="middle" x="158.25" y="-346.5" font-family="Helvetica,sans-Serif" font-size="10.00">kalman_filter_calibration</text>
</a>
</g>
</g>
<!-- Node4&#45;&gt;Node7 -->
<g id="edge7_Node000004_Node000007" class="edge">
<title>Node4&#45;&gt;Node7</title>
<g id="a_edge7_Node000004_Node000007"><a xlink:title=" ">
<path fill="none" stroke="#63b8ff" d="M269.96,-350C253.51,-350 235.57,-350 219.02,-350"/>
<polygon fill="#63b8ff" stroke="#63b8ff" points="269.57,-353.5 279.57,-350 269.57,-346.5 269.57,-353.5"/>
</a>
</g>
</g>
<!-- Node9 -->
<g id="Node000009" class="node">
<title>Node9</title>
<g id="a_Node000009"><a xlink:href="external__examples_2d1468452_2apps_2kalman__filter_2main_2kalman__filter__demo_8cpp.html#a1967e917dafd16b5f02410c5b10c1d90" target="_top" xlink:title="Kalman filter calibration procedure.">
<polygon fill="white" stroke="#666666" points="218.75,-322 97.75,-322 97.75,-302 218.75,-302 218.75,-322"/>
<text xml:space="preserve" text-anchor="middle" x="158.25" y="-308.5" font-family="Helvetica,sans-Serif" font-size="10.00">kalman_filter_calibration</text>
</a>
</g>
</g>
<!-- Node4&#45;&gt;Node9 -->
<g id="edge9_Node000004_Node000009" class="edge">
<title>Node4&#45;&gt;Node9</title>
<g id="a_edge9_Node000004_Node000009"><a xlink:title=" ">
<path fill="none" stroke="#63b8ff" d="M270.42,-337.02C249.3,-332.26 225.7,-326.95 205.69,-322.45"/>
<polygon fill="#63b8ff" stroke="#63b8ff" points="269.53,-340.4 280.06,-339.18 271.07,-333.57 269.53,-340.4"/>
</a>
</g>
</g>
<!-- Node11 -->
<g id="Node000011" class="node">
<title>Node11</title>
<g id="a_Node000011"><a xlink:href="external__examples_2f9c2d4b3_2azure__board__apps_2apps_2kalman__filter_2main_2kalman__filter__demo_8cpp.html#a1967e917dafd16b5f02410c5b10c1d90" target="_top" xlink:title="Kalman filter calibration procedure.">
<polygon fill="white" stroke="#666666" points="218.75,-284 97.75,-284 97.75,-264 218.75,-264 218.75,-284"/>
<text xml:space="preserve" text-anchor="middle" x="158.25" y="-270.5" font-family="Helvetica,sans-Serif" font-size="10.00">kalman_filter_calibration</text>
</a>
</g>
</g>
<!-- Node4&#45;&gt;Node11 -->
<g id="edge11_Node000004_Node000011" class="edge">
<title>Node4&#45;&gt;Node11</title>
<g id="a_edge11_Node000004_Node000011"><a xlink:title=" ">
<path fill="none" stroke="#63b8ff" d="M270.46,-337C266.3,-335.24 262.26,-333.25 258.5,-331 238.54,-319.05 242.31,-305.2 222.5,-293 216.94,-289.57 210.71,-286.73 204.4,-284.38"/>
<polygon fill="#63b8ff" stroke="#63b8ff" points="268.98,-340.19 279.57,-340.39 271.42,-333.63 268.98,-340.19"/>
</a>
</g>
</g>
<!-- Node6&#45;&gt;Node5 -->
<g id="edge6_Node000006_Node000005" class="edge">
<title>Node6&#45;&gt;Node5</title>
<g id="a_edge6_Node000006_Node000005"><a xlink:title=" ">
<path fill="none" stroke="#63b8ff" d="M86.14,-398.62C76.26,-400.09 66.62,-401.53 58.2,-402.79"/>
<polygon fill="#63b8ff" stroke="#63b8ff" points="86.48,-402.11 95.85,-397.17 85.45,-395.18 86.48,-402.11"/>
</a>
</g>
</g>
<!-- Node8 -->
<g id="Node000008" class="node">
<title>Node8</title>
<g id="a_Node000008"><a xlink:href="external__examples_2b00f000e_2applications_2azure__board__apps_2apps_2kalman__filter_2main_2kalman__filter__demo_8cpp.html#abce06be17fc37d675118a678a8100a36" target="_top" xlink:title=" ">
<polygon fill="white" stroke="#666666" points="58,-360 0,-360 0,-340 58,-340 58,-360"/>
<text xml:space="preserve" text-anchor="middle" x="29" y="-346.5" font-family="Helvetica,sans-Serif" font-size="10.00">app_main</text>
</a>
</g>
</g>
<!-- Node7&#45;&gt;Node8 -->
<g id="edge8_Node000007_Node000008" class="edge">
<title>Node7&#45;&gt;Node8</title>
<g id="a_edge8_Node000007_Node000008"><a xlink:title=" ">
<path fill="none" stroke="#63b8ff" d="M86.14,-350C76.26,-350 66.62,-350 58.2,-350"/>
<polygon fill="#63b8ff" stroke="#63b8ff" points="85.84,-353.5 95.84,-350 85.84,-346.5 85.84,-353.5"/>
</a>
</g>
</g>
<!-- Node10 -->
<g id="Node000010" class="node">
<title>Node10</title>
<g id="a_Node000010"><a xlink:href="external__examples_2d1468452_2apps_2kalman__filter_2main_2kalman__filter__demo_8cpp.html#abce06be17fc37d675118a678a8100a36" target="_top" xlink:title=" ">
<polygon fill="white" stroke="#666666" points="58,-322 0,-322 0,-302 58,-302 58,-322"/>
<text xml:space="preserve" text-anchor="middle" x="29" y="-308.5" font-family="Helvetica,sans-Serif" font-size="10.00">app_main</text>
</a>
</g>
</g>
<!-- Node9&#45;&gt;Node10 -->
<g id="edge10_Node000009_Node000010" class="edge">
<title>Node9&#45;&gt;Node10</title>
<g id="a_edge10_Node000009_Node000010"><a xlink:title=" ">
<path fill="none" stroke="#63b8ff" d="M86.14,-312C76.26,-312 66.62,-312 58.2,-312"/>
<polygon fill="#63b8ff" stroke="#63b8ff" points="85.84,-315.5 95.84,-312 85.84,-308.5 85.84,-315.5"/>
</a>
</g>
</g>
<!-- Node12 -->
<g id="Node000012" class="node">
<title>Node12</title>
<g id="a_Node000012"><a xlink:href="external__examples_2f9c2d4b3_2azure__board__apps_2apps_2kalman__filter_2main_2kalman__filter__demo_8cpp.html#abce06be17fc37d675118a678a8100a36" target="_top" xlink:title=" ">
<polygon fill="white" stroke="#666666" points="58,-284 0,-284 0,-264 58,-264 58,-284"/>
<text xml:space="preserve" text-anchor="middle" x="29" y="-270.5" font-family="Helvetica,sans-Serif" font-size="10.00">app_main</text>
</a>
</g>
</g>
<!-- Node11&#45;&gt;Node12 -->
<g id="edge12_Node000011_Node000012" class="edge">
<title>Node11&#45;&gt;Node12</title>
<g id="a_edge12_Node000011_Node000012"><a xlink:title=" ">
<path fill="none" stroke="#63b8ff" d="M86.14,-274C76.26,-274 66.62,-274 58.2,-274"/>
<polygon fill="#63b8ff" stroke="#63b8ff" points="85.84,-277.5 95.84,-274 85.84,-270.5 85.84,-277.5"/>
</a>
</g>
</g>
<!-- Node16&#45;&gt;Node17 -->
<g id="edge17_Node000016_Node000017" class="edge">
<title>Node16&#45;&gt;Node17</title>
<g id="a_edge17_Node000016_Node000017"><a xlink:title=" ">
<path fill="none" stroke="#63b8ff" d="M278.45,-186.82C255.43,-181.64 228.22,-175.52 205.62,-170.43"/>
<polygon fill="#63b8ff" stroke="#63b8ff" points="277.38,-190.17 287.91,-188.95 278.92,-183.34 277.38,-190.17"/>
</a>
</g>
</g>
<!-- Node19&#45;&gt;Node17 -->
<g id="edge21_Node000019_Node000017" class="edge">
<title>Node19&#45;&gt;Node17</title>
<g id="a_edge21_Node000019_Node000017"><a xlink:title=" ">
<path fill="none" stroke="#63b8ff" d="M266.81,-86.97C263.97,-88.27 261.19,-89.61 258.5,-91 225.11,-108.22 189.89,-135.09 171.72,-149.7"/>
<polygon fill="#63b8ff" stroke="#63b8ff" points="268.06,-90.25 275.87,-83.09 265.3,-83.81 268.06,-90.25"/>
</a>
</g>
</g>
</g>
</svg>
