<?xml version="1.0" encoding="UTF-8" standalone="no"?>
<!DOCTYPE svg PUBLIC "-//W3C//DTD SVG 1.1//EN"
 "http://www.w3.org/Graphics/SVG/1.1/DTD/svg11.dtd">
<!-- Generated by graphviz version 14.1.2 (20260124.0452)
 -->
<!-- Title: dspm::Mat::Mat Pages: 1 -->
<svg width="480pt" height="47pt"
 viewBox="0.00 0.00 480.00 47.00" xmlns="http://www.w3.org/2000/svg" xmlns:xlink="http://www.w3.org/1999/xlink">
<g id="graph0" class="graph" transform="scale(1 1) rotate(0) translate(4 43)">
<title>dspm::Mat::Mat</title>
<!-- Node1 -->
<g id="Node000001" class="node">
<title>Node1</title>
<g id="a_Node000001"><a xlink:title=" ">
<polygon fill="#999999" stroke="#666666" points="472,-20 387,-20 387,0 472,0 472,-20"/>
<text xml:space="preserve" text-anchor="middle" x="429.5" y="-6.5" font-family="Helvetica,sans-Serif" font-size="10.00">dspm::Mat::Mat</text>
</a>
</g>
</g>
<!-- Node2 -->
<g id="Node000002" class="node">
<title>Node2</title>
<g id="a_Node000002"><a xlink:href="classdspm_1_1_mat.html#a1307da8f13edcf4b1f2bdbf23c9f0ce8" target="_top" xlink:title=" ">
<polygon fill="white" stroke="#666666" points="351,-20 269,-20 269,0 351,0 351,-20"/>
<text xml:space="preserve" text-anchor="middle" x="310" y="-6.5" font-family="Helvetica,sans-Serif" font-size="10.00">dspm::Mat::det</text>
</a>
</g>
</g>
<!-- Node1&#45;&gt;Node2 -->
<g id="edge1_Node000001_Node000002" class="edge">
<title>Node1&#45;&gt;Node2</title>
<g id="a_edge1_Node000001_Node000002"><a xlink:title=" ">
<path fill="none" stroke="#63b8ff" d="M375.49,-10C367.41,-10 359.19,-10 351.44,-10"/>
<polygon fill="#63b8ff" stroke="#63b8ff" points="375.23,-13.5 385.23,-10 375.23,-6.5 375.23,-13.5"/>
</a>
</g>
</g>
<!-- Node2&#45;&gt;Node2 -->
<g id="edge4_Node000002_Node000002" class="edge">
<title>Node2&#45;&gt;Node2</title>
<g id="a_edge4_Node000002_Node000002"><a xlink:title=" ">
<path fill="none" stroke="#63b8ff" d="M331.12,-31.44C328.4,-35.3 321.36,-38 310,-38 289.23,-38 282.9,-28.98 291.01,-20.34"/>
<polygon fill="#63b8ff" stroke="#63b8ff" points="334.6,-30.98 329.27,-21.82 327.72,-32.31 334.6,-30.98"/>
</a>
</g>
</g>
<!-- Node3 -->
<g id="Node000003" class="node">
<title>Node3</title>
<g id="a_Node000003"><a xlink:href="classdspm_1_1_mat.html#a2944f7de712a8ebe6cbbb68b08372ead" target="_top" xlink:title=" ">
<polygon fill="white" stroke="#666666" points="233,-39 136,-39 136,-19 233,-19 233,-39"/>
<text xml:space="preserve" text-anchor="middle" x="184.5" y="-25.5" font-family="Helvetica,sans-Serif" font-size="10.00">dspm::Mat::adjoint</text>
</a>
</g>
</g>
<!-- Node2&#45;&gt;Node3 -->
<g id="edge2_Node000002_Node000003" class="edge">
<title>Node2&#45;&gt;Node3</title>
<g id="a_edge2_Node000002_Node000003"><a xlink:title=" ">
<path fill="none" stroke="#63b8ff" d="M257.2,-17.97C249.29,-19.19 241.16,-20.44 233.34,-21.64"/>
<polygon fill="#63b8ff" stroke="#63b8ff" points="257.71,-21.43 267.07,-16.45 256.65,-14.51 257.71,-21.43"/>
</a>
</g>
</g>
<!-- Node4 -->
<g id="Node000004" class="node">
<title>Node4</title>
<g id="a_Node000004"><a xlink:href="classdspm_1_1_mat.html#af5c78c8f94cf90af1c9a8bfe9ac4209f" target="_top" xlink:title=" ">
<polygon fill="white" stroke="#666666" points="100,-20 0,-20 0,0 100,0 100,-20"/>
<text xml:space="preserve" text-anchor="middle" x="50" y="-6.5" font-family="Helvetica,sans-Serif" font-size="10.00">dspm::Mat::inverse</text>
</a>
</g>
</g>
<!-- Node2&#45;&gt;Node4 -->
<g id="edge5_Node000002_Node000004" class="edge">
<title>Node2&#45;&gt;Node4</title>
<g id="a_edge5_Node000002_Node000004"><a xlink:title=" ">
<path fill="none" stroke="#63b8ff" d="M257.24,-10C211.5,-10 145.26,-10 100.29,-10"/>
<polygon fill="#63b8ff" stroke="#63b8ff" points="257.17,-13.5 267.17,-10 257.17,-6.5 257.17,-13.5"/>
</a>
</g>
</g>
<!-- Node3&#45;&gt;Node4 -->
<g id="edge3_Node000003_Node000004" class="edge">
<title>Node3&#45;&gt;Node4</title>
<g id="a_edge3_Node000003_Node000004"><a xlink:title=" ">
<path fill="none" stroke="#63b8ff" d="M124.35,-20.52C116.25,-19.36 108,-18.17 100.1,-17.04"/>
<polygon fill="#63b8ff" stroke="#63b8ff" points="123.77,-23.97 134.17,-21.93 124.76,-17.04 123.77,-23.97"/>
</a>
</g>
</g>
</g>
</svg>
