<?xml version="1.0" encoding="UTF-8" standalone="no"?>
<!DOCTYPE svg PUBLIC "-//W3C//DTD SVG 1.1//EN"
 "http://www.w3.org/Graphics/SVG/1.1/DTD/svg11.dtd">
<!-- Generated by graphviz version 14.1.2 (20260124.0452)
 -->
<!-- Title: dspm::Mat::swapRows Pages: 1 -->
<svg width="578pt" height="104pt"
 viewBox="0.00 0.00 578.00 104.00" xmlns="http://www.w3.org/2000/svg" xmlns:xlink="http://www.w3.org/1999/xlink">
<g id="graph0" class="graph" transform="scale(1 1) rotate(0) translate(4 100)">
<title>dspm::Mat::swapRows</title>
<!-- Node1 -->
<g id="Node000001" class="node">
<title>Node1</title>
<g id="a_Node000001"><a xlink:title=" ">
<polygon fill="#999999" stroke="#666666" points="570.25,-39 453,-39 453,-19 570.25,-19 570.25,-39"/>
<text xml:space="preserve" text-anchor="middle" x="511.62" y="-25.5" font-family="Helvetica,sans-Serif" font-size="10.00">dspm::Mat::swapRows</text>
</a>
</g>
</g>
<!-- Node2 -->
<g id="Node000002" class="node">
<title>Node2</title>
<g id="a_Node000002"><a xlink:href="classdspm_1_1_mat.html#a1307da8f13edcf4b1f2bdbf23c9f0ce8" target="_top" xlink:title=" ">
<polygon fill="white" stroke="#666666" points="384,-58 302,-58 302,-38 384,-38 384,-58"/>
<text xml:space="preserve" text-anchor="middle" x="343" y="-44.5" font-family="Helvetica,sans-Serif" font-size="10.00">dspm::Mat::det</text>
</a>
</g>
</g>
<!-- Node1&#45;&gt;Node2 -->
<g id="edge1_Node000001_Node000002" class="edge">
<title>Node1&#45;&gt;Node2</title>
<g id="a_edge1_Node000001_Node000002"><a xlink:title=" ">
<path fill="none" stroke="#63b8ff" d="M441.52,-36.88C422.08,-39.1 401.57,-41.44 384.4,-43.39"/>
<polygon fill="#63b8ff" stroke="#63b8ff" points="441.77,-40.37 451.31,-35.76 440.98,-33.42 441.77,-40.37"/>
</a>
</g>
</g>
<!-- Node5 -->
<g id="Node000005" class="node">
<title>Node5</title>
<g id="a_Node000005"><a xlink:href="classdspm_1_1_mat.html#ac5482cf5daed6c1f7f66639913d71b39" target="_top" xlink:title="Gaussian Elimination.">
<polygon fill="white" stroke="#666666" points="417,-20 269,-20 269,0 417,0 417,-20"/>
<text xml:space="preserve" text-anchor="middle" x="343" y="-6.5" font-family="Helvetica,sans-Serif" font-size="10.00">dspm::Mat::gaussianEliminate</text>
</a>
</g>
</g>
<!-- Node1&#45;&gt;Node5 -->
<g id="edge6_Node000001_Node000005" class="edge">
<title>Node1&#45;&gt;Node5</title>
<g id="a_edge6_Node000001_Node000005"><a xlink:title=" ">
<path fill="none" stroke="#63b8ff" d="M441.61,-21.13C433.57,-20.21 425.35,-19.28 417.26,-18.35"/>
<polygon fill="#63b8ff" stroke="#63b8ff" points="440.98,-24.58 451.31,-22.24 441.77,-17.63 440.98,-24.58"/>
</a>
</g>
</g>
<!-- Node2&#45;&gt;Node2 -->
<g id="edge4_Node000002_Node000002" class="edge">
<title>Node2&#45;&gt;Node2</title>
<g id="a_edge4_Node000002_Node000002"><a xlink:title=" ">
<path fill="none" stroke="#63b8ff" d="M371.01,-69.44C367.41,-73.3 358.07,-76 343,-76 315.45,-76 307.05,-66.98 317.82,-58.34"/>
<polygon fill="#63b8ff" stroke="#63b8ff" points="374.42,-68.63 368.56,-59.81 367.64,-70.36 374.42,-68.63"/>
</a>
</g>
</g>
<!-- Node3 -->
<g id="Node000003" class="node">
<title>Node3</title>
<g id="a_Node000003"><a xlink:href="classdspm_1_1_mat.html#a2944f7de712a8ebe6cbbb68b08372ead" target="_top" xlink:title=" ">
<polygon fill="white" stroke="#666666" points="233,-96 136,-96 136,-76 233,-76 233,-96"/>
<text xml:space="preserve" text-anchor="middle" x="184.5" y="-82.5" font-family="Helvetica,sans-Serif" font-size="10.00">dspm::Mat::adjoint</text>
</a>
</g>
</g>
<!-- Node2&#45;&gt;Node3 -->
<g id="edge2_Node000002_Node000003" class="edge">
<title>Node2&#45;&gt;Node3</title>
<g id="a_edge2_Node000002_Node000003"><a xlink:title=" ">
<path fill="none" stroke="#63b8ff" d="M290.57,-60.49C270.54,-65.35 247.84,-70.86 228.68,-75.51"/>
<polygon fill="#63b8ff" stroke="#63b8ff" points="291.33,-63.9 300.23,-58.14 289.68,-57.1 291.33,-63.9"/>
</a>
</g>
</g>
<!-- Node4 -->
<g id="Node000004" class="node">
<title>Node4</title>
<g id="a_Node000004"><a xlink:href="classdspm_1_1_mat.html#af5c78c8f94cf90af1c9a8bfe9ac4209f" target="_top" xlink:title=" ">
<polygon fill="white" stroke="#666666" points="100,-77 0,-77 0,-57 100,-57 100,-77"/>
<text xml:space="preserve" text-anchor="middle" x="50" y="-63.5" font-family="Helvetica,sans-Serif" font-size="10.00">dspm::Mat::inverse</text>
</a>
</g>
</g>
<!-- Node2&#45;&gt;Node4 -->
<g id="edge5_Node000002_Node000004" class="edge">
<title>Node2&#45;&gt;Node4</title>
<g id="a_edge5_Node000002_Node000004"><a xlink:title=" ">
<path fill="none" stroke="#63b8ff" d="M290.22,-51.38C236.51,-54.89 153.15,-60.33 100.35,-63.78"/>
<polygon fill="#63b8ff" stroke="#63b8ff" points="290.28,-54.88 300.03,-50.74 289.82,-47.9 290.28,-54.88"/>
</a>
</g>
</g>
<!-- Node3&#45;&gt;Node4 -->
<g id="edge3_Node000003_Node000004" class="edge">
<title>Node3&#45;&gt;Node4</title>
<g id="a_edge3_Node000003_Node000004"><a xlink:title=" ">
<path fill="none" stroke="#63b8ff" d="M124.35,-77.52C116.25,-76.36 108,-75.17 100.1,-74.04"/>
<polygon fill="#63b8ff" stroke="#63b8ff" points="123.77,-80.97 134.17,-78.93 124.76,-74.04 123.77,-80.97"/>
</a>
</g>
</g>
<!-- Node6 -->
<g id="Node000006" class="node">
<title>Node6</title>
<g id="a_Node000006"><a xlink:href="classdspm_1_1_mat.html#a3d8be6dbfbc64fa98f08ef9ce8860a12" target="_top" xlink:title=" ">
<polygon fill="white" stroke="#666666" points="227.75,-20 141.25,-20 141.25,0 227.75,0 227.75,-20"/>
<text xml:space="preserve" text-anchor="middle" x="184.5" y="-6.5" font-family="Helvetica,sans-Serif" font-size="10.00">dspm::Mat::pinv</text>
</a>
</g>
</g>
<!-- Node5&#45;&gt;Node6 -->
<g id="edge7_Node000005_Node000006" class="edge">
<title>Node5&#45;&gt;Node6</title>
<g id="a_edge7_Node000005_Node000006"><a xlink:title=" ">
<path fill="none" stroke="#63b8ff" d="M257.29,-10C247.13,-10 237.12,-10 227.94,-10"/>
<polygon fill="#63b8ff" stroke="#63b8ff" points="257.28,-13.5 267.28,-10 257.28,-6.5 257.28,-13.5"/>
</a>
</g>
</g>
<!-- Node7 -->
<g id="Node000007" class="node">
<title>Node7</title>
<g id="a_Node000007"><a xlink:href="classekf.html#abd6f35d1ea69828aa0f757762fac9498" target="_top" xlink:title=" ">
<polygon fill="white" stroke="#666666" points="91.38,-20 8.62,-20 8.62,0 91.38,0 91.38,-20"/>
<text xml:space="preserve" text-anchor="middle" x="50" y="-6.5" font-family="Helvetica,sans-Serif" font-size="10.00">ekf::UpdateRef</text>
</a>
</g>
</g>
<!-- Node6&#45;&gt;Node7 -->
<g id="edge8_Node000006_Node000007" class="edge">
<title>Node6&#45;&gt;Node7</title>
<g id="a_edge8_Node000006_Node000007"><a xlink:title=" ">
<path fill="none" stroke="#63b8ff" d="M129.5,-10C116.9,-10 103.68,-10 91.77,-10"/>
<polygon fill="#63b8ff" stroke="#63b8ff" points="129.33,-13.5 139.33,-10 129.33,-6.5 129.33,-13.5"/>
</a>
</g>
</g>
</g>
</svg>
