<?xml version="1.0" encoding="UTF-8" standalone="no"?>
<!DOCTYPE svg PUBLIC "-//W3C//DTD SVG 1.1//EN"
 "http://www.w3.org/Graphics/SVG/1.1/DTD/svg11.dtd">
<!-- Generated by graphviz version 14.1.2 (20260124.0452)
 -->
<!-- Title: ekf_imu13states Pages: 1 -->
<svg width="111pt" height="237pt"
 viewBox="0.00 0.00 111.00 237.00" xmlns="http://www.w3.org/2000/svg" xmlns:xlink="http://www.w3.org/1999/xlink">
<g id="graph0" class="graph" transform="scale(1 1) rotate(0) translate(4 233)">
<title>ekf_imu13states</title>
<!-- Node1 -->
<g id="Node000001" class="node">
<title>Node1</title>
<g id="a_Node000001"><a xlink:title="This class is used to process and calculate attitude from imu sensors.">
<polygon fill="#999999" stroke="#666666" points="88,-20 0,-20 0,0 88,0 88,-20"/>
<text xml:space="preserve" text-anchor="middle" x="44" y="-6.5" font-family="Helvetica,sans-Serif" font-size="10.00">ekf_imu13states</text>
</a>
</g>
</g>
<!-- Node2 -->
<g id="Node000002" class="node">
<title>Node2</title>
<g id="a_Node000002"><a xlink:href="classekf.html" target="_top" xlink:title=" ">
<polygon fill="white" stroke="#666666" points="102.75,-84 73.25,-84 73.25,-64 102.75,-64 102.75,-84"/>
<text xml:space="preserve" text-anchor="middle" x="88" y="-70.5" font-family="Helvetica,sans-Serif" font-size="10.00">ekf</text>
</a>
</g>
</g>
<!-- Node2&#45;&gt;Node1 -->
<g id="edge1_Node000001_Node000002" class="edge">
<title>Node2&#45;&gt;Node1</title>
<g id="a_edge1_Node000001_Node000002"><a xlink:title=" ">
<path fill="none" stroke="#63b8ff" d="M74.87,-54.49C66.81,-43.14 56.85,-29.1 50.46,-20.1"/>
<polygon fill="#63b8ff" stroke="#63b8ff" points="71.8,-56.22 80.44,-62.35 77.51,-52.17 71.8,-56.22"/>
</a>
</g>
</g>
<!-- Node3 -->
<g id="Node000003" class="node">
<title>Node3</title>
<g id="a_Node000003"><a xlink:href="classdspm_1_1_mat.html" target="_top" xlink:title="Matrix.">
<polygon fill="white" stroke="#666666" points="68.25,-229 5.75,-229 5.75,-209 68.25,-209 68.25,-229"/>
<text xml:space="preserve" text-anchor="middle" x="37" y="-215.5" font-family="Helvetica,sans-Serif" font-size="10.00">dspm::Mat</text>
</a>
</g>
</g>
<!-- Node3&#45;&gt;Node1 -->
<g id="edge3_Node000001_Node000003" class="edge">
<title>Node3&#45;&gt;Node1</title>
<g id="a_edge3_Node000001_Node000003"><a xlink:title=" ">
<path fill="none" stroke="#9a32cd" stroke-dasharray="5,2" d="M33.47,-197.59C28.75,-166.9 21.79,-107.09 29.5,-57 31.51,-43.92 36.56,-29.47 40.14,-20.31"/>
<polygon fill="#9a32cd" stroke="#9a32cd" points="30,-198.06 35.07,-207.36 36.91,-196.93 30,-198.06"/>
</a>
</g>
<text xml:space="preserve" text-anchor="start" x="32.5" y="-78.5" font-family="Helvetica,sans-Serif" font-size="10.00" fill="grey">accel0</text>
<text xml:space="preserve" text-anchor="start" x="32.5" y="-62.5" font-family="Helvetica,sans-Serif" font-size="10.00" fill="grey">mag0</text>
</g>
<!-- Node3&#45;&gt;Node2 -->
<g id="edge2_Node000002_Node000003" class="edge">
<title>Node3&#45;&gt;Node2</title>
<g id="a_edge2_Node000002_Node000003"><a xlink:title=" ">
<path fill="none" stroke="#9a32cd" stroke-dasharray="5,2" d="M44.09,-198.13C55.26,-166.79 76.55,-107.1 84.71,-84.23"/>
<polygon fill="#9a32cd" stroke="#9a32cd" points="40.92,-196.6 40.85,-207.19 47.51,-198.95 40.92,-196.6"/>
</a>
</g>
<text xml:space="preserve" text-anchor="start" x="78.68" y="-178.5" font-family="Helvetica,sans-Serif" font-size="10.00" fill="grey">F</text>
<text xml:space="preserve" text-anchor="start" x="78.68" y="-162.5" font-family="Helvetica,sans-Serif" font-size="10.00" fill="grey">G</text>
<text xml:space="preserve" text-anchor="start" x="78.68" y="-146.5" font-family="Helvetica,sans-Serif" font-size="10.00" fill="grey">P</text>
<text xml:space="preserve" text-anchor="start" x="78.68" y="-130.5" font-family="Helvetica,sans-Serif" font-size="10.00" fill="grey">Q</text>
<text xml:space="preserve" text-anchor="start" x="78.68" y="-114.5" font-family="Helvetica,sans-Serif" font-size="10.00" fill="grey">X</text>
</g>
</g>
</svg>
