<?xml version="1.0" encoding="UTF-8" standalone="no"?>
<!DOCTYPE svg PUBLIC "-//W3C//DTD SVG 1.1//EN"
 "http://www.w3.org/Graphics/SVG/1.1/DTD/svg11.dtd">
<!-- Generated by graphviz version 14.1.2 (20260124.0452)
 -->
<!-- Title: ekf_imu13states::TestFull Pages: 1 -->
<!--zoomable 446 -->

<svg id="main" version="1.1" xmlns="http://www.w3.org/2000/svg" xmlns:xlink="http://www.w3.org/1999/xlink" xml:space="preserve" onload="init(evt)">

<style type="text/css"><![CDATA[
.node, .edge {opacity: 0.7;}
.node.selected, .edge.selected {opacity: 1;}
.edge:hover path { stroke: red; }
.edge:hover polygon { stroke: red; fill: red; }
]]></style>

<defs>
  <circle id="rim" cx="0" cy="0" r="7"/>
  <circle id="rim2" cx="0" cy="0" r="3.5"/>
  <g id="zoomPlus">
    <use xlink:href="#rim" fill="#404040"><set attributeName="fill" to="#808080" begin="zoomplus.mouseover" end="zoomplus.mouseout"/></use>
    <path d="M-4,0h8M0,-4v8" fill="none" stroke="white" stroke-width="1.5" pointer-events="none"/>
  </g>
  <g id="zoomMin">
    <use xlink:href="#rim" fill="#404040"><set attributeName="fill" to="#808080" begin="zoomminus.mouseover" end="zoomminus.mouseout"/></use>
    <path d="M-4,0h8" fill="none" stroke="white" stroke-width="1.5" pointer-events="none"/>
  </g>
  <g id="arrowUp" transform="translate(30 24)">
    <use xlink:href="#rim"/>
    <path pointer-events="none" fill="none" stroke="white" stroke-width="1.5" d="M0,-3.0v7 M-2.5,-0.5L0,-3.0L2.5,-0.5"/>
  </g>
  <g id="arrowRight" transform="rotate(90) translate(36 -43)">
    <use xlink:href="#rim"/>
    <path pointer-events="none" fill="none" stroke="white" stroke-width="1.5" d="M0,-3.0v7 M-2.5,-0.5L0,-3.0L2.5,-0.5"/>
  </g>
  <g id="arrowDown" transform="rotate(180) translate(-30 -48)">
    <use xlink:href="#rim"/>
    <path pointer-events="none" fill="none" stroke="white" stroke-width="1.5" d="M0,-3.0v7 M-2.5,-0.5L0,-3.0L2.5,-0.5"/>
  </g>
  <g id="arrowLeft" transform="rotate(270) translate(-36 17)">
    <use xlink:href="#rim"/>
    <path pointer-events="none" fill="none" stroke="white" stroke-width="1.5" d="M0,-3.0v7 M-2.5,-0.5L0,-3.0L2.5,-0.5"/>
  </g>
  <g id="resetDef">
    <use xlink:href="#rim2" fill="#404040"><set attributeName="fill" to="#808080" begin="reset.mouseover" end="reset.mouseout"/></use>
  </g>
</defs>
<script type="application/ecmascript">
var viewWidth = 865;
var viewHeight = 446;
var sectionId = 'dynsection-8';
</script>
<script type="application/ecmascript" xlink:href="svg.min.js"/>
<svg id="graph" class="graph">
<g id="viewport">
<title>ekf_imu13states::TestFull</title>
<!-- Node1 -->
<g id="Node000001" class="node">
<title>Node1</title>
<g id="a_Node000001"><a xlink:title=" ">
<polygon fill="#999999" stroke="#666666" points="128.5,-286 0,-286 0,-266 128.5,-266 128.5,-286"/>
<text xml:space="preserve" text-anchor="middle" x="64.25" y="-272.5" font-family="Helvetica,sans-Serif" font-size="10.00">ekf_imu13states::TestFull</text>
</a>
</g>
</g>
<!-- Node2 -->
<g id="Node000002" class="node">
<title>Node2</title>
<g id="a_Node000002"><a xlink:href="classekf.html#a6e279ffd67d217145d7891a44ea0d9e8" target="_top" xlink:title=" ">
<polygon fill="white" stroke="#666666" points="271.62,-400 198.62,-400 198.62,-380 271.62,-380 271.62,-400"/>
<text xml:space="preserve" text-anchor="middle" x="235.12" y="-386.5" font-family="Helvetica,sans-Serif" font-size="10.00">ekf::eul2rotm</text>
</a>
</g>
</g>
<!-- Node1&#45;&gt;Node2 -->
<g id="edge1_Node000001_Node000002" class="edge">
<title>Node1&#45;&gt;Node2</title>
<g id="a_edge1_Node000001_Node000002"><a xlink:title=" ">
<path fill="none" stroke="#63b8ff" d="M73.04,-286.31C88.37,-305.85 124.44,-348.33 164.5,-371 171.62,-375.03 179.64,-378.24 187.64,-380.79"/>
<polygon fill="#63b8ff" stroke="#63b8ff" points="186.41,-384.08 196.98,-383.45 188.33,-377.34 186.41,-384.08"/>
</a>
</g>
</g>
<!-- Node3 -->
<g id="Node000003" class="node">
<title>Node3</title>
<g id="a_Node000003"><a xlink:href="classdspm_1_1_mat.html#a7502c6d836d1ae05f6880620c1a832b5" target="_top" xlink:title=" ">
<polygon fill="white" stroke="#666666" points="594.25,-324 510,-324 510,-304 594.25,-304 594.25,-324"/>
<text xml:space="preserve" text-anchor="middle" x="552.12" y="-310.5" font-family="Helvetica,sans-Serif" font-size="10.00">dspm::Mat::eye</text>
</a>
</g>
</g>
<!-- Node1&#45;&gt;Node3 -->
<g id="edge2_Node000001_Node000003" class="edge">
<title>Node1&#45;&gt;Node3</title>
<g id="a_edge2_Node000001_Node000003"><a xlink:title=" ">
<path fill="none" stroke="#63b8ff" d="M128.96,-285.74C140.76,-287.33 152.99,-288.83 164.5,-290 283.42,-302.06 423.58,-308.94 498.16,-312.02"/>
<polygon fill="#63b8ff" stroke="#63b8ff" points="497.91,-315.52 508.04,-312.42 498.19,-308.52 497.91,-315.52"/>
</a>
</g>
</g>
<!-- Node6 -->
<g id="Node000006" class="node">
<title>Node6</title>
<g id="a_Node000006"><a xlink:href="classdspm_1_1_mat.html#a3b4566db0f4ad277e70c09f5e934b91e" target="_top" xlink:title=" ">
<polygon fill="white" stroke="#666666" points="451.12,-58 360.88,-58 360.88,-38 451.12,-38 451.12,-58"/>
<text xml:space="preserve" text-anchor="middle" x="406" y="-44.5" font-family="Helvetica,sans-Serif" font-size="10.00">dspm::Mat::norm</text>
</a>
</g>
</g>
<!-- Node1&#45;&gt;Node6 -->
<g id="edge5_Node000001_Node000006" class="edge">
<title>Node1&#45;&gt;Node6</title>
<g id="a_edge5_Node000001_Node000006"><a xlink:title=" ">
<path fill="none" stroke="#63b8ff" d="M69.92,-265.67C81.95,-240.19 116.44,-173.73 164.5,-137 220.03,-94.56 297.89,-70.7 349.81,-58.6"/>
<polygon fill="#63b8ff" stroke="#63b8ff" points="350.34,-62.07 359.33,-56.45 348.81,-55.24 350.34,-62.07"/>
</a>
</g>
</g>
<!-- Node7 -->
<g id="Node000007" class="node">
<title>Node7</title>
<g id="a_Node000007"><a xlink:href="classekf.html#a42ee022dba96611bf76d0d29bf964323" target="_top" xlink:title=" ">
<polygon fill="white" stroke="#666666" points="270.88,-362 199.38,-362 199.38,-342 270.88,-342 270.88,-362"/>
<text xml:space="preserve" text-anchor="middle" x="235.12" y="-348.5" font-family="Helvetica,sans-Serif" font-size="10.00">ekf::Process</text>
</a>
</g>
</g>
<!-- Node1&#45;&gt;Node7 -->
<g id="edge6_Node000001_Node000007" class="edge">
<title>Node1&#45;&gt;Node7</title>
<g id="a_edge6_Node000001_Node000007"><a xlink:title=" ">
<path fill="none" stroke="#63b8ff" d="M83.14,-286.42C102.71,-297.58 135.21,-315.36 164.5,-328 172.5,-331.45 181.17,-334.77 189.6,-337.77"/>
<polygon fill="#63b8ff" stroke="#63b8ff" points="188.42,-341.07 199.02,-341.03 190.71,-334.45 188.42,-341.07"/>
</a>
</g>
</g>
<!-- Node9 -->
<g id="Node000009" class="node">
<title>Node9</title>
<g id="a_Node000009"><a xlink:href="classdspm_1_1_mat.html#af1013adcb6d601fba7bf788fd52d80b4" target="_top" xlink:title=" ">
<polygon fill="white" stroke="#666666" points="587.88,-286 516.38,-286 516.38,-266 587.88,-266 587.88,-286"/>
<text xml:space="preserve" text-anchor="middle" x="552.12" y="-272.5" font-family="Helvetica,sans-Serif" font-size="10.00">dspm::Mat::t</text>
</a>
</g>
</g>
<!-- Node1&#45;&gt;Node9 -->
<g id="edge17_Node000001_Node000009" class="edge">
<title>Node1&#45;&gt;Node9</title>
<g id="a_edge17_Node000001_Node000009"><a xlink:title=" ">
<path fill="none" stroke="#63b8ff" d="M128.77,-276C227.88,-276 417,-276 504.54,-276"/>
<polygon fill="#63b8ff" stroke="#63b8ff" points="504.43,-279.5 514.43,-276 504.43,-272.5 504.43,-279.5"/>
</a>
</g>
</g>
<!-- Node13 -->
<g id="Node000013" class="node">
<title>Node13</title>
<g id="a_Node000013"><a xlink:href="classekf.html#a148bfefd351013bb66d84b160ce31ee3" target="_top" xlink:title=" ">
<polygon fill="white" stroke="#666666" points="274.62,-58 195.62,-58 195.62,-38 274.62,-38 274.62,-58"/>
<text xml:space="preserve" text-anchor="middle" x="235.12" y="-44.5" font-family="Helvetica,sans-Serif" font-size="10.00">ekf::rotm2quat</text>
</a>
</g>
</g>
<!-- Node1&#45;&gt;Node13 -->
<g id="edge14_Node000001_Node000013" class="edge">
<title>Node1&#45;&gt;Node13</title>
<g id="a_edge14_Node000001_Node000013"><a xlink:title=" ">
<path fill="none" stroke="#63b8ff" d="M68.36,-265.81C78.07,-235.42 110.43,-144.04 164.5,-88 174.08,-78.07 186.67,-69.84 198.5,-63.47"/>
<polygon fill="#63b8ff" stroke="#63b8ff" points="199.91,-66.68 207.25,-59.05 196.75,-60.44 199.91,-66.68"/>
</a>
</g>
</g>
<!-- Node15 -->
<g id="Node000015" class="node">
<title>Node15</title>
<g id="a_Node000015"><a xlink:href="classekf__imu13states.html#a84709d79f66591f90fea7c532d73ba14" target="_top" xlink:title=" ">
<polygon fill="white" stroke="#666666" points="305.75,-178 164.5,-178 164.5,-146 305.75,-146 305.75,-178"/>
<text xml:space="preserve" text-anchor="start" x="172.5" y="-164.5" font-family="Helvetica,sans-Serif" font-size="10.00">ekf_imu13states::UpdateRef</text>
<text xml:space="preserve" text-anchor="middle" x="235.12" y="-152.5" font-family="Helvetica,sans-Serif" font-size="10.00">Measurement</text>
</a>
</g>
</g>
<!-- Node1&#45;&gt;Node15 -->
<g id="edge18_Node000001_Node000015" class="edge">
<title>Node1&#45;&gt;Node15</title>
<g id="a_edge18_Node000001_Node000015"><a xlink:title=" ">
<path fill="none" stroke="#63b8ff" d="M80.53,-265.68C107.51,-247.47 164.17,-209.22 200.62,-184.62"/>
<polygon fill="#63b8ff" stroke="#63b8ff" points="202.28,-187.72 208.61,-179.22 198.37,-181.92 202.28,-187.72"/>
</a>
</g>
</g>
<!-- Node4 -->
<g id="Node000004" class="node">
<title>Node4</title>
<g id="a_Node000004"><a xlink:href="classdspm_1_1_mat.html#a5eb6987452e618ba8d638a6773a074df" target="_top" xlink:title=" ">
<polygon fill="white" stroke="#666666" points="719,-286 634,-286 634,-266 719,-266 719,-286"/>
<text xml:space="preserve" text-anchor="middle" x="676.5" y="-272.5" font-family="Helvetica,sans-Serif" font-size="10.00">dspm::Mat::Mat</text>
</a>
</g>
</g>
<!-- Node3&#45;&gt;Node4 -->
<g id="edge3_Node000003_Node000004" class="edge">
<title>Node3&#45;&gt;Node4</title>
<g id="a_edge3_Node000003_Node000004"><a xlink:title=" ">
<path fill="none" stroke="#63b8ff" d="M586.89,-303.52C600.53,-299.28 616.47,-294.33 631.03,-289.81"/>
<polygon fill="#63b8ff" stroke="#63b8ff" points="631.89,-293.21 640.4,-286.9 629.81,-286.52 631.89,-293.21"/>
</a>
</g>
</g>
<!-- Node5 -->
<g id="Node000005" class="node">
<title>Node5</title>
<g id="a_Node000005"><a xlink:href="classdspm_1_1_mat.html#aa82f099abe2da9662fd06e72056df323" target="_top" xlink:title=" ">
<polygon fill="white" stroke="#666666" points="857.25,-286 755,-286 755,-266 857.25,-266 857.25,-286"/>
<text xml:space="preserve" text-anchor="middle" x="806.12" y="-272.5" font-family="Helvetica,sans-Serif" font-size="10.00">dspm::Mat::allocate</text>
</a>
</g>
</g>
<!-- Node4&#45;&gt;Node5 -->
<g id="edge4_Node000004_Node000005" class="edge">
<title>Node4&#45;&gt;Node5</title>
<g id="a_edge4_Node000004_Node000005"><a xlink:title=" ">
<path fill="none" stroke="#63b8ff" d="M719.29,-276C727,-276 735.19,-276 743.35,-276"/>
<polygon fill="#63b8ff" stroke="#63b8ff" points="743.27,-279.5 753.27,-276 743.27,-272.5 743.27,-279.5"/>
</a>
</g>
</g>
<!-- Node8 -->
<g id="Node000008" class="node">
<title>Node8</title>
<g id="a_Node000008"><a xlink:href="classekf.html#a6588ad6c3eae0d1a177b35ea75b5a4f3" target="_top" xlink:title=" ">
<polygon fill="white" stroke="#666666" points="470.25,-362 341.75,-362 341.75,-342 470.25,-342 470.25,-362"/>
<text xml:space="preserve" text-anchor="middle" x="406" y="-348.5" font-family="Helvetica,sans-Serif" font-size="10.00">ekf::CovariancePrediction</text>
</a>
</g>
</g>
<!-- Node7&#45;&gt;Node8 -->
<g id="edge7_Node000007_Node000008" class="edge">
<title>Node7&#45;&gt;Node8</title>
<g id="a_edge7_Node000007_Node000008"><a xlink:title=" ">
<path fill="none" stroke="#63b8ff" d="M271.12,-352C288.23,-352 309.54,-352 330.08,-352"/>
<polygon fill="#63b8ff" stroke="#63b8ff" points="329.87,-355.5 339.87,-352 329.87,-348.5 329.87,-355.5"/>
</a>
</g>
</g>
<!-- Node10 -->
<g id="Node000010" class="node">
<title>Node10</title>
<g id="a_Node000010"><a xlink:href="classekf.html#a21cccadc5b6e3150a55b8964526e206f" target="_top" xlink:title=" ">
<polygon fill="white" stroke="#666666" points="450,-400 362,-400 362,-380 450,-380 450,-400"/>
<text xml:space="preserve" text-anchor="middle" x="406" y="-386.5" font-family="Helvetica,sans-Serif" font-size="10.00">ekf::LinearizeFG</text>
</a>
</g>
</g>
<!-- Node7&#45;&gt;Node10 -->
<g id="edge11_Node000007_Node000010" class="edge">
<title>Node7&#45;&gt;Node10</title>
<g id="a_edge11_Node000007_Node000010"><a xlink:title=" ">
<path fill="none" stroke="#63b8ff" d="M271.12,-359.87C294.11,-365.05 324.66,-371.92 350.76,-377.8"/>
<polygon fill="#63b8ff" stroke="#63b8ff" points="349.65,-381.13 360.17,-379.91 351.18,-374.3 349.65,-381.13"/>
</a>
</g>
</g>
<!-- Node11 -->
<g id="Node000011" class="node">
<title>Node11</title>
<g id="a_Node000011"><a xlink:href="classekf.html#a8f28807c86b11b95cc95bd514e65ea61" target="_top" xlink:title=" ">
<polygon fill="white" stroke="#666666" points="449.62,-438 362.38,-438 362.38,-418 449.62,-418 449.62,-438"/>
<text xml:space="preserve" text-anchor="middle" x="406" y="-424.5" font-family="Helvetica,sans-Serif" font-size="10.00">ekf::RungeKutta</text>
</a>
</g>
</g>
<!-- Node7&#45;&gt;Node11 -->
<g id="edge12_Node000007_Node000011" class="edge">
<title>Node7&#45;&gt;Node11</title>
<g id="a_edge12_Node000007_Node000011"><a xlink:title=" ">
<path fill="none" stroke="#63b8ff" d="M271.27,-357.66C282.8,-360.52 295.32,-364.76 305.75,-371 325.71,-382.95 321.94,-396.8 341.75,-409 344.87,-410.92 348.21,-412.66 351.64,-414.24"/>
<polygon fill="#63b8ff" stroke="#63b8ff" points="350.19,-417.42 360.77,-417.9 352.79,-410.93 350.19,-417.42"/>
</a>
</g>
</g>
<!-- Node8&#45;&gt;Node3 -->
<g id="edge8_Node000008_Node000003" class="edge">
<title>Node8&#45;&gt;Node3</title>
<g id="a_edge8_Node000008_Node000003"><a xlink:title=" ">
<path fill="none" stroke="#63b8ff" d="M446.76,-341.52C463.38,-337.13 482.89,-331.99 500.52,-327.34"/>
<polygon fill="#63b8ff" stroke="#63b8ff" points="501.25,-330.77 510.03,-324.84 499.47,-324 501.25,-330.77"/>
</a>
</g>
</g>
<!-- Node8&#45;&gt;Node9 -->
<g id="edge9_Node000008_Node000009" class="edge">
<title>Node8&#45;&gt;Node9</title>
<g id="a_edge9_Node000008_Node000009"><a xlink:title=" ">
<path fill="none" stroke="#63b8ff" d="M423.52,-341.69C442.95,-329.76 476.35,-309.85 506.25,-295 509,-293.64 511.87,-292.28 514.77,-290.95"/>
<polygon fill="#63b8ff" stroke="#63b8ff" points="516.13,-294.17 523.87,-286.94 513.31,-287.77 516.13,-294.17"/>
</a>
</g>
</g>
<!-- Node9&#45;&gt;Node4 -->
<g id="edge10_Node000009_Node000004" class="edge">
<title>Node9&#45;&gt;Node4</title>
<g id="a_edge10_Node000009_Node000004"><a xlink:title=" ">
<path fill="none" stroke="#63b8ff" d="M588.19,-276C598.89,-276 610.91,-276 622.52,-276"/>
<polygon fill="#63b8ff" stroke="#63b8ff" points="622.42,-279.5 632.42,-276 622.42,-272.5 622.42,-279.5"/>
</a>
</g>
</g>
<!-- Node12 -->
<g id="Node000012" class="node">
<title>Node12</title>
<g id="a_Node000012"><a xlink:href="classekf.html#a09a763aeb193404116274d2885c42172" target="_top" xlink:title=" ">
<polygon fill="white" stroke="#666666" points="591.62,-438 512.62,-438 512.62,-418 591.62,-418 591.62,-438"/>
<text xml:space="preserve" text-anchor="middle" x="552.12" y="-424.5" font-family="Helvetica,sans-Serif" font-size="10.00">ekf::StateXdot</text>
</a>
</g>
</g>
<!-- Node11&#45;&gt;Node12 -->
<g id="edge13_Node000011_Node000012" class="edge">
<title>Node11&#45;&gt;Node12</title>
<g id="a_edge13_Node000011_Node000012"><a xlink:title=" ">
<path fill="none" stroke="#63b8ff" d="M449.85,-428C466.03,-428 484.58,-428 501.34,-428"/>
<polygon fill="#63b8ff" stroke="#63b8ff" points="501.1,-431.5 511.1,-428 501.1,-424.5 501.1,-431.5"/>
</a>
</g>
</g>
<!-- Node13&#45;&gt;Node6 -->
<g id="edge15_Node000013_Node000006" class="edge">
<title>Node13&#45;&gt;Node6</title>
<g id="a_edge15_Node000013_Node000006"><a xlink:title=" ">
<path fill="none" stroke="#63b8ff" d="M274.87,-48C296.89,-48 324.85,-48 349.21,-48"/>
<polygon fill="#63b8ff" stroke="#63b8ff" points="348.96,-51.5 358.96,-48 348.96,-44.5 348.96,-51.5"/>
</a>
</g>
</g>
<!-- Node14 -->
<g id="Node000014" class="node">
<title>Node14</title>
<g id="a_Node000014"><a xlink:href="ekf_8cpp.html#aeb6423a349aa1b3d900099b28eecc984" target="_top" xlink:title=" ">
<polygon fill="white" stroke="#666666" points="426.38,-20 385.62,-20 385.62,0 426.38,0 426.38,-20"/>
<text xml:space="preserve" text-anchor="middle" x="406" y="-6.5" font-family="Helvetica,sans-Serif" font-size="10.00">SIGN</text>
</a>
</g>
</g>
<!-- Node13&#45;&gt;Node14 -->
<g id="edge16_Node000013_Node000014" class="edge">
<title>Node13&#45;&gt;Node14</title>
<g id="a_edge16_Node000013_Node000014"><a xlink:title=" ">
<path fill="none" stroke="#63b8ff" d="M274.87,-39.28C305.03,-32.49 346.33,-23.2 374.24,-16.92"/>
<polygon fill="#63b8ff" stroke="#63b8ff" points="374.86,-20.37 383.84,-14.76 373.32,-13.54 374.86,-20.37"/>
</a>
</g>
</g>
<!-- Node15&#45;&gt;Node6 -->
<g id="edge22_Node000015_Node000006" class="edge">
<title>Node15&#45;&gt;Node6</title>
<g id="a_edge22_Node000015_Node000006"><a xlink:title=" ">
<path fill="none" stroke="#63b8ff" d="M264.97,-145.67C278.08,-137.58 293.38,-127.17 305.75,-116 324.5,-99.07 321.24,-86.76 341.75,-72 346.64,-68.48 352.1,-65.41 357.72,-62.75"/>
<polygon fill="#63b8ff" stroke="#63b8ff" points="358.69,-66.14 366.5,-58.99 355.93,-59.71 358.69,-66.14"/>
</a>
</g>
</g>
<!-- Node15&#45;&gt;Node9 -->
<g id="edge24_Node000015_Node000009" class="edge">
<title>Node15&#45;&gt;Node9</title>
<g id="a_edge24_Node000015_Node000009"><a xlink:title=" ">
<path fill="none" stroke="#63b8ff" d="M306.03,-176.01C363.94,-188.16 441.26,-205.83 470.25,-219 492.53,-229.12 515.05,-245.62 530.65,-258.28"/>
<polygon fill="#63b8ff" stroke="#63b8ff" points="528.32,-260.89 538.24,-264.59 532.8,-255.51 528.32,-260.89"/>
</a>
</g>
</g>
<!-- Node16 -->
<g id="Node000016" class="node">
<title>Node16</title>
<g id="a_Node000016"><a xlink:href="classdspm_1_1_mat.html#a9b11a8f5022e6c54b212bf9af880b670" target="_top" xlink:title=" ">
<polygon fill="white" stroke="#666666" points="598,-172 506.25,-172 506.25,-152 598,-152 598,-172"/>
<text xml:space="preserve" text-anchor="middle" x="552.12" y="-158.5" font-family="Helvetica,sans-Serif" font-size="10.00">dspm::Mat::Copy</text>
</a>
</g>
</g>
<!-- Node15&#45;&gt;Node16 -->
<g id="edge19_Node000015_Node000016" class="edge">
<title>Node15&#45;&gt;Node16</title>
<g id="a_edge19_Node000015_Node000016"><a xlink:title=" ">
<path fill="none" stroke="#63b8ff" d="M258.65,-145.54C279.15,-131.64 310.84,-112.81 341.75,-105 397.12,-91.01 415.81,-87.74 470.25,-105 494.61,-112.72 517.98,-130.73 533.27,-144.45"/>
<polygon fill="#63b8ff" stroke="#63b8ff" points="530.49,-146.63 540.19,-150.89 535.26,-141.51 530.49,-146.63"/>
</a>
</g>
</g>
<!-- Node17 -->
<g id="Node000017" class="node">
<title>Node17</title>
<g id="a_Node000017"><a xlink:href="classekf.html#a3affa0048058ee2485dcb28d718be907" target="_top" xlink:title=" ">
<polygon fill="white" stroke="#666666" points="443.62,-172 368.38,-172 368.38,-152 443.62,-152 443.62,-172"/>
<text xml:space="preserve" text-anchor="middle" x="406" y="-158.5" font-family="Helvetica,sans-Serif" font-size="10.00">ekf::dFdq_inv</text>
</a>
</g>
</g>
<!-- Node15&#45;&gt;Node17 -->
<g id="edge21_Node000015_Node000017" class="edge">
<title>Node15&#45;&gt;Node17</title>
<g id="a_edge21_Node000015_Node000017"><a xlink:title=" ">
<path fill="none" stroke="#63b8ff" d="M305.79,-162C323.04,-162 341.15,-162 357.1,-162"/>
<polygon fill="#63b8ff" stroke="#63b8ff" points="356.77,-165.5 366.77,-162 356.77,-158.5 356.77,-165.5"/>
</a>
</g>
</g>
<!-- Node18 -->
<g id="Node000018" class="node">
<title>Node18</title>
<g id="a_Node000018"><a xlink:href="classekf.html#a535f152864f2732a9888d4f959bd21fa" target="_top" xlink:title=" ">
<polygon fill="white" stroke="#666666" points="445.5,-134 366.5,-134 366.5,-114 445.5,-114 445.5,-134"/>
<text xml:space="preserve" text-anchor="middle" x="406" y="-120.5" font-family="Helvetica,sans-Serif" font-size="10.00">ekf::quat2rotm</text>
</a>
</g>
</g>
<!-- Node15&#45;&gt;Node18 -->
<g id="edge23_Node000015_Node000018" class="edge">
<title>Node15&#45;&gt;Node18</title>
<g id="a_edge23_Node000015_Node000018"><a xlink:title=" ">
<path fill="none" stroke="#63b8ff" d="M305.79,-146.32C322.46,-142.57 339.92,-138.64 355.47,-135.15"/>
<polygon fill="#63b8ff" stroke="#63b8ff" points="355.94,-138.63 364.93,-133.02 354.41,-131.8 355.94,-138.63"/>
</a>
</g>
</g>
<!-- Node19 -->
<g id="Node000019" class="node">
<title>Node19</title>
<g id="a_Node000019"><a xlink:href="classekf.html#a7df41e0ecb82824766219aa5f9b0baef" target="_top" xlink:title=" ">
<polygon fill="white" stroke="#666666" points="439.5,-248 372.5,-248 372.5,-228 439.5,-228 439.5,-248"/>
<text xml:space="preserve" text-anchor="middle" x="406" y="-234.5" font-family="Helvetica,sans-Serif" font-size="10.00">ekf::Update</text>
</a>
</g>
</g>
<!-- Node15&#45;&gt;Node19 -->
<g id="edge25_Node000015_Node000019" class="edge">
<title>Node15&#45;&gt;Node19</title>
<g id="a_edge25_Node000015_Node000019"><a xlink:title=" ">
<path fill="none" stroke="#63b8ff" d="M267.65,-178.5C288.45,-189.14 316.44,-203 341.75,-214 349.22,-217.25 357.28,-220.49 365.07,-223.51"/>
<polygon fill="#63b8ff" stroke="#63b8ff" points="363.79,-226.77 374.38,-227.04 366.28,-220.22 363.79,-226.77"/>
</a>
</g>
</g>
<!-- Node16&#45;&gt;Node4 -->
<g id="edge20_Node000016_Node000004" class="edge">
<title>Node16&#45;&gt;Node4</title>
<g id="a_edge20_Node000016_Node000004"><a xlink:title=" ">
<path fill="none" stroke="#63b8ff" d="M563.98,-172.12C584.71,-191.42 630.13,-233.74 656.16,-257.99"/>
<polygon fill="#63b8ff" stroke="#63b8ff" points="653.68,-260.46 663.38,-264.71 658.45,-255.33 653.68,-260.46"/>
</a>
</g>
</g>
</g>
</svg>

<g id="navigator" transform="translate(0 0)" fill="#404254">
  <rect fill="#f2f5e9" fill-opacity="0.5" stroke="#606060" stroke-width=".5" x="0" y="0" width="60" height="60"/>
  <use id="zoomplus" xlink:href="#zoomPlus" x="17" y="9" onmousedown="handleZoom(evt,'in')"/>
  <use id="zoomminus" xlink:href="#zoomMin" x="42" y="9" onmousedown="handleZoom(evt,'out')"/>
  <use id="reset" xlink:href="#resetDef" x="30" y="36" onmousedown="handleReset()"/>
   <use id="arrowup" xlink:href="#arrowUp" x="0" y="0" onmousedown="handlePan(0,-1)"/>
  <use id="arrowright" xlink:href="#arrowRight" x="0" y="0" onmousedown="handlePan(1,0)"/>
  <use id="arrowdown" xlink:href="#arrowDown" x="0" y="0" onmousedown="handlePan(0,1)"/>
  <use id="arrowleft" xlink:href="#arrowLeft" x="0" y="0" onmousedown="handlePan(-1,0)"/>
</g>
<svg viewBox="0 0 15 15" width="100%" height="30px" preserveAspectRatio="xMaxYMin meet">
 <g id="arrow_out" transform="scale(0.3 0.3)">
  <a xlink:href="classekf__imu13states_a7f315abd38007e57247edc0967d688f7_cgraph_org.svg" target="_base">
   <rect id="button" ry="5" rx="5" y="6" x="6" height="38" width="38"
        fill="#f2f5e9" fill-opacity="0.5" stroke="#606060" stroke-width="1.0"/>
   <path id="arrow"
     d="M 11.500037,31.436501 C 11.940474,20.09759 22.043105,11.32322 32.158766,21.979434 L 37.068811,17.246167 C 37.068811,17.246167 37.088388,32 37.088388,32 L 22.160133,31.978069 C 22.160133,31.978069 26.997745,27.140456 26.997745,27.140456 C 18.528582,18.264221 13.291696,25.230495 11.500037,31.436501 z"
     style="fill:#404040;"/>
  </a>
 </g>
</svg>

<style type='text/css'>
<![CDATA[
[data-mouse-over-selected='false'] { opacity: 0.7; }
[data-mouse-over-selected='true']  { opacity: 1.0; }
]]>
</style>
<script type="application/ecmascript"><![CDATA[
document.addEventListener('DOMContentLoaded', (event) => {
  highlightEdges();
  highlightAdjacentNodes();
});
]]></script>
</svg>
