<?xml version="1.0" encoding="UTF-8" standalone="no"?>
<!DOCTYPE svg PUBLIC "-//W3C//DTD SVG 1.1//EN"
 "http://www.w3.org/Graphics/SVG/1.1/DTD/svg11.dtd">
<!-- Generated by graphviz version 14.1.2 (20260124.0452)
 -->
<!-- Title: ekf::SkewSym4x4 Pages: 1 -->
<svg width="436pt" height="66pt"
 viewBox="0.00 0.00 436.00 66.00" xmlns="http://www.w3.org/2000/svg" xmlns:xlink="http://www.w3.org/1999/xlink">
<g id="graph0" class="graph" transform="scale(1 1) rotate(0) translate(4 62)">
<title>ekf::SkewSym4x4</title>
<!-- Node1 -->
<g id="Node000001" class="node">
<title>Node1</title>
<g id="a_Node000001"><a xlink:title=" ">
<polygon fill="#999999" stroke="#666666" points="427.5,-39 331.25,-39 331.25,-19 427.5,-19 427.5,-39"/>
<text xml:space="preserve" text-anchor="middle" x="379.38" y="-25.5" font-family="Helvetica,sans-Serif" font-size="10.00">ekf::SkewSym4x4</text>
</a>
</g>
</g>
<!-- Node2 -->
<g id="Node000002" class="node">
<title>Node2</title>
<g id="a_Node000002"><a xlink:href="classekf__imu13states.html#aa45e9518c23a0fb627e9018d75195008" target="_top" xlink:title=" ">
<polygon fill="white" stroke="#666666" points="295.25,-58 148.75,-58 148.75,-38 295.25,-38 295.25,-58"/>
<text xml:space="preserve" text-anchor="middle" x="222" y="-44.5" font-family="Helvetica,sans-Serif" font-size="10.00">ekf_imu13states::LinearizeFG</text>
</a>
</g>
</g>
<!-- Node1&#45;&gt;Node2 -->
<g id="edge1_Node000001_Node000002" class="edge">
<title>Node1&#45;&gt;Node2</title>
<g id="a_edge1_Node000001_Node000002"><a xlink:title=" ">
<path fill="none" stroke="#63b8ff" d="M319.65,-36.18C311.81,-37.14 303.69,-38.13 295.64,-39.12"/>
<polygon fill="#63b8ff" stroke="#63b8ff" points="319.91,-39.68 329.41,-34.99 319.06,-32.73 319.91,-39.68"/>
</a>
</g>
</g>
<!-- Node3 -->
<g id="Node000003" class="node">
<title>Node3</title>
<g id="a_Node000003"><a xlink:href="classekf__imu13states.html#af497d6d258b35c5e602f9816cd515267" target="_top" xlink:title=" ">
<polygon fill="white" stroke="#666666" points="290.75,-20 153.25,-20 153.25,0 290.75,0 290.75,-20"/>
<text xml:space="preserve" text-anchor="middle" x="222" y="-6.5" font-family="Helvetica,sans-Serif" font-size="10.00">ekf_imu13states::StateXdot</text>
</a>
</g>
</g>
<!-- Node1&#45;&gt;Node3 -->
<g id="edge2_Node000001_Node000003" class="edge">
<title>Node1&#45;&gt;Node3</title>
<g id="a_edge2_Node000001_Node000003"><a xlink:title=" ">
<path fill="none" stroke="#63b8ff" d="M319.73,-21.83C310.36,-20.68 300.61,-19.49 291.05,-18.32"/>
<polygon fill="#63b8ff" stroke="#63b8ff" points="319.06,-25.27 329.41,-23.01 319.91,-18.32 319.06,-25.27"/>
</a>
</g>
</g>
<!-- Node4 -->
<g id="Node000004" class="node">
<title>Node4</title>
<g id="a_Node000004"><a xlink:href="classekf__imu13states.html#a78292836f30dfd6439ee3bdda30ed20f" target="_top" xlink:title=" ">
<polygon fill="white" stroke="#666666" points="112.75,-20 0,-20 0,0 112.75,0 112.75,-20"/>
<text xml:space="preserve" text-anchor="middle" x="56.38" y="-6.5" font-family="Helvetica,sans-Serif" font-size="10.00">ekf_imu13states::Test</text>
</a>
</g>
</g>
<!-- Node3&#45;&gt;Node4 -->
<g id="edge3_Node000003_Node000004" class="edge">
<title>Node3&#45;&gt;Node4</title>
<g id="a_edge3_Node000003_Node000004"><a xlink:title=" ">
<path fill="none" stroke="#63b8ff" d="M141.76,-10C132.11,-10 122.41,-10 113.2,-10"/>
<polygon fill="#63b8ff" stroke="#63b8ff" points="141.52,-13.5 151.52,-10 141.52,-6.5 141.52,-13.5"/>
</a>
</g>
</g>
</g>
</svg>
