<?xml version="1.0" encoding="UTF-8" standalone="no"?>
<!DOCTYPE svg PUBLIC "-//W3C//DTD SVG 1.1//EN"
 "http://www.w3.org/Graphics/SVG/1.1/DTD/svg11.dtd">
<!-- Generated by graphviz version 14.1.2 (20260124.0452)
 -->
<!-- Title: dspm::Mat::augment Pages: 1 -->
<svg width="359pt" height="66pt"
 viewBox="0.00 0.00 359.00 66.00" xmlns="http://www.w3.org/2000/svg" xmlns:xlink="http://www.w3.org/1999/xlink">
<g id="graph0" class="graph" transform="scale(1 1) rotate(0) translate(4 62)">
<title>dspm::Mat::augment</title>
<!-- Node1 -->
<g id="Node000001" class="node">
<title>Node1</title>
<g id="a_Node000001"><a xlink:title="Augmented matrices.">
<polygon fill="#999999" stroke="#666666" points="351,-39 245,-39 245,-19 351,-19 351,-39"/>
<text xml:space="preserve" text-anchor="middle" x="298" y="-25.5" font-family="Helvetica,sans-Serif" font-size="10.00">dspm::Mat::augment</text>
</a>
</g>
</g>
<!-- Node2 -->
<g id="Node000002" class="node">
<title>Node2</title>
<g id="a_Node000002"><a xlink:href="classdspm_1_1_mat.html#a3d8be6dbfbc64fa98f08ef9ce8860a12" target="_top" xlink:title=" ">
<polygon fill="white" stroke="#666666" points="207.12,-58 120.62,-58 120.62,-38 207.12,-38 207.12,-58"/>
<text xml:space="preserve" text-anchor="middle" x="163.88" y="-44.5" font-family="Helvetica,sans-Serif" font-size="10.00">dspm::Mat::pinv</text>
</a>
</g>
</g>
<!-- Node1&#45;&gt;Node2 -->
<g id="edge1_Node000001_Node000002" class="edge">
<title>Node1&#45;&gt;Node2</title>
<g id="a_edge1_Node000001_Node000002"><a xlink:title=" ">
<path fill="none" stroke="#63b8ff" d="M233.6,-38.12C224.71,-39.4 215.75,-40.68 207.37,-41.89"/>
<polygon fill="#63b8ff" stroke="#63b8ff" points="233.88,-41.61 243.28,-36.72 232.89,-34.68 233.88,-41.61"/>
</a>
</g>
</g>
<!-- Node4 -->
<g id="Node000004" class="node">
<title>Node4</title>
<g id="a_Node000004"><a xlink:href="classdspm_1_1_mat.html#af10a9ed71cd84b42c44a035e71e40132" target="_top" xlink:title="Solve the matrix.">
<polygon fill="white" stroke="#666666" points="209,-20 118.75,-20 118.75,0 209,0 209,-20"/>
<text xml:space="preserve" text-anchor="middle" x="163.88" y="-6.5" font-family="Helvetica,sans-Serif" font-size="10.00">dspm::Mat::roots</text>
</a>
</g>
</g>
<!-- Node1&#45;&gt;Node4 -->
<g id="edge3_Node000001_Node000004" class="edge">
<title>Node1&#45;&gt;Node4</title>
<g id="a_edge3_Node000001_Node000004"><a xlink:title=" ">
<path fill="none" stroke="#63b8ff" d="M233.42,-19.86C225.32,-18.69 217.17,-17.52 209.46,-16.41"/>
<polygon fill="#63b8ff" stroke="#63b8ff" points="232.89,-23.32 243.28,-21.28 233.88,-16.39 232.89,-23.32"/>
</a>
</g>
</g>
<!-- Node3 -->
<g id="Node000003" class="node">
<title>Node3</title>
<g id="a_Node000003"><a xlink:href="classekf.html#abd6f35d1ea69828aa0f757762fac9498" target="_top" xlink:title=" ">
<polygon fill="white" stroke="#666666" points="82.75,-58 0,-58 0,-38 82.75,-38 82.75,-58"/>
<text xml:space="preserve" text-anchor="middle" x="41.38" y="-44.5" font-family="Helvetica,sans-Serif" font-size="10.00">ekf::UpdateRef</text>
</a>
</g>
</g>
<!-- Node2&#45;&gt;Node3 -->
<g id="edge2_Node000002_Node000003" class="edge">
<title>Node2&#45;&gt;Node3</title>
<g id="a_edge2_Node000002_Node000003"><a xlink:title=" ">
<path fill="none" stroke="#63b8ff" d="M109.01,-48C100.22,-48 91.25,-48 82.86,-48"/>
<polygon fill="#63b8ff" stroke="#63b8ff" points="108.88,-51.5 118.88,-48 108.88,-44.5 108.88,-51.5"/>
</a>
</g>
</g>
</g>
</svg>
