<?xml version="1.0" encoding="UTF-8" standalone="no"?>
<!DOCTYPE svg PUBLIC "-//W3C//DTD SVG 1.1//EN"
 "http://www.w3.org/Graphics/SVG/1.1/DTD/svg11.dtd">
<!-- Generated by graphviz version 14.1.2 (20260124.0452)
 -->
<!-- Title: convert_to_rgb Pages: 1 -->
<svg width="364pt" height="28pt"
 viewBox="0.00 0.00 364.00 28.00" xmlns="http://www.w3.org/2000/svg" xmlns:xlink="http://www.w3.org/1999/xlink">
<g id="graph0" class="graph" transform="scale(1 1) rotate(0) translate(4 24)">
<title>convert_to_rgb</title>
<!-- Node1 -->
<g id="Node000001" class="node">
<title>Node1</title>
<g id="a_Node000001"><a xlink:title=" ">
<polygon fill="#999999" stroke="#666666" points="356.25,-20 275.75,-20 275.75,0 356.25,0 356.25,-20"/>
<text xml:space="preserve" text-anchor="middle" x="316" y="-6.5" font-family="Helvetica,sans-Serif" font-size="10.00">convert_to_rgb</text>
</a>
</g>
</g>
<!-- Node2 -->
<g id="Node000002" class="node">
<title>Node2</title>
<g id="a_Node000002"><a xlink:href="components_2espressif____esp-dsp_2external__examples_2b00f000e_2applications_2spectrum__box__lite_2main_2main_8c.html#aa8864347344fab858003e41128dbbc12" target="_top" xlink:title=" ">
<polygon fill="white" stroke="#666666" points="239.75,-20 138.25,-20 138.25,0 239.75,0 239.75,-20"/>
<text xml:space="preserve" text-anchor="middle" x="189" y="-6.5" font-family="Helvetica,sans-Serif" font-size="10.00">spectrum2d_picture</text>
</a>
</g>
</g>
<!-- Node1&#45;&gt;Node2 -->
<g id="edge1_Node000001_Node000002" class="edge">
<title>Node1&#45;&gt;Node2</title>
<g id="a_edge1_Node000001_Node000002"><a xlink:title=" ">
<path fill="none" stroke="#63b8ff" d="M264.01,-10C256.04,-10 247.8,-10 239.85,-10"/>
<polygon fill="#63b8ff" stroke="#63b8ff" points="263.94,-13.5 273.94,-10 263.94,-6.5 263.94,-13.5"/>
</a>
</g>
</g>
<!-- Node3 -->
<g id="Node000003" class="node">
<title>Node3</title>
<g id="a_Node000003"><a xlink:href="components_2espressif____esp-dsp_2external__examples_2b00f000e_2applications_2spectrum__box__lite_2main_2main_8c.html#a8a38eae9043f070fbd482ffa18f2fa22" target="_top" xlink:title=" ">
<polygon fill="white" stroke="#666666" points="102.25,-20 0,-20 0,0 102.25,0 102.25,-20"/>
<text xml:space="preserve" text-anchor="middle" x="51.12" y="-6.5" font-family="Helvetica,sans-Serif" font-size="10.00">image_display_task</text>
</a>
</g>
</g>
<!-- Node2&#45;&gt;Node3 -->
<g id="edge2_Node000002_Node000003" class="edge">
<title>Node2&#45;&gt;Node3</title>
<g id="a_edge2_Node000002_Node000003"><a xlink:title=" ">
<path fill="none" stroke="#63b8ff" d="M126.3,-10C118.36,-10 110.31,-10 102.58,-10"/>
<polygon fill="#63b8ff" stroke="#63b8ff" points="126.28,-13.5 136.28,-10 126.28,-6.5 126.28,-13.5"/>
</a>
</g>
</g>
</g>
</svg>
