<?xml version="1.0" encoding="UTF-8" standalone="no"?>
<!DOCTYPE svg PUBLIC "-//W3C//DTD SVG 1.1//EN"
 "http://www.w3.org/Graphics/SVG/1.1/DTD/svg11.dtd">
<!-- Generated by graphviz version 14.1.2 (20260124.0452)
 -->
<!-- Title: app_main Pages: 1 -->
<!--zoomable 268 -->

<svg id="main" version="1.1" xmlns="http://www.w3.org/2000/svg" xmlns:xlink="http://www.w3.org/1999/xlink" xml:space="preserve" onload="init(evt)">

<style type="text/css"><![CDATA[
.node, .edge {opacity: 0.7;}
.node.selected, .edge.selected {opacity: 1;}
.edge:hover path { stroke: red; }
.edge:hover polygon { stroke: red; fill: red; }
]]></style>

<defs>
  <circle id="rim" cx="0" cy="0" r="7"/>
  <circle id="rim2" cx="0" cy="0" r="3.5"/>
  <g id="zoomPlus">
    <use xlink:href="#rim" fill="#404040"><set attributeName="fill" to="#808080" begin="zoomplus.mouseover" end="zoomplus.mouseout"/></use>
    <path d="M-4,0h8M0,-4v8" fill="none" stroke="white" stroke-width="1.5" pointer-events="none"/>
  </g>
  <g id="zoomMin">
    <use xlink:href="#rim" fill="#404040"><set attributeName="fill" to="#808080" begin="zoomminus.mouseover" end="zoomminus.mouseout"/></use>
    <path d="M-4,0h8" fill="none" stroke="white" stroke-width="1.5" pointer-events="none"/>
  </g>
  <g id="arrowUp" transform="translate(30 24)">
    <use xlink:href="#rim"/>
    <path pointer-events="none" fill="none" stroke="white" stroke-width="1.5" d="M0,-3.0v7 M-2.5,-0.5L0,-3.0L2.5,-0.5"/>
  </g>
  <g id="arrowRight" transform="rotate(90) translate(36 -43)">
    <use xlink:href="#rim"/>
    <path pointer-events="none" fill="none" stroke="white" stroke-width="1.5" d="M0,-3.0v7 M-2.5,-0.5L0,-3.0L2.5,-0.5"/>
  </g>
  <g id="arrowDown" transform="rotate(180) translate(-30 -48)">
    <use xlink:href="#rim"/>
    <path pointer-events="none" fill="none" stroke="white" stroke-width="1.5" d="M0,-3.0v7 M-2.5,-0.5L0,-3.0L2.5,-0.5"/>
  </g>
  <g id="arrowLeft" transform="rotate(270) translate(-36 17)">
    <use xlink:href="#rim"/>
    <path pointer-events="none" fill="none" stroke="white" stroke-width="1.5" d="M0,-3.0v7 M-2.5,-0.5L0,-3.0L2.5,-0.5"/>
  </g>
  <g id="resetDef">
    <use xlink:href="#rim2" fill="#404040"><set attributeName="fill" to="#808080" begin="reset.mouseover" end="reset.mouseout"/></use>
  </g>
</defs>
<script type="application/ecmascript">
var viewWidth = 675;
var viewHeight = 268;
var sectionId = 'dynsection-1';
</script>
<script type="application/ecmascript" xlink:href="svg.min.js"/>
<svg id="graph" class="graph">
<g id="viewport">
<title>app_main</title>
<!-- Node1 -->
<g id="Node000001" class="node">
<title>Node1</title>
<g id="a_Node000001"><a xlink:title=" ">
<polygon fill="#999999" stroke="#666666" points="58,-222 0,-222 0,-202 58,-202 58,-222"/>
<text xml:space="preserve" text-anchor="middle" x="29" y="-208.5" font-family="Helvetica,sans-Serif" font-size="10.00">app_main</text>
</a>
</g>
</g>
<!-- Node2 -->
<g id="Node000002" class="node">
<title>Node2</title>
<g id="a_Node000002"><a xlink:href="applications_2m5stack__core__s3_2apps_23d__graphics_2main_2init__display_8c.html#afb504c284aa8a47f2ffee89038bd5b98" target="_top" xlink:title=" ">
<polygon fill="white" stroke="#666666" points="185,-260 117.25,-260 117.25,-240 185,-240 185,-260"/>
<text xml:space="preserve" text-anchor="middle" x="151.12" y="-246.5" font-family="Helvetica,sans-Serif" font-size="10.00">bsp_i2c_init</text>
</a>
</g>
</g>
<!-- Node1&#45;&gt;Node2 -->
<g id="edge1_Node000001_Node000002" class="edge">
<title>Node1&#45;&gt;Node2</title>
<g id="a_edge1_Node000001_Node000002"><a xlink:title=" ">
<path fill="none" stroke="#63b8ff" d="M58.47,-221.01C72.79,-225.53 90.45,-231.12 106.44,-236.18"/>
<polygon fill="#63b8ff" stroke="#63b8ff" points="105.15,-239.44 115.74,-239.12 107.26,-232.77 105.15,-239.44"/>
</a>
</g>
</g>
<!-- Node3 -->
<g id="Node000003" class="node">
<title>Node3</title>
<g id="a_Node000003"><a xlink:href="components_2espressif____esp-dsp_2applications_2spectrum__box__lite_2main_2main_8c.html#a8a38eae9043f070fbd482ffa18f2fa22" target="_top" xlink:title=" ">
<polygon fill="white" stroke="#666666" points="202.25,-222 100,-222 100,-202 202.25,-202 202.25,-222"/>
<text xml:space="preserve" text-anchor="middle" x="151.12" y="-208.5" font-family="Helvetica,sans-Serif" font-size="10.00">image_display_task</text>
</a>
</g>
</g>
<!-- Node1&#45;&gt;Node3 -->
<g id="edge2_Node000001_Node000003" class="edge">
<title>Node1&#45;&gt;Node3</title>
<g id="a_edge2_Node000001_Node000003"><a xlink:title=" ">
<path fill="none" stroke="#63b8ff" d="M58.47,-212C67.54,-212 77.95,-212 88.43,-212"/>
<polygon fill="#63b8ff" stroke="#63b8ff" points="88.25,-215.5 98.25,-212 88.25,-208.5 88.25,-215.5"/>
</a>
</g>
</g>
<!-- Node7 -->
<g id="Node000007" class="node">
<title>Node7</title>
<g id="a_Node000007"><a xlink:href="components_2espressif____esp-dsp_2applications_2spectrum__box__lite_2main_2main_8c.html#a04947e47b733459d79baaebe3425c9dd" target="_top" xlink:title=" ">
<polygon fill="white" stroke="#666666" points="208.25,-118 94,-118 94,-98 208.25,-98 208.25,-118"/>
<text xml:space="preserve" text-anchor="middle" x="151.12" y="-104.5" font-family="Helvetica,sans-Serif" font-size="10.00">microphone_read_task</text>
</a>
</g>
</g>
<!-- Node1&#45;&gt;Node7 -->
<g id="edge6_Node000001_Node000007" class="edge">
<title>Node1&#45;&gt;Node7</title>
<g id="a_edge6_Node000001_Node000007"><a xlink:title=" ">
<path fill="none" stroke="#63b8ff" d="M41.96,-201.65C62.46,-183.89 104.56,-147.45 129.77,-125.63"/>
<polygon fill="#63b8ff" stroke="#63b8ff" points="131.8,-128.49 137.07,-119.3 127.22,-123.2 131.8,-128.49"/>
</a>
</g>
</g>
<!-- Node4 -->
<g id="Node000004" class="node">
<title>Node4</title>
<g id="a_Node000004"><a xlink:href="components_2espressif____esp-dsp_2applications_2spectrum__box__lite_2main_2main_8c.html#aa8864347344fab858003e41128dbbc12" target="_top" xlink:title=" ">
<polygon fill="white" stroke="#666666" points="354.75,-222 253.25,-222 253.25,-202 354.75,-202 354.75,-222"/>
<text xml:space="preserve" text-anchor="middle" x="304" y="-208.5" font-family="Helvetica,sans-Serif" font-size="10.00">spectrum2d_picture</text>
</a>
</g>
</g>
<!-- Node3&#45;&gt;Node4 -->
<g id="edge3_Node000003_Node000004" class="edge">
<title>Node3&#45;&gt;Node4</title>
<g id="a_edge3_Node000003_Node000004"><a xlink:title=" ">
<path fill="none" stroke="#63b8ff" d="M202.36,-212C214.96,-212 228.62,-212 241.69,-212"/>
<polygon fill="#63b8ff" stroke="#63b8ff" points="241.47,-215.5 251.47,-212 241.47,-208.5 241.47,-215.5"/>
</a>
</g>
</g>
<!-- Node6 -->
<g id="Node000006" class="node">
<title>Node6</title>
<g id="a_Node000006"><a xlink:href="components_2espressif____esp-dsp_2applications_2spectrum__box__lite_2main_2main_8c.html#a956289103fb2f3c19f858abd3fca5bc7" target="_top" xlink:title=" ">
<polygon fill="white" stroke="#666666" points="363.75,-260 244.25,-260 244.25,-240 363.75,-240 363.75,-260"/>
<text xml:space="preserve" text-anchor="middle" x="304" y="-246.5" font-family="Helvetica,sans-Serif" font-size="10.00">spectrum2d_picture_init</text>
</a>
</g>
</g>
<!-- Node3&#45;&gt;Node6 -->
<g id="edge5_Node000003_Node000006" class="edge">
<title>Node3&#45;&gt;Node6</title>
<g id="a_edge5_Node000003_Node000006"><a xlink:title=" ">
<path fill="none" stroke="#63b8ff" d="M193.75,-222.48C211.31,-226.91 231.96,-232.11 250.55,-236.79"/>
<polygon fill="#63b8ff" stroke="#63b8ff" points="249.49,-240.13 260.04,-239.18 251.2,-233.34 249.49,-240.13"/>
</a>
</g>
</g>
<!-- Node5 -->
<g id="Node000005" class="node">
<title>Node5</title>
<g id="a_Node000005"><a xlink:href="components_2espressif____esp-dsp_2applications_2spectrum__box__lite_2main_2main_8c.html#a7f8855b4c88c8357b7e3f1572ad8810a" target="_top" xlink:title=" ">
<polygon fill="white" stroke="#666666" points="500.5,-222 420,-222 420,-202 500.5,-202 500.5,-222"/>
<text xml:space="preserve" text-anchor="middle" x="460.25" y="-208.5" font-family="Helvetica,sans-Serif" font-size="10.00">convert_to_rgb</text>
</a>
</g>
</g>
<!-- Node4&#45;&gt;Node5 -->
<g id="edge4_Node000004_Node000005" class="edge">
<title>Node4&#45;&gt;Node5</title>
<g id="a_edge4_Node000004_Node000005"><a xlink:title=" ">
<path fill="none" stroke="#63b8ff" d="M355.08,-212C372.09,-212 391.11,-212 408.2,-212"/>
<polygon fill="#63b8ff" stroke="#63b8ff" points="408.16,-215.5 418.16,-212 408.16,-208.5 408.16,-215.5"/>
</a>
</g>
</g>
<!-- Node8 -->
<g id="Node000008" class="node">
<title>Node8</title>
<g id="a_Node000008"><a xlink:href="dsps__fft2r__sc16__ansi_8c.html#a4f30eaf6ab6af9c67f262e11ef917361" target="_top" xlink:title=" ">
<polygon fill="white" stroke="#666666" points="520.75,-58 399.75,-58 399.75,-38 520.75,-38 520.75,-58"/>
<text xml:space="preserve" text-anchor="middle" x="460.25" y="-44.5" font-family="Helvetica,sans-Serif" font-size="10.00">dsps_bit_rev_sc16_ansi</text>
</a>
</g>
</g>
<!-- Node7&#45;&gt;Node8 -->
<g id="edge7_Node000007_Node000008" class="edge">
<title>Node7&#45;&gt;Node8</title>
<g id="a_edge7_Node000007_Node000008"><a xlink:title=" ">
<path fill="none" stroke="#63b8ff" d="M170.52,-97.62C188.66,-87.93 217.47,-73.94 244.25,-67 291.27,-54.82 345.79,-50.11 388.16,-48.42"/>
<polygon fill="#63b8ff" stroke="#63b8ff" points="388.11,-51.92 397.99,-48.08 387.87,-44.92 388.11,-51.92"/>
</a>
</g>
</g>
<!-- Node10 -->
<g id="Node000010" class="node">
<title>Node10</title>
<g id="a_Node000010"><a xlink:href="dsps__fft2r__sc16__ansi_8c.html#a9eedd9a59867bc7e1a967fb4a8200065" target="_top" xlink:title=" ">
<polygon fill="white" stroke="#666666" points="514,-20 406.5,-20 406.5,0 514,0 514,-20"/>
<text xml:space="preserve" text-anchor="middle" x="460.25" y="-6.5" font-family="Helvetica,sans-Serif" font-size="10.00">dsps_cplx2reC_sc16</text>
</a>
</g>
</g>
<!-- Node7&#45;&gt;Node10 -->
<g id="edge9_Node000007_Node000010" class="edge">
<title>Node7&#45;&gt;Node10</title>
<g id="a_edge9_Node000007_Node000010"><a xlink:title=" ">
<path fill="none" stroke="#63b8ff" d="M163.97,-97.54C180.65,-83.43 212.55,-58.63 244.25,-46 292.66,-26.71 351.2,-17.76 394.96,-13.6"/>
<polygon fill="#63b8ff" stroke="#63b8ff" points="395.16,-17.1 404.81,-12.73 394.54,-10.12 395.16,-17.1"/>
</a>
</g>
</g>
<!-- Node11 -->
<g id="Node000011" class="node">
<title>Node11</title>
<g id="a_Node000011"><a xlink:href="dsps__fft2r__sc16__ansi_8c.html#a46efac911f6eeaa0e90b5ab0e98ac815" target="_top" xlink:title=" ">
<polygon fill="white" stroke="#666666" points="355.5,-96 252.5,-96 252.5,-76 355.5,-76 355.5,-96"/>
<text xml:space="preserve" text-anchor="middle" x="304" y="-82.5" font-family="Helvetica,sans-Serif" font-size="10.00">dsps_fft2r_init_sc16</text>
</a>
</g>
</g>
<!-- Node7&#45;&gt;Node11 -->
<g id="edge11_Node000007_Node000011" class="edge">
<title>Node7&#45;&gt;Node11</title>
<g id="a_edge11_Node000007_Node000011"><a xlink:title=" ">
<path fill="none" stroke="#63b8ff" d="M208.73,-99.75C219.17,-98.22 230.13,-96.63 240.72,-95.08"/>
<polygon fill="#63b8ff" stroke="#63b8ff" points="241.15,-98.56 250.54,-93.65 240.14,-91.63 241.15,-98.56"/>
</a>
</g>
</g>
<!-- Node13 -->
<g id="Node000013" class="node">
<title>Node13</title>
<g id="a_Node000013"><a xlink:href="dsps__mul__s16__ansi_8c.html#a57903110dc74555482b627bad5e3c6aa" target="_top" xlink:title="Multiply two arrays.">
<polygon fill="white" stroke="#666666" points="355.12,-184 252.88,-184 252.88,-164 355.12,-164 355.12,-184"/>
<text xml:space="preserve" text-anchor="middle" x="304" y="-170.5" font-family="Helvetica,sans-Serif" font-size="10.00">dsps_mul_s16_ansi</text>
</a>
</g>
</g>
<!-- Node7&#45;&gt;Node13 -->
<g id="edge15_Node000007_Node000013" class="edge">
<title>Node7&#45;&gt;Node13</title>
<g id="a_edge15_Node000007_Node000013"><a xlink:title=" ">
<path fill="none" stroke="#63b8ff" d="M170.42,-118.43C188.72,-128.6 217.87,-144.09 244.25,-155 248.31,-156.68 252.58,-158.31 256.89,-159.86"/>
<polygon fill="#63b8ff" stroke="#63b8ff" points="255.54,-163.1 266.13,-163.05 257.82,-156.48 255.54,-163.1"/>
</a>
</g>
</g>
<!-- Node14 -->
<g id="Node000014" class="node">
<title>Node14</title>
<g id="a_Node000014"><a xlink:href="dsps__wind__blackman__harris__f32_8c.html#a67ada8e312889fc1d56298b2122a2f06" target="_top" xlink:title="Blackman&#45;Harris window.">
<polygon fill="white" stroke="#666666" points="358.88,-146 249.12,-146 249.12,-114 358.88,-114 358.88,-146"/>
<text xml:space="preserve" text-anchor="start" x="257.12" y="-132.5" font-family="Helvetica,sans-Serif" font-size="10.00">dsps_wind_blackman</text>
<text xml:space="preserve" text-anchor="middle" x="304" y="-120.5" font-family="Helvetica,sans-Serif" font-size="10.00">_harris_f32</text>
</a>
</g>
</g>
<!-- Node7&#45;&gt;Node14 -->
<g id="edge16_Node000007_Node000014" class="edge">
<title>Node7&#45;&gt;Node14</title>
<g id="a_edge16_Node000007_Node000014"><a xlink:title=" ">
<path fill="none" stroke="#63b8ff" d="M208.73,-116.25C218.23,-117.64 228.15,-119.09 237.84,-120.5"/>
<polygon fill="#63b8ff" stroke="#63b8ff" points="237.17,-123.94 247.57,-121.92 238.18,-117.01 237.17,-123.94"/>
</a>
</g>
</g>
<!-- Node9 -->
<g id="Node000009" class="node">
<title>Node9</title>
<g id="a_Node000009"><a xlink:href="test__fft2r_8c.html#a0dc0b4dd19d7ebd2f69bfb0c1a6f85da" target="_top" xlink:title="check power of two The function check if the argument is power of 2. The implementation use ANSI C an...">
<polygon fill="white" stroke="#666666" points="667.25,-58 556.75,-58 556.75,-38 667.25,-38 667.25,-58"/>
<text xml:space="preserve" text-anchor="middle" x="612" y="-44.5" font-family="Helvetica,sans-Serif" font-size="10.00">dsp_is_power_of_two</text>
</a>
</g>
</g>
<!-- Node8&#45;&gt;Node9 -->
<g id="edge8_Node000008_Node000009" class="edge">
<title>Node8&#45;&gt;Node9</title>
<g id="a_edge8_Node000008_Node000009"><a xlink:title=" ">
<path fill="none" stroke="#63b8ff" d="M520.87,-48C528.85,-48 537.07,-48 545.16,-48"/>
<polygon fill="#63b8ff" stroke="#63b8ff" points="544.93,-51.5 554.93,-48 544.93,-44.5 544.93,-51.5"/>
</a>
</g>
</g>
<!-- Node10&#45;&gt;Node9 -->
<g id="edge10_Node000010_Node000009" class="edge">
<title>Node10&#45;&gt;Node9</title>
<g id="a_edge10_Node000010_Node000009"><a xlink:title=" ">
<path fill="none" stroke="#63b8ff" d="M502.57,-20.48C519.92,-24.89 540.3,-30.06 558.68,-34.72"/>
<polygon fill="#63b8ff" stroke="#63b8ff" points="557.8,-38.11 568.35,-37.18 559.52,-31.33 557.8,-38.11"/>
</a>
</g>
</g>
<!-- Node11&#45;&gt;Node8 -->
<g id="edge12_Node000011_Node000008" class="edge">
<title>Node11&#45;&gt;Node8</title>
<g id="a_edge12_Node000011_Node000008"><a xlink:title=" ">
<path fill="none" stroke="#63b8ff" d="M347.56,-75.52C365.6,-71.07 386.82,-65.84 405.89,-61.15"/>
<polygon fill="#63b8ff" stroke="#63b8ff" points="406.49,-64.6 415.36,-58.81 404.81,-57.81 406.49,-64.6"/>
</a>
</g>
</g>
<!-- Node12 -->
<g id="Node000012" class="node">
<title>Node12</title>
<g id="a_Node000012"><a xlink:href="dsps__fft2r__sc16__ansi_8c.html#a9b94ca984cb2a6935843f2efed9ad233" target="_top" xlink:title=" ">
<polygon fill="white" stroke="#666666" points="515.5,-96 405,-96 405,-76 515.5,-76 515.5,-96"/>
<text xml:space="preserve" text-anchor="middle" x="460.25" y="-82.5" font-family="Helvetica,sans-Serif" font-size="10.00">dsps_gen_w_r2_sc16</text>
</a>
</g>
</g>
<!-- Node11&#45;&gt;Node12 -->
<g id="edge13_Node000011_Node000012" class="edge">
<title>Node11&#45;&gt;Node12</title>
<g id="a_edge13_Node000011_Node000012"><a xlink:title=" ">
<path fill="none" stroke="#63b8ff" d="M355.93,-86C367.89,-86 380.81,-86 393.32,-86"/>
<polygon fill="#63b8ff" stroke="#63b8ff" points="393.14,-89.5 403.14,-86 393.14,-82.5 393.14,-89.5"/>
</a>
</g>
</g>
<!-- Node12&#45;&gt;Node9 -->
<g id="edge14_Node000012_Node000009" class="edge">
<title>Node12&#45;&gt;Node9</title>
<g id="a_edge14_Node000012_Node000009"><a xlink:title=" ">
<path fill="none" stroke="#63b8ff" d="M502.57,-75.52C519.92,-71.11 540.3,-65.94 558.68,-61.28"/>
<polygon fill="#63b8ff" stroke="#63b8ff" points="559.52,-64.67 568.35,-58.82 557.8,-57.89 559.52,-64.67"/>
</a>
</g>
</g>
</g>
</svg>

<g id="navigator" transform="translate(0 0)" fill="#404254">
  <rect fill="#f2f5e9" fill-opacity="0.5" stroke="#606060" stroke-width=".5" x="0" y="0" width="60" height="60"/>
  <use id="zoomplus" xlink:href="#zoomPlus" x="17" y="9" onmousedown="handleZoom(evt,'in')"/>
  <use id="zoomminus" xlink:href="#zoomMin" x="42" y="9" onmousedown="handleZoom(evt,'out')"/>
  <use id="reset" xlink:href="#resetDef" x="30" y="36" onmousedown="handleReset()"/>
   <use id="arrowup" xlink:href="#arrowUp" x="0" y="0" onmousedown="handlePan(0,-1)"/>
  <use id="arrowright" xlink:href="#arrowRight" x="0" y="0" onmousedown="handlePan(1,0)"/>
  <use id="arrowdown" xlink:href="#arrowDown" x="0" y="0" onmousedown="handlePan(0,1)"/>
  <use id="arrowleft" xlink:href="#arrowLeft" x="0" y="0" onmousedown="handlePan(-1,0)"/>
</g>
<svg viewBox="0 0 15 15" width="100%" height="30px" preserveAspectRatio="xMaxYMin meet">
 <g id="arrow_out" transform="scale(0.3 0.3)">
  <a xlink:href="components_2espressif____esp-dsp_2applications_2spectrum__box__lite_2main_2main_8c_a630544a7f0a2cc40d8a7fefab7e2fe70_cgraph_org.svg" target="_base">
   <rect id="button" ry="5" rx="5" y="6" x="6" height="38" width="38"
        fill="#f2f5e9" fill-opacity="0.5" stroke="#606060" stroke-width="1.0"/>
   <path id="arrow"
     d="M 11.500037,31.436501 C 11.940474,20.09759 22.043105,11.32322 32.158766,21.979434 L 37.068811,17.246167 C 37.068811,17.246167 37.088388,32 37.088388,32 L 22.160133,31.978069 C 22.160133,31.978069 26.997745,27.140456 26.997745,27.140456 C 18.528582,18.264221 13.291696,25.230495 11.500037,31.436501 z"
     style="fill:#404040;"/>
  </a>
 </g>
</svg>

<style type='text/css'>
<![CDATA[
[data-mouse-over-selected='false'] { opacity: 0.7; }
[data-mouse-over-selected='true']  { opacity: 1.0; }
]]>
</style>
<script type="application/ecmascript"><![CDATA[
document.addEventListener('DOMContentLoaded', (event) => {
  highlightEdges();
  highlightAdjacentNodes();
});
]]></script>
</svg>
