<?xml version="1.0" encoding="UTF-8" standalone="no"?>
<!DOCTYPE svg PUBLIC "-//W3C//DTD SVG 1.1//EN"
 "http://www.w3.org/Graphics/SVG/1.1/DTD/svg11.dtd">
<!-- Generated by graphviz version 14.1.2 (20260124.0452)
 -->
<!-- Title: microphone_read_task Pages: 1 -->
<svg width="572pt" height="192pt"
 viewBox="0.00 0.00 572.00 192.00" xmlns="http://www.w3.org/2000/svg" xmlns:xlink="http://www.w3.org/1999/xlink">
<g id="graph0" class="graph" transform="scale(1 1) rotate(0) translate(4 188)">
<title>microphone_read_task</title>
<!-- Node1 -->
<g id="Node000001" class="node">
<title>Node1</title>
<g id="a_Node000001"><a xlink:title=" ">
<polygon fill="#999999" stroke="#666666" points="114.25,-108 0,-108 0,-88 114.25,-88 114.25,-108"/>
<text xml:space="preserve" text-anchor="middle" x="57.12" y="-94.5" font-family="Helvetica,sans-Serif" font-size="10.00">microphone_read_task</text>
</a>
</g>
</g>
<!-- Node2 -->
<g id="Node000002" class="node">
<title>Node2</title>
<g id="a_Node000002"><a xlink:href="dsps__fft2r__sc16__ansi_8c.html#a4f30eaf6ab6af9c67f262e11ef917361" target="_top" xlink:title=" ">
<polygon fill="white" stroke="#666666" points="417,-146 296,-146 296,-126 417,-126 417,-146"/>
<text xml:space="preserve" text-anchor="middle" x="356.5" y="-132.5" font-family="Helvetica,sans-Serif" font-size="10.00">dsps_bit_rev_sc16_ansi</text>
</a>
</g>
</g>
<!-- Node1&#45;&gt;Node2 -->
<g id="edge1_Node000001_Node000002" class="edge">
<title>Node1&#45;&gt;Node2</title>
<g id="a_edge1_Node000001_Node000002"><a xlink:title=" ">
<path fill="none" stroke="#63b8ff" d="M103.87,-108.48C118.61,-111.58 135.07,-114.74 150.25,-117 194.55,-123.6 244.58,-128.28 284.16,-131.35"/>
<polygon fill="#63b8ff" stroke="#63b8ff" points="283.82,-134.84 294.05,-132.1 284.35,-127.86 283.82,-134.84"/>
</a>
</g>
</g>
<!-- Node4 -->
<g id="Node000004" class="node">
<title>Node4</title>
<g id="a_Node000004"><a xlink:href="dsps__fft2r__sc16__ansi_8c.html#a9eedd9a59867bc7e1a967fb4a8200065" target="_top" xlink:title=" ">
<polygon fill="white" stroke="#666666" points="410.25,-184 302.75,-184 302.75,-164 410.25,-164 410.25,-184"/>
<text xml:space="preserve" text-anchor="middle" x="356.5" y="-170.5" font-family="Helvetica,sans-Serif" font-size="10.00">dsps_cplx2reC_sc16</text>
</a>
</g>
</g>
<!-- Node1&#45;&gt;Node4 -->
<g id="edge3_Node000001_Node000004" class="edge">
<title>Node1&#45;&gt;Node4</title>
<g id="a_edge3_Node000001_Node000004"><a xlink:title=" ">
<path fill="none" stroke="#63b8ff" d="M78.86,-108.35C97.21,-117.13 124.95,-129.47 150.25,-137 196.56,-150.79 250.37,-160.26 291.27,-166.16"/>
<polygon fill="#63b8ff" stroke="#63b8ff" points="290.55,-169.6 300.94,-167.52 291.53,-162.66 290.55,-169.6"/>
</a>
</g>
</g>
<!-- Node5 -->
<g id="Node000005" class="node">
<title>Node5</title>
<g id="a_Node000005"><a xlink:href="dsps__fft2r__sc16__ansi_8c.html#a46efac911f6eeaa0e90b5ab0e98ac815" target="_top" xlink:title=" ">
<polygon fill="white" stroke="#666666" points="256.62,-108 153.62,-108 153.62,-88 256.62,-88 256.62,-108"/>
<text xml:space="preserve" text-anchor="middle" x="205.12" y="-94.5" font-family="Helvetica,sans-Serif" font-size="10.00">dsps_fft2r_init_sc16</text>
</a>
</g>
</g>
<!-- Node1&#45;&gt;Node5 -->
<g id="edge5_Node000001_Node000005" class="edge">
<title>Node1&#45;&gt;Node5</title>
<g id="a_edge5_Node000001_Node000005"><a xlink:title=" ">
<path fill="none" stroke="#63b8ff" d="M114.57,-98C123.6,-98 132.98,-98 142.13,-98"/>
<polygon fill="#63b8ff" stroke="#63b8ff" points="142.03,-101.5 152.03,-98 142.03,-94.5 142.03,-101.5"/>
</a>
</g>
</g>
<!-- Node7 -->
<g id="Node000007" class="node">
<title>Node7</title>
<g id="a_Node000007"><a xlink:href="dsps__mul__s16__ansi_8c.html#a57903110dc74555482b627bad5e3c6aa" target="_top" xlink:title="Multiply two arrays.">
<polygon fill="white" stroke="#666666" points="256.25,-70 154,-70 154,-50 256.25,-50 256.25,-70"/>
<text xml:space="preserve" text-anchor="middle" x="205.12" y="-56.5" font-family="Helvetica,sans-Serif" font-size="10.00">dsps_mul_s16_ansi</text>
</a>
</g>
</g>
<!-- Node1&#45;&gt;Node7 -->
<g id="edge9_Node000001_Node000007" class="edge">
<title>Node1&#45;&gt;Node7</title>
<g id="a_edge9_Node000001_Node000007"><a xlink:title=" ">
<path fill="none" stroke="#63b8ff" d="M98.41,-87.52C115.24,-83.13 135,-77.99 152.86,-73.34"/>
<polygon fill="#63b8ff" stroke="#63b8ff" points="153.71,-76.74 162.51,-70.83 151.95,-69.96 153.71,-76.74"/>
</a>
</g>
</g>
<!-- Node8 -->
<g id="Node000008" class="node">
<title>Node8</title>
<g id="a_Node000008"><a xlink:href="dsps__wind__blackman__harris__f32_8c.html#a67ada8e312889fc1d56298b2122a2f06" target="_top" xlink:title="Blackman&#45;Harris window.">
<polygon fill="white" stroke="#666666" points="260,-32 150.25,-32 150.25,0 260,0 260,-32"/>
<text xml:space="preserve" text-anchor="start" x="158.25" y="-18.5" font-family="Helvetica,sans-Serif" font-size="10.00">dsps_wind_blackman</text>
<text xml:space="preserve" text-anchor="middle" x="205.12" y="-6.5" font-family="Helvetica,sans-Serif" font-size="10.00">_harris_f32</text>
</a>
</g>
</g>
<!-- Node1&#45;&gt;Node8 -->
<g id="edge10_Node000001_Node000008" class="edge">
<title>Node1&#45;&gt;Node8</title>
<g id="a_edge10_Node000001_Node000008"><a xlink:title=" ">
<path fill="none" stroke="#63b8ff" d="M73.76,-87.53C91.82,-75.62 122.6,-55.9 150.25,-41 152.46,-39.81 154.74,-38.62 157.06,-37.44"/>
<polygon fill="#63b8ff" stroke="#63b8ff" points="158.55,-40.6 165.96,-33.03 155.45,-34.33 158.55,-40.6"/>
</a>
</g>
</g>
<!-- Node3 -->
<g id="Node000003" class="node">
<title>Node3</title>
<g id="a_Node000003"><a xlink:href="test__fft2r_8c.html#a0dc0b4dd19d7ebd2f69bfb0c1a6f85da" target="_top" xlink:title="check power of two The function check if the argument is power of 2. The implementation use ANSI C an...">
<polygon fill="white" stroke="#666666" points="563.5,-146 453,-146 453,-126 563.5,-126 563.5,-146"/>
<text xml:space="preserve" text-anchor="middle" x="508.25" y="-132.5" font-family="Helvetica,sans-Serif" font-size="10.00">dsp_is_power_of_two</text>
</a>
</g>
</g>
<!-- Node2&#45;&gt;Node3 -->
<g id="edge2_Node000002_Node000003" class="edge">
<title>Node2&#45;&gt;Node3</title>
<g id="a_edge2_Node000002_Node000003"><a xlink:title=" ">
<path fill="none" stroke="#63b8ff" d="M417.12,-136C425.1,-136 433.32,-136 441.41,-136"/>
<polygon fill="#63b8ff" stroke="#63b8ff" points="441.18,-139.5 451.18,-136 441.18,-132.5 441.18,-139.5"/>
</a>
</g>
</g>
<!-- Node4&#45;&gt;Node3 -->
<g id="edge4_Node000004_Node000003" class="edge">
<title>Node4&#45;&gt;Node3</title>
<g id="a_edge4_Node000004_Node000003"><a xlink:title=" ">
<path fill="none" stroke="#63b8ff" d="M398.82,-163.52C416.17,-159.11 436.55,-153.94 454.93,-149.28"/>
<polygon fill="#63b8ff" stroke="#63b8ff" points="455.77,-152.67 464.6,-146.82 454.05,-145.89 455.77,-152.67"/>
</a>
</g>
</g>
<!-- Node5&#45;&gt;Node2 -->
<g id="edge6_Node000005_Node000002" class="edge">
<title>Node5&#45;&gt;Node2</title>
<g id="a_edge6_Node000005_Node000002"><a xlink:title=" ">
<path fill="none" stroke="#63b8ff" d="M247.34,-108.48C264.64,-112.89 284.97,-118.06 303.31,-122.72"/>
<polygon fill="#63b8ff" stroke="#63b8ff" points="302.4,-126.1 312.95,-125.18 304.13,-119.32 302.4,-126.1"/>
</a>
</g>
</g>
<!-- Node6 -->
<g id="Node000006" class="node">
<title>Node6</title>
<g id="a_Node000006"><a xlink:href="dsps__fft2r__sc16__ansi_8c.html#a9b94ca984cb2a6935843f2efed9ad233" target="_top" xlink:title=" ">
<polygon fill="white" stroke="#666666" points="411.75,-108 301.25,-108 301.25,-88 411.75,-88 411.75,-108"/>
<text xml:space="preserve" text-anchor="middle" x="356.5" y="-94.5" font-family="Helvetica,sans-Serif" font-size="10.00">dsps_gen_w_r2_sc16</text>
</a>
</g>
</g>
<!-- Node5&#45;&gt;Node6 -->
<g id="edge7_Node000005_Node000006" class="edge">
<title>Node5&#45;&gt;Node6</title>
<g id="a_edge7_Node000005_Node000006"><a xlink:title=" ">
<path fill="none" stroke="#63b8ff" d="M257.11,-98C267.59,-98 278.76,-98 289.67,-98"/>
<polygon fill="#63b8ff" stroke="#63b8ff" points="289.4,-101.5 299.4,-98 289.4,-94.5 289.4,-101.5"/>
</a>
</g>
</g>
<!-- Node6&#45;&gt;Node3 -->
<g id="edge8_Node000006_Node000003" class="edge">
<title>Node6&#45;&gt;Node3</title>
<g id="a_edge8_Node000006_Node000003"><a xlink:title=" ">
<path fill="none" stroke="#63b8ff" d="M398.82,-108.48C416.17,-112.89 436.55,-118.06 454.93,-122.72"/>
<polygon fill="#63b8ff" stroke="#63b8ff" points="454.05,-126.11 464.6,-125.18 455.77,-119.33 454.05,-126.11"/>
</a>
</g>
</g>
</g>
</svg>
