<?xml version="1.0" encoding="UTF-8" standalone="no"?>
<!DOCTYPE svg PUBLIC "-//W3C//DTD SVG 1.1//EN"
 "http://www.w3.org/Graphics/SVG/1.1/DTD/svg11.dtd">
<!-- Generated by graphviz version 14.1.2 (20260124.0452)
 -->
<!-- Title: descriptors_control.c Pages: 1 -->
<svg width="309pt" height="140pt"
 viewBox="0.00 0.00 309.00 140.00" xmlns="http://www.w3.org/2000/svg" xmlns:xlink="http://www.w3.org/1999/xlink">
<g id="graph0" class="graph" transform="scale(1 1) rotate(0) translate(4 136)">
<title>descriptors_control.c</title>
<!-- Node1 -->
<g id="Node000001" class="node">
<title>Node1</title>
<g id="a_Node000001"><a xlink:title=" ">
<polygon fill="#999999" stroke="#666666" points="148.5,-132 41.75,-132 41.75,-112 148.5,-112 148.5,-132"/>
<text xml:space="preserve" text-anchor="middle" x="95.12" y="-118.5" font-family="Helvetica,sans-Serif" font-size="10.00">descriptors_control.c</text>
</a>
</g>
</g>
<!-- Node2 -->
<g id="Node000002" class="node">
<title>Node2</title>
<g id="a_Node000002"><a xlink:title=" ">
<polygon fill="#e0e0e0" stroke="#999999" points="48.25,-76 0,-76 0,-56 48.25,-56 48.25,-76"/>
<text xml:space="preserve" text-anchor="middle" x="24.12" y="-62.5" font-family="Helvetica,sans-Serif" font-size="10.00">string.h</text>
</a>
</g>
</g>
<!-- Node1&#45;&gt;Node2 -->
<g id="edge1_Node000001_Node000002" class="edge">
<title>Node1&#45;&gt;Node2</title>
<g id="a_edge1_Node000001_Node000002"><a xlink:title=" ">
<path fill="none" stroke="#63b8ff" d="M82.76,-111.59C72.48,-103.77 57.61,-92.46 45.41,-83.19"/>
<polygon fill="#63b8ff" stroke="#63b8ff" points="47.63,-80.48 37.56,-77.21 43.4,-86.05 47.63,-80.48"/>
</a>
</g>
</g>
<!-- Node3 -->
<g id="Node000003" class="node">
<title>Node3</title>
<g id="a_Node000003"><a xlink:href="esp__log_8h.html" target="_top" xlink:title=" ">
<polygon fill="white" stroke="#666666" points="124.12,-76 66.12,-76 66.12,-56 124.12,-56 124.12,-76"/>
<text xml:space="preserve" text-anchor="middle" x="95.12" y="-62.5" font-family="Helvetica,sans-Serif" font-size="10.00">esp_log.h</text>
</a>
</g>
</g>
<!-- Node1&#45;&gt;Node3 -->
<g id="edge2_Node000001_Node000003" class="edge">
<title>Node1&#45;&gt;Node3</title>
<g id="a_edge2_Node000001_Node000003"><a xlink:title=" ">
<path fill="none" stroke="#63b8ff" d="M95.12,-111.59C95.12,-105.01 95.12,-95.96 95.12,-87.73"/>
<polygon fill="#63b8ff" stroke="#63b8ff" points="98.63,-87.81 95.13,-77.81 91.63,-87.81 98.63,-87.81"/>
</a>
</g>
</g>
<!-- Node5 -->
<g id="Node000005" class="node">
<title>Node5</title>
<g id="a_Node000005"><a xlink:href="descriptors__control_8h.html" target="_top" xlink:title=" ">
<polygon fill="white" stroke="#666666" points="248.5,-76 141.75,-76 141.75,-56 248.5,-56 248.5,-76"/>
<text xml:space="preserve" text-anchor="middle" x="195.12" y="-62.5" font-family="Helvetica,sans-Serif" font-size="10.00">descriptors_control.h</text>
</a>
</g>
</g>
<!-- Node1&#45;&gt;Node5 -->
<g id="edge4_Node000001_Node000005" class="edge">
<title>Node1&#45;&gt;Node5</title>
<g id="a_edge4_Node000001_Node000005"><a xlink:title=" ">
<path fill="none" stroke="#63b8ff" d="M112.54,-111.59C127.79,-103.36 150.2,-91.26 167.83,-81.74"/>
<polygon fill="#63b8ff" stroke="#63b8ff" points="169.1,-85.03 176.24,-77.2 165.78,-78.87 169.1,-85.03"/>
</a>
</g>
</g>
<!-- Node4 -->
<g id="Node000004" class="node">
<title>Node4</title>
<g id="a_Node000004"><a xlink:title=" ">
<polygon fill="#e0e0e0" stroke="#999999" points="118.88,-20 71.38,-20 71.38,0 118.88,0 118.88,-20"/>
<text xml:space="preserve" text-anchor="middle" x="95.12" y="-6.5" font-family="Helvetica,sans-Serif" font-size="10.00">stdlib.h</text>
</a>
</g>
</g>
<!-- Node3&#45;&gt;Node4 -->
<g id="edge3_Node000003_Node000004" class="edge">
<title>Node3&#45;&gt;Node4</title>
<g id="a_edge3_Node000003_Node000004"><a xlink:title=" ">
<path fill="none" stroke="#63b8ff" d="M95.12,-55.59C95.12,-49.01 95.12,-39.96 95.12,-31.73"/>
<polygon fill="#63b8ff" stroke="#63b8ff" points="98.63,-31.81 95.13,-21.81 91.63,-31.81 98.63,-31.81"/>
</a>
</g>
</g>
<!-- Node6 -->
<g id="Node000006" class="node">
<title>Node6</title>
<g id="a_Node000006"><a xlink:title=" ">
<polygon fill="#e0e0e0" stroke="#999999" points="197.62,-20 154.62,-20 154.62,0 197.62,0 197.62,-20"/>
<text xml:space="preserve" text-anchor="middle" x="176.12" y="-6.5" font-family="Helvetica,sans-Serif" font-size="10.00">tusb.h</text>
</a>
</g>
</g>
<!-- Node5&#45;&gt;Node6 -->
<g id="edge5_Node000005_Node000006" class="edge">
<title>Node5&#45;&gt;Node6</title>
<g id="a_edge5_Node000005_Node000006"><a xlink:title=" ">
<path fill="none" stroke="#63b8ff" d="M191.82,-55.59C189.45,-48.86 186.16,-39.53 183.22,-31.15"/>
<polygon fill="#63b8ff" stroke="#63b8ff" points="186.52,-30 179.9,-21.73 179.92,-32.32 186.52,-30"/>
</a>
</g>
</g>
<!-- Node7 -->
<g id="Node000007" class="node">
<title>Node7</title>
<g id="a_Node000007"><a xlink:href="tinyusb__types_8h.html" target="_top" xlink:title=" ">
<polygon fill="white" stroke="#666666" points="300.62,-20 215.62,-20 215.62,0 300.62,0 300.62,-20"/>
<text xml:space="preserve" text-anchor="middle" x="258.12" y="-6.5" font-family="Helvetica,sans-Serif" font-size="10.00">tinyusb_types.h</text>
</a>
</g>
</g>
<!-- Node5&#45;&gt;Node7 -->
<g id="edge6_Node000005_Node000007" class="edge">
<title>Node5&#45;&gt;Node7</title>
<g id="a_edge6_Node000005_Node000007"><a xlink:title=" ">
<path fill="none" stroke="#63b8ff" d="M206.1,-55.59C215.04,-47.93 227.9,-36.91 238.59,-27.75"/>
<polygon fill="#63b8ff" stroke="#63b8ff" points="240.81,-30.45 246.13,-21.28 236.26,-25.13 240.81,-30.45"/>
</a>
</g>
</g>
</g>
</svg>
