<?xml version="1.0" encoding="UTF-8" standalone="no"?>
<!DOCTYPE svg PUBLIC "-//W3C//DTD SVG 1.1//EN"
 "http://www.w3.org/Graphics/SVG/1.1/DTD/svg11.dtd">
<!-- Generated by graphviz version 14.1.2 (20260124.0452)
 -->
<!-- Title: descriptors_control.h Pages: 1 -->
<svg width="188pt" height="84pt"
 viewBox="0.00 0.00 188.00 84.00" xmlns="http://www.w3.org/2000/svg" xmlns:xlink="http://www.w3.org/1999/xlink">
<g id="graph0" class="graph" transform="scale(1 1) rotate(0) translate(4 80)">
<title>descriptors_control.h</title>
<!-- Node1 -->
<g id="Node000001" class="node">
<title>Node1</title>
<g id="a_Node000001"><a xlink:title=" ">
<polygon fill="#999999" stroke="#666666" points="155.75,-76 49,-76 49,-56 155.75,-56 155.75,-76"/>
<text xml:space="preserve" text-anchor="middle" x="102.38" y="-62.5" font-family="Helvetica,sans-Serif" font-size="10.00">descriptors_control.h</text>
</a>
</g>
</g>
<!-- Node2 -->
<g id="Node000002" class="node">
<title>Node2</title>
<g id="a_Node000002"><a xlink:href="descriptors__control_8c.html" target="_top" xlink:title=" ">
<polygon fill="white" stroke="#666666" points="106.75,-20 0,-20 0,0 106.75,0 106.75,-20"/>
<text xml:space="preserve" text-anchor="middle" x="53.38" y="-6.5" font-family="Helvetica,sans-Serif" font-size="10.00">descriptors_control.c</text>
</a>
</g>
</g>
<!-- Node1&#45;&gt;Node2 -->
<g id="edge1_Node000001_Node000002" class="edge">
<title>Node1&#45;&gt;Node2</title>
<g id="a_edge1_Node000001_Node000002"><a xlink:title=" ">
<path fill="none" stroke="#63b8ff" d="M86.3,-47.29C78.13,-38.28 68.53,-27.7 61.81,-20.3"/>
<polygon fill="#63b8ff" stroke="#63b8ff" points="83.51,-49.42 92.82,-54.47 88.69,-44.72 83.51,-49.42"/>
</a>
</g>
</g>
<!-- Node3 -->
<g id="Node000003" class="node">
<title>Node3</title>
<g id="a_Node000003"><a xlink:href="tinyusb_8c.html" target="_top" xlink:title=" ">
<polygon fill="white" stroke="#666666" points="180.25,-20 124.5,-20 124.5,0 180.25,0 180.25,-20"/>
<text xml:space="preserve" text-anchor="middle" x="152.38" y="-6.5" font-family="Helvetica,sans-Serif" font-size="10.00">tinyusb.c</text>
</a>
</g>
</g>
<!-- Node1&#45;&gt;Node3 -->
<g id="edge2_Node000001_Node000003" class="edge">
<title>Node1&#45;&gt;Node3</title>
<g id="a_edge2_Node000001_Node000003"><a xlink:title=" ">
<path fill="none" stroke="#63b8ff" d="M118.78,-47.29C127.12,-38.28 136.91,-27.7 143.77,-20.3"/>
<polygon fill="#63b8ff" stroke="#63b8ff" points="116.34,-44.77 112.11,-54.48 121.47,-49.52 116.34,-44.77"/>
</a>
</g>
</g>
</g>
</svg>
