<?xml version="1.0" encoding="UTF-8" standalone="no"?>
<!DOCTYPE svg PUBLIC "-//W3C//DTD SVG 1.1//EN"
 "http://www.w3.org/Graphics/SVG/1.1/DTD/svg11.dtd">
<!-- Generated by graphviz version 14.1.2 (20260124.0452)
 -->
<!-- Title: tusb_set_descriptor Pages: 1 -->
<svg width="347pt" height="28pt"
 viewBox="0.00 0.00 347.00 28.00" xmlns="http://www.w3.org/2000/svg" xmlns:xlink="http://www.w3.org/1999/xlink">
<g id="graph0" class="graph" transform="scale(1 1) rotate(0) translate(4 24)">
<title>tusb_set_descriptor</title>
<!-- Node1 -->
<g id="Node000001" class="node">
<title>Node1</title>
<g id="a_Node000001"><a xlink:title=" ">
<polygon fill="#999999" stroke="#666666" points="339,-20 237.5,-20 237.5,0 339,0 339,-20"/>
<text xml:space="preserve" text-anchor="middle" x="288.25" y="-6.5" font-family="Helvetica,sans-Serif" font-size="10.00">tusb_set_descriptor</text>
</a>
</g>
</g>
<!-- Node2 -->
<g id="Node000002" class="node">
<title>Node2</title>
<g id="a_Node000002"><a xlink:href="tinyusb_8c.html#a71b7fa1b1d97afa9bda62b9c2eff370e" target="_top" xlink:title="This is an all&#45;in&#45;one helper function, including:">
<polygon fill="white" stroke="#666666" points="201.5,-20 94,-20 94,0 201.5,0 201.5,-20"/>
<text xml:space="preserve" text-anchor="middle" x="147.75" y="-6.5" font-family="Helvetica,sans-Serif" font-size="10.00">tinyusb_driver_install</text>
</a>
</g>
</g>
<!-- Node1&#45;&gt;Node2 -->
<g id="edge1_Node000001_Node000002" class="edge">
<title>Node1&#45;&gt;Node2</title>
<g id="a_edge1_Node000001_Node000002"><a xlink:title=" ">
<path fill="none" stroke="#63b8ff" d="M225.76,-10C217.82,-10 209.74,-10 201.95,-10"/>
<polygon fill="#63b8ff" stroke="#63b8ff" points="225.73,-13.5 235.73,-10 225.73,-6.5 225.73,-13.5"/>
</a>
</g>
</g>
<!-- Node3 -->
<g id="Node000003" class="node">
<title>Node3</title>
<g id="a_Node000003"><a xlink:href="main_2main_8c.html#a630544a7f0a2cc40d8a7fefab7e2fe70" target="_top" xlink:title=" ">
<polygon fill="white" stroke="#666666" points="58,-20 0,-20 0,0 58,0 58,-20"/>
<text xml:space="preserve" text-anchor="middle" x="29" y="-6.5" font-family="Helvetica,sans-Serif" font-size="10.00">app_main</text>
</a>
</g>
</g>
<!-- Node2&#45;&gt;Node3 -->
<g id="edge2_Node000002_Node000003" class="edge">
<title>Node2&#45;&gt;Node3</title>
<g id="a_edge2_Node000002_Node000003"><a xlink:title=" ">
<path fill="none" stroke="#63b8ff" d="M82.39,-10C74.01,-10 65.81,-10 58.47,-10"/>
<polygon fill="#63b8ff" stroke="#63b8ff" points="82.33,-13.5 92.33,-10 82.33,-6.5 82.33,-13.5"/>
</a>
</g>
</g>
</g>
</svg>
