<?xml version="1.0" encoding="UTF-8" standalone="no"?>
<!DOCTYPE svg PUBLIC "-//W3C//DTD SVG 1.1//EN"
 "http://www.w3.org/Graphics/SVG/1.1/DTD/svg11.dtd">
<!-- Generated by graphviz version 14.1.2 (20260124.0452)
 -->
<!-- Title: modules Pages: 1 -->
<svg width="454pt" height="320pt"
 viewBox="0.00 0.00 454.00 320.00" xmlns="http://www.w3.org/2000/svg" xmlns:xlink="http://www.w3.org/1999/xlink">
<g id="graph0" class="graph" transform="scale(1 1) rotate(0) translate(4 316)">
<title>modules</title>
<g id="clust1" class="cluster">
<title>clusterdir_7b64b14aeba8b5bbb3841d17f1f0cd10</title>
<g id="a_clust1"><a xlink:href="dir_7b64b14aeba8b5bbb3841d17f1f0cd10.html" target="_top" xlink:title="espressif__esp&#45;dsp">
<polygon fill="#edf0f7" stroke="#7f7f7f" stroke-dasharray="5,2" points="8,-8 8,-304 438,-304 438,-8 8,-8"/>
<text xml:space="preserve" text-anchor="middle" x="223" y="-290.5" font-family="Helvetica,sans-Serif" font-size="10.00">espressif__esp&#45;dsp</text>
</a>
</g>
</g>
<g id="clust2" class="cluster">
<title>clusterdir_1a94785b4fd07fa9f86295c704ab286b</title>
<g id="a_clust2"><a xlink:href="dir_1a94785b4fd07fa9f86295c704ab286b.html" target="_top">
<polygon fill="#edf0f7" stroke="#404040" stroke-width="2" points="16,-16 16,-276 430,-276 430,-16 16,-16"/>
</a>
</g>
</g>
<!-- dir_1a94785b4fd07fa9f86295c704ab286b -->
<g id="node1" class="node">
<title>dir_1a94785b4fd07fa9f86295c704ab286b</title>
<text xml:space="preserve" text-anchor="middle" x="67" y="-254.5" font-family="Helvetica,sans-Serif" font-size="10.00">modules</text>
</g>
<!-- dir_e78af46276061306d5e012847576d2b2 -->
<g id="node2" class="node">
<title>dir_e78af46276061306d5e012847576d2b2</title>
<g id="a_node2"><a xlink:href="dir_e78af46276061306d5e012847576d2b2.html" target="_top" xlink:title="common">
<polygon fill="#a2b4d6" stroke="#404040" points="180.75,-268 127.25,-268 127.25,-248 180.75,-248 180.75,-268"/>
<text xml:space="preserve" text-anchor="middle" x="154" y="-254.5" font-family="Helvetica,sans-Serif" font-size="10.00">common</text>
</a>
</g>
</g>
<!-- dir_d889323c3d75be7406c85891426fb089 -->
<g id="node3" class="node">
<title>dir_d889323c3d75be7406c85891426fb089</title>
<g id="a_node3"><a xlink:href="dir_d889323c3d75be7406c85891426fb089.html" target="_top" xlink:title="conv">
<polygon fill="#a2b4d6" stroke="#404040" points="61.5,-212 24.5,-212 24.5,-192 61.5,-192 61.5,-212"/>
<text xml:space="preserve" text-anchor="middle" x="43" y="-198.5" font-family="Helvetica,sans-Serif" font-size="10.00">conv</text>
</a>
</g>
</g>
<!-- dir_e78af46276061306d5e012847576d2b2&#45;&gt;dir_d889323c3d75be7406c85891426fb089 -->
<g id="edge6" class="edge">
<title>dir_e78af46276061306d5e012847576d2b2&#45;&gt;dir_d889323c3d75be7406c85891426fb089</title>
<g id="a_edge6"><a xlink:href="dir_000036_000039.html" target="_top">
<path fill="none" stroke="#63b8ff" d="M129.4,-247.59C110.82,-239.36 85.67,-227.26 67.2,-217.74"/>
<polygon fill="#63b8ff" stroke="#63b8ff" points="69.02,-214.74 58.54,-213.18 65.77,-220.94 69.02,-214.74"/>
</a>
</g>
<g id="a_edge6&#45;headlabel"><a xlink:href="dir_000036_000039.html" target="_top" xlink:title="3">
<text xml:space="preserve" text-anchor="middle" x="72.19" y="-209.69" font-family="Helvetica,sans-Serif" font-size="10.00" fill="#63b8ff">3</text>
</a>
</g>
</g>
<!-- dir_6f0282a56182e11784085c9051410321 -->
<g id="node4" class="node">
<title>dir_6f0282a56182e11784085c9051410321</title>
<g id="a_node4"><a xlink:href="dir_6f0282a56182e11784085c9051410321.html" target="_top" xlink:title="dct">
<polygon fill="#a2b4d6" stroke="#404040" points="329.75,-212 300.25,-212 300.25,-192 329.75,-192 329.75,-212"/>
<text xml:space="preserve" text-anchor="middle" x="315" y="-198.5" font-family="Helvetica,sans-Serif" font-size="10.00">dct</text>
</a>
</g>
</g>
<!-- dir_e78af46276061306d5e012847576d2b2&#45;&gt;dir_6f0282a56182e11784085c9051410321 -->
<g id="edge9" class="edge">
<title>dir_e78af46276061306d5e012847576d2b2&#45;&gt;dir_6f0282a56182e11784085c9051410321</title>
<g id="a_edge9"><a xlink:href="dir_000036_000042.html" target="_top">
<path fill="none" stroke="#63b8ff" d="M177.05,-247.52C202.89,-238.65 245.39,-224.87 282,-212 284.29,-211.2 286.68,-210.33 289.13,-209.46"/>
<polygon fill="#63b8ff" stroke="#63b8ff" points="290.16,-212.81 298.53,-206.32 287.94,-206.17 290.16,-212.81"/>
</a>
</g>
<g id="a_edge9&#45;headlabel"><a xlink:href="dir_000036_000042.html" target="_top" xlink:title="1">
<text xml:space="preserve" text-anchor="middle" x="289.08" y="-212.66" font-family="Helvetica,sans-Serif" font-size="10.00" fill="#63b8ff">1</text>
</a>
</g>
</g>
<!-- dir_0c02408d15b1f96bbde516c6c09437d8 -->
<g id="node5" class="node">
<title>dir_0c02408d15b1f96bbde516c6c09437d8</title>
<g id="a_node5"><a xlink:href="dir_0c02408d15b1f96bbde516c6c09437d8.html" target="_top" xlink:title="dotprod">
<polygon fill="#a2b4d6" stroke="#404040" points="105.12,-44 56.88,-44 56.88,-24 105.12,-24 105.12,-44"/>
<text xml:space="preserve" text-anchor="middle" x="81" y="-30.5" font-family="Helvetica,sans-Serif" font-size="10.00">dotprod</text>
</a>
</g>
</g>
<!-- dir_e78af46276061306d5e012847576d2b2&#45;&gt;dir_0c02408d15b1f96bbde516c6c09437d8 -->
<g id="edge1" class="edge">
<title>dir_e78af46276061306d5e012847576d2b2&#45;&gt;dir_0c02408d15b1f96bbde516c6c09437d8</title>
<g id="a_edge1"><a xlink:href="dir_000036_000043.html" target="_top">
<path fill="none" stroke="#63b8ff" d="M135.16,-247.55C123.89,-239.22 111.02,-226.21 104,-212 78.24,-159.87 73.03,-89.93 75.56,-55.67"/>
<polygon fill="#63b8ff" stroke="#63b8ff" points="79.02,-56.24 76.71,-45.9 72.06,-55.42 79.02,-56.24"/>
</a>
</g>
<g id="a_edge1&#45;headlabel"><a xlink:href="dir_000036_000043.html" target="_top" xlink:title="2">
<text xml:space="preserve" text-anchor="middle" x="81.59" y="-55.14" font-family="Helvetica,sans-Serif" font-size="10.00" fill="#63b8ff">2</text>
</a>
</g>
</g>
<!-- dir_2e6515e08f756e255a623378cbf0a6d0 -->
<g id="node6" class="node">
<title>dir_2e6515e08f756e255a623378cbf0a6d0</title>
<g id="a_node6"><a xlink:href="dir_2e6515e08f756e255a623378cbf0a6d0.html" target="_top" xlink:title="fft">
<polygon fill="#a2b4d6" stroke="#404040" points="214.4,-156 185.6,-156 185.6,-136 214.4,-136 214.4,-156"/>
<text xml:space="preserve" text-anchor="middle" x="200" y="-142.5" font-family="Helvetica,sans-Serif" font-size="10.00">fft</text>
</a>
</g>
</g>
<!-- dir_e78af46276061306d5e012847576d2b2&#45;&gt;dir_2e6515e08f756e255a623378cbf0a6d0 -->
<g id="edge8" class="edge">
<title>dir_e78af46276061306d5e012847576d2b2&#45;&gt;dir_2e6515e08f756e255a623378cbf0a6d0</title>
<g id="a_edge8"><a xlink:href="dir_000036_000051.html" target="_top">
<path fill="none" stroke="#63b8ff" d="M140.09,-247.79C126.94,-234.84 111.85,-210.74 122,-192 127.57,-181.72 154.17,-166.22 175.01,-156.35"/>
<polygon fill="#63b8ff" stroke="#63b8ff" points="176.17,-159.67 183.86,-152.39 173.3,-153.28 176.17,-159.67"/>
</a>
</g>
<g id="a_edge8&#45;headlabel"><a xlink:href="dir_000036_000051.html" target="_top" xlink:title="2">
<text xml:space="preserve" text-anchor="middle" x="175.43" y="-159.61" font-family="Helvetica,sans-Serif" font-size="10.00" fill="#63b8ff">2</text>
</a>
</g>
</g>
<!-- dir_5f2e64e9fe690f961d00e914be24c898 -->
<g id="node7" class="node">
<title>dir_5f2e64e9fe690f961d00e914be24c898</title>
<g id="a_node7"><a xlink:href="dir_5f2e64e9fe690f961d00e914be24c898.html" target="_top" xlink:title="fir">
<polygon fill="#a2b4d6" stroke="#404040" points="168.4,-212 139.6,-212 139.6,-192 168.4,-192 168.4,-212"/>
<text xml:space="preserve" text-anchor="middle" x="154" y="-198.5" font-family="Helvetica,sans-Serif" font-size="10.00">fir</text>
</a>
</g>
</g>
<!-- dir_e78af46276061306d5e012847576d2b2&#45;&gt;dir_5f2e64e9fe690f961d00e914be24c898 -->
<g id="edge3" class="edge">
<title>dir_e78af46276061306d5e012847576d2b2&#45;&gt;dir_5f2e64e9fe690f961d00e914be24c898</title>
<g id="a_edge3"><a xlink:href="dir_000036_000052.html" target="_top">
<path fill="none" stroke="#63b8ff" d="M148.73,-247.59C147.42,-241.01 146.98,-231.96 147.41,-223.73"/>
<polygon fill="#63b8ff" stroke="#63b8ff" points="150.89,-224.14 148.58,-213.8 143.94,-223.33 150.89,-224.14"/>
</a>
</g>
<g id="a_edge3&#45;headlabel"><a xlink:href="dir_000036_000052.html" target="_top" xlink:title="2">
<text xml:space="preserve" text-anchor="middle" x="153.47" y="-223.04" font-family="Helvetica,sans-Serif" font-size="10.00" fill="#63b8ff">2</text>
</a>
</g>
</g>
<!-- dir_d3a7bf488950df7c258d146af03d9440 -->
<g id="node8" class="node">
<title>dir_d3a7bf488950df7c258d146af03d9440</title>
<g id="a_node8"><a xlink:href="dir_d3a7bf488950df7c258d146af03d9440.html" target="_top" xlink:title="iir">
<polygon fill="#a2b4d6" stroke="#404040" points="215.4,-212 186.6,-212 186.6,-192 215.4,-192 215.4,-212"/>
<text xml:space="preserve" text-anchor="middle" x="201" y="-198.5" font-family="Helvetica,sans-Serif" font-size="10.00">iir</text>
</a>
</g>
</g>
<!-- dir_e78af46276061306d5e012847576d2b2&#45;&gt;dir_d3a7bf488950df7c258d146af03d9440 -->
<g id="edge4" class="edge">
<title>dir_e78af46276061306d5e012847576d2b2&#45;&gt;dir_d3a7bf488950df7c258d146af03d9440</title>
<g id="a_edge4"><a xlink:href="dir_000036_000090.html" target="_top">
<path fill="none" stroke="#63b8ff" d="M156.92,-247.59C161.95,-240.08 170.93,-229.35 179.59,-220.3"/>
<polygon fill="#63b8ff" stroke="#63b8ff" points="181.95,-222.89 186.59,-213.36 177.02,-217.92 181.95,-222.89"/>
</a>
</g>
<g id="a_edge4&#45;headlabel"><a xlink:href="dir_000036_000090.html" target="_top" xlink:title="2">
<text xml:space="preserve" text-anchor="middle" x="182.48" y="-222.87" font-family="Helvetica,sans-Serif" font-size="10.00" fill="#63b8ff">2</text>
</a>
</g>
</g>
<!-- dir_ccd16ee69178f7f8a2cbd33b34cfbb18 -->
<g id="node10" class="node">
<title>dir_ccd16ee69178f7f8a2cbd33b34cfbb18</title>
<g id="a_node10"><a xlink:href="dir_ccd16ee69178f7f8a2cbd33b34cfbb18.html" target="_top" xlink:title="math">
<polygon fill="#a2b4d6" stroke="#404040" points="367.88,-44 330.12,-44 330.12,-24 367.88,-24 367.88,-44"/>
<text xml:space="preserve" text-anchor="middle" x="349" y="-30.5" font-family="Helvetica,sans-Serif" font-size="10.00">math</text>
</a>
</g>
</g>
<!-- dir_e78af46276061306d5e012847576d2b2&#45;&gt;dir_ccd16ee69178f7f8a2cbd33b34cfbb18 -->
<g id="edge2" class="edge">
<title>dir_e78af46276061306d5e012847576d2b2&#45;&gt;dir_ccd16ee69178f7f8a2cbd33b34cfbb18</title>
<g id="a_edge2"><a xlink:href="dir_000036_000162.html" target="_top">
<path fill="none" stroke="#63b8ff" d="M181.21,-253.64C225.84,-248.04 310.81,-235.05 330,-212 367.35,-167.14 354.85,-91.61 349.52,-55.47"/>
<polygon fill="#63b8ff" stroke="#63b8ff" points="353.04,-55.38 348.23,-45.94 346.1,-56.32 353.04,-55.38"/>
</a>
</g>
<g id="a_edge2&#45;headlabel"><a xlink:href="dir_000036_000162.html" target="_top" xlink:title="1">
<text xml:space="preserve" text-anchor="middle" x="356.13" y="-53.57" font-family="Helvetica,sans-Serif" font-size="10.00" fill="#63b8ff">1</text>
</a>
</g>
</g>
<!-- dir_0c394f99e8354c91f0eeb3e30368bc59 -->
<g id="node11" class="node">
<title>dir_0c394f99e8354c91f0eeb3e30368bc59</title>
<g id="a_node11"><a xlink:href="dir_0c394f99e8354c91f0eeb3e30368bc59.html" target="_top" xlink:title="matrix">
<polygon fill="#a2b4d6" stroke="#404040" points="154.5,-100 111.5,-100 111.5,-80 154.5,-80 154.5,-100"/>
<text xml:space="preserve" text-anchor="middle" x="133" y="-86.5" font-family="Helvetica,sans-Serif" font-size="10.00">matrix</text>
</a>
</g>
</g>
<!-- dir_e78af46276061306d5e012847576d2b2&#45;&gt;dir_0c394f99e8354c91f0eeb3e30368bc59 -->
<g id="edge10" class="edge">
<title>dir_e78af46276061306d5e012847576d2b2&#45;&gt;dir_0c394f99e8354c91f0eeb3e30368bc59</title>
<g id="a_edge10"><a xlink:href="dir_000036_000163.html" target="_top">
<path fill="none" stroke="#63b8ff" d="M139.2,-247.58C130.43,-238.86 120.74,-225.27 115,-212 104.86,-188.55 104.91,-181.38 102,-156 100.99,-147.17 100,-144.66 102,-136 104.13,-126.81 108.4,-117.33 113.3,-109.45"/>
<polygon fill="#63b8ff" stroke="#63b8ff" points="116.09,-111.57 119.1,-101.41 110.42,-107.48 116.09,-111.57"/>
</a>
</g>
<g id="a_edge10&#45;headlabel"><a xlink:href="dir_000036_000163.html" target="_top" xlink:title="1">
<text xml:space="preserve" text-anchor="middle" x="117.18" y="-111.42" font-family="Helvetica,sans-Serif" font-size="10.00" fill="#63b8ff">1</text>
</a>
</g>
</g>
<!-- dir_67c4e8b77b4357a93ff15d0d28548721 -->
<g id="node12" class="node">
<title>dir_67c4e8b77b4357a93ff15d0d28548721</title>
<g id="a_node12"><a xlink:href="dir_67c4e8b77b4357a93ff15d0d28548721.html" target="_top" xlink:title="support">
<polygon fill="#a2b4d6" stroke="#404040" points="282.12,-212 233.88,-212 233.88,-192 282.12,-192 282.12,-212"/>
<text xml:space="preserve" text-anchor="middle" x="258" y="-198.5" font-family="Helvetica,sans-Serif" font-size="10.00">support</text>
</a>
</g>
</g>
<!-- dir_e78af46276061306d5e012847576d2b2&#45;&gt;dir_67c4e8b77b4357a93ff15d0d28548721 -->
<g id="edge7" class="edge">
<title>dir_e78af46276061306d5e012847576d2b2&#45;&gt;dir_67c4e8b77b4357a93ff15d0d28548721</title>
<g id="a_edge7"><a xlink:href="dir_000036_000182.html" target="_top">
<path fill="none" stroke="#63b8ff" d="M166.85,-247.59C181.26,-239.24 204.74,-226.92 224.34,-217.34"/>
<polygon fill="#63b8ff" stroke="#63b8ff" points="225.6,-220.62 233.1,-213.13 222.57,-214.31 225.6,-220.62"/>
</a>
</g>
<g id="a_edge7&#45;headlabel"><a xlink:href="dir_000036_000182.html" target="_top" xlink:title="6">
<text xml:space="preserve" text-anchor="middle" x="224.95" y="-220.58" font-family="Helvetica,sans-Serif" font-size="10.00" fill="#63b8ff">6</text>
</a>
</g>
</g>
<!-- dir_95624ebda436e232844a7007340a6b2b -->
<g id="node13" class="node">
<title>dir_95624ebda436e232844a7007340a6b2b</title>
<g id="a_node13"><a xlink:href="dir_95624ebda436e232844a7007340a6b2b.html" target="_top" xlink:title="windows">
<polygon fill="#a2b4d6" stroke="#404040" points="422.12,-212 367.88,-212 367.88,-192 422.12,-192 422.12,-212"/>
<text xml:space="preserve" text-anchor="middle" x="395" y="-198.5" font-family="Helvetica,sans-Serif" font-size="10.00">windows</text>
</a>
</g>
</g>
<!-- dir_e78af46276061306d5e012847576d2b2&#45;&gt;dir_95624ebda436e232844a7007340a6b2b -->
<g id="edge5" class="edge">
<title>dir_e78af46276061306d5e012847576d2b2&#45;&gt;dir_95624ebda436e232844a7007340a6b2b</title>
<g id="a_edge5"><a xlink:href="dir_000036_000192.html" target="_top">
<path fill="none" stroke="#63b8ff" d="M181.18,-250.91C224.03,-241.31 307.45,-222.62 356.46,-211.63"/>
<polygon fill="#63b8ff" stroke="#63b8ff" points="357.08,-215.08 366.08,-209.48 355.55,-208.25 357.08,-215.08"/>
</a>
</g>
<g id="a_edge5&#45;headlabel"><a xlink:href="dir_000036_000192.html" target="_top" xlink:title="1">
<text xml:space="preserve" text-anchor="middle" x="355.67" y="-214.81" font-family="Helvetica,sans-Serif" font-size="10.00" fill="#63b8ff">1</text>
</a>
</g>
</g>
<!-- dir_d889323c3d75be7406c85891426fb089&#45;&gt;dir_e78af46276061306d5e012847576d2b2 -->
<g id="edge11" class="edge">
<title>dir_d889323c3d75be7406c85891426fb089&#45;&gt;dir_e78af46276061306d5e012847576d2b2</title>
<g id="a_edge11"><a xlink:href="dir_000039_000036.html" target="_top">
<path fill="none" stroke="#63b8ff" d="M61.87,-209.9C80.72,-218.02 109.36,-231.73 129.81,-242.27"/>
<polygon fill="#63b8ff" stroke="#63b8ff" points="128.11,-245.33 138.59,-246.89 131.37,-239.14 128.11,-245.33"/>
</a>
</g>
<g id="a_edge11&#45;headlabel"><a xlink:href="dir_000039_000036.html" target="_top" xlink:title="8">
<text xml:space="preserve" text-anchor="middle" x="124.95" y="-243.38" font-family="Helvetica,sans-Serif" font-size="10.00" fill="#63b8ff">8</text>
</a>
</g>
</g>
<!-- dir_6f0282a56182e11784085c9051410321&#45;&gt;dir_e78af46276061306d5e012847576d2b2 -->
<g id="edge12" class="edge">
<title>dir_6f0282a56182e11784085c9051410321&#45;&gt;dir_e78af46276061306d5e012847576d2b2</title>
<g id="a_edge12"><a xlink:href="dir_000042_000036.html" target="_top">
<path fill="none" stroke="#63b8ff" d="M299.52,-212.17C263.38,-224.86 221.59,-238.42 191.94,-247.26"/>
<polygon fill="#63b8ff" stroke="#63b8ff" points="191.27,-243.81 182.66,-249.98 193.24,-250.53 191.27,-243.81"/>
</a>
</g>
<g id="a_edge12&#45;headlabel"><a xlink:href="dir_000042_000036.html" target="_top" xlink:title="4">
<text xml:space="preserve" text-anchor="middle" x="192.47" y="-237" font-family="Helvetica,sans-Serif" font-size="10.00" fill="#63b8ff">4</text>
</a>
</g>
</g>
<!-- dir_6f0282a56182e11784085c9051410321&#45;&gt;dir_2e6515e08f756e255a623378cbf0a6d0 -->
<g id="edge13" class="edge">
<title>dir_6f0282a56182e11784085c9051410321&#45;&gt;dir_2e6515e08f756e255a623378cbf0a6d0</title>
<g id="a_edge13"><a xlink:href="dir_000042_000051.html" target="_top">
<path fill="none" stroke="#63b8ff" d="M299.97,-193.94C280.92,-185 247.83,-169.46 224.97,-158.73"/>
<polygon fill="#63b8ff" stroke="#63b8ff" points="226.58,-155.62 216.04,-154.53 223.61,-161.95 226.58,-155.62"/>
</a>
</g>
<g id="a_edge13&#45;headlabel"><a xlink:href="dir_000042_000051.html" target="_top" xlink:title="3">
<text xml:space="preserve" text-anchor="middle" x="229.67" y="-150.43" font-family="Helvetica,sans-Serif" font-size="10.00" fill="#63b8ff">3</text>
</a>
</g>
</g>
<!-- dir_0c02408d15b1f96bbde516c6c09437d8&#45;&gt;dir_e78af46276061306d5e012847576d2b2 -->
<g id="edge14" class="edge">
<title>dir_0c02408d15b1f96bbde516c6c09437d8&#45;&gt;dir_e78af46276061306d5e012847576d2b2</title>
<g id="a_edge14"><a xlink:href="dir_000043_000036.html" target="_top">
<path fill="none" stroke="#63b8ff" d="M84.95,-44.4C90.03,-71.77 92.95,-153.21 122,-212 126.99,-222.1 134.94,-231.6 141.86,-239.24"/>
<polygon fill="#63b8ff" stroke="#63b8ff" points="139.16,-241.46 148.51,-246.44 144.3,-236.72 139.16,-241.46"/>
</a>
</g>
<g id="a_edge14&#45;headlabel"><a xlink:href="dir_000043_000036.html" target="_top" xlink:title="5">
<text xml:space="preserve" text-anchor="middle" x="135.66" y="-238.36" font-family="Helvetica,sans-Serif" font-size="10.00" fill="#63b8ff">5</text>
</a>
</g>
</g>
<!-- dir_2e6515e08f756e255a623378cbf0a6d0&#45;&gt;dir_e78af46276061306d5e012847576d2b2 -->
<g id="edge15" class="edge">
<title>dir_2e6515e08f756e255a623378cbf0a6d0&#45;&gt;dir_e78af46276061306d5e012847576d2b2</title>
<g id="a_edge15"><a xlink:href="dir_000051_000036.html" target="_top">
<path fill="none" stroke="#63b8ff" d="M188.17,-156.44C172.01,-166.31 145.55,-181.75 140,-192 132.07,-206.64 139.54,-224.55 146.58,-237.86"/>
<polygon fill="#63b8ff" stroke="#63b8ff" points="143.43,-239.39 151.31,-246.47 149.56,-236.02 143.43,-239.39"/>
</a>
</g>
<g id="a_edge15&#45;headlabel"><a xlink:href="dir_000051_000036.html" target="_top" xlink:title="21">
<text xml:space="preserve" text-anchor="middle" x="139.94" y="-235.44" font-family="Helvetica,sans-Serif" font-size="10.00" fill="#63b8ff">21</text>
</a>
</g>
</g>
<!-- dir_2e6515e08f756e255a623378cbf0a6d0&#45;&gt;dir_0c394f99e8354c91f0eeb3e30368bc59 -->
<g id="edge16" class="edge">
<title>dir_2e6515e08f756e255a623378cbf0a6d0&#45;&gt;dir_0c394f99e8354c91f0eeb3e30368bc59</title>
<g id="a_edge16"><a xlink:href="dir_000051_000163.html" target="_top">
<path fill="none" stroke="#63b8ff" d="M188.33,-135.59C178.72,-127.85 164.87,-116.69 153.43,-107.47"/>
<polygon fill="#63b8ff" stroke="#63b8ff" points="155.7,-104.8 145.72,-101.25 151.3,-110.25 155.7,-104.8"/>
</a>
</g>
<g id="a_edge16&#45;headlabel"><a xlink:href="dir_000051_000163.html" target="_top" xlink:title="1">
<text xml:space="preserve" text-anchor="middle" x="159.1" y="-100.39" font-family="Helvetica,sans-Serif" font-size="10.00" fill="#63b8ff">1</text>
</a>
</g>
</g>
<!-- dir_5f2e64e9fe690f961d00e914be24c898&#45;&gt;dir_e78af46276061306d5e012847576d2b2 -->
<g id="edge17" class="edge">
<title>dir_5f2e64e9fe690f961d00e914be24c898&#45;&gt;dir_e78af46276061306d5e012847576d2b2</title>
<g id="a_edge17"><a xlink:href="dir_000052_000036.html" target="_top">
<path fill="none" stroke="#63b8ff" d="M159.25,-212.3C160.59,-218.93 161.03,-228.11 160.58,-236.43"/>
<polygon fill="#63b8ff" stroke="#63b8ff" points="157.13,-235.75 159.44,-246.09 164.08,-236.57 157.13,-235.75"/>
</a>
</g>
<g id="a_edge17&#45;headlabel"><a xlink:href="dir_000052_000036.html" target="_top" xlink:title="13">
<text xml:space="preserve" text-anchor="middle" x="154.55" y="-229.85" font-family="Helvetica,sans-Serif" font-size="10.00" fill="#63b8ff">13</text>
</a>
</g>
</g>
<!-- dir_d3a7bf488950df7c258d146af03d9440&#45;&gt;dir_e78af46276061306d5e012847576d2b2 -->
<g id="edge18" class="edge">
<title>dir_d3a7bf488950df7c258d146af03d9440&#45;&gt;dir_e78af46276061306d5e012847576d2b2</title>
<g id="a_edge18"><a xlink:href="dir_000090_000036.html" target="_top">
<path fill="none" stroke="#63b8ff" d="M198.15,-212.3C193.16,-219.78 184.2,-230.5 175.53,-239.57"/>
<polygon fill="#63b8ff" stroke="#63b8ff" points="173.15,-237 168.53,-246.53 178.09,-241.96 173.15,-237"/>
</a>
</g>
<g id="a_edge18&#45;headlabel"><a xlink:href="dir_000090_000036.html" target="_top" xlink:title="4">
<text xml:space="preserve" text-anchor="middle" x="172.63" y="-230.01" font-family="Helvetica,sans-Serif" font-size="10.00" fill="#63b8ff">4</text>
</a>
</g>
</g>
<!-- dir_0469dbe69b06e7cedb52b012fa55f8d0 -->
<g id="node9" class="node">
<title>dir_0469dbe69b06e7cedb52b012fa55f8d0</title>
<g id="a_node9"><a xlink:href="dir_0469dbe69b06e7cedb52b012fa55f8d0.html" target="_top" xlink:title="kalman">
<polygon fill="#a2b4d6" stroke="#404040" points="167.75,-156 120.25,-156 120.25,-136 167.75,-136 167.75,-156"/>
<text xml:space="preserve" text-anchor="middle" x="144" y="-142.5" font-family="Helvetica,sans-Serif" font-size="10.00">kalman</text>
</a>
</g>
</g>
<!-- dir_0469dbe69b06e7cedb52b012fa55f8d0&#45;&gt;dir_0c394f99e8354c91f0eeb3e30368bc59 -->
<g id="edge19" class="edge">
<title>dir_0469dbe69b06e7cedb52b012fa55f8d0&#45;&gt;dir_0c394f99e8354c91f0eeb3e30368bc59</title>
<g id="a_edge19"><a xlink:href="dir_000131_000163.html" target="_top">
<path fill="none" stroke="#63b8ff" d="M142.08,-135.59C140.73,-128.93 138.86,-119.75 137.16,-111.44"/>
<polygon fill="#63b8ff" stroke="#63b8ff" points="140.62,-110.88 135.2,-101.78 133.76,-112.28 140.62,-110.88"/>
</a>
</g>
<g id="a_edge19&#45;headlabel"><a xlink:href="dir_000131_000163.html" target="_top" xlink:title="1">
<text xml:space="preserve" text-anchor="middle" x="143.82" y="-108.85" font-family="Helvetica,sans-Serif" font-size="10.00" fill="#63b8ff">1</text>
</a>
</g>
</g>
<!-- dir_ccd16ee69178f7f8a2cbd33b34cfbb18&#45;&gt;dir_e78af46276061306d5e012847576d2b2 -->
<g id="edge20" class="edge">
<title>dir_ccd16ee69178f7f8a2cbd33b34cfbb18&#45;&gt;dir_e78af46276061306d5e012847576d2b2</title>
<g id="a_edge20"><a xlink:href="dir_000162_000036.html" target="_top">
<path fill="none" stroke="#63b8ff" d="M355.8,-44.44C369.21,-73.38 389.75,-161.86 348,-212 328.72,-235.15 243.09,-248.15 192.13,-253.72"/>
<polygon fill="#63b8ff" stroke="#63b8ff" points="191.99,-250.21 182.4,-254.73 192.71,-257.17 191.99,-250.21"/>
</a>
</g>
<g id="a_edge20&#45;headlabel"><a xlink:href="dir_000162_000036.html" target="_top" xlink:title="6">
<text xml:space="preserve" text-anchor="middle" x="193.76" y="-243.67" font-family="Helvetica,sans-Serif" font-size="10.00" fill="#63b8ff">6</text>
</a>
</g>
</g>
<!-- dir_0c394f99e8354c91f0eeb3e30368bc59&#45;&gt;dir_e78af46276061306d5e012847576d2b2 -->
<g id="edge23" class="edge">
<title>dir_0c394f99e8354c91f0eeb3e30368bc59&#45;&gt;dir_e78af46276061306d5e012847576d2b2</title>
<g id="a_edge23"><a xlink:href="dir_000163_000036.html" target="_top">
<path fill="none" stroke="#63b8ff" d="M133.92,-100.18C130.56,-108.96 123.06,-122.78 120,-136 118,-144.66 118.99,-147.17 120,-156 122.91,-181.38 122.86,-188.55 133,-212 136.9,-221.02 142.63,-230.19 147.42,-237.87"/>
<polygon fill="#63b8ff" stroke="#63b8ff" points="144.33,-239.54 152.5,-246.29 150.32,-235.92 144.33,-239.54"/>
</a>
</g>
<g id="a_edge23&#45;headlabel"><a xlink:href="dir_000163_000036.html" target="_top" xlink:title="7">
<text xml:space="preserve" text-anchor="middle" x="140.83" y="-235.72" font-family="Helvetica,sans-Serif" font-size="10.00" fill="#63b8ff">7</text>
</a>
</g>
</g>
<!-- dir_0c394f99e8354c91f0eeb3e30368bc59&#45;&gt;dir_0c02408d15b1f96bbde516c6c09437d8 -->
<g id="edge21" class="edge">
<title>dir_0c394f99e8354c91f0eeb3e30368bc59&#45;&gt;dir_0c02408d15b1f96bbde516c6c09437d8</title>
<g id="a_edge21"><a xlink:href="dir_000163_000043.html" target="_top">
<path fill="none" stroke="#63b8ff" d="M123.94,-79.59C116.78,-72.16 106.59,-61.58 97.93,-52.58"/>
<polygon fill="#63b8ff" stroke="#63b8ff" points="100.46,-50.16 91,-45.39 95.42,-55.02 100.46,-50.16"/>
</a>
</g>
<g id="a_edge21&#45;headlabel"><a xlink:href="dir_000163_000043.html" target="_top" xlink:title="2">
<text xml:space="preserve" text-anchor="middle" x="103.95" y="-46.19" font-family="Helvetica,sans-Serif" font-size="10.00" fill="#63b8ff">2</text>
</a>
</g>
</g>
<!-- dir_0c394f99e8354c91f0eeb3e30368bc59&#45;&gt;dir_ccd16ee69178f7f8a2cbd33b34cfbb18 -->
<g id="edge22" class="edge">
<title>dir_0c394f99e8354c91f0eeb3e30368bc59&#45;&gt;dir_ccd16ee69178f7f8a2cbd33b34cfbb18</title>
<g id="a_edge22"><a xlink:href="dir_000163_000162.html" target="_top">
<path fill="none" stroke="#63b8ff" d="M154.9,-83.53C193.71,-73.82 274.6,-53.6 318.72,-42.57"/>
<polygon fill="#63b8ff" stroke="#63b8ff" points="319.54,-45.97 328.39,-40.15 317.84,-39.18 319.54,-45.97"/>
</a>
</g>
<g id="a_edge22&#45;headlabel"><a xlink:href="dir_000163_000162.html" target="_top" xlink:title="1">
<text xml:space="preserve" text-anchor="middle" x="318.21" y="-45.73" font-family="Helvetica,sans-Serif" font-size="10.00" fill="#63b8ff">1</text>
</a>
</g>
</g>
<!-- dir_67c4e8b77b4357a93ff15d0d28548721&#45;&gt;dir_e78af46276061306d5e012847576d2b2 -->
<g id="edge25" class="edge">
<title>dir_67c4e8b77b4357a93ff15d0d28548721&#45;&gt;dir_e78af46276061306d5e012847576d2b2</title>
<g id="a_edge25"><a xlink:href="dir_000182_000036.html" target="_top">
<path fill="none" stroke="#63b8ff" d="M245.02,-212.48C230.63,-220.81 207.28,-233.07 187.76,-242.61"/>
<polygon fill="#63b8ff" stroke="#63b8ff" points="186.25,-239.46 178.75,-246.94 189.28,-245.77 186.25,-239.46"/>
</a>
</g>
<g id="a_edge25&#45;headlabel"><a xlink:href="dir_000182_000036.html" target="_top" xlink:title="16">
<text xml:space="preserve" text-anchor="middle" x="186.89" y="-232.49" font-family="Helvetica,sans-Serif" font-size="10.00" fill="#63b8ff">16</text>
</a>
</g>
</g>
<!-- dir_67c4e8b77b4357a93ff15d0d28548721&#45;&gt;dir_2e6515e08f756e255a623378cbf0a6d0 -->
<g id="edge24" class="edge">
<title>dir_67c4e8b77b4357a93ff15d0d28548721&#45;&gt;dir_2e6515e08f756e255a623378cbf0a6d0</title>
<g id="a_edge24"><a xlink:href="dir_000182_000051.html" target="_top">
<path fill="none" stroke="#63b8ff" d="M247.9,-191.59C239.75,-184.01 228.07,-173.13 218.28,-164.02"/>
<polygon fill="#63b8ff" stroke="#63b8ff" points="220.8,-161.58 211.09,-157.33 216.03,-166.71 220.8,-161.58"/>
</a>
</g>
<g id="a_edge24&#45;headlabel"><a xlink:href="dir_000182_000051.html" target="_top" xlink:title="2">
<text xml:space="preserve" text-anchor="middle" x="224.26" y="-157.42" font-family="Helvetica,sans-Serif" font-size="10.00" fill="#63b8ff">2</text>
</a>
</g>
</g>
</g>
</svg>
