<?xml version="1.0" encoding="UTF-8" standalone="no"?>
<!DOCTYPE svg PUBLIC "-//W3C//DTD SVG 1.1//EN"
 "http://www.w3.org/Graphics/SVG/1.1/DTD/svg11.dtd">
<!-- Generated by graphviz version 14.1.2 (20260124.0452)
 -->
<!-- Title: windows Pages: 1 -->
<!--zoomable 152 -->

<svg id="main" version="1.1" xmlns="http://www.w3.org/2000/svg" xmlns:xlink="http://www.w3.org/1999/xlink" xml:space="preserve" onload="init(evt)">

<style type="text/css"><![CDATA[
.node, .edge {opacity: 0.7;}
.node.selected, .edge.selected {opacity: 1;}
.edge:hover path { stroke: red; }
.edge:hover polygon { stroke: red; fill: red; }
]]></style>

<defs>
  <circle id="rim" cx="0" cy="0" r="7"/>
  <circle id="rim2" cx="0" cy="0" r="3.5"/>
  <g id="zoomPlus">
    <use xlink:href="#rim" fill="#404040"><set attributeName="fill" to="#808080" begin="zoomplus.mouseover" end="zoomplus.mouseout"/></use>
    <path d="M-4,0h8M0,-4v8" fill="none" stroke="white" stroke-width="1.5" pointer-events="none"/>
  </g>
  <g id="zoomMin">
    <use xlink:href="#rim" fill="#404040"><set attributeName="fill" to="#808080" begin="zoomminus.mouseover" end="zoomminus.mouseout"/></use>
    <path d="M-4,0h8" fill="none" stroke="white" stroke-width="1.5" pointer-events="none"/>
  </g>
  <g id="arrowUp" transform="translate(30 24)">
    <use xlink:href="#rim"/>
    <path pointer-events="none" fill="none" stroke="white" stroke-width="1.5" d="M0,-3.0v7 M-2.5,-0.5L0,-3.0L2.5,-0.5"/>
  </g>
  <g id="arrowRight" transform="rotate(90) translate(36 -43)">
    <use xlink:href="#rim"/>
    <path pointer-events="none" fill="none" stroke="white" stroke-width="1.5" d="M0,-3.0v7 M-2.5,-0.5L0,-3.0L2.5,-0.5"/>
  </g>
  <g id="arrowDown" transform="rotate(180) translate(-30 -48)">
    <use xlink:href="#rim"/>
    <path pointer-events="none" fill="none" stroke="white" stroke-width="1.5" d="M0,-3.0v7 M-2.5,-0.5L0,-3.0L2.5,-0.5"/>
  </g>
  <g id="arrowLeft" transform="rotate(270) translate(-36 17)">
    <use xlink:href="#rim"/>
    <path pointer-events="none" fill="none" stroke="white" stroke-width="1.5" d="M0,-3.0v7 M-2.5,-0.5L0,-3.0L2.5,-0.5"/>
  </g>
  <g id="resetDef">
    <use xlink:href="#rim2" fill="#404040"><set attributeName="fill" to="#808080" begin="reset.mouseover" end="reset.mouseout"/></use>
  </g>
</defs>
<script type="application/ecmascript">
var viewWidth = 509;
var viewHeight = 152;
var sectionId = 'dynsection-0';
</script>
<script type="application/ecmascript" xlink:href="svg.min.js"/>
<svg id="graph" class="graph">
<g id="viewport">
<title>windows</title>
<g id="clust1" class="cluster">
<title>clusterdir_1a94785b4fd07fa9f86295c704ab286b</title>
<g id="a_clust1"><a xlink:href="dir_1a94785b4fd07fa9f86295c704ab286b.html" target="_top" xlink:title="modules">
<polygon fill="#edf0f7" stroke="#7f7f7f" stroke-dasharray="5,2" points="8,-8 8,-136 493,-136 493,-8 8,-8"/>
<text xml:space="preserve" text-anchor="middle" x="250.5" y="-122.5" font-family="Helvetica,sans-Serif" font-size="10.00">modules</text>
</a>
</g>
</g>
<g id="clust2" class="cluster">
<title>clusterdir_95624ebda436e232844a7007340a6b2b</title>
<g id="a_clust2"><a xlink:href="dir_95624ebda436e232844a7007340a6b2b.html" target="_top">
<polygon fill="#edf0f7" stroke="#404040" stroke-width="2" points="16,-16 16,-108 485,-108 485,-16 16,-16"/>
</a>
</g>
</g>
<!-- dir_95624ebda436e232844a7007340a6b2b -->
<g id="node1" class="node">
<title>dir_95624ebda436e232844a7007340a6b2b</title>
<text xml:space="preserve" text-anchor="middle" x="159" y="-86.5" font-family="Helvetica,sans-Serif" font-size="10.00">windows</text>
</g>
<!-- dir_e878e923ef12715a74c793cf72e4f313 -->
<g id="node2" class="node">
<title>dir_e878e923ef12715a74c793cf72e4f313</title>
<g id="a_node2"><a xlink:href="dir_e878e923ef12715a74c793cf72e4f313.html" target="_top" xlink:title="blackman">
<polygon fill="#a2b4d6" stroke="#404040" points="82,-44 24,-44 24,-24 82,-24 82,-44"/>
<text xml:space="preserve" text-anchor="middle" x="53" y="-30.5" font-family="Helvetica,sans-Serif" font-size="10.00">blackman</text>
</a>
</g>
</g>
<!-- dir_3d8f91d165c61940606cc67fb2b386a2 -->
<g id="node3" class="node">
<title>dir_3d8f91d165c61940606cc67fb2b386a2</title>
<g id="a_node3"><a xlink:href="dir_3d8f91d165c61940606cc67fb2b386a2.html" target="_top" xlink:title="blackman_harris">
<polygon fill="#a2b4d6" stroke="#404040" points="187.62,-44 100.38,-44 100.38,-24 187.62,-24 187.62,-44"/>
<text xml:space="preserve" text-anchor="middle" x="144" y="-30.5" font-family="Helvetica,sans-Serif" font-size="10.00">blackman_harris</text>
</a>
</g>
</g>
<!-- dir_a953ba1f31684a48ed0144a63a293ae9 -->
<g id="node4" class="node">
<title>dir_a953ba1f31684a48ed0144a63a293ae9</title>
<g id="a_node4"><a xlink:href="dir_a953ba1f31684a48ed0144a63a293ae9.html" target="_top" xlink:title="blackman_nuttall">
<polygon fill="#a2b4d6" stroke="#404040" points="294.75,-44 205.25,-44 205.25,-24 294.75,-24 294.75,-44"/>
<text xml:space="preserve" text-anchor="middle" x="250" y="-30.5" font-family="Helvetica,sans-Serif" font-size="10.00">blackman_nuttall</text>
</a>
</g>
</g>
<!-- dir_cc06919342db86795a48353da98f8a52 -->
<g id="node5" class="node">
<title>dir_cc06919342db86795a48353da98f8a52</title>
<g id="a_node5"><a xlink:href="dir_cc06919342db86795a48353da98f8a52.html" target="_top" xlink:title="flat_top">
<polygon fill="#a2b4d6" stroke="#404040" points="361.12,-44 312.88,-44 312.88,-24 361.12,-24 361.12,-44"/>
<text xml:space="preserve" text-anchor="middle" x="337" y="-30.5" font-family="Helvetica,sans-Serif" font-size="10.00">flat_top</text>
</a>
</g>
</g>
<!-- dir_921d70230c427007d8b7307843a5136d -->
<g id="node6" class="node">
<title>dir_921d70230c427007d8b7307843a5136d</title>
<g id="a_node6"><a xlink:href="dir_921d70230c427007d8b7307843a5136d.html" target="_top" xlink:title="hann">
<polygon fill="#a2b4d6" stroke="#404040" points="416.5,-44 379.5,-44 379.5,-24 416.5,-24 416.5,-44"/>
<text xml:space="preserve" text-anchor="middle" x="398" y="-30.5" font-family="Helvetica,sans-Serif" font-size="10.00">hann</text>
</a>
</g>
</g>
<!-- dir_b98ee8c279438f4b21bd61b97608bcde -->
<g id="node7" class="node">
<title>dir_b98ee8c279438f4b21bd61b97608bcde</title>
<g id="a_node7"><a xlink:href="dir_b98ee8c279438f4b21bd61b97608bcde.html" target="_top" xlink:title="include">
<polygon fill="#a2b4d6" stroke="#404040" points="316.38,-100 269.62,-100 269.62,-80 316.38,-80 316.38,-100"/>
<text xml:space="preserve" text-anchor="middle" x="293" y="-86.5" font-family="Helvetica,sans-Serif" font-size="10.00">include</text>
</a>
</g>
</g>
<!-- dir_b98ee8c279438f4b21bd61b97608bcde&#45;&gt;dir_e878e923ef12715a74c793cf72e4f313 -->
<g id="edge6" class="edge">
<title>dir_b98ee8c279438f4b21bd61b97608bcde&#45;&gt;dir_e878e923ef12715a74c793cf72e4f313</title>
<g id="a_edge6"><a xlink:href="dir_000123_000033.html" target="_top">
<path fill="none" stroke="#63b8ff" d="M269.34,-83.84C233.51,-75.99 163.07,-60.49 93.59,-44.57"/>
<polygon fill="#63b8ff" stroke="#63b8ff" points="94.45,-41.18 83.92,-42.35 92.89,-48 94.45,-41.18"/>
</a>
</g>
<g id="a_edge6&#45;headlabel"><a xlink:href="dir_000123_000033.html" target="_top" xlink:title="1">
<text xml:space="preserve" text-anchor="middle" x="97.12" y="-35.38" font-family="Helvetica,sans-Serif" font-size="10.00" fill="#63b8ff">1</text>
</a>
</g>
</g>
<!-- dir_b98ee8c279438f4b21bd61b97608bcde&#45;&gt;dir_3d8f91d165c61940606cc67fb2b386a2 -->
<g id="edge1" class="edge">
<title>dir_b98ee8c279438f4b21bd61b97608bcde&#45;&gt;dir_3d8f91d165c61940606cc67fb2b386a2</title>
<g id="a_edge1"><a xlink:href="dir_000123_000034.html" target="_top">
<path fill="none" stroke="#63b8ff" d="M269.39,-80.44C245.48,-71.78 208.19,-58.26 180.48,-48.22"/>
<polygon fill="#63b8ff" stroke="#63b8ff" points="182.02,-45.06 171.43,-44.94 179.64,-51.64 182.02,-45.06"/>
</a>
</g>
<g id="a_edge1&#45;headlabel"><a xlink:href="dir_000123_000034.html" target="_top" xlink:title="1">
<text xml:space="preserve" text-anchor="middle" x="184.94" y="-39.6" font-family="Helvetica,sans-Serif" font-size="10.00" fill="#63b8ff">1</text>
</a>
</g>
</g>
<!-- dir_b98ee8c279438f4b21bd61b97608bcde&#45;&gt;dir_a953ba1f31684a48ed0144a63a293ae9 -->
<g id="edge4" class="edge">
<title>dir_b98ee8c279438f4b21bd61b97608bcde&#45;&gt;dir_a953ba1f31684a48ed0144a63a293ae9</title>
<g id="a_edge4"><a xlink:href="dir_000123_000035.html" target="_top">
<path fill="none" stroke="#63b8ff" d="M285.51,-79.59C279.71,-72.32 271.51,-62.02 264.45,-53.15"/>
<polygon fill="#63b8ff" stroke="#63b8ff" points="267.31,-51.12 258.35,-45.48 261.84,-55.49 267.31,-51.12"/>
</a>
</g>
<g id="a_edge4&#45;headlabel"><a xlink:href="dir_000123_000035.html" target="_top" xlink:title="1">
<text xml:space="preserve" text-anchor="middle" x="270.83" y="-47.48" font-family="Helvetica,sans-Serif" font-size="10.00" fill="#63b8ff">1</text>
</a>
</g>
</g>
<!-- dir_b98ee8c279438f4b21bd61b97608bcde&#45;&gt;dir_cc06919342db86795a48353da98f8a52 -->
<g id="edge5" class="edge">
<title>dir_b98ee8c279438f4b21bd61b97608bcde&#45;&gt;dir_cc06919342db86795a48353da98f8a52</title>
<g id="a_edge5"><a xlink:href="dir_000123_000061.html" target="_top">
<path fill="none" stroke="#63b8ff" d="M300.66,-79.59C306.59,-72.32 314.99,-62.02 322.21,-53.15"/>
<polygon fill="#63b8ff" stroke="#63b8ff" points="324.86,-55.43 328.47,-45.47 319.44,-51.01 324.86,-55.43"/>
</a>
</g>
<g id="a_edge5&#45;headlabel"><a xlink:href="dir_000123_000061.html" target="_top" xlink:title="1">
<text xml:space="preserve" text-anchor="middle" x="325.75" y="-55.34" font-family="Helvetica,sans-Serif" font-size="10.00" fill="#63b8ff">1</text>
</a>
</g>
</g>
<!-- dir_b98ee8c279438f4b21bd61b97608bcde&#45;&gt;dir_921d70230c427007d8b7307843a5136d -->
<g id="edge3" class="edge">
<title>dir_b98ee8c279438f4b21bd61b97608bcde&#45;&gt;dir_921d70230c427007d8b7307843a5136d</title>
<g id="a_edge3"><a xlink:href="dir_000123_000089.html" target="_top">
<path fill="none" stroke="#63b8ff" d="M311.29,-79.59C327.3,-71.36 350.83,-59.26 369.34,-49.74"/>
<polygon fill="#63b8ff" stroke="#63b8ff" points="370.93,-52.86 378.22,-45.17 367.73,-46.63 370.93,-52.86"/>
</a>
</g>
<g id="a_edge3&#45;headlabel"><a xlink:href="dir_000123_000089.html" target="_top" xlink:title="1">
<text xml:space="preserve" text-anchor="middle" x="370.38" y="-52.83" font-family="Helvetica,sans-Serif" font-size="10.00" fill="#63b8ff">1</text>
</a>
</g>
</g>
<!-- dir_4d5843eee21c7cebfad28c6fb5869b90 -->
<g id="node8" class="node">
<title>dir_4d5843eee21c7cebfad28c6fb5869b90</title>
<g id="a_node8"><a xlink:href="dir_4d5843eee21c7cebfad28c6fb5869b90.html" target="_top" xlink:title="nuttall">
<polygon fill="#a2b4d6" stroke="#404040" points="477.12,-44 434.88,-44 434.88,-24 477.12,-24 477.12,-44"/>
<text xml:space="preserve" text-anchor="middle" x="456" y="-30.5" font-family="Helvetica,sans-Serif" font-size="10.00">nuttall</text>
</a>
</g>
</g>
<!-- dir_b98ee8c279438f4b21bd61b97608bcde&#45;&gt;dir_4d5843eee21c7cebfad28c6fb5869b90 -->
<g id="edge2" class="edge">
<title>dir_b98ee8c279438f4b21bd61b97608bcde&#45;&gt;dir_4d5843eee21c7cebfad28c6fb5869b90</title>
<g id="a_edge2"><a xlink:href="dir_000123_000172.html" target="_top">
<path fill="none" stroke="#63b8ff" d="M316.7,-81.15C344.93,-71.8 392.23,-56.13 423.77,-45.68"/>
<polygon fill="#63b8ff" stroke="#63b8ff" points="424.78,-49.03 433.17,-42.56 422.58,-42.39 424.78,-49.03"/>
</a>
</g>
<g id="a_edge2&#45;headlabel"><a xlink:href="dir_000123_000172.html" target="_top" xlink:title="1">
<text xml:space="preserve" text-anchor="middle" x="423.7" y="-48.88" font-family="Helvetica,sans-Serif" font-size="10.00" fill="#63b8ff">1</text>
</a>
</g>
</g>
</g>
</svg>

<g id="navigator" transform="translate(0 0)" fill="#404254">
  <rect fill="#f2f5e9" fill-opacity="0.5" stroke="#606060" stroke-width=".5" x="0" y="0" width="60" height="60"/>
  <use id="zoomplus" xlink:href="#zoomPlus" x="17" y="9" onmousedown="handleZoom(evt,'in')"/>
  <use id="zoomminus" xlink:href="#zoomMin" x="42" y="9" onmousedown="handleZoom(evt,'out')"/>
  <use id="reset" xlink:href="#resetDef" x="30" y="36" onmousedown="handleReset()"/>
   <use id="arrowup" xlink:href="#arrowUp" x="0" y="0" onmousedown="handlePan(0,-1)"/>
  <use id="arrowright" xlink:href="#arrowRight" x="0" y="0" onmousedown="handlePan(1,0)"/>
  <use id="arrowdown" xlink:href="#arrowDown" x="0" y="0" onmousedown="handlePan(0,1)"/>
  <use id="arrowleft" xlink:href="#arrowLeft" x="0" y="0" onmousedown="handlePan(-1,0)"/>
</g>
<svg viewBox="0 0 15 15" width="100%" height="30px" preserveAspectRatio="xMaxYMin meet">
 <g id="arrow_out" transform="scale(0.3 0.3)">
  <a xlink:href="dir_95624ebda436e232844a7007340a6b2b_dep_org.svg" target="_base">
   <rect id="button" ry="5" rx="5" y="6" x="6" height="38" width="38"
        fill="#f2f5e9" fill-opacity="0.5" stroke="#606060" stroke-width="1.0"/>
   <path id="arrow"
     d="M 11.500037,31.436501 C 11.940474,20.09759 22.043105,11.32322 32.158766,21.979434 L 37.068811,17.246167 C 37.068811,17.246167 37.088388,32 37.088388,32 L 22.160133,31.978069 C 22.160133,31.978069 26.997745,27.140456 26.997745,27.140456 C 18.528582,18.264221 13.291696,25.230495 11.500037,31.436501 z"
     style="fill:#404040;"/>
  </a>
 </g>
</svg>

<style type='text/css'>
<![CDATA[
[data-mouse-over-selected='false'] { opacity: 0.7; }
[data-mouse-over-selected='true']  { opacity: 1.0; }
]]>
</style>
<script type="application/ecmascript"><![CDATA[
document.addEventListener('DOMContentLoaded', (event) => {
  highlightEdges();
  highlightAdjacentNodes();
});
]]></script>
</svg>
