<?xml version="1.0" encoding="UTF-8" standalone="no"?>
<!DOCTYPE svg PUBLIC "-//W3C//DTD SVG 1.1//EN"
 "http://www.w3.org/Graphics/SVG/1.1/DTD/svg11.dtd">
<!-- Generated by graphviz version 14.1.2 (20260124.0452)
 -->
<!-- Title: applications Pages: 1 -->
<!--zoomable 144 -->

<svg id="main" version="1.1" xmlns="http://www.w3.org/2000/svg" xmlns:xlink="http://www.w3.org/1999/xlink" xml:space="preserve" onload="init(evt)">

<style type="text/css"><![CDATA[
.node, .edge {opacity: 0.7;}
.node.selected, .edge.selected {opacity: 1;}
.edge:hover path { stroke: red; }
.edge:hover polygon { stroke: red; fill: red; }
]]></style>

<defs>
  <circle id="rim" cx="0" cy="0" r="7"/>
  <circle id="rim2" cx="0" cy="0" r="3.5"/>
  <g id="zoomPlus">
    <use xlink:href="#rim" fill="#404040"><set attributeName="fill" to="#808080" begin="zoomplus.mouseover" end="zoomplus.mouseout"/></use>
    <path d="M-4,0h8M0,-4v8" fill="none" stroke="white" stroke-width="1.5" pointer-events="none"/>
  </g>
  <g id="zoomMin">
    <use xlink:href="#rim" fill="#404040"><set attributeName="fill" to="#808080" begin="zoomminus.mouseover" end="zoomminus.mouseout"/></use>
    <path d="M-4,0h8" fill="none" stroke="white" stroke-width="1.5" pointer-events="none"/>
  </g>
  <g id="arrowUp" transform="translate(30 24)">
    <use xlink:href="#rim"/>
    <path pointer-events="none" fill="none" stroke="white" stroke-width="1.5" d="M0,-3.0v7 M-2.5,-0.5L0,-3.0L2.5,-0.5"/>
  </g>
  <g id="arrowRight" transform="rotate(90) translate(36 -43)">
    <use xlink:href="#rim"/>
    <path pointer-events="none" fill="none" stroke="white" stroke-width="1.5" d="M0,-3.0v7 M-2.5,-0.5L0,-3.0L2.5,-0.5"/>
  </g>
  <g id="arrowDown" transform="rotate(180) translate(-30 -48)">
    <use xlink:href="#rim"/>
    <path pointer-events="none" fill="none" stroke="white" stroke-width="1.5" d="M0,-3.0v7 M-2.5,-0.5L0,-3.0L2.5,-0.5"/>
  </g>
  <g id="arrowLeft" transform="rotate(270) translate(-36 17)">
    <use xlink:href="#rim"/>
    <path pointer-events="none" fill="none" stroke="white" stroke-width="1.5" d="M0,-3.0v7 M-2.5,-0.5L0,-3.0L2.5,-0.5"/>
  </g>
  <g id="resetDef">
    <use xlink:href="#rim2" fill="#404040"><set attributeName="fill" to="#808080" begin="reset.mouseover" end="reset.mouseout"/></use>
  </g>
</defs>
<script type="application/ecmascript">
var viewWidth = 565;
var viewHeight = 144;
var sectionId = 'dynsection-0';
</script>
<script type="application/ecmascript" xlink:href="svg.min.js"/>
<svg id="graph" class="graph">
<g id="viewport">
<title>applications</title>
<g id="clust1" class="cluster">
<title>clusterdir_7b64b14aeba8b5bbb3841d17f1f0cd10</title>
<g id="a_clust1"><a xlink:href="dir_7b64b14aeba8b5bbb3841d17f1f0cd10.html" target="_top" xlink:title="espressif__esp&#45;dsp">
<polygon fill="#edf0f7" stroke="#7f7f7f" stroke-dasharray="5,2" points="8,-8 8,-128 549,-128 549,-8 8,-8"/>
<text xml:space="preserve" text-anchor="middle" x="278.5" y="-114.5" font-family="Helvetica,sans-Serif" font-size="10.00">espressif__esp&#45;dsp</text>
</a>
</g>
</g>
<g id="clust2" class="cluster">
<title>clusterdir_e20383be2aa1cc8db7287a474982598e</title>
<g id="a_clust2"><a xlink:href="dir_e20383be2aa1cc8db7287a474982598e.html" target="_top">
<polygon fill="#edf0f7" stroke="#404040" stroke-width="2" points="16,-64 16,-100 541,-100 541,-64 16,-64"/>
</a>
</g>
</g>
<!-- dir_1a94785b4fd07fa9f86295c704ab286b -->
<g id="node1" class="node">
<title>dir_1a94785b4fd07fa9f86295c704ab286b</title>
<g id="a_node1"><a xlink:href="dir_1a94785b4fd07fa9f86295c704ab286b.html" target="_top" xlink:title="modules">
<polygon fill="#a2b4d6" stroke="red" points="345.38,-36 292.62,-36 292.62,-16 345.38,-16 345.38,-36"/>
<text xml:space="preserve" text-anchor="middle" x="319" y="-22.5" font-family="Helvetica,sans-Serif" font-size="10.00">modules</text>
</a>
</g>
</g>
<!-- dir_e20383be2aa1cc8db7287a474982598e -->
<g id="node2" class="node">
<title>dir_e20383be2aa1cc8db7287a474982598e</title>
<text xml:space="preserve" text-anchor="middle" x="58" y="-78.5" font-family="Helvetica,sans-Serif" font-size="10.00">applications</text>
</g>
<!-- dir_f5ac212e894c3c636ee22eba8071736a -->
<g id="node3" class="node">
<title>dir_f5ac212e894c3c636ee22eba8071736a</title>
<g id="a_node3"><a xlink:href="dir_f5ac212e894c3c636ee22eba8071736a.html" target="_top" xlink:title="azure_board_apps">
<polygon fill="#a2b4d6" stroke="#404040" points="205.75,-92 110.25,-92 110.25,-72 205.75,-72 205.75,-92"/>
<text xml:space="preserve" text-anchor="middle" x="158" y="-78.5" font-family="Helvetica,sans-Serif" font-size="10.00">azure_board_apps</text>
</a>
</g>
</g>
<!-- dir_f5ac212e894c3c636ee22eba8071736a&#45;&gt;dir_1a94785b4fd07fa9f86295c704ab286b -->
<g id="edge1" class="edge">
<title>dir_f5ac212e894c3c636ee22eba8071736a&#45;&gt;dir_1a94785b4fd07fa9f86295c704ab286b</title>
<g id="a_edge1"><a xlink:href="dir_000028_000167.html" target="_top">
<path fill="none" stroke="#63b8ff" d="M186.04,-71.59C212.57,-62.7 252.54,-49.29 281.74,-39.5"/>
<polygon fill="#63b8ff" stroke="#63b8ff" points="282.54,-42.92 290.91,-36.42 280.32,-36.28 282.54,-42.92"/>
</a>
</g>
<g id="a_edge1&#45;headlabel"><a xlink:href="dir_000028_000167.html" target="_top" xlink:title="7">
<text xml:space="preserve" text-anchor="middle" x="281.47" y="-42.77" font-family="Helvetica,sans-Serif" font-size="10.00" fill="#63b8ff">7</text>
</a>
</g>
</g>
<!-- dir_f770e0d3e13945b3c8eb56d882c10d0b -->
<g id="node4" class="node">
<title>dir_f770e0d3e13945b3c8eb56d882c10d0b</title>
<g id="a_node4"><a xlink:href="dir_f770e0d3e13945b3c8eb56d882c10d0b.html" target="_top" xlink:title="lyrat_board_app">
<polygon fill="#a2b4d6" stroke="#404040" points="308.5,-92 223.5,-92 223.5,-72 308.5,-72 308.5,-92"/>
<text xml:space="preserve" text-anchor="middle" x="266" y="-78.5" font-family="Helvetica,sans-Serif" font-size="10.00">lyrat_board_app</text>
</a>
</g>
</g>
<!-- dir_f770e0d3e13945b3c8eb56d882c10d0b&#45;&gt;dir_1a94785b4fd07fa9f86295c704ab286b -->
<g id="edge2" class="edge">
<title>dir_f770e0d3e13945b3c8eb56d882c10d0b&#45;&gt;dir_1a94785b4fd07fa9f86295c704ab286b</title>
<g id="a_edge2"><a xlink:href="dir_000138_000167.html" target="_top">
<path fill="none" stroke="#63b8ff" d="M275.23,-71.59C282.6,-64.08 293.13,-53.35 302.02,-44.3"/>
<polygon fill="#63b8ff" stroke="#63b8ff" points="304.31,-46.97 308.81,-37.38 299.31,-42.06 304.31,-46.97"/>
</a>
</g>
<g id="a_edge2&#45;headlabel"><a xlink:href="dir_000138_000167.html" target="_top" xlink:title="2">
<text xml:space="preserve" text-anchor="middle" x="304.88" y="-46.94" font-family="Helvetica,sans-Serif" font-size="10.00" fill="#63b8ff">2</text>
</a>
</g>
</g>
<!-- dir_bab3575675640a99c668cf654a35a16e -->
<g id="node5" class="node">
<title>dir_bab3575675640a99c668cf654a35a16e</title>
<g id="a_node5"><a xlink:href="dir_bab3575675640a99c668cf654a35a16e.html" target="_top" xlink:title="m5stack_core_s3">
<polygon fill="#a2b4d6" stroke="#404040" points="419.62,-92 326.38,-92 326.38,-72 419.62,-72 419.62,-92"/>
<text xml:space="preserve" text-anchor="middle" x="373" y="-78.5" font-family="Helvetica,sans-Serif" font-size="10.00">m5stack_core_s3</text>
</a>
</g>
</g>
<!-- dir_bab3575675640a99c668cf654a35a16e&#45;&gt;dir_1a94785b4fd07fa9f86295c704ab286b -->
<g id="edge3" class="edge">
<title>dir_bab3575675640a99c668cf654a35a16e&#45;&gt;dir_1a94785b4fd07fa9f86295c704ab286b</title>
<g id="a_edge3"><a xlink:href="dir_000141_000167.html" target="_top">
<path fill="none" stroke="#63b8ff" d="M363.59,-71.59C356.08,-64.08 345.35,-53.35 336.3,-44.3"/>
<polygon fill="#63b8ff" stroke="#63b8ff" points="338.91,-41.96 329.37,-37.37 333.96,-46.91 338.91,-41.96"/>
</a>
</g>
<g id="a_edge3&#45;headlabel"><a xlink:href="dir_000141_000167.html" target="_top" xlink:title="7">
<text xml:space="preserve" text-anchor="middle" x="342.39" y="-37.93" font-family="Helvetica,sans-Serif" font-size="10.00" fill="#63b8ff">7</text>
</a>
</g>
</g>
<!-- dir_169a0c2dbb59f200adaa018c9c77c755 -->
<g id="node6" class="node">
<title>dir_169a0c2dbb59f200adaa018c9c77c755</title>
<g id="a_node6"><a xlink:href="dir_169a0c2dbb59f200adaa018c9c77c755.html" target="_top" xlink:title="spectrum_box_lite">
<polygon fill="#a2b4d6" stroke="#404040" points="532.75,-92 437.25,-92 437.25,-72 532.75,-72 532.75,-92"/>
<text xml:space="preserve" text-anchor="middle" x="485" y="-78.5" font-family="Helvetica,sans-Serif" font-size="10.00">spectrum_box_lite</text>
</a>
</g>
</g>
<!-- dir_169a0c2dbb59f200adaa018c9c77c755&#45;&gt;dir_1a94785b4fd07fa9f86295c704ab286b -->
<g id="edge4" class="edge">
<title>dir_169a0c2dbb59f200adaa018c9c77c755&#45;&gt;dir_1a94785b4fd07fa9f86295c704ab286b</title>
<g id="a_edge4"><a xlink:href="dir_000176_000167.html" target="_top">
<path fill="none" stroke="#63b8ff" d="M456.09,-71.59C428.49,-62.62 386.77,-49.05 356.61,-39.23"/>
<polygon fill="#63b8ff" stroke="#63b8ff" points="357.7,-35.91 347.1,-36.14 355.53,-42.56 357.7,-35.91"/>
</a>
</g>
<g id="a_edge4&#45;headlabel"><a xlink:href="dir_000176_000167.html" target="_top" xlink:title="3">
<text xml:space="preserve" text-anchor="middle" x="360.55" y="-30.35" font-family="Helvetica,sans-Serif" font-size="10.00" fill="#63b8ff">3</text>
</a>
</g>
</g>
</g>
</svg>

<g id="navigator" transform="translate(0 0)" fill="#404254">
  <rect fill="#f2f5e9" fill-opacity="0.5" stroke="#606060" stroke-width=".5" x="0" y="0" width="60" height="60"/>
  <use id="zoomplus" xlink:href="#zoomPlus" x="17" y="9" onmousedown="handleZoom(evt,'in')"/>
  <use id="zoomminus" xlink:href="#zoomMin" x="42" y="9" onmousedown="handleZoom(evt,'out')"/>
  <use id="reset" xlink:href="#resetDef" x="30" y="36" onmousedown="handleReset()"/>
   <use id="arrowup" xlink:href="#arrowUp" x="0" y="0" onmousedown="handlePan(0,-1)"/>
  <use id="arrowright" xlink:href="#arrowRight" x="0" y="0" onmousedown="handlePan(1,0)"/>
  <use id="arrowdown" xlink:href="#arrowDown" x="0" y="0" onmousedown="handlePan(0,1)"/>
  <use id="arrowleft" xlink:href="#arrowLeft" x="0" y="0" onmousedown="handlePan(-1,0)"/>
</g>
<svg viewBox="0 0 15 15" width="100%" height="30px" preserveAspectRatio="xMaxYMin meet">
 <g id="arrow_out" transform="scale(0.3 0.3)">
  <a xlink:href="dir_e20383be2aa1cc8db7287a474982598e_dep_org.svg" target="_base">
   <rect id="button" ry="5" rx="5" y="6" x="6" height="38" width="38"
        fill="#f2f5e9" fill-opacity="0.5" stroke="#606060" stroke-width="1.0"/>
   <path id="arrow"
     d="M 11.500037,31.436501 C 11.940474,20.09759 22.043105,11.32322 32.158766,21.979434 L 37.068811,17.246167 C 37.068811,17.246167 37.088388,32 37.088388,32 L 22.160133,31.978069 C 22.160133,31.978069 26.997745,27.140456 26.997745,27.140456 C 18.528582,18.264221 13.291696,25.230495 11.500037,31.436501 z"
     style="fill:#404040;"/>
  </a>
 </g>
</svg>

<style type='text/css'>
<![CDATA[
[data-mouse-over-selected='false'] { opacity: 0.7; }
[data-mouse-over-selected='true']  { opacity: 1.0; }
]]>
</style>
<script type="application/ecmascript"><![CDATA[
document.addEventListener('DOMContentLoaded', (event) => {
  highlightEdges();
  highlightAdjacentNodes();
});
]]></script>
</svg>
