<?xml version="1.0" encoding="UTF-8" standalone="no"?>
<!DOCTYPE svg PUBLIC "-//W3C//DTD SVG 1.1//EN"
 "http://www.w3.org/Graphics/SVG/1.1/DTD/svg11.dtd">
<!-- Generated by graphviz version 14.1.2 (20260124.0452)
 -->
<!-- Title: support Pages: 1 -->
<!--zoomable 200 -->

<svg id="main" version="1.1" xmlns="http://www.w3.org/2000/svg" xmlns:xlink="http://www.w3.org/1999/xlink" xml:space="preserve" onload="init(evt)">

<style type="text/css"><![CDATA[
.node, .edge {opacity: 0.7;}
.node.selected, .edge.selected {opacity: 1;}
.edge:hover path { stroke: red; }
.edge:hover polygon { stroke: red; fill: red; }
]]></style>

<defs>
  <circle id="rim" cx="0" cy="0" r="7"/>
  <circle id="rim2" cx="0" cy="0" r="3.5"/>
  <g id="zoomPlus">
    <use xlink:href="#rim" fill="#404040"><set attributeName="fill" to="#808080" begin="zoomplus.mouseover" end="zoomplus.mouseout"/></use>
    <path d="M-4,0h8M0,-4v8" fill="none" stroke="white" stroke-width="1.5" pointer-events="none"/>
  </g>
  <g id="zoomMin">
    <use xlink:href="#rim" fill="#404040"><set attributeName="fill" to="#808080" begin="zoomminus.mouseover" end="zoomminus.mouseout"/></use>
    <path d="M-4,0h8" fill="none" stroke="white" stroke-width="1.5" pointer-events="none"/>
  </g>
  <g id="arrowUp" transform="translate(30 24)">
    <use xlink:href="#rim"/>
    <path pointer-events="none" fill="none" stroke="white" stroke-width="1.5" d="M0,-3.0v7 M-2.5,-0.5L0,-3.0L2.5,-0.5"/>
  </g>
  <g id="arrowRight" transform="rotate(90) translate(36 -43)">
    <use xlink:href="#rim"/>
    <path pointer-events="none" fill="none" stroke="white" stroke-width="1.5" d="M0,-3.0v7 M-2.5,-0.5L0,-3.0L2.5,-0.5"/>
  </g>
  <g id="arrowDown" transform="rotate(180) translate(-30 -48)">
    <use xlink:href="#rim"/>
    <path pointer-events="none" fill="none" stroke="white" stroke-width="1.5" d="M0,-3.0v7 M-2.5,-0.5L0,-3.0L2.5,-0.5"/>
  </g>
  <g id="arrowLeft" transform="rotate(270) translate(-36 17)">
    <use xlink:href="#rim"/>
    <path pointer-events="none" fill="none" stroke="white" stroke-width="1.5" d="M0,-3.0v7 M-2.5,-0.5L0,-3.0L2.5,-0.5"/>
  </g>
  <g id="resetDef">
    <use xlink:href="#rim2" fill="#404040"><set attributeName="fill" to="#808080" begin="reset.mouseover" end="reset.mouseout"/></use>
  </g>
</defs>
<script type="application/ecmascript">
var viewWidth = 516;
var viewHeight = 200;
var sectionId = 'dynsection-0';
</script>
<script type="application/ecmascript" xlink:href="svg.min.js"/>
<svg id="graph" class="graph">
<g id="viewport">
<title>support</title>
<g id="clust1" class="cluster">
<title>clusterdir_1a94785b4fd07fa9f86295c704ab286b</title>
<g id="a_clust1"><a xlink:href="dir_1a94785b4fd07fa9f86295c704ab286b.html" target="_top" xlink:title="modules">
<polygon fill="#edf0f7" stroke="#7f7f7f" stroke-dasharray="5,2" points="8,-8 8,-184 500,-184 500,-8 8,-8"/>
<text xml:space="preserve" text-anchor="middle" x="254" y="-170.5" font-family="Helvetica,sans-Serif" font-size="10.00">modules</text>
</a>
</g>
</g>
<g id="clust2" class="cluster">
<title>clusterdir_67c4e8b77b4357a93ff15d0d28548721</title>
<g id="a_clust2"><a xlink:href="dir_67c4e8b77b4357a93ff15d0d28548721.html" target="_top">
<polygon fill="#edf0f7" stroke="#404040" stroke-width="2" points="16,-64 16,-156 416,-156 416,-64 16,-64"/>
</a>
</g>
</g>
<!-- dir_2e6515e08f756e255a623378cbf0a6d0 -->
<g id="node1" class="node">
<title>dir_2e6515e08f756e255a623378cbf0a6d0</title>
<g id="a_node1"><a xlink:href="dir_2e6515e08f756e255a623378cbf0a6d0.html" target="_top" xlink:title="fft">
<polygon fill="#a2b4d6" stroke="red" points="452.4,-92 423.6,-92 423.6,-72 452.4,-72 452.4,-92"/>
<text xml:space="preserve" text-anchor="middle" x="438" y="-78.5" font-family="Helvetica,sans-Serif" font-size="10.00">fft</text>
</a>
</g>
</g>
<!-- dir_e78af46276061306d5e012847576d2b2 -->
<g id="node2" class="node">
<title>dir_e78af46276061306d5e012847576d2b2</title>
<g id="a_node2"><a xlink:href="dir_e78af46276061306d5e012847576d2b2.html" target="_top" xlink:title="common">
<polygon fill="#a2b4d6" stroke="red" points="347.75,-36 294.25,-36 294.25,-16 347.75,-16 347.75,-36"/>
<text xml:space="preserve" text-anchor="middle" x="321" y="-22.5" font-family="Helvetica,sans-Serif" font-size="10.00">common</text>
</a>
</g>
</g>
<!-- dir_67c4e8b77b4357a93ff15d0d28548721 -->
<g id="node3" class="node">
<title>dir_67c4e8b77b4357a93ff15d0d28548721</title>
<text xml:space="preserve" text-anchor="middle" x="48" y="-134.5" font-family="Helvetica,sans-Serif" font-size="10.00">support</text>
</g>
<!-- dir_ab3ea85e91d8dc68e46d009ff6c24e63 -->
<g id="node4" class="node">
<title>dir_ab3ea85e91d8dc68e46d009ff6c24e63</title>
<g id="a_node4"><a xlink:href="dir_ab3ea85e91d8dc68e46d009ff6c24e63.html" target="_top" xlink:title="cplx_gen">
<polygon fill="#a2b4d6" stroke="#404040" points="200.5,-148 145.5,-148 145.5,-128 200.5,-128 200.5,-148"/>
<text xml:space="preserve" text-anchor="middle" x="173" y="-134.5" font-family="Helvetica,sans-Serif" font-size="10.00">cplx_gen</text>
</a>
</g>
</g>
<!-- dir_ab3ea85e91d8dc68e46d009ff6c24e63&#45;&gt;dir_e78af46276061306d5e012847576d2b2 -->
<g id="edge2" class="edge">
<title>dir_ab3ea85e91d8dc68e46d009ff6c24e63&#45;&gt;dir_e78af46276061306d5e012847576d2b2</title>
<g id="a_edge2"><a xlink:href="dir_000040_000036.html" target="_top">
<path fill="none" stroke="#63b8ff" d="M200.81,-127.81C228.56,-118.23 268.78,-103.09 281,-92 291.46,-82.51 288.71,-76.09 296,-64 299.75,-57.79 304.09,-51.18 308.1,-45.29"/>
<polygon fill="#63b8ff" stroke="#63b8ff" points="310.68,-47.71 313.5,-37.5 304.93,-43.73 310.68,-47.71"/>
</a>
</g>
<g id="a_edge2&#45;headlabel"><a xlink:href="dir_000040_000036.html" target="_top" xlink:title="2">
<text xml:space="preserve" text-anchor="middle" x="311.83" y="-47.54" font-family="Helvetica,sans-Serif" font-size="10.00" fill="#63b8ff">2</text>
</a>
</g>
</g>
<!-- dir_10508c1be7391f23f9614e5e6618e1bc -->
<g id="node5" class="node">
<title>dir_10508c1be7391f23f9614e5e6618e1bc</title>
<g id="a_node5"><a xlink:href="dir_10508c1be7391f23f9614e5e6618e1bc.html" target="_top" xlink:title="include">
<polygon fill="#a2b4d6" stroke="#404040" points="272.38,-92 225.62,-92 225.62,-72 272.38,-72 272.38,-92"/>
<text xml:space="preserve" text-anchor="middle" x="249" y="-78.5" font-family="Helvetica,sans-Serif" font-size="10.00">include</text>
</a>
</g>
</g>
<!-- dir_ab3ea85e91d8dc68e46d009ff6c24e63&#45;&gt;dir_10508c1be7391f23f9614e5e6618e1bc -->
<g id="edge1" class="edge">
<title>dir_ab3ea85e91d8dc68e46d009ff6c24e63&#45;&gt;dir_10508c1be7391f23f9614e5e6618e1bc</title>
<g id="a_edge1"><a xlink:href="dir_000040_000116.html" target="_top">
<path fill="none" stroke="#63b8ff" d="M186.24,-127.59C197.29,-119.74 213.28,-108.38 226.36,-99.09"/>
<polygon fill="#63b8ff" stroke="#63b8ff" points="228.3,-102 234.42,-93.36 224.25,-96.3 228.3,-102"/>
</a>
</g>
<g id="a_edge1&#45;headlabel"><a xlink:href="dir_000040_000116.html" target="_top" xlink:title="2">
<text xml:space="preserve" text-anchor="middle" x="228.25" y="-102.02" font-family="Helvetica,sans-Serif" font-size="10.00" fill="#63b8ff">2</text>
</a>
</g>
</g>
<!-- dir_10508c1be7391f23f9614e5e6618e1bc&#45;&gt;dir_e78af46276061306d5e012847576d2b2 -->
<g id="edge3" class="edge">
<title>dir_10508c1be7391f23f9614e5e6618e1bc&#45;&gt;dir_e78af46276061306d5e012847576d2b2</title>
<g id="a_edge3"><a xlink:href="dir_000116_000036.html" target="_top">
<path fill="none" stroke="#63b8ff" d="M261.54,-71.59C271.97,-63.77 287.05,-52.46 299.41,-43.19"/>
<polygon fill="#63b8ff" stroke="#63b8ff" points="301.49,-46.01 307.39,-37.21 297.29,-40.41 301.49,-46.01"/>
</a>
</g>
<g id="a_edge3&#45;headlabel"><a xlink:href="dir_000116_000036.html" target="_top" xlink:title="7">
<text xml:space="preserve" text-anchor="middle" x="301.53" y="-46.03" font-family="Helvetica,sans-Serif" font-size="10.00" fill="#63b8ff">7</text>
</a>
</g>
</g>
<!-- dir_a4520cc2e8d056e147f1deaf11bb691f -->
<g id="node6" class="node">
<title>dir_a4520cc2e8d056e147f1deaf11bb691f</title>
<g id="a_node6"><a xlink:href="dir_a4520cc2e8d056e147f1deaf11bb691f.html" target="_top" xlink:title="mem">
<polygon fill="#a2b4d6" stroke="#404040" points="255.88,-148 218.12,-148 218.12,-128 255.88,-128 255.88,-148"/>
<text xml:space="preserve" text-anchor="middle" x="237" y="-134.5" font-family="Helvetica,sans-Serif" font-size="10.00">mem</text>
</a>
</g>
</g>
<!-- dir_a4520cc2e8d056e147f1deaf11bb691f&#45;&gt;dir_e78af46276061306d5e012847576d2b2 -->
<g id="edge4" class="edge">
<title>dir_a4520cc2e8d056e147f1deaf11bb691f&#45;&gt;dir_e78af46276061306d5e012847576d2b2</title>
<g id="a_edge4"><a xlink:href="dir_000164_000036.html" target="_top">
<path fill="none" stroke="#63b8ff" d="M254.07,-127.55C267.12,-119.57 284.72,-107.05 296,-92 305.99,-78.67 312.47,-60.85 316.32,-47.24"/>
<polygon fill="#63b8ff" stroke="#63b8ff" points="319.69,-48.2 318.77,-37.65 312.91,-46.47 319.69,-48.2"/>
</a>
</g>
<g id="a_edge4&#45;headlabel"><a xlink:href="dir_000164_000036.html" target="_top" xlink:title="2">
<text xml:space="preserve" text-anchor="middle" x="321.93" y="-47.42" font-family="Helvetica,sans-Serif" font-size="10.00" fill="#63b8ff">2</text>
</a>
</g>
</g>
<!-- dir_dc680dbb1cea7c0c88f2dd9d758e5cd4 -->
<g id="node7" class="node">
<title>dir_dc680dbb1cea7c0c88f2dd9d758e5cd4</title>
<g id="a_node7"><a xlink:href="dir_dc680dbb1cea7c0c88f2dd9d758e5cd4.html" target="_top" xlink:title="misc">
<polygon fill="#a2b4d6" stroke="#404040" points="127.5,-148 90.5,-148 90.5,-128 127.5,-128 127.5,-148"/>
<text xml:space="preserve" text-anchor="middle" x="109" y="-134.5" font-family="Helvetica,sans-Serif" font-size="10.00">misc</text>
</a>
</g>
</g>
<!-- dir_dc680dbb1cea7c0c88f2dd9d758e5cd4&#45;&gt;dir_10508c1be7391f23f9614e5e6618e1bc -->
<g id="edge5" class="edge">
<title>dir_dc680dbb1cea7c0c88f2dd9d758e5cd4&#45;&gt;dir_10508c1be7391f23f9614e5e6618e1bc</title>
<g id="a_edge5"><a xlink:href="dir_000166_000116.html" target="_top">
<path fill="none" stroke="#63b8ff" d="M127.88,-129.72C150.05,-121.17 187.27,-106.81 214.61,-96.26"/>
<polygon fill="#63b8ff" stroke="#63b8ff" points="215.8,-99.56 223.87,-92.69 213.28,-93.03 215.8,-99.56"/>
</a>
</g>
<g id="a_edge5&#45;headlabel"><a xlink:href="dir_000166_000116.html" target="_top" xlink:title="3">
<text xml:space="preserve" text-anchor="middle" x="214.88" y="-99.45" font-family="Helvetica,sans-Serif" font-size="10.00" fill="#63b8ff">3</text>
</a>
</g>
</g>
<!-- dir_7e3beb66e1044e6769774984c2d38ab1 -->
<g id="node8" class="node">
<title>dir_7e3beb66e1044e6769774984c2d38ab1</title>
<g id="a_node8"><a xlink:href="dir_7e3beb66e1044e6769774984c2d38ab1.html" target="_top" xlink:title="sfdr">
<polygon fill="#a2b4d6" stroke="#404040" points="306.25,-148 273.75,-148 273.75,-128 306.25,-128 306.25,-148"/>
<text xml:space="preserve" text-anchor="middle" x="290" y="-134.5" font-family="Helvetica,sans-Serif" font-size="10.00">sfdr</text>
</a>
</g>
</g>
<!-- dir_7e3beb66e1044e6769774984c2d38ab1&#45;&gt;dir_2e6515e08f756e255a623378cbf0a6d0 -->
<g id="edge7" class="edge">
<title>dir_7e3beb66e1044e6769774984c2d38ab1&#45;&gt;dir_2e6515e08f756e255a623378cbf0a6d0</title>
<g id="a_edge7"><a xlink:href="dir_000174_000051.html" target="_top">
<path fill="none" stroke="#63b8ff" d="M306.66,-130.96C309.44,-129.96 312.3,-128.95 315,-128 358,-112.89 372.33,-111.25 412.62,-94.96"/>
<polygon fill="#63b8ff" stroke="#63b8ff" points="413.83,-98.25 421.74,-91.2 411.16,-91.78 413.83,-98.25"/>
</a>
</g>
<g id="a_edge7&#45;headlabel"><a xlink:href="dir_000174_000051.html" target="_top" xlink:title="1">
<text xml:space="preserve" text-anchor="middle" x="412.99" y="-98.17" font-family="Helvetica,sans-Serif" font-size="10.00" fill="#63b8ff">1</text>
</a>
</g>
</g>
<!-- dir_7e3beb66e1044e6769774984c2d38ab1&#45;&gt;dir_e78af46276061306d5e012847576d2b2 -->
<g id="edge8" class="edge">
<title>dir_7e3beb66e1044e6769774984c2d38ab1&#45;&gt;dir_e78af46276061306d5e012847576d2b2</title>
<g id="a_edge8"><a xlink:href="dir_000174_000036.html" target="_top">
<path fill="none" stroke="#63b8ff" d="M297.14,-127.58C303.32,-118.86 311.89,-105.27 316,-92 320.47,-77.57 321.64,-60.51 321.73,-47.49"/>
<polygon fill="#63b8ff" stroke="#63b8ff" points="325.23,-47.52 321.57,-37.58 318.23,-47.63 325.23,-47.52"/>
</a>
</g>
<g id="a_edge8&#45;headlabel"><a xlink:href="dir_000174_000036.html" target="_top" xlink:title="2">
<text xml:space="preserve" text-anchor="middle" x="328.1" y="-46.06" font-family="Helvetica,sans-Serif" font-size="10.00" fill="#63b8ff">2</text>
</a>
</g>
</g>
<!-- dir_7e3beb66e1044e6769774984c2d38ab1&#45;&gt;dir_10508c1be7391f23f9614e5e6618e1bc -->
<g id="edge6" class="edge">
<title>dir_7e3beb66e1044e6769774984c2d38ab1&#45;&gt;dir_10508c1be7391f23f9614e5e6618e1bc</title>
<g id="a_edge6"><a xlink:href="dir_000174_000116.html" target="_top">
<path fill="none" stroke="#63b8ff" d="M282.86,-127.59C277.39,-120.39 269.68,-110.23 262.99,-101.43"/>
<polygon fill="#63b8ff" stroke="#63b8ff" points="265.81,-99.35 256.98,-93.5 260.23,-103.58 265.81,-99.35"/>
</a>
</g>
<g id="a_edge6&#45;headlabel"><a xlink:href="dir_000174_000116.html" target="_top" xlink:title="1">
<text xml:space="preserve" text-anchor="middle" x="269.33" y="-95.79" font-family="Helvetica,sans-Serif" font-size="10.00" fill="#63b8ff">1</text>
</a>
</g>
</g>
<!-- dir_3fd005a8b380f1a21303a2afe19168eb -->
<g id="node9" class="node">
<title>dir_3fd005a8b380f1a21303a2afe19168eb</title>
<g id="a_node9"><a xlink:href="dir_3fd005a8b380f1a21303a2afe19168eb.html" target="_top" xlink:title="snr">
<polygon fill="#a2b4d6" stroke="#404040" points="353.75,-148 324.25,-148 324.25,-128 353.75,-128 353.75,-148"/>
<text xml:space="preserve" text-anchor="middle" x="339" y="-134.5" font-family="Helvetica,sans-Serif" font-size="10.00">snr</text>
</a>
</g>
</g>
<!-- dir_3fd005a8b380f1a21303a2afe19168eb&#45;&gt;dir_2e6515e08f756e255a623378cbf0a6d0 -->
<g id="edge10" class="edge">
<title>dir_3fd005a8b380f1a21303a2afe19168eb&#45;&gt;dir_2e6515e08f756e255a623378cbf0a6d0</title>
<g id="a_edge10"><a xlink:href="dir_000175_000051.html" target="_top">
<path fill="none" stroke="#63b8ff" d="M354.04,-128.8C369.75,-120.22 394.68,-106.63 413.29,-96.48"/>
<polygon fill="#63b8ff" stroke="#63b8ff" points="414.72,-99.69 421.82,-91.83 411.36,-93.54 414.72,-99.69"/>
</a>
</g>
<g id="a_edge10&#45;headlabel"><a xlink:href="dir_000175_000051.html" target="_top" xlink:title="1">
<text xml:space="preserve" text-anchor="middle" x="414.25" y="-99.68" font-family="Helvetica,sans-Serif" font-size="10.00" fill="#63b8ff">1</text>
</a>
</g>
</g>
<!-- dir_3fd005a8b380f1a21303a2afe19168eb&#45;&gt;dir_e78af46276061306d5e012847576d2b2 -->
<g id="edge11" class="edge">
<title>dir_3fd005a8b380f1a21303a2afe19168eb&#45;&gt;dir_e78af46276061306d5e012847576d2b2</title>
<g id="a_edge11"><a xlink:href="dir_000175_000036.html" target="_top">
<path fill="none" stroke="#63b8ff" d="M354.23,-131.27C357.14,-130.18 360.16,-129.05 363,-128 406.5,-111.85 434.44,-130.05 461,-92 468.12,-81.8 468.59,-73.86 461,-64 448.59,-47.89 395.97,-37.37 358.9,-31.8"/>
<polygon fill="#63b8ff" stroke="#63b8ff" points="359.85,-28.4 349.46,-30.45 358.86,-35.33 359.85,-28.4"/>
</a>
</g>
<g id="a_edge11&#45;headlabel"><a xlink:href="dir_000175_000036.html" target="_top" xlink:title="2">
<text xml:space="preserve" text-anchor="middle" x="362.32" y="-22.39" font-family="Helvetica,sans-Serif" font-size="10.00" fill="#63b8ff">2</text>
</a>
</g>
</g>
<!-- dir_3fd005a8b380f1a21303a2afe19168eb&#45;&gt;dir_10508c1be7391f23f9614e5e6618e1bc -->
<g id="edge9" class="edge">
<title>dir_3fd005a8b380f1a21303a2afe19168eb&#45;&gt;dir_10508c1be7391f23f9614e5e6618e1bc</title>
<g id="a_edge9"><a xlink:href="dir_000175_000116.html" target="_top">
<path fill="none" stroke="#63b8ff" d="M324.14,-128.08C310.7,-120.02 290.64,-107.98 274.62,-98.37"/>
<polygon fill="#63b8ff" stroke="#63b8ff" points="276.47,-95.4 266.09,-93.25 272.86,-101.4 276.47,-95.4"/>
</a>
</g>
<g id="a_edge9&#45;headlabel"><a xlink:href="dir_000175_000116.html" target="_top" xlink:title="1">
<text xml:space="preserve" text-anchor="middle" x="279.71" y="-90.53" font-family="Helvetica,sans-Serif" font-size="10.00" fill="#63b8ff">1</text>
</a>
</g>
</g>
<!-- dir_87c389725da715c492868deacfc59ee9 -->
<g id="node10" class="node">
<title>dir_87c389725da715c492868deacfc59ee9</title>
<g id="a_node10"><a xlink:href="dir_87c389725da715c492868deacfc59ee9.html" target="_top" xlink:title="view">
<polygon fill="#a2b4d6" stroke="#404040" points="408.12,-148 371.88,-148 371.88,-128 408.12,-128 408.12,-148"/>
<text xml:space="preserve" text-anchor="middle" x="390" y="-134.5" font-family="Helvetica,sans-Serif" font-size="10.00">view</text>
</a>
</g>
</g>
<!-- dir_87c389725da715c492868deacfc59ee9&#45;&gt;dir_e78af46276061306d5e012847576d2b2 -->
<g id="edge13" class="edge">
<title>dir_87c389725da715c492868deacfc59ee9&#45;&gt;dir_e78af46276061306d5e012847576d2b2</title>
<g id="a_edge13"><a xlink:href="dir_000190_000036.html" target="_top">
<path fill="none" stroke="#63b8ff" d="M408.58,-132.31C427.58,-126.41 456.07,-114.24 469,-92 475.25,-81.24 476.66,-73.81 469,-64 455.64,-46.89 398.7,-36.52 359.48,-31.28"/>
<polygon fill="#63b8ff" stroke="#63b8ff" points="360.05,-27.82 349.69,-30.03 359.17,-34.76 360.05,-27.82"/>
</a>
</g>
<g id="a_edge13&#45;headlabel"><a xlink:href="dir_000190_000036.html" target="_top" xlink:title="1">
<text xml:space="preserve" text-anchor="middle" x="362.47" y="-21.77" font-family="Helvetica,sans-Serif" font-size="10.00" fill="#63b8ff">1</text>
</a>
</g>
</g>
<!-- dir_87c389725da715c492868deacfc59ee9&#45;&gt;dir_10508c1be7391f23f9614e5e6618e1bc -->
<g id="edge12" class="edge">
<title>dir_87c389725da715c492868deacfc59ee9&#45;&gt;dir_10508c1be7391f23f9614e5e6618e1bc</title>
<g id="a_edge12"><a xlink:href="dir_000190_000116.html" target="_top">
<path fill="none" stroke="#63b8ff" d="M371.57,-129.94C349.16,-121.36 310.9,-106.71 283.08,-96.05"/>
<polygon fill="#63b8ff" stroke="#63b8ff" points="284.61,-92.89 274.02,-92.58 282.11,-99.43 284.61,-92.89"/>
</a>
</g>
<g id="a_edge12&#45;headlabel"><a xlink:href="dir_000190_000116.html" target="_top" xlink:title="1">
<text xml:space="preserve" text-anchor="middle" x="287.57" y="-87.48" font-family="Helvetica,sans-Serif" font-size="10.00" fill="#63b8ff">1</text>
</a>
</g>
</g>
</g>
</svg>

<g id="navigator" transform="translate(0 0)" fill="#404254">
  <rect fill="#f2f5e9" fill-opacity="0.5" stroke="#606060" stroke-width=".5" x="0" y="0" width="60" height="60"/>
  <use id="zoomplus" xlink:href="#zoomPlus" x="17" y="9" onmousedown="handleZoom(evt,'in')"/>
  <use id="zoomminus" xlink:href="#zoomMin" x="42" y="9" onmousedown="handleZoom(evt,'out')"/>
  <use id="reset" xlink:href="#resetDef" x="30" y="36" onmousedown="handleReset()"/>
   <use id="arrowup" xlink:href="#arrowUp" x="0" y="0" onmousedown="handlePan(0,-1)"/>
  <use id="arrowright" xlink:href="#arrowRight" x="0" y="0" onmousedown="handlePan(1,0)"/>
  <use id="arrowdown" xlink:href="#arrowDown" x="0" y="0" onmousedown="handlePan(0,1)"/>
  <use id="arrowleft" xlink:href="#arrowLeft" x="0" y="0" onmousedown="handlePan(-1,0)"/>
</g>
<svg viewBox="0 0 15 15" width="100%" height="30px" preserveAspectRatio="xMaxYMin meet">
 <g id="arrow_out" transform="scale(0.3 0.3)">
  <a xlink:href="dir_67c4e8b77b4357a93ff15d0d28548721_dep_org.svg" target="_base">
   <rect id="button" ry="5" rx="5" y="6" x="6" height="38" width="38"
        fill="#f2f5e9" fill-opacity="0.5" stroke="#606060" stroke-width="1.0"/>
   <path id="arrow"
     d="M 11.500037,31.436501 C 11.940474,20.09759 22.043105,11.32322 32.158766,21.979434 L 37.068811,17.246167 C 37.068811,17.246167 37.088388,32 37.088388,32 L 22.160133,31.978069 C 22.160133,31.978069 26.997745,27.140456 26.997745,27.140456 C 18.528582,18.264221 13.291696,25.230495 11.500037,31.436501 z"
     style="fill:#404040;"/>
  </a>
 </g>
</svg>

<style type='text/css'>
<![CDATA[
[data-mouse-over-selected='false'] { opacity: 0.7; }
[data-mouse-over-selected='true']  { opacity: 1.0; }
]]>
</style>
<script type="application/ecmascript"><![CDATA[
document.addEventListener('DOMContentLoaded', (event) => {
  highlightEdges();
  highlightAdjacentNodes();
});
]]></script>
</svg>
