<?xml version="1.0" encoding="UTF-8" standalone="no"?>
<!DOCTYPE svg PUBLIC "-//W3C//DTD SVG 1.1//EN"
 "http://www.w3.org/Graphics/SVG/1.1/DTD/svg11.dtd">
<!-- Generated by graphviz version 14.1.2 (20260124.0452)
 -->
<!-- Title: applications Pages: 1 -->
<!--zoomable 128 -->

<svg id="main" version="1.1" xmlns="http://www.w3.org/2000/svg" xmlns:xlink="http://www.w3.org/1999/xlink" xml:space="preserve" onload="init(evt)">

<style type="text/css"><![CDATA[
.node, .edge {opacity: 0.7;}
.node.selected, .edge.selected {opacity: 1;}
.edge:hover path { stroke: red; }
.edge:hover polygon { stroke: red; fill: red; }
]]></style>

<defs>
  <circle id="rim" cx="0" cy="0" r="7"/>
  <circle id="rim2" cx="0" cy="0" r="3.5"/>
  <g id="zoomPlus">
    <use xlink:href="#rim" fill="#404040"><set attributeName="fill" to="#808080" begin="zoomplus.mouseover" end="zoomplus.mouseout"/></use>
    <path d="M-4,0h8M0,-4v8" fill="none" stroke="white" stroke-width="1.5" pointer-events="none"/>
  </g>
  <g id="zoomMin">
    <use xlink:href="#rim" fill="#404040"><set attributeName="fill" to="#808080" begin="zoomminus.mouseover" end="zoomminus.mouseout"/></use>
    <path d="M-4,0h8" fill="none" stroke="white" stroke-width="1.5" pointer-events="none"/>
  </g>
  <g id="arrowUp" transform="translate(30 24)">
    <use xlink:href="#rim"/>
    <path pointer-events="none" fill="none" stroke="white" stroke-width="1.5" d="M0,-3.0v7 M-2.5,-0.5L0,-3.0L2.5,-0.5"/>
  </g>
  <g id="arrowRight" transform="rotate(90) translate(36 -43)">
    <use xlink:href="#rim"/>
    <path pointer-events="none" fill="none" stroke="white" stroke-width="1.5" d="M0,-3.0v7 M-2.5,-0.5L0,-3.0L2.5,-0.5"/>
  </g>
  <g id="arrowDown" transform="rotate(180) translate(-30 -48)">
    <use xlink:href="#rim"/>
    <path pointer-events="none" fill="none" stroke="white" stroke-width="1.5" d="M0,-3.0v7 M-2.5,-0.5L0,-3.0L2.5,-0.5"/>
  </g>
  <g id="arrowLeft" transform="rotate(270) translate(-36 17)">
    <use xlink:href="#rim"/>
    <path pointer-events="none" fill="none" stroke="white" stroke-width="1.5" d="M0,-3.0v7 M-2.5,-0.5L0,-3.0L2.5,-0.5"/>
  </g>
  <g id="resetDef">
    <use xlink:href="#rim2" fill="#404040"><set attributeName="fill" to="#808080" begin="reset.mouseover" end="reset.mouseout"/></use>
  </g>
</defs>
<script type="application/ecmascript">
var viewWidth = 565;
var viewHeight = 128;
var sectionId = 'dynsection-0';
</script>
<script type="application/ecmascript" xlink:href="svg.min.js"/>
<svg id="graph" class="graph">
<g id="viewport">
<title>applications</title>
<g id="clust1" class="cluster">
<title>clusterdir_6d24da5b1da7789edd0dcd89dc1dbcb7</title>
<g id="a_clust1"><a xlink:href="dir_6d24da5b1da7789edd0dcd89dc1dbcb7.html" target="_top" xlink:title="b00f000e">
<polygon fill="#edf0f7" stroke="#7f7f7f" stroke-dasharray="5,2" points="8,-40 8,-112 549,-112 549,-40 8,-40"/>
<text xml:space="preserve" text-anchor="middle" x="278.5" y="-98.5" font-family="Helvetica,sans-Serif" font-size="10.00">b00f000e</text>
</a>
</g>
</g>
<g id="clust2" class="cluster">
<title>clusterdir_86cc9db09b207ba858ad95ae6c2160e7</title>
<g id="a_clust2"><a xlink:href="dir_86cc9db09b207ba858ad95ae6c2160e7.html" target="_top">
<polygon fill="#edf0f7" stroke="#404040" stroke-width="2" points="16,-48 16,-84 541,-84 541,-48 16,-48"/>
</a>
</g>
</g>
<!-- dir_86cc9db09b207ba858ad95ae6c2160e7 -->
<g id="node1" class="node">
<title>dir_86cc9db09b207ba858ad95ae6c2160e7</title>
<text xml:space="preserve" text-anchor="middle" x="58" y="-62.5" font-family="Helvetica,sans-Serif" font-size="10.00">applications</text>
</g>
<!-- dir_fc647d5b5fee47835a64d22ac5da01fe -->
<g id="node2" class="node">
<title>dir_fc647d5b5fee47835a64d22ac5da01fe</title>
<g id="a_node2"><a xlink:href="dir_fc647d5b5fee47835a64d22ac5da01fe.html" target="_top" xlink:title="azure_board_apps">
<polygon fill="#a2b4d6" stroke="#404040" points="205.75,-76 110.25,-76 110.25,-56 205.75,-56 205.75,-76"/>
<text xml:space="preserve" text-anchor="middle" x="158" y="-62.5" font-family="Helvetica,sans-Serif" font-size="10.00">azure_board_apps</text>
</a>
</g>
</g>
<!-- dir_1a94785b4fd07fa9f86295c704ab286b -->
<g id="node6" class="node">
<title>dir_1a94785b4fd07fa9f86295c704ab286b</title>
<g id="a_node6"><a xlink:href="dir_1a94785b4fd07fa9f86295c704ab286b.html" target="_top" xlink:title="modules">
<polygon fill="#edf0f7" stroke="red" stroke-dasharray="5,2" points="345.38,-20 292.62,-20 292.62,0 345.38,0 345.38,-20"/>
<text xml:space="preserve" text-anchor="middle" x="319" y="-6.5" font-family="Helvetica,sans-Serif" font-size="10.00">modules</text>
</a>
</g>
</g>
<!-- dir_fc647d5b5fee47835a64d22ac5da01fe&#45;&gt;dir_1a94785b4fd07fa9f86295c704ab286b -->
<g id="edge1" class="edge">
<title>dir_fc647d5b5fee47835a64d22ac5da01fe&#45;&gt;dir_1a94785b4fd07fa9f86295c704ab286b</title>
<g id="a_edge1"><a xlink:href="dir_000029_000167.html" target="_top">
<path fill="none" stroke="#63b8ff" d="M177.77,-55.5C188.61,-50.51 202.38,-44.5 215,-40 236.55,-32.31 261.19,-25.37 281.07,-20.2"/>
<polygon fill="#63b8ff" stroke="#63b8ff" points="281.88,-23.6 290.71,-17.74 280.15,-16.82 281.88,-23.6"/>
</a>
</g>
<g id="a_edge1&#45;headlabel"><a xlink:href="dir_000029_000167.html" target="_top" xlink:title="7">
<text xml:space="preserve" text-anchor="middle" x="280.57" y="-23.37" font-family="Helvetica,sans-Serif" font-size="10.00" fill="#63b8ff">7</text>
</a>
</g>
</g>
<!-- dir_762006535547d49f232d31a6fa06d2f9 -->
<g id="node3" class="node">
<title>dir_762006535547d49f232d31a6fa06d2f9</title>
<g id="a_node3"><a xlink:href="dir_762006535547d49f232d31a6fa06d2f9.html" target="_top" xlink:title="lyrat_board_app">
<polygon fill="#a2b4d6" stroke="#404040" points="308.5,-76 223.5,-76 223.5,-56 308.5,-56 308.5,-76"/>
<text xml:space="preserve" text-anchor="middle" x="266" y="-62.5" font-family="Helvetica,sans-Serif" font-size="10.00">lyrat_board_app</text>
</a>
</g>
</g>
<!-- dir_762006535547d49f232d31a6fa06d2f9&#45;&gt;dir_1a94785b4fd07fa9f86295c704ab286b -->
<g id="edge2" class="edge">
<title>dir_762006535547d49f232d31a6fa06d2f9&#45;&gt;dir_1a94785b4fd07fa9f86295c704ab286b</title>
<g id="a_edge2"><a xlink:href="dir_000140_000167.html" target="_top">
<path fill="none" stroke="#63b8ff" d="M275.23,-55.59C282.6,-48.08 293.13,-37.35 302.02,-28.3"/>
<polygon fill="#63b8ff" stroke="#63b8ff" points="304.31,-30.97 308.81,-21.38 299.31,-26.06 304.31,-30.97"/>
</a>
</g>
<g id="a_edge2&#45;headlabel"><a xlink:href="dir_000140_000167.html" target="_top" xlink:title="2">
<text xml:space="preserve" text-anchor="middle" x="304.88" y="-30.94" font-family="Helvetica,sans-Serif" font-size="10.00" fill="#63b8ff">2</text>
</a>
</g>
</g>
<!-- dir_7148f79eeb1e919c3881defc22882cd2 -->
<g id="node4" class="node">
<title>dir_7148f79eeb1e919c3881defc22882cd2</title>
<g id="a_node4"><a xlink:href="dir_7148f79eeb1e919c3881defc22882cd2.html" target="_top" xlink:title="m5stack_core_s3">
<polygon fill="#a2b4d6" stroke="#404040" points="419.62,-76 326.38,-76 326.38,-56 419.62,-56 419.62,-76"/>
<text xml:space="preserve" text-anchor="middle" x="373" y="-62.5" font-family="Helvetica,sans-Serif" font-size="10.00">m5stack_core_s3</text>
</a>
</g>
</g>
<!-- dir_7148f79eeb1e919c3881defc22882cd2&#45;&gt;dir_1a94785b4fd07fa9f86295c704ab286b -->
<g id="edge3" class="edge">
<title>dir_7148f79eeb1e919c3881defc22882cd2&#45;&gt;dir_1a94785b4fd07fa9f86295c704ab286b</title>
<g id="a_edge3"><a xlink:href="dir_000142_000167.html" target="_top">
<path fill="none" stroke="#63b8ff" d="M363.59,-55.59C356.08,-48.08 345.35,-37.35 336.3,-28.3"/>
<polygon fill="#63b8ff" stroke="#63b8ff" points="338.91,-25.96 329.37,-21.37 333.96,-30.91 338.91,-25.96"/>
</a>
</g>
<g id="a_edge3&#45;headlabel"><a xlink:href="dir_000142_000167.html" target="_top" xlink:title="7">
<text xml:space="preserve" text-anchor="middle" x="342.39" y="-21.93" font-family="Helvetica,sans-Serif" font-size="10.00" fill="#63b8ff">7</text>
</a>
</g>
</g>
<!-- dir_4e5ef387738f2f40c2e47c11e8e98eee -->
<g id="node5" class="node">
<title>dir_4e5ef387738f2f40c2e47c11e8e98eee</title>
<g id="a_node5"><a xlink:href="dir_4e5ef387738f2f40c2e47c11e8e98eee.html" target="_top" xlink:title="spectrum_box_lite">
<polygon fill="#a2b4d6" stroke="#404040" points="532.75,-76 437.25,-76 437.25,-56 532.75,-56 532.75,-76"/>
<text xml:space="preserve" text-anchor="middle" x="485" y="-62.5" font-family="Helvetica,sans-Serif" font-size="10.00">spectrum_box_lite</text>
</a>
</g>
</g>
<!-- dir_4e5ef387738f2f40c2e47c11e8e98eee&#45;&gt;dir_1a94785b4fd07fa9f86295c704ab286b -->
<g id="edge4" class="edge">
<title>dir_4e5ef387738f2f40c2e47c11e8e98eee&#45;&gt;dir_1a94785b4fd07fa9f86295c704ab286b</title>
<g id="a_edge4"><a xlink:href="dir_000177_000167.html" target="_top">
<path fill="none" stroke="#63b8ff" d="M465.88,-55.54C455.2,-50.49 441.55,-44.42 429,-40 405.32,-31.65 378.02,-24.44 356.55,-19.3"/>
<polygon fill="#63b8ff" stroke="#63b8ff" points="357.6,-15.95 347.06,-17.08 356,-22.77 357.6,-15.95"/>
</a>
</g>
<g id="a_edge4&#45;headlabel"><a xlink:href="dir_000177_000167.html" target="_top" xlink:title="3">
<text xml:space="preserve" text-anchor="middle" x="360.27" y="-10.16" font-family="Helvetica,sans-Serif" font-size="10.00" fill="#63b8ff">3</text>
</a>
</g>
</g>
</g>
</svg>

<g id="navigator" transform="translate(0 0)" fill="#404254">
  <rect fill="#f2f5e9" fill-opacity="0.5" stroke="#606060" stroke-width=".5" x="0" y="0" width="60" height="60"/>
  <use id="zoomplus" xlink:href="#zoomPlus" x="17" y="9" onmousedown="handleZoom(evt,'in')"/>
  <use id="zoomminus" xlink:href="#zoomMin" x="42" y="9" onmousedown="handleZoom(evt,'out')"/>
  <use id="reset" xlink:href="#resetDef" x="30" y="36" onmousedown="handleReset()"/>
   <use id="arrowup" xlink:href="#arrowUp" x="0" y="0" onmousedown="handlePan(0,-1)"/>
  <use id="arrowright" xlink:href="#arrowRight" x="0" y="0" onmousedown="handlePan(1,0)"/>
  <use id="arrowdown" xlink:href="#arrowDown" x="0" y="0" onmousedown="handlePan(0,1)"/>
  <use id="arrowleft" xlink:href="#arrowLeft" x="0" y="0" onmousedown="handlePan(-1,0)"/>
</g>
<svg viewBox="0 0 15 15" width="100%" height="30px" preserveAspectRatio="xMaxYMin meet">
 <g id="arrow_out" transform="scale(0.3 0.3)">
  <a xlink:href="dir_86cc9db09b207ba858ad95ae6c2160e7_dep_org.svg" target="_base">
   <rect id="button" ry="5" rx="5" y="6" x="6" height="38" width="38"
        fill="#f2f5e9" fill-opacity="0.5" stroke="#606060" stroke-width="1.0"/>
   <path id="arrow"
     d="M 11.500037,31.436501 C 11.940474,20.09759 22.043105,11.32322 32.158766,21.979434 L 37.068811,17.246167 C 37.068811,17.246167 37.088388,32 37.088388,32 L 22.160133,31.978069 C 22.160133,31.978069 26.997745,27.140456 26.997745,27.140456 C 18.528582,18.264221 13.291696,25.230495 11.500037,31.436501 z"
     style="fill:#404040;"/>
  </a>
 </g>
</svg>

<style type='text/css'>
<![CDATA[
[data-mouse-over-selected='false'] { opacity: 0.7; }
[data-mouse-over-selected='true']  { opacity: 1.0; }
]]>
</style>
<script type="application/ecmascript"><![CDATA[
document.addEventListener('DOMContentLoaded', (event) => {
  highlightEdges();
  highlightAdjacentNodes();
});
]]></script>
</svg>
