<?xml version="1.0" encoding="UTF-8" standalone="no"?>
<!DOCTYPE svg PUBLIC "-//W3C//DTD SVG 1.1//EN"
 "http://www.w3.org/Graphics/SVG/1.1/DTD/svg11.dtd">
<!-- Generated by graphviz version 14.1.2 (20260124.0452)
 -->
<!-- Title: dsp_types.h Pages: 1 -->
<!--zoomable 264 -->

<svg id="main" version="1.1" xmlns="http://www.w3.org/2000/svg" xmlns:xlink="http://www.w3.org/1999/xlink" xml:space="preserve" onload="init(evt)">

<style type="text/css"><![CDATA[
.node, .edge {opacity: 0.7;}
.node.selected, .edge.selected {opacity: 1;}
.edge:hover path { stroke: red; }
.edge:hover polygon { stroke: red; fill: red; }
]]></style>

<defs>
  <circle id="rim" cx="0" cy="0" r="7"/>
  <circle id="rim2" cx="0" cy="0" r="3.5"/>
  <g id="zoomPlus">
    <use xlink:href="#rim" fill="#404040"><set attributeName="fill" to="#808080" begin="zoomplus.mouseover" end="zoomplus.mouseout"/></use>
    <path d="M-4,0h8M0,-4v8" fill="none" stroke="white" stroke-width="1.5" pointer-events="none"/>
  </g>
  <g id="zoomMin">
    <use xlink:href="#rim" fill="#404040"><set attributeName="fill" to="#808080" begin="zoomminus.mouseover" end="zoomminus.mouseout"/></use>
    <path d="M-4,0h8" fill="none" stroke="white" stroke-width="1.5" pointer-events="none"/>
  </g>
  <g id="arrowUp" transform="translate(30 24)">
    <use xlink:href="#rim"/>
    <path pointer-events="none" fill="none" stroke="white" stroke-width="1.5" d="M0,-3.0v7 M-2.5,-0.5L0,-3.0L2.5,-0.5"/>
  </g>
  <g id="arrowRight" transform="rotate(90) translate(36 -43)">
    <use xlink:href="#rim"/>
    <path pointer-events="none" fill="none" stroke="white" stroke-width="1.5" d="M0,-3.0v7 M-2.5,-0.5L0,-3.0L2.5,-0.5"/>
  </g>
  <g id="arrowDown" transform="rotate(180) translate(-30 -48)">
    <use xlink:href="#rim"/>
    <path pointer-events="none" fill="none" stroke="white" stroke-width="1.5" d="M0,-3.0v7 M-2.5,-0.5L0,-3.0L2.5,-0.5"/>
  </g>
  <g id="arrowLeft" transform="rotate(270) translate(-36 17)">
    <use xlink:href="#rim"/>
    <path pointer-events="none" fill="none" stroke="white" stroke-width="1.5" d="M0,-3.0v7 M-2.5,-0.5L0,-3.0L2.5,-0.5"/>
  </g>
  <g id="resetDef">
    <use xlink:href="#rim2" fill="#404040"><set attributeName="fill" to="#808080" begin="reset.mouseover" end="reset.mouseout"/></use>
  </g>
</defs>
<script type="application/ecmascript">
var viewWidth = 2815;
var viewHeight = 264;
var sectionId = 'dynsection-1';
</script>
<script type="application/ecmascript" xlink:href="svg.min.js"/>
<svg id="graph" class="graph">
<g id="viewport">
<title>dsp_types.h</title>
<!-- Node1 -->
<g id="Node000001" class="node">
<title>Node1</title>
<g id="a_Node000001"><a xlink:title=" ">
<polygon fill="#999999" stroke="#666666" points="1967.22,-256 1897.97,-256 1897.97,-236 1967.22,-236 1967.22,-256"/>
<text xml:space="preserve" text-anchor="middle" x="1932.59" y="-242.5" font-family="Helvetica,sans-Serif" font-size="10.00">dsp_types.h</text>
</a>
</g>
</g>
<!-- Node2 -->
<g id="Node000002" class="node">
<title>Node2</title>
<g id="a_Node000002"><a xlink:href="dspi__conv_8h.html" target="_top" xlink:title=" ">
<polygon fill="white" stroke="#666666" points="1494.47,-200 1426.72,-200 1426.72,-180 1494.47,-180 1494.47,-200"/>
<text xml:space="preserve" text-anchor="middle" x="1460.59" y="-186.5" font-family="Helvetica,sans-Serif" font-size="10.00">dspi_conv.h</text>
</a>
</g>
</g>
<!-- Node1&#45;&gt;Node2 -->
<g id="edge1_Node000001_Node000002" class="edge">
<title>Node1&#45;&gt;Node2</title>
<g id="a_edge1_Node000001_Node000002"><a xlink:title=" ">
<path fill="none" stroke="#63b8ff" d="M1886.31,-239.71C1791.77,-228.89 1578.4,-204.48 1494.95,-194.93"/>
<polygon fill="#63b8ff" stroke="#63b8ff" points="1885.66,-243.15 1896,-240.81 1886.46,-236.2 1885.66,-243.15"/>
</a>
</g>
</g>
<!-- Node4 -->
<g id="Node000004" class="node">
<title>Node4</title>
<g id="a_Node000004"><a xlink:href="esp__dsp_8h.html" target="_top" xlink:title=" ">
<polygon fill="white" stroke="#666666" points="1491.09,-138 1430.09,-138 1430.09,-118 1491.09,-118 1491.09,-138"/>
<text xml:space="preserve" text-anchor="middle" x="1460.59" y="-124.5" font-family="Helvetica,sans-Serif" font-size="10.00">esp_dsp.h</text>
</a>
</g>
</g>
<!-- Node1&#45;&gt;Node4 -->
<g id="edge46_Node000001_Node000004" class="edge">
<title>Node1&#45;&gt;Node4</title>
<g id="a_edge46_Node000001_Node000004"><a xlink:title=" ">
<path fill="none" stroke="#63b8ff" d="M1886.54,-236.43C1806.81,-221.12 1638.31,-186.63 1499.59,-144 1494.32,-142.38 1488.74,-140.4 1483.5,-138.42"/>
<polygon fill="#63b8ff" stroke="#63b8ff" points="1885.67,-239.83 1896.15,-238.27 1886.99,-232.95 1885.67,-239.83"/>
</a>
</g>
</g>
<!-- Node17 -->
<g id="Node000017" class="node">
<title>Node17</title>
<g id="a_Node000017"><a xlink:href="dsps__fft2r__sc16__ansi_8c.html" target="_top" xlink:title=" ">
<polygon fill="white" stroke="#666666" points="1417.84,-20 1301.34,-20 1301.34,0 1417.84,0 1417.84,-20"/>
<text xml:space="preserve" text-anchor="middle" x="1359.59" y="-6.5" font-family="Helvetica,sans-Serif" font-size="10.00">dsps_fft2r_sc16_ansi.c</text>
</a>
</g>
</g>
<!-- Node1&#45;&gt;Node17 -->
<g id="edge43_Node000001_Node000017" class="edge">
<title>Node1&#45;&gt;Node17</title>
<g id="a_edge43_Node000001_Node000017"><a xlink:title=" ">
<path fill="none" stroke="#63b8ff" d="M1886.33,-244.59C1605.42,-241.63 135.91,-219.34 4.59,-76 -1.41,-69.45 -1.59,-62.39 4.59,-56 50.26,-8.79 1046.76,-9.7 1300.98,-10.7"/>
<polygon fill="#63b8ff" stroke="#63b8ff" points="1886.15,-248.09 1896.18,-244.69 1886.22,-241.09 1886.15,-248.09"/>
</a>
</g>
</g>
<!-- Node38 -->
<g id="Node000038" class="node">
<title>Node38</title>
<g id="a_Node000038"><a xlink:href="dspi__dotprod_8h.html" target="_top" xlink:title=" ">
<polygon fill="white" stroke="#666666" points="1914.47,-200 1834.72,-200 1834.72,-180 1914.47,-180 1914.47,-200"/>
<text xml:space="preserve" text-anchor="middle" x="1874.59" y="-186.5" font-family="Helvetica,sans-Serif" font-size="10.00">dspi_dotprod.h</text>
</a>
</g>
</g>
<!-- Node1&#45;&gt;Node38 -->
<g id="edge29_Node000001_Node000038" class="edge">
<title>Node1&#45;&gt;Node38</title>
<g id="a_edge29_Node000001_Node000038"><a xlink:title=" ">
<path fill="none" stroke="#63b8ff" d="M1914.17,-227.85C1904.37,-218.72 1892.7,-207.86 1884.58,-200.3"/>
<polygon fill="#63b8ff" stroke="#63b8ff" points="1911.68,-230.31 1921.38,-234.56 1916.45,-225.19 1911.68,-230.31"/>
</a>
</g>
</g>
<!-- Node49 -->
<g id="Node000049" class="node">
<title>Node49</title>
<g id="a_Node000049"><a xlink:href="dsps__fft2r__fc32__ae32_8c.html" target="_top" xlink:title=" ">
<polygon fill="white" stroke="#666666" points="2050.22,-200 1932.97,-200 1932.97,-180 2050.22,-180 2050.22,-200"/>
<text xml:space="preserve" text-anchor="middle" x="1991.59" y="-186.5" font-family="Helvetica,sans-Serif" font-size="10.00">dsps_fft2r_fc32_ae32.c</text>
</a>
</g>
</g>
<!-- Node1&#45;&gt;Node49 -->
<g id="edge41_Node000001_Node000049" class="edge">
<title>Node1&#45;&gt;Node49</title>
<g id="a_edge41_Node000001_Node000049"><a xlink:title=" ">
<path fill="none" stroke="#63b8ff" d="M1951.33,-227.85C1961.3,-218.72 1973.18,-207.86 1981.43,-200.3"/>
<polygon fill="#63b8ff" stroke="#63b8ff" points="1949,-225.24 1943.98,-234.57 1953.72,-230.4 1949,-225.24"/>
</a>
</g>
</g>
<!-- Node50 -->
<g id="Node000050" class="node">
<title>Node50</title>
<g id="a_Node000050"><a xlink:href="dsps__fft2r__fc32__ansi_8c.html" target="_top" xlink:title=" ">
<polygon fill="white" stroke="#666666" points="2182.72,-200 2068.47,-200 2068.47,-180 2182.72,-180 2182.72,-200"/>
<text xml:space="preserve" text-anchor="middle" x="2125.59" y="-186.5" font-family="Helvetica,sans-Serif" font-size="10.00">dsps_fft2r_fc32_ansi.c</text>
</a>
</g>
</g>
<!-- Node1&#45;&gt;Node50 -->
<g id="edge42_Node000001_Node000050" class="edge">
<title>Node1&#45;&gt;Node50</title>
<g id="a_edge42_Node000001_Node000050"><a xlink:title=" ">
<path fill="none" stroke="#63b8ff" d="M1977.05,-232.56C2011.97,-222.79 2059.85,-209.39 2091.71,-200.48"/>
<polygon fill="#63b8ff" stroke="#63b8ff" points="1976.35,-229.12 1967.67,-235.19 1978.24,-235.86 1976.35,-229.12"/>
</a>
</g>
</g>
<!-- Node51 -->
<g id="Node000051" class="node">
<title>Node51</title>
<g id="a_Node000051"><a xlink:href="dsps__fft4r__fc32__ae32_8c.html" target="_top" xlink:title=" ">
<polygon fill="white" stroke="#666666" points="2318.22,-200 2200.97,-200 2200.97,-180 2318.22,-180 2318.22,-200"/>
<text xml:space="preserve" text-anchor="middle" x="2259.59" y="-186.5" font-family="Helvetica,sans-Serif" font-size="10.00">dsps_fft4r_fc32_ae32.c</text>
</a>
</g>
</g>
<!-- Node1&#45;&gt;Node51 -->
<g id="edge44_Node000001_Node000051" class="edge">
<title>Node1&#45;&gt;Node51</title>
<g id="a_edge44_Node000001_Node000051"><a xlink:title=" ">
<path fill="none" stroke="#63b8ff" d="M1978.72,-237.38C2037.35,-227.7 2138.55,-210.99 2202.13,-200.49"/>
<polygon fill="#63b8ff" stroke="#63b8ff" points="1978.38,-233.89 1969.08,-238.97 1979.52,-240.8 1978.38,-233.89"/>
</a>
</g>
</g>
<!-- Node52 -->
<g id="Node000052" class="node">
<title>Node52</title>
<g id="a_Node000052"><a xlink:href="dsps__fft4r__fc32__ansi_8c.html" target="_top" xlink:title=" ">
<polygon fill="white" stroke="#666666" points="2450.72,-200 2336.47,-200 2336.47,-180 2450.72,-180 2450.72,-200"/>
<text xml:space="preserve" text-anchor="middle" x="2393.59" y="-186.5" font-family="Helvetica,sans-Serif" font-size="10.00">dsps_fft4r_fc32_ansi.c</text>
</a>
</g>
</g>
<!-- Node1&#45;&gt;Node52 -->
<g id="edge45_Node000001_Node000052" class="edge">
<title>Node1&#45;&gt;Node52</title>
<g id="a_edge45_Node000001_Node000052"><a xlink:title=" ">
<path fill="none" stroke="#63b8ff" d="M1978.67,-240.08C2052.41,-232.14 2201.48,-215.78 2327.59,-200 2330.35,-199.66 2333.16,-199.3 2336.01,-198.93"/>
<polygon fill="#63b8ff" stroke="#63b8ff" points="1978.57,-236.58 1969,-241.12 1979.32,-243.53 1978.57,-236.58"/>
</a>
</g>
</g>
<!-- Node3 -->
<g id="Node000003" class="node">
<title>Node3</title>
<g id="a_Node000003"><a xlink:href="dspi__conv__f32__ansi_8c.html" target="_top" xlink:title=" ">
<polygon fill="white" stroke="#666666" points="1411.84,-138 1301.34,-138 1301.34,-118 1411.84,-118 1411.84,-138"/>
<text xml:space="preserve" text-anchor="middle" x="1356.59" y="-124.5" font-family="Helvetica,sans-Serif" font-size="10.00">dspi_conv_f32_ansi.c</text>
</a>
</g>
</g>
<!-- Node2&#45;&gt;Node3 -->
<g id="edge2_Node000002_Node000003" class="edge">
<title>Node2&#45;&gt;Node3</title>
<g id="a_edge2_Node000002_Node000003"><a xlink:title=" ">
<path fill="none" stroke="#63b8ff" d="M1434.6,-174C1415.18,-162.8 1389.25,-147.84 1372.73,-138.31"/>
<polygon fill="#63b8ff" stroke="#63b8ff" points="1432.62,-176.9 1443.03,-178.87 1436.12,-170.84 1432.62,-176.9"/>
</a>
</g>
</g>
<!-- Node2&#45;&gt;Node4 -->
<g id="edge3_Node000002_Node000004" class="edge">
<title>Node2&#45;&gt;Node4</title>
<g id="a_edge3_Node000002_Node000004"><a xlink:title=" ">
<path fill="none" stroke="#63b8ff" d="M1460.59,-168.25C1460.59,-157.97 1460.59,-146.09 1460.59,-138.11"/>
<polygon fill="#63b8ff" stroke="#63b8ff" points="1457.09,-168.11 1460.59,-178.11 1464.09,-168.11 1457.09,-168.11"/>
</a>
</g>
</g>
<!-- Node5 -->
<g id="Node000005" class="node">
<title>Node5</title>
<g id="a_Node000005"><a xlink:href="applications_2azure__board__apps_2apps_23d__graphics_2main_23d__graphics__demo_8cpp.html" target="_top" xlink:title=" ">
<polygon fill="white" stroke="#666666" points="2681.84,-76 2565.34,-76 2565.34,-56 2681.84,-56 2681.84,-76"/>
<text xml:space="preserve" text-anchor="middle" x="2623.59" y="-62.5" font-family="Helvetica,sans-Serif" font-size="10.00">3d_graphics_demo.cpp</text>
</a>
</g>
</g>
<!-- Node4&#45;&gt;Node5 -->
<g id="edge4_Node000004_Node000005" class="edge">
<title>Node4&#45;&gt;Node5</title>
<g id="a_edge4_Node000004_Node000005"><a xlink:title=" ">
<path fill="none" stroke="#63b8ff" d="M1492.05,-113.89C1494.58,-113.15 1497.11,-112.51 1499.59,-112 1729.9,-65.17 2322.39,-95.67 2556.59,-76 2559.4,-75.76 2562.27,-75.49 2565.16,-75.2"/>
<polygon fill="#63b8ff" stroke="#63b8ff" points="1491.02,-110.55 1482.69,-117.1 1493.28,-117.17 1491.02,-110.55"/>
</a>
</g>
</g>
<!-- Node6 -->
<g id="Node000006" class="node">
<title>Node6</title>
<g id="a_Node000006"><a xlink:href="applications_2m5stack__core__s3_2apps_23d__graphics_2main_23d__graphics__demo_8cpp.html" target="_top" xlink:title=" ">
<polygon fill="white" stroke="#666666" points="129.84,-76 13.34,-76 13.34,-56 129.84,-56 129.84,-76"/>
<text xml:space="preserve" text-anchor="middle" x="71.59" y="-62.5" font-family="Helvetica,sans-Serif" font-size="10.00">3d_graphics_demo.cpp</text>
</a>
</g>
</g>
<!-- Node4&#45;&gt;Node6 -->
<g id="edge5_Node000004_Node000006" class="edge">
<title>Node4&#45;&gt;Node6</title>
<g id="a_edge5_Node000004_Node000006"><a xlink:title=" ">
<path fill="none" stroke="#63b8ff" d="M1428.61,-113.96C1425.93,-113.19 1423.23,-112.52 1420.59,-112 1141.12,-57.26 423.46,-98.71 139.59,-76 136.5,-75.75 133.34,-75.46 130.16,-75.14"/>
<polygon fill="#63b8ff" stroke="#63b8ff" points="1427.35,-117.23 1437.95,-117.08 1429.57,-110.59 1427.35,-117.23"/>
</a>
</g>
</g>
<!-- Node7 -->
<g id="Node000007" class="node">
<title>Node7</title>
<g id="a_Node000007"><a xlink:href="external__examples_2b00f000e_2applications_2azure__board__apps_2apps_23d__graphics_2main_23d__graphics__demo_8cpp.html" target="_top" xlink:title=" ">
<polygon fill="white" stroke="#666666" points="264.84,-76 148.34,-76 148.34,-56 264.84,-56 264.84,-76"/>
<text xml:space="preserve" text-anchor="middle" x="206.59" y="-62.5" font-family="Helvetica,sans-Serif" font-size="10.00">3d_graphics_demo.cpp</text>
</a>
</g>
</g>
<!-- Node4&#45;&gt;Node7 -->
<g id="edge6_Node000004_Node000007" class="edge">
<title>Node4&#45;&gt;Node7</title>
<g id="a_edge6_Node000004_Node000007"><a xlink:title=" ">
<path fill="none" stroke="#63b8ff" d="M1428.61,-113.97C1425.93,-113.2 1423.23,-112.52 1420.59,-112 1170.63,-62.61 528.54,-96.74 274.59,-76 271.51,-75.75 268.34,-75.45 265.16,-75.13"/>
<polygon fill="#63b8ff" stroke="#63b8ff" points="1427.35,-117.24 1437.94,-117.1 1429.57,-110.6 1427.35,-117.24"/>
</a>
</g>
</g>
<!-- Node8 -->
<g id="Node000008" class="node">
<title>Node8</title>
<g id="a_Node000008"><a xlink:href="external__examples_2b00f000e_2applications_2m5stack__core__s3_2apps_23d__graphics_2main_23d__graphics__demo_8cpp.html" target="_top" xlink:title=" ">
<polygon fill="white" stroke="#666666" points="399.84,-76 283.34,-76 283.34,-56 399.84,-56 399.84,-76"/>
<text xml:space="preserve" text-anchor="middle" x="341.59" y="-62.5" font-family="Helvetica,sans-Serif" font-size="10.00">3d_graphics_demo.cpp</text>
</a>
</g>
</g>
<!-- Node4&#45;&gt;Node8 -->
<g id="edge7_Node000004_Node000008" class="edge">
<title>Node4&#45;&gt;Node8</title>
<g id="a_edge7_Node000004_Node000008"><a xlink:title=" ">
<path fill="none" stroke="#63b8ff" d="M1428.61,-113.98C1425.92,-113.21 1423.23,-112.53 1420.59,-112 1200.14,-67.96 633.62,-94.77 409.59,-76 406.51,-75.74 403.35,-75.44 400.16,-75.11"/>
<polygon fill="#63b8ff" stroke="#63b8ff" points="1427.35,-117.25 1437.94,-117.11 1429.57,-110.62 1427.35,-117.25"/>
</a>
</g>
</g>
<!-- Node9 -->
<g id="Node000009" class="node">
<title>Node9</title>
<g id="a_Node000009"><a xlink:href="external__examples_2d1468452_2apps_23d__graphics_2main_23d__graphics__demo_8cpp.html" target="_top" xlink:title=" ">
<polygon fill="white" stroke="#666666" points="534.84,-76 418.34,-76 418.34,-56 534.84,-56 534.84,-76"/>
<text xml:space="preserve" text-anchor="middle" x="476.59" y="-62.5" font-family="Helvetica,sans-Serif" font-size="10.00">3d_graphics_demo.cpp</text>
</a>
</g>
</g>
<!-- Node4&#45;&gt;Node9 -->
<g id="edge8_Node000004_Node000009" class="edge">
<title>Node4&#45;&gt;Node9</title>
<g id="a_edge8_Node000004_Node000009"><a xlink:title=" ">
<path fill="none" stroke="#63b8ff" d="M1428.6,-114C1425.92,-113.22 1423.23,-112.53 1420.59,-112 1229.64,-73.31 738.7,-92.8 544.59,-76 541.51,-75.73 538.35,-75.43 535.16,-75.09"/>
<polygon fill="#63b8ff" stroke="#63b8ff" points="1427.34,-117.27 1437.94,-117.13 1429.57,-110.63 1427.34,-117.27"/>
</a>
</g>
</g>
<!-- Node10 -->
<g id="Node000010" class="node">
<title>Node10</title>
<g id="a_Node000010"><a xlink:href="external__examples_2f9c2d4b3_2azure__board__apps_2apps_23d__graphics_2main_23d__graphics__demo_8cpp.html" target="_top" xlink:title=" ">
<polygon fill="white" stroke="#666666" points="669.84,-76 553.34,-76 553.34,-56 669.84,-56 669.84,-76"/>
<text xml:space="preserve" text-anchor="middle" x="611.59" y="-62.5" font-family="Helvetica,sans-Serif" font-size="10.00">3d_graphics_demo.cpp</text>
</a>
</g>
</g>
<!-- Node4&#45;&gt;Node10 -->
<g id="edge9_Node000004_Node000010" class="edge">
<title>Node4&#45;&gt;Node10</title>
<g id="a_edge9_Node000004_Node000010"><a xlink:title=" ">
<path fill="none" stroke="#63b8ff" d="M1428.6,-114.02C1425.92,-113.24 1423.23,-112.54 1420.59,-112 1097.25,-45.23 1007.39,-106.01 678.59,-76 675.79,-75.74 672.92,-75.46 670.02,-75.15"/>
<polygon fill="#63b8ff" stroke="#63b8ff" points="1427.34,-117.29 1437.93,-117.16 1429.57,-110.66 1427.34,-117.29"/>
</a>
</g>
</g>
<!-- Node11 -->
<g id="Node000011" class="node">
<title>Node11</title>
<g id="a_Node000011"><a xlink:href="applications_2m5stack__core__s3_2apps_2kalman__filter_2main_23d__kalman__demo_8cpp.html" target="_top" xlink:title=" ">
<polygon fill="white" stroke="#666666" points="799.22,-76 687.97,-76 687.97,-56 799.22,-56 799.22,-76"/>
<text xml:space="preserve" text-anchor="middle" x="743.59" y="-62.5" font-family="Helvetica,sans-Serif" font-size="10.00">3d_kalman_demo.cpp</text>
</a>
</g>
</g>
<!-- Node4&#45;&gt;Node11 -->
<g id="edge10_Node000004_Node000011" class="edge">
<title>Node4&#45;&gt;Node11</title>
<g id="a_edge10_Node000004_Node000011"><a xlink:title=" ">
<path fill="none" stroke="#63b8ff" d="M1428.11,-113.91C1425.59,-113.18 1423.07,-112.52 1420.59,-112 1153.6,-55.45 1079.16,-103.02 807.59,-76 804.91,-75.73 802.17,-75.44 799.41,-75.12"/>
<polygon fill="#63b8ff" stroke="#63b8ff" points="1426.91,-117.2 1437.5,-117.05 1429.13,-110.56 1426.91,-117.2"/>
</a>
</g>
</g>
<!-- Node12 -->
<g id="Node000012" class="node">
<title>Node12</title>
<g id="a_Node000012"><a xlink:href="external__examples_2b00f000e_2applications_2m5stack__core__s3_2apps_2kalman__filter_2main_23d__kalman__demo_8cpp.html" target="_top" xlink:title=" ">
<polygon fill="white" stroke="#666666" points="928.22,-76 816.97,-76 816.97,-56 928.22,-56 928.22,-76"/>
<text xml:space="preserve" text-anchor="middle" x="872.59" y="-62.5" font-family="Helvetica,sans-Serif" font-size="10.00">3d_kalman_demo.cpp</text>
</a>
</g>
</g>
<!-- Node4&#45;&gt;Node12 -->
<g id="edge11_Node000004_Node000012" class="edge">
<title>Node4&#45;&gt;Node12</title>
<g id="a_edge11_Node000004_Node000012"><a xlink:title=" ">
<path fill="none" stroke="#63b8ff" d="M1428.1,-113.95C1425.59,-113.21 1423.06,-112.54 1420.59,-112 1210.36,-65.74 1151.65,-98.77 937.59,-76 934.65,-75.69 931.63,-75.34 928.58,-74.98"/>
<polygon fill="#63b8ff" stroke="#63b8ff" points="1426.9,-117.24 1437.49,-117.12 1429.13,-110.61 1426.9,-117.24"/>
</a>
</g>
</g>
<!-- Node13 -->
<g id="Node000013" class="node">
<title>Node13</title>
<g id="a_Node000013"><a xlink:href="applications_2lyrat__board__app_2main_2audio__amp__main_8c.html" target="_top" xlink:title=" ">
<polygon fill="white" stroke="#666666" points="1044.47,-76 946.72,-76 946.72,-56 1044.47,-56 1044.47,-76"/>
<text xml:space="preserve" text-anchor="middle" x="995.59" y="-62.5" font-family="Helvetica,sans-Serif" font-size="10.00">audio_amp_main.c</text>
</a>
</g>
</g>
<!-- Node4&#45;&gt;Node13 -->
<g id="edge12_Node000004_Node000013" class="edge">
<title>Node4&#45;&gt;Node13</title>
<g id="a_edge12_Node000004_Node000013"><a xlink:title=" ">
<path fill="none" stroke="#63b8ff" d="M1427.63,-113.88C1425.27,-113.18 1422.91,-112.54 1420.59,-112 1260.95,-74.91 1216.19,-96.57 1053.59,-76 1050.76,-75.64 1047.86,-75.25 1044.93,-74.85"/>
<polygon fill="#63b8ff" stroke="#63b8ff" points="1426.46,-117.18 1437.05,-117.06 1428.69,-110.55 1426.46,-117.18"/>
</a>
</g>
</g>
<!-- Node14 -->
<g id="Node000014" class="node">
<title>Node14</title>
<g id="a_Node000014"><a xlink:href="external__examples_21fa4e38f_2lyrat__board__app_2main_2audio__amp__main_8c.html" target="_top" xlink:title=" ">
<polygon fill="white" stroke="#666666" points="1160.47,-76 1062.72,-76 1062.72,-56 1160.47,-56 1160.47,-76"/>
<text xml:space="preserve" text-anchor="middle" x="1111.59" y="-62.5" font-family="Helvetica,sans-Serif" font-size="10.00">audio_amp_main.c</text>
</a>
</g>
</g>
<!-- Node4&#45;&gt;Node14 -->
<g id="edge13_Node000004_Node000014" class="edge">
<title>Node4&#45;&gt;Node14</title>
<g id="a_edge13_Node000004_Node000014"><a xlink:title=" ">
<path fill="none" stroke="#63b8ff" d="M1427.15,-113.86C1424.95,-113.18 1422.75,-112.55 1420.59,-112 1311.41,-84.05 1281.05,-92.64 1169.59,-76 1166.77,-75.58 1163.87,-75.14 1160.95,-74.7"/>
<polygon fill="#63b8ff" stroke="#63b8ff" points="1425.99,-117.16 1436.59,-117.08 1428.25,-110.54 1425.99,-117.16"/>
</a>
</g>
</g>
<!-- Node15 -->
<g id="Node000015" class="node">
<title>Node15</title>
<g id="a_Node000015"><a xlink:href="external__examples_2b00f000e_2applications_2lyrat__board__app_2main_2audio__amp__main_8c.html" target="_top" xlink:title=" ">
<polygon fill="white" stroke="#666666" points="1276.47,-76 1178.72,-76 1178.72,-56 1276.47,-56 1276.47,-76"/>
<text xml:space="preserve" text-anchor="middle" x="1227.59" y="-62.5" font-family="Helvetica,sans-Serif" font-size="10.00">audio_amp_main.c</text>
</a>
</g>
</g>
<!-- Node4&#45;&gt;Node15 -->
<g id="edge14_Node000004_Node000015" class="edge">
<title>Node4&#45;&gt;Node15</title>
<g id="a_edge14_Node000004_Node000015"><a xlink:title=" ">
<path fill="none" stroke="#63b8ff" d="M1426.24,-113.79C1424.34,-113.16 1422.45,-112.56 1420.59,-112 1372.02,-97.3 1315.35,-84.6 1276.03,-76.48"/>
<polygon fill="#63b8ff" stroke="#63b8ff" points="1425.05,-117.09 1435.65,-117.1 1427.37,-110.48 1425.05,-117.09"/>
</a>
</g>
</g>
<!-- Node16 -->
<g id="Node000016" class="node">
<title>Node16</title>
<g id="a_Node000016"><a xlink:href="dsp__tests_8h.html" target="_top" xlink:title=" ">
<polygon fill="#fff0f0" stroke="red" points="2767.09,-76 2700.09,-76 2700.09,-56 2767.09,-56 2767.09,-76"/>
<text xml:space="preserve" text-anchor="middle" x="2733.59" y="-62.5" font-family="Helvetica,sans-Serif" font-size="10.00">dsp_tests.h</text>
</a>
</g>
</g>
<!-- Node4&#45;&gt;Node16 -->
<g id="edge15_Node000004_Node000016" class="edge">
<title>Node4&#45;&gt;Node16</title>
<g id="a_edge15_Node000004_Node000016"><a xlink:title=" ">
<path fill="none" stroke="#63b8ff" d="M1492.05,-113.88C1494.57,-113.14 1497.11,-112.5 1499.59,-112 1759.17,-59.73 2427.65,-107.24 2690.59,-76 2693.62,-75.64 2696.75,-75.17 2699.88,-74.64"/>
<polygon fill="#63b8ff" stroke="#63b8ff" points="1491.02,-110.54 1482.69,-117.08 1493.28,-117.16 1491.02,-110.54"/>
</a>
</g>
</g>
<!-- Node23 -->
<g id="Node000023" class="node">
<title>Node23</title>
<g id="a_Node000023"><a xlink:href="applications_2azure__board__apps_2graphics_23d__matrix_23d__matrix__src_2graphics__support_8h.html" target="_top" xlink:title=" ">
<polygon fill="#fff0f0" stroke="red" points="1392.84,-76 1294.34,-76 1294.34,-56 1392.84,-56 1392.84,-76"/>
<text xml:space="preserve" text-anchor="middle" x="1343.59" y="-62.5" font-family="Helvetica,sans-Serif" font-size="10.00">graphics_support.h</text>
</a>
</g>
</g>
<!-- Node4&#45;&gt;Node23 -->
<g id="edge17_Node000004_Node000023" class="edge">
<title>Node4&#45;&gt;Node23</title>
<g id="a_edge17_Node000004_Node000023"><a xlink:title=" ">
<path fill="none" stroke="#63b8ff" d="M1432.25,-112.46C1410.31,-101.21 1380.58,-85.97 1361.74,-76.31"/>
<polygon fill="#63b8ff" stroke="#63b8ff" points="1430.47,-115.49 1440.96,-116.93 1433.66,-109.26 1430.47,-115.49"/>
</a>
</g>
</g>
<!-- Node25 -->
<g id="Node000025" class="node">
<title>Node25</title>
<g id="a_Node000025"><a xlink:href="external__examples_2b00f000e_2applications_2azure__board__apps_2graphics_23d__matrix_23d__matrix__src_2graphics__support_8h.html" target="_top" xlink:title=" ">
<polygon fill="#fff0f0" stroke="red" points="1509.84,-76 1411.34,-76 1411.34,-56 1509.84,-56 1509.84,-76"/>
<text xml:space="preserve" text-anchor="middle" x="1460.59" y="-62.5" font-family="Helvetica,sans-Serif" font-size="10.00">graphics_support.h</text>
</a>
</g>
</g>
<!-- Node4&#45;&gt;Node25 -->
<g id="edge18_Node000004_Node000025" class="edge">
<title>Node4&#45;&gt;Node25</title>
<g id="a_edge18_Node000004_Node000025"><a xlink:title=" ">
<path fill="none" stroke="#63b8ff" d="M1460.59,-106.25C1460.59,-95.97 1460.59,-84.09 1460.59,-76.11"/>
<polygon fill="#63b8ff" stroke="#63b8ff" points="1457.09,-106.11 1460.59,-116.11 1464.09,-106.11 1457.09,-106.11"/>
</a>
</g>
</g>
<!-- Node27 -->
<g id="Node000027" class="node">
<title>Node27</title>
<g id="a_Node000027"><a xlink:href="external__examples_2f9c2d4b3_2azure__board__apps_2graphics_23d__matrix_23d__matrix__src_2graphics__support_8h.html" target="_top" xlink:title=" ">
<polygon fill="#fff0f0" stroke="red" points="1626.84,-76 1528.34,-76 1528.34,-56 1626.84,-56 1626.84,-76"/>
<text xml:space="preserve" text-anchor="middle" x="1577.59" y="-62.5" font-family="Helvetica,sans-Serif" font-size="10.00">graphics_support.h</text>
</a>
</g>
</g>
<!-- Node4&#45;&gt;Node27 -->
<g id="edge19_Node000004_Node000027" class="edge">
<title>Node4&#45;&gt;Node27</title>
<g id="a_edge19_Node000004_Node000027"><a xlink:title=" ">
<path fill="none" stroke="#63b8ff" d="M1488.93,-112.46C1510.87,-101.21 1540.6,-85.97 1559.44,-76.31"/>
<polygon fill="#63b8ff" stroke="#63b8ff" points="1487.52,-109.26 1480.22,-116.93 1490.71,-115.49 1487.52,-109.26"/>
</a>
</g>
</g>
<!-- Node29 -->
<g id="Node000029" class="node">
<title>Node29</title>
<g id="a_Node000029"><a xlink:href="applications_2m5stack__core__s3_2apps_23d__graphics_2main_2init__display_8c.html" target="_top" xlink:title=" ">
<polygon fill="white" stroke="#666666" points="1716.72,-76 1644.47,-76 1644.47,-56 1716.72,-56 1716.72,-76"/>
<text xml:space="preserve" text-anchor="middle" x="1680.59" y="-62.5" font-family="Helvetica,sans-Serif" font-size="10.00">init_display.c</text>
</a>
</g>
</g>
<!-- Node4&#45;&gt;Node29 -->
<g id="edge20_Node000004_Node000029" class="edge">
<title>Node4&#45;&gt;Node29</title>
<g id="a_edge20_Node000004_Node000029"><a xlink:title=" ">
<path fill="none" stroke="#63b8ff" d="M1494.34,-113.73C1496.11,-113.12 1497.87,-112.54 1499.59,-112 1549,-96.42 1607.35,-82.74 1644.17,-74.67"/>
<polygon fill="#63b8ff" stroke="#63b8ff" points="1493.16,-110.43 1484.94,-117.13 1495.54,-117.02 1493.16,-110.43"/>
</a>
</g>
</g>
<!-- Node30 -->
<g id="Node000030" class="node">
<title>Node30</title>
<g id="a_Node000030"><a xlink:href="external__examples_2b00f000e_2applications_2m5stack__core__s3_2apps_23d__graphics_2main_2init__display_8c.html" target="_top" xlink:title=" ">
<polygon fill="white" stroke="#666666" points="1806.72,-76 1734.47,-76 1734.47,-56 1806.72,-56 1806.72,-76"/>
<text xml:space="preserve" text-anchor="middle" x="1770.59" y="-62.5" font-family="Helvetica,sans-Serif" font-size="10.00">init_display.c</text>
</a>
</g>
</g>
<!-- Node4&#45;&gt;Node30 -->
<g id="edge21_Node000004_Node000030" class="edge">
<title>Node4&#45;&gt;Node30</title>
<g id="a_edge21_Node000004_Node000030"><a xlink:title=" ">
<path fill="none" stroke="#63b8ff" d="M1493.2,-113.89C1495.34,-113.2 1497.49,-112.56 1499.59,-112 1597.82,-85.6 1625.48,-93.98 1725.59,-76 1728.41,-75.49 1731.33,-74.95 1734.27,-74.39"/>
<polygon fill="#63b8ff" stroke="#63b8ff" points="1492.3,-110.5 1484.03,-117.11 1494.62,-117.1 1492.3,-110.5"/>
</a>
</g>
</g>
<!-- Node31 -->
<g id="Node000031" class="node">
<title>Node31</title>
<g id="a_Node000031"><a xlink:href="applications_2azure__board__apps_2apps_2kalman__filter_2main_2kalman__filter__demo_8cpp.html" target="_top" xlink:title=" ">
<polygon fill="white" stroke="#666666" points="1944.34,-76 1824.84,-76 1824.84,-56 1944.34,-56 1944.34,-76"/>
<text xml:space="preserve" text-anchor="middle" x="1884.59" y="-62.5" font-family="Helvetica,sans-Serif" font-size="10.00">kalman_filter_demo.cpp</text>
</a>
</g>
</g>
<!-- Node4&#45;&gt;Node31 -->
<g id="edge22_Node000004_Node000031" class="edge">
<title>Node4&#45;&gt;Node31</title>
<g id="a_edge22_Node000004_Node000031"><a xlink:title=" ">
<path fill="none" stroke="#63b8ff" d="M1493.01,-113.83C1495.22,-113.15 1497.42,-112.53 1499.59,-112 1636.88,-78.36 1675.28,-93.14 1815.59,-76 1818.47,-75.65 1821.41,-75.28 1824.39,-74.91"/>
<polygon fill="#63b8ff" stroke="#63b8ff" points="1491.88,-110.52 1483.57,-117.1 1494.17,-117.13 1491.88,-110.52"/>
</a>
</g>
</g>
<!-- Node32 -->
<g id="Node000032" class="node">
<title>Node32</title>
<g id="a_Node000032"><a xlink:href="external__examples_2b00f000e_2applications_2azure__board__apps_2apps_2kalman__filter_2main_2kalman__filter__demo_8cpp.html" target="_top" xlink:title=" ">
<polygon fill="white" stroke="#666666" points="2082.34,-76 1962.84,-76 1962.84,-56 2082.34,-56 2082.34,-76"/>
<text xml:space="preserve" text-anchor="middle" x="2022.59" y="-62.5" font-family="Helvetica,sans-Serif" font-size="10.00">kalman_filter_demo.cpp</text>
</a>
</g>
</g>
<!-- Node4&#45;&gt;Node32 -->
<g id="edge23_Node000004_Node000032" class="edge">
<title>Node4&#45;&gt;Node32</title>
<g id="a_edge23_Node000004_Node000032"><a xlink:title=" ">
<path fill="none" stroke="#63b8ff" d="M1492.54,-113.88C1494.9,-113.16 1497.27,-112.53 1499.59,-112 1696.98,-67.21 1752.28,-97.1 1953.59,-76 1956.47,-75.7 1959.42,-75.37 1962.4,-75.03"/>
<polygon fill="#63b8ff" stroke="#63b8ff" points="1491.45,-110.55 1483.13,-117.12 1493.73,-117.17 1491.45,-110.55"/>
</a>
</g>
</g>
<!-- Node33 -->
<g id="Node000033" class="node">
<title>Node33</title>
<g id="a_Node000033"><a xlink:href="external__examples_2d1468452_2apps_2kalman__filter_2main_2kalman__filter__demo_8cpp.html" target="_top" xlink:title=" ">
<polygon fill="white" stroke="#666666" points="2220.34,-76 2100.84,-76 2100.84,-56 2220.34,-56 2220.34,-76"/>
<text xml:space="preserve" text-anchor="middle" x="2160.59" y="-62.5" font-family="Helvetica,sans-Serif" font-size="10.00">kalman_filter_demo.cpp</text>
</a>
</g>
</g>
<!-- Node4&#45;&gt;Node33 -->
<g id="edge24_Node000004_Node000033" class="edge">
<title>Node4&#45;&gt;Node33</title>
<g id="a_edge24_Node000004_Node000033"><a xlink:title=" ">
<path fill="none" stroke="#63b8ff" d="M1492.53,-113.83C1494.89,-113.13 1497.27,-112.51 1499.59,-112 1757.18,-56.03 1829.19,-101.06 2091.59,-76 2094.48,-75.72 2097.43,-75.42 2100.41,-75.1"/>
<polygon fill="#63b8ff" stroke="#63b8ff" points="1491.45,-110.5 1483.12,-117.05 1493.71,-117.12 1491.45,-110.5"/>
</a>
</g>
</g>
<!-- Node34 -->
<g id="Node000034" class="node">
<title>Node34</title>
<g id="a_Node000034"><a xlink:href="external__examples_2f9c2d4b3_2azure__board__apps_2apps_2kalman__filter_2main_2kalman__filter__demo_8cpp.html" target="_top" xlink:title=" ">
<polygon fill="white" stroke="#666666" points="2358.34,-76 2238.84,-76 2238.84,-56 2358.34,-56 2358.34,-76"/>
<text xml:space="preserve" text-anchor="middle" x="2298.59" y="-62.5" font-family="Helvetica,sans-Serif" font-size="10.00">kalman_filter_demo.cpp</text>
</a>
</g>
</g>
<!-- Node4&#45;&gt;Node34 -->
<g id="edge25_Node000004_Node000034" class="edge">
<title>Node4&#45;&gt;Node34</title>
<g id="a_edge25_Node000004_Node000034"><a xlink:title=" ">
<path fill="none" stroke="#63b8ff" d="M1492.06,-113.93C1494.58,-113.18 1497.11,-112.52 1499.59,-112 1817.41,-44.85 1906.05,-105.03 2229.59,-76 2232.48,-75.74 2235.43,-75.45 2238.41,-75.14"/>
<polygon fill="#63b8ff" stroke="#63b8ff" points="1491.02,-110.59 1482.7,-117.15 1493.3,-117.21 1491.02,-110.59"/>
</a>
</g>
</g>
<!-- Node35 -->
<g id="Node000035" class="node">
<title>Node35</title>
<g id="a_Node000035"><a xlink:href="main_2main_8c.html" target="_top" xlink:title=" ">
<polygon fill="white" stroke="#666666" points="2421.22,-76 2375.97,-76 2375.97,-56 2421.22,-56 2421.22,-76"/>
<text xml:space="preserve" text-anchor="middle" x="2398.59" y="-62.5" font-family="Helvetica,sans-Serif" font-size="10.00">main.c</text>
</a>
</g>
</g>
<!-- Node4&#45;&gt;Node35 -->
<g id="edge26_Node000004_Node000035" class="edge">
<title>Node4&#45;&gt;Node35</title>
<g id="a_edge26_Node000004_Node000035"><a xlink:title=" ">
<path fill="none" stroke="#63b8ff" d="M1492.06,-113.91C1494.58,-113.17 1497.11,-112.51 1499.59,-112 1877.67,-33.66 1986.54,-138.28 2367.59,-76 2370.25,-75.57 2373,-74.98 2375.71,-74.31"/>
<polygon fill="#63b8ff" stroke="#63b8ff" points="1491.02,-110.57 1482.69,-117.12 1493.29,-117.19 1491.02,-110.57"/>
</a>
</g>
</g>
<!-- Node36 -->
<g id="Node000036" class="node">
<title>Node36</title>
<g id="a_Node000036"><a xlink:href="components_2espressif____esp-dsp_2applications_2spectrum__box__lite_2main_2main_8c.html" target="_top" xlink:title=" ">
<polygon fill="white" stroke="#666666" points="2484.22,-76 2438.97,-76 2438.97,-56 2484.22,-56 2484.22,-76"/>
<text xml:space="preserve" text-anchor="middle" x="2461.59" y="-62.5" font-family="Helvetica,sans-Serif" font-size="10.00">main.c</text>
</a>
</g>
</g>
<!-- Node4&#45;&gt;Node36 -->
<g id="edge27_Node000004_Node000036" class="edge">
<title>Node4&#45;&gt;Node36</title>
<g id="a_edge27_Node000004_Node000036"><a xlink:title=" ">
<path fill="none" stroke="#63b8ff" d="M1492.06,-113.9C1494.58,-113.16 1497.11,-112.51 1499.59,-112 1905.18,-28.55 2021.83,-142.22 2430.59,-76 2433.25,-75.57 2436,-74.98 2438.71,-74.32"/>
<polygon fill="#63b8ff" stroke="#63b8ff" points="1491.02,-110.56 1482.69,-117.11 1493.29,-117.18 1491.02,-110.56"/>
</a>
</g>
</g>
<!-- Node37 -->
<g id="Node000037" class="node">
<title>Node37</title>
<g id="a_Node000037"><a xlink:href="components_2espressif____esp-dsp_2external__examples_2b00f000e_2applications_2spectrum__box__lite_2main_2main_8c.html" target="_top" xlink:title=" ">
<polygon fill="white" stroke="#666666" points="2547.22,-76 2501.97,-76 2501.97,-56 2547.22,-56 2547.22,-76"/>
<text xml:space="preserve" text-anchor="middle" x="2524.59" y="-62.5" font-family="Helvetica,sans-Serif" font-size="10.00">main.c</text>
</a>
</g>
</g>
<!-- Node4&#45;&gt;Node37 -->
<g id="edge28_Node000004_Node000037" class="edge">
<title>Node4&#45;&gt;Node37</title>
<g id="a_edge28_Node000004_Node000037"><a xlink:title=" ">
<path fill="none" stroke="#63b8ff" d="M1492.06,-113.9C1494.58,-113.16 1497.11,-112.51 1499.59,-112 1932.7,-23.44 2057.13,-146.16 2493.59,-76 2496.25,-75.57 2499,-74.99 2501.71,-74.32"/>
<polygon fill="#63b8ff" stroke="#63b8ff" points="1491.02,-110.55 1482.69,-117.1 1493.28,-117.18 1491.02,-110.55"/>
</a>
</g>
</g>
<!-- Node16&#45;&gt;Node17 -->
<g id="edge16_Node000016_Node000017" class="edge">
<title>Node16&#45;&gt;Node17</title>
<g id="a_edge16_Node000016_Node000017"><a xlink:title=" ">
<path fill="none" stroke="#63b8ff" d="M2688.47,-56.03C2416.34,-25.31 1637.99,-14.23 1418.06,-11.63"/>
<polygon fill="#63b8ff" stroke="#63b8ff" points="2688.04,-59.51 2698.38,-57.19 2688.85,-52.56 2688.04,-59.51"/>
</a>
</g>
</g>
<!-- Node38&#45;&gt;Node4 -->
<g id="edge40_Node000038_Node000004" class="edge">
<title>Node38&#45;&gt;Node4</title>
<g id="a_edge40_Node000038_Node000004"><a xlink:title=" ">
<path fill="none" stroke="#63b8ff" d="M1823.18,-186.86C1750.25,-182.92 1613.01,-172.15 1499.59,-144 1493.82,-142.57 1487.74,-140.51 1482.15,-138.38"/>
<polygon fill="#63b8ff" stroke="#63b8ff" points="1822.64,-190.34 1832.81,-187.36 1823,-183.34 1822.64,-190.34"/>
</a>
</g>
</g>
<!-- Node39 -->
<g id="Node000039" class="node">
<title>Node39</title>
<g id="a_Node000039"><a xlink:href="dspi__dotprod__f32__ansi_8c.html" target="_top" xlink:title=" ">
<polygon fill="white" stroke="#666666" points="2556.47,-138 2434.72,-138 2434.72,-118 2556.47,-118 2556.47,-138"/>
<text xml:space="preserve" text-anchor="middle" x="2495.59" y="-124.5" font-family="Helvetica,sans-Serif" font-size="10.00">dspi_dotprod_f32_ansi.c</text>
</a>
</g>
</g>
<!-- Node38&#45;&gt;Node39 -->
<g id="edge30_Node000038_Node000039" class="edge">
<title>Node38&#45;&gt;Node39</title>
<g id="a_edge30_Node000038_Node000039"><a xlink:title=" ">
<path fill="none" stroke="#63b8ff" d="M1926.26,-179.81C2147.48,-152.53 2207.81,-174.99 2425.59,-144 2435.56,-142.58 2446.23,-140.56 2456.15,-138.46"/>
<polygon fill="#63b8ff" stroke="#63b8ff" points="1925.9,-176.32 1916.41,-181.04 1926.77,-183.27 1925.9,-176.32"/>
</a>
</g>
</g>
<!-- Node40 -->
<g id="Node000040" class="node">
<title>Node40</title>
<g id="a_Node000040"><a xlink:href="dspi__dotprod__off__f32__ansi_8c.html" target="_top" xlink:title=" ">
<polygon fill="white" stroke="#666666" points="2680.59,-144 2574.59,-144 2574.59,-112 2680.59,-112 2680.59,-144"/>
<text xml:space="preserve" text-anchor="start" x="2582.59" y="-130.5" font-family="Helvetica,sans-Serif" font-size="10.00">dspi_dotprod_off_f32</text>
<text xml:space="preserve" text-anchor="middle" x="2627.59" y="-118.5" font-family="Helvetica,sans-Serif" font-size="10.00">_ansi.c</text>
</a>
</g>
</g>
<!-- Node38&#45;&gt;Node40 -->
<g id="edge31_Node000038_Node000040" class="edge">
<title>Node38&#45;&gt;Node40</title>
<g id="a_edge31_Node000038_Node000040"><a xlink:title=" ">
<path fill="none" stroke="#63b8ff" d="M1925.94,-179.88C2209.31,-147.11 2286.47,-185.24 2565.59,-144 2568.44,-143.58 2571.35,-143.09 2574.28,-142.55"/>
<polygon fill="#63b8ff" stroke="#63b8ff" points="1925.93,-176.36 1916.41,-181 1926.75,-183.31 1925.93,-176.36"/>
</a>
</g>
</g>
<!-- Node41 -->
<g id="Node000041" class="node">
<title>Node41</title>
<g id="a_Node000041"><a xlink:href="dspi__dotprod__off__s16__ansi_8c.html" target="_top" xlink:title=" ">
<polygon fill="white" stroke="#666666" points="2806.72,-144 2698.47,-144 2698.47,-112 2806.72,-112 2806.72,-144"/>
<text xml:space="preserve" text-anchor="start" x="2706.47" y="-130.5" font-family="Helvetica,sans-Serif" font-size="10.00">dspi_dotprod_off_s16</text>
<text xml:space="preserve" text-anchor="middle" x="2752.59" y="-118.5" font-family="Helvetica,sans-Serif" font-size="10.00">_ansi.c</text>
</a>
</g>
</g>
<!-- Node38&#45;&gt;Node41 -->
<g id="edge32_Node000038_Node000041" class="edge">
<title>Node38&#45;&gt;Node41</title>
<g id="a_edge32_Node000038_Node000041"><a xlink:title=" ">
<path fill="none" stroke="#63b8ff" d="M1926.26,-179.86C2264.19,-142.23 2355.83,-191.15 2689.59,-144 2692.37,-143.61 2695.21,-143.15 2698.07,-142.64"/>
<polygon fill="#63b8ff" stroke="#63b8ff" points="1925.95,-176.38 1916.41,-180.98 1926.74,-183.33 1925.95,-176.38"/>
</a>
</g>
</g>
<!-- Node42 -->
<g id="Node000042" class="node">
<title>Node42</title>
<g id="a_Node000042"><a xlink:href="dspi__dotprod__off__s8__ansi_8c.html" target="_top" xlink:title=" ">
<polygon fill="white" stroke="#666666" points="1612.09,-144 1509.09,-144 1509.09,-112 1612.09,-112 1612.09,-144"/>
<text xml:space="preserve" text-anchor="start" x="1517.09" y="-130.5" font-family="Helvetica,sans-Serif" font-size="10.00">dspi_dotprod_off_s8</text>
<text xml:space="preserve" text-anchor="middle" x="1560.59" y="-118.5" font-family="Helvetica,sans-Serif" font-size="10.00">_ansi.c</text>
</a>
</g>
</g>
<!-- Node38&#45;&gt;Node42 -->
<g id="edge33_Node000038_Node000042" class="edge">
<title>Node38&#45;&gt;Node42</title>
<g id="a_edge33_Node000038_Node000042"><a xlink:title=" ">
<path fill="none" stroke="#63b8ff" d="M1823.46,-180.91C1772.23,-172.57 1691.18,-158.73 1621.59,-144 1618.6,-143.37 1615.54,-142.69 1612.45,-142"/>
<polygon fill="#63b8ff" stroke="#63b8ff" points="1822.64,-184.32 1833.07,-182.46 1823.75,-177.41 1822.64,-184.32"/>
</a>
</g>
</g>
<!-- Node43 -->
<g id="Node000043" class="node">
<title>Node43</title>
<g id="a_Node000043"><a xlink:href="dspi__dotprod__off__u16__ansi_8c.html" target="_top" xlink:title=" ">
<polygon fill="white" stroke="#666666" points="1738.72,-144 1630.47,-144 1630.47,-112 1738.72,-112 1738.72,-144"/>
<text xml:space="preserve" text-anchor="start" x="1638.47" y="-130.5" font-family="Helvetica,sans-Serif" font-size="10.00">dspi_dotprod_off_u16</text>
<text xml:space="preserve" text-anchor="middle" x="1684.59" y="-118.5" font-family="Helvetica,sans-Serif" font-size="10.00">_ansi.c</text>
</a>
</g>
</g>
<!-- Node38&#45;&gt;Node43 -->
<g id="edge34_Node000038_Node000043" class="edge">
<title>Node38&#45;&gt;Node43</title>
<g id="a_edge34_Node000038_Node000043"><a xlink:title=" ">
<path fill="none" stroke="#63b8ff" d="M1834.2,-176.24C1804.81,-166.96 1764.87,-154.35 1733.64,-144.49"/>
<polygon fill="#63b8ff" stroke="#63b8ff" points="1832.87,-179.5 1843.46,-179.17 1834.98,-172.82 1832.87,-179.5"/>
</a>
</g>
</g>
<!-- Node44 -->
<g id="Node000044" class="node">
<title>Node44</title>
<g id="a_Node000044"><a xlink:href="dspi__dotprod__off__u8__ansi_8c.html" target="_top" xlink:title=" ">
<polygon fill="white" stroke="#666666" points="1860.09,-144 1757.09,-144 1757.09,-112 1860.09,-112 1860.09,-144"/>
<text xml:space="preserve" text-anchor="start" x="1765.09" y="-130.5" font-family="Helvetica,sans-Serif" font-size="10.00">dspi_dotprod_off_u8</text>
<text xml:space="preserve" text-anchor="middle" x="1808.59" y="-118.5" font-family="Helvetica,sans-Serif" font-size="10.00">_ansi.c</text>
</a>
</g>
</g>
<!-- Node38&#45;&gt;Node44 -->
<g id="edge35_Node000038_Node000044" class="edge">
<title>Node38&#45;&gt;Node44</title>
<g id="a_edge35_Node000038_Node000044"><a xlink:title=" ">
<path fill="none" stroke="#63b8ff" d="M1855.86,-171.98C1846.31,-163.29 1834.78,-152.81 1825.5,-144.37"/>
<polygon fill="#63b8ff" stroke="#63b8ff" points="1853.4,-174.47 1863.16,-178.61 1858.11,-169.29 1853.4,-174.47"/>
</a>
</g>
</g>
<!-- Node45 -->
<g id="Node000045" class="node">
<title>Node45</title>
<g id="a_Node000045"><a xlink:href="dspi__dotprod__s16__ansi_8c.html" target="_top" xlink:title=" ">
<polygon fill="white" stroke="#666666" points="2002.59,-138 1878.59,-138 1878.59,-118 2002.59,-118 2002.59,-138"/>
<text xml:space="preserve" text-anchor="middle" x="1940.59" y="-124.5" font-family="Helvetica,sans-Serif" font-size="10.00">dspi_dotprod_s16_ansi.c</text>
</a>
</g>
</g>
<!-- Node38&#45;&gt;Node45 -->
<g id="edge36_Node000038_Node000045" class="edge">
<title>Node38&#45;&gt;Node45</title>
<g id="a_edge36_Node000038_Node000045"><a xlink:title=" ">
<path fill="none" stroke="#63b8ff" d="M1893.4,-171.9C1905.49,-160.91 1920.73,-147.05 1930.57,-138.11"/>
<polygon fill="#63b8ff" stroke="#63b8ff" points="1891.07,-169.29 1886.02,-178.61 1895.78,-174.47 1891.07,-169.29"/>
</a>
</g>
</g>
<!-- Node46 -->
<g id="Node000046" class="node">
<title>Node46</title>
<g id="a_Node000046"><a xlink:href="dspi__dotprod__s8__ansi_8c.html" target="_top" xlink:title=" ">
<polygon fill="white" stroke="#666666" points="2138.97,-138 2020.22,-138 2020.22,-118 2138.97,-118 2138.97,-138"/>
<text xml:space="preserve" text-anchor="middle" x="2079.59" y="-124.5" font-family="Helvetica,sans-Serif" font-size="10.00">dspi_dotprod_s8_ansi.c</text>
</a>
</g>
</g>
<!-- Node38&#45;&gt;Node46 -->
<g id="edge37_Node000038_Node000046" class="edge">
<title>Node38&#45;&gt;Node46</title>
<g id="a_edge37_Node000038_Node000046"><a xlink:title=" ">
<path fill="none" stroke="#63b8ff" d="M1917.55,-176.43C1956.31,-165.08 2012.45,-148.65 2047.45,-138.41"/>
<polygon fill="#63b8ff" stroke="#63b8ff" points="1916.69,-173.03 1908.08,-179.2 1918.66,-179.75 1916.69,-173.03"/>
</a>
</g>
</g>
<!-- Node47 -->
<g id="Node000047" class="node">
<title>Node47</title>
<g id="a_Node000047"><a xlink:href="dspi__dotprod__u16__ansi_8c.html" target="_top" xlink:title=" ">
<polygon fill="white" stroke="#666666" points="2280.59,-138 2156.59,-138 2156.59,-118 2280.59,-118 2280.59,-138"/>
<text xml:space="preserve" text-anchor="middle" x="2218.59" y="-124.5" font-family="Helvetica,sans-Serif" font-size="10.00">dspi_dotprod_u16_ansi.c</text>
</a>
</g>
</g>
<!-- Node38&#45;&gt;Node47 -->
<g id="edge38_Node000038_Node000047" class="edge">
<title>Node38&#45;&gt;Node47</title>
<g id="a_edge38_Node000038_Node000047"><a xlink:title=" ">
<path fill="none" stroke="#63b8ff" d="M1926.05,-179.61C2024.85,-162.84 2051.94,-161.78 2147.59,-144 2156.63,-142.32 2166.29,-140.38 2175.48,-138.46"/>
<polygon fill="#63b8ff" stroke="#63b8ff" points="1925.71,-176.12 1916.45,-181.26 1926.89,-183.02 1925.71,-176.12"/>
</a>
</g>
</g>
<!-- Node48 -->
<g id="Node000048" class="node">
<title>Node48</title>
<g id="a_Node000048"><a xlink:href="dspi__dotprod__u8__ansi_8c.html" target="_top" xlink:title=" ">
<polygon fill="white" stroke="#666666" points="2416.97,-138 2298.22,-138 2298.22,-118 2416.97,-118 2416.97,-138"/>
<text xml:space="preserve" text-anchor="middle" x="2357.59" y="-124.5" font-family="Helvetica,sans-Serif" font-size="10.00">dspi_dotprod_u8_ansi.c</text>
</a>
</g>
</g>
<!-- Node38&#45;&gt;Node48 -->
<g id="edge39_Node000038_Node000048" class="edge">
<title>Node38&#45;&gt;Node48</title>
<g id="a_edge39_Node000038_Node000048"><a xlink:title=" ">
<path fill="none" stroke="#63b8ff" d="M1926.22,-179.75C2087.43,-157.76 2131.79,-169.07 2289.59,-144 2299.02,-142.5 2309.11,-140.5 2318.55,-138.45"/>
<polygon fill="#63b8ff" stroke="#63b8ff" points="1925.85,-176.27 1916.42,-181.11 1926.81,-183.2 1925.85,-176.27"/>
</a>
</g>
</g>
</g>
</svg>

<g id="navigator" transform="translate(0 0)" fill="#404254">
  <rect fill="#f2f5e9" fill-opacity="0.5" stroke="#606060" stroke-width=".5" x="0" y="0" width="60" height="60"/>
  <use id="zoomplus" xlink:href="#zoomPlus" x="17" y="9" onmousedown="handleZoom(evt,'in')"/>
  <use id="zoomminus" xlink:href="#zoomMin" x="42" y="9" onmousedown="handleZoom(evt,'out')"/>
  <use id="reset" xlink:href="#resetDef" x="30" y="36" onmousedown="handleReset()"/>
   <use id="arrowup" xlink:href="#arrowUp" x="0" y="0" onmousedown="handlePan(0,-1)"/>
  <use id="arrowright" xlink:href="#arrowRight" x="0" y="0" onmousedown="handlePan(1,0)"/>
  <use id="arrowdown" xlink:href="#arrowDown" x="0" y="0" onmousedown="handlePan(0,1)"/>
  <use id="arrowleft" xlink:href="#arrowLeft" x="0" y="0" onmousedown="handlePan(-1,0)"/>
</g>
<svg viewBox="0 0 15 15" width="100%" height="30px" preserveAspectRatio="xMaxYMin meet">
 <g id="arrow_out" transform="scale(0.3 0.3)">
  <a xlink:href="dsp__types_8h__dep__incl_org.svg" target="_base">
   <rect id="button" ry="5" rx="5" y="6" x="6" height="38" width="38"
        fill="#f2f5e9" fill-opacity="0.5" stroke="#606060" stroke-width="1.0"/>
   <path id="arrow"
     d="M 11.500037,31.436501 C 11.940474,20.09759 22.043105,11.32322 32.158766,21.979434 L 37.068811,17.246167 C 37.068811,17.246167 37.088388,32 37.088388,32 L 22.160133,31.978069 C 22.160133,31.978069 26.997745,27.140456 26.997745,27.140456 C 18.528582,18.264221 13.291696,25.230495 11.500037,31.436501 z"
     style="fill:#404040;"/>
  </a>
 </g>
</svg>

<style type='text/css'>
<![CDATA[
[data-mouse-over-selected='false'] { opacity: 0.7; }
[data-mouse-over-selected='true']  { opacity: 1.0; }
]]>
</style>
<script type="application/ecmascript"><![CDATA[
document.addEventListener('DOMContentLoaded', (event) => {
  highlightEdges();
  highlightAdjacentNodes();
});
]]></script>
</svg>
