<?xml version="1.0" encoding="UTF-8" standalone="no"?>
<!DOCTYPE svg PUBLIC "-//W3C//DTD SVG 1.1//EN"
 "http://www.w3.org/Graphics/SVG/1.1/DTD/svg11.dtd">
<!-- Generated by graphviz version 14.1.2 (20260124.0452)
 -->
<!-- Title: dsp_power_of_two Pages: 1 -->
<svg width="485pt" height="230pt"
 viewBox="0.00 0.00 485.00 230.00" xmlns="http://www.w3.org/2000/svg" xmlns:xlink="http://www.w3.org/1999/xlink">
<g id="graph0" class="graph" transform="scale(1 1) rotate(0) translate(4 226)">
<title>dsp_power_of_two</title>
<!-- Node1 -->
<g id="Node000001" class="node">
<title>Node1</title>
<g id="a_Node000001"><a xlink:title="Power of two The function return power of 2 for values 2^N. The implementation use ANSI C and could b...">
<polygon fill="#999999" stroke="#666666" points="477.25,-115 379.5,-115 379.5,-95 477.25,-95 477.25,-115"/>
<text xml:space="preserve" text-anchor="middle" x="428.38" y="-101.5" font-family="Helvetica,sans-Serif" font-size="10.00">dsp_power_of_two</text>
</a>
</g>
</g>
<!-- Node2 -->
<g id="Node000002" class="node">
<title>Node2</title>
<g id="a_Node000002"><a xlink:href="dsps__fft4r__fc32__ansi_8c.html#acb8989c84ce30360b587beea893f0af9" target="_top" xlink:title=" ">
<polygon fill="white" stroke="#666666" points="332.62,-222 223.62,-222 223.62,-190 332.62,-190 332.62,-222"/>
<text xml:space="preserve" text-anchor="start" x="231.62" y="-208.5" font-family="Helvetica,sans-Serif" font-size="10.00">dsps_bit_rev4r_direct</text>
<text xml:space="preserve" text-anchor="middle" x="278.12" y="-196.5" font-family="Helvetica,sans-Serif" font-size="10.00">_fc32_ansi</text>
</a>
</g>
</g>
<!-- Node1&#45;&gt;Node2 -->
<g id="edge1_Node000001_Node000002" class="edge">
<title>Node1&#45;&gt;Node2</title>
<g id="a_edge1_Node000001_Node000002"><a xlink:title=" ">
<path fill="none" stroke="#63b8ff" d="M410.87,-123.41C394.97,-140.25 369.55,-164.91 343.5,-181 338.4,-184.15 332.84,-187.02 327.18,-189.61"/>
<polygon fill="#63b8ff" stroke="#63b8ff" points="413.02,-126.24 417.24,-116.52 407.88,-121.48 413.02,-126.24"/>
</a>
</g>
</g>
<!-- Node4 -->
<g id="Node000004" class="node">
<title>Node4</title>
<g id="a_Node000004"><a xlink:href="dsps__fft2r__sc16__ansi_8c.html#ab8535a7b802e71380ae6da8c859288e2" target="_top" xlink:title="Convert complex FFT result to real array.">
<polygon fill="white" stroke="#666666" points="343.5,-172 212.75,-172 212.75,-152 343.5,-152 343.5,-172"/>
<text xml:space="preserve" text-anchor="middle" x="278.12" y="-158.5" font-family="Helvetica,sans-Serif" font-size="10.00">dsps_cplx2real_sc16_ansi</text>
</a>
</g>
</g>
<!-- Node1&#45;&gt;Node4 -->
<g id="edge3_Node000001_Node000004" class="edge">
<title>Node1&#45;&gt;Node4</title>
<g id="a_edge3_Node000001_Node000004"><a xlink:title=" ">
<path fill="none" stroke="#63b8ff" d="M396.51,-120.22C380.85,-127.62 361.4,-136.34 343.5,-143 335.31,-146.05 326.39,-148.94 317.88,-151.51"/>
<polygon fill="#63b8ff" stroke="#63b8ff" points="397.82,-123.48 405.32,-116 394.79,-117.16 397.82,-123.48"/>
</a>
</g>
</g>
<!-- Node5 -->
<g id="Node000005" class="node">
<title>Node5</title>
<g id="a_Node000005"><a xlink:href="dsps__fft2r__fc32__ansi_8c.html#aa5f77f0db0301950603a20f9e67822aa" target="_top" xlink:title="init fft tables">
<polygon fill="white" stroke="#666666" points="328.5,-134 227.75,-134 227.75,-114 328.5,-114 328.5,-134"/>
<text xml:space="preserve" text-anchor="middle" x="278.12" y="-120.5" font-family="Helvetica,sans-Serif" font-size="10.00">dsps_fft2r_init_fc32</text>
</a>
</g>
</g>
<!-- Node1&#45;&gt;Node5 -->
<g id="edge4_Node000001_Node000005" class="edge">
<title>Node1&#45;&gt;Node5</title>
<g id="a_edge4_Node000001_Node000005"><a xlink:title=" ">
<path fill="none" stroke="#63b8ff" d="M368.02,-112.61C355.01,-114.27 341.38,-116.02 328.8,-117.63"/>
<polygon fill="#63b8ff" stroke="#63b8ff" points="368.27,-116.1 377.74,-111.36 367.38,-109.16 368.27,-116.1"/>
</a>
</g>
</g>
<!-- Node10 -->
<g id="Node000010" class="node">
<title>Node10</title>
<g id="a_Node000010"><a xlink:href="dsps__fft4r__fc32__ansi_8c.html#a64628ca038198d02d3c4f79bee7ccaf0" target="_top" xlink:title="complex FFT of radix 4">
<polygon fill="white" stroke="#666666" points="333.75,-96 222.5,-96 222.5,-76 333.75,-76 333.75,-96"/>
<text xml:space="preserve" text-anchor="middle" x="278.12" y="-82.5" font-family="Helvetica,sans-Serif" font-size="10.00">dsps_fft4r_fc32_ansi_</text>
</a>
</g>
</g>
<!-- Node1&#45;&gt;Node10 -->
<g id="edge9_Node000001_Node000010" class="edge">
<title>Node1&#45;&gt;Node10</title>
<g id="a_edge9_Node000001_Node000010"><a xlink:title=" ">
<path fill="none" stroke="#63b8ff" d="M367.87,-97.37C356.76,-95.95 345.19,-94.47 334.22,-93.06"/>
<polygon fill="#63b8ff" stroke="#63b8ff" points="367.38,-100.84 377.74,-98.64 368.27,-93.9 367.38,-100.84"/>
</a>
</g>
</g>
<!-- Node11 -->
<g id="Node000011" class="node">
<title>Node11</title>
<g id="a_Node000011"><a xlink:href="dsps__fft4r__fc32__ansi_8c.html#a2372c5dae54caef87742b9e8e2c30a48" target="_top" xlink:title="init fft tables">
<polygon fill="white" stroke="#666666" points="328.5,-58 227.75,-58 227.75,-38 328.5,-38 328.5,-58"/>
<text xml:space="preserve" text-anchor="middle" x="278.12" y="-44.5" font-family="Helvetica,sans-Serif" font-size="10.00">dsps_fft4r_init_fc32</text>
</a>
</g>
</g>
<!-- Node1&#45;&gt;Node11 -->
<g id="edge10_Node000001_Node000011" class="edge">
<title>Node1&#45;&gt;Node11</title>
<g id="a_edge10_Node000001_Node000011"><a xlink:title=" ">
<path fill="none" stroke="#63b8ff" d="M396.51,-89.78C380.85,-82.38 361.4,-73.66 343.5,-67 335.31,-63.95 326.39,-61.06 317.88,-58.49"/>
<polygon fill="#63b8ff" stroke="#63b8ff" points="394.79,-92.84 405.32,-94 397.82,-86.52 394.79,-92.84"/>
</a>
</g>
</g>
<!-- Node13 -->
<g id="Node000013" class="node">
<title>Node13</title>
<g id="a_Node000013"><a xlink:href="dsps__fft4r__fc32__ansi_8c.html#ac53cd559aeb273a1f8cc85859e8c3b57" target="_top" xlink:title=" ">
<polygon fill="white" stroke="#666666" points="339,-20 217.25,-20 217.25,0 339,0 339,-20"/>
<text xml:space="preserve" text-anchor="middle" x="278.12" y="-6.5" font-family="Helvetica,sans-Serif" font-size="10.00">dsps_gen_bitrev4r_table</text>
</a>
</g>
</g>
<!-- Node1&#45;&gt;Node13 -->
<g id="edge12_Node000001_Node000013" class="edge">
<title>Node1&#45;&gt;Node13</title>
<g id="a_edge12_Node000001_Node000013"><a xlink:title=" ">
<path fill="none" stroke="#63b8ff" d="M411.42,-86.37C395.75,-69.17 370.35,-44.07 343.5,-29 337.51,-25.63 330.85,-22.81 324.17,-20.46"/>
<polygon fill="#63b8ff" stroke="#63b8ff" points="408.42,-88.26 417.68,-93.42 413.66,-83.61 408.42,-88.26"/>
</a>
</g>
</g>
<!-- Node3 -->
<g id="Node000003" class="node">
<title>Node3</title>
<g id="a_Node000003"><a xlink:href="dsps__fft4r__fc32__ansi_8c.html#a3fdee63a8e14ed691fe581929581f8a6" target="_top" xlink:title="bit reverse operation for the complex input array radix&#45;4">
<polygon fill="white" stroke="#666666" points="176.75,-216 73,-216 73,-196 176.75,-196 176.75,-216"/>
<text xml:space="preserve" text-anchor="middle" x="124.88" y="-202.5" font-family="Helvetica,sans-Serif" font-size="10.00">dsps_bit_rev4r_fc32</text>
</a>
</g>
</g>
<!-- Node2&#45;&gt;Node3 -->
<g id="edge2_Node000002_Node000003" class="edge">
<title>Node2&#45;&gt;Node3</title>
<g id="a_edge2_Node000002_Node000003"><a xlink:title=" ">
<path fill="none" stroke="#63b8ff" d="M211.91,-206C200.29,-206 188.33,-206 177.17,-206"/>
<polygon fill="#63b8ff" stroke="#63b8ff" points="211.86,-209.5 221.86,-206 211.86,-202.5 211.86,-209.5"/>
</a>
</g>
</g>
<!-- Node6 -->
<g id="Node000006" class="node">
<title>Node6</title>
<g id="a_Node000006"><a xlink:href="dsps__sfdr__f32_8cpp.html#ae224c5e7f4802b7b403c17b2e8a4a448" target="_top" xlink:title="SFDR.">
<polygon fill="white" stroke="#666666" points="163.62,-172 86.12,-172 86.12,-152 163.62,-152 163.62,-172"/>
<text xml:space="preserve" text-anchor="middle" x="124.88" y="-158.5" font-family="Helvetica,sans-Serif" font-size="10.00">dsps_sfdr_f32</text>
</a>
</g>
</g>
<!-- Node5&#45;&gt;Node6 -->
<g id="edge5_Node000005_Node000006" class="edge">
<title>Node5&#45;&gt;Node6</title>
<g id="a_edge5_Node000005_Node000006"><a xlink:title=" ">
<path fill="none" stroke="#63b8ff" d="M224.34,-137.26C204.51,-142.24 182.36,-147.81 164.1,-152.4"/>
<polygon fill="#63b8ff" stroke="#63b8ff" points="225.08,-140.68 233.93,-134.85 223.38,-133.9 225.08,-140.68"/>
</a>
</g>
</g>
<!-- Node7 -->
<g id="Node000007" class="node">
<title>Node7</title>
<g id="a_Node000007"><a xlink:href="dsps__snr__f32_8cpp.html#aa9349a0ba3a576bafac3c0ade5278e46" target="_top" xlink:title="SNR.">
<polygon fill="white" stroke="#666666" points="162.12,-134 87.62,-134 87.62,-114 162.12,-114 162.12,-134"/>
<text xml:space="preserve" text-anchor="middle" x="124.88" y="-120.5" font-family="Helvetica,sans-Serif" font-size="10.00">dsps_snr_f32</text>
</a>
</g>
</g>
<!-- Node5&#45;&gt;Node7 -->
<g id="edge6_Node000005_Node000007" class="edge">
<title>Node5&#45;&gt;Node7</title>
<g id="a_edge6_Node000005_Node000007"><a xlink:title=" ">
<path fill="none" stroke="#63b8ff" d="M216.18,-124C198.01,-124 178.66,-124 162.55,-124"/>
<polygon fill="#63b8ff" stroke="#63b8ff" points="216.09,-127.5 226.09,-124 216.09,-120.5 216.09,-127.5"/>
</a>
</g>
</g>
<!-- Node8 -->
<g id="Node000008" class="node">
<title>Node8</title>
<g id="a_Node000008"><a xlink:href="test__fft2r_8c.html#af57f5d7a9dfff9aeea49fb117331c12d" target="_top" xlink:title=" ">
<polygon fill="white" stroke="#666666" points="152,-96 97.75,-96 97.75,-76 152,-76 152,-96"/>
<text xml:space="preserve" text-anchor="middle" x="124.88" y="-82.5" font-family="Helvetica,sans-Serif" font-size="10.00">test_fft2r</text>
</a>
</g>
</g>
<!-- Node5&#45;&gt;Node8 -->
<g id="edge7_Node000005_Node000008" class="edge">
<title>Node5&#45;&gt;Node8</title>
<g id="a_edge7_Node000005_Node000008"><a xlink:title=" ">
<path fill="none" stroke="#63b8ff" d="M224.47,-110.77C200.07,-104.64 172.14,-97.62 152.25,-92.63"/>
<polygon fill="#63b8ff" stroke="#63b8ff" points="223.38,-114.1 233.93,-113.15 225.08,-107.32 223.38,-114.1"/>
</a>
</g>
</g>
<!-- Node9 -->
<g id="Node000009" class="node">
<title>Node9</title>
<g id="a_Node000009"><a xlink:href="components_2espressif____esp-dsp_2modules_2fft_2test__sim_2main_8c.html#a840291bc02cba5474a4cb46a9b9566fe" target="_top" xlink:title=" ">
<polygon fill="white" stroke="#666666" points="37,-96 0,-96 0,-76 37,-76 37,-96"/>
<text xml:space="preserve" text-anchor="middle" x="18.5" y="-82.5" font-family="Helvetica,sans-Serif" font-size="10.00">main</text>
</a>
</g>
</g>
<!-- Node8&#45;&gt;Node9 -->
<g id="edge8_Node000008_Node000009" class="edge">
<title>Node8&#45;&gt;Node9</title>
<g id="a_edge8_Node000008_Node000009"><a xlink:title=" ">
<path fill="none" stroke="#63b8ff" d="M86.14,-86C69.43,-86 50.58,-86 37.2,-86"/>
<polygon fill="#63b8ff" stroke="#63b8ff" points="85.75,-89.5 95.75,-86 85.75,-82.5 85.75,-89.5"/>
</a>
</g>
</g>
<!-- Node12 -->
<g id="Node000012" class="node">
<title>Node12</title>
<g id="a_Node000012"><a xlink:href="main_2main_8c.html#a630544a7f0a2cc40d8a7fefab7e2fe70" target="_top" xlink:title=" ">
<polygon fill="white" stroke="#666666" points="153.88,-58 95.88,-58 95.88,-38 153.88,-38 153.88,-58"/>
<text xml:space="preserve" text-anchor="middle" x="124.88" y="-44.5" font-family="Helvetica,sans-Serif" font-size="10.00">app_main</text>
</a>
</g>
</g>
<!-- Node11&#45;&gt;Node12 -->
<g id="edge11_Node000011_Node000012" class="edge">
<title>Node11&#45;&gt;Node12</title>
<g id="a_edge11_Node000011_Node000012"><a xlink:title=" ">
<path fill="none" stroke="#63b8ff" d="M216.25,-48C194.83,-48 171.77,-48 154.31,-48"/>
<polygon fill="#63b8ff" stroke="#63b8ff" points="216.09,-51.5 226.09,-48 216.09,-44.5 216.09,-51.5"/>
</a>
</g>
</g>
</g>
</svg>
