<?xml version="1.0" encoding="UTF-8" standalone="no"?>
<!DOCTYPE svg PUBLIC "-//W3C//DTD SVG 1.1//EN"
 "http://www.w3.org/Graphics/SVG/1.1/DTD/svg11.dtd">
<!-- Generated by graphviz version 14.1.2 (20260124.0452)
 -->
<!-- Title: dsp_tests.h Pages: 1 -->
<svg width="760pt" height="84pt"
 viewBox="0.00 0.00 760.00 84.00" xmlns="http://www.w3.org/2000/svg" xmlns:xlink="http://www.w3.org/1999/xlink">
<g id="graph0" class="graph" transform="scale(1 1) rotate(0) translate(4 80)">
<title>dsp_tests.h</title>
<!-- Node1 -->
<g id="Node000001" class="node">
<title>Node1</title>
<g id="a_Node000001"><a xlink:title=" ">
<polygon fill="#999999" stroke="#666666" points="408.75,-76 341.75,-76 341.75,-56 408.75,-56 408.75,-76"/>
<text xml:space="preserve" text-anchor="middle" x="375.25" y="-62.5" font-family="Helvetica,sans-Serif" font-size="10.00">dsp_tests.h</text>
</a>
</g>
</g>
<!-- Node2 -->
<g id="Node000002" class="node">
<title>Node2</title>
<g id="a_Node000002"><a xlink:href="dsps__fft2r__sc16__ansi_8c.html" target="_top" xlink:title=" ">
<polygon fill="white" stroke="#666666" points="116.5,-20 0,-20 0,0 116.5,0 116.5,-20"/>
<text xml:space="preserve" text-anchor="middle" x="58.25" y="-6.5" font-family="Helvetica,sans-Serif" font-size="10.00">dsps_fft2r_sc16_ansi.c</text>
</a>
</g>
</g>
<!-- Node1&#45;&gt;Node2 -->
<g id="edge1_Node000001_Node000002" class="edge">
<title>Node1&#45;&gt;Node2</title>
<g id="a_edge1_Node000001_Node000002"><a xlink:title=" ">
<path fill="none" stroke="#63b8ff" d="M330.18,-57.32C273.29,-47.63 175.46,-30.97 113.95,-20.49"/>
<polygon fill="#63b8ff" stroke="#63b8ff" points="329.39,-60.74 339.83,-58.97 330.56,-53.84 329.39,-60.74"/>
</a>
</g>
</g>
<!-- Node3 -->
<g id="Node000003" class="node">
<title>Node3</title>
<g id="a_Node000003"><a xlink:href="dsps__fird__init__s16_8c.html" target="_top" xlink:title=" ">
<polygon fill="white" stroke="#666666" points="237.75,-20 134.75,-20 134.75,0 237.75,0 237.75,-20"/>
<text xml:space="preserve" text-anchor="middle" x="186.25" y="-6.5" font-family="Helvetica,sans-Serif" font-size="10.00">dsps_fird_init_s16.c</text>
</a>
</g>
</g>
<!-- Node1&#45;&gt;Node3 -->
<g id="edge2_Node000001_Node000003" class="edge">
<title>Node1&#45;&gt;Node3</title>
<g id="a_edge2_Node000001_Node000003"><a xlink:title=" ">
<path fill="none" stroke="#63b8ff" d="M331.26,-52.43C297.11,-42.67 250.49,-29.35 219.43,-20.48"/>
<polygon fill="#63b8ff" stroke="#63b8ff" points="330.3,-55.8 340.87,-55.18 332.22,-49.07 330.3,-55.8"/>
</a>
</g>
</g>
<!-- Node4 -->
<g id="Node000004" class="node">
<title>Node4</title>
<g id="a_Node000004"><a xlink:href="dsps__firmr__f32__ansi_8c.html" target="_top" xlink:title=" ">
<polygon fill="white" stroke="#666666" points="368.25,-20 256.25,-20 256.25,0 368.25,0 368.25,-20"/>
<text xml:space="preserve" text-anchor="middle" x="312.25" y="-6.5" font-family="Helvetica,sans-Serif" font-size="10.00">dsps_firmr_f32_ansi.c</text>
</a>
</g>
</g>
<!-- Node1&#45;&gt;Node4 -->
<g id="edge3_Node000001_Node000004" class="edge">
<title>Node1&#45;&gt;Node4</title>
<g id="a_edge3_Node000001_Node000004"><a xlink:title=" ">
<path fill="none" stroke="#63b8ff" d="M355.56,-48.13C344.85,-38.94 332,-27.93 323.1,-20.3"/>
<polygon fill="#63b8ff" stroke="#63b8ff" points="353.26,-50.76 363.13,-54.61 357.81,-45.44 353.26,-50.76"/>
</a>
</g>
</g>
<!-- Node5 -->
<g id="Node000005" class="node">
<title>Node5</title>
<g id="a_Node000005"><a xlink:href="dsps__firmr__init__f32_8c.html" target="_top" xlink:title=" ">
<polygon fill="white" stroke="#666666" points="492.62,-20 385.88,-20 385.88,0 492.62,0 492.62,-20"/>
<text xml:space="preserve" text-anchor="middle" x="439.25" y="-6.5" font-family="Helvetica,sans-Serif" font-size="10.00">dsps_firmr_init_f32.c</text>
</a>
</g>
</g>
<!-- Node1&#45;&gt;Node5 -->
<g id="edge4_Node000001_Node000005" class="edge">
<title>Node1&#45;&gt;Node5</title>
<g id="a_edge4_Node000001_Node000005"><a xlink:title=" ">
<path fill="none" stroke="#63b8ff" d="M394.92,-48.4C405.87,-39.17 419.09,-28.01 428.23,-20.3"/>
<polygon fill="#63b8ff" stroke="#63b8ff" points="392.94,-45.49 387.55,-54.62 397.45,-50.84 392.94,-45.49"/>
</a>
</g>
</g>
<!-- Node6 -->
<g id="Node000006" class="node">
<title>Node6</title>
<g id="a_Node000006"><a xlink:href="dsps__firmr__init__s16_8c.html" target="_top" xlink:title=" ">
<polygon fill="white" stroke="#666666" points="619.75,-20 510.75,-20 510.75,0 619.75,0 619.75,-20"/>
<text xml:space="preserve" text-anchor="middle" x="565.25" y="-6.5" font-family="Helvetica,sans-Serif" font-size="10.00">dsps_firmr_init_s16.c</text>
</a>
</g>
</g>
<!-- Node1&#45;&gt;Node6 -->
<g id="edge5_Node000001_Node000006" class="edge">
<title>Node1&#45;&gt;Node6</title>
<g id="a_edge5_Node000001_Node000006"><a xlink:title=" ">
<path fill="none" stroke="#63b8ff" d="M419.02,-52.56C453.39,-42.79 500.53,-29.39 531.9,-20.48"/>
<polygon fill="#63b8ff" stroke="#63b8ff" points="418.46,-49.08 409.8,-55.18 420.38,-55.81 418.46,-49.08"/>
</a>
</g>
</g>
<!-- Node7 -->
<g id="Node000007" class="node">
<title>Node7</title>
<g id="a_Node000007"><a xlink:href="dsps__firmr__s16__ansi_8c.html" target="_top" xlink:title=" ">
<polygon fill="white" stroke="#666666" points="752.38,-20 638.12,-20 638.12,0 752.38,0 752.38,-20"/>
<text xml:space="preserve" text-anchor="middle" x="695.25" y="-6.5" font-family="Helvetica,sans-Serif" font-size="10.00">dsps_firmr_s16_ansi.c</text>
</a>
</g>
</g>
<!-- Node1&#45;&gt;Node7 -->
<g id="edge6_Node000001_Node000007" class="edge">
<title>Node1&#45;&gt;Node7</title>
<g id="a_edge6_Node000001_Node000007"><a xlink:title=" ">
<path fill="none" stroke="#63b8ff" d="M420.44,-57.37C477.88,-47.68 577,-30.95 639.19,-20.46"/>
<polygon fill="#63b8ff" stroke="#63b8ff" points="419.96,-53.91 410.69,-59.02 421.13,-60.81 419.96,-53.91"/>
</a>
</g>
</g>
</g>
</svg>
