<?xml version="1.0" encoding="UTF-8" standalone="no"?>
<!DOCTYPE svg PUBLIC "-//W3C//DTD SVG 1.1//EN"
 "http://www.w3.org/Graphics/SVG/1.1/DTD/svg11.dtd">
<!-- Generated by graphviz version 14.1.2 (20260124.0452)
 -->
<!-- Title: dsp_common.h Pages: 1 -->
<svg width="2217pt" height="196pt"
 viewBox="0.00 0.00 2217.00 196.00" xmlns="http://www.w3.org/2000/svg" xmlns:xlink="http://www.w3.org/1999/xlink">
<g id="graph0" class="graph" transform="scale(1 1) rotate(0) translate(4 192)">
<title>dsp_common.h</title>
<!-- Node1 -->
<g id="Node000001" class="node">
<title>Node1</title>
<g id="a_Node000001"><a xlink:title=" ">
<polygon fill="#999999" stroke="#666666" points="1356.88,-188 1274.12,-188 1274.12,-168 1356.88,-168 1356.88,-188"/>
<text xml:space="preserve" text-anchor="middle" x="1315.5" y="-174.5" font-family="Helvetica,sans-Serif" font-size="10.00">dsp_common.h</text>
</a>
</g>
</g>
<!-- Node2 -->
<g id="Node000002" class="node">
<title>Node2</title>
<g id="a_Node000002"><a xlink:href="aes3__tie__log_8c.html" target="_top" xlink:title=" ">
<polygon fill="white" stroke="#666666" points="79,-132 0,-132 0,-112 79,-112 79,-132"/>
<text xml:space="preserve" text-anchor="middle" x="39.5" y="-118.5" font-family="Helvetica,sans-Serif" font-size="10.00">aes3_tie_log.c</text>
</a>
</g>
</g>
<!-- Node1&#45;&gt;Node2 -->
<g id="edge1_Node000001_Node000002" class="edge">
<title>Node1&#45;&gt;Node2</title>
<g id="a_edge1_Node000001_Node000002"><a xlink:title=" ">
<path fill="none" stroke="#63b8ff" d="M1262.58,-176.11C1058.22,-172.51 320.45,-157.96 87.5,-132 84.8,-131.7 82.03,-131.33 79.24,-130.92"/>
<polygon fill="#63b8ff" stroke="#63b8ff" points="1262.29,-179.61 1272.35,-176.28 1262.42,-172.61 1262.29,-179.61"/>
</a>
</g>
</g>
<!-- Node3 -->
<g id="Node000003" class="node">
<title>Node3</title>
<g id="a_Node000003"><a xlink:href="dsps__cplx__gen__init_8c.html" target="_top" xlink:title=" ">
<polygon fill="white" stroke="#666666" points="204.25,-132 96.75,-132 96.75,-112 204.25,-112 204.25,-132"/>
<text xml:space="preserve" text-anchor="middle" x="150.5" y="-118.5" font-family="Helvetica,sans-Serif" font-size="10.00">dsps_cplx_gen_init.c</text>
</a>
</g>
</g>
<!-- Node1&#45;&gt;Node3 -->
<g id="edge2_Node000001_Node000003" class="edge">
<title>Node1&#45;&gt;Node3</title>
<g id="a_edge2_Node000001_Node000003"><a xlink:title=" ">
<path fill="none" stroke="#63b8ff" d="M1262.55,-176.73C1103.44,-175.53 615.78,-168.85 213.5,-132 210.53,-131.73 207.48,-131.41 204.41,-131.07"/>
<polygon fill="#63b8ff" stroke="#63b8ff" points="1262.33,-180.23 1272.36,-176.8 1262.38,-173.23 1262.33,-180.23"/>
</a>
</g>
</g>
<!-- Node4 -->
<g id="Node000004" class="node">
<title>Node4</title>
<g id="a_Node000004"><a xlink:href="dsps__dct__f32_8c.html" target="_top" xlink:title=" ">
<polygon fill="white" stroke="#666666" points="304.88,-132 222.12,-132 222.12,-112 304.88,-112 304.88,-132"/>
<text xml:space="preserve" text-anchor="middle" x="263.5" y="-118.5" font-family="Helvetica,sans-Serif" font-size="10.00">dsps_dct_f32.c</text>
</a>
</g>
</g>
<!-- Node1&#45;&gt;Node4 -->
<g id="edge3_Node000001_Node000004" class="edge">
<title>Node1&#45;&gt;Node4</title>
<g id="a_edge3_Node000001_Node000004"><a xlink:title=" ">
<path fill="none" stroke="#63b8ff" d="M1262.8,-177.03C1113.59,-176.61 675.56,-171.8 314.5,-132 311.46,-131.67 308.33,-131.26 305.19,-130.81"/>
<polygon fill="#63b8ff" stroke="#63b8ff" points="1262.35,-180.53 1272.36,-177.06 1262.37,-173.53 1262.35,-180.53"/>
</a>
</g>
</g>
<!-- Node5 -->
<g id="Node000005" class="node">
<title>Node5</title>
<g id="a_Node000005"><a xlink:href="dsps__dctiv__f32_8c.html" target="_top" xlink:title=" ">
<polygon fill="white" stroke="#666666" points="413.62,-132 323.38,-132 323.38,-112 413.62,-112 413.62,-132"/>
<text xml:space="preserve" text-anchor="middle" x="368.5" y="-118.5" font-family="Helvetica,sans-Serif" font-size="10.00">dsps_dctiv_f32.c</text>
</a>
</g>
</g>
<!-- Node1&#45;&gt;Node5 -->
<g id="edge4_Node000001_Node000005" class="edge">
<title>Node1&#45;&gt;Node5</title>
<g id="a_edge4_Node000001_Node000005"><a xlink:title=" ">
<path fill="none" stroke="#63b8ff" d="M1262.5,-176.45C1124,-174.55 740.04,-166.35 422.5,-132 419.76,-131.7 416.95,-131.36 414.11,-130.98"/>
<polygon fill="#63b8ff" stroke="#63b8ff" points="1262.41,-179.95 1272.46,-176.58 1262.51,-172.95 1262.41,-179.95"/>
</a>
</g>
</g>
<!-- Node6 -->
<g id="Node000006" class="node">
<title>Node6</title>
<g id="a_Node000006"><a xlink:href="dsps__dstiv__f32_8c.html" target="_top" xlink:title=" ">
<polygon fill="white" stroke="#666666" points="521.62,-132 431.38,-132 431.38,-112 521.62,-112 521.62,-132"/>
<text xml:space="preserve" text-anchor="middle" x="476.5" y="-118.5" font-family="Helvetica,sans-Serif" font-size="10.00">dsps_dstiv_f32.c</text>
</a>
</g>
</g>
<!-- Node1&#45;&gt;Node6 -->
<g id="edge5_Node000001_Node000006" class="edge">
<title>Node1&#45;&gt;Node6</title>
<g id="a_edge5_Node000001_Node000006"><a xlink:title=" ">
<path fill="none" stroke="#63b8ff" d="M1262.39,-175.93C1135.48,-172.95 804.8,-162.63 530.5,-132 527.76,-131.69 524.95,-131.34 522.12,-130.96"/>
<polygon fill="#63b8ff" stroke="#63b8ff" points="1262.08,-179.42 1272.15,-176.15 1262.24,-172.43 1262.08,-179.42"/>
</a>
</g>
</g>
<!-- Node7 -->
<g id="Node000007" class="node">
<title>Node7</title>
<g id="a_Node000007"><a xlink:href="dsps__fft2r__fc32__ae32_8c.html" target="_top" xlink:title=" ">
<polygon fill="white" stroke="#666666" points="657.12,-132 539.88,-132 539.88,-112 657.12,-112 657.12,-132"/>
<text xml:space="preserve" text-anchor="middle" x="598.5" y="-118.5" font-family="Helvetica,sans-Serif" font-size="10.00">dsps_fft2r_fc32_ae32.c</text>
</a>
</g>
</g>
<!-- Node1&#45;&gt;Node7 -->
<g id="edge6_Node000001_Node000007" class="edge">
<title>Node1&#45;&gt;Node7</title>
<g id="a_edge6_Node000001_Node000007"><a xlink:title=" ">
<path fill="none" stroke="#63b8ff" d="M1262.48,-174.45C1151.64,-168.86 887.37,-154.25 666.5,-132 663.54,-131.7 660.51,-131.38 657.45,-131.03"/>
<polygon fill="#63b8ff" stroke="#63b8ff" points="1261.99,-177.93 1272.15,-174.93 1262.34,-170.93 1261.99,-177.93"/>
</a>
</g>
</g>
<!-- Node8 -->
<g id="Node000008" class="node">
<title>Node8</title>
<g id="a_Node000008"><a xlink:href="dsps__fft2r__fc32__ansi_8c.html" target="_top" xlink:title=" ">
<polygon fill="white" stroke="#666666" points="789.62,-132 675.38,-132 675.38,-112 789.62,-112 789.62,-132"/>
<text xml:space="preserve" text-anchor="middle" x="732.5" y="-118.5" font-family="Helvetica,sans-Serif" font-size="10.00">dsps_fft2r_fc32_ansi.c</text>
</a>
</g>
</g>
<!-- Node1&#45;&gt;Node8 -->
<g id="edge7_Node000001_Node000008" class="edge">
<title>Node1&#45;&gt;Node8</title>
<g id="a_edge7_Node000001_Node000008"><a xlink:title=" ">
<path fill="none" stroke="#63b8ff" d="M1262.45,-173.24C1168.71,-166.4 967.66,-150.88 798.5,-132 795.74,-131.69 792.92,-131.36 790.07,-131.02"/>
<polygon fill="#63b8ff" stroke="#63b8ff" points="1262.15,-176.73 1272.37,-173.96 1262.65,-169.74 1262.15,-176.73"/>
</a>
</g>
</g>
<!-- Node9 -->
<g id="Node000009" class="node">
<title>Node9</title>
<g id="a_Node000009"><a xlink:href="dsps__fft2r__sc16__ansi_8c.html" target="_top" xlink:title=" ">
<polygon fill="white" stroke="#666666" points="923.75,-132 807.25,-132 807.25,-112 923.75,-112 923.75,-132"/>
<text xml:space="preserve" text-anchor="middle" x="865.5" y="-118.5" font-family="Helvetica,sans-Serif" font-size="10.00">dsps_fft2r_sc16_ansi.c</text>
</a>
</g>
</g>
<!-- Node1&#45;&gt;Node9 -->
<g id="edge8_Node000001_Node000009" class="edge">
<title>Node1&#45;&gt;Node9</title>
<g id="a_edge8_Node000001_Node000009"><a xlink:title=" ">
<path fill="none" stroke="#63b8ff" d="M1262.52,-171.06C1188.57,-162.7 1050.25,-146.83 932.5,-132 929.71,-131.65 926.85,-131.28 923.96,-130.91"/>
<polygon fill="#63b8ff" stroke="#63b8ff" points="1261.98,-174.52 1272.31,-172.16 1262.77,-167.56 1261.98,-174.52"/>
</a>
</g>
</g>
<!-- Node10 -->
<g id="Node000010" class="node">
<title>Node10</title>
<g id="a_Node000010"><a xlink:href="dsps__fft4r__fc32__ae32_8c.html" target="_top" xlink:title=" ">
<polygon fill="white" stroke="#666666" points="1059.12,-132 941.88,-132 941.88,-112 1059.12,-112 1059.12,-132"/>
<text xml:space="preserve" text-anchor="middle" x="1000.5" y="-118.5" font-family="Helvetica,sans-Serif" font-size="10.00">dsps_fft4r_fc32_ae32.c</text>
</a>
</g>
</g>
<!-- Node1&#45;&gt;Node10 -->
<g id="edge9_Node000001_Node000010" class="edge">
<title>Node1&#45;&gt;Node10</title>
<g id="a_edge9_Node000001_Node000010"><a xlink:title=" ">
<path fill="none" stroke="#63b8ff" d="M1262.67,-167.94C1205.3,-158.11 1114.07,-142.47 1055.77,-132.47"/>
<polygon fill="#63b8ff" stroke="#63b8ff" points="1261.73,-171.33 1272.18,-169.57 1262.91,-164.43 1261.73,-171.33"/>
</a>
</g>
</g>
<!-- Node11 -->
<g id="Node000011" class="node">
<title>Node11</title>
<g id="a_Node000011"><a xlink:href="dsps__fft4r__fc32__ansi_8c.html" target="_top" xlink:title=" ">
<polygon fill="white" stroke="#666666" points="1191.62,-132 1077.38,-132 1077.38,-112 1191.62,-112 1191.62,-132"/>
<text xml:space="preserve" text-anchor="middle" x="1134.5" y="-118.5" font-family="Helvetica,sans-Serif" font-size="10.00">dsps_fft4r_fc32_ansi.c</text>
</a>
</g>
</g>
<!-- Node1&#45;&gt;Node11 -->
<g id="edge10_Node000001_Node000011" class="edge">
<title>Node1&#45;&gt;Node11</title>
<g id="a_edge10_Node000001_Node000011"><a xlink:title=" ">
<path fill="none" stroke="#63b8ff" d="M1272.95,-164.31C1240.28,-154.56 1195.89,-141.32 1166.27,-132.48"/>
<polygon fill="#63b8ff" stroke="#63b8ff" points="1271.94,-167.66 1282.52,-167.16 1273.94,-160.95 1271.94,-167.66"/>
</a>
</g>
</g>
<!-- Node12 -->
<g id="Node000012" class="node">
<title>Node12</title>
<g id="a_Node000012"><a xlink:href="dsps__fir_8h.html" target="_top" xlink:title=" ">
<polygon fill="white" stroke="#666666" points="1268.88,-132 1210.12,-132 1210.12,-112 1268.88,-112 1268.88,-132"/>
<text xml:space="preserve" text-anchor="middle" x="1239.5" y="-118.5" font-family="Helvetica,sans-Serif" font-size="10.00">dsps_fir.h</text>
</a>
</g>
</g>
<!-- Node1&#45;&gt;Node12 -->
<g id="edge11_Node000001_Node000012" class="edge">
<title>Node1&#45;&gt;Node12</title>
<g id="a_edge11_Node000001_Node000012"><a xlink:title=" ">
<path fill="none" stroke="#63b8ff" d="M1292.98,-161C1279.92,-151.72 1263.92,-140.35 1252.84,-132.48"/>
<polygon fill="#63b8ff" stroke="#63b8ff" points="1290.85,-163.78 1301.03,-166.72 1294.9,-158.07 1290.85,-163.78"/>
</a>
</g>
</g>
<!-- Node19 -->
<g id="Node000019" class="node">
<title>Node19</title>
<g id="a_Node000019"><a xlink:href="dsps__firmr__f32__ansi_8c.html" target="_top" xlink:title=" ">
<polygon fill="white" stroke="#666666" points="1219.5,-76 1107.5,-76 1107.5,-56 1219.5,-56 1219.5,-76"/>
<text xml:space="preserve" text-anchor="middle" x="1163.5" y="-62.5" font-family="Helvetica,sans-Serif" font-size="10.00">dsps_firmr_f32_ansi.c</text>
</a>
</g>
</g>
<!-- Node1&#45;&gt;Node19 -->
<g id="edge28_Node000001_Node000019" class="edge">
<title>Node1&#45;&gt;Node19</title>
<g id="a_edge28_Node000001_Node000019"><a xlink:title=" ">
<path fill="none" stroke="#63b8ff" d="M1308.2,-157.48C1301.97,-143.18 1291.75,-124.22 1277.5,-112 1257.07,-94.48 1228.99,-83.28 1205.82,-76.44"/>
<polygon fill="#63b8ff" stroke="#63b8ff" points="1304.78,-158.36 1311.77,-166.33 1311.27,-155.74 1304.78,-158.36"/>
</a>
</g>
</g>
<!-- Node20 -->
<g id="Node000020" class="node">
<title>Node20</title>
<g id="a_Node000020"><a xlink:href="dsps__firmr__init__f32_8c.html" target="_top" xlink:title=" ">
<polygon fill="white" stroke="#666666" points="1343.88,-76 1237.12,-76 1237.12,-56 1343.88,-56 1343.88,-76"/>
<text xml:space="preserve" text-anchor="middle" x="1290.5" y="-62.5" font-family="Helvetica,sans-Serif" font-size="10.00">dsps_firmr_init_f32.c</text>
</a>
</g>
</g>
<!-- Node1&#45;&gt;Node20 -->
<g id="edge29_Node000001_Node000020" class="edge">
<title>Node1&#45;&gt;Node20</title>
<g id="a_edge29_Node000001_Node000020"><a xlink:title=" ">
<path fill="none" stroke="#63b8ff" d="M1315.69,-156.22C1315.37,-143.31 1314.16,-126.48 1310.5,-112 1307.23,-99.07 1300.52,-85.19 1295.78,-76.32"/>
<polygon fill="#63b8ff" stroke="#63b8ff" points="1312.19,-156.09 1315.76,-166.07 1319.19,-156.05 1312.19,-156.09"/>
</a>
</g>
</g>
<!-- Node21 -->
<g id="Node000021" class="node">
<title>Node21</title>
<g id="a_Node000021"><a xlink:href="dsps__firmr__init__s16_8c.html" target="_top" xlink:title=" ">
<polygon fill="white" stroke="#666666" points="1471,-76 1362,-76 1362,-56 1471,-56 1471,-76"/>
<text xml:space="preserve" text-anchor="middle" x="1416.5" y="-62.5" font-family="Helvetica,sans-Serif" font-size="10.00">dsps_firmr_init_s16.c</text>
</a>
</g>
</g>
<!-- Node1&#45;&gt;Node21 -->
<g id="edge30_Node000001_Node000021" class="edge">
<title>Node1&#45;&gt;Node21</title>
<g id="a_edge30_Node000001_Node000021"><a xlink:title=" ">
<path fill="none" stroke="#63b8ff" d="M1331.83,-159.22C1353.53,-135.58 1391.08,-94.68 1407.91,-76.35"/>
<polygon fill="#63b8ff" stroke="#63b8ff" points="1329.32,-156.77 1325.13,-166.51 1334.48,-161.51 1329.32,-156.77"/>
</a>
</g>
</g>
<!-- Node22 -->
<g id="Node000022" class="node">
<title>Node22</title>
<g id="a_Node000022"><a xlink:href="dsps__firmr__s16__ansi_8c.html" target="_top" xlink:title=" ">
<polygon fill="white" stroke="#666666" points="1603.62,-76 1489.38,-76 1489.38,-56 1603.62,-56 1603.62,-76"/>
<text xml:space="preserve" text-anchor="middle" x="1546.5" y="-62.5" font-family="Helvetica,sans-Serif" font-size="10.00">dsps_firmr_s16_ansi.c</text>
</a>
</g>
</g>
<!-- Node1&#45;&gt;Node22 -->
<g id="edge31_Node000001_Node000022" class="edge">
<title>Node1&#45;&gt;Node22</title>
<g id="a_edge31_Node000001_Node000022"><a xlink:title=" ">
<path fill="none" stroke="#63b8ff" d="M1341.02,-161.92C1364.81,-148.13 1401.49,-127.58 1434.5,-112 1463.49,-98.32 1497.84,-84.91 1520.78,-76.35"/>
<polygon fill="#63b8ff" stroke="#63b8ff" points="1339.54,-158.73 1332.66,-166.79 1343.06,-164.78 1339.54,-158.73"/>
</a>
</g>
</g>
<!-- Node26 -->
<g id="Node000026" class="node">
<title>Node26</title>
<g id="a_Node000026"><a xlink:href="esp__dsp_8h.html" target="_top" xlink:title=" ">
<polygon fill="#fff0f0" stroke="red" points="906,-20 845,-20 845,0 906,0 906,-20"/>
<text xml:space="preserve" text-anchor="middle" x="875.5" y="-6.5" font-family="Helvetica,sans-Serif" font-size="10.00">esp_dsp.h</text>
</a>
</g>
</g>
<!-- Node1&#45;&gt;Node26 -->
<g id="edge36_Node000001_Node000026" class="edge">
<title>Node1&#45;&gt;Node26</title>
<g id="a_edge36_Node000001_Node000026"><a xlink:title=" ">
<path fill="none" stroke="#63b8ff" d="M1364.33,-164.64C1394.01,-156.57 1432.44,-145.11 1465.5,-132 1483.98,-124.67 1486.7,-118.46 1505.5,-112 1584.33,-84.9 1741.78,-116.56 1684.5,-56 1657.25,-27.19 1050.29,-14.22 906.05,-11.54"/>
<polygon fill="#63b8ff" stroke="#63b8ff" points="1363.62,-161.21 1354.87,-167.18 1365.43,-167.97 1363.62,-161.21"/>
</a>
</g>
</g>
<!-- Node54 -->
<g id="Node000054" class="node">
<title>Node54</title>
<g id="a_Node000054"><a xlink:href="test__fir_8c.html" target="_top" xlink:title=" ">
<polygon fill="white" stroke="#666666" points="1675.62,-76 1621.38,-76 1621.38,-56 1675.62,-56 1675.62,-76"/>
<text xml:space="preserve" text-anchor="middle" x="1648.5" y="-62.5" font-family="Helvetica,sans-Serif" font-size="10.00">test_fir.c</text>
</a>
</g>
</g>
<!-- Node1&#45;&gt;Node54 -->
<g id="edge38_Node000001_Node000054" class="edge">
<title>Node1&#45;&gt;Node54</title>
<g id="a_edge38_Node000001_Node000054"><a xlink:title=" ">
<path fill="none" stroke="#63b8ff" d="M1351.85,-163.54C1374.61,-154.92 1404.46,-143.28 1430.5,-132 1449.47,-123.78 1453.06,-119.04 1472.5,-112 1479.56,-109.44 1573.57,-85.77 1621.22,-73.83"/>
<polygon fill="#63b8ff" stroke="#63b8ff" points="1350.84,-160.18 1342.71,-166.98 1353.3,-166.73 1350.84,-160.18"/>
</a>
</g>
</g>
<!-- Node55 -->
<g id="Node000055" class="node">
<title>Node55</title>
<g id="a_Node000055"><a xlink:href="dsps__mem_8h.html" target="_top" xlink:title=" ">
<polygon fill="white" stroke="#666666" points="1586.62,-132 1514.38,-132 1514.38,-112 1586.62,-112 1586.62,-132"/>
<text xml:space="preserve" text-anchor="middle" x="1550.5" y="-118.5" font-family="Helvetica,sans-Serif" font-size="10.00">dsps_mem.h</text>
</a>
</g>
</g>
<!-- Node1&#45;&gt;Node55 -->
<g id="edge32_Node000001_Node000055" class="edge">
<title>Node1&#45;&gt;Node55</title>
<g id="a_edge32_Node000001_Node000055"><a xlink:title=" ">
<path fill="none" stroke="#63b8ff" d="M1367.86,-164.97C1412.26,-154.77 1474.81,-140.39 1513.98,-131.39"/>
<polygon fill="#63b8ff" stroke="#63b8ff" points="1367.14,-161.54 1358.18,-167.19 1368.71,-168.36 1367.14,-161.54"/>
</a>
</g>
</g>
<!-- Node56 -->
<g id="Node000056" class="node">
<title>Node56</title>
<g id="a_Node000056"><a xlink:href="dsps__pwroftwo_8cpp.html" target="_top" xlink:title=" ">
<polygon fill="white" stroke="#666666" points="1705.88,-132 1605.12,-132 1605.12,-112 1705.88,-112 1705.88,-132"/>
<text xml:space="preserve" text-anchor="middle" x="1655.5" y="-118.5" font-family="Helvetica,sans-Serif" font-size="10.00">dsps_pwroftwo.cpp</text>
</a>
</g>
</g>
<!-- Node1&#45;&gt;Node56 -->
<g id="edge33_Node000001_Node000056" class="edge">
<title>Node1&#45;&gt;Node56</title>
<g id="a_edge33_Node000001_Node000056"><a xlink:title=" ">
<path fill="none" stroke="#63b8ff" d="M1368.33,-168.61C1432.88,-158.36 1541.35,-141.13 1604.89,-131.04"/>
<polygon fill="#63b8ff" stroke="#63b8ff" points="1368.01,-165.12 1358.69,-170.14 1369.11,-172.03 1368.01,-165.12"/>
</a>
</g>
</g>
<!-- Node57 -->
<g id="Node000057" class="node">
<title>Node57</title>
<g id="a_Node000057"><a xlink:href="dsps__sfdr__f32_8cpp.html" target="_top" xlink:title=" ">
<polygon fill="white" stroke="#666666" points="1820.62,-132 1724.38,-132 1724.38,-112 1820.62,-112 1820.62,-132"/>
<text xml:space="preserve" text-anchor="middle" x="1772.5" y="-118.5" font-family="Helvetica,sans-Serif" font-size="10.00">dsps_sfdr_f32.cpp</text>
</a>
</g>
</g>
<!-- Node1&#45;&gt;Node57 -->
<g id="edge34_Node000001_Node000057" class="edge">
<title>Node1&#45;&gt;Node57</title>
<g id="a_edge34_Node000001_Node000057"><a xlink:title=" ">
<path fill="none" stroke="#63b8ff" d="M1368.44,-171.74C1444.93,-163.97 1590.78,-148.57 1714.5,-132 1717.63,-131.58 1720.85,-131.13 1724.1,-130.66"/>
<polygon fill="#63b8ff" stroke="#63b8ff" points="1368.32,-168.23 1358.72,-172.72 1369.02,-175.2 1368.32,-168.23"/>
</a>
</g>
</g>
<!-- Node58 -->
<g id="Node000058" class="node">
<title>Node58</title>
<g id="a_Node000058"><a xlink:href="dsps__snr__f32_8cpp.html" target="_top" xlink:title=" ">
<polygon fill="white" stroke="#666666" points="1932.12,-132 1838.88,-132 1838.88,-112 1932.12,-112 1932.12,-132"/>
<text xml:space="preserve" text-anchor="middle" x="1885.5" y="-118.5" font-family="Helvetica,sans-Serif" font-size="10.00">dsps_snr_f32.cpp</text>
</a>
</g>
</g>
<!-- Node1&#45;&gt;Node58 -->
<g id="edge35_Node000001_Node000058" class="edge">
<title>Node1&#45;&gt;Node58</title>
<g id="a_edge35_Node000001_Node000058"><a xlink:title=" ">
<path fill="none" stroke="#63b8ff" d="M1368.64,-173.61C1462.07,-167.38 1661.77,-152.79 1829.5,-132 1832.43,-131.64 1835.45,-131.23 1838.48,-130.81"/>
<polygon fill="#63b8ff" stroke="#63b8ff" points="1368.51,-170.12 1358.76,-174.27 1368.97,-177.1 1368.51,-170.12"/>
</a>
</g>
</g>
<!-- Node59 -->
<g id="Node000059" class="node">
<title>Node59</title>
<g id="a_Node000059"><a xlink:href="test__fft2r_8c.html" target="_top" xlink:title=" ">
<polygon fill="white" stroke="#666666" points="2012.75,-132 1950.25,-132 1950.25,-112 2012.75,-112 2012.75,-132"/>
<text xml:space="preserve" text-anchor="middle" x="1981.5" y="-118.5" font-family="Helvetica,sans-Serif" font-size="10.00">test_fft2r.c</text>
</a>
</g>
</g>
<!-- Node1&#45;&gt;Node59 -->
<g id="edge37_Node000001_Node000059" class="edge">
<title>Node1&#45;&gt;Node59</title>
<g id="a_edge37_Node000001_Node000059"><a xlink:title=" ">
<path fill="none" stroke="#63b8ff" d="M1368.35,-175.87C1476.5,-172.96 1730.63,-163.12 1941.5,-132 1944.32,-131.58 1947.23,-131.08 1950.14,-130.52"/>
<polygon fill="#63b8ff" stroke="#63b8ff" points="1368.54,-172.36 1358.63,-176.12 1368.72,-179.36 1368.54,-172.36"/>
</a>
</g>
</g>
<!-- Node60 -->
<g id="Node000060" class="node">
<title>Node60</title>
<g id="a_Node000060"><a xlink:href="test__iir__biquad_8c.html" target="_top" xlink:title=" ">
<polygon fill="white" stroke="#666666" points="2118.12,-132 2030.88,-132 2030.88,-112 2118.12,-112 2118.12,-132"/>
<text xml:space="preserve" text-anchor="middle" x="2074.5" y="-118.5" font-family="Helvetica,sans-Serif" font-size="10.00">test_iir_biquad.c</text>
</a>
</g>
</g>
<!-- Node1&#45;&gt;Node60 -->
<g id="edge39_Node000001_Node000060" class="edge">
<title>Node1&#45;&gt;Node60</title>
<g id="a_edge39_Node000001_Node000060"><a xlink:title=" ">
<path fill="none" stroke="#63b8ff" d="M1368.17,-175.53C1485.72,-171.82 1778.29,-160.32 2021.5,-132 2024.47,-131.65 2027.52,-131.25 2030.59,-130.82"/>
<polygon fill="#63b8ff" stroke="#63b8ff" points="1368.42,-172.02 1358.53,-175.82 1368.63,-179.01 1368.42,-172.02"/>
</a>
</g>
</g>
<!-- Node61 -->
<g id="Node000061" class="node">
<title>Node61</title>
<g id="a_Node000061"><a xlink:href="test__mmult_8c.html" target="_top" xlink:title=" ">
<polygon fill="white" stroke="#666666" points="2209,-132 2136,-132 2136,-112 2209,-112 2209,-132"/>
<text xml:space="preserve" text-anchor="middle" x="2172.5" y="-118.5" font-family="Helvetica,sans-Serif" font-size="10.00">test_mmult.c</text>
</a>
</g>
</g>
<!-- Node1&#45;&gt;Node61 -->
<g id="edge40_Node000001_Node000061" class="edge">
<title>Node1&#45;&gt;Node61</title>
<g id="a_edge40_Node000001_Node000061"><a xlink:title=" ">
<path fill="none" stroke="#63b8ff" d="M1368.24,-176.66C1497.96,-175.28 1842.67,-168.19 2127.5,-132 2130.19,-131.66 2132.95,-131.25 2135.73,-130.8"/>
<polygon fill="#63b8ff" stroke="#63b8ff" points="1368.57,-173.16 1358.61,-176.76 1368.64,-180.16 1368.57,-173.16"/>
</a>
</g>
</g>
<!-- Node13 -->
<g id="Node000013" class="node">
<title>Node13</title>
<g id="a_Node000013"><a xlink:href="dsps__fir__f32__ansi_8c.html" target="_top" xlink:title=" ">
<polygon fill="white" stroke="#666666" points="975.88,-76 875.12,-76 875.12,-56 975.88,-56 975.88,-76"/>
<text xml:space="preserve" text-anchor="middle" x="925.5" y="-62.5" font-family="Helvetica,sans-Serif" font-size="10.00">dsps_fir_f32_ansi.c</text>
</a>
</g>
</g>
<!-- Node12&#45;&gt;Node13 -->
<g id="edge12_Node000012_Node000013" class="edge">
<title>Node12&#45;&gt;Node13</title>
<g id="a_edge12_Node000012_Node000013"><a xlink:title=" ">
<path fill="none" stroke="#63b8ff" d="M1198.72,-111.79C1143.47,-101.34 1038.97,-84.73 976.19,-74.89"/>
<polygon fill="#63b8ff" stroke="#63b8ff" points="1197.76,-115.17 1208.25,-113.63 1199.09,-108.3 1197.76,-115.17"/>
</a>
</g>
</g>
<!-- Node14 -->
<g id="Node000014" class="node">
<title>Node14</title>
<g id="a_Node000014"><a xlink:href="dsps__fir__init__f32_8c.html" target="_top" xlink:title=" ">
<polygon fill="white" stroke="#666666" points="1089.25,-76 993.75,-76 993.75,-56 1089.25,-56 1089.25,-76"/>
<text xml:space="preserve" text-anchor="middle" x="1041.5" y="-62.5" font-family="Helvetica,sans-Serif" font-size="10.00">dsps_fir_init_f32.c</text>
</a>
</g>
</g>
<!-- Node12&#45;&gt;Node14 -->
<g id="edge13_Node000012_Node000014" class="edge">
<title>Node12&#45;&gt;Node14</title>
<g id="a_edge13_Node000012_Node000014"><a xlink:title=" ">
<path fill="none" stroke="#63b8ff" d="M1199.18,-110C1162.96,-100.12 1110.33,-85.77 1076.01,-76.41"/>
<polygon fill="#63b8ff" stroke="#63b8ff" points="1197.83,-113.26 1208.4,-112.52 1199.67,-106.51 1197.83,-113.26"/>
</a>
</g>
</g>
<!-- Node15 -->
<g id="Node000015" class="node">
<title>Node15</title>
<g id="a_Node000015"><a xlink:href="dsps__fird__f32__ansi_8c.html" target="_top" xlink:title=" ">
<polygon fill="white" stroke="#666666" points="341.5,-76 235.5,-76 235.5,-56 341.5,-56 341.5,-76"/>
<text xml:space="preserve" text-anchor="middle" x="288.5" y="-62.5" font-family="Helvetica,sans-Serif" font-size="10.00">dsps_fird_f32_ansi.c</text>
</a>
</g>
</g>
<!-- Node12&#45;&gt;Node15 -->
<g id="edge14_Node000012_Node000015" class="edge">
<title>Node12&#45;&gt;Node15</title>
<g id="a_edge14_Node000012_Node000015"><a xlink:title=" ">
<path fill="none" stroke="#63b8ff" d="M1198.63,-112.05C823.85,-62.24 723.3,-110.86 350.5,-76 347.68,-75.74 344.8,-75.43 341.89,-75.1"/>
<polygon fill="#63b8ff" stroke="#63b8ff" points="1197.92,-115.48 1208.29,-113.35 1198.85,-108.55 1197.92,-115.48"/>
</a>
</g>
</g>
<!-- Node16 -->
<g id="Node000016" class="node">
<title>Node16</title>
<g id="a_Node000016"><a xlink:href="dsps__fird__init__f32_8c.html" target="_top" xlink:title=" ">
<polygon fill="white" stroke="#666666" points="459.88,-76 359.12,-76 359.12,-56 459.88,-56 459.88,-76"/>
<text xml:space="preserve" text-anchor="middle" x="409.5" y="-62.5" font-family="Helvetica,sans-Serif" font-size="10.00">dsps_fird_init_f32.c</text>
</a>
</g>
</g>
<!-- Node12&#45;&gt;Node16 -->
<g id="edge15_Node000012_Node000016" class="edge">
<title>Node12&#45;&gt;Node16</title>
<g id="a_edge15_Node000012_Node000016"><a xlink:title=" ">
<path fill="none" stroke="#63b8ff" d="M1198.72,-112.04C876.37,-68.16 789.55,-107.8 469.5,-76 466.46,-75.7 463.34,-75.35 460.19,-74.97"/>
<polygon fill="#63b8ff" stroke="#63b8ff" points="1197.91,-115.47 1208.29,-113.36 1198.86,-108.53 1197.91,-115.47"/>
</a>
</g>
</g>
<!-- Node17 -->
<g id="Node000017" class="node">
<title>Node17</title>
<g id="a_Node000017"><a xlink:href="dsps__fird__init__s16_8c.html" target="_top" xlink:title=" ">
<polygon fill="white" stroke="#666666" points="581,-76 478,-76 478,-56 581,-56 581,-76"/>
<text xml:space="preserve" text-anchor="middle" x="529.5" y="-62.5" font-family="Helvetica,sans-Serif" font-size="10.00">dsps_fird_init_s16.c</text>
</a>
</g>
</g>
<!-- Node12&#45;&gt;Node17 -->
<g id="edge16_Node000012_Node000017" class="edge">
<title>Node12&#45;&gt;Node17</title>
<g id="a_edge16_Node000012_Node000017"><a xlink:title=" ">
<path fill="none" stroke="#63b8ff" d="M1198.5,-111.99C929.7,-74.15 856.96,-103.47 590.5,-76 587.52,-75.69 584.46,-75.34 581.38,-74.97"/>
<polygon fill="#63b8ff" stroke="#63b8ff" points="1197.89,-115.44 1208.29,-113.39 1198.88,-108.51 1197.89,-115.44"/>
</a>
</g>
</g>
<!-- Node18 -->
<g id="Node000018" class="node">
<title>Node18</title>
<g id="a_Node000018"><a xlink:href="dsps__fird__s16__ansi_8c.html" target="_top" xlink:title=" ">
<polygon fill="white" stroke="#666666" points="707.62,-76 599.38,-76 599.38,-56 707.62,-56 707.62,-76"/>
<text xml:space="preserve" text-anchor="middle" x="653.5" y="-62.5" font-family="Helvetica,sans-Serif" font-size="10.00">dsps_fird_s16_ansi.c</text>
</a>
</g>
</g>
<!-- Node12&#45;&gt;Node18 -->
<g id="edge17_Node000012_Node000018" class="edge">
<title>Node12&#45;&gt;Node18</title>
<g id="a_edge17_Node000012_Node000018"><a xlink:title=" ">
<path fill="none" stroke="#63b8ff" d="M1198.51,-111.95C985.26,-80.31 927.28,-98.87 716.5,-76 713.75,-75.7 710.94,-75.38 708.11,-75.03"/>
<polygon fill="#63b8ff" stroke="#63b8ff" points="1197.87,-115.4 1208.28,-113.42 1198.92,-108.47 1197.87,-115.4"/>
</a>
</g>
</g>
<!-- Node12&#45;&gt;Node19 -->
<g id="edge18_Node000012_Node000019" class="edge">
<title>Node12&#45;&gt;Node19</title>
<g id="a_edge18_Node000012_Node000019"><a xlink:title=" ">
<path fill="none" stroke="#63b8ff" d="M1216.98,-105C1203.92,-95.72 1187.92,-84.35 1176.84,-76.48"/>
<polygon fill="#63b8ff" stroke="#63b8ff" points="1214.85,-107.78 1225.03,-110.72 1218.9,-102.07 1214.85,-107.78"/>
</a>
</g>
</g>
<!-- Node12&#45;&gt;Node20 -->
<g id="edge19_Node000012_Node000020" class="edge">
<title>Node12&#45;&gt;Node20</title>
<g id="a_edge19_Node000012_Node000020"><a xlink:title=" ">
<path fill="none" stroke="#63b8ff" d="M1256.23,-103.29C1264.74,-94.28 1274.73,-83.7 1281.72,-76.3"/>
<polygon fill="#63b8ff" stroke="#63b8ff" points="1253.74,-100.82 1249.42,-110.49 1258.83,-105.63 1253.74,-100.82"/>
</a>
</g>
</g>
<!-- Node12&#45;&gt;Node21 -->
<g id="edge20_Node000012_Node000021" class="edge">
<title>Node12&#45;&gt;Node21</title>
<g id="a_edge20_Node000012_Node000021"><a xlink:title=" ">
<path fill="none" stroke="#63b8ff" d="M1279.93,-108.66C1312.04,-98.87 1356.27,-85.38 1385.59,-76.43"/>
<polygon fill="#63b8ff" stroke="#63b8ff" points="1279.12,-105.25 1270.57,-111.52 1281.16,-111.95 1279.12,-105.25"/>
</a>
</g>
</g>
<!-- Node12&#45;&gt;Node22 -->
<g id="edge21_Node000012_Node000022" class="edge">
<title>Node12&#45;&gt;Node22</title>
<g id="a_edge21_Node000012_Node000022"><a xlink:title=" ">
<path fill="none" stroke="#63b8ff" d="M1280.54,-113.78C1335.25,-104.16 1432.17,-87.11 1492.68,-76.47"/>
<polygon fill="#63b8ff" stroke="#63b8ff" points="1279.95,-110.33 1270.71,-115.51 1281.16,-117.23 1279.95,-110.33"/>
</a>
</g>
</g>
<!-- Node23 -->
<g id="Node000023" class="node">
<title>Node23</title>
<g id="a_Node000023"><a xlink:href="dsps__resampler_8h.html" target="_top" xlink:title=" ">
<polygon fill="white" stroke="#666666" points="819.12,-76 725.88,-76 725.88,-56 819.12,-56 819.12,-76"/>
<text xml:space="preserve" text-anchor="middle" x="772.5" y="-62.5" font-family="Helvetica,sans-Serif" font-size="10.00">dsps_resampler.h</text>
</a>
</g>
</g>
<!-- Node12&#45;&gt;Node23 -->
<g id="edge22_Node000012_Node000023" class="edge">
<title>Node12&#45;&gt;Node23</title>
<g id="a_edge22_Node000012_Node000023"><a xlink:title=" ">
<path fill="none" stroke="#63b8ff" d="M1198.44,-111.88C1036.79,-85.97 992.52,-95.52 833.5,-76 828.93,-75.44 824.18,-74.81 819.43,-74.16"/>
<polygon fill="#63b8ff" stroke="#63b8ff" points="1197.84,-115.33 1208.27,-113.48 1198.97,-108.42 1197.84,-115.33"/>
</a>
</g>
</g>
<!-- Node12&#45;&gt;Node26 -->
<g id="edge26_Node000012_Node000026" class="edge">
<title>Node12&#45;&gt;Node26</title>
<g id="a_edge26_Node000012_Node000026"><a xlink:title=" ">
<path fill="none" stroke="#63b8ff" d="M1198.4,-112.17C1109.09,-102.17 914.24,-129.16 866.5,-76 852.65,-60.57 863.04,-34.23 870.21,-20.29"/>
<polygon fill="#63b8ff" stroke="#63b8ff" points="1197.88,-115.63 1208.26,-113.54 1198.84,-108.7 1197.88,-115.63"/>
</a>
</g>
</g>
<!-- Node12&#45;&gt;Node54 -->
<g id="edge27_Node000012_Node000054" class="edge">
<title>Node12&#45;&gt;Node54</title>
<g id="a_edge27_Node000012_Node000054"><a xlink:title=" ">
<path fill="none" stroke="#63b8ff" d="M1280.38,-117.75C1349.28,-111.9 1492.75,-98.1 1612.5,-76 1615.29,-75.49 1618.18,-74.88 1621.06,-74.24"/>
<polygon fill="#63b8ff" stroke="#63b8ff" points="1280.37,-114.24 1270.69,-118.56 1280.95,-121.22 1280.37,-114.24"/>
</a>
</g>
</g>
<!-- Node24 -->
<g id="Node000024" class="node">
<title>Node24</title>
<g id="a_Node000024"><a xlink:href="dsps__resampler__mr_8c.html" target="_top" xlink:title=" ">
<polygon fill="white" stroke="#666666" points="827.38,-20 717.62,-20 717.62,0 827.38,0 827.38,-20"/>
<text xml:space="preserve" text-anchor="middle" x="772.5" y="-6.5" font-family="Helvetica,sans-Serif" font-size="10.00">dsps_resampler_mr.c</text>
</a>
</g>
</g>
<!-- Node23&#45;&gt;Node24 -->
<g id="edge23_Node000023_Node000024" class="edge">
<title>Node23&#45;&gt;Node24</title>
<g id="a_edge23_Node000023_Node000024"><a xlink:title=" ">
<path fill="none" stroke="#63b8ff" d="M772.5,-44.13C772.5,-35.9 772.5,-26.85 772.5,-20.3"/>
<polygon fill="#63b8ff" stroke="#63b8ff" points="769,-44.08 772.5,-54.08 776,-44.08 769,-44.08"/>
</a>
</g>
</g>
<!-- Node25 -->
<g id="Node000025" class="node">
<title>Node25</title>
<g id="a_Node000025"><a xlink:href="dsps__resampler__ph_8c.html" target="_top" xlink:title=" ">
<polygon fill="white" stroke="#666666" points="700,-20 591,-20 591,0 700,0 700,-20"/>
<text xml:space="preserve" text-anchor="middle" x="645.5" y="-6.5" font-family="Helvetica,sans-Serif" font-size="10.00">dsps_resampler_ph.c</text>
</a>
</g>
</g>
<!-- Node23&#45;&gt;Node25 -->
<g id="edge24_Node000023_Node000025" class="edge">
<title>Node23&#45;&gt;Node25</title>
<g id="a_edge24_Node000023_Node000025"><a xlink:title=" ">
<path fill="none" stroke="#63b8ff" d="M739.9,-51.14C717.29,-41.52 687.76,-28.97 667.79,-20.48"/>
<polygon fill="#63b8ff" stroke="#63b8ff" points="738.41,-54.31 748.99,-55 741.15,-47.87 738.41,-54.31"/>
</a>
</g>
</g>
<!-- Node23&#45;&gt;Node26 -->
<g id="edge25_Node000023_Node000026" class="edge">
<title>Node23&#45;&gt;Node26</title>
<g id="a_edge25_Node000023_Node000026"><a xlink:title=" ">
<path fill="none" stroke="#63b8ff" d="M800.45,-50.35C818.58,-40.84 841.67,-28.74 857.42,-20.48"/>
<polygon fill="#63b8ff" stroke="#63b8ff" points="799.01,-47.15 791.78,-54.89 802.26,-53.35 799.01,-47.15"/>
</a>
</g>
</g>
</g>
</svg>
