<?xml version="1.0" encoding="UTF-8" standalone="no"?>
<!DOCTYPE svg PUBLIC "-//W3C//DTD SVG 1.1//EN"
 "http://www.w3.org/Graphics/SVG/1.1/DTD/svg11.dtd">
<!-- Generated by graphviz version 14.1.2 (20260124.0452)
 -->
<!-- Title: dsp_platform.h Pages: 1 -->
<svg width="547pt" height="84pt"
 viewBox="0.00 0.00 547.00 84.00" xmlns="http://www.w3.org/2000/svg" xmlns:xlink="http://www.w3.org/1999/xlink">
<g id="graph0" class="graph" transform="scale(1 1) rotate(0) translate(4 80)">
<title>dsp_platform.h</title>
<!-- Node1 -->
<g id="Node000001" class="node">
<title>Node1</title>
<g id="a_Node000001"><a xlink:title=" ">
<polygon fill="#999999" stroke="#666666" points="323.5,-76 243,-76 243,-56 323.5,-56 323.5,-76"/>
<text xml:space="preserve" text-anchor="middle" x="283.25" y="-62.5" font-family="Helvetica,sans-Serif" font-size="10.00">dsp_platform.h</text>
</a>
</g>
</g>
<!-- Node2 -->
<g id="Node000002" class="node">
<title>Node2</title>
<g id="a_Node000002"><a xlink:title=" ">
<polygon fill="#e0e0e0" stroke="#999999" points="92.5,-20 0,-20 0,0 92.5,0 92.5,-20"/>
<text xml:space="preserve" text-anchor="middle" x="46.25" y="-6.5" font-family="Helvetica,sans-Serif" font-size="10.00">esp_idf_version.h</text>
</a>
</g>
</g>
<!-- Node1&#45;&gt;Node2 -->
<g id="edge1_Node000001_Node000002" class="edge">
<title>Node1&#45;&gt;Node2</title>
<g id="a_edge1_Node000001_Node000002"><a xlink:title=" ">
<path fill="none" stroke="#63b8ff" d="M242.51,-55.72C202.78,-46.67 142.18,-32.86 98.83,-22.98"/>
<polygon fill="#63b8ff" stroke="#63b8ff" points="99.66,-19.58 89.13,-20.77 98.1,-26.4 99.66,-19.58"/>
</a>
</g>
</g>
<!-- Node3 -->
<g id="Node000003" class="node">
<title>Node3</title>
<g id="a_Node000003"><a xlink:title=" ">
<polygon fill="#e0e0e0" stroke="#999999" points="217.62,-20 110.88,-20 110.88,0 217.62,0 217.62,-20"/>
<text xml:space="preserve" text-anchor="middle" x="164.25" y="-6.5" font-family="Helvetica,sans-Serif" font-size="10.00">freertos/FreeRTOS.h</text>
</a>
</g>
</g>
<!-- Node1&#45;&gt;Node3 -->
<g id="edge2_Node000001_Node000003" class="edge">
<title>Node1&#45;&gt;Node3</title>
<g id="a_edge2_Node000001_Node000003"><a xlink:title=" ">
<path fill="none" stroke="#63b8ff" d="M262.52,-55.59C244.04,-47.21 216.71,-34.8 195.56,-25.21"/>
<polygon fill="#63b8ff" stroke="#63b8ff" points="197.07,-22.05 186.52,-21.1 194.18,-28.42 197.07,-22.05"/>
</a>
</g>
</g>
<!-- Node4 -->
<g id="Node000004" class="node">
<title>Node4</title>
<g id="a_Node000004"><a xlink:title=" ">
<polygon fill="#e0e0e0" stroke="#999999" points="330.62,-20 235.88,-20 235.88,0 330.62,0 330.62,-20"/>
<text xml:space="preserve" text-anchor="middle" x="283.25" y="-6.5" font-family="Helvetica,sans-Serif" font-size="10.00">freertos/portable.h</text>
</a>
</g>
</g>
<!-- Node1&#45;&gt;Node4 -->
<g id="edge3_Node000001_Node000004" class="edge">
<title>Node1&#45;&gt;Node4</title>
<g id="a_edge3_Node000001_Node000004"><a xlink:title=" ">
<path fill="none" stroke="#63b8ff" d="M283.25,-55.59C283.25,-49.01 283.25,-39.96 283.25,-31.73"/>
<polygon fill="#63b8ff" stroke="#63b8ff" points="286.75,-31.81 283.25,-21.81 279.75,-31.81 286.75,-31.81"/>
</a>
</g>
</g>
<!-- Node5 -->
<g id="Node000005" class="node">
<title>Node5</title>
<g id="a_Node000005"><a xlink:title=" ">
<polygon fill="#e0e0e0" stroke="#999999" points="427.75,-20 348.75,-20 348.75,0 427.75,0 427.75,-20"/>
<text xml:space="preserve" text-anchor="middle" x="388.25" y="-6.5" font-family="Helvetica,sans-Serif" font-size="10.00">freertos/task.h</text>
</a>
</g>
</g>
<!-- Node1&#45;&gt;Node5 -->
<g id="edge4_Node000001_Node000005" class="edge">
<title>Node1&#45;&gt;Node5</title>
<g id="a_edge4_Node000001_Node000005"><a xlink:title=" ">
<path fill="none" stroke="#63b8ff" d="M301.54,-55.59C317.55,-47.36 341.08,-35.26 359.59,-25.74"/>
<polygon fill="#63b8ff" stroke="#63b8ff" points="361.18,-28.86 368.47,-21.17 357.98,-22.63 361.18,-28.86"/>
</a>
</g>
</g>
<!-- Node6 -->
<g id="Node000006" class="node">
<title>Node6</title>
<g id="a_Node000006"><a xlink:title=" ">
<polygon fill="#e0e0e0" stroke="#999999" points="538.5,-20 446,-20 446,0 538.5,0 538.5,-20"/>
<text xml:space="preserve" text-anchor="middle" x="492.25" y="-6.5" font-family="Helvetica,sans-Serif" font-size="10.00">freertos/semphr.h</text>
</a>
</g>
</g>
<!-- Node1&#45;&gt;Node6 -->
<g id="edge5_Node000001_Node000006" class="edge">
<title>Node1&#45;&gt;Node6</title>
<g id="a_edge5_Node000001_Node000006"><a xlink:title=" ">
<path fill="none" stroke="#63b8ff" d="M319.66,-55.59C354.36,-46.63 406.8,-33.08 444.77,-23.27"/>
<polygon fill="#63b8ff" stroke="#63b8ff" points="445.29,-26.75 454.1,-20.86 443.54,-19.97 445.29,-26.75"/>
</a>
</g>
</g>
</g>
</svg>
