<?xml version="1.0" encoding="UTF-8" standalone="no"?>
<!DOCTYPE svg PUBLIC "-//W3C//DTD SVG 1.1//EN"
 "http://www.w3.org/Graphics/SVG/1.1/DTD/svg11.dtd">
<!-- Generated by graphviz version 14.1.2 (20260124.0452)
 -->
<!-- Title: dspi_dotprod_u16_ansi.c Pages: 1 -->
<svg width="495pt" height="252pt"
 viewBox="0.00 0.00 495.00 252.00" xmlns="http://www.w3.org/2000/svg" xmlns:xlink="http://www.w3.org/1999/xlink">
<g id="graph0" class="graph" transform="scale(1 1) rotate(0) translate(4 248)">
<title>dspi_dotprod_u16_ansi.c</title>
<!-- Node1 -->
<g id="Node000001" class="node">
<title>Node1</title>
<g id="a_Node000001"><a xlink:title=" ">
<polygon fill="#999999" stroke="#666666" points="248.75,-244 124.75,-244 124.75,-224 248.75,-224 248.75,-244"/>
<text xml:space="preserve" text-anchor="middle" x="186.75" y="-230.5" font-family="Helvetica,sans-Serif" font-size="10.00">dspi_dotprod_u16_ansi.c</text>
</a>
</g>
</g>
<!-- Node2 -->
<g id="Node000002" class="node">
<title>Node2</title>
<g id="a_Node000002"><a xlink:href="dspi__dotprod_8h.html" target="_top" xlink:title=" ">
<polygon fill="white" stroke="#666666" points="226.62,-188 146.88,-188 146.88,-168 226.62,-168 226.62,-188"/>
<text xml:space="preserve" text-anchor="middle" x="186.75" y="-174.5" font-family="Helvetica,sans-Serif" font-size="10.00">dspi_dotprod.h</text>
</a>
</g>
</g>
<!-- Node1&#45;&gt;Node2 -->
<g id="edge1_Node000001_Node000002" class="edge">
<title>Node1&#45;&gt;Node2</title>
<g id="a_edge1_Node000001_Node000002"><a xlink:title=" ">
<path fill="none" stroke="#63b8ff" d="M186.75,-223.59C186.75,-217.01 186.75,-207.96 186.75,-199.73"/>
<polygon fill="#63b8ff" stroke="#63b8ff" points="190.25,-199.81 186.75,-189.81 183.25,-199.81 190.25,-199.81"/>
</a>
</g>
</g>
<!-- Node3 -->
<g id="Node000003" class="node">
<title>Node3</title>
<g id="a_Node000003"><a xlink:href="esp__log_8h.html" target="_top" xlink:title=" ">
<polygon fill="white" stroke="#666666" points="62.75,-132 4.75,-132 4.75,-112 62.75,-112 62.75,-132"/>
<text xml:space="preserve" text-anchor="middle" x="33.75" y="-118.5" font-family="Helvetica,sans-Serif" font-size="10.00">esp_log.h</text>
</a>
</g>
</g>
<!-- Node2&#45;&gt;Node3 -->
<g id="edge2_Node000002_Node000003" class="edge">
<title>Node2&#45;&gt;Node3</title>
<g id="a_edge2_Node000002_Node000003"><a xlink:title=" ">
<path fill="none" stroke="#63b8ff" d="M160.1,-167.59C135.57,-158.94 98.92,-146 71.41,-136.29"/>
<polygon fill="#63b8ff" stroke="#63b8ff" points="72.63,-133.01 62.04,-132.98 70.3,-139.61 72.63,-133.01"/>
</a>
</g>
</g>
<!-- Node5 -->
<g id="Node000005" class="node">
<title>Node5</title>
<g id="a_Node000005"><a xlink:href="dsp__err_8h.html" target="_top" xlink:title=" ">
<polygon fill="white" stroke="#666666" points="172,-132 115.5,-132 115.5,-112 172,-112 172,-132"/>
<text xml:space="preserve" text-anchor="middle" x="143.75" y="-118.5" font-family="Helvetica,sans-Serif" font-size="10.00">dsp_err.h</text>
</a>
</g>
</g>
<!-- Node2&#45;&gt;Node5 -->
<g id="edge4_Node000002_Node000005" class="edge">
<title>Node2&#45;&gt;Node5</title>
<g id="a_edge4_Node000002_Node000005"><a xlink:title=" ">
<path fill="none" stroke="#63b8ff" d="M179.26,-167.59C173.46,-160.32 165.26,-150.02 158.2,-141.15"/>
<polygon fill="#63b8ff" stroke="#63b8ff" points="161.06,-139.12 152.1,-133.48 155.59,-143.49 161.06,-139.12"/>
</a>
</g>
</g>
<!-- Node9 -->
<g id="Node000009" class="node">
<title>Node9</title>
<g id="a_Node000009"><a xlink:href="dsp__types_8h.html" target="_top" xlink:title=" ">
<polygon fill="white" stroke="#666666" points="290.38,-132 221.12,-132 221.12,-112 290.38,-112 290.38,-132"/>
<text xml:space="preserve" text-anchor="middle" x="255.75" y="-118.5" font-family="Helvetica,sans-Serif" font-size="10.00">dsp_types.h</text>
</a>
</g>
</g>
<!-- Node2&#45;&gt;Node9 -->
<g id="edge9_Node000002_Node000009" class="edge">
<title>Node2&#45;&gt;Node9</title>
<g id="a_edge9_Node000002_Node000009"><a xlink:title=" ">
<path fill="none" stroke="#63b8ff" d="M198.77,-167.59C208.76,-159.77 223.21,-148.46 235.06,-139.19"/>
<polygon fill="#63b8ff" stroke="#63b8ff" points="236.96,-142.15 242.68,-133.23 232.64,-136.64 236.96,-142.15"/>
</a>
</g>
</g>
<!-- Node12 -->
<g id="Node000012" class="node">
<title>Node12</title>
<g id="a_Node000012"><a xlink:href="dspi__dotprod__platform_8h.html" target="_top" xlink:title=" ">
<polygon fill="white" stroke="#666666" points="484.88,-132 364.62,-132 364.62,-112 484.88,-112 484.88,-132"/>
<text xml:space="preserve" text-anchor="middle" x="424.75" y="-118.5" font-family="Helvetica,sans-Serif" font-size="10.00">dspi_dotprod_platform.h</text>
</a>
</g>
</g>
<!-- Node2&#45;&gt;Node12 -->
<g id="edge13_Node000002_Node000012" class="edge">
<title>Node2&#45;&gt;Node12</title>
<g id="a_edge13_Node000002_Node000012"><a xlink:title=" ">
<path fill="none" stroke="#63b8ff" d="M227.12,-167.84C267.02,-158.79 328.25,-144.89 371.98,-134.97"/>
<polygon fill="#63b8ff" stroke="#63b8ff" points="372.52,-138.44 381.5,-132.81 370.97,-131.61 372.52,-138.44"/>
</a>
</g>
</g>
<!-- Node4 -->
<g id="Node000004" class="node">
<title>Node4</title>
<g id="a_Node000004"><a xlink:title=" ">
<polygon fill="#e0e0e0" stroke="#999999" points="47.5,-20 0,-20 0,0 47.5,0 47.5,-20"/>
<text xml:space="preserve" text-anchor="middle" x="23.75" y="-6.5" font-family="Helvetica,sans-Serif" font-size="10.00">stdlib.h</text>
</a>
</g>
</g>
<!-- Node3&#45;&gt;Node4 -->
<g id="edge3_Node000003_Node000004" class="edge">
<title>Node3&#45;&gt;Node4</title>
<g id="a_edge3_Node000003_Node000004"><a xlink:title=" ">
<path fill="none" stroke="#63b8ff" d="M28.52,-111.7C23.86,-102.84 17.38,-88.97 14.75,-76 11.73,-61.11 14.3,-44.09 17.46,-31.2"/>
<polygon fill="#63b8ff" stroke="#63b8ff" points="20.77,-32.35 20.09,-21.78 14.03,-30.47 20.77,-32.35"/>
</a>
</g>
</g>
<!-- Node6 -->
<g id="Node000006" class="node">
<title>Node6</title>
<g id="a_Node000006"><a xlink:title=" ">
<polygon fill="#e0e0e0" stroke="#999999" points="251.88,-76 203.62,-76 203.62,-56 251.88,-56 251.88,-76"/>
<text xml:space="preserve" text-anchor="middle" x="227.75" y="-62.5" font-family="Helvetica,sans-Serif" font-size="10.00">stdint.h</text>
</a>
</g>
</g>
<!-- Node5&#45;&gt;Node6 -->
<g id="edge5_Node000005_Node000006" class="edge">
<title>Node5&#45;&gt;Node6</title>
<g id="a_edge5_Node000005_Node000006"><a xlink:title=" ">
<path fill="none" stroke="#63b8ff" d="M158.38,-111.59C170.83,-103.59 188.97,-91.93 203.57,-82.54"/>
<polygon fill="#63b8ff" stroke="#63b8ff" points="205.21,-85.65 211.73,-77.3 201.43,-79.76 205.21,-85.65"/>
</a>
</g>
</g>
<!-- Node7 -->
<g id="Node000007" class="node">
<title>Node7</title>
<g id="a_Node000007"><a xlink:href="esp__err_8h.html" target="_top" xlink:title=" ">
<polygon fill="white" stroke="#666666" points="80,-76 23.5,-76 23.5,-56 80,-56 80,-76"/>
<text xml:space="preserve" text-anchor="middle" x="51.75" y="-62.5" font-family="Helvetica,sans-Serif" font-size="10.00">esp_err.h</text>
</a>
</g>
</g>
<!-- Node5&#45;&gt;Node7 -->
<g id="edge6_Node000005_Node000007" class="edge">
<title>Node5&#45;&gt;Node7</title>
<g id="a_edge6_Node000005_Node000007"><a xlink:title=" ">
<path fill="none" stroke="#63b8ff" d="M127.72,-111.59C113.96,-103.51 93.85,-91.71 77.77,-82.27"/>
<polygon fill="#63b8ff" stroke="#63b8ff" points="79.6,-79.29 69.21,-77.25 76.06,-85.33 79.6,-79.29"/>
</a>
</g>
</g>
<!-- Node8 -->
<g id="Node000008" class="node">
<title>Node8</title>
<g id="a_Node000008"><a xlink:href="dsp__err__codes_8h.html" target="_top" xlink:title=" ">
<polygon fill="white" stroke="#666666" points="185.75,-76 97.75,-76 97.75,-56 185.75,-56 185.75,-76"/>
<text xml:space="preserve" text-anchor="middle" x="141.75" y="-62.5" font-family="Helvetica,sans-Serif" font-size="10.00">dsp_err_codes.h</text>
</a>
</g>
</g>
<!-- Node5&#45;&gt;Node8 -->
<g id="edge8_Node000005_Node000008" class="edge">
<title>Node5&#45;&gt;Node8</title>
<g id="a_edge8_Node000005_Node000008"><a xlink:title=" ">
<path fill="none" stroke="#63b8ff" d="M143.4,-111.59C143.16,-105.01 142.82,-95.96 142.52,-87.73"/>
<polygon fill="#63b8ff" stroke="#63b8ff" points="146.02,-87.67 142.15,-77.81 139.02,-87.93 146.02,-87.67"/>
</a>
</g>
</g>
<!-- Node7&#45;&gt;Node4 -->
<g id="edge7_Node000007_Node000004" class="edge">
<title>Node7&#45;&gt;Node4</title>
<g id="a_edge7_Node000007_Node000004"><a xlink:title=" ">
<path fill="none" stroke="#63b8ff" d="M46.87,-55.59C43.26,-48.63 38.21,-38.89 33.75,-30.29"/>
<polygon fill="#63b8ff" stroke="#63b8ff" points="36.98,-28.91 29.27,-21.64 30.76,-32.13 36.98,-28.91"/>
</a>
</g>
</g>
<!-- Node9&#45;&gt;Node6 -->
<g id="edge10_Node000009_Node000006" class="edge">
<title>Node9&#45;&gt;Node6</title>
<g id="a_edge10_Node000009_Node000006"><a xlink:title=" ">
<path fill="none" stroke="#63b8ff" d="M250.87,-111.59C247.26,-104.63 242.21,-94.89 237.75,-86.29"/>
<polygon fill="#63b8ff" stroke="#63b8ff" points="240.98,-84.91 233.27,-77.64 234.76,-88.13 240.98,-84.91"/>
</a>
</g>
</g>
<!-- Node10 -->
<g id="Node000010" class="node">
<title>Node10</title>
<g id="a_Node000010"><a xlink:title=" ">
<polygon fill="#e0e0e0" stroke="#999999" points="325.62,-76 269.88,-76 269.88,-56 325.62,-56 325.62,-76"/>
<text xml:space="preserve" text-anchor="middle" x="297.75" y="-62.5" font-family="Helvetica,sans-Serif" font-size="10.00">stdbool.h</text>
</a>
</g>
</g>
<!-- Node9&#45;&gt;Node10 -->
<g id="edge11_Node000009_Node000010" class="edge">
<title>Node9&#45;&gt;Node10</title>
<g id="a_edge11_Node000009_Node000010"><a xlink:title=" ">
<path fill="none" stroke="#63b8ff" d="M263.07,-111.59C268.73,-104.32 276.74,-94.02 283.64,-85.15"/>
<polygon fill="#63b8ff" stroke="#63b8ff" points="286.21,-87.54 289.59,-77.49 280.69,-83.24 286.21,-87.54"/>
</a>
</g>
</g>
<!-- Node11 -->
<g id="Node000011" class="node">
<title>Node11</title>
<g id="a_Node000011"><a xlink:title=" ">
<polygon fill="#e0e0e0" stroke="#999999" points="402.12,-76 343.38,-76 343.38,-56 402.12,-56 402.12,-76"/>
<text xml:space="preserve" text-anchor="middle" x="372.75" y="-62.5" font-family="Helvetica,sans-Serif" font-size="10.00">inttypes.h</text>
</a>
</g>
</g>
<!-- Node9&#45;&gt;Node11 -->
<g id="edge12_Node000009_Node000011" class="edge">
<title>Node9&#45;&gt;Node11</title>
<g id="a_edge12_Node000009_Node000011"><a xlink:title=" ">
<path fill="none" stroke="#63b8ff" d="M276.13,-111.59C294.31,-103.21 321.18,-90.8 341.97,-81.21"/>
<polygon fill="#63b8ff" stroke="#63b8ff" points="343.22,-84.48 350.84,-77.11 340.29,-78.13 343.22,-84.48"/>
</a>
</g>
</g>
<!-- Node13 -->
<g id="Node000013" class="node">
<title>Node13</title>
<g id="a_Node000013"><a xlink:title=" ">
<polygon fill="#e0e0e0" stroke="#999999" points="486.88,-76 420.62,-76 420.62,-56 486.88,-56 486.88,-76"/>
<text xml:space="preserve" text-anchor="middle" x="453.75" y="-62.5" font-family="Helvetica,sans-Serif" font-size="10.00">sdkconfig.h</text>
</a>
</g>
</g>
<!-- Node12&#45;&gt;Node13 -->
<g id="edge14_Node000012_Node000013" class="edge">
<title>Node12&#45;&gt;Node13</title>
<g id="a_edge14_Node000012_Node000013"><a xlink:title=" ">
<path fill="none" stroke="#63b8ff" d="M429.8,-111.59C433.54,-104.63 438.77,-94.89 443.39,-86.29"/>
<polygon fill="#63b8ff" stroke="#63b8ff" points="446.39,-88.1 448.04,-77.63 440.23,-84.79 446.39,-88.1"/>
</a>
</g>
</g>
</g>
</svg>
