<?xml version="1.0" encoding="UTF-8" standalone="no"?>
<!DOCTYPE svg PUBLIC "-//W3C//DTD SVG 1.1//EN"
 "http://www.w3.org/Graphics/SVG/1.1/DTD/svg11.dtd">
<!-- Generated by graphviz version 14.1.2 (20260124.0452)
 -->
<!-- Title: dspi_conv.h Pages: 1 -->
<svg width="471pt" height="196pt"
 viewBox="0.00 0.00 471.00 196.00" xmlns="http://www.w3.org/2000/svg" xmlns:xlink="http://www.w3.org/1999/xlink">
<g id="graph0" class="graph" transform="scale(1 1) rotate(0) translate(4 192)">
<title>dspi_conv.h</title>
<!-- Node1 -->
<g id="Node000001" class="node">
<title>Node1</title>
<g id="a_Node000001"><a xlink:title=" ">
<polygon fill="#999999" stroke="#666666" points="278.75,-188 211,-188 211,-168 278.75,-168 278.75,-188"/>
<text xml:space="preserve" text-anchor="middle" x="244.88" y="-174.5" font-family="Helvetica,sans-Serif" font-size="10.00">dspi_conv.h</text>
</a>
</g>
</g>
<!-- Node2 -->
<g id="Node000002" class="node">
<title>Node2</title>
<g id="a_Node000002"><a xlink:href="dsp__err_8h.html" target="_top" xlink:title=" ">
<polygon fill="white" stroke="#666666" points="273.12,-132 216.62,-132 216.62,-112 273.12,-112 273.12,-132"/>
<text xml:space="preserve" text-anchor="middle" x="244.88" y="-118.5" font-family="Helvetica,sans-Serif" font-size="10.00">dsp_err.h</text>
</a>
</g>
</g>
<!-- Node1&#45;&gt;Node2 -->
<g id="edge1_Node000001_Node000002" class="edge">
<title>Node1&#45;&gt;Node2</title>
<g id="a_edge1_Node000001_Node000002"><a xlink:title=" ">
<path fill="none" stroke="#63b8ff" d="M244.88,-167.59C244.88,-161.01 244.88,-151.96 244.88,-143.73"/>
<polygon fill="#63b8ff" stroke="#63b8ff" points="248.38,-143.81 244.88,-133.81 241.38,-143.81 248.38,-143.81"/>
</a>
</g>
</g>
<!-- Node7 -->
<g id="Node000007" class="node">
<title>Node7</title>
<g id="a_Node000007"><a xlink:href="dsps__conv__platform_8h.html" target="_top" xlink:title=" ">
<polygon fill="white" stroke="#666666" points="443.88,-132 331.88,-132 331.88,-112 443.88,-112 443.88,-132"/>
<text xml:space="preserve" text-anchor="middle" x="387.88" y="-118.5" font-family="Helvetica,sans-Serif" font-size="10.00">dsps_conv_platform.h</text>
</a>
</g>
</g>
<!-- Node1&#45;&gt;Node7 -->
<g id="edge6_Node000001_Node000007" class="edge">
<title>Node1&#45;&gt;Node7</title>
<g id="a_edge6_Node000001_Node000007"><a xlink:title=" ">
<path fill="none" stroke="#63b8ff" d="M269.78,-167.59C292.61,-158.97 326.66,-146.12 352.34,-136.42"/>
<polygon fill="#63b8ff" stroke="#63b8ff" points="353.24,-139.82 361.36,-133.01 350.76,-133.27 353.24,-139.82"/>
</a>
</g>
</g>
<!-- Node9 -->
<g id="Node000009" class="node">
<title>Node9</title>
<g id="a_Node000009"><a xlink:href="dsp__types_8h.html" target="_top" xlink:title=" ">
<polygon fill="white" stroke="#666666" points="168.5,-132 99.25,-132 99.25,-112 168.5,-112 168.5,-132"/>
<text xml:space="preserve" text-anchor="middle" x="133.88" y="-118.5" font-family="Helvetica,sans-Serif" font-size="10.00">dsp_types.h</text>
</a>
</g>
</g>
<!-- Node1&#45;&gt;Node9 -->
<g id="edge8_Node000001_Node000009" class="edge">
<title>Node1&#45;&gt;Node9</title>
<g id="a_edge8_Node000001_Node000009"><a xlink:title=" ">
<path fill="none" stroke="#63b8ff" d="M225.54,-167.59C208.46,-159.28 183.27,-147.03 163.62,-137.47"/>
<polygon fill="#63b8ff" stroke="#63b8ff" points="165.25,-134.37 154.72,-133.14 162.18,-140.66 165.25,-134.37"/>
</a>
</g>
</g>
<!-- Node3 -->
<g id="Node000003" class="node">
<title>Node3</title>
<g id="a_Node000003"><a xlink:title=" ">
<polygon fill="#e0e0e0" stroke="#999999" points="199,-76 150.75,-76 150.75,-56 199,-56 199,-76"/>
<text xml:space="preserve" text-anchor="middle" x="174.88" y="-62.5" font-family="Helvetica,sans-Serif" font-size="10.00">stdint.h</text>
</a>
</g>
</g>
<!-- Node2&#45;&gt;Node3 -->
<g id="edge2_Node000002_Node000003" class="edge">
<title>Node2&#45;&gt;Node3</title>
<g id="a_edge2_Node000002_Node000003"><a xlink:title=" ">
<path fill="none" stroke="#63b8ff" d="M232.68,-111.59C222.54,-103.77 207.88,-92.46 195.86,-83.19"/>
<polygon fill="#63b8ff" stroke="#63b8ff" points="198.18,-80.56 188.13,-77.22 193.91,-86.1 198.18,-80.56"/>
</a>
</g>
</g>
<!-- Node4 -->
<g id="Node000004" class="node">
<title>Node4</title>
<g id="a_Node000004"><a xlink:href="esp__err_8h.html" target="_top" xlink:title=" ">
<polygon fill="white" stroke="#666666" points="273.12,-76 216.62,-76 216.62,-56 273.12,-56 273.12,-76"/>
<text xml:space="preserve" text-anchor="middle" x="244.88" y="-62.5" font-family="Helvetica,sans-Serif" font-size="10.00">esp_err.h</text>
</a>
</g>
</g>
<!-- Node2&#45;&gt;Node4 -->
<g id="edge3_Node000002_Node000004" class="edge">
<title>Node2&#45;&gt;Node4</title>
<g id="a_edge3_Node000002_Node000004"><a xlink:title=" ">
<path fill="none" stroke="#63b8ff" d="M244.88,-111.59C244.88,-105.01 244.88,-95.96 244.88,-87.73"/>
<polygon fill="#63b8ff" stroke="#63b8ff" points="248.38,-87.81 244.88,-77.81 241.38,-87.81 248.38,-87.81"/>
</a>
</g>
</g>
<!-- Node6 -->
<g id="Node000006" class="node">
<title>Node6</title>
<g id="a_Node000006"><a xlink:href="dsp__err__codes_8h.html" target="_top" xlink:title=" ">
<polygon fill="white" stroke="#666666" points="378.88,-76 290.88,-76 290.88,-56 378.88,-56 378.88,-76"/>
<text xml:space="preserve" text-anchor="middle" x="334.88" y="-62.5" font-family="Helvetica,sans-Serif" font-size="10.00">dsp_err_codes.h</text>
</a>
</g>
</g>
<!-- Node2&#45;&gt;Node6 -->
<g id="edge5_Node000002_Node000006" class="edge">
<title>Node2&#45;&gt;Node6</title>
<g id="a_edge5_Node000002_Node000006"><a xlink:title=" ">
<path fill="none" stroke="#63b8ff" d="M260.55,-111.59C274.02,-103.51 293.69,-91.71 309.42,-82.27"/>
<polygon fill="#63b8ff" stroke="#63b8ff" points="311,-85.4 317.78,-77.26 307.4,-79.4 311,-85.4"/>
</a>
</g>
</g>
<!-- Node5 -->
<g id="Node000005" class="node">
<title>Node5</title>
<g id="a_Node000005"><a xlink:title=" ">
<polygon fill="#e0e0e0" stroke="#999999" points="268.62,-20 221.12,-20 221.12,0 268.62,0 268.62,-20"/>
<text xml:space="preserve" text-anchor="middle" x="244.88" y="-6.5" font-family="Helvetica,sans-Serif" font-size="10.00">stdlib.h</text>
</a>
</g>
</g>
<!-- Node4&#45;&gt;Node5 -->
<g id="edge4_Node000004_Node000005" class="edge">
<title>Node4&#45;&gt;Node5</title>
<g id="a_edge4_Node000004_Node000005"><a xlink:title=" ">
<path fill="none" stroke="#63b8ff" d="M244.88,-55.59C244.88,-49.01 244.88,-39.96 244.88,-31.73"/>
<polygon fill="#63b8ff" stroke="#63b8ff" points="248.38,-31.81 244.88,-21.81 241.38,-31.81 248.38,-31.81"/>
</a>
</g>
</g>
<!-- Node8 -->
<g id="Node000008" class="node">
<title>Node8</title>
<g id="a_Node000008"><a xlink:title=" ">
<polygon fill="#e0e0e0" stroke="#999999" points="463,-76 396.75,-76 396.75,-56 463,-56 463,-76"/>
<text xml:space="preserve" text-anchor="middle" x="429.88" y="-62.5" font-family="Helvetica,sans-Serif" font-size="10.00">sdkconfig.h</text>
</a>
</g>
</g>
<!-- Node7&#45;&gt;Node8 -->
<g id="edge7_Node000007_Node000008" class="edge">
<title>Node7&#45;&gt;Node8</title>
<g id="a_edge7_Node000007_Node000008"><a xlink:title=" ">
<path fill="none" stroke="#63b8ff" d="M395.19,-111.59C400.85,-104.32 408.86,-94.02 415.76,-85.15"/>
<polygon fill="#63b8ff" stroke="#63b8ff" points="418.34,-87.54 421.71,-77.49 412.81,-83.24 418.34,-87.54"/>
</a>
</g>
</g>
<!-- Node9&#45;&gt;Node3 -->
<g id="edge9_Node000009_Node000003" class="edge">
<title>Node9&#45;&gt;Node3</title>
<g id="a_edge9_Node000009_Node000003"><a xlink:title=" ">
<path fill="none" stroke="#63b8ff" d="M141.02,-111.59C146.48,-104.39 154.2,-94.23 160.88,-85.43"/>
<polygon fill="#63b8ff" stroke="#63b8ff" points="163.64,-87.58 166.9,-77.5 158.07,-83.35 163.64,-87.58"/>
</a>
</g>
</g>
<!-- Node10 -->
<g id="Node000010" class="node">
<title>Node10</title>
<g id="a_Node000010"><a xlink:title=" ">
<polygon fill="#e0e0e0" stroke="#999999" points="55.75,-76 0,-76 0,-56 55.75,-56 55.75,-76"/>
<text xml:space="preserve" text-anchor="middle" x="27.88" y="-62.5" font-family="Helvetica,sans-Serif" font-size="10.00">stdbool.h</text>
</a>
</g>
</g>
<!-- Node9&#45;&gt;Node10 -->
<g id="edge10_Node000009_Node000010" class="edge">
<title>Node9&#45;&gt;Node10</title>
<g id="a_edge10_Node000009_Node000010"><a xlink:title=" ">
<path fill="none" stroke="#63b8ff" d="M115.41,-111.59C99.17,-103.32 75.27,-91.14 56.54,-81.6"/>
<polygon fill="#63b8ff" stroke="#63b8ff" points="58.33,-78.59 47.83,-77.17 55.15,-84.82 58.33,-78.59"/>
</a>
</g>
</g>
<!-- Node11 -->
<g id="Node000011" class="node">
<title>Node11</title>
<g id="a_Node000011"><a xlink:title=" ">
<polygon fill="#e0e0e0" stroke="#999999" points="132.25,-76 73.5,-76 73.5,-56 132.25,-56 132.25,-76"/>
<text xml:space="preserve" text-anchor="middle" x="102.88" y="-62.5" font-family="Helvetica,sans-Serif" font-size="10.00">inttypes.h</text>
</a>
</g>
</g>
<!-- Node9&#45;&gt;Node11 -->
<g id="edge11_Node000009_Node000011" class="edge">
<title>Node9&#45;&gt;Node11</title>
<g id="a_edge11_Node000009_Node000011"><a xlink:title=" ">
<path fill="none" stroke="#63b8ff" d="M128.48,-111.59C124.43,-104.55 118.76,-94.67 113.78,-86"/>
<polygon fill="#63b8ff" stroke="#63b8ff" points="116.98,-84.54 108.97,-77.61 110.91,-88.03 116.98,-84.54"/>
</a>
</g>
</g>
</g>
</svg>
