<?xml version="1.0" encoding="UTF-8" standalone="no"?>
<!DOCTYPE svg PUBLIC "-//W3C//DTD SVG 1.1//EN"
 "http://www.w3.org/Graphics/SVG/1.1/DTD/svg11.dtd">
<!-- Generated by graphviz version 14.1.2 (20260124.0452)
 -->
<!-- Title: dspi_dotprod_platform.h Pages: 1 -->
<!--zoomable 208 -->

<svg id="main" version="1.1" xmlns="http://www.w3.org/2000/svg" xmlns:xlink="http://www.w3.org/1999/xlink" xml:space="preserve" onload="init(evt)">

<style type="text/css"><![CDATA[
.node, .edge {opacity: 0.7;}
.node.selected, .edge.selected {opacity: 1;}
.edge:hover path { stroke: red; }
.edge:hover polygon { stroke: red; fill: red; }
]]></style>

<defs>
  <circle id="rim" cx="0" cy="0" r="7"/>
  <circle id="rim2" cx="0" cy="0" r="3.5"/>
  <g id="zoomPlus">
    <use xlink:href="#rim" fill="#404040"><set attributeName="fill" to="#808080" begin="zoomplus.mouseover" end="zoomplus.mouseout"/></use>
    <path d="M-4,0h8M0,-4v8" fill="none" stroke="white" stroke-width="1.5" pointer-events="none"/>
  </g>
  <g id="zoomMin">
    <use xlink:href="#rim" fill="#404040"><set attributeName="fill" to="#808080" begin="zoomminus.mouseover" end="zoomminus.mouseout"/></use>
    <path d="M-4,0h8" fill="none" stroke="white" stroke-width="1.5" pointer-events="none"/>
  </g>
  <g id="arrowUp" transform="translate(30 24)">
    <use xlink:href="#rim"/>
    <path pointer-events="none" fill="none" stroke="white" stroke-width="1.5" d="M0,-3.0v7 M-2.5,-0.5L0,-3.0L2.5,-0.5"/>
  </g>
  <g id="arrowRight" transform="rotate(90) translate(36 -43)">
    <use xlink:href="#rim"/>
    <path pointer-events="none" fill="none" stroke="white" stroke-width="1.5" d="M0,-3.0v7 M-2.5,-0.5L0,-3.0L2.5,-0.5"/>
  </g>
  <g id="arrowDown" transform="rotate(180) translate(-30 -48)">
    <use xlink:href="#rim"/>
    <path pointer-events="none" fill="none" stroke="white" stroke-width="1.5" d="M0,-3.0v7 M-2.5,-0.5L0,-3.0L2.5,-0.5"/>
  </g>
  <g id="arrowLeft" transform="rotate(270) translate(-36 17)">
    <use xlink:href="#rim"/>
    <path pointer-events="none" fill="none" stroke="white" stroke-width="1.5" d="M0,-3.0v7 M-2.5,-0.5L0,-3.0L2.5,-0.5"/>
  </g>
  <g id="resetDef">
    <use xlink:href="#rim2" fill="#404040"><set attributeName="fill" to="#808080" begin="reset.mouseover" end="reset.mouseout"/></use>
  </g>
</defs>
<script type="application/ecmascript">
var viewWidth = 2762;
var viewHeight = 208;
var sectionId = 'dynsection-1';
</script>
<script type="application/ecmascript" xlink:href="svg.min.js"/>
<svg id="graph" class="graph">
<g id="viewport">
<title>dspi_dotprod_platform.h</title>
<!-- Node1 -->
<g id="Node000001" class="node">
<title>Node1</title>
<g id="a_Node000001"><a xlink:title=" ">
<polygon fill="#999999" stroke="#666666" points="902.38,-200 782.12,-200 782.12,-180 902.38,-180 902.38,-200"/>
<text xml:space="preserve" text-anchor="middle" x="842.25" y="-186.5" font-family="Helvetica,sans-Serif" font-size="10.00">dspi_dotprod_platform.h</text>
</a>
</g>
</g>
<!-- Node2 -->
<g id="Node000002" class="node">
<title>Node2</title>
<g id="a_Node000002"><a xlink:href="dspi__dotprod_8h.html" target="_top" xlink:title=" ">
<polygon fill="white" stroke="#666666" points="882.12,-144 802.38,-144 802.38,-124 882.12,-124 882.12,-144"/>
<text xml:space="preserve" text-anchor="middle" x="842.25" y="-130.5" font-family="Helvetica,sans-Serif" font-size="10.00">dspi_dotprod.h</text>
</a>
</g>
</g>
<!-- Node1&#45;&gt;Node2 -->
<g id="edge1_Node000001_Node000002" class="edge">
<title>Node1&#45;&gt;Node2</title>
<g id="a_edge1_Node000001_Node000002"><a xlink:title=" ">
<path fill="none" stroke="#63b8ff" d="M842.25,-168.13C842.25,-159.9 842.25,-150.85 842.25,-144.3"/>
<polygon fill="#63b8ff" stroke="#63b8ff" points="838.75,-168.08 842.25,-178.08 845.75,-168.08 838.75,-168.08"/>
</a>
</g>
</g>
<!-- Node3 -->
<g id="Node000003" class="node">
<title>Node3</title>
<g id="a_Node000003"><a xlink:href="dspi__dotprod__f32__ansi_8c.html" target="_top" xlink:title=" ">
<polygon fill="white" stroke="#666666" points="274.12,-82 152.38,-82 152.38,-62 274.12,-62 274.12,-82"/>
<text xml:space="preserve" text-anchor="middle" x="213.25" y="-68.5" font-family="Helvetica,sans-Serif" font-size="10.00">dspi_dotprod_f32_ansi.c</text>
</a>
</g>
</g>
<!-- Node2&#45;&gt;Node3 -->
<g id="edge2_Node000002_Node000003" class="edge">
<title>Node2&#45;&gt;Node3</title>
<g id="a_edge2_Node000002_Node000003"><a xlink:title=" ">
<path fill="none" stroke="#63b8ff" d="M790.62,-131.1C691.71,-126.97 468.85,-115.24 283.25,-88 273.41,-86.56 262.89,-84.55 253.07,-82.47"/>
<polygon fill="#63b8ff" stroke="#63b8ff" points="790.41,-134.6 800.54,-131.51 790.69,-127.6 790.41,-134.6"/>
</a>
</g>
</g>
<!-- Node4 -->
<g id="Node000004" class="node">
<title>Node4</title>
<g id="a_Node000004"><a xlink:href="dspi__dotprod__off__f32__ansi_8c.html" target="_top" xlink:title=" ">
<polygon fill="white" stroke="#666666" points="398.25,-88 292.25,-88 292.25,-56 398.25,-56 398.25,-88"/>
<text xml:space="preserve" text-anchor="start" x="300.25" y="-74.5" font-family="Helvetica,sans-Serif" font-size="10.00">dspi_dotprod_off_f32</text>
<text xml:space="preserve" text-anchor="middle" x="345.25" y="-62.5" font-family="Helvetica,sans-Serif" font-size="10.00">_ansi.c</text>
</a>
</g>
</g>
<!-- Node2&#45;&gt;Node4 -->
<g id="edge3_Node000002_Node000004" class="edge">
<title>Node2&#45;&gt;Node4</title>
<g id="a_edge3_Node000002_Node000004"><a xlink:title=" ">
<path fill="none" stroke="#63b8ff" d="M790.67,-129.91C708.91,-124.52 544.72,-111.63 407.25,-88 404.41,-87.51 401.51,-86.97 398.59,-86.39"/>
<polygon fill="#63b8ff" stroke="#63b8ff" points="790.41,-133.4 800.61,-130.56 790.86,-126.42 790.41,-133.4"/>
</a>
</g>
</g>
<!-- Node5 -->
<g id="Node000005" class="node">
<title>Node5</title>
<g id="a_Node000005"><a xlink:href="dspi__dotprod__off__s16__ansi_8c.html" target="_top" xlink:title=" ">
<polygon fill="white" stroke="#666666" points="524.38,-88 416.12,-88 416.12,-56 524.38,-56 524.38,-88"/>
<text xml:space="preserve" text-anchor="start" x="424.12" y="-74.5" font-family="Helvetica,sans-Serif" font-size="10.00">dspi_dotprod_off_s16</text>
<text xml:space="preserve" text-anchor="middle" x="470.25" y="-62.5" font-family="Helvetica,sans-Serif" font-size="10.00">_ansi.c</text>
</a>
</g>
</g>
<!-- Node2&#45;&gt;Node5 -->
<g id="edge4_Node000002_Node000005" class="edge">
<title>Node2&#45;&gt;Node5</title>
<g id="a_edge4_Node000002_Node000005"><a xlink:title=" ">
<path fill="none" stroke="#63b8ff" d="M790.91,-126.86C729.59,-119.21 624.03,-105.05 534.25,-88 531.11,-87.4 527.89,-86.76 524.65,-86.08"/>
<polygon fill="#63b8ff" stroke="#63b8ff" points="790.34,-130.31 800.7,-128.07 791.2,-123.37 790.34,-130.31"/>
</a>
</g>
</g>
<!-- Node6 -->
<g id="Node000006" class="node">
<title>Node6</title>
<g id="a_Node000006"><a xlink:href="dspi__dotprod__off__s8__ansi_8c.html" target="_top" xlink:title=" ">
<polygon fill="white" stroke="#666666" points="645.75,-88 542.75,-88 542.75,-56 645.75,-56 645.75,-88"/>
<text xml:space="preserve" text-anchor="start" x="550.75" y="-74.5" font-family="Helvetica,sans-Serif" font-size="10.00">dspi_dotprod_off_s8</text>
<text xml:space="preserve" text-anchor="middle" x="594.25" y="-62.5" font-family="Helvetica,sans-Serif" font-size="10.00">_ansi.c</text>
</a>
</g>
</g>
<!-- Node2&#45;&gt;Node6 -->
<g id="edge5_Node000002_Node000006" class="edge">
<title>Node2&#45;&gt;Node6</title>
<g id="a_edge5_Node000002_Node000006"><a xlink:title=" ">
<path fill="none" stroke="#63b8ff" d="M791.66,-120.9C754.03,-111.88 701.41,-99.23 655.25,-88 652.28,-87.28 649.24,-86.53 646.16,-85.78"/>
<polygon fill="#63b8ff" stroke="#63b8ff" points="790.82,-124.3 801.36,-123.22 792.45,-117.49 790.82,-124.3"/>
</a>
</g>
</g>
<!-- Node7 -->
<g id="Node000007" class="node">
<title>Node7</title>
<g id="a_Node000007"><a xlink:href="dspi__dotprod__off__u16__ansi_8c.html" target="_top" xlink:title=" ">
<polygon fill="white" stroke="#666666" points="772.38,-88 664.12,-88 664.12,-56 772.38,-56 772.38,-88"/>
<text xml:space="preserve" text-anchor="start" x="672.12" y="-74.5" font-family="Helvetica,sans-Serif" font-size="10.00">dspi_dotprod_off_u16</text>
<text xml:space="preserve" text-anchor="middle" x="718.25" y="-62.5" font-family="Helvetica,sans-Serif" font-size="10.00">_ansi.c</text>
</a>
</g>
</g>
<!-- Node2&#45;&gt;Node7 -->
<g id="edge6_Node000002_Node000007" class="edge">
<title>Node2&#45;&gt;Node7</title>
<g id="a_edge6_Node000002_Node000007"><a xlink:title=" ">
<path fill="none" stroke="#63b8ff" d="M812.75,-118.73C793.86,-109.58 769.35,-97.72 750.02,-88.37"/>
<polygon fill="#63b8ff" stroke="#63b8ff" points="810.99,-121.76 821.51,-122.97 814.04,-115.46 810.99,-121.76"/>
</a>
</g>
</g>
<!-- Node8 -->
<g id="Node000008" class="node">
<title>Node8</title>
<g id="a_Node000008"><a xlink:href="dspi__dotprod__off__u8__ansi_8c.html" target="_top" xlink:title=" ">
<polygon fill="white" stroke="#666666" points="893.75,-88 790.75,-88 790.75,-56 893.75,-56 893.75,-88"/>
<text xml:space="preserve" text-anchor="start" x="798.75" y="-74.5" font-family="Helvetica,sans-Serif" font-size="10.00">dspi_dotprod_off_u8</text>
<text xml:space="preserve" text-anchor="middle" x="842.25" y="-62.5" font-family="Helvetica,sans-Serif" font-size="10.00">_ansi.c</text>
</a>
</g>
</g>
<!-- Node2&#45;&gt;Node8 -->
<g id="edge7_Node000002_Node000008" class="edge">
<title>Node2&#45;&gt;Node8</title>
<g id="a_edge7_Node000002_Node000008"><a xlink:title=" ">
<path fill="none" stroke="#63b8ff" d="M842.25,-112.31C842.25,-104.37 842.25,-95.46 842.25,-88.14"/>
<polygon fill="#63b8ff" stroke="#63b8ff" points="838.75,-112.11 842.25,-122.11 845.75,-112.11 838.75,-112.11"/>
</a>
</g>
</g>
<!-- Node9 -->
<g id="Node000009" class="node">
<title>Node9</title>
<g id="a_Node000009"><a xlink:href="dspi__dotprod__s16__ansi_8c.html" target="_top" xlink:title=" ">
<polygon fill="white" stroke="#666666" points="1036.25,-82 912.25,-82 912.25,-62 1036.25,-62 1036.25,-82"/>
<text xml:space="preserve" text-anchor="middle" x="974.25" y="-68.5" font-family="Helvetica,sans-Serif" font-size="10.00">dspi_dotprod_s16_ansi.c</text>
</a>
</g>
</g>
<!-- Node2&#45;&gt;Node9 -->
<g id="edge8_Node000002_Node000009" class="edge">
<title>Node2&#45;&gt;Node9</title>
<g id="a_edge8_Node000002_Node000009"><a xlink:title=" ">
<path fill="none" stroke="#63b8ff" d="M873.22,-118.92C898.06,-107.63 932.22,-92.1 953.77,-82.31"/>
<polygon fill="#63b8ff" stroke="#63b8ff" points="871.91,-115.67 864.25,-123 874.8,-122.05 871.91,-115.67"/>
</a>
</g>
</g>
<!-- Node10 -->
<g id="Node000010" class="node">
<title>Node10</title>
<g id="a_Node000010"><a xlink:href="dspi__dotprod__s8__ansi_8c.html" target="_top" xlink:title=" ">
<polygon fill="white" stroke="#666666" points="1172.62,-82 1053.88,-82 1053.88,-62 1172.62,-62 1172.62,-82"/>
<text xml:space="preserve" text-anchor="middle" x="1113.25" y="-68.5" font-family="Helvetica,sans-Serif" font-size="10.00">dspi_dotprod_s8_ansi.c</text>
</a>
</g>
</g>
<!-- Node2&#45;&gt;Node10 -->
<g id="edge9_Node000002_Node000010" class="edge">
<title>Node2&#45;&gt;Node10</title>
<g id="a_edge9_Node000002_Node000010"><a xlink:title=" ">
<path fill="none" stroke="#63b8ff" d="M893.67,-121.62C944.88,-110.28 1022.58,-93.07 1070.51,-82.46"/>
<polygon fill="#63b8ff" stroke="#63b8ff" points="893.01,-118.18 884.01,-123.75 894.53,-125.01 893.01,-118.18"/>
</a>
</g>
</g>
<!-- Node11 -->
<g id="Node000011" class="node">
<title>Node11</title>
<g id="a_Node000011"><a xlink:href="dspi__dotprod__u16__ansi_8c.html" target="_top" xlink:title=" ">
<polygon fill="white" stroke="#666666" points="1314.25,-82 1190.25,-82 1190.25,-62 1314.25,-62 1314.25,-82"/>
<text xml:space="preserve" text-anchor="middle" x="1252.25" y="-68.5" font-family="Helvetica,sans-Serif" font-size="10.00">dspi_dotprod_u16_ansi.c</text>
</a>
</g>
</g>
<!-- Node2&#45;&gt;Node11 -->
<g id="edge10_Node000002_Node000011" class="edge">
<title>Node2&#45;&gt;Node11</title>
<g id="a_edge10_Node000002_Node000011"><a xlink:title=" ">
<path fill="none" stroke="#63b8ff" d="M894,-127.37C960.65,-119.84 1079.96,-105.4 1181.25,-88 1190.56,-86.4 1200.51,-84.45 1209.93,-82.49"/>
<polygon fill="#63b8ff" stroke="#63b8ff" points="893.63,-123.89 884.09,-128.49 894.41,-130.85 893.63,-123.89"/>
</a>
</g>
</g>
<!-- Node12 -->
<g id="Node000012" class="node">
<title>Node12</title>
<g id="a_Node000012"><a xlink:href="dspi__dotprod__u8__ansi_8c.html" target="_top" xlink:title=" ">
<polygon fill="white" stroke="#666666" points="1450.62,-82 1331.88,-82 1331.88,-62 1450.62,-62 1450.62,-82"/>
<text xml:space="preserve" text-anchor="middle" x="1391.25" y="-68.5" font-family="Helvetica,sans-Serif" font-size="10.00">dspi_dotprod_u8_ansi.c</text>
</a>
</g>
</g>
<!-- Node2&#45;&gt;Node12 -->
<g id="edge11_Node000002_Node000012" class="edge">
<title>Node2&#45;&gt;Node12</title>
<g id="a_edge11_Node000002_Node000012"><a xlink:title=" ">
<path fill="none" stroke="#63b8ff" d="M893.65,-130.29C981.92,-125.16 1167.82,-112.32 1323.25,-88 1332.69,-86.52 1342.77,-84.53 1352.21,-82.48"/>
<polygon fill="#63b8ff" stroke="#63b8ff" points="893.66,-126.78 883.88,-130.84 894.06,-133.77 893.66,-126.78"/>
</a>
</g>
</g>
<!-- Node13 -->
<g id="Node000013" class="node">
<title>Node13</title>
<g id="a_Node000013"><a xlink:href="esp__dsp_8h.html" target="_top" xlink:title=" ">
<polygon fill="white" stroke="#666666" points="1529.75,-82 1468.75,-82 1468.75,-62 1529.75,-62 1529.75,-82"/>
<text xml:space="preserve" text-anchor="middle" x="1499.25" y="-68.5" font-family="Helvetica,sans-Serif" font-size="10.00">esp_dsp.h</text>
</a>
</g>
</g>
<!-- Node2&#45;&gt;Node13 -->
<g id="edge12_Node000002_Node000013" class="edge">
<title>Node2&#45;&gt;Node13</title>
<g id="a_edge12_Node000002_Node000013"><a xlink:title=" ">
<path fill="none" stroke="#63b8ff" d="M893.88,-131.13C1022,-126.19 1351.92,-111.53 1459.25,-88 1465.34,-86.67 1471.73,-84.59 1477.58,-82.41"/>
<polygon fill="#63b8ff" stroke="#63b8ff" points="893.85,-127.63 883.99,-131.51 894.12,-134.63 893.85,-127.63"/>
</a>
</g>
</g>
<!-- Node14 -->
<g id="Node000014" class="node">
<title>Node14</title>
<g id="a_Node000014"><a xlink:href="applications_2azure__board__apps_2apps_23d__graphics_2main_23d__graphics__demo_8cpp.html" target="_top" xlink:title=" ">
<polygon fill="white" stroke="#666666" points="116.5,-20 0,-20 0,0 116.5,0 116.5,-20"/>
<text xml:space="preserve" text-anchor="middle" x="58.25" y="-6.5" font-family="Helvetica,sans-Serif" font-size="10.00">3d_graphics_demo.cpp</text>
</a>
</g>
</g>
<!-- Node13&#45;&gt;Node14 -->
<g id="edge13_Node000013_Node000014" class="edge">
<title>Node13&#45;&gt;Node14</title>
<g id="a_edge13_Node000013_Node000014"><a xlink:title=" ">
<path fill="none" stroke="#63b8ff" d="M1467.27,-57.96C1464.59,-57.19 1461.89,-56.52 1459.25,-56 1168.42,0.8 421.65,-43.47 126.25,-20 123.16,-19.75 120,-19.47 116.81,-19.15"/>
<polygon fill="#63b8ff" stroke="#63b8ff" points="1466.01,-61.23 1476.61,-61.08 1468.23,-54.59 1466.01,-61.23"/>
</a>
</g>
</g>
<!-- Node15 -->
<g id="Node000015" class="node">
<title>Node15</title>
<g id="a_Node000015"><a xlink:href="applications_2m5stack__core__s3_2apps_23d__graphics_2main_23d__graphics__demo_8cpp.html" target="_top" xlink:title=" ">
<polygon fill="white" stroke="#666666" points="251.5,-20 135,-20 135,0 251.5,0 251.5,-20"/>
<text xml:space="preserve" text-anchor="middle" x="193.25" y="-6.5" font-family="Helvetica,sans-Serif" font-size="10.00">3d_graphics_demo.cpp</text>
</a>
</g>
</g>
<!-- Node13&#45;&gt;Node15 -->
<g id="edge14_Node000013_Node000015" class="edge">
<title>Node13&#45;&gt;Node15</title>
<g id="a_edge14_Node000013_Node000015"><a xlink:title=" ">
<path fill="none" stroke="#63b8ff" d="M1467.27,-57.97C1464.59,-57.19 1461.89,-56.52 1459.25,-56 1197.92,-4.55 526.72,-41.5 261.25,-20 258.16,-19.75 255,-19.46 251.82,-19.14"/>
<polygon fill="#63b8ff" stroke="#63b8ff" points="1466.01,-61.24 1476.6,-61.09 1468.23,-54.6 1466.01,-61.24"/>
</a>
</g>
</g>
<!-- Node16 -->
<g id="Node000016" class="node">
<title>Node16</title>
<g id="a_Node000016"><a xlink:href="external__examples_2b00f000e_2applications_2azure__board__apps_2apps_23d__graphics_2main_23d__graphics__demo_8cpp.html" target="_top" xlink:title=" ">
<polygon fill="white" stroke="#666666" points="386.5,-20 270,-20 270,0 386.5,0 386.5,-20"/>
<text xml:space="preserve" text-anchor="middle" x="328.25" y="-6.5" font-family="Helvetica,sans-Serif" font-size="10.00">3d_graphics_demo.cpp</text>
</a>
</g>
</g>
<!-- Node13&#45;&gt;Node16 -->
<g id="edge15_Node000013_Node000016" class="edge">
<title>Node13&#45;&gt;Node16</title>
<g id="a_edge15_Node000013_Node000016"><a xlink:title=" ">
<path fill="none" stroke="#63b8ff" d="M1467.26,-57.98C1464.58,-57.2 1461.89,-56.52 1459.25,-56 1227.43,-9.9 631.8,-39.53 396.25,-20 393.16,-19.74 390,-19.45 386.82,-19.12"/>
<polygon fill="#63b8ff" stroke="#63b8ff" points="1466.01,-61.25 1476.6,-61.11 1468.23,-54.61 1466.01,-61.25"/>
</a>
</g>
</g>
<!-- Node17 -->
<g id="Node000017" class="node">
<title>Node17</title>
<g id="a_Node000017"><a xlink:href="external__examples_2b00f000e_2applications_2m5stack__core__s3_2apps_23d__graphics_2main_23d__graphics__demo_8cpp.html" target="_top" xlink:title=" ">
<polygon fill="white" stroke="#666666" points="521.5,-20 405,-20 405,0 521.5,0 521.5,-20"/>
<text xml:space="preserve" text-anchor="middle" x="463.25" y="-6.5" font-family="Helvetica,sans-Serif" font-size="10.00">3d_graphics_demo.cpp</text>
</a>
</g>
</g>
<!-- Node13&#45;&gt;Node17 -->
<g id="edge16_Node000013_Node000017" class="edge">
<title>Node13&#45;&gt;Node17</title>
<g id="a_edge16_Node000013_Node000017"><a xlink:title=" ">
<path fill="none" stroke="#63b8ff" d="M1467.26,-57.99C1464.58,-57.21 1461.89,-56.53 1459.25,-56 1256.94,-15.25 736.88,-37.56 531.25,-20 528.17,-19.74 525.01,-19.43 521.82,-19.1"/>
<polygon fill="#63b8ff" stroke="#63b8ff" points="1466,-61.26 1476.6,-61.13 1468.23,-54.63 1466,-61.26"/>
</a>
</g>
</g>
<!-- Node18 -->
<g id="Node000018" class="node">
<title>Node18</title>
<g id="a_Node000018"><a xlink:href="external__examples_2d1468452_2apps_23d__graphics_2main_23d__graphics__demo_8cpp.html" target="_top" xlink:title=" ">
<polygon fill="white" stroke="#666666" points="656.5,-20 540,-20 540,0 656.5,0 656.5,-20"/>
<text xml:space="preserve" text-anchor="middle" x="598.25" y="-6.5" font-family="Helvetica,sans-Serif" font-size="10.00">3d_graphics_demo.cpp</text>
</a>
</g>
</g>
<!-- Node13&#45;&gt;Node18 -->
<g id="edge17_Node000013_Node000018" class="edge">
<title>Node13&#45;&gt;Node18</title>
<g id="a_edge17_Node000013_Node000018"><a xlink:title=" ">
<path fill="none" stroke="#63b8ff" d="M1467.26,-58.01C1464.58,-57.23 1461.89,-56.54 1459.25,-56 1113.62,14.81 1017.68,-51.17 666.25,-20 663.17,-19.73 660.01,-19.42 656.82,-19.08"/>
<polygon fill="#63b8ff" stroke="#63b8ff" points="1466,-61.28 1476.59,-61.15 1468.23,-54.65 1466,-61.28"/>
</a>
</g>
</g>
<!-- Node19 -->
<g id="Node000019" class="node">
<title>Node19</title>
<g id="a_Node000019"><a xlink:href="external__examples_2f9c2d4b3_2azure__board__apps_2apps_23d__graphics_2main_23d__graphics__demo_8cpp.html" target="_top" xlink:title=" ">
<polygon fill="white" stroke="#666666" points="791.5,-20 675,-20 675,0 791.5,0 791.5,-20"/>
<text xml:space="preserve" text-anchor="middle" x="733.25" y="-6.5" font-family="Helvetica,sans-Serif" font-size="10.00">3d_graphics_demo.cpp</text>
</a>
</g>
</g>
<!-- Node13&#45;&gt;Node19 -->
<g id="edge18_Node000013_Node000019" class="edge">
<title>Node13&#45;&gt;Node19</title>
<g id="a_edge18_Node000013_Node000019"><a xlink:title=" ">
<path fill="none" stroke="#63b8ff" d="M1466.77,-57.9C1464.25,-57.17 1461.73,-56.52 1459.25,-56 1172.17,4.19 1092.28,-47.55 800.25,-20 797.45,-19.74 794.58,-19.44 791.68,-19.13"/>
<polygon fill="#63b8ff" stroke="#63b8ff" points="1465.57,-61.19 1476.17,-61.04 1467.79,-54.55 1465.57,-61.19"/>
</a>
</g>
</g>
<!-- Node20 -->
<g id="Node000020" class="node">
<title>Node20</title>
<g id="a_Node000020"><a xlink:href="applications_2m5stack__core__s3_2apps_2kalman__filter_2main_23d__kalman__demo_8cpp.html" target="_top" xlink:title=" ">
<polygon fill="white" stroke="#666666" points="920.88,-20 809.62,-20 809.62,0 920.88,0 920.88,-20"/>
<text xml:space="preserve" text-anchor="middle" x="865.25" y="-6.5" font-family="Helvetica,sans-Serif" font-size="10.00">3d_kalman_demo.cpp</text>
</a>
</g>
</g>
<!-- Node13&#45;&gt;Node20 -->
<g id="edge19_Node000013_Node000020" class="edge">
<title>Node13&#45;&gt;Node20</title>
<g id="a_edge19_Node000013_Node000020"><a xlink:title=" ">
<path fill="none" stroke="#63b8ff" d="M1466.77,-57.94C1464.25,-57.2 1461.72,-56.54 1459.25,-56 1228.5,-6.02 1164.08,-44.45 929.25,-20 926.57,-19.72 923.83,-19.42 921.07,-19.09"/>
<polygon fill="#63b8ff" stroke="#63b8ff" points="1465.56,-61.22 1476.15,-61.09 1467.79,-54.59 1465.56,-61.22"/>
</a>
</g>
</g>
<!-- Node21 -->
<g id="Node000021" class="node">
<title>Node21</title>
<g id="a_Node000021"><a xlink:href="external__examples_2b00f000e_2applications_2m5stack__core__s3_2apps_2kalman__filter_2main_23d__kalman__demo_8cpp.html" target="_top" xlink:title=" ">
<polygon fill="white" stroke="#666666" points="1049.88,-20 938.62,-20 938.62,0 1049.88,0 1049.88,-20"/>
<text xml:space="preserve" text-anchor="middle" x="994.25" y="-6.5" font-family="Helvetica,sans-Serif" font-size="10.00">3d_kalman_demo.cpp</text>
</a>
</g>
</g>
<!-- Node13&#45;&gt;Node21 -->
<g id="edge20_Node000013_Node000021" class="edge">
<title>Node13&#45;&gt;Node21</title>
<g id="a_edge20_Node000013_Node000021"><a xlink:title=" ">
<path fill="none" stroke="#63b8ff" d="M1466.29,-57.86C1463.93,-57.16 1461.57,-56.53 1459.25,-56 1285.22,-16.3 1236.59,-40.25 1059.25,-20 1056.31,-19.66 1053.29,-19.3 1050.25,-18.93"/>
<polygon fill="#63b8ff" stroke="#63b8ff" points="1465.12,-61.16 1475.72,-61.02 1467.35,-54.52 1465.12,-61.16"/>
</a>
</g>
</g>
<!-- Node22 -->
<g id="Node000022" class="node">
<title>Node22</title>
<g id="a_Node000022"><a xlink:href="applications_2lyrat__board__app_2main_2audio__amp__main_8c.html" target="_top" xlink:title=" ">
<polygon fill="white" stroke="#666666" points="1166.12,-20 1068.38,-20 1068.38,0 1166.12,0 1166.12,-20"/>
<text xml:space="preserve" text-anchor="middle" x="1117.25" y="-6.5" font-family="Helvetica,sans-Serif" font-size="10.00">audio_amp_main.c</text>
</a>
</g>
</g>
<!-- Node13&#45;&gt;Node22 -->
<g id="edge21_Node000013_Node000022" class="edge">
<title>Node13&#45;&gt;Node22</title>
<g id="a_edge21_Node000013_Node000022"><a xlink:title=" ">
<path fill="none" stroke="#63b8ff" d="M1466.27,-57.96C1463.91,-57.23 1461.56,-56.57 1459.25,-56 1335.74,-25.46 1301.24,-37.76 1175.25,-20 1172.42,-19.6 1169.52,-19.18 1166.6,-18.75"/>
<polygon fill="#63b8ff" stroke="#63b8ff" points="1465.09,-61.25 1475.68,-61.17 1467.35,-54.63 1465.09,-61.25"/>
</a>
</g>
</g>
<!-- Node23 -->
<g id="Node000023" class="node">
<title>Node23</title>
<g id="a_Node000023"><a xlink:href="external__examples_21fa4e38f_2lyrat__board__app_2main_2audio__amp__main_8c.html" target="_top" xlink:title=" ">
<polygon fill="white" stroke="#666666" points="1282.12,-20 1184.38,-20 1184.38,0 1282.12,0 1282.12,-20"/>
<text xml:space="preserve" text-anchor="middle" x="1233.25" y="-6.5" font-family="Helvetica,sans-Serif" font-size="10.00">audio_amp_main.c</text>
</a>
</g>
</g>
<!-- Node13&#45;&gt;Node23 -->
<g id="edge22_Node000013_Node000023" class="edge">
<title>Node13&#45;&gt;Node23</title>
<g id="a_edge22_Node000013_Node000023"><a xlink:title=" ">
<path fill="none" stroke="#63b8ff" d="M1465.34,-57.86C1463.29,-57.19 1461.25,-56.57 1459.25,-56 1426.74,-46.73 1338.66,-30.09 1282.55,-19.85"/>
<polygon fill="#63b8ff" stroke="#63b8ff" points="1464.17,-61.16 1474.77,-61.13 1466.47,-54.54 1464.17,-61.16"/>
</a>
</g>
</g>
<!-- Node24 -->
<g id="Node000024" class="node">
<title>Node24</title>
<g id="a_Node000024"><a xlink:href="external__examples_2b00f000e_2applications_2lyrat__board__app_2main_2audio__amp__main_8c.html" target="_top" xlink:title=" ">
<polygon fill="white" stroke="#666666" points="1398.12,-20 1300.38,-20 1300.38,0 1398.12,0 1398.12,-20"/>
<text xml:space="preserve" text-anchor="middle" x="1349.25" y="-6.5" font-family="Helvetica,sans-Serif" font-size="10.00">audio_amp_main.c</text>
</a>
</g>
</g>
<!-- Node13&#45;&gt;Node24 -->
<g id="edge23_Node000013_Node000024" class="edge">
<title>Node13&#45;&gt;Node24</title>
<g id="a_edge23_Node000013_Node000024"><a xlink:title=" ">
<path fill="none" stroke="#63b8ff" d="M1465.19,-57.38C1436.88,-46.05 1397.34,-30.23 1372.52,-20.31"/>
<polygon fill="#63b8ff" stroke="#63b8ff" points="1463.82,-60.6 1474.41,-61.06 1466.42,-54.1 1463.82,-60.6"/>
</a>
</g>
</g>
<!-- Node25 -->
<g id="Node000025" class="node">
<title>Node25</title>
<g id="a_Node000025"><a xlink:href="dsp__tests_8h.html" target="_top" xlink:title=" ">
<polygon fill="#fff0f0" stroke="red" points="1482.75,-20 1415.75,-20 1415.75,0 1482.75,0 1482.75,-20"/>
<text xml:space="preserve" text-anchor="middle" x="1449.25" y="-6.5" font-family="Helvetica,sans-Serif" font-size="10.00">dsp_tests.h</text>
</a>
</g>
</g>
<!-- Node13&#45;&gt;Node25 -->
<g id="edge24_Node000013_Node000025" class="edge">
<title>Node13&#45;&gt;Node25</title>
<g id="a_edge24_Node000013_Node000025"><a xlink:title=" ">
<path fill="none" stroke="#63b8ff" d="M1484.19,-52.92C1475.16,-42.1 1464.07,-28.79 1456.84,-20.11"/>
<polygon fill="#63b8ff" stroke="#63b8ff" points="1481.38,-55.02 1490.47,-60.46 1486.76,-50.54 1481.38,-55.02"/>
</a>
</g>
</g>
<!-- Node32 -->
<g id="Node000032" class="node">
<title>Node32</title>
<g id="a_Node000032"><a xlink:href="applications_2azure__board__apps_2graphics_23d__matrix_23d__matrix__src_2graphics__support_8h.html" target="_top" xlink:title=" ">
<polygon fill="#fff0f0" stroke="red" points="1599.5,-20 1501,-20 1501,0 1599.5,0 1599.5,-20"/>
<text xml:space="preserve" text-anchor="middle" x="1550.25" y="-6.5" font-family="Helvetica,sans-Serif" font-size="10.00">graphics_support.h</text>
</a>
</g>
</g>
<!-- Node13&#45;&gt;Node32 -->
<g id="edge25_Node000013_Node000032" class="edge">
<title>Node13&#45;&gt;Node32</title>
<g id="a_edge25_Node000013_Node000032"><a xlink:title=" ">
<path fill="none" stroke="#63b8ff" d="M1514.61,-52.92C1523.82,-42.1 1535.13,-28.79 1542.5,-20.11"/>
<polygon fill="#63b8ff" stroke="#63b8ff" points="1512.01,-50.59 1508.2,-60.47 1517.34,-55.12 1512.01,-50.59"/>
</a>
</g>
</g>
<!-- Node34 -->
<g id="Node000034" class="node">
<title>Node34</title>
<g id="a_Node000034"><a xlink:href="external__examples_2b00f000e_2applications_2azure__board__apps_2graphics_23d__matrix_23d__matrix__src_2graphics__support_8h.html" target="_top" xlink:title=" ">
<polygon fill="#fff0f0" stroke="red" points="1716.5,-20 1618,-20 1618,0 1716.5,0 1716.5,-20"/>
<text xml:space="preserve" text-anchor="middle" x="1667.25" y="-6.5" font-family="Helvetica,sans-Serif" font-size="10.00">graphics_support.h</text>
</a>
</g>
</g>
<!-- Node13&#45;&gt;Node34 -->
<g id="edge26_Node000013_Node000034" class="edge">
<title>Node13&#45;&gt;Node34</title>
<g id="a_edge26_Node000013_Node000034"><a xlink:title=" ">
<path fill="none" stroke="#63b8ff" d="M1536.11,-57.84C1567.8,-46.52 1612.72,-30.47 1640.91,-20.41"/>
<polygon fill="#63b8ff" stroke="#63b8ff" points="1535.17,-54.46 1526.93,-61.12 1537.52,-61.05 1535.17,-54.46"/>
</a>
</g>
</g>
<!-- Node36 -->
<g id="Node000036" class="node">
<title>Node36</title>
<g id="a_Node000036"><a xlink:href="external__examples_2f9c2d4b3_2azure__board__apps_2graphics_23d__matrix_23d__matrix__src_2graphics__support_8h.html" target="_top" xlink:title=" ">
<polygon fill="#fff0f0" stroke="red" points="1833.5,-20 1735,-20 1735,0 1833.5,0 1833.5,-20"/>
<text xml:space="preserve" text-anchor="middle" x="1784.25" y="-6.5" font-family="Helvetica,sans-Serif" font-size="10.00">graphics_support.h</text>
</a>
</g>
</g>
<!-- Node13&#45;&gt;Node36 -->
<g id="edge27_Node000013_Node000036" class="edge">
<title>Node13&#45;&gt;Node36</title>
<g id="a_edge27_Node000013_Node000036"><a xlink:title=" ">
<path fill="none" stroke="#63b8ff" d="M1541.02,-62.21C1593.92,-51.07 1684.7,-31.96 1739.13,-20.5"/>
<polygon fill="#63b8ff" stroke="#63b8ff" points="1540.57,-58.73 1531.5,-64.21 1542.01,-65.57 1540.57,-58.73"/>
</a>
</g>
</g>
<!-- Node38 -->
<g id="Node000038" class="node">
<title>Node38</title>
<g id="a_Node000038"><a xlink:href="applications_2m5stack__core__s3_2apps_23d__graphics_2main_2init__display_8c.html" target="_top" xlink:title=" ">
<polygon fill="white" stroke="#666666" points="1923.38,-20 1851.12,-20 1851.12,0 1923.38,0 1923.38,-20"/>
<text xml:space="preserve" text-anchor="middle" x="1887.25" y="-6.5" font-family="Helvetica,sans-Serif" font-size="10.00">init_display.c</text>
</a>
</g>
</g>
<!-- Node13&#45;&gt;Node38 -->
<g id="edge28_Node000013_Node000038" class="edge">
<title>Node13&#45;&gt;Node38</title>
<g id="a_edge28_Node000013_Node000038"><a xlink:title=" ">
<path fill="none" stroke="#63b8ff" d="M1541.43,-65.42C1606.25,-56.68 1734.21,-38.82 1842.25,-20 1845.08,-19.51 1848,-18.98 1850.93,-18.43"/>
<polygon fill="#63b8ff" stroke="#63b8ff" points="1541.02,-61.94 1531.58,-66.74 1541.96,-68.88 1541.02,-61.94"/>
</a>
</g>
</g>
<!-- Node39 -->
<g id="Node000039" class="node">
<title>Node39</title>
<g id="a_Node000039"><a xlink:href="external__examples_2b00f000e_2applications_2m5stack__core__s3_2apps_23d__graphics_2main_2init__display_8c.html" target="_top" xlink:title=" ">
<polygon fill="white" stroke="#666666" points="2013.38,-20 1941.12,-20 1941.12,0 2013.38,0 2013.38,-20"/>
<text xml:space="preserve" text-anchor="middle" x="1977.25" y="-6.5" font-family="Helvetica,sans-Serif" font-size="10.00">init_display.c</text>
</a>
</g>
</g>
<!-- Node13&#45;&gt;Node39 -->
<g id="edge29_Node000013_Node000039" class="edge">
<title>Node13&#45;&gt;Node39</title>
<g id="a_edge29_Node000013_Node000039"><a xlink:title=" ">
<path fill="none" stroke="#63b8ff" d="M1541.27,-67.18C1618.8,-59.88 1789.5,-42.64 1932.25,-20 1935.08,-19.55 1938.01,-19.05 1940.95,-18.52"/>
<polygon fill="#63b8ff" stroke="#63b8ff" points="1541.22,-63.67 1531.59,-68.08 1541.87,-70.64 1541.22,-63.67"/>
</a>
</g>
</g>
<!-- Node40 -->
<g id="Node000040" class="node">
<title>Node40</title>
<g id="a_Node000040"><a xlink:href="applications_2azure__board__apps_2apps_2kalman__filter_2main_2kalman__filter__demo_8cpp.html" target="_top" xlink:title=" ">
<polygon fill="white" stroke="#666666" points="2151,-20 2031.5,-20 2031.5,0 2151,0 2151,-20"/>
<text xml:space="preserve" text-anchor="middle" x="2091.25" y="-6.5" font-family="Helvetica,sans-Serif" font-size="10.00">kalman_filter_demo.cpp</text>
</a>
</g>
</g>
<!-- Node13&#45;&gt;Node40 -->
<g id="edge30_Node000013_Node000040" class="edge">
<title>Node13&#45;&gt;Node40</title>
<g id="a_edge30_Node000013_Node000040"><a xlink:title=" ">
<path fill="none" stroke="#63b8ff" d="M1541.45,-67.35C1630.43,-59.56 1843.77,-40.34 2022.25,-20 2025.13,-19.67 2028.08,-19.33 2031.05,-18.97"/>
<polygon fill="#63b8ff" stroke="#63b8ff" points="1541.4,-63.84 1531.74,-68.2 1542.01,-70.82 1541.4,-63.84"/>
</a>
</g>
</g>
<!-- Node41 -->
<g id="Node000041" class="node">
<title>Node41</title>
<g id="a_Node000041"><a xlink:href="external__examples_2b00f000e_2applications_2azure__board__apps_2apps_2kalman__filter_2main_2kalman__filter__demo_8cpp.html" target="_top" xlink:title=" ">
<polygon fill="white" stroke="#666666" points="2289,-20 2169.5,-20 2169.5,0 2289,0 2289,-20"/>
<text xml:space="preserve" text-anchor="middle" x="2229.25" y="-6.5" font-family="Helvetica,sans-Serif" font-size="10.00">kalman_filter_demo.cpp</text>
</a>
</g>
</g>
<!-- Node13&#45;&gt;Node41 -->
<g id="edge31_Node000013_Node000041" class="edge">
<title>Node13&#45;&gt;Node41</title>
<g id="a_edge31_Node000013_Node000041"><a xlink:title=" ">
<path fill="none" stroke="#63b8ff" d="M1541.25,-68.53C1645.93,-62.21 1926.83,-44.21 2160.25,-20 2163.13,-19.7 2166.08,-19.38 2169.06,-19.04"/>
<polygon fill="#63b8ff" stroke="#63b8ff" points="1541.22,-65.03 1531.45,-69.12 1541.64,-72.01 1541.22,-65.03"/>
</a>
</g>
</g>
<!-- Node42 -->
<g id="Node000042" class="node">
<title>Node42</title>
<g id="a_Node000042"><a xlink:href="external__examples_2d1468452_2apps_2kalman__filter_2main_2kalman__filter__demo_8cpp.html" target="_top" xlink:title=" ">
<polygon fill="white" stroke="#666666" points="2427,-20 2307.5,-20 2307.5,0 2427,0 2427,-20"/>
<text xml:space="preserve" text-anchor="middle" x="2367.25" y="-6.5" font-family="Helvetica,sans-Serif" font-size="10.00">kalman_filter_demo.cpp</text>
</a>
</g>
</g>
<!-- Node13&#45;&gt;Node42 -->
<g id="edge32_Node000013_Node000042" class="edge">
<title>Node13&#45;&gt;Node42</title>
<g id="a_edge32_Node000013_Node000042"><a xlink:title=" ">
<path fill="none" stroke="#63b8ff" d="M1541.62,-69.28C1660.91,-64.23 2009.68,-48 2298.25,-20 2301.14,-19.72 2304.09,-19.41 2307.07,-19.09"/>
<polygon fill="#63b8ff" stroke="#63b8ff" points="1541.51,-65.78 1531.67,-69.7 1541.81,-72.78 1541.51,-65.78"/>
</a>
</g>
</g>
<!-- Node43 -->
<g id="Node000043" class="node">
<title>Node43</title>
<g id="a_Node000043"><a xlink:href="external__examples_2f9c2d4b3_2azure__board__apps_2apps_2kalman__filter_2main_2kalman__filter__demo_8cpp.html" target="_top" xlink:title=" ">
<polygon fill="white" stroke="#666666" points="2565,-20 2445.5,-20 2445.5,0 2565,0 2565,-20"/>
<text xml:space="preserve" text-anchor="middle" x="2505.25" y="-6.5" font-family="Helvetica,sans-Serif" font-size="10.00">kalman_filter_demo.cpp</text>
</a>
</g>
</g>
<!-- Node13&#45;&gt;Node43 -->
<g id="edge33_Node000013_Node000043" class="edge">
<title>Node13&#45;&gt;Node43</title>
<g id="a_edge33_Node000013_Node000043"><a xlink:title=" ">
<path fill="none" stroke="#63b8ff" d="M1541.2,-69.84C1673.15,-65.96 2091.39,-51.83 2436.25,-20 2439.14,-19.73 2442.09,-19.44 2445.07,-19.12"/>
<polygon fill="#63b8ff" stroke="#63b8ff" points="1541.45,-66.33 1531.56,-70.12 1541.66,-73.33 1541.45,-66.33"/>
</a>
</g>
</g>
<!-- Node44 -->
<g id="Node000044" class="node">
<title>Node44</title>
<g id="a_Node000044"><a xlink:href="main_2main_8c.html" target="_top" xlink:title=" ">
<polygon fill="white" stroke="#666666" points="2627.88,-20 2582.62,-20 2582.62,0 2627.88,0 2627.88,-20"/>
<text xml:space="preserve" text-anchor="middle" x="2605.25" y="-6.5" font-family="Helvetica,sans-Serif" font-size="10.00">main.c</text>
</a>
</g>
</g>
<!-- Node13&#45;&gt;Node44 -->
<g id="edge34_Node000013_Node000044" class="edge">
<title>Node13&#45;&gt;Node44</title>
<g id="a_edge34_Node000013_Node000044"><a xlink:title=" ">
<path fill="none" stroke="#63b8ff" d="M1541.62,-70.32C1714.91,-67.33 2370.2,-53.97 2574.25,-20 2576.9,-19.56 2579.65,-18.97 2582.37,-18.29"/>
<polygon fill="#63b8ff" stroke="#63b8ff" points="1541.67,-66.82 1531.73,-70.49 1541.79,-73.82 1541.67,-66.82"/>
</a>
</g>
</g>
<!-- Node45 -->
<g id="Node000045" class="node">
<title>Node45</title>
<g id="a_Node000045"><a xlink:href="components_2espressif____esp-dsp_2applications_2spectrum__box__lite_2main_2main_8c.html" target="_top" xlink:title=" ">
<polygon fill="white" stroke="#666666" points="2690.88,-20 2645.62,-20 2645.62,0 2690.88,0 2690.88,-20"/>
<text xml:space="preserve" text-anchor="middle" x="2668.25" y="-6.5" font-family="Helvetica,sans-Serif" font-size="10.00">main.c</text>
</a>
</g>
</g>
<!-- Node13&#45;&gt;Node45 -->
<g id="edge35_Node000013_Node000045" class="edge">
<title>Node13&#45;&gt;Node45</title>
<g id="a_edge35_Node000013_Node000045"><a xlink:title=" ">
<path fill="none" stroke="#63b8ff" d="M1541.46,-70.45C1720.78,-67.91 2420.17,-55.85 2637.25,-20 2639.9,-19.56 2642.65,-18.97 2645.37,-18.3"/>
<polygon fill="#63b8ff" stroke="#63b8ff" points="1541.63,-66.95 1531.68,-70.59 1541.73,-73.95 1541.63,-66.95"/>
</a>
</g>
</g>
<!-- Node46 -->
<g id="Node000046" class="node">
<title>Node46</title>
<g id="a_Node000046"><a xlink:href="components_2espressif____esp-dsp_2external__examples_2b00f000e_2applications_2spectrum__box__lite_2main_2main_8c.html" target="_top" xlink:title=" ">
<polygon fill="white" stroke="#666666" points="2753.88,-20 2708.62,-20 2708.62,0 2753.88,0 2753.88,-20"/>
<text xml:space="preserve" text-anchor="middle" x="2731.25" y="-6.5" font-family="Helvetica,sans-Serif" font-size="10.00">main.c</text>
</a>
</g>
</g>
<!-- Node13&#45;&gt;Node46 -->
<g id="edge36_Node000013_Node000046" class="edge">
<title>Node13&#45;&gt;Node46</title>
<g id="a_edge36_Node000013_Node000046"><a xlink:title=" ">
<path fill="none" stroke="#63b8ff" d="M1541.66,-70.56C1727.42,-68.44 2470.26,-57.7 2700.25,-20 2702.9,-19.56 2705.65,-18.98 2708.37,-18.31"/>
<polygon fill="#63b8ff" stroke="#63b8ff" points="1541.72,-67.06 1531.75,-70.67 1541.79,-74.06 1541.72,-67.06"/>
</a>
</g>
</g>
</g>
</svg>

<g id="navigator" transform="translate(0 0)" fill="#404254">
  <rect fill="#f2f5e9" fill-opacity="0.5" stroke="#606060" stroke-width=".5" x="0" y="0" width="60" height="60"/>
  <use id="zoomplus" xlink:href="#zoomPlus" x="17" y="9" onmousedown="handleZoom(evt,'in')"/>
  <use id="zoomminus" xlink:href="#zoomMin" x="42" y="9" onmousedown="handleZoom(evt,'out')"/>
  <use id="reset" xlink:href="#resetDef" x="30" y="36" onmousedown="handleReset()"/>
   <use id="arrowup" xlink:href="#arrowUp" x="0" y="0" onmousedown="handlePan(0,-1)"/>
  <use id="arrowright" xlink:href="#arrowRight" x="0" y="0" onmousedown="handlePan(1,0)"/>
  <use id="arrowdown" xlink:href="#arrowDown" x="0" y="0" onmousedown="handlePan(0,1)"/>
  <use id="arrowleft" xlink:href="#arrowLeft" x="0" y="0" onmousedown="handlePan(-1,0)"/>
</g>
<svg viewBox="0 0 15 15" width="100%" height="30px" preserveAspectRatio="xMaxYMin meet">
 <g id="arrow_out" transform="scale(0.3 0.3)">
  <a xlink:href="dspi__dotprod__platform_8h__dep__incl_org.svg" target="_base">
   <rect id="button" ry="5" rx="5" y="6" x="6" height="38" width="38"
        fill="#f2f5e9" fill-opacity="0.5" stroke="#606060" stroke-width="1.0"/>
   <path id="arrow"
     d="M 11.500037,31.436501 C 11.940474,20.09759 22.043105,11.32322 32.158766,21.979434 L 37.068811,17.246167 C 37.068811,17.246167 37.088388,32 37.088388,32 L 22.160133,31.978069 C 22.160133,31.978069 26.997745,27.140456 26.997745,27.140456 C 18.528582,18.264221 13.291696,25.230495 11.500037,31.436501 z"
     style="fill:#404040;"/>
  </a>
 </g>
</svg>

<style type='text/css'>
<![CDATA[
[data-mouse-over-selected='false'] { opacity: 0.7; }
[data-mouse-over-selected='true']  { opacity: 1.0; }
]]>
</style>
<script type="application/ecmascript"><![CDATA[
document.addEventListener('DOMContentLoaded', (event) => {
  highlightEdges();
  highlightAdjacentNodes();
});
]]></script>
</svg>
