<?xml version="1.0" encoding="UTF-8" standalone="no"?>
<!DOCTYPE svg PUBLIC "-//W3C//DTD SVG 1.1//EN"
 "http://www.w3.org/Graphics/SVG/1.1/DTD/svg11.dtd">
<!-- Generated by graphviz version 14.1.2 (20260124.0452)
 -->
<!-- Title: dspi_conv_f32_ansi.c Pages: 1 -->
<svg width="495pt" height="252pt"
 viewBox="0.00 0.00 495.00 252.00" xmlns="http://www.w3.org/2000/svg" xmlns:xlink="http://www.w3.org/1999/xlink">
<g id="graph0" class="graph" transform="scale(1 1) rotate(0) translate(4 248)">
<title>dspi_conv_f32_ansi.c</title>
<!-- Node1 -->
<g id="Node000001" class="node">
<title>Node1</title>
<g id="a_Node000001"><a xlink:title=" ">
<polygon fill="#999999" stroke="#666666" points="380.38,-244 269.88,-244 269.88,-224 380.38,-224 380.38,-244"/>
<text xml:space="preserve" text-anchor="middle" x="325.12" y="-230.5" font-family="Helvetica,sans-Serif" font-size="10.00">dspi_conv_f32_ansi.c</text>
</a>
</g>
</g>
<!-- Node2 -->
<g id="Node000002" class="node">
<title>Node2</title>
<g id="a_Node000002"><a xlink:href="dspi__conv_8h.html" target="_top" xlink:title=" ">
<polygon fill="white" stroke="#666666" points="319,-188 251.25,-188 251.25,-168 319,-168 319,-188"/>
<text xml:space="preserve" text-anchor="middle" x="285.12" y="-174.5" font-family="Helvetica,sans-Serif" font-size="10.00">dspi_conv.h</text>
</a>
</g>
</g>
<!-- Node1&#45;&gt;Node2 -->
<g id="edge1_Node000001_Node000002" class="edge">
<title>Node1&#45;&gt;Node2</title>
<g id="a_edge1_Node000001_Node000002"><a xlink:title=" ">
<path fill="none" stroke="#63b8ff" d="M318.16,-223.59C312.82,-216.39 305.3,-206.23 298.78,-197.43"/>
<polygon fill="#63b8ff" stroke="#63b8ff" points="301.68,-195.47 292.91,-189.51 296.05,-199.63 301.68,-195.47"/>
</a>
</g>
</g>
<!-- Node13 -->
<g id="Node000013" class="node">
<title>Node13</title>
<g id="a_Node000013"><a xlink:href="esp__log_8h.html" target="_top" xlink:title=" ">
<polygon fill="white" stroke="#666666" points="467.12,-188 409.12,-188 409.12,-168 467.12,-168 467.12,-188"/>
<text xml:space="preserve" text-anchor="middle" x="438.12" y="-174.5" font-family="Helvetica,sans-Serif" font-size="10.00">esp_log.h</text>
</a>
</g>
</g>
<!-- Node1&#45;&gt;Node13 -->
<g id="edge13_Node000001_Node000013" class="edge">
<title>Node1&#45;&gt;Node13</title>
<g id="a_edge13_Node000001_Node000013"><a xlink:title=" ">
<path fill="none" stroke="#63b8ff" d="M344.81,-223.59C362.28,-215.24 388.08,-202.92 408.12,-193.34"/>
<polygon fill="#63b8ff" stroke="#63b8ff" points="409.41,-196.6 416.92,-189.13 406.39,-190.29 409.41,-196.6"/>
</a>
</g>
</g>
<!-- Node3 -->
<g id="Node000003" class="node">
<title>Node3</title>
<g id="a_Node000003"><a xlink:href="dsp__err_8h.html" target="_top" xlink:title=" ">
<polygon fill="white" stroke="#666666" points="335.38,-132 278.88,-132 278.88,-112 335.38,-112 335.38,-132"/>
<text xml:space="preserve" text-anchor="middle" x="307.12" y="-118.5" font-family="Helvetica,sans-Serif" font-size="10.00">dsp_err.h</text>
</a>
</g>
</g>
<!-- Node2&#45;&gt;Node3 -->
<g id="edge2_Node000002_Node000003" class="edge">
<title>Node2&#45;&gt;Node3</title>
<g id="a_edge2_Node000002_Node000003"><a xlink:title=" ">
<path fill="none" stroke="#63b8ff" d="M288.96,-167.59C291.73,-160.78 295.59,-151.32 299.03,-142.86"/>
<polygon fill="#63b8ff" stroke="#63b8ff" points="302.23,-144.28 302.77,-133.7 295.75,-141.64 302.23,-144.28"/>
</a>
</g>
</g>
<!-- Node8 -->
<g id="Node000008" class="node">
<title>Node8</title>
<g id="a_Node000008"><a xlink:href="dsps__conv__platform_8h.html" target="_top" xlink:title=" ">
<polygon fill="white" stroke="#666666" points="131.12,-132 19.13,-132 19.13,-112 131.12,-112 131.12,-132"/>
<text xml:space="preserve" text-anchor="middle" x="75.12" y="-118.5" font-family="Helvetica,sans-Serif" font-size="10.00">dsps_conv_platform.h</text>
</a>
</g>
</g>
<!-- Node2&#45;&gt;Node8 -->
<g id="edge7_Node000002_Node000008" class="edge">
<title>Node2&#45;&gt;Node8</title>
<g id="a_edge7_Node000002_Node000008"><a xlink:title=" ">
<path fill="none" stroke="#63b8ff" d="M250.92,-168.2C216.12,-159.25 161.89,-145.31 122.87,-135.28"/>
<polygon fill="#63b8ff" stroke="#63b8ff" points="123.81,-131.91 113.26,-132.8 122.07,-138.69 123.81,-131.91"/>
</a>
</g>
</g>
<!-- Node10 -->
<g id="Node000010" class="node">
<title>Node10</title>
<g id="a_Node000010"><a xlink:href="dsp__types_8h.html" target="_top" xlink:title=" ">
<polygon fill="white" stroke="#666666" points="240.75,-132 171.5,-132 171.5,-112 240.75,-112 240.75,-132"/>
<text xml:space="preserve" text-anchor="middle" x="206.12" y="-118.5" font-family="Helvetica,sans-Serif" font-size="10.00">dsp_types.h</text>
</a>
</g>
</g>
<!-- Node2&#45;&gt;Node10 -->
<g id="edge9_Node000002_Node000010" class="edge">
<title>Node2&#45;&gt;Node10</title>
<g id="a_edge9_Node000002_Node000010"><a xlink:title=" ">
<path fill="none" stroke="#63b8ff" d="M271.36,-167.59C259.77,-159.67 242.93,-148.16 229.26,-138.82"/>
<polygon fill="#63b8ff" stroke="#63b8ff" points="231.47,-136.09 221.24,-133.33 227.52,-141.87 231.47,-136.09"/>
</a>
</g>
</g>
<!-- Node4 -->
<g id="Node000004" class="node">
<title>Node4</title>
<g id="a_Node000004"><a xlink:title=" ">
<polygon fill="#e0e0e0" stroke="#999999" points="283.25,-76 235,-76 235,-56 283.25,-56 283.25,-76"/>
<text xml:space="preserve" text-anchor="middle" x="259.12" y="-62.5" font-family="Helvetica,sans-Serif" font-size="10.00">stdint.h</text>
</a>
</g>
</g>
<!-- Node3&#45;&gt;Node4 -->
<g id="edge3_Node000003_Node000004" class="edge">
<title>Node3&#45;&gt;Node4</title>
<g id="a_edge3_Node000003_Node000004"><a xlink:title=" ">
<path fill="none" stroke="#63b8ff" d="M298.76,-111.59C292.23,-104.24 282.94,-93.8 275.01,-84.87"/>
<polygon fill="#63b8ff" stroke="#63b8ff" points="277.66,-82.58 268.4,-77.43 272.42,-87.23 277.66,-82.58"/>
</a>
</g>
</g>
<!-- Node5 -->
<g id="Node000005" class="node">
<title>Node5</title>
<g id="a_Node000005"><a xlink:href="esp__err_8h.html" target="_top" xlink:title=" ">
<polygon fill="white" stroke="#666666" points="463.38,-76 406.88,-76 406.88,-56 463.38,-56 463.38,-76"/>
<text xml:space="preserve" text-anchor="middle" x="435.12" y="-62.5" font-family="Helvetica,sans-Serif" font-size="10.00">esp_err.h</text>
</a>
</g>
</g>
<!-- Node3&#45;&gt;Node5 -->
<g id="edge4_Node000003_Node000005" class="edge">
<title>Node3&#45;&gt;Node5</title>
<g id="a_edge4_Node000003_Node000005"><a xlink:title=" ">
<path fill="none" stroke="#63b8ff" d="M329.42,-111.59C349.49,-103.13 379.24,-90.58 402.08,-80.94"/>
<polygon fill="#63b8ff" stroke="#63b8ff" points="403.41,-84.18 411.26,-77.07 400.69,-77.73 403.41,-84.18"/>
</a>
</g>
</g>
<!-- Node7 -->
<g id="Node000007" class="node">
<title>Node7</title>
<g id="a_Node000007"><a xlink:href="dsp__err__codes_8h.html" target="_top" xlink:title=" ">
<polygon fill="white" stroke="#666666" points="389.12,-76 301.12,-76 301.12,-56 389.12,-56 389.12,-76"/>
<text xml:space="preserve" text-anchor="middle" x="345.12" y="-62.5" font-family="Helvetica,sans-Serif" font-size="10.00">dsp_err_codes.h</text>
</a>
</g>
</g>
<!-- Node3&#45;&gt;Node7 -->
<g id="edge6_Node000003_Node000007" class="edge">
<title>Node3&#45;&gt;Node7</title>
<g id="a_edge6_Node000003_Node000007"><a xlink:title=" ">
<path fill="none" stroke="#63b8ff" d="M313.74,-111.59C318.81,-104.39 325.96,-94.23 332.15,-85.43"/>
<polygon fill="#63b8ff" stroke="#63b8ff" points="334.82,-87.73 337.71,-77.54 329.09,-83.7 334.82,-87.73"/>
</a>
</g>
</g>
<!-- Node6 -->
<g id="Node000006" class="node">
<title>Node6</title>
<g id="a_Node000006"><a xlink:title=" ">
<polygon fill="#e0e0e0" stroke="#999999" points="486.88,-20 439.38,-20 439.38,0 486.88,0 486.88,-20"/>
<text xml:space="preserve" text-anchor="middle" x="463.12" y="-6.5" font-family="Helvetica,sans-Serif" font-size="10.00">stdlib.h</text>
</a>
</g>
</g>
<!-- Node5&#45;&gt;Node6 -->
<g id="edge5_Node000005_Node000006" class="edge">
<title>Node5&#45;&gt;Node6</title>
<g id="a_edge5_Node000005_Node000006"><a xlink:title=" ">
<path fill="none" stroke="#63b8ff" d="M440,-55.59C443.62,-48.63 448.67,-38.89 453.12,-30.29"/>
<polygon fill="#63b8ff" stroke="#63b8ff" points="456.11,-32.13 457.61,-21.64 449.9,-28.91 456.11,-32.13"/>
</a>
</g>
</g>
<!-- Node9 -->
<g id="Node000009" class="node">
<title>Node9</title>
<g id="a_Node000009"><a xlink:title=" ">
<polygon fill="#e0e0e0" stroke="#999999" points="66.25,-76 0,-76 0,-56 66.25,-56 66.25,-76"/>
<text xml:space="preserve" text-anchor="middle" x="33.12" y="-62.5" font-family="Helvetica,sans-Serif" font-size="10.00">sdkconfig.h</text>
</a>
</g>
</g>
<!-- Node8&#45;&gt;Node9 -->
<g id="edge8_Node000008_Node000009" class="edge">
<title>Node8&#45;&gt;Node9</title>
<g id="a_edge8_Node000008_Node000009"><a xlink:title=" ">
<path fill="none" stroke="#63b8ff" d="M67.81,-111.59C62.15,-104.32 54.14,-94.02 47.24,-85.15"/>
<polygon fill="#63b8ff" stroke="#63b8ff" points="50.19,-83.24 41.29,-77.49 44.66,-87.54 50.19,-83.24"/>
</a>
</g>
</g>
<!-- Node10&#45;&gt;Node4 -->
<g id="edge10_Node000010_Node000004" class="edge">
<title>Node10&#45;&gt;Node4</title>
<g id="a_edge10_Node000010_Node000004"><a xlink:title=" ">
<path fill="none" stroke="#63b8ff" d="M215.36,-111.59C222.73,-104.08 233.26,-93.35 242.14,-84.3"/>
<polygon fill="#63b8ff" stroke="#63b8ff" points="244.43,-86.97 248.94,-77.38 239.44,-82.06 244.43,-86.97"/>
</a>
</g>
</g>
<!-- Node11 -->
<g id="Node000011" class="node">
<title>Node11</title>
<g id="a_Node000011"><a xlink:title=" ">
<polygon fill="#e0e0e0" stroke="#999999" points="140,-76 84.25,-76 84.25,-56 140,-56 140,-76"/>
<text xml:space="preserve" text-anchor="middle" x="112.12" y="-62.5" font-family="Helvetica,sans-Serif" font-size="10.00">stdbool.h</text>
</a>
</g>
</g>
<!-- Node10&#45;&gt;Node11 -->
<g id="edge11_Node000010_Node000011" class="edge">
<title>Node10&#45;&gt;Node11</title>
<g id="a_edge11_Node000010_Node000011"><a xlink:title=" ">
<path fill="none" stroke="#63b8ff" d="M189.75,-111.59C175.55,-103.44 154.74,-91.48 138.24,-82"/>
<polygon fill="#63b8ff" stroke="#63b8ff" points="140.35,-79.18 129.94,-77.23 136.87,-85.25 140.35,-79.18"/>
</a>
</g>
</g>
<!-- Node12 -->
<g id="Node000012" class="node">
<title>Node12</title>
<g id="a_Node000012"><a xlink:title=" ">
<polygon fill="#e0e0e0" stroke="#999999" points="216.5,-76 157.75,-76 157.75,-56 216.5,-56 216.5,-76"/>
<text xml:space="preserve" text-anchor="middle" x="187.12" y="-62.5" font-family="Helvetica,sans-Serif" font-size="10.00">inttypes.h</text>
</a>
</g>
</g>
<!-- Node10&#45;&gt;Node12 -->
<g id="edge12_Node000010_Node000012" class="edge">
<title>Node10&#45;&gt;Node12</title>
<g id="a_edge12_Node000010_Node000012"><a xlink:title=" ">
<path fill="none" stroke="#63b8ff" d="M202.82,-111.59C200.45,-104.86 197.16,-95.53 194.22,-87.15"/>
<polygon fill="#63b8ff" stroke="#63b8ff" points="197.52,-86 190.9,-77.73 190.92,-88.32 197.52,-86"/>
</a>
</g>
</g>
<!-- Node13&#45;&gt;Node6 -->
<g id="edge14_Node000013_Node000006" class="edge">
<title>Node13&#45;&gt;Node6</title>
<g id="a_edge14_Node000013_Node000006"><a xlink:title=" ">
<path fill="none" stroke="#63b8ff" d="M443.23,-167.8C453.72,-147.86 476.38,-98.99 472.12,-56 471.32,-47.88 469.72,-39.05 468.09,-31.38"/>
<polygon fill="#63b8ff" stroke="#63b8ff" points="471.51,-30.67 465.87,-21.7 464.69,-32.23 471.51,-30.67"/>
</a>
</g>
</g>
</g>
</svg>
