<?xml version="1.0" encoding="UTF-8" standalone="no"?>
<!DOCTYPE svg PUBLIC "-//W3C//DTD SVG 1.1//EN"
 "http://www.w3.org/Graphics/SVG/1.1/DTD/svg11.dtd">
<!-- Generated by graphviz version 14.1.2 (20260124.0452)
 -->
<!-- Title: dspi_dotprod.h Pages: 1 -->
<svg width="2762pt" height="208pt"
 viewBox="0.00 0.00 2762.00 208.00" xmlns="http://www.w3.org/2000/svg" xmlns:xlink="http://www.w3.org/1999/xlink">
<g id="graph0" class="graph" transform="scale(1 1) rotate(0) translate(4 204)">
<title>dspi_dotprod.h</title>
<!-- Node1 -->
<g id="Node000001" class="node">
<title>Node1</title>
<g id="a_Node000001"><a xlink:title=" ">
<polygon fill="#999999" stroke="#666666" points="882.12,-200 802.38,-200 802.38,-180 882.12,-180 882.12,-200"/>
<text xml:space="preserve" text-anchor="middle" x="842.25" y="-186.5" font-family="Helvetica,sans-Serif" font-size="10.00">dspi_dotprod.h</text>
</a>
</g>
</g>
<!-- Node2 -->
<g id="Node000002" class="node">
<title>Node2</title>
<g id="a_Node000002"><a xlink:href="dspi__dotprod__f32__ansi_8c.html" target="_top" xlink:title=" ">
<polygon fill="white" stroke="#666666" points="274.12,-138 152.38,-138 152.38,-118 274.12,-118 274.12,-138"/>
<text xml:space="preserve" text-anchor="middle" x="213.25" y="-124.5" font-family="Helvetica,sans-Serif" font-size="10.00">dspi_dotprod_f32_ansi.c</text>
</a>
</g>
</g>
<!-- Node1&#45;&gt;Node2 -->
<g id="edge1_Node000001_Node000002" class="edge">
<title>Node1&#45;&gt;Node2</title>
<g id="a_edge1_Node000001_Node000002"><a xlink:title=" ">
<path fill="none" stroke="#63b8ff" d="M790.62,-187.1C691.71,-182.97 468.85,-171.24 283.25,-144 273.41,-142.56 262.89,-140.55 253.07,-138.47"/>
<polygon fill="#63b8ff" stroke="#63b8ff" points="790.41,-190.6 800.54,-187.51 790.69,-183.6 790.41,-190.6"/>
</a>
</g>
</g>
<!-- Node3 -->
<g id="Node000003" class="node">
<title>Node3</title>
<g id="a_Node000003"><a xlink:href="dspi__dotprod__off__f32__ansi_8c.html" target="_top" xlink:title=" ">
<polygon fill="white" stroke="#666666" points="398.25,-144 292.25,-144 292.25,-112 398.25,-112 398.25,-144"/>
<text xml:space="preserve" text-anchor="start" x="300.25" y="-130.5" font-family="Helvetica,sans-Serif" font-size="10.00">dspi_dotprod_off_f32</text>
<text xml:space="preserve" text-anchor="middle" x="345.25" y="-118.5" font-family="Helvetica,sans-Serif" font-size="10.00">_ansi.c</text>
</a>
</g>
</g>
<!-- Node1&#45;&gt;Node3 -->
<g id="edge2_Node000001_Node000003" class="edge">
<title>Node1&#45;&gt;Node3</title>
<g id="a_edge2_Node000001_Node000003"><a xlink:title=" ">
<path fill="none" stroke="#63b8ff" d="M790.67,-185.91C708.91,-180.52 544.72,-167.63 407.25,-144 404.41,-143.51 401.51,-142.97 398.59,-142.39"/>
<polygon fill="#63b8ff" stroke="#63b8ff" points="790.41,-189.4 800.61,-186.56 790.86,-182.42 790.41,-189.4"/>
</a>
</g>
</g>
<!-- Node4 -->
<g id="Node000004" class="node">
<title>Node4</title>
<g id="a_Node000004"><a xlink:href="dspi__dotprod__off__s16__ansi_8c.html" target="_top" xlink:title=" ">
<polygon fill="white" stroke="#666666" points="524.38,-144 416.12,-144 416.12,-112 524.38,-112 524.38,-144"/>
<text xml:space="preserve" text-anchor="start" x="424.12" y="-130.5" font-family="Helvetica,sans-Serif" font-size="10.00">dspi_dotprod_off_s16</text>
<text xml:space="preserve" text-anchor="middle" x="470.25" y="-118.5" font-family="Helvetica,sans-Serif" font-size="10.00">_ansi.c</text>
</a>
</g>
</g>
<!-- Node1&#45;&gt;Node4 -->
<g id="edge3_Node000001_Node000004" class="edge">
<title>Node1&#45;&gt;Node4</title>
<g id="a_edge3_Node000001_Node000004"><a xlink:title=" ">
<path fill="none" stroke="#63b8ff" d="M790.91,-182.86C729.59,-175.21 624.03,-161.05 534.25,-144 531.11,-143.4 527.89,-142.76 524.65,-142.08"/>
<polygon fill="#63b8ff" stroke="#63b8ff" points="790.34,-186.31 800.7,-184.07 791.2,-179.37 790.34,-186.31"/>
</a>
</g>
</g>
<!-- Node5 -->
<g id="Node000005" class="node">
<title>Node5</title>
<g id="a_Node000005"><a xlink:href="dspi__dotprod__off__s8__ansi_8c.html" target="_top" xlink:title=" ">
<polygon fill="white" stroke="#666666" points="645.75,-144 542.75,-144 542.75,-112 645.75,-112 645.75,-144"/>
<text xml:space="preserve" text-anchor="start" x="550.75" y="-130.5" font-family="Helvetica,sans-Serif" font-size="10.00">dspi_dotprod_off_s8</text>
<text xml:space="preserve" text-anchor="middle" x="594.25" y="-118.5" font-family="Helvetica,sans-Serif" font-size="10.00">_ansi.c</text>
</a>
</g>
</g>
<!-- Node1&#45;&gt;Node5 -->
<g id="edge4_Node000001_Node000005" class="edge">
<title>Node1&#45;&gt;Node5</title>
<g id="a_edge4_Node000001_Node000005"><a xlink:title=" ">
<path fill="none" stroke="#63b8ff" d="M791.66,-176.9C754.03,-167.88 701.41,-155.23 655.25,-144 652.28,-143.28 649.24,-142.53 646.16,-141.78"/>
<polygon fill="#63b8ff" stroke="#63b8ff" points="790.82,-180.3 801.36,-179.22 792.45,-173.49 790.82,-180.3"/>
</a>
</g>
</g>
<!-- Node6 -->
<g id="Node000006" class="node">
<title>Node6</title>
<g id="a_Node000006"><a xlink:href="dspi__dotprod__off__u16__ansi_8c.html" target="_top" xlink:title=" ">
<polygon fill="white" stroke="#666666" points="772.38,-144 664.12,-144 664.12,-112 772.38,-112 772.38,-144"/>
<text xml:space="preserve" text-anchor="start" x="672.12" y="-130.5" font-family="Helvetica,sans-Serif" font-size="10.00">dspi_dotprod_off_u16</text>
<text xml:space="preserve" text-anchor="middle" x="718.25" y="-118.5" font-family="Helvetica,sans-Serif" font-size="10.00">_ansi.c</text>
</a>
</g>
</g>
<!-- Node1&#45;&gt;Node6 -->
<g id="edge5_Node000001_Node000006" class="edge">
<title>Node1&#45;&gt;Node6</title>
<g id="a_edge5_Node000001_Node000006"><a xlink:title=" ">
<path fill="none" stroke="#63b8ff" d="M812.75,-174.73C793.86,-165.58 769.35,-153.72 750.02,-144.37"/>
<polygon fill="#63b8ff" stroke="#63b8ff" points="810.99,-177.76 821.51,-178.97 814.04,-171.46 810.99,-177.76"/>
</a>
</g>
</g>
<!-- Node7 -->
<g id="Node000007" class="node">
<title>Node7</title>
<g id="a_Node000007"><a xlink:href="dspi__dotprod__off__u8__ansi_8c.html" target="_top" xlink:title=" ">
<polygon fill="white" stroke="#666666" points="893.75,-144 790.75,-144 790.75,-112 893.75,-112 893.75,-144"/>
<text xml:space="preserve" text-anchor="start" x="798.75" y="-130.5" font-family="Helvetica,sans-Serif" font-size="10.00">dspi_dotprod_off_u8</text>
<text xml:space="preserve" text-anchor="middle" x="842.25" y="-118.5" font-family="Helvetica,sans-Serif" font-size="10.00">_ansi.c</text>
</a>
</g>
</g>
<!-- Node1&#45;&gt;Node7 -->
<g id="edge6_Node000001_Node000007" class="edge">
<title>Node1&#45;&gt;Node7</title>
<g id="a_edge6_Node000001_Node000007"><a xlink:title=" ">
<path fill="none" stroke="#63b8ff" d="M842.25,-168.31C842.25,-160.37 842.25,-151.46 842.25,-144.14"/>
<polygon fill="#63b8ff" stroke="#63b8ff" points="838.75,-168.11 842.25,-178.11 845.75,-168.11 838.75,-168.11"/>
</a>
</g>
</g>
<!-- Node8 -->
<g id="Node000008" class="node">
<title>Node8</title>
<g id="a_Node000008"><a xlink:href="dspi__dotprod__s16__ansi_8c.html" target="_top" xlink:title=" ">
<polygon fill="white" stroke="#666666" points="1036.25,-138 912.25,-138 912.25,-118 1036.25,-118 1036.25,-138"/>
<text xml:space="preserve" text-anchor="middle" x="974.25" y="-124.5" font-family="Helvetica,sans-Serif" font-size="10.00">dspi_dotprod_s16_ansi.c</text>
</a>
</g>
</g>
<!-- Node1&#45;&gt;Node8 -->
<g id="edge7_Node000001_Node000008" class="edge">
<title>Node1&#45;&gt;Node8</title>
<g id="a_edge7_Node000001_Node000008"><a xlink:title=" ">
<path fill="none" stroke="#63b8ff" d="M873.22,-174.92C898.06,-163.63 932.22,-148.1 953.77,-138.31"/>
<polygon fill="#63b8ff" stroke="#63b8ff" points="871.91,-171.67 864.25,-179 874.8,-178.05 871.91,-171.67"/>
</a>
</g>
</g>
<!-- Node9 -->
<g id="Node000009" class="node">
<title>Node9</title>
<g id="a_Node000009"><a xlink:href="dspi__dotprod__s8__ansi_8c.html" target="_top" xlink:title=" ">
<polygon fill="white" stroke="#666666" points="1172.62,-138 1053.88,-138 1053.88,-118 1172.62,-118 1172.62,-138"/>
<text xml:space="preserve" text-anchor="middle" x="1113.25" y="-124.5" font-family="Helvetica,sans-Serif" font-size="10.00">dspi_dotprod_s8_ansi.c</text>
</a>
</g>
</g>
<!-- Node1&#45;&gt;Node9 -->
<g id="edge8_Node000001_Node000009" class="edge">
<title>Node1&#45;&gt;Node9</title>
<g id="a_edge8_Node000001_Node000009"><a xlink:title=" ">
<path fill="none" stroke="#63b8ff" d="M893.67,-177.62C944.88,-166.28 1022.58,-149.07 1070.51,-138.46"/>
<polygon fill="#63b8ff" stroke="#63b8ff" points="893.01,-174.18 884.01,-179.75 894.53,-181.01 893.01,-174.18"/>
</a>
</g>
</g>
<!-- Node10 -->
<g id="Node000010" class="node">
<title>Node10</title>
<g id="a_Node000010"><a xlink:href="dspi__dotprod__u16__ansi_8c.html" target="_top" xlink:title=" ">
<polygon fill="white" stroke="#666666" points="1314.25,-138 1190.25,-138 1190.25,-118 1314.25,-118 1314.25,-138"/>
<text xml:space="preserve" text-anchor="middle" x="1252.25" y="-124.5" font-family="Helvetica,sans-Serif" font-size="10.00">dspi_dotprod_u16_ansi.c</text>
</a>
</g>
</g>
<!-- Node1&#45;&gt;Node10 -->
<g id="edge9_Node000001_Node000010" class="edge">
<title>Node1&#45;&gt;Node10</title>
<g id="a_edge9_Node000001_Node000010"><a xlink:title=" ">
<path fill="none" stroke="#63b8ff" d="M894,-183.37C960.65,-175.84 1079.96,-161.4 1181.25,-144 1190.56,-142.4 1200.51,-140.45 1209.93,-138.49"/>
<polygon fill="#63b8ff" stroke="#63b8ff" points="893.63,-179.89 884.09,-184.49 894.41,-186.85 893.63,-179.89"/>
</a>
</g>
</g>
<!-- Node11 -->
<g id="Node000011" class="node">
<title>Node11</title>
<g id="a_Node000011"><a xlink:href="dspi__dotprod__u8__ansi_8c.html" target="_top" xlink:title=" ">
<polygon fill="white" stroke="#666666" points="1450.62,-138 1331.88,-138 1331.88,-118 1450.62,-118 1450.62,-138"/>
<text xml:space="preserve" text-anchor="middle" x="1391.25" y="-124.5" font-family="Helvetica,sans-Serif" font-size="10.00">dspi_dotprod_u8_ansi.c</text>
</a>
</g>
</g>
<!-- Node1&#45;&gt;Node11 -->
<g id="edge10_Node000001_Node000011" class="edge">
<title>Node1&#45;&gt;Node11</title>
<g id="a_edge10_Node000001_Node000011"><a xlink:title=" ">
<path fill="none" stroke="#63b8ff" d="M893.65,-186.29C981.92,-181.16 1167.82,-168.32 1323.25,-144 1332.69,-142.52 1342.77,-140.53 1352.21,-138.48"/>
<polygon fill="#63b8ff" stroke="#63b8ff" points="893.66,-182.78 883.88,-186.84 894.06,-189.77 893.66,-182.78"/>
</a>
</g>
</g>
<!-- Node12 -->
<g id="Node000012" class="node">
<title>Node12</title>
<g id="a_Node000012"><a xlink:href="esp__dsp_8h.html" target="_top" xlink:title=" ">
<polygon fill="white" stroke="#666666" points="1529.75,-138 1468.75,-138 1468.75,-118 1529.75,-118 1529.75,-138"/>
<text xml:space="preserve" text-anchor="middle" x="1499.25" y="-124.5" font-family="Helvetica,sans-Serif" font-size="10.00">esp_dsp.h</text>
</a>
</g>
</g>
<!-- Node1&#45;&gt;Node12 -->
<g id="edge11_Node000001_Node000012" class="edge">
<title>Node1&#45;&gt;Node12</title>
<g id="a_edge11_Node000001_Node000012"><a xlink:title=" ">
<path fill="none" stroke="#63b8ff" d="M893.88,-187.13C1022,-182.19 1351.92,-167.53 1459.25,-144 1465.34,-142.67 1471.73,-140.59 1477.58,-138.41"/>
<polygon fill="#63b8ff" stroke="#63b8ff" points="893.85,-183.63 883.99,-187.51 894.12,-190.63 893.85,-183.63"/>
</a>
</g>
</g>
<!-- Node13 -->
<g id="Node000013" class="node">
<title>Node13</title>
<g id="a_Node000013"><a xlink:href="applications_2azure__board__apps_2apps_23d__graphics_2main_23d__graphics__demo_8cpp.html" target="_top" xlink:title=" ">
<polygon fill="white" stroke="#666666" points="116.5,-76 0,-76 0,-56 116.5,-56 116.5,-76"/>
<text xml:space="preserve" text-anchor="middle" x="58.25" y="-62.5" font-family="Helvetica,sans-Serif" font-size="10.00">3d_graphics_demo.cpp</text>
</a>
</g>
</g>
<!-- Node12&#45;&gt;Node13 -->
<g id="edge12_Node000012_Node000013" class="edge">
<title>Node12&#45;&gt;Node13</title>
<g id="a_edge12_Node000012_Node000013"><a xlink:title=" ">
<path fill="none" stroke="#63b8ff" d="M1467.27,-113.96C1464.59,-113.19 1461.89,-112.52 1459.25,-112 1168.42,-55.2 421.65,-99.47 126.25,-76 123.16,-75.75 120,-75.47 116.81,-75.15"/>
<polygon fill="#63b8ff" stroke="#63b8ff" points="1466.01,-117.23 1476.61,-117.08 1468.23,-110.59 1466.01,-117.23"/>
</a>
</g>
</g>
<!-- Node14 -->
<g id="Node000014" class="node">
<title>Node14</title>
<g id="a_Node000014"><a xlink:href="applications_2m5stack__core__s3_2apps_23d__graphics_2main_23d__graphics__demo_8cpp.html" target="_top" xlink:title=" ">
<polygon fill="white" stroke="#666666" points="251.5,-76 135,-76 135,-56 251.5,-56 251.5,-76"/>
<text xml:space="preserve" text-anchor="middle" x="193.25" y="-62.5" font-family="Helvetica,sans-Serif" font-size="10.00">3d_graphics_demo.cpp</text>
</a>
</g>
</g>
<!-- Node12&#45;&gt;Node14 -->
<g id="edge13_Node000012_Node000014" class="edge">
<title>Node12&#45;&gt;Node14</title>
<g id="a_edge13_Node000012_Node000014"><a xlink:title=" ">
<path fill="none" stroke="#63b8ff" d="M1467.27,-113.97C1464.59,-113.19 1461.89,-112.52 1459.25,-112 1197.92,-60.55 526.72,-97.5 261.25,-76 258.16,-75.75 255,-75.46 251.82,-75.14"/>
<polygon fill="#63b8ff" stroke="#63b8ff" points="1466.01,-117.24 1476.6,-117.09 1468.23,-110.6 1466.01,-117.24"/>
</a>
</g>
</g>
<!-- Node15 -->
<g id="Node000015" class="node">
<title>Node15</title>
<g id="a_Node000015"><a xlink:href="external__examples_2b00f000e_2applications_2azure__board__apps_2apps_23d__graphics_2main_23d__graphics__demo_8cpp.html" target="_top" xlink:title=" ">
<polygon fill="white" stroke="#666666" points="386.5,-76 270,-76 270,-56 386.5,-56 386.5,-76"/>
<text xml:space="preserve" text-anchor="middle" x="328.25" y="-62.5" font-family="Helvetica,sans-Serif" font-size="10.00">3d_graphics_demo.cpp</text>
</a>
</g>
</g>
<!-- Node12&#45;&gt;Node15 -->
<g id="edge14_Node000012_Node000015" class="edge">
<title>Node12&#45;&gt;Node15</title>
<g id="a_edge14_Node000012_Node000015"><a xlink:title=" ">
<path fill="none" stroke="#63b8ff" d="M1467.26,-113.98C1464.58,-113.2 1461.89,-112.52 1459.25,-112 1227.43,-65.9 631.8,-95.53 396.25,-76 393.16,-75.74 390,-75.45 386.82,-75.12"/>
<polygon fill="#63b8ff" stroke="#63b8ff" points="1466.01,-117.25 1476.6,-117.11 1468.23,-110.61 1466.01,-117.25"/>
</a>
</g>
</g>
<!-- Node16 -->
<g id="Node000016" class="node">
<title>Node16</title>
<g id="a_Node000016"><a xlink:href="external__examples_2b00f000e_2applications_2m5stack__core__s3_2apps_23d__graphics_2main_23d__graphics__demo_8cpp.html" target="_top" xlink:title=" ">
<polygon fill="white" stroke="#666666" points="521.5,-76 405,-76 405,-56 521.5,-56 521.5,-76"/>
<text xml:space="preserve" text-anchor="middle" x="463.25" y="-62.5" font-family="Helvetica,sans-Serif" font-size="10.00">3d_graphics_demo.cpp</text>
</a>
</g>
</g>
<!-- Node12&#45;&gt;Node16 -->
<g id="edge15_Node000012_Node000016" class="edge">
<title>Node12&#45;&gt;Node16</title>
<g id="a_edge15_Node000012_Node000016"><a xlink:title=" ">
<path fill="none" stroke="#63b8ff" d="M1467.26,-113.99C1464.58,-113.21 1461.89,-112.53 1459.25,-112 1256.94,-71.25 736.88,-93.56 531.25,-76 528.17,-75.74 525.01,-75.43 521.82,-75.1"/>
<polygon fill="#63b8ff" stroke="#63b8ff" points="1466,-117.26 1476.6,-117.13 1468.23,-110.63 1466,-117.26"/>
</a>
</g>
</g>
<!-- Node17 -->
<g id="Node000017" class="node">
<title>Node17</title>
<g id="a_Node000017"><a xlink:href="external__examples_2d1468452_2apps_23d__graphics_2main_23d__graphics__demo_8cpp.html" target="_top" xlink:title=" ">
<polygon fill="white" stroke="#666666" points="656.5,-76 540,-76 540,-56 656.5,-56 656.5,-76"/>
<text xml:space="preserve" text-anchor="middle" x="598.25" y="-62.5" font-family="Helvetica,sans-Serif" font-size="10.00">3d_graphics_demo.cpp</text>
</a>
</g>
</g>
<!-- Node12&#45;&gt;Node17 -->
<g id="edge16_Node000012_Node000017" class="edge">
<title>Node12&#45;&gt;Node17</title>
<g id="a_edge16_Node000012_Node000017"><a xlink:title=" ">
<path fill="none" stroke="#63b8ff" d="M1467.26,-114.01C1464.58,-113.23 1461.89,-112.54 1459.25,-112 1113.62,-41.19 1017.68,-107.17 666.25,-76 663.17,-75.73 660.01,-75.42 656.82,-75.08"/>
<polygon fill="#63b8ff" stroke="#63b8ff" points="1466,-117.28 1476.59,-117.15 1468.23,-110.65 1466,-117.28"/>
</a>
</g>
</g>
<!-- Node18 -->
<g id="Node000018" class="node">
<title>Node18</title>
<g id="a_Node000018"><a xlink:href="external__examples_2f9c2d4b3_2azure__board__apps_2apps_23d__graphics_2main_23d__graphics__demo_8cpp.html" target="_top" xlink:title=" ">
<polygon fill="white" stroke="#666666" points="791.5,-76 675,-76 675,-56 791.5,-56 791.5,-76"/>
<text xml:space="preserve" text-anchor="middle" x="733.25" y="-62.5" font-family="Helvetica,sans-Serif" font-size="10.00">3d_graphics_demo.cpp</text>
</a>
</g>
</g>
<!-- Node12&#45;&gt;Node18 -->
<g id="edge17_Node000012_Node000018" class="edge">
<title>Node12&#45;&gt;Node18</title>
<g id="a_edge17_Node000012_Node000018"><a xlink:title=" ">
<path fill="none" stroke="#63b8ff" d="M1466.77,-113.9C1464.25,-113.17 1461.73,-112.52 1459.25,-112 1172.17,-51.81 1092.28,-103.55 800.25,-76 797.45,-75.74 794.58,-75.44 791.68,-75.13"/>
<polygon fill="#63b8ff" stroke="#63b8ff" points="1465.57,-117.19 1476.17,-117.04 1467.79,-110.55 1465.57,-117.19"/>
</a>
</g>
</g>
<!-- Node19 -->
<g id="Node000019" class="node">
<title>Node19</title>
<g id="a_Node000019"><a xlink:href="applications_2m5stack__core__s3_2apps_2kalman__filter_2main_23d__kalman__demo_8cpp.html" target="_top" xlink:title=" ">
<polygon fill="white" stroke="#666666" points="920.88,-76 809.62,-76 809.62,-56 920.88,-56 920.88,-76"/>
<text xml:space="preserve" text-anchor="middle" x="865.25" y="-62.5" font-family="Helvetica,sans-Serif" font-size="10.00">3d_kalman_demo.cpp</text>
</a>
</g>
</g>
<!-- Node12&#45;&gt;Node19 -->
<g id="edge18_Node000012_Node000019" class="edge">
<title>Node12&#45;&gt;Node19</title>
<g id="a_edge18_Node000012_Node000019"><a xlink:title=" ">
<path fill="none" stroke="#63b8ff" d="M1466.77,-113.94C1464.25,-113.2 1461.72,-112.54 1459.25,-112 1228.5,-62.02 1164.08,-100.45 929.25,-76 926.57,-75.72 923.83,-75.42 921.07,-75.09"/>
<polygon fill="#63b8ff" stroke="#63b8ff" points="1465.56,-117.22 1476.15,-117.09 1467.79,-110.59 1465.56,-117.22"/>
</a>
</g>
</g>
<!-- Node20 -->
<g id="Node000020" class="node">
<title>Node20</title>
<g id="a_Node000020"><a xlink:href="external__examples_2b00f000e_2applications_2m5stack__core__s3_2apps_2kalman__filter_2main_23d__kalman__demo_8cpp.html" target="_top" xlink:title=" ">
<polygon fill="white" stroke="#666666" points="1049.88,-76 938.62,-76 938.62,-56 1049.88,-56 1049.88,-76"/>
<text xml:space="preserve" text-anchor="middle" x="994.25" y="-62.5" font-family="Helvetica,sans-Serif" font-size="10.00">3d_kalman_demo.cpp</text>
</a>
</g>
</g>
<!-- Node12&#45;&gt;Node20 -->
<g id="edge19_Node000012_Node000020" class="edge">
<title>Node12&#45;&gt;Node20</title>
<g id="a_edge19_Node000012_Node000020"><a xlink:title=" ">
<path fill="none" stroke="#63b8ff" d="M1466.29,-113.86C1463.93,-113.16 1461.57,-112.53 1459.25,-112 1285.22,-72.3 1236.59,-96.25 1059.25,-76 1056.31,-75.66 1053.29,-75.3 1050.25,-74.93"/>
<polygon fill="#63b8ff" stroke="#63b8ff" points="1465.12,-117.16 1475.72,-117.02 1467.35,-110.52 1465.12,-117.16"/>
</a>
</g>
</g>
<!-- Node21 -->
<g id="Node000021" class="node">
<title>Node21</title>
<g id="a_Node000021"><a xlink:href="applications_2lyrat__board__app_2main_2audio__amp__main_8c.html" target="_top" xlink:title=" ">
<polygon fill="white" stroke="#666666" points="1166.12,-76 1068.38,-76 1068.38,-56 1166.12,-56 1166.12,-76"/>
<text xml:space="preserve" text-anchor="middle" x="1117.25" y="-62.5" font-family="Helvetica,sans-Serif" font-size="10.00">audio_amp_main.c</text>
</a>
</g>
</g>
<!-- Node12&#45;&gt;Node21 -->
<g id="edge20_Node000012_Node000021" class="edge">
<title>Node12&#45;&gt;Node21</title>
<g id="a_edge20_Node000012_Node000021"><a xlink:title=" ">
<path fill="none" stroke="#63b8ff" d="M1466.27,-113.96C1463.91,-113.23 1461.56,-112.57 1459.25,-112 1335.74,-81.46 1301.24,-93.76 1175.25,-76 1172.42,-75.6 1169.52,-75.18 1166.6,-74.75"/>
<polygon fill="#63b8ff" stroke="#63b8ff" points="1465.09,-117.25 1475.68,-117.17 1467.35,-110.63 1465.09,-117.25"/>
</a>
</g>
</g>
<!-- Node22 -->
<g id="Node000022" class="node">
<title>Node22</title>
<g id="a_Node000022"><a xlink:href="external__examples_21fa4e38f_2lyrat__board__app_2main_2audio__amp__main_8c.html" target="_top" xlink:title=" ">
<polygon fill="white" stroke="#666666" points="1282.12,-76 1184.38,-76 1184.38,-56 1282.12,-56 1282.12,-76"/>
<text xml:space="preserve" text-anchor="middle" x="1233.25" y="-62.5" font-family="Helvetica,sans-Serif" font-size="10.00">audio_amp_main.c</text>
</a>
</g>
</g>
<!-- Node12&#45;&gt;Node22 -->
<g id="edge21_Node000012_Node000022" class="edge">
<title>Node12&#45;&gt;Node22</title>
<g id="a_edge21_Node000012_Node000022"><a xlink:title=" ">
<path fill="none" stroke="#63b8ff" d="M1465.34,-113.86C1463.29,-113.19 1461.25,-112.57 1459.25,-112 1426.74,-102.73 1338.66,-86.09 1282.55,-75.85"/>
<polygon fill="#63b8ff" stroke="#63b8ff" points="1464.17,-117.16 1474.77,-117.13 1466.47,-110.54 1464.17,-117.16"/>
</a>
</g>
</g>
<!-- Node23 -->
<g id="Node000023" class="node">
<title>Node23</title>
<g id="a_Node000023"><a xlink:href="external__examples_2b00f000e_2applications_2lyrat__board__app_2main_2audio__amp__main_8c.html" target="_top" xlink:title=" ">
<polygon fill="white" stroke="#666666" points="1398.12,-76 1300.38,-76 1300.38,-56 1398.12,-56 1398.12,-76"/>
<text xml:space="preserve" text-anchor="middle" x="1349.25" y="-62.5" font-family="Helvetica,sans-Serif" font-size="10.00">audio_amp_main.c</text>
</a>
</g>
</g>
<!-- Node12&#45;&gt;Node23 -->
<g id="edge22_Node000012_Node000023" class="edge">
<title>Node12&#45;&gt;Node23</title>
<g id="a_edge22_Node000012_Node000023"><a xlink:title=" ">
<path fill="none" stroke="#63b8ff" d="M1465.19,-113.38C1436.88,-102.05 1397.34,-86.23 1372.52,-76.31"/>
<polygon fill="#63b8ff" stroke="#63b8ff" points="1463.82,-116.6 1474.41,-117.06 1466.42,-110.1 1463.82,-116.6"/>
</a>
</g>
</g>
<!-- Node24 -->
<g id="Node000024" class="node">
<title>Node24</title>
<g id="a_Node000024"><a xlink:href="dsp__tests_8h.html" target="_top" xlink:title=" ">
<polygon fill="white" stroke="#666666" points="1482.75,-76 1415.75,-76 1415.75,-56 1482.75,-56 1482.75,-76"/>
<text xml:space="preserve" text-anchor="middle" x="1449.25" y="-62.5" font-family="Helvetica,sans-Serif" font-size="10.00">dsp_tests.h</text>
</a>
</g>
</g>
<!-- Node12&#45;&gt;Node24 -->
<g id="edge23_Node000012_Node000024" class="edge">
<title>Node12&#45;&gt;Node24</title>
<g id="a_edge23_Node000012_Node000024"><a xlink:title=" ">
<path fill="none" stroke="#63b8ff" d="M1484.19,-108.92C1475.16,-98.1 1464.07,-84.79 1456.84,-76.11"/>
<polygon fill="#63b8ff" stroke="#63b8ff" points="1481.38,-111.02 1490.47,-116.46 1486.76,-106.54 1481.38,-111.02"/>
</a>
</g>
</g>
<!-- Node31 -->
<g id="Node000031" class="node">
<title>Node31</title>
<g id="a_Node000031"><a xlink:href="applications_2azure__board__apps_2graphics_23d__matrix_23d__matrix__src_2graphics__support_8h.html" target="_top" xlink:title=" ">
<polygon fill="white" stroke="#666666" points="1599.5,-76 1501,-76 1501,-56 1599.5,-56 1599.5,-76"/>
<text xml:space="preserve" text-anchor="middle" x="1550.25" y="-62.5" font-family="Helvetica,sans-Serif" font-size="10.00">graphics_support.h</text>
</a>
</g>
</g>
<!-- Node12&#45;&gt;Node31 -->
<g id="edge30_Node000012_Node000031" class="edge">
<title>Node12&#45;&gt;Node31</title>
<g id="a_edge30_Node000012_Node000031"><a xlink:title=" ">
<path fill="none" stroke="#63b8ff" d="M1514.61,-108.92C1523.82,-98.1 1535.13,-84.79 1542.5,-76.11"/>
<polygon fill="#63b8ff" stroke="#63b8ff" points="1512.01,-106.59 1508.2,-116.47 1517.34,-111.12 1512.01,-106.59"/>
</a>
</g>
</g>
<!-- Node33 -->
<g id="Node000033" class="node">
<title>Node33</title>
<g id="a_Node000033"><a xlink:href="external__examples_2b00f000e_2applications_2azure__board__apps_2graphics_23d__matrix_23d__matrix__src_2graphics__support_8h.html" target="_top" xlink:title=" ">
<polygon fill="white" stroke="#666666" points="1716.5,-76 1618,-76 1618,-56 1716.5,-56 1716.5,-76"/>
<text xml:space="preserve" text-anchor="middle" x="1667.25" y="-62.5" font-family="Helvetica,sans-Serif" font-size="10.00">graphics_support.h</text>
</a>
</g>
</g>
<!-- Node12&#45;&gt;Node33 -->
<g id="edge32_Node000012_Node000033" class="edge">
<title>Node12&#45;&gt;Node33</title>
<g id="a_edge32_Node000012_Node000033"><a xlink:title=" ">
<path fill="none" stroke="#63b8ff" d="M1536.11,-113.84C1567.8,-102.52 1612.72,-86.47 1640.91,-76.41"/>
<polygon fill="#63b8ff" stroke="#63b8ff" points="1535.17,-110.46 1526.93,-117.12 1537.52,-117.05 1535.17,-110.46"/>
</a>
</g>
</g>
<!-- Node35 -->
<g id="Node000035" class="node">
<title>Node35</title>
<g id="a_Node000035"><a xlink:href="external__examples_2f9c2d4b3_2azure__board__apps_2graphics_23d__matrix_23d__matrix__src_2graphics__support_8h.html" target="_top" xlink:title=" ">
<polygon fill="white" stroke="#666666" points="1833.5,-76 1735,-76 1735,-56 1833.5,-56 1833.5,-76"/>
<text xml:space="preserve" text-anchor="middle" x="1784.25" y="-62.5" font-family="Helvetica,sans-Serif" font-size="10.00">graphics_support.h</text>
</a>
</g>
</g>
<!-- Node12&#45;&gt;Node35 -->
<g id="edge34_Node000012_Node000035" class="edge">
<title>Node12&#45;&gt;Node35</title>
<g id="a_edge34_Node000012_Node000035"><a xlink:title=" ">
<path fill="none" stroke="#63b8ff" d="M1541.02,-118.21C1593.92,-107.07 1684.7,-87.96 1739.13,-76.5"/>
<polygon fill="#63b8ff" stroke="#63b8ff" points="1540.57,-114.73 1531.5,-120.21 1542.01,-121.57 1540.57,-114.73"/>
</a>
</g>
</g>
<!-- Node37 -->
<g id="Node000037" class="node">
<title>Node37</title>
<g id="a_Node000037"><a xlink:href="applications_2m5stack__core__s3_2apps_23d__graphics_2main_2init__display_8c.html" target="_top" xlink:title=" ">
<polygon fill="white" stroke="#666666" points="1923.38,-76 1851.12,-76 1851.12,-56 1923.38,-56 1923.38,-76"/>
<text xml:space="preserve" text-anchor="middle" x="1887.25" y="-62.5" font-family="Helvetica,sans-Serif" font-size="10.00">init_display.c</text>
</a>
</g>
</g>
<!-- Node12&#45;&gt;Node37 -->
<g id="edge36_Node000012_Node000037" class="edge">
<title>Node12&#45;&gt;Node37</title>
<g id="a_edge36_Node000012_Node000037"><a xlink:title=" ">
<path fill="none" stroke="#63b8ff" d="M1541.43,-121.42C1606.25,-112.68 1734.21,-94.82 1842.25,-76 1845.08,-75.51 1848,-74.98 1850.93,-74.43"/>
<polygon fill="#63b8ff" stroke="#63b8ff" points="1541.02,-117.94 1531.58,-122.74 1541.96,-124.88 1541.02,-117.94"/>
</a>
</g>
</g>
<!-- Node38 -->
<g id="Node000038" class="node">
<title>Node38</title>
<g id="a_Node000038"><a xlink:href="external__examples_2b00f000e_2applications_2m5stack__core__s3_2apps_23d__graphics_2main_2init__display_8c.html" target="_top" xlink:title=" ">
<polygon fill="white" stroke="#666666" points="2013.38,-76 1941.12,-76 1941.12,-56 2013.38,-56 2013.38,-76"/>
<text xml:space="preserve" text-anchor="middle" x="1977.25" y="-62.5" font-family="Helvetica,sans-Serif" font-size="10.00">init_display.c</text>
</a>
</g>
</g>
<!-- Node12&#45;&gt;Node38 -->
<g id="edge37_Node000012_Node000038" class="edge">
<title>Node12&#45;&gt;Node38</title>
<g id="a_edge37_Node000012_Node000038"><a xlink:title=" ">
<path fill="none" stroke="#63b8ff" d="M1541.27,-123.18C1618.8,-115.88 1789.5,-98.64 1932.25,-76 1935.08,-75.55 1938.01,-75.05 1940.95,-74.52"/>
<polygon fill="#63b8ff" stroke="#63b8ff" points="1541.22,-119.67 1531.59,-124.08 1541.87,-126.64 1541.22,-119.67"/>
</a>
</g>
</g>
<!-- Node39 -->
<g id="Node000039" class="node">
<title>Node39</title>
<g id="a_Node000039"><a xlink:href="applications_2azure__board__apps_2apps_2kalman__filter_2main_2kalman__filter__demo_8cpp.html" target="_top" xlink:title=" ">
<polygon fill="white" stroke="#666666" points="2151,-76 2031.5,-76 2031.5,-56 2151,-56 2151,-76"/>
<text xml:space="preserve" text-anchor="middle" x="2091.25" y="-62.5" font-family="Helvetica,sans-Serif" font-size="10.00">kalman_filter_demo.cpp</text>
</a>
</g>
</g>
<!-- Node12&#45;&gt;Node39 -->
<g id="edge38_Node000012_Node000039" class="edge">
<title>Node12&#45;&gt;Node39</title>
<g id="a_edge38_Node000012_Node000039"><a xlink:title=" ">
<path fill="none" stroke="#63b8ff" d="M1541.45,-123.35C1630.43,-115.56 1843.77,-96.34 2022.25,-76 2025.13,-75.67 2028.08,-75.33 2031.05,-74.97"/>
<polygon fill="#63b8ff" stroke="#63b8ff" points="1541.4,-119.84 1531.74,-124.2 1542.01,-126.82 1541.4,-119.84"/>
</a>
</g>
</g>
<!-- Node40 -->
<g id="Node000040" class="node">
<title>Node40</title>
<g id="a_Node000040"><a xlink:href="external__examples_2b00f000e_2applications_2azure__board__apps_2apps_2kalman__filter_2main_2kalman__filter__demo_8cpp.html" target="_top" xlink:title=" ">
<polygon fill="white" stroke="#666666" points="2289,-76 2169.5,-76 2169.5,-56 2289,-56 2289,-76"/>
<text xml:space="preserve" text-anchor="middle" x="2229.25" y="-62.5" font-family="Helvetica,sans-Serif" font-size="10.00">kalman_filter_demo.cpp</text>
</a>
</g>
</g>
<!-- Node12&#45;&gt;Node40 -->
<g id="edge39_Node000012_Node000040" class="edge">
<title>Node12&#45;&gt;Node40</title>
<g id="a_edge39_Node000012_Node000040"><a xlink:title=" ">
<path fill="none" stroke="#63b8ff" d="M1541.25,-124.53C1645.93,-118.21 1926.83,-100.21 2160.25,-76 2163.13,-75.7 2166.08,-75.38 2169.06,-75.04"/>
<polygon fill="#63b8ff" stroke="#63b8ff" points="1541.22,-121.03 1531.45,-125.12 1541.64,-128.01 1541.22,-121.03"/>
</a>
</g>
</g>
<!-- Node41 -->
<g id="Node000041" class="node">
<title>Node41</title>
<g id="a_Node000041"><a xlink:href="external__examples_2d1468452_2apps_2kalman__filter_2main_2kalman__filter__demo_8cpp.html" target="_top" xlink:title=" ">
<polygon fill="white" stroke="#666666" points="2427,-76 2307.5,-76 2307.5,-56 2427,-56 2427,-76"/>
<text xml:space="preserve" text-anchor="middle" x="2367.25" y="-62.5" font-family="Helvetica,sans-Serif" font-size="10.00">kalman_filter_demo.cpp</text>
</a>
</g>
</g>
<!-- Node12&#45;&gt;Node41 -->
<g id="edge40_Node000012_Node000041" class="edge">
<title>Node12&#45;&gt;Node41</title>
<g id="a_edge40_Node000012_Node000041"><a xlink:title=" ">
<path fill="none" stroke="#63b8ff" d="M1541.62,-125.28C1660.91,-120.23 2009.68,-104 2298.25,-76 2301.14,-75.72 2304.09,-75.41 2307.07,-75.09"/>
<polygon fill="#63b8ff" stroke="#63b8ff" points="1541.51,-121.78 1531.67,-125.7 1541.81,-128.78 1541.51,-121.78"/>
</a>
</g>
</g>
<!-- Node42 -->
<g id="Node000042" class="node">
<title>Node42</title>
<g id="a_Node000042"><a xlink:href="external__examples_2f9c2d4b3_2azure__board__apps_2apps_2kalman__filter_2main_2kalman__filter__demo_8cpp.html" target="_top" xlink:title=" ">
<polygon fill="white" stroke="#666666" points="2565,-76 2445.5,-76 2445.5,-56 2565,-56 2565,-76"/>
<text xml:space="preserve" text-anchor="middle" x="2505.25" y="-62.5" font-family="Helvetica,sans-Serif" font-size="10.00">kalman_filter_demo.cpp</text>
</a>
</g>
</g>
<!-- Node12&#45;&gt;Node42 -->
<g id="edge41_Node000012_Node000042" class="edge">
<title>Node12&#45;&gt;Node42</title>
<g id="a_edge41_Node000012_Node000042"><a xlink:title=" ">
<path fill="none" stroke="#63b8ff" d="M1541.2,-125.84C1673.15,-121.96 2091.39,-107.83 2436.25,-76 2439.14,-75.73 2442.09,-75.44 2445.07,-75.12"/>
<polygon fill="#63b8ff" stroke="#63b8ff" points="1541.45,-122.33 1531.56,-126.12 1541.66,-129.33 1541.45,-122.33"/>
</a>
</g>
</g>
<!-- Node43 -->
<g id="Node000043" class="node">
<title>Node43</title>
<g id="a_Node000043"><a xlink:href="main_2main_8c.html" target="_top" xlink:title=" ">
<polygon fill="white" stroke="#666666" points="2627.88,-76 2582.62,-76 2582.62,-56 2627.88,-56 2627.88,-76"/>
<text xml:space="preserve" text-anchor="middle" x="2605.25" y="-62.5" font-family="Helvetica,sans-Serif" font-size="10.00">main.c</text>
</a>
</g>
</g>
<!-- Node12&#45;&gt;Node43 -->
<g id="edge42_Node000012_Node000043" class="edge">
<title>Node12&#45;&gt;Node43</title>
<g id="a_edge42_Node000012_Node000043"><a xlink:title=" ">
<path fill="none" stroke="#63b8ff" d="M1541.62,-126.32C1714.91,-123.33 2370.2,-109.97 2574.25,-76 2576.9,-75.56 2579.65,-74.97 2582.37,-74.29"/>
<polygon fill="#63b8ff" stroke="#63b8ff" points="1541.67,-122.82 1531.73,-126.49 1541.79,-129.82 1541.67,-122.82"/>
</a>
</g>
</g>
<!-- Node44 -->
<g id="Node000044" class="node">
<title>Node44</title>
<g id="a_Node000044"><a xlink:href="components_2espressif____esp-dsp_2applications_2spectrum__box__lite_2main_2main_8c.html" target="_top" xlink:title=" ">
<polygon fill="white" stroke="#666666" points="2690.88,-76 2645.62,-76 2645.62,-56 2690.88,-56 2690.88,-76"/>
<text xml:space="preserve" text-anchor="middle" x="2668.25" y="-62.5" font-family="Helvetica,sans-Serif" font-size="10.00">main.c</text>
</a>
</g>
</g>
<!-- Node12&#45;&gt;Node44 -->
<g id="edge43_Node000012_Node000044" class="edge">
<title>Node12&#45;&gt;Node44</title>
<g id="a_edge43_Node000012_Node000044"><a xlink:title=" ">
<path fill="none" stroke="#63b8ff" d="M1541.46,-126.45C1720.78,-123.91 2420.17,-111.85 2637.25,-76 2639.9,-75.56 2642.65,-74.97 2645.37,-74.3"/>
<polygon fill="#63b8ff" stroke="#63b8ff" points="1541.63,-122.95 1531.68,-126.59 1541.73,-129.95 1541.63,-122.95"/>
</a>
</g>
</g>
<!-- Node45 -->
<g id="Node000045" class="node">
<title>Node45</title>
<g id="a_Node000045"><a xlink:href="components_2espressif____esp-dsp_2external__examples_2b00f000e_2applications_2spectrum__box__lite_2main_2main_8c.html" target="_top" xlink:title=" ">
<polygon fill="white" stroke="#666666" points="2753.88,-76 2708.62,-76 2708.62,-56 2753.88,-56 2753.88,-76"/>
<text xml:space="preserve" text-anchor="middle" x="2731.25" y="-62.5" font-family="Helvetica,sans-Serif" font-size="10.00">main.c</text>
</a>
</g>
</g>
<!-- Node12&#45;&gt;Node45 -->
<g id="edge44_Node000012_Node000045" class="edge">
<title>Node12&#45;&gt;Node45</title>
<g id="a_edge44_Node000012_Node000045"><a xlink:title=" ">
<path fill="none" stroke="#63b8ff" d="M1541.66,-126.56C1727.42,-124.44 2470.26,-113.7 2700.25,-76 2702.9,-75.56 2705.65,-74.98 2708.37,-74.31"/>
<polygon fill="#63b8ff" stroke="#63b8ff" points="1541.72,-123.06 1531.75,-126.67 1541.79,-130.06 1541.72,-123.06"/>
</a>
</g>
</g>
<!-- Node25 -->
<g id="Node000025" class="node">
<title>Node25</title>
<g id="a_Node000025"><a xlink:href="dsps__fft2r__sc16__ansi_8c.html" target="_top" xlink:title=" ">
<polygon fill="white" stroke="#666666" points="1000.5,-20 884,-20 884,0 1000.5,0 1000.5,-20"/>
<text xml:space="preserve" text-anchor="middle" x="942.25" y="-6.5" font-family="Helvetica,sans-Serif" font-size="10.00">dsps_fft2r_sc16_ansi.c</text>
</a>
</g>
</g>
<!-- Node24&#45;&gt;Node25 -->
<g id="edge24_Node000024_Node000025" class="edge">
<title>Node24&#45;&gt;Node25</title>
<g id="a_edge24_Node000024_Node000025"><a xlink:title=" ">
<path fill="none" stroke="#63b8ff" d="M1404.02,-55.66C1230.11,-29.81 1182.63,-39.22 1010.25,-20 1007.17,-19.66 1004.02,-19.29 1000.84,-18.91"/>
<polygon fill="#63b8ff" stroke="#63b8ff" points="1403.48,-59.12 1413.89,-57.15 1404.53,-52.2 1403.48,-59.12"/>
</a>
</g>
</g>
<!-- Node26 -->
<g id="Node000026" class="node">
<title>Node26</title>
<g id="a_Node000026"><a xlink:href="dsps__fird__init__s16_8c.html" target="_top" xlink:title=" ">
<polygon fill="white" stroke="#666666" points="1121.75,-20 1018.75,-20 1018.75,0 1121.75,0 1121.75,-20"/>
<text xml:space="preserve" text-anchor="middle" x="1070.25" y="-6.5" font-family="Helvetica,sans-Serif" font-size="10.00">dsps_fird_init_s16.c</text>
</a>
</g>
</g>
<!-- Node24&#45;&gt;Node26 -->
<g id="edge25_Node000024_Node000026" class="edge">
<title>Node24&#45;&gt;Node26</title>
<g id="a_edge25_Node000024_Node000026"><a xlink:title=" ">
<path fill="none" stroke="#63b8ff" d="M1404.19,-55.58C1283.41,-35.12 1250.19,-36.53 1131.25,-20 1128.28,-19.59 1125.23,-19.16 1122.16,-18.72"/>
<polygon fill="#63b8ff" stroke="#63b8ff" points="1403.43,-59 1413.88,-57.24 1404.61,-52.1 1403.43,-59"/>
</a>
</g>
</g>
<!-- Node27 -->
<g id="Node000027" class="node">
<title>Node27</title>
<g id="a_Node000027"><a xlink:href="dsps__firmr__f32__ansi_8c.html" target="_top" xlink:title=" ">
<polygon fill="white" stroke="#666666" points="1252.25,-20 1140.25,-20 1140.25,0 1252.25,0 1252.25,-20"/>
<text xml:space="preserve" text-anchor="middle" x="1196.25" y="-6.5" font-family="Helvetica,sans-Serif" font-size="10.00">dsps_firmr_f32_ansi.c</text>
</a>
</g>
</g>
<!-- Node24&#45;&gt;Node27 -->
<g id="edge26_Node000024_Node000027" class="edge">
<title>Node24&#45;&gt;Node27</title>
<g id="a_edge26_Node000024_Node000027"><a xlink:title=" ">
<path fill="none" stroke="#63b8ff" d="M1404.18,-55.34C1342.31,-42.12 1280.99,-29.05 1240.71,-20.47"/>
<polygon fill="#63b8ff" stroke="#63b8ff" points="1403.33,-58.74 1413.84,-57.41 1404.8,-51.9 1403.33,-58.74"/>
</a>
</g>
</g>
<!-- Node28 -->
<g id="Node000028" class="node">
<title>Node28</title>
<g id="a_Node000028"><a xlink:href="dsps__firmr__init__f32_8c.html" target="_top" xlink:title=" ">
<polygon fill="white" stroke="#666666" points="1376.62,-20 1269.88,-20 1269.88,0 1376.62,0 1376.62,-20"/>
<text xml:space="preserve" text-anchor="middle" x="1323.25" y="-6.5" font-family="Helvetica,sans-Serif" font-size="10.00">dsps_firmr_init_f32.c</text>
</a>
</g>
</g>
<!-- Node24&#45;&gt;Node28 -->
<g id="edge27_Node000024_Node000028" class="edge">
<title>Node24&#45;&gt;Node28</title>
<g id="a_edge27_Node000024_Node000028"><a xlink:title=" ">
<path fill="none" stroke="#63b8ff" d="M1416.91,-51.14C1394.47,-41.52 1365.18,-28.97 1345.37,-20.48"/>
<polygon fill="#63b8ff" stroke="#63b8ff" points="1415.34,-54.28 1425.91,-55 1418.1,-47.84 1415.34,-54.28"/>
</a>
</g>
</g>
<!-- Node29 -->
<g id="Node000029" class="node">
<title>Node29</title>
<g id="a_Node000029"><a xlink:href="dsps__firmr__init__s16_8c.html" target="_top" xlink:title=" ">
<polygon fill="white" stroke="#666666" points="1503.75,-20 1394.75,-20 1394.75,0 1503.75,0 1503.75,-20"/>
<text xml:space="preserve" text-anchor="middle" x="1449.25" y="-6.5" font-family="Helvetica,sans-Serif" font-size="10.00">dsps_firmr_init_s16.c</text>
</a>
</g>
</g>
<!-- Node24&#45;&gt;Node29 -->
<g id="edge28_Node000024_Node000029" class="edge">
<title>Node24&#45;&gt;Node29</title>
<g id="a_edge28_Node000024_Node000029"><a xlink:title=" ">
<path fill="none" stroke="#63b8ff" d="M1449.25,-44.13C1449.25,-35.9 1449.25,-26.85 1449.25,-20.3"/>
<polygon fill="#63b8ff" stroke="#63b8ff" points="1445.75,-44.08 1449.25,-54.08 1452.75,-44.08 1445.75,-44.08"/>
</a>
</g>
</g>
<!-- Node30 -->
<g id="Node000030" class="node">
<title>Node30</title>
<g id="a_Node000030"><a xlink:href="dsps__firmr__s16__ansi_8c.html" target="_top" xlink:title=" ">
<polygon fill="white" stroke="#666666" points="1636.38,-20 1522.12,-20 1522.12,0 1636.38,0 1636.38,-20"/>
<text xml:space="preserve" text-anchor="middle" x="1579.25" y="-6.5" font-family="Helvetica,sans-Serif" font-size="10.00">dsps_firmr_s16_ansi.c</text>
</a>
</g>
</g>
<!-- Node24&#45;&gt;Node30 -->
<g id="edge29_Node000024_Node000030" class="edge">
<title>Node24&#45;&gt;Node30</title>
<g id="a_edge29_Node000024_Node000030"><a xlink:title=" ">
<path fill="none" stroke="#63b8ff" d="M1482.3,-51.27C1505.49,-41.64 1535.9,-29.01 1556.43,-20.48"/>
<polygon fill="#63b8ff" stroke="#63b8ff" points="1481.18,-47.94 1473.29,-55.01 1483.87,-54.41 1481.18,-47.94"/>
</a>
</g>
</g>
<!-- Node32 -->
<g id="Node000032" class="node">
<title>Node32</title>
<g id="a_Node000032"><a xlink:href="applications_2azure__board__apps_2graphics_23d__matrix_23d__matrix__src_2graphics__support_8cpp.html" target="_top" xlink:title=" ">
<polygon fill="white" stroke="#666666" points="1763.75,-20 1654.75,-20 1654.75,0 1763.75,0 1763.75,-20"/>
<text xml:space="preserve" text-anchor="middle" x="1709.25" y="-6.5" font-family="Helvetica,sans-Serif" font-size="10.00">graphics_support.cpp</text>
</a>
</g>
</g>
<!-- Node31&#45;&gt;Node32 -->
<g id="edge31_Node000031_Node000032" class="edge">
<title>Node31&#45;&gt;Node32</title>
<g id="a_edge31_Node000031_Node000032"><a xlink:title=" ">
<path fill="none" stroke="#63b8ff" d="M1588.76,-51.92C1617.35,-42.21 1655.66,-29.2 1681.34,-20.48"/>
<polygon fill="#63b8ff" stroke="#63b8ff" points="1587.72,-48.58 1579.38,-55.11 1589.97,-55.21 1587.72,-48.58"/>
</a>
</g>
</g>
<!-- Node34 -->
<g id="Node000034" class="node">
<title>Node34</title>
<g id="a_Node000034"><a xlink:href="external__examples_2b00f000e_2applications_2azure__board__apps_2graphics_23d__matrix_23d__matrix__src_2graphics__support_8cpp.html" target="_top" xlink:title=" ">
<polygon fill="white" stroke="#666666" points="1890.75,-20 1781.75,-20 1781.75,0 1890.75,0 1890.75,-20"/>
<text xml:space="preserve" text-anchor="middle" x="1836.25" y="-6.5" font-family="Helvetica,sans-Serif" font-size="10.00">graphics_support.cpp</text>
</a>
</g>
</g>
<!-- Node33&#45;&gt;Node34 -->
<g id="edge33_Node000033_Node000034" class="edge">
<title>Node33&#45;&gt;Node34</title>
<g id="a_edge33_Node000033_Node000034"><a xlink:title=" ">
<path fill="none" stroke="#63b8ff" d="M1707.38,-52.18C1737.84,-42.44 1779.05,-29.28 1806.58,-20.48"/>
<polygon fill="#63b8ff" stroke="#63b8ff" points="1706.59,-48.76 1698.13,-55.13 1708.72,-55.42 1706.59,-48.76"/>
</a>
</g>
</g>
<!-- Node36 -->
<g id="Node000036" class="node">
<title>Node36</title>
<g id="a_Node000036"><a xlink:href="external__examples_2f9c2d4b3_2azure__board__apps_2graphics_23d__matrix_23d__matrix__src_2graphics__support_8cpp.html" target="_top" xlink:title=" ">
<polygon fill="white" stroke="#666666" points="2017.75,-20 1908.75,-20 1908.75,0 2017.75,0 2017.75,-20"/>
<text xml:space="preserve" text-anchor="middle" x="1963.25" y="-6.5" font-family="Helvetica,sans-Serif" font-size="10.00">graphics_support.cpp</text>
</a>
</g>
</g>
<!-- Node35&#45;&gt;Node36 -->
<g id="edge35_Node000035_Node000036" class="edge">
<title>Node35&#45;&gt;Node36</title>
<g id="a_edge35_Node000035_Node000036"><a xlink:title=" ">
<path fill="none" stroke="#63b8ff" d="M1826.33,-52.31C1858.64,-42.56 1902.54,-29.32 1931.83,-20.48"/>
<polygon fill="#63b8ff" stroke="#63b8ff" points="1825.44,-48.92 1816.88,-55.16 1827.46,-55.62 1825.44,-48.92"/>
</a>
</g>
</g>
</g>
</svg>
