<?xml version="1.0" encoding="UTF-8" standalone="no"?>
<!DOCTYPE svg PUBLIC "-//W3C//DTD SVG 1.1//EN"
 "http://www.w3.org/Graphics/SVG/1.1/DTD/svg11.dtd">
<!-- Generated by graphviz version 14.1.2 (20260124.0452)
 -->
<!-- Title: dspm_mult_f32_aes3 Pages: 1 -->
<svg width="291pt" height="28pt"
 viewBox="0.00 0.00 291.00 28.00" xmlns="http://www.w3.org/2000/svg" xmlns:xlink="http://www.w3.org/1999/xlink">
<g id="graph0" class="graph" transform="scale(1 1) rotate(0) translate(4 24)">
<title>dspm_mult_f32_aes3</title>
<!-- Node1 -->
<g id="Node000001" class="node">
<title>Node1</title>
<g id="a_Node000001"><a xlink:title=" ">
<polygon fill="#999999" stroke="#666666" points="282.75,-20 173.75,-20 173.75,0 282.75,0 282.75,-20"/>
<text xml:space="preserve" text-anchor="middle" x="228.25" y="-6.5" font-family="Helvetica,sans-Serif" font-size="10.00">dspm_mult_f32_aes3</text>
</a>
</g>
</g>
<!-- Node2 -->
<g id="Node000002" class="node">
<title>Node2</title>
<g id="a_Node000002"><a xlink:href="test__mmult_8c.html#a29623517f682d2bf709ad6942132c11d" target="_top" xlink:title=" ">
<polygon fill="white" stroke="#666666" points="137.75,-20 73,-20 73,0 137.75,0 137.75,-20"/>
<text xml:space="preserve" text-anchor="middle" x="105.38" y="-6.5" font-family="Helvetica,sans-Serif" font-size="10.00">test_mmult</text>
</a>
</g>
</g>
<!-- Node1&#45;&gt;Node2 -->
<g id="edge1_Node000001_Node000002" class="edge">
<title>Node1&#45;&gt;Node2</title>
<g id="a_edge1_Node000001_Node000002"><a xlink:title=" ">
<path fill="none" stroke="#63b8ff" d="M162.13,-10C153.79,-10 145.56,-10 138.09,-10"/>
<polygon fill="#63b8ff" stroke="#63b8ff" points="162.02,-13.5 172.01,-10 162.01,-6.5 162.02,-13.5"/>
</a>
</g>
</g>
<!-- Node3 -->
<g id="Node000003" class="node">
<title>Node3</title>
<g id="a_Node000003"><a xlink:href="components_2espressif____esp-dsp_2modules_2matrix_2mul_2test__sim_2main_8c.html#a840291bc02cba5474a4cb46a9b9566fe" target="_top" xlink:title=" ">
<polygon fill="white" stroke="#666666" points="37,-20 0,-20 0,0 37,0 37,-20"/>
<text xml:space="preserve" text-anchor="middle" x="18.5" y="-6.5" font-family="Helvetica,sans-Serif" font-size="10.00">main</text>
</a>
</g>
</g>
<!-- Node2&#45;&gt;Node3 -->
<g id="edge2_Node000002_Node000003" class="edge">
<title>Node2&#45;&gt;Node3</title>
<g id="a_edge2_Node000002_Node000003"><a xlink:title=" ">
<path fill="none" stroke="#63b8ff" d="M61.51,-10C52.87,-10 44.25,-10 37.09,-10"/>
<polygon fill="#63b8ff" stroke="#63b8ff" points="61.26,-13.5 71.26,-10 61.26,-6.5 61.26,-13.5"/>
</a>
</g>
</g>
</g>
</svg>
