<?xml version="1.0" encoding="UTF-8" standalone="no"?>
<!DOCTYPE svg PUBLIC "-//W3C//DTD SVG 1.1//EN"
 "http://www.w3.org/Graphics/SVG/1.1/DTD/svg11.dtd">
<!-- Generated by graphviz version 14.1.2 (20260124.0452)
 -->
<!-- Title: dspm_add_platform.h Pages: 1 -->
<svg width="240pt" height="196pt"
 viewBox="0.00 0.00 240.00 196.00" xmlns="http://www.w3.org/2000/svg" xmlns:xlink="http://www.w3.org/1999/xlink">

<svg id="main" version="1.1" xmlns="http://www.w3.org/2000/svg" xmlns:xlink="http://www.w3.org/1999/xlink" xml:space="preserve">

<style type="text/css"><![CDATA[
.node, .edge {opacity: 0.7;}
.node.selected, .edge.selected {opacity: 1;}
.edge:hover path { stroke: red; }
.edge:hover polygon { stroke: red; fill: red; }
]]></style>
<script type="application/ecmascript" xlink:href="svg.min.js"/>
<svg id="graph" class="graph">
<g id="graph0" class="graph" transform="scale(1 1) rotate(0) translate(4 192)">
<title>dspm_add_platform.h</title>
<!-- Node1 -->
<g id="Node000001" class="node">
<title>Node1</title>
<g id="a_Node000001"><a xlink:title=" ">
<polygon fill="#999999" stroke="#666666" points="167.5,-188 57.75,-188 57.75,-168 167.5,-168 167.5,-188"/>
<text xml:space="preserve" text-anchor="middle" x="112.62" y="-174.5" font-family="Helvetica,sans-Serif" font-size="10.00">dspm_add_platform.h</text>
</a>
</g>
</g>
<!-- Node2 -->
<g id="Node000002" class="node">
<title>Node2</title>
<g id="a_Node000002"><a xlink:href="dspm__add_8h.html" target="_top" xlink:title=" ">
<polygon fill="white" stroke="#666666" points="147.25,-132 78,-132 78,-112 147.25,-112 147.25,-132"/>
<text xml:space="preserve" text-anchor="middle" x="112.62" y="-118.5" font-family="Helvetica,sans-Serif" font-size="10.00">dspm_add.h</text>
</a>
</g>
</g>
<!-- Node1&#45;&gt;Node2 -->
<g id="edge1_Node000001_Node000002" class="edge">
<title>Node1&#45;&gt;Node2</title>
<g id="a_edge1_Node000001_Node000002"><a xlink:title=" ">
<path fill="none" stroke="#63b8ff" d="M112.62,-156.13C112.62,-147.9 112.62,-138.85 112.62,-132.3"/>
<polygon fill="#63b8ff" stroke="#63b8ff" points="109.13,-156.08 112.63,-166.08 116.13,-156.08 109.13,-156.08"/>
</a>
</g>
</g>
<!-- Node3 -->
<g id="Node000003" class="node">
<title>Node3</title>
<g id="a_Node000003"><a xlink:href="dspm__add__f32__ansi_8c.html" target="_top" xlink:title=" ">
<polygon fill="white" stroke="#666666" points="111.25,-76 0,-76 0,-56 111.25,-56 111.25,-76"/>
<text xml:space="preserve" text-anchor="middle" x="55.62" y="-62.5" font-family="Helvetica,sans-Serif" font-size="10.00">dspm_add_f32_ansi.c</text>
</a>
</g>
</g>
<!-- Node2&#45;&gt;Node3 -->
<g id="edge2_Node000002_Node000003" class="edge">
<title>Node2&#45;&gt;Node3</title>
<g id="a_edge2_Node000002_Node000003"><a xlink:title=" ">
<path fill="none" stroke="#63b8ff" d="M94.52,-103.85C84.89,-94.72 73.42,-83.86 65.44,-76.3"/>
<polygon fill="#63b8ff" stroke="#63b8ff" points="91.93,-106.22 101.6,-110.55 96.75,-101.13 91.93,-106.22"/>
</a>
</g>
</g>
<!-- Node4 -->
<g id="Node000004" class="node">
<title>Node4</title>
<g id="a_Node000004"><a xlink:href="dspm__matrix_8h.html" target="_top" xlink:title=" ">
<polygon fill="white" stroke="#666666" points="209.88,-76 129.38,-76 129.38,-56 209.88,-56 209.88,-76"/>
<text xml:space="preserve" text-anchor="middle" x="169.62" y="-62.5" font-family="Helvetica,sans-Serif" font-size="10.00">dspm_matrix.h</text>
</a>
</g>
</g>
<!-- Node2&#45;&gt;Node4 -->
<g id="edge3_Node000002_Node000004" class="edge">
<title>Node2&#45;&gt;Node4</title>
<g id="a_edge3_Node000002_Node000004"><a xlink:title=" ">
<path fill="none" stroke="#63b8ff" d="M130.73,-103.85C140.36,-94.72 151.83,-83.86 159.81,-76.3"/>
<polygon fill="#63b8ff" stroke="#63b8ff" points="128.5,-101.13 123.65,-110.55 133.32,-106.22 128.5,-101.13"/>
</a>
</g>
</g>
<!-- Node5 -->
<g id="Node000005" class="node">
<title>Node5</title>
<g id="a_Node000005"><a xlink:href="esp__dsp_8h.html" target="_top" xlink:title=" ">
<polygon fill="#fff0f0" stroke="red" points="163.12,-20 102.12,-20 102.12,0 163.12,0 163.12,-20"/>
<text xml:space="preserve" text-anchor="middle" x="132.62" y="-6.5" font-family="Helvetica,sans-Serif" font-size="10.00">esp_dsp.h</text>
</a>
</g>
</g>
<!-- Node4&#45;&gt;Node5 -->
<g id="edge4_Node000004_Node000005" class="edge">
<title>Node4&#45;&gt;Node5</title>
<g id="a_edge4_Node000004_Node000005"><a xlink:title=" ">
<path fill="none" stroke="#63b8ff" d="M156.71,-46.15C150.72,-37.4 143.86,-27.39 139,-20.3"/>
<polygon fill="#63b8ff" stroke="#63b8ff" points="153.78,-48.07 162.32,-54.35 159.56,-44.12 153.78,-48.07"/>
</a>
</g>
</g>
<!-- Node39 -->
<g id="Node000039" class="node">
<title>Node39</title>
<g id="a_Node000039"><a xlink:href="mat_8cpp.html" target="_top" xlink:title=" ">
<polygon fill="white" stroke="#666666" points="232.25,-20 181,-20 181,0 232.25,0 232.25,-20"/>
<text xml:space="preserve" text-anchor="middle" x="206.62" y="-6.5" font-family="Helvetica,sans-Serif" font-size="10.00">mat.cpp</text>
</a>
</g>
</g>
<!-- Node4&#45;&gt;Node39 -->
<g id="edge5_Node000004_Node000039" class="edge">
<title>Node4&#45;&gt;Node39</title>
<g id="a_edge5_Node000004_Node000039"><a xlink:title=" ">
<path fill="none" stroke="#63b8ff" d="M182.54,-46.15C188.53,-37.4 195.39,-27.39 200.25,-20.3"/>
<polygon fill="#63b8ff" stroke="#63b8ff" points="179.69,-44.12 176.93,-54.35 185.47,-48.07 179.69,-44.12"/>
</a>
</g>
</g>
</g>
</svg>
</svg>

<style type='text/css'>
<![CDATA[
[data-mouse-over-selected='false'] { opacity: 0.7; }
[data-mouse-over-selected='true']  { opacity: 1.0; }
]]>
</style>
<script type="application/ecmascript"><![CDATA[
document.addEventListener('DOMContentLoaded', (event) => {
  highlightEdges();
  highlightAdjacentNodes();
});
]]></script>
</svg>
