<?xml version="1.0" encoding="UTF-8" standalone="no"?>
<!DOCTYPE svg PUBLIC "-//W3C//DTD SVG 1.1//EN"
 "http://www.w3.org/Graphics/SVG/1.1/DTD/svg11.dtd">
<!-- Generated by graphviz version 14.1.2 (20260124.0452)
 -->
<!-- Title: dspm_matrix.h Pages: 1 -->
<svg width="717pt" height="196pt"
 viewBox="0.00 0.00 717.00 196.00" xmlns="http://www.w3.org/2000/svg" xmlns:xlink="http://www.w3.org/1999/xlink">
<g id="graph0" class="graph" transform="scale(1 1) rotate(0) translate(4 192)">
<title>dspm_matrix.h</title>
<!-- Node1 -->
<g id="Node000001" class="node">
<title>Node1</title>
<g id="a_Node000001"><a xlink:title=" ">
<polygon fill="#999999" stroke="#666666" points="333.75,-188 253.25,-188 253.25,-168 333.75,-168 333.75,-188"/>
<text xml:space="preserve" text-anchor="middle" x="293.5" y="-174.5" font-family="Helvetica,sans-Serif" font-size="10.00">dspm_matrix.h</text>
</a>
</g>
</g>
<!-- Node2 -->
<g id="Node000002" class="node">
<title>Node2</title>
<g id="a_Node000002"><a xlink:href="dspm__add_8h.html" target="_top" xlink:title=" ">
<polygon fill="white" stroke="#666666" points="328.12,-132 258.88,-132 258.88,-112 328.12,-112 328.12,-132"/>
<text xml:space="preserve" text-anchor="middle" x="293.5" y="-118.5" font-family="Helvetica,sans-Serif" font-size="10.00">dspm_add.h</text>
</a>
</g>
</g>
<!-- Node1&#45;&gt;Node2 -->
<g id="edge1_Node000001_Node000002" class="edge">
<title>Node1&#45;&gt;Node2</title>
<g id="a_edge1_Node000001_Node000002"><a xlink:title=" ">
<path fill="none" stroke="#63b8ff" d="M293.5,-167.59C293.5,-161.01 293.5,-151.96 293.5,-143.73"/>
<polygon fill="#63b8ff" stroke="#63b8ff" points="297,-143.81 293.5,-133.81 290,-143.81 297,-143.81"/>
</a>
</g>
</g>
<!-- Node10 -->
<g id="Node000010" class="node">
<title>Node10</title>
<g id="a_Node000010"><a xlink:href="dspm__addc_8h.html" target="_top" xlink:title=" ">
<polygon fill="white" stroke="#666666" points="420.75,-132 346.25,-132 346.25,-112 420.75,-112 420.75,-132"/>
<text xml:space="preserve" text-anchor="middle" x="383.5" y="-118.5" font-family="Helvetica,sans-Serif" font-size="10.00">dspm_addc.h</text>
</a>
</g>
</g>
<!-- Node1&#45;&gt;Node10 -->
<g id="edge8_Node000001_Node000010" class="edge">
<title>Node1&#45;&gt;Node10</title>
<g id="a_edge8_Node000001_Node000010"><a xlink:title=" ">
<path fill="none" stroke="#63b8ff" d="M309.18,-167.59C322.64,-159.51 342.32,-147.71 358.04,-138.27"/>
<polygon fill="#63b8ff" stroke="#63b8ff" points="359.63,-141.4 366.4,-133.26 356.03,-135.4 359.63,-141.4"/>
</a>
</g>
</g>
<!-- Node12 -->
<g id="Node000012" class="node">
<title>Node12</title>
<g id="a_Node000012"><a xlink:href="dspm__mult_8h.html" target="_top" xlink:title=" ">
<polygon fill="white" stroke="#666666" points="510.62,-132 438.38,-132 438.38,-112 510.62,-112 510.62,-132"/>
<text xml:space="preserve" text-anchor="middle" x="474.5" y="-118.5" font-family="Helvetica,sans-Serif" font-size="10.00">dspm_mult.h</text>
</a>
</g>
</g>
<!-- Node1&#45;&gt;Node12 -->
<g id="edge12_Node000001_Node000012" class="edge">
<title>Node1&#45;&gt;Node12</title>
<g id="a_edge12_Node000001_Node000012"><a xlink:title=" ">
<path fill="none" stroke="#63b8ff" d="M325.03,-167.59C354.69,-158.74 399.33,-145.43 432.11,-135.65"/>
<polygon fill="#63b8ff" stroke="#63b8ff" points="432.69,-139.13 441.28,-132.91 430.69,-132.42 432.69,-139.13"/>
</a>
</g>
</g>
<!-- Node14 -->
<g id="Node000014" class="node">
<title>Node14</title>
<g id="a_Node000014"><a xlink:href="dspm__mulc_8h.html" target="_top" xlink:title=" ">
<polygon fill="white" stroke="#666666" points="153.75,-132 79.25,-132 79.25,-112 153.75,-112 153.75,-132"/>
<text xml:space="preserve" text-anchor="middle" x="116.5" y="-118.5" font-family="Helvetica,sans-Serif" font-size="10.00">dspm_mulc.h</text>
</a>
</g>
</g>
<!-- Node1&#45;&gt;Node14 -->
<g id="edge16_Node000001_Node000014" class="edge">
<title>Node1&#45;&gt;Node14</title>
<g id="a_edge16_Node000001_Node000014"><a xlink:title=" ">
<path fill="none" stroke="#63b8ff" d="M262.67,-167.59C233.79,-158.78 190.39,-145.54 158.38,-135.78"/>
<polygon fill="#63b8ff" stroke="#63b8ff" points="159.61,-132.49 149.02,-132.92 157.56,-139.19 159.61,-132.49"/>
</a>
</g>
</g>
<!-- Node16 -->
<g id="Node000016" class="node">
<title>Node16</title>
<g id="a_Node000016"><a xlink:href="dspm__sub_8h.html" target="_top" xlink:title=" ">
<polygon fill="white" stroke="#666666" points="241.12,-132 171.88,-132 171.88,-112 241.12,-112 241.12,-132"/>
<text xml:space="preserve" text-anchor="middle" x="206.5" y="-118.5" font-family="Helvetica,sans-Serif" font-size="10.00">dspm_sub.h</text>
</a>
</g>
</g>
<!-- Node1&#45;&gt;Node16 -->
<g id="edge20_Node000001_Node000016" class="edge">
<title>Node1&#45;&gt;Node16</title>
<g id="a_edge20_Node000001_Node000016"><a xlink:title=" ">
<path fill="none" stroke="#63b8ff" d="M278.35,-167.59C265.45,-159.59 246.67,-147.93 231.54,-138.54"/>
<polygon fill="#63b8ff" stroke="#63b8ff" points="233.4,-135.58 223.06,-133.28 229.71,-141.53 233.4,-135.58"/>
</a>
</g>
</g>
<!-- Node3 -->
<g id="Node000003" class="node">
<title>Node3</title>
<g id="a_Node000003"><a xlink:href="dsp__err_8h.html" target="_top" xlink:title=" ">
<polygon fill="white" stroke="#666666" points="189.75,-76 133.25,-76 133.25,-56 189.75,-56 189.75,-76"/>
<text xml:space="preserve" text-anchor="middle" x="161.5" y="-62.5" font-family="Helvetica,sans-Serif" font-size="10.00">dsp_err.h</text>
</a>
</g>
</g>
<!-- Node2&#45;&gt;Node3 -->
<g id="edge2_Node000002_Node000003" class="edge">
<title>Node2&#45;&gt;Node3</title>
<g id="a_edge2_Node000002_Node000003"><a xlink:title=" ">
<path fill="none" stroke="#63b8ff" d="M270.51,-111.59C249.72,-103.09 218.85,-90.46 195.26,-80.81"/>
<polygon fill="#63b8ff" stroke="#63b8ff" points="196.65,-77.6 186.07,-77.05 194,-84.08 196.65,-77.6"/>
</a>
</g>
</g>
<!-- Node8 -->
<g id="Node000008" class="node">
<title>Node8</title>
<g id="a_Node000008"><a xlink:href="dspm__add__platform_8h.html" target="_top" xlink:title=" ">
<polygon fill="white" stroke="#666666" points="445.38,-76 335.62,-76 335.62,-56 445.38,-56 445.38,-76"/>
<text xml:space="preserve" text-anchor="middle" x="390.5" y="-62.5" font-family="Helvetica,sans-Serif" font-size="10.00">dspm_add_platform.h</text>
</a>
</g>
</g>
<!-- Node2&#45;&gt;Node8 -->
<g id="edge6_Node000002_Node000008" class="edge">
<title>Node2&#45;&gt;Node8</title>
<g id="a_edge6_Node000002_Node000008"><a xlink:title=" ">
<path fill="none" stroke="#63b8ff" d="M310.4,-111.59C325.05,-103.44 346.52,-91.48 363.55,-82"/>
<polygon fill="#63b8ff" stroke="#63b8ff" points="365.11,-85.14 372.15,-77.22 361.71,-79.02 365.11,-85.14"/>
</a>
</g>
</g>
<!-- Node4 -->
<g id="Node000004" class="node">
<title>Node4</title>
<g id="a_Node000004"><a xlink:title=" ">
<polygon fill="#e0e0e0" stroke="#999999" points="115.62,-20 67.38,-20 67.38,0 115.62,0 115.62,-20"/>
<text xml:space="preserve" text-anchor="middle" x="91.5" y="-6.5" font-family="Helvetica,sans-Serif" font-size="10.00">stdint.h</text>
</a>
</g>
</g>
<!-- Node3&#45;&gt;Node4 -->
<g id="edge3_Node000003_Node000004" class="edge">
<title>Node3&#45;&gt;Node4</title>
<g id="a_edge3_Node000003_Node000004"><a xlink:title=" ">
<path fill="none" stroke="#63b8ff" d="M149.31,-55.59C139.17,-47.77 124.51,-36.46 112.49,-27.19"/>
<polygon fill="#63b8ff" stroke="#63b8ff" points="114.81,-24.56 104.75,-21.22 110.53,-30.1 114.81,-24.56"/>
</a>
</g>
</g>
<!-- Node5 -->
<g id="Node000005" class="node">
<title>Node5</title>
<g id="a_Node000005"><a xlink:href="esp__err_8h.html" target="_top" xlink:title=" ">
<polygon fill="#fff0f0" stroke="red" points="189.75,-20 133.25,-20 133.25,0 189.75,0 189.75,-20"/>
<text xml:space="preserve" text-anchor="middle" x="161.5" y="-6.5" font-family="Helvetica,sans-Serif" font-size="10.00">esp_err.h</text>
</a>
</g>
</g>
<!-- Node3&#45;&gt;Node5 -->
<g id="edge4_Node000003_Node000005" class="edge">
<title>Node3&#45;&gt;Node5</title>
<g id="a_edge4_Node000003_Node000005"><a xlink:title=" ">
<path fill="none" stroke="#63b8ff" d="M161.5,-55.59C161.5,-49.01 161.5,-39.96 161.5,-31.73"/>
<polygon fill="#63b8ff" stroke="#63b8ff" points="165,-31.81 161.5,-21.81 158,-31.81 165,-31.81"/>
</a>
</g>
</g>
<!-- Node7 -->
<g id="Node000007" class="node">
<title>Node7</title>
<g id="a_Node000007"><a xlink:href="dsp__err__codes_8h.html" target="_top" xlink:title=" ">
<polygon fill="white" stroke="#666666" points="295.5,-20 207.5,-20 207.5,0 295.5,0 295.5,-20"/>
<text xml:space="preserve" text-anchor="middle" x="251.5" y="-6.5" font-family="Helvetica,sans-Serif" font-size="10.00">dsp_err_codes.h</text>
</a>
</g>
</g>
<!-- Node3&#45;&gt;Node7 -->
<g id="edge5_Node000003_Node000007" class="edge">
<title>Node3&#45;&gt;Node7</title>
<g id="a_edge5_Node000003_Node000007"><a xlink:title=" ">
<path fill="none" stroke="#63b8ff" d="M177.18,-55.59C190.64,-47.51 210.32,-35.71 226.04,-26.27"/>
<polygon fill="#63b8ff" stroke="#63b8ff" points="227.63,-29.4 234.4,-21.26 224.03,-23.4 227.63,-29.4"/>
</a>
</g>
</g>
<!-- Node9 -->
<g id="Node000009" class="node">
<title>Node9</title>
<g id="a_Node000009"><a xlink:title=" ">
<polygon fill="#e0e0e0" stroke="#999999" points="423.62,-20 357.38,-20 357.38,0 423.62,0 423.62,-20"/>
<text xml:space="preserve" text-anchor="middle" x="390.5" y="-6.5" font-family="Helvetica,sans-Serif" font-size="10.00">sdkconfig.h</text>
</a>
</g>
</g>
<!-- Node8&#45;&gt;Node9 -->
<g id="edge7_Node000008_Node000009" class="edge">
<title>Node8&#45;&gt;Node9</title>
<g id="a_edge7_Node000008_Node000009"><a xlink:title=" ">
<path fill="none" stroke="#63b8ff" d="M390.5,-55.59C390.5,-49.01 390.5,-39.96 390.5,-31.73"/>
<polygon fill="#63b8ff" stroke="#63b8ff" points="394,-31.81 390.5,-21.81 387,-31.81 394,-31.81"/>
</a>
</g>
</g>
<!-- Node10&#45;&gt;Node3 -->
<g id="edge9_Node000010_Node000003" class="edge">
<title>Node10&#45;&gt;Node3</title>
<g id="a_edge9_Node000010_Node000003"><a xlink:title=" ">
<path fill="none" stroke="#63b8ff" d="M345.84,-111.84C305.67,-102.07 242.31,-86.66 201.33,-76.69"/>
<polygon fill="#63b8ff" stroke="#63b8ff" points="202.16,-73.29 191.62,-74.33 200.51,-80.09 202.16,-73.29"/>
</a>
</g>
</g>
<!-- Node11 -->
<g id="Node000011" class="node">
<title>Node11</title>
<g id="a_Node000011"><a xlink:href="dspm__addc__platform_8h.html" target="_top" xlink:title=" ">
<polygon fill="white" stroke="#666666" points="578,-76 463,-76 463,-56 578,-56 578,-76"/>
<text xml:space="preserve" text-anchor="middle" x="520.5" y="-62.5" font-family="Helvetica,sans-Serif" font-size="10.00">dspm_addc_platform.h</text>
</a>
</g>
</g>
<!-- Node10&#45;&gt;Node11 -->
<g id="edge10_Node000010_Node000011" class="edge">
<title>Node10&#45;&gt;Node11</title>
<g id="a_edge10_Node000010_Node000011"><a xlink:title=" ">
<path fill="none" stroke="#63b8ff" d="M407.36,-111.59C429.04,-103.05 461.27,-90.35 485.79,-80.68"/>
<polygon fill="#63b8ff" stroke="#63b8ff" points="487.02,-83.96 495.04,-77.03 484.46,-77.45 487.02,-83.96"/>
</a>
</g>
</g>
<!-- Node11&#45;&gt;Node9 -->
<g id="edge11_Node000011_Node000009" class="edge">
<title>Node11&#45;&gt;Node9</title>
<g id="a_edge11_Node000011_Node000009"><a xlink:title=" ">
<path fill="none" stroke="#63b8ff" d="M497.86,-55.59C477.38,-47.09 446.98,-34.46 423.75,-24.81"/>
<polygon fill="#63b8ff" stroke="#63b8ff" points="425.3,-21.66 414.72,-21.06 422.61,-28.13 425.3,-21.66"/>
</a>
</g>
</g>
<!-- Node12&#45;&gt;Node3 -->
<g id="edge13_Node000012_Node000003" class="edge">
<title>Node12&#45;&gt;Node3</title>
<g id="a_edge13_Node000012_Node000003"><a xlink:title=" ">
<path fill="none" stroke="#63b8ff" d="M438.18,-113.6C435.24,-113.04 432.32,-112.5 429.5,-112 330.7,-94.43 302.32,-96.15 201.15,-76.4"/>
<polygon fill="#63b8ff" stroke="#63b8ff" points="202.1,-73.02 191.62,-74.51 200.75,-79.88 202.1,-73.02"/>
</a>
</g>
</g>
<!-- Node13 -->
<g id="Node000013" class="node">
<title>Node13</title>
<g id="a_Node000013"><a xlink:href="dspm__mult__platform_8h.html" target="_top" xlink:title=" ">
<polygon fill="white" stroke="#666666" points="708.88,-76 596.12,-76 596.12,-56 708.88,-56 708.88,-76"/>
<text xml:space="preserve" text-anchor="middle" x="652.5" y="-62.5" font-family="Helvetica,sans-Serif" font-size="10.00">dspm_mult_platform.h</text>
</a>
</g>
</g>
<!-- Node12&#45;&gt;Node13 -->
<g id="edge14_Node000012_Node000013" class="edge">
<title>Node12&#45;&gt;Node13</title>
<g id="a_edge14_Node000012_Node000013"><a xlink:title=" ">
<path fill="none" stroke="#63b8ff" d="M505.51,-111.59C534.55,-102.78 578.2,-89.54 610.39,-79.78"/>
<polygon fill="#63b8ff" stroke="#63b8ff" points="611.25,-83.17 619.8,-76.92 609.22,-76.47 611.25,-83.17"/>
</a>
</g>
</g>
<!-- Node13&#45;&gt;Node9 -->
<g id="edge15_Node000013_Node000009" class="edge">
<title>Node13&#45;&gt;Node9</title>
<g id="a_edge15_Node000013_Node000009"><a xlink:title=" ">
<path fill="none" stroke="#63b8ff" d="M606.56,-55.53C558.3,-45.58 482.89,-30.04 435.12,-20.2"/>
<polygon fill="#63b8ff" stroke="#63b8ff" points="435.88,-16.78 425.38,-18.19 434.47,-23.64 435.88,-16.78"/>
</a>
</g>
</g>
<!-- Node14&#45;&gt;Node3 -->
<g id="edge17_Node000014_Node000003" class="edge">
<title>Node14&#45;&gt;Node3</title>
<g id="a_edge17_Node000014_Node000003"><a xlink:title=" ">
<path fill="none" stroke="#63b8ff" d="M124.34,-111.59C130.47,-104.24 139.17,-93.8 146.61,-84.87"/>
<polygon fill="#63b8ff" stroke="#63b8ff" points="149.07,-87.38 152.78,-77.46 143.69,-82.9 149.07,-87.38"/>
</a>
</g>
</g>
<!-- Node15 -->
<g id="Node000015" class="node">
<title>Node15</title>
<g id="a_Node000015"><a xlink:href="dspm__mulc__platform_8h.html" target="_top" xlink:title=" ">
<polygon fill="white" stroke="#666666" points="115,-76 0,-76 0,-56 115,-56 115,-76"/>
<text xml:space="preserve" text-anchor="middle" x="57.5" y="-62.5" font-family="Helvetica,sans-Serif" font-size="10.00">dspm_mulc_platform.h</text>
</a>
</g>
</g>
<!-- Node14&#45;&gt;Node15 -->
<g id="edge18_Node000014_Node000015" class="edge">
<title>Node14&#45;&gt;Node15</title>
<g id="a_edge18_Node000014_Node000015"><a xlink:title=" ">
<path fill="none" stroke="#63b8ff" d="M106.22,-111.59C97.93,-104.01 86.05,-93.13 76.1,-84.02"/>
<polygon fill="#63b8ff" stroke="#63b8ff" points="78.52,-81.49 68.78,-77.32 73.79,-86.65 78.52,-81.49"/>
</a>
</g>
</g>
<!-- Node15&#45;&gt;Node9 -->
<g id="edge19_Node000015_Node000009" class="edge">
<title>Node15&#45;&gt;Node9</title>
<g id="a_edge19_Node000015_Node000009"><a xlink:title=" ">
<path fill="none" stroke="#63b8ff" d="M115.12,-55.66C180.57,-45.04 285.97,-27.95 345.61,-18.28"/>
<polygon fill="#63b8ff" stroke="#63b8ff" points="346.09,-21.75 355.4,-16.69 344.97,-14.84 346.09,-21.75"/>
</a>
</g>
</g>
<!-- Node16&#45;&gt;Node3 -->
<g id="edge21_Node000016_Node000003" class="edge">
<title>Node16&#45;&gt;Node3</title>
<g id="a_edge21_Node000016_Node000003"><a xlink:title=" ">
<path fill="none" stroke="#63b8ff" d="M198.66,-111.59C192.53,-104.24 183.83,-93.8 176.39,-84.87"/>
<polygon fill="#63b8ff" stroke="#63b8ff" points="179.31,-82.9 170.22,-77.46 173.93,-87.38 179.31,-82.9"/>
</a>
</g>
</g>
<!-- Node17 -->
<g id="Node000017" class="node">
<title>Node17</title>
<g id="a_Node000017"><a xlink:href="dspm__sub__platform_8h.html" target="_top" xlink:title=" ">
<polygon fill="white" stroke="#666666" points="317.38,-76 207.62,-76 207.62,-56 317.38,-56 317.38,-76"/>
<text xml:space="preserve" text-anchor="middle" x="262.5" y="-62.5" font-family="Helvetica,sans-Serif" font-size="10.00">dspm_sub_platform.h</text>
</a>
</g>
</g>
<!-- Node16&#45;&gt;Node17 -->
<g id="edge22_Node000016_Node000017" class="edge">
<title>Node16&#45;&gt;Node17</title>
<g id="a_edge22_Node000016_Node000017"><a xlink:title=" ">
<path fill="none" stroke="#63b8ff" d="M216.25,-111.59C224.12,-104.01 235.4,-93.13 244.85,-84.02"/>
<polygon fill="#63b8ff" stroke="#63b8ff" points="247,-86.81 251.77,-77.35 242.14,-81.77 247,-86.81"/>
</a>
</g>
</g>
<!-- Node17&#45;&gt;Node9 -->
<g id="edge23_Node000017_Node000009" class="edge">
<title>Node17&#45;&gt;Node9</title>
<g id="a_edge23_Node000017_Node000009"><a xlink:title=" ">
<path fill="none" stroke="#63b8ff" d="M284.8,-55.59C304.86,-47.13 334.62,-34.58 357.45,-24.94"/>
<polygon fill="#63b8ff" stroke="#63b8ff" points="358.78,-28.18 366.64,-21.07 356.06,-21.73 358.78,-28.18"/>
</a>
</g>
</g>
</g>
</svg>
