<?xml version="1.0" encoding="UTF-8" standalone="no"?>
<!DOCTYPE svg PUBLIC "-//W3C//DTD SVG 1.1//EN"
 "http://www.w3.org/Graphics/SVG/1.1/DTD/svg11.dtd">
<!-- Generated by graphviz version 14.1.2 (20260124.0452)
 -->
<!-- Title: dspm_mult_platform.h Pages: 1 -->
<!--zoomable 196 -->

<svg id="main" version="1.1" xmlns="http://www.w3.org/2000/svg" xmlns:xlink="http://www.w3.org/1999/xlink" xml:space="preserve" onload="init(evt)">

<style type="text/css"><![CDATA[
.node, .edge {opacity: 0.7;}
.node.selected, .edge.selected {opacity: 1;}
.edge:hover path { stroke: red; }
.edge:hover polygon { stroke: red; fill: red; }
]]></style>

<defs>
  <circle id="rim" cx="0" cy="0" r="7"/>
  <circle id="rim2" cx="0" cy="0" r="3.5"/>
  <g id="zoomPlus">
    <use xlink:href="#rim" fill="#404040"><set attributeName="fill" to="#808080" begin="zoomplus.mouseover" end="zoomplus.mouseout"/></use>
    <path d="M-4,0h8M0,-4v8" fill="none" stroke="white" stroke-width="1.5" pointer-events="none"/>
  </g>
  <g id="zoomMin">
    <use xlink:href="#rim" fill="#404040"><set attributeName="fill" to="#808080" begin="zoomminus.mouseover" end="zoomminus.mouseout"/></use>
    <path d="M-4,0h8" fill="none" stroke="white" stroke-width="1.5" pointer-events="none"/>
  </g>
  <g id="arrowUp" transform="translate(30 24)">
    <use xlink:href="#rim"/>
    <path pointer-events="none" fill="none" stroke="white" stroke-width="1.5" d="M0,-3.0v7 M-2.5,-0.5L0,-3.0L2.5,-0.5"/>
  </g>
  <g id="arrowRight" transform="rotate(90) translate(36 -43)">
    <use xlink:href="#rim"/>
    <path pointer-events="none" fill="none" stroke="white" stroke-width="1.5" d="M0,-3.0v7 M-2.5,-0.5L0,-3.0L2.5,-0.5"/>
  </g>
  <g id="arrowDown" transform="rotate(180) translate(-30 -48)">
    <use xlink:href="#rim"/>
    <path pointer-events="none" fill="none" stroke="white" stroke-width="1.5" d="M0,-3.0v7 M-2.5,-0.5L0,-3.0L2.5,-0.5"/>
  </g>
  <g id="arrowLeft" transform="rotate(270) translate(-36 17)">
    <use xlink:href="#rim"/>
    <path pointer-events="none" fill="none" stroke="white" stroke-width="1.5" d="M0,-3.0v7 M-2.5,-0.5L0,-3.0L2.5,-0.5"/>
  </g>
  <g id="resetDef">
    <use xlink:href="#rim2" fill="#404040"><set attributeName="fill" to="#808080" begin="reset.mouseover" end="reset.mouseout"/></use>
  </g>
</defs>
<script type="application/ecmascript">
var viewWidth = 702;
var viewHeight = 196;
var sectionId = 'dynsection-1';
</script>
<script type="application/ecmascript" xlink:href="svg.min.js"/>
<svg id="graph" class="graph">
<g id="viewport">
<title>dspm_mult_platform.h</title>
<!-- Node1 -->
<g id="Node000001" class="node">
<title>Node1</title>
<g id="a_Node000001"><a xlink:title=" ">
<polygon fill="#999999" stroke="#666666" points="452.88,-188 340.12,-188 340.12,-168 452.88,-168 452.88,-188"/>
<text xml:space="preserve" text-anchor="middle" x="396.5" y="-174.5" font-family="Helvetica,sans-Serif" font-size="10.00">dspm_mult_platform.h</text>
</a>
</g>
</g>
<!-- Node2 -->
<g id="Node000002" class="node">
<title>Node2</title>
<g id="a_Node000002"><a xlink:href="dspm__mult_8h.html" target="_top" xlink:title=" ">
<polygon fill="white" stroke="#666666" points="432.62,-132 360.38,-132 360.38,-112 432.62,-112 432.62,-132"/>
<text xml:space="preserve" text-anchor="middle" x="396.5" y="-118.5" font-family="Helvetica,sans-Serif" font-size="10.00">dspm_mult.h</text>
</a>
</g>
</g>
<!-- Node1&#45;&gt;Node2 -->
<g id="edge1_Node000001_Node000002" class="edge">
<title>Node1&#45;&gt;Node2</title>
<g id="a_edge1_Node000001_Node000002"><a xlink:title=" ">
<path fill="none" stroke="#63b8ff" d="M396.5,-156.13C396.5,-147.9 396.5,-138.85 396.5,-132.3"/>
<polygon fill="#63b8ff" stroke="#63b8ff" points="393,-156.08 396.5,-166.08 400,-156.08 393,-156.08"/>
</a>
</g>
</g>
<!-- Node3 -->
<g id="Node000003" class="node">
<title>Node3</title>
<g id="a_Node000003"><a xlink:href="dspm__matrix_8h.html" target="_top" xlink:title=" ">
<polygon fill="white" stroke="#666666" points="107.75,-76 27.25,-76 27.25,-56 107.75,-56 107.75,-76"/>
<text xml:space="preserve" text-anchor="middle" x="67.5" y="-62.5" font-family="Helvetica,sans-Serif" font-size="10.00">dspm_matrix.h</text>
</a>
</g>
</g>
<!-- Node2&#45;&gt;Node3 -->
<g id="edge2_Node000002_Node000003" class="edge">
<title>Node2&#45;&gt;Node3</title>
<g id="a_edge2_Node000002_Node000003"><a xlink:title=" ">
<path fill="none" stroke="#63b8ff" d="M348.93,-113.69C293.18,-105.04 198.04,-90.04 116.5,-76 113.77,-75.53 110.96,-75.04 108.13,-74.53"/>
<polygon fill="#63b8ff" stroke="#63b8ff" points="348.3,-117.13 358.72,-115.2 349.37,-110.21 348.3,-117.13"/>
</a>
</g>
</g>
<!-- Node39 -->
<g id="Node000039" class="node">
<title>Node39</title>
<g id="a_Node000039"><a xlink:href="dspm__mult__ex__f32__ansi_8c.html" target="_top" xlink:title=" ">
<polygon fill="white" stroke="#666666" points="255.5,-76 125.5,-76 125.5,-56 255.5,-56 255.5,-76"/>
<text xml:space="preserve" text-anchor="middle" x="190.5" y="-62.5" font-family="Helvetica,sans-Serif" font-size="10.00">dspm_mult_ex_f32_ansi.c</text>
</a>
</g>
</g>
<!-- Node2&#45;&gt;Node39 -->
<g id="edge5_Node000002_Node000039" class="edge">
<title>Node2&#45;&gt;Node39</title>
<g id="a_edge5_Node000002_Node000039"><a xlink:title=" ">
<path fill="none" stroke="#63b8ff" d="M349.53,-108.69C312.22,-98.91 260.81,-85.43 226.66,-76.48"/>
<polygon fill="#63b8ff" stroke="#63b8ff" points="348.59,-112.06 359.15,-111.21 350.37,-105.29 348.59,-112.06"/>
</a>
</g>
</g>
<!-- Node40 -->
<g id="Node000040" class="node">
<title>Node40</title>
<g id="a_Node000040"><a xlink:href="dspm__mult__f32__ansi_8c.html" target="_top" xlink:title=" ">
<polygon fill="white" stroke="#666666" points="387.62,-76 273.38,-76 273.38,-56 387.62,-56 387.62,-76"/>
<text xml:space="preserve" text-anchor="middle" x="330.5" y="-62.5" font-family="Helvetica,sans-Serif" font-size="10.00">dspm_mult_f32_ansi.c</text>
</a>
</g>
</g>
<!-- Node2&#45;&gt;Node40 -->
<g id="edge6_Node000002_Node000040" class="edge">
<title>Node2&#45;&gt;Node40</title>
<g id="a_edge6_Node000002_Node000040"><a xlink:title=" ">
<path fill="none" stroke="#63b8ff" d="M376.21,-104.4C364.92,-95.17 351.29,-84.01 341.86,-76.3"/>
<polygon fill="#63b8ff" stroke="#63b8ff" points="373.88,-107.01 383.83,-110.64 378.31,-101.59 373.88,-107.01"/>
</a>
</g>
</g>
<!-- Node41 -->
<g id="Node000041" class="node">
<title>Node41</title>
<g id="a_Node000041"><a xlink:href="dspm__mult__s16__ansi_8c.html" target="_top" xlink:title=" ">
<polygon fill="white" stroke="#666666" points="521.75,-76 405.25,-76 405.25,-56 521.75,-56 521.75,-76"/>
<text xml:space="preserve" text-anchor="middle" x="463.5" y="-62.5" font-family="Helvetica,sans-Serif" font-size="10.00">dspm_mult_s16_ansi.c</text>
</a>
</g>
</g>
<!-- Node2&#45;&gt;Node41 -->
<g id="edge7_Node000002_Node000041" class="edge">
<title>Node2&#45;&gt;Node41</title>
<g id="a_edge7_Node000002_Node000041"><a xlink:title=" ">
<path fill="none" stroke="#63b8ff" d="M417.09,-104.4C428.55,-95.17 442.4,-84.01 451.96,-76.3"/>
<polygon fill="#63b8ff" stroke="#63b8ff" points="414.94,-101.64 409.35,-110.64 419.33,-107.09 414.94,-101.64"/>
</a>
</g>
</g>
<!-- Node42 -->
<g id="Node000042" class="node">
<title>Node42</title>
<g id="a_Node000042"><a xlink:href="test__fft2r_8c.html" target="_top" xlink:title=" ">
<polygon fill="white" stroke="#666666" points="602.75,-76 540.25,-76 540.25,-56 602.75,-56 602.75,-76"/>
<text xml:space="preserve" text-anchor="middle" x="571.5" y="-62.5" font-family="Helvetica,sans-Serif" font-size="10.00">test_fft2r.c</text>
</a>
</g>
</g>
<!-- Node2&#45;&gt;Node42 -->
<g id="edge8_Node000002_Node000042" class="edge">
<title>Node2&#45;&gt;Node42</title>
<g id="a_edge8_Node000002_Node000042"><a xlink:title=" ">
<path fill="none" stroke="#63b8ff" d="M437.64,-108.31C469.23,-98.56 512.14,-85.32 540.78,-76.48"/>
<polygon fill="#63b8ff" stroke="#63b8ff" points="436.95,-104.85 428.43,-111.15 439.02,-111.54 436.95,-104.85"/>
</a>
</g>
</g>
<!-- Node43 -->
<g id="Node000043" class="node">
<title>Node43</title>
<g id="a_Node000043"><a xlink:href="test__mmult_8c.html" target="_top" xlink:title=" ">
<polygon fill="white" stroke="#666666" points="694,-76 621,-76 621,-56 694,-56 694,-76"/>
<text xml:space="preserve" text-anchor="middle" x="657.5" y="-62.5" font-family="Helvetica,sans-Serif" font-size="10.00">test_mmult.c</text>
</a>
</g>
</g>
<!-- Node2&#45;&gt;Node43 -->
<g id="edge9_Node000002_Node000043" class="edge">
<title>Node2&#45;&gt;Node43</title>
<g id="a_edge9_Node000002_Node000043"><a xlink:title=" ">
<path fill="none" stroke="#63b8ff" d="M444.09,-111.15C494.95,-100.63 574.51,-84.17 620.76,-74.6"/>
<polygon fill="#63b8ff" stroke="#63b8ff" points="443.63,-107.67 434.55,-113.13 445.05,-114.53 443.63,-107.67"/>
</a>
</g>
</g>
<!-- Node4 -->
<g id="Node000004" class="node">
<title>Node4</title>
<g id="a_Node000004"><a xlink:href="esp__dsp_8h.html" target="_top" xlink:title=" ">
<polygon fill="#fff0f0" stroke="red" points="61,-20 0,-20 0,0 61,0 61,-20"/>
<text xml:space="preserve" text-anchor="middle" x="30.5" y="-6.5" font-family="Helvetica,sans-Serif" font-size="10.00">esp_dsp.h</text>
</a>
</g>
</g>
<!-- Node3&#45;&gt;Node4 -->
<g id="edge3_Node000003_Node000004" class="edge">
<title>Node3&#45;&gt;Node4</title>
<g id="a_edge3_Node000003_Node000004"><a xlink:title=" ">
<path fill="none" stroke="#63b8ff" d="M54.59,-46.15C48.59,-37.4 41.73,-27.39 36.87,-20.3"/>
<polygon fill="#63b8ff" stroke="#63b8ff" points="51.66,-48.07 60.2,-54.35 57.43,-44.12 51.66,-48.07"/>
</a>
</g>
</g>
<!-- Node38 -->
<g id="Node000038" class="node">
<title>Node38</title>
<g id="a_Node000038"><a xlink:href="mat_8cpp.html" target="_top" xlink:title=" ">
<polygon fill="white" stroke="#666666" points="130.12,-20 78.88,-20 78.88,0 130.12,0 130.12,-20"/>
<text xml:space="preserve" text-anchor="middle" x="104.5" y="-6.5" font-family="Helvetica,sans-Serif" font-size="10.00">mat.cpp</text>
</a>
</g>
</g>
<!-- Node3&#45;&gt;Node38 -->
<g id="edge4_Node000003_Node000038" class="edge">
<title>Node3&#45;&gt;Node38</title>
<g id="a_edge4_Node000003_Node000038"><a xlink:title=" ">
<path fill="none" stroke="#63b8ff" d="M80.41,-46.15C86.41,-37.4 93.27,-27.39 98.13,-20.3"/>
<polygon fill="#63b8ff" stroke="#63b8ff" points="77.57,-44.12 74.8,-54.35 83.34,-48.07 77.57,-44.12"/>
</a>
</g>
</g>
</g>
</svg>

<g id="navigator" transform="translate(0 0)" fill="#404254">
  <rect fill="#f2f5e9" fill-opacity="0.5" stroke="#606060" stroke-width=".5" x="0" y="0" width="60" height="60"/>
  <use id="zoomplus" xlink:href="#zoomPlus" x="17" y="9" onmousedown="handleZoom(evt,'in')"/>
  <use id="zoomminus" xlink:href="#zoomMin" x="42" y="9" onmousedown="handleZoom(evt,'out')"/>
  <use id="reset" xlink:href="#resetDef" x="30" y="36" onmousedown="handleReset()"/>
   <use id="arrowup" xlink:href="#arrowUp" x="0" y="0" onmousedown="handlePan(0,-1)"/>
  <use id="arrowright" xlink:href="#arrowRight" x="0" y="0" onmousedown="handlePan(1,0)"/>
  <use id="arrowdown" xlink:href="#arrowDown" x="0" y="0" onmousedown="handlePan(0,1)"/>
  <use id="arrowleft" xlink:href="#arrowLeft" x="0" y="0" onmousedown="handlePan(-1,0)"/>
</g>
<svg viewBox="0 0 15 15" width="100%" height="30px" preserveAspectRatio="xMaxYMin meet">
 <g id="arrow_out" transform="scale(0.3 0.3)">
  <a xlink:href="dspm__mult__platform_8h__dep__incl_org.svg" target="_base">
   <rect id="button" ry="5" rx="5" y="6" x="6" height="38" width="38"
        fill="#f2f5e9" fill-opacity="0.5" stroke="#606060" stroke-width="1.0"/>
   <path id="arrow"
     d="M 11.500037,31.436501 C 11.940474,20.09759 22.043105,11.32322 32.158766,21.979434 L 37.068811,17.246167 C 37.068811,17.246167 37.088388,32 37.088388,32 L 22.160133,31.978069 C 22.160133,31.978069 26.997745,27.140456 26.997745,27.140456 C 18.528582,18.264221 13.291696,25.230495 11.500037,31.436501 z"
     style="fill:#404040;"/>
  </a>
 </g>
</svg>

<style type='text/css'>
<![CDATA[
[data-mouse-over-selected='false'] { opacity: 0.7; }
[data-mouse-over-selected='true']  { opacity: 1.0; }
]]>
</style>
<script type="application/ecmascript"><![CDATA[
document.addEventListener('DOMContentLoaded', (event) => {
  highlightEdges();
  highlightAdjacentNodes();
});
]]></script>
</svg>
