<?xml version="1.0" encoding="UTF-8" standalone="no"?>
<!DOCTYPE svg PUBLIC "-//W3C//DTD SVG 1.1//EN"
 "http://www.w3.org/Graphics/SVG/1.1/DTD/svg11.dtd">
<!-- Generated by graphviz version 14.1.2 (20260124.0452)
 -->
<!-- Title: dspm_sub_platform.h Pages: 1 -->
<svg width="245pt" height="196pt"
 viewBox="0.00 0.00 245.00 196.00" xmlns="http://www.w3.org/2000/svg" xmlns:xlink="http://www.w3.org/1999/xlink">
<g id="graph0" class="graph" transform="scale(1 1) rotate(0) translate(4 192)">
<title>dspm_sub_platform.h</title>
<!-- Node1 -->
<g id="Node000001" class="node">
<title>Node1</title>
<g id="a_Node000001"><a xlink:title=" ">
<polygon fill="#999999" stroke="#666666" points="179.38,-188 69.62,-188 69.62,-168 179.38,-168 179.38,-188"/>
<text xml:space="preserve" text-anchor="middle" x="124.5" y="-174.5" font-family="Helvetica,sans-Serif" font-size="10.00">dspm_sub_platform.h</text>
</a>
</g>
</g>
<!-- Node2 -->
<g id="Node000002" class="node">
<title>Node2</title>
<g id="a_Node000002"><a xlink:href="dspm__sub_8h.html" target="_top" xlink:title=" ">
<polygon fill="white" stroke="#666666" points="159.12,-132 89.88,-132 89.88,-112 159.12,-112 159.12,-132"/>
<text xml:space="preserve" text-anchor="middle" x="124.5" y="-118.5" font-family="Helvetica,sans-Serif" font-size="10.00">dspm_sub.h</text>
</a>
</g>
</g>
<!-- Node1&#45;&gt;Node2 -->
<g id="edge1_Node000001_Node000002" class="edge">
<title>Node1&#45;&gt;Node2</title>
<g id="a_edge1_Node000001_Node000002"><a xlink:title=" ">
<path fill="none" stroke="#63b8ff" d="M124.5,-156.13C124.5,-147.9 124.5,-138.85 124.5,-132.3"/>
<polygon fill="#63b8ff" stroke="#63b8ff" points="121,-156.08 124.5,-166.08 128,-156.08 121,-156.08"/>
</a>
</g>
</g>
<!-- Node3 -->
<g id="Node000003" class="node">
<title>Node3</title>
<g id="a_Node000003"><a xlink:href="dspm__matrix_8h.html" target="_top" xlink:title=" ">
<polygon fill="white" stroke="#666666" points="107.75,-76 27.25,-76 27.25,-56 107.75,-56 107.75,-76"/>
<text xml:space="preserve" text-anchor="middle" x="67.5" y="-62.5" font-family="Helvetica,sans-Serif" font-size="10.00">dspm_matrix.h</text>
</a>
</g>
</g>
<!-- Node2&#45;&gt;Node3 -->
<g id="edge2_Node000002_Node000003" class="edge">
<title>Node2&#45;&gt;Node3</title>
<g id="a_edge2_Node000002_Node000003"><a xlink:title=" ">
<path fill="none" stroke="#63b8ff" d="M106.39,-103.85C96.76,-94.72 85.29,-83.86 77.31,-76.3"/>
<polygon fill="#63b8ff" stroke="#63b8ff" points="103.81,-106.22 113.47,-110.55 108.62,-101.13 103.81,-106.22"/>
</a>
</g>
</g>
<!-- Node39 -->
<g id="Node000039" class="node">
<title>Node39</title>
<g id="a_Node000039"><a xlink:href="dspm__sub__f32__ansi_8c.html" target="_top" xlink:title=" ">
<polygon fill="white" stroke="#666666" points="237.12,-76 125.88,-76 125.88,-56 237.12,-56 237.12,-76"/>
<text xml:space="preserve" text-anchor="middle" x="181.5" y="-62.5" font-family="Helvetica,sans-Serif" font-size="10.00">dspm_sub_f32_ansi.c</text>
</a>
</g>
</g>
<!-- Node2&#45;&gt;Node39 -->
<g id="edge5_Node000002_Node000039" class="edge">
<title>Node2&#45;&gt;Node39</title>
<g id="a_edge5_Node000002_Node000039"><a xlink:title=" ">
<path fill="none" stroke="#63b8ff" d="M142.61,-103.85C152.24,-94.72 163.71,-83.86 171.69,-76.3"/>
<polygon fill="#63b8ff" stroke="#63b8ff" points="140.38,-101.13 135.53,-110.55 145.19,-106.22 140.38,-101.13"/>
</a>
</g>
</g>
<!-- Node4 -->
<g id="Node000004" class="node">
<title>Node4</title>
<g id="a_Node000004"><a xlink:href="esp__dsp_8h.html" target="_top" xlink:title=" ">
<polygon fill="#fff0f0" stroke="red" points="61,-20 0,-20 0,0 61,0 61,-20"/>
<text xml:space="preserve" text-anchor="middle" x="30.5" y="-6.5" font-family="Helvetica,sans-Serif" font-size="10.00">esp_dsp.h</text>
</a>
</g>
</g>
<!-- Node3&#45;&gt;Node4 -->
<g id="edge3_Node000003_Node000004" class="edge">
<title>Node3&#45;&gt;Node4</title>
<g id="a_edge3_Node000003_Node000004"><a xlink:title=" ">
<path fill="none" stroke="#63b8ff" d="M54.59,-46.15C48.59,-37.4 41.73,-27.39 36.87,-20.3"/>
<polygon fill="#63b8ff" stroke="#63b8ff" points="51.66,-48.07 60.2,-54.35 57.43,-44.12 51.66,-48.07"/>
</a>
</g>
</g>
<!-- Node38 -->
<g id="Node000038" class="node">
<title>Node38</title>
<g id="a_Node000038"><a xlink:href="mat_8cpp.html" target="_top" xlink:title=" ">
<polygon fill="white" stroke="#666666" points="130.12,-20 78.88,-20 78.88,0 130.12,0 130.12,-20"/>
<text xml:space="preserve" text-anchor="middle" x="104.5" y="-6.5" font-family="Helvetica,sans-Serif" font-size="10.00">mat.cpp</text>
</a>
</g>
</g>
<!-- Node3&#45;&gt;Node38 -->
<g id="edge4_Node000003_Node000038" class="edge">
<title>Node3&#45;&gt;Node38</title>
<g id="a_edge4_Node000003_Node000038"><a xlink:title=" ">
<path fill="none" stroke="#63b8ff" d="M80.41,-46.15C86.41,-37.4 93.27,-27.39 98.13,-20.3"/>
<polygon fill="#63b8ff" stroke="#63b8ff" points="77.57,-44.12 74.8,-54.35 83.34,-48.07 77.57,-44.12"/>
</a>
</g>
</g>
</g>
</svg>
