<?xml version="1.0" encoding="UTF-8" standalone="no"?>
<!DOCTYPE svg PUBLIC "-//W3C//DTD SVG 1.1//EN"
 "http://www.w3.org/Graphics/SVG/1.1/DTD/svg11.dtd">
<!-- Generated by graphviz version 14.1.2 (20260124.0452)
 -->
<!-- Title: dspm_addc_platform.h Pages: 1 -->
<svg width="246pt" height="196pt"
 viewBox="0.00 0.00 246.00 196.00" xmlns="http://www.w3.org/2000/svg" xmlns:xlink="http://www.w3.org/1999/xlink">

<svg id="main" version="1.1" xmlns="http://www.w3.org/2000/svg" xmlns:xlink="http://www.w3.org/1999/xlink" xml:space="preserve">

<style type="text/css"><![CDATA[
.node, .edge {opacity: 0.7;}
.node.selected, .edge.selected {opacity: 1;}
.edge:hover path { stroke: red; }
.edge:hover polygon { stroke: red; fill: red; }
]]></style>
<script type="application/ecmascript" xlink:href="svg.min.js"/>
<svg id="graph" class="graph">
<g id="graph0" class="graph" transform="scale(1 1) rotate(0) translate(4 192)">
<title>dspm_addc_platform.h</title>
<!-- Node1 -->
<g id="Node000001" class="node">
<title>Node1</title>
<g id="a_Node000001"><a xlink:title=" ">
<polygon fill="#999999" stroke="#666666" points="173.75,-188 58.75,-188 58.75,-168 173.75,-168 173.75,-188"/>
<text xml:space="preserve" text-anchor="middle" x="116.25" y="-174.5" font-family="Helvetica,sans-Serif" font-size="10.00">dspm_addc_platform.h</text>
</a>
</g>
</g>
<!-- Node2 -->
<g id="Node000002" class="node">
<title>Node2</title>
<g id="a_Node000002"><a xlink:href="dspm__addc_8h.html" target="_top" xlink:title=" ">
<polygon fill="white" stroke="#666666" points="153.5,-132 79,-132 79,-112 153.5,-112 153.5,-132"/>
<text xml:space="preserve" text-anchor="middle" x="116.25" y="-118.5" font-family="Helvetica,sans-Serif" font-size="10.00">dspm_addc.h</text>
</a>
</g>
</g>
<!-- Node1&#45;&gt;Node2 -->
<g id="edge1_Node000001_Node000002" class="edge">
<title>Node1&#45;&gt;Node2</title>
<g id="a_edge1_Node000001_Node000002"><a xlink:title=" ">
<path fill="none" stroke="#63b8ff" d="M116.25,-156.13C116.25,-147.9 116.25,-138.85 116.25,-132.3"/>
<polygon fill="#63b8ff" stroke="#63b8ff" points="112.75,-156.08 116.25,-166.08 119.75,-156.08 112.75,-156.08"/>
</a>
</g>
</g>
<!-- Node3 -->
<g id="Node000003" class="node">
<title>Node3</title>
<g id="a_Node000003"><a xlink:href="dspm__addc__f32__ansi_8c.html" target="_top" xlink:title=" ">
<polygon fill="white" stroke="#666666" points="116.5,-76 0,-76 0,-56 116.5,-56 116.5,-76"/>
<text xml:space="preserve" text-anchor="middle" x="58.25" y="-62.5" font-family="Helvetica,sans-Serif" font-size="10.00">dspm_addc_f32_ansi.c</text>
</a>
</g>
</g>
<!-- Node2&#45;&gt;Node3 -->
<g id="edge2_Node000002_Node000003" class="edge">
<title>Node2&#45;&gt;Node3</title>
<g id="a_edge2_Node000002_Node000003"><a xlink:title=" ">
<path fill="none" stroke="#63b8ff" d="M97.83,-103.85C88.02,-94.72 76.35,-83.86 68.24,-76.3"/>
<polygon fill="#63b8ff" stroke="#63b8ff" points="95.34,-106.31 105.04,-110.56 100.11,-101.19 95.34,-106.31"/>
</a>
</g>
</g>
<!-- Node4 -->
<g id="Node000004" class="node">
<title>Node4</title>
<g id="a_Node000004"><a xlink:href="dspm__matrix_8h.html" target="_top" xlink:title=" ">
<polygon fill="white" stroke="#666666" points="215.5,-76 135,-76 135,-56 215.5,-56 215.5,-76"/>
<text xml:space="preserve" text-anchor="middle" x="175.25" y="-62.5" font-family="Helvetica,sans-Serif" font-size="10.00">dspm_matrix.h</text>
</a>
</g>
</g>
<!-- Node2&#45;&gt;Node4 -->
<g id="edge3_Node000002_Node000004" class="edge">
<title>Node2&#45;&gt;Node4</title>
<g id="a_edge3_Node000002_Node000004"><a xlink:title=" ">
<path fill="none" stroke="#63b8ff" d="M134.99,-103.85C144.96,-94.72 156.83,-83.86 165.09,-76.3"/>
<polygon fill="#63b8ff" stroke="#63b8ff" points="132.66,-101.24 127.64,-110.57 137.38,-106.4 132.66,-101.24"/>
</a>
</g>
</g>
<!-- Node5 -->
<g id="Node000005" class="node">
<title>Node5</title>
<g id="a_Node000005"><a xlink:href="esp__dsp_8h.html" target="_top" xlink:title=" ">
<polygon fill="#fff0f0" stroke="red" points="168.75,-20 107.75,-20 107.75,0 168.75,0 168.75,-20"/>
<text xml:space="preserve" text-anchor="middle" x="138.25" y="-6.5" font-family="Helvetica,sans-Serif" font-size="10.00">esp_dsp.h</text>
</a>
</g>
</g>
<!-- Node4&#45;&gt;Node5 -->
<g id="edge4_Node000004_Node000005" class="edge">
<title>Node4&#45;&gt;Node5</title>
<g id="a_edge4_Node000004_Node000005"><a xlink:title=" ">
<path fill="none" stroke="#63b8ff" d="M162.34,-46.15C156.34,-37.4 149.48,-27.39 144.62,-20.3"/>
<polygon fill="#63b8ff" stroke="#63b8ff" points="159.41,-48.07 167.95,-54.35 165.18,-44.12 159.41,-48.07"/>
</a>
</g>
</g>
<!-- Node39 -->
<g id="Node000039" class="node">
<title>Node39</title>
<g id="a_Node000039"><a xlink:href="mat_8cpp.html" target="_top" xlink:title=" ">
<polygon fill="white" stroke="#666666" points="237.88,-20 186.62,-20 186.62,0 237.88,0 237.88,-20"/>
<text xml:space="preserve" text-anchor="middle" x="212.25" y="-6.5" font-family="Helvetica,sans-Serif" font-size="10.00">mat.cpp</text>
</a>
</g>
</g>
<!-- Node4&#45;&gt;Node39 -->
<g id="edge5_Node000004_Node000039" class="edge">
<title>Node4&#45;&gt;Node39</title>
<g id="a_edge5_Node000004_Node000039"><a xlink:title=" ">
<path fill="none" stroke="#63b8ff" d="M188.16,-46.15C194.16,-37.4 201.02,-27.39 205.88,-20.3"/>
<polygon fill="#63b8ff" stroke="#63b8ff" points="185.32,-44.12 182.55,-54.35 191.09,-48.07 185.32,-44.12"/>
</a>
</g>
</g>
</g>
</svg>
</svg>

<style type='text/css'>
<![CDATA[
[data-mouse-over-selected='false'] { opacity: 0.7; }
[data-mouse-over-selected='true']  { opacity: 1.0; }
]]>
</style>
<script type="application/ecmascript"><![CDATA[
document.addEventListener('DOMContentLoaded', (event) => {
  highlightEdges();
  highlightAdjacentNodes();
});
]]></script>
</svg>
