<?xml version="1.0" encoding="UTF-8" standalone="no"?>
<!DOCTYPE svg PUBLIC "-//W3C//DTD SVG 1.1//EN"
 "http://www.w3.org/Graphics/SVG/1.1/DTD/svg11.dtd">
<!-- Generated by graphviz version 14.1.2 (20260124.0452)
 -->
<!-- Title: dspm_mulc_platform.h Pages: 1 -->
<svg width="251pt" height="196pt"
 viewBox="0.00 0.00 251.00 196.00" xmlns="http://www.w3.org/2000/svg" xmlns:xlink="http://www.w3.org/1999/xlink">

<svg id="main" version="1.1" xmlns="http://www.w3.org/2000/svg" xmlns:xlink="http://www.w3.org/1999/xlink" xml:space="preserve">

<style type="text/css"><![CDATA[
.node, .edge {opacity: 0.7;}
.node.selected, .edge.selected {opacity: 1;}
.edge:hover path { stroke: red; }
.edge:hover polygon { stroke: red; fill: red; }
]]></style>
<script type="application/ecmascript" xlink:href="svg.min.js"/>
<svg id="graph" class="graph">
<g id="graph0" class="graph" transform="scale(1 1) rotate(0) translate(4 192)">
<title>dspm_mulc_platform.h</title>
<!-- Node1 -->
<g id="Node000001" class="node">
<title>Node1</title>
<g id="a_Node000001"><a xlink:title=" ">
<polygon fill="#999999" stroke="#666666" points="183,-188 68,-188 68,-168 183,-168 183,-188"/>
<text xml:space="preserve" text-anchor="middle" x="125.5" y="-174.5" font-family="Helvetica,sans-Serif" font-size="10.00">dspm_mulc_platform.h</text>
</a>
</g>
</g>
<!-- Node2 -->
<g id="Node000002" class="node">
<title>Node2</title>
<g id="a_Node000002"><a xlink:href="dspm__mulc_8h.html" target="_top" xlink:title=" ">
<polygon fill="white" stroke="#666666" points="162.75,-132 88.25,-132 88.25,-112 162.75,-112 162.75,-132"/>
<text xml:space="preserve" text-anchor="middle" x="125.5" y="-118.5" font-family="Helvetica,sans-Serif" font-size="10.00">dspm_mulc.h</text>
</a>
</g>
</g>
<!-- Node1&#45;&gt;Node2 -->
<g id="edge1_Node000001_Node000002" class="edge">
<title>Node1&#45;&gt;Node2</title>
<g id="a_edge1_Node000001_Node000002"><a xlink:title=" ">
<path fill="none" stroke="#63b8ff" d="M125.5,-156.13C125.5,-147.9 125.5,-138.85 125.5,-132.3"/>
<polygon fill="#63b8ff" stroke="#63b8ff" points="122,-156.08 125.5,-166.08 129,-156.08 122,-156.08"/>
</a>
</g>
</g>
<!-- Node3 -->
<g id="Node000003" class="node">
<title>Node3</title>
<g id="a_Node000003"><a xlink:href="dspm__matrix_8h.html" target="_top" xlink:title=" ">
<polygon fill="white" stroke="#666666" points="107.75,-76 27.25,-76 27.25,-56 107.75,-56 107.75,-76"/>
<text xml:space="preserve" text-anchor="middle" x="67.5" y="-62.5" font-family="Helvetica,sans-Serif" font-size="10.00">dspm_matrix.h</text>
</a>
</g>
</g>
<!-- Node2&#45;&gt;Node3 -->
<g id="edge2_Node000002_Node000003" class="edge">
<title>Node2&#45;&gt;Node3</title>
<g id="a_edge2_Node000002_Node000003"><a xlink:title=" ">
<path fill="none" stroke="#63b8ff" d="M107.08,-103.85C97.27,-94.72 85.6,-83.86 77.49,-76.3"/>
<polygon fill="#63b8ff" stroke="#63b8ff" points="104.59,-106.31 114.29,-110.56 109.36,-101.19 104.59,-106.31"/>
</a>
</g>
</g>
<!-- Node39 -->
<g id="Node000039" class="node">
<title>Node39</title>
<g id="a_Node000039"><a xlink:href="dspm__mulc__f32__ansi_8c.html" target="_top" xlink:title=" ">
<polygon fill="white" stroke="#666666" points="242.75,-76 126.25,-76 126.25,-56 242.75,-56 242.75,-76"/>
<text xml:space="preserve" text-anchor="middle" x="184.5" y="-62.5" font-family="Helvetica,sans-Serif" font-size="10.00">dspm_mulc_f32_ansi.c</text>
</a>
</g>
</g>
<!-- Node2&#45;&gt;Node39 -->
<g id="edge5_Node000002_Node000039" class="edge">
<title>Node2&#45;&gt;Node39</title>
<g id="a_edge5_Node000002_Node000039"><a xlink:title=" ">
<path fill="none" stroke="#63b8ff" d="M144.24,-103.85C154.21,-94.72 166.08,-83.86 174.34,-76.3"/>
<polygon fill="#63b8ff" stroke="#63b8ff" points="141.91,-101.24 136.89,-110.57 146.63,-106.4 141.91,-101.24"/>
</a>
</g>
</g>
<!-- Node4 -->
<g id="Node000004" class="node">
<title>Node4</title>
<g id="a_Node000004"><a xlink:href="esp__dsp_8h.html" target="_top" xlink:title=" ">
<polygon fill="#fff0f0" stroke="red" points="61,-20 0,-20 0,0 61,0 61,-20"/>
<text xml:space="preserve" text-anchor="middle" x="30.5" y="-6.5" font-family="Helvetica,sans-Serif" font-size="10.00">esp_dsp.h</text>
</a>
</g>
</g>
<!-- Node3&#45;&gt;Node4 -->
<g id="edge3_Node000003_Node000004" class="edge">
<title>Node3&#45;&gt;Node4</title>
<g id="a_edge3_Node000003_Node000004"><a xlink:title=" ">
<path fill="none" stroke="#63b8ff" d="M54.59,-46.15C48.59,-37.4 41.73,-27.39 36.87,-20.3"/>
<polygon fill="#63b8ff" stroke="#63b8ff" points="51.66,-48.07 60.2,-54.35 57.43,-44.12 51.66,-48.07"/>
</a>
</g>
</g>
<!-- Node38 -->
<g id="Node000038" class="node">
<title>Node38</title>
<g id="a_Node000038"><a xlink:href="mat_8cpp.html" target="_top" xlink:title=" ">
<polygon fill="white" stroke="#666666" points="130.12,-20 78.88,-20 78.88,0 130.12,0 130.12,-20"/>
<text xml:space="preserve" text-anchor="middle" x="104.5" y="-6.5" font-family="Helvetica,sans-Serif" font-size="10.00">mat.cpp</text>
</a>
</g>
</g>
<!-- Node3&#45;&gt;Node38 -->
<g id="edge4_Node000003_Node000038" class="edge">
<title>Node3&#45;&gt;Node38</title>
<g id="a_edge4_Node000003_Node000038"><a xlink:title=" ">
<path fill="none" stroke="#63b8ff" d="M80.41,-46.15C86.41,-37.4 93.27,-27.39 98.13,-20.3"/>
<polygon fill="#63b8ff" stroke="#63b8ff" points="77.57,-44.12 74.8,-54.35 83.34,-48.07 77.57,-44.12"/>
</a>
</g>
</g>
</g>
</svg>
</svg>

<style type='text/css'>
<![CDATA[
[data-mouse-over-selected='false'] { opacity: 0.7; }
[data-mouse-over-selected='true']  { opacity: 1.0; }
]]>
</style>
<script type="application/ecmascript"><![CDATA[
document.addEventListener('DOMContentLoaded', (event) => {
  highlightEdges();
  highlightAdjacentNodes();
});
]]></script>
</svg>
