<?xml version="1.0" encoding="UTF-8" standalone="no"?>
<!DOCTYPE svg PUBLIC "-//W3C//DTD SVG 1.1//EN"
 "http://www.w3.org/Graphics/SVG/1.1/DTD/svg11.dtd">
<!-- Generated by graphviz version 14.1.2 (20260124.0452)
 -->
<!-- Title: dspm_mult_s16_ansi.c Pages: 1 -->
<svg width="443pt" height="252pt"
 viewBox="0.00 0.00 443.00 252.00" xmlns="http://www.w3.org/2000/svg" xmlns:xlink="http://www.w3.org/1999/xlink">

<svg id="main" version="1.1" xmlns="http://www.w3.org/2000/svg" xmlns:xlink="http://www.w3.org/1999/xlink" xml:space="preserve">

<style type="text/css"><![CDATA[
.node, .edge {opacity: 0.7;}
.node.selected, .edge.selected {opacity: 1;}
.edge:hover path { stroke: red; }
.edge:hover polygon { stroke: red; fill: red; }
]]></style>
<script type="application/ecmascript" xlink:href="svg.min.js"/>
<svg id="graph" class="graph">
<g id="graph0" class="graph" transform="scale(1 1) rotate(0) translate(4 248)">
<title>dspm_mult_s16_ansi.c</title>
<!-- Node1 -->
<g id="Node000001" class="node">
<title>Node1</title>
<g id="a_Node000001"><a xlink:title=" ">
<polygon fill="#999999" stroke="#666666" points="310.62,-244 194.12,-244 194.12,-224 310.62,-224 310.62,-244"/>
<text xml:space="preserve" text-anchor="middle" x="252.38" y="-230.5" font-family="Helvetica,sans-Serif" font-size="10.00">dspm_mult_s16_ansi.c</text>
</a>
</g>
</g>
<!-- Node2 -->
<g id="Node000002" class="node">
<title>Node2</title>
<g id="a_Node000002"><a xlink:href="dsps__dotprod_8h.html" target="_top" xlink:title=" ">
<polygon fill="white" stroke="#666666" points="341.75,-188 259,-188 259,-168 341.75,-168 341.75,-188"/>
<text xml:space="preserve" text-anchor="middle" x="300.38" y="-174.5" font-family="Helvetica,sans-Serif" font-size="10.00">dsps_dotprod.h</text>
</a>
</g>
</g>
<!-- Node1&#45;&gt;Node2 -->
<g id="edge1_Node000001_Node000002" class="edge">
<title>Node1&#45;&gt;Node2</title>
<g id="a_edge1_Node000001_Node000002"><a xlink:title=" ">
<path fill="none" stroke="#63b8ff" d="M260.74,-223.59C267.27,-216.24 276.56,-205.8 284.49,-196.87"/>
<polygon fill="#63b8ff" stroke="#63b8ff" points="287.08,-199.23 291.1,-189.43 281.84,-194.58 287.08,-199.23"/>
</a>
</g>
</g>
<!-- Node11 -->
<g id="Node000011" class="node">
<title>Node11</title>
<g id="a_Node000011"><a xlink:href="dspm__mult_8h.html" target="_top" xlink:title=" ">
<polygon fill="white" stroke="#666666" points="240.5,-188 168.25,-188 168.25,-168 240.5,-168 240.5,-188"/>
<text xml:space="preserve" text-anchor="middle" x="204.38" y="-174.5" font-family="Helvetica,sans-Serif" font-size="10.00">dspm_mult.h</text>
</a>
</g>
</g>
<!-- Node1&#45;&gt;Node11 -->
<g id="edge11_Node000001_Node000011" class="edge">
<title>Node1&#45;&gt;Node11</title>
<g id="a_edge11_Node000001_Node000011"><a xlink:title=" ">
<path fill="none" stroke="#63b8ff" d="M244.01,-223.59C237.48,-216.24 228.19,-205.8 220.26,-196.87"/>
<polygon fill="#63b8ff" stroke="#63b8ff" points="222.91,-194.58 213.65,-189.43 217.67,-199.23 222.91,-194.58"/>
</a>
</g>
</g>
<!-- Node3 -->
<g id="Node000003" class="node">
<title>Node3</title>
<g id="a_Node000003"><a xlink:href="esp__log_8h.html" target="_top" xlink:title=" ">
<polygon fill="white" stroke="#666666" points="435.38,-132 377.38,-132 377.38,-112 435.38,-112 435.38,-132"/>
<text xml:space="preserve" text-anchor="middle" x="406.38" y="-118.5" font-family="Helvetica,sans-Serif" font-size="10.00">esp_log.h</text>
</a>
</g>
</g>
<!-- Node2&#45;&gt;Node3 -->
<g id="edge2_Node000002_Node000003" class="edge">
<title>Node2&#45;&gt;Node3</title>
<g id="a_edge2_Node000002_Node000003"><a xlink:title=" ">
<path fill="none" stroke="#63b8ff" d="M318.84,-167.59C335.08,-159.32 358.98,-147.14 377.71,-137.6"/>
<polygon fill="#63b8ff" stroke="#63b8ff" points="379.1,-140.82 386.42,-133.17 375.92,-134.59 379.1,-140.82"/>
</a>
</g>
</g>
<!-- Node5 -->
<g id="Node000005" class="node">
<title>Node5</title>
<g id="a_Node000005"><a xlink:href="dsp__err_8h.html" target="_top" xlink:title=" ">
<polygon fill="white" stroke="#666666" points="328.62,-132 272.12,-132 272.12,-112 328.62,-112 328.62,-132"/>
<text xml:space="preserve" text-anchor="middle" x="300.38" y="-118.5" font-family="Helvetica,sans-Serif" font-size="10.00">dsp_err.h</text>
</a>
</g>
</g>
<!-- Node2&#45;&gt;Node5 -->
<g id="edge4_Node000002_Node000005" class="edge">
<title>Node2&#45;&gt;Node5</title>
<g id="a_edge4_Node000002_Node000005"><a xlink:title=" ">
<path fill="none" stroke="#63b8ff" d="M300.38,-167.59C300.38,-161.01 300.38,-151.96 300.38,-143.73"/>
<polygon fill="#63b8ff" stroke="#63b8ff" points="303.88,-143.81 300.38,-133.81 296.88,-143.81 303.88,-143.81"/>
</a>
</g>
</g>
<!-- Node9 -->
<g id="Node000009" class="node">
<title>Node9</title>
<g id="a_Node000009"><a xlink:href="dsps__dotprod__platform_8h.html" target="_top" xlink:title=" ">
<polygon fill="white" stroke="#666666" points="254,-132 130.75,-132 130.75,-112 254,-112 254,-132"/>
<text xml:space="preserve" text-anchor="middle" x="192.38" y="-118.5" font-family="Helvetica,sans-Serif" font-size="10.00">dsps_dotprod_platform.h</text>
</a>
</g>
</g>
<!-- Node2&#45;&gt;Node9 -->
<g id="edge9_Node000002_Node000009" class="edge">
<title>Node2&#45;&gt;Node9</title>
<g id="a_edge9_Node000002_Node000009"><a xlink:title=" ">
<path fill="none" stroke="#63b8ff" d="M281.56,-167.59C265.02,-159.32 240.66,-147.14 221.58,-137.6"/>
<polygon fill="#63b8ff" stroke="#63b8ff" points="223.2,-134.5 212.69,-133.16 220.07,-140.76 223.2,-134.5"/>
</a>
</g>
</g>
<!-- Node4 -->
<g id="Node000004" class="node">
<title>Node4</title>
<g id="a_Node000004"><a xlink:title=" ">
<polygon fill="#e0e0e0" stroke="#999999" points="332.12,-20 284.62,-20 284.62,0 332.12,0 332.12,-20"/>
<text xml:space="preserve" text-anchor="middle" x="308.38" y="-6.5" font-family="Helvetica,sans-Serif" font-size="10.00">stdlib.h</text>
</a>
</g>
</g>
<!-- Node3&#45;&gt;Node4 -->
<g id="edge3_Node000003_Node000004" class="edge">
<title>Node3&#45;&gt;Node4</title>
<g id="a_edge3_Node000003_Node000004"><a xlink:title=" ">
<path fill="none" stroke="#63b8ff" d="M408.72,-111.69C411.55,-98.19 414.64,-72.93 403.38,-56 389.83,-35.65 364.46,-24.28 343.34,-18.06"/>
<polygon fill="#63b8ff" stroke="#63b8ff" points="344.48,-14.74 333.92,-15.57 342.69,-21.51 344.48,-14.74"/>
</a>
</g>
</g>
<!-- Node6 -->
<g id="Node000006" class="node">
<title>Node6</title>
<g id="a_Node000006"><a xlink:title=" ">
<polygon fill="#e0e0e0" stroke="#999999" points="394.5,-76 346.25,-76 346.25,-56 394.5,-56 394.5,-76"/>
<text xml:space="preserve" text-anchor="middle" x="370.38" y="-62.5" font-family="Helvetica,sans-Serif" font-size="10.00">stdint.h</text>
</a>
</g>
</g>
<!-- Node5&#45;&gt;Node6 -->
<g id="edge5_Node000005_Node000006" class="edge">
<title>Node5&#45;&gt;Node6</title>
<g id="a_edge5_Node000005_Node000006"><a xlink:title=" ">
<path fill="none" stroke="#63b8ff" d="M312.57,-111.59C322.71,-103.77 337.37,-92.46 349.39,-83.19"/>
<polygon fill="#63b8ff" stroke="#63b8ff" points="351.34,-86.1 357.12,-77.22 347.07,-80.56 351.34,-86.1"/>
</a>
</g>
</g>
<!-- Node7 -->
<g id="Node000007" class="node">
<title>Node7</title>
<g id="a_Node000007"><a xlink:href="esp__err_8h.html" target="_top" xlink:title=" ">
<polygon fill="white" stroke="#666666" points="222.62,-76 166.12,-76 166.12,-56 222.62,-56 222.62,-76"/>
<text xml:space="preserve" text-anchor="middle" x="194.38" y="-62.5" font-family="Helvetica,sans-Serif" font-size="10.00">esp_err.h</text>
</a>
</g>
</g>
<!-- Node5&#45;&gt;Node7 -->
<g id="edge6_Node000005_Node000007" class="edge">
<title>Node5&#45;&gt;Node7</title>
<g id="a_edge6_Node000005_Node000007"><a xlink:title=" ">
<path fill="none" stroke="#63b8ff" d="M281.91,-111.59C265.67,-103.32 241.77,-91.14 223.04,-81.6"/>
<polygon fill="#63b8ff" stroke="#63b8ff" points="224.83,-78.59 214.33,-77.17 221.65,-84.82 224.83,-78.59"/>
</a>
</g>
</g>
<!-- Node8 -->
<g id="Node000008" class="node">
<title>Node8</title>
<g id="a_Node000008"><a xlink:href="dsp__err__codes_8h.html" target="_top" xlink:title=" ">
<polygon fill="white" stroke="#666666" points="328.38,-76 240.38,-76 240.38,-56 328.38,-56 328.38,-76"/>
<text xml:space="preserve" text-anchor="middle" x="284.38" y="-62.5" font-family="Helvetica,sans-Serif" font-size="10.00">dsp_err_codes.h</text>
</a>
</g>
</g>
<!-- Node5&#45;&gt;Node8 -->
<g id="edge8_Node000005_Node000008" class="edge">
<title>Node5&#45;&gt;Node8</title>
<g id="a_edge8_Node000005_Node000008"><a xlink:title=" ">
<path fill="none" stroke="#63b8ff" d="M297.59,-111.59C295.59,-104.86 292.83,-95.53 290.35,-87.15"/>
<polygon fill="#63b8ff" stroke="#63b8ff" points="293.76,-86.34 287.56,-77.75 287.05,-88.33 293.76,-86.34"/>
</a>
</g>
</g>
<!-- Node7&#45;&gt;Node4 -->
<g id="edge7_Node000007_Node000004" class="edge">
<title>Node7&#45;&gt;Node4</title>
<g id="a_edge7_Node000007_Node000004"><a xlink:title=" ">
<path fill="none" stroke="#63b8ff" d="M214.23,-55.59C231.86,-47.24 257.88,-34.92 278.1,-25.34"/>
<polygon fill="#63b8ff" stroke="#63b8ff" points="279.46,-28.57 286.99,-21.13 276.46,-22.25 279.46,-28.57"/>
</a>
</g>
</g>
<!-- Node10 -->
<g id="Node000010" class="node">
<title>Node10</title>
<g id="a_Node000010"><a xlink:title=" ">
<polygon fill="#e0e0e0" stroke="#999999" points="127.5,-76 61.25,-76 61.25,-56 127.5,-56 127.5,-76"/>
<text xml:space="preserve" text-anchor="middle" x="94.38" y="-62.5" font-family="Helvetica,sans-Serif" font-size="10.00">sdkconfig.h</text>
</a>
</g>
</g>
<!-- Node9&#45;&gt;Node10 -->
<g id="edge10_Node000009_Node000010" class="edge">
<title>Node9&#45;&gt;Node10</title>
<g id="a_edge10_Node000009_Node000010"><a xlink:title=" ">
<path fill="none" stroke="#63b8ff" d="M175.3,-111.59C160.5,-103.44 138.81,-91.48 121.61,-82"/>
<polygon fill="#63b8ff" stroke="#63b8ff" points="123.35,-78.97 112.9,-77.21 119.97,-85.1 123.35,-78.97"/>
</a>
</g>
</g>
<!-- Node11&#45;&gt;Node5 -->
<g id="edge12_Node000011_Node000005" class="edge">
<title>Node11&#45;&gt;Node5</title>
<g id="a_edge12_Node000011_Node000005"><a xlink:title=" ">
<path fill="none" stroke="#63b8ff" d="M221.1,-167.59C235.6,-159.44 256.85,-147.48 273.7,-138"/>
<polygon fill="#63b8ff" stroke="#63b8ff" points="275.2,-141.17 282.2,-133.22 271.77,-135.07 275.2,-141.17"/>
</a>
</g>
</g>
<!-- Node12 -->
<g id="Node000012" class="node">
<title>Node12</title>
<g id="a_Node000012"><a xlink:href="dspm__mult__platform_8h.html" target="_top" xlink:title=" ">
<polygon fill="white" stroke="#666666" points="112.75,-132 0,-132 0,-112 112.75,-112 112.75,-132"/>
<text xml:space="preserve" text-anchor="middle" x="56.38" y="-118.5" font-family="Helvetica,sans-Serif" font-size="10.00">dspm_mult_platform.h</text>
</a>
</g>
</g>
<!-- Node11&#45;&gt;Node12 -->
<g id="edge13_Node000011_Node000012" class="edge">
<title>Node11&#45;&gt;Node12</title>
<g id="a_edge13_Node000011_Node000012"><a xlink:title=" ">
<path fill="none" stroke="#63b8ff" d="M178.6,-167.59C154.97,-158.97 119.73,-146.12 93.16,-136.42"/>
<polygon fill="#63b8ff" stroke="#63b8ff" points="94.37,-133.14 83.78,-133 91.97,-139.71 94.37,-133.14"/>
</a>
</g>
</g>
<!-- Node12&#45;&gt;Node10 -->
<g id="edge14_Node000012_Node000010" class="edge">
<title>Node12&#45;&gt;Node10</title>
<g id="a_edge14_Node000012_Node000010"><a xlink:title=" ">
<path fill="none" stroke="#63b8ff" d="M62.99,-111.59C68.06,-104.39 75.21,-94.23 81.4,-85.43"/>
<polygon fill="#63b8ff" stroke="#63b8ff" points="84.07,-87.73 86.96,-77.54 78.34,-83.7 84.07,-87.73"/>
</a>
</g>
</g>
</g>
</svg>
</svg>

<style type='text/css'>
<![CDATA[
[data-mouse-over-selected='false'] { opacity: 0.7; }
[data-mouse-over-selected='true']  { opacity: 1.0; }
]]>
</style>
<script type="application/ecmascript"><![CDATA[
document.addEventListener('DOMContentLoaded', (event) => {
  highlightEdges();
  highlightAdjacentNodes();
});
]]></script>
</svg>
