<?xml version="1.0" encoding="UTF-8" standalone="no"?>
<!DOCTYPE svg PUBLIC "-//W3C//DTD SVG 1.1//EN"
 "http://www.w3.org/Graphics/SVG/1.1/DTD/svg11.dtd">
<!-- Generated by graphviz version 14.1.2 (20260124.0452)
 -->
<!-- Title: dsps_biquad_gen_highShelf_f32 Pages: 1 -->
<!--zoomable 201 -->

<svg id="main" version="1.1" xmlns="http://www.w3.org/2000/svg" xmlns:xlink="http://www.w3.org/1999/xlink" xml:space="preserve" onload="init(evt)">

<style type="text/css"><![CDATA[
.node, .edge {opacity: 0.7;}
.node.selected, .edge.selected {opacity: 1;}
.edge:hover path { stroke: red; }
.edge:hover polygon { stroke: red; fill: red; }
]]></style>

<defs>
  <circle id="rim" cx="0" cy="0" r="7"/>
  <circle id="rim2" cx="0" cy="0" r="3.5"/>
  <g id="zoomPlus">
    <use xlink:href="#rim" fill="#404040"><set attributeName="fill" to="#808080" begin="zoomplus.mouseover" end="zoomplus.mouseout"/></use>
    <path d="M-4,0h8M0,-4v8" fill="none" stroke="white" stroke-width="1.5" pointer-events="none"/>
  </g>
  <g id="zoomMin">
    <use xlink:href="#rim" fill="#404040"><set attributeName="fill" to="#808080" begin="zoomminus.mouseover" end="zoomminus.mouseout"/></use>
    <path d="M-4,0h8" fill="none" stroke="white" stroke-width="1.5" pointer-events="none"/>
  </g>
  <g id="arrowUp" transform="translate(30 24)">
    <use xlink:href="#rim"/>
    <path pointer-events="none" fill="none" stroke="white" stroke-width="1.5" d="M0,-3.0v7 M-2.5,-0.5L0,-3.0L2.5,-0.5"/>
  </g>
  <g id="arrowRight" transform="rotate(90) translate(36 -43)">
    <use xlink:href="#rim"/>
    <path pointer-events="none" fill="none" stroke="white" stroke-width="1.5" d="M0,-3.0v7 M-2.5,-0.5L0,-3.0L2.5,-0.5"/>
  </g>
  <g id="arrowDown" transform="rotate(180) translate(-30 -48)">
    <use xlink:href="#rim"/>
    <path pointer-events="none" fill="none" stroke="white" stroke-width="1.5" d="M0,-3.0v7 M-2.5,-0.5L0,-3.0L2.5,-0.5"/>
  </g>
  <g id="arrowLeft" transform="rotate(270) translate(-36 17)">
    <use xlink:href="#rim"/>
    <path pointer-events="none" fill="none" stroke="white" stroke-width="1.5" d="M0,-3.0v7 M-2.5,-0.5L0,-3.0L2.5,-0.5"/>
  </g>
  <g id="resetDef">
    <use xlink:href="#rim2" fill="#404040"><set attributeName="fill" to="#808080" begin="reset.mouseover" end="reset.mouseout"/></use>
  </g>
</defs>
<script type="application/ecmascript">
var viewWidth = 545;
var viewHeight = 201;
var sectionId = 'dynsection-2';
</script>
<script type="application/ecmascript" xlink:href="svg.min.js"/>
<svg id="graph" class="graph">
<g id="viewport">
<title>dsps_biquad_gen_highShelf_f32</title>
<!-- Node1 -->
<g id="Node000001" class="node">
<title>Node1</title>
<g id="a_Node000001"><a xlink:title="high shelf IIR filter coefficients">
<polygon fill="#999999" stroke="#666666" points="537.25,-115 381,-115 381,-95 537.25,-95 537.25,-115"/>
<text xml:space="preserve" text-anchor="middle" x="459.12" y="-101.5" font-family="Helvetica,sans-Serif" font-size="10.00">dsps_biquad_gen_highShelf_f32</text>
</a>
</g>
</g>
<!-- Node2 -->
<g id="Node000002" class="node">
<title>Node2</title>
<g id="a_Node000002"><a xlink:href="applications_2lyrat__board__app_2main_2audio__amp__main_8c.html#ab091c1cbf0cdee1a9e75495e68236ab6" target="_top" xlink:title=" ">
<polygon fill="white" stroke="#666666" points="197,-191 94,-191 94,-171 197,-171 197,-191"/>
<text xml:space="preserve" text-anchor="middle" x="145.5" y="-177.5" font-family="Helvetica,sans-Serif" font-size="10.00">audio_process_task</text>
</a>
</g>
</g>
<!-- Node1&#45;&gt;Node2 -->
<g id="edge1_Node000001_Node000002" class="edge">
<title>Node1&#45;&gt;Node2</title>
<g id="a_edge1_Node000001_Node000002"><a xlink:title=" ">
<path fill="none" stroke="#63b8ff" d="M439.09,-123.09C418,-141.76 382.06,-169.71 345,-181 296.54,-195.77 238.28,-193.57 197.46,-189.03"/>
<polygon fill="#63b8ff" stroke="#63b8ff" points="441.27,-125.83 446.31,-116.51 436.56,-120.66 441.27,-125.83"/>
</a>
</g>
</g>
<!-- Node4 -->
<g id="Node000004" class="node">
<title>Node4</title>
<g id="a_Node000004"><a xlink:href="external__examples_21fa4e38f_2lyrat__board__app_2main_2audio__amp__main_8c.html#ab091c1cbf0cdee1a9e75495e68236ab6" target="_top" xlink:title=" ">
<polygon fill="white" stroke="#666666" points="197,-153 94,-153 94,-133 197,-133 197,-153"/>
<text xml:space="preserve" text-anchor="middle" x="145.5" y="-139.5" font-family="Helvetica,sans-Serif" font-size="10.00">audio_process_task</text>
</a>
</g>
</g>
<!-- Node1&#45;&gt;Node4 -->
<g id="edge3_Node000001_Node000004" class="edge">
<title>Node1&#45;&gt;Node4</title>
<g id="a_edge3_Node000001_Node000004"><a xlink:title=" ">
<path fill="none" stroke="#63b8ff" d="M369.38,-115.82C313.63,-122.62 243.71,-131.15 197.2,-136.82"/>
<polygon fill="#63b8ff" stroke="#63b8ff" points="369.69,-119.31 379.19,-114.63 368.84,-112.36 369.69,-119.31"/>
</a>
</g>
</g>
<!-- Node5 -->
<g id="Node000005" class="node">
<title>Node5</title>
<g id="a_Node000005"><a xlink:href="external__examples_2b00f000e_2applications_2lyrat__board__app_2main_2audio__amp__main_8c.html#ab091c1cbf0cdee1a9e75495e68236ab6" target="_top" xlink:title=" ">
<polygon fill="white" stroke="#666666" points="197,-115 94,-115 94,-95 197,-95 197,-115"/>
<text xml:space="preserve" text-anchor="middle" x="145.5" y="-101.5" font-family="Helvetica,sans-Serif" font-size="10.00">audio_process_task</text>
</a>
</g>
</g>
<!-- Node1&#45;&gt;Node5 -->
<g id="edge4_Node000001_Node000005" class="edge">
<title>Node1&#45;&gt;Node5</title>
<g id="a_edge4_Node000001_Node000005"><a xlink:title=" ">
<path fill="none" stroke="#63b8ff" d="M369.38,-105C313.63,-105 243.71,-105 197.2,-105"/>
<polygon fill="#63b8ff" stroke="#63b8ff" points="369.18,-108.5 379.18,-105 369.18,-101.5 369.18,-108.5"/>
</a>
</g>
</g>
<!-- Node6 -->
<g id="Node000006" class="node">
<title>Node6</title>
<g id="a_Node000006"><a xlink:href="applications_2lyrat__board__app_2main_2audio__amp__main_8c.html#a9b37162177a4acfc9abcc52ca620736c" target="_top" xlink:title=" ">
<polygon fill="white" stroke="#666666" points="345,-172 233,-172 233,-152 345,-152 345,-172"/>
<text xml:space="preserve" text-anchor="middle" x="289" y="-158.5" font-family="Helvetica,sans-Serif" font-size="10.00">buttons_process_task</text>
</a>
</g>
</g>
<!-- Node1&#45;&gt;Node6 -->
<g id="edge5_Node000001_Node000006" class="edge">
<title>Node1&#45;&gt;Node6</title>
<g id="a_edge5_Node000001_Node000006"><a xlink:title=" ">
<path fill="none" stroke="#63b8ff" d="M416.46,-119.13C386.86,-129.16 347.77,-142.41 320.93,-151.52"/>
<polygon fill="#63b8ff" stroke="#63b8ff" points="417.51,-122.47 425.85,-115.94 415.26,-115.84 417.51,-122.47"/>
</a>
</g>
</g>
<!-- Node7 -->
<g id="Node000007" class="node">
<title>Node7</title>
<g id="a_Node000007"><a xlink:href="external__examples_21fa4e38f_2lyrat__board__app_2main_2audio__amp__main_8c.html#a9b37162177a4acfc9abcc52ca620736c" target="_top" xlink:title=" ">
<polygon fill="white" stroke="#666666" points="345,-58 233,-58 233,-38 345,-38 345,-58"/>
<text xml:space="preserve" text-anchor="middle" x="289" y="-44.5" font-family="Helvetica,sans-Serif" font-size="10.00">buttons_process_task</text>
</a>
</g>
</g>
<!-- Node1&#45;&gt;Node7 -->
<g id="edge9_Node000001_Node000007" class="edge">
<title>Node1&#45;&gt;Node7</title>
<g id="a_edge9_Node000001_Node000007"><a xlink:title=" ">
<path fill="none" stroke="#63b8ff" d="M416.46,-90.87C386.86,-80.84 347.77,-67.59 320.93,-58.48"/>
<polygon fill="#63b8ff" stroke="#63b8ff" points="415.26,-94.16 425.85,-94.06 417.51,-87.53 415.26,-94.16"/>
</a>
</g>
</g>
<!-- Node8 -->
<g id="Node000008" class="node">
<title>Node8</title>
<g id="a_Node000008"><a xlink:href="external__examples_2b00f000e_2applications_2lyrat__board__app_2main_2audio__amp__main_8c.html#a9b37162177a4acfc9abcc52ca620736c" target="_top" xlink:title=" ">
<polygon fill="white" stroke="#666666" points="345,-20 233,-20 233,0 345,0 345,-20"/>
<text xml:space="preserve" text-anchor="middle" x="289" y="-6.5" font-family="Helvetica,sans-Serif" font-size="10.00">buttons_process_task</text>
</a>
</g>
</g>
<!-- Node1&#45;&gt;Node8 -->
<g id="edge10_Node000001_Node000008" class="edge">
<title>Node1&#45;&gt;Node8</title>
<g id="a_edge10_Node000001_Node000008"><a xlink:title=" ">
<path fill="none" stroke="#63b8ff" d="M436.38,-87.89C414.34,-71.16 378.76,-45.82 345,-29 338.58,-25.8 331.49,-22.92 324.6,-20.42"/>
<polygon fill="#63b8ff" stroke="#63b8ff" points="433.97,-90.45 444.03,-93.77 438.24,-84.9 433.97,-90.45"/>
</a>
</g>
</g>
<!-- Node3 -->
<g id="Node000003" class="node">
<title>Node3</title>
<g id="a_Node000003"><a xlink:href="applications_2lyrat__board__app_2main_2audio__amp__main_8c.html#a630544a7f0a2cc40d8a7fefab7e2fe70" target="_top" xlink:title=" ">
<polygon fill="white" stroke="#666666" points="58,-191 0,-191 0,-171 58,-171 58,-191"/>
<text xml:space="preserve" text-anchor="middle" x="29" y="-177.5" font-family="Helvetica,sans-Serif" font-size="10.00">app_main</text>
</a>
</g>
</g>
<!-- Node2&#45;&gt;Node3 -->
<g id="edge2_Node000002_Node000003" class="edge">
<title>Node2&#45;&gt;Node3</title>
<g id="a_edge2_Node000002_Node000003"><a xlink:title=" ">
<path fill="none" stroke="#63b8ff" d="M82.26,-181C73.94,-181 65.77,-181 58.45,-181"/>
<polygon fill="#63b8ff" stroke="#63b8ff" points="82.1,-184.5 92.1,-181 82.1,-177.5 82.1,-184.5"/>
</a>
</g>
</g>
<!-- Node6&#45;&gt;Node2 -->
<g id="edge6_Node000006_Node000002" class="edge">
<title>Node6&#45;&gt;Node2</title>
<g id="a_edge6_Node000006_Node000002"><a xlink:title=" ">
<path fill="none" stroke="#63b8ff" d="M221.69,-170.9C213.42,-172.01 205.06,-173.14 197.07,-174.21"/>
<polygon fill="#63b8ff" stroke="#63b8ff" points="221.94,-174.4 231.39,-169.6 221.01,-167.46 221.94,-174.4"/>
</a>
</g>
</g>
<!-- Node6&#45;&gt;Node4 -->
<g id="edge7_Node000006_Node000004" class="edge">
<title>Node6&#45;&gt;Node4</title>
<g id="a_edge7_Node000006_Node000004"><a xlink:title=" ">
<path fill="none" stroke="#63b8ff" d="M221.69,-153.1C213.42,-151.99 205.06,-150.86 197.07,-149.79"/>
<polygon fill="#63b8ff" stroke="#63b8ff" points="221.01,-156.54 231.39,-154.4 221.94,-149.6 221.01,-156.54"/>
</a>
</g>
</g>
<!-- Node6&#45;&gt;Node5 -->
<g id="edge8_Node000006_Node000005" class="edge">
<title>Node6&#45;&gt;Node5</title>
<g id="a_edge8_Node000006_Node000005"><a xlink:title=" ">
<path fill="none" stroke="#63b8ff" d="M253.25,-147.15C236.33,-140 215.67,-131.41 197,-124 189.86,-121.17 182.11,-118.2 174.88,-115.47"/>
<polygon fill="#63b8ff" stroke="#63b8ff" points="251.8,-150.33 262.37,-151.01 254.53,-143.89 251.8,-150.33"/>
</a>
</g>
</g>
</g>
</svg>

<g id="navigator" transform="translate(0 0)" fill="#404254">
  <rect fill="#f2f5e9" fill-opacity="0.5" stroke="#606060" stroke-width=".5" x="0" y="0" width="60" height="60"/>
  <use id="zoomplus" xlink:href="#zoomPlus" x="17" y="9" onmousedown="handleZoom(evt,'in')"/>
  <use id="zoomminus" xlink:href="#zoomMin" x="42" y="9" onmousedown="handleZoom(evt,'out')"/>
  <use id="reset" xlink:href="#resetDef" x="30" y="36" onmousedown="handleReset()"/>
   <use id="arrowup" xlink:href="#arrowUp" x="0" y="0" onmousedown="handlePan(0,-1)"/>
  <use id="arrowright" xlink:href="#arrowRight" x="0" y="0" onmousedown="handlePan(1,0)"/>
  <use id="arrowdown" xlink:href="#arrowDown" x="0" y="0" onmousedown="handlePan(0,1)"/>
  <use id="arrowleft" xlink:href="#arrowLeft" x="0" y="0" onmousedown="handlePan(-1,0)"/>
</g>
<svg viewBox="0 0 15 15" width="100%" height="30px" preserveAspectRatio="xMaxYMin meet">
 <g id="arrow_out" transform="scale(0.3 0.3)">
  <a xlink:href="dsps__biquad__gen_8h_aff286789300a4805e9d133099144ef3e_icgraph_org.svg" target="_base">
   <rect id="button" ry="5" rx="5" y="6" x="6" height="38" width="38"
        fill="#f2f5e9" fill-opacity="0.5" stroke="#606060" stroke-width="1.0"/>
   <path id="arrow"
     d="M 11.500037,31.436501 C 11.940474,20.09759 22.043105,11.32322 32.158766,21.979434 L 37.068811,17.246167 C 37.068811,17.246167 37.088388,32 37.088388,32 L 22.160133,31.978069 C 22.160133,31.978069 26.997745,27.140456 26.997745,27.140456 C 18.528582,18.264221 13.291696,25.230495 11.500037,31.436501 z"
     style="fill:#404040;"/>
  </a>
 </g>
</svg>

<style type='text/css'>
<![CDATA[
[data-mouse-over-selected='false'] { opacity: 0.7; }
[data-mouse-over-selected='true']  { opacity: 1.0; }
]]>
</style>
<script type="application/ecmascript"><![CDATA[
document.addEventListener('DOMContentLoaded', (event) => {
  highlightEdges();
  highlightAdjacentNodes();
});
]]></script>
</svg>
