<?xml version="1.0" encoding="UTF-8" standalone="no"?>
<!DOCTYPE svg PUBLIC "-//W3C//DTD SVG 1.1//EN"
 "http://www.w3.org/Graphics/SVG/1.1/DTD/svg11.dtd">
<!-- Generated by graphviz version 14.1.2 (20260124.0452)
 -->
<!-- Title: dsps_fft4r_fc32_ae32.c Pages: 1 -->
<!--zoomable 196 -->

<svg id="main" version="1.1" xmlns="http://www.w3.org/2000/svg" xmlns:xlink="http://www.w3.org/1999/xlink" xml:space="preserve" onload="init(evt)">

<style type="text/css"><![CDATA[
.node, .edge {opacity: 0.7;}
.node.selected, .edge.selected {opacity: 1;}
.edge:hover path { stroke: red; }
.edge:hover polygon { stroke: red; fill: red; }
]]></style>

<defs>
  <circle id="rim" cx="0" cy="0" r="7"/>
  <circle id="rim2" cx="0" cy="0" r="3.5"/>
  <g id="zoomPlus">
    <use xlink:href="#rim" fill="#404040"><set attributeName="fill" to="#808080" begin="zoomplus.mouseover" end="zoomplus.mouseout"/></use>
    <path d="M-4,0h8M0,-4v8" fill="none" stroke="white" stroke-width="1.5" pointer-events="none"/>
  </g>
  <g id="zoomMin">
    <use xlink:href="#rim" fill="#404040"><set attributeName="fill" to="#808080" begin="zoomminus.mouseover" end="zoomminus.mouseout"/></use>
    <path d="M-4,0h8" fill="none" stroke="white" stroke-width="1.5" pointer-events="none"/>
  </g>
  <g id="arrowUp" transform="translate(30 24)">
    <use xlink:href="#rim"/>
    <path pointer-events="none" fill="none" stroke="white" stroke-width="1.5" d="M0,-3.0v7 M-2.5,-0.5L0,-3.0L2.5,-0.5"/>
  </g>
  <g id="arrowRight" transform="rotate(90) translate(36 -43)">
    <use xlink:href="#rim"/>
    <path pointer-events="none" fill="none" stroke="white" stroke-width="1.5" d="M0,-3.0v7 M-2.5,-0.5L0,-3.0L2.5,-0.5"/>
  </g>
  <g id="arrowDown" transform="rotate(180) translate(-30 -48)">
    <use xlink:href="#rim"/>
    <path pointer-events="none" fill="none" stroke="white" stroke-width="1.5" d="M0,-3.0v7 M-2.5,-0.5L0,-3.0L2.5,-0.5"/>
  </g>
  <g id="arrowLeft" transform="rotate(270) translate(-36 17)">
    <use xlink:href="#rim"/>
    <path pointer-events="none" fill="none" stroke="white" stroke-width="1.5" d="M0,-3.0v7 M-2.5,-0.5L0,-3.0L2.5,-0.5"/>
  </g>
  <g id="resetDef">
    <use xlink:href="#rim2" fill="#404040"><set attributeName="fill" to="#808080" begin="reset.mouseover" end="reset.mouseout"/></use>
  </g>
</defs>
<script type="application/ecmascript">
var viewWidth = 894;
var viewHeight = 196;
var sectionId = 'dynsection-0';
</script>
<script type="application/ecmascript" xlink:href="svg.min.js"/>
<svg id="graph" class="graph">
<g id="viewport">
<title>dsps_fft4r_fc32_ae32.c</title>
<!-- Node1 -->
<g id="Node000001" class="node">
<title>Node1</title>
<g id="a_Node000001"><a xlink:title=" ">
<polygon fill="#999999" stroke="#666666" points="630.98,-188 513.73,-188 513.73,-168 630.98,-168 630.98,-188"/>
<text xml:space="preserve" text-anchor="middle" x="572.35" y="-174.5" font-family="Helvetica,sans-Serif" font-size="10.00">dsps_fft4r_fc32_ae32.c</text>
</a>
</g>
</g>
<!-- Node2 -->
<g id="Node000002" class="node">
<title>Node2</title>
<g id="a_Node000002"><a xlink:href="dsps__fft2r_8h.html" target="_top" xlink:title=" ">
<polygon fill="white" stroke="#666666" points="220.85,-132 153.85,-132 153.85,-112 220.85,-112 220.85,-132"/>
<text xml:space="preserve" text-anchor="middle" x="187.35" y="-118.5" font-family="Helvetica,sans-Serif" font-size="10.00">dsps_fft2r.h</text>
</a>
</g>
</g>
<!-- Node1&#45;&gt;Node2 -->
<g id="edge1_Node000001_Node000002" class="edge">
<title>Node1&#45;&gt;Node2</title>
<g id="a_edge1_Node000001_Node000002"><a xlink:title=" ">
<path fill="none" stroke="#63b8ff" d="M513.46,-168.74C436.14,-157.89 302.07,-139.09 232.36,-129.31"/>
<polygon fill="#63b8ff" stroke="#63b8ff" points="233.23,-125.9 222.84,-127.98 232.26,-132.83 233.23,-125.9"/>
</a>
</g>
</g>
<!-- Node11 -->
<g id="Node000011" class="node">
<title>Node11</title>
<g id="a_Node000011"><a xlink:href="dsps__fft4r_8h.html" target="_top" xlink:title=" ">
<polygon fill="white" stroke="#666666" points="375.85,-132 308.85,-132 308.85,-112 375.85,-112 375.85,-132"/>
<text xml:space="preserve" text-anchor="middle" x="342.35" y="-118.5" font-family="Helvetica,sans-Serif" font-size="10.00">dsps_fft4r.h</text>
</a>
</g>
</g>
<!-- Node1&#45;&gt;Node11 -->
<g id="edge10_Node000001_Node000011" class="edge">
<title>Node1&#45;&gt;Node11</title>
<g id="a_edge10_Node000001_Node000011"><a xlink:title=" ">
<path fill="none" stroke="#63b8ff" d="M532.02,-167.53C491.55,-158.03 429.32,-143.42 387.28,-133.55"/>
<polygon fill="#63b8ff" stroke="#63b8ff" points="388.27,-130.19 377.73,-131.31 386.67,-137 388.27,-130.19"/>
</a>
</g>
</g>
<!-- Node12 -->
<g id="Node000012" class="node">
<title>Node12</title>
<g id="a_Node000012"><a xlink:href="dsps__fft4r__platform_8h.html" target="_top" xlink:title=" ">
<polygon fill="white" stroke="#666666" points="396.1,-76 288.6,-76 288.6,-56 396.1,-56 396.1,-76"/>
<text xml:space="preserve" text-anchor="middle" x="342.35" y="-62.5" font-family="Helvetica,sans-Serif" font-size="10.00">dsps_fft4r_platform.h</text>
</a>
</g>
</g>
<!-- Node1&#45;&gt;Node12 -->
<g id="edge28_Node000001_Node000012" class="edge">
<title>Node1&#45;&gt;Node12</title>
<g id="a_edge28_Node000001_Node000012"><a xlink:title=" ">
<path fill="none" stroke="#63b8ff" d="M552.74,-167.62C512.43,-148.34 420.03,-104.15 372.22,-81.29"/>
<polygon fill="#63b8ff" stroke="#63b8ff" points="373.81,-78.16 363.28,-77.01 370.79,-84.48 373.81,-78.16"/>
</a>
</g>
</g>
<!-- Node13 -->
<g id="Node000013" class="node">
<title>Node13</title>
<g id="a_Node000013"><a xlink:href="dsp__common_8h.html" target="_top" xlink:title=" ">
<polygon fill="white" stroke="#666666" points="613.73,-132 530.98,-132 530.98,-112 613.73,-112 613.73,-132"/>
<text xml:space="preserve" text-anchor="middle" x="572.35" y="-118.5" font-family="Helvetica,sans-Serif" font-size="10.00">dsp_common.h</text>
</a>
</g>
</g>
<!-- Node1&#45;&gt;Node13 -->
<g id="edge16_Node000001_Node000013" class="edge">
<title>Node1&#45;&gt;Node13</title>
<g id="a_edge16_Node000001_Node000013"><a xlink:title=" ">
<path fill="none" stroke="#63b8ff" d="M572.35,-167.59C572.35,-161.01 572.35,-151.96 572.35,-143.73"/>
<polygon fill="#63b8ff" stroke="#63b8ff" points="575.85,-143.81 572.35,-133.81 568.85,-143.81 575.85,-143.81"/>
</a>
</g>
</g>
<!-- Node17 -->
<g id="Node000017" class="node">
<title>Node17</title>
<g id="a_Node000017"><a xlink:href="dsp__types_8h.html" target="_top" xlink:title=" ">
<polygon fill="white" stroke="#666666" points="738.98,-132 669.73,-132 669.73,-112 738.98,-112 738.98,-132"/>
<text xml:space="preserve" text-anchor="middle" x="704.35" y="-118.5" font-family="Helvetica,sans-Serif" font-size="10.00">dsp_types.h</text>
</a>
</g>
</g>
<!-- Node1&#45;&gt;Node17 -->
<g id="edge22_Node000001_Node000017" class="edge">
<title>Node1&#45;&gt;Node17</title>
<g id="a_edge22_Node000001_Node000017"><a xlink:title=" ">
<path fill="none" stroke="#63b8ff" d="M595.34,-167.59C616.13,-159.09 647,-146.46 670.59,-136.81"/>
<polygon fill="#63b8ff" stroke="#63b8ff" points="671.85,-140.08 679.78,-133.05 669.2,-133.6 671.85,-140.08"/>
</a>
</g>
</g>
<!-- Node19 -->
<g id="Node000019" class="node">
<title>Node19</title>
<g id="a_Node000019"><a xlink:title=" ">
<polygon fill="#e0e0e0" stroke="#999999" points="803.35,-132 757.35,-132 757.35,-112 803.35,-112 803.35,-132"/>
<text xml:space="preserve" text-anchor="middle" x="780.35" y="-118.5" font-family="Helvetica,sans-Serif" font-size="10.00">math.h</text>
</a>
</g>
</g>
<!-- Node1&#45;&gt;Node19 -->
<g id="edge26_Node000001_Node000019" class="edge">
<title>Node1&#45;&gt;Node19</title>
<g id="a_edge26_Node000001_Node000019"><a xlink:title=" ">
<path fill="none" stroke="#63b8ff" d="M610.53,-167.52C643.92,-159.16 694.01,-146.48 746.15,-132.55"/>
<polygon fill="#63b8ff" stroke="#63b8ff" points="746.74,-136.01 755.49,-130.04 744.92,-129.25 746.74,-136.01"/>
</a>
</g>
</g>
<!-- Node20 -->
<g id="Node000020" class="node">
<title>Node20</title>
<g id="a_Node000020"><a xlink:href="esp__attr_8h.html" target="_top" xlink:title=" ">
<polygon fill="white" stroke="#666666" points="881.1,-132 821.6,-132 821.6,-112 881.1,-112 881.1,-132"/>
<text xml:space="preserve" text-anchor="middle" x="851.35" y="-118.5" font-family="Helvetica,sans-Serif" font-size="10.00">esp_attr.h</text>
</a>
</g>
</g>
<!-- Node1&#45;&gt;Node20 -->
<g id="edge27_Node000001_Node000020" class="edge">
<title>Node1&#45;&gt;Node20</title>
<g id="a_edge27_Node000001_Node000020"><a xlink:title=" ">
<path fill="none" stroke="#63b8ff" d="M626.33,-167.54C672.58,-159.28 741.24,-146.68 810.1,-132.41"/>
<polygon fill="#63b8ff" stroke="#63b8ff" points="810.59,-135.88 819.66,-130.41 809.16,-129.03 810.59,-135.88"/>
</a>
</g>
</g>
<!-- Node3 -->
<g id="Node000003" class="node">
<title>Node3</title>
<g id="a_Node000003"><a xlink:href="dsp__err_8h.html" target="_top" xlink:title=" ">
<polygon fill="white" stroke="#666666" points="470.6,-76 414.1,-76 414.1,-56 470.6,-56 470.6,-76"/>
<text xml:space="preserve" text-anchor="middle" x="442.35" y="-62.5" font-family="Helvetica,sans-Serif" font-size="10.00">dsp_err.h</text>
</a>
</g>
</g>
<!-- Node2&#45;&gt;Node3 -->
<g id="edge2_Node000002_Node000003" class="edge">
<title>Node2&#45;&gt;Node3</title>
<g id="a_edge2_Node000002_Node000003"><a xlink:title=" ">
<path fill="none" stroke="#63b8ff" d="M221.04,-114.43C261.76,-106.4 332.64,-92.16 402.49,-76.59"/>
<polygon fill="#63b8ff" stroke="#63b8ff" points="403.22,-80.01 412.21,-74.41 401.69,-73.18 403.22,-80.01"/>
</a>
</g>
</g>
<!-- Node8 -->
<g id="Node000008" class="node">
<title>Node8</title>
<g id="a_Node000008"><a xlink:title=" ">
<polygon fill="#e0e0e0" stroke="#999999" points="198.48,-20 132.23,-20 132.23,0 198.48,0 198.48,-20"/>
<text xml:space="preserve" text-anchor="middle" x="165.35" y="-6.5" font-family="Helvetica,sans-Serif" font-size="10.00">sdkconfig.h</text>
</a>
</g>
</g>
<!-- Node2&#45;&gt;Node8 -->
<g id="edge6_Node000002_Node000008" class="edge">
<title>Node2&#45;&gt;Node8</title>
<g id="a_edge6_Node000002_Node000008"><a xlink:title=" ">
<path fill="none" stroke="#63b8ff" d="M153.5,-117.45C106.48,-111.74 25.14,-98.79 7.35,-76 -25.01,-34.55 63.23,-19.34 120.55,-13.9"/>
<polygon fill="#63b8ff" stroke="#63b8ff" points="120.74,-17.4 130.4,-13.04 120.13,-10.42 120.74,-17.4"/>
</a>
</g>
</g>
<!-- Node9 -->
<g id="Node000009" class="node">
<title>Node9</title>
<g id="a_Node000009"><a xlink:href="dsps__fft__tables_8h.html" target="_top" xlink:title=" ">
<polygon fill="white" stroke="#666666" points="232.48,-76 142.23,-76 142.23,-56 232.48,-56 232.48,-76"/>
<text xml:space="preserve" text-anchor="middle" x="187.35" y="-62.5" font-family="Helvetica,sans-Serif" font-size="10.00">dsps_fft_tables.h</text>
</a>
</g>
</g>
<!-- Node2&#45;&gt;Node9 -->
<g id="edge7_Node000002_Node000009" class="edge">
<title>Node2&#45;&gt;Node9</title>
<g id="a_edge7_Node000002_Node000009"><a xlink:title=" ">
<path fill="none" stroke="#63b8ff" d="M187.35,-111.59C187.35,-105.01 187.35,-95.96 187.35,-87.73"/>
<polygon fill="#63b8ff" stroke="#63b8ff" points="190.85,-87.81 187.35,-77.81 183.85,-87.81 190.85,-87.81"/>
</a>
</g>
</g>
<!-- Node10 -->
<g id="Node000010" class="node">
<title>Node10</title>
<g id="a_Node000010"><a xlink:href="dsps__fft2r__platform_8h.html" target="_top" xlink:title=" ">
<polygon fill="white" stroke="#666666" points="124.1,-76 16.6,-76 16.6,-56 124.1,-56 124.1,-76"/>
<text xml:space="preserve" text-anchor="middle" x="70.35" y="-62.5" font-family="Helvetica,sans-Serif" font-size="10.00">dsps_fft2r_platform.h</text>
</a>
</g>
</g>
<!-- Node2&#45;&gt;Node10 -->
<g id="edge8_Node000002_Node000010" class="edge">
<title>Node2&#45;&gt;Node10</title>
<g id="a_edge8_Node000002_Node000010"><a xlink:title=" ">
<path fill="none" stroke="#63b8ff" d="M166.97,-111.59C148.8,-103.21 121.92,-90.8 101.13,-81.21"/>
<polygon fill="#63b8ff" stroke="#63b8ff" points="102.81,-78.13 92.26,-77.11 99.88,-84.48 102.81,-78.13"/>
</a>
</g>
</g>
<!-- Node4 -->
<g id="Node000004" class="node">
<title>Node4</title>
<g id="a_Node000004"><a xlink:title=" ">
<polygon fill="#e0e0e0" stroke="#999999" points="552.48,-20 504.23,-20 504.23,0 552.48,0 552.48,-20"/>
<text xml:space="preserve" text-anchor="middle" x="528.35" y="-6.5" font-family="Helvetica,sans-Serif" font-size="10.00">stdint.h</text>
</a>
</g>
</g>
<!-- Node3&#45;&gt;Node4 -->
<g id="edge3_Node000003_Node000004" class="edge">
<title>Node3&#45;&gt;Node4</title>
<g id="a_edge3_Node000003_Node000004"><a xlink:title=" ">
<path fill="none" stroke="#63b8ff" d="M457.33,-55.59C470.08,-47.59 488.64,-35.93 503.6,-26.54"/>
<polygon fill="#63b8ff" stroke="#63b8ff" points="505.36,-29.57 511.97,-21.28 501.64,-23.64 505.36,-29.57"/>
</a>
</g>
</g>
<!-- Node5 -->
<g id="Node000005" class="node">
<title>Node5</title>
<g id="a_Node000005"><a xlink:href="esp__err_8h.html" target="_top" xlink:title=" ">
<polygon fill="#fff0f0" stroke="red" points="380.6,-20 324.1,-20 324.1,0 380.6,0 380.6,-20"/>
<text xml:space="preserve" text-anchor="middle" x="352.35" y="-6.5" font-family="Helvetica,sans-Serif" font-size="10.00">esp_err.h</text>
</a>
</g>
</g>
<!-- Node3&#45;&gt;Node5 -->
<g id="edge4_Node000003_Node000005" class="edge">
<title>Node3&#45;&gt;Node5</title>
<g id="a_edge4_Node000003_Node000005"><a xlink:title=" ">
<path fill="none" stroke="#63b8ff" d="M426.67,-55.59C413.21,-47.51 393.53,-35.71 377.81,-26.27"/>
<polygon fill="#63b8ff" stroke="#63b8ff" points="379.82,-23.4 369.45,-21.26 376.22,-29.4 379.82,-23.4"/>
</a>
</g>
</g>
<!-- Node7 -->
<g id="Node000007" class="node">
<title>Node7</title>
<g id="a_Node000007"><a xlink:href="dsp__err__codes_8h.html" target="_top" xlink:title=" ">
<polygon fill="white" stroke="#666666" points="486.35,-20 398.35,-20 398.35,0 486.35,0 486.35,-20"/>
<text xml:space="preserve" text-anchor="middle" x="442.35" y="-6.5" font-family="Helvetica,sans-Serif" font-size="10.00">dsp_err_codes.h</text>
</a>
</g>
</g>
<!-- Node3&#45;&gt;Node7 -->
<g id="edge5_Node000003_Node000007" class="edge">
<title>Node3&#45;&gt;Node7</title>
<g id="a_edge5_Node000003_Node000007"><a xlink:title=" ">
<path fill="none" stroke="#63b8ff" d="M442.35,-55.59C442.35,-49.01 442.35,-39.96 442.35,-31.73"/>
<polygon fill="#63b8ff" stroke="#63b8ff" points="445.85,-31.81 442.35,-21.81 438.85,-31.81 445.85,-31.81"/>
</a>
</g>
</g>
<!-- Node10&#45;&gt;Node8 -->
<g id="edge9_Node000010_Node000008" class="edge">
<title>Node10&#45;&gt;Node8</title>
<g id="a_edge9_Node000010_Node000008"><a xlink:title=" ">
<path fill="none" stroke="#63b8ff" d="M86.9,-55.59C101.25,-47.44 122.28,-35.48 138.95,-26"/>
<polygon fill="#63b8ff" stroke="#63b8ff" points="140.39,-29.21 147.36,-21.23 136.93,-23.13 140.39,-29.21"/>
</a>
</g>
</g>
<!-- Node11&#45;&gt;Node3 -->
<g id="edge11_Node000011_Node000003" class="edge">
<title>Node11&#45;&gt;Node3</title>
<g id="a_edge11_Node000011_Node000003"><a xlink:title=" ">
<path fill="none" stroke="#63b8ff" d="M359.77,-111.59C375.02,-103.36 397.43,-91.26 415.06,-81.74"/>
<polygon fill="#63b8ff" stroke="#63b8ff" points="416.33,-85.03 423.46,-77.2 413,-78.87 416.33,-85.03"/>
</a>
</g>
</g>
<!-- Node11&#45;&gt;Node8 -->
<g id="edge12_Node000011_Node000008" class="edge">
<title>Node11&#45;&gt;Node8</title>
<g id="a_edge12_Node000011_Node000008"><a xlink:title=" ">
<path fill="none" stroke="#63b8ff" d="M328.07,-111.57C308.61,-98.77 272.58,-75.28 241.35,-56 224.97,-45.89 206.38,-34.87 191.69,-26.27"/>
<polygon fill="#63b8ff" stroke="#63b8ff" points="193.47,-23.26 183.07,-21.24 189.95,-29.31 193.47,-23.26"/>
</a>
</g>
</g>
<!-- Node11&#45;&gt;Node9 -->
<g id="edge13_Node000011_Node000009" class="edge">
<title>Node11&#45;&gt;Node9</title>
<g id="a_edge13_Node000011_Node000009"><a xlink:title=" ">
<path fill="none" stroke="#63b8ff" d="M315.35,-111.59C290.39,-102.9 253.05,-89.89 225.13,-80.16"/>
<polygon fill="#63b8ff" stroke="#63b8ff" points="226.58,-76.96 215.99,-76.98 224.28,-83.57 226.58,-76.96"/>
</a>
</g>
</g>
<!-- Node11&#45;&gt;Node12 -->
<g id="edge14_Node000011_Node000012" class="edge">
<title>Node11&#45;&gt;Node12</title>
<g id="a_edge14_Node000011_Node000012"><a xlink:title=" ">
<path fill="none" stroke="#63b8ff" d="M342.35,-111.59C342.35,-105.01 342.35,-95.96 342.35,-87.73"/>
<polygon fill="#63b8ff" stroke="#63b8ff" points="345.85,-87.81 342.35,-77.81 338.85,-87.81 345.85,-87.81"/>
</a>
</g>
</g>
<!-- Node12&#45;&gt;Node8 -->
<g id="edge15_Node000012_Node000008" class="edge">
<title>Node12&#45;&gt;Node8</title>
<g id="a_edge15_Node000012_Node000008"><a xlink:title=" ">
<path fill="none" stroke="#63b8ff" d="M311.52,-55.59C282.64,-46.78 239.24,-33.54 207.23,-23.78"/>
<polygon fill="#63b8ff" stroke="#63b8ff" points="208.46,-20.49 197.87,-20.92 206.41,-27.19 208.46,-20.49"/>
</a>
</g>
</g>
<!-- Node13&#45;&gt;Node3 -->
<g id="edge19_Node000013_Node000003" class="edge">
<title>Node13&#45;&gt;Node3</title>
<g id="a_edge19_Node000013_Node000003"><a xlink:title=" ">
<path fill="none" stroke="#63b8ff" d="M549.71,-111.59C529.23,-103.09 498.83,-90.46 475.6,-80.81"/>
<polygon fill="#63b8ff" stroke="#63b8ff" points="477.15,-77.66 466.57,-77.06 474.46,-84.13 477.15,-77.66"/>
</a>
</g>
</g>
<!-- Node13&#45;&gt;Node4 -->
<g id="edge17_Node000013_Node000004" class="edge">
<title>Node13&#45;&gt;Node4</title>
<g id="a_edge17_Node000013_Node000004"><a xlink:title=" ">
<path fill="none" stroke="#63b8ff" d="M553.81,-111.59C540.95,-103.95 524.85,-91.83 517.35,-76 510.6,-61.76 514.29,-44.04 519.15,-30.7"/>
<polygon fill="#63b8ff" stroke="#63b8ff" points="522.28,-32.27 522.9,-21.7 515.82,-29.58 522.28,-32.27"/>
</a>
</g>
</g>
<!-- Node14 -->
<g id="Node000014" class="node">
<title>Node14</title>
<g id="a_Node000014"><a xlink:title=" ">
<polygon fill="#e0e0e0" stroke="#999999" points="771.23,-76 715.48,-76 715.48,-56 771.23,-56 771.23,-76"/>
<text xml:space="preserve" text-anchor="middle" x="743.35" y="-62.5" font-family="Helvetica,sans-Serif" font-size="10.00">stdbool.h</text>
</a>
</g>
</g>
<!-- Node13&#45;&gt;Node14 -->
<g id="edge18_Node000013_Node000014" class="edge">
<title>Node13&#45;&gt;Node14</title>
<g id="a_edge18_Node000013_Node000014"><a xlink:title=" ">
<path fill="none" stroke="#63b8ff" d="M602.14,-111.59C630.43,-102.66 673.14,-89.17 704.18,-79.37"/>
<polygon fill="#63b8ff" stroke="#63b8ff" points="705.12,-82.74 713.6,-76.4 703.01,-76.07 705.12,-82.74"/>
</a>
</g>
</g>
<!-- Node15 -->
<g id="Node000015" class="node">
<title>Node15</title>
<g id="a_Node000015"><a xlink:title=" ">
<polygon fill="#e0e0e0" stroke="#999999" points="618.6,-76 526.1,-76 526.1,-56 618.6,-56 618.6,-76"/>
<text xml:space="preserve" text-anchor="middle" x="572.35" y="-62.5" font-family="Helvetica,sans-Serif" font-size="10.00">esp_idf_version.h</text>
</a>
</g>
</g>
<!-- Node13&#45;&gt;Node15 -->
<g id="edge20_Node000013_Node000015" class="edge">
<title>Node13&#45;&gt;Node15</title>
<g id="a_edge20_Node000013_Node000015"><a xlink:title=" ">
<path fill="none" stroke="#63b8ff" d="M572.35,-111.59C572.35,-105.01 572.35,-95.96 572.35,-87.73"/>
<polygon fill="#63b8ff" stroke="#63b8ff" points="575.85,-87.81 572.35,-77.81 568.85,-87.81 575.85,-87.81"/>
</a>
</g>
</g>
<!-- Node16 -->
<g id="Node000016" class="node">
<title>Node16</title>
<g id="a_Node000016"><a xlink:title=" ">
<polygon fill="#e0e0e0" stroke="#999999" points="697.85,-76 636.85,-76 636.85,-56 697.85,-56 697.85,-76"/>
<text xml:space="preserve" text-anchor="middle" x="667.35" y="-62.5" font-family="Helvetica,sans-Serif" font-size="10.00">x86intrin.h</text>
</a>
</g>
</g>
<!-- Node13&#45;&gt;Node16 -->
<g id="edge21_Node000013_Node000016" class="edge">
<title>Node13&#45;&gt;Node16</title>
<g id="a_edge21_Node000013_Node000016"><a xlink:title=" ">
<path fill="none" stroke="#63b8ff" d="M588.9,-111.59C603.25,-103.44 624.28,-91.48 640.95,-82"/>
<polygon fill="#63b8ff" stroke="#63b8ff" points="642.39,-85.21 649.36,-77.23 638.93,-79.13 642.39,-85.21"/>
</a>
</g>
</g>
<!-- Node17&#45;&gt;Node4 -->
<g id="edge23_Node000017_Node000004" class="edge">
<title>Node17&#45;&gt;Node4</title>
<g id="a_edge23_Node000017_Node000004"><a xlink:title=" ">
<path fill="none" stroke="#63b8ff" d="M730.73,-111.58C759.57,-99.87 799.3,-78.63 780.35,-56 753.15,-23.51 626.62,-14.45 563.86,-11.95"/>
<polygon fill="#63b8ff" stroke="#63b8ff" points="564.19,-8.46 554.07,-11.59 563.94,-15.45 564.19,-8.46"/>
</a>
</g>
</g>
<!-- Node17&#45;&gt;Node14 -->
<g id="edge24_Node000017_Node000014" class="edge">
<title>Node17&#45;&gt;Node14</title>
<g id="a_edge24_Node000017_Node000014"><a xlink:title=" ">
<path fill="none" stroke="#63b8ff" d="M711.14,-111.59C716.35,-104.39 723.68,-94.23 730.04,-85.43"/>
<polygon fill="#63b8ff" stroke="#63b8ff" points="732.73,-87.68 735.75,-77.53 727.06,-83.58 732.73,-87.68"/>
</a>
</g>
</g>
<!-- Node18 -->
<g id="Node000018" class="node">
<title>Node18</title>
<g id="a_Node000018"><a xlink:title=" ">
<polygon fill="#e0e0e0" stroke="#999999" points="885.73,-76 826.98,-76 826.98,-56 885.73,-56 885.73,-76"/>
<text xml:space="preserve" text-anchor="middle" x="856.35" y="-62.5" font-family="Helvetica,sans-Serif" font-size="10.00">inttypes.h</text>
</a>
</g>
</g>
<!-- Node17&#45;&gt;Node18 -->
<g id="edge25_Node000017_Node000018" class="edge">
<title>Node17&#45;&gt;Node18</title>
<g id="a_edge25_Node000017_Node000018"><a xlink:title=" ">
<path fill="none" stroke="#63b8ff" d="M730.83,-111.59C755.2,-102.94 791.6,-90 818.94,-80.29"/>
<polygon fill="#63b8ff" stroke="#63b8ff" points="819.99,-83.63 828.24,-76.99 817.65,-77.04 819.99,-83.63"/>
</a>
</g>
</g>
</g>
</svg>

<g id="navigator" transform="translate(0 0)" fill="#404254">
  <rect fill="#f2f5e9" fill-opacity="0.5" stroke="#606060" stroke-width=".5" x="0" y="0" width="60" height="60"/>
  <use id="zoomplus" xlink:href="#zoomPlus" x="17" y="9" onmousedown="handleZoom(evt,'in')"/>
  <use id="zoomminus" xlink:href="#zoomMin" x="42" y="9" onmousedown="handleZoom(evt,'out')"/>
  <use id="reset" xlink:href="#resetDef" x="30" y="36" onmousedown="handleReset()"/>
   <use id="arrowup" xlink:href="#arrowUp" x="0" y="0" onmousedown="handlePan(0,-1)"/>
  <use id="arrowright" xlink:href="#arrowRight" x="0" y="0" onmousedown="handlePan(1,0)"/>
  <use id="arrowdown" xlink:href="#arrowDown" x="0" y="0" onmousedown="handlePan(0,1)"/>
  <use id="arrowleft" xlink:href="#arrowLeft" x="0" y="0" onmousedown="handlePan(-1,0)"/>
</g>
<svg viewBox="0 0 15 15" width="100%" height="30px" preserveAspectRatio="xMaxYMin meet">
 <g id="arrow_out" transform="scale(0.3 0.3)">
  <a xlink:href="dsps__fft4r__fc32__ae32_8c__incl_org.svg" target="_base">
   <rect id="button" ry="5" rx="5" y="6" x="6" height="38" width="38"
        fill="#f2f5e9" fill-opacity="0.5" stroke="#606060" stroke-width="1.0"/>
   <path id="arrow"
     d="M 11.500037,31.436501 C 11.940474,20.09759 22.043105,11.32322 32.158766,21.979434 L 37.068811,17.246167 C 37.068811,17.246167 37.088388,32 37.088388,32 L 22.160133,31.978069 C 22.160133,31.978069 26.997745,27.140456 26.997745,27.140456 C 18.528582,18.264221 13.291696,25.230495 11.500037,31.436501 z"
     style="fill:#404040;"/>
  </a>
 </g>
</svg>

<style type='text/css'>
<![CDATA[
[data-mouse-over-selected='false'] { opacity: 0.7; }
[data-mouse-over-selected='true']  { opacity: 1.0; }
]]>
</style>
<script type="application/ecmascript"><![CDATA[
document.addEventListener('DOMContentLoaded', (event) => {
  highlightEdges();
  highlightAdjacentNodes();
});
]]></script>
</svg>
