<?xml version="1.0" encoding="UTF-8" standalone="no"?>
<!DOCTYPE svg PUBLIC "-//W3C//DTD SVG 1.1//EN"
 "http://www.w3.org/Graphics/SVG/1.1/DTD/svg11.dtd">
<!-- Generated by graphviz version 14.1.2 (20260124.0452)
 -->
<!-- Title: dsps_dct_f32.c Pages: 1 -->
<svg width="676pt" height="196pt"
 viewBox="0.00 0.00 676.00 196.00" xmlns="http://www.w3.org/2000/svg" xmlns:xlink="http://www.w3.org/1999/xlink">
<g id="graph0" class="graph" transform="scale(1 1) rotate(0) translate(4 192)">
<title>dsps_dct_f32.c</title>
<!-- Node1 -->
<g id="Node000001" class="node">
<title>Node1</title>
<g id="a_Node000001"><a xlink:title=" ">
<polygon fill="#999999" stroke="#666666" points="339.88,-188 257.12,-188 257.12,-168 339.88,-168 339.88,-188"/>
<text xml:space="preserve" text-anchor="middle" x="298.5" y="-174.5" font-family="Helvetica,sans-Serif" font-size="10.00">dsps_dct_f32.c</text>
</a>
</g>
</g>
<!-- Node2 -->
<g id="Node000002" class="node">
<title>Node2</title>
<g id="a_Node000002"><a xlink:href="dsp__common_8h.html" target="_top" xlink:title=" ">
<polygon fill="white" stroke="#666666" points="206.88,-132 124.12,-132 124.12,-112 206.88,-112 206.88,-132"/>
<text xml:space="preserve" text-anchor="middle" x="165.5" y="-118.5" font-family="Helvetica,sans-Serif" font-size="10.00">dsp_common.h</text>
</a>
</g>
</g>
<!-- Node1&#45;&gt;Node2 -->
<g id="edge1_Node000001_Node000002" class="edge">
<title>Node1&#45;&gt;Node2</title>
<g id="a_edge1_Node000001_Node000002"><a xlink:title=" ">
<path fill="none" stroke="#63b8ff" d="M275.33,-167.59C254.29,-159.05 223,-146.35 199.2,-136.68"/>
<polygon fill="#63b8ff" stroke="#63b8ff" points="200.83,-133.57 190.25,-133.05 198.2,-140.05 200.83,-133.57"/>
</a>
</g>
</g>
<!-- Node11 -->
<g id="Node000011" class="node">
<title>Node11</title>
<g id="a_Node000011"><a xlink:title=" ">
<polygon fill="#e0e0e0" stroke="#999999" points="285.5,-132 239.5,-132 239.5,-112 285.5,-112 285.5,-132"/>
<text xml:space="preserve" text-anchor="middle" x="262.5" y="-118.5" font-family="Helvetica,sans-Serif" font-size="10.00">math.h</text>
</a>
</g>
</g>
<!-- Node1&#45;&gt;Node11 -->
<g id="edge10_Node000001_Node000011" class="edge">
<title>Node1&#45;&gt;Node11</title>
<g id="a_edge10_Node000001_Node000011"><a xlink:title=" ">
<path fill="none" stroke="#63b8ff" d="M292.23,-167.59C287.48,-160.47 280.8,-150.45 274.98,-141.72"/>
<polygon fill="#63b8ff" stroke="#63b8ff" points="278,-139.94 269.54,-133.56 272.17,-143.82 278,-139.94"/>
</a>
</g>
</g>
<!-- Node12 -->
<g id="Node000012" class="node">
<title>Node12</title>
<g id="a_Node000012"><a xlink:href="dsps__dct_8h.html" target="_top" xlink:title=" ">
<polygon fill="white" stroke="#666666" points="367.5,-132 303.5,-132 303.5,-112 367.5,-112 367.5,-132"/>
<text xml:space="preserve" text-anchor="middle" x="335.5" y="-118.5" font-family="Helvetica,sans-Serif" font-size="10.00">dsps_dct.h</text>
</a>
</g>
</g>
<!-- Node1&#45;&gt;Node12 -->
<g id="edge11_Node000001_Node000012" class="edge">
<title>Node1&#45;&gt;Node12</title>
<g id="a_edge11_Node000001_Node000012"><a xlink:title=" ">
<path fill="none" stroke="#63b8ff" d="M304.94,-167.59C309.83,-160.47 316.69,-150.45 322.68,-141.72"/>
<polygon fill="#63b8ff" stroke="#63b8ff" points="325.51,-143.77 328.27,-133.55 319.73,-139.82 325.51,-143.77"/>
</a>
</g>
</g>
<!-- Node14 -->
<g id="Node000014" class="node">
<title>Node14</title>
<g id="a_Node000014"><a xlink:href="dsps__fft2r_8h.html" target="_top" xlink:title=" ">
<polygon fill="white" stroke="#666666" points="458,-132 391,-132 391,-112 458,-112 458,-132"/>
<text xml:space="preserve" text-anchor="middle" x="424.5" y="-118.5" font-family="Helvetica,sans-Serif" font-size="10.00">dsps_fft2r.h</text>
</a>
</g>
</g>
<!-- Node1&#45;&gt;Node14 -->
<g id="edge14_Node000001_Node000014" class="edge">
<title>Node1&#45;&gt;Node14</title>
<g id="a_edge14_Node000001_Node000014"><a xlink:title=" ">
<path fill="none" stroke="#63b8ff" d="M320.45,-167.59C340.2,-159.13 369.49,-146.58 391.97,-136.94"/>
<polygon fill="#63b8ff" stroke="#63b8ff" points="393.18,-140.23 400.99,-133.08 390.42,-133.8 393.18,-140.23"/>
</a>
</g>
</g>
<!-- Node3 -->
<g id="Node000003" class="node">
<title>Node3</title>
<g id="a_Node000003"><a xlink:title=" ">
<polygon fill="#e0e0e0" stroke="#999999" points="154.62,-20 106.38,-20 106.38,0 154.62,0 154.62,-20"/>
<text xml:space="preserve" text-anchor="middle" x="130.5" y="-6.5" font-family="Helvetica,sans-Serif" font-size="10.00">stdint.h</text>
</a>
</g>
</g>
<!-- Node2&#45;&gt;Node3 -->
<g id="edge2_Node000002_Node000003" class="edge">
<title>Node2&#45;&gt;Node3</title>
<g id="a_edge2_Node000002_Node000003"><a xlink:title=" ">
<path fill="none" stroke="#63b8ff" d="M146.02,-111.6C132.76,-104.02 116.25,-92 108.5,-76 101.2,-60.94 108.54,-42.84 116.64,-29.57"/>
<polygon fill="#63b8ff" stroke="#63b8ff" points="119.49,-31.61 122.19,-21.36 113.69,-27.68 119.49,-31.61"/>
</a>
</g>
</g>
<!-- Node4 -->
<g id="Node000004" class="node">
<title>Node4</title>
<g id="a_Node000004"><a xlink:title=" ">
<polygon fill="#e0e0e0" stroke="#999999" points="173.38,-76 117.62,-76 117.62,-56 173.38,-56 173.38,-76"/>
<text xml:space="preserve" text-anchor="middle" x="145.5" y="-62.5" font-family="Helvetica,sans-Serif" font-size="10.00">stdbool.h</text>
</a>
</g>
</g>
<!-- Node2&#45;&gt;Node4 -->
<g id="edge3_Node000002_Node000004" class="edge">
<title>Node2&#45;&gt;Node4</title>
<g id="a_edge3_Node000002_Node000004"><a xlink:title=" ">
<path fill="none" stroke="#63b8ff" d="M162.02,-111.59C159.49,-104.78 155.99,-95.32 152.86,-86.86"/>
<polygon fill="#63b8ff" stroke="#63b8ff" points="156.22,-85.88 149.47,-77.72 149.66,-88.31 156.22,-85.88"/>
</a>
</g>
</g>
<!-- Node5 -->
<g id="Node000005" class="node">
<title>Node5</title>
<g id="a_Node000005"><a xlink:href="dsp__err_8h.html" target="_top" xlink:title=" ">
<polygon fill="white" stroke="#666666" points="358.75,-76 302.25,-76 302.25,-56 358.75,-56 358.75,-76"/>
<text xml:space="preserve" text-anchor="middle" x="330.5" y="-62.5" font-family="Helvetica,sans-Serif" font-size="10.00">dsp_err.h</text>
</a>
</g>
</g>
<!-- Node2&#45;&gt;Node5 -->
<g id="edge4_Node000002_Node000005" class="edge">
<title>Node2&#45;&gt;Node5</title>
<g id="a_edge4_Node000002_Node000005"><a xlink:title=" ">
<path fill="none" stroke="#63b8ff" d="M194.24,-111.59C221.01,-102.83 261.16,-89.69 290.95,-79.94"/>
<polygon fill="#63b8ff" stroke="#63b8ff" points="291.96,-83.3 300.37,-76.86 289.78,-76.64 291.96,-83.3"/>
</a>
</g>
</g>
<!-- Node9 -->
<g id="Node000009" class="node">
<title>Node9</title>
<g id="a_Node000009"><a xlink:title=" ">
<polygon fill="#e0e0e0" stroke="#999999" points="283.75,-76 191.25,-76 191.25,-56 283.75,-56 283.75,-76"/>
<text xml:space="preserve" text-anchor="middle" x="237.5" y="-62.5" font-family="Helvetica,sans-Serif" font-size="10.00">esp_idf_version.h</text>
</a>
</g>
</g>
<!-- Node2&#45;&gt;Node9 -->
<g id="edge8_Node000002_Node000009" class="edge">
<title>Node2&#45;&gt;Node9</title>
<g id="a_edge8_Node000002_Node000009"><a xlink:title=" ">
<path fill="none" stroke="#63b8ff" d="M178.04,-111.59C188.47,-103.77 203.55,-92.46 215.91,-83.19"/>
<polygon fill="#63b8ff" stroke="#63b8ff" points="217.99,-86.01 223.89,-77.21 213.79,-80.41 217.99,-86.01"/>
</a>
</g>
</g>
<!-- Node10 -->
<g id="Node000010" class="node">
<title>Node10</title>
<g id="a_Node000010"><a xlink:title=" ">
<polygon fill="#e0e0e0" stroke="#999999" points="61,-76 0,-76 0,-56 61,-56 61,-76"/>
<text xml:space="preserve" text-anchor="middle" x="30.5" y="-62.5" font-family="Helvetica,sans-Serif" font-size="10.00">x86intrin.h</text>
</a>
</g>
</g>
<!-- Node2&#45;&gt;Node10 -->
<g id="edge9_Node000002_Node000010" class="edge">
<title>Node2&#45;&gt;Node10</title>
<g id="a_edge9_Node000002_Node000010"><a xlink:title=" ">
<path fill="none" stroke="#63b8ff" d="M141.98,-111.59C120.63,-103.05 88.87,-90.35 64.7,-80.68"/>
<polygon fill="#63b8ff" stroke="#63b8ff" points="66.19,-77.51 55.6,-77.04 63.59,-84.01 66.19,-77.51"/>
</a>
</g>
</g>
<!-- Node5&#45;&gt;Node3 -->
<g id="edge5_Node000005_Node000003" class="edge">
<title>Node5&#45;&gt;Node3</title>
<g id="a_edge5_Node000005_Node000003"><a xlink:title=" ">
<path fill="none" stroke="#63b8ff" d="M301.84,-57.26C265.96,-47.57 204.51,-30.98 165.77,-20.52"/>
<polygon fill="#63b8ff" stroke="#63b8ff" points="167.04,-17.24 156.47,-18.01 165.22,-24 167.04,-17.24"/>
</a>
</g>
</g>
<!-- Node6 -->
<g id="Node000006" class="node">
<title>Node6</title>
<g id="a_Node000006"><a xlink:href="esp__err_8h.html" target="_top" xlink:title=" ">
<polygon fill="#fff0f0" stroke="red" points="268.75,-20 212.25,-20 212.25,0 268.75,0 268.75,-20"/>
<text xml:space="preserve" text-anchor="middle" x="240.5" y="-6.5" font-family="Helvetica,sans-Serif" font-size="10.00">esp_err.h</text>
</a>
</g>
</g>
<!-- Node5&#45;&gt;Node6 -->
<g id="edge6_Node000005_Node000006" class="edge">
<title>Node5&#45;&gt;Node6</title>
<g id="a_edge6_Node000005_Node000006"><a xlink:title=" ">
<path fill="none" stroke="#63b8ff" d="M314.82,-55.59C301.36,-47.51 281.68,-35.71 265.96,-26.27"/>
<polygon fill="#63b8ff" stroke="#63b8ff" points="267.97,-23.4 257.6,-21.26 264.37,-29.4 267.97,-23.4"/>
</a>
</g>
</g>
<!-- Node8 -->
<g id="Node000008" class="node">
<title>Node8</title>
<g id="a_Node000008"><a xlink:href="dsp__err__codes_8h.html" target="_top" xlink:title=" ">
<polygon fill="white" stroke="#666666" points="374.5,-20 286.5,-20 286.5,0 374.5,0 374.5,-20"/>
<text xml:space="preserve" text-anchor="middle" x="330.5" y="-6.5" font-family="Helvetica,sans-Serif" font-size="10.00">dsp_err_codes.h</text>
</a>
</g>
</g>
<!-- Node5&#45;&gt;Node8 -->
<g id="edge7_Node000005_Node000008" class="edge">
<title>Node5&#45;&gt;Node8</title>
<g id="a_edge7_Node000005_Node000008"><a xlink:title=" ">
<path fill="none" stroke="#63b8ff" d="M330.5,-55.59C330.5,-49.01 330.5,-39.96 330.5,-31.73"/>
<polygon fill="#63b8ff" stroke="#63b8ff" points="334,-31.81 330.5,-21.81 327,-31.81 334,-31.81"/>
</a>
</g>
</g>
<!-- Node12&#45;&gt;Node5 -->
<g id="edge12_Node000012_Node000005" class="edge">
<title>Node12&#45;&gt;Node5</title>
<g id="a_edge12_Node000012_Node000005"><a xlink:title=" ">
<path fill="none" stroke="#63b8ff" d="M334.63,-111.59C334.02,-105.01 333.18,-95.96 332.42,-87.73"/>
<polygon fill="#63b8ff" stroke="#63b8ff" points="335.91,-87.44 331.5,-77.81 328.94,-88.09 335.91,-87.44"/>
</a>
</g>
</g>
<!-- Node13 -->
<g id="Node000013" class="node">
<title>Node13</title>
<g id="a_Node000013"><a xlink:title=" ">
<polygon fill="#e0e0e0" stroke="#999999" points="458.62,-20 392.38,-20 392.38,0 458.62,0 458.62,-20"/>
<text xml:space="preserve" text-anchor="middle" x="425.5" y="-6.5" font-family="Helvetica,sans-Serif" font-size="10.00">sdkconfig.h</text>
</a>
</g>
</g>
<!-- Node12&#45;&gt;Node13 -->
<g id="edge13_Node000012_Node000013" class="edge">
<title>Node12&#45;&gt;Node13</title>
<g id="a_edge13_Node000012_Node000013"><a xlink:title=" ">
<path fill="none" stroke="#63b8ff" d="M343.17,-111.62C358.12,-93.36 391.35,-52.73 410.72,-29.07"/>
<polygon fill="#63b8ff" stroke="#63b8ff" points="413.26,-31.48 416.89,-21.53 407.85,-27.05 413.26,-31.48"/>
</a>
</g>
</g>
<!-- Node14&#45;&gt;Node5 -->
<g id="edge15_Node000014_Node000005" class="edge">
<title>Node14&#45;&gt;Node5</title>
<g id="a_edge15_Node000014_Node000005"><a xlink:title=" ">
<path fill="none" stroke="#63b8ff" d="M408.13,-111.59C393.93,-103.44 373.12,-91.48 356.62,-82"/>
<polygon fill="#63b8ff" stroke="#63b8ff" points="358.73,-79.18 348.31,-77.23 355.24,-85.25 358.73,-79.18"/>
</a>
</g>
</g>
<!-- Node14&#45;&gt;Node13 -->
<g id="edge16_Node000014_Node000013" class="edge">
<title>Node14&#45;&gt;Node13</title>
<g id="a_edge16_Node000014_Node000013"><a xlink:title=" ">
<path fill="none" stroke="#63b8ff" d="M424.59,-111.62C424.75,-94.01 425.09,-55.59 425.31,-31.65"/>
<polygon fill="#63b8ff" stroke="#63b8ff" points="428.81,-31.9 425.4,-21.87 421.81,-31.84 428.81,-31.9"/>
</a>
</g>
</g>
<!-- Node15 -->
<g id="Node000015" class="node">
<title>Node15</title>
<g id="a_Node000015"><a xlink:href="dsps__fft__tables_8h.html" target="_top" xlink:title=" ">
<polygon fill="white" stroke="#666666" points="542.62,-76 452.38,-76 452.38,-56 542.62,-56 542.62,-76"/>
<text xml:space="preserve" text-anchor="middle" x="497.5" y="-62.5" font-family="Helvetica,sans-Serif" font-size="10.00">dsps_fft_tables.h</text>
</a>
</g>
</g>
<!-- Node14&#45;&gt;Node15 -->
<g id="edge17_Node000014_Node000015" class="edge">
<title>Node14&#45;&gt;Node15</title>
<g id="a_edge17_Node000014_Node000015"><a xlink:title=" ">
<path fill="none" stroke="#63b8ff" d="M437.22,-111.59C447.89,-103.7 463.38,-92.24 475.98,-82.92"/>
<polygon fill="#63b8ff" stroke="#63b8ff" points="477.76,-85.96 483.71,-77.2 473.59,-80.33 477.76,-85.96"/>
</a>
</g>
</g>
<!-- Node16 -->
<g id="Node000016" class="node">
<title>Node16</title>
<g id="a_Node000016"><a xlink:href="dsps__fft2r__platform_8h.html" target="_top" xlink:title=" ">
<polygon fill="white" stroke="#666666" points="668.25,-76 560.75,-76 560.75,-56 668.25,-56 668.25,-76"/>
<text xml:space="preserve" text-anchor="middle" x="614.5" y="-62.5" font-family="Helvetica,sans-Serif" font-size="10.00">dsps_fft2r_platform.h</text>
</a>
</g>
</g>
<!-- Node14&#45;&gt;Node16 -->
<g id="edge18_Node000014_Node000016" class="edge">
<title>Node14&#45;&gt;Node16</title>
<g id="a_edge18_Node000014_Node000016"><a xlink:title=" ">
<path fill="none" stroke="#63b8ff" d="M457.6,-111.59C488.87,-102.71 536,-89.31 570.45,-79.52"/>
<polygon fill="#63b8ff" stroke="#63b8ff" points="571.03,-82.99 579.69,-76.89 569.11,-76.26 571.03,-82.99"/>
</a>
</g>
</g>
<!-- Node16&#45;&gt;Node13 -->
<g id="edge19_Node000016_Node000013" class="edge">
<title>Node16&#45;&gt;Node13</title>
<g id="a_edge19_Node000016_Node000013"><a xlink:title=" ">
<path fill="none" stroke="#63b8ff" d="M581.58,-55.59C550.47,-46.71 503.58,-33.31 469.32,-23.52"/>
<polygon fill="#63b8ff" stroke="#63b8ff" points="470.71,-20.28 460.13,-20.9 468.79,-27.01 470.71,-20.28"/>
</a>
</g>
</g>
</g>
</svg>
