<?xml version="1.0" encoding="UTF-8" standalone="no"?>
<!DOCTYPE svg PUBLIC "-//W3C//DTD SVG 1.1//EN"
 "http://www.w3.org/Graphics/SVG/1.1/DTD/svg11.dtd">
<!-- Generated by graphviz version 14.1.2 (20260124.0452)
 -->
<!-- Title: dsps_fft_tables.h Pages: 1 -->
<svg width="3374pt" height="264pt"
 viewBox="0.00 0.00 3374.00 264.00" xmlns="http://www.w3.org/2000/svg" xmlns:xlink="http://www.w3.org/1999/xlink">
<g id="graph0" class="graph" transform="scale(1 1) rotate(0) translate(4 260)">
<title>dsps_fft_tables.h</title>
<!-- Node1 -->
<g id="Node000001" class="node">
<title>Node1</title>
<g id="a_Node000001"><a xlink:title=" ">
<polygon fill="#999999" stroke="#666666" points="1789.25,-256 1699,-256 1699,-236 1789.25,-236 1789.25,-256"/>
<text xml:space="preserve" text-anchor="middle" x="1744.12" y="-242.5" font-family="Helvetica,sans-Serif" font-size="10.00">dsps_fft_tables.h</text>
</a>
</g>
</g>
<!-- Node2 -->
<g id="Node000002" class="node">
<title>Node2</title>
<g id="a_Node000002"><a xlink:href="dsps__fft2r_8h.html" target="_top" xlink:title=" ">
<polygon fill="white" stroke="#666666" points="774.62,-194 707.62,-194 707.62,-174 774.62,-174 774.62,-194"/>
<text xml:space="preserve" text-anchor="middle" x="741.12" y="-180.5" font-family="Helvetica,sans-Serif" font-size="10.00">dsps_fft2r.h</text>
</a>
</g>
</g>
<!-- Node1&#45;&gt;Node2 -->
<g id="edge1_Node000001_Node000002" class="edge">
<title>Node1&#45;&gt;Node2</title>
<g id="a_edge1_Node000001_Node000002"><a xlink:title=" ">
<path fill="none" stroke="#63b8ff" d="M1687.42,-241.61C1502.68,-230.56 921.64,-195.8 775,-187.03"/>
<polygon fill="#63b8ff" stroke="#63b8ff" points="1687.05,-245.09 1697.24,-242.2 1687.47,-238.1 1687.05,-245.09"/>
</a>
</g>
</g>
<!-- Node47 -->
<g id="Node000047" class="node">
<title>Node47</title>
<g id="a_Node000047"><a xlink:href="dsps__fft2r__bitrev__tables__fc32_8c.html" target="_top" xlink:title=" ">
<polygon fill="white" stroke="#666666" points="1859.88,-200 1740.38,-200 1740.38,-168 1859.88,-168 1859.88,-200"/>
<text xml:space="preserve" text-anchor="start" x="1748.38" y="-186.5" font-family="Helvetica,sans-Serif" font-size="10.00">dsps_fft2r_bitrev_tables</text>
<text xml:space="preserve" text-anchor="middle" x="1800.12" y="-174.5" font-family="Helvetica,sans-Serif" font-size="10.00">_fc32.c</text>
</a>
</g>
</g>
<!-- Node1&#45;&gt;Node47 -->
<g id="edge39_Node000001_Node000047" class="edge">
<title>Node1&#45;&gt;Node47</title>
<g id="a_edge39_Node000001_Node000047"><a xlink:title=" ">
<path fill="none" stroke="#63b8ff" d="M1760.58,-227.37C1768.64,-218.73 1778.26,-208.42 1785.99,-200.14"/>
<polygon fill="#63b8ff" stroke="#63b8ff" points="1758.17,-224.82 1753.91,-234.52 1763.29,-229.6 1758.17,-224.82"/>
</a>
</g>
</g>
<!-- Node48 -->
<g id="Node000048" class="node">
<title>Node48</title>
<g id="a_Node000048"><a xlink:href="dsps__fft4r_8h.html" target="_top" xlink:title=" ">
<polygon fill="white" stroke="#666666" points="1722.62,-194 1655.62,-194 1655.62,-174 1722.62,-174 1722.62,-194"/>
<text xml:space="preserve" text-anchor="middle" x="1689.12" y="-180.5" font-family="Helvetica,sans-Serif" font-size="10.00">dsps_fft4r.h</text>
</a>
</g>
</g>
<!-- Node1&#45;&gt;Node48 -->
<g id="edge40_Node000001_Node000048" class="edge">
<title>Node1&#45;&gt;Node48</title>
<g id="a_edge40_Node000001_Node000048"><a xlink:title=" ">
<path fill="none" stroke="#63b8ff" d="M1727.86,-227.25C1717.88,-216.36 1705.51,-202.88 1697.48,-194.11"/>
<polygon fill="#63b8ff" stroke="#63b8ff" points="1725.17,-229.5 1734.51,-234.51 1730.33,-224.77 1725.17,-229.5"/>
</a>
</g>
</g>
<!-- Node49 -->
<g id="Node000049" class="node">
<title>Node49</title>
<g id="a_Node000049"><a xlink:href="dsps__fft4r__bitrev__tables__fc32_8c.html" target="_top" xlink:title=" ">
<polygon fill="white" stroke="#666666" points="1997.88,-200 1878.38,-200 1878.38,-168 1997.88,-168 1997.88,-200"/>
<text xml:space="preserve" text-anchor="start" x="1886.38" y="-186.5" font-family="Helvetica,sans-Serif" font-size="10.00">dsps_fft4r_bitrev_tables</text>
<text xml:space="preserve" text-anchor="middle" x="1938.12" y="-174.5" font-family="Helvetica,sans-Serif" font-size="10.00">_fc32.c</text>
</a>
</g>
</g>
<!-- Node1&#45;&gt;Node49 -->
<g id="edge44_Node000001_Node000049" class="edge">
<title>Node1&#45;&gt;Node49</title>
<g id="a_edge44_Node000001_Node000049"><a xlink:title=" ">
<path fill="none" stroke="#63b8ff" d="M1785.37,-232.24C1815.38,-222.96 1856.16,-210.35 1888.04,-200.49"/>
<polygon fill="#63b8ff" stroke="#63b8ff" points="1784.4,-228.88 1775.88,-235.18 1786.47,-235.57 1784.4,-228.88"/>
</a>
</g>
</g>
<!-- Node3 -->
<g id="Node000003" class="node">
<title>Node3</title>
<g id="a_Node000003"><a xlink:href="dsps__dct__f32_8c.html" target="_top" xlink:title=" ">
<polygon fill="white" stroke="#666666" points="873.5,-132 790.75,-132 790.75,-112 873.5,-112 873.5,-132"/>
<text xml:space="preserve" text-anchor="middle" x="832.12" y="-118.5" font-family="Helvetica,sans-Serif" font-size="10.00">dsps_dct_f32.c</text>
</a>
</g>
</g>
<!-- Node2&#45;&gt;Node3 -->
<g id="edge2_Node000002_Node000003" class="edge">
<title>Node2&#45;&gt;Node3</title>
<g id="a_edge2_Node000002_Node000003"><a xlink:title=" ">
<path fill="none" stroke="#63b8ff" d="M764.58,-167.54C781.49,-156.39 803.75,-141.71 818.01,-132.31"/>
<polygon fill="#63b8ff" stroke="#63b8ff" points="763.03,-164.37 756.61,-172.79 766.88,-170.21 763.03,-164.37"/>
</a>
</g>
</g>
<!-- Node4 -->
<g id="Node000004" class="node">
<title>Node4</title>
<g id="a_Node000004"><a xlink:href="dsps__dctiv__f32_8c.html" target="_top" xlink:title=" ">
<polygon fill="white" stroke="#666666" points="90.25,-132 0,-132 0,-112 90.25,-112 90.25,-132"/>
<text xml:space="preserve" text-anchor="middle" x="45.12" y="-118.5" font-family="Helvetica,sans-Serif" font-size="10.00">dsps_dctiv_f32.c</text>
</a>
</g>
</g>
<!-- Node2&#45;&gt;Node4 -->
<g id="edge3_Node000002_Node000004" class="edge">
<title>Node2&#45;&gt;Node4</title>
<g id="a_edge3_Node000002_Node000004"><a xlink:title=" ">
<path fill="none" stroke="#63b8ff" d="M695.85,-180.74C590.75,-175.21 322.19,-159.4 99.12,-132 96.29,-131.65 93.39,-131.26 90.46,-130.85"/>
<polygon fill="#63b8ff" stroke="#63b8ff" points="695.58,-184.23 705.75,-181.26 695.95,-177.24 695.58,-184.23"/>
</a>
</g>
</g>
<!-- Node5 -->
<g id="Node000005" class="node">
<title>Node5</title>
<g id="a_Node000005"><a xlink:href="dsps__dstiv__f32_8c.html" target="_top" xlink:title=" ">
<polygon fill="white" stroke="#666666" points="198.25,-132 108,-132 108,-112 198.25,-112 198.25,-132"/>
<text xml:space="preserve" text-anchor="middle" x="153.12" y="-118.5" font-family="Helvetica,sans-Serif" font-size="10.00">dsps_dstiv_f32.c</text>
</a>
</g>
</g>
<!-- Node2&#45;&gt;Node5 -->
<g id="edge4_Node000002_Node000005" class="edge">
<title>Node2&#45;&gt;Node5</title>
<g id="a_edge4_Node000002_Node000005"><a xlink:title=" ">
<path fill="none" stroke="#63b8ff" d="M695.9,-179.75C603.73,-172.9 387.59,-155.63 207.12,-132 204.3,-131.63 201.39,-131.22 198.46,-130.79"/>
<polygon fill="#63b8ff" stroke="#63b8ff" points="695.56,-183.24 705.79,-180.48 696.07,-176.26 695.56,-183.24"/>
</a>
</g>
</g>
<!-- Node6 -->
<g id="Node000006" class="node">
<title>Node6</title>
<g id="a_Node000006"><a xlink:href="dsps__fft2r__fc32__ae32_8c.html" target="_top" xlink:title=" ">
<polygon fill="white" stroke="#666666" points="333.75,-132 216.5,-132 216.5,-112 333.75,-112 333.75,-132"/>
<text xml:space="preserve" text-anchor="middle" x="275.12" y="-118.5" font-family="Helvetica,sans-Serif" font-size="10.00">dsps_fft2r_fc32_ae32.c</text>
</a>
</g>
</g>
<!-- Node2&#45;&gt;Node6 -->
<g id="edge5_Node000002_Node000006" class="edge">
<title>Node2&#45;&gt;Node6</title>
<g id="a_edge5_Node000002_Node000006"><a xlink:title=" ">
<path fill="none" stroke="#63b8ff" d="M696.15,-177.3C622.41,-167.94 471.15,-148.68 343.12,-132 340.17,-131.62 337.15,-131.22 334.09,-130.82"/>
<polygon fill="#63b8ff" stroke="#63b8ff" points="695.45,-180.74 705.81,-178.52 696.33,-173.79 695.45,-180.74"/>
</a>
</g>
</g>
<!-- Node7 -->
<g id="Node000007" class="node">
<title>Node7</title>
<g id="a_Node000007"><a xlink:href="dsps__fft2r__fc32__ansi_8c.html" target="_top" xlink:title=" ">
<polygon fill="white" stroke="#666666" points="466.25,-132 352,-132 352,-112 466.25,-112 466.25,-132"/>
<text xml:space="preserve" text-anchor="middle" x="409.12" y="-118.5" font-family="Helvetica,sans-Serif" font-size="10.00">dsps_fft2r_fc32_ansi.c</text>
</a>
</g>
</g>
<!-- Node2&#45;&gt;Node7 -->
<g id="edge6_Node000002_Node000007" class="edge">
<title>Node2&#45;&gt;Node7</title>
<g id="a_edge6_Node000002_Node000007"><a xlink:title=" ">
<path fill="none" stroke="#63b8ff" d="M695.96,-174.84C634.86,-163.8 526.11,-144.14 461.5,-132.47"/>
<polygon fill="#63b8ff" stroke="#63b8ff" points="695.2,-178.26 705.67,-176.59 696.45,-171.37 695.2,-178.26"/>
</a>
</g>
</g>
<!-- Node8 -->
<g id="Node000008" class="node">
<title>Node8</title>
<g id="a_Node000008"><a xlink:href="dsps__fft2r__sc16__ansi_8c.html" target="_top" xlink:title=" ">
<polygon fill="white" stroke="#666666" points="672.38,-20 555.88,-20 555.88,0 672.38,0 672.38,-20"/>
<text xml:space="preserve" text-anchor="middle" x="614.12" y="-6.5" font-family="Helvetica,sans-Serif" font-size="10.00">dsps_fft2r_sc16_ansi.c</text>
</a>
</g>
</g>
<!-- Node2&#45;&gt;Node8 -->
<g id="edge7_Node000002_Node000008" class="edge">
<title>Node2&#45;&gt;Node8</title>
<g id="a_edge7_Node000002_Node000008"><a xlink:title=" ">
<path fill="none" stroke="#63b8ff" d="M786.02,-176.65C838.2,-167.47 913.41,-147.56 882.12,-112 799.25,-17.79 685,-170.21 602.12,-76 588.33,-60.32 600.22,-34.08 608.24,-20.22"/>
<polygon fill="#63b8ff" stroke="#63b8ff" points="785.73,-173.15 776.45,-178.25 786.89,-180.05 785.73,-173.15"/>
</a>
</g>
</g>
<!-- Node9 -->
<g id="Node000009" class="node">
<title>Node9</title>
<g id="a_Node000009"><a xlink:href="dsps__fft4r__fc32__ae32_8c.html" target="_top" xlink:title=" ">
<polygon fill="white" stroke="#666666" points="2037.75,-132 1920.5,-132 1920.5,-112 2037.75,-112 2037.75,-132"/>
<text xml:space="preserve" text-anchor="middle" x="1979.12" y="-118.5" font-family="Helvetica,sans-Serif" font-size="10.00">dsps_fft4r_fc32_ae32.c</text>
</a>
</g>
</g>
<!-- Node2&#45;&gt;Node9 -->
<g id="edge8_Node000002_Node000009" class="edge">
<title>Node2&#45;&gt;Node9</title>
<g id="a_edge8_Node000002_Node000009"><a xlink:title=" ">
<path fill="none" stroke="#63b8ff" d="M786.16,-182.5C942.27,-180.44 1474.56,-170.84 1912.12,-132 1914.81,-131.76 1917.56,-131.49 1920.33,-131.2"/>
<polygon fill="#63b8ff" stroke="#63b8ff" points="786.2,-179 776.25,-182.62 786.29,-185.99 786.2,-179"/>
</a>
</g>
</g>
<!-- Node10 -->
<g id="Node000010" class="node">
<title>Node10</title>
<g id="a_Node000010"><a xlink:href="dsps__fft4r__fc32__ansi_8c.html" target="_top" xlink:title=" ">
<polygon fill="white" stroke="#666666" points="1563.25,-132 1449,-132 1449,-112 1563.25,-112 1563.25,-132"/>
<text xml:space="preserve" text-anchor="middle" x="1506.12" y="-118.5" font-family="Helvetica,sans-Serif" font-size="10.00">dsps_fft4r_fc32_ansi.c</text>
</a>
</g>
</g>
<!-- Node2&#45;&gt;Node10 -->
<g id="edge9_Node000002_Node000010" class="edge">
<title>Node2&#45;&gt;Node10</title>
<g id="a_edge9_Node000002_Node000010"><a xlink:title=" ">
<path fill="none" stroke="#63b8ff" d="M786.21,-179.46C917.97,-169.13 1302.29,-138.99 1448.63,-127.51"/>
<polygon fill="#63b8ff" stroke="#63b8ff" points="786.19,-175.95 776.49,-180.23 786.74,-182.93 786.19,-175.95"/>
</a>
</g>
</g>
<!-- Node11 -->
<g id="Node000011" class="node">
<title>Node11</title>
<g id="a_Node000011"><a xlink:href="dsps__sfdr__f32_8cpp.html" target="_top" xlink:title=" ">
<polygon fill="white" stroke="#666666" points="580.25,-132 484,-132 484,-112 580.25,-112 580.25,-132"/>
<text xml:space="preserve" text-anchor="middle" x="532.12" y="-118.5" font-family="Helvetica,sans-Serif" font-size="10.00">dsps_sfdr_f32.cpp</text>
</a>
</g>
</g>
<!-- Node2&#45;&gt;Node11 -->
<g id="edge10_Node000002_Node000011" class="edge">
<title>Node2&#45;&gt;Node11</title>
<g id="a_edge10_Node000002_Node000011"><a xlink:title=" ">
<path fill="none" stroke="#63b8ff" d="M697.58,-170.5C658.06,-159.15 600.65,-142.67 564.9,-132.41"/>
<polygon fill="#63b8ff" stroke="#63b8ff" points="696.44,-173.81 707.01,-173.21 698.37,-167.08 696.44,-173.81"/>
</a>
</g>
</g>
<!-- Node12 -->
<g id="Node000012" class="node">
<title>Node12</title>
<g id="a_Node000012"><a xlink:href="dsps__snr__f32_8cpp.html" target="_top" xlink:title=" ">
<polygon fill="white" stroke="#666666" points="691.75,-132 598.5,-132 598.5,-112 691.75,-112 691.75,-132"/>
<text xml:space="preserve" text-anchor="middle" x="645.12" y="-118.5" font-family="Helvetica,sans-Serif" font-size="10.00">dsps_snr_f32.cpp</text>
</a>
</g>
</g>
<!-- Node2&#45;&gt;Node12 -->
<g id="edge11_Node000002_Node000012" class="edge">
<title>Node2&#45;&gt;Node12</title>
<g id="a_edge11_Node000002_Node000012"><a xlink:title=" ">
<path fill="none" stroke="#63b8ff" d="M716.38,-167.54C698.54,-156.39 675.06,-141.71 660.02,-132.31"/>
<polygon fill="#63b8ff" stroke="#63b8ff" points="714.51,-170.49 724.84,-172.82 718.22,-164.55 714.51,-170.49"/>
</a>
</g>
</g>
<!-- Node13 -->
<g id="Node000013" class="node">
<title>Node13</title>
<g id="a_Node000013"><a xlink:href="esp__dsp_8h.html" target="_top" xlink:title=" ">
<polygon fill="white" stroke="#666666" points="1902.62,-132 1841.62,-132 1841.62,-112 1902.62,-112 1902.62,-132"/>
<text xml:space="preserve" text-anchor="middle" x="1872.12" y="-118.5" font-family="Helvetica,sans-Serif" font-size="10.00">esp_dsp.h</text>
</a>
</g>
</g>
<!-- Node2&#45;&gt;Node13 -->
<g id="edge12_Node000002_Node000013" class="edge">
<title>Node2&#45;&gt;Node13</title>
<g id="a_edge12_Node000002_Node000013"><a xlink:title=" ">
<path fill="none" stroke="#63b8ff" d="M786.27,-180.61C973.24,-170.69 1684.47,-132.96 1841.37,-124.63"/>
<polygon fill="#63b8ff" stroke="#63b8ff" points="786.29,-177.1 776.49,-181.12 786.66,-184.09 786.29,-177.1"/>
</a>
</g>
</g>
<!-- Node46 -->
<g id="Node000046" class="node">
<title>Node46</title>
<g id="a_Node000046"><a xlink:href="test__fft2r_8c.html" target="_top" xlink:title=" ">
<polygon fill="white" stroke="#666666" points="772.38,-132 709.88,-132 709.88,-112 772.38,-112 772.38,-132"/>
<text xml:space="preserve" text-anchor="middle" x="741.12" y="-118.5" font-family="Helvetica,sans-Serif" font-size="10.00">test_fft2r.c</text>
</a>
</g>
</g>
<!-- Node2&#45;&gt;Node46 -->
<g id="edge38_Node000002_Node000046" class="edge">
<title>Node2&#45;&gt;Node46</title>
<g id="a_edge38_Node000002_Node000046"><a xlink:title=" ">
<path fill="none" stroke="#63b8ff" d="M741.12,-162.25C741.12,-151.97 741.12,-140.09 741.12,-132.11"/>
<polygon fill="#63b8ff" stroke="#63b8ff" points="737.63,-162.11 741.13,-172.11 744.63,-162.11 737.63,-162.11"/>
</a>
</g>
</g>
<!-- Node14 -->
<g id="Node000014" class="node">
<title>Node14</title>
<g id="a_Node000014"><a xlink:href="applications_2azure__board__apps_2apps_23d__graphics_2main_23d__graphics__demo_8cpp.html" target="_top" xlink:title=" ">
<polygon fill="white" stroke="#666666" points="813.38,-76 696.88,-76 696.88,-56 813.38,-56 813.38,-76"/>
<text xml:space="preserve" text-anchor="middle" x="755.12" y="-62.5" font-family="Helvetica,sans-Serif" font-size="10.00">3d_graphics_demo.cpp</text>
</a>
</g>
</g>
<!-- Node13&#45;&gt;Node14 -->
<g id="edge13_Node000013_Node000014" class="edge">
<title>Node13&#45;&gt;Node14</title>
<g id="a_edge13_Node000013_Node000014"><a xlink:title=" ">
<path fill="none" stroke="#63b8ff" d="M1829.79,-119.69C1659.46,-114.32 1023.74,-93.54 823.12,-76 820.04,-75.73 816.88,-75.42 813.69,-75.09"/>
<polygon fill="#63b8ff" stroke="#63b8ff" points="1829.62,-123.18 1839.73,-120 1829.84,-116.19 1829.62,-123.18"/>
</a>
</g>
</g>
<!-- Node15 -->
<g id="Node000015" class="node">
<title>Node15</title>
<g id="a_Node000015"><a xlink:href="applications_2m5stack__core__s3_2apps_23d__graphics_2main_23d__graphics__demo_8cpp.html" target="_top" xlink:title=" ">
<polygon fill="white" stroke="#666666" points="948.38,-76 831.88,-76 831.88,-56 948.38,-56 948.38,-76"/>
<text xml:space="preserve" text-anchor="middle" x="890.12" y="-62.5" font-family="Helvetica,sans-Serif" font-size="10.00">3d_graphics_demo.cpp</text>
</a>
</g>
</g>
<!-- Node13&#45;&gt;Node15 -->
<g id="edge14_Node000013_Node000015" class="edge">
<title>Node13&#45;&gt;Node15</title>
<g id="a_edge14_Node000013_Node000015"><a xlink:title=" ">
<path fill="none" stroke="#63b8ff" d="M1829.76,-119.38C1673.67,-113.33 1130.84,-91.65 958.12,-76 955.04,-75.72 951.88,-75.4 948.7,-75.06"/>
<polygon fill="#63b8ff" stroke="#63b8ff" points="1829.52,-122.87 1839.65,-119.76 1829.79,-115.88 1829.52,-122.87"/>
</a>
</g>
</g>
<!-- Node16 -->
<g id="Node000016" class="node">
<title>Node16</title>
<g id="a_Node000016"><a xlink:href="external__examples_2b00f000e_2applications_2azure__board__apps_2apps_23d__graphics_2main_23d__graphics__demo_8cpp.html" target="_top" xlink:title=" ">
<polygon fill="white" stroke="#666666" points="1083.38,-76 966.88,-76 966.88,-56 1083.38,-56 1083.38,-76"/>
<text xml:space="preserve" text-anchor="middle" x="1025.12" y="-62.5" font-family="Helvetica,sans-Serif" font-size="10.00">3d_graphics_demo.cpp</text>
</a>
</g>
</g>
<!-- Node13&#45;&gt;Node16 -->
<g id="edge15_Node000013_Node000016" class="edge">
<title>Node13&#45;&gt;Node16</title>
<g id="a_edge15_Node000013_Node000016"><a xlink:title=" ">
<path fill="none" stroke="#63b8ff" d="M1829.99,-119.66C1712.92,-115.71 1373.78,-102.64 1093.12,-76 1090.04,-75.71 1086.88,-75.38 1083.7,-75.03"/>
<polygon fill="#63b8ff" stroke="#63b8ff" points="1829.64,-123.15 1839.75,-119.99 1829.87,-116.16 1829.64,-123.15"/>
</a>
</g>
</g>
<!-- Node17 -->
<g id="Node000017" class="node">
<title>Node17</title>
<g id="a_Node000017"><a xlink:href="external__examples_2b00f000e_2applications_2m5stack__core__s3_2apps_23d__graphics_2main_23d__graphics__demo_8cpp.html" target="_top" xlink:title=" ">
<polygon fill="white" stroke="#666666" points="1218.38,-76 1101.88,-76 1101.88,-56 1218.38,-56 1218.38,-76"/>
<text xml:space="preserve" text-anchor="middle" x="1160.12" y="-62.5" font-family="Helvetica,sans-Serif" font-size="10.00">3d_graphics_demo.cpp</text>
</a>
</g>
</g>
<!-- Node13&#45;&gt;Node17 -->
<g id="edge16_Node000013_Node000017" class="edge">
<title>Node13&#45;&gt;Node17</title>
<g id="a_edge16_Node000013_Node000017"><a xlink:title=" ">
<path fill="none" stroke="#63b8ff" d="M1829.8,-118.95C1726.7,-113.76 1454.45,-98.86 1228.12,-76 1225.04,-75.69 1221.89,-75.35 1218.7,-74.99"/>
<polygon fill="#63b8ff" stroke="#63b8ff" points="1829.56,-122.44 1839.72,-119.45 1829.91,-115.45 1829.56,-122.44"/>
</a>
</g>
</g>
<!-- Node18 -->
<g id="Node000018" class="node">
<title>Node18</title>
<g id="a_Node000018"><a xlink:href="external__examples_2d1468452_2apps_23d__graphics_2main_23d__graphics__demo_8cpp.html" target="_top" xlink:title=" ">
<polygon fill="white" stroke="#666666" points="1353.38,-76 1236.88,-76 1236.88,-56 1353.38,-56 1353.38,-76"/>
<text xml:space="preserve" text-anchor="middle" x="1295.12" y="-62.5" font-family="Helvetica,sans-Serif" font-size="10.00">3d_graphics_demo.cpp</text>
</a>
</g>
</g>
<!-- Node13&#45;&gt;Node18 -->
<g id="edge17_Node000013_Node000018" class="edge">
<title>Node13&#45;&gt;Node18</title>
<g id="a_edge17_Node000013_Node000018"><a xlink:title=" ">
<path fill="none" stroke="#63b8ff" d="M1830.14,-117.91C1742.99,-111.35 1536.16,-95.09 1363.12,-76 1360.05,-75.66 1356.89,-75.3 1353.71,-74.92"/>
<polygon fill="#63b8ff" stroke="#63b8ff" points="1829.64,-121.38 1839.87,-118.64 1830.16,-114.4 1829.64,-121.38"/>
</a>
</g>
</g>
<!-- Node19 -->
<g id="Node000019" class="node">
<title>Node19</title>
<g id="a_Node000019"><a xlink:href="external__examples_2f9c2d4b3_2azure__board__apps_2apps_23d__graphics_2main_23d__graphics__demo_8cpp.html" target="_top" xlink:title=" ">
<polygon fill="white" stroke="#666666" points="1488.38,-76 1371.88,-76 1371.88,-56 1488.38,-56 1488.38,-76"/>
<text xml:space="preserve" text-anchor="middle" x="1430.12" y="-62.5" font-family="Helvetica,sans-Serif" font-size="10.00">3d_graphics_demo.cpp</text>
</a>
</g>
</g>
<!-- Node13&#45;&gt;Node19 -->
<g id="edge18_Node000013_Node000019" class="edge">
<title>Node13&#45;&gt;Node19</title>
<g id="a_edge18_Node000013_Node000019"><a xlink:title=" ">
<path fill="none" stroke="#63b8ff" d="M1830.21,-116.17C1760.87,-108.12 1617.95,-91.36 1497.12,-76 1494.33,-75.64 1491.47,-75.28 1488.58,-74.9"/>
<polygon fill="#63b8ff" stroke="#63b8ff" points="1829.64,-119.62 1839.98,-117.3 1830.45,-112.67 1829.64,-119.62"/>
</a>
</g>
</g>
<!-- Node20 -->
<g id="Node000020" class="node">
<title>Node20</title>
<g id="a_Node000020"><a xlink:href="applications_2m5stack__core__s3_2apps_2kalman__filter_2main_23d__kalman__demo_8cpp.html" target="_top" xlink:title=" ">
<polygon fill="white" stroke="#666666" points="1617.75,-76 1506.5,-76 1506.5,-56 1617.75,-56 1617.75,-76"/>
<text xml:space="preserve" text-anchor="middle" x="1562.12" y="-62.5" font-family="Helvetica,sans-Serif" font-size="10.00">3d_kalman_demo.cpp</text>
</a>
</g>
</g>
<!-- Node13&#45;&gt;Node20 -->
<g id="edge19_Node000013_Node000020" class="edge">
<title>Node13&#45;&gt;Node20</title>
<g id="a_edge19_Node000013_Node000020"><a xlink:title=" ">
<path fill="none" stroke="#63b8ff" d="M1830.12,-113.68C1774.76,-104.04 1677.29,-87.06 1616.4,-76.45"/>
<polygon fill="#63b8ff" stroke="#63b8ff" points="1829.32,-117.1 1839.78,-115.37 1830.53,-110.2 1829.32,-117.1"/>
</a>
</g>
</g>
<!-- Node21 -->
<g id="Node000021" class="node">
<title>Node21</title>
<g id="a_Node000021"><a xlink:href="external__examples_2b00f000e_2applications_2m5stack__core__s3_2apps_2kalman__filter_2main_23d__kalman__demo_8cpp.html" target="_top" xlink:title=" ">
<polygon fill="white" stroke="#666666" points="1746.75,-76 1635.5,-76 1635.5,-56 1746.75,-56 1746.75,-76"/>
<text xml:space="preserve" text-anchor="middle" x="1691.12" y="-62.5" font-family="Helvetica,sans-Serif" font-size="10.00">3d_kalman_demo.cpp</text>
</a>
</g>
</g>
<!-- Node13&#45;&gt;Node21 -->
<g id="edge20_Node000013_Node000021" class="edge">
<title>Node13&#45;&gt;Node21</title>
<g id="a_edge20_Node000013_Node000021"><a xlink:title=" ">
<path fill="none" stroke="#63b8ff" d="M1830.39,-108.55C1797.65,-98.78 1752.76,-85.39 1722.89,-76.48"/>
<polygon fill="#63b8ff" stroke="#63b8ff" points="1829.39,-111.9 1839.97,-111.41 1831.39,-105.19 1829.39,-111.9"/>
</a>
</g>
</g>
<!-- Node22 -->
<g id="Node000022" class="node">
<title>Node22</title>
<g id="a_Node000022"><a xlink:href="applications_2lyrat__board__app_2main_2audio__amp__main_8c.html" target="_top" xlink:title=" ">
<polygon fill="white" stroke="#666666" points="1863,-76 1765.25,-76 1765.25,-56 1863,-56 1863,-76"/>
<text xml:space="preserve" text-anchor="middle" x="1814.12" y="-62.5" font-family="Helvetica,sans-Serif" font-size="10.00">audio_amp_main.c</text>
</a>
</g>
</g>
<!-- Node13&#45;&gt;Node22 -->
<g id="edge21_Node000013_Node000022" class="edge">
<title>Node13&#45;&gt;Node22</title>
<g id="a_edge21_Node000013_Node000022"><a xlink:title=" ">
<path fill="none" stroke="#63b8ff" d="M1853.7,-103.85C1843.9,-94.72 1832.23,-83.86 1824.11,-76.3"/>
<polygon fill="#63b8ff" stroke="#63b8ff" points="1851.21,-106.31 1860.91,-110.56 1855.98,-101.19 1851.21,-106.31"/>
</a>
</g>
</g>
<!-- Node23 -->
<g id="Node000023" class="node">
<title>Node23</title>
<g id="a_Node000023"><a xlink:href="external__examples_21fa4e38f_2lyrat__board__app_2main_2audio__amp__main_8c.html" target="_top" xlink:title=" ">
<polygon fill="white" stroke="#666666" points="1979,-76 1881.25,-76 1881.25,-56 1979,-56 1979,-76"/>
<text xml:space="preserve" text-anchor="middle" x="1930.12" y="-62.5" font-family="Helvetica,sans-Serif" font-size="10.00">audio_amp_main.c</text>
</a>
</g>
</g>
<!-- Node13&#45;&gt;Node23 -->
<g id="edge22_Node000013_Node000023" class="edge">
<title>Node13&#45;&gt;Node23</title>
<g id="a_edge22_Node000013_Node000023"><a xlink:title=" ">
<path fill="none" stroke="#63b8ff" d="M1890.55,-103.85C1900.35,-94.72 1912.02,-83.86 1920.14,-76.3"/>
<polygon fill="#63b8ff" stroke="#63b8ff" points="1888.27,-101.19 1883.34,-110.56 1893.04,-106.31 1888.27,-101.19"/>
</a>
</g>
</g>
<!-- Node24 -->
<g id="Node000024" class="node">
<title>Node24</title>
<g id="a_Node000024"><a xlink:href="external__examples_2b00f000e_2applications_2lyrat__board__app_2main_2audio__amp__main_8c.html" target="_top" xlink:title=" ">
<polygon fill="white" stroke="#666666" points="2095,-76 1997.25,-76 1997.25,-56 2095,-56 2095,-76"/>
<text xml:space="preserve" text-anchor="middle" x="2046.12" y="-62.5" font-family="Helvetica,sans-Serif" font-size="10.00">audio_amp_main.c</text>
</a>
</g>
</g>
<!-- Node13&#45;&gt;Node24 -->
<g id="edge23_Node000013_Node000024" class="edge">
<title>Node13&#45;&gt;Node24</title>
<g id="a_edge23_Node000013_Node000024"><a xlink:title=" ">
<path fill="none" stroke="#63b8ff" d="M1913.03,-108.31C1944.44,-98.56 1987.11,-85.32 2015.58,-76.48"/>
<polygon fill="#63b8ff" stroke="#63b8ff" points="1912.39,-104.84 1903.88,-111.15 1914.47,-111.52 1912.39,-104.84"/>
</a>
</g>
</g>
<!-- Node25 -->
<g id="Node000025" class="node">
<title>Node25</title>
<g id="a_Node000025"><a xlink:href="dsp__tests_8h.html" target="_top" xlink:title=" ">
<polygon fill="#fff0f0" stroke="red" points="678.62,-76 611.62,-76 611.62,-56 678.62,-56 678.62,-76"/>
<text xml:space="preserve" text-anchor="middle" x="645.12" y="-62.5" font-family="Helvetica,sans-Serif" font-size="10.00">dsp_tests.h</text>
</a>
</g>
</g>
<!-- Node13&#45;&gt;Node25 -->
<g id="edge24_Node000013_Node000025" class="edge">
<title>Node13&#45;&gt;Node25</title>
<g id="a_edge24_Node000013_Node000025"><a xlink:title=" ">
<path fill="none" stroke="#63b8ff" d="M1829.86,-119.59C1625.34,-112.76 745.83,-83.08 688.12,-76 685.1,-75.63 681.97,-75.15 678.84,-74.62"/>
<polygon fill="#63b8ff" stroke="#63b8ff" points="1829.64,-123.09 1839.75,-119.92 1829.88,-116.09 1829.64,-123.09"/>
</a>
</g>
</g>
<!-- Node31 -->
<g id="Node000031" class="node">
<title>Node31</title>
<g id="a_Node000031"><a xlink:href="applications_2azure__board__apps_2graphics_23d__matrix_23d__matrix__src_2graphics__support_8h.html" target="_top" xlink:title=" ">
<polygon fill="#fff0f0" stroke="red" points="2211.38,-76 2112.88,-76 2112.88,-56 2211.38,-56 2211.38,-76"/>
<text xml:space="preserve" text-anchor="middle" x="2162.12" y="-62.5" font-family="Helvetica,sans-Serif" font-size="10.00">graphics_support.h</text>
</a>
</g>
</g>
<!-- Node13&#45;&gt;Node31 -->
<g id="edge26_Node000013_Node000031" class="edge">
<title>Node13&#45;&gt;Node31</title>
<g id="a_edge26_Node000013_Node000031"><a xlink:title=" ">
<path fill="none" stroke="#63b8ff" d="M1913.73,-111.54C1988.26,-96.43 2064.1,-83.27 2112.46,-75.16"/>
<polygon fill="#63b8ff" stroke="#63b8ff" points="1913.33,-108.05 1904.23,-113.48 1914.73,-114.91 1913.33,-108.05"/>
</a>
</g>
</g>
<!-- Node33 -->
<g id="Node000033" class="node">
<title>Node33</title>
<g id="a_Node000033"><a xlink:href="external__examples_2b00f000e_2applications_2azure__board__apps_2graphics_23d__matrix_23d__matrix__src_2graphics__support_8h.html" target="_top" xlink:title=" ">
<polygon fill="#fff0f0" stroke="red" points="2328.38,-76 2229.88,-76 2229.88,-56 2328.38,-56 2328.38,-76"/>
<text xml:space="preserve" text-anchor="middle" x="2279.12" y="-62.5" font-family="Helvetica,sans-Serif" font-size="10.00">graphics_support.h</text>
</a>
</g>
</g>
<!-- Node13&#45;&gt;Node33 -->
<g id="edge27_Node000013_Node000033" class="edge">
<title>Node13&#45;&gt;Node33</title>
<g id="a_edge27_Node000013_Node000033"><a xlink:title=" ">
<path fill="none" stroke="#63b8ff" d="M1913.94,-111.67C2049.32,-88.72 2086.71,-93.94 2220.12,-76 2223.21,-75.59 2226.37,-75.14 2229.57,-74.69"/>
<polygon fill="#63b8ff" stroke="#63b8ff" points="1913.47,-108.2 1904.21,-113.35 1914.66,-115.1 1913.47,-108.2"/>
</a>
</g>
</g>
<!-- Node35 -->
<g id="Node000035" class="node">
<title>Node35</title>
<g id="a_Node000035"><a xlink:href="external__examples_2f9c2d4b3_2azure__board__apps_2graphics_23d__matrix_23d__matrix__src_2graphics__support_8h.html" target="_top" xlink:title=" ">
<polygon fill="#fff0f0" stroke="red" points="2445.38,-76 2346.88,-76 2346.88,-56 2445.38,-56 2445.38,-76"/>
<text xml:space="preserve" text-anchor="middle" x="2396.12" y="-62.5" font-family="Helvetica,sans-Serif" font-size="10.00">graphics_support.h</text>
</a>
</g>
</g>
<!-- Node13&#45;&gt;Node35 -->
<g id="edge28_Node000013_Node000035" class="edge">
<title>Node13&#45;&gt;Node35</title>
<g id="a_edge28_Node000013_Node000035"><a xlink:title=" ">
<path fill="none" stroke="#63b8ff" d="M1914.03,-111.75C2100.83,-83.16 2152.12,-97.9 2337.12,-76 2340.21,-75.63 2343.39,-75.23 2346.58,-74.8"/>
<polygon fill="#63b8ff" stroke="#63b8ff" points="1913.54,-108.28 1904.2,-113.28 1914.62,-115.2 1913.54,-108.28"/>
</a>
</g>
</g>
<!-- Node37 -->
<g id="Node000037" class="node">
<title>Node37</title>
<g id="a_Node000037"><a xlink:href="applications_2m5stack__core__s3_2apps_23d__graphics_2main_2init__display_8c.html" target="_top" xlink:title=" ">
<polygon fill="white" stroke="#666666" points="2535.25,-76 2463,-76 2463,-56 2535.25,-56 2535.25,-76"/>
<text xml:space="preserve" text-anchor="middle" x="2499.12" y="-62.5" font-family="Helvetica,sans-Serif" font-size="10.00">init_display.c</text>
</a>
</g>
</g>
<!-- Node13&#45;&gt;Node37 -->
<g id="edge29_Node000013_Node000037" class="edge">
<title>Node13&#45;&gt;Node37</title>
<g id="a_edge29_Node000013_Node000037"><a xlink:title=" ">
<path fill="none" stroke="#63b8ff" d="M1914.22,-111.76C2152.37,-77.62 2217.99,-107.3 2454.12,-76 2456.97,-75.62 2459.9,-75.17 2462.84,-74.68"/>
<polygon fill="#63b8ff" stroke="#63b8ff" points="1914.01,-108.25 1904.62,-113.16 1915.02,-115.18 1914.01,-108.25"/>
</a>
</g>
</g>
<!-- Node38 -->
<g id="Node000038" class="node">
<title>Node38</title>
<g id="a_Node000038"><a xlink:href="external__examples_2b00f000e_2applications_2m5stack__core__s3_2apps_23d__graphics_2main_2init__display_8c.html" target="_top" xlink:title=" ">
<polygon fill="white" stroke="#666666" points="2625.25,-76 2553,-76 2553,-56 2625.25,-56 2625.25,-76"/>
<text xml:space="preserve" text-anchor="middle" x="2589.12" y="-62.5" font-family="Helvetica,sans-Serif" font-size="10.00">init_display.c</text>
</a>
</g>
</g>
<!-- Node13&#45;&gt;Node38 -->
<g id="edge30_Node000013_Node000038" class="edge">
<title>Node13&#45;&gt;Node38</title>
<g id="a_edge30_Node000013_Node000038"><a xlink:title=" ">
<path fill="none" stroke="#63b8ff" d="M1914.36,-111.76C2192.09,-73.2 2268.3,-111.25 2544.12,-76 2546.97,-75.64 2549.9,-75.2 2552.85,-74.71"/>
<polygon fill="#63b8ff" stroke="#63b8ff" points="1914.03,-108.27 1904.61,-113.14 1915.01,-115.2 1914.03,-108.27"/>
</a>
</g>
</g>
<!-- Node39 -->
<g id="Node000039" class="node">
<title>Node39</title>
<g id="a_Node000039"><a xlink:href="applications_2azure__board__apps_2apps_2kalman__filter_2main_2kalman__filter__demo_8cpp.html" target="_top" xlink:title=" ">
<polygon fill="white" stroke="#666666" points="2762.88,-76 2643.38,-76 2643.38,-56 2762.88,-56 2762.88,-76"/>
<text xml:space="preserve" text-anchor="middle" x="2703.12" y="-62.5" font-family="Helvetica,sans-Serif" font-size="10.00">kalman_filter_demo.cpp</text>
</a>
</g>
</g>
<!-- Node13&#45;&gt;Node39 -->
<g id="edge31_Node000013_Node000039" class="edge">
<title>Node13&#45;&gt;Node39</title>
<g id="a_edge31_Node000013_Node000039"><a xlink:title=" ">
<path fill="none" stroke="#63b8ff" d="M1914.5,-111.76C2231.78,-68.52 2317.44,-104.49 2634.12,-76 2637.01,-75.74 2639.97,-75.45 2642.95,-75.14"/>
<polygon fill="#63b8ff" stroke="#63b8ff" points="1914.04,-108.29 1904.61,-113.12 1915,-115.22 1914.04,-108.29"/>
</a>
</g>
</g>
<!-- Node40 -->
<g id="Node000040" class="node">
<title>Node40</title>
<g id="a_Node000040"><a xlink:href="external__examples_2b00f000e_2applications_2azure__board__apps_2apps_2kalman__filter_2main_2kalman__filter__demo_8cpp.html" target="_top" xlink:title=" ">
<polygon fill="white" stroke="#666666" points="2900.88,-76 2781.38,-76 2781.38,-56 2900.88,-56 2900.88,-76"/>
<text xml:space="preserve" text-anchor="middle" x="2841.12" y="-62.5" font-family="Helvetica,sans-Serif" font-size="10.00">kalman_filter_demo.cpp</text>
</a>
</g>
</g>
<!-- Node13&#45;&gt;Node40 -->
<g id="edge32_Node000013_Node000040" class="edge">
<title>Node13&#45;&gt;Node40</title>
<g id="a_edge32_Node000013_Node000040"><a xlink:title=" ">
<path fill="none" stroke="#63b8ff" d="M1914.38,-111.79C2292.65,-61.65 2394.26,-108.48 2772.12,-76 2775.01,-75.75 2777.97,-75.47 2780.95,-75.17"/>
<polygon fill="#63b8ff" stroke="#63b8ff" points="1914.06,-108.31 1904.61,-113.1 1914.99,-115.24 1914.06,-108.31"/>
</a>
</g>
</g>
<!-- Node41 -->
<g id="Node000041" class="node">
<title>Node41</title>
<g id="a_Node000041"><a xlink:href="external__examples_2d1468452_2apps_2kalman__filter_2main_2kalman__filter__demo_8cpp.html" target="_top" xlink:title=" ">
<polygon fill="white" stroke="#666666" points="3038.88,-76 2919.38,-76 2919.38,-56 3038.88,-56 3038.88,-76"/>
<text xml:space="preserve" text-anchor="middle" x="2979.12" y="-62.5" font-family="Helvetica,sans-Serif" font-size="10.00">kalman_filter_demo.cpp</text>
</a>
</g>
</g>
<!-- Node13&#45;&gt;Node41 -->
<g id="edge33_Node000013_Node000041" class="edge">
<title>Node13&#45;&gt;Node41</title>
<g id="a_edge33_Node000013_Node000041"><a xlink:title=" ">
<path fill="none" stroke="#63b8ff" d="M1914.21,-111.83C2353.53,-54.76 2471.04,-112.47 2910.12,-76 2913.01,-75.76 2915.97,-75.49 2918.95,-75.19"/>
<polygon fill="#63b8ff" stroke="#63b8ff" points="1914.07,-108.32 1904.61,-113.09 1914.98,-115.26 1914.07,-108.32"/>
</a>
</g>
</g>
<!-- Node42 -->
<g id="Node000042" class="node">
<title>Node42</title>
<g id="a_Node000042"><a xlink:href="external__examples_2f9c2d4b3_2azure__board__apps_2apps_2kalman__filter_2main_2kalman__filter__demo_8cpp.html" target="_top" xlink:title=" ">
<polygon fill="white" stroke="#666666" points="3176.88,-76 3057.38,-76 3057.38,-56 3176.88,-56 3176.88,-76"/>
<text xml:space="preserve" text-anchor="middle" x="3117.12" y="-62.5" font-family="Helvetica,sans-Serif" font-size="10.00">kalman_filter_demo.cpp</text>
</a>
</g>
</g>
<!-- Node13&#45;&gt;Node42 -->
<g id="edge34_Node000013_Node000042" class="edge">
<title>Node13&#45;&gt;Node42</title>
<g id="a_edge34_Node000013_Node000042"><a xlink:title=" ">
<path fill="none" stroke="#63b8ff" d="M1914.24,-111.84C2414.44,-47.87 2547.87,-116.45 3048.12,-76 3051.01,-75.77 3053.97,-75.5 3056.95,-75.2"/>
<polygon fill="#63b8ff" stroke="#63b8ff" points="1914.08,-108.33 1904.61,-113.08 1914.97,-115.27 1914.08,-108.33"/>
</a>
</g>
</g>
<!-- Node43 -->
<g id="Node000043" class="node">
<title>Node43</title>
<g id="a_Node000043"><a xlink:href="main_2main_8c.html" target="_top" xlink:title=" ">
<polygon fill="white" stroke="#666666" points="3239.75,-76 3194.5,-76 3194.5,-56 3239.75,-56 3239.75,-76"/>
<text xml:space="preserve" text-anchor="middle" x="3217.12" y="-62.5" font-family="Helvetica,sans-Serif" font-size="10.00">main.c</text>
</a>
</g>
</g>
<!-- Node13&#45;&gt;Node43 -->
<g id="edge35_Node000013_Node000043" class="edge">
<title>Node13&#45;&gt;Node43</title>
<g id="a_edge35_Node000013_Node000043"><a xlink:title=" ">
<path fill="none" stroke="#63b8ff" d="M1914.33,-111.84C2475.45,-41.53 2629.75,-163.16 3186.12,-76 3188.78,-75.58 3191.53,-75.01 3194.25,-74.34"/>
<polygon fill="#63b8ff" stroke="#63b8ff" points="1914.09,-108.34 1904.61,-113.08 1914.97,-115.29 1914.09,-108.34"/>
</a>
</g>
</g>
<!-- Node44 -->
<g id="Node000044" class="node">
<title>Node44</title>
<g id="a_Node000044"><a xlink:href="components_2espressif____esp-dsp_2applications_2spectrum__box__lite_2main_2main_8c.html" target="_top" xlink:title=" ">
<polygon fill="white" stroke="#666666" points="3302.75,-76 3257.5,-76 3257.5,-56 3302.75,-56 3302.75,-76"/>
<text xml:space="preserve" text-anchor="middle" x="3280.12" y="-62.5" font-family="Helvetica,sans-Serif" font-size="10.00">main.c</text>
</a>
</g>
</g>
<!-- Node13&#45;&gt;Node44 -->
<g id="edge36_Node000013_Node000044" class="edge">
<title>Node13&#45;&gt;Node44</title>
<g id="a_edge36_Node000013_Node000044"><a xlink:title=" ">
<path fill="none" stroke="#63b8ff" d="M1914.44,-111.83C2503.28,-38.4 2665.08,-167.1 3249.12,-76 3251.78,-75.59 3254.53,-75.01 3257.25,-74.35"/>
<polygon fill="#63b8ff" stroke="#63b8ff" points="1914.09,-108.35 1904.61,-113.07 1914.97,-115.29 1914.09,-108.35"/>
</a>
</g>
</g>
<!-- Node45 -->
<g id="Node000045" class="node">
<title>Node45</title>
<g id="a_Node000045"><a xlink:href="components_2espressif____esp-dsp_2external__examples_2b00f000e_2applications_2spectrum__box__lite_2main_2main_8c.html" target="_top" xlink:title=" ">
<polygon fill="white" stroke="#666666" points="3365.75,-76 3320.5,-76 3320.5,-56 3365.75,-56 3365.75,-76"/>
<text xml:space="preserve" text-anchor="middle" x="3343.12" y="-62.5" font-family="Helvetica,sans-Serif" font-size="10.00">main.c</text>
</a>
</g>
</g>
<!-- Node13&#45;&gt;Node45 -->
<g id="edge37_Node000013_Node000045" class="edge">
<title>Node13&#45;&gt;Node45</title>
<g id="a_edge37_Node000013_Node000045"><a xlink:title=" ">
<path fill="none" stroke="#63b8ff" d="M1914.51,-111.82C2531.1,-35.25 2700.39,-171.04 3312.12,-76 3314.78,-75.59 3317.53,-75.01 3320.25,-74.35"/>
<polygon fill="#63b8ff" stroke="#63b8ff" points="1914.09,-108.35 1904.61,-113.07 1914.96,-115.3 1914.09,-108.35"/>
</a>
</g>
</g>
<!-- Node25&#45;&gt;Node8 -->
<g id="edge25_Node000025_Node000008" class="edge">
<title>Node25&#45;&gt;Node8</title>
<g id="a_edge25_Node000025_Node000008"><a xlink:title=" ">
<path fill="none" stroke="#63b8ff" d="M634.14,-45.87C629.16,-37.19 623.49,-27.32 619.46,-20.3"/>
<polygon fill="#63b8ff" stroke="#63b8ff" points="630.96,-47.35 638.97,-54.28 637.03,-43.87 630.96,-47.35"/>
</a>
</g>
</g>
<!-- Node48&#45;&gt;Node9 -->
<g id="edge41_Node000048_Node000009" class="edge">
<title>Node48&#45;&gt;Node9</title>
<g id="a_edge41_Node000048_Node000009"><a xlink:title=" ">
<path fill="none" stroke="#63b8ff" d="M1724.18,-170.01C1726.51,-169.29 1728.85,-168.61 1731.12,-168 1794.85,-150.96 1869.52,-138.39 1920.15,-130.92"/>
<polygon fill="#63b8ff" stroke="#63b8ff" points="1723.17,-166.65 1714.78,-173.12 1725.37,-173.3 1723.17,-166.65"/>
</a>
</g>
</g>
<!-- Node48&#45;&gt;Node10 -->
<g id="edge42_Node000048_Node000010" class="edge">
<title>Node48&#45;&gt;Node10</title>
<g id="a_edge42_Node000048_Node000010"><a xlink:title=" ">
<path fill="none" stroke="#63b8ff" d="M1649.88,-170.13C1615.32,-158.8 1565.79,-142.56 1534.82,-132.41"/>
<polygon fill="#63b8ff" stroke="#63b8ff" points="1648.5,-173.36 1659.09,-173.15 1650.68,-166.71 1648.5,-173.36"/>
</a>
</g>
</g>
<!-- Node48&#45;&gt;Node13 -->
<g id="edge43_Node000048_Node000013" class="edge">
<title>Node48&#45;&gt;Node13</title>
<g id="a_edge43_Node000048_Node000013"><a xlink:title=" ">
<path fill="none" stroke="#63b8ff" d="M1725.58,-169.9C1727.45,-169.25 1729.31,-168.61 1731.12,-168 1768.98,-155.2 1812.87,-141.35 1841.5,-132.44"/>
<polygon fill="#63b8ff" stroke="#63b8ff" points="1724.55,-166.55 1716.27,-173.16 1726.87,-173.15 1724.55,-166.55"/>
</a>
</g>
</g>
</g>
</svg>
