<?xml version="1.0" encoding="UTF-8" standalone="no"?>
<!DOCTYPE svg PUBLIC "-//W3C//DTD SVG 1.1//EN"
 "http://www.w3.org/Graphics/SVG/1.1/DTD/svg11.dtd">
<!-- Generated by graphviz version 14.1.2 (20260124.0452)
 -->
<!-- Title: dsps_corr_f32_ansi.c Pages: 1 -->
<svg width="322pt" height="196pt"
 viewBox="0.00 0.00 322.00 196.00" xmlns="http://www.w3.org/2000/svg" xmlns:xlink="http://www.w3.org/1999/xlink">
<g id="graph0" class="graph" transform="scale(1 1) rotate(0) translate(4 192)">
<title>dsps_corr_f32_ansi.c</title>
<!-- Node1 -->
<g id="Node000001" class="node">
<title>Node1</title>
<g id="a_Node000001"><a xlink:title=" ">
<polygon fill="#999999" stroke="#666666" points="240.62,-188 131.62,-188 131.62,-168 240.62,-168 240.62,-188"/>
<text xml:space="preserve" text-anchor="middle" x="186.12" y="-174.5" font-family="Helvetica,sans-Serif" font-size="10.00">dsps_corr_f32_ansi.c</text>
</a>
</g>
</g>
<!-- Node2 -->
<g id="Node000002" class="node">
<title>Node2</title>
<g id="a_Node000002"><a xlink:href="dsps__corr_8h.html" target="_top" xlink:title=" ">
<polygon fill="white" stroke="#666666" points="219.62,-132 152.62,-132 152.62,-112 219.62,-112 219.62,-132"/>
<text xml:space="preserve" text-anchor="middle" x="186.12" y="-118.5" font-family="Helvetica,sans-Serif" font-size="10.00">dsps_corr.h</text>
</a>
</g>
</g>
<!-- Node1&#45;&gt;Node2 -->
<g id="edge1_Node000001_Node000002" class="edge">
<title>Node1&#45;&gt;Node2</title>
<g id="a_edge1_Node000001_Node000002"><a xlink:title=" ">
<path fill="none" stroke="#63b8ff" d="M186.12,-167.59C186.12,-161.01 186.12,-151.96 186.12,-143.73"/>
<polygon fill="#63b8ff" stroke="#63b8ff" points="189.63,-143.81 186.13,-133.81 182.63,-143.81 189.63,-143.81"/>
</a>
</g>
</g>
<!-- Node3 -->
<g id="Node000003" class="node">
<title>Node3</title>
<g id="a_Node000003"><a xlink:href="dsp__err_8h.html" target="_top" xlink:title=" ">
<polygon fill="white" stroke="#666666" points="143.38,-76 86.88,-76 86.88,-56 143.38,-56 143.38,-76"/>
<text xml:space="preserve" text-anchor="middle" x="115.12" y="-62.5" font-family="Helvetica,sans-Serif" font-size="10.00">dsp_err.h</text>
</a>
</g>
</g>
<!-- Node2&#45;&gt;Node3 -->
<g id="edge2_Node000002_Node000003" class="edge">
<title>Node2&#45;&gt;Node3</title>
<g id="a_edge2_Node000002_Node000003"><a xlink:title=" ">
<path fill="none" stroke="#63b8ff" d="M173.76,-111.59C163.48,-103.77 148.61,-92.46 136.41,-83.19"/>
<polygon fill="#63b8ff" stroke="#63b8ff" points="138.63,-80.48 128.56,-77.21 134.4,-86.05 138.63,-80.48"/>
</a>
</g>
</g>
<!-- Node8 -->
<g id="Node000008" class="node">
<title>Node8</title>
<g id="a_Node000008"><a xlink:href="dsps__conv__platform_8h.html" target="_top" xlink:title=" ">
<polygon fill="white" stroke="#666666" points="314.12,-76 202.12,-76 202.12,-56 314.12,-56 314.12,-76"/>
<text xml:space="preserve" text-anchor="middle" x="258.12" y="-62.5" font-family="Helvetica,sans-Serif" font-size="10.00">dsps_conv_platform.h</text>
</a>
</g>
</g>
<!-- Node2&#45;&gt;Node8 -->
<g id="edge6_Node000002_Node000008" class="edge">
<title>Node2&#45;&gt;Node8</title>
<g id="a_edge6_Node000002_Node000008"><a xlink:title=" ">
<path fill="none" stroke="#63b8ff" d="M198.67,-111.59C209.09,-103.77 224.17,-92.46 236.54,-83.19"/>
<polygon fill="#63b8ff" stroke="#63b8ff" points="238.62,-86.01 244.52,-77.21 234.42,-80.41 238.62,-86.01"/>
</a>
</g>
</g>
<!-- Node4 -->
<g id="Node000004" class="node">
<title>Node4</title>
<g id="a_Node000004"><a xlink:title=" ">
<polygon fill="#e0e0e0" stroke="#999999" points="48.25,-20 0,-20 0,0 48.25,0 48.25,-20"/>
<text xml:space="preserve" text-anchor="middle" x="24.12" y="-6.5" font-family="Helvetica,sans-Serif" font-size="10.00">stdint.h</text>
</a>
</g>
</g>
<!-- Node3&#45;&gt;Node4 -->
<g id="edge3_Node000003_Node000004" class="edge">
<title>Node3&#45;&gt;Node4</title>
<g id="a_edge3_Node000003_Node000004"><a xlink:title=" ">
<path fill="none" stroke="#63b8ff" d="M99.27,-55.59C85.66,-47.51 65.76,-35.71 49.86,-26.27"/>
<polygon fill="#63b8ff" stroke="#63b8ff" points="51.79,-23.35 41.4,-21.25 48.22,-29.37 51.79,-23.35"/>
</a>
</g>
</g>
<!-- Node5 -->
<g id="Node000005" class="node">
<title>Node5</title>
<g id="a_Node000005"><a xlink:href="esp__err_8h.html" target="_top" xlink:title=" ">
<polygon fill="#fff0f0" stroke="red" points="122.38,-20 65.88,-20 65.88,0 122.38,0 122.38,-20"/>
<text xml:space="preserve" text-anchor="middle" x="94.12" y="-6.5" font-family="Helvetica,sans-Serif" font-size="10.00">esp_err.h</text>
</a>
</g>
</g>
<!-- Node3&#45;&gt;Node5 -->
<g id="edge4_Node000003_Node000005" class="edge">
<title>Node3&#45;&gt;Node5</title>
<g id="a_edge4_Node000003_Node000005"><a xlink:title=" ">
<path fill="none" stroke="#63b8ff" d="M111.47,-55.59C108.82,-48.78 105.14,-39.32 101.85,-30.86"/>
<polygon fill="#63b8ff" stroke="#63b8ff" points="105.18,-29.76 98.29,-21.71 98.65,-32.3 105.18,-29.76"/>
</a>
</g>
</g>
<!-- Node7 -->
<g id="Node000007" class="node">
<title>Node7</title>
<g id="a_Node000007"><a xlink:href="dsp__err__codes_8h.html" target="_top" xlink:title=" ">
<polygon fill="white" stroke="#666666" points="228.12,-20 140.12,-20 140.12,0 228.12,0 228.12,-20"/>
<text xml:space="preserve" text-anchor="middle" x="184.12" y="-6.5" font-family="Helvetica,sans-Serif" font-size="10.00">dsp_err_codes.h</text>
</a>
</g>
</g>
<!-- Node3&#45;&gt;Node7 -->
<g id="edge5_Node000003_Node000007" class="edge">
<title>Node3&#45;&gt;Node7</title>
<g id="a_edge5_Node000003_Node000007"><a xlink:title=" ">
<path fill="none" stroke="#63b8ff" d="M127.14,-55.59C137.14,-47.77 151.59,-36.46 163.43,-27.19"/>
<polygon fill="#63b8ff" stroke="#63b8ff" points="165.33,-30.15 171.05,-21.23 161.02,-24.64 165.33,-30.15"/>
</a>
</g>
</g>
<!-- Node9 -->
<g id="Node000009" class="node">
<title>Node9</title>
<g id="a_Node000009"><a xlink:title=" ">
<polygon fill="#e0e0e0" stroke="#999999" points="312.25,-20 246,-20 246,0 312.25,0 312.25,-20"/>
<text xml:space="preserve" text-anchor="middle" x="279.12" y="-6.5" font-family="Helvetica,sans-Serif" font-size="10.00">sdkconfig.h</text>
</a>
</g>
</g>
<!-- Node8&#45;&gt;Node9 -->
<g id="edge7_Node000008_Node000009" class="edge">
<title>Node8&#45;&gt;Node9</title>
<g id="a_edge7_Node000008_Node000009"><a xlink:title=" ">
<path fill="none" stroke="#63b8ff" d="M261.78,-55.59C264.43,-48.78 268.11,-39.32 271.4,-30.86"/>
<polygon fill="#63b8ff" stroke="#63b8ff" points="274.6,-32.3 274.96,-21.71 268.07,-29.76 274.6,-32.3"/>
</a>
</g>
</g>
</g>
</svg>
