<?xml version="1.0" encoding="UTF-8" standalone="no"?>
<!DOCTYPE svg PUBLIC "-//W3C//DTD SVG 1.1//EN"
 "http://www.w3.org/Graphics/SVG/1.1/DTD/svg11.dtd">
<!-- Generated by graphviz version 14.1.2 (20260124.0452)
 -->
<!-- Title: dsps_firmr_s16_ansi.c Pages: 1 -->
<svg width="1571pt" height="476pt"
 viewBox="0.00 0.00 1571.00 476.00" xmlns="http://www.w3.org/2000/svg" xmlns:xlink="http://www.w3.org/1999/xlink">
<g id="graph0" class="graph" transform="scale(1 1) rotate(0) translate(4 472)">
<title>dsps_firmr_s16_ansi.c</title>
<!-- Node1 -->
<g id="Node000001" class="node">
<title>Node1</title>
<g id="a_Node000001"><a xlink:title=" ">
<polygon fill="#999999" stroke="#666666" points="246.38,-468 132.12,-468 132.12,-448 246.38,-448 246.38,-468"/>
<text xml:space="preserve" text-anchor="middle" x="189.25" y="-454.5" font-family="Helvetica,sans-Serif" font-size="10.00">dsps_firmr_s16_ansi.c</text>
</a>
</g>
</g>
<!-- Node2 -->
<g id="Node000002" class="node">
<title>Node2</title>
<g id="a_Node000002"><a xlink:href="dsps__fir_8h.html" target="_top" xlink:title=" ">
<polygon fill="white" stroke="#666666" points="365.62,-244 306.88,-244 306.88,-224 365.62,-224 365.62,-244"/>
<text xml:space="preserve" text-anchor="middle" x="336.25" y="-230.5" font-family="Helvetica,sans-Serif" font-size="10.00">dsps_fir.h</text>
</a>
</g>
</g>
<!-- Node1&#45;&gt;Node2 -->
<g id="edge1_Node000001_Node000002" class="edge">
<title>Node1&#45;&gt;Node2</title>
<g id="a_edge1_Node000001_Node000002"><a xlink:title=" ">
<path fill="none" stroke="#63b8ff" d="M189.77,-447.71C191.84,-419.24 201.67,-331.93 246.25,-280 259.25,-264.85 278.58,-254.26 296,-247.18"/>
<polygon fill="#63b8ff" stroke="#63b8ff" points="296.98,-250.55 305.1,-243.74 294.51,-244 296.98,-250.55"/>
</a>
</g>
</g>
<!-- Node10 -->
<g id="Node000010" class="node">
<title>Node10</title>
<g id="a_Node000010"><a xlink:href="dsp__common_8h.html" target="_top" xlink:title=" ">
<polygon fill="white" stroke="#666666" points="192.62,-188 109.88,-188 109.88,-168 192.62,-168 192.62,-188"/>
<text xml:space="preserve" text-anchor="middle" x="151.25" y="-174.5" font-family="Helvetica,sans-Serif" font-size="10.00">dsp_common.h</text>
</a>
</g>
</g>
<!-- Node1&#45;&gt;Node10 -->
<g id="edge15_Node000001_Node000010" class="edge">
<title>Node1&#45;&gt;Node10</title>
<g id="a_edge15_Node000001_Node000010"><a xlink:title=" ">
<path fill="none" stroke="#63b8ff" d="M166.73,-447.55C133.5,-431.91 75.25,-397.33 75.25,-347 75.25,-347 75.25,-347 75.25,-289 75.25,-250.24 107.59,-215.24 130.08,-195.59"/>
<polygon fill="#63b8ff" stroke="#63b8ff" points="132.12,-198.44 137.54,-189.34 127.62,-193.08 132.12,-198.44"/>
</a>
</g>
</g>
<!-- Node14 -->
<g id="Node000014" class="node">
<title>Node14</title>
<g id="a_Node000014"><a xlink:href="dsp__tests_8h.html" target="_top" xlink:title=" ">
<polygon fill="white" stroke="#666666" points="564.75,-412 497.75,-412 497.75,-392 564.75,-392 564.75,-412"/>
<text xml:space="preserve" text-anchor="middle" x="531.25" y="-398.5" font-family="Helvetica,sans-Serif" font-size="10.00">dsp_tests.h</text>
</a>
</g>
</g>
<!-- Node1&#45;&gt;Node14 -->
<g id="edge16_Node000001_Node000014" class="edge">
<title>Node1&#45;&gt;Node14</title>
<g id="a_edge16_Node000001_Node000014"><a xlink:title=" ">
<path fill="none" stroke="#63b8ff" d="M246.49,-447.96C313.84,-437.33 424.27,-419.89 485.96,-410.15"/>
<polygon fill="#63b8ff" stroke="#63b8ff" points="486.42,-413.62 495.76,-408.6 485.33,-406.71 486.42,-413.62"/>
</a>
</g>
</g>
<!-- Node3 -->
<g id="Node000003" class="node">
<title>Node3</title>
<g id="a_Node000003"><a xlink:href="dsp__err_8h.html" target="_top" xlink:title=" ">
<polygon fill="white" stroke="#666666" points="897.5,-132 841,-132 841,-112 897.5,-112 897.5,-132"/>
<text xml:space="preserve" text-anchor="middle" x="869.25" y="-118.5" font-family="Helvetica,sans-Serif" font-size="10.00">dsp_err.h</text>
</a>
</g>
</g>
<!-- Node2&#45;&gt;Node3 -->
<g id="edge2_Node000002_Node000003" class="edge">
<title>Node2&#45;&gt;Node3</title>
<g id="a_edge2_Node000002_Node000003"><a xlink:title=" ">
<path fill="none" stroke="#63b8ff" d="M366.05,-229.46C411.62,-223.59 501.01,-210.22 574.25,-188 595.97,-181.41 599.5,-174.51 621.25,-168 693.24,-146.45 780.25,-133.56 829.73,-127.41"/>
<polygon fill="#63b8ff" stroke="#63b8ff" points="829.87,-130.92 839.37,-126.24 829.03,-123.97 829.87,-130.92"/>
</a>
</g>
</g>
<!-- Node8 -->
<g id="Node000008" class="node">
<title>Node8</title>
<g id="a_Node000008"><a xlink:href="dsps__fir__platform_8h.html" target="_top" xlink:title=" ">
<polygon fill="white" stroke="#666666" points="396.88,-188 297.62,-188 297.62,-168 396.88,-168 396.88,-188"/>
<text xml:space="preserve" text-anchor="middle" x="347.25" y="-174.5" font-family="Helvetica,sans-Serif" font-size="10.00">dsps_fir_platform.h</text>
</a>
</g>
</g>
<!-- Node2&#45;&gt;Node8 -->
<g id="edge7_Node000002_Node000008" class="edge">
<title>Node2&#45;&gt;Node8</title>
<g id="a_edge7_Node000002_Node000008"><a xlink:title=" ">
<path fill="none" stroke="#63b8ff" d="M338.17,-223.59C339.52,-216.93 341.39,-207.75 343.09,-199.44"/>
<polygon fill="#63b8ff" stroke="#63b8ff" points="346.49,-200.28 345.05,-189.78 339.63,-198.88 346.49,-200.28"/>
</a>
</g>
</g>
<!-- Node2&#45;&gt;Node10 -->
<g id="edge9_Node000002_Node000010" class="edge">
<title>Node2&#45;&gt;Node10</title>
<g id="a_edge9_Node000002_Node000010"><a xlink:title=" ">
<path fill="none" stroke="#63b8ff" d="M306.53,-224.32C276.2,-215.47 228.84,-201.65 194.39,-191.59"/>
<polygon fill="#63b8ff" stroke="#63b8ff" points="195.73,-188.34 185.15,-188.9 193.77,-195.06 195.73,-188.34"/>
</a>
</g>
</g>
<!-- Node4 -->
<g id="Node000004" class="node">
<title>Node4</title>
<g id="a_Node000004"><a xlink:title=" ">
<polygon fill="#e0e0e0" stroke="#999999" points="336.38,-76 288.12,-76 288.12,-56 336.38,-56 336.38,-76"/>
<text xml:space="preserve" text-anchor="middle" x="312.25" y="-62.5" font-family="Helvetica,sans-Serif" font-size="10.00">stdint.h</text>
</a>
</g>
</g>
<!-- Node3&#45;&gt;Node4 -->
<g id="edge3_Node000003_Node000004" class="edge">
<title>Node3&#45;&gt;Node4</title>
<g id="a_edge3_Node000003_Node000004"><a xlink:title=" ">
<path fill="none" stroke="#63b8ff" d="M840.86,-118.25C747.67,-109.21 451.19,-80.47 348.04,-70.47"/>
<polygon fill="#63b8ff" stroke="#63b8ff" points="348.52,-67 338.23,-69.52 347.84,-73.97 348.52,-67"/>
</a>
</g>
</g>
<!-- Node5 -->
<g id="Node000005" class="node">
<title>Node5</title>
<g id="a_Node000005"><a xlink:href="esp__err_8h.html" target="_top" xlink:title=" ">
<polygon fill="white" stroke="#666666" points="1263.5,-76 1207,-76 1207,-56 1263.5,-56 1263.5,-76"/>
<text xml:space="preserve" text-anchor="middle" x="1235.25" y="-62.5" font-family="Helvetica,sans-Serif" font-size="10.00">esp_err.h</text>
</a>
</g>
</g>
<!-- Node3&#45;&gt;Node5 -->
<g id="edge4_Node000003_Node000005" class="edge">
<title>Node3&#45;&gt;Node5</title>
<g id="a_edge4_Node000003_Node000005"><a xlink:title=" ">
<path fill="none" stroke="#63b8ff" d="M897.97,-116.76C962.91,-107.18 1121.18,-83.83 1195.49,-72.87"/>
<polygon fill="#63b8ff" stroke="#63b8ff" points="1195.78,-76.36 1205.17,-71.44 1194.76,-69.44 1195.78,-76.36"/>
</a>
</g>
</g>
<!-- Node7 -->
<g id="Node000007" class="node">
<title>Node7</title>
<g id="a_Node000007"><a xlink:href="dsp__err__codes_8h.html" target="_top" xlink:title=" ">
<polygon fill="white" stroke="#666666" points="913.25,-76 825.25,-76 825.25,-56 913.25,-56 913.25,-76"/>
<text xml:space="preserve" text-anchor="middle" x="869.25" y="-62.5" font-family="Helvetica,sans-Serif" font-size="10.00">dsp_err_codes.h</text>
</a>
</g>
</g>
<!-- Node3&#45;&gt;Node7 -->
<g id="edge6_Node000003_Node000007" class="edge">
<title>Node3&#45;&gt;Node7</title>
<g id="a_edge6_Node000003_Node000007"><a xlink:title=" ">
<path fill="none" stroke="#63b8ff" d="M869.25,-111.59C869.25,-105.01 869.25,-95.96 869.25,-87.73"/>
<polygon fill="#63b8ff" stroke="#63b8ff" points="872.75,-87.81 869.25,-77.81 865.75,-87.81 872.75,-87.81"/>
</a>
</g>
</g>
<!-- Node6 -->
<g id="Node000006" class="node">
<title>Node6</title>
<g id="a_Node000006"><a xlink:title=" ">
<polygon fill="#e0e0e0" stroke="#999999" points="1287,-20 1239.5,-20 1239.5,0 1287,0 1287,-20"/>
<text xml:space="preserve" text-anchor="middle" x="1263.25" y="-6.5" font-family="Helvetica,sans-Serif" font-size="10.00">stdlib.h</text>
</a>
</g>
</g>
<!-- Node5&#45;&gt;Node6 -->
<g id="edge5_Node000005_Node000006" class="edge">
<title>Node5&#45;&gt;Node6</title>
<g id="a_edge5_Node000005_Node000006"><a xlink:title=" ">
<path fill="none" stroke="#63b8ff" d="M1240.13,-55.59C1243.74,-48.63 1248.79,-38.89 1253.25,-30.29"/>
<polygon fill="#63b8ff" stroke="#63b8ff" points="1256.24,-32.13 1257.73,-21.64 1250.02,-28.91 1256.24,-32.13"/>
</a>
</g>
</g>
<!-- Node9 -->
<g id="Node000009" class="node">
<title>Node9</title>
<g id="a_Node000009"><a xlink:title=" ">
<polygon fill="#e0e0e0" stroke="#999999" points="522.38,-132 456.12,-132 456.12,-112 522.38,-112 522.38,-132"/>
<text xml:space="preserve" text-anchor="middle" x="489.25" y="-118.5" font-family="Helvetica,sans-Serif" font-size="10.00">sdkconfig.h</text>
</a>
</g>
</g>
<!-- Node8&#45;&gt;Node9 -->
<g id="edge8_Node000008_Node000009" class="edge">
<title>Node8&#45;&gt;Node9</title>
<g id="a_edge8_Node000008_Node000009"><a xlink:title=" ">
<path fill="none" stroke="#63b8ff" d="M371.98,-167.59C394.55,-159.01 428.16,-146.23 453.62,-136.55"/>
<polygon fill="#63b8ff" stroke="#63b8ff" points="454.8,-139.84 462.91,-133.02 452.32,-133.3 454.8,-139.84"/>
</a>
</g>
</g>
<!-- Node10&#45;&gt;Node3 -->
<g id="edge12_Node000010_Node000003" class="edge">
<title>Node10&#45;&gt;Node3</title>
<g id="a_edge12_Node000010_Node000003"><a xlink:title=" ">
<path fill="none" stroke="#63b8ff" d="M192.94,-169.14C195.75,-168.72 198.54,-168.33 201.25,-168 438.44,-138.75 725.53,-127.46 829.36,-124.14"/>
<polygon fill="#63b8ff" stroke="#63b8ff" points="829.42,-127.64 839.31,-123.84 829.2,-120.65 829.42,-127.64"/>
</a>
</g>
</g>
<!-- Node10&#45;&gt;Node4 -->
<g id="edge10_Node000010_Node000004" class="edge">
<title>Node10&#45;&gt;Node4</title>
<g id="a_edge10_Node000010_Node000004"><a xlink:title=" ">
<path fill="none" stroke="#63b8ff" d="M159.29,-167.65C171.29,-154.09 195.1,-128.76 219.25,-112 237.27,-99.49 259.3,-88.66 277.4,-80.76"/>
<polygon fill="#63b8ff" stroke="#63b8ff" points="278.57,-84.07 286.41,-76.94 275.84,-77.62 278.57,-84.07"/>
</a>
</g>
</g>
<!-- Node11 -->
<g id="Node000011" class="node">
<title>Node11</title>
<g id="a_Node000011"><a xlink:title=" ">
<polygon fill="#e0e0e0" stroke="#999999" points="284.12,-132 228.38,-132 228.38,-112 284.12,-112 284.12,-132"/>
<text xml:space="preserve" text-anchor="middle" x="256.25" y="-118.5" font-family="Helvetica,sans-Serif" font-size="10.00">stdbool.h</text>
</a>
</g>
</g>
<!-- Node10&#45;&gt;Node11 -->
<g id="edge11_Node000010_Node000011" class="edge">
<title>Node10&#45;&gt;Node11</title>
<g id="a_edge11_Node000010_Node000011"><a xlink:title=" ">
<path fill="none" stroke="#63b8ff" d="M169.54,-167.59C185.55,-159.36 209.08,-147.26 227.59,-137.74"/>
<polygon fill="#63b8ff" stroke="#63b8ff" points="229.18,-140.86 236.47,-133.17 225.98,-134.63 229.18,-140.86"/>
</a>
</g>
</g>
<!-- Node12 -->
<g id="Node000012" class="node">
<title>Node12</title>
<g id="a_Node000012"><a xlink:title=" ">
<polygon fill="#e0e0e0" stroke="#999999" points="92.5,-132 0,-132 0,-112 92.5,-112 92.5,-132"/>
<text xml:space="preserve" text-anchor="middle" x="46.25" y="-118.5" font-family="Helvetica,sans-Serif" font-size="10.00">esp_idf_version.h</text>
</a>
</g>
</g>
<!-- Node10&#45;&gt;Node12 -->
<g id="edge13_Node000010_Node000012" class="edge">
<title>Node10&#45;&gt;Node12</title>
<g id="a_edge13_Node000010_Node000012"><a xlink:title=" ">
<path fill="none" stroke="#63b8ff" d="M132.96,-167.59C116.95,-159.36 93.42,-147.26 74.91,-137.74"/>
<polygon fill="#63b8ff" stroke="#63b8ff" points="76.52,-134.63 66.03,-133.17 73.32,-140.86 76.52,-134.63"/>
</a>
</g>
</g>
<!-- Node13 -->
<g id="Node000013" class="node">
<title>Node13</title>
<g id="a_Node000013"><a xlink:title=" ">
<polygon fill="#e0e0e0" stroke="#999999" points="171.75,-132 110.75,-132 110.75,-112 171.75,-112 171.75,-132"/>
<text xml:space="preserve" text-anchor="middle" x="141.25" y="-118.5" font-family="Helvetica,sans-Serif" font-size="10.00">x86intrin.h</text>
</a>
</g>
</g>
<!-- Node10&#45;&gt;Node13 -->
<g id="edge14_Node000010_Node000013" class="edge">
<title>Node10&#45;&gt;Node13</title>
<g id="a_edge14_Node000010_Node000013"><a xlink:title=" ">
<path fill="none" stroke="#63b8ff" d="M149.51,-167.59C148.27,-160.93 146.57,-151.75 145.04,-143.44"/>
<polygon fill="#63b8ff" stroke="#63b8ff" points="148.51,-142.98 143.25,-133.79 141.63,-144.26 148.51,-142.98"/>
</a>
</g>
</g>
<!-- Node14&#45;&gt;Node6 -->
<g id="edge17_Node000014_Node000006" class="edge">
<title>Node14&#45;&gt;Node6</title>
<g id="a_edge17_Node000014_Node000006"><a xlink:title=" ">
<path fill="none" stroke="#63b8ff" d="M565,-401.03C742.86,-400.74 1563.25,-393.82 1563.25,-291 1563.25,-291 1563.25,-291 1563.25,-121 1563.25,-65.2 1377.99,-29.17 1298.64,-16.3"/>
<polygon fill="#63b8ff" stroke="#63b8ff" points="1299.21,-12.84 1288.79,-14.74 1298.12,-19.76 1299.21,-12.84"/>
</a>
</g>
</g>
<!-- Node14&#45;&gt;Node12 -->
<g id="edge18_Node000014_Node000012" class="edge">
<title>Node14&#45;&gt;Node12</title>
<g id="a_edge18_Node000014_Node000012"><a xlink:title=" ">
<path fill="none" stroke="#63b8ff" d="M497.49,-396.71C434.97,-387.51 298.74,-361.5 202.25,-300 135.29,-257.32 80.28,-177.78 57.52,-141.68"/>
<polygon fill="#63b8ff" stroke="#63b8ff" points="60.78,-140.29 52.54,-133.62 54.83,-143.97 60.78,-140.29"/>
</a>
</g>
</g>
<!-- Node15 -->
<g id="Node000015" class="node">
<title>Node15</title>
<g id="a_Node000015"><a xlink:href="esp__dsp_8h.html" target="_top" xlink:title=" ">
<polygon fill="white" stroke="#666666" points="808.75,-356 747.75,-356 747.75,-336 808.75,-336 808.75,-356"/>
<text xml:space="preserve" text-anchor="middle" x="778.25" y="-342.5" font-family="Helvetica,sans-Serif" font-size="10.00">esp_dsp.h</text>
</a>
</g>
</g>
<!-- Node14&#45;&gt;Node15 -->
<g id="edge19_Node000014_Node000015" class="edge">
<title>Node14&#45;&gt;Node15</title>
<g id="a_edge19_Node000014_Node000015"><a xlink:title=" ">
<path fill="none" stroke="#63b8ff" d="M565.08,-393.6C609.72,-383.84 688.29,-366.67 736.56,-356.11"/>
<polygon fill="#63b8ff" stroke="#63b8ff" points="737.05,-359.59 746.07,-354.04 735.55,-352.75 737.05,-359.59"/>
</a>
</g>
</g>
<!-- Node15&#45;&gt;Node2 -->
<g id="edge27_Node000015_Node000002" class="edge">
<title>Node15&#45;&gt;Node2</title>
<g id="a_edge27_Node000015_Node000002"><a xlink:title=" ">
<path fill="none" stroke="#63b8ff" d="M747.35,-344.83C664.76,-343.87 440.93,-337.76 379.25,-300 362.33,-289.64 350.69,-269.83 343.82,-254.78"/>
<polygon fill="#63b8ff" stroke="#63b8ff" points="347.17,-253.72 340.09,-245.84 340.72,-256.42 347.17,-253.72"/>
</a>
</g>
</g>
<!-- Node15&#45;&gt;Node10 -->
<g id="edge20_Node000015_Node000010" class="edge">
<title>Node15&#45;&gt;Node10</title>
<g id="a_edge20_Node000015_Node000010"><a xlink:title=" ">
<path fill="none" stroke="#63b8ff" d="M747.45,-344.04C638.39,-340.44 274.79,-326.53 230.25,-300 191.59,-276.97 168.32,-226.81 157.85,-198.84"/>
<polygon fill="#63b8ff" stroke="#63b8ff" points="161.29,-198.05 154.65,-189.79 154.69,-200.38 161.29,-198.05"/>
</a>
</g>
</g>
<!-- Node16 -->
<g id="Node000016" class="node">
<title>Node16</title>
<g id="a_Node000016"><a xlink:href="dsp__types_8h.html" target="_top" xlink:title=" ">
<polygon fill="#fff0f0" stroke="red" points="279.88,-188 210.62,-188 210.62,-168 279.88,-168 279.88,-188"/>
<text xml:space="preserve" text-anchor="middle" x="245.25" y="-174.5" font-family="Helvetica,sans-Serif" font-size="10.00">dsp_types.h</text>
</a>
</g>
</g>
<!-- Node15&#45;&gt;Node16 -->
<g id="edge21_Node000015_Node000016" class="edge">
<title>Node15&#45;&gt;Node16</title>
<g id="a_edge21_Node000015_Node000016"><a xlink:title=" ">
<path fill="none" stroke="#63b8ff" d="M747.35,-344.75C638.92,-343.57 280.43,-336.88 246.25,-300 221.11,-272.87 230.07,-225.84 238.12,-199.1"/>
<polygon fill="#63b8ff" stroke="#63b8ff" points="241.38,-200.42 241.16,-189.83 234.72,-198.24 241.38,-200.42"/>
</a>
</g>
</g>
<!-- Node18 -->
<g id="Node000018" class="node">
<title>Node18</title>
<g id="a_Node000018"><a xlink:href="dsps__dotprod_8h.html" target="_top" xlink:title=" ">
<polygon fill="#fff0f0" stroke="red" points="1159.62,-188 1076.88,-188 1076.88,-168 1159.62,-168 1159.62,-188"/>
<text xml:space="preserve" text-anchor="middle" x="1118.25" y="-174.5" font-family="Helvetica,sans-Serif" font-size="10.00">dsps_dotprod.h</text>
</a>
</g>
</g>
<!-- Node15&#45;&gt;Node18 -->
<g id="edge24_Node000015_Node000018" class="edge">
<title>Node15&#45;&gt;Node18</title>
<g id="a_edge24_Node000015_Node000018"><a xlink:title=" ">
<path fill="none" stroke="#63b8ff" d="M809.09,-343.24C880.62,-338.77 1055.71,-325.49 1108.25,-300 1140.49,-284.36 1152.25,-276.98 1166.25,-244 1174.09,-225.54 1158.21,-207.43 1142.65,-195.03"/>
<polygon fill="#63b8ff" stroke="#63b8ff" points="1145.05,-192.46 1134.93,-189.34 1140.9,-198.09 1145.05,-192.46"/>
</a>
</g>
</g>
<!-- Node21 -->
<g id="Node000021" class="node">
<title>Node21</title>
<g id="a_Node000021"><a xlink:href="dsps__math_8h.html" target="_top" xlink:title=" ">
<polygon fill="#fff0f0" stroke="red" points="327.38,-300 255.12,-300 255.12,-280 327.38,-280 327.38,-300"/>
<text xml:space="preserve" text-anchor="middle" x="291.25" y="-286.5" font-family="Helvetica,sans-Serif" font-size="10.00">dsps_math.h</text>
</a>
</g>
</g>
<!-- Node15&#45;&gt;Node21 -->
<g id="edge26_Node000015_Node000021" class="edge">
<title>Node15&#45;&gt;Node21</title>
<g id="a_edge26_Node000015_Node000021"><a xlink:title=" ">
<path fill="none" stroke="#63b8ff" d="M747.42,-342.63C675.87,-336.96 493.04,-321.45 341.25,-300 340.43,-299.88 339.61,-299.77 338.77,-299.64"/>
<polygon fill="#63b8ff" stroke="#63b8ff" points="339.71,-296.25 329.29,-298.14 338.62,-303.16 339.71,-296.25"/>
</a>
</g>
</g>
<!-- Node33 -->
<g id="Node000033" class="node">
<title>Node33</title>
<g id="a_Node000033"><a xlink:href="dsps__resampler_8h.html" target="_top" xlink:title=" ">
<polygon fill="white" stroke="#666666" points="602.88,-300 509.62,-300 509.62,-280 602.88,-280 602.88,-300"/>
<text xml:space="preserve" text-anchor="middle" x="556.25" y="-286.5" font-family="Helvetica,sans-Serif" font-size="10.00">dsps_resampler.h</text>
</a>
</g>
</g>
<!-- Node15&#45;&gt;Node33 -->
<g id="edge28_Node000015_Node000033" class="edge">
<title>Node15&#45;&gt;Node33</title>
<g id="a_edge28_Node000015_Node000033"><a xlink:title=" ">
<path fill="none" stroke="#63b8ff" d="M747.38,-337.49C710.85,-328.61 649.53,-313.69 606.21,-303.15"/>
<polygon fill="#63b8ff" stroke="#63b8ff" points="607.08,-299.76 596.53,-300.8 605.42,-306.56 607.08,-299.76"/>
</a>
</g>
</g>
<!-- Node34 -->
<g id="Node000034" class="node">
<title>Node34</title>
<g id="a_Node000034"><a xlink:href="dsps__biquad_8h.html" target="_top" xlink:title=" ">
<polygon fill="#fff0f0" stroke="red" points="1292.75,-244 1213.75,-244 1213.75,-224 1292.75,-224 1292.75,-244"/>
<text xml:space="preserve" text-anchor="middle" x="1253.25" y="-230.5" font-family="Helvetica,sans-Serif" font-size="10.00">dsps_biquad.h</text>
</a>
</g>
</g>
<!-- Node15&#45;&gt;Node34 -->
<g id="edge31_Node000015_Node000034" class="edge">
<title>Node15&#45;&gt;Node34</title>
<g id="a_edge31_Node000015_Node000034"><a xlink:title=" ">
<path fill="none" stroke="#63b8ff" d="M809.02,-344.51C893.59,-342.73 1127.74,-334.71 1195.25,-300 1215.58,-289.55 1232.12,-268.79 1242.26,-253.53"/>
<polygon fill="#63b8ff" stroke="#63b8ff" points="1245.06,-255.65 1247.42,-245.32 1239.13,-251.92 1245.06,-255.65"/>
</a>
</g>
</g>
<!-- Node36 -->
<g id="Node000036" class="node">
<title>Node36</title>
<g id="a_Node000036"><a xlink:href="dsps__biquad__gen_8h.html" target="_top" xlink:title=" ">
<polygon fill="white" stroke="#666666" points="1329.25,-188 1229.25,-188 1229.25,-168 1329.25,-168 1329.25,-188"/>
<text xml:space="preserve" text-anchor="middle" x="1279.25" y="-174.5" font-family="Helvetica,sans-Serif" font-size="10.00">dsps_biquad_gen.h</text>
</a>
</g>
</g>
<!-- Node15&#45;&gt;Node36 -->
<g id="edge33_Node000015_Node000036" class="edge">
<title>Node15&#45;&gt;Node36</title>
<g id="a_edge33_Node000015_Node000036"><a xlink:title=" ">
<path fill="none" stroke="#63b8ff" d="M808.95,-343.87C896.37,-340.34 1145.18,-328.03 1221.25,-300 1262.32,-284.87 1281.93,-282.76 1302.25,-244 1310.13,-228.96 1302.22,-210.63 1293.6,-197.28"/>
<polygon fill="#63b8ff" stroke="#63b8ff" points="1296.64,-195.52 1287.99,-189.4 1290.94,-199.58 1296.64,-195.52"/>
</a>
</g>
</g>
<!-- Node37 -->
<g id="Node000037" class="node">
<title>Node37</title>
<g id="a_Node000037"><a xlink:href="dsps__wind_8h.html" target="_top" xlink:title=" ">
<polygon fill="#fff0f0" stroke="red" points="491.62,-300 420.88,-300 420.88,-280 491.62,-280 491.62,-300"/>
<text xml:space="preserve" text-anchor="middle" x="456.25" y="-286.5" font-family="Helvetica,sans-Serif" font-size="10.00">dsps_wind.h</text>
</a>
</g>
</g>
<!-- Node15&#45;&gt;Node37 -->
<g id="edge35_Node000015_Node000037" class="edge">
<title>Node15&#45;&gt;Node37</title>
<g id="a_edge35_Node000015_Node000037"><a xlink:title=" ">
<path fill="none" stroke="#63b8ff" d="M747.32,-340.42C697.88,-333.01 597.71,-317.61 502.99,-300.44"/>
<polygon fill="#63b8ff" stroke="#63b8ff" points="503.72,-297.02 493.26,-298.67 502.47,-303.91 503.72,-297.02"/>
</a>
</g>
</g>
<!-- Node44 -->
<g id="Node000044" class="node">
<title>Node44</title>
<g id="a_Node000044"><a xlink:href="dsps__conv_8h.html" target="_top" xlink:title=" ">
<polygon fill="#fff0f0" stroke="red" points="1355.62,-300 1284.88,-300 1284.88,-280 1355.62,-280 1355.62,-300"/>
<text xml:space="preserve" text-anchor="middle" x="1320.25" y="-286.5" font-family="Helvetica,sans-Serif" font-size="10.00">dsps_conv.h</text>
</a>
</g>
</g>
<!-- Node15&#45;&gt;Node44 -->
<g id="edge36_Node000015_Node000044" class="edge">
<title>Node15&#45;&gt;Node44</title>
<g id="a_edge36_Node000015_Node000044"><a xlink:title=" ">
<path fill="none" stroke="#63b8ff" d="M809.22,-343.15C887.11,-338.29 1097.33,-323.86 1271.25,-300 1271.92,-299.91 1272.59,-299.81 1273.27,-299.72"/>
<polygon fill="#63b8ff" stroke="#63b8ff" points="1273.62,-303.2 1282.96,-298.2 1272.53,-296.29 1273.62,-303.2"/>
</a>
</g>
</g>
<!-- Node46 -->
<g id="Node000046" class="node">
<title>Node46</title>
<g id="a_Node000046"><a xlink:href="dsps__corr_8h.html" target="_top" xlink:title=" ">
<polygon fill="#fff0f0" stroke="red" points="1440.75,-300 1373.75,-300 1373.75,-280 1440.75,-280 1440.75,-300"/>
<text xml:space="preserve" text-anchor="middle" x="1407.25" y="-286.5" font-family="Helvetica,sans-Serif" font-size="10.00">dsps_corr.h</text>
</a>
</g>
</g>
<!-- Node15&#45;&gt;Node46 -->
<g id="edge38_Node000015_Node000046" class="edge">
<title>Node15&#45;&gt;Node46</title>
<g id="a_edge38_Node000015_Node000046"><a xlink:title=" ">
<path fill="none" stroke="#63b8ff" d="M809.22,-344.04C895.27,-341.06 1144.66,-330.41 1362.2,-300.09"/>
<polygon fill="#63b8ff" stroke="#63b8ff" points="1362.61,-303.57 1372.02,-298.7 1361.63,-296.64 1362.61,-303.57"/>
</a>
</g>
</g>
<!-- Node47 -->
<g id="Node000047" class="node">
<title>Node47</title>
<g id="a_Node000047"><a xlink:href="dsps__d__gen_8h.html" target="_top" xlink:title=" ">
<polygon fill="white" stroke="#666666" points="1535.62,-300 1458.88,-300 1458.88,-280 1535.62,-280 1535.62,-300"/>
<text xml:space="preserve" text-anchor="middle" x="1497.25" y="-286.5" font-family="Helvetica,sans-Serif" font-size="10.00">dsps_d_gen.h</text>
</a>
</g>
</g>
<!-- Node15&#45;&gt;Node47 -->
<g id="edge40_Node000015_Node000047" class="edge">
<title>Node15&#45;&gt;Node47</title>
<g id="a_edge40_Node000015_Node000047"><a xlink:title=" ">
<path fill="none" stroke="#63b8ff" d="M809.19,-344.27C903.48,-341.78 1195.66,-331.94 1447.38,-300.22"/>
<polygon fill="#63b8ff" stroke="#63b8ff" points="1447.6,-303.72 1457.08,-298.98 1446.72,-296.78 1447.6,-303.72"/>
</a>
</g>
</g>
<!-- Node48 -->
<g id="Node000048" class="node">
<title>Node48</title>
<g id="a_Node000048"><a xlink:href="dsps__h__gen_8h.html" target="_top" xlink:title=" ">
<polygon fill="white" stroke="#666666" points="849.62,-300 772.88,-300 772.88,-280 849.62,-280 849.62,-300"/>
<text xml:space="preserve" text-anchor="middle" x="811.25" y="-286.5" font-family="Helvetica,sans-Serif" font-size="10.00">dsps_h_gen.h</text>
</a>
</g>
</g>
<!-- Node15&#45;&gt;Node48 -->
<g id="edge42_Node000015_Node000048" class="edge">
<title>Node15&#45;&gt;Node48</title>
<g id="a_edge42_Node000015_Node000048"><a xlink:title=" ">
<path fill="none" stroke="#63b8ff" d="M784,-335.59C788.3,-328.55 794.34,-318.67 799.64,-310"/>
<polygon fill="#63b8ff" stroke="#63b8ff" points="802.55,-311.95 804.78,-301.59 796.58,-308.3 802.55,-311.95"/>
</a>
</g>
</g>
<!-- Node49 -->
<g id="Node000049" class="node">
<title>Node49</title>
<g id="a_Node000049"><a xlink:href="dsps__tone__gen_8h.html" target="_top" xlink:title=" ">
<polygon fill="white" stroke="#666666" points="901.38,-244 811.12,-244 811.12,-224 901.38,-224 901.38,-244"/>
<text xml:space="preserve" text-anchor="middle" x="856.25" y="-230.5" font-family="Helvetica,sans-Serif" font-size="10.00">dsps_tone_gen.h</text>
</a>
</g>
</g>
<!-- Node15&#45;&gt;Node49 -->
<g id="edge44_Node000015_Node000049" class="edge">
<title>Node15&#45;&gt;Node49</title>
<g id="a_edge44_Node000015_Node000049"><a xlink:title=" ">
<path fill="none" stroke="#63b8ff" d="M808.9,-336.33C826.69,-329.55 847.63,-318.16 858.25,-300 866.1,-286.57 864.92,-268.76 862.16,-255.18"/>
<polygon fill="#63b8ff" stroke="#63b8ff" points="865.59,-254.46 859.76,-245.61 858.8,-256.17 865.59,-254.46"/>
</a>
</g>
</g>
<!-- Node50 -->
<g id="Node000050" class="node">
<title>Node50</title>
<g id="a_Node000050"><a xlink:href="dsps__snr_8h.html" target="_top" xlink:title=" ">
<polygon fill="white" stroke="#666666" points="983.25,-244 919.25,-244 919.25,-224 983.25,-224 983.25,-244"/>
<text xml:space="preserve" text-anchor="middle" x="951.25" y="-230.5" font-family="Helvetica,sans-Serif" font-size="10.00">dsps_snr.h</text>
</a>
</g>
</g>
<!-- Node15&#45;&gt;Node50 -->
<g id="edge46_Node000015_Node000050" class="edge">
<title>Node15&#45;&gt;Node50</title>
<g id="a_edge46_Node000015_Node000050"><a xlink:title=" ">
<path fill="none" stroke="#63b8ff" d="M803.13,-335.66C823.32,-327.57 852.13,-314.85 875.25,-300 897.03,-286.01 919.21,-266.28 933.94,-252.23"/>
<polygon fill="#63b8ff" stroke="#63b8ff" points="936.27,-254.85 941,-245.37 931.39,-249.83 936.27,-254.85"/>
</a>
</g>
</g>
<!-- Node51 -->
<g id="Node000051" class="node">
<title>Node51</title>
<g id="a_Node000051"><a xlink:href="dsps__sfdr_8h.html" target="_top" xlink:title=" ">
<polygon fill="white" stroke="#666666" points="1068.75,-244 1001.75,-244 1001.75,-224 1068.75,-224 1068.75,-244"/>
<text xml:space="preserve" text-anchor="middle" x="1035.25" y="-230.5" font-family="Helvetica,sans-Serif" font-size="10.00">dsps_sfdr.h</text>
</a>
</g>
</g>
<!-- Node15&#45;&gt;Node51 -->
<g id="edge48_Node000015_Node000051" class="edge">
<title>Node15&#45;&gt;Node51</title>
<g id="a_edge48_Node000015_Node000051"><a xlink:title=" ">
<path fill="none" stroke="#63b8ff" d="M806.65,-335.66C832,-327.09 870,-313.69 902.25,-300 939.26,-284.29 980.71,-263.51 1007.34,-249.72"/>
<polygon fill="#63b8ff" stroke="#63b8ff" points="1008.87,-252.87 1016.12,-245.15 1005.63,-246.66 1008.87,-252.87"/>
</a>
</g>
</g>
<!-- Node52 -->
<g id="Node000052" class="node">
<title>Node52</title>
<g id="a_Node000052"><a xlink:href="dsps__fft2r_8h.html" target="_top" xlink:title=" ">
<polygon fill="#fff0f0" stroke="red" points="564.75,-188 497.75,-188 497.75,-168 564.75,-168 564.75,-188"/>
<text xml:space="preserve" text-anchor="middle" x="531.25" y="-174.5" font-family="Helvetica,sans-Serif" font-size="10.00">dsps_fft2r.h</text>
</a>
</g>
</g>
<!-- Node15&#45;&gt;Node52 -->
<g id="edge50_Node000015_Node000052" class="edge">
<title>Node15&#45;&gt;Node52</title>
<g id="a_edge50_Node000015_Node000052"><a xlink:title=" ">
<path fill="none" stroke="#63b8ff" d="M747.41,-336.65C719.97,-328.74 679.06,-315.74 645.25,-300 629.7,-292.76 627.82,-287.2 612.25,-280 566.33,-258.76 533.83,-285.05 504.25,-244 493.8,-229.5 504.1,-210.36 514.86,-196.6"/>
<polygon fill="#63b8ff" stroke="#63b8ff" points="517.32,-199.1 521.14,-189.22 511.99,-194.56 517.32,-199.1"/>
</a>
</g>
</g>
<!-- Node55 -->
<g id="Node000055" class="node">
<title>Node55</title>
<g id="a_Node000055"><a xlink:href="dsps__fft4r_8h.html" target="_top" xlink:title=" ">
<polygon fill="#fff0f0" stroke="red" points="802.75,-188 735.75,-188 735.75,-168 802.75,-168 802.75,-188"/>
<text xml:space="preserve" text-anchor="middle" x="769.25" y="-174.5" font-family="Helvetica,sans-Serif" font-size="10.00">dsps_fft4r.h</text>
</a>
</g>
</g>
<!-- Node15&#45;&gt;Node55 -->
<g id="edge53_Node000015_Node000055" class="edge">
<title>Node15&#45;&gt;Node55</title>
<g id="a_edge53_Node000015_Node000055"><a xlink:title=" ">
<path fill="none" stroke="#63b8ff" d="M774.39,-335.54C770.95,-326.57 766.17,-312.62 764.25,-300 758.95,-265.11 762.75,-223.96 765.99,-199.76"/>
<polygon fill="#63b8ff" stroke="#63b8ff" points="769.44,-200.38 767.42,-189.98 762.51,-199.37 769.44,-200.38"/>
</a>
</g>
</g>
<!-- Node57 -->
<g id="Node000057" class="node">
<title>Node57</title>
<g id="a_Node000057"><a xlink:href="dsps__dct_8h.html" target="_top" xlink:title=" ">
<polygon fill="white" stroke="#666666" points="479.25,-188 415.25,-188 415.25,-168 479.25,-168 479.25,-188"/>
<text xml:space="preserve" text-anchor="middle" x="447.25" y="-174.5" font-family="Helvetica,sans-Serif" font-size="10.00">dsps_dct.h</text>
</a>
</g>
</g>
<!-- Node15&#45;&gt;Node57 -->
<g id="edge56_Node000015_Node000057" class="edge">
<title>Node15&#45;&gt;Node57</title>
<g id="a_edge56_Node000015_Node000057"><a xlink:title=" ">
<path fill="none" stroke="#63b8ff" d="M747.41,-343.51C663.24,-339.13 434.36,-324.99 412.25,-300 386.41,-270.79 413.55,-223.56 432.4,-197.59"/>
<polygon fill="#63b8ff" stroke="#63b8ff" points="435.16,-199.75 438.41,-189.67 429.58,-195.52 435.16,-199.75"/>
</a>
</g>
</g>
<!-- Node58 -->
<g id="Node000058" class="node">
<title>Node58</title>
<g id="a_Node000058"><a xlink:href="dspm__matrix_8h.html" target="_top" xlink:title=" ">
<polygon fill="#fff0f0" stroke="red" points="1099.5,-300 1019,-300 1019,-280 1099.5,-280 1099.5,-300"/>
<text xml:space="preserve" text-anchor="middle" x="1059.25" y="-286.5" font-family="Helvetica,sans-Serif" font-size="10.00">dspm_matrix.h</text>
</a>
</g>
</g>
<!-- Node15&#45;&gt;Node58 -->
<g id="edge59_Node000015_Node000058" class="edge">
<title>Node15&#45;&gt;Node58</title>
<g id="a_edge59_Node000015_Node000058"><a xlink:title=" ">
<path fill="none" stroke="#63b8ff" d="M809.13,-339.07C856.98,-329.87 949.57,-312.08 1007.69,-300.91"/>
<polygon fill="#63b8ff" stroke="#63b8ff" points="1008.18,-304.38 1017.34,-299.05 1006.86,-297.5 1008.18,-304.38"/>
</a>
</g>
</g>
<!-- Node69 -->
<g id="Node000069" class="node">
<title>Node69</title>
<g id="a_Node000069"><a xlink:href="dsps__view_8h.html" target="_top" xlink:title=" ">
<polygon fill="white" stroke="#666666" points="1157.25,-244 1087.25,-244 1087.25,-224 1157.25,-224 1157.25,-244"/>
<text xml:space="preserve" text-anchor="middle" x="1122.25" y="-230.5" font-family="Helvetica,sans-Serif" font-size="10.00">dsps_view.h</text>
</a>
</g>
</g>
<!-- Node15&#45;&gt;Node69 -->
<g id="edge60_Node000015_Node000069" class="edge">
<title>Node15&#45;&gt;Node69</title>
<g id="a_edge60_Node000015_Node000069"><a xlink:title=" ">
<path fill="none" stroke="#63b8ff" d="M808.99,-336.82C840.95,-328.18 892.34,-313.91 936.25,-300 988.93,-283.31 1049.19,-261.8 1086.49,-248.2"/>
<polygon fill="#63b8ff" stroke="#63b8ff" points="1087.23,-251.66 1095.41,-244.93 1084.82,-245.08 1087.23,-251.66"/>
</a>
</g>
</g>
<!-- Node70 -->
<g id="Node000070" class="node">
<title>Node70</title>
<g id="a_Node000070"><a xlink:href="dspi__dotprod_8h.html" target="_top" xlink:title=" ">
<polygon fill="#fff0f0" stroke="red" points="593.12,-244 513.38,-244 513.38,-224 593.12,-224 593.12,-244"/>
<text xml:space="preserve" text-anchor="middle" x="553.25" y="-230.5" font-family="Helvetica,sans-Serif" font-size="10.00">dspi_dotprod.h</text>
</a>
</g>
</g>
<!-- Node15&#45;&gt;Node70 -->
<g id="edge62_Node000015_Node000070" class="edge">
<title>Node15&#45;&gt;Node70</title>
<g id="a_edge62_Node000015_Node000070"><a xlink:title=" ">
<path fill="none" stroke="#63b8ff" d="M759.07,-335.62C719.63,-316.34 629.24,-272.15 582.47,-249.29"/>
<polygon fill="#63b8ff" stroke="#63b8ff" points="584.27,-246.27 573.74,-245.02 581.19,-252.56 584.27,-246.27"/>
</a>
</g>
</g>
<!-- Node72 -->
<g id="Node000072" class="node">
<title>Node72</title>
<g id="a_Node000072"><a xlink:href="dspi__conv_8h.html" target="_top" xlink:title=" ">
<polygon fill="#fff0f0" stroke="red" points="679.12,-244 611.38,-244 611.38,-224 679.12,-224 679.12,-244"/>
<text xml:space="preserve" text-anchor="middle" x="645.25" y="-230.5" font-family="Helvetica,sans-Serif" font-size="10.00">dspi_conv.h</text>
</a>
</g>
</g>
<!-- Node15&#45;&gt;Node72 -->
<g id="edge65_Node000015_Node000072" class="edge">
<title>Node15&#45;&gt;Node72</title>
<g id="a_edge65_Node000015_Node000072"><a xlink:title=" ">
<path fill="none" stroke="#63b8ff" d="M766.91,-335.62C744.34,-316.95 693.51,-274.92 665.22,-251.52"/>
<polygon fill="#63b8ff" stroke="#63b8ff" points="667.66,-249 657.73,-245.32 663.2,-254.39 667.66,-249"/>
</a>
</g>
</g>
<!-- Node16&#45;&gt;Node4 -->
<g id="edge22_Node000016_Node000004" class="edge">
<title>Node16&#45;&gt;Node4</title>
<g id="a_edge22_Node000016_Node000004"><a xlink:title=" ">
<path fill="none" stroke="#63b8ff" d="M258.51,-167.75C269.34,-159.54 284.28,-146.6 293.25,-132 301.64,-118.35 306.48,-100.81 309.17,-87.39"/>
<polygon fill="#63b8ff" stroke="#63b8ff" points="312.55,-88.4 310.82,-77.95 305.66,-87.2 312.55,-88.4"/>
</a>
</g>
</g>
<!-- Node16&#45;&gt;Node11 -->
<g id="edge23_Node000016_Node000011" class="edge">
<title>Node16&#45;&gt;Node11</title>
<g id="a_edge23_Node000016_Node000011"><a xlink:title=" ">
<path fill="none" stroke="#63b8ff" d="M247.17,-167.59C248.52,-160.93 250.39,-151.75 252.09,-143.44"/>
<polygon fill="#63b8ff" stroke="#63b8ff" points="255.49,-144.28 254.05,-133.78 248.63,-142.88 255.49,-144.28"/>
</a>
</g>
</g>
<!-- Node18&#45;&gt;Node3 -->
<g id="edge25_Node000018_Node000003" class="edge">
<title>Node18&#45;&gt;Node3</title>
<g id="a_edge25_Node000018_Node000003"><a xlink:title=" ">
<path fill="none" stroke="#63b8ff" d="M1076.57,-167.96C1029.86,-157.83 954.68,-141.53 908.84,-131.59"/>
<polygon fill="#63b8ff" stroke="#63b8ff" points="909.84,-128.22 899.33,-129.52 908.36,-135.06 909.84,-128.22"/>
</a>
</g>
</g>
<!-- Node33&#45;&gt;Node2 -->
<g id="edge30_Node000033_Node000002" class="edge">
<title>Node33&#45;&gt;Node2</title>
<g id="a_edge30_Node000033_Node000002"><a xlink:title=" ">
<path fill="none" stroke="#63b8ff" d="M517.68,-279.53C478.22,-269.85 417.17,-254.86 376.96,-244.99"/>
<polygon fill="#63b8ff" stroke="#63b8ff" points="377.97,-241.64 367.43,-242.65 376.3,-248.44 377.97,-241.64"/>
</a>
</g>
</g>
<!-- Node33&#45;&gt;Node3 -->
<g id="edge29_Node000033_Node000003" class="edge">
<title>Node33&#45;&gt;Node3</title>
<g id="a_edge29_Node000033_Node000003"><a xlink:title=" ">
<path fill="none" stroke="#63b8ff" d="M603.08,-282.05C630.51,-275.95 664.34,-264.66 688.25,-244 716.98,-219.18 698.26,-192.51 727.25,-168 756.15,-143.57 798.39,-132.37 829.29,-127.25"/>
<polygon fill="#63b8ff" stroke="#63b8ff" points="829.66,-130.74 839.03,-125.8 828.63,-123.81 829.66,-130.74"/>
</a>
</g>
</g>
<!-- Node34&#45;&gt;Node3 -->
<g id="edge32_Node000034_Node000003" class="edge">
<title>Node34&#45;&gt;Node3</title>
<g id="a_edge32_Node000034_Node000003"><a xlink:title=" ">
<path fill="none" stroke="#63b8ff" d="M1244.33,-223.63C1229.86,-209.09 1199.72,-181.35 1168.25,-168 1080.99,-130.99 968.08,-123.8 909.11,-122.78"/>
<polygon fill="#63b8ff" stroke="#63b8ff" points="909.27,-119.28 899.23,-122.66 909.19,-126.28 909.27,-119.28"/>
</a>
</g>
</g>
<!-- Node36&#45;&gt;Node3 -->
<g id="edge34_Node000036_Node000003" class="edge">
<title>Node36&#45;&gt;Node3</title>
<g id="a_edge34_Node000036_Node000003"><a xlink:title=" ">
<path fill="none" stroke="#63b8ff" d="M1228.98,-170.38C1146.57,-159.52 984.41,-138.17 909.25,-128.27"/>
<polygon fill="#63b8ff" stroke="#63b8ff" points="909.83,-124.81 899.46,-126.98 908.92,-131.75 909.83,-124.81"/>
</a>
</g>
</g>
<!-- Node44&#45;&gt;Node3 -->
<g id="edge37_Node000044_Node000003" class="edge">
<title>Node44&#45;&gt;Node3</title>
<g id="a_edge37_Node000044_Node000003"><a xlink:title=" ">
<path fill="none" stroke="#63b8ff" d="M1325.97,-279.69C1338.94,-257.3 1367.24,-199.91 1338.25,-168 1309.62,-136.49 1017.36,-126.47 909.21,-123.83"/>
<polygon fill="#63b8ff" stroke="#63b8ff" points="909.44,-120.33 899.36,-123.59 909.27,-127.33 909.44,-120.33"/>
</a>
</g>
</g>
<!-- Node46&#45;&gt;Node3 -->
<g id="edge39_Node000046_Node000003" class="edge">
<title>Node46&#45;&gt;Node3</title>
<g id="a_edge39_Node000046_Node000003"><a xlink:title=" ">
<path fill="none" stroke="#63b8ff" d="M1406.55,-279.8C1404.25,-256.61 1394.75,-195.66 1357.25,-168 1321.49,-141.63 1019.17,-128.33 909.11,-124.33"/>
<polygon fill="#63b8ff" stroke="#63b8ff" points="909.5,-120.84 899.38,-123.99 909.25,-127.84 909.5,-120.84"/>
</a>
</g>
</g>
<!-- Node47&#45;&gt;Node3 -->
<g id="edge41_Node000047_Node000003" class="edge">
<title>Node47&#45;&gt;Node3</title>
<g id="a_edge41_Node000047_Node000003"><a xlink:title=" ">
<path fill="none" stroke="#63b8ff" d="M1491.61,-279.58C1476.82,-255.87 1434.32,-193.79 1380.25,-168 1297.04,-128.32 1014.24,-123.39 909.07,-122.95"/>
<polygon fill="#63b8ff" stroke="#63b8ff" points="909.25,-119.45 899.24,-122.93 909.23,-126.45 909.25,-119.45"/>
</a>
</g>
</g>
<!-- Node48&#45;&gt;Node3 -->
<g id="edge43_Node000048_Node000003" class="edge">
<title>Node48&#45;&gt;Node3</title>
<g id="a_edge43_Node000048_Node000003"><a xlink:title=" ">
<path fill="none" stroke="#63b8ff" d="M807.47,-279.55C802.89,-266.72 796.46,-243.2 802.25,-224 812.07,-191.43 836.21,-159.71 852.67,-140.76"/>
<polygon fill="#63b8ff" stroke="#63b8ff" points="855.17,-143.22 859.23,-133.44 849.95,-138.55 855.17,-143.22"/>
</a>
</g>
</g>
<!-- Node49&#45;&gt;Node3 -->
<g id="edge45_Node000049_Node000003" class="edge">
<title>Node49&#45;&gt;Node3</title>
<g id="a_edge45_Node000049_Node000003"><a xlink:title=" ">
<path fill="none" stroke="#63b8ff" d="M857.36,-223.62C859.44,-206.01 863.98,-167.59 866.81,-143.65"/>
<polygon fill="#63b8ff" stroke="#63b8ff" points="870.27,-144.2 867.97,-133.86 863.32,-143.38 870.27,-144.2"/>
</a>
</g>
</g>
<!-- Node50&#45;&gt;Node3 -->
<g id="edge47_Node000050_Node000003" class="edge">
<title>Node50&#45;&gt;Node3</title>
<g id="a_edge47_Node000050_Node000003"><a xlink:title=" ">
<path fill="none" stroke="#63b8ff" d="M944.26,-223.62C930.7,-205.44 900.63,-165.09 882.95,-141.38"/>
<polygon fill="#63b8ff" stroke="#63b8ff" points="885.91,-139.49 877.13,-133.57 880.3,-143.68 885.91,-139.49"/>
</a>
</g>
</g>
<!-- Node51&#45;&gt;Node3 -->
<g id="edge49_Node000051_Node000003" class="edge">
<title>Node51&#45;&gt;Node3</title>
<g id="a_edge49_Node000051_Node000003"><a xlink:title=" ">
<path fill="none" stroke="#63b8ff" d="M1021.1,-223.62C992.55,-204.71 927.83,-161.82 892.81,-138.61"/>
<polygon fill="#63b8ff" stroke="#63b8ff" points="894.9,-135.8 884.63,-133.19 891.03,-141.63 894.9,-135.8"/>
</a>
</g>
</g>
<!-- Node52&#45;&gt;Node3 -->
<g id="edge51_Node000052_Node000003" class="edge">
<title>Node52&#45;&gt;Node3</title>
<g id="a_edge51_Node000052_Node000003"><a xlink:title=" ">
<path fill="none" stroke="#63b8ff" d="M565.05,-170.52C569.82,-169.65 574.65,-168.79 579.25,-168 668.56,-152.7 773.75,-136.94 829.64,-128.74"/>
<polygon fill="#63b8ff" stroke="#63b8ff" points="829.91,-132.24 839.3,-127.33 828.9,-125.31 829.91,-132.24"/>
</a>
</g>
</g>
<!-- Node52&#45;&gt;Node9 -->
<g id="edge52_Node000052_Node000009" class="edge">
<title>Node52&#45;&gt;Node9</title>
<g id="a_edge52_Node000052_Node000009"><a xlink:title=" ">
<path fill="none" stroke="#63b8ff" d="M523.93,-167.59C518.27,-160.32 510.26,-150.02 503.36,-141.15"/>
<polygon fill="#63b8ff" stroke="#63b8ff" points="506.31,-139.24 497.41,-133.49 500.79,-143.54 506.31,-139.24"/>
</a>
</g>
</g>
<!-- Node55&#45;&gt;Node3 -->
<g id="edge54_Node000055_Node000003" class="edge">
<title>Node55&#45;&gt;Node3</title>
<g id="a_edge54_Node000055_Node000003"><a xlink:title=" ">
<path fill="none" stroke="#63b8ff" d="M786.67,-167.59C801.92,-159.36 824.33,-147.26 841.96,-137.74"/>
<polygon fill="#63b8ff" stroke="#63b8ff" points="843.23,-141.03 850.36,-133.2 839.9,-134.87 843.23,-141.03"/>
</a>
</g>
</g>
<!-- Node55&#45;&gt;Node9 -->
<g id="edge55_Node000055_Node000009" class="edge">
<title>Node55&#45;&gt;Node9</title>
<g id="a_edge55_Node000055_Node000009"><a xlink:title=" ">
<path fill="none" stroke="#63b8ff" d="M735.48,-170.49C684.99,-160.75 589.8,-142.39 533.72,-131.58"/>
<polygon fill="#63b8ff" stroke="#63b8ff" points="534.68,-128.2 524.19,-129.74 533.35,-135.07 534.68,-128.2"/>
</a>
</g>
</g>
<!-- Node57&#45;&gt;Node3 -->
<g id="edge57_Node000057_Node000003" class="edge">
<title>Node57&#45;&gt;Node3</title>
<g id="a_edge57_Node000057_Node000003"><a xlink:title=" ">
<path fill="none" stroke="#63b8ff" d="M479.29,-169.81C482.65,-169.16 486.01,-168.54 489.25,-168 612.54,-147.54 759.82,-132.85 829.27,-126.5"/>
<polygon fill="#63b8ff" stroke="#63b8ff" points="829.37,-130 839.01,-125.62 828.74,-123.03 829.37,-130"/>
</a>
</g>
</g>
<!-- Node57&#45;&gt;Node9 -->
<g id="edge58_Node000057_Node000009" class="edge">
<title>Node57&#45;&gt;Node9</title>
<g id="a_edge58_Node000057_Node000009"><a xlink:title=" ">
<path fill="none" stroke="#63b8ff" d="M454.57,-167.59C460.23,-160.32 468.24,-150.02 475.14,-141.15"/>
<polygon fill="#63b8ff" stroke="#63b8ff" points="477.71,-143.54 481.09,-133.49 472.19,-139.24 477.71,-143.54"/>
</a>
</g>
</g>
<!-- Node69&#45;&gt;Node3 -->
<g id="edge61_Node000069_Node000003" class="edge">
<title>Node69&#45;&gt;Node3</title>
<g id="a_edge61_Node000069_Node000003"><a xlink:title=" ">
<path fill="none" stroke="#63b8ff" d="M1100.68,-223.62C1056.05,-204.22 953.41,-159.59 901.12,-136.86"/>
<polygon fill="#63b8ff" stroke="#63b8ff" points="902.72,-133.74 892.15,-132.96 899.93,-140.16 902.72,-133.74"/>
</a>
</g>
</g>
<!-- Node70&#45;&gt;Node3 -->
<g id="edge63_Node000070_Node000003" class="edge">
<title>Node70&#45;&gt;Node3</title>
<g id="a_edge63_Node000070_Node000003"><a xlink:title=" ">
<path fill="none" stroke="#63b8ff" d="M566.76,-223.6C587.6,-209.52 629.3,-182.99 668.25,-168 722.13,-147.27 787.99,-134.79 829.29,-128.4"/>
<polygon fill="#63b8ff" stroke="#63b8ff" points="829.65,-131.88 839.02,-126.94 828.61,-124.96 829.65,-131.88"/>
</a>
</g>
</g>
<!-- Node70&#45;&gt;Node16 -->
<g id="edge64_Node000070_Node000016" class="edge">
<title>Node70&#45;&gt;Node16</title>
<g id="a_edge64_Node000070_Node000016"><a xlink:title=" ">
<path fill="none" stroke="#63b8ff" d="M513.21,-226.69C463.42,-218.73 375.57,-204.35 291.05,-188.48"/>
<polygon fill="#63b8ff" stroke="#63b8ff" points="291.92,-185.08 281.45,-186.66 290.63,-191.96 291.92,-185.08"/>
</a>
</g>
</g>
<!-- Node72&#45;&gt;Node3 -->
<g id="edge66_Node000072_Node000003" class="edge">
<title>Node72&#45;&gt;Node3</title>
<g id="a_edge66_Node000072_Node000003"><a xlink:title=" ">
<path fill="none" stroke="#63b8ff" d="M649.42,-223.89C656.41,-209.69 671.84,-182.41 693.25,-168 734.5,-140.23 791.71,-129.59 829.57,-125.52"/>
<polygon fill="#63b8ff" stroke="#63b8ff" points="829.53,-129.04 839.15,-124.6 828.86,-122.08 829.53,-129.04"/>
</a>
</g>
</g>
<!-- Node72&#45;&gt;Node16 -->
<g id="edge67_Node000072_Node000016" class="edge">
<title>Node72&#45;&gt;Node16</title>
<g id="a_edge67_Node000072_Node000016"><a xlink:title=" ">
<path fill="none" stroke="#63b8ff" d="M611.04,-225.54C608.07,-224.99 605.11,-224.46 602.25,-224 467.1,-202.16 428.85,-209.98 290.92,-188.3"/>
<polygon fill="#63b8ff" stroke="#63b8ff" points="291.85,-184.91 281.43,-186.78 290.75,-191.82 291.85,-184.91"/>
</a>
</g>
</g>
</g>
</svg>
