<?xml version="1.0" encoding="UTF-8" standalone="no"?>
<!DOCTYPE svg PUBLIC "-//W3C//DTD SVG 1.1//EN"
 "http://www.w3.org/Graphics/SVG/1.1/DTD/svg11.dtd">
<!-- Generated by graphviz version 14.1.2 (20260124.0452)
 -->
<!-- Title: dsps_fft2r_fc32_ae32.c Pages: 1 -->
<svg width="766pt" height="196pt"
 viewBox="0.00 0.00 766.00 196.00" xmlns="http://www.w3.org/2000/svg" xmlns:xlink="http://www.w3.org/1999/xlink">
<g id="graph0" class="graph" transform="scale(1 1) rotate(0) translate(4 192)">
<title>dsps_fft2r_fc32_ae32.c</title>
<!-- Node1 -->
<g id="Node000001" class="node">
<title>Node1</title>
<g id="a_Node000001"><a xlink:title=" ">
<polygon fill="#999999" stroke="#666666" points="554.75,-188 437.5,-188 437.5,-168 554.75,-168 554.75,-188"/>
<text xml:space="preserve" text-anchor="middle" x="496.12" y="-174.5" font-family="Helvetica,sans-Serif" font-size="10.00">dsps_fft2r_fc32_ae32.c</text>
</a>
</g>
</g>
<!-- Node2 -->
<g id="Node000002" class="node">
<title>Node2</title>
<g id="a_Node000002"><a xlink:href="dsps__fft2r_8h.html" target="_top" xlink:title=" ">
<polygon fill="white" stroke="#666666" points="233.62,-132 166.62,-132 166.62,-112 233.62,-112 233.62,-132"/>
<text xml:space="preserve" text-anchor="middle" x="200.12" y="-118.5" font-family="Helvetica,sans-Serif" font-size="10.00">dsps_fft2r.h</text>
</a>
</g>
</g>
<!-- Node1&#45;&gt;Node2 -->
<g id="edge1_Node000001_Node000002" class="edge">
<title>Node1&#45;&gt;Node2</title>
<g id="a_edge1_Node000001_Node000002"><a xlink:title=" ">
<path fill="none" stroke="#63b8ff" d="M444.23,-167.53C387.85,-157.25 298.68,-140.98 245.15,-131.21"/>
<polygon fill="#63b8ff" stroke="#63b8ff" points="245.92,-127.8 235.46,-129.45 244.67,-134.68 245.92,-127.8"/>
</a>
</g>
</g>
<!-- Node10 -->
<g id="Node000010" class="node">
<title>Node10</title>
<g id="a_Node000010"><a xlink:href="dsps__fft2r__platform_8h.html" target="_top" xlink:title=" ">
<polygon fill="white" stroke="#666666" points="253.88,-76 146.38,-76 146.38,-56 253.88,-56 253.88,-76"/>
<text xml:space="preserve" text-anchor="middle" x="200.12" y="-62.5" font-family="Helvetica,sans-Serif" font-size="10.00">dsps_fft2r_platform.h</text>
</a>
</g>
</g>
<!-- Node1&#45;&gt;Node10 -->
<g id="edge22_Node000001_Node000010" class="edge">
<title>Node1&#45;&gt;Node10</title>
<g id="a_edge22_Node000001_Node000010"><a xlink:title=" ">
<path fill="none" stroke="#63b8ff" d="M470.63,-167.53C417.96,-147.95 296.98,-102.99 236.27,-80.43"/>
<polygon fill="#63b8ff" stroke="#63b8ff" points="237.67,-77.22 227.08,-77.02 235.23,-83.78 237.67,-77.22"/>
</a>
</g>
</g>
<!-- Node11 -->
<g id="Node000011" class="node">
<title>Node11</title>
<g id="a_Node000011"><a xlink:href="dsp__common_8h.html" target="_top" xlink:title=" ">
<polygon fill="white" stroke="#666666" points="490.5,-132 407.75,-132 407.75,-112 490.5,-112 490.5,-132"/>
<text xml:space="preserve" text-anchor="middle" x="449.12" y="-118.5" font-family="Helvetica,sans-Serif" font-size="10.00">dsp_common.h</text>
</a>
</g>
</g>
<!-- Node1&#45;&gt;Node11 -->
<g id="edge10_Node000001_Node000011" class="edge">
<title>Node1&#45;&gt;Node11</title>
<g id="a_edge10_Node000001_Node000011"><a xlink:title=" ">
<path fill="none" stroke="#63b8ff" d="M487.94,-167.59C481.54,-160.24 472.45,-149.8 464.67,-140.87"/>
<polygon fill="#63b8ff" stroke="#63b8ff" points="467.42,-138.69 458.21,-133.44 462.14,-143.28 467.42,-138.69"/>
</a>
</g>
</g>
<!-- Node15 -->
<g id="Node000015" class="node">
<title>Node15</title>
<g id="a_Node000015"><a xlink:href="dsp__types_8h.html" target="_top" xlink:title=" ">
<polygon fill="white" stroke="#666666" points="615.75,-132 546.5,-132 546.5,-112 615.75,-112 615.75,-132"/>
<text xml:space="preserve" text-anchor="middle" x="581.12" y="-118.5" font-family="Helvetica,sans-Serif" font-size="10.00">dsp_types.h</text>
</a>
</g>
</g>
<!-- Node1&#45;&gt;Node15 -->
<g id="edge16_Node000001_Node000015" class="edge">
<title>Node1&#45;&gt;Node15</title>
<g id="a_edge16_Node000001_Node000015"><a xlink:title=" ">
<path fill="none" stroke="#63b8ff" d="M510.93,-167.59C523.53,-159.59 541.88,-147.93 556.66,-138.54"/>
<polygon fill="#63b8ff" stroke="#63b8ff" points="558.36,-141.61 564.93,-133.29 554.61,-135.7 558.36,-141.61"/>
</a>
</g>
</g>
<!-- Node17 -->
<g id="Node000017" class="node">
<title>Node17</title>
<g id="a_Node000017"><a xlink:title=" ">
<polygon fill="#e0e0e0" stroke="#999999" points="680.12,-132 634.12,-132 634.12,-112 680.12,-112 680.12,-132"/>
<text xml:space="preserve" text-anchor="middle" x="657.12" y="-118.5" font-family="Helvetica,sans-Serif" font-size="10.00">math.h</text>
</a>
</g>
</g>
<!-- Node1&#45;&gt;Node17 -->
<g id="edge20_Node000001_Node000017" class="edge">
<title>Node1&#45;&gt;Node17</title>
<g id="a_edge20_Node000001_Node000017"><a xlink:title=" ">
<path fill="none" stroke="#63b8ff" d="M524.17,-167.59C551.73,-158.35 593.82,-144.23 623.24,-134.37"/>
<polygon fill="#63b8ff" stroke="#63b8ff" points="624.03,-137.79 632.4,-131.29 621.81,-131.15 624.03,-137.79"/>
</a>
</g>
</g>
<!-- Node18 -->
<g id="Node000018" class="node">
<title>Node18</title>
<g id="a_Node000018"><a xlink:href="esp__attr_8h.html" target="_top" xlink:title=" ">
<polygon fill="white" stroke="#666666" points="757.88,-132 698.38,-132 698.38,-112 757.88,-112 757.88,-132"/>
<text xml:space="preserve" text-anchor="middle" x="728.12" y="-118.5" font-family="Helvetica,sans-Serif" font-size="10.00">esp_attr.h</text>
</a>
</g>
</g>
<!-- Node1&#45;&gt;Node18 -->
<g id="edge21_Node000001_Node000018" class="edge">
<title>Node1&#45;&gt;Node18</title>
<g id="a_edge21_Node000001_Node000018"><a xlink:title=" ">
<path fill="none" stroke="#63b8ff" d="M536.8,-167.53C579.06,-157.7 644.82,-142.39 687.18,-132.53"/>
<polygon fill="#63b8ff" stroke="#63b8ff" points="687.78,-135.98 696.73,-130.31 686.19,-129.17 687.78,-135.98"/>
</a>
</g>
</g>
<!-- Node3 -->
<g id="Node000003" class="node">
<title>Node3</title>
<g id="a_Node000003"><a xlink:href="dsp__err_8h.html" target="_top" xlink:title=" ">
<polygon fill="white" stroke="#666666" points="328.38,-76 271.88,-76 271.88,-56 328.38,-56 328.38,-76"/>
<text xml:space="preserve" text-anchor="middle" x="300.12" y="-62.5" font-family="Helvetica,sans-Serif" font-size="10.00">dsp_err.h</text>
</a>
</g>
</g>
<!-- Node2&#45;&gt;Node3 -->
<g id="edge2_Node000002_Node000003" class="edge">
<title>Node2&#45;&gt;Node3</title>
<g id="a_edge2_Node000002_Node000003"><a xlink:title=" ">
<path fill="none" stroke="#63b8ff" d="M217.54,-111.59C232.79,-103.36 255.2,-91.26 272.83,-81.74"/>
<polygon fill="#63b8ff" stroke="#63b8ff" points="274.1,-85.03 281.24,-77.2 270.78,-78.87 274.1,-85.03"/>
</a>
</g>
</g>
<!-- Node8 -->
<g id="Node000008" class="node">
<title>Node8</title>
<g id="a_Node000008"><a xlink:title=" ">
<polygon fill="#e0e0e0" stroke="#999999" points="158.25,-20 92,-20 92,0 158.25,0 158.25,-20"/>
<text xml:space="preserve" text-anchor="middle" x="125.12" y="-6.5" font-family="Helvetica,sans-Serif" font-size="10.00">sdkconfig.h</text>
</a>
</g>
</g>
<!-- Node2&#45;&gt;Node8 -->
<g id="edge6_Node000002_Node000008" class="edge">
<title>Node2&#45;&gt;Node8</title>
<g id="a_edge6_Node000002_Node000008"><a xlink:title=" ">
<path fill="none" stroke="#63b8ff" d="M179.57,-111.6C165.38,-104.02 147.3,-91.99 137.12,-76 128.72,-62.79 125.87,-45.21 125.03,-31.66"/>
<polygon fill="#63b8ff" stroke="#63b8ff" points="128.53,-31.6 124.78,-21.69 121.54,-31.78 128.53,-31.6"/>
</a>
</g>
</g>
<!-- Node9 -->
<g id="Node000009" class="node">
<title>Node9</title>
<g id="a_Node000009"><a xlink:href="dsps__fft__tables_8h.html" target="_top" xlink:title=" ">
<polygon fill="white" stroke="#666666" points="90.25,-76 0,-76 0,-56 90.25,-56 90.25,-76"/>
<text xml:space="preserve" text-anchor="middle" x="45.12" y="-62.5" font-family="Helvetica,sans-Serif" font-size="10.00">dsps_fft_tables.h</text>
</a>
</g>
</g>
<!-- Node2&#45;&gt;Node9 -->
<g id="edge7_Node000002_Node000009" class="edge">
<title>Node2&#45;&gt;Node9</title>
<g id="a_edge7_Node000002_Node000009"><a xlink:title=" ">
<path fill="none" stroke="#63b8ff" d="M173.13,-111.59C148.16,-102.9 110.82,-89.89 82.9,-80.16"/>
<polygon fill="#63b8ff" stroke="#63b8ff" points="84.36,-76.96 73.76,-76.98 82.06,-83.57 84.36,-76.96"/>
</a>
</g>
</g>
<!-- Node2&#45;&gt;Node10 -->
<g id="edge8_Node000002_Node000010" class="edge">
<title>Node2&#45;&gt;Node10</title>
<g id="a_edge8_Node000002_Node000010"><a xlink:title=" ">
<path fill="none" stroke="#63b8ff" d="M200.12,-111.59C200.12,-105.01 200.12,-95.96 200.12,-87.73"/>
<polygon fill="#63b8ff" stroke="#63b8ff" points="203.63,-87.81 200.13,-77.81 196.63,-87.81 203.63,-87.81"/>
</a>
</g>
</g>
<!-- Node4 -->
<g id="Node000004" class="node">
<title>Node4</title>
<g id="a_Node000004"><a xlink:title=" ">
<polygon fill="#e0e0e0" stroke="#999999" points="410.25,-20 362,-20 362,0 410.25,0 410.25,-20"/>
<text xml:space="preserve" text-anchor="middle" x="386.12" y="-6.5" font-family="Helvetica,sans-Serif" font-size="10.00">stdint.h</text>
</a>
</g>
</g>
<!-- Node3&#45;&gt;Node4 -->
<g id="edge3_Node000003_Node000004" class="edge">
<title>Node3&#45;&gt;Node4</title>
<g id="a_edge3_Node000003_Node000004"><a xlink:title=" ">
<path fill="none" stroke="#63b8ff" d="M315.11,-55.59C327.85,-47.59 346.42,-35.93 361.37,-26.54"/>
<polygon fill="#63b8ff" stroke="#63b8ff" points="363.14,-29.57 369.75,-21.28 359.42,-23.64 363.14,-29.57"/>
</a>
</g>
</g>
<!-- Node5 -->
<g id="Node000005" class="node">
<title>Node5</title>
<g id="a_Node000005"><a xlink:href="esp__err_8h.html" target="_top" xlink:title=" ">
<polygon fill="#fff0f0" stroke="red" points="238.38,-20 181.88,-20 181.88,0 238.38,0 238.38,-20"/>
<text xml:space="preserve" text-anchor="middle" x="210.12" y="-6.5" font-family="Helvetica,sans-Serif" font-size="10.00">esp_err.h</text>
</a>
</g>
</g>
<!-- Node3&#45;&gt;Node5 -->
<g id="edge4_Node000003_Node000005" class="edge">
<title>Node3&#45;&gt;Node5</title>
<g id="a_edge4_Node000003_Node000005"><a xlink:title=" ">
<path fill="none" stroke="#63b8ff" d="M284.45,-55.59C270.98,-47.51 251.31,-35.71 235.58,-26.27"/>
<polygon fill="#63b8ff" stroke="#63b8ff" points="237.6,-23.4 227.22,-21.26 234,-29.4 237.6,-23.4"/>
</a>
</g>
</g>
<!-- Node7 -->
<g id="Node000007" class="node">
<title>Node7</title>
<g id="a_Node000007"><a xlink:href="dsp__err__codes_8h.html" target="_top" xlink:title=" ">
<polygon fill="white" stroke="#666666" points="344.12,-20 256.12,-20 256.12,0 344.12,0 344.12,-20"/>
<text xml:space="preserve" text-anchor="middle" x="300.12" y="-6.5" font-family="Helvetica,sans-Serif" font-size="10.00">dsp_err_codes.h</text>
</a>
</g>
</g>
<!-- Node3&#45;&gt;Node7 -->
<g id="edge5_Node000003_Node000007" class="edge">
<title>Node3&#45;&gt;Node7</title>
<g id="a_edge5_Node000003_Node000007"><a xlink:title=" ">
<path fill="none" stroke="#63b8ff" d="M300.12,-55.59C300.12,-49.01 300.12,-39.96 300.12,-31.73"/>
<polygon fill="#63b8ff" stroke="#63b8ff" points="303.63,-31.81 300.13,-21.81 296.63,-31.81 303.63,-31.81"/>
</a>
</g>
</g>
<!-- Node10&#45;&gt;Node8 -->
<g id="edge9_Node000010_Node000008" class="edge">
<title>Node10&#45;&gt;Node8</title>
<g id="a_edge9_Node000010_Node000008"><a xlink:title=" ">
<path fill="none" stroke="#63b8ff" d="M187.06,-55.59C176.16,-47.74 160.37,-36.38 147.47,-27.09"/>
<polygon fill="#63b8ff" stroke="#63b8ff" points="149.68,-24.37 139.52,-21.36 145.59,-30.05 149.68,-24.37"/>
</a>
</g>
</g>
<!-- Node11&#45;&gt;Node3 -->
<g id="edge13_Node000011_Node000003" class="edge">
<title>Node11&#45;&gt;Node3</title>
<g id="a_edge13_Node000011_Node000003"><a xlink:title=" ">
<path fill="none" stroke="#63b8ff" d="M423.17,-111.59C399.28,-102.94 363.6,-90 336.8,-80.29"/>
<polygon fill="#63b8ff" stroke="#63b8ff" points="338.3,-77.11 327.7,-77 335.91,-83.69 338.3,-77.11"/>
</a>
</g>
</g>
<!-- Node11&#45;&gt;Node4 -->
<g id="edge11_Node000011_Node000004" class="edge">
<title>Node11&#45;&gt;Node4</title>
<g id="a_edge11_Node000011_Node000004"><a xlink:title=" ">
<path fill="none" stroke="#63b8ff" d="M420.33,-111.57C403.93,-104.55 384.78,-93.17 375.12,-76 367.4,-62.27 371.17,-44.5 376.3,-31.02"/>
<polygon fill="#63b8ff" stroke="#63b8ff" points="379.5,-32.43 380.3,-21.87 373.09,-29.63 379.5,-32.43"/>
</a>
</g>
</g>
<!-- Node12 -->
<g id="Node000012" class="node">
<title>Node12</title>
<g id="a_Node000012"><a xlink:title=" ">
<polygon fill="#e0e0e0" stroke="#999999" points="629,-76 573.25,-76 573.25,-56 629,-56 629,-76"/>
<text xml:space="preserve" text-anchor="middle" x="601.12" y="-62.5" font-family="Helvetica,sans-Serif" font-size="10.00">stdbool.h</text>
</a>
</g>
</g>
<!-- Node11&#45;&gt;Node12 -->
<g id="edge12_Node000011_Node000012" class="edge">
<title>Node11&#45;&gt;Node12</title>
<g id="a_edge12_Node000011_Node000012"><a xlink:title=" ">
<path fill="none" stroke="#63b8ff" d="M475.6,-111.59C499.97,-102.94 536.38,-90 563.71,-80.29"/>
<polygon fill="#63b8ff" stroke="#63b8ff" points="564.76,-83.63 573.02,-76.99 562.42,-77.04 564.76,-83.63"/>
</a>
</g>
</g>
<!-- Node13 -->
<g id="Node000013" class="node">
<title>Node13</title>
<g id="a_Node000013"><a xlink:title=" ">
<polygon fill="#e0e0e0" stroke="#999999" points="476.38,-76 383.88,-76 383.88,-56 476.38,-56 476.38,-76"/>
<text xml:space="preserve" text-anchor="middle" x="430.12" y="-62.5" font-family="Helvetica,sans-Serif" font-size="10.00">esp_idf_version.h</text>
</a>
</g>
</g>
<!-- Node11&#45;&gt;Node13 -->
<g id="edge14_Node000011_Node000013" class="edge">
<title>Node11&#45;&gt;Node13</title>
<g id="a_edge14_Node000011_Node000013"><a xlink:title=" ">
<path fill="none" stroke="#63b8ff" d="M445.82,-111.59C443.45,-104.86 440.16,-95.53 437.22,-87.15"/>
<polygon fill="#63b8ff" stroke="#63b8ff" points="440.52,-86 433.9,-77.73 433.92,-88.32 440.52,-86"/>
</a>
</g>
</g>
<!-- Node14 -->
<g id="Node000014" class="node">
<title>Node14</title>
<g id="a_Node000014"><a xlink:title=" ">
<polygon fill="#e0e0e0" stroke="#999999" points="555.62,-76 494.62,-76 494.62,-56 555.62,-56 555.62,-76"/>
<text xml:space="preserve" text-anchor="middle" x="525.12" y="-62.5" font-family="Helvetica,sans-Serif" font-size="10.00">x86intrin.h</text>
</a>
</g>
</g>
<!-- Node11&#45;&gt;Node14 -->
<g id="edge15_Node000011_Node000014" class="edge">
<title>Node11&#45;&gt;Node14</title>
<g id="a_edge15_Node000011_Node000014"><a xlink:title=" ">
<path fill="none" stroke="#63b8ff" d="M462.36,-111.59C473.41,-103.74 489.41,-92.38 502.48,-83.09"/>
<polygon fill="#63b8ff" stroke="#63b8ff" points="504.43,-86 510.55,-77.36 500.37,-80.3 504.43,-86"/>
</a>
</g>
</g>
<!-- Node15&#45;&gt;Node4 -->
<g id="edge17_Node000015_Node000004" class="edge">
<title>Node15&#45;&gt;Node4</title>
<g id="a_edge17_Node000015_Node000004"><a xlink:title=" ">
<path fill="none" stroke="#63b8ff" d="M599.7,-111.64C622.16,-99.12 654.99,-76.14 638.12,-56 610.92,-23.51 484.4,-14.45 421.63,-11.95"/>
<polygon fill="#63b8ff" stroke="#63b8ff" points="421.96,-8.46 411.85,-11.59 421.71,-15.45 421.96,-8.46"/>
</a>
</g>
</g>
<!-- Node15&#45;&gt;Node12 -->
<g id="edge18_Node000015_Node000012" class="edge">
<title>Node15&#45;&gt;Node12</title>
<g id="a_edge18_Node000015_Node000012"><a xlink:title=" ">
<path fill="none" stroke="#63b8ff" d="M584.61,-111.59C587.13,-104.78 590.64,-95.32 593.77,-86.86"/>
<polygon fill="#63b8ff" stroke="#63b8ff" points="596.96,-88.31 597.16,-77.72 590.4,-85.88 596.96,-88.31"/>
</a>
</g>
</g>
<!-- Node16 -->
<g id="Node000016" class="node">
<title>Node16</title>
<g id="a_Node000016"><a xlink:title=" ">
<polygon fill="#e0e0e0" stroke="#999999" points="743.5,-76 684.75,-76 684.75,-56 743.5,-56 743.5,-76"/>
<text xml:space="preserve" text-anchor="middle" x="714.12" y="-62.5" font-family="Helvetica,sans-Serif" font-size="10.00">inttypes.h</text>
</a>
</g>
</g>
<!-- Node15&#45;&gt;Node16 -->
<g id="edge19_Node000015_Node000016" class="edge">
<title>Node15&#45;&gt;Node16</title>
<g id="a_edge19_Node000015_Node000016"><a xlink:title=" ">
<path fill="none" stroke="#63b8ff" d="M604.29,-111.59C625.33,-103.05 656.62,-90.35 680.43,-80.68"/>
<polygon fill="#63b8ff" stroke="#63b8ff" points="681.43,-84.05 689.38,-77.05 678.79,-77.57 681.43,-84.05"/>
</a>
</g>
</g>
</g>
</svg>
