<?xml version="1.0" encoding="UTF-8" standalone="no"?>
<!DOCTYPE svg PUBLIC "-//W3C//DTD SVG 1.1//EN"
 "http://www.w3.org/Graphics/SVG/1.1/DTD/svg11.dtd">
<!-- Generated by graphviz version 14.1.2 (20260124.0452)
 -->
<!-- Title: dsps_biquad_gen_f32.c Pages: 1 -->
<svg width="292pt" height="252pt"
 viewBox="0.00 0.00 292.00 252.00" xmlns="http://www.w3.org/2000/svg" xmlns:xlink="http://www.w3.org/1999/xlink">
<g id="graph0" class="graph" transform="scale(1 1) rotate(0) translate(4 248)">
<title>dsps_biquad_gen_f32.c</title>
<!-- Node1 -->
<g id="Node000001" class="node">
<title>Node1</title>
<g id="a_Node000001"><a xlink:title=" ">
<polygon fill="#999999" stroke="#666666" points="252.5,-244 133.75,-244 133.75,-224 252.5,-224 252.5,-244"/>
<text xml:space="preserve" text-anchor="middle" x="193.12" y="-230.5" font-family="Helvetica,sans-Serif" font-size="10.00">dsps_biquad_gen_f32.c</text>
</a>
</g>
</g>
<!-- Node2 -->
<g id="Node000002" class="node">
<title>Node2</title>
<g id="a_Node000002"><a xlink:href="dsps__biquad__gen_8h.html" target="_top" xlink:title=" ">
<polygon fill="white" stroke="#666666" points="150.12,-188 50.12,-188 50.12,-168 150.12,-168 150.12,-188"/>
<text xml:space="preserve" text-anchor="middle" x="100.12" y="-174.5" font-family="Helvetica,sans-Serif" font-size="10.00">dsps_biquad_gen.h</text>
</a>
</g>
</g>
<!-- Node1&#45;&gt;Node2 -->
<g id="edge1_Node000001_Node000002" class="edge">
<title>Node1&#45;&gt;Node2</title>
<g id="a_edge1_Node000001_Node000002"><a xlink:title=" ">
<path fill="none" stroke="#63b8ff" d="M176.93,-223.59C162.88,-215.44 142.29,-203.48 125.97,-194"/>
<polygon fill="#63b8ff" stroke="#63b8ff" points="128.17,-191.23 117.76,-189.24 124.65,-197.29 128.17,-191.23"/>
</a>
</g>
</g>
<!-- Node8 -->
<g id="Node000008" class="node">
<title>Node8</title>
<g id="a_Node000008"><a xlink:title=" ">
<polygon fill="#e0e0e0" stroke="#999999" points="216.12,-188 170.12,-188 170.12,-168 216.12,-168 216.12,-188"/>
<text xml:space="preserve" text-anchor="middle" x="193.12" y="-174.5" font-family="Helvetica,sans-Serif" font-size="10.00">math.h</text>
</a>
</g>
</g>
<!-- Node1&#45;&gt;Node8 -->
<g id="edge7_Node000001_Node000008" class="edge">
<title>Node1&#45;&gt;Node8</title>
<g id="a_edge7_Node000001_Node000008"><a xlink:title=" ">
<path fill="none" stroke="#63b8ff" d="M193.12,-223.59C193.12,-217.01 193.12,-207.96 193.12,-199.73"/>
<polygon fill="#63b8ff" stroke="#63b8ff" points="196.63,-199.81 193.13,-189.81 189.63,-199.81 196.63,-199.81"/>
</a>
</g>
</g>
<!-- Node9 -->
<g id="Node000009" class="node">
<title>Node9</title>
<g id="a_Node000009"><a xlink:href="esp__log_8h.html" target="_top" xlink:title=" ">
<polygon fill="white" stroke="#666666" points="284.12,-132 226.12,-132 226.12,-112 284.12,-112 284.12,-132"/>
<text xml:space="preserve" text-anchor="middle" x="255.12" y="-118.5" font-family="Helvetica,sans-Serif" font-size="10.00">esp_log.h</text>
</a>
</g>
</g>
<!-- Node1&#45;&gt;Node9 -->
<g id="edge8_Node000001_Node000009" class="edge">
<title>Node1&#45;&gt;Node9</title>
<g id="a_edge8_Node000001_Node000009"><a xlink:title=" ">
<path fill="none" stroke="#63b8ff" d="M200.53,-223.69C207.38,-214.82 217.63,-200.94 225.12,-188 233.71,-173.2 241.73,-155.52 247.32,-142.33"/>
<polygon fill="#63b8ff" stroke="#63b8ff" points="250.39,-144.07 250.98,-133.49 243.92,-141.4 250.39,-144.07"/>
</a>
</g>
</g>
<!-- Node3 -->
<g id="Node000003" class="node">
<title>Node3</title>
<g id="a_Node000003"><a xlink:href="dsp__err_8h.html" target="_top" xlink:title=" ">
<polygon fill="white" stroke="#666666" points="123.38,-132 66.88,-132 66.88,-112 123.38,-112 123.38,-132"/>
<text xml:space="preserve" text-anchor="middle" x="95.12" y="-118.5" font-family="Helvetica,sans-Serif" font-size="10.00">dsp_err.h</text>
</a>
</g>
</g>
<!-- Node2&#45;&gt;Node3 -->
<g id="edge2_Node000002_Node000003" class="edge">
<title>Node2&#45;&gt;Node3</title>
<g id="a_edge2_Node000002_Node000003"><a xlink:title=" ">
<path fill="none" stroke="#63b8ff" d="M99.25,-167.59C98.64,-161.01 97.81,-151.96 97.04,-143.73"/>
<polygon fill="#63b8ff" stroke="#63b8ff" points="100.53,-143.44 96.13,-133.81 93.56,-144.09 100.53,-143.44"/>
</a>
</g>
</g>
<!-- Node4 -->
<g id="Node000004" class="node">
<title>Node4</title>
<g id="a_Node000004"><a xlink:title=" ">
<polygon fill="#e0e0e0" stroke="#999999" points="48.25,-76 0,-76 0,-56 48.25,-56 48.25,-76"/>
<text xml:space="preserve" text-anchor="middle" x="24.12" y="-62.5" font-family="Helvetica,sans-Serif" font-size="10.00">stdint.h</text>
</a>
</g>
</g>
<!-- Node3&#45;&gt;Node4 -->
<g id="edge3_Node000003_Node000004" class="edge">
<title>Node3&#45;&gt;Node4</title>
<g id="a_edge3_Node000003_Node000004"><a xlink:title=" ">
<path fill="none" stroke="#63b8ff" d="M82.76,-111.59C72.48,-103.77 57.61,-92.46 45.41,-83.19"/>
<polygon fill="#63b8ff" stroke="#63b8ff" points="47.63,-80.48 37.56,-77.21 43.4,-86.05 47.63,-80.48"/>
</a>
</g>
</g>
<!-- Node5 -->
<g id="Node000005" class="node">
<title>Node5</title>
<g id="a_Node000005"><a xlink:href="esp__err_8h.html" target="_top" xlink:title=" ">
<polygon fill="white" stroke="#666666" points="122.38,-76 65.88,-76 65.88,-56 122.38,-56 122.38,-76"/>
<text xml:space="preserve" text-anchor="middle" x="94.12" y="-62.5" font-family="Helvetica,sans-Serif" font-size="10.00">esp_err.h</text>
</a>
</g>
</g>
<!-- Node3&#45;&gt;Node5 -->
<g id="edge4_Node000003_Node000005" class="edge">
<title>Node3&#45;&gt;Node5</title>
<g id="a_edge4_Node000003_Node000005"><a xlink:title=" ">
<path fill="none" stroke="#63b8ff" d="M94.95,-111.59C94.83,-105.01 94.66,-95.96 94.51,-87.73"/>
<polygon fill="#63b8ff" stroke="#63b8ff" points="98.01,-87.75 94.33,-77.81 91.01,-87.87 98.01,-87.75"/>
</a>
</g>
</g>
<!-- Node7 -->
<g id="Node000007" class="node">
<title>Node7</title>
<g id="a_Node000007"><a xlink:href="dsp__err__codes_8h.html" target="_top" xlink:title=" ">
<polygon fill="white" stroke="#666666" points="228.12,-76 140.12,-76 140.12,-56 228.12,-56 228.12,-76"/>
<text xml:space="preserve" text-anchor="middle" x="184.12" y="-62.5" font-family="Helvetica,sans-Serif" font-size="10.00">dsp_err_codes.h</text>
</a>
</g>
</g>
<!-- Node3&#45;&gt;Node7 -->
<g id="edge6_Node000003_Node000007" class="edge">
<title>Node3&#45;&gt;Node7</title>
<g id="a_edge6_Node000003_Node000007"><a xlink:title=" ">
<path fill="none" stroke="#63b8ff" d="M110.63,-111.59C123.95,-103.51 143.4,-91.71 158.95,-82.27"/>
<polygon fill="#63b8ff" stroke="#63b8ff" points="160.47,-85.44 167.21,-77.26 156.84,-79.46 160.47,-85.44"/>
</a>
</g>
</g>
<!-- Node6 -->
<g id="Node000006" class="node">
<title>Node6</title>
<g id="a_Node000006"><a xlink:title=" ">
<polygon fill="#e0e0e0" stroke="#999999" points="198.88,-20 151.38,-20 151.38,0 198.88,0 198.88,-20"/>
<text xml:space="preserve" text-anchor="middle" x="175.12" y="-6.5" font-family="Helvetica,sans-Serif" font-size="10.00">stdlib.h</text>
</a>
</g>
</g>
<!-- Node5&#45;&gt;Node6 -->
<g id="edge5_Node000005_Node000006" class="edge">
<title>Node5&#45;&gt;Node6</title>
<g id="a_edge5_Node000005_Node000006"><a xlink:title=" ">
<path fill="none" stroke="#63b8ff" d="M108.23,-55.59C120.12,-47.67 137.39,-36.16 151.4,-26.82"/>
<polygon fill="#63b8ff" stroke="#63b8ff" points="153.27,-29.78 159.65,-21.32 149.38,-23.95 153.27,-29.78"/>
</a>
</g>
</g>
<!-- Node9&#45;&gt;Node6 -->
<g id="edge9_Node000009_Node000006" class="edge">
<title>Node9&#45;&gt;Node6</title>
<g id="a_edge9_Node000009_Node000006"><a xlink:title=" ">
<path fill="none" stroke="#63b8ff" d="M254.48,-111.79C253.16,-98.42 249.14,-73.32 237.12,-56 228.65,-43.79 215.77,-33.67 203.94,-26.14"/>
<polygon fill="#63b8ff" stroke="#63b8ff" points="206.05,-23.32 195.66,-21.2 202.46,-29.33 206.05,-23.32"/>
</a>
</g>
</g>
</g>
</svg>
