<?xml version="1.0" encoding="UTF-8" standalone="no"?>
<!DOCTYPE svg PUBLIC "-//W3C//DTD SVG 1.1//EN"
 "http://www.w3.org/Graphics/SVG/1.1/DTD/svg11.dtd">
<!-- Generated by graphviz version 14.1.2 (20260124.0452)
 -->
<!-- Title: dsps_biquad_platform.h Pages: 1 -->
<svg width="2762pt" height="196pt"
 viewBox="0.00 0.00 2762.00 196.00" xmlns="http://www.w3.org/2000/svg" xmlns:xlink="http://www.w3.org/1999/xlink">
<g id="graph0" class="graph" transform="scale(1 1) rotate(0) translate(4 192)">
<title>dsps_biquad_platform.h</title>
<!-- Node1 -->
<g id="Node000001" class="node">
<title>Node1</title>
<g id="a_Node000001"><a xlink:title=" ">
<polygon fill="#999999" stroke="#666666" points="1503,-188 1383.5,-188 1383.5,-168 1503,-168 1503,-188"/>
<text xml:space="preserve" text-anchor="middle" x="1443.25" y="-174.5" font-family="Helvetica,sans-Serif" font-size="10.00">dsps_biquad_platform.h</text>
</a>
</g>
</g>
<!-- Node2 -->
<g id="Node000002" class="node">
<title>Node2</title>
<g id="a_Node000002"><a xlink:href="dsps__biquad_8h.html" target="_top" xlink:title=" ">
<polygon fill="white" stroke="#666666" points="1482.75,-132 1403.75,-132 1403.75,-112 1482.75,-112 1482.75,-132"/>
<text xml:space="preserve" text-anchor="middle" x="1443.25" y="-118.5" font-family="Helvetica,sans-Serif" font-size="10.00">dsps_biquad.h</text>
</a>
</g>
</g>
<!-- Node1&#45;&gt;Node2 -->
<g id="edge1_Node000001_Node000002" class="edge">
<title>Node1&#45;&gt;Node2</title>
<g id="a_edge1_Node000001_Node000002"><a xlink:title=" ">
<path fill="none" stroke="#63b8ff" d="M1443.25,-156.13C1443.25,-147.9 1443.25,-138.85 1443.25,-132.3"/>
<polygon fill="#63b8ff" stroke="#63b8ff" points="1439.75,-156.08 1443.25,-166.08 1446.75,-156.08 1439.75,-156.08"/>
</a>
</g>
</g>
<!-- Node3 -->
<g id="Node000003" class="node">
<title>Node3</title>
<g id="a_Node000003"><a xlink:href="dsps__biquad__f32__ansi_8c.html" target="_top" xlink:title=" ">
<polygon fill="white" stroke="#666666" points="1305.75,-76 1184.75,-76 1184.75,-56 1305.75,-56 1305.75,-76"/>
<text xml:space="preserve" text-anchor="middle" x="1245.25" y="-62.5" font-family="Helvetica,sans-Serif" font-size="10.00">dsps_biquad_f32_ansi.c</text>
</a>
</g>
</g>
<!-- Node2&#45;&gt;Node3 -->
<g id="edge2_Node000002_Node000003" class="edge">
<title>Node2&#45;&gt;Node3</title>
<g id="a_edge2_Node000002_Node000003"><a xlink:title=" ">
<path fill="none" stroke="#63b8ff" d="M1398.1,-108.69C1362.24,-98.91 1312.83,-85.43 1280.01,-76.48"/>
<polygon fill="#63b8ff" stroke="#63b8ff" points="1396.73,-111.94 1407.3,-111.2 1398.57,-105.19 1396.73,-111.94"/>
</a>
</g>
</g>
<!-- Node4 -->
<g id="Node000004" class="node">
<title>Node4</title>
<g id="a_Node000004"><a xlink:href="dsps__biquad__sf32__ansi_8c.html" target="_top" xlink:title=" ">
<polygon fill="white" stroke="#666666" points="1450.38,-76 1324.12,-76 1324.12,-56 1450.38,-56 1450.38,-76"/>
<text xml:space="preserve" text-anchor="middle" x="1387.25" y="-62.5" font-family="Helvetica,sans-Serif" font-size="10.00">dsps_biquad_sf32_ansi.c</text>
</a>
</g>
</g>
<!-- Node2&#45;&gt;Node4 -->
<g id="edge3_Node000002_Node000004" class="edge">
<title>Node2&#45;&gt;Node4</title>
<g id="a_edge3_Node000002_Node000004"><a xlink:title=" ">
<path fill="none" stroke="#63b8ff" d="M1425.46,-103.85C1416,-94.72 1404.73,-83.86 1396.89,-76.3"/>
<polygon fill="#63b8ff" stroke="#63b8ff" points="1422.78,-106.12 1432.41,-110.54 1427.64,-101.08 1422.78,-106.12"/>
</a>
</g>
</g>
<!-- Node5 -->
<g id="Node000005" class="node">
<title>Node5</title>
<g id="a_Node000005"><a xlink:href="esp__dsp_8h.html" target="_top" xlink:title=" ">
<polygon fill="white" stroke="#666666" points="1529.75,-76 1468.75,-76 1468.75,-56 1529.75,-56 1529.75,-76"/>
<text xml:space="preserve" text-anchor="middle" x="1499.25" y="-62.5" font-family="Helvetica,sans-Serif" font-size="10.00">esp_dsp.h</text>
</a>
</g>
</g>
<!-- Node2&#45;&gt;Node5 -->
<g id="edge4_Node000002_Node000005" class="edge">
<title>Node2&#45;&gt;Node5</title>
<g id="a_edge4_Node000002_Node000005"><a xlink:title=" ">
<path fill="none" stroke="#63b8ff" d="M1461.04,-103.85C1470.5,-94.72 1481.77,-83.86 1489.61,-76.3"/>
<polygon fill="#63b8ff" stroke="#63b8ff" points="1458.86,-101.08 1454.09,-110.54 1463.72,-106.12 1458.86,-101.08"/>
</a>
</g>
</g>
<!-- Node39 -->
<g id="Node000039" class="node">
<title>Node39</title>
<g id="a_Node000039"><a xlink:href="test__iir__biquad_8c.html" target="_top" xlink:title=" ">
<polygon fill="white" stroke="#666666" points="1634.88,-76 1547.62,-76 1547.62,-56 1634.88,-56 1634.88,-76"/>
<text xml:space="preserve" text-anchor="middle" x="1591.25" y="-62.5" font-family="Helvetica,sans-Serif" font-size="10.00">test_iir_biquad.c</text>
</a>
</g>
</g>
<!-- Node2&#45;&gt;Node39 -->
<g id="edge29_Node000002_Node000039" class="edge">
<title>Node2&#45;&gt;Node39</title>
<g id="a_edge29_Node000002_Node000039"><a xlink:title=" ">
<path fill="none" stroke="#63b8ff" d="M1479.81,-107.66C1506.33,-97.98 1541.58,-85.12 1565.27,-76.48"/>
<polygon fill="#63b8ff" stroke="#63b8ff" points="1478.65,-104.36 1470.45,-111.08 1481.05,-110.94 1478.65,-104.36"/>
</a>
</g>
</g>
<!-- Node6 -->
<g id="Node000006" class="node">
<title>Node6</title>
<g id="a_Node000006"><a xlink:href="applications_2azure__board__apps_2apps_23d__graphics_2main_23d__graphics__demo_8cpp.html" target="_top" xlink:title=" ">
<polygon fill="white" stroke="#666666" points="116.5,-20 0,-20 0,0 116.5,0 116.5,-20"/>
<text xml:space="preserve" text-anchor="middle" x="58.25" y="-6.5" font-family="Helvetica,sans-Serif" font-size="10.00">3d_graphics_demo.cpp</text>
</a>
</g>
</g>
<!-- Node5&#45;&gt;Node6 -->
<g id="edge5_Node000005_Node000006" class="edge">
<title>Node5&#45;&gt;Node6</title>
<g id="a_edge5_Node000005_Node000006"><a xlink:title=" ">
<path fill="none" stroke="#63b8ff" d="M1457.03,-56.02C869.18,16.33 713.3,-66.65 126.25,-20 123.16,-19.75 120,-19.47 116.81,-19.15"/>
<polygon fill="#63b8ff" stroke="#63b8ff" points="1456.49,-59.48 1466.84,-57.24 1457.35,-52.53 1456.49,-59.48"/>
</a>
</g>
</g>
<!-- Node7 -->
<g id="Node000007" class="node">
<title>Node7</title>
<g id="a_Node000007"><a xlink:href="applications_2m5stack__core__s3_2apps_23d__graphics_2main_23d__graphics__demo_8cpp.html" target="_top" xlink:title=" ">
<polygon fill="white" stroke="#666666" points="251.5,-20 135,-20 135,0 251.5,0 251.5,-20"/>
<text xml:space="preserve" text-anchor="middle" x="193.25" y="-6.5" font-family="Helvetica,sans-Serif" font-size="10.00">3d_graphics_demo.cpp</text>
</a>
</g>
</g>
<!-- Node5&#45;&gt;Node7 -->
<g id="edge6_Node000005_Node000007" class="edge">
<title>Node5&#45;&gt;Node7</title>
<g id="a_edge6_Node000005_Node000007"><a xlink:title=" ">
<path fill="none" stroke="#63b8ff" d="M1456.99,-56.01C928.78,9.73 788.44,-62.7 261.25,-20 258.16,-19.75 255,-19.46 251.82,-19.14"/>
<polygon fill="#63b8ff" stroke="#63b8ff" points="1456.48,-59.47 1466.84,-57.24 1457.36,-52.52 1456.48,-59.47"/>
</a>
</g>
</g>
<!-- Node8 -->
<g id="Node000008" class="node">
<title>Node8</title>
<g id="a_Node000008"><a xlink:href="external__examples_2b00f000e_2applications_2azure__board__apps_2apps_23d__graphics_2main_23d__graphics__demo_8cpp.html" target="_top" xlink:title=" ">
<polygon fill="white" stroke="#666666" points="386.5,-20 270,-20 270,0 386.5,0 386.5,-20"/>
<text xml:space="preserve" text-anchor="middle" x="328.25" y="-6.5" font-family="Helvetica,sans-Serif" font-size="10.00">3d_graphics_demo.cpp</text>
</a>
</g>
</g>
<!-- Node5&#45;&gt;Node8 -->
<g id="edge7_Node000005_Node000008" class="edge">
<title>Node5&#45;&gt;Node8</title>
<g id="a_edge7_Node000005_Node000008"><a xlink:title=" ">
<path fill="none" stroke="#63b8ff" d="M1457.21,-56.02C988.43,3.17 863.67,-58.75 396.25,-20 393.16,-19.74 390,-19.45 386.82,-19.12"/>
<polygon fill="#63b8ff" stroke="#63b8ff" points="1456.48,-59.46 1466.84,-57.25 1457.36,-52.52 1456.48,-59.46"/>
</a>
</g>
</g>
<!-- Node9 -->
<g id="Node000009" class="node">
<title>Node9</title>
<g id="a_Node000009"><a xlink:href="external__examples_2b00f000e_2applications_2m5stack__core__s3_2apps_23d__graphics_2main_23d__graphics__demo_8cpp.html" target="_top" xlink:title=" ">
<polygon fill="white" stroke="#666666" points="521.5,-20 405,-20 405,0 521.5,0 521.5,-20"/>
<text xml:space="preserve" text-anchor="middle" x="463.25" y="-6.5" font-family="Helvetica,sans-Serif" font-size="10.00">3d_graphics_demo.cpp</text>
</a>
</g>
</g>
<!-- Node5&#45;&gt;Node9 -->
<g id="edge8_Node000005_Node000009" class="edge">
<title>Node5&#45;&gt;Node9</title>
<g id="a_edge8_Node000005_Node000009"><a xlink:title=" ">
<path fill="none" stroke="#63b8ff" d="M1457.08,-56C1048.01,-3.42 938.79,-54.8 531.25,-20 528.17,-19.74 525.01,-19.43 521.82,-19.1"/>
<polygon fill="#63b8ff" stroke="#63b8ff" points="1456.47,-59.45 1466.84,-57.26 1457.37,-52.5 1456.47,-59.45"/>
</a>
</g>
</g>
<!-- Node10 -->
<g id="Node000010" class="node">
<title>Node10</title>
<g id="a_Node000010"><a xlink:href="external__examples_2d1468452_2apps_23d__graphics_2main_23d__graphics__demo_8cpp.html" target="_top" xlink:title=" ">
<polygon fill="white" stroke="#666666" points="656.5,-20 540,-20 540,0 656.5,0 656.5,-20"/>
<text xml:space="preserve" text-anchor="middle" x="598.25" y="-6.5" font-family="Helvetica,sans-Serif" font-size="10.00">3d_graphics_demo.cpp</text>
</a>
</g>
</g>
<!-- Node5&#45;&gt;Node10 -->
<g id="edge9_Node000005_Node000010" class="edge">
<title>Node5&#45;&gt;Node10</title>
<g id="a_edge9_Node000005_Node000010"><a xlink:title=" ">
<path fill="none" stroke="#63b8ff" d="M1457.13,-55.99C1107.62,-9.97 1013.99,-50.85 666.25,-20 663.17,-19.73 660.01,-19.42 656.82,-19.08"/>
<polygon fill="#63b8ff" stroke="#63b8ff" points="1456.46,-59.43 1466.84,-57.28 1457.39,-52.49 1456.46,-59.43"/>
</a>
</g>
</g>
<!-- Node11 -->
<g id="Node000011" class="node">
<title>Node11</title>
<g id="a_Node000011"><a xlink:href="external__examples_2f9c2d4b3_2azure__board__apps_2apps_23d__graphics_2main_23d__graphics__demo_8cpp.html" target="_top" xlink:title=" ">
<polygon fill="white" stroke="#666666" points="791.5,-20 675,-20 675,0 791.5,0 791.5,-20"/>
<text xml:space="preserve" text-anchor="middle" x="733.25" y="-6.5" font-family="Helvetica,sans-Serif" font-size="10.00">3d_graphics_demo.cpp</text>
</a>
</g>
</g>
<!-- Node5&#45;&gt;Node11 -->
<g id="edge10_Node000005_Node000011" class="edge">
<title>Node5&#45;&gt;Node11</title>
<g id="a_edge10_Node000005_Node000011"><a xlink:title=" ">
<path fill="none" stroke="#63b8ff" d="M1457.03,-55.95C1166.74,-16.47 1088.57,-47.2 800.25,-20 797.45,-19.74 794.58,-19.44 791.68,-19.13"/>
<polygon fill="#63b8ff" stroke="#63b8ff" points="1456.45,-59.4 1466.84,-57.3 1457.41,-52.47 1456.45,-59.4"/>
</a>
</g>
</g>
<!-- Node12 -->
<g id="Node000012" class="node">
<title>Node12</title>
<g id="a_Node000012"><a xlink:href="applications_2m5stack__core__s3_2apps_2kalman__filter_2main_23d__kalman__demo_8cpp.html" target="_top" xlink:title=" ">
<polygon fill="white" stroke="#666666" points="920.88,-20 809.62,-20 809.62,0 920.88,0 920.88,-20"/>
<text xml:space="preserve" text-anchor="middle" x="865.25" y="-6.5" font-family="Helvetica,sans-Serif" font-size="10.00">3d_kalman_demo.cpp</text>
</a>
</g>
</g>
<!-- Node5&#45;&gt;Node12 -->
<g id="edge11_Node000005_Node000012" class="edge">
<title>Node5&#45;&gt;Node12</title>
<g id="a_edge11_Node000005_Node000012"><a xlink:title=" ">
<path fill="none" stroke="#63b8ff" d="M1457.08,-55.93C1223.65,-22.68 1160.41,-44.07 929.25,-20 926.57,-19.72 923.83,-19.42 921.07,-19.09"/>
<polygon fill="#63b8ff" stroke="#63b8ff" points="1456.43,-59.37 1466.83,-57.33 1457.43,-52.44 1456.43,-59.37"/>
</a>
</g>
</g>
<!-- Node13 -->
<g id="Node000013" class="node">
<title>Node13</title>
<g id="a_Node000013"><a xlink:href="external__examples_2b00f000e_2applications_2m5stack__core__s3_2apps_2kalman__filter_2main_23d__kalman__demo_8cpp.html" target="_top" xlink:title=" ">
<polygon fill="white" stroke="#666666" points="1049.88,-20 938.62,-20 938.62,0 1049.88,0 1049.88,-20"/>
<text xml:space="preserve" text-anchor="middle" x="994.25" y="-6.5" font-family="Helvetica,sans-Serif" font-size="10.00">3d_kalman_demo.cpp</text>
</a>
</g>
</g>
<!-- Node5&#45;&gt;Node13 -->
<g id="edge12_Node000005_Node000013" class="edge">
<title>Node5&#45;&gt;Node13</title>
<g id="a_edge12_Node000005_Node000013"><a xlink:title=" ">
<path fill="none" stroke="#63b8ff" d="M1457.08,-55.87C1280.95,-28.82 1232.96,-39.83 1059.25,-20 1056.31,-19.66 1053.29,-19.3 1050.25,-18.93"/>
<polygon fill="#63b8ff" stroke="#63b8ff" points="1456.4,-59.3 1466.82,-57.39 1457.48,-52.39 1456.4,-59.3"/>
</a>
</g>
</g>
<!-- Node14 -->
<g id="Node000014" class="node">
<title>Node14</title>
<g id="a_Node000014"><a xlink:href="applications_2lyrat__board__app_2main_2audio__amp__main_8c.html" target="_top" xlink:title=" ">
<polygon fill="white" stroke="#666666" points="1166.12,-20 1068.38,-20 1068.38,0 1166.12,0 1166.12,-20"/>
<text xml:space="preserve" text-anchor="middle" x="1117.25" y="-6.5" font-family="Helvetica,sans-Serif" font-size="10.00">audio_amp_main.c</text>
</a>
</g>
</g>
<!-- Node5&#45;&gt;Node14 -->
<g id="edge13_Node000005_Node000014" class="edge">
<title>Node5&#45;&gt;Node14</title>
<g id="a_edge13_Node000005_Node000014"><a xlink:title=" ">
<path fill="none" stroke="#63b8ff" d="M1457.12,-55.78C1332.01,-34.21 1297.67,-37.25 1175.25,-20 1172.42,-19.6 1169.52,-19.18 1166.6,-18.75"/>
<polygon fill="#63b8ff" stroke="#63b8ff" points="1456.36,-59.2 1466.81,-57.47 1457.56,-52.3 1456.36,-59.2"/>
</a>
</g>
</g>
<!-- Node15 -->
<g id="Node000015" class="node">
<title>Node15</title>
<g id="a_Node000015"><a xlink:href="external__examples_21fa4e38f_2lyrat__board__app_2main_2audio__amp__main_8c.html" target="_top" xlink:title=" ">
<polygon fill="white" stroke="#666666" points="1282.12,-20 1184.38,-20 1184.38,0 1282.12,0 1282.12,-20"/>
<text xml:space="preserve" text-anchor="middle" x="1233.25" y="-6.5" font-family="Helvetica,sans-Serif" font-size="10.00">audio_amp_main.c</text>
</a>
</g>
</g>
<!-- Node5&#45;&gt;Node15 -->
<g id="edge14_Node000005_Node000015" class="edge">
<title>Node5&#45;&gt;Node15</title>
<g id="a_edge14_Node000005_Node000015"><a xlink:title=" ">
<path fill="none" stroke="#63b8ff" d="M1457.2,-55.61C1391.05,-41.65 1325.67,-28.8 1282.26,-20.39"/>
<polygon fill="#63b8ff" stroke="#63b8ff" points="1456.27,-58.99 1466.78,-57.63 1457.72,-52.14 1456.27,-58.99"/>
</a>
</g>
</g>
<!-- Node16 -->
<g id="Node000016" class="node">
<title>Node16</title>
<g id="a_Node000016"><a xlink:href="external__examples_2b00f000e_2applications_2lyrat__board__app_2main_2audio__amp__main_8c.html" target="_top" xlink:title=" ">
<polygon fill="white" stroke="#666666" points="1398.12,-20 1300.38,-20 1300.38,0 1398.12,0 1398.12,-20"/>
<text xml:space="preserve" text-anchor="middle" x="1349.25" y="-6.5" font-family="Helvetica,sans-Serif" font-size="10.00">audio_amp_main.c</text>
</a>
</g>
</g>
<!-- Node5&#45;&gt;Node16 -->
<g id="edge15_Node000005_Node000016" class="edge">
<title>Node5&#45;&gt;Node16</title>
<g id="a_edge15_Node000005_Node000016"><a xlink:title=" ">
<path fill="none" stroke="#63b8ff" d="M1462.56,-51.79C1435.63,-42.1 1399.7,-29.16 1375.58,-20.48"/>
<polygon fill="#63b8ff" stroke="#63b8ff" points="1461.1,-54.99 1471.7,-55.08 1463.47,-48.4 1461.1,-54.99"/>
</a>
</g>
</g>
<!-- Node17 -->
<g id="Node000017" class="node">
<title>Node17</title>
<g id="a_Node000017"><a xlink:href="dsp__tests_8h.html" target="_top" xlink:title=" ">
<polygon fill="#fff0f0" stroke="red" points="1482.75,-20 1415.75,-20 1415.75,0 1482.75,0 1482.75,-20"/>
<text xml:space="preserve" text-anchor="middle" x="1449.25" y="-6.5" font-family="Helvetica,sans-Serif" font-size="10.00">dsp_tests.h</text>
</a>
</g>
</g>
<!-- Node5&#45;&gt;Node17 -->
<g id="edge16_Node000005_Node000017" class="edge">
<title>Node5&#45;&gt;Node17</title>
<g id="a_edge16_Node000005_Node000017"><a xlink:title=" ">
<path fill="none" stroke="#63b8ff" d="M1482.85,-47.29C1474.51,-38.28 1464.71,-27.7 1457.86,-20.3"/>
<polygon fill="#63b8ff" stroke="#63b8ff" points="1480.15,-49.52 1489.51,-54.48 1485.29,-44.77 1480.15,-49.52"/>
</a>
</g>
</g>
<!-- Node24 -->
<g id="Node000024" class="node">
<title>Node24</title>
<g id="a_Node000024"><a xlink:href="applications_2azure__board__apps_2graphics_23d__matrix_23d__matrix__src_2graphics__support_8h.html" target="_top" xlink:title=" ">
<polygon fill="#fff0f0" stroke="red" points="1599.5,-20 1501,-20 1501,0 1599.5,0 1599.5,-20"/>
<text xml:space="preserve" text-anchor="middle" x="1550.25" y="-6.5" font-family="Helvetica,sans-Serif" font-size="10.00">graphics_support.h</text>
</a>
</g>
</g>
<!-- Node5&#45;&gt;Node24 -->
<g id="edge17_Node000005_Node000024" class="edge">
<title>Node5&#45;&gt;Node24</title>
<g id="a_edge17_Node000005_Node000024"><a xlink:title=" ">
<path fill="none" stroke="#63b8ff" d="M1515.98,-47.29C1524.49,-38.28 1534.48,-27.7 1541.47,-20.3"/>
<polygon fill="#63b8ff" stroke="#63b8ff" points="1513.49,-44.82 1509.17,-54.49 1518.58,-49.63 1513.49,-44.82"/>
</a>
</g>
</g>
<!-- Node26 -->
<g id="Node000026" class="node">
<title>Node26</title>
<g id="a_Node000026"><a xlink:href="external__examples_2b00f000e_2applications_2azure__board__apps_2graphics_23d__matrix_23d__matrix__src_2graphics__support_8h.html" target="_top" xlink:title=" ">
<polygon fill="#fff0f0" stroke="red" points="1716.5,-20 1618,-20 1618,0 1716.5,0 1716.5,-20"/>
<text xml:space="preserve" text-anchor="middle" x="1667.25" y="-6.5" font-family="Helvetica,sans-Serif" font-size="10.00">graphics_support.h</text>
</a>
</g>
</g>
<!-- Node5&#45;&gt;Node26 -->
<g id="edge18_Node000005_Node000026" class="edge">
<title>Node5&#45;&gt;Node26</title>
<g id="a_edge18_Node000005_Node000026"><a xlink:title=" ">
<path fill="none" stroke="#63b8ff" d="M1539.14,-52.18C1569.43,-42.44 1610.39,-29.28 1637.76,-20.48"/>
<polygon fill="#63b8ff" stroke="#63b8ff" points="1538.4,-48.74 1529.95,-55.13 1540.55,-55.4 1538.4,-48.74"/>
</a>
</g>
</g>
<!-- Node28 -->
<g id="Node000028" class="node">
<title>Node28</title>
<g id="a_Node000028"><a xlink:href="external__examples_2f9c2d4b3_2azure__board__apps_2graphics_23d__matrix_23d__matrix__src_2graphics__support_8h.html" target="_top" xlink:title=" ">
<polygon fill="#fff0f0" stroke="red" points="1833.5,-20 1735,-20 1735,0 1833.5,0 1833.5,-20"/>
<text xml:space="preserve" text-anchor="middle" x="1784.25" y="-6.5" font-family="Helvetica,sans-Serif" font-size="10.00">graphics_support.h</text>
</a>
</g>
</g>
<!-- Node5&#45;&gt;Node28 -->
<g id="edge19_Node000005_Node000028" class="edge">
<title>Node5&#45;&gt;Node28</title>
<g id="a_edge19_Node000005_Node000028"><a xlink:title=" ">
<path fill="none" stroke="#63b8ff" d="M1541.05,-55.49C1613.69,-40.62 1687.3,-27.54 1734.65,-19.39"/>
<polygon fill="#63b8ff" stroke="#63b8ff" points="1540.45,-52.04 1531.36,-57.49 1541.86,-58.9 1540.45,-52.04"/>
</a>
</g>
</g>
<!-- Node30 -->
<g id="Node000030" class="node">
<title>Node30</title>
<g id="a_Node000030"><a xlink:href="applications_2m5stack__core__s3_2apps_23d__graphics_2main_2init__display_8c.html" target="_top" xlink:title=" ">
<polygon fill="white" stroke="#666666" points="1923.38,-20 1851.12,-20 1851.12,0 1923.38,0 1923.38,-20"/>
<text xml:space="preserve" text-anchor="middle" x="1887.25" y="-6.5" font-family="Helvetica,sans-Serif" font-size="10.00">init_display.c</text>
</a>
</g>
</g>
<!-- Node5&#45;&gt;Node30 -->
<g id="edge20_Node000005_Node000030" class="edge">
<title>Node5&#45;&gt;Node30</title>
<g id="a_edge20_Node000005_Node000030"><a xlink:title=" ">
<path fill="none" stroke="#63b8ff" d="M1540.89,-55.7C1674.24,-33.11 1711.42,-40.8 1842.25,-20 1845.08,-19.55 1848.01,-19.05 1850.95,-18.52"/>
<polygon fill="#63b8ff" stroke="#63b8ff" points="1540.59,-52.2 1531.33,-57.35 1541.78,-59.1 1540.59,-52.2"/>
</a>
</g>
</g>
<!-- Node31 -->
<g id="Node000031" class="node">
<title>Node31</title>
<g id="a_Node000031"><a xlink:href="external__examples_2b00f000e_2applications_2m5stack__core__s3_2apps_23d__graphics_2main_2init__display_8c.html" target="_top" xlink:title=" ">
<polygon fill="white" stroke="#666666" points="2013.38,-20 1941.12,-20 1941.12,0 2013.38,0 2013.38,-20"/>
<text xml:space="preserve" text-anchor="middle" x="1977.25" y="-6.5" font-family="Helvetica,sans-Serif" font-size="10.00">init_display.c</text>
</a>
</g>
</g>
<!-- Node5&#45;&gt;Node31 -->
<g id="edge21_Node000005_Node000031" class="edge">
<title>Node5&#45;&gt;Node31</title>
<g id="a_edge21_Node000005_Node000031"><a xlink:title=" ">
<path fill="none" stroke="#63b8ff" d="M1541.12,-55.74C1713.88,-28.87 1761.89,-44.75 1932.25,-20 1935.09,-19.59 1938.02,-19.11 1940.96,-18.6"/>
<polygon fill="#63b8ff" stroke="#63b8ff" points="1540.65,-52.27 1531.32,-57.29 1541.75,-59.19 1540.65,-52.27"/>
</a>
</g>
</g>
<!-- Node32 -->
<g id="Node000032" class="node">
<title>Node32</title>
<g id="a_Node000032"><a xlink:href="applications_2azure__board__apps_2apps_2kalman__filter_2main_2kalman__filter__demo_8cpp.html" target="_top" xlink:title=" ">
<polygon fill="white" stroke="#666666" points="2151,-20 2031.5,-20 2031.5,0 2151,0 2151,-20"/>
<text xml:space="preserve" text-anchor="middle" x="2091.25" y="-6.5" font-family="Helvetica,sans-Serif" font-size="10.00">kalman_filter_demo.cpp</text>
</a>
</g>
</g>
<!-- Node5&#45;&gt;Node32 -->
<g id="edge22_Node000005_Node000032" class="edge">
<title>Node5&#45;&gt;Node32</title>
<g id="a_edge22_Node000005_Node000032"><a xlink:title=" ">
<path fill="none" stroke="#63b8ff" d="M1541.45,-55.71C1753.48,-24.27 1811.33,-41.58 2022.25,-20 2025.13,-19.7 2028.08,-19.39 2031.06,-19.05"/>
<polygon fill="#63b8ff" stroke="#63b8ff" points="1541.11,-52.22 1531.74,-57.17 1542.15,-59.15 1541.11,-52.22"/>
</a>
</g>
</g>
<!-- Node33 -->
<g id="Node000033" class="node">
<title>Node33</title>
<g id="a_Node000033"><a xlink:href="external__examples_2b00f000e_2applications_2azure__board__apps_2apps_2kalman__filter_2main_2kalman__filter__demo_8cpp.html" target="_top" xlink:title=" ">
<polygon fill="white" stroke="#666666" points="2289,-20 2169.5,-20 2169.5,0 2289,0 2289,-20"/>
<text xml:space="preserve" text-anchor="middle" x="2229.25" y="-6.5" font-family="Helvetica,sans-Serif" font-size="10.00">kalman_filter_demo.cpp</text>
</a>
</g>
</g>
<!-- Node5&#45;&gt;Node33 -->
<g id="edge23_Node000005_Node000033" class="edge">
<title>Node5&#45;&gt;Node33</title>
<g id="a_edge23_Node000005_Node000033"><a xlink:title=" ">
<path fill="none" stroke="#63b8ff" d="M1541.29,-55.78C1814.3,-17.49 1888.19,-45.58 2160.25,-20 2163.14,-19.73 2166.09,-19.43 2169.07,-19.11"/>
<polygon fill="#63b8ff" stroke="#63b8ff" points="1541.15,-52.27 1531.74,-57.14 1542.13,-59.2 1541.15,-52.27"/>
</a>
</g>
</g>
<!-- Node34 -->
<g id="Node000034" class="node">
<title>Node34</title>
<g id="a_Node000034"><a xlink:href="external__examples_2d1468452_2apps_2kalman__filter_2main_2kalman__filter__demo_8cpp.html" target="_top" xlink:title=" ">
<polygon fill="white" stroke="#666666" points="2427,-20 2307.5,-20 2307.5,0 2427,0 2427,-20"/>
<text xml:space="preserve" text-anchor="middle" x="2367.25" y="-6.5" font-family="Helvetica,sans-Serif" font-size="10.00">kalman_filter_demo.cpp</text>
</a>
</g>
</g>
<!-- Node5&#45;&gt;Node34 -->
<g id="edge24_Node000005_Node000034" class="edge">
<title>Node5&#45;&gt;Node34</title>
<g id="a_edge24_Node000005_Node000034"><a xlink:title=" ">
<path fill="none" stroke="#63b8ff" d="M1541.2,-55.82C1875.16,-10.65 1965.04,-49.57 2298.25,-20 2301.14,-19.74 2304.09,-19.46 2307.07,-19.15"/>
<polygon fill="#63b8ff" stroke="#63b8ff" points="1541.17,-52.29 1531.74,-57.12 1542.12,-59.23 1541.17,-52.29"/>
</a>
</g>
</g>
<!-- Node35 -->
<g id="Node000035" class="node">
<title>Node35</title>
<g id="a_Node000035"><a xlink:href="external__examples_2f9c2d4b3_2azure__board__apps_2apps_2kalman__filter_2main_2kalman__filter__demo_8cpp.html" target="_top" xlink:title=" ">
<polygon fill="white" stroke="#666666" points="2565,-20 2445.5,-20 2445.5,0 2565,0 2565,-20"/>
<text xml:space="preserve" text-anchor="middle" x="2505.25" y="-6.5" font-family="Helvetica,sans-Serif" font-size="10.00">kalman_filter_demo.cpp</text>
</a>
</g>
</g>
<!-- Node5&#45;&gt;Node35 -->
<g id="edge25_Node000005_Node000035" class="edge">
<title>Node5&#45;&gt;Node35</title>
<g id="a_edge25_Node000005_Node000035"><a xlink:title=" ">
<path fill="none" stroke="#63b8ff" d="M1541.4,-55.81C1936.09,-3.8 2041.95,-53.55 2436.25,-20 2439.14,-19.75 2442.09,-19.48 2445.07,-19.17"/>
<polygon fill="#63b8ff" stroke="#63b8ff" points="1541.18,-52.31 1531.73,-57.1 1542.11,-59.25 1541.18,-52.31"/>
</a>
</g>
</g>
<!-- Node36 -->
<g id="Node000036" class="node">
<title>Node36</title>
<g id="a_Node000036"><a xlink:href="main_2main_8c.html" target="_top" xlink:title=" ">
<polygon fill="white" stroke="#666666" points="2627.88,-20 2582.62,-20 2582.62,0 2627.88,0 2627.88,-20"/>
<text xml:space="preserve" text-anchor="middle" x="2605.25" y="-6.5" font-family="Helvetica,sans-Serif" font-size="10.00">main.c</text>
</a>
</g>
</g>
<!-- Node5&#45;&gt;Node36 -->
<g id="edge26_Node000005_Node000036" class="edge">
<title>Node5&#45;&gt;Node36</title>
<g id="a_edge26_Node000005_Node000036"><a xlink:title=" ">
<path fill="none" stroke="#63b8ff" d="M1541.4,-55.83C1997.06,2.53 2122.98,-92.2 2574.25,-20 2576.91,-19.58 2579.66,-18.99 2582.37,-18.33"/>
<polygon fill="#63b8ff" stroke="#63b8ff" points="1541.2,-52.33 1531.73,-57.09 1542.1,-59.27 1541.2,-52.33"/>
</a>
</g>
</g>
<!-- Node37 -->
<g id="Node000037" class="node">
<title>Node37</title>
<g id="a_Node000037"><a xlink:href="components_2espressif____esp-dsp_2applications_2spectrum__box__lite_2main_2main_8c.html" target="_top" xlink:title=" ">
<polygon fill="white" stroke="#666666" points="2690.88,-20 2645.62,-20 2645.62,0 2690.88,0 2690.88,-20"/>
<text xml:space="preserve" text-anchor="middle" x="2668.25" y="-6.5" font-family="Helvetica,sans-Serif" font-size="10.00">main.c</text>
</a>
</g>
</g>
<!-- Node5&#45;&gt;Node37 -->
<g id="edge27_Node000005_Node000037" class="edge">
<title>Node5&#45;&gt;Node37</title>
<g id="a_edge27_Node000005_Node000037"><a xlink:title=" ">
<path fill="none" stroke="#63b8ff" d="M1541.35,-55.84C2024.86,5.68 2158.26,-96.15 2637.25,-20 2639.91,-19.58 2642.66,-19 2645.37,-18.33"/>
<polygon fill="#63b8ff" stroke="#63b8ff" points="1541.2,-52.33 1531.73,-57.09 1542.1,-59.28 1541.2,-52.33"/>
</a>
</g>
</g>
<!-- Node38 -->
<g id="Node000038" class="node">
<title>Node38</title>
<g id="a_Node000038"><a xlink:href="components_2espressif____esp-dsp_2external__examples_2b00f000e_2applications_2spectrum__box__lite_2main_2main_8c.html" target="_top" xlink:title=" ">
<polygon fill="white" stroke="#666666" points="2753.88,-20 2708.62,-20 2708.62,0 2753.88,0 2753.88,-20"/>
<text xml:space="preserve" text-anchor="middle" x="2731.25" y="-6.5" font-family="Helvetica,sans-Serif" font-size="10.00">main.c</text>
</a>
</g>
</g>
<!-- Node5&#45;&gt;Node38 -->
<g id="edge28_Node000005_Node000038" class="edge">
<title>Node5&#45;&gt;Node38</title>
<g id="a_edge28_Node000005_Node000038"><a xlink:title=" ">
<path fill="none" stroke="#63b8ff" d="M1541.6,-55.82C2052.72,8.79 2193.63,-100.08 2700.25,-20 2702.91,-19.58 2705.66,-19 2708.37,-18.34"/>
<polygon fill="#63b8ff" stroke="#63b8ff" points="1541.21,-52.34 1531.73,-57.08 1542.1,-59.28 1541.21,-52.34"/>
</a>
</g>
</g>
</g>
</svg>
