<?xml version="1.0" encoding="UTF-8" standalone="no"?>
<!DOCTYPE svg PUBLIC "-//W3C//DTD SVG 1.1//EN"
 "http://www.w3.org/Graphics/SVG/1.1/DTD/svg11.dtd">
<!-- Generated by graphviz version 14.1.2 (20260124.0452)
 -->
<!-- Title: dsps_sfdr_f32.cpp Pages: 1 -->
<svg width="655pt" height="252pt"
 viewBox="0.00 0.00 655.00 252.00" xmlns="http://www.w3.org/2000/svg" xmlns:xlink="http://www.w3.org/1999/xlink">
<g id="graph0" class="graph" transform="scale(1 1) rotate(0) translate(4 248)">
<title>dsps_sfdr_f32.cpp</title>
<!-- Node1 -->
<g id="Node000001" class="node">
<title>Node1</title>
<g id="a_Node000001"><a xlink:title=" ">
<polygon fill="#999999" stroke="#666666" points="511.84,-244 415.59,-244 415.59,-224 511.84,-224 511.84,-244"/>
<text xml:space="preserve" text-anchor="middle" x="463.71" y="-230.5" font-family="Helvetica,sans-Serif" font-size="10.00">dsps_sfdr_f32.cpp</text>
</a>
</g>
</g>
<!-- Node2 -->
<g id="Node000002" class="node">
<title>Node2</title>
<g id="a_Node000002"><a xlink:href="dsps__sfdr_8h.html" target="_top" xlink:title=" ">
<polygon fill="white" stroke="#666666" points="327.21,-188 260.21,-188 260.21,-168 327.21,-168 327.21,-188"/>
<text xml:space="preserve" text-anchor="middle" x="293.71" y="-174.5" font-family="Helvetica,sans-Serif" font-size="10.00">dsps_sfdr.h</text>
</a>
</g>
</g>
<!-- Node1&#45;&gt;Node2 -->
<g id="edge1_Node000001_Node000002" class="edge">
<title>Node1&#45;&gt;Node2</title>
<g id="a_edge1_Node000001_Node000002"><a xlink:title=" ">
<path fill="none" stroke="#63b8ff" d="M434.1,-223.59C406.48,-214.82 365.04,-201.66 334.34,-191.9"/>
<polygon fill="#63b8ff" stroke="#63b8ff" points="335.59,-188.63 325,-188.94 333.47,-195.3 335.59,-188.63"/>
</a>
</g>
</g>
<!-- Node8 -->
<g id="Node000008" class="node">
<title>Node8</title>
<g id="a_Node000008"><a xlink:href="dsps__fft2r_8h.html" target="_top" xlink:title=" ">
<polygon fill="white" stroke="#666666" points="209.21,-188 142.21,-188 142.21,-168 209.21,-168 209.21,-188"/>
<text xml:space="preserve" text-anchor="middle" x="175.71" y="-174.5" font-family="Helvetica,sans-Serif" font-size="10.00">dsps_fft2r.h</text>
</a>
</g>
</g>
<!-- Node1&#45;&gt;Node8 -->
<g id="edge7_Node000001_Node000008" class="edge">
<title>Node1&#45;&gt;Node8</title>
<g id="a_edge7_Node000001_Node000008"><a xlink:title=" ">
<path fill="none" stroke="#63b8ff" d="M415.19,-223.9C360.82,-213.71 273.42,-197.32 220.59,-187.41"/>
<polygon fill="#63b8ff" stroke="#63b8ff" points="221.51,-184.03 211.04,-185.62 220.22,-190.91 221.51,-184.03"/>
</a>
</g>
</g>
<!-- Node12 -->
<g id="Node000012" class="node">
<title>Node12</title>
<g id="a_Node000012"><a xlink:href="dsp__common_8h.html" target="_top" xlink:title=" ">
<polygon fill="white" stroke="#666666" points="464.09,-188 381.34,-188 381.34,-168 464.09,-168 464.09,-188"/>
<text xml:space="preserve" text-anchor="middle" x="422.71" y="-174.5" font-family="Helvetica,sans-Serif" font-size="10.00">dsp_common.h</text>
</a>
</g>
</g>
<!-- Node1&#45;&gt;Node12 -->
<g id="edge13_Node000001_Node000012" class="edge">
<title>Node1&#45;&gt;Node12</title>
<g id="a_edge13_Node000001_Node000012"><a xlink:title=" ">
<path fill="none" stroke="#63b8ff" d="M456.57,-223.59C451.11,-216.39 443.39,-206.23 436.71,-197.43"/>
<polygon fill="#63b8ff" stroke="#63b8ff" points="439.52,-195.35 430.69,-189.5 433.95,-199.58 439.52,-195.35"/>
</a>
</g>
</g>
<!-- Node16 -->
<g id="Node000016" class="node">
<title>Node16</title>
<g id="a_Node000016"><a xlink:title=" ">
<polygon fill="#e0e0e0" stroke="#999999" points="527.71,-188 481.71,-188 481.71,-168 527.71,-168 527.71,-188"/>
<text xml:space="preserve" text-anchor="middle" x="504.71" y="-174.5" font-family="Helvetica,sans-Serif" font-size="10.00">math.h</text>
</a>
</g>
</g>
<!-- Node1&#45;&gt;Node16 -->
<g id="edge19_Node000001_Node000016" class="edge">
<title>Node1&#45;&gt;Node16</title>
<g id="a_edge19_Node000001_Node000016"><a xlink:title=" ">
<path fill="none" stroke="#63b8ff" d="M470.86,-223.59C476.32,-216.39 484.04,-206.23 490.72,-197.43"/>
<polygon fill="#63b8ff" stroke="#63b8ff" points="493.48,-199.58 496.74,-189.5 487.9,-195.35 493.48,-199.58"/>
</a>
</g>
</g>
<!-- Node17 -->
<g id="Node000017" class="node">
<title>Node17</title>
<g id="a_Node000017"><a xlink:title=" ">
<polygon fill="#e0e0e0" stroke="#999999" points="585.34,-188 546.09,-188 546.09,-168 585.34,-168 585.34,-188"/>
<text xml:space="preserve" text-anchor="middle" x="565.71" y="-174.5" font-family="Helvetica,sans-Serif" font-size="10.00">limits</text>
</a>
</g>
</g>
<!-- Node1&#45;&gt;Node17 -->
<g id="edge20_Node000001_Node000017" class="edge">
<title>Node1&#45;&gt;Node17</title>
<g id="a_edge20_Node000001_Node000017"><a xlink:title=" ">
<path fill="none" stroke="#63b8ff" d="M481.48,-223.59C497.04,-215.36 519.9,-203.26 537.88,-193.74"/>
<polygon fill="#63b8ff" stroke="#63b8ff" points="539.27,-196.96 546.47,-189.19 536,-190.77 539.27,-196.96"/>
</a>
</g>
</g>
<!-- Node18 -->
<g id="Node000018" class="node">
<title>Node18</title>
<g id="a_Node000018"><a xlink:href="esp__log_8h.html" target="_top" xlink:title=" ">
<polygon fill="white" stroke="#666666" points="646.71,-76 588.71,-76 588.71,-56 646.71,-56 646.71,-76"/>
<text xml:space="preserve" text-anchor="middle" x="617.71" y="-62.5" font-family="Helvetica,sans-Serif" font-size="10.00">esp_log.h</text>
</a>
</g>
</g>
<!-- Node1&#45;&gt;Node18 -->
<g id="edge21_Node000001_Node000018" class="edge">
<title>Node1&#45;&gt;Node18</title>
<g id="a_edge21_Node000001_Node000018"><a xlink:title=" ">
<path fill="none" stroke="#63b8ff" d="M512.16,-228.32C540.27,-223.04 574.09,-211.81 594.71,-188 619.14,-159.8 620.96,-113.85 619.64,-87.43"/>
<polygon fill="#63b8ff" stroke="#63b8ff" points="623.14,-87.42 618.93,-77.7 616.16,-87.93 623.14,-87.42"/>
</a>
</g>
</g>
<!-- Node3 -->
<g id="Node000003" class="node">
<title>Node3</title>
<g id="a_Node000003"><a xlink:href="dsp__err_8h.html" target="_top" xlink:title=" ">
<polygon fill="white" stroke="#666666" points="303.96,-132 247.46,-132 247.46,-112 303.96,-112 303.96,-132"/>
<text xml:space="preserve" text-anchor="middle" x="275.71" y="-118.5" font-family="Helvetica,sans-Serif" font-size="10.00">dsp_err.h</text>
</a>
</g>
</g>
<!-- Node2&#45;&gt;Node3 -->
<g id="edge2_Node000002_Node000003" class="edge">
<title>Node2&#45;&gt;Node3</title>
<g id="a_edge2_Node000002_Node000003"><a xlink:title=" ">
<path fill="none" stroke="#63b8ff" d="M290.58,-167.59C288.33,-160.86 285.23,-151.53 282.43,-143.15"/>
<polygon fill="#63b8ff" stroke="#63b8ff" points="285.78,-142.11 279.29,-133.73 279.13,-144.33 285.78,-142.11"/>
</a>
</g>
</g>
<!-- Node4 -->
<g id="Node000004" class="node">
<title>Node4</title>
<g id="a_Node000004"><a xlink:title=" ">
<polygon fill="#e0e0e0" stroke="#999999" points="554.84,-76 506.59,-76 506.59,-56 554.84,-56 554.84,-76"/>
<text xml:space="preserve" text-anchor="middle" x="530.71" y="-62.5" font-family="Helvetica,sans-Serif" font-size="10.00">stdint.h</text>
</a>
</g>
</g>
<!-- Node3&#45;&gt;Node4 -->
<g id="edge3_Node000003_Node000004" class="edge">
<title>Node3&#45;&gt;Node4</title>
<g id="a_edge3_Node000003_Node000004"><a xlink:title=" ">
<path fill="none" stroke="#63b8ff" d="M304.37,-113.92C307.19,-113.26 310.01,-112.61 312.71,-112 376.78,-97.6 451.84,-82.49 495.08,-73.96"/>
<polygon fill="#63b8ff" stroke="#63b8ff" points="495.51,-77.44 504.65,-72.07 494.16,-70.57 495.51,-77.44"/>
</a>
</g>
</g>
<!-- Node5 -->
<g id="Node000005" class="node">
<title>Node5</title>
<g id="a_Node000005"><a xlink:href="esp__err_8h.html" target="_top" xlink:title=" ">
<polygon fill="white" stroke="#666666" points="456.96,-76 400.46,-76 400.46,-56 456.96,-56 456.96,-76"/>
<text xml:space="preserve" text-anchor="middle" x="428.71" y="-62.5" font-family="Helvetica,sans-Serif" font-size="10.00">esp_err.h</text>
</a>
</g>
</g>
<!-- Node3&#45;&gt;Node5 -->
<g id="edge4_Node000003_Node000005" class="edge">
<title>Node3&#45;&gt;Node5</title>
<g id="a_edge4_Node000003_Node000005"><a xlink:title=" ">
<path fill="none" stroke="#63b8ff" d="M302.37,-111.59C326.9,-102.94 363.54,-90 391.06,-80.29"/>
<polygon fill="#63b8ff" stroke="#63b8ff" points="392.16,-83.61 400.43,-76.98 389.83,-77.01 392.16,-83.61"/>
</a>
</g>
</g>
<!-- Node7 -->
<g id="Node000007" class="node">
<title>Node7</title>
<g id="a_Node000007"><a xlink:href="dsp__err__codes_8h.html" target="_top" xlink:title=" ">
<polygon fill="white" stroke="#666666" points="319.71,-76 231.71,-76 231.71,-56 319.71,-56 319.71,-76"/>
<text xml:space="preserve" text-anchor="middle" x="275.71" y="-62.5" font-family="Helvetica,sans-Serif" font-size="10.00">dsp_err_codes.h</text>
</a>
</g>
</g>
<!-- Node3&#45;&gt;Node7 -->
<g id="edge6_Node000003_Node000007" class="edge">
<title>Node3&#45;&gt;Node7</title>
<g id="a_edge6_Node000003_Node000007"><a xlink:title=" ">
<path fill="none" stroke="#63b8ff" d="M275.71,-111.59C275.71,-105.01 275.71,-95.96 275.71,-87.73"/>
<polygon fill="#63b8ff" stroke="#63b8ff" points="279.21,-87.81 275.71,-77.81 272.21,-87.81 279.21,-87.81"/>
</a>
</g>
</g>
<!-- Node6 -->
<g id="Node000006" class="node">
<title>Node6</title>
<g id="a_Node000006"><a xlink:title=" ">
<polygon fill="#e0e0e0" stroke="#999999" points="546.46,-20 498.96,-20 498.96,0 546.46,0 546.46,-20"/>
<text xml:space="preserve" text-anchor="middle" x="522.71" y="-6.5" font-family="Helvetica,sans-Serif" font-size="10.00">stdlib.h</text>
</a>
</g>
</g>
<!-- Node5&#45;&gt;Node6 -->
<g id="edge5_Node000005_Node000006" class="edge">
<title>Node5&#45;&gt;Node6</title>
<g id="a_edge5_Node000005_Node000006"><a xlink:title=" ">
<path fill="none" stroke="#63b8ff" d="M445.09,-55.59C459.29,-47.44 480.1,-35.48 496.59,-26"/>
<polygon fill="#63b8ff" stroke="#63b8ff" points="497.97,-29.25 504.9,-21.23 494.49,-23.18 497.97,-29.25"/>
</a>
</g>
</g>
<!-- Node8&#45;&gt;Node3 -->
<g id="edge8_Node000008_Node000003" class="edge">
<title>Node8&#45;&gt;Node3</title>
<g id="a_edge8_Node000008_Node000003"><a xlink:title=" ">
<path fill="none" stroke="#63b8ff" d="M193.13,-167.59C208.38,-159.36 230.79,-147.26 248.42,-137.74"/>
<polygon fill="#63b8ff" stroke="#63b8ff" points="249.69,-141.03 256.83,-133.2 246.37,-134.87 249.69,-141.03"/>
</a>
</g>
</g>
<!-- Node9 -->
<g id="Node000009" class="node">
<title>Node9</title>
<g id="a_Node000009"><a xlink:title=" ">
<polygon fill="#e0e0e0" stroke="#999999" points="113.84,-76 47.59,-76 47.59,-56 113.84,-56 113.84,-76"/>
<text xml:space="preserve" text-anchor="middle" x="80.71" y="-62.5" font-family="Helvetica,sans-Serif" font-size="10.00">sdkconfig.h</text>
</a>
</g>
</g>
<!-- Node8&#45;&gt;Node9 -->
<g id="edge9_Node000008_Node000009" class="edge">
<title>Node8&#45;&gt;Node9</title>
<g id="a_edge9_Node000008_Node000009"><a xlink:title=" ">
<path fill="none" stroke="#63b8ff" d="M142.03,-172.99C97.12,-166.87 21.35,-153.58 4.71,-132 -11.05,-111.55 17.16,-92.92 43.57,-80.9"/>
<polygon fill="#63b8ff" stroke="#63b8ff" points="44.69,-84.23 52.5,-77.07 41.93,-77.79 44.69,-84.23"/>
</a>
</g>
</g>
<!-- Node10 -->
<g id="Node000010" class="node">
<title>Node10</title>
<g id="a_Node000010"><a xlink:href="dsps__fft__tables_8h.html" target="_top" xlink:title=" ">
<polygon fill="white" stroke="#666666" points="103.84,-132 13.59,-132 13.59,-112 103.84,-112 103.84,-132"/>
<text xml:space="preserve" text-anchor="middle" x="58.71" y="-118.5" font-family="Helvetica,sans-Serif" font-size="10.00">dsps_fft_tables.h</text>
</a>
</g>
</g>
<!-- Node8&#45;&gt;Node10 -->
<g id="edge10_Node000008_Node000010" class="edge">
<title>Node8&#45;&gt;Node10</title>
<g id="a_edge10_Node000008_Node000010"><a xlink:title=" ">
<path fill="none" stroke="#63b8ff" d="M155.33,-167.59C137.16,-159.21 110.29,-146.8 89.49,-137.21"/>
<polygon fill="#63b8ff" stroke="#63b8ff" points="91.17,-134.13 80.63,-133.11 88.24,-140.48 91.17,-134.13"/>
</a>
</g>
</g>
<!-- Node11 -->
<g id="Node000011" class="node">
<title>Node11</title>
<g id="a_Node000011"><a xlink:href="dsps__fft2r__platform_8h.html" target="_top" xlink:title=" ">
<polygon fill="white" stroke="#666666" points="229.46,-132 121.96,-132 121.96,-112 229.46,-112 229.46,-132"/>
<text xml:space="preserve" text-anchor="middle" x="175.71" y="-118.5" font-family="Helvetica,sans-Serif" font-size="10.00">dsps_fft2r_platform.h</text>
</a>
</g>
</g>
<!-- Node8&#45;&gt;Node11 -->
<g id="edge11_Node000008_Node000011" class="edge">
<title>Node8&#45;&gt;Node11</title>
<g id="a_edge11_Node000008_Node000011"><a xlink:title=" ">
<path fill="none" stroke="#63b8ff" d="M175.71,-167.59C175.71,-161.01 175.71,-151.96 175.71,-143.73"/>
<polygon fill="#63b8ff" stroke="#63b8ff" points="179.21,-143.81 175.71,-133.81 172.21,-143.81 179.21,-143.81"/>
</a>
</g>
</g>
<!-- Node11&#45;&gt;Node9 -->
<g id="edge12_Node000011_Node000009" class="edge">
<title>Node11&#45;&gt;Node9</title>
<g id="a_edge12_Node000011_Node000009"><a xlink:title=" ">
<path fill="none" stroke="#63b8ff" d="M159.17,-111.59C144.82,-103.44 123.79,-91.48 107.11,-82"/>
<polygon fill="#63b8ff" stroke="#63b8ff" points="109.13,-79.13 98.71,-77.23 105.67,-85.21 109.13,-79.13"/>
</a>
</g>
</g>
<!-- Node12&#45;&gt;Node3 -->
<g id="edge16_Node000012_Node000003" class="edge">
<title>Node12&#45;&gt;Node3</title>
<g id="a_edge16_Node000012_Node000003"><a xlink:title=" ">
<path fill="none" stroke="#63b8ff" d="M397.11,-167.59C373.64,-158.97 338.65,-146.12 312.25,-136.42"/>
<polygon fill="#63b8ff" stroke="#63b8ff" points="313.53,-133.16 302.94,-133 311.12,-139.73 313.53,-133.16"/>
</a>
</g>
</g>
<!-- Node12&#45;&gt;Node4 -->
<g id="edge14_Node000012_Node000004" class="edge">
<title>Node12&#45;&gt;Node4</title>
<g id="a_edge14_Node000012_Node000004"><a xlink:title=" ">
<path fill="none" stroke="#63b8ff" d="M464.25,-167.56C507.46,-157.33 569.8,-141.22 576.71,-132 589.03,-115.57 571.58,-96.33 554.75,-83.07"/>
<polygon fill="#63b8ff" stroke="#63b8ff" points="557,-80.38 546.88,-77.27 552.85,-86.02 557,-80.38"/>
</a>
</g>
</g>
<!-- Node13 -->
<g id="Node000013" class="node">
<title>Node13</title>
<g id="a_Node000013"><a xlink:title=" ">
<polygon fill="#e0e0e0" stroke="#999999" points="377.59,-132 321.84,-132 321.84,-112 377.59,-112 377.59,-132"/>
<text xml:space="preserve" text-anchor="middle" x="349.71" y="-118.5" font-family="Helvetica,sans-Serif" font-size="10.00">stdbool.h</text>
</a>
</g>
</g>
<!-- Node12&#45;&gt;Node13 -->
<g id="edge15_Node000012_Node000013" class="edge">
<title>Node12&#45;&gt;Node13</title>
<g id="a_edge15_Node000012_Node000013"><a xlink:title=" ">
<path fill="none" stroke="#63b8ff" d="M410,-167.59C399.32,-159.7 383.84,-148.24 371.23,-138.92"/>
<polygon fill="#63b8ff" stroke="#63b8ff" points="373.62,-136.33 363.5,-133.2 369.46,-141.96 373.62,-136.33"/>
</a>
</g>
</g>
<!-- Node14 -->
<g id="Node000014" class="node">
<title>Node14</title>
<g id="a_Node000014"><a xlink:title=" ">
<polygon fill="#e0e0e0" stroke="#999999" points="487.96,-132 395.46,-132 395.46,-112 487.96,-112 487.96,-132"/>
<text xml:space="preserve" text-anchor="middle" x="441.71" y="-118.5" font-family="Helvetica,sans-Serif" font-size="10.00">esp_idf_version.h</text>
</a>
</g>
</g>
<!-- Node12&#45;&gt;Node14 -->
<g id="edge17_Node000012_Node000014" class="edge">
<title>Node12&#45;&gt;Node14</title>
<g id="a_edge17_Node000012_Node000014"><a xlink:title=" ">
<path fill="none" stroke="#63b8ff" d="M426.02,-167.59C428.39,-160.86 431.68,-151.53 434.62,-143.15"/>
<polygon fill="#63b8ff" stroke="#63b8ff" points="437.92,-144.32 437.94,-133.73 431.32,-142 437.92,-144.32"/>
</a>
</g>
</g>
<!-- Node15 -->
<g id="Node000015" class="node">
<title>Node15</title>
<g id="a_Node000015"><a xlink:title=" ">
<polygon fill="#e0e0e0" stroke="#999999" points="567.21,-132 506.21,-132 506.21,-112 567.21,-112 567.21,-132"/>
<text xml:space="preserve" text-anchor="middle" x="536.71" y="-118.5" font-family="Helvetica,sans-Serif" font-size="10.00">x86intrin.h</text>
</a>
</g>
</g>
<!-- Node12&#45;&gt;Node15 -->
<g id="edge18_Node000012_Node000015" class="edge">
<title>Node12&#45;&gt;Node15</title>
<g id="a_edge18_Node000012_Node000015"><a xlink:title=" ">
<path fill="none" stroke="#63b8ff" d="M442.57,-167.59C460.2,-159.24 486.22,-146.92 506.44,-137.34"/>
<polygon fill="#63b8ff" stroke="#63b8ff" points="507.8,-140.57 515.33,-133.13 504.8,-134.25 507.8,-140.57"/>
</a>
</g>
</g>
<!-- Node18&#45;&gt;Node6 -->
<g id="edge22_Node000018_Node000006" class="edge">
<title>Node18&#45;&gt;Node6</title>
<g id="a_edge22_Node000018_Node000006"><a xlink:title=" ">
<path fill="none" stroke="#63b8ff" d="M601.17,-55.59C586.82,-47.44 565.79,-35.48 549.11,-26"/>
<polygon fill="#63b8ff" stroke="#63b8ff" points="551.13,-23.13 540.71,-21.23 547.67,-29.21 551.13,-23.13"/>
</a>
</g>
</g>
</g>
</svg>
