<?xml version="1.0" encoding="UTF-8" standalone="no"?>
<!DOCTYPE svg PUBLIC "-//W3C//DTD SVG 1.1//EN"
 "http://www.w3.org/Graphics/SVG/1.1/DTD/svg11.dtd">
<!-- Generated by graphviz version 14.1.2 (20260124.0452)
 -->
<!-- Title: dsps_bit_rev_sc16_ansi Pages: 1 -->
<svg width="512pt" height="75pt"
 viewBox="0.00 0.00 512.00 75.00" xmlns="http://www.w3.org/2000/svg" xmlns:xlink="http://www.w3.org/1999/xlink">
<g id="graph0" class="graph" transform="scale(1 1) rotate(0) translate(4 71)">
<title>dsps_bit_rev_sc16_ansi</title>
<!-- Node1 -->
<g id="Node000001" class="node">
<title>Node1</title>
<g id="a_Node000001"><a xlink:title=" ">
<polygon fill="#999999" stroke="#666666" points="504.25,-48 383.25,-48 383.25,-28 504.25,-28 504.25,-48"/>
<text xml:space="preserve" text-anchor="middle" x="443.75" y="-34.5" font-family="Helvetica,sans-Serif" font-size="10.00">dsps_bit_rev_sc16_ansi</text>
</a>
</g>
</g>
<!-- Node2 -->
<g id="Node000002" class="node">
<title>Node2</title>
<g id="a_Node000002"><a xlink:href="dsps__fft2r__sc16__ansi_8c.html#a46efac911f6eeaa0e90b5ab0e98ac815" target="_top" xlink:title=" ">
<polygon fill="white" stroke="#666666" points="347.25,-48 244.25,-48 244.25,-28 347.25,-28 347.25,-48"/>
<text xml:space="preserve" text-anchor="middle" x="295.75" y="-34.5" font-family="Helvetica,sans-Serif" font-size="10.00">dsps_fft2r_init_sc16</text>
</a>
</g>
</g>
<!-- Node1&#45;&gt;Node2 -->
<g id="edge1_Node000001_Node000002" class="edge">
<title>Node1&#45;&gt;Node2</title>
<g id="a_edge1_Node000001_Node000002"><a xlink:title=" ">
<path fill="none" stroke="#63b8ff" d="M371.49,-38C363.34,-38 355.17,-38 347.37,-38"/>
<polygon fill="#63b8ff" stroke="#63b8ff" points="371.43,-41.5 381.43,-38 371.43,-34.5 371.43,-41.5"/>
</a>
</g>
</g>
<!-- Node3 -->
<g id="Node000003" class="node">
<title>Node3</title>
<g id="a_Node000003"><a xlink:href="components_2espressif____esp-dsp_2applications_2spectrum__box__lite_2main_2main_8c.html#a04947e47b733459d79baaebe3425c9dd" target="_top" xlink:title=" ">
<polygon fill="white" stroke="#666666" points="208.25,-67 94,-67 94,-47 208.25,-47 208.25,-67"/>
<text xml:space="preserve" text-anchor="middle" x="151.12" y="-53.5" font-family="Helvetica,sans-Serif" font-size="10.00">microphone_read_task</text>
</a>
</g>
</g>
<!-- Node1&#45;&gt;Node3 -->
<g id="edge5_Node000001_Node000003" class="edge">
<title>Node1&#45;&gt;Node3</title>
<g id="a_edge5_Node000001_Node000003"><a xlink:title=" ">
<path fill="none" stroke="#63b8ff" d="M388.72,-50.67C375.25,-53.29 360.79,-55.67 347.25,-57 300.73,-61.58 247.66,-61.23 208.62,-59.92"/>
<polygon fill="#63b8ff" stroke="#63b8ff" points="389.17,-54.15 398.27,-48.72 387.78,-47.29 389.17,-54.15"/>
</a>
</g>
</g>
<!-- Node5 -->
<g id="Node000005" class="node">
<title>Node5</title>
<g id="a_Node000005"><a xlink:href="components_2espressif____esp-dsp_2external__examples_2b00f000e_2applications_2spectrum__box__lite_2main_2main_8c.html#a04947e47b733459d79baaebe3425c9dd" target="_top" xlink:title=" ">
<polygon fill="white" stroke="#666666" points="208.25,-20 94,-20 94,0 208.25,0 208.25,-20"/>
<text xml:space="preserve" text-anchor="middle" x="151.12" y="-6.5" font-family="Helvetica,sans-Serif" font-size="10.00">microphone_read_task</text>
</a>
</g>
</g>
<!-- Node1&#45;&gt;Node5 -->
<g id="edge6_Node000001_Node000005" class="edge">
<title>Node1&#45;&gt;Node5</title>
<g id="a_edge6_Node000001_Node000005"><a xlink:title=" ">
<path fill="none" stroke="#63b8ff" d="M386.32,-25.31C373.53,-22.85 359.97,-20.55 347.25,-19 300.8,-13.34 247.72,-11.17 208.67,-10.37"/>
<polygon fill="#63b8ff" stroke="#63b8ff" points="385.34,-28.69 395.83,-27.21 386.71,-21.82 385.34,-28.69"/>
</a>
</g>
</g>
<!-- Node2&#45;&gt;Node3 -->
<g id="edge2_Node000002_Node000003" class="edge">
<title>Node2&#45;&gt;Node3</title>
<g id="a_edge2_Node000002_Node000003"><a xlink:title=" ">
<path fill="none" stroke="#63b8ff" d="M232.79,-46.25C224.7,-47.33 216.45,-48.43 208.47,-49.49"/>
<polygon fill="#63b8ff" stroke="#63b8ff" points="233.11,-49.74 242.56,-44.95 232.19,-42.8 233.11,-49.74"/>
</a>
</g>
</g>
<!-- Node2&#45;&gt;Node5 -->
<g id="edge4_Node000002_Node000005" class="edge">
<title>Node2&#45;&gt;Node5</title>
<g id="a_edge4_Node000002_Node000005"><a xlink:title=" ">
<path fill="none" stroke="#63b8ff" d="M233.04,-25.89C223.89,-24.09 214.51,-22.25 205.54,-20.49"/>
<polygon fill="#63b8ff" stroke="#63b8ff" points="232.09,-29.27 242.58,-27.76 233.44,-22.4 232.09,-29.27"/>
</a>
</g>
</g>
<!-- Node4 -->
<g id="Node000004" class="node">
<title>Node4</title>
<g id="a_Node000004"><a xlink:href="components_2espressif____esp-dsp_2applications_2spectrum__box__lite_2main_2main_8c.html#a630544a7f0a2cc40d8a7fefab7e2fe70" target="_top" xlink:title=" ">
<polygon fill="white" stroke="#666666" points="58,-67 0,-67 0,-47 58,-47 58,-67"/>
<text xml:space="preserve" text-anchor="middle" x="29" y="-53.5" font-family="Helvetica,sans-Serif" font-size="10.00">app_main</text>
</a>
</g>
</g>
<!-- Node3&#45;&gt;Node4 -->
<g id="edge3_Node000003_Node000004" class="edge">
<title>Node3&#45;&gt;Node4</title>
<g id="a_edge3_Node000003_Node000004"><a xlink:title=" ">
<path fill="none" stroke="#63b8ff" d="M82.17,-57C73.86,-57 65.75,-57 58.5,-57"/>
<polygon fill="#63b8ff" stroke="#63b8ff" points="82.07,-60.5 92.07,-57 82.07,-53.5 82.07,-60.5"/>
</a>
</g>
</g>
</g>
</svg>
