<?xml version="1.0" encoding="UTF-8" standalone="no"?>
<!DOCTYPE svg PUBLIC "-//W3C//DTD SVG 1.1//EN"
 "http://www.w3.org/Graphics/SVG/1.1/DTD/svg11.dtd">
<!-- Generated by graphviz version 14.1.2 (20260124.0452)
 -->
<!-- Title: dsps_wind_blackman_harris.h Pages: 1 -->
<svg width="2762pt" height="220pt"
 viewBox="0.00 0.00 2762.00 220.00" xmlns="http://www.w3.org/2000/svg" xmlns:xlink="http://www.w3.org/1999/xlink">
<g id="graph0" class="graph" transform="scale(1 1) rotate(0) translate(4 216)">
<title>dsps_wind_blackman_harris.h</title>
<!-- Node1 -->
<g id="Node000001" class="node">
<title>Node1</title>
<g id="a_Node000001"><a xlink:title=" ">
<polygon fill="#999999" stroke="#666666" points="1608.12,-212 1498.38,-212 1498.38,-180 1608.12,-180 1608.12,-212"/>
<text xml:space="preserve" text-anchor="start" x="1506.38" y="-198.5" font-family="Helvetica,sans-Serif" font-size="10.00">dsps_wind_blackman</text>
<text xml:space="preserve" text-anchor="middle" x="1553.25" y="-186.5" font-family="Helvetica,sans-Serif" font-size="10.00">_harris.h</text>
</a>
</g>
</g>
<!-- Node2 -->
<g id="Node000002" class="node">
<title>Node2</title>
<g id="a_Node000002"><a xlink:href="dsps__wind_8h.html" target="_top" xlink:title=" ">
<polygon fill="white" stroke="#666666" points="1534.62,-138 1463.88,-138 1463.88,-118 1534.62,-118 1534.62,-138"/>
<text xml:space="preserve" text-anchor="middle" x="1499.25" y="-124.5" font-family="Helvetica,sans-Serif" font-size="10.00">dsps_wind.h</text>
</a>
</g>
</g>
<!-- Node1&#45;&gt;Node2 -->
<g id="edge1_Node000001_Node000002" class="edge">
<title>Node1&#45;&gt;Node2</title>
<g id="a_edge1_Node000001_Node000002"><a xlink:title=" ">
<path fill="none" stroke="#63b8ff" d="M1533.64,-171.04C1524.36,-159.69 1513.81,-146.8 1506.87,-138.32"/>
<polygon fill="#63b8ff" stroke="#63b8ff" points="1530.73,-173 1539.77,-178.52 1536.14,-168.57 1530.73,-173"/>
</a>
</g>
</g>
<!-- Node37 -->
<g id="Node000037" class="node">
<title>Node37</title>
<g id="a_Node000037"><a xlink:href="dsps__wind__blackman__harris__f32_8c.html" target="_top" xlink:title=" ">
<polygon fill="white" stroke="#666666" points="1662.12,-144 1552.38,-144 1552.38,-112 1662.12,-112 1662.12,-144"/>
<text xml:space="preserve" text-anchor="start" x="1560.38" y="-130.5" font-family="Helvetica,sans-Serif" font-size="10.00">dsps_wind_blackman</text>
<text xml:space="preserve" text-anchor="middle" x="1607.25" y="-118.5" font-family="Helvetica,sans-Serif" font-size="10.00">_harris_f32.c</text>
</a>
</g>
</g>
<!-- Node1&#45;&gt;Node37 -->
<g id="edge27_Node000001_Node000037" class="edge">
<title>Node1&#45;&gt;Node37</title>
<g id="a_edge27_Node000001_Node000037"><a xlink:title=" ">
<path fill="none" stroke="#63b8ff" d="M1572.99,-170.87C1580.28,-161.96 1588.33,-152.12 1594.79,-144.22"/>
<polygon fill="#63b8ff" stroke="#63b8ff" points="1570.36,-168.57 1566.73,-178.52 1575.77,-173 1570.36,-168.57"/>
</a>
</g>
</g>
<!-- Node3 -->
<g id="Node000003" class="node">
<title>Node3</title>
<g id="a_Node000003"><a xlink:href="esp__dsp_8h.html" target="_top" xlink:title=" ">
<polygon fill="white" stroke="#666666" points="1529.75,-76 1468.75,-76 1468.75,-56 1529.75,-56 1529.75,-76"/>
<text xml:space="preserve" text-anchor="middle" x="1499.25" y="-62.5" font-family="Helvetica,sans-Serif" font-size="10.00">esp_dsp.h</text>
</a>
</g>
</g>
<!-- Node2&#45;&gt;Node3 -->
<g id="edge2_Node000002_Node000003" class="edge">
<title>Node2&#45;&gt;Node3</title>
<g id="a_edge2_Node000002_Node000003"><a xlink:title=" ">
<path fill="none" stroke="#63b8ff" d="M1499.25,-106.25C1499.25,-95.97 1499.25,-84.09 1499.25,-76.11"/>
<polygon fill="#63b8ff" stroke="#63b8ff" points="1495.75,-106.11 1499.25,-116.11 1502.75,-106.11 1495.75,-106.11"/>
</a>
</g>
</g>
<!-- Node4 -->
<g id="Node000004" class="node">
<title>Node4</title>
<g id="a_Node000004"><a xlink:href="applications_2azure__board__apps_2apps_23d__graphics_2main_23d__graphics__demo_8cpp.html" target="_top" xlink:title=" ">
<polygon fill="white" stroke="#666666" points="116.5,-20 0,-20 0,0 116.5,0 116.5,-20"/>
<text xml:space="preserve" text-anchor="middle" x="58.25" y="-6.5" font-family="Helvetica,sans-Serif" font-size="10.00">3d_graphics_demo.cpp</text>
</a>
</g>
</g>
<!-- Node3&#45;&gt;Node4 -->
<g id="edge3_Node000003_Node000004" class="edge">
<title>Node3&#45;&gt;Node4</title>
<g id="a_edge3_Node000003_Node000004"><a xlink:title=" ">
<path fill="none" stroke="#63b8ff" d="M1456.95,-65.14C1288.56,-65.35 649.68,-63.11 126.25,-20 123.16,-19.75 120,-19.45 116.82,-19.12"/>
<polygon fill="#63b8ff" stroke="#63b8ff" points="1456.74,-68.64 1466.74,-65.12 1456.73,-61.64 1456.74,-68.64"/>
</a>
</g>
</g>
<!-- Node5 -->
<g id="Node000005" class="node">
<title>Node5</title>
<g id="a_Node000005"><a xlink:href="applications_2m5stack__core__s3_2apps_23d__graphics_2main_23d__graphics__demo_8cpp.html" target="_top" xlink:title=" ">
<polygon fill="white" stroke="#666666" points="251.5,-20 135,-20 135,0 251.5,0 251.5,-20"/>
<text xml:space="preserve" text-anchor="middle" x="193.25" y="-6.5" font-family="Helvetica,sans-Serif" font-size="10.00">3d_graphics_demo.cpp</text>
</a>
</g>
</g>
<!-- Node3&#45;&gt;Node5 -->
<g id="edge4_Node000003_Node000005" class="edge">
<title>Node3&#45;&gt;Node5</title>
<g id="a_edge4_Node000003_Node000005"><a xlink:title=" ">
<path fill="none" stroke="#63b8ff" d="M1457.08,-64.92C1299.33,-64.32 729.13,-59.38 261.25,-20 258.16,-19.74 255,-19.44 251.82,-19.11"/>
<polygon fill="#63b8ff" stroke="#63b8ff" points="1457.03,-68.42 1467.04,-64.96 1457.06,-61.42 1457.03,-68.42"/>
</a>
</g>
</g>
<!-- Node6 -->
<g id="Node000006" class="node">
<title>Node6</title>
<g id="a_Node000006"><a xlink:href="external__examples_2b00f000e_2applications_2azure__board__apps_2apps_23d__graphics_2main_23d__graphics__demo_8cpp.html" target="_top" xlink:title=" ">
<polygon fill="white" stroke="#666666" points="386.5,-20 270,-20 270,0 386.5,0 386.5,-20"/>
<text xml:space="preserve" text-anchor="middle" x="328.25" y="-6.5" font-family="Helvetica,sans-Serif" font-size="10.00">3d_graphics_demo.cpp</text>
</a>
</g>
</g>
<!-- Node3&#45;&gt;Node6 -->
<g id="edge5_Node000003_Node000006" class="edge">
<title>Node3&#45;&gt;Node6</title>
<g id="a_edge5_Node000003_Node000006"><a xlink:title=" ">
<path fill="none" stroke="#63b8ff" d="M1457.38,-64.66C1311.06,-63.18 808.96,-55.66 396.25,-20 393.17,-19.73 390.01,-19.43 386.82,-19.09"/>
<polygon fill="#63b8ff" stroke="#63b8ff" points="1456.93,-68.16 1466.97,-64.75 1457,-61.16 1456.93,-68.16"/>
</a>
</g>
</g>
<!-- Node7 -->
<g id="Node000007" class="node">
<title>Node7</title>
<g id="a_Node000007"><a xlink:href="external__examples_2b00f000e_2applications_2m5stack__core__s3_2apps_23d__graphics_2main_23d__graphics__demo_8cpp.html" target="_top" xlink:title=" ">
<polygon fill="white" stroke="#666666" points="521.5,-20 405,-20 405,0 521.5,0 521.5,-20"/>
<text xml:space="preserve" text-anchor="middle" x="463.25" y="-6.5" font-family="Helvetica,sans-Serif" font-size="10.00">3d_graphics_demo.cpp</text>
</a>
</g>
</g>
<!-- Node3&#45;&gt;Node7 -->
<g id="edge6_Node000003_Node000007" class="edge">
<title>Node3&#45;&gt;Node7</title>
<g id="a_edge6_Node000003_Node000007"><a xlink:title=" ">
<path fill="none" stroke="#63b8ff" d="M1456.84,-64.32C1321.56,-61.86 888.29,-51.87 531.25,-20 528.17,-19.72 525.01,-19.41 521.82,-19.07"/>
<polygon fill="#63b8ff" stroke="#63b8ff" points="1456.69,-67.81 1466.75,-64.49 1456.81,-60.82 1456.69,-67.81"/>
</a>
</g>
</g>
<!-- Node8 -->
<g id="Node000008" class="node">
<title>Node8</title>
<g id="a_Node000008"><a xlink:href="external__examples_2d1468452_2apps_23d__graphics_2main_23d__graphics__demo_8cpp.html" target="_top" xlink:title=" ">
<polygon fill="white" stroke="#666666" points="656.5,-20 540,-20 540,0 656.5,0 656.5,-20"/>
<text xml:space="preserve" text-anchor="middle" x="598.25" y="-6.5" font-family="Helvetica,sans-Serif" font-size="10.00">3d_graphics_demo.cpp</text>
</a>
</g>
</g>
<!-- Node3&#45;&gt;Node8 -->
<g id="edge7_Node000003_Node000008" class="edge">
<title>Node3&#45;&gt;Node8</title>
<g id="a_edge7_Node000003_Node000008"><a xlink:title=" ">
<path fill="none" stroke="#63b8ff" d="M1457.15,-63.88C1334.8,-60.38 968.74,-48.15 666.25,-20 663.17,-19.71 660.01,-19.39 656.82,-19.05"/>
<polygon fill="#63b8ff" stroke="#63b8ff" points="1456.95,-67.38 1467.04,-64.16 1457.14,-60.38 1456.95,-67.38"/>
</a>
</g>
</g>
<!-- Node9 -->
<g id="Node000009" class="node">
<title>Node9</title>
<g id="a_Node000009"><a xlink:href="external__examples_2f9c2d4b3_2azure__board__apps_2apps_23d__graphics_2main_23d__graphics__demo_8cpp.html" target="_top" xlink:title=" ">
<polygon fill="white" stroke="#666666" points="791.5,-20 675,-20 675,0 791.5,0 791.5,-20"/>
<text xml:space="preserve" text-anchor="middle" x="733.25" y="-6.5" font-family="Helvetica,sans-Serif" font-size="10.00">3d_graphics_demo.cpp</text>
</a>
</g>
</g>
<!-- Node3&#45;&gt;Node9 -->
<g id="edge8_Node000003_Node000009" class="edge">
<title>Node3&#45;&gt;Node9</title>
<g id="a_edge8_Node000003_Node000009"><a xlink:title=" ">
<path fill="none" stroke="#63b8ff" d="M1457.1,-63.31C1348.21,-58.71 1048.69,-44.65 800.25,-20 797.45,-19.72 794.58,-19.42 791.69,-19.09"/>
<polygon fill="#63b8ff" stroke="#63b8ff" points="1456.88,-66.8 1467.02,-63.72 1457.17,-59.81 1456.88,-66.8"/>
</a>
</g>
</g>
<!-- Node10 -->
<g id="Node000010" class="node">
<title>Node10</title>
<g id="a_Node000010"><a xlink:href="applications_2m5stack__core__s3_2apps_2kalman__filter_2main_23d__kalman__demo_8cpp.html" target="_top" xlink:title=" ">
<polygon fill="white" stroke="#666666" points="920.88,-20 809.62,-20 809.62,0 920.88,0 920.88,-20"/>
<text xml:space="preserve" text-anchor="middle" x="865.25" y="-6.5" font-family="Helvetica,sans-Serif" font-size="10.00">3d_kalman_demo.cpp</text>
</a>
</g>
</g>
<!-- Node3&#45;&gt;Node10 -->
<g id="edge9_Node000003_Node000010" class="edge">
<title>Node3&#45;&gt;Node10</title>
<g id="a_edge9_Node000003_Node000010"><a xlink:title=" ">
<path fill="none" stroke="#63b8ff" d="M1456.93,-62.54C1362.23,-56.85 1126.07,-41.59 929.25,-20 926.57,-19.71 923.84,-19.39 921.07,-19.05"/>
<polygon fill="#63b8ff" stroke="#63b8ff" points="1456.59,-66.03 1466.78,-63.13 1457.01,-59.04 1456.59,-66.03"/>
</a>
</g>
</g>
<!-- Node11 -->
<g id="Node000011" class="node">
<title>Node11</title>
<g id="a_Node000011"><a xlink:href="external__examples_2b00f000e_2applications_2m5stack__core__s3_2apps_2kalman__filter_2main_23d__kalman__demo_8cpp.html" target="_top" xlink:title=" ">
<polygon fill="white" stroke="#666666" points="1049.88,-20 938.62,-20 938.62,0 1049.88,0 1049.88,-20"/>
<text xml:space="preserve" text-anchor="middle" x="994.25" y="-6.5" font-family="Helvetica,sans-Serif" font-size="10.00">3d_kalman_demo.cpp</text>
</a>
</g>
</g>
<!-- Node3&#45;&gt;Node11 -->
<g id="edge10_Node000003_Node000011" class="edge">
<title>Node3&#45;&gt;Node11</title>
<g id="a_edge10_Node000003_Node000011"><a xlink:title=" ">
<path fill="none" stroke="#63b8ff" d="M1456.95,-61.18C1378.46,-53.98 1205,-37.54 1059.25,-20 1056.31,-19.65 1053.3,-19.27 1050.25,-18.88"/>
<polygon fill="#63b8ff" stroke="#63b8ff" points="1456.48,-64.65 1466.76,-62.08 1457.12,-57.68 1456.48,-64.65"/>
</a>
</g>
</g>
<!-- Node12 -->
<g id="Node000012" class="node">
<title>Node12</title>
<g id="a_Node000012"><a xlink:href="applications_2lyrat__board__app_2main_2audio__amp__main_8c.html" target="_top" xlink:title=" ">
<polygon fill="white" stroke="#666666" points="1166.12,-20 1068.38,-20 1068.38,0 1166.12,0 1166.12,-20"/>
<text xml:space="preserve" text-anchor="middle" x="1117.25" y="-6.5" font-family="Helvetica,sans-Serif" font-size="10.00">audio_amp_main.c</text>
</a>
</g>
</g>
<!-- Node3&#45;&gt;Node12 -->
<g id="edge11_Node000003_Node000012" class="edge">
<title>Node3&#45;&gt;Node12</title>
<g id="a_edge11_Node000003_Node000012"><a xlink:title=" ">
<path fill="none" stroke="#63b8ff" d="M1457.18,-59.37C1395.35,-51.06 1276.33,-34.86 1175.25,-20 1172.43,-19.58 1169.53,-19.15 1166.6,-18.71"/>
<polygon fill="#63b8ff" stroke="#63b8ff" points="1456.52,-62.82 1466.9,-60.68 1457.46,-55.88 1456.52,-62.82"/>
</a>
</g>
</g>
<!-- Node13 -->
<g id="Node000013" class="node">
<title>Node13</title>
<g id="a_Node000013"><a xlink:href="external__examples_21fa4e38f_2lyrat__board__app_2main_2audio__amp__main_8c.html" target="_top" xlink:title=" ">
<polygon fill="white" stroke="#666666" points="1282.12,-20 1184.38,-20 1184.38,0 1282.12,0 1282.12,-20"/>
<text xml:space="preserve" text-anchor="middle" x="1233.25" y="-6.5" font-family="Helvetica,sans-Serif" font-size="10.00">audio_amp_main.c</text>
</a>
</g>
</g>
<!-- Node3&#45;&gt;Node13 -->
<g id="edge12_Node000003_Node000013" class="edge">
<title>Node3&#45;&gt;Node13</title>
<g id="a_edge12_Node000003_Node000013"><a xlink:title=" ">
<path fill="none" stroke="#63b8ff" d="M1457.5,-56.52C1409.23,-46.72 1330,-30.64 1279.79,-20.45"/>
<polygon fill="#63b8ff" stroke="#63b8ff" points="1456.5,-59.89 1466.99,-58.45 1457.89,-53.03 1456.5,-59.89"/>
</a>
</g>
</g>
<!-- Node14 -->
<g id="Node000014" class="node">
<title>Node14</title>
<g id="a_Node000014"><a xlink:href="external__examples_2b00f000e_2applications_2lyrat__board__app_2main_2audio__amp__main_8c.html" target="_top" xlink:title=" ">
<polygon fill="white" stroke="#666666" points="1398.12,-20 1300.38,-20 1300.38,0 1398.12,0 1398.12,-20"/>
<text xml:space="preserve" text-anchor="middle" x="1349.25" y="-6.5" font-family="Helvetica,sans-Serif" font-size="10.00">audio_amp_main.c</text>
</a>
</g>
</g>
<!-- Node3&#45;&gt;Node14 -->
<g id="edge13_Node000003_Node000014" class="edge">
<title>Node3&#45;&gt;Node14</title>
<g id="a_edge13_Node000003_Node000014"><a xlink:title=" ">
<path fill="none" stroke="#63b8ff" d="M1462.56,-51.79C1435.63,-42.1 1399.7,-29.16 1375.58,-20.48"/>
<polygon fill="#63b8ff" stroke="#63b8ff" points="1461.1,-54.99 1471.7,-55.08 1463.47,-48.4 1461.1,-54.99"/>
</a>
</g>
</g>
<!-- Node15 -->
<g id="Node000015" class="node">
<title>Node15</title>
<g id="a_Node000015"><a xlink:href="dsp__tests_8h.html" target="_top" xlink:title=" ">
<polygon fill="#fff0f0" stroke="red" points="1482.75,-20 1415.75,-20 1415.75,0 1482.75,0 1482.75,-20"/>
<text xml:space="preserve" text-anchor="middle" x="1449.25" y="-6.5" font-family="Helvetica,sans-Serif" font-size="10.00">dsp_tests.h</text>
</a>
</g>
</g>
<!-- Node3&#45;&gt;Node15 -->
<g id="edge14_Node000003_Node000015" class="edge">
<title>Node3&#45;&gt;Node15</title>
<g id="a_edge14_Node000003_Node000015"><a xlink:title=" ">
<path fill="none" stroke="#63b8ff" d="M1482.85,-47.29C1474.51,-38.28 1464.71,-27.7 1457.86,-20.3"/>
<polygon fill="#63b8ff" stroke="#63b8ff" points="1480.15,-49.52 1489.51,-54.48 1485.29,-44.77 1480.15,-49.52"/>
</a>
</g>
</g>
<!-- Node22 -->
<g id="Node000022" class="node">
<title>Node22</title>
<g id="a_Node000022"><a xlink:href="applications_2azure__board__apps_2graphics_23d__matrix_23d__matrix__src_2graphics__support_8h.html" target="_top" xlink:title=" ">
<polygon fill="#fff0f0" stroke="red" points="1599.5,-20 1501,-20 1501,0 1599.5,0 1599.5,-20"/>
<text xml:space="preserve" text-anchor="middle" x="1550.25" y="-6.5" font-family="Helvetica,sans-Serif" font-size="10.00">graphics_support.h</text>
</a>
</g>
</g>
<!-- Node3&#45;&gt;Node22 -->
<g id="edge15_Node000003_Node000022" class="edge">
<title>Node3&#45;&gt;Node22</title>
<g id="a_edge15_Node000003_Node000022"><a xlink:title=" ">
<path fill="none" stroke="#63b8ff" d="M1515.98,-47.29C1524.49,-38.28 1534.48,-27.7 1541.47,-20.3"/>
<polygon fill="#63b8ff" stroke="#63b8ff" points="1513.49,-44.82 1509.17,-54.49 1518.58,-49.63 1513.49,-44.82"/>
</a>
</g>
</g>
<!-- Node24 -->
<g id="Node000024" class="node">
<title>Node24</title>
<g id="a_Node000024"><a xlink:href="external__examples_2b00f000e_2applications_2azure__board__apps_2graphics_23d__matrix_23d__matrix__src_2graphics__support_8h.html" target="_top" xlink:title=" ">
<polygon fill="#fff0f0" stroke="red" points="1716.5,-20 1618,-20 1618,0 1716.5,0 1716.5,-20"/>
<text xml:space="preserve" text-anchor="middle" x="1667.25" y="-6.5" font-family="Helvetica,sans-Serif" font-size="10.00">graphics_support.h</text>
</a>
</g>
</g>
<!-- Node3&#45;&gt;Node24 -->
<g id="edge16_Node000003_Node000024" class="edge">
<title>Node3&#45;&gt;Node24</title>
<g id="a_edge16_Node000003_Node000024"><a xlink:title=" ">
<path fill="none" stroke="#63b8ff" d="M1539.14,-52.18C1569.43,-42.44 1610.39,-29.28 1637.76,-20.48"/>
<polygon fill="#63b8ff" stroke="#63b8ff" points="1538.4,-48.74 1529.95,-55.13 1540.55,-55.4 1538.4,-48.74"/>
</a>
</g>
</g>
<!-- Node26 -->
<g id="Node000026" class="node">
<title>Node26</title>
<g id="a_Node000026"><a xlink:href="external__examples_2f9c2d4b3_2azure__board__apps_2graphics_23d__matrix_23d__matrix__src_2graphics__support_8h.html" target="_top" xlink:title=" ">
<polygon fill="#fff0f0" stroke="red" points="1833.5,-20 1735,-20 1735,0 1833.5,0 1833.5,-20"/>
<text xml:space="preserve" text-anchor="middle" x="1784.25" y="-6.5" font-family="Helvetica,sans-Serif" font-size="10.00">graphics_support.h</text>
</a>
</g>
</g>
<!-- Node3&#45;&gt;Node26 -->
<g id="edge17_Node000003_Node000026" class="edge">
<title>Node3&#45;&gt;Node26</title>
<g id="a_edge17_Node000003_Node000026"><a xlink:title=" ">
<path fill="none" stroke="#63b8ff" d="M1541.05,-57.08C1592.48,-47.33 1679.72,-30.81 1734.54,-20.42"/>
<polygon fill="#63b8ff" stroke="#63b8ff" points="1540.68,-53.59 1531.51,-58.89 1541.98,-60.47 1540.68,-53.59"/>
</a>
</g>
</g>
<!-- Node28 -->
<g id="Node000028" class="node">
<title>Node28</title>
<g id="a_Node000028"><a xlink:href="applications_2m5stack__core__s3_2apps_23d__graphics_2main_2init__display_8c.html" target="_top" xlink:title=" ">
<polygon fill="white" stroke="#666666" points="1923.38,-20 1851.12,-20 1851.12,0 1923.38,0 1923.38,-20"/>
<text xml:space="preserve" text-anchor="middle" x="1887.25" y="-6.5" font-family="Helvetica,sans-Serif" font-size="10.00">init_display.c</text>
</a>
</g>
</g>
<!-- Node3&#45;&gt;Node28 -->
<g id="edge18_Node000003_Node000028" class="edge">
<title>Node3&#45;&gt;Node28</title>
<g id="a_edge18_Node000003_Node000028"><a xlink:title=" ">
<path fill="none" stroke="#63b8ff" d="M1541.45,-60.38C1606.31,-53.08 1734.31,-37.85 1842.25,-20 1845.08,-19.53 1848,-19.02 1850.94,-18.48"/>
<polygon fill="#63b8ff" stroke="#63b8ff" points="1541.15,-56.9 1531.6,-61.49 1541.93,-63.85 1541.15,-56.9"/>
</a>
</g>
</g>
<!-- Node29 -->
<g id="Node000029" class="node">
<title>Node29</title>
<g id="a_Node000029"><a xlink:href="external__examples_2b00f000e_2applications_2m5stack__core__s3_2apps_23d__graphics_2main_2init__display_8c.html" target="_top" xlink:title=" ">
<polygon fill="white" stroke="#666666" points="2013.38,-20 1941.12,-20 1941.12,0 2013.38,0 2013.38,-20"/>
<text xml:space="preserve" text-anchor="middle" x="1977.25" y="-6.5" font-family="Helvetica,sans-Serif" font-size="10.00">init_display.c</text>
</a>
</g>
</g>
<!-- Node3&#45;&gt;Node29 -->
<g id="edge19_Node000003_Node000029" class="edge">
<title>Node3&#45;&gt;Node29</title>
<g id="a_edge19_Node000003_Node000029"><a xlink:title=" ">
<path fill="none" stroke="#63b8ff" d="M1541.28,-61.95C1618.83,-56.03 1789.57,-41.63 1932.25,-20 1935.09,-19.57 1938.01,-19.08 1940.95,-18.56"/>
<polygon fill="#63b8ff" stroke="#63b8ff" points="1541.31,-58.44 1531.6,-62.68 1541.83,-65.42 1541.31,-58.44"/>
</a>
</g>
</g>
<!-- Node30 -->
<g id="Node000030" class="node">
<title>Node30</title>
<g id="a_Node000030"><a xlink:href="applications_2azure__board__apps_2apps_2kalman__filter_2main_2kalman__filter__demo_8cpp.html" target="_top" xlink:title=" ">
<polygon fill="white" stroke="#666666" points="2151,-20 2031.5,-20 2031.5,0 2151,0 2151,-20"/>
<text xml:space="preserve" text-anchor="middle" x="2091.25" y="-6.5" font-family="Helvetica,sans-Serif" font-size="10.00">kalman_filter_demo.cpp</text>
</a>
</g>
</g>
<!-- Node3&#45;&gt;Node30 -->
<g id="edge20_Node000003_Node000030" class="edge">
<title>Node3&#45;&gt;Node30</title>
<g id="a_edge20_Node000003_Node000030"><a xlink:title=" ">
<path fill="none" stroke="#63b8ff" d="M1541.46,-62C1630.46,-55.53 1843.84,-39.3 2022.25,-20 2025.13,-19.69 2028.08,-19.36 2031.06,-19.01"/>
<polygon fill="#63b8ff" stroke="#63b8ff" points="1541.48,-58.49 1531.75,-62.7 1541.98,-65.47 1541.48,-58.49"/>
</a>
</g>
</g>
<!-- Node31 -->
<g id="Node000031" class="node">
<title>Node31</title>
<g id="a_Node000031"><a xlink:href="external__examples_2b00f000e_2applications_2azure__board__apps_2apps_2kalman__filter_2main_2kalman__filter__demo_8cpp.html" target="_top" xlink:title=" ">
<polygon fill="white" stroke="#666666" points="2289,-20 2169.5,-20 2169.5,0 2289,0 2289,-20"/>
<text xml:space="preserve" text-anchor="middle" x="2229.25" y="-6.5" font-family="Helvetica,sans-Serif" font-size="10.00">kalman_filter_demo.cpp</text>
</a>
</g>
</g>
<!-- Node3&#45;&gt;Node31 -->
<g id="edge21_Node000003_Node000031" class="edge">
<title>Node3&#45;&gt;Node31</title>
<g id="a_edge21_Node000003_Node000031"><a xlink:title=" ">
<path fill="none" stroke="#63b8ff" d="M1541.25,-63.04C1645.95,-57.97 1926.87,-43.14 2160.25,-20 2163.14,-19.71 2166.09,-19.4 2169.06,-19.07"/>
<polygon fill="#63b8ff" stroke="#63b8ff" points="1541.28,-59.54 1531.46,-63.51 1541.61,-66.53 1541.28,-59.54"/>
</a>
</g>
</g>
<!-- Node32 -->
<g id="Node000032" class="node">
<title>Node32</title>
<g id="a_Node000032"><a xlink:href="external__examples_2d1468452_2apps_2kalman__filter_2main_2kalman__filter__demo_8cpp.html" target="_top" xlink:title=" ">
<polygon fill="white" stroke="#666666" points="2427,-20 2307.5,-20 2307.5,0 2427,0 2427,-20"/>
<text xml:space="preserve" text-anchor="middle" x="2367.25" y="-6.5" font-family="Helvetica,sans-Serif" font-size="10.00">kalman_filter_demo.cpp</text>
</a>
</g>
</g>
<!-- Node3&#45;&gt;Node32 -->
<g id="edge22_Node000003_Node000032" class="edge">
<title>Node3&#45;&gt;Node32</title>
<g id="a_edge22_Node000003_Node000032"><a xlink:title=" ">
<path fill="none" stroke="#63b8ff" d="M1541.63,-63.71C1660.92,-59.84 2009.7,-46.91 2298.25,-20 2301.14,-19.73 2304.09,-19.43 2307.07,-19.11"/>
<polygon fill="#63b8ff" stroke="#63b8ff" points="1541.56,-60.21 1531.67,-64.03 1541.78,-67.21 1541.56,-60.21"/>
</a>
</g>
</g>
<!-- Node33 -->
<g id="Node000033" class="node">
<title>Node33</title>
<g id="a_Node000033"><a xlink:href="external__examples_2f9c2d4b3_2azure__board__apps_2apps_2kalman__filter_2main_2kalman__filter__demo_8cpp.html" target="_top" xlink:title=" ">
<polygon fill="white" stroke="#666666" points="2565,-20 2445.5,-20 2445.5,0 2565,0 2565,-20"/>
<text xml:space="preserve" text-anchor="middle" x="2505.25" y="-6.5" font-family="Helvetica,sans-Serif" font-size="10.00">kalman_filter_demo.cpp</text>
</a>
</g>
</g>
<!-- Node3&#45;&gt;Node33 -->
<g id="edge23_Node000003_Node000033" class="edge">
<title>Node3&#45;&gt;Node33</title>
<g id="a_edge23_Node000003_Node000033"><a xlink:title=" ">
<path fill="none" stroke="#63b8ff" d="M1541.2,-64.21C1673.15,-61.45 2091.4,-50.72 2436.25,-20 2439.14,-19.74 2442.09,-19.45 2445.07,-19.14"/>
<polygon fill="#63b8ff" stroke="#63b8ff" points="1541.49,-60.7 1531.56,-64.4 1541.63,-67.7 1541.49,-60.7"/>
</a>
</g>
</g>
<!-- Node34 -->
<g id="Node000034" class="node">
<title>Node34</title>
<g id="a_Node000034"><a xlink:href="main_2main_8c.html" target="_top" xlink:title=" ">
<polygon fill="white" stroke="#666666" points="2627.88,-20 2582.62,-20 2582.62,0 2627.88,0 2627.88,-20"/>
<text xml:space="preserve" text-anchor="middle" x="2605.25" y="-6.5" font-family="Helvetica,sans-Serif" font-size="10.00">main.c</text>
</a>
</g>
</g>
<!-- Node3&#45;&gt;Node34 -->
<g id="edge24_Node000003_Node000034" class="edge">
<title>Node3&#45;&gt;Node34</title>
<g id="a_edge24_Node000003_Node000034"><a xlink:title=" ">
<path fill="none" stroke="#63b8ff" d="M1541.61,-64.59C1714.89,-62.69 2370.16,-53.4 2574.25,-20 2576.9,-19.57 2579.65,-18.98 2582.37,-18.31"/>
<polygon fill="#63b8ff" stroke="#63b8ff" points="1541.69,-61.09 1531.73,-64.69 1541.76,-68.09 1541.69,-61.09"/>
</a>
</g>
</g>
<!-- Node35 -->
<g id="Node000035" class="node">
<title>Node35</title>
<g id="a_Node000035"><a xlink:href="components_2espressif____esp-dsp_2applications_2spectrum__box__lite_2main_2main_8c.html" target="_top" xlink:title=" ">
<polygon fill="white" stroke="#666666" points="2690.88,-20 2645.62,-20 2645.62,0 2690.88,0 2690.88,-20"/>
<text xml:space="preserve" text-anchor="middle" x="2668.25" y="-6.5" font-family="Helvetica,sans-Serif" font-size="10.00">main.c</text>
</a>
</g>
</g>
<!-- Node3&#45;&gt;Node35 -->
<g id="edge25_Node000003_Node000035" class="edge">
<title>Node3&#45;&gt;Node35</title>
<g id="a_edge25_Node000003_Node000035"><a xlink:title=" ">
<path fill="none" stroke="#63b8ff" d="M1541.45,-64.7C1720.77,-63.22 2420.13,-55.27 2637.25,-20 2639.91,-19.57 2642.65,-18.98 2645.37,-18.32"/>
<polygon fill="#63b8ff" stroke="#63b8ff" points="1541.65,-61.2 1531.68,-64.78 1541.71,-68.2 1541.65,-61.2"/>
</a>
</g>
</g>
<!-- Node36 -->
<g id="Node000036" class="node">
<title>Node36</title>
<g id="a_Node000036"><a xlink:href="components_2espressif____esp-dsp_2external__examples_2b00f000e_2applications_2spectrum__box__lite_2main_2main_8c.html" target="_top" xlink:title=" ">
<polygon fill="white" stroke="#666666" points="2753.88,-20 2708.62,-20 2708.62,0 2753.88,0 2753.88,-20"/>
<text xml:space="preserve" text-anchor="middle" x="2731.25" y="-6.5" font-family="Helvetica,sans-Serif" font-size="10.00">main.c</text>
</a>
</g>
</g>
<!-- Node3&#45;&gt;Node36 -->
<g id="edge26_Node000003_Node000036" class="edge">
<title>Node3&#45;&gt;Node36</title>
<g id="a_edge26_Node000003_Node000036"><a xlink:title=" ">
<path fill="none" stroke="#63b8ff" d="M1541.66,-64.8C1727.41,-63.72 2470.22,-57.12 2700.25,-20 2702.91,-19.57 2705.66,-18.99 2708.37,-18.32"/>
<polygon fill="#63b8ff" stroke="#63b8ff" points="1541.73,-61.3 1531.75,-64.86 1541.77,-68.3 1541.73,-61.3"/>
</a>
</g>
</g>
</g>
</svg>
