<?xml version="1.0" encoding="UTF-8" standalone="no"?>
<!DOCTYPE svg PUBLIC "-//W3C//DTD SVG 1.1//EN"
 "http://www.w3.org/Graphics/SVG/1.1/DTD/svg11.dtd">
<!-- Generated by graphviz version 14.1.2 (20260124.0452)
 -->
<!-- Title: dsps_sub.h Pages: 1 -->
<svg width="320pt" height="196pt"
 viewBox="0.00 0.00 320.00 196.00" xmlns="http://www.w3.org/2000/svg" xmlns:xlink="http://www.w3.org/1999/xlink">

<svg id="main" version="1.1" xmlns="http://www.w3.org/2000/svg" xmlns:xlink="http://www.w3.org/1999/xlink" xml:space="preserve">

<style type="text/css"><![CDATA[
.node, .edge {opacity: 0.7;}
.node.selected, .edge.selected {opacity: 1;}
.edge:hover path { stroke: red; }
.edge:hover polygon { stroke: red; fill: red; }
]]></style>
<script type="application/ecmascript" xlink:href="svg.min.js"/>
<svg id="graph" class="graph">
<g id="graph0" class="graph" transform="scale(1 1) rotate(0) translate(4 192)">
<title>dsps_sub.h</title>
<!-- Node1 -->
<g id="Node000001" class="node">
<title>Node1</title>
<g id="a_Node000001"><a xlink:title=" ">
<polygon fill="#999999" stroke="#666666" points="219.25,-188 153,-188 153,-168 219.25,-168 219.25,-188"/>
<text xml:space="preserve" text-anchor="middle" x="186.12" y="-174.5" font-family="Helvetica,sans-Serif" font-size="10.00">dsps_sub.h</text>
</a>
</g>
</g>
<!-- Node2 -->
<g id="Node000002" class="node">
<title>Node2</title>
<g id="a_Node000002"><a xlink:href="dsp__err_8h.html" target="_top" xlink:title=" ">
<polygon fill="white" stroke="#666666" points="164.38,-132 107.88,-132 107.88,-112 164.38,-112 164.38,-132"/>
<text xml:space="preserve" text-anchor="middle" x="136.12" y="-118.5" font-family="Helvetica,sans-Serif" font-size="10.00">dsp_err.h</text>
</a>
</g>
</g>
<!-- Node1&#45;&gt;Node2 -->
<g id="edge1_Node000001_Node000002" class="edge">
<title>Node1&#45;&gt;Node2</title>
<g id="a_edge1_Node000001_Node000002"><a xlink:title=" ">
<path fill="none" stroke="#63b8ff" d="M177.42,-167.59C170.53,-160.16 160.73,-149.58 152.41,-140.58"/>
<polygon fill="#63b8ff" stroke="#63b8ff" points="155.13,-138.37 145.76,-133.41 149.99,-143.12 155.13,-138.37"/>
</a>
</g>
</g>
<!-- Node7 -->
<g id="Node000007" class="node">
<title>Node7</title>
<g id="a_Node000007"><a xlink:href="dsps__sub__platform_8h.html" target="_top" xlink:title=" ">
<polygon fill="white" stroke="#666666" points="310.5,-132 203.75,-132 203.75,-112 310.5,-112 310.5,-132"/>
<text xml:space="preserve" text-anchor="middle" x="257.12" y="-118.5" font-family="Helvetica,sans-Serif" font-size="10.00">dsps_sub_platform.h</text>
</a>
</g>
</g>
<!-- Node1&#45;&gt;Node7 -->
<g id="edge6_Node000001_Node000007" class="edge">
<title>Node1&#45;&gt;Node7</title>
<g id="a_edge6_Node000001_Node000007"><a xlink:title=" ">
<path fill="none" stroke="#63b8ff" d="M198.49,-167.59C208.77,-159.77 223.64,-148.46 235.84,-139.19"/>
<polygon fill="#63b8ff" stroke="#63b8ff" points="237.85,-142.05 243.69,-133.21 233.62,-136.48 237.85,-142.05"/>
</a>
</g>
</g>
<!-- Node3 -->
<g id="Node000003" class="node">
<title>Node3</title>
<g id="a_Node000003"><a xlink:title=" ">
<polygon fill="#e0e0e0" stroke="#999999" points="48.25,-76 0,-76 0,-56 48.25,-56 48.25,-76"/>
<text xml:space="preserve" text-anchor="middle" x="24.12" y="-62.5" font-family="Helvetica,sans-Serif" font-size="10.00">stdint.h</text>
</a>
</g>
</g>
<!-- Node2&#45;&gt;Node3 -->
<g id="edge2_Node000002_Node000003" class="edge">
<title>Node2&#45;&gt;Node3</title>
<g id="a_edge2_Node000002_Node000003"><a xlink:title=" ">
<path fill="none" stroke="#63b8ff" d="M116.62,-111.59C99.38,-103.28 73.97,-91.03 54.14,-81.47"/>
<polygon fill="#63b8ff" stroke="#63b8ff" points="55.68,-78.33 45.15,-77.14 52.64,-84.63 55.68,-78.33"/>
</a>
</g>
</g>
<!-- Node4 -->
<g id="Node000004" class="node">
<title>Node4</title>
<g id="a_Node000004"><a xlink:href="esp__err_8h.html" target="_top" xlink:title=" ">
<polygon fill="white" stroke="#666666" points="122.38,-76 65.88,-76 65.88,-56 122.38,-56 122.38,-76"/>
<text xml:space="preserve" text-anchor="middle" x="94.12" y="-62.5" font-family="Helvetica,sans-Serif" font-size="10.00">esp_err.h</text>
</a>
</g>
</g>
<!-- Node2&#45;&gt;Node4 -->
<g id="edge3_Node000002_Node000004" class="edge">
<title>Node2&#45;&gt;Node4</title>
<g id="a_edge3_Node000002_Node000004"><a xlink:title=" ">
<path fill="none" stroke="#63b8ff" d="M128.81,-111.59C123.15,-104.32 115.14,-94.02 108.24,-85.15"/>
<polygon fill="#63b8ff" stroke="#63b8ff" points="111.19,-83.24 102.29,-77.49 105.66,-87.54 111.19,-83.24"/>
</a>
</g>
</g>
<!-- Node6 -->
<g id="Node000006" class="node">
<title>Node6</title>
<g id="a_Node000006"><a xlink:href="dsp__err__codes_8h.html" target="_top" xlink:title=" ">
<polygon fill="white" stroke="#666666" points="228.12,-76 140.12,-76 140.12,-56 228.12,-56 228.12,-76"/>
<text xml:space="preserve" text-anchor="middle" x="184.12" y="-62.5" font-family="Helvetica,sans-Serif" font-size="10.00">dsp_err_codes.h</text>
</a>
</g>
</g>
<!-- Node2&#45;&gt;Node6 -->
<g id="edge5_Node000002_Node000006" class="edge">
<title>Node2&#45;&gt;Node6</title>
<g id="a_edge5_Node000002_Node000006"><a xlink:title=" ">
<path fill="none" stroke="#63b8ff" d="M144.49,-111.59C151.02,-104.24 160.31,-93.8 168.24,-84.87"/>
<polygon fill="#63b8ff" stroke="#63b8ff" points="170.83,-87.23 174.85,-77.43 165.59,-82.58 170.83,-87.23"/>
</a>
</g>
</g>
<!-- Node5 -->
<g id="Node000005" class="node">
<title>Node5</title>
<g id="a_Node000005"><a xlink:title=" ">
<polygon fill="#e0e0e0" stroke="#999999" points="117.88,-20 70.38,-20 70.38,0 117.88,0 117.88,-20"/>
<text xml:space="preserve" text-anchor="middle" x="94.12" y="-6.5" font-family="Helvetica,sans-Serif" font-size="10.00">stdlib.h</text>
</a>
</g>
</g>
<!-- Node4&#45;&gt;Node5 -->
<g id="edge4_Node000004_Node000005" class="edge">
<title>Node4&#45;&gt;Node5</title>
<g id="a_edge4_Node000004_Node000005"><a xlink:title=" ">
<path fill="none" stroke="#63b8ff" d="M94.12,-55.59C94.12,-49.01 94.12,-39.96 94.12,-31.73"/>
<polygon fill="#63b8ff" stroke="#63b8ff" points="97.63,-31.81 94.13,-21.81 90.63,-31.81 97.63,-31.81"/>
</a>
</g>
</g>
<!-- Node8 -->
<g id="Node000008" class="node">
<title>Node8</title>
<g id="a_Node000008"><a xlink:title=" ">
<polygon fill="#e0e0e0" stroke="#999999" points="312.25,-76 246,-76 246,-56 312.25,-56 312.25,-76"/>
<text xml:space="preserve" text-anchor="middle" x="279.12" y="-62.5" font-family="Helvetica,sans-Serif" font-size="10.00">sdkconfig.h</text>
</a>
</g>
</g>
<!-- Node7&#45;&gt;Node8 -->
<g id="edge7_Node000007_Node000008" class="edge">
<title>Node7&#45;&gt;Node8</title>
<g id="a_edge7_Node000007_Node000008"><a xlink:title=" ">
<path fill="none" stroke="#63b8ff" d="M260.96,-111.59C263.73,-104.78 267.59,-95.32 271.03,-86.86"/>
<polygon fill="#63b8ff" stroke="#63b8ff" points="274.23,-88.28 274.77,-77.7 267.75,-85.64 274.23,-88.28"/>
</a>
</g>
</g>
</g>
</svg>
</svg>

<style type='text/css'>
<![CDATA[
[data-mouse-over-selected='false'] { opacity: 0.7; }
[data-mouse-over-selected='true']  { opacity: 1.0; }
]]>
</style>
<script type="application/ecmascript"><![CDATA[
document.addEventListener('DOMContentLoaded', (event) => {
  highlightEdges();
  highlightAdjacentNodes();
});
]]></script>
</svg>
