<?xml version="1.0" encoding="UTF-8" standalone="no"?>
<!DOCTYPE svg PUBLIC "-//W3C//DTD SVG 1.1//EN"
 "http://www.w3.org/Graphics/SVG/1.1/DTD/svg11.dtd">
<!-- Generated by graphviz version 14.1.2 (20260124.0452)
 -->
<!-- Title: dsps_conv_f32_ansi.c Pages: 1 -->
<svg width="376pt" height="252pt"
 viewBox="0.00 0.00 376.00 252.00" xmlns="http://www.w3.org/2000/svg" xmlns:xlink="http://www.w3.org/1999/xlink">
<g id="graph0" class="graph" transform="scale(1 1) rotate(0) translate(4 248)">
<title>dsps_conv_f32_ansi.c</title>
<!-- Node1 -->
<g id="Node000001" class="node">
<title>Node1</title>
<g id="a_Node000001"><a xlink:title=" ">
<polygon fill="#999999" stroke="#666666" points="353.88,-244 240.38,-244 240.38,-224 353.88,-224 353.88,-244"/>
<text xml:space="preserve" text-anchor="middle" x="297.12" y="-230.5" font-family="Helvetica,sans-Serif" font-size="10.00">dsps_conv_f32_ansi.c</text>
</a>
</g>
</g>
<!-- Node2 -->
<g id="Node000002" class="node">
<title>Node2</title>
<g id="a_Node000002"><a xlink:href="dsps__conv_8h.html" target="_top" xlink:title=" ">
<polygon fill="white" stroke="#666666" points="291.5,-188 220.75,-188 220.75,-168 291.5,-168 291.5,-188"/>
<text xml:space="preserve" text-anchor="middle" x="256.12" y="-174.5" font-family="Helvetica,sans-Serif" font-size="10.00">dsps_conv.h</text>
</a>
</g>
</g>
<!-- Node1&#45;&gt;Node2 -->
<g id="edge1_Node000001_Node000002" class="edge">
<title>Node1&#45;&gt;Node2</title>
<g id="a_edge1_Node000001_Node000002"><a xlink:title=" ">
<path fill="none" stroke="#63b8ff" d="M289.98,-223.59C284.52,-216.39 276.8,-206.23 270.12,-197.43"/>
<polygon fill="#63b8ff" stroke="#63b8ff" points="272.93,-195.35 264.1,-189.5 267.36,-199.58 272.93,-195.35"/>
</a>
</g>
</g>
<!-- Node10 -->
<g id="Node000010" class="node">
<title>Node10</title>
<g id="a_Node000010"><a xlink:href="esp__log_8h.html" target="_top" xlink:title=" ">
<polygon fill="white" stroke="#666666" points="368.12,-188 310.12,-188 310.12,-168 368.12,-168 368.12,-188"/>
<text xml:space="preserve" text-anchor="middle" x="339.12" y="-174.5" font-family="Helvetica,sans-Serif" font-size="10.00">esp_log.h</text>
</a>
</g>
</g>
<!-- Node1&#45;&gt;Node10 -->
<g id="edge9_Node000001_Node000010" class="edge">
<title>Node1&#45;&gt;Node10</title>
<g id="a_edge9_Node000001_Node000010"><a xlink:title=" ">
<path fill="none" stroke="#63b8ff" d="M304.44,-223.59C310.1,-216.32 318.11,-206.02 325.01,-197.15"/>
<polygon fill="#63b8ff" stroke="#63b8ff" points="327.59,-199.54 330.96,-189.49 322.06,-195.24 327.59,-199.54"/>
</a>
</g>
</g>
<!-- Node3 -->
<g id="Node000003" class="node">
<title>Node3</title>
<g id="a_Node000003"><a xlink:href="dsp__err_8h.html" target="_top" xlink:title=" ">
<polygon fill="white" stroke="#666666" points="152.38,-132 95.88,-132 95.88,-112 152.38,-112 152.38,-132"/>
<text xml:space="preserve" text-anchor="middle" x="124.12" y="-118.5" font-family="Helvetica,sans-Serif" font-size="10.00">dsp_err.h</text>
</a>
</g>
</g>
<!-- Node2&#45;&gt;Node3 -->
<g id="edge2_Node000002_Node000003" class="edge">
<title>Node2&#45;&gt;Node3</title>
<g id="a_edge2_Node000002_Node000003"><a xlink:title=" ">
<path fill="none" stroke="#63b8ff" d="M233.13,-167.59C212.34,-159.09 181.47,-146.46 157.89,-136.81"/>
<polygon fill="#63b8ff" stroke="#63b8ff" points="159.28,-133.6 148.7,-133.05 156.63,-140.08 159.28,-133.6"/>
</a>
</g>
</g>
<!-- Node8 -->
<g id="Node000008" class="node">
<title>Node8</title>
<g id="a_Node000008"><a xlink:href="dsps__conv__platform_8h.html" target="_top" xlink:title=" ">
<polygon fill="white" stroke="#666666" points="312.12,-132 200.12,-132 200.12,-112 312.12,-112 312.12,-132"/>
<text xml:space="preserve" text-anchor="middle" x="256.12" y="-118.5" font-family="Helvetica,sans-Serif" font-size="10.00">dsps_conv_platform.h</text>
</a>
</g>
</g>
<!-- Node2&#45;&gt;Node8 -->
<g id="edge7_Node000002_Node000008" class="edge">
<title>Node2&#45;&gt;Node8</title>
<g id="a_edge7_Node000002_Node000008"><a xlink:title=" ">
<path fill="none" stroke="#63b8ff" d="M256.12,-167.59C256.12,-161.01 256.12,-151.96 256.12,-143.73"/>
<polygon fill="#63b8ff" stroke="#63b8ff" points="259.63,-143.81 256.13,-133.81 252.63,-143.81 259.63,-143.81"/>
</a>
</g>
</g>
<!-- Node4 -->
<g id="Node000004" class="node">
<title>Node4</title>
<g id="a_Node000004"><a xlink:title=" ">
<polygon fill="#e0e0e0" stroke="#999999" points="48.25,-76 0,-76 0,-56 48.25,-56 48.25,-76"/>
<text xml:space="preserve" text-anchor="middle" x="24.12" y="-62.5" font-family="Helvetica,sans-Serif" font-size="10.00">stdint.h</text>
</a>
</g>
</g>
<!-- Node3&#45;&gt;Node4 -->
<g id="edge3_Node000003_Node000004" class="edge">
<title>Node3&#45;&gt;Node4</title>
<g id="a_edge3_Node000003_Node000004"><a xlink:title=" ">
<path fill="none" stroke="#63b8ff" d="M106.71,-111.59C91.46,-103.36 69.05,-91.26 51.42,-81.74"/>
<polygon fill="#63b8ff" stroke="#63b8ff" points="53.47,-78.87 43.01,-77.2 50.15,-85.03 53.47,-78.87"/>
</a>
</g>
</g>
<!-- Node5 -->
<g id="Node000005" class="node">
<title>Node5</title>
<g id="a_Node000005"><a xlink:href="esp__err_8h.html" target="_top" xlink:title=" ">
<polygon fill="white" stroke="#666666" points="122.38,-76 65.88,-76 65.88,-56 122.38,-56 122.38,-76"/>
<text xml:space="preserve" text-anchor="middle" x="94.12" y="-62.5" font-family="Helvetica,sans-Serif" font-size="10.00">esp_err.h</text>
</a>
</g>
</g>
<!-- Node3&#45;&gt;Node5 -->
<g id="edge4_Node000003_Node000005" class="edge">
<title>Node3&#45;&gt;Node5</title>
<g id="a_edge4_Node000003_Node000005"><a xlink:title=" ">
<path fill="none" stroke="#63b8ff" d="M118.9,-111.59C115.03,-104.63 109.62,-94.89 104.84,-86.29"/>
<polygon fill="#63b8ff" stroke="#63b8ff" points="107.94,-84.66 100.03,-77.62 101.82,-88.06 107.94,-84.66"/>
</a>
</g>
</g>
<!-- Node7 -->
<g id="Node000007" class="node">
<title>Node7</title>
<g id="a_Node000007"><a xlink:href="dsp__err__codes_8h.html" target="_top" xlink:title=" ">
<polygon fill="white" stroke="#666666" points="228.12,-76 140.12,-76 140.12,-56 228.12,-56 228.12,-76"/>
<text xml:space="preserve" text-anchor="middle" x="184.12" y="-62.5" font-family="Helvetica,sans-Serif" font-size="10.00">dsp_err_codes.h</text>
</a>
</g>
</g>
<!-- Node3&#45;&gt;Node7 -->
<g id="edge6_Node000003_Node000007" class="edge">
<title>Node3&#45;&gt;Node7</title>
<g id="a_edge6_Node000003_Node000007"><a xlink:title=" ">
<path fill="none" stroke="#63b8ff" d="M134.58,-111.59C143.09,-103.93 155.34,-92.91 165.52,-83.75"/>
<polygon fill="#63b8ff" stroke="#63b8ff" points="167.58,-86.6 172.67,-77.31 162.89,-81.4 167.58,-86.6"/>
</a>
</g>
</g>
<!-- Node6 -->
<g id="Node000006" class="node">
<title>Node6</title>
<g id="a_Node000006"><a xlink:title=" ">
<polygon fill="#e0e0e0" stroke="#999999" points="240.88,-20 193.38,-20 193.38,0 240.88,0 240.88,-20"/>
<text xml:space="preserve" text-anchor="middle" x="217.12" y="-6.5" font-family="Helvetica,sans-Serif" font-size="10.00">stdlib.h</text>
</a>
</g>
</g>
<!-- Node5&#45;&gt;Node6 -->
<g id="edge5_Node000005_Node000006" class="edge">
<title>Node5&#45;&gt;Node6</title>
<g id="a_edge5_Node000005_Node000006"><a xlink:title=" ">
<path fill="none" stroke="#63b8ff" d="M115.55,-55.59C134.75,-47.17 163.17,-34.69 185.07,-25.07"/>
<polygon fill="#63b8ff" stroke="#63b8ff" points="186.4,-28.31 194.15,-21.09 183.58,-21.9 186.4,-28.31"/>
</a>
</g>
</g>
<!-- Node9 -->
<g id="Node000009" class="node">
<title>Node9</title>
<g id="a_Node000009"><a xlink:title=" ">
<polygon fill="#e0e0e0" stroke="#999999" points="312.25,-76 246,-76 246,-56 312.25,-56 312.25,-76"/>
<text xml:space="preserve" text-anchor="middle" x="279.12" y="-62.5" font-family="Helvetica,sans-Serif" font-size="10.00">sdkconfig.h</text>
</a>
</g>
</g>
<!-- Node8&#45;&gt;Node9 -->
<g id="edge8_Node000008_Node000009" class="edge">
<title>Node8&#45;&gt;Node9</title>
<g id="a_edge8_Node000008_Node000009"><a xlink:title=" ">
<path fill="none" stroke="#63b8ff" d="M260.13,-111.59C263.03,-104.78 267.06,-95.32 270.67,-86.86"/>
<polygon fill="#63b8ff" stroke="#63b8ff" points="273.87,-88.26 274.57,-77.69 267.43,-85.52 273.87,-88.26"/>
</a>
</g>
</g>
<!-- Node10&#45;&gt;Node6 -->
<g id="edge10_Node000010_Node000006" class="edge">
<title>Node10&#45;&gt;Node6</title>
<g id="a_edge10_Node000010_Node000006"><a xlink:title=" ">
<path fill="none" stroke="#63b8ff" d="M340.55,-167.66C343.36,-145.69 347.26,-90.02 321.12,-56 304.52,-34.38 275.41,-22.98 252.21,-17.07"/>
<polygon fill="#63b8ff" stroke="#63b8ff" points="253.04,-13.67 242.52,-14.86 251.49,-20.5 253.04,-13.67"/>
</a>
</g>
</g>
</g>
</svg>
