<?xml version="1.0" encoding="UTF-8" standalone="no"?>
<!DOCTYPE svg PUBLIC "-//W3C//DTD SVG 1.1//EN"
 "http://www.w3.org/Graphics/SVG/1.1/DTD/svg11.dtd">
<!-- Generated by graphviz version 14.1.2 (20260124.0452)
 -->
<!-- Title: dsps_addc_platform.h Pages: 1 -->
<svg width="238pt" height="196pt"
 viewBox="0.00 0.00 238.00 196.00" xmlns="http://www.w3.org/2000/svg" xmlns:xlink="http://www.w3.org/1999/xlink">
<g id="graph0" class="graph" transform="scale(1 1) rotate(0) translate(4 192)">
<title>dsps_addc_platform.h</title>
<!-- Node1 -->
<g id="Node000001" class="node">
<title>Node1</title>
<g id="a_Node000001"><a xlink:title=" ">
<polygon fill="#999999" stroke="#666666" points="167.75,-188 55.75,-188 55.75,-168 167.75,-168 167.75,-188"/>
<text xml:space="preserve" text-anchor="middle" x="111.75" y="-174.5" font-family="Helvetica,sans-Serif" font-size="10.00">dsps_addc_platform.h</text>
</a>
</g>
</g>
<!-- Node2 -->
<g id="Node000002" class="node">
<title>Node2</title>
<g id="a_Node000002"><a xlink:href="dsps__addc_8h.html" target="_top" xlink:title=" ">
<polygon fill="white" stroke="#666666" points="147.5,-132 76,-132 76,-112 147.5,-112 147.5,-132"/>
<text xml:space="preserve" text-anchor="middle" x="111.75" y="-118.5" font-family="Helvetica,sans-Serif" font-size="10.00">dsps_addc.h</text>
</a>
</g>
</g>
<!-- Node1&#45;&gt;Node2 -->
<g id="edge1_Node000001_Node000002" class="edge">
<title>Node1&#45;&gt;Node2</title>
<g id="a_edge1_Node000001_Node000002"><a xlink:title=" ">
<path fill="none" stroke="#63b8ff" d="M111.75,-156.13C111.75,-147.9 111.75,-138.85 111.75,-132.3"/>
<polygon fill="#63b8ff" stroke="#63b8ff" points="108.25,-156.08 111.75,-166.08 115.25,-156.08 108.25,-156.08"/>
</a>
</g>
</g>
<!-- Node3 -->
<g id="Node000003" class="node">
<title>Node3</title>
<g id="a_Node000003"><a xlink:href="dsps__addc__f32__ansi_8c.html" target="_top" xlink:title=" ">
<polygon fill="white" stroke="#666666" points="113.5,-76 0,-76 0,-56 113.5,-56 113.5,-76"/>
<text xml:space="preserve" text-anchor="middle" x="56.75" y="-62.5" font-family="Helvetica,sans-Serif" font-size="10.00">dsps_addc_f32_ansi.c</text>
</a>
</g>
</g>
<!-- Node2&#45;&gt;Node3 -->
<g id="edge2_Node000002_Node000003" class="edge">
<title>Node2&#45;&gt;Node3</title>
<g id="a_edge2_Node000002_Node000003"><a xlink:title=" ">
<path fill="none" stroke="#63b8ff" d="M93.99,-103.57C84.76,-94.5 73.84,-83.78 66.22,-76.3"/>
<polygon fill="#63b8ff" stroke="#63b8ff" points="91.5,-106.03 101.09,-110.53 96.41,-101.03 91.5,-106.03"/>
</a>
</g>
</g>
<!-- Node4 -->
<g id="Node000004" class="node">
<title>Node4</title>
<g id="a_Node000004"><a xlink:href="dsps__math_8h.html" target="_top" xlink:title=" ">
<polygon fill="white" stroke="#666666" points="203.88,-76 131.62,-76 131.62,-56 203.88,-56 203.88,-76"/>
<text xml:space="preserve" text-anchor="middle" x="167.75" y="-62.5" font-family="Helvetica,sans-Serif" font-size="10.00">dsps_math.h</text>
</a>
</g>
</g>
<!-- Node2&#45;&gt;Node4 -->
<g id="edge3_Node000002_Node000004" class="edge">
<title>Node2&#45;&gt;Node4</title>
<g id="a_edge3_Node000002_Node000004"><a xlink:title=" ">
<path fill="none" stroke="#63b8ff" d="M129.54,-103.85C139,-94.72 150.27,-83.86 158.11,-76.3"/>
<polygon fill="#63b8ff" stroke="#63b8ff" points="127.36,-101.08 122.59,-110.54 132.22,-106.12 127.36,-101.08"/>
</a>
</g>
</g>
<!-- Node5 -->
<g id="Node000005" class="node">
<title>Node5</title>
<g id="a_Node000005"><a xlink:href="esp__dsp_8h.html" target="_top" xlink:title=" ">
<polygon fill="#fff0f0" stroke="red" points="161.25,-20 100.25,-20 100.25,0 161.25,0 161.25,-20"/>
<text xml:space="preserve" text-anchor="middle" x="130.75" y="-6.5" font-family="Helvetica,sans-Serif" font-size="10.00">esp_dsp.h</text>
</a>
</g>
</g>
<!-- Node4&#45;&gt;Node5 -->
<g id="edge4_Node000004_Node000005" class="edge">
<title>Node4&#45;&gt;Node5</title>
<g id="a_edge4_Node000004_Node000005"><a xlink:title=" ">
<path fill="none" stroke="#63b8ff" d="M154.84,-46.15C148.84,-37.4 141.98,-27.39 137.12,-20.3"/>
<polygon fill="#63b8ff" stroke="#63b8ff" points="151.91,-48.07 160.45,-54.35 157.68,-44.12 151.91,-48.07"/>
</a>
</g>
</g>
<!-- Node39 -->
<g id="Node000039" class="node">
<title>Node39</title>
<g id="a_Node000039"><a xlink:href="mat_8cpp.html" target="_top" xlink:title=" ">
<polygon fill="white" stroke="#666666" points="230.38,-20 179.12,-20 179.12,0 230.38,0 230.38,-20"/>
<text xml:space="preserve" text-anchor="middle" x="204.75" y="-6.5" font-family="Helvetica,sans-Serif" font-size="10.00">mat.cpp</text>
</a>
</g>
</g>
<!-- Node4&#45;&gt;Node39 -->
<g id="edge5_Node000004_Node000039" class="edge">
<title>Node4&#45;&gt;Node39</title>
<g id="a_edge5_Node000004_Node000039"><a xlink:title=" ">
<path fill="none" stroke="#63b8ff" d="M180.66,-46.15C186.66,-37.4 193.52,-27.39 198.38,-20.3"/>
<polygon fill="#63b8ff" stroke="#63b8ff" points="177.82,-44.12 175.05,-54.35 183.59,-48.07 177.82,-44.12"/>
</a>
</g>
</g>
</g>
</svg>
