<?xml version="1.0" encoding="UTF-8" standalone="no"?>
<!DOCTYPE svg PUBLIC "-//W3C//DTD SVG 1.1//EN"
 "http://www.w3.org/Graphics/SVG/1.1/DTD/svg11.dtd">
<!-- Generated by graphviz version 14.1.2 (20260124.0452)
 -->
<!-- Title: dsps_fft2r_sc16_ansi.c Pages: 1 -->
<svg width="2133pt" height="476pt"
 viewBox="0.00 0.00 2133.00 476.00" xmlns="http://www.w3.org/2000/svg" xmlns:xlink="http://www.w3.org/1999/xlink">
<g id="graph0" class="graph" transform="scale(1 1) rotate(0) translate(4 472)">
<title>dsps_fft2r_sc16_ansi.c</title>
<!-- Node1 -->
<g id="Node000001" class="node">
<title>Node1</title>
<g id="a_Node000001"><a xlink:title=" ">
<polygon fill="#999999" stroke="#666666" points="1937.25,-468 1820.75,-468 1820.75,-448 1937.25,-448 1937.25,-468"/>
<text xml:space="preserve" text-anchor="middle" x="1879" y="-454.5" font-family="Helvetica,sans-Serif" font-size="10.00">dsps_fft2r_sc16_ansi.c</text>
</a>
</g>
</g>
<!-- Node2 -->
<g id="Node000002" class="node">
<title>Node2</title>
<g id="a_Node000002"><a xlink:href="dsps__fft2r_8h.html" target="_top" xlink:title=" ">
<polygon fill="white" stroke="#666666" points="364.5,-300 297.5,-300 297.5,-280 364.5,-280 364.5,-300"/>
<text xml:space="preserve" text-anchor="middle" x="331" y="-286.5" font-family="Helvetica,sans-Serif" font-size="10.00">dsps_fft2r.h</text>
</a>
</g>
</g>
<!-- Node1&#45;&gt;Node2 -->
<g id="edge1_Node000001_Node000002" class="edge">
<title>Node1&#45;&gt;Node2</title>
<g id="a_edge1_Node000001_Node000002"><a xlink:title=" ">
<path fill="none" stroke="#63b8ff" d="M1820.52,-451.13C1669.15,-435.89 1252.11,-393.65 905,-356 708.07,-334.64 473.34,-307.55 376.36,-296.28"/>
<polygon fill="#63b8ff" stroke="#63b8ff" points="376.79,-292.81 366.46,-295.13 375.99,-299.76 376.79,-292.81"/>
</a>
</g>
</g>
<!-- Node11 -->
<g id="Node000011" class="node">
<title>Node11</title>
<g id="a_Node000011"><a xlink:href="dsp__common_8h.html" target="_top" xlink:title=" ">
<polygon fill="white" stroke="#666666" points="1662.38,-188 1579.62,-188 1579.62,-168 1662.38,-168 1662.38,-188"/>
<text xml:space="preserve" text-anchor="middle" x="1621" y="-174.5" font-family="Helvetica,sans-Serif" font-size="10.00">dsp_common.h</text>
</a>
</g>
</g>
<!-- Node1&#45;&gt;Node11 -->
<g id="edge11_Node000001_Node000011" class="edge">
<title>Node1&#45;&gt;Node11</title>
<g id="a_edge11_Node000001_Node000011"><a xlink:title=" ">
<path fill="none" stroke="#63b8ff" d="M1867.87,-447.71C1858.42,-439.29 1845.14,-426.06 1837,-412 1821.86,-385.84 1817,-377.23 1817,-347 1817,-347 1817,-347 1817,-289 1817,-256.8 1809.82,-244.51 1785,-224 1768.04,-209.99 1715.27,-197.05 1674.12,-188.67"/>
<polygon fill="#63b8ff" stroke="#63b8ff" points="1674.84,-185.24 1664.35,-186.73 1673.47,-192.11 1674.84,-185.24"/>
</a>
</g>
</g>
<!-- Node15 -->
<g id="Node000015" class="node">
<title>Node15</title>
<g id="a_Node000015"><a xlink:href="dsp__types_8h.html" target="_top" xlink:title=" ">
<polygon fill="white" stroke="#666666" points="1775.62,-244 1706.38,-244 1706.38,-224 1775.62,-224 1775.62,-244"/>
<text xml:space="preserve" text-anchor="middle" x="1741" y="-230.5" font-family="Helvetica,sans-Serif" font-size="10.00">dsp_types.h</text>
</a>
</g>
</g>
<!-- Node1&#45;&gt;Node15 -->
<g id="edge17_Node000001_Node000015" class="edge">
<title>Node1&#45;&gt;Node15</title>
<g id="a_edge17_Node000001_Node000015"><a xlink:title=" ">
<path fill="none" stroke="#63b8ff" d="M1853.99,-447.56C1837.45,-440.16 1816.41,-428.37 1803,-412 1764.03,-364.45 1748.82,-290.76 1743.52,-255.35"/>
<polygon fill="#63b8ff" stroke="#63b8ff" points="1747.01,-255.09 1742.19,-245.66 1740.08,-256.04 1747.01,-255.09"/>
</a>
</g>
</g>
<!-- Node17 -->
<g id="Node000017" class="node">
<title>Node17</title>
<g id="a_Node000017"><a xlink:title=" ">
<polygon fill="#e0e0e0" stroke="#999999" points="1977,-412 1931,-412 1931,-392 1977,-392 1977,-412"/>
<text xml:space="preserve" text-anchor="middle" x="1954" y="-398.5" font-family="Helvetica,sans-Serif" font-size="10.00">math.h</text>
</a>
</g>
</g>
<!-- Node1&#45;&gt;Node17 -->
<g id="edge21_Node000001_Node000017" class="edge">
<title>Node1&#45;&gt;Node17</title>
<g id="a_edge21_Node000001_Node000017"><a xlink:title=" ">
<path fill="none" stroke="#63b8ff" d="M1892.06,-447.59C1902.97,-439.74 1918.75,-428.38 1931.66,-419.09"/>
<polygon fill="#63b8ff" stroke="#63b8ff" points="1933.54,-422.05 1939.61,-413.36 1929.45,-416.37 1933.54,-422.05"/>
</a>
</g>
</g>
<!-- Node18 -->
<g id="Node000018" class="node">
<title>Node18</title>
<g id="a_Node000018"><a xlink:href="esp__attr_8h.html" target="_top" xlink:title=" ">
<polygon fill="white" stroke="#666666" points="2054.75,-412 1995.25,-412 1995.25,-392 2054.75,-392 2054.75,-412"/>
<text xml:space="preserve" text-anchor="middle" x="2025" y="-398.5" font-family="Helvetica,sans-Serif" font-size="10.00">esp_attr.h</text>
</a>
</g>
</g>
<!-- Node1&#45;&gt;Node18 -->
<g id="edge22_Node000001_Node000018" class="edge">
<title>Node1&#45;&gt;Node18</title>
<g id="a_edge22_Node000001_Node000018"><a xlink:title=" ">
<path fill="none" stroke="#63b8ff" d="M1904.43,-447.59C1927.74,-438.97 1962.5,-426.12 1988.72,-416.42"/>
<polygon fill="#63b8ff" stroke="#63b8ff" points="1989.79,-419.76 1997.95,-413 1987.36,-413.19 1989.79,-419.76"/>
</a>
</g>
</g>
<!-- Node19 -->
<g id="Node000019" class="node">
<title>Node19</title>
<g id="a_Node000019"><a xlink:title=" ">
<polygon fill="#e0e0e0" stroke="#999999" points="2125.38,-412 2072.62,-412 2072.62,-392 2125.38,-392 2125.38,-412"/>
<text xml:space="preserve" text-anchor="middle" x="2099" y="-398.5" font-family="Helvetica,sans-Serif" font-size="10.00">malloc.h</text>
</a>
</g>
</g>
<!-- Node1&#45;&gt;Node19 -->
<g id="edge23_Node000001_Node000019" class="edge">
<title>Node1&#45;&gt;Node19</title>
<g id="a_edge23_Node000001_Node000019"><a xlink:title=" ">
<path fill="none" stroke="#63b8ff" d="M1918.37,-447.58C1953.51,-439.14 2006.65,-426.29 2061.31,-412.65"/>
<polygon fill="#63b8ff" stroke="#63b8ff" points="2061.94,-416.1 2070.79,-410.28 2060.24,-409.31 2061.94,-416.1"/>
</a>
</g>
</g>
<!-- Node20 -->
<g id="Node000020" class="node">
<title>Node20</title>
<g id="a_Node000020"><a xlink:href="dsp__tests_8h.html" target="_top" xlink:title=" ">
<polygon fill="white" stroke="#666666" points="1912.5,-412 1845.5,-412 1845.5,-392 1912.5,-392 1912.5,-412"/>
<text xml:space="preserve" text-anchor="middle" x="1879" y="-398.5" font-family="Helvetica,sans-Serif" font-size="10.00">dsp_tests.h</text>
</a>
</g>
</g>
<!-- Node1&#45;&gt;Node20 -->
<g id="edge24_Node000001_Node000020" class="edge">
<title>Node1&#45;&gt;Node20</title>
<g id="a_edge24_Node000001_Node000020"><a xlink:title=" ">
<path fill="none" stroke="#63b8ff" d="M1879,-447.59C1879,-441.01 1879,-431.96 1879,-423.73"/>
<polygon fill="#63b8ff" stroke="#63b8ff" points="1882.5,-423.81 1879,-413.81 1875.5,-423.81 1882.5,-423.81"/>
</a>
</g>
</g>
<!-- Node3 -->
<g id="Node000003" class="node">
<title>Node3</title>
<g id="a_Node000003"><a xlink:href="dsp__err_8h.html" target="_top" xlink:title=" ">
<polygon fill="white" stroke="#666666" points="1014.25,-132 957.75,-132 957.75,-112 1014.25,-112 1014.25,-132"/>
<text xml:space="preserve" text-anchor="middle" x="986" y="-118.5" font-family="Helvetica,sans-Serif" font-size="10.00">dsp_err.h</text>
</a>
</g>
</g>
<!-- Node2&#45;&gt;Node3 -->
<g id="edge2_Node000002_Node000003" class="edge">
<title>Node2&#45;&gt;Node3</title>
<g id="a_edge2_Node000002_Node000003"><a xlink:title=" ">
<path fill="none" stroke="#63b8ff" d="M297.1,-288.61C234.83,-286.63 111.95,-276.21 150,-224 197.84,-158.34 244.22,-183.31 324,-168 556.34,-123.41 841.94,-121.4 945.82,-122.35"/>
<polygon fill="#63b8ff" stroke="#63b8ff" points="945.74,-125.85 955.78,-122.46 945.82,-118.85 945.74,-125.85"/>
</a>
</g>
</g>
<!-- Node8 -->
<g id="Node000008" class="node">
<title>Node8</title>
<g id="a_Node000008"><a xlink:title=" ">
<polygon fill="#e0e0e0" stroke="#999999" points="399.12,-188 332.88,-188 332.88,-168 399.12,-168 399.12,-188"/>
<text xml:space="preserve" text-anchor="middle" x="366" y="-174.5" font-family="Helvetica,sans-Serif" font-size="10.00">sdkconfig.h</text>
</a>
</g>
</g>
<!-- Node2&#45;&gt;Node8 -->
<g id="edge7_Node000002_Node000008" class="edge">
<title>Node2&#45;&gt;Node8</title>
<g id="a_edge7_Node000002_Node000008"><a xlink:title=" ">
<path fill="none" stroke="#63b8ff" d="M324.82,-279.83C316.96,-266.93 305.37,-242.88 314,-224 319.38,-212.23 329.52,-202.36 339.43,-194.9"/>
<polygon fill="#63b8ff" stroke="#63b8ff" points="341.22,-197.91 347.45,-189.35 337.24,-192.16 341.22,-197.91"/>
</a>
</g>
</g>
<!-- Node9 -->
<g id="Node000009" class="node">
<title>Node9</title>
<g id="a_Node000009"><a xlink:href="dsps__fft__tables_8h.html" target="_top" xlink:title=" ">
<polygon fill="white" stroke="#666666" points="413.12,-244 322.88,-244 322.88,-224 413.12,-224 413.12,-244"/>
<text xml:space="preserve" text-anchor="middle" x="368" y="-230.5" font-family="Helvetica,sans-Serif" font-size="10.00">dsps_fft_tables.h</text>
</a>
</g>
</g>
<!-- Node2&#45;&gt;Node9 -->
<g id="edge8_Node000002_Node000009" class="edge">
<title>Node2&#45;&gt;Node9</title>
<g id="a_edge8_Node000002_Node000009"><a xlink:title=" ">
<path fill="none" stroke="#63b8ff" d="M337.44,-279.59C342.33,-272.47 349.19,-262.45 355.18,-253.72"/>
<polygon fill="#63b8ff" stroke="#63b8ff" points="358.01,-255.77 360.77,-245.55 352.23,-251.82 358.01,-255.77"/>
</a>
</g>
</g>
<!-- Node10 -->
<g id="Node000010" class="node">
<title>Node10</title>
<g id="a_Node000010"><a xlink:href="dsps__fft2r__platform_8h.html" target="_top" xlink:title=" ">
<polygon fill="white" stroke="#666666" points="266.75,-244 159.25,-244 159.25,-224 266.75,-224 266.75,-244"/>
<text xml:space="preserve" text-anchor="middle" x="213" y="-230.5" font-family="Helvetica,sans-Serif" font-size="10.00">dsps_fft2r_platform.h</text>
</a>
</g>
</g>
<!-- Node2&#45;&gt;Node10 -->
<g id="edge9_Node000002_Node000010" class="edge">
<title>Node2&#45;&gt;Node10</title>
<g id="a_edge9_Node000002_Node000010"><a xlink:title=" ">
<path fill="none" stroke="#63b8ff" d="M310.45,-279.59C292.12,-271.21 265.01,-258.8 244.04,-249.21"/>
<polygon fill="#63b8ff" stroke="#63b8ff" points="245.64,-246.09 235.09,-245.11 242.73,-252.45 245.64,-246.09"/>
</a>
</g>
</g>
<!-- Node4 -->
<g id="Node000004" class="node">
<title>Node4</title>
<g id="a_Node000004"><a xlink:title=" ">
<polygon fill="#e0e0e0" stroke="#999999" points="1532.12,-76 1483.88,-76 1483.88,-56 1532.12,-56 1532.12,-76"/>
<text xml:space="preserve" text-anchor="middle" x="1508" y="-62.5" font-family="Helvetica,sans-Serif" font-size="10.00">stdint.h</text>
</a>
</g>
</g>
<!-- Node3&#45;&gt;Node4 -->
<g id="edge3_Node000003_Node000004" class="edge">
<title>Node3&#45;&gt;Node4</title>
<g id="a_edge3_Node000003_Node000004"><a xlink:title=" ">
<path fill="none" stroke="#63b8ff" d="M1014.44,-118.06C1103.07,-108.89 1374.27,-80.83 1472.23,-70.7"/>
<polygon fill="#63b8ff" stroke="#63b8ff" points="1472.46,-74.2 1482.05,-69.68 1471.74,-67.23 1472.46,-74.2"/>
</a>
</g>
</g>
<!-- Node5 -->
<g id="Node000005" class="node">
<title>Node5</title>
<g id="a_Node000005"><a xlink:href="esp__err_8h.html" target="_top" xlink:title=" ">
<polygon fill="white" stroke="#666666" points="1014.25,-76 957.75,-76 957.75,-56 1014.25,-56 1014.25,-76"/>
<text xml:space="preserve" text-anchor="middle" x="986" y="-62.5" font-family="Helvetica,sans-Serif" font-size="10.00">esp_err.h</text>
</a>
</g>
</g>
<!-- Node3&#45;&gt;Node5 -->
<g id="edge4_Node000003_Node000005" class="edge">
<title>Node3&#45;&gt;Node5</title>
<g id="a_edge4_Node000003_Node000005"><a xlink:title=" ">
<path fill="none" stroke="#63b8ff" d="M986,-111.59C986,-105.01 986,-95.96 986,-87.73"/>
<polygon fill="#63b8ff" stroke="#63b8ff" points="989.5,-87.81 986,-77.81 982.5,-87.81 989.5,-87.81"/>
</a>
</g>
</g>
<!-- Node7 -->
<g id="Node000007" class="node">
<title>Node7</title>
<g id="a_Node000007"><a xlink:href="dsp__err__codes_8h.html" target="_top" xlink:title=" ">
<polygon fill="white" stroke="#666666" points="1120,-76 1032,-76 1032,-56 1120,-56 1120,-76"/>
<text xml:space="preserve" text-anchor="middle" x="1076" y="-62.5" font-family="Helvetica,sans-Serif" font-size="10.00">dsp_err_codes.h</text>
</a>
</g>
</g>
<!-- Node3&#45;&gt;Node7 -->
<g id="edge6_Node000003_Node000007" class="edge">
<title>Node3&#45;&gt;Node7</title>
<g id="a_edge6_Node000003_Node000007"><a xlink:title=" ">
<path fill="none" stroke="#63b8ff" d="M1001.68,-111.59C1015.14,-103.51 1034.82,-91.71 1050.54,-82.27"/>
<polygon fill="#63b8ff" stroke="#63b8ff" points="1052.13,-85.4 1058.9,-77.26 1048.53,-79.4 1052.13,-85.4"/>
</a>
</g>
</g>
<!-- Node6 -->
<g id="Node000006" class="node">
<title>Node6</title>
<g id="a_Node000006"><a xlink:title=" ">
<polygon fill="#e0e0e0" stroke="#999999" points="1462.75,-20 1415.25,-20 1415.25,0 1462.75,0 1462.75,-20"/>
<text xml:space="preserve" text-anchor="middle" x="1439" y="-6.5" font-family="Helvetica,sans-Serif" font-size="10.00">stdlib.h</text>
</a>
</g>
</g>
<!-- Node5&#45;&gt;Node6 -->
<g id="edge5_Node000005_Node000006" class="edge">
<title>Node5&#45;&gt;Node6</title>
<g id="a_edge5_Node000005_Node000006"><a xlink:title=" ">
<path fill="none" stroke="#63b8ff" d="M1014.61,-57.65C1017.43,-57.04 1020.26,-56.48 1023,-56 1162.97,-31.51 1331.92,-18.17 1403.84,-13.24"/>
<polygon fill="#63b8ff" stroke="#63b8ff" points="1403.68,-16.76 1413.42,-12.6 1403.21,-9.78 1403.68,-16.76"/>
</a>
</g>
</g>
<!-- Node10&#45;&gt;Node8 -->
<g id="edge10_Node000010_Node000008" class="edge">
<title>Node10&#45;&gt;Node8</title>
<g id="a_edge10_Node000010_Node000008"><a xlink:title=" ">
<path fill="none" stroke="#63b8ff" d="M239.65,-223.59C264.18,-214.94 300.83,-202 328.34,-192.29"/>
<polygon fill="#63b8ff" stroke="#63b8ff" points="329.45,-195.61 337.71,-188.98 327.12,-189.01 329.45,-195.61"/>
</a>
</g>
</g>
<!-- Node11&#45;&gt;Node3 -->
<g id="edge14_Node000011_Node000003" class="edge">
<title>Node11&#45;&gt;Node3</title>
<g id="a_edge14_Node000011_Node000003"><a xlink:title=" ">
<path fill="none" stroke="#63b8ff" d="M1579.31,-169.8C1574.83,-169.14 1570.32,-168.52 1566,-168 1363.58,-143.63 1119.75,-129.71 1025.68,-124.92"/>
<polygon fill="#63b8ff" stroke="#63b8ff" points="1026.12,-121.43 1015.96,-124.43 1025.77,-128.43 1026.12,-121.43"/>
</a>
</g>
</g>
<!-- Node11&#45;&gt;Node4 -->
<g id="edge12_Node000011_Node000004" class="edge">
<title>Node11&#45;&gt;Node4</title>
<g id="a_edge12_Node000011_Node000004"><a xlink:title=" ">
<path fill="none" stroke="#63b8ff" d="M1584.78,-167.57C1565.13,-160.72 1541.88,-149.51 1527,-132 1516.39,-119.52 1511.7,-101.36 1509.63,-87.41"/>
<polygon fill="#63b8ff" stroke="#63b8ff" points="1513.12,-87.12 1508.54,-77.57 1506.16,-87.9 1513.12,-87.12"/>
</a>
</g>
</g>
<!-- Node12 -->
<g id="Node000012" class="node">
<title>Node12</title>
<g id="a_Node000012"><a xlink:title=" ">
<polygon fill="#e0e0e0" stroke="#999999" points="1670.88,-132 1615.12,-132 1615.12,-112 1670.88,-112 1670.88,-132"/>
<text xml:space="preserve" text-anchor="middle" x="1643" y="-118.5" font-family="Helvetica,sans-Serif" font-size="10.00">stdbool.h</text>
</a>
</g>
</g>
<!-- Node11&#45;&gt;Node12 -->
<g id="edge13_Node000011_Node000012" class="edge">
<title>Node11&#45;&gt;Node12</title>
<g id="a_edge13_Node000011_Node000012"><a xlink:title=" ">
<path fill="none" stroke="#63b8ff" d="M1624.83,-167.59C1627.61,-160.78 1631.46,-151.32 1634.91,-142.86"/>
<polygon fill="#63b8ff" stroke="#63b8ff" points="1638.11,-144.28 1638.64,-133.7 1631.63,-141.64 1638.11,-144.28"/>
</a>
</g>
</g>
<!-- Node13 -->
<g id="Node000013" class="node">
<title>Node13</title>
<g id="a_Node000013"><a xlink:title=" ">
<polygon fill="#e0e0e0" stroke="#999999" points="1781.25,-132 1688.75,-132 1688.75,-112 1781.25,-112 1781.25,-132"/>
<text xml:space="preserve" text-anchor="middle" x="1735" y="-118.5" font-family="Helvetica,sans-Serif" font-size="10.00">esp_idf_version.h</text>
</a>
</g>
</g>
<!-- Node11&#45;&gt;Node13 -->
<g id="edge15_Node000011_Node000013" class="edge">
<title>Node11&#45;&gt;Node13</title>
<g id="a_edge15_Node000011_Node000013"><a xlink:title=" ">
<path fill="none" stroke="#63b8ff" d="M1640.86,-167.59C1658.49,-159.24 1684.51,-146.92 1704.73,-137.34"/>
<polygon fill="#63b8ff" stroke="#63b8ff" points="1706.08,-140.57 1713.62,-133.13 1703.08,-134.25 1706.08,-140.57"/>
</a>
</g>
</g>
<!-- Node14 -->
<g id="Node000014" class="node">
<title>Node14</title>
<g id="a_Node000014"><a xlink:title=" ">
<polygon fill="#e0e0e0" stroke="#999999" points="1597.5,-132 1536.5,-132 1536.5,-112 1597.5,-112 1597.5,-132"/>
<text xml:space="preserve" text-anchor="middle" x="1567" y="-118.5" font-family="Helvetica,sans-Serif" font-size="10.00">x86intrin.h</text>
</a>
</g>
</g>
<!-- Node11&#45;&gt;Node14 -->
<g id="edge16_Node000011_Node000014" class="edge">
<title>Node11&#45;&gt;Node14</title>
<g id="a_edge16_Node000011_Node000014"><a xlink:title=" ">
<path fill="none" stroke="#63b8ff" d="M1611.59,-167.59C1604.08,-160.08 1593.35,-149.35 1584.3,-140.3"/>
<polygon fill="#63b8ff" stroke="#63b8ff" points="1586.91,-137.96 1577.37,-133.37 1581.96,-142.91 1586.91,-137.96"/>
</a>
</g>
</g>
<!-- Node15&#45;&gt;Node4 -->
<g id="edge18_Node000015_Node000004" class="edge">
<title>Node15&#45;&gt;Node4</title>
<g id="a_edge18_Node000015_Node000004"><a xlink:title=" ">
<path fill="none" stroke="#63b8ff" d="M1750.59,-223.77C1772.03,-202.03 1819.71,-146.83 1790,-112 1758.74,-75.35 1612.44,-68.41 1543.77,-67.2"/>
<polygon fill="#63b8ff" stroke="#63b8ff" points="1543.84,-63.7 1533.79,-67.05 1543.74,-70.7 1543.84,-63.7"/>
</a>
</g>
</g>
<!-- Node15&#45;&gt;Node12 -->
<g id="edge19_Node000015_Node000012" class="edge">
<title>Node15&#45;&gt;Node12</title>
<g id="a_edge19_Node000015_Node000012"><a xlink:title=" ">
<path fill="none" stroke="#63b8ff" d="M1745.46,-223.72C1751.22,-210.26 1759.25,-185.06 1748,-168 1740.2,-156.18 1708.42,-143.54 1681.85,-134.68"/>
<polygon fill="#63b8ff" stroke="#63b8ff" points="1683.27,-131.46 1672.68,-131.71 1681.11,-138.12 1683.27,-131.46"/>
</a>
</g>
</g>
<!-- Node16 -->
<g id="Node000016" class="node">
<title>Node16</title>
<g id="a_Node000016"><a xlink:title=" ">
<polygon fill="#e0e0e0" stroke="#999999" points="1739.38,-188 1680.62,-188 1680.62,-168 1739.38,-168 1739.38,-188"/>
<text xml:space="preserve" text-anchor="middle" x="1710" y="-174.5" font-family="Helvetica,sans-Serif" font-size="10.00">inttypes.h</text>
</a>
</g>
</g>
<!-- Node15&#45;&gt;Node16 -->
<g id="edge20_Node000015_Node000016" class="edge">
<title>Node15&#45;&gt;Node16</title>
<g id="a_edge20_Node000015_Node000016"><a xlink:title=" ">
<path fill="none" stroke="#63b8ff" d="M1735.6,-223.59C1731.56,-216.55 1725.88,-206.67 1720.91,-198"/>
<polygon fill="#63b8ff" stroke="#63b8ff" points="1724.11,-196.54 1716.09,-189.61 1718.03,-200.03 1724.11,-196.54"/>
</a>
</g>
</g>
<!-- Node20&#45;&gt;Node6 -->
<g id="edge25_Node000020_Node000006" class="edge">
<title>Node20&#45;&gt;Node6</title>
<g id="a_edge25_Node000020_Node000006"><a xlink:title=" ">
<path fill="none" stroke="#63b8ff" d="M1881.01,-391.63C1884.88,-372.71 1893,-328.54 1893,-291 1893,-291 1893,-291 1893,-121 1893,-35 1581.43,-16 1474.51,-12.01"/>
<polygon fill="#63b8ff" stroke="#63b8ff" points="1474.72,-8.51 1464.6,-11.66 1474.47,-15.51 1474.72,-8.51"/>
</a>
</g>
</g>
<!-- Node20&#45;&gt;Node13 -->
<g id="edge26_Node000020_Node000013" class="edge">
<title>Node20&#45;&gt;Node13</title>
<g id="a_edge26_Node000020_Node000013"><a xlink:title=" ">
<path fill="none" stroke="#63b8ff" d="M1875.56,-391.73C1868.93,-372.99 1855,-329.12 1855,-291 1855,-291 1855,-291 1855,-233 1855,-186.31 1805.03,-154.08 1769.58,-137.08"/>
<polygon fill="#63b8ff" stroke="#63b8ff" points="1771.5,-134.11 1760.95,-133.12 1768.58,-140.47 1771.5,-134.11"/>
</a>
</g>
</g>
<!-- Node21 -->
<g id="Node000021" class="node">
<title>Node21</title>
<g id="a_Node000021"><a xlink:href="esp__dsp_8h.html" target="_top" xlink:title=" ">
<polygon fill="white" stroke="#666666" points="975.5,-356 914.5,-356 914.5,-336 975.5,-336 975.5,-356"/>
<text xml:space="preserve" text-anchor="middle" x="945" y="-342.5" font-family="Helvetica,sans-Serif" font-size="10.00">esp_dsp.h</text>
</a>
</g>
</g>
<!-- Node20&#45;&gt;Node21 -->
<g id="edge27_Node000020_Node000021" class="edge">
<title>Node20&#45;&gt;Node21</title>
<g id="a_edge27_Node000020_Node000021"><a xlink:title=" ">
<path fill="none" stroke="#63b8ff" d="M1845.21,-399.05C1701.95,-390.76 1144.91,-358.56 986.96,-349.43"/>
<polygon fill="#63b8ff" stroke="#63b8ff" points="987.56,-345.95 977.38,-348.87 987.16,-352.94 987.56,-345.95"/>
</a>
</g>
</g>
<!-- Node21&#45;&gt;Node2 -->
<g id="edge58_Node000021_Node000002" class="edge">
<title>Node21&#45;&gt;Node2</title>
<g id="a_edge58_Node000021_Node000002"><a xlink:title=" ">
<path fill="none" stroke="#63b8ff" d="M914.09,-342.66C832.27,-336.39 603.28,-318.49 413,-300 401.01,-298.84 388.05,-297.46 376.04,-296.15"/>
<polygon fill="#63b8ff" stroke="#63b8ff" points="376.72,-292.7 366.4,-295.08 375.95,-299.66 376.72,-292.7"/>
</a>
</g>
</g>
<!-- Node21&#45;&gt;Node11 -->
<g id="edge28_Node000021_Node000011" class="edge">
<title>Node21&#45;&gt;Node11</title>
<g id="a_edge28_Node000021_Node000011"><a xlink:title=" ">
<path fill="none" stroke="#63b8ff" d="M975.65,-345.04C1098.51,-344.93 1551.04,-341.68 1598,-300 1626.16,-275 1626.46,-227.14 1623.91,-199.69"/>
<polygon fill="#63b8ff" stroke="#63b8ff" points="1627.4,-199.39 1622.75,-189.87 1620.44,-200.21 1627.4,-199.39"/>
</a>
</g>
</g>
<!-- Node21&#45;&gt;Node15 -->
<g id="edge29_Node000021_Node000015" class="edge">
<title>Node21&#45;&gt;Node15</title>
<g id="a_edge29_Node000021_Node000015"><a xlink:title=" ">
<path fill="none" stroke="#63b8ff" d="M975.61,-345.27C1112.31,-346.23 1662.79,-347.12 1722,-300 1735.22,-289.48 1739.59,-270.28 1740.87,-255.46"/>
<polygon fill="#63b8ff" stroke="#63b8ff" points="1744.35,-255.99 1741.29,-245.85 1737.36,-255.69 1744.35,-255.99"/>
</a>
</g>
</g>
<!-- Node22 -->
<g id="Node000022" class="node">
<title>Node22</title>
<g id="a_Node000022"><a xlink:href="dsps__dotprod_8h.html" target="_top" xlink:title=" ">
<polygon fill="#fff0f0" stroke="red" points="772.38,-188 689.62,-188 689.62,-168 772.38,-168 772.38,-188"/>
<text xml:space="preserve" text-anchor="middle" x="731" y="-174.5" font-family="Helvetica,sans-Serif" font-size="10.00">dsps_dotprod.h</text>
</a>
</g>
</g>
<!-- Node21&#45;&gt;Node22 -->
<g id="edge30_Node000021_Node000022" class="edge">
<title>Node21&#45;&gt;Node22</title>
<g id="a_edge30_Node000021_Node000022"><a xlink:title=" ">
<path fill="none" stroke="#63b8ff" d="M917.32,-335.51C896.84,-327.74 868.81,-315.52 847,-300 804.72,-269.91 765.05,-223.03 744.88,-197.35"/>
<polygon fill="#63b8ff" stroke="#63b8ff" points="747.72,-195.3 738.84,-189.53 742.18,-199.58 747.72,-195.3"/>
</a>
</g>
</g>
<!-- Node25 -->
<g id="Node000025" class="node">
<title>Node25</title>
<g id="a_Node000025"><a xlink:href="dsps__math_8h.html" target="_top" xlink:title=" ">
<polygon fill="#fff0f0" stroke="red" points="1401.12,-300 1328.88,-300 1328.88,-280 1401.12,-280 1401.12,-300"/>
<text xml:space="preserve" text-anchor="middle" x="1365" y="-286.5" font-family="Helvetica,sans-Serif" font-size="10.00">dsps_math.h</text>
</a>
</g>
</g>
<!-- Node21&#45;&gt;Node25 -->
<g id="edge32_Node000021_Node000025" class="edge">
<title>Node21&#45;&gt;Node25</title>
<g id="a_edge32_Node000021_Node000025"><a xlink:title=" ">
<path fill="none" stroke="#63b8ff" d="M975.74,-342.13C1038.16,-336.13 1184.47,-321.17 1317.51,-300.29"/>
<polygon fill="#63b8ff" stroke="#63b8ff" points="1317.87,-303.78 1327.2,-298.75 1316.77,-296.86 1317.87,-303.78"/>
</a>
</g>
</g>
<!-- Node37 -->
<g id="Node000037" class="node">
<title>Node37</title>
<g id="a_Node000037"><a xlink:href="dsps__fir_8h.html" target="_top" xlink:title=" ">
<polygon fill="#fff0f0" stroke="red" points="1110.38,-244 1051.62,-244 1051.62,-224 1110.38,-224 1110.38,-244"/>
<text xml:space="preserve" text-anchor="middle" x="1081" y="-230.5" font-family="Helvetica,sans-Serif" font-size="10.00">dsps_fir.h</text>
</a>
</g>
</g>
<!-- Node21&#45;&gt;Node37 -->
<g id="edge33_Node000021_Node000037" class="edge">
<title>Node21&#45;&gt;Node37</title>
<g id="a_edge33_Node000021_Node000037"><a xlink:title=" ">
<path fill="none" stroke="#63b8ff" d="M974.19,-335.52C993.8,-328.1 1019.37,-316.29 1038,-300 1052.63,-287.21 1064.38,-268.31 1071.87,-254.19"/>
<polygon fill="#63b8ff" stroke="#63b8ff" points="1074.9,-255.95 1076.27,-245.44 1068.65,-252.81 1074.9,-255.95"/>
</a>
</g>
</g>
<!-- Node39 -->
<g id="Node000039" class="node">
<title>Node39</title>
<g id="a_Node000039"><a xlink:href="dsps__resampler_8h.html" target="_top" xlink:title=" ">
<polygon fill="white" stroke="#666666" points="1028.62,-300 935.38,-300 935.38,-280 1028.62,-280 1028.62,-300"/>
<text xml:space="preserve" text-anchor="middle" x="982" y="-286.5" font-family="Helvetica,sans-Serif" font-size="10.00">dsps_resampler.h</text>
</a>
</g>
</g>
<!-- Node21&#45;&gt;Node39 -->
<g id="edge36_Node000021_Node000039" class="edge">
<title>Node21&#45;&gt;Node39</title>
<g id="a_edge36_Node000021_Node000039"><a xlink:title=" ">
<path fill="none" stroke="#63b8ff" d="M951.44,-335.59C956.33,-328.47 963.19,-318.45 969.18,-309.72"/>
<polygon fill="#63b8ff" stroke="#63b8ff" points="972.01,-311.77 974.77,-301.55 966.23,-307.82 972.01,-311.77"/>
</a>
</g>
</g>
<!-- Node40 -->
<g id="Node000040" class="node">
<title>Node40</title>
<g id="a_Node000040"><a xlink:href="dsps__biquad_8h.html" target="_top" xlink:title=" ">
<polygon fill="#fff0f0" stroke="red" points="869.5,-188 790.5,-188 790.5,-168 869.5,-168 869.5,-188"/>
<text xml:space="preserve" text-anchor="middle" x="830" y="-174.5" font-family="Helvetica,sans-Serif" font-size="10.00">dsps_biquad.h</text>
</a>
</g>
</g>
<!-- Node21&#45;&gt;Node40 -->
<g id="edge39_Node000021_Node000040" class="edge">
<title>Node21&#45;&gt;Node40</title>
<g id="a_edge39_Node000021_Node000040"><a xlink:title=" ">
<path fill="none" stroke="#63b8ff" d="M916.89,-335.52C899.25,-328.28 877.22,-316.68 863,-300 838.48,-271.24 832.04,-225.84 830.43,-199.6"/>
<polygon fill="#63b8ff" stroke="#63b8ff" points="833.94,-199.77 830.04,-189.92 826.95,-200.06 833.94,-199.77"/>
</a>
</g>
</g>
<!-- Node42 -->
<g id="Node000042" class="node">
<title>Node42</title>
<g id="a_Node000042"><a xlink:href="dsps__biquad__gen_8h.html" target="_top" xlink:title=" ">
<polygon fill="white" stroke="#666666" points="727,-244 627,-244 627,-224 727,-224 727,-244"/>
<text xml:space="preserve" text-anchor="middle" x="677" y="-230.5" font-family="Helvetica,sans-Serif" font-size="10.00">dsps_biquad_gen.h</text>
</a>
</g>
</g>
<!-- Node21&#45;&gt;Node42 -->
<g id="edge41_Node000021_Node000042" class="edge">
<title>Node21&#45;&gt;Node42</title>
<g id="a_edge41_Node000021_Node000042"><a xlink:title=" ">
<path fill="none" stroke="#63b8ff" d="M914.05,-343.61C872.33,-340.58 796.86,-330.89 741,-300 720.08,-288.43 701.58,-267.91 689.92,-253.01"/>
<polygon fill="#63b8ff" stroke="#63b8ff" points="693,-251.29 684.2,-245.4 687.41,-255.49 693,-251.29"/>
</a>
</g>
</g>
<!-- Node43 -->
<g id="Node000043" class="node">
<title>Node43</title>
<g id="a_Node000043"><a xlink:href="dsps__wind_8h.html" target="_top" xlink:title=" ">
<polygon fill="#fff0f0" stroke="red" points="1490.38,-300 1419.62,-300 1419.62,-280 1490.38,-280 1490.38,-300"/>
<text xml:space="preserve" text-anchor="middle" x="1455" y="-286.5" font-family="Helvetica,sans-Serif" font-size="10.00">dsps_wind.h</text>
</a>
</g>
</g>
<!-- Node21&#45;&gt;Node43 -->
<g id="edge43_Node000021_Node000043" class="edge">
<title>Node21&#45;&gt;Node43</title>
<g id="a_edge43_Node000021_Node000043"><a xlink:title=" ">
<path fill="none" stroke="#63b8ff" d="M975.87,-343.09C1049.01,-338.35 1238.74,-324.69 1407.83,-300.17"/>
<polygon fill="#63b8ff" stroke="#63b8ff" points="1408.31,-303.64 1417.7,-298.72 1407.3,-296.71 1408.31,-303.64"/>
</a>
</g>
</g>
<!-- Node50 -->
<g id="Node000050" class="node">
<title>Node50</title>
<g id="a_Node000050"><a xlink:href="dsps__conv_8h.html" target="_top" xlink:title=" ">
<polygon fill="#fff0f0" stroke="red" points="958.38,-188 887.62,-188 887.62,-168 958.38,-168 958.38,-188"/>
<text xml:space="preserve" text-anchor="middle" x="923" y="-174.5" font-family="Helvetica,sans-Serif" font-size="10.00">dsps_conv.h</text>
</a>
</g>
</g>
<!-- Node21&#45;&gt;Node50 -->
<g id="edge44_Node000021_Node000050" class="edge">
<title>Node21&#45;&gt;Node50</title>
<g id="a_edge44_Node000021_Node000050"><a xlink:title=" ">
<path fill="none" stroke="#63b8ff" d="M928.87,-335.57C915.72,-327.34 897.23,-314.47 884,-300 864.36,-278.51 857.85,-272.04 850,-244 847.6,-235.44 845.67,-231.76 850,-224 857.63,-210.33 871.32,-200.29 884.79,-193.21"/>
<polygon fill="#63b8ff" stroke="#63b8ff" points="886.07,-196.48 893.59,-189.02 883.05,-190.17 886.07,-196.48"/>
</a>
</g>
</g>
<!-- Node52 -->
<g id="Node000052" class="node">
<title>Node52</title>
<g id="a_Node000052"><a xlink:href="dsps__corr_8h.html" target="_top" xlink:title=" ">
<polygon fill="#fff0f0" stroke="red" points="926.5,-244 859.5,-244 859.5,-224 926.5,-224 926.5,-244"/>
<text xml:space="preserve" text-anchor="middle" x="893" y="-230.5" font-family="Helvetica,sans-Serif" font-size="10.00">dsps_corr.h</text>
</a>
</g>
</g>
<!-- Node21&#45;&gt;Node52 -->
<g id="edge46_Node000021_Node000052" class="edge">
<title>Node21&#45;&gt;Node52</title>
<g id="a_edge46_Node000021_Node000052"><a xlink:title=" ">
<path fill="none" stroke="#63b8ff" d="M927.7,-335.51C915.49,-327.75 900.1,-315.53 893,-300 886.67,-286.16 887.01,-268.85 888.75,-255.58"/>
<polygon fill="#63b8ff" stroke="#63b8ff" points="892.18,-256.28 890.42,-245.83 885.28,-255.1 892.18,-256.28"/>
</a>
</g>
</g>
<!-- Node53 -->
<g id="Node000053" class="node">
<title>Node53</title>
<g id="a_Node000053"><a xlink:href="dsps__d__gen_8h.html" target="_top" xlink:title=" ">
<polygon fill="white" stroke="#666666" points="1090.38,-188 1013.62,-188 1013.62,-168 1090.38,-168 1090.38,-188"/>
<text xml:space="preserve" text-anchor="middle" x="1052" y="-174.5" font-family="Helvetica,sans-Serif" font-size="10.00">dsps_d_gen.h</text>
</a>
</g>
</g>
<!-- Node21&#45;&gt;Node53 -->
<g id="edge48_Node000021_Node000053" class="edge">
<title>Node21&#45;&gt;Node53</title>
<g id="a_edge48_Node000021_Node000053"><a xlink:title=" ">
<path fill="none" stroke="#63b8ff" d="M938.26,-335.83C929.67,-322.92 916.94,-298.87 926,-280 945.54,-239.3 990.34,-209.85 1020.9,-193.59"/>
<polygon fill="#63b8ff" stroke="#63b8ff" points="1022.4,-196.75 1029.71,-189.08 1019.21,-190.52 1022.4,-196.75"/>
</a>
</g>
</g>
<!-- Node54 -->
<g id="Node000054" class="node">
<title>Node54</title>
<g id="a_Node000054"><a xlink:href="dsps__h__gen_8h.html" target="_top" xlink:title=" ">
<polygon fill="white" stroke="#666666" points="1205.38,-244 1128.62,-244 1128.62,-224 1205.38,-224 1205.38,-244"/>
<text xml:space="preserve" text-anchor="middle" x="1167" y="-230.5" font-family="Helvetica,sans-Serif" font-size="10.00">dsps_h_gen.h</text>
</a>
</g>
</g>
<!-- Node21&#45;&gt;Node54 -->
<g id="edge50_Node000021_Node000054" class="edge">
<title>Node21&#45;&gt;Node54</title>
<g id="a_edge50_Node000021_Node000054"><a xlink:title=" ">
<path fill="none" stroke="#63b8ff" d="M973.26,-335.64C997.13,-327.36 1031.97,-314.39 1061,-300 1090.75,-285.26 1123.02,-264.76 1144.04,-250.75"/>
<polygon fill="#63b8ff" stroke="#63b8ff" points="1145.8,-253.78 1152.14,-245.29 1141.89,-247.98 1145.8,-253.78"/>
</a>
</g>
</g>
<!-- Node55 -->
<g id="Node000055" class="node">
<title>Node55</title>
<g id="a_Node000055"><a xlink:href="dsps__tone__gen_8h.html" target="_top" xlink:title=" ">
<polygon fill="white" stroke="#666666" points="1213.12,-300 1122.88,-300 1122.88,-280 1213.12,-280 1213.12,-300"/>
<text xml:space="preserve" text-anchor="middle" x="1168" y="-286.5" font-family="Helvetica,sans-Serif" font-size="10.00">dsps_tone_gen.h</text>
</a>
</g>
</g>
<!-- Node21&#45;&gt;Node55 -->
<g id="edge52_Node000021_Node000055" class="edge">
<title>Node21&#45;&gt;Node55</title>
<g id="a_edge52_Node000021_Node000055"><a xlink:title=" ">
<path fill="none" stroke="#63b8ff" d="M975.54,-337.6C1012.19,-328.73 1074.16,-313.72 1117.87,-303.14"/>
<polygon fill="#63b8ff" stroke="#63b8ff" points="1118.47,-306.6 1127.36,-300.84 1116.82,-299.79 1118.47,-306.6"/>
</a>
</g>
</g>
<!-- Node56 -->
<g id="Node000056" class="node">
<title>Node56</title>
<g id="a_Node000056"><a xlink:href="dsps__snr_8h.html" target="_top" xlink:title=" ">
<polygon fill="white" stroke="#666666" points="64,-244 0,-244 0,-224 64,-224 64,-244"/>
<text xml:space="preserve" text-anchor="middle" x="32" y="-230.5" font-family="Helvetica,sans-Serif" font-size="10.00">dsps_snr.h</text>
</a>
</g>
</g>
<!-- Node21&#45;&gt;Node56 -->
<g id="edge54_Node000021_Node000056" class="edge">
<title>Node21&#45;&gt;Node56</title>
<g id="a_edge54_Node000021_Node000056"><a xlink:title=" ">
<path fill="none" stroke="#63b8ff" d="M914.23,-344.96C768.7,-344.58 153.55,-340.57 79,-300 60.69,-290.04 47.73,-269.51 40.11,-254.17"/>
<polygon fill="#63b8ff" stroke="#63b8ff" points="43.5,-253.15 36.15,-245.52 37.13,-256.07 43.5,-253.15"/>
</a>
</g>
</g>
<!-- Node57 -->
<g id="Node000057" class="node">
<title>Node57</title>
<g id="a_Node000057"><a xlink:href="dsps__sfdr_8h.html" target="_top" xlink:title=" ">
<polygon fill="white" stroke="#666666" points="126.5,-188 59.5,-188 59.5,-168 126.5,-168 126.5,-188"/>
<text xml:space="preserve" text-anchor="middle" x="93" y="-174.5" font-family="Helvetica,sans-Serif" font-size="10.00">dsps_sfdr.h</text>
</a>
</g>
</g>
<!-- Node21&#45;&gt;Node57 -->
<g id="edge56_Node000021_Node000057" class="edge">
<title>Node21&#45;&gt;Node57</title>
<g id="a_edge56_Node000021_Node000057"><a xlink:title=" ">
<path fill="none" stroke="#63b8ff" d="M914.31,-344.08C801.48,-340.52 409.92,-326.49 288,-300 218.87,-284.98 195.01,-287.22 139,-244 123.13,-231.75 110.47,-212.52 102.49,-198.15"/>
<polygon fill="#63b8ff" stroke="#63b8ff" points="105.77,-196.87 98.02,-189.64 99.57,-200.12 105.77,-196.87"/>
</a>
</g>
</g>
<!-- Node58 -->
<g id="Node000058" class="node">
<title>Node58</title>
<g id="a_Node000058"><a xlink:href="dsps__fft4r_8h.html" target="_top" xlink:title=" ">
<polygon fill="#fff0f0" stroke="red" points="489.5,-300 422.5,-300 422.5,-280 489.5,-280 489.5,-300"/>
<text xml:space="preserve" text-anchor="middle" x="456" y="-286.5" font-family="Helvetica,sans-Serif" font-size="10.00">dsps_fft4r.h</text>
</a>
</g>
</g>
<!-- Node21&#45;&gt;Node58 -->
<g id="edge59_Node000021_Node000058" class="edge">
<title>Node21&#45;&gt;Node58</title>
<g id="a_edge59_Node000021_Node000058"><a xlink:title=" ">
<path fill="none" stroke="#63b8ff" d="M914.24,-341.72C845.74,-334.4 675.46,-316.11 533,-300 522.59,-298.82 511.39,-297.53 500.84,-296.3"/>
<polygon fill="#63b8ff" stroke="#63b8ff" points="501.57,-292.86 491.23,-295.17 500.76,-299.81 501.57,-292.86"/>
</a>
</g>
</g>
<!-- Node60 -->
<g id="Node000060" class="node">
<title>Node60</title>
<g id="a_Node000060"><a xlink:href="dsps__dct_8h.html" target="_top" xlink:title=" ">
<polygon fill="white" stroke="#666666" points="533,-244 469,-244 469,-224 533,-224 533,-244"/>
<text xml:space="preserve" text-anchor="middle" x="501" y="-230.5" font-family="Helvetica,sans-Serif" font-size="10.00">dsps_dct.h</text>
</a>
</g>
</g>
<!-- Node21&#45;&gt;Node60 -->
<g id="edge63_Node000021_Node000060" class="edge">
<title>Node21&#45;&gt;Node60</title>
<g id="a_edge63_Node000021_Node000060"><a xlink:title=" ">
<path fill="none" stroke="#63b8ff" d="M914.1,-343.24C838.2,-338.57 644.46,-324.54 585,-300 558.54,-289.08 533.28,-267.5 517.49,-252.2"/>
<polygon fill="#63b8ff" stroke="#63b8ff" points="520.37,-250.13 510.82,-245.53 515.42,-255.08 520.37,-250.13"/>
</a>
</g>
</g>
<!-- Node61 -->
<g id="Node000061" class="node">
<title>Node61</title>
<g id="a_Node000061"><a xlink:href="dspm__matrix_8h.html" target="_top" xlink:title=" ">
<polygon fill="#fff0f0" stroke="red" points="1589.25,-300 1508.75,-300 1508.75,-280 1589.25,-280 1589.25,-300"/>
<text xml:space="preserve" text-anchor="middle" x="1549" y="-286.5" font-family="Helvetica,sans-Serif" font-size="10.00">dspm_matrix.h</text>
</a>
</g>
</g>
<!-- Node21&#45;&gt;Node61 -->
<g id="edge66_Node000021_Node000061" class="edge">
<title>Node21&#45;&gt;Node61</title>
<g id="a_edge66_Node000021_Node000061"><a xlink:title=" ">
<path fill="none" stroke="#63b8ff" d="M975.74,-343.55C1058.28,-339.44 1291.8,-326.36 1497.09,-300.11"/>
<polygon fill="#63b8ff" stroke="#63b8ff" points="1497.42,-303.6 1506.89,-298.84 1496.52,-296.66 1497.42,-303.6"/>
</a>
</g>
</g>
<!-- Node72 -->
<g id="Node000072" class="node">
<title>Node72</title>
<g id="a_Node000072"><a xlink:href="dsps__view_8h.html" target="_top" xlink:title=" ">
<polygon fill="white" stroke="#666666" points="634,-188 564,-188 564,-168 634,-168 634,-188"/>
<text xml:space="preserve" text-anchor="middle" x="599" y="-174.5" font-family="Helvetica,sans-Serif" font-size="10.00">dsps_view.h</text>
</a>
</g>
</g>
<!-- Node21&#45;&gt;Node72 -->
<g id="edge67_Node000021_Node000072" class="edge">
<title>Node21&#45;&gt;Node72</title>
<g id="a_edge67_Node000021_Node000072"><a xlink:title=" ">
<path fill="none" stroke="#63b8ff" d="M914.14,-342.54C868.46,-338.13 780.73,-326.72 711,-300 665.95,-282.73 647.45,-282.22 618,-244 608.11,-231.17 603.36,-213.31 601.09,-199.56"/>
<polygon fill="#63b8ff" stroke="#63b8ff" points="604.58,-199.31 599.81,-189.85 597.64,-200.22 604.58,-199.31"/>
</a>
</g>
</g>
<!-- Node73 -->
<g id="Node000073" class="node">
<title>Node73</title>
<g id="a_Node000073"><a xlink:href="dspi__dotprod_8h.html" target="_top" xlink:title=" ">
<polygon fill="#fff0f0" stroke="red" points="1310.88,-300 1231.12,-300 1231.12,-280 1310.88,-280 1310.88,-300"/>
<text xml:space="preserve" text-anchor="middle" x="1271" y="-286.5" font-family="Helvetica,sans-Serif" font-size="10.00">dspi_dotprod.h</text>
</a>
</g>
</g>
<!-- Node21&#45;&gt;Node73 -->
<g id="edge69_Node000021_Node000073" class="edge">
<title>Node21&#45;&gt;Node73</title>
<g id="a_edge69_Node000021_Node000073"><a xlink:title=" ">
<path fill="none" stroke="#63b8ff" d="M975.78,-340.21C1024.99,-332.51 1124.73,-316.72 1219.42,-300.42"/>
<polygon fill="#63b8ff" stroke="#63b8ff" points="1219.89,-303.89 1229.14,-298.74 1218.69,-296.99 1219.89,-303.89"/>
</a>
</g>
</g>
<!-- Node75 -->
<g id="Node000075" class="node">
<title>Node75</title>
<g id="a_Node000075"><a xlink:href="dspi__conv_8h.html" target="_top" xlink:title=" ">
<polygon fill="#fff0f0" stroke="red" points="1712.88,-300 1645.12,-300 1645.12,-280 1712.88,-280 1712.88,-300"/>
<text xml:space="preserve" text-anchor="middle" x="1679" y="-286.5" font-family="Helvetica,sans-Serif" font-size="10.00">dspi_conv.h</text>
</a>
</g>
</g>
<!-- Node21&#45;&gt;Node75 -->
<g id="edge72_Node000021_Node000075" class="edge">
<title>Node21&#45;&gt;Node75</title>
<g id="a_edge72_Node000021_Node000075"><a xlink:title=" ">
<path fill="none" stroke="#63b8ff" d="M975.89,-344.29C1072.81,-341.79 1379.37,-331.73 1631,-300 1631.84,-299.89 1632.68,-299.78 1633.53,-299.67"/>
<polygon fill="#63b8ff" stroke="#63b8ff" points="1633.88,-303.15 1643.23,-298.17 1632.82,-296.24 1633.88,-303.15"/>
</a>
</g>
</g>
<!-- Node22&#45;&gt;Node3 -->
<g id="edge31_Node000022_Node000003" class="edge">
<title>Node22&#45;&gt;Node3</title>
<g id="a_edge31_Node000022_Node000003"><a xlink:title=" ">
<path fill="none" stroke="#63b8ff" d="M772.82,-168.14C820.99,-157.94 899.52,-141.31 946.63,-131.34"/>
<polygon fill="#63b8ff" stroke="#63b8ff" points="947.06,-134.82 956.12,-129.33 945.61,-127.97 947.06,-134.82"/>
</a>
</g>
</g>
<!-- Node37&#45;&gt;Node3 -->
<g id="edge34_Node000037_Node000003" class="edge">
<title>Node37&#45;&gt;Node3</title>
<g id="a_edge34_Node000037_Node000003"><a xlink:title=" ">
<path fill="none" stroke="#63b8ff" d="M1097.56,-223.66C1117.6,-211.15 1146.91,-188.19 1132,-168 1107.8,-135.22 1060.06,-125.57 1025.76,-123.11"/>
<polygon fill="#63b8ff" stroke="#63b8ff" points="1026.37,-119.63 1016.2,-122.6 1026,-126.62 1026.37,-119.63"/>
</a>
</g>
</g>
<!-- Node37&#45;&gt;Node11 -->
<g id="edge35_Node000037_Node000011" class="edge">
<title>Node37&#45;&gt;Node11</title>
<g id="a_edge35_Node000037_Node000011"><a xlink:title=" ">
<path fill="none" stroke="#63b8ff" d="M1110.73,-225.7C1113.85,-225.06 1116.98,-224.48 1120,-224 1281.93,-198.17 1475.85,-186.02 1567.71,-181.38"/>
<polygon fill="#63b8ff" stroke="#63b8ff" points="1567.87,-184.88 1577.68,-180.89 1567.52,-177.89 1567.87,-184.88"/>
</a>
</g>
</g>
<!-- Node39&#45;&gt;Node3 -->
<g id="edge37_Node000039_Node000003" class="edge">
<title>Node39&#45;&gt;Node3</title>
<g id="a_edge37_Node000039_Node000003"><a xlink:title=" ">
<path fill="none" stroke="#63b8ff" d="M989.28,-279.93C1000.13,-266.72 1021.59,-241.82 1043,-224 1065.74,-205.07 1084.82,-213.97 1099,-188 1103.26,-180.2 1103.99,-175.36 1099,-168 1082.71,-143.98 1051.34,-132.78 1025.77,-127.56"/>
<polygon fill="#63b8ff" stroke="#63b8ff" points="1026.46,-124.13 1016,-125.82 1025.24,-131.02 1026.46,-124.13"/>
</a>
</g>
</g>
<!-- Node39&#45;&gt;Node37 -->
<g id="edge38_Node000039_Node000037" class="edge">
<title>Node39&#45;&gt;Node37</title>
<g id="a_edge38_Node000039_Node000037"><a xlink:title=" ">
<path fill="none" stroke="#63b8ff" d="M999.24,-279.59C1014.34,-271.36 1036.53,-259.26 1053.98,-249.74"/>
<polygon fill="#63b8ff" stroke="#63b8ff" points="1055.19,-253.07 1062.29,-245.2 1051.84,-246.92 1055.19,-253.07"/>
</a>
</g>
</g>
<!-- Node40&#45;&gt;Node3 -->
<g id="edge40_Node000040_Node000003" class="edge">
<title>Node40&#45;&gt;Node3</title>
<g id="a_edge40_Node000040_Node000003"><a xlink:title=" ">
<path fill="none" stroke="#63b8ff" d="M857.17,-167.59C882.3,-158.9 919.88,-145.89 947.98,-136.16"/>
<polygon fill="#63b8ff" stroke="#63b8ff" points="948.88,-139.55 957.18,-132.97 946.59,-132.94 948.88,-139.55"/>
</a>
</g>
</g>
<!-- Node42&#45;&gt;Node3 -->
<g id="edge42_Node000042_Node000003" class="edge">
<title>Node42&#45;&gt;Node3</title>
<g id="a_edge42_Node000042_Node000003"><a xlink:title=" ">
<path fill="none" stroke="#63b8ff" d="M674.32,-223.65C670.93,-209.61 667.08,-183.16 681,-168 715.97,-129.93 871.82,-123.69 946.22,-122.92"/>
<polygon fill="#63b8ff" stroke="#63b8ff" points="945.94,-126.42 955.91,-122.85 945.89,-119.42 945.94,-126.42"/>
</a>
</g>
</g>
<!-- Node50&#45;&gt;Node3 -->
<g id="edge45_Node000050_Node000003" class="edge">
<title>Node50&#45;&gt;Node3</title>
<g id="a_edge45_Node000050_Node000003"><a xlink:title=" ">
<path fill="none" stroke="#63b8ff" d="M933.97,-167.59C942.92,-159.93 955.77,-148.91 966.46,-139.75"/>
<polygon fill="#63b8ff" stroke="#63b8ff" points="968.69,-142.45 974,-133.28 964.13,-137.13 968.69,-142.45"/>
</a>
</g>
</g>
<!-- Node52&#45;&gt;Node3 -->
<g id="edge47_Node000052_Node000003" class="edge">
<title>Node52&#45;&gt;Node3</title>
<g id="a_edge47_Node000052_Node000003"><a xlink:title=" ">
<path fill="none" stroke="#63b8ff" d="M917.62,-223.62C933.85,-216.25 954.37,-204.46 967,-188 976.86,-175.14 981.61,-157.29 983.9,-143.55"/>
<polygon fill="#63b8ff" stroke="#63b8ff" points="987.34,-144.22 985.18,-133.85 980.4,-143.3 987.34,-144.22"/>
</a>
</g>
</g>
<!-- Node53&#45;&gt;Node3 -->
<g id="edge49_Node000053_Node000003" class="edge">
<title>Node53&#45;&gt;Node3</title>
<g id="a_edge49_Node000053_Node000003"><a xlink:title=" ">
<path fill="none" stroke="#63b8ff" d="M1040.5,-167.59C1031.04,-159.85 1017.4,-148.69 1006.13,-139.47"/>
<polygon fill="#63b8ff" stroke="#63b8ff" points="1008.49,-136.88 998.54,-133.26 1004.06,-142.3 1008.49,-136.88"/>
</a>
</g>
</g>
<!-- Node54&#45;&gt;Node3 -->
<g id="edge51_Node000054_Node000003" class="edge">
<title>Node54&#45;&gt;Node3</title>
<g id="a_edge51_Node000054_Node000003"><a xlink:title=" ">
<path fill="none" stroke="#63b8ff" d="M1166.97,-223.61C1166.41,-209.54 1163.23,-183.03 1148,-168 1115.56,-136 1062.45,-126.29 1025.93,-123.59"/>
<polygon fill="#63b8ff" stroke="#63b8ff" points="1026.41,-120.11 1016.22,-123.03 1026,-127.1 1026.41,-120.11"/>
</a>
</g>
</g>
<!-- Node55&#45;&gt;Node3 -->
<g id="edge53_Node000055_Node000003" class="edge">
<title>Node55&#45;&gt;Node3</title>
<g id="a_edge53_Node000055_Node000003"><a xlink:title=" ">
<path fill="none" stroke="#63b8ff" d="M1182.68,-279.54C1193.6,-271.56 1207.68,-259.03 1214,-244 1229.31,-207.61 1201.39,-189.07 1168,-168 1124.34,-140.46 1064.93,-129.77 1026.03,-125.63"/>
<polygon fill="#63b8ff" stroke="#63b8ff" points="1026.46,-122.15 1016.17,-124.68 1025.79,-129.12 1026.46,-122.15"/>
</a>
</g>
</g>
<!-- Node56&#45;&gt;Node3 -->
<g id="edge55_Node000056_Node000003" class="edge">
<title>Node56&#45;&gt;Node3</title>
<g id="a_edge55_Node000056_Node000003"><a xlink:title=" ">
<path fill="none" stroke="#63b8ff" d="M31.48,-223.66C31.23,-209.15 33.17,-181.45 50,-168 85.48,-139.64 771.7,-126.51 946.01,-123.62"/>
<polygon fill="#63b8ff" stroke="#63b8ff" points="945.97,-127.13 955.91,-123.46 945.86,-120.13 945.97,-127.13"/>
</a>
</g>
</g>
<!-- Node57&#45;&gt;Node3 -->
<g id="edge57_Node000057_Node000003" class="edge">
<title>Node57&#45;&gt;Node3</title>
<g id="a_edge57_Node000057_Node000003"><a xlink:title=" ">
<path fill="none" stroke="#63b8ff" d="M126.74,-170.09C131.51,-169.29 136.37,-168.55 141,-168 449.44,-131.03 824.87,-124.43 946.17,-123.26"/>
<polygon fill="#63b8ff" stroke="#63b8ff" points="945.95,-126.76 955.92,-123.17 945.89,-119.76 945.95,-126.76"/>
</a>
</g>
</g>
<!-- Node58&#45;&gt;Node3 -->
<g id="edge60_Node000058_Node000003" class="edge">
<title>Node58&#45;&gt;Node3</title>
<g id="a_edge60_Node000058_Node000003"><a xlink:title=" ">
<path fill="none" stroke="#63b8ff" d="M489.48,-279.58C507.81,-272.69 529.31,-261.44 542,-244 562.16,-216.29 529.99,-191.43 555,-168 583.26,-141.53 844.75,-128.53 946.11,-124.46"/>
<polygon fill="#63b8ff" stroke="#63b8ff" points="946.01,-127.96 955.86,-124.07 945.73,-120.97 946.01,-127.96"/>
</a>
</g>
</g>
<!-- Node58&#45;&gt;Node8 -->
<g id="edge61_Node000058_Node000008" class="edge">
<title>Node58&#45;&gt;Node8</title>
<g id="a_edge61_Node000058_Node000008"><a xlink:title=" ">
<path fill="none" stroke="#63b8ff" d="M452.64,-279.9C447.45,-266.65 436.55,-241.71 422,-224 412.91,-212.93 400.7,-202.74 390.01,-194.86"/>
<polygon fill="#63b8ff" stroke="#63b8ff" points="392.17,-192.1 381.98,-189.2 388.13,-197.82 392.17,-192.1"/>
</a>
</g>
</g>
<!-- Node58&#45;&gt;Node9 -->
<g id="edge62_Node000058_Node000009" class="edge">
<title>Node58&#45;&gt;Node9</title>
<g id="a_edge62_Node000058_Node000009"><a xlink:title=" ">
<path fill="none" stroke="#63b8ff" d="M440.67,-279.59C427.5,-271.51 408.27,-259.71 392.89,-250.27"/>
<polygon fill="#63b8ff" stroke="#63b8ff" points="395.09,-247.52 384.74,-245.27 391.43,-253.48 395.09,-247.52"/>
</a>
</g>
</g>
<!-- Node60&#45;&gt;Node3 -->
<g id="edge64_Node000060_Node000003" class="edge">
<title>Node60&#45;&gt;Node3</title>
<g id="a_edge64_Node000060_Node000003"><a xlink:title=" ">
<path fill="none" stroke="#63b8ff" d="M501.01,-223.71C501.59,-209.27 505,-181.68 522,-168 554.75,-141.66 839.82,-128.44 946.2,-124.39"/>
<polygon fill="#63b8ff" stroke="#63b8ff" points="946.01,-127.9 955.87,-124.03 945.75,-120.9 946.01,-127.9"/>
</a>
</g>
</g>
<!-- Node60&#45;&gt;Node8 -->
<g id="edge65_Node000060_Node000008" class="edge">
<title>Node60&#45;&gt;Node8</title>
<g id="a_edge65_Node000060_Node000008"><a xlink:title=" ">
<path fill="none" stroke="#63b8ff" d="M477.48,-223.59C456.13,-215.05 424.37,-202.35 400.2,-192.68"/>
<polygon fill="#63b8ff" stroke="#63b8ff" points="401.69,-189.51 391.1,-189.04 399.09,-196.01 401.69,-189.51"/>
</a>
</g>
</g>
<!-- Node72&#45;&gt;Node3 -->
<g id="edge68_Node000072_Node000003" class="edge">
<title>Node72&#45;&gt;Node3</title>
<g id="a_edge68_Node000072_Node000003"><a xlink:title=" ">
<path fill="none" stroke="#63b8ff" d="M634.29,-170.3C638.9,-169.49 643.56,-168.7 648,-168 755.39,-151 882.66,-135.23 946.01,-127.68"/>
<polygon fill="#63b8ff" stroke="#63b8ff" points="946.42,-131.15 955.94,-126.5 945.6,-124.2 946.42,-131.15"/>
</a>
</g>
</g>
<!-- Node73&#45;&gt;Node3 -->
<g id="edge70_Node000073_Node000003" class="edge">
<title>Node73&#45;&gt;Node3</title>
<g id="a_edge70_Node000073_Node000003"><a xlink:title=" ">
<path fill="none" stroke="#63b8ff" d="M1268.08,-279.64C1260.37,-256.63 1237.22,-197.03 1196,-168 1145.07,-132.14 1071.17,-123.92 1025.98,-122.53"/>
<polygon fill="#63b8ff" stroke="#63b8ff" points="1026.17,-119.04 1016.1,-122.34 1026.03,-126.04 1026.17,-119.04"/>
</a>
</g>
</g>
<!-- Node73&#45;&gt;Node15 -->
<g id="edge71_Node000073_Node000015" class="edge">
<title>Node73&#45;&gt;Node15</title>
<g id="a_edge71_Node000073_Node000015"><a xlink:title=" ">
<path fill="none" stroke="#63b8ff" d="M1311.34,-281.34C1314.26,-280.86 1317.18,-280.41 1320,-280 1455.62,-260.33 1616.98,-245.44 1694.67,-238.8"/>
<polygon fill="#63b8ff" stroke="#63b8ff" points="1694.78,-242.31 1704.45,-237.98 1694.19,-235.33 1694.78,-242.31"/>
</a>
</g>
</g>
<!-- Node75&#45;&gt;Node3 -->
<g id="edge73_Node000075_Node000003" class="edge">
<title>Node75&#45;&gt;Node3</title>
<g id="a_edge73_Node000075_Node000003"><a xlink:title=" ">
<path fill="none" stroke="#63b8ff" d="M1646.35,-279.58C1571.41,-258.13 1381.11,-204.68 1220,-168 1152.14,-152.55 1072.41,-137.97 1025.72,-129.79"/>
<polygon fill="#63b8ff" stroke="#63b8ff" points="1026.53,-126.38 1016.08,-128.11 1025.33,-133.28 1026.53,-126.38"/>
</a>
</g>
</g>
<!-- Node75&#45;&gt;Node15 -->
<g id="edge74_Node000075_Node000015" class="edge">
<title>Node75&#45;&gt;Node15</title>
<g id="a_edge74_Node000075_Node000015"><a xlink:title=" ">
<path fill="none" stroke="#63b8ff" d="M1689.8,-279.59C1698.6,-271.93 1711.25,-260.91 1721.77,-251.75"/>
<polygon fill="#63b8ff" stroke="#63b8ff" points="1723.94,-254.5 1729.18,-245.29 1719.34,-249.22 1723.94,-254.5"/>
</a>
</g>
</g>
</g>
</svg>
