<?xml version="1.0" encoding="UTF-8" standalone="no"?>
<!DOCTYPE svg PUBLIC "-//W3C//DTD SVG 1.1//EN"
 "http://www.w3.org/Graphics/SVG/1.1/DTD/svg11.dtd">
<!-- Generated by graphviz version 14.1.2 (20260124.0452)
 -->
<!-- Title: dsps_fir_f32_ansi.c Pages: 1 -->
<svg width="467pt" height="252pt"
 viewBox="0.00 0.00 467.00 252.00" xmlns="http://www.w3.org/2000/svg" xmlns:xlink="http://www.w3.org/1999/xlink">
<g id="graph0" class="graph" transform="scale(1 1) rotate(0) translate(4 248)">
<title>dsps_fir_f32_ansi.c</title>
<!-- Node1 -->
<g id="Node000001" class="node">
<title>Node1</title>
<g id="a_Node000001"><a xlink:title=" ">
<polygon fill="#999999" stroke="#666666" points="178,-244 77.25,-244 77.25,-224 178,-224 178,-244"/>
<text xml:space="preserve" text-anchor="middle" x="127.62" y="-230.5" font-family="Helvetica,sans-Serif" font-size="10.00">dsps_fir_f32_ansi.c</text>
</a>
</g>
</g>
<!-- Node2 -->
<g id="Node000002" class="node">
<title>Node2</title>
<g id="a_Node000002"><a xlink:href="dsps__fir_8h.html" target="_top" xlink:title=" ">
<polygon fill="white" stroke="#666666" points="157,-188 98.25,-188 98.25,-168 157,-168 157,-188"/>
<text xml:space="preserve" text-anchor="middle" x="127.62" y="-174.5" font-family="Helvetica,sans-Serif" font-size="10.00">dsps_fir.h</text>
</a>
</g>
</g>
<!-- Node1&#45;&gt;Node2 -->
<g id="edge1_Node000001_Node000002" class="edge">
<title>Node1&#45;&gt;Node2</title>
<g id="a_edge1_Node000001_Node000002"><a xlink:title=" ">
<path fill="none" stroke="#63b8ff" d="M127.62,-223.59C127.62,-217.01 127.62,-207.96 127.62,-199.73"/>
<polygon fill="#63b8ff" stroke="#63b8ff" points="131.13,-199.81 127.63,-189.81 124.13,-199.81 131.13,-199.81"/>
</a>
</g>
</g>
<!-- Node3 -->
<g id="Node000003" class="node">
<title>Node3</title>
<g id="a_Node000003"><a xlink:href="dsp__err_8h.html" target="_top" xlink:title=" ">
<polygon fill="white" stroke="#666666" points="155.88,-76 99.38,-76 99.38,-56 155.88,-56 155.88,-76"/>
<text xml:space="preserve" text-anchor="middle" x="127.62" y="-62.5" font-family="Helvetica,sans-Serif" font-size="10.00">dsp_err.h</text>
</a>
</g>
</g>
<!-- Node2&#45;&gt;Node3 -->
<g id="edge2_Node000002_Node000003" class="edge">
<title>Node2&#45;&gt;Node3</title>
<g id="a_edge2_Node000002_Node000003"><a xlink:title=" ">
<path fill="none" stroke="#63b8ff" d="M127.62,-167.62C127.62,-150.01 127.62,-111.59 127.62,-87.65"/>
<polygon fill="#63b8ff" stroke="#63b8ff" points="131.13,-87.87 127.63,-77.87 124.13,-87.87 131.13,-87.87"/>
</a>
</g>
</g>
<!-- Node8 -->
<g id="Node000008" class="node">
<title>Node8</title>
<g id="a_Node000008"><a xlink:href="dsps__fir__platform_8h.html" target="_top" xlink:title=" ">
<polygon fill="white" stroke="#666666" points="99.25,-132 0,-132 0,-112 99.25,-112 99.25,-132"/>
<text xml:space="preserve" text-anchor="middle" x="49.62" y="-118.5" font-family="Helvetica,sans-Serif" font-size="10.00">dsps_fir_platform.h</text>
</a>
</g>
</g>
<!-- Node2&#45;&gt;Node8 -->
<g id="edge6_Node000002_Node000008" class="edge">
<title>Node2&#45;&gt;Node8</title>
<g id="a_edge6_Node000002_Node000008"><a xlink:title=" ">
<path fill="none" stroke="#63b8ff" d="M114.04,-167.59C102.59,-159.67 85.96,-148.16 72.47,-138.82"/>
<polygon fill="#63b8ff" stroke="#63b8ff" points="74.78,-136.16 64.56,-133.34 70.79,-141.91 74.78,-136.16"/>
</a>
</g>
</g>
<!-- Node10 -->
<g id="Node000010" class="node">
<title>Node10</title>
<g id="a_Node000010"><a xlink:href="dsp__common_8h.html" target="_top" xlink:title=" ">
<polygon fill="white" stroke="#666666" points="309,-132 226.25,-132 226.25,-112 309,-112 309,-132"/>
<text xml:space="preserve" text-anchor="middle" x="267.62" y="-118.5" font-family="Helvetica,sans-Serif" font-size="10.00">dsp_common.h</text>
</a>
</g>
</g>
<!-- Node2&#45;&gt;Node10 -->
<g id="edge8_Node000002_Node000010" class="edge">
<title>Node2&#45;&gt;Node10</title>
<g id="a_edge8_Node000002_Node000010"><a xlink:title=" ">
<path fill="none" stroke="#63b8ff" d="M152.01,-167.59C174.26,-159.01 207.39,-146.23 232.49,-136.55"/>
<polygon fill="#63b8ff" stroke="#63b8ff" points="233.57,-139.89 241.64,-133.02 231.05,-133.36 233.57,-139.89"/>
</a>
</g>
</g>
<!-- Node4 -->
<g id="Node000004" class="node">
<title>Node4</title>
<g id="a_Node000004"><a xlink:title=" ">
<polygon fill="#e0e0e0" stroke="#999999" points="353.75,-20 305.5,-20 305.5,0 353.75,0 353.75,-20"/>
<text xml:space="preserve" text-anchor="middle" x="329.62" y="-6.5" font-family="Helvetica,sans-Serif" font-size="10.00">stdint.h</text>
</a>
</g>
</g>
<!-- Node3&#45;&gt;Node4 -->
<g id="edge3_Node000003_Node000004" class="edge">
<title>Node3&#45;&gt;Node4</title>
<g id="a_edge3_Node000003_Node000004"><a xlink:title=" ">
<path fill="none" stroke="#63b8ff" d="M156.14,-57.38C192.37,-47.69 254.89,-30.98 294.16,-20.48"/>
<polygon fill="#63b8ff" stroke="#63b8ff" points="294.84,-23.92 303.6,-17.96 293.03,-17.16 294.84,-23.92"/>
</a>
</g>
</g>
<!-- Node5 -->
<g id="Node000005" class="node">
<title>Node5</title>
<g id="a_Node000005"><a xlink:href="esp__err_8h.html" target="_top" xlink:title=" ">
<polygon fill="#fff0f0" stroke="red" points="199.88,-20 143.38,-20 143.38,0 199.88,0 199.88,-20"/>
<text xml:space="preserve" text-anchor="middle" x="171.62" y="-6.5" font-family="Helvetica,sans-Serif" font-size="10.00">esp_err.h</text>
</a>
</g>
</g>
<!-- Node3&#45;&gt;Node5 -->
<g id="edge4_Node000003_Node000005" class="edge">
<title>Node3&#45;&gt;Node5</title>
<g id="a_edge4_Node000003_Node000005"><a xlink:title=" ">
<path fill="none" stroke="#63b8ff" d="M135.29,-55.59C141.22,-48.32 149.61,-38.02 156.84,-29.15"/>
<polygon fill="#63b8ff" stroke="#63b8ff" points="159.49,-31.43 163.09,-21.47 154.06,-27.01 159.49,-31.43"/>
</a>
</g>
</g>
<!-- Node7 -->
<g id="Node000007" class="node">
<title>Node7</title>
<g id="a_Node000007"><a xlink:href="dsp__err__codes_8h.html" target="_top" xlink:title=" ">
<polygon fill="white" stroke="#666666" points="125.62,-20 37.62,-20 37.62,0 125.62,0 125.62,-20"/>
<text xml:space="preserve" text-anchor="middle" x="81.62" y="-6.5" font-family="Helvetica,sans-Serif" font-size="10.00">dsp_err_codes.h</text>
</a>
</g>
</g>
<!-- Node3&#45;&gt;Node7 -->
<g id="edge5_Node000003_Node000007" class="edge">
<title>Node3&#45;&gt;Node7</title>
<g id="a_edge5_Node000003_Node000007"><a xlink:title=" ">
<path fill="none" stroke="#63b8ff" d="M119.61,-55.59C113.35,-48.24 104.45,-37.8 96.84,-28.87"/>
<polygon fill="#63b8ff" stroke="#63b8ff" points="99.68,-26.79 90.53,-21.45 94.35,-31.33 99.68,-26.79"/>
</a>
</g>
</g>
<!-- Node9 -->
<g id="Node000009" class="node">
<title>Node9</title>
<g id="a_Node000009"><a xlink:title=" ">
<polygon fill="#e0e0e0" stroke="#999999" points="81.75,-76 15.5,-76 15.5,-56 81.75,-56 81.75,-76"/>
<text xml:space="preserve" text-anchor="middle" x="48.62" y="-62.5" font-family="Helvetica,sans-Serif" font-size="10.00">sdkconfig.h</text>
</a>
</g>
</g>
<!-- Node8&#45;&gt;Node9 -->
<g id="edge7_Node000008_Node000009" class="edge">
<title>Node8&#45;&gt;Node9</title>
<g id="a_edge7_Node000008_Node000009"><a xlink:title=" ">
<path fill="none" stroke="#63b8ff" d="M49.45,-111.59C49.33,-105.01 49.16,-95.96 49.01,-87.73"/>
<polygon fill="#63b8ff" stroke="#63b8ff" points="52.51,-87.75 48.83,-77.81 45.51,-87.87 52.51,-87.75"/>
</a>
</g>
</g>
<!-- Node10&#45;&gt;Node3 -->
<g id="edge11_Node000010_Node000003" class="edge">
<title>Node10&#45;&gt;Node3</title>
<g id="a_edge11_Node000010_Node000003"><a xlink:title=" ">
<path fill="none" stroke="#63b8ff" d="M243.24,-111.59C220.99,-103.01 187.86,-90.23 162.76,-80.55"/>
<polygon fill="#63b8ff" stroke="#63b8ff" points="164.2,-77.36 153.61,-77.02 161.68,-83.89 164.2,-77.36"/>
</a>
</g>
</g>
<!-- Node10&#45;&gt;Node4 -->
<g id="edge9_Node000010_Node000004" class="edge">
<title>Node10&#45;&gt;Node4</title>
<g id="a_edge9_Node000010_Node000004"><a xlink:title=" ">
<path fill="none" stroke="#63b8ff" d="M305.74,-111.6C324.2,-104.91 344.7,-93.86 355.62,-76 364.71,-61.15 355.49,-42.57 345.6,-29.08"/>
<polygon fill="#63b8ff" stroke="#63b8ff" points="348.48,-27.07 339.49,-21.47 343.02,-31.45 348.48,-27.07"/>
</a>
</g>
</g>
<!-- Node11 -->
<g id="Node000011" class="node">
<title>Node11</title>
<g id="a_Node000011"><a xlink:title=" ">
<polygon fill="#e0e0e0" stroke="#999999" points="458.5,-76 402.75,-76 402.75,-56 458.5,-56 458.5,-76"/>
<text xml:space="preserve" text-anchor="middle" x="430.62" y="-62.5" font-family="Helvetica,sans-Serif" font-size="10.00">stdbool.h</text>
</a>
</g>
</g>
<!-- Node10&#45;&gt;Node11 -->
<g id="edge10_Node000010_Node000011" class="edge">
<title>Node10&#45;&gt;Node11</title>
<g id="a_edge10_Node000010_Node000011"><a xlink:title=" ">
<path fill="none" stroke="#63b8ff" d="M296.02,-111.59C322.47,-102.83 362.13,-89.69 391.56,-79.94"/>
<polygon fill="#63b8ff" stroke="#63b8ff" points="392.46,-83.33 400.85,-76.86 390.25,-76.69 392.46,-83.33"/>
</a>
</g>
</g>
<!-- Node12 -->
<g id="Node000012" class="node">
<title>Node12</title>
<g id="a_Node000012"><a xlink:title=" ">
<polygon fill="#e0e0e0" stroke="#999999" points="266.88,-76 174.38,-76 174.38,-56 266.88,-56 266.88,-76"/>
<text xml:space="preserve" text-anchor="middle" x="220.62" y="-62.5" font-family="Helvetica,sans-Serif" font-size="10.00">esp_idf_version.h</text>
</a>
</g>
</g>
<!-- Node10&#45;&gt;Node12 -->
<g id="edge12_Node000010_Node000012" class="edge">
<title>Node10&#45;&gt;Node12</title>
<g id="a_edge12_Node000010_Node000012"><a xlink:title=" ">
<path fill="none" stroke="#63b8ff" d="M259.44,-111.59C253.04,-104.24 243.95,-93.8 236.17,-84.87"/>
<polygon fill="#63b8ff" stroke="#63b8ff" points="238.92,-82.69 229.71,-77.44 233.64,-87.28 238.92,-82.69"/>
</a>
</g>
</g>
<!-- Node13 -->
<g id="Node000013" class="node">
<title>Node13</title>
<g id="a_Node000013"><a xlink:title=" ">
<polygon fill="#e0e0e0" stroke="#999999" points="346.12,-76 285.12,-76 285.12,-56 346.12,-56 346.12,-76"/>
<text xml:space="preserve" text-anchor="middle" x="315.62" y="-62.5" font-family="Helvetica,sans-Serif" font-size="10.00">x86intrin.h</text>
</a>
</g>
</g>
<!-- Node10&#45;&gt;Node13 -->
<g id="edge13_Node000010_Node000013" class="edge">
<title>Node10&#45;&gt;Node13</title>
<g id="a_edge13_Node000010_Node000013"><a xlink:title=" ">
<path fill="none" stroke="#63b8ff" d="M275.99,-111.59C282.52,-104.24 291.81,-93.8 299.74,-84.87"/>
<polygon fill="#63b8ff" stroke="#63b8ff" points="302.33,-87.23 306.35,-77.43 297.09,-82.58 302.33,-87.23"/>
</a>
</g>
</g>
</g>
</svg>
