<?xml version="1.0" encoding="UTF-8" standalone="no"?>
<!DOCTYPE svg PUBLIC "-//W3C//DTD SVG 1.1//EN"
 "http://www.w3.org/Graphics/SVG/1.1/DTD/svg11.dtd">
<!-- Generated by graphviz version 14.1.2 (20260124.0452)
 -->
<!-- Title: dsps_conv_platform.h Pages: 1 -->
<svg width="2762pt" height="196pt"
 viewBox="0.00 0.00 2762.00 196.00" xmlns="http://www.w3.org/2000/svg" xmlns:xlink="http://www.w3.org/1999/xlink">
<g id="graph0" class="graph" transform="scale(1 1) rotate(0) translate(4 192)">
<title>dsps_conv_platform.h</title>
<!-- Node1 -->
<g id="Node000001" class="node">
<title>Node1</title>
<g id="a_Node000001"><a xlink:title=" ">
<polygon fill="#999999" stroke="#666666" points="1694.25,-188 1582.25,-188 1582.25,-168 1694.25,-168 1694.25,-188"/>
<text xml:space="preserve" text-anchor="middle" x="1638.25" y="-174.5" font-family="Helvetica,sans-Serif" font-size="10.00">dsps_conv_platform.h</text>
</a>
</g>
</g>
<!-- Node2 -->
<g id="Node000002" class="node">
<title>Node2</title>
<g id="a_Node000002"><a xlink:href="dspi__conv_8h.html" target="_top" xlink:title=" ">
<polygon fill="white" stroke="#666666" points="1533.12,-132 1465.38,-132 1465.38,-112 1533.12,-112 1533.12,-132"/>
<text xml:space="preserve" text-anchor="middle" x="1499.25" y="-118.5" font-family="Helvetica,sans-Serif" font-size="10.00">dspi_conv.h</text>
</a>
</g>
</g>
<!-- Node1&#45;&gt;Node2 -->
<g id="edge1_Node000001_Node000002" class="edge">
<title>Node1&#45;&gt;Node2</title>
<g id="a_edge1_Node000001_Node000002"><a xlink:title=" ">
<path fill="none" stroke="#63b8ff" d="M1603.58,-163.53C1578.71,-153.87 1545.8,-141.08 1523.65,-132.48"/>
<polygon fill="#63b8ff" stroke="#63b8ff" points="1602.04,-166.69 1612.63,-167.05 1604.57,-160.16 1602.04,-166.69"/>
</a>
</g>
</g>
<!-- Node38 -->
<g id="Node000038" class="node">
<title>Node38</title>
<g id="a_Node000038"><a xlink:href="dsps__ccorr_8h.html" target="_top" xlink:title=" ">
<polygon fill="white" stroke="#666666" points="1806.38,-132 1734.12,-132 1734.12,-112 1806.38,-112 1806.38,-132"/>
<text xml:space="preserve" text-anchor="middle" x="1770.25" y="-118.5" font-family="Helvetica,sans-Serif" font-size="10.00">dsps_ccorr.h</text>
</a>
</g>
</g>
<!-- Node1&#45;&gt;Node38 -->
<g id="edge28_Node000001_Node000038" class="edge">
<title>Node1&#45;&gt;Node38</title>
<g id="a_edge28_Node000001_Node000038"><a xlink:title=" ">
<path fill="none" stroke="#63b8ff" d="M1671.81,-163.27C1695.35,-153.64 1726.23,-141.01 1747.08,-132.48"/>
<polygon fill="#63b8ff" stroke="#63b8ff" points="1670.57,-160 1662.64,-167.02 1673.22,-166.47 1670.57,-160"/>
</a>
</g>
</g>
<!-- Node39 -->
<g id="Node000039" class="node">
<title>Node39</title>
<g id="a_Node000039"><a xlink:href="dsps__conv_8h.html" target="_top" xlink:title=" ">
<polygon fill="white" stroke="#666666" points="1630.62,-132 1559.88,-132 1559.88,-112 1630.62,-112 1630.62,-132"/>
<text xml:space="preserve" text-anchor="middle" x="1595.25" y="-118.5" font-family="Helvetica,sans-Serif" font-size="10.00">dsps_conv.h</text>
</a>
</g>
</g>
<!-- Node1&#45;&gt;Node39 -->
<g id="edge29_Node000001_Node000039" class="edge">
<title>Node1&#45;&gt;Node39</title>
<g id="a_edge29_Node000001_Node000039"><a xlink:title=" ">
<path fill="none" stroke="#63b8ff" d="M1623.69,-158.72C1616.62,-149.84 1608.43,-139.55 1602.65,-132.3"/>
<polygon fill="#63b8ff" stroke="#63b8ff" points="1620.85,-160.77 1629.82,-166.41 1626.33,-156.41 1620.85,-160.77"/>
</a>
</g>
</g>
<!-- Node42 -->
<g id="Node000042" class="node">
<title>Node42</title>
<g id="a_Node000042"><a xlink:href="dsps__corr_8h.html" target="_top" xlink:title=" ">
<polygon fill="white" stroke="#666666" points="1715.75,-132 1648.75,-132 1648.75,-112 1715.75,-112 1715.75,-132"/>
<text xml:space="preserve" text-anchor="middle" x="1682.25" y="-118.5" font-family="Helvetica,sans-Serif" font-size="10.00">dsps_corr.h</text>
</a>
</g>
</g>
<!-- Node1&#45;&gt;Node42 -->
<g id="edge33_Node000001_Node000042" class="edge">
<title>Node1&#45;&gt;Node42</title>
<g id="a_edge33_Node000001_Node000042"><a xlink:title=" ">
<path fill="none" stroke="#63b8ff" d="M1653.14,-158.72C1660.38,-149.84 1668.77,-139.55 1674.67,-132.3"/>
<polygon fill="#63b8ff" stroke="#63b8ff" points="1650.47,-156.46 1646.87,-166.42 1655.9,-160.88 1650.47,-156.46"/>
</a>
</g>
</g>
<!-- Node3 -->
<g id="Node000003" class="node">
<title>Node3</title>
<g id="a_Node000003"><a xlink:href="dspi__conv__f32__ansi_8c.html" target="_top" xlink:title=" ">
<polygon fill="white" stroke="#666666" points="1450.5,-76 1340,-76 1340,-56 1450.5,-56 1450.5,-76"/>
<text xml:space="preserve" text-anchor="middle" x="1395.25" y="-62.5" font-family="Helvetica,sans-Serif" font-size="10.00">dspi_conv_f32_ansi.c</text>
</a>
</g>
</g>
<!-- Node2&#45;&gt;Node3 -->
<g id="edge2_Node000002_Node000003" class="edge">
<title>Node2&#45;&gt;Node3</title>
<g id="a_edge2_Node000002_Node000003"><a xlink:title=" ">
<path fill="none" stroke="#63b8ff" d="M1471.03,-106.35C1452.73,-96.84 1429.41,-84.74 1413.51,-76.48"/>
<polygon fill="#63b8ff" stroke="#63b8ff" points="1469.3,-109.39 1479.79,-110.9 1472.53,-103.18 1469.3,-109.39"/>
</a>
</g>
</g>
<!-- Node4 -->
<g id="Node000004" class="node">
<title>Node4</title>
<g id="a_Node000004"><a xlink:href="esp__dsp_8h.html" target="_top" xlink:title=" ">
<polygon fill="white" stroke="#666666" points="1529.75,-76 1468.75,-76 1468.75,-56 1529.75,-56 1529.75,-76"/>
<text xml:space="preserve" text-anchor="middle" x="1499.25" y="-62.5" font-family="Helvetica,sans-Serif" font-size="10.00">esp_dsp.h</text>
</a>
</g>
</g>
<!-- Node2&#45;&gt;Node4 -->
<g id="edge3_Node000002_Node000004" class="edge">
<title>Node2&#45;&gt;Node4</title>
<g id="a_edge3_Node000002_Node000004"><a xlink:title=" ">
<path fill="none" stroke="#63b8ff" d="M1499.25,-100.13C1499.25,-91.9 1499.25,-82.85 1499.25,-76.3"/>
<polygon fill="#63b8ff" stroke="#63b8ff" points="1495.75,-100.08 1499.25,-110.08 1502.75,-100.08 1495.75,-100.08"/>
</a>
</g>
</g>
<!-- Node5 -->
<g id="Node000005" class="node">
<title>Node5</title>
<g id="a_Node000005"><a xlink:href="applications_2azure__board__apps_2apps_23d__graphics_2main_23d__graphics__demo_8cpp.html" target="_top" xlink:title=" ">
<polygon fill="white" stroke="#666666" points="116.5,-20 0,-20 0,0 116.5,0 116.5,-20"/>
<text xml:space="preserve" text-anchor="middle" x="58.25" y="-6.5" font-family="Helvetica,sans-Serif" font-size="10.00">3d_graphics_demo.cpp</text>
</a>
</g>
</g>
<!-- Node4&#45;&gt;Node5 -->
<g id="edge4_Node000004_Node000005" class="edge">
<title>Node4&#45;&gt;Node5</title>
<g id="a_edge4_Node000004_Node000005"><a xlink:title=" ">
<path fill="none" stroke="#63b8ff" d="M1457.03,-56.02C869.18,16.33 713.3,-66.65 126.25,-20 123.16,-19.75 120,-19.47 116.81,-19.15"/>
<polygon fill="#63b8ff" stroke="#63b8ff" points="1456.49,-59.48 1466.84,-57.24 1457.35,-52.53 1456.49,-59.48"/>
</a>
</g>
</g>
<!-- Node6 -->
<g id="Node000006" class="node">
<title>Node6</title>
<g id="a_Node000006"><a xlink:href="applications_2m5stack__core__s3_2apps_23d__graphics_2main_23d__graphics__demo_8cpp.html" target="_top" xlink:title=" ">
<polygon fill="white" stroke="#666666" points="251.5,-20 135,-20 135,0 251.5,0 251.5,-20"/>
<text xml:space="preserve" text-anchor="middle" x="193.25" y="-6.5" font-family="Helvetica,sans-Serif" font-size="10.00">3d_graphics_demo.cpp</text>
</a>
</g>
</g>
<!-- Node4&#45;&gt;Node6 -->
<g id="edge5_Node000004_Node000006" class="edge">
<title>Node4&#45;&gt;Node6</title>
<g id="a_edge5_Node000004_Node000006"><a xlink:title=" ">
<path fill="none" stroke="#63b8ff" d="M1456.99,-56.01C928.78,9.73 788.44,-62.7 261.25,-20 258.16,-19.75 255,-19.46 251.82,-19.14"/>
<polygon fill="#63b8ff" stroke="#63b8ff" points="1456.48,-59.47 1466.84,-57.24 1457.36,-52.52 1456.48,-59.47"/>
</a>
</g>
</g>
<!-- Node7 -->
<g id="Node000007" class="node">
<title>Node7</title>
<g id="a_Node000007"><a xlink:href="external__examples_2b00f000e_2applications_2azure__board__apps_2apps_23d__graphics_2main_23d__graphics__demo_8cpp.html" target="_top" xlink:title=" ">
<polygon fill="white" stroke="#666666" points="386.5,-20 270,-20 270,0 386.5,0 386.5,-20"/>
<text xml:space="preserve" text-anchor="middle" x="328.25" y="-6.5" font-family="Helvetica,sans-Serif" font-size="10.00">3d_graphics_demo.cpp</text>
</a>
</g>
</g>
<!-- Node4&#45;&gt;Node7 -->
<g id="edge6_Node000004_Node000007" class="edge">
<title>Node4&#45;&gt;Node7</title>
<g id="a_edge6_Node000004_Node000007"><a xlink:title=" ">
<path fill="none" stroke="#63b8ff" d="M1457.21,-56.02C988.43,3.17 863.67,-58.75 396.25,-20 393.16,-19.74 390,-19.45 386.82,-19.12"/>
<polygon fill="#63b8ff" stroke="#63b8ff" points="1456.48,-59.46 1466.84,-57.25 1457.36,-52.52 1456.48,-59.46"/>
</a>
</g>
</g>
<!-- Node8 -->
<g id="Node000008" class="node">
<title>Node8</title>
<g id="a_Node000008"><a xlink:href="external__examples_2b00f000e_2applications_2m5stack__core__s3_2apps_23d__graphics_2main_23d__graphics__demo_8cpp.html" target="_top" xlink:title=" ">
<polygon fill="white" stroke="#666666" points="521.5,-20 405,-20 405,0 521.5,0 521.5,-20"/>
<text xml:space="preserve" text-anchor="middle" x="463.25" y="-6.5" font-family="Helvetica,sans-Serif" font-size="10.00">3d_graphics_demo.cpp</text>
</a>
</g>
</g>
<!-- Node4&#45;&gt;Node8 -->
<g id="edge7_Node000004_Node000008" class="edge">
<title>Node4&#45;&gt;Node8</title>
<g id="a_edge7_Node000004_Node000008"><a xlink:title=" ">
<path fill="none" stroke="#63b8ff" d="M1457.08,-56C1048.01,-3.42 938.79,-54.8 531.25,-20 528.17,-19.74 525.01,-19.43 521.82,-19.1"/>
<polygon fill="#63b8ff" stroke="#63b8ff" points="1456.47,-59.45 1466.84,-57.26 1457.37,-52.5 1456.47,-59.45"/>
</a>
</g>
</g>
<!-- Node9 -->
<g id="Node000009" class="node">
<title>Node9</title>
<g id="a_Node000009"><a xlink:href="external__examples_2d1468452_2apps_23d__graphics_2main_23d__graphics__demo_8cpp.html" target="_top" xlink:title=" ">
<polygon fill="white" stroke="#666666" points="656.5,-20 540,-20 540,0 656.5,0 656.5,-20"/>
<text xml:space="preserve" text-anchor="middle" x="598.25" y="-6.5" font-family="Helvetica,sans-Serif" font-size="10.00">3d_graphics_demo.cpp</text>
</a>
</g>
</g>
<!-- Node4&#45;&gt;Node9 -->
<g id="edge8_Node000004_Node000009" class="edge">
<title>Node4&#45;&gt;Node9</title>
<g id="a_edge8_Node000004_Node000009"><a xlink:title=" ">
<path fill="none" stroke="#63b8ff" d="M1457.13,-55.99C1107.62,-9.97 1013.99,-50.85 666.25,-20 663.17,-19.73 660.01,-19.42 656.82,-19.08"/>
<polygon fill="#63b8ff" stroke="#63b8ff" points="1456.46,-59.43 1466.84,-57.28 1457.39,-52.49 1456.46,-59.43"/>
</a>
</g>
</g>
<!-- Node10 -->
<g id="Node000010" class="node">
<title>Node10</title>
<g id="a_Node000010"><a xlink:href="external__examples_2f9c2d4b3_2azure__board__apps_2apps_23d__graphics_2main_23d__graphics__demo_8cpp.html" target="_top" xlink:title=" ">
<polygon fill="white" stroke="#666666" points="791.5,-20 675,-20 675,0 791.5,0 791.5,-20"/>
<text xml:space="preserve" text-anchor="middle" x="733.25" y="-6.5" font-family="Helvetica,sans-Serif" font-size="10.00">3d_graphics_demo.cpp</text>
</a>
</g>
</g>
<!-- Node4&#45;&gt;Node10 -->
<g id="edge9_Node000004_Node000010" class="edge">
<title>Node4&#45;&gt;Node10</title>
<g id="a_edge9_Node000004_Node000010"><a xlink:title=" ">
<path fill="none" stroke="#63b8ff" d="M1457.03,-55.95C1166.74,-16.47 1088.57,-47.2 800.25,-20 797.45,-19.74 794.58,-19.44 791.68,-19.13"/>
<polygon fill="#63b8ff" stroke="#63b8ff" points="1456.45,-59.4 1466.84,-57.3 1457.41,-52.47 1456.45,-59.4"/>
</a>
</g>
</g>
<!-- Node11 -->
<g id="Node000011" class="node">
<title>Node11</title>
<g id="a_Node000011"><a xlink:href="applications_2m5stack__core__s3_2apps_2kalman__filter_2main_23d__kalman__demo_8cpp.html" target="_top" xlink:title=" ">
<polygon fill="white" stroke="#666666" points="920.88,-20 809.62,-20 809.62,0 920.88,0 920.88,-20"/>
<text xml:space="preserve" text-anchor="middle" x="865.25" y="-6.5" font-family="Helvetica,sans-Serif" font-size="10.00">3d_kalman_demo.cpp</text>
</a>
</g>
</g>
<!-- Node4&#45;&gt;Node11 -->
<g id="edge10_Node000004_Node000011" class="edge">
<title>Node4&#45;&gt;Node11</title>
<g id="a_edge10_Node000004_Node000011"><a xlink:title=" ">
<path fill="none" stroke="#63b8ff" d="M1457.08,-55.93C1223.65,-22.68 1160.41,-44.07 929.25,-20 926.57,-19.72 923.83,-19.42 921.07,-19.09"/>
<polygon fill="#63b8ff" stroke="#63b8ff" points="1456.43,-59.37 1466.83,-57.33 1457.43,-52.44 1456.43,-59.37"/>
</a>
</g>
</g>
<!-- Node12 -->
<g id="Node000012" class="node">
<title>Node12</title>
<g id="a_Node000012"><a xlink:href="external__examples_2b00f000e_2applications_2m5stack__core__s3_2apps_2kalman__filter_2main_23d__kalman__demo_8cpp.html" target="_top" xlink:title=" ">
<polygon fill="white" stroke="#666666" points="1049.88,-20 938.62,-20 938.62,0 1049.88,0 1049.88,-20"/>
<text xml:space="preserve" text-anchor="middle" x="994.25" y="-6.5" font-family="Helvetica,sans-Serif" font-size="10.00">3d_kalman_demo.cpp</text>
</a>
</g>
</g>
<!-- Node4&#45;&gt;Node12 -->
<g id="edge11_Node000004_Node000012" class="edge">
<title>Node4&#45;&gt;Node12</title>
<g id="a_edge11_Node000004_Node000012"><a xlink:title=" ">
<path fill="none" stroke="#63b8ff" d="M1457.08,-55.87C1280.95,-28.82 1232.96,-39.83 1059.25,-20 1056.31,-19.66 1053.29,-19.3 1050.25,-18.93"/>
<polygon fill="#63b8ff" stroke="#63b8ff" points="1456.4,-59.3 1466.82,-57.39 1457.48,-52.39 1456.4,-59.3"/>
</a>
</g>
</g>
<!-- Node13 -->
<g id="Node000013" class="node">
<title>Node13</title>
<g id="a_Node000013"><a xlink:href="applications_2lyrat__board__app_2main_2audio__amp__main_8c.html" target="_top" xlink:title=" ">
<polygon fill="white" stroke="#666666" points="1166.12,-20 1068.38,-20 1068.38,0 1166.12,0 1166.12,-20"/>
<text xml:space="preserve" text-anchor="middle" x="1117.25" y="-6.5" font-family="Helvetica,sans-Serif" font-size="10.00">audio_amp_main.c</text>
</a>
</g>
</g>
<!-- Node4&#45;&gt;Node13 -->
<g id="edge12_Node000004_Node000013" class="edge">
<title>Node4&#45;&gt;Node13</title>
<g id="a_edge12_Node000004_Node000013"><a xlink:title=" ">
<path fill="none" stroke="#63b8ff" d="M1457.12,-55.78C1332.01,-34.21 1297.67,-37.25 1175.25,-20 1172.42,-19.6 1169.52,-19.18 1166.6,-18.75"/>
<polygon fill="#63b8ff" stroke="#63b8ff" points="1456.36,-59.2 1466.81,-57.47 1457.56,-52.3 1456.36,-59.2"/>
</a>
</g>
</g>
<!-- Node14 -->
<g id="Node000014" class="node">
<title>Node14</title>
<g id="a_Node000014"><a xlink:href="external__examples_21fa4e38f_2lyrat__board__app_2main_2audio__amp__main_8c.html" target="_top" xlink:title=" ">
<polygon fill="white" stroke="#666666" points="1282.12,-20 1184.38,-20 1184.38,0 1282.12,0 1282.12,-20"/>
<text xml:space="preserve" text-anchor="middle" x="1233.25" y="-6.5" font-family="Helvetica,sans-Serif" font-size="10.00">audio_amp_main.c</text>
</a>
</g>
</g>
<!-- Node4&#45;&gt;Node14 -->
<g id="edge13_Node000004_Node000014" class="edge">
<title>Node4&#45;&gt;Node14</title>
<g id="a_edge13_Node000004_Node000014"><a xlink:title=" ">
<path fill="none" stroke="#63b8ff" d="M1457.2,-55.61C1391.05,-41.65 1325.67,-28.8 1282.26,-20.39"/>
<polygon fill="#63b8ff" stroke="#63b8ff" points="1456.27,-58.99 1466.78,-57.63 1457.72,-52.14 1456.27,-58.99"/>
</a>
</g>
</g>
<!-- Node15 -->
<g id="Node000015" class="node">
<title>Node15</title>
<g id="a_Node000015"><a xlink:href="external__examples_2b00f000e_2applications_2lyrat__board__app_2main_2audio__amp__main_8c.html" target="_top" xlink:title=" ">
<polygon fill="white" stroke="#666666" points="1398.12,-20 1300.38,-20 1300.38,0 1398.12,0 1398.12,-20"/>
<text xml:space="preserve" text-anchor="middle" x="1349.25" y="-6.5" font-family="Helvetica,sans-Serif" font-size="10.00">audio_amp_main.c</text>
</a>
</g>
</g>
<!-- Node4&#45;&gt;Node15 -->
<g id="edge14_Node000004_Node000015" class="edge">
<title>Node4&#45;&gt;Node15</title>
<g id="a_edge14_Node000004_Node000015"><a xlink:title=" ">
<path fill="none" stroke="#63b8ff" d="M1462.56,-51.79C1435.63,-42.1 1399.7,-29.16 1375.58,-20.48"/>
<polygon fill="#63b8ff" stroke="#63b8ff" points="1461.1,-54.99 1471.7,-55.08 1463.47,-48.4 1461.1,-54.99"/>
</a>
</g>
</g>
<!-- Node16 -->
<g id="Node000016" class="node">
<title>Node16</title>
<g id="a_Node000016"><a xlink:href="dsp__tests_8h.html" target="_top" xlink:title=" ">
<polygon fill="#fff0f0" stroke="red" points="1482.75,-20 1415.75,-20 1415.75,0 1482.75,0 1482.75,-20"/>
<text xml:space="preserve" text-anchor="middle" x="1449.25" y="-6.5" font-family="Helvetica,sans-Serif" font-size="10.00">dsp_tests.h</text>
</a>
</g>
</g>
<!-- Node4&#45;&gt;Node16 -->
<g id="edge15_Node000004_Node000016" class="edge">
<title>Node4&#45;&gt;Node16</title>
<g id="a_edge15_Node000004_Node000016"><a xlink:title=" ">
<path fill="none" stroke="#63b8ff" d="M1482.85,-47.29C1474.51,-38.28 1464.71,-27.7 1457.86,-20.3"/>
<polygon fill="#63b8ff" stroke="#63b8ff" points="1480.15,-49.52 1489.51,-54.48 1485.29,-44.77 1480.15,-49.52"/>
</a>
</g>
</g>
<!-- Node23 -->
<g id="Node000023" class="node">
<title>Node23</title>
<g id="a_Node000023"><a xlink:href="applications_2azure__board__apps_2graphics_23d__matrix_23d__matrix__src_2graphics__support_8h.html" target="_top" xlink:title=" ">
<polygon fill="#fff0f0" stroke="red" points="1599.5,-20 1501,-20 1501,0 1599.5,0 1599.5,-20"/>
<text xml:space="preserve" text-anchor="middle" x="1550.25" y="-6.5" font-family="Helvetica,sans-Serif" font-size="10.00">graphics_support.h</text>
</a>
</g>
</g>
<!-- Node4&#45;&gt;Node23 -->
<g id="edge16_Node000004_Node000023" class="edge">
<title>Node4&#45;&gt;Node23</title>
<g id="a_edge16_Node000004_Node000023"><a xlink:title=" ">
<path fill="none" stroke="#63b8ff" d="M1515.98,-47.29C1524.49,-38.28 1534.48,-27.7 1541.47,-20.3"/>
<polygon fill="#63b8ff" stroke="#63b8ff" points="1513.49,-44.82 1509.17,-54.49 1518.58,-49.63 1513.49,-44.82"/>
</a>
</g>
</g>
<!-- Node25 -->
<g id="Node000025" class="node">
<title>Node25</title>
<g id="a_Node000025"><a xlink:href="external__examples_2b00f000e_2applications_2azure__board__apps_2graphics_23d__matrix_23d__matrix__src_2graphics__support_8h.html" target="_top" xlink:title=" ">
<polygon fill="#fff0f0" stroke="red" points="1716.5,-20 1618,-20 1618,0 1716.5,0 1716.5,-20"/>
<text xml:space="preserve" text-anchor="middle" x="1667.25" y="-6.5" font-family="Helvetica,sans-Serif" font-size="10.00">graphics_support.h</text>
</a>
</g>
</g>
<!-- Node4&#45;&gt;Node25 -->
<g id="edge17_Node000004_Node000025" class="edge">
<title>Node4&#45;&gt;Node25</title>
<g id="a_edge17_Node000004_Node000025"><a xlink:title=" ">
<path fill="none" stroke="#63b8ff" d="M1539.14,-52.18C1569.43,-42.44 1610.39,-29.28 1637.76,-20.48"/>
<polygon fill="#63b8ff" stroke="#63b8ff" points="1538.4,-48.74 1529.95,-55.13 1540.55,-55.4 1538.4,-48.74"/>
</a>
</g>
</g>
<!-- Node27 -->
<g id="Node000027" class="node">
<title>Node27</title>
<g id="a_Node000027"><a xlink:href="external__examples_2f9c2d4b3_2azure__board__apps_2graphics_23d__matrix_23d__matrix__src_2graphics__support_8h.html" target="_top" xlink:title=" ">
<polygon fill="#fff0f0" stroke="red" points="1833.5,-20 1735,-20 1735,0 1833.5,0 1833.5,-20"/>
<text xml:space="preserve" text-anchor="middle" x="1784.25" y="-6.5" font-family="Helvetica,sans-Serif" font-size="10.00">graphics_support.h</text>
</a>
</g>
</g>
<!-- Node4&#45;&gt;Node27 -->
<g id="edge18_Node000004_Node000027" class="edge">
<title>Node4&#45;&gt;Node27</title>
<g id="a_edge18_Node000004_Node000027"><a xlink:title=" ">
<path fill="none" stroke="#63b8ff" d="M1541.46,-55.61C1614.43,-40.83 1687.73,-27.7 1734.87,-19.48"/>
<polygon fill="#63b8ff" stroke="#63b8ff" points="1540.82,-52.17 1531.72,-57.6 1542.21,-59.03 1540.82,-52.17"/>
</a>
</g>
</g>
<!-- Node29 -->
<g id="Node000029" class="node">
<title>Node29</title>
<g id="a_Node000029"><a xlink:href="applications_2m5stack__core__s3_2apps_23d__graphics_2main_2init__display_8c.html" target="_top" xlink:title=" ">
<polygon fill="white" stroke="#666666" points="1923.38,-20 1851.12,-20 1851.12,0 1923.38,0 1923.38,-20"/>
<text xml:space="preserve" text-anchor="middle" x="1887.25" y="-6.5" font-family="Helvetica,sans-Serif" font-size="10.00">init_display.c</text>
</a>
</g>
</g>
<!-- Node4&#45;&gt;Node29 -->
<g id="edge19_Node000004_Node000029" class="edge">
<title>Node4&#45;&gt;Node29</title>
<g id="a_edge19_Node000004_Node000029"><a xlink:title=" ">
<path fill="none" stroke="#63b8ff" d="M1541.27,-55.83C1674.85,-33.5 1711.85,-40.75 1842.25,-20 1845.08,-19.55 1848.01,-19.05 1850.95,-18.52"/>
<polygon fill="#63b8ff" stroke="#63b8ff" points="1540.96,-52.33 1531.69,-57.45 1542.13,-59.23 1540.96,-52.33"/>
</a>
</g>
</g>
<!-- Node30 -->
<g id="Node000030" class="node">
<title>Node30</title>
<g id="a_Node000030"><a xlink:href="external__examples_2b00f000e_2applications_2m5stack__core__s3_2apps_23d__graphics_2main_2init__display_8c.html" target="_top" xlink:title=" ">
<polygon fill="white" stroke="#666666" points="2013.38,-20 1941.12,-20 1941.12,0 2013.38,0 2013.38,-20"/>
<text xml:space="preserve" text-anchor="middle" x="1977.25" y="-6.5" font-family="Helvetica,sans-Serif" font-size="10.00">init_display.c</text>
</a>
</g>
</g>
<!-- Node4&#45;&gt;Node30 -->
<g id="edge20_Node000004_Node000030" class="edge">
<title>Node4&#45;&gt;Node30</title>
<g id="a_edge20_Node000004_Node000030"><a xlink:title=" ">
<path fill="none" stroke="#63b8ff" d="M1541.49,-55.86C1714.5,-29.37 1762.32,-44.7 1932.25,-20 1935.09,-19.59 1938.02,-19.11 1940.96,-18.6"/>
<polygon fill="#63b8ff" stroke="#63b8ff" points="1541.02,-52.39 1531.68,-57.39 1542.1,-59.31 1541.02,-52.39"/>
</a>
</g>
</g>
<!-- Node31 -->
<g id="Node000031" class="node">
<title>Node31</title>
<g id="a_Node000031"><a xlink:href="applications_2azure__board__apps_2apps_2kalman__filter_2main_2kalman__filter__demo_8cpp.html" target="_top" xlink:title=" ">
<polygon fill="white" stroke="#666666" points="2151,-20 2031.5,-20 2031.5,0 2151,0 2151,-20"/>
<text xml:space="preserve" text-anchor="middle" x="2091.25" y="-6.5" font-family="Helvetica,sans-Serif" font-size="10.00">kalman_filter_demo.cpp</text>
</a>
</g>
</g>
<!-- Node4&#45;&gt;Node31 -->
<g id="edge21_Node000004_Node000031" class="edge">
<title>Node4&#45;&gt;Node31</title>
<g id="a_edge21_Node000004_Node000031"><a xlink:title=" ">
<path fill="none" stroke="#63b8ff" d="M1541.41,-55.91C1754.12,-24.88 1811.77,-41.55 2022.25,-20 2025.13,-19.7 2028.08,-19.39 2031.06,-19.05"/>
<polygon fill="#63b8ff" stroke="#63b8ff" points="1541.05,-52.42 1531.67,-57.35 1542.08,-59.35 1541.05,-52.42"/>
</a>
</g>
</g>
<!-- Node32 -->
<g id="Node000032" class="node">
<title>Node32</title>
<g id="a_Node000032"><a xlink:href="external__examples_2b00f000e_2applications_2azure__board__apps_2apps_2kalman__filter_2main_2kalman__filter__demo_8cpp.html" target="_top" xlink:title=" ">
<polygon fill="white" stroke="#666666" points="2289,-20 2169.5,-20 2169.5,0 2289,0 2289,-20"/>
<text xml:space="preserve" text-anchor="middle" x="2229.25" y="-6.5" font-family="Helvetica,sans-Serif" font-size="10.00">kalman_filter_demo.cpp</text>
</a>
</g>
</g>
<!-- Node4&#45;&gt;Node32 -->
<g id="edge22_Node000004_Node000032" class="edge">
<title>Node4&#45;&gt;Node32</title>
<g id="a_edge22_Node000004_Node000032"><a xlink:title=" ">
<path fill="none" stroke="#63b8ff" d="M1541.25,-55.97C1814.96,-18.27 1888.63,-45.55 2160.25,-20 2163.14,-19.73 2166.09,-19.43 2169.07,-19.11"/>
<polygon fill="#63b8ff" stroke="#63b8ff" points="1541.09,-52.46 1531.67,-57.31 1542.05,-59.39 1541.09,-52.46"/>
</a>
</g>
</g>
<!-- Node33 -->
<g id="Node000033" class="node">
<title>Node33</title>
<g id="a_Node000033"><a xlink:href="external__examples_2d1468452_2apps_2kalman__filter_2main_2kalman__filter__demo_8cpp.html" target="_top" xlink:title=" ">
<polygon fill="white" stroke="#666666" points="2427,-20 2307.5,-20 2307.5,0 2427,0 2427,-20"/>
<text xml:space="preserve" text-anchor="middle" x="2367.25" y="-6.5" font-family="Helvetica,sans-Serif" font-size="10.00">kalman_filter_demo.cpp</text>
</a>
</g>
</g>
<!-- Node4&#45;&gt;Node33 -->
<g id="edge23_Node000004_Node000033" class="edge">
<title>Node4&#45;&gt;Node33</title>
<g id="a_edge23_Node000004_Node000033"><a xlink:title=" ">
<path fill="none" stroke="#63b8ff" d="M1541.15,-56.01C1875.84,-11.6 1965.47,-49.54 2298.25,-20 2301.14,-19.74 2304.09,-19.46 2307.07,-19.15"/>
<polygon fill="#63b8ff" stroke="#63b8ff" points="1541.11,-52.49 1531.66,-57.29 1542.04,-59.42 1541.11,-52.49"/>
</a>
</g>
</g>
<!-- Node34 -->
<g id="Node000034" class="node">
<title>Node34</title>
<g id="a_Node000034"><a xlink:href="external__examples_2f9c2d4b3_2azure__board__apps_2apps_2kalman__filter_2main_2kalman__filter__demo_8cpp.html" target="_top" xlink:title=" ">
<polygon fill="white" stroke="#666666" points="2565,-20 2445.5,-20 2445.5,0 2565,0 2565,-20"/>
<text xml:space="preserve" text-anchor="middle" x="2505.25" y="-6.5" font-family="Helvetica,sans-Serif" font-size="10.00">kalman_filter_demo.cpp</text>
</a>
</g>
</g>
<!-- Node4&#45;&gt;Node34 -->
<g id="edge24_Node000004_Node000034" class="edge">
<title>Node4&#45;&gt;Node34</title>
<g id="a_edge24_Node000004_Node000034"><a xlink:title=" ">
<path fill="none" stroke="#63b8ff" d="M1541.35,-56C1936.79,-4.91 2042.39,-53.52 2436.25,-20 2439.14,-19.75 2442.09,-19.48 2445.07,-19.17"/>
<polygon fill="#63b8ff" stroke="#63b8ff" points="1541.12,-52.5 1531.66,-57.27 1542.03,-59.44 1541.12,-52.5"/>
</a>
</g>
</g>
<!-- Node35 -->
<g id="Node000035" class="node">
<title>Node35</title>
<g id="a_Node000035"><a xlink:href="main_2main_8c.html" target="_top" xlink:title=" ">
<polygon fill="white" stroke="#666666" points="2627.88,-20 2582.62,-20 2582.62,0 2627.88,0 2627.88,-20"/>
<text xml:space="preserve" text-anchor="middle" x="2605.25" y="-6.5" font-family="Helvetica,sans-Serif" font-size="10.00">main.c</text>
</a>
</g>
</g>
<!-- Node4&#45;&gt;Node35 -->
<g id="edge25_Node000004_Node000035" class="edge">
<title>Node4&#45;&gt;Node35</title>
<g id="a_edge25_Node000004_Node000035"><a xlink:title=" ">
<path fill="none" stroke="#63b8ff" d="M1541.34,-56.02C1997.78,1.25 2123.41,-92.14 2574.25,-20 2576.91,-19.57 2579.66,-18.99 2582.37,-18.33"/>
<polygon fill="#63b8ff" stroke="#63b8ff" points="1541.14,-52.52 1531.66,-57.26 1542.02,-59.46 1541.14,-52.52"/>
</a>
</g>
</g>
<!-- Node36 -->
<g id="Node000036" class="node">
<title>Node36</title>
<g id="a_Node000036"><a xlink:href="components_2espressif____esp-dsp_2applications_2spectrum__box__lite_2main_2main_8c.html" target="_top" xlink:title=" ">
<polygon fill="white" stroke="#666666" points="2690.88,-20 2645.62,-20 2645.62,0 2690.88,0 2690.88,-20"/>
<text xml:space="preserve" text-anchor="middle" x="2668.25" y="-6.5" font-family="Helvetica,sans-Serif" font-size="10.00">main.c</text>
</a>
</g>
</g>
<!-- Node4&#45;&gt;Node36 -->
<g id="edge26_Node000004_Node000036" class="edge">
<title>Node4&#45;&gt;Node36</title>
<g id="a_edge26_Node000004_Node000036"><a xlink:title=" ">
<path fill="none" stroke="#63b8ff" d="M1541.3,-56.03C2025.59,4.32 2158.69,-96.08 2637.25,-20 2639.91,-19.58 2642.66,-19 2645.37,-18.33"/>
<polygon fill="#63b8ff" stroke="#63b8ff" points="1541.14,-52.52 1531.66,-57.25 1542.02,-59.47 1541.14,-52.52"/>
</a>
</g>
</g>
<!-- Node37 -->
<g id="Node000037" class="node">
<title>Node37</title>
<g id="a_Node000037"><a xlink:href="components_2espressif____esp-dsp_2external__examples_2b00f000e_2applications_2spectrum__box__lite_2main_2main_8c.html" target="_top" xlink:title=" ">
<polygon fill="white" stroke="#666666" points="2753.88,-20 2708.62,-20 2708.62,0 2753.88,0 2753.88,-20"/>
<text xml:space="preserve" text-anchor="middle" x="2731.25" y="-6.5" font-family="Helvetica,sans-Serif" font-size="10.00">main.c</text>
</a>
</g>
</g>
<!-- Node4&#45;&gt;Node37 -->
<g id="edge27_Node000004_Node000037" class="edge">
<title>Node4&#45;&gt;Node37</title>
<g id="a_edge27_Node000004_Node000037"><a xlink:title=" ">
<path fill="none" stroke="#63b8ff" d="M1541.55,-56.01C2053.45,7.36 2194.07,-100.01 2700.25,-20 2702.91,-19.58 2705.66,-19 2708.37,-18.34"/>
<polygon fill="#63b8ff" stroke="#63b8ff" points="1541.14,-52.53 1531.66,-57.25 1542.02,-59.47 1541.14,-52.53"/>
</a>
</g>
</g>
<!-- Node39&#45;&gt;Node4 -->
<g id="edge32_Node000039_Node000004" class="edge">
<title>Node39&#45;&gt;Node4</title>
<g id="a_edge32_Node000039_Node000004"><a xlink:title=" ">
<path fill="none" stroke="#63b8ff" d="M1568.73,-106.08C1551.9,-96.62 1530.65,-84.66 1516.1,-76.48"/>
<polygon fill="#63b8ff" stroke="#63b8ff" points="1566.78,-109 1577.21,-110.85 1570.21,-102.9 1566.78,-109"/>
</a>
</g>
</g>
<!-- Node40 -->
<g id="Node000040" class="node">
<title>Node40</title>
<g id="a_Node000040"><a xlink:href="dsps__ccorr__f32__ansi_8c.html" target="_top" xlink:title=" ">
<polygon fill="white" stroke="#666666" points="1662.38,-76 1548.12,-76 1548.12,-56 1662.38,-56 1662.38,-76"/>
<text xml:space="preserve" text-anchor="middle" x="1605.25" y="-62.5" font-family="Helvetica,sans-Serif" font-size="10.00">dsps_ccorr_f32_ansi.c</text>
</a>
</g>
</g>
<!-- Node39&#45;&gt;Node40 -->
<g id="edge30_Node000039_Node000040" class="edge">
<title>Node39&#45;&gt;Node40</title>
<g id="a_edge30_Node000039_Node000040"><a xlink:title=" ">
<path fill="none" stroke="#63b8ff" d="M1599.06,-100.43C1600.6,-92.11 1602.3,-82.93 1603.53,-76.3"/>
<polygon fill="#63b8ff" stroke="#63b8ff" points="1595.65,-99.64 1597.27,-110.11 1602.53,-100.91 1595.65,-99.64"/>
</a>
</g>
</g>
<!-- Node41 -->
<g id="Node000041" class="node">
<title>Node41</title>
<g id="a_Node000041"><a xlink:href="dsps__conv__f32__ansi_8c.html" target="_top" xlink:title=" ">
<polygon fill="white" stroke="#666666" points="1794,-76 1680.5,-76 1680.5,-56 1794,-56 1794,-76"/>
<text xml:space="preserve" text-anchor="middle" x="1737.25" y="-62.5" font-family="Helvetica,sans-Serif" font-size="10.00">dsps_conv_f32_ansi.c</text>
</a>
</g>
</g>
<!-- Node39&#45;&gt;Node41 -->
<g id="edge31_Node000039_Node000041" class="edge">
<title>Node39&#45;&gt;Node41</title>
<g id="a_edge31_Node000039_Node000041"><a xlink:title=" ">
<path fill="none" stroke="#63b8ff" d="M1630.67,-107.53C1656.08,-97.87 1689.69,-85.08 1712.32,-76.48"/>
<polygon fill="#63b8ff" stroke="#63b8ff" points="1629.5,-104.23 1621.4,-111.06 1631.99,-110.77 1629.5,-104.23"/>
</a>
</g>
</g>
<!-- Node42&#45;&gt;Node4 -->
<g id="edge35_Node000042_Node000004" class="edge">
<title>Node42&#45;&gt;Node4</title>
<g id="a_edge35_Node000042_Node000004"><a xlink:title=" ">
<path fill="none" stroke="#63b8ff" d="M1639.52,-108.39C1606.01,-98.5 1560.18,-84.98 1530.15,-76.12"/>
<polygon fill="#63b8ff" stroke="#63b8ff" points="1638.34,-111.69 1648.92,-111.17 1640.32,-104.98 1638.34,-111.69"/>
</a>
</g>
</g>
<!-- Node43 -->
<g id="Node000043" class="node">
<title>Node43</title>
<g id="a_Node000043"><a xlink:href="dsps__corr__f32__ansi_8c.html" target="_top" xlink:title=" ">
<polygon fill="white" stroke="#666666" points="1920.75,-76 1811.75,-76 1811.75,-56 1920.75,-56 1920.75,-76"/>
<text xml:space="preserve" text-anchor="middle" x="1866.25" y="-62.5" font-family="Helvetica,sans-Serif" font-size="10.00">dsps_corr_f32_ansi.c</text>
</a>
</g>
</g>
<!-- Node42&#45;&gt;Node43 -->
<g id="edge34_Node000042_Node000043" class="edge">
<title>Node42&#45;&gt;Node43</title>
<g id="a_edge34_Node000042_Node000043"><a xlink:title=" ">
<path fill="none" stroke="#63b8ff" d="M1725.07,-108.43C1758.32,-98.67 1803.71,-85.35 1833.95,-76.48"/>
<polygon fill="#63b8ff" stroke="#63b8ff" points="1724.36,-104.99 1715.75,-111.17 1726.33,-111.71 1724.36,-104.99"/>
</a>
</g>
</g>
</g>
</svg>
