<?xml version="1.0" encoding="UTF-8" standalone="no"?>
<!DOCTYPE svg PUBLIC "-//W3C//DTD SVG 1.1//EN"
 "http://www.w3.org/Graphics/SVG/1.1/DTD/svg11.dtd">
<!-- Generated by graphviz version 14.1.2 (20260124.0452)
 -->
<!-- Title: dsps_mulc_f32_ansi Pages: 1 -->
<svg width="496pt" height="218pt"
 viewBox="0.00 0.00 496.00 218.00" xmlns="http://www.w3.org/2000/svg" xmlns:xlink="http://www.w3.org/1999/xlink">

<svg id="main" version="1.1" xmlns="http://www.w3.org/2000/svg" xmlns:xlink="http://www.w3.org/1999/xlink" xml:space="preserve">

<style type="text/css"><![CDATA[
.node, .edge {opacity: 0.7;}
.node.selected, .edge.selected {opacity: 1;}
.edge:hover path { stroke: red; }
.edge:hover polygon { stroke: red; fill: red; }
]]></style>
<script type="application/ecmascript" xlink:href="svg.min.js"/>
<svg id="graph" class="graph">
<g id="graph0" class="graph" transform="scale(1 1) rotate(0) translate(4 214)">
<title>dsps_mulc_f32_ansi</title>
<!-- Node1 -->
<g id="Node000001" class="node">
<title>Node1</title>
<g id="a_Node000001"><a xlink:title="multiply constant">
<polygon fill="#999999" stroke="#666666" points="487.75,-96 382.5,-96 382.5,-76 487.75,-76 487.75,-96"/>
<text xml:space="preserve" text-anchor="middle" x="435.12" y="-82.5" font-family="Helvetica,sans-Serif" font-size="10.00">dsps_mulc_f32_ansi</text>
</a>
</g>
</g>
<!-- Node2 -->
<g id="Node000002" class="node">
<title>Node2</title>
<g id="a_Node000002"><a xlink:href="applications_2lyrat__board__app_2main_2audio__amp__main_8c.html#a11a7e6affe758e24d45f22bade3f7ac3" target="_top" xlink:title=" ">
<polygon fill="white" stroke="#666666" points="333.38,-172 246.12,-172 246.12,-152 333.38,-152 333.38,-172"/>
<text xml:space="preserve" text-anchor="middle" x="289.75" y="-158.5" font-family="Helvetica,sans-Serif" font-size="10.00">audio_read_task</text>
</a>
</g>
</g>
<!-- Node1&#45;&gt;Node2 -->
<g id="edge1_Node000001_Node000002" class="edge">
<title>Node1&#45;&gt;Node2</title>
<g id="a_edge1_Node000001_Node000002"><a xlink:title=" ">
<path fill="none" stroke="#63b8ff" d="M411.3,-103.11C394.14,-115.4 369.69,-131.72 346.5,-143 339.97,-146.17 332.78,-149.05 325.78,-151.55"/>
<polygon fill="#63b8ff" stroke="#63b8ff" points="413.25,-106.02 419.27,-97.3 409.13,-100.36 413.25,-106.02"/>
</a>
</g>
</g>
<!-- Node7 -->
<g id="Node000007" class="node">
<title>Node7</title>
<g id="a_Node000007"><a xlink:href="external__examples_21fa4e38f_2lyrat__board__app_2main_2audio__amp__main_8c.html#a11a7e6affe758e24d45f22bade3f7ac3" target="_top" xlink:title=" ">
<polygon fill="white" stroke="#666666" points="333.38,-134 246.12,-134 246.12,-114 333.38,-114 333.38,-134"/>
<text xml:space="preserve" text-anchor="middle" x="289.75" y="-120.5" font-family="Helvetica,sans-Serif" font-size="10.00">audio_read_task</text>
</a>
</g>
</g>
<!-- Node1&#45;&gt;Node7 -->
<g id="edge6_Node000001_Node000007" class="edge">
<title>Node1&#45;&gt;Node7</title>
<g id="a_edge6_Node000001_Node000007"><a xlink:title=" ">
<path fill="none" stroke="#63b8ff" d="M383.89,-99.31C366.28,-103.98 346.77,-109.15 330.18,-113.55"/>
<polygon fill="#63b8ff" stroke="#63b8ff" points="384.34,-102.82 393.1,-96.87 382.54,-96.05 384.34,-102.82"/>
</a>
</g>
</g>
<!-- Node8 -->
<g id="Node000008" class="node">
<title>Node8</title>
<g id="a_Node000008"><a xlink:href="external__examples_2b00f000e_2applications_2lyrat__board__app_2main_2audio__amp__main_8c.html#a11a7e6affe758e24d45f22bade3f7ac3" target="_top" xlink:title=" ">
<polygon fill="white" stroke="#666666" points="333.38,-96 246.12,-96 246.12,-76 333.38,-76 333.38,-96"/>
<text xml:space="preserve" text-anchor="middle" x="289.75" y="-82.5" font-family="Helvetica,sans-Serif" font-size="10.00">audio_read_task</text>
</a>
</g>
</g>
<!-- Node1&#45;&gt;Node8 -->
<g id="edge7_Node000001_Node000008" class="edge">
<title>Node1&#45;&gt;Node8</title>
<g id="a_edge7_Node000001_Node000008"><a xlink:title=" ">
<path fill="none" stroke="#63b8ff" d="M370.89,-86C358.24,-86 345.23,-86 333.48,-86"/>
<polygon fill="#63b8ff" stroke="#63b8ff" points="370.85,-89.5 380.85,-86 370.85,-82.5 370.85,-89.5"/>
</a>
</g>
</g>
<!-- Node9 -->
<g id="Node000009" class="node">
<title>Node9</title>
<g id="a_Node000009"><a xlink:href="classdspm_1_1_mat.html#a162f0bdd51e92b35c0573e5111a8c48a" target="_top" xlink:title=" ">
<polygon fill="white" stroke="#666666" points="346.5,-58 233,-58 233,-38 346.5,-38 346.5,-58"/>
<text xml:space="preserve" text-anchor="middle" x="289.75" y="-44.5" font-family="Helvetica,sans-Serif" font-size="10.00">dspm::Mat::operator*=</text>
</a>
</g>
</g>
<!-- Node1&#45;&gt;Node9 -->
<g id="edge8_Node000001_Node000009" class="edge">
<title>Node1&#45;&gt;Node9</title>
<g id="a_edge8_Node000001_Node000009"><a xlink:title=" ">
<path fill="none" stroke="#63b8ff" d="M383.89,-72.69C366.28,-68.02 346.77,-62.85 330.18,-58.45"/>
<polygon fill="#63b8ff" stroke="#63b8ff" points="382.54,-75.95 393.1,-75.13 384.34,-69.18 382.54,-75.95"/>
</a>
</g>
</g>
<!-- Node10 -->
<g id="Node000010" class="node">
<title>Node10</title>
<g id="a_Node000010"><a xlink:href="classdspm_1_1_mat.html#abecd4c41d26bbe015c86e0a7f1205af3" target="_top" xlink:title=" ">
<polygon fill="white" stroke="#666666" points="346.12,-20 233.38,-20 233.38,0 346.12,0 346.12,-20"/>
<text xml:space="preserve" text-anchor="middle" x="289.75" y="-6.5" font-family="Helvetica,sans-Serif" font-size="10.00">dspm::Mat::operator/=</text>
</a>
</g>
</g>
<!-- Node1&#45;&gt;Node10 -->
<g id="edge9_Node000001_Node000010" class="edge">
<title>Node1&#45;&gt;Node10</title>
<g id="a_edge9_Node000001_Node000010"><a xlink:title=" ">
<path fill="none" stroke="#63b8ff" d="M411.3,-68.89C394.14,-56.6 369.69,-40.28 346.5,-29 339.97,-25.83 332.78,-22.95 325.78,-20.45"/>
<polygon fill="#63b8ff" stroke="#63b8ff" points="409.13,-71.64 419.27,-74.7 413.25,-65.98 409.13,-71.64"/>
</a>
</g>
</g>
<!-- Node3 -->
<g id="Node000003" class="node">
<title>Node3</title>
<g id="a_Node000003"><a xlink:href="applications_2lyrat__board__app_2main_2audio__amp__main_8c.html#ab091c1cbf0cdee1a9e75495e68236ab6" target="_top" xlink:title=" ">
<polygon fill="white" stroke="#666666" points="197,-210 94,-210 94,-190 197,-190 197,-210"/>
<text xml:space="preserve" text-anchor="middle" x="145.5" y="-196.5" font-family="Helvetica,sans-Serif" font-size="10.00">audio_process_task</text>
</a>
</g>
</g>
<!-- Node2&#45;&gt;Node3 -->
<g id="edge2_Node000002_Node000003" class="edge">
<title>Node2&#45;&gt;Node3</title>
<g id="a_edge2_Node000002_Node000003"><a xlink:title=" ">
<path fill="none" stroke="#63b8ff" d="M238.42,-175.45C221.08,-180.08 201.93,-185.19 185.62,-189.55"/>
<polygon fill="#63b8ff" stroke="#63b8ff" points="239.28,-178.84 248.04,-172.87 237.48,-172.07 239.28,-178.84"/>
</a>
</g>
</g>
<!-- Node5 -->
<g id="Node000005" class="node">
<title>Node5</title>
<g id="a_Node000005"><a xlink:href="external__examples_21fa4e38f_2lyrat__board__app_2main_2audio__amp__main_8c.html#ab091c1cbf0cdee1a9e75495e68236ab6" target="_top" xlink:title=" ">
<polygon fill="white" stroke="#666666" points="197,-172 94,-172 94,-152 197,-152 197,-172"/>
<text xml:space="preserve" text-anchor="middle" x="145.5" y="-158.5" font-family="Helvetica,sans-Serif" font-size="10.00">audio_process_task</text>
</a>
</g>
</g>
<!-- Node2&#45;&gt;Node5 -->
<g id="edge4_Node000002_Node000005" class="edge">
<title>Node2&#45;&gt;Node5</title>
<g id="a_edge4_Node000002_Node000005"><a xlink:title=" ">
<path fill="none" stroke="#63b8ff" d="M234.32,-162C222.2,-162 209.4,-162 197.43,-162"/>
<polygon fill="#63b8ff" stroke="#63b8ff" points="234.17,-165.5 244.17,-162 234.17,-158.5 234.17,-165.5"/>
</a>
</g>
</g>
<!-- Node6 -->
<g id="Node000006" class="node">
<title>Node6</title>
<g id="a_Node000006"><a xlink:href="external__examples_2b00f000e_2applications_2lyrat__board__app_2main_2audio__amp__main_8c.html#ab091c1cbf0cdee1a9e75495e68236ab6" target="_top" xlink:title=" ">
<polygon fill="white" stroke="#666666" points="197,-134 94,-134 94,-114 197,-114 197,-134"/>
<text xml:space="preserve" text-anchor="middle" x="145.5" y="-120.5" font-family="Helvetica,sans-Serif" font-size="10.00">audio_process_task</text>
</a>
</g>
</g>
<!-- Node2&#45;&gt;Node6 -->
<g id="edge5_Node000002_Node000006" class="edge">
<title>Node2&#45;&gt;Node6</title>
<g id="a_edge5_Node000002_Node000006"><a xlink:title=" ">
<path fill="none" stroke="#63b8ff" d="M238.42,-148.55C221.08,-143.92 201.93,-138.81 185.62,-134.45"/>
<polygon fill="#63b8ff" stroke="#63b8ff" points="237.48,-151.93 248.04,-151.13 239.28,-145.16 237.48,-151.93"/>
</a>
</g>
</g>
<!-- Node4 -->
<g id="Node000004" class="node">
<title>Node4</title>
<g id="a_Node000004"><a xlink:href="applications_2lyrat__board__app_2main_2audio__amp__main_8c.html#a630544a7f0a2cc40d8a7fefab7e2fe70" target="_top" xlink:title=" ">
<polygon fill="white" stroke="#666666" points="58,-210 0,-210 0,-190 58,-190 58,-210"/>
<text xml:space="preserve" text-anchor="middle" x="29" y="-196.5" font-family="Helvetica,sans-Serif" font-size="10.00">app_main</text>
</a>
</g>
</g>
<!-- Node3&#45;&gt;Node4 -->
<g id="edge3_Node000003_Node000004" class="edge">
<title>Node3&#45;&gt;Node4</title>
<g id="a_edge3_Node000003_Node000004"><a xlink:title=" ">
<path fill="none" stroke="#63b8ff" d="M82.26,-200C73.94,-200 65.77,-200 58.45,-200"/>
<polygon fill="#63b8ff" stroke="#63b8ff" points="82.1,-203.5 92.1,-200 82.1,-196.5 82.1,-203.5"/>
</a>
</g>
</g>
</g>
</svg>
</svg>

<style type='text/css'>
<![CDATA[
[data-mouse-over-selected='false'] { opacity: 0.7; }
[data-mouse-over-selected='true']  { opacity: 1.0; }
]]>
</style>
<script type="application/ecmascript"><![CDATA[
document.addEventListener('DOMContentLoaded', (event) => {
  highlightEdges();
  highlightAdjacentNodes();
});
]]></script>
</svg>
