<?xml version="1.0" encoding="UTF-8" standalone="no"?>
<!DOCTYPE svg PUBLIC "-//W3C//DTD SVG 1.1//EN"
 "http://www.w3.org/Graphics/SVG/1.1/DTD/svg11.dtd">
<!-- Generated by graphviz version 14.1.2 (20260124.0452)
 -->
<!-- Title: dsps_gen_w_r2_fc32 Pages: 1 -->
<svg width="440pt" height="104pt"
 viewBox="0.00 0.00 440.00 104.00" xmlns="http://www.w3.org/2000/svg" xmlns:xlink="http://www.w3.org/1999/xlink">
<g id="graph0" class="graph" transform="scale(1 1) rotate(0) translate(4 100)">
<title>dsps_gen_w_r2_fc32</title>
<!-- Node1 -->
<g id="Node000001" class="node">
<title>Node1</title>
<g id="a_Node000001"><a xlink:title="Generate coefficients table for the FFT radix 2.">
<polygon fill="#999999" stroke="#666666" points="431.5,-58 323.25,-58 323.25,-38 431.5,-38 431.5,-58"/>
<text xml:space="preserve" text-anchor="middle" x="377.38" y="-44.5" font-family="Helvetica,sans-Serif" font-size="10.00">dsps_gen_w_r2_fc32</text>
</a>
</g>
</g>
<!-- Node2 -->
<g id="Node000002" class="node">
<title>Node2</title>
<g id="a_Node000002"><a xlink:href="dsps__fft2r__fc32__ansi_8c.html#aa5f77f0db0301950603a20f9e67822aa" target="_top" xlink:title="init fft tables">
<polygon fill="white" stroke="#666666" points="287.25,-58 186.5,-58 186.5,-38 287.25,-38 287.25,-58"/>
<text xml:space="preserve" text-anchor="middle" x="236.88" y="-44.5" font-family="Helvetica,sans-Serif" font-size="10.00">dsps_fft2r_init_fc32</text>
</a>
</g>
</g>
<!-- Node1&#45;&gt;Node2 -->
<g id="edge1_Node000001_Node000002" class="edge">
<title>Node1&#45;&gt;Node2</title>
<g id="a_edge1_Node000001_Node000002"><a xlink:title=" ">
<path fill="none" stroke="#63b8ff" d="M311.56,-48C303.53,-48 295.41,-48 287.65,-48"/>
<polygon fill="#63b8ff" stroke="#63b8ff" points="311.31,-51.5 321.31,-48 311.31,-44.5 311.31,-51.5"/>
</a>
</g>
</g>
<!-- Node3 -->
<g id="Node000003" class="node">
<title>Node3</title>
<g id="a_Node000003"><a xlink:href="dsps__sfdr__f32_8cpp.html#ae224c5e7f4802b7b403c17b2e8a4a448" target="_top" xlink:title="SFDR.">
<polygon fill="white" stroke="#666666" points="150.5,-96 73,-96 73,-76 150.5,-76 150.5,-96"/>
<text xml:space="preserve" text-anchor="middle" x="111.75" y="-82.5" font-family="Helvetica,sans-Serif" font-size="10.00">dsps_sfdr_f32</text>
</a>
</g>
</g>
<!-- Node2&#45;&gt;Node3 -->
<g id="edge2_Node000002_Node000003" class="edge">
<title>Node2&#45;&gt;Node3</title>
<g id="a_edge2_Node000002_Node000003"><a xlink:title=" ">
<path fill="none" stroke="#63b8ff" d="M191.02,-61.84C176.36,-66.37 160.32,-71.32 146.61,-75.55"/>
<polygon fill="#63b8ff" stroke="#63b8ff" points="191.94,-65.22 200.46,-58.93 189.87,-58.54 191.94,-65.22"/>
</a>
</g>
</g>
<!-- Node4 -->
<g id="Node000004" class="node">
<title>Node4</title>
<g id="a_Node000004"><a xlink:href="dsps__snr__f32_8cpp.html#aa9349a0ba3a576bafac3c0ade5278e46" target="_top" xlink:title="SNR.">
<polygon fill="white" stroke="#666666" points="149,-58 74.5,-58 74.5,-38 149,-38 149,-58"/>
<text xml:space="preserve" text-anchor="middle" x="111.75" y="-44.5" font-family="Helvetica,sans-Serif" font-size="10.00">dsps_snr_f32</text>
</a>
</g>
</g>
<!-- Node2&#45;&gt;Node4 -->
<g id="edge3_Node000002_Node000004" class="edge">
<title>Node2&#45;&gt;Node4</title>
<g id="a_edge3_Node000002_Node000004"><a xlink:title=" ">
<path fill="none" stroke="#63b8ff" d="M174.8,-48C166.12,-48 157.42,-48 149.41,-48"/>
<polygon fill="#63b8ff" stroke="#63b8ff" points="174.64,-51.5 184.64,-48 174.64,-44.5 174.64,-51.5"/>
</a>
</g>
</g>
<!-- Node5 -->
<g id="Node000005" class="node">
<title>Node5</title>
<g id="a_Node000005"><a xlink:href="test__fft2r_8c.html#af57f5d7a9dfff9aeea49fb117331c12d" target="_top" xlink:title=" ">
<polygon fill="white" stroke="#666666" points="138.88,-20 84.62,-20 84.62,0 138.88,0 138.88,-20"/>
<text xml:space="preserve" text-anchor="middle" x="111.75" y="-6.5" font-family="Helvetica,sans-Serif" font-size="10.00">test_fft2r</text>
</a>
</g>
</g>
<!-- Node2&#45;&gt;Node5 -->
<g id="edge4_Node000002_Node000005" class="edge">
<title>Node2&#45;&gt;Node5</title>
<g id="a_edge4_Node000002_Node000005"><a xlink:title=" ">
<path fill="none" stroke="#63b8ff" d="M191.33,-34.25C173.85,-28.86 154.38,-22.85 139.2,-18.16"/>
<polygon fill="#63b8ff" stroke="#63b8ff" points="189.87,-37.46 200.46,-37.07 191.94,-30.78 189.87,-37.46"/>
</a>
</g>
</g>
<!-- Node6 -->
<g id="Node000006" class="node">
<title>Node6</title>
<g id="a_Node000006"><a xlink:href="components_2espressif____esp-dsp_2modules_2fft_2test__sim_2main_8c.html#a840291bc02cba5474a4cb46a9b9566fe" target="_top" xlink:title=" ">
<polygon fill="white" stroke="#666666" points="37,-20 0,-20 0,0 37,0 37,-20"/>
<text xml:space="preserve" text-anchor="middle" x="18.5" y="-6.5" font-family="Helvetica,sans-Serif" font-size="10.00">main</text>
</a>
</g>
</g>
<!-- Node5&#45;&gt;Node6 -->
<g id="edge5_Node000005_Node000006" class="edge">
<title>Node5&#45;&gt;Node6</title>
<g id="a_edge5_Node000005_Node000006"><a xlink:title=" ">
<path fill="none" stroke="#63b8ff" d="M72.94,-10C60.65,-10 47.59,-10 37.45,-10"/>
<polygon fill="#63b8ff" stroke="#63b8ff" points="72.84,-13.5 82.84,-10 72.84,-6.5 72.84,-13.5"/>
</a>
</g>
</g>
</g>
</svg>
