<?xml version="1.0" encoding="UTF-8" standalone="no"?>
<!DOCTYPE svg PUBLIC "-//W3C//DTD SVG 1.1//EN"
 "http://www.w3.org/Graphics/SVG/1.1/DTD/svg11.dtd">
<!-- Generated by graphviz version 14.1.2 (20260124.0452)
 -->
<!-- Title: dsps_bit_rev4r_fc32 Pages: 1 -->
<svg width="403pt" height="66pt"
 viewBox="0.00 0.00 403.00 66.00" xmlns="http://www.w3.org/2000/svg" xmlns:xlink="http://www.w3.org/1999/xlink">
<g id="graph0" class="graph" transform="scale(1 1) rotate(0) translate(4 62)">
<title>dsps_bit_rev4r_fc32</title>
<!-- Node1 -->
<g id="Node000001" class="node">
<title>Node1</title>
<g id="a_Node000001"><a xlink:title="bit reverse operation for the complex input array radix&#45;4">
<polygon fill="#999999" stroke="#666666" points="103.75,-39 0,-39 0,-19 103.75,-19 103.75,-39"/>
<text xml:space="preserve" text-anchor="middle" x="51.88" y="-25.5" font-family="Helvetica,sans-Serif" font-size="10.00">dsps_bit_rev4r_fc32</text>
</a>
</g>
</g>
<!-- Node2 -->
<g id="Node000002" class="node">
<title>Node2</title>
<g id="a_Node000002"><a xlink:href="dsps__fft4r__fc32__ansi_8c.html#acb8989c84ce30360b587beea893f0af9" target="_top" xlink:title=" ">
<polygon fill="white" stroke="#666666" points="248.75,-45 139.75,-45 139.75,-13 248.75,-13 248.75,-45"/>
<text xml:space="preserve" text-anchor="start" x="147.75" y="-31.5" font-family="Helvetica,sans-Serif" font-size="10.00">dsps_bit_rev4r_direct</text>
<text xml:space="preserve" text-anchor="middle" x="194.25" y="-19.5" font-family="Helvetica,sans-Serif" font-size="10.00">_fc32_ansi</text>
</a>
</g>
</g>
<!-- Node1&#45;&gt;Node2 -->
<g id="edge1_Node000001_Node000002" class="edge">
<title>Node1&#45;&gt;Node2</title>
<g id="a_edge1_Node000001_Node000002"><a xlink:title=" ">
<path fill="none" stroke="#63b8ff" d="M103.95,-29C111.84,-29 120.07,-29 128.21,-29"/>
<polygon fill="#63b8ff" stroke="#63b8ff" points="128.1,-32.5 138.1,-29 128.1,-25.5 128.1,-32.5"/>
</a>
</g>
</g>
<!-- Node3 -->
<g id="Node000003" class="node">
<title>Node3</title>
<g id="a_Node000003"><a xlink:href="test__fft2r_8c.html#a0dc0b4dd19d7ebd2f69bfb0c1a6f85da" target="_top" xlink:title="check power of two The function check if the argument is power of 2. The implementation use ANSI C an...">
<polygon fill="white" stroke="#666666" points="395.25,-58 284.75,-58 284.75,-38 395.25,-38 395.25,-58"/>
<text xml:space="preserve" text-anchor="middle" x="340" y="-44.5" font-family="Helvetica,sans-Serif" font-size="10.00">dsp_is_power_of_two</text>
</a>
</g>
</g>
<!-- Node2&#45;&gt;Node3 -->
<g id="edge2_Node000002_Node000003" class="edge">
<title>Node2&#45;&gt;Node3</title>
<g id="a_edge2_Node000002_Node000003"><a xlink:title=" ">
<path fill="none" stroke="#63b8ff" d="M249.19,-36.13C256.98,-37.16 265.08,-38.23 273.08,-39.29"/>
<polygon fill="#63b8ff" stroke="#63b8ff" points="272.41,-42.73 282.78,-40.57 273.33,-35.79 272.41,-42.73"/>
</a>
</g>
</g>
<!-- Node4 -->
<g id="Node000004" class="node">
<title>Node4</title>
<g id="a_Node000004"><a xlink:href="test__fft2r_8c.html#a58855e560e0563aa519b012dbdcbaec2" target="_top" xlink:title="Power of two The function return power of 2 for values 2^N. The implementation use ANSI C and could b...">
<polygon fill="white" stroke="#666666" points="388.88,-20 291.12,-20 291.12,0 388.88,0 388.88,-20"/>
<text xml:space="preserve" text-anchor="middle" x="340" y="-6.5" font-family="Helvetica,sans-Serif" font-size="10.00">dsp_power_of_two</text>
</a>
</g>
</g>
<!-- Node2&#45;&gt;Node4 -->
<g id="edge3_Node000002_Node000004" class="edge">
<title>Node2&#45;&gt;Node4</title>
<g id="a_edge3_Node000002_Node000004"><a xlink:title=" ">
<path fill="none" stroke="#63b8ff" d="M249.19,-21.87C259.14,-20.56 269.59,-19.17 279.69,-17.84"/>
<polygon fill="#63b8ff" stroke="#63b8ff" points="279.96,-21.33 289.41,-16.55 279.04,-14.39 279.96,-21.33"/>
</a>
</g>
</g>
</g>
</svg>
