<?xml version="1.0" encoding="UTF-8" standalone="no"?>
<!DOCTYPE svg PUBLIC "-//W3C//DTD SVG 1.1//EN"
 "http://www.w3.org/Graphics/SVG/1.1/DTD/svg11.dtd">
<!-- Generated by graphviz version 14.1.2 (20260124.0452)
 -->
<!-- Title: dsps_biquad_gen_lowShelf_f32 Pages: 1 -->
<svg width="542pt" height="201pt"
 viewBox="0.00 0.00 542.00 201.00" xmlns="http://www.w3.org/2000/svg" xmlns:xlink="http://www.w3.org/1999/xlink">
<g id="graph0" class="graph" transform="scale(1 1) rotate(0) translate(4 197.11)">
<title>dsps_biquad_gen_lowShelf_f32</title>
<!-- Node1 -->
<g id="Node000001" class="node">
<title>Node1</title>
<g id="a_Node000001"><a xlink:title="low shelf IIR filter coefficients">
<polygon fill="#999999" stroke="#666666" points="534.25,-115 381,-115 381,-95 534.25,-95 534.25,-115"/>
<text xml:space="preserve" text-anchor="middle" x="457.62" y="-101.5" font-family="Helvetica,sans-Serif" font-size="10.00">dsps_biquad_gen_lowShelf_f32</text>
</a>
</g>
</g>
<!-- Node2 -->
<g id="Node000002" class="node">
<title>Node2</title>
<g id="a_Node000002"><a xlink:href="applications_2lyrat__board__app_2main_2audio__amp__main_8c.html#ab091c1cbf0cdee1a9e75495e68236ab6" target="_top" xlink:title=" ">
<polygon fill="white" stroke="#666666" points="197,-191 94,-191 94,-171 197,-171 197,-191"/>
<text xml:space="preserve" text-anchor="middle" x="145.5" y="-177.5" font-family="Helvetica,sans-Serif" font-size="10.00">audio_process_task</text>
</a>
</g>
</g>
<!-- Node1&#45;&gt;Node2 -->
<g id="edge1_Node000001_Node000002" class="edge">
<title>Node1&#45;&gt;Node2</title>
<g id="a_edge1_Node000001_Node000002"><a xlink:title=" ">
<path fill="none" stroke="#63b8ff" d="M437.89,-123.09C417.12,-141.75 381.69,-169.69 345,-181 296.59,-195.92 238.32,-193.7 197.48,-189.11"/>
<polygon fill="#63b8ff" stroke="#63b8ff" points="440.02,-125.88 444.99,-116.52 435.27,-120.74 440.02,-125.88"/>
</a>
</g>
</g>
<!-- Node4 -->
<g id="Node000004" class="node">
<title>Node4</title>
<g id="a_Node000004"><a xlink:href="external__examples_21fa4e38f_2lyrat__board__app_2main_2audio__amp__main_8c.html#ab091c1cbf0cdee1a9e75495e68236ab6" target="_top" xlink:title=" ">
<polygon fill="white" stroke="#666666" points="197,-153 94,-153 94,-133 197,-133 197,-153"/>
<text xml:space="preserve" text-anchor="middle" x="145.5" y="-139.5" font-family="Helvetica,sans-Serif" font-size="10.00">audio_process_task</text>
</a>
</g>
</g>
<!-- Node1&#45;&gt;Node4 -->
<g id="edge3_Node000001_Node000004" class="edge">
<title>Node1&#45;&gt;Node4</title>
<g id="a_edge3_Node000001_Node000004"><a xlink:title=" ">
<path fill="none" stroke="#63b8ff" d="M369.5,-115.68C313.98,-122.48 243.97,-131.06 197.35,-136.77"/>
<polygon fill="#63b8ff" stroke="#63b8ff" points="369.76,-119.17 379.26,-114.48 368.91,-112.22 369.76,-119.17"/>
</a>
</g>
</g>
<!-- Node5 -->
<g id="Node000005" class="node">
<title>Node5</title>
<g id="a_Node000005"><a xlink:href="external__examples_2b00f000e_2applications_2lyrat__board__app_2main_2audio__amp__main_8c.html#ab091c1cbf0cdee1a9e75495e68236ab6" target="_top" xlink:title=" ">
<polygon fill="white" stroke="#666666" points="197,-115 94,-115 94,-95 197,-95 197,-115"/>
<text xml:space="preserve" text-anchor="middle" x="145.5" y="-101.5" font-family="Helvetica,sans-Serif" font-size="10.00">audio_process_task</text>
</a>
</g>
</g>
<!-- Node1&#45;&gt;Node5 -->
<g id="edge4_Node000001_Node000005" class="edge">
<title>Node1&#45;&gt;Node5</title>
<g id="a_edge4_Node000001_Node000005"><a xlink:title=" ">
<path fill="none" stroke="#63b8ff" d="M369.5,-105C313.98,-105 243.97,-105 197.35,-105"/>
<polygon fill="#63b8ff" stroke="#63b8ff" points="369.25,-108.5 379.25,-105 369.25,-101.5 369.25,-108.5"/>
</a>
</g>
</g>
<!-- Node6 -->
<g id="Node000006" class="node">
<title>Node6</title>
<g id="a_Node000006"><a xlink:href="applications_2lyrat__board__app_2main_2audio__amp__main_8c.html#a9b37162177a4acfc9abcc52ca620736c" target="_top" xlink:title=" ">
<polygon fill="white" stroke="#666666" points="345,-172 233,-172 233,-152 345,-152 345,-172"/>
<text xml:space="preserve" text-anchor="middle" x="289" y="-158.5" font-family="Helvetica,sans-Serif" font-size="10.00">buttons_process_task</text>
</a>
</g>
</g>
<!-- Node1&#45;&gt;Node6 -->
<g id="edge5_Node000001_Node000006" class="edge">
<title>Node1&#45;&gt;Node6</title>
<g id="a_edge5_Node000001_Node000006"><a xlink:title=" ">
<path fill="none" stroke="#63b8ff" d="M415.33,-119.13C386,-129.16 347.25,-142.41 320.65,-151.52"/>
<polygon fill="#63b8ff" stroke="#63b8ff" points="416.3,-122.49 424.63,-115.94 414.04,-115.87 416.3,-122.49"/>
</a>
</g>
</g>
<!-- Node7 -->
<g id="Node000007" class="node">
<title>Node7</title>
<g id="a_Node000007"><a xlink:href="external__examples_21fa4e38f_2lyrat__board__app_2main_2audio__amp__main_8c.html#a9b37162177a4acfc9abcc52ca620736c" target="_top" xlink:title=" ">
<polygon fill="white" stroke="#666666" points="345,-58 233,-58 233,-38 345,-38 345,-58"/>
<text xml:space="preserve" text-anchor="middle" x="289" y="-44.5" font-family="Helvetica,sans-Serif" font-size="10.00">buttons_process_task</text>
</a>
</g>
</g>
<!-- Node1&#45;&gt;Node7 -->
<g id="edge9_Node000001_Node000007" class="edge">
<title>Node1&#45;&gt;Node7</title>
<g id="a_edge9_Node000001_Node000007"><a xlink:title=" ">
<path fill="none" stroke="#63b8ff" d="M415.33,-90.87C386,-80.84 347.25,-67.59 320.65,-58.48"/>
<polygon fill="#63b8ff" stroke="#63b8ff" points="414.04,-94.13 424.63,-94.06 416.3,-87.51 414.04,-94.13"/>
</a>
</g>
</g>
<!-- Node8 -->
<g id="Node000008" class="node">
<title>Node8</title>
<g id="a_Node000008"><a xlink:href="external__examples_2b00f000e_2applications_2lyrat__board__app_2main_2audio__amp__main_8c.html#a9b37162177a4acfc9abcc52ca620736c" target="_top" xlink:title=" ">
<polygon fill="white" stroke="#666666" points="345,-20 233,-20 233,0 345,0 345,-20"/>
<text xml:space="preserve" text-anchor="middle" x="289" y="-6.5" font-family="Helvetica,sans-Serif" font-size="10.00">buttons_process_task</text>
</a>
</g>
</g>
<!-- Node1&#45;&gt;Node8 -->
<g id="edge10_Node000001_Node000008" class="edge">
<title>Node1&#45;&gt;Node8</title>
<g id="a_edge10_Node000001_Node000008"><a xlink:title=" ">
<path fill="none" stroke="#63b8ff" d="M434.92,-87.64C413.17,-70.89 378.25,-45.69 345,-29 338.68,-25.83 331.7,-22.97 324.9,-20.49"/>
<polygon fill="#63b8ff" stroke="#63b8ff" points="432.7,-90.35 442.73,-93.75 437.01,-84.83 432.7,-90.35"/>
</a>
</g>
</g>
<!-- Node3 -->
<g id="Node000003" class="node">
<title>Node3</title>
<g id="a_Node000003"><a xlink:href="applications_2lyrat__board__app_2main_2audio__amp__main_8c.html#a630544a7f0a2cc40d8a7fefab7e2fe70" target="_top" xlink:title=" ">
<polygon fill="white" stroke="#666666" points="58,-191 0,-191 0,-171 58,-171 58,-191"/>
<text xml:space="preserve" text-anchor="middle" x="29" y="-177.5" font-family="Helvetica,sans-Serif" font-size="10.00">app_main</text>
</a>
</g>
</g>
<!-- Node2&#45;&gt;Node3 -->
<g id="edge2_Node000002_Node000003" class="edge">
<title>Node2&#45;&gt;Node3</title>
<g id="a_edge2_Node000002_Node000003"><a xlink:title=" ">
<path fill="none" stroke="#63b8ff" d="M82.26,-181C73.94,-181 65.77,-181 58.45,-181"/>
<polygon fill="#63b8ff" stroke="#63b8ff" points="82.1,-184.5 92.1,-181 82.1,-177.5 82.1,-184.5"/>
</a>
</g>
</g>
<!-- Node6&#45;&gt;Node2 -->
<g id="edge6_Node000006_Node000002" class="edge">
<title>Node6&#45;&gt;Node2</title>
<g id="a_edge6_Node000006_Node000002"><a xlink:title=" ">
<path fill="none" stroke="#63b8ff" d="M221.69,-170.9C213.42,-172.01 205.06,-173.14 197.07,-174.21"/>
<polygon fill="#63b8ff" stroke="#63b8ff" points="221.94,-174.4 231.39,-169.6 221.01,-167.46 221.94,-174.4"/>
</a>
</g>
</g>
<!-- Node6&#45;&gt;Node4 -->
<g id="edge7_Node000006_Node000004" class="edge">
<title>Node6&#45;&gt;Node4</title>
<g id="a_edge7_Node000006_Node000004"><a xlink:title=" ">
<path fill="none" stroke="#63b8ff" d="M221.69,-153.1C213.42,-151.99 205.06,-150.86 197.07,-149.79"/>
<polygon fill="#63b8ff" stroke="#63b8ff" points="221.01,-156.54 231.39,-154.4 221.94,-149.6 221.01,-156.54"/>
</a>
</g>
</g>
<!-- Node6&#45;&gt;Node5 -->
<g id="edge8_Node000006_Node000005" class="edge">
<title>Node6&#45;&gt;Node5</title>
<g id="a_edge8_Node000006_Node000005"><a xlink:title=" ">
<path fill="none" stroke="#63b8ff" d="M253.25,-147.15C236.33,-140 215.67,-131.41 197,-124 189.86,-121.17 182.11,-118.2 174.88,-115.47"/>
<polygon fill="#63b8ff" stroke="#63b8ff" points="251.8,-150.33 262.37,-151.01 254.53,-143.89 251.8,-150.33"/>
</a>
</g>
</g>
</g>
</svg>
