<?xml version="1.0" encoding="UTF-8" standalone="no"?>
<!DOCTYPE svg PUBLIC "-//W3C//DTD SVG 1.1//EN"
 "http://www.w3.org/Graphics/SVG/1.1/DTD/svg11.dtd">
<!-- Generated by graphviz version 14.1.2 (20260124.0452)
 -->
<!-- Title: dsps_resampler_ph.c Pages: 1 -->
<svg width="293pt" height="308pt"
 viewBox="0.00 0.00 293.00 308.00" xmlns="http://www.w3.org/2000/svg" xmlns:xlink="http://www.w3.org/1999/xlink">
<g id="graph0" class="graph" transform="scale(1 1) rotate(0) translate(4 304)">
<title>dsps_resampler_ph.c</title>
<!-- Node1 -->
<g id="Node000001" class="node">
<title>Node1</title>
<g id="a_Node000001"><a xlink:title=" ">
<polygon fill="#999999" stroke="#666666" points="145.12,-300 36.12,-300 36.12,-280 145.12,-280 145.12,-300"/>
<text xml:space="preserve" text-anchor="middle" x="90.62" y="-286.5" font-family="Helvetica,sans-Serif" font-size="10.00">dsps_resampler_ph.c</text>
</a>
</g>
</g>
<!-- Node2 -->
<g id="Node000002" class="node">
<title>Node2</title>
<g id="a_Node000002"><a xlink:href="dsps__resampler_8h.html" target="_top" xlink:title=" ">
<polygon fill="white" stroke="#666666" points="93.25,-244 0,-244 0,-224 93.25,-224 93.25,-244"/>
<text xml:space="preserve" text-anchor="middle" x="46.62" y="-230.5" font-family="Helvetica,sans-Serif" font-size="10.00">dsps_resampler.h</text>
</a>
</g>
</g>
<!-- Node1&#45;&gt;Node2 -->
<g id="edge1_Node000001_Node000002" class="edge">
<title>Node1&#45;&gt;Node2</title>
<g id="a_edge1_Node000001_Node000002"><a xlink:title=" ">
<path fill="none" stroke="#63b8ff" d="M82.96,-279.59C77.03,-272.32 68.64,-262.02 61.41,-253.15"/>
<polygon fill="#63b8ff" stroke="#63b8ff" points="64.19,-251.01 55.16,-245.47 58.76,-255.43 64.19,-251.01"/>
</a>
</g>
</g>
<!-- Node15 -->
<g id="Node000015" class="node">
<title>Node15</title>
<g id="a_Node000015"><a xlink:title=" ">
<polygon fill="#e0e0e0" stroke="#999999" points="157.62,-244 111.62,-244 111.62,-224 157.62,-224 157.62,-244"/>
<text xml:space="preserve" text-anchor="middle" x="134.62" y="-230.5" font-family="Helvetica,sans-Serif" font-size="10.00">math.h</text>
</a>
</g>
</g>
<!-- Node1&#45;&gt;Node15 -->
<g id="edge12_Node000001_Node000015" class="edge">
<title>Node1&#45;&gt;Node15</title>
<g id="a_edge12_Node000001_Node000015"><a xlink:title=" ">
<path fill="none" stroke="#63b8ff" d="M98.29,-279.59C104.22,-272.32 112.61,-262.02 119.84,-253.15"/>
<polygon fill="#63b8ff" stroke="#63b8ff" points="122.49,-255.43 126.09,-245.47 117.06,-251.01 122.49,-255.43"/>
</a>
</g>
</g>
<!-- Node3 -->
<g id="Node000003" class="node">
<title>Node3</title>
<g id="a_Node000003"><a xlink:href="dsp__err_8h.html" target="_top" xlink:title=" ">
<polygon fill="white" stroke="#666666" points="134.88,-76 78.38,-76 78.38,-56 134.88,-56 134.88,-76"/>
<text xml:space="preserve" text-anchor="middle" x="106.62" y="-62.5" font-family="Helvetica,sans-Serif" font-size="10.00">dsp_err.h</text>
</a>
</g>
</g>
<!-- Node2&#45;&gt;Node3 -->
<g id="edge2_Node000002_Node000003" class="edge">
<title>Node2&#45;&gt;Node3</title>
<g id="a_edge2_Node000002_Node000003"><a xlink:title=" ">
<path fill="none" stroke="#63b8ff" d="M46.98,-223.74C48.08,-202.84 52.56,-150.84 70.62,-112 75.18,-102.2 82.31,-92.65 89.02,-84.89"/>
<polygon fill="#63b8ff" stroke="#63b8ff" points="91.59,-87.27 95.78,-77.53 86.44,-82.53 91.59,-87.27"/>
</a>
</g>
</g>
<!-- Node8 -->
<g id="Node000008" class="node">
<title>Node8</title>
<g id="a_Node000008"><a xlink:href="dsps__fir_8h.html" target="_top" xlink:title=" ">
<polygon fill="white" stroke="#666666" points="134,-188 75.25,-188 75.25,-168 134,-168 134,-188"/>
<text xml:space="preserve" text-anchor="middle" x="104.62" y="-174.5" font-family="Helvetica,sans-Serif" font-size="10.00">dsps_fir.h</text>
</a>
</g>
</g>
<!-- Node2&#45;&gt;Node8 -->
<g id="edge6_Node000002_Node000008" class="edge">
<title>Node2&#45;&gt;Node8</title>
<g id="a_edge6_Node000002_Node000008"><a xlink:title=" ">
<path fill="none" stroke="#63b8ff" d="M56.73,-223.59C64.88,-216.01 76.56,-205.13 86.34,-196.02"/>
<polygon fill="#63b8ff" stroke="#63b8ff" points="88.6,-198.71 93.53,-189.33 83.83,-193.58 88.6,-198.71"/>
</a>
</g>
</g>
<!-- Node4 -->
<g id="Node000004" class="node">
<title>Node4</title>
<g id="a_Node000004"><a xlink:title=" ">
<polygon fill="#e0e0e0" stroke="#999999" points="254.75,-20 206.5,-20 206.5,0 254.75,0 254.75,-20"/>
<text xml:space="preserve" text-anchor="middle" x="230.62" y="-6.5" font-family="Helvetica,sans-Serif" font-size="10.00">stdint.h</text>
</a>
</g>
</g>
<!-- Node3&#45;&gt;Node4 -->
<g id="edge3_Node000003_Node000004" class="edge">
<title>Node3&#45;&gt;Node4</title>
<g id="a_edge3_Node000003_Node000004"><a xlink:title=" ">
<path fill="none" stroke="#63b8ff" d="M128.22,-55.59C147.58,-47.17 176.23,-34.69 198.31,-25.07"/>
<polygon fill="#63b8ff" stroke="#63b8ff" points="199.7,-28.29 207.47,-21.08 196.9,-21.87 199.7,-28.29"/>
</a>
</g>
</g>
<!-- Node5 -->
<g id="Node000005" class="node">
<title>Node5</title>
<g id="a_Node000005"><a xlink:href="esp__err_8h.html" target="_top" xlink:title=" ">
<polygon fill="#fff0f0" stroke="red" points="69.88,-20 13.38,-20 13.38,0 69.88,0 69.88,-20"/>
<text xml:space="preserve" text-anchor="middle" x="41.62" y="-6.5" font-family="Helvetica,sans-Serif" font-size="10.00">esp_err.h</text>
</a>
</g>
</g>
<!-- Node3&#45;&gt;Node5 -->
<g id="edge4_Node000003_Node000005" class="edge">
<title>Node3&#45;&gt;Node5</title>
<g id="a_edge4_Node000003_Node000005"><a xlink:title=" ">
<path fill="none" stroke="#63b8ff" d="M95.3,-55.59C85.98,-47.85 72.55,-36.69 61.45,-27.47"/>
<polygon fill="#63b8ff" stroke="#63b8ff" points="63.91,-24.96 53.98,-21.27 59.44,-30.35 63.91,-24.96"/>
</a>
</g>
</g>
<!-- Node7 -->
<g id="Node000007" class="node">
<title>Node7</title>
<g id="a_Node000007"><a xlink:href="dsp__err__codes_8h.html" target="_top" xlink:title=" ">
<polygon fill="white" stroke="#666666" points="175.62,-20 87.62,-20 87.62,0 175.62,0 175.62,-20"/>
<text xml:space="preserve" text-anchor="middle" x="131.62" y="-6.5" font-family="Helvetica,sans-Serif" font-size="10.00">dsp_err_codes.h</text>
</a>
</g>
</g>
<!-- Node3&#45;&gt;Node7 -->
<g id="edge5_Node000003_Node000007" class="edge">
<title>Node3&#45;&gt;Node7</title>
<g id="a_edge5_Node000003_Node000007"><a xlink:title=" ">
<path fill="none" stroke="#63b8ff" d="M110.98,-55.59C114.17,-48.7 118.61,-39.1 122.56,-30.57"/>
<polygon fill="#63b8ff" stroke="#63b8ff" points="125.66,-32.22 126.68,-21.67 119.31,-29.28 125.66,-32.22"/>
</a>
</g>
</g>
<!-- Node8&#45;&gt;Node3 -->
<g id="edge7_Node000008_Node000003" class="edge">
<title>Node8&#45;&gt;Node3</title>
<g id="a_edge7_Node000008_Node000003"><a xlink:title=" ">
<path fill="none" stroke="#63b8ff" d="M95.64,-167.58C84.93,-155.18 69.24,-132.53 75.62,-112 78.64,-102.32 84.54,-92.88 90.39,-85.16"/>
<polygon fill="#63b8ff" stroke="#63b8ff" points="92.96,-87.55 96.59,-77.6 87.55,-83.11 92.96,-87.55"/>
</a>
</g>
</g>
<!-- Node9 -->
<g id="Node000009" class="node">
<title>Node9</title>
<g id="a_Node000009"><a xlink:href="dsps__fir__platform_8h.html" target="_top" xlink:title=" ">
<polygon fill="#fff0f0" stroke="red" points="184.25,-132 85,-132 85,-112 184.25,-112 184.25,-132"/>
<text xml:space="preserve" text-anchor="middle" x="134.62" y="-118.5" font-family="Helvetica,sans-Serif" font-size="10.00">dsps_fir_platform.h</text>
</a>
</g>
</g>
<!-- Node8&#45;&gt;Node9 -->
<g id="edge8_Node000008_Node000009" class="edge">
<title>Node8&#45;&gt;Node9</title>
<g id="a_edge8_Node000008_Node000009"><a xlink:title=" ">
<path fill="none" stroke="#63b8ff" d="M109.85,-167.59C113.72,-160.63 119.13,-150.89 123.91,-142.29"/>
<polygon fill="#63b8ff" stroke="#63b8ff" points="126.93,-144.06 128.72,-133.62 120.81,-140.66 126.93,-144.06"/>
</a>
</g>
</g>
<!-- Node11 -->
<g id="Node000011" class="node">
<title>Node11</title>
<g id="a_Node000011"><a xlink:href="dsp__common_8h.html" target="_top" xlink:title=" ">
<polygon fill="#fff0f0" stroke="red" points="285,-132 202.25,-132 202.25,-112 285,-112 285,-132"/>
<text xml:space="preserve" text-anchor="middle" x="243.62" y="-118.5" font-family="Helvetica,sans-Serif" font-size="10.00">dsp_common.h</text>
</a>
</g>
</g>
<!-- Node8&#45;&gt;Node11 -->
<g id="edge9_Node000008_Node000011" class="edge">
<title>Node8&#45;&gt;Node11</title>
<g id="a_edge9_Node000008_Node000011"><a xlink:title=" ">
<path fill="none" stroke="#63b8ff" d="M128.84,-167.59C150.93,-159.01 183.82,-146.23 208.75,-136.55"/>
<polygon fill="#63b8ff" stroke="#63b8ff" points="209.76,-139.91 217.81,-133.03 207.22,-133.39 209.76,-139.91"/>
</a>
</g>
</g>
<!-- Node11&#45;&gt;Node3 -->
<g id="edge11_Node000011_Node000003" class="edge">
<title>Node11&#45;&gt;Node3</title>
<g id="a_edge11_Node000011_Node000003"><a xlink:title=" ">
<path fill="none" stroke="#63b8ff" d="M219.76,-111.59C198.09,-103.05 165.86,-90.35 141.33,-80.68"/>
<polygon fill="#63b8ff" stroke="#63b8ff" points="142.67,-77.45 132.08,-77.03 140.1,-83.96 142.67,-77.45"/>
</a>
</g>
</g>
<!-- Node11&#45;&gt;Node4 -->
<g id="edge10_Node000011_Node000004" class="edge">
<title>Node11&#45;&gt;Node4</title>
<g id="a_edge10_Node000011_Node000004"><a xlink:title=" ">
<path fill="none" stroke="#63b8ff" d="M242.52,-111.62C240.43,-94.01 235.9,-55.59 233.07,-31.65"/>
<polygon fill="#63b8ff" stroke="#63b8ff" points="236.56,-31.38 231.91,-21.86 229.61,-32.2 236.56,-31.38"/>
</a>
</g>
</g>
</g>
</svg>
