<?xml version="1.0" encoding="UTF-8" standalone="no"?>
<!DOCTYPE svg PUBLIC "-//W3C//DTD SVG 1.1//EN"
 "http://www.w3.org/Graphics/SVG/1.1/DTD/svg11.dtd">
<!-- Generated by graphviz version 14.1.2 (20260124.0452)
 -->
<!-- Title: dsps_sfdr_f32 Pages: 1 -->
<svg width="524pt" height="120pt"
 viewBox="0.00 0.00 524.00 120.00" xmlns="http://www.w3.org/2000/svg" xmlns:xlink="http://www.w3.org/1999/xlink">
<g id="graph0" class="graph" transform="scale(1 1) rotate(0) translate(4 116.24)">
<title>dsps_sfdr_f32</title>
<!-- Node1 -->
<g id="Node000001" class="node">
<title>Node1</title>
<g id="a_Node000001"><a xlink:title="SFDR.">
<polygon fill="#999999" stroke="#666666" points="77.5,-96 0,-96 0,-76 77.5,-76 77.5,-96"/>
<text xml:space="preserve" text-anchor="middle" x="38.75" y="-82.5" font-family="Helvetica,sans-Serif" font-size="10.00">dsps_sfdr_f32</text>
</a>
</g>
</g>
<!-- Node2 -->
<g id="Node000002" class="node">
<title>Node2</title>
<g id="a_Node000002"><a xlink:href="test__fft2r_8c.html#a0dc0b4dd19d7ebd2f69bfb0c1a6f85da" target="_top" xlink:title="check power of two The function check if the argument is power of 2. The implementation use ANSI C an...">
<polygon fill="white" stroke="#666666" points="515.5,-96 405,-96 405,-76 515.5,-76 515.5,-96"/>
<text xml:space="preserve" text-anchor="middle" x="460.25" y="-82.5" font-family="Helvetica,sans-Serif" font-size="10.00">dsp_is_power_of_two</text>
</a>
</g>
</g>
<!-- Node1&#45;&gt;Node2 -->
<g id="edge1_Node000001_Node000002" class="edge">
<title>Node1&#45;&gt;Node2</title>
<g id="a_edge1_Node000001_Node000002"><a xlink:title=" ">
<path fill="none" stroke="#63b8ff" d="M77.86,-94.37C89.27,-96.57 101.84,-98.69 113.5,-100 226.36,-112.7 256.03,-116.76 369,-105 381.56,-103.69 394.94,-101.39 407.46,-98.82"/>
<polygon fill="#63b8ff" stroke="#63b8ff" points="408.13,-102.26 417.17,-96.74 406.66,-95.42 408.13,-102.26"/>
</a>
</g>
</g>
<!-- Node3 -->
<g id="Node000003" class="node">
<title>Node3</title>
<g id="a_Node000003"><a xlink:href="dsps__fft2r__fc32__ansi_8c.html#af6eeaefef23180c3d2c319bfe402b558" target="_top" xlink:title="bit reverse operation for the complex input array">
<polygon fill="white" stroke="#666666" points="369,-96 250.25,-96 250.25,-76 369,-76 369,-96"/>
<text xml:space="preserve" text-anchor="middle" x="309.62" y="-82.5" font-family="Helvetica,sans-Serif" font-size="10.00">dsps_bit_rev_fc32_ansi</text>
</a>
</g>
</g>
<!-- Node1&#45;&gt;Node3 -->
<g id="edge2_Node000001_Node000003" class="edge">
<title>Node1&#45;&gt;Node3</title>
<g id="a_edge2_Node000001_Node000003"><a xlink:title=" ">
<path fill="none" stroke="#63b8ff" d="M77.99,-86C119.71,-86 187.38,-86 238.65,-86"/>
<polygon fill="#63b8ff" stroke="#63b8ff" points="238.47,-89.5 248.47,-86 238.47,-82.5 238.47,-89.5"/>
</a>
</g>
</g>
<!-- Node4 -->
<g id="Node000004" class="node">
<title>Node4</title>
<g id="a_Node000004"><a xlink:href="dsps__fft2r__fc32__ansi_8c.html#aa5f77f0db0301950603a20f9e67822aa" target="_top" xlink:title="init fft tables">
<polygon fill="white" stroke="#666666" points="214.25,-58 113.5,-58 113.5,-38 214.25,-38 214.25,-58"/>
<text xml:space="preserve" text-anchor="middle" x="163.88" y="-44.5" font-family="Helvetica,sans-Serif" font-size="10.00">dsps_fft2r_init_fc32</text>
</a>
</g>
</g>
<!-- Node1&#45;&gt;Node4 -->
<g id="edge4_Node000001_Node000004" class="edge">
<title>Node1&#45;&gt;Node4</title>
<g id="a_edge4_Node000001_Node000004"><a xlink:title=" ">
<path fill="none" stroke="#63b8ff" d="M73.72,-75.52C87.45,-71.28 103.48,-66.33 118.14,-61.81"/>
<polygon fill="#63b8ff" stroke="#63b8ff" points="119.05,-65.19 127.57,-58.9 116.98,-58.5 119.05,-65.19"/>
</a>
</g>
</g>
<!-- Node3&#45;&gt;Node2 -->
<g id="edge3_Node000003_Node000002" class="edge">
<title>Node3&#45;&gt;Node2</title>
<g id="a_edge3_Node000003_Node000002"><a xlink:title=" ">
<path fill="none" stroke="#63b8ff" d="M369.37,-86C377.31,-86 385.5,-86 393.55,-86"/>
<polygon fill="#63b8ff" stroke="#63b8ff" points="393.29,-89.5 403.29,-86 393.29,-82.5 393.29,-89.5"/>
</a>
</g>
</g>
<!-- Node4&#45;&gt;Node3 -->
<g id="edge6_Node000004_Node000003" class="edge">
<title>Node4&#45;&gt;Node3</title>
<g id="a_edge6_Node000004_Node000003"><a xlink:title=" ">
<path fill="none" stroke="#63b8ff" d="M204.54,-58.48C221.19,-62.89 240.75,-68.06 258.4,-72.72"/>
<polygon fill="#63b8ff" stroke="#63b8ff" points="257.07,-75.99 267.63,-75.16 258.86,-69.22 257.07,-75.99"/>
</a>
</g>
</g>
<!-- Node5 -->
<g id="Node000005" class="node">
<title>Node5</title>
<g id="a_Node000005"><a xlink:href="test__fft2r_8c.html#a58855e560e0563aa519b012dbdcbaec2" target="_top" xlink:title="Power of two The function return power of 2 for values 2^N. The implementation use ANSI C and could b...">
<polygon fill="white" stroke="#666666" points="358.5,-58 260.75,-58 260.75,-38 358.5,-38 358.5,-58"/>
<text xml:space="preserve" text-anchor="middle" x="309.62" y="-44.5" font-family="Helvetica,sans-Serif" font-size="10.00">dsp_power_of_two</text>
</a>
</g>
</g>
<!-- Node4&#45;&gt;Node5 -->
<g id="edge5_Node000004_Node000005" class="edge">
<title>Node4&#45;&gt;Node5</title>
<g id="a_edge5_Node000004_Node000005"><a xlink:title=" ">
<path fill="none" stroke="#63b8ff" d="M214.75,-48C225.82,-48 237.66,-48 249.07,-48"/>
<polygon fill="#63b8ff" stroke="#63b8ff" points="248.78,-51.5 258.78,-48 248.78,-44.5 248.78,-51.5"/>
</a>
</g>
</g>
<!-- Node6 -->
<g id="Node000006" class="node">
<title>Node6</title>
<g id="a_Node000006"><a xlink:href="dsps__fft2r__fc32__ansi_8c.html#a512cd6d2b04793b59881041e37e51738" target="_top" xlink:title="Generate coefficients table for the FFT radix 2.">
<polygon fill="white" stroke="#666666" points="363.75,-20 255.5,-20 255.5,0 363.75,0 363.75,-20"/>
<text xml:space="preserve" text-anchor="middle" x="309.62" y="-6.5" font-family="Helvetica,sans-Serif" font-size="10.00">dsps_gen_w_r2_fc32</text>
</a>
</g>
</g>
<!-- Node4&#45;&gt;Node6 -->
<g id="edge7_Node000004_Node000006" class="edge">
<title>Node4&#45;&gt;Node6</title>
<g id="a_edge7_Node000004_Node000006"><a xlink:title=" ">
<path fill="none" stroke="#63b8ff" d="M204.54,-37.52C221.19,-33.11 240.75,-27.94 258.4,-23.28"/>
<polygon fill="#63b8ff" stroke="#63b8ff" points="258.86,-26.78 267.63,-20.84 257.07,-20.01 258.86,-26.78"/>
</a>
</g>
</g>
<!-- Node6&#45;&gt;Node2 -->
<g id="edge8_Node000006_Node000002" class="edge">
<title>Node6&#45;&gt;Node2</title>
<g id="a_edge8_Node000006_Node000002"><a xlink:title=" ">
<path fill="none" stroke="#63b8ff" d="M347.6,-20.49C354.82,-22.97 362.25,-25.83 369,-29 393.06,-40.3 418.49,-56.83 436.2,-69.18"/>
<polygon fill="#63b8ff" stroke="#63b8ff" points="433.78,-71.75 443.96,-74.68 437.83,-66.04 433.78,-71.75"/>
</a>
</g>
</g>
</g>
</svg>
