<?xml version="1.0" encoding="UTF-8" standalone="no"?>
<!DOCTYPE svg PUBLIC "-//W3C//DTD SVG 1.1//EN"
 "http://www.w3.org/Graphics/SVG/1.1/DTD/svg11.dtd">
<!-- Generated by graphviz version 14.1.2 (20260124.0452)
 -->
<!-- Title: dsps_firmr_f32_ansi.c Pages: 1 -->
<!--zoomable 476 -->

<svg id="main" version="1.1" xmlns="http://www.w3.org/2000/svg" xmlns:xlink="http://www.w3.org/1999/xlink" xml:space="preserve" onload="init(evt)">

<style type="text/css"><![CDATA[
.node, .edge {opacity: 0.7;}
.node.selected, .edge.selected {opacity: 1;}
.edge:hover path { stroke: red; }
.edge:hover polygon { stroke: red; fill: red; }
]]></style>

<defs>
  <circle id="rim" cx="0" cy="0" r="7"/>
  <circle id="rim2" cx="0" cy="0" r="3.5"/>
  <g id="zoomPlus">
    <use xlink:href="#rim" fill="#404040"><set attributeName="fill" to="#808080" begin="zoomplus.mouseover" end="zoomplus.mouseout"/></use>
    <path d="M-4,0h8M0,-4v8" fill="none" stroke="white" stroke-width="1.5" pointer-events="none"/>
  </g>
  <g id="zoomMin">
    <use xlink:href="#rim" fill="#404040"><set attributeName="fill" to="#808080" begin="zoomminus.mouseover" end="zoomminus.mouseout"/></use>
    <path d="M-4,0h8" fill="none" stroke="white" stroke-width="1.5" pointer-events="none"/>
  </g>
  <g id="arrowUp" transform="translate(30 24)">
    <use xlink:href="#rim"/>
    <path pointer-events="none" fill="none" stroke="white" stroke-width="1.5" d="M0,-3.0v7 M-2.5,-0.5L0,-3.0L2.5,-0.5"/>
  </g>
  <g id="arrowRight" transform="rotate(90) translate(36 -43)">
    <use xlink:href="#rim"/>
    <path pointer-events="none" fill="none" stroke="white" stroke-width="1.5" d="M0,-3.0v7 M-2.5,-0.5L0,-3.0L2.5,-0.5"/>
  </g>
  <g id="arrowDown" transform="rotate(180) translate(-30 -48)">
    <use xlink:href="#rim"/>
    <path pointer-events="none" fill="none" stroke="white" stroke-width="1.5" d="M0,-3.0v7 M-2.5,-0.5L0,-3.0L2.5,-0.5"/>
  </g>
  <g id="arrowLeft" transform="rotate(270) translate(-36 17)">
    <use xlink:href="#rim"/>
    <path pointer-events="none" fill="none" stroke="white" stroke-width="1.5" d="M0,-3.0v7 M-2.5,-0.5L0,-3.0L2.5,-0.5"/>
  </g>
  <g id="resetDef">
    <use xlink:href="#rim2" fill="#404040"><set attributeName="fill" to="#808080" begin="reset.mouseover" end="reset.mouseout"/></use>
  </g>
</defs>
<script type="application/ecmascript">
var viewWidth = 1547;
var viewHeight = 476;
var sectionId = 'dynsection-0';
</script>
<script type="application/ecmascript" xlink:href="svg.min.js"/>
<svg id="graph" class="graph">
<g id="viewport">
<title>dsps_firmr_f32_ansi.c</title>
<!-- Node1 -->
<g id="Node000001" class="node">
<title>Node1</title>
<g id="a_Node000001"><a xlink:title=" ">
<polygon fill="#999999" stroke="#666666" points="272.25,-468 160.25,-468 160.25,-448 272.25,-448 272.25,-468"/>
<text xml:space="preserve" text-anchor="middle" x="216.25" y="-454.5" font-family="Helvetica,sans-Serif" font-size="10.00">dsps_firmr_f32_ansi.c</text>
</a>
</g>
</g>
<!-- Node2 -->
<g id="Node000002" class="node">
<title>Node2</title>
<g id="a_Node000002"><a xlink:href="dsps__fir_8h.html" target="_top" xlink:title=" ">
<polygon fill="white" stroke="#666666" points="365.62,-244 306.88,-244 306.88,-224 365.62,-224 365.62,-244"/>
<text xml:space="preserve" text-anchor="middle" x="336.25" y="-230.5" font-family="Helvetica,sans-Serif" font-size="10.00">dsps_fir.h</text>
</a>
</g>
</g>
<!-- Node1&#45;&gt;Node2 -->
<g id="edge1_Node000001_Node000002" class="edge">
<title>Node1&#45;&gt;Node2</title>
<g id="a_edge1_Node000001_Node000002"><a xlink:title=" ">
<path fill="none" stroke="#63b8ff" d="M214.11,-447.76C212.14,-438.7 209.35,-424.49 208.25,-412 202.89,-351.19 206.13,-326.01 246.25,-280 259.37,-264.95 278.71,-254.37 296.11,-247.27"/>
<polygon fill="#63b8ff" stroke="#63b8ff" points="297.09,-250.64 305.2,-243.82 294.6,-244.1 297.09,-250.64"/>
</a>
</g>
</g>
<!-- Node10 -->
<g id="Node000010" class="node">
<title>Node10</title>
<g id="a_Node000010"><a xlink:href="dsp__common_8h.html" target="_top" xlink:title=" ">
<polygon fill="white" stroke="#666666" points="192.62,-188 109.88,-188 109.88,-168 192.62,-168 192.62,-188"/>
<text xml:space="preserve" text-anchor="middle" x="151.25" y="-174.5" font-family="Helvetica,sans-Serif" font-size="10.00">dsp_common.h</text>
</a>
</g>
</g>
<!-- Node1&#45;&gt;Node10 -->
<g id="edge15_Node000001_Node000010" class="edge">
<title>Node1&#45;&gt;Node10</title>
<g id="a_edge15_Node000001_Node000010"><a xlink:title=" ">
<path fill="none" stroke="#63b8ff" d="M183.9,-447.62C142.27,-433.32 75.25,-401.8 75.25,-347 75.25,-347 75.25,-347 75.25,-289 75.25,-250.24 107.59,-215.24 130.08,-195.59"/>
<polygon fill="#63b8ff" stroke="#63b8ff" points="132.12,-198.44 137.54,-189.34 127.62,-193.08 132.12,-198.44"/>
</a>
</g>
</g>
<!-- Node14 -->
<g id="Node000014" class="node">
<title>Node14</title>
<g id="a_Node000014"><a xlink:title=" ">
<polygon fill="#e0e0e0" stroke="#999999" points="269.62,-412 216.88,-412 216.88,-392 269.62,-392 269.62,-412"/>
<text xml:space="preserve" text-anchor="middle" x="243.25" y="-398.5" font-family="Helvetica,sans-Serif" font-size="10.00">malloc.h</text>
</a>
</g>
</g>
<!-- Node1&#45;&gt;Node14 -->
<g id="edge16_Node000001_Node000014" class="edge">
<title>Node1&#45;&gt;Node14</title>
<g id="a_edge16_Node000001_Node000014"><a xlink:title=" ">
<path fill="none" stroke="#63b8ff" d="M220.95,-447.59C224.4,-440.7 229.2,-431.1 233.46,-422.57"/>
<polygon fill="#63b8ff" stroke="#63b8ff" points="236.58,-424.16 237.92,-413.65 230.32,-421.03 236.58,-424.16"/>
</a>
</g>
</g>
<!-- Node15 -->
<g id="Node000015" class="node">
<title>Node15</title>
<g id="a_Node000015"><a xlink:href="dsp__tests_8h.html" target="_top" xlink:title=" ">
<polygon fill="white" stroke="#666666" points="599.75,-412 532.75,-412 532.75,-392 599.75,-392 599.75,-412"/>
<text xml:space="preserve" text-anchor="middle" x="566.25" y="-398.5" font-family="Helvetica,sans-Serif" font-size="10.00">dsp_tests.h</text>
</a>
</g>
</g>
<!-- Node1&#45;&gt;Node15 -->
<g id="edge17_Node000001_Node000015" class="edge">
<title>Node1&#45;&gt;Node15</title>
<g id="a_edge17_Node000001_Node000015"><a xlink:title=" ">
<path fill="none" stroke="#63b8ff" d="M272.48,-448.32C341.61,-437.66 457.55,-419.77 521.14,-409.96"/>
<polygon fill="#63b8ff" stroke="#63b8ff" points="521.54,-413.44 530.89,-408.46 520.47,-406.52 521.54,-413.44"/>
</a>
</g>
</g>
<!-- Node3 -->
<g id="Node000003" class="node">
<title>Node3</title>
<g id="a_Node000003"><a xlink:href="dsp__err_8h.html" target="_top" xlink:title=" ">
<polygon fill="white" stroke="#666666" points="897.5,-132 841,-132 841,-112 897.5,-112 897.5,-132"/>
<text xml:space="preserve" text-anchor="middle" x="869.25" y="-118.5" font-family="Helvetica,sans-Serif" font-size="10.00">dsp_err.h</text>
</a>
</g>
</g>
<!-- Node2&#45;&gt;Node3 -->
<g id="edge2_Node000002_Node000003" class="edge">
<title>Node2&#45;&gt;Node3</title>
<g id="a_edge2_Node000002_Node000003"><a xlink:title=" ">
<path fill="none" stroke="#63b8ff" d="M366.05,-229.46C411.62,-223.59 501.01,-210.22 574.25,-188 595.97,-181.41 599.5,-174.51 621.25,-168 693.24,-146.45 780.25,-133.56 829.73,-127.41"/>
<polygon fill="#63b8ff" stroke="#63b8ff" points="829.87,-130.92 839.37,-126.24 829.03,-123.97 829.87,-130.92"/>
</a>
</g>
</g>
<!-- Node8 -->
<g id="Node000008" class="node">
<title>Node8</title>
<g id="a_Node000008"><a xlink:href="dsps__fir__platform_8h.html" target="_top" xlink:title=" ">
<polygon fill="white" stroke="#666666" points="396.88,-188 297.62,-188 297.62,-168 396.88,-168 396.88,-188"/>
<text xml:space="preserve" text-anchor="middle" x="347.25" y="-174.5" font-family="Helvetica,sans-Serif" font-size="10.00">dsps_fir_platform.h</text>
</a>
</g>
</g>
<!-- Node2&#45;&gt;Node8 -->
<g id="edge7_Node000002_Node000008" class="edge">
<title>Node2&#45;&gt;Node8</title>
<g id="a_edge7_Node000002_Node000008"><a xlink:title=" ">
<path fill="none" stroke="#63b8ff" d="M338.17,-223.59C339.52,-216.93 341.39,-207.75 343.09,-199.44"/>
<polygon fill="#63b8ff" stroke="#63b8ff" points="346.49,-200.28 345.05,-189.78 339.63,-198.88 346.49,-200.28"/>
</a>
</g>
</g>
<!-- Node2&#45;&gt;Node10 -->
<g id="edge9_Node000002_Node000010" class="edge">
<title>Node2&#45;&gt;Node10</title>
<g id="a_edge9_Node000002_Node000010"><a xlink:title=" ">
<path fill="none" stroke="#63b8ff" d="M306.53,-224.32C276.2,-215.47 228.84,-201.65 194.39,-191.59"/>
<polygon fill="#63b8ff" stroke="#63b8ff" points="195.73,-188.34 185.15,-188.9 193.77,-195.06 195.73,-188.34"/>
</a>
</g>
</g>
<!-- Node4 -->
<g id="Node000004" class="node">
<title>Node4</title>
<g id="a_Node000004"><a xlink:title=" ">
<polygon fill="#e0e0e0" stroke="#999999" points="336.38,-76 288.12,-76 288.12,-56 336.38,-56 336.38,-76"/>
<text xml:space="preserve" text-anchor="middle" x="312.25" y="-62.5" font-family="Helvetica,sans-Serif" font-size="10.00">stdint.h</text>
</a>
</g>
</g>
<!-- Node3&#45;&gt;Node4 -->
<g id="edge3_Node000003_Node000004" class="edge">
<title>Node3&#45;&gt;Node4</title>
<g id="a_edge3_Node000003_Node000004"><a xlink:title=" ">
<path fill="none" stroke="#63b8ff" d="M840.86,-118.25C747.67,-109.21 451.19,-80.47 348.04,-70.47"/>
<polygon fill="#63b8ff" stroke="#63b8ff" points="348.52,-67 338.23,-69.52 347.84,-73.97 348.52,-67"/>
</a>
</g>
</g>
<!-- Node5 -->
<g id="Node000005" class="node">
<title>Node5</title>
<g id="a_Node000005"><a xlink:href="esp__err_8h.html" target="_top" xlink:title=" ">
<polygon fill="white" stroke="#666666" points="1132.5,-76 1076,-76 1076,-56 1132.5,-56 1132.5,-76"/>
<text xml:space="preserve" text-anchor="middle" x="1104.25" y="-62.5" font-family="Helvetica,sans-Serif" font-size="10.00">esp_err.h</text>
</a>
</g>
</g>
<!-- Node3&#45;&gt;Node5 -->
<g id="edge4_Node000003_Node000005" class="edge">
<title>Node3&#45;&gt;Node5</title>
<g id="a_edge4_Node000003_Node000005"><a xlink:title=" ">
<path fill="none" stroke="#63b8ff" d="M897.6,-114.49C939.32,-104.9 1017.44,-86.95 1064.76,-76.07"/>
<polygon fill="#63b8ff" stroke="#63b8ff" points="1065.37,-79.53 1074.33,-73.88 1063.8,-72.7 1065.37,-79.53"/>
</a>
</g>
</g>
<!-- Node7 -->
<g id="Node000007" class="node">
<title>Node7</title>
<g id="a_Node000007"><a xlink:href="dsp__err__codes_8h.html" target="_top" xlink:title=" ">
<polygon fill="white" stroke="#666666" points="913.25,-76 825.25,-76 825.25,-56 913.25,-56 913.25,-76"/>
<text xml:space="preserve" text-anchor="middle" x="869.25" y="-62.5" font-family="Helvetica,sans-Serif" font-size="10.00">dsp_err_codes.h</text>
</a>
</g>
</g>
<!-- Node3&#45;&gt;Node7 -->
<g id="edge6_Node000003_Node000007" class="edge">
<title>Node3&#45;&gt;Node7</title>
<g id="a_edge6_Node000003_Node000007"><a xlink:title=" ">
<path fill="none" stroke="#63b8ff" d="M869.25,-111.59C869.25,-105.01 869.25,-95.96 869.25,-87.73"/>
<polygon fill="#63b8ff" stroke="#63b8ff" points="872.75,-87.81 869.25,-77.81 865.75,-87.81 872.75,-87.81"/>
</a>
</g>
</g>
<!-- Node6 -->
<g id="Node000006" class="node">
<title>Node6</title>
<g id="a_Node000006"><a xlink:title=" ">
<polygon fill="#e0e0e0" stroke="#999999" points="1418,-20 1370.5,-20 1370.5,0 1418,0 1418,-20"/>
<text xml:space="preserve" text-anchor="middle" x="1394.25" y="-6.5" font-family="Helvetica,sans-Serif" font-size="10.00">stdlib.h</text>
</a>
</g>
</g>
<!-- Node5&#45;&gt;Node6 -->
<g id="edge5_Node000005_Node000006" class="edge">
<title>Node5&#45;&gt;Node6</title>
<g id="a_edge5_Node000005_Node000006"><a xlink:title=" ">
<path fill="none" stroke="#63b8ff" d="M1132.85,-59.67C1186.19,-49.74 1300.7,-28.42 1358.83,-17.6"/>
<polygon fill="#63b8ff" stroke="#63b8ff" points="1359.33,-21.06 1368.52,-15.79 1358.04,-14.18 1359.33,-21.06"/>
</a>
</g>
</g>
<!-- Node9 -->
<g id="Node000009" class="node">
<title>Node9</title>
<g id="a_Node000009"><a xlink:title=" ">
<polygon fill="#e0e0e0" stroke="#999999" points="522.38,-132 456.12,-132 456.12,-112 522.38,-112 522.38,-132"/>
<text xml:space="preserve" text-anchor="middle" x="489.25" y="-118.5" font-family="Helvetica,sans-Serif" font-size="10.00">sdkconfig.h</text>
</a>
</g>
</g>
<!-- Node8&#45;&gt;Node9 -->
<g id="edge8_Node000008_Node000009" class="edge">
<title>Node8&#45;&gt;Node9</title>
<g id="a_edge8_Node000008_Node000009"><a xlink:title=" ">
<path fill="none" stroke="#63b8ff" d="M371.98,-167.59C394.55,-159.01 428.16,-146.23 453.62,-136.55"/>
<polygon fill="#63b8ff" stroke="#63b8ff" points="454.8,-139.84 462.91,-133.02 452.32,-133.3 454.8,-139.84"/>
</a>
</g>
</g>
<!-- Node10&#45;&gt;Node3 -->
<g id="edge12_Node000010_Node000003" class="edge">
<title>Node10&#45;&gt;Node3</title>
<g id="a_edge12_Node000010_Node000003"><a xlink:title=" ">
<path fill="none" stroke="#63b8ff" d="M192.94,-169.14C195.75,-168.72 198.54,-168.33 201.25,-168 438.44,-138.75 725.53,-127.46 829.36,-124.14"/>
<polygon fill="#63b8ff" stroke="#63b8ff" points="829.42,-127.64 839.31,-123.84 829.2,-120.65 829.42,-127.64"/>
</a>
</g>
</g>
<!-- Node10&#45;&gt;Node4 -->
<g id="edge10_Node000010_Node000004" class="edge">
<title>Node10&#45;&gt;Node4</title>
<g id="a_edge10_Node000010_Node000004"><a xlink:title=" ">
<path fill="none" stroke="#63b8ff" d="M159.29,-167.65C171.29,-154.09 195.1,-128.76 219.25,-112 237.27,-99.49 259.3,-88.66 277.4,-80.76"/>
<polygon fill="#63b8ff" stroke="#63b8ff" points="278.57,-84.07 286.41,-76.94 275.84,-77.62 278.57,-84.07"/>
</a>
</g>
</g>
<!-- Node11 -->
<g id="Node000011" class="node">
<title>Node11</title>
<g id="a_Node000011"><a xlink:title=" ">
<polygon fill="#e0e0e0" stroke="#999999" points="284.12,-132 228.38,-132 228.38,-112 284.12,-112 284.12,-132"/>
<text xml:space="preserve" text-anchor="middle" x="256.25" y="-118.5" font-family="Helvetica,sans-Serif" font-size="10.00">stdbool.h</text>
</a>
</g>
</g>
<!-- Node10&#45;&gt;Node11 -->
<g id="edge11_Node000010_Node000011" class="edge">
<title>Node10&#45;&gt;Node11</title>
<g id="a_edge11_Node000010_Node000011"><a xlink:title=" ">
<path fill="none" stroke="#63b8ff" d="M169.54,-167.59C185.55,-159.36 209.08,-147.26 227.59,-137.74"/>
<polygon fill="#63b8ff" stroke="#63b8ff" points="229.18,-140.86 236.47,-133.17 225.98,-134.63 229.18,-140.86"/>
</a>
</g>
</g>
<!-- Node12 -->
<g id="Node000012" class="node">
<title>Node12</title>
<g id="a_Node000012"><a xlink:title=" ">
<polygon fill="#e0e0e0" stroke="#999999" points="92.5,-132 0,-132 0,-112 92.5,-112 92.5,-132"/>
<text xml:space="preserve" text-anchor="middle" x="46.25" y="-118.5" font-family="Helvetica,sans-Serif" font-size="10.00">esp_idf_version.h</text>
</a>
</g>
</g>
<!-- Node10&#45;&gt;Node12 -->
<g id="edge13_Node000010_Node000012" class="edge">
<title>Node10&#45;&gt;Node12</title>
<g id="a_edge13_Node000010_Node000012"><a xlink:title=" ">
<path fill="none" stroke="#63b8ff" d="M132.96,-167.59C116.95,-159.36 93.42,-147.26 74.91,-137.74"/>
<polygon fill="#63b8ff" stroke="#63b8ff" points="76.52,-134.63 66.03,-133.17 73.32,-140.86 76.52,-134.63"/>
</a>
</g>
</g>
<!-- Node13 -->
<g id="Node000013" class="node">
<title>Node13</title>
<g id="a_Node000013"><a xlink:title=" ">
<polygon fill="#e0e0e0" stroke="#999999" points="171.75,-132 110.75,-132 110.75,-112 171.75,-112 171.75,-132"/>
<text xml:space="preserve" text-anchor="middle" x="141.25" y="-118.5" font-family="Helvetica,sans-Serif" font-size="10.00">x86intrin.h</text>
</a>
</g>
</g>
<!-- Node10&#45;&gt;Node13 -->
<g id="edge14_Node000010_Node000013" class="edge">
<title>Node10&#45;&gt;Node13</title>
<g id="a_edge14_Node000010_Node000013"><a xlink:title=" ">
<path fill="none" stroke="#63b8ff" d="M149.51,-167.59C148.27,-160.93 146.57,-151.75 145.04,-143.44"/>
<polygon fill="#63b8ff" stroke="#63b8ff" points="148.51,-142.98 143.25,-133.79 141.63,-144.26 148.51,-142.98"/>
</a>
</g>
</g>
<!-- Node15&#45;&gt;Node6 -->
<g id="edge18_Node000015_Node000006" class="edge">
<title>Node15&#45;&gt;Node6</title>
<g id="a_edge18_Node000015_Node000006"><a xlink:title=" ">
<path fill="none" stroke="#63b8ff" d="M600.03,-400.81C771.68,-399.39 1539.25,-387.63 1539.25,-291 1539.25,-291 1539.25,-291 1539.25,-121 1539.25,-65.89 1471.94,-34.81 1429.04,-20.6"/>
<polygon fill="#63b8ff" stroke="#63b8ff" points="1430.23,-17.31 1419.64,-17.65 1428.13,-23.98 1430.23,-17.31"/>
</a>
</g>
</g>
<!-- Node15&#45;&gt;Node12 -->
<g id="edge19_Node000015_Node000012" class="edge">
<title>Node15&#45;&gt;Node12</title>
<g id="a_edge19_Node000015_Node000012"><a xlink:title=" ">
<path fill="none" stroke="#63b8ff" d="M532.37,-397.96C464.89,-390.6 310.88,-367.17 202.25,-300 134.71,-258.24 80,-178.22 57.42,-141.84"/>
<polygon fill="#63b8ff" stroke="#63b8ff" points="60.67,-140.44 52.48,-133.71 54.69,-144.08 60.67,-140.44"/>
</a>
</g>
</g>
<!-- Node16 -->
<g id="Node000016" class="node">
<title>Node16</title>
<g id="a_Node000016"><a xlink:href="esp__dsp_8h.html" target="_top" xlink:title=" ">
<polygon fill="white" stroke="#666666" points="808.75,-356 747.75,-356 747.75,-336 808.75,-336 808.75,-356"/>
<text xml:space="preserve" text-anchor="middle" x="778.25" y="-342.5" font-family="Helvetica,sans-Serif" font-size="10.00">esp_dsp.h</text>
</a>
</g>
</g>
<!-- Node15&#45;&gt;Node16 -->
<g id="edge20_Node000015_Node000016" class="edge">
<title>Node15&#45;&gt;Node16</title>
<g id="a_edge20_Node000015_Node000016"><a xlink:title=" ">
<path fill="none" stroke="#63b8ff" d="M599.84,-392.44C636.9,-383 696.58,-367.8 736.59,-357.61"/>
<polygon fill="#63b8ff" stroke="#63b8ff" points="737.28,-361.05 746.1,-355.19 735.55,-354.27 737.28,-361.05"/>
</a>
</g>
</g>
<!-- Node16&#45;&gt;Node2 -->
<g id="edge28_Node000016_Node000002" class="edge">
<title>Node16&#45;&gt;Node2</title>
<g id="a_edge28_Node000016_Node000002"><a xlink:title=" ">
<path fill="none" stroke="#63b8ff" d="M747.35,-344.83C664.76,-343.87 440.93,-337.76 379.25,-300 362.33,-289.64 350.69,-269.83 343.82,-254.78"/>
<polygon fill="#63b8ff" stroke="#63b8ff" points="347.17,-253.72 340.09,-245.84 340.72,-256.42 347.17,-253.72"/>
</a>
</g>
</g>
<!-- Node16&#45;&gt;Node10 -->
<g id="edge21_Node000016_Node000010" class="edge">
<title>Node16&#45;&gt;Node10</title>
<g id="a_edge21_Node000016_Node000010"><a xlink:title=" ">
<path fill="none" stroke="#63b8ff" d="M747.45,-344.04C638.39,-340.44 274.79,-326.53 230.25,-300 191.59,-276.97 168.32,-226.81 157.85,-198.84"/>
<polygon fill="#63b8ff" stroke="#63b8ff" points="161.29,-198.05 154.65,-189.79 154.69,-200.38 161.29,-198.05"/>
</a>
</g>
</g>
<!-- Node17 -->
<g id="Node000017" class="node">
<title>Node17</title>
<g id="a_Node000017"><a xlink:href="dsp__types_8h.html" target="_top" xlink:title=" ">
<polygon fill="#fff0f0" stroke="red" points="279.88,-188 210.62,-188 210.62,-168 279.88,-168 279.88,-188"/>
<text xml:space="preserve" text-anchor="middle" x="245.25" y="-174.5" font-family="Helvetica,sans-Serif" font-size="10.00">dsp_types.h</text>
</a>
</g>
</g>
<!-- Node16&#45;&gt;Node17 -->
<g id="edge22_Node000016_Node000017" class="edge">
<title>Node16&#45;&gt;Node17</title>
<g id="a_edge22_Node000016_Node000017"><a xlink:title=" ">
<path fill="none" stroke="#63b8ff" d="M747.35,-344.75C638.92,-343.57 280.43,-336.88 246.25,-300 221.11,-272.87 230.07,-225.84 238.12,-199.1"/>
<polygon fill="#63b8ff" stroke="#63b8ff" points="241.38,-200.42 241.16,-189.83 234.72,-198.24 241.38,-200.42"/>
</a>
</g>
</g>
<!-- Node19 -->
<g id="Node000019" class="node">
<title>Node19</title>
<g id="a_Node000019"><a xlink:href="dsps__dotprod_8h.html" target="_top" xlink:title=" ">
<polygon fill="#fff0f0" stroke="red" points="1213.62,-244 1130.88,-244 1130.88,-224 1213.62,-224 1213.62,-244"/>
<text xml:space="preserve" text-anchor="middle" x="1172.25" y="-230.5" font-family="Helvetica,sans-Serif" font-size="10.00">dsps_dotprod.h</text>
</a>
</g>
</g>
<!-- Node16&#45;&gt;Node19 -->
<g id="edge25_Node000016_Node000019" class="edge">
<title>Node16&#45;&gt;Node19</title>
<g id="a_edge25_Node000016_Node000019"><a xlink:title=" ">
<path fill="none" stroke="#63b8ff" d="M808.98,-345.46C888.86,-346.02 1100.43,-343.29 1152.25,-300 1165.14,-289.23 1169.88,-270.34 1171.55,-255.7"/>
<polygon fill="#63b8ff" stroke="#63b8ff" points="1175.04,-255.96 1172.24,-245.74 1168.06,-255.47 1175.04,-255.96"/>
</a>
</g>
</g>
<!-- Node22 -->
<g id="Node000022" class="node">
<title>Node22</title>
<g id="a_Node000022"><a xlink:href="dsps__math_8h.html" target="_top" xlink:title=" ">
<polygon fill="#fff0f0" stroke="red" points="327.38,-300 255.12,-300 255.12,-280 327.38,-280 327.38,-300"/>
<text xml:space="preserve" text-anchor="middle" x="291.25" y="-286.5" font-family="Helvetica,sans-Serif" font-size="10.00">dsps_math.h</text>
</a>
</g>
</g>
<!-- Node16&#45;&gt;Node22 -->
<g id="edge27_Node000016_Node000022" class="edge">
<title>Node16&#45;&gt;Node22</title>
<g id="a_edge27_Node000016_Node000022"><a xlink:title=" ">
<path fill="none" stroke="#63b8ff" d="M747.42,-342.63C675.87,-336.96 493.04,-321.45 341.25,-300 340.43,-299.88 339.61,-299.77 338.77,-299.64"/>
<polygon fill="#63b8ff" stroke="#63b8ff" points="339.71,-296.25 329.29,-298.14 338.62,-303.16 339.71,-296.25"/>
</a>
</g>
</g>
<!-- Node34 -->
<g id="Node000034" class="node">
<title>Node34</title>
<g id="a_Node000034"><a xlink:href="dsps__resampler_8h.html" target="_top" xlink:title=" ">
<polygon fill="white" stroke="#666666" points="602.88,-300 509.62,-300 509.62,-280 602.88,-280 602.88,-300"/>
<text xml:space="preserve" text-anchor="middle" x="556.25" y="-286.5" font-family="Helvetica,sans-Serif" font-size="10.00">dsps_resampler.h</text>
</a>
</g>
</g>
<!-- Node16&#45;&gt;Node34 -->
<g id="edge29_Node000016_Node000034" class="edge">
<title>Node16&#45;&gt;Node34</title>
<g id="a_edge29_Node000016_Node000034"><a xlink:title=" ">
<path fill="none" stroke="#63b8ff" d="M747.38,-337.49C710.85,-328.61 649.53,-313.69 606.21,-303.15"/>
<polygon fill="#63b8ff" stroke="#63b8ff" points="607.08,-299.76 596.53,-300.8 605.42,-306.56 607.08,-299.76"/>
</a>
</g>
</g>
<!-- Node35 -->
<g id="Node000035" class="node">
<title>Node35</title>
<g id="a_Node000035"><a xlink:href="dsps__biquad_8h.html" target="_top" xlink:title=" ">
<polygon fill="#fff0f0" stroke="red" points="1266.75,-188 1187.75,-188 1187.75,-168 1266.75,-168 1266.75,-188"/>
<text xml:space="preserve" text-anchor="middle" x="1227.25" y="-174.5" font-family="Helvetica,sans-Serif" font-size="10.00">dsps_biquad.h</text>
</a>
</g>
</g>
<!-- Node16&#45;&gt;Node35 -->
<g id="edge32_Node000016_Node000035" class="edge">
<title>Node16&#45;&gt;Node35</title>
<g id="a_edge32_Node000016_Node000035"><a xlink:title=" ">
<path fill="none" stroke="#63b8ff" d="M809.17,-344.33C890.77,-342.12 1109.98,-333.16 1173.25,-300 1202.54,-284.65 1209.44,-274.49 1222.25,-244 1228.16,-229.93 1229.23,-212.64 1228.92,-199.43"/>
<polygon fill="#63b8ff" stroke="#63b8ff" points="1232.44,-199.56 1228.4,-189.76 1225.45,-199.94 1232.44,-199.56"/>
</a>
</g>
</g>
<!-- Node37 -->
<g id="Node000037" class="node">
<title>Node37</title>
<g id="a_Node000037"><a xlink:href="dsps__biquad__gen_8h.html" target="_top" xlink:title=" ">
<polygon fill="white" stroke="#666666" points="1369.25,-244 1269.25,-244 1269.25,-224 1369.25,-224 1369.25,-244"/>
<text xml:space="preserve" text-anchor="middle" x="1319.25" y="-230.5" font-family="Helvetica,sans-Serif" font-size="10.00">dsps_biquad_gen.h</text>
</a>
</g>
</g>
<!-- Node16&#45;&gt;Node37 -->
<g id="edge34_Node000016_Node000037" class="edge">
<title>Node16&#45;&gt;Node37</title>
<g id="a_edge34_Node000016_Node000037"><a xlink:title=" ">
<path fill="none" stroke="#63b8ff" d="M808.95,-344.82C901.4,-343.85 1175.71,-337.8 1255.25,-300 1277.07,-289.63 1295.62,-268.53 1307.04,-253.18"/>
<polygon fill="#63b8ff" stroke="#63b8ff" points="1309.68,-255.5 1312.6,-245.32 1303.97,-251.46 1309.68,-255.5"/>
</a>
</g>
</g>
<!-- Node38 -->
<g id="Node000038" class="node">
<title>Node38</title>
<g id="a_Node000038"><a xlink:href="dsps__wind_8h.html" target="_top" xlink:title=" ">
<polygon fill="#fff0f0" stroke="red" points="491.62,-300 420.88,-300 420.88,-280 491.62,-280 491.62,-300"/>
<text xml:space="preserve" text-anchor="middle" x="456.25" y="-286.5" font-family="Helvetica,sans-Serif" font-size="10.00">dsps_wind.h</text>
</a>
</g>
</g>
<!-- Node16&#45;&gt;Node38 -->
<g id="edge36_Node000016_Node000038" class="edge">
<title>Node16&#45;&gt;Node38</title>
<g id="a_edge36_Node000016_Node000038"><a xlink:title=" ">
<path fill="none" stroke="#63b8ff" d="M747.32,-340.42C697.88,-333.01 597.71,-317.61 502.99,-300.44"/>
<polygon fill="#63b8ff" stroke="#63b8ff" points="503.72,-297.02 493.26,-298.67 502.47,-303.91 503.72,-297.02"/>
</a>
</g>
</g>
<!-- Node45 -->
<g id="Node000045" class="node">
<title>Node45</title>
<g id="a_Node000045"><a xlink:href="dsps__conv_8h.html" target="_top" xlink:title=" ">
<polygon fill="#fff0f0" stroke="red" points="1404.62,-188 1333.88,-188 1333.88,-168 1404.62,-168 1404.62,-188"/>
<text xml:space="preserve" text-anchor="middle" x="1369.25" y="-174.5" font-family="Helvetica,sans-Serif" font-size="10.00">dsps_conv.h</text>
</a>
</g>
</g>
<!-- Node16&#45;&gt;Node45 -->
<g id="edge37_Node000016_Node000045" class="edge">
<title>Node16&#45;&gt;Node45</title>
<g id="a_edge37_Node000016_Node000045"><a xlink:title=" ">
<path fill="none" stroke="#63b8ff" d="M808.92,-344.01C904.08,-340.67 1193.22,-328.38 1282.25,-300 1305.78,-292.5 1365.95,-265.42 1378.25,-244 1386.15,-230.25 1382.8,-212.23 1378.09,-198.65"/>
<polygon fill="#63b8ff" stroke="#63b8ff" points="1381.39,-197.47 1374.42,-189.49 1374.89,-200.07 1381.39,-197.47"/>
</a>
</g>
</g>
<!-- Node47 -->
<g id="Node000047" class="node">
<title>Node47</title>
<g id="a_Node000047"><a xlink:href="dsps__corr_8h.html" target="_top" xlink:title=" ">
<polygon fill="#fff0f0" stroke="red" points="1416.75,-300 1349.75,-300 1349.75,-280 1416.75,-280 1416.75,-300"/>
<text xml:space="preserve" text-anchor="middle" x="1383.25" y="-286.5" font-family="Helvetica,sans-Serif" font-size="10.00">dsps_corr.h</text>
</a>
</g>
</g>
<!-- Node16&#45;&gt;Node47 -->
<g id="edge39_Node000016_Node000047" class="edge">
<title>Node16&#45;&gt;Node47</title>
<g id="a_edge39_Node000016_Node000047"><a xlink:title=" ">
<path fill="none" stroke="#63b8ff" d="M809.17,-343.64C893.7,-339.68 1135.72,-326.69 1335.25,-300 1336.26,-299.86 1337.28,-299.72 1338.31,-299.57"/>
<polygon fill="#63b8ff" stroke="#63b8ff" points="1338.68,-303.06 1348,-298.03 1337.57,-296.15 1338.68,-303.06"/>
</a>
</g>
</g>
<!-- Node48 -->
<g id="Node000048" class="node">
<title>Node48</title>
<g id="a_Node000048"><a xlink:href="dsps__d__gen_8h.html" target="_top" xlink:title=" ">
<polygon fill="white" stroke="#666666" points="1511.62,-300 1434.88,-300 1434.88,-280 1511.62,-280 1511.62,-300"/>
<text xml:space="preserve" text-anchor="middle" x="1473.25" y="-286.5" font-family="Helvetica,sans-Serif" font-size="10.00">dsps_d_gen.h</text>
</a>
</g>
</g>
<!-- Node16&#45;&gt;Node48 -->
<g id="edge41_Node000016_Node000048" class="edge">
<title>Node16&#45;&gt;Node48</title>
<g id="a_edge41_Node000016_Node000048"><a xlink:title=" ">
<path fill="none" stroke="#63b8ff" d="M809.07,-344.17C900.99,-341.42 1181.35,-331.03 1423.45,-300.22"/>
<polygon fill="#63b8ff" stroke="#63b8ff" points="1423.61,-303.73 1433.08,-298.98 1422.71,-296.79 1423.61,-303.73"/>
</a>
</g>
</g>
<!-- Node49 -->
<g id="Node000049" class="node">
<title>Node49</title>
<g id="a_Node000049"><a xlink:href="dsps__h__gen_8h.html" target="_top" xlink:title=" ">
<polygon fill="white" stroke="#666666" points="849.62,-300 772.88,-300 772.88,-280 849.62,-280 849.62,-300"/>
<text xml:space="preserve" text-anchor="middle" x="811.25" y="-286.5" font-family="Helvetica,sans-Serif" font-size="10.00">dsps_h_gen.h</text>
</a>
</g>
</g>
<!-- Node16&#45;&gt;Node49 -->
<g id="edge43_Node000016_Node000049" class="edge">
<title>Node16&#45;&gt;Node49</title>
<g id="a_edge43_Node000016_Node000049"><a xlink:title=" ">
<path fill="none" stroke="#63b8ff" d="M784,-335.59C788.3,-328.55 794.34,-318.67 799.64,-310"/>
<polygon fill="#63b8ff" stroke="#63b8ff" points="802.55,-311.95 804.78,-301.59 796.58,-308.3 802.55,-311.95"/>
</a>
</g>
</g>
<!-- Node50 -->
<g id="Node000050" class="node">
<title>Node50</title>
<g id="a_Node000050"><a xlink:href="dsps__tone__gen_8h.html" target="_top" xlink:title=" ">
<polygon fill="white" stroke="#666666" points="901.38,-244 811.12,-244 811.12,-224 901.38,-224 901.38,-244"/>
<text xml:space="preserve" text-anchor="middle" x="856.25" y="-230.5" font-family="Helvetica,sans-Serif" font-size="10.00">dsps_tone_gen.h</text>
</a>
</g>
</g>
<!-- Node16&#45;&gt;Node50 -->
<g id="edge45_Node000016_Node000050" class="edge">
<title>Node16&#45;&gt;Node50</title>
<g id="a_edge45_Node000016_Node000050"><a xlink:title=" ">
<path fill="none" stroke="#63b8ff" d="M808.9,-336.33C826.69,-329.55 847.63,-318.16 858.25,-300 866.1,-286.57 864.92,-268.76 862.16,-255.18"/>
<polygon fill="#63b8ff" stroke="#63b8ff" points="865.59,-254.46 859.76,-245.61 858.8,-256.17 865.59,-254.46"/>
</a>
</g>
</g>
<!-- Node51 -->
<g id="Node000051" class="node">
<title>Node51</title>
<g id="a_Node000051"><a xlink:href="dsps__snr_8h.html" target="_top" xlink:title=" ">
<polygon fill="white" stroke="#666666" points="969.25,-300 905.25,-300 905.25,-280 969.25,-280 969.25,-300"/>
<text xml:space="preserve" text-anchor="middle" x="937.25" y="-286.5" font-family="Helvetica,sans-Serif" font-size="10.00">dsps_snr.h</text>
</a>
</g>
</g>
<!-- Node16&#45;&gt;Node51 -->
<g id="edge47_Node000016_Node000051" class="edge">
<title>Node16&#45;&gt;Node51</title>
<g id="a_edge47_Node000016_Node000051"><a xlink:title=" ">
<path fill="none" stroke="#63b8ff" d="M805.95,-335.59C831.55,-326.9 869.86,-313.89 898.5,-304.16"/>
<polygon fill="#63b8ff" stroke="#63b8ff" points="899.56,-307.5 907.91,-300.97 897.31,-300.87 899.56,-307.5"/>
</a>
</g>
</g>
<!-- Node52 -->
<g id="Node000052" class="node">
<title>Node52</title>
<g id="a_Node000052"><a xlink:href="dsps__sfdr_8h.html" target="_top" xlink:title=" ">
<polygon fill="white" stroke="#666666" points="1024.75,-244 957.75,-244 957.75,-224 1024.75,-224 1024.75,-244"/>
<text xml:space="preserve" text-anchor="middle" x="991.25" y="-230.5" font-family="Helvetica,sans-Serif" font-size="10.00">dsps_sfdr.h</text>
</a>
</g>
</g>
<!-- Node16&#45;&gt;Node52 -->
<g id="edge49_Node000016_Node000052" class="edge">
<title>Node16&#45;&gt;Node52</title>
<g id="a_edge49_Node000016_Node000052"><a xlink:title=" ">
<path fill="none" stroke="#63b8ff" d="M808.94,-342.14C859,-336.85 955,-323.81 978.25,-300 989.57,-288.41 992.37,-269.91 992.6,-255.61"/>
<polygon fill="#63b8ff" stroke="#63b8ff" points="996.11,-255.81 992.33,-245.91 989.11,-256 996.11,-255.81"/>
</a>
</g>
</g>
<!-- Node53 -->
<g id="Node000053" class="node">
<title>Node53</title>
<g id="a_Node000053"><a xlink:href="dsps__fft2r_8h.html" target="_top" xlink:title=" ">
<polygon fill="#fff0f0" stroke="red" points="564.75,-188 497.75,-188 497.75,-168 564.75,-168 564.75,-188"/>
<text xml:space="preserve" text-anchor="middle" x="531.25" y="-174.5" font-family="Helvetica,sans-Serif" font-size="10.00">dsps_fft2r.h</text>
</a>
</g>
</g>
<!-- Node16&#45;&gt;Node53 -->
<g id="edge51_Node000016_Node000053" class="edge">
<title>Node16&#45;&gt;Node53</title>
<g id="a_edge51_Node000016_Node000053"><a xlink:title=" ">
<path fill="none" stroke="#63b8ff" d="M747.41,-336.65C719.97,-328.74 679.06,-315.74 645.25,-300 629.7,-292.76 627.82,-287.2 612.25,-280 566.33,-258.76 533.83,-285.05 504.25,-244 493.8,-229.5 504.1,-210.36 514.86,-196.6"/>
<polygon fill="#63b8ff" stroke="#63b8ff" points="517.32,-199.1 521.14,-189.22 511.99,-194.56 517.32,-199.1"/>
</a>
</g>
</g>
<!-- Node56 -->
<g id="Node000056" class="node">
<title>Node56</title>
<g id="a_Node000056"><a xlink:href="dsps__fft4r_8h.html" target="_top" xlink:title=" ">
<polygon fill="#fff0f0" stroke="red" points="802.75,-188 735.75,-188 735.75,-168 802.75,-168 802.75,-188"/>
<text xml:space="preserve" text-anchor="middle" x="769.25" y="-174.5" font-family="Helvetica,sans-Serif" font-size="10.00">dsps_fft4r.h</text>
</a>
</g>
</g>
<!-- Node16&#45;&gt;Node56 -->
<g id="edge54_Node000016_Node000056" class="edge">
<title>Node16&#45;&gt;Node56</title>
<g id="a_edge54_Node000016_Node000056"><a xlink:title=" ">
<path fill="none" stroke="#63b8ff" d="M774.39,-335.54C770.95,-326.57 766.17,-312.62 764.25,-300 758.95,-265.11 762.75,-223.96 765.99,-199.76"/>
<polygon fill="#63b8ff" stroke="#63b8ff" points="769.44,-200.38 767.42,-189.98 762.51,-199.37 769.44,-200.38"/>
</a>
</g>
</g>
<!-- Node58 -->
<g id="Node000058" class="node">
<title>Node58</title>
<g id="a_Node000058"><a xlink:href="dsps__dct_8h.html" target="_top" xlink:title=" ">
<polygon fill="white" stroke="#666666" points="479.25,-188 415.25,-188 415.25,-168 479.25,-168 479.25,-188"/>
<text xml:space="preserve" text-anchor="middle" x="447.25" y="-174.5" font-family="Helvetica,sans-Serif" font-size="10.00">dsps_dct.h</text>
</a>
</g>
</g>
<!-- Node16&#45;&gt;Node58 -->
<g id="edge57_Node000016_Node000058" class="edge">
<title>Node16&#45;&gt;Node58</title>
<g id="a_edge57_Node000016_Node000058"><a xlink:title=" ">
<path fill="none" stroke="#63b8ff" d="M747.41,-343.51C663.24,-339.13 434.36,-324.99 412.25,-300 386.41,-270.79 413.55,-223.56 432.4,-197.59"/>
<polygon fill="#63b8ff" stroke="#63b8ff" points="435.16,-199.75 438.41,-189.67 429.58,-195.52 435.16,-199.75"/>
</a>
</g>
</g>
<!-- Node59 -->
<g id="Node000059" class="node">
<title>Node59</title>
<g id="a_Node000059"><a xlink:href="dspm__matrix_8h.html" target="_top" xlink:title=" ">
<polygon fill="#fff0f0" stroke="red" points="1143.5,-300 1063,-300 1063,-280 1143.5,-280 1143.5,-300"/>
<text xml:space="preserve" text-anchor="middle" x="1103.25" y="-286.5" font-family="Helvetica,sans-Serif" font-size="10.00">dspm_matrix.h</text>
</a>
</g>
</g>
<!-- Node16&#45;&gt;Node59 -->
<g id="edge60_Node000016_Node000059" class="edge">
<title>Node16&#45;&gt;Node59</title>
<g id="a_edge60_Node000016_Node000059"><a xlink:title=" ">
<path fill="none" stroke="#63b8ff" d="M809.14,-339.88C859.45,-331.53 962.21,-314.48 1049.25,-300 1049.92,-299.89 1050.6,-299.77 1051.28,-299.66"/>
<polygon fill="#63b8ff" stroke="#63b8ff" points="1051.78,-303.13 1061.07,-298.03 1050.63,-296.22 1051.78,-303.13"/>
</a>
</g>
</g>
<!-- Node70 -->
<g id="Node000070" class="node">
<title>Node70</title>
<g id="a_Node000070"><a xlink:href="dsps__view_8h.html" target="_top" xlink:title=" ">
<polygon fill="white" stroke="#666666" points="1113.25,-244 1043.25,-244 1043.25,-224 1113.25,-224 1113.25,-244"/>
<text xml:space="preserve" text-anchor="middle" x="1078.25" y="-230.5" font-family="Helvetica,sans-Serif" font-size="10.00">dsps_view.h</text>
</a>
</g>
</g>
<!-- Node16&#45;&gt;Node70 -->
<g id="edge61_Node000016_Node000070" class="edge">
<title>Node16&#45;&gt;Node70</title>
<g id="a_edge61_Node000016_Node000070"><a xlink:title=" ">
<path fill="none" stroke="#63b8ff" d="M809.07,-343.23C852.81,-339.73 934.55,-329.48 997.25,-300 1022.35,-288.2 1046.53,-267.12 1061.83,-252.16"/>
<polygon fill="#63b8ff" stroke="#63b8ff" points="1064.13,-254.82 1068.69,-245.26 1059.16,-249.89 1064.13,-254.82"/>
</a>
</g>
</g>
<!-- Node71 -->
<g id="Node000071" class="node">
<title>Node71</title>
<g id="a_Node000071"><a xlink:href="dspi__dotprod_8h.html" target="_top" xlink:title=" ">
<polygon fill="#fff0f0" stroke="red" points="593.12,-244 513.38,-244 513.38,-224 593.12,-224 593.12,-244"/>
<text xml:space="preserve" text-anchor="middle" x="553.25" y="-230.5" font-family="Helvetica,sans-Serif" font-size="10.00">dspi_dotprod.h</text>
</a>
</g>
</g>
<!-- Node16&#45;&gt;Node71 -->
<g id="edge63_Node000016_Node000071" class="edge">
<title>Node16&#45;&gt;Node71</title>
<g id="a_edge63_Node000016_Node000071"><a xlink:title=" ">
<path fill="none" stroke="#63b8ff" d="M759.07,-335.62C719.63,-316.34 629.24,-272.15 582.47,-249.29"/>
<polygon fill="#63b8ff" stroke="#63b8ff" points="584.27,-246.27 573.74,-245.02 581.19,-252.56 584.27,-246.27"/>
</a>
</g>
</g>
<!-- Node73 -->
<g id="Node000073" class="node">
<title>Node73</title>
<g id="a_Node000073"><a xlink:href="dspi__conv_8h.html" target="_top" xlink:title=" ">
<polygon fill="#fff0f0" stroke="red" points="679.12,-244 611.38,-244 611.38,-224 679.12,-224 679.12,-244"/>
<text xml:space="preserve" text-anchor="middle" x="645.25" y="-230.5" font-family="Helvetica,sans-Serif" font-size="10.00">dspi_conv.h</text>
</a>
</g>
</g>
<!-- Node16&#45;&gt;Node73 -->
<g id="edge66_Node000016_Node000073" class="edge">
<title>Node16&#45;&gt;Node73</title>
<g id="a_edge66_Node000016_Node000073"><a xlink:title=" ">
<path fill="none" stroke="#63b8ff" d="M766.91,-335.62C744.34,-316.95 693.51,-274.92 665.22,-251.52"/>
<polygon fill="#63b8ff" stroke="#63b8ff" points="667.66,-249 657.73,-245.32 663.2,-254.39 667.66,-249"/>
</a>
</g>
</g>
<!-- Node17&#45;&gt;Node4 -->
<g id="edge23_Node000017_Node000004" class="edge">
<title>Node17&#45;&gt;Node4</title>
<g id="a_edge23_Node000017_Node000004"><a xlink:title=" ">
<path fill="none" stroke="#63b8ff" d="M258.51,-167.75C269.34,-159.54 284.28,-146.6 293.25,-132 301.64,-118.35 306.48,-100.81 309.17,-87.39"/>
<polygon fill="#63b8ff" stroke="#63b8ff" points="312.55,-88.4 310.82,-77.95 305.66,-87.2 312.55,-88.4"/>
</a>
</g>
</g>
<!-- Node17&#45;&gt;Node11 -->
<g id="edge24_Node000017_Node000011" class="edge">
<title>Node17&#45;&gt;Node11</title>
<g id="a_edge24_Node000017_Node000011"><a xlink:title=" ">
<path fill="none" stroke="#63b8ff" d="M247.17,-167.59C248.52,-160.93 250.39,-151.75 252.09,-143.44"/>
<polygon fill="#63b8ff" stroke="#63b8ff" points="255.49,-144.28 254.05,-133.78 248.63,-142.88 255.49,-144.28"/>
</a>
</g>
</g>
<!-- Node19&#45;&gt;Node3 -->
<g id="edge26_Node000019_Node000003" class="edge">
<title>Node19&#45;&gt;Node3</title>
<g id="a_edge26_Node000019_Node000003"><a xlink:title=" ">
<path fill="none" stroke="#63b8ff" d="M1147.38,-223.61C1113.49,-210.84 1050.89,-187.39 997.25,-168 966.95,-157.05 932.5,-144.96 906.97,-136.07"/>
<polygon fill="#63b8ff" stroke="#63b8ff" points="908.29,-132.82 897.7,-132.84 905.99,-139.43 908.29,-132.82"/>
</a>
</g>
</g>
<!-- Node34&#45;&gt;Node2 -->
<g id="edge31_Node000034_Node000002" class="edge">
<title>Node34&#45;&gt;Node2</title>
<g id="a_edge31_Node000034_Node000002"><a xlink:title=" ">
<path fill="none" stroke="#63b8ff" d="M517.68,-279.53C478.22,-269.85 417.17,-254.86 376.96,-244.99"/>
<polygon fill="#63b8ff" stroke="#63b8ff" points="377.97,-241.64 367.43,-242.65 376.3,-248.44 377.97,-241.64"/>
</a>
</g>
</g>
<!-- Node34&#45;&gt;Node3 -->
<g id="edge30_Node000034_Node000003" class="edge">
<title>Node34&#45;&gt;Node3</title>
<g id="a_edge30_Node000034_Node000003"><a xlink:title=" ">
<path fill="none" stroke="#63b8ff" d="M603.08,-282.05C630.51,-275.95 664.34,-264.66 688.25,-244 716.98,-219.18 698.26,-192.51 727.25,-168 756.15,-143.57 798.39,-132.37 829.29,-127.25"/>
<polygon fill="#63b8ff" stroke="#63b8ff" points="829.66,-130.74 839.03,-125.8 828.63,-123.81 829.66,-130.74"/>
</a>
</g>
</g>
<!-- Node35&#45;&gt;Node3 -->
<g id="edge33_Node000035_Node000003" class="edge">
<title>Node35&#45;&gt;Node3</title>
<g id="a_edge33_Node000035_Node000003"><a xlink:title=" ">
<path fill="none" stroke="#63b8ff" d="M1187.57,-171.01C1118.73,-160.63 977.95,-139.4 909.04,-129"/>
<polygon fill="#63b8ff" stroke="#63b8ff" points="909.74,-125.57 899.33,-127.54 908.69,-132.49 909.74,-125.57"/>
</a>
</g>
</g>
<!-- Node37&#45;&gt;Node3 -->
<g id="edge35_Node000037_Node000003" class="edge">
<title>Node37&#45;&gt;Node3</title>
<g id="a_edge35_Node000037_Node000003"><a xlink:title=" ">
<path fill="none" stroke="#63b8ff" d="M1316,-223.55C1310.42,-208.88 1297.5,-180.98 1276.25,-168 1215.28,-130.77 999.2,-124.26 909.12,-123.18"/>
<polygon fill="#63b8ff" stroke="#63b8ff" points="909.33,-119.68 899.29,-123.08 909.26,-126.68 909.33,-119.68"/>
</a>
</g>
</g>
<!-- Node45&#45;&gt;Node3 -->
<g id="edge38_Node000045_Node000003" class="edge">
<title>Node45&#45;&gt;Node3</title>
<g id="a_edge38_Node000045_Node000003"><a xlink:title=" ">
<path fill="none" stroke="#63b8ff" d="M1333.45,-170.93C1326.74,-169.88 1319.79,-168.86 1313.25,-168 1164.55,-148.53 986.88,-132.78 909.06,-126.25"/>
<polygon fill="#63b8ff" stroke="#63b8ff" points="909.65,-122.79 899.39,-125.44 909.07,-129.76 909.65,-122.79"/>
</a>
</g>
</g>
<!-- Node47&#45;&gt;Node3 -->
<g id="edge40_Node000047_Node000003" class="edge">
<title>Node47&#45;&gt;Node3</title>
<g id="a_edge40_Node000047_Node000003"><a xlink:title=" ">
<path fill="none" stroke="#63b8ff" d="M1390.4,-279.74C1406.71,-257.47 1443.01,-200.32 1413.25,-168 1379.24,-131.06 1028.68,-124.44 909.02,-123.26"/>
<polygon fill="#63b8ff" stroke="#63b8ff" points="909.4,-119.76 899.37,-123.17 909.34,-126.76 909.4,-119.76"/>
</a>
</g>
</g>
<!-- Node48&#45;&gt;Node3 -->
<g id="edge42_Node000048_Node000003" class="edge">
<title>Node48&#45;&gt;Node3</title>
<g id="a_edge42_Node000048_Node000003"><a xlink:title=" ">
<path fill="none" stroke="#63b8ff" d="M1473.29,-279.83C1472.83,-256.73 1468.12,-195.95 1432.25,-168 1391.17,-135.99 1030.61,-126.12 909.06,-123.69"/>
<polygon fill="#63b8ff" stroke="#63b8ff" points="909.31,-120.19 899.25,-123.5 909.18,-127.19 909.31,-120.19"/>
</a>
</g>
</g>
<!-- Node49&#45;&gt;Node3 -->
<g id="edge44_Node000049_Node000003" class="edge">
<title>Node49&#45;&gt;Node3</title>
<g id="a_edge44_Node000049_Node000003"><a xlink:title=" ">
<path fill="none" stroke="#63b8ff" d="M807.47,-279.55C802.89,-266.72 796.46,-243.2 802.25,-224 812.07,-191.43 836.21,-159.71 852.67,-140.76"/>
<polygon fill="#63b8ff" stroke="#63b8ff" points="855.17,-143.22 859.23,-133.44 849.95,-138.55 855.17,-143.22"/>
</a>
</g>
</g>
<!-- Node50&#45;&gt;Node3 -->
<g id="edge46_Node000050_Node000003" class="edge">
<title>Node50&#45;&gt;Node3</title>
<g id="a_edge46_Node000050_Node000003"><a xlink:title=" ">
<path fill="none" stroke="#63b8ff" d="M857.36,-223.62C859.44,-206.01 863.98,-167.59 866.81,-143.65"/>
<polygon fill="#63b8ff" stroke="#63b8ff" points="870.27,-144.2 867.97,-133.86 863.32,-143.38 870.27,-144.2"/>
</a>
</g>
</g>
<!-- Node51&#45;&gt;Node3 -->
<g id="edge48_Node000051_Node000003" class="edge">
<title>Node51&#45;&gt;Node3</title>
<g id="a_edge48_Node000051_Node000003"><a xlink:title=" ">
<path fill="none" stroke="#63b8ff" d="M933.4,-279.6C922.65,-253.35 892.12,-178.84 877.4,-142.89"/>
<polygon fill="#63b8ff" stroke="#63b8ff" points="880.66,-141.62 873.63,-133.7 874.18,-144.28 880.66,-141.62"/>
</a>
</g>
</g>
<!-- Node52&#45;&gt;Node3 -->
<g id="edge50_Node000052_Node000003" class="edge">
<title>Node52&#45;&gt;Node3</title>
<g id="a_edge50_Node000052_Node000003"><a xlink:title=" ">
<path fill="none" stroke="#63b8ff" d="M986,-223.72C978.05,-210.25 961.89,-185.04 943.25,-168 930.12,-156 913.33,-145.48 899.06,-137.64"/>
<polygon fill="#63b8ff" stroke="#63b8ff" points="901.01,-134.71 890.54,-133.13 897.73,-140.9 901.01,-134.71"/>
</a>
</g>
</g>
<!-- Node53&#45;&gt;Node3 -->
<g id="edge52_Node000053_Node000003" class="edge">
<title>Node53&#45;&gt;Node3</title>
<g id="a_edge52_Node000053_Node000003"><a xlink:title=" ">
<path fill="none" stroke="#63b8ff" d="M565.05,-170.52C569.82,-169.65 574.65,-168.79 579.25,-168 668.56,-152.7 773.75,-136.94 829.64,-128.74"/>
<polygon fill="#63b8ff" stroke="#63b8ff" points="829.91,-132.24 839.3,-127.33 828.9,-125.31 829.91,-132.24"/>
</a>
</g>
</g>
<!-- Node53&#45;&gt;Node9 -->
<g id="edge53_Node000053_Node000009" class="edge">
<title>Node53&#45;&gt;Node9</title>
<g id="a_edge53_Node000053_Node000009"><a xlink:title=" ">
<path fill="none" stroke="#63b8ff" d="M523.93,-167.59C518.27,-160.32 510.26,-150.02 503.36,-141.15"/>
<polygon fill="#63b8ff" stroke="#63b8ff" points="506.31,-139.24 497.41,-133.49 500.79,-143.54 506.31,-139.24"/>
</a>
</g>
</g>
<!-- Node56&#45;&gt;Node3 -->
<g id="edge55_Node000056_Node000003" class="edge">
<title>Node56&#45;&gt;Node3</title>
<g id="a_edge55_Node000056_Node000003"><a xlink:title=" ">
<path fill="none" stroke="#63b8ff" d="M786.67,-167.59C801.92,-159.36 824.33,-147.26 841.96,-137.74"/>
<polygon fill="#63b8ff" stroke="#63b8ff" points="843.23,-141.03 850.36,-133.2 839.9,-134.87 843.23,-141.03"/>
</a>
</g>
</g>
<!-- Node56&#45;&gt;Node9 -->
<g id="edge56_Node000056_Node000009" class="edge">
<title>Node56&#45;&gt;Node9</title>
<g id="a_edge56_Node000056_Node000009"><a xlink:title=" ">
<path fill="none" stroke="#63b8ff" d="M735.48,-170.49C684.99,-160.75 589.8,-142.39 533.72,-131.58"/>
<polygon fill="#63b8ff" stroke="#63b8ff" points="534.68,-128.2 524.19,-129.74 533.35,-135.07 534.68,-128.2"/>
</a>
</g>
</g>
<!-- Node58&#45;&gt;Node3 -->
<g id="edge58_Node000058_Node000003" class="edge">
<title>Node58&#45;&gt;Node3</title>
<g id="a_edge58_Node000058_Node000003"><a xlink:title=" ">
<path fill="none" stroke="#63b8ff" d="M479.29,-169.81C482.65,-169.16 486.01,-168.54 489.25,-168 612.54,-147.54 759.82,-132.85 829.27,-126.5"/>
<polygon fill="#63b8ff" stroke="#63b8ff" points="829.37,-130 839.01,-125.62 828.74,-123.03 829.37,-130"/>
</a>
</g>
</g>
<!-- Node58&#45;&gt;Node9 -->
<g id="edge59_Node000058_Node000009" class="edge">
<title>Node58&#45;&gt;Node9</title>
<g id="a_edge59_Node000058_Node000009"><a xlink:title=" ">
<path fill="none" stroke="#63b8ff" d="M454.57,-167.59C460.23,-160.32 468.24,-150.02 475.14,-141.15"/>
<polygon fill="#63b8ff" stroke="#63b8ff" points="477.71,-143.54 481.09,-133.49 472.19,-139.24 477.71,-143.54"/>
</a>
</g>
</g>
<!-- Node70&#45;&gt;Node3 -->
<g id="edge62_Node000070_Node000003" class="edge">
<title>Node70&#45;&gt;Node3</title>
<g id="a_edge62_Node000070_Node000003"><a xlink:title=" ">
<path fill="none" stroke="#63b8ff" d="M1062.92,-223.5C1041.57,-210.42 1001.54,-186.38 966.25,-168 945.05,-156.96 920.65,-145.65 901.62,-137.12"/>
<polygon fill="#63b8ff" stroke="#63b8ff" points="903.04,-133.93 892.48,-133.06 900.2,-140.32 903.04,-133.93"/>
</a>
</g>
</g>
<!-- Node71&#45;&gt;Node3 -->
<g id="edge64_Node000071_Node000003" class="edge">
<title>Node71&#45;&gt;Node3</title>
<g id="a_edge64_Node000071_Node000003"><a xlink:title=" ">
<path fill="none" stroke="#63b8ff" d="M566.76,-223.6C587.6,-209.52 629.3,-182.99 668.25,-168 722.13,-147.27 787.99,-134.79 829.29,-128.4"/>
<polygon fill="#63b8ff" stroke="#63b8ff" points="829.65,-131.88 839.02,-126.94 828.61,-124.96 829.65,-131.88"/>
</a>
</g>
</g>
<!-- Node71&#45;&gt;Node17 -->
<g id="edge65_Node000071_Node000017" class="edge">
<title>Node71&#45;&gt;Node17</title>
<g id="a_edge65_Node000071_Node000017"><a xlink:title=" ">
<path fill="none" stroke="#63b8ff" d="M513.21,-226.69C463.42,-218.73 375.57,-204.35 291.05,-188.48"/>
<polygon fill="#63b8ff" stroke="#63b8ff" points="291.92,-185.08 281.45,-186.66 290.63,-191.96 291.92,-185.08"/>
</a>
</g>
</g>
<!-- Node73&#45;&gt;Node3 -->
<g id="edge67_Node000073_Node000003" class="edge">
<title>Node73&#45;&gt;Node3</title>
<g id="a_edge67_Node000073_Node000003"><a xlink:title=" ">
<path fill="none" stroke="#63b8ff" d="M649.42,-223.89C656.41,-209.69 671.84,-182.41 693.25,-168 734.5,-140.23 791.71,-129.59 829.57,-125.52"/>
<polygon fill="#63b8ff" stroke="#63b8ff" points="829.53,-129.04 839.15,-124.6 828.86,-122.08 829.53,-129.04"/>
</a>
</g>
</g>
<!-- Node73&#45;&gt;Node17 -->
<g id="edge68_Node000073_Node000017" class="edge">
<title>Node73&#45;&gt;Node17</title>
<g id="a_edge68_Node000073_Node000017"><a xlink:title=" ">
<path fill="none" stroke="#63b8ff" d="M611.04,-225.54C608.07,-224.99 605.11,-224.46 602.25,-224 467.1,-202.16 428.85,-209.98 290.92,-188.3"/>
<polygon fill="#63b8ff" stroke="#63b8ff" points="291.85,-184.91 281.43,-186.78 290.75,-191.82 291.85,-184.91"/>
</a>
</g>
</g>
</g>
</svg>

<g id="navigator" transform="translate(0 0)" fill="#404254">
  <rect fill="#f2f5e9" fill-opacity="0.5" stroke="#606060" stroke-width=".5" x="0" y="0" width="60" height="60"/>
  <use id="zoomplus" xlink:href="#zoomPlus" x="17" y="9" onmousedown="handleZoom(evt,'in')"/>
  <use id="zoomminus" xlink:href="#zoomMin" x="42" y="9" onmousedown="handleZoom(evt,'out')"/>
  <use id="reset" xlink:href="#resetDef" x="30" y="36" onmousedown="handleReset()"/>
   <use id="arrowup" xlink:href="#arrowUp" x="0" y="0" onmousedown="handlePan(0,-1)"/>
  <use id="arrowright" xlink:href="#arrowRight" x="0" y="0" onmousedown="handlePan(1,0)"/>
  <use id="arrowdown" xlink:href="#arrowDown" x="0" y="0" onmousedown="handlePan(0,1)"/>
  <use id="arrowleft" xlink:href="#arrowLeft" x="0" y="0" onmousedown="handlePan(-1,0)"/>
</g>
<svg viewBox="0 0 15 15" width="100%" height="30px" preserveAspectRatio="xMaxYMin meet">
 <g id="arrow_out" transform="scale(0.3 0.3)">
  <a xlink:href="dsps__firmr__f32__ansi_8c__incl_org.svg" target="_base">
   <rect id="button" ry="5" rx="5" y="6" x="6" height="38" width="38"
        fill="#f2f5e9" fill-opacity="0.5" stroke="#606060" stroke-width="1.0"/>
   <path id="arrow"
     d="M 11.500037,31.436501 C 11.940474,20.09759 22.043105,11.32322 32.158766,21.979434 L 37.068811,17.246167 C 37.068811,17.246167 37.088388,32 37.088388,32 L 22.160133,31.978069 C 22.160133,31.978069 26.997745,27.140456 26.997745,27.140456 C 18.528582,18.264221 13.291696,25.230495 11.500037,31.436501 z"
     style="fill:#404040;"/>
  </a>
 </g>
</svg>

<style type='text/css'>
<![CDATA[
[data-mouse-over-selected='false'] { opacity: 0.7; }
[data-mouse-over-selected='true']  { opacity: 1.0; }
]]>
</style>
<script type="application/ecmascript"><![CDATA[
document.addEventListener('DOMContentLoaded', (event) => {
  highlightEdges();
  highlightAdjacentNodes();
});
]]></script>
</svg>
