<?xml version="1.0" encoding="UTF-8" standalone="no"?>
<!DOCTYPE svg PUBLIC "-//W3C//DTD SVG 1.1//EN"
 "http://www.w3.org/Graphics/SVG/1.1/DTD/svg11.dtd">
<!-- Generated by graphviz version 14.1.2 (20260124.0452)
 -->
<!-- Title: dsps_math.h Pages: 1 -->
<svg width="698pt" height="196pt"
 viewBox="0.00 0.00 698.00 196.00" xmlns="http://www.w3.org/2000/svg" xmlns:xlink="http://www.w3.org/1999/xlink">
<g id="graph0" class="graph" transform="scale(1 1) rotate(0) translate(4 192)">
<title>dsps_math.h</title>
<!-- Node1 -->
<g id="Node000001" class="node">
<title>Node1</title>
<g id="a_Node000001"><a xlink:title=" ">
<polygon fill="#999999" stroke="#666666" points="324.12,-188 251.88,-188 251.88,-168 324.12,-168 324.12,-188"/>
<text xml:space="preserve" text-anchor="middle" x="288" y="-174.5" font-family="Helvetica,sans-Serif" font-size="10.00">dsps_math.h</text>
</a>
</g>
</g>
<!-- Node2 -->
<g id="Node000002" class="node">
<title>Node2</title>
<g id="a_Node000002"><a xlink:href="dsps__add_8h.html" target="_top" xlink:title=" ">
<polygon fill="white" stroke="#666666" points="365.12,-132 298.88,-132 298.88,-112 365.12,-112 365.12,-132"/>
<text xml:space="preserve" text-anchor="middle" x="332" y="-118.5" font-family="Helvetica,sans-Serif" font-size="10.00">dsps_add.h</text>
</a>
</g>
</g>
<!-- Node1&#45;&gt;Node2 -->
<g id="edge1_Node000001_Node000002" class="edge">
<title>Node1&#45;&gt;Node2</title>
<g id="a_edge1_Node000001_Node000002"><a xlink:title=" ">
<path fill="none" stroke="#63b8ff" d="M295.66,-167.59C301.59,-160.32 309.99,-150.02 317.21,-141.15"/>
<polygon fill="#63b8ff" stroke="#63b8ff" points="319.86,-143.43 323.47,-133.47 314.44,-139.01 319.86,-143.43"/>
</a>
</g>
</g>
<!-- Node10 -->
<g id="Node000010" class="node">
<title>Node10</title>
<g id="a_Node000010"><a xlink:href="dsps__sub_8h.html" target="_top" xlink:title=" ">
<polygon fill="white" stroke="#666666" points="449.12,-132 382.88,-132 382.88,-112 449.12,-112 449.12,-132"/>
<text xml:space="preserve" text-anchor="middle" x="416" y="-118.5" font-family="Helvetica,sans-Serif" font-size="10.00">dsps_sub.h</text>
</a>
</g>
</g>
<!-- Node1&#45;&gt;Node10 -->
<g id="edge8_Node000001_Node000010" class="edge">
<title>Node1&#45;&gt;Node10</title>
<g id="a_edge8_Node000001_Node000010"><a xlink:title=" ">
<path fill="none" stroke="#63b8ff" d="M310.3,-167.59C330.36,-159.13 360.12,-146.58 382.95,-136.94"/>
<polygon fill="#63b8ff" stroke="#63b8ff" points="384.28,-140.18 392.14,-133.07 381.56,-133.73 384.28,-140.18"/>
</a>
</g>
</g>
<!-- Node12 -->
<g id="Node000012" class="node">
<title>Node12</title>
<g id="a_Node000012"><a xlink:href="dsps__mul_8h.html" target="_top" xlink:title=" ">
<polygon fill="white" stroke="#666666" points="533.12,-132 466.88,-132 466.88,-112 533.12,-112 533.12,-132"/>
<text xml:space="preserve" text-anchor="middle" x="500" y="-118.5" font-family="Helvetica,sans-Serif" font-size="10.00">dsps_mul.h</text>
</a>
</g>
</g>
<!-- Node1&#45;&gt;Node12 -->
<g id="edge12_Node000001_Node000012" class="edge">
<title>Node1&#45;&gt;Node12</title>
<g id="a_edge12_Node000001_Node000012"><a xlink:title=" ">
<path fill="none" stroke="#63b8ff" d="M324.44,-167.72C360.76,-158.47 416.57,-144.25 455.48,-134.34"/>
<polygon fill="#63b8ff" stroke="#63b8ff" points="456.18,-137.77 465.01,-131.91 454.45,-130.99 456.18,-137.77"/>
</a>
</g>
</g>
<!-- Node14 -->
<g id="Node000014" class="node">
<title>Node14</title>
<g id="a_Node000014"><a xlink:href="dsps__addc_8h.html" target="_top" xlink:title=" ">
<polygon fill="white" stroke="#666666" points="106.75,-132 35.25,-132 35.25,-112 106.75,-112 106.75,-132"/>
<text xml:space="preserve" text-anchor="middle" x="71" y="-118.5" font-family="Helvetica,sans-Serif" font-size="10.00">dsps_addc.h</text>
</a>
</g>
</g>
<!-- Node1&#45;&gt;Node14 -->
<g id="edge16_Node000001_Node000014" class="edge">
<title>Node1&#45;&gt;Node14</title>
<g id="a_edge16_Node000001_Node000014"><a xlink:title=" ">
<path fill="none" stroke="#63b8ff" d="M251.68,-167.96C215.03,-158.84 158.28,-144.72 118.18,-134.74"/>
<polygon fill="#63b8ff" stroke="#63b8ff" points="119.1,-131.36 108.55,-132.34 117.41,-138.15 119.1,-131.36"/>
</a>
</g>
</g>
<!-- Node16 -->
<g id="Node000016" class="node">
<title>Node16</title>
<g id="a_Node000016"><a xlink:href="dsps__mulc_8h.html" target="_top" xlink:title=" ">
<polygon fill="white" stroke="#666666" points="280.75,-132 209.25,-132 209.25,-112 280.75,-112 280.75,-132"/>
<text xml:space="preserve" text-anchor="middle" x="245" y="-118.5" font-family="Helvetica,sans-Serif" font-size="10.00">dsps_mulc.h</text>
</a>
</g>
</g>
<!-- Node1&#45;&gt;Node16 -->
<g id="edge20_Node000001_Node000016" class="edge">
<title>Node1&#45;&gt;Node16</title>
<g id="a_edge20_Node000001_Node000016"><a xlink:title=" ">
<path fill="none" stroke="#63b8ff" d="M280.51,-167.59C274.71,-160.32 266.51,-150.02 259.45,-141.15"/>
<polygon fill="#63b8ff" stroke="#63b8ff" points="262.31,-139.12 253.35,-133.48 256.84,-143.49 262.31,-139.12"/>
</a>
</g>
</g>
<!-- Node18 -->
<g id="Node000018" class="node">
<title>Node18</title>
<g id="a_Node000018"><a xlink:href="dsps__sqrt_8h.html" target="_top" xlink:title=" ">
<polygon fill="white" stroke="#666666" points="191.5,-132 124.5,-132 124.5,-112 191.5,-112 191.5,-132"/>
<text xml:space="preserve" text-anchor="middle" x="158" y="-118.5" font-family="Helvetica,sans-Serif" font-size="10.00">dsps_sqrt.h</text>
</a>
</g>
</g>
<!-- Node1&#45;&gt;Node18 -->
<g id="edge24_Node000001_Node000018" class="edge">
<title>Node1&#45;&gt;Node18</title>
<g id="a_edge24_Node000001_Node000018"><a xlink:title=" ">
<path fill="none" stroke="#63b8ff" d="M265.36,-167.59C244.88,-159.09 214.48,-146.46 191.25,-136.81"/>
<polygon fill="#63b8ff" stroke="#63b8ff" points="192.8,-133.66 182.22,-133.06 190.11,-140.13 192.8,-133.66"/>
</a>
</g>
</g>
<!-- Node3 -->
<g id="Node000003" class="node">
<title>Node3</title>
<g id="a_Node000003"><a xlink:href="dsp__err_8h.html" target="_top" xlink:title=" ">
<polygon fill="white" stroke="#666666" points="186.25,-76 129.75,-76 129.75,-56 186.25,-56 186.25,-76"/>
<text xml:space="preserve" text-anchor="middle" x="158" y="-62.5" font-family="Helvetica,sans-Serif" font-size="10.00">dsp_err.h</text>
</a>
</g>
</g>
<!-- Node2&#45;&gt;Node3 -->
<g id="edge2_Node000002_Node000003" class="edge">
<title>Node2&#45;&gt;Node3</title>
<g id="a_edge2_Node000002_Node000003"><a xlink:title=" ">
<path fill="none" stroke="#63b8ff" d="M301.69,-111.59C272.69,-102.59 228.8,-88.97 197.16,-79.15"/>
<polygon fill="#63b8ff" stroke="#63b8ff" points="198.55,-75.92 187.97,-76.3 196.48,-82.61 198.55,-75.92"/>
</a>
</g>
</g>
<!-- Node8 -->
<g id="Node000008" class="node">
<title>Node8</title>
<g id="a_Node000008"><a xlink:href="dsps__add__platform_8h.html" target="_top" xlink:title=" ">
<polygon fill="white" stroke="#666666" points="440.38,-76 333.62,-76 333.62,-56 440.38,-56 440.38,-76"/>
<text xml:space="preserve" text-anchor="middle" x="387" y="-62.5" font-family="Helvetica,sans-Serif" font-size="10.00">dsps_add_platform.h</text>
</a>
</g>
</g>
<!-- Node2&#45;&gt;Node8 -->
<g id="edge6_Node000002_Node000008" class="edge">
<title>Node2&#45;&gt;Node8</title>
<g id="a_edge6_Node000002_Node000008"><a xlink:title=" ">
<path fill="none" stroke="#63b8ff" d="M341.58,-111.59C349.23,-104.08 360.16,-93.35 369.38,-84.3"/>
<polygon fill="#63b8ff" stroke="#63b8ff" points="371.77,-86.86 376.45,-77.36 366.86,-81.87 371.77,-86.86"/>
</a>
</g>
</g>
<!-- Node4 -->
<g id="Node000004" class="node">
<title>Node4</title>
<g id="a_Node000004"><a xlink:title=" ">
<polygon fill="#e0e0e0" stroke="#999999" points="112.12,-20 63.88,-20 63.88,0 112.12,0 112.12,-20"/>
<text xml:space="preserve" text-anchor="middle" x="88" y="-6.5" font-family="Helvetica,sans-Serif" font-size="10.00">stdint.h</text>
</a>
</g>
</g>
<!-- Node3&#45;&gt;Node4 -->
<g id="edge3_Node000003_Node000004" class="edge">
<title>Node3&#45;&gt;Node4</title>
<g id="a_edge3_Node000003_Node000004"><a xlink:title=" ">
<path fill="none" stroke="#63b8ff" d="M145.81,-55.59C135.67,-47.77 121.01,-36.46 108.99,-27.19"/>
<polygon fill="#63b8ff" stroke="#63b8ff" points="111.31,-24.56 101.25,-21.22 107.03,-30.1 111.31,-24.56"/>
</a>
</g>
</g>
<!-- Node5 -->
<g id="Node000005" class="node">
<title>Node5</title>
<g id="a_Node000005"><a xlink:href="esp__err_8h.html" target="_top" xlink:title=" ">
<polygon fill="#fff0f0" stroke="red" points="186.25,-20 129.75,-20 129.75,0 186.25,0 186.25,-20"/>
<text xml:space="preserve" text-anchor="middle" x="158" y="-6.5" font-family="Helvetica,sans-Serif" font-size="10.00">esp_err.h</text>
</a>
</g>
</g>
<!-- Node3&#45;&gt;Node5 -->
<g id="edge4_Node000003_Node000005" class="edge">
<title>Node3&#45;&gt;Node5</title>
<g id="a_edge4_Node000003_Node000005"><a xlink:title=" ">
<path fill="none" stroke="#63b8ff" d="M158,-55.59C158,-49.01 158,-39.96 158,-31.73"/>
<polygon fill="#63b8ff" stroke="#63b8ff" points="161.5,-31.81 158,-21.81 154.5,-31.81 161.5,-31.81"/>
</a>
</g>
</g>
<!-- Node7 -->
<g id="Node000007" class="node">
<title>Node7</title>
<g id="a_Node000007"><a xlink:href="dsp__err__codes_8h.html" target="_top" xlink:title=" ">
<polygon fill="white" stroke="#666666" points="292,-20 204,-20 204,0 292,0 292,-20"/>
<text xml:space="preserve" text-anchor="middle" x="248" y="-6.5" font-family="Helvetica,sans-Serif" font-size="10.00">dsp_err_codes.h</text>
</a>
</g>
</g>
<!-- Node3&#45;&gt;Node7 -->
<g id="edge5_Node000003_Node000007" class="edge">
<title>Node3&#45;&gt;Node7</title>
<g id="a_edge5_Node000003_Node000007"><a xlink:title=" ">
<path fill="none" stroke="#63b8ff" d="M173.68,-55.59C187.14,-47.51 206.82,-35.71 222.54,-26.27"/>
<polygon fill="#63b8ff" stroke="#63b8ff" points="224.13,-29.4 230.9,-21.26 220.53,-23.4 224.13,-29.4"/>
</a>
</g>
</g>
<!-- Node9 -->
<g id="Node000009" class="node">
<title>Node9</title>
<g id="a_Node000009"><a xlink:title=" ">
<polygon fill="#e0e0e0" stroke="#999999" points="420.12,-20 353.88,-20 353.88,0 420.12,0 420.12,-20"/>
<text xml:space="preserve" text-anchor="middle" x="387" y="-6.5" font-family="Helvetica,sans-Serif" font-size="10.00">sdkconfig.h</text>
</a>
</g>
</g>
<!-- Node8&#45;&gt;Node9 -->
<g id="edge7_Node000008_Node000009" class="edge">
<title>Node8&#45;&gt;Node9</title>
<g id="a_edge7_Node000008_Node000009"><a xlink:title=" ">
<path fill="none" stroke="#63b8ff" d="M387,-55.59C387,-49.01 387,-39.96 387,-31.73"/>
<polygon fill="#63b8ff" stroke="#63b8ff" points="390.5,-31.81 387,-21.81 383.5,-31.81 390.5,-31.81"/>
</a>
</g>
</g>
<!-- Node10&#45;&gt;Node3 -->
<g id="edge9_Node000010_Node000003" class="edge">
<title>Node10&#45;&gt;Node3</title>
<g id="a_edge9_Node000010_Node000003"><a xlink:title=" ">
<path fill="none" stroke="#63b8ff" d="M382.54,-113.79C379.65,-113.18 376.77,-112.58 374,-112 297.96,-96.21 276.07,-93.78 197.58,-76.51"/>
<polygon fill="#63b8ff" stroke="#63b8ff" points="198.65,-73.16 188.13,-74.42 197.14,-80 198.65,-73.16"/>
</a>
</g>
</g>
<!-- Node11 -->
<g id="Node000011" class="node">
<title>Node11</title>
<g id="a_Node000011"><a xlink:href="dsps__sub__platform_8h.html" target="_top" xlink:title=" ">
<polygon fill="white" stroke="#666666" points="565.38,-76 458.62,-76 458.62,-56 565.38,-56 565.38,-76"/>
<text xml:space="preserve" text-anchor="middle" x="512" y="-62.5" font-family="Helvetica,sans-Serif" font-size="10.00">dsps_sub_platform.h</text>
</a>
</g>
</g>
<!-- Node10&#45;&gt;Node11 -->
<g id="edge10_Node000010_Node000011" class="edge">
<title>Node10&#45;&gt;Node11</title>
<g id="a_edge10_Node000010_Node000011"><a xlink:title=" ">
<path fill="none" stroke="#63b8ff" d="M432.72,-111.59C447.22,-103.44 468.47,-91.48 485.32,-82"/>
<polygon fill="#63b8ff" stroke="#63b8ff" points="486.83,-85.17 493.83,-77.22 483.4,-79.07 486.83,-85.17"/>
</a>
</g>
</g>
<!-- Node11&#45;&gt;Node9 -->
<g id="edge11_Node000011_Node000009" class="edge">
<title>Node11&#45;&gt;Node9</title>
<g id="a_edge11_Node000011_Node000009"><a xlink:title=" ">
<path fill="none" stroke="#63b8ff" d="M490.23,-55.59C470.63,-47.13 441.57,-34.58 419.28,-24.94"/>
<polygon fill="#63b8ff" stroke="#63b8ff" points="420.9,-21.83 410.33,-21.08 418.12,-28.26 420.9,-21.83"/>
</a>
</g>
</g>
<!-- Node12&#45;&gt;Node3 -->
<g id="edge13_Node000012_Node000003" class="edge">
<title>Node12&#45;&gt;Node3</title>
<g id="a_edge13_Node000012_Node000003"><a xlink:title=" ">
<path fill="none" stroke="#63b8ff" d="M466.57,-113.6C463.68,-113.03 460.79,-112.49 458,-112 345.31,-92.24 312.86,-97.61 197.66,-76.34"/>
<polygon fill="#63b8ff" stroke="#63b8ff" points="198.58,-72.95 188.11,-74.55 197.29,-79.83 198.58,-72.95"/>
</a>
</g>
</g>
<!-- Node13 -->
<g id="Node000013" class="node">
<title>Node13</title>
<g id="a_Node000013"><a xlink:href="dsps__mul__platform_8h.html" target="_top" xlink:title=" ">
<polygon fill="white" stroke="#666666" points="690.38,-76 583.62,-76 583.62,-56 690.38,-56 690.38,-76"/>
<text xml:space="preserve" text-anchor="middle" x="637" y="-62.5" font-family="Helvetica,sans-Serif" font-size="10.00">dsps_mul_platform.h</text>
</a>
</g>
</g>
<!-- Node12&#45;&gt;Node13 -->
<g id="edge14_Node000012_Node000013" class="edge">
<title>Node12&#45;&gt;Node13</title>
<g id="a_edge14_Node000012_Node000013"><a xlink:title=" ">
<path fill="none" stroke="#63b8ff" d="M523.86,-111.59C545.54,-103.05 577.77,-90.35 602.29,-80.68"/>
<polygon fill="#63b8ff" stroke="#63b8ff" points="603.52,-83.96 611.54,-77.03 600.96,-77.45 603.52,-83.96"/>
</a>
</g>
</g>
<!-- Node13&#45;&gt;Node9 -->
<g id="edge15_Node000013_Node000009" class="edge">
<title>Node13&#45;&gt;Node9</title>
<g id="a_edge15_Node000013_Node000009"><a xlink:title=" ">
<path fill="none" stroke="#63b8ff" d="M593.17,-55.53C547.73,-45.72 477.07,-30.46 431.41,-20.59"/>
<polygon fill="#63b8ff" stroke="#63b8ff" points="432.37,-17.22 421.86,-18.53 430.89,-24.06 432.37,-17.22"/>
</a>
</g>
</g>
<!-- Node14&#45;&gt;Node3 -->
<g id="edge17_Node000014_Node000003" class="edge">
<title>Node14&#45;&gt;Node3</title>
<g id="a_edge17_Node000014_Node000003"><a xlink:title=" ">
<path fill="none" stroke="#63b8ff" d="M86.15,-111.59C99.05,-103.59 117.83,-91.93 132.96,-82.54"/>
<polygon fill="#63b8ff" stroke="#63b8ff" points="134.79,-85.53 141.44,-77.28 131.1,-79.58 134.79,-85.53"/>
</a>
</g>
</g>
<!-- Node15 -->
<g id="Node000015" class="node">
<title>Node15</title>
<g id="a_Node000015"><a xlink:href="dsps__addc__platform_8h.html" target="_top" xlink:title=" ">
<polygon fill="white" stroke="#666666" points="112,-76 0,-76 0,-56 112,-56 112,-76"/>
<text xml:space="preserve" text-anchor="middle" x="56" y="-62.5" font-family="Helvetica,sans-Serif" font-size="10.00">dsps_addc_platform.h</text>
</a>
</g>
</g>
<!-- Node14&#45;&gt;Node15 -->
<g id="edge18_Node000014_Node000015" class="edge">
<title>Node14&#45;&gt;Node15</title>
<g id="a_edge18_Node000014_Node000015"><a xlink:title=" ">
<path fill="none" stroke="#63b8ff" d="M68.39,-111.59C66.52,-104.86 63.93,-95.53 61.6,-87.15"/>
<polygon fill="#63b8ff" stroke="#63b8ff" points="65.04,-86.46 58.99,-77.76 58.29,-88.33 65.04,-86.46"/>
</a>
</g>
</g>
<!-- Node15&#45;&gt;Node9 -->
<g id="edge19_Node000015_Node000009" class="edge">
<title>Node15&#45;&gt;Node9</title>
<g id="a_edge19_Node000015_Node000009"><a xlink:title=" ">
<path fill="none" stroke="#63b8ff" d="M112.15,-55.84C177.17,-45.23 282.94,-27.98 342.53,-18.26"/>
<polygon fill="#63b8ff" stroke="#63b8ff" points="343,-21.72 352.31,-16.66 341.88,-14.82 343,-21.72"/>
</a>
</g>
</g>
<!-- Node16&#45;&gt;Node3 -->
<g id="edge21_Node000016_Node000003" class="edge">
<title>Node16&#45;&gt;Node3</title>
<g id="a_edge21_Node000016_Node000003"><a xlink:title=" ">
<path fill="none" stroke="#63b8ff" d="M229.85,-111.59C216.95,-103.59 198.17,-91.93 183.04,-82.54"/>
<polygon fill="#63b8ff" stroke="#63b8ff" points="184.9,-79.58 174.56,-77.28 181.21,-85.53 184.9,-79.58"/>
</a>
</g>
</g>
<!-- Node17 -->
<g id="Node000017" class="node">
<title>Node17</title>
<g id="a_Node000017"><a xlink:href="dsps__mulc__platform_8h.html" target="_top" xlink:title=" ">
<polygon fill="white" stroke="#666666" points="316,-76 204,-76 204,-56 316,-56 316,-76"/>
<text xml:space="preserve" text-anchor="middle" x="260" y="-62.5" font-family="Helvetica,sans-Serif" font-size="10.00">dsps_mulc_platform.h</text>
</a>
</g>
</g>
<!-- Node16&#45;&gt;Node17 -->
<g id="edge22_Node000016_Node000017" class="edge">
<title>Node16&#45;&gt;Node17</title>
<g id="a_edge22_Node000016_Node000017"><a xlink:title=" ">
<path fill="none" stroke="#63b8ff" d="M247.61,-111.59C249.48,-104.86 252.07,-95.53 254.4,-87.15"/>
<polygon fill="#63b8ff" stroke="#63b8ff" points="257.71,-88.33 257.01,-77.76 250.96,-86.46 257.71,-88.33"/>
</a>
</g>
</g>
<!-- Node17&#45;&gt;Node9 -->
<g id="edge23_Node000017_Node000009" class="edge">
<title>Node17&#45;&gt;Node9</title>
<g id="a_edge23_Node000017_Node000009"><a xlink:title=" ">
<path fill="none" stroke="#63b8ff" d="M282.12,-55.59C302.03,-47.13 331.55,-34.58 354.21,-24.94"/>
<polygon fill="#63b8ff" stroke="#63b8ff" points="355.48,-28.21 363.31,-21.07 352.74,-21.76 355.48,-28.21"/>
</a>
</g>
</g>
<!-- Node18&#45;&gt;Node3 -->
<g id="edge25_Node000018_Node000003" class="edge">
<title>Node18&#45;&gt;Node3</title>
<g id="a_edge25_Node000018_Node000003"><a xlink:title=" ">
<path fill="none" stroke="#63b8ff" d="M158,-111.59C158,-105.01 158,-95.96 158,-87.73"/>
<polygon fill="#63b8ff" stroke="#63b8ff" points="161.5,-87.81 158,-77.81 154.5,-87.81 161.5,-87.81"/>
</a>
</g>
</g>
</g>
</svg>
