<?xml version="1.0" encoding="UTF-8" standalone="no"?>
<!DOCTYPE svg PUBLIC "-//W3C//DTD SVG 1.1//EN"
 "http://www.w3.org/Graphics/SVG/1.1/DTD/svg11.dtd">
<!-- Generated by graphviz version 14.1.2 (20260124.0452)
 -->
<!-- Title: dsps_math.h Pages: 1 -->
<svg width="2762pt" height="196pt"
 viewBox="0.00 0.00 2762.00 196.00" xmlns="http://www.w3.org/2000/svg" xmlns:xlink="http://www.w3.org/1999/xlink">
<g id="graph0" class="graph" transform="scale(1 1) rotate(0) translate(4 192)">
<title>dsps_math.h</title>
<!-- Node1 -->
<g id="Node000001" class="node">
<title>Node1</title>
<g id="a_Node000001"><a xlink:title=" ">
<polygon fill="#999999" stroke="#666666" points="1572.38,-188 1500.12,-188 1500.12,-168 1572.38,-168 1572.38,-188"/>
<text xml:space="preserve" text-anchor="middle" x="1536.25" y="-174.5" font-family="Helvetica,sans-Serif" font-size="10.00">dsps_math.h</text>
</a>
</g>
</g>
<!-- Node2 -->
<g id="Node000002" class="node">
<title>Node2</title>
<g id="a_Node000002"><a xlink:href="esp__dsp_8h.html" target="_top" xlink:title=" ">
<polygon fill="white" stroke="#666666" points="1529.75,-132 1468.75,-132 1468.75,-112 1529.75,-112 1529.75,-132"/>
<text xml:space="preserve" text-anchor="middle" x="1499.25" y="-118.5" font-family="Helvetica,sans-Serif" font-size="10.00">esp_dsp.h</text>
</a>
</g>
</g>
<!-- Node1&#45;&gt;Node2 -->
<g id="edge1_Node000001_Node000002" class="edge">
<title>Node1&#45;&gt;Node2</title>
<g id="a_edge1_Node000001_Node000002"><a xlink:title=" ">
<path fill="none" stroke="#63b8ff" d="M1523.34,-158.15C1517.34,-149.4 1510.48,-139.39 1505.62,-132.3"/>
<polygon fill="#63b8ff" stroke="#63b8ff" points="1520.41,-160.07 1528.95,-166.35 1526.18,-156.12 1520.41,-160.07"/>
</a>
</g>
</g>
<!-- Node36 -->
<g id="Node000036" class="node">
<title>Node36</title>
<g id="a_Node000036"><a xlink:href="mat_8cpp.html" target="_top" xlink:title=" ">
<polygon fill="white" stroke="#666666" points="1598.88,-132 1547.62,-132 1547.62,-112 1598.88,-112 1598.88,-132"/>
<text xml:space="preserve" text-anchor="middle" x="1573.25" y="-118.5" font-family="Helvetica,sans-Serif" font-size="10.00">mat.cpp</text>
</a>
</g>
</g>
<!-- Node1&#45;&gt;Node36 -->
<g id="edge35_Node000001_Node000036" class="edge">
<title>Node1&#45;&gt;Node36</title>
<g id="a_edge35_Node000001_Node000036"><a xlink:title=" ">
<path fill="none" stroke="#63b8ff" d="M1549.16,-158.15C1555.16,-149.4 1562.02,-139.39 1566.88,-132.3"/>
<polygon fill="#63b8ff" stroke="#63b8ff" points="1546.32,-156.12 1543.55,-166.35 1552.09,-160.07 1546.32,-156.12"/>
</a>
</g>
</g>
<!-- Node3 -->
<g id="Node000003" class="node">
<title>Node3</title>
<g id="a_Node000003"><a xlink:href="applications_2azure__board__apps_2apps_23d__graphics_2main_23d__graphics__demo_8cpp.html" target="_top" xlink:title=" ">
<polygon fill="white" stroke="#666666" points="116.5,-76 0,-76 0,-56 116.5,-56 116.5,-76"/>
<text xml:space="preserve" text-anchor="middle" x="58.25" y="-62.5" font-family="Helvetica,sans-Serif" font-size="10.00">3d_graphics_demo.cpp</text>
</a>
</g>
</g>
<!-- Node2&#45;&gt;Node3 -->
<g id="edge2_Node000002_Node000003" class="edge">
<title>Node2&#45;&gt;Node3</title>
<g id="a_edge2_Node000002_Node000003"><a xlink:title=" ">
<path fill="none" stroke="#63b8ff" d="M1456.95,-121.14C1288.56,-121.35 649.68,-119.11 126.25,-76 123.16,-75.75 120,-75.45 116.82,-75.12"/>
<polygon fill="#63b8ff" stroke="#63b8ff" points="1456.74,-124.64 1466.74,-121.12 1456.73,-117.64 1456.74,-124.64"/>
</a>
</g>
</g>
<!-- Node4 -->
<g id="Node000004" class="node">
<title>Node4</title>
<g id="a_Node000004"><a xlink:href="applications_2m5stack__core__s3_2apps_23d__graphics_2main_23d__graphics__demo_8cpp.html" target="_top" xlink:title=" ">
<polygon fill="white" stroke="#666666" points="251.5,-76 135,-76 135,-56 251.5,-56 251.5,-76"/>
<text xml:space="preserve" text-anchor="middle" x="193.25" y="-62.5" font-family="Helvetica,sans-Serif" font-size="10.00">3d_graphics_demo.cpp</text>
</a>
</g>
</g>
<!-- Node2&#45;&gt;Node4 -->
<g id="edge3_Node000002_Node000004" class="edge">
<title>Node2&#45;&gt;Node4</title>
<g id="a_edge3_Node000002_Node000004"><a xlink:title=" ">
<path fill="none" stroke="#63b8ff" d="M1457.08,-120.92C1299.33,-120.32 729.13,-115.38 261.25,-76 258.16,-75.74 255,-75.44 251.82,-75.11"/>
<polygon fill="#63b8ff" stroke="#63b8ff" points="1457.03,-124.42 1467.04,-120.96 1457.06,-117.42 1457.03,-124.42"/>
</a>
</g>
</g>
<!-- Node5 -->
<g id="Node000005" class="node">
<title>Node5</title>
<g id="a_Node000005"><a xlink:href="external__examples_2b00f000e_2applications_2azure__board__apps_2apps_23d__graphics_2main_23d__graphics__demo_8cpp.html" target="_top" xlink:title=" ">
<polygon fill="white" stroke="#666666" points="386.5,-76 270,-76 270,-56 386.5,-56 386.5,-76"/>
<text xml:space="preserve" text-anchor="middle" x="328.25" y="-62.5" font-family="Helvetica,sans-Serif" font-size="10.00">3d_graphics_demo.cpp</text>
</a>
</g>
</g>
<!-- Node2&#45;&gt;Node5 -->
<g id="edge4_Node000002_Node000005" class="edge">
<title>Node2&#45;&gt;Node5</title>
<g id="a_edge4_Node000002_Node000005"><a xlink:title=" ">
<path fill="none" stroke="#63b8ff" d="M1457.38,-120.66C1311.06,-119.18 808.96,-111.66 396.25,-76 393.17,-75.73 390.01,-75.43 386.82,-75.09"/>
<polygon fill="#63b8ff" stroke="#63b8ff" points="1456.93,-124.16 1466.97,-120.75 1457,-117.16 1456.93,-124.16"/>
</a>
</g>
</g>
<!-- Node6 -->
<g id="Node000006" class="node">
<title>Node6</title>
<g id="a_Node000006"><a xlink:href="external__examples_2b00f000e_2applications_2m5stack__core__s3_2apps_23d__graphics_2main_23d__graphics__demo_8cpp.html" target="_top" xlink:title=" ">
<polygon fill="white" stroke="#666666" points="521.5,-76 405,-76 405,-56 521.5,-56 521.5,-76"/>
<text xml:space="preserve" text-anchor="middle" x="463.25" y="-62.5" font-family="Helvetica,sans-Serif" font-size="10.00">3d_graphics_demo.cpp</text>
</a>
</g>
</g>
<!-- Node2&#45;&gt;Node6 -->
<g id="edge5_Node000002_Node000006" class="edge">
<title>Node2&#45;&gt;Node6</title>
<g id="a_edge5_Node000002_Node000006"><a xlink:title=" ">
<path fill="none" stroke="#63b8ff" d="M1456.84,-120.32C1321.56,-117.86 888.29,-107.87 531.25,-76 528.17,-75.72 525.01,-75.41 521.82,-75.07"/>
<polygon fill="#63b8ff" stroke="#63b8ff" points="1456.69,-123.81 1466.75,-120.49 1456.81,-116.82 1456.69,-123.81"/>
</a>
</g>
</g>
<!-- Node7 -->
<g id="Node000007" class="node">
<title>Node7</title>
<g id="a_Node000007"><a xlink:href="external__examples_2d1468452_2apps_23d__graphics_2main_23d__graphics__demo_8cpp.html" target="_top" xlink:title=" ">
<polygon fill="white" stroke="#666666" points="656.5,-76 540,-76 540,-56 656.5,-56 656.5,-76"/>
<text xml:space="preserve" text-anchor="middle" x="598.25" y="-62.5" font-family="Helvetica,sans-Serif" font-size="10.00">3d_graphics_demo.cpp</text>
</a>
</g>
</g>
<!-- Node2&#45;&gt;Node7 -->
<g id="edge6_Node000002_Node000007" class="edge">
<title>Node2&#45;&gt;Node7</title>
<g id="a_edge6_Node000002_Node000007"><a xlink:title=" ">
<path fill="none" stroke="#63b8ff" d="M1457.15,-119.88C1334.8,-116.38 968.74,-104.15 666.25,-76 663.17,-75.71 660.01,-75.39 656.82,-75.05"/>
<polygon fill="#63b8ff" stroke="#63b8ff" points="1456.95,-123.38 1467.04,-120.16 1457.14,-116.38 1456.95,-123.38"/>
</a>
</g>
</g>
<!-- Node8 -->
<g id="Node000008" class="node">
<title>Node8</title>
<g id="a_Node000008"><a xlink:href="external__examples_2f9c2d4b3_2azure__board__apps_2apps_23d__graphics_2main_23d__graphics__demo_8cpp.html" target="_top" xlink:title=" ">
<polygon fill="white" stroke="#666666" points="791.5,-76 675,-76 675,-56 791.5,-56 791.5,-76"/>
<text xml:space="preserve" text-anchor="middle" x="733.25" y="-62.5" font-family="Helvetica,sans-Serif" font-size="10.00">3d_graphics_demo.cpp</text>
</a>
</g>
</g>
<!-- Node2&#45;&gt;Node8 -->
<g id="edge7_Node000002_Node000008" class="edge">
<title>Node2&#45;&gt;Node8</title>
<g id="a_edge7_Node000002_Node000008"><a xlink:title=" ">
<path fill="none" stroke="#63b8ff" d="M1457.1,-119.31C1348.21,-114.71 1048.69,-100.65 800.25,-76 797.45,-75.72 794.58,-75.42 791.69,-75.09"/>
<polygon fill="#63b8ff" stroke="#63b8ff" points="1456.88,-122.8 1467.02,-119.72 1457.17,-115.81 1456.88,-122.8"/>
</a>
</g>
</g>
<!-- Node9 -->
<g id="Node000009" class="node">
<title>Node9</title>
<g id="a_Node000009"><a xlink:href="applications_2m5stack__core__s3_2apps_2kalman__filter_2main_23d__kalman__demo_8cpp.html" target="_top" xlink:title=" ">
<polygon fill="white" stroke="#666666" points="920.88,-76 809.62,-76 809.62,-56 920.88,-56 920.88,-76"/>
<text xml:space="preserve" text-anchor="middle" x="865.25" y="-62.5" font-family="Helvetica,sans-Serif" font-size="10.00">3d_kalman_demo.cpp</text>
</a>
</g>
</g>
<!-- Node2&#45;&gt;Node9 -->
<g id="edge8_Node000002_Node000009" class="edge">
<title>Node2&#45;&gt;Node9</title>
<g id="a_edge8_Node000002_Node000009"><a xlink:title=" ">
<path fill="none" stroke="#63b8ff" d="M1456.93,-118.54C1362.23,-112.85 1126.07,-97.59 929.25,-76 926.57,-75.71 923.84,-75.39 921.07,-75.05"/>
<polygon fill="#63b8ff" stroke="#63b8ff" points="1456.59,-122.03 1466.78,-119.13 1457.01,-115.04 1456.59,-122.03"/>
</a>
</g>
</g>
<!-- Node10 -->
<g id="Node000010" class="node">
<title>Node10</title>
<g id="a_Node000010"><a xlink:href="external__examples_2b00f000e_2applications_2m5stack__core__s3_2apps_2kalman__filter_2main_23d__kalman__demo_8cpp.html" target="_top" xlink:title=" ">
<polygon fill="white" stroke="#666666" points="1049.88,-76 938.62,-76 938.62,-56 1049.88,-56 1049.88,-76"/>
<text xml:space="preserve" text-anchor="middle" x="994.25" y="-62.5" font-family="Helvetica,sans-Serif" font-size="10.00">3d_kalman_demo.cpp</text>
</a>
</g>
</g>
<!-- Node2&#45;&gt;Node10 -->
<g id="edge9_Node000002_Node000010" class="edge">
<title>Node2&#45;&gt;Node10</title>
<g id="a_edge9_Node000002_Node000010"><a xlink:title=" ">
<path fill="none" stroke="#63b8ff" d="M1456.95,-117.18C1378.46,-109.98 1205,-93.54 1059.25,-76 1056.31,-75.65 1053.3,-75.27 1050.25,-74.88"/>
<polygon fill="#63b8ff" stroke="#63b8ff" points="1456.48,-120.65 1466.76,-118.08 1457.12,-113.68 1456.48,-120.65"/>
</a>
</g>
</g>
<!-- Node11 -->
<g id="Node000011" class="node">
<title>Node11</title>
<g id="a_Node000011"><a xlink:href="applications_2lyrat__board__app_2main_2audio__amp__main_8c.html" target="_top" xlink:title=" ">
<polygon fill="white" stroke="#666666" points="1166.12,-76 1068.38,-76 1068.38,-56 1166.12,-56 1166.12,-76"/>
<text xml:space="preserve" text-anchor="middle" x="1117.25" y="-62.5" font-family="Helvetica,sans-Serif" font-size="10.00">audio_amp_main.c</text>
</a>
</g>
</g>
<!-- Node2&#45;&gt;Node11 -->
<g id="edge10_Node000002_Node000011" class="edge">
<title>Node2&#45;&gt;Node11</title>
<g id="a_edge10_Node000002_Node000011"><a xlink:title=" ">
<path fill="none" stroke="#63b8ff" d="M1457.18,-115.37C1395.35,-107.06 1276.33,-90.86 1175.25,-76 1172.43,-75.58 1169.53,-75.15 1166.6,-74.71"/>
<polygon fill="#63b8ff" stroke="#63b8ff" points="1456.52,-118.82 1466.9,-116.68 1457.46,-111.88 1456.52,-118.82"/>
</a>
</g>
</g>
<!-- Node12 -->
<g id="Node000012" class="node">
<title>Node12</title>
<g id="a_Node000012"><a xlink:href="external__examples_21fa4e38f_2lyrat__board__app_2main_2audio__amp__main_8c.html" target="_top" xlink:title=" ">
<polygon fill="white" stroke="#666666" points="1282.12,-76 1184.38,-76 1184.38,-56 1282.12,-56 1282.12,-76"/>
<text xml:space="preserve" text-anchor="middle" x="1233.25" y="-62.5" font-family="Helvetica,sans-Serif" font-size="10.00">audio_amp_main.c</text>
</a>
</g>
</g>
<!-- Node2&#45;&gt;Node12 -->
<g id="edge11_Node000002_Node000012" class="edge">
<title>Node2&#45;&gt;Node12</title>
<g id="a_edge11_Node000002_Node000012"><a xlink:title=" ">
<path fill="none" stroke="#63b8ff" d="M1457.5,-112.52C1409.23,-102.72 1330,-86.64 1279.79,-76.45"/>
<polygon fill="#63b8ff" stroke="#63b8ff" points="1456.5,-115.89 1466.99,-114.45 1457.89,-109.03 1456.5,-115.89"/>
</a>
</g>
</g>
<!-- Node13 -->
<g id="Node000013" class="node">
<title>Node13</title>
<g id="a_Node000013"><a xlink:href="external__examples_2b00f000e_2applications_2lyrat__board__app_2main_2audio__amp__main_8c.html" target="_top" xlink:title=" ">
<polygon fill="white" stroke="#666666" points="1398.12,-76 1300.38,-76 1300.38,-56 1398.12,-56 1398.12,-76"/>
<text xml:space="preserve" text-anchor="middle" x="1349.25" y="-62.5" font-family="Helvetica,sans-Serif" font-size="10.00">audio_amp_main.c</text>
</a>
</g>
</g>
<!-- Node2&#45;&gt;Node13 -->
<g id="edge12_Node000002_Node000013" class="edge">
<title>Node2&#45;&gt;Node13</title>
<g id="a_edge12_Node000002_Node000013"><a xlink:title=" ">
<path fill="none" stroke="#63b8ff" d="M1462.56,-107.79C1435.63,-98.1 1399.7,-85.16 1375.58,-76.48"/>
<polygon fill="#63b8ff" stroke="#63b8ff" points="1461.1,-110.99 1471.7,-111.08 1463.47,-104.4 1461.1,-110.99"/>
</a>
</g>
</g>
<!-- Node14 -->
<g id="Node000014" class="node">
<title>Node14</title>
<g id="a_Node000014"><a xlink:href="dsp__tests_8h.html" target="_top" xlink:title=" ">
<polygon fill="white" stroke="#666666" points="1482.75,-76 1415.75,-76 1415.75,-56 1482.75,-56 1482.75,-76"/>
<text xml:space="preserve" text-anchor="middle" x="1449.25" y="-62.5" font-family="Helvetica,sans-Serif" font-size="10.00">dsp_tests.h</text>
</a>
</g>
</g>
<!-- Node2&#45;&gt;Node14 -->
<g id="edge13_Node000002_Node000014" class="edge">
<title>Node2&#45;&gt;Node14</title>
<g id="a_edge13_Node000002_Node000014"><a xlink:title=" ">
<path fill="none" stroke="#63b8ff" d="M1482.85,-103.29C1474.51,-94.28 1464.71,-83.7 1457.86,-76.3"/>
<polygon fill="#63b8ff" stroke="#63b8ff" points="1480.15,-105.52 1489.51,-110.48 1485.29,-100.77 1480.15,-105.52"/>
</a>
</g>
</g>
<!-- Node21 -->
<g id="Node000021" class="node">
<title>Node21</title>
<g id="a_Node000021"><a xlink:href="applications_2azure__board__apps_2graphics_23d__matrix_23d__matrix__src_2graphics__support_8h.html" target="_top" xlink:title=" ">
<polygon fill="white" stroke="#666666" points="1599.5,-76 1501,-76 1501,-56 1599.5,-56 1599.5,-76"/>
<text xml:space="preserve" text-anchor="middle" x="1550.25" y="-62.5" font-family="Helvetica,sans-Serif" font-size="10.00">graphics_support.h</text>
</a>
</g>
</g>
<!-- Node2&#45;&gt;Node21 -->
<g id="edge20_Node000002_Node000021" class="edge">
<title>Node2&#45;&gt;Node21</title>
<g id="a_edge20_Node000002_Node000021"><a xlink:title=" ">
<path fill="none" stroke="#63b8ff" d="M1515.98,-103.29C1524.49,-94.28 1534.48,-83.7 1541.47,-76.3"/>
<polygon fill="#63b8ff" stroke="#63b8ff" points="1513.49,-100.82 1509.17,-110.49 1518.58,-105.63 1513.49,-100.82"/>
</a>
</g>
</g>
<!-- Node23 -->
<g id="Node000023" class="node">
<title>Node23</title>
<g id="a_Node000023"><a xlink:href="external__examples_2b00f000e_2applications_2azure__board__apps_2graphics_23d__matrix_23d__matrix__src_2graphics__support_8h.html" target="_top" xlink:title=" ">
<polygon fill="white" stroke="#666666" points="1716.5,-76 1618,-76 1618,-56 1716.5,-56 1716.5,-76"/>
<text xml:space="preserve" text-anchor="middle" x="1667.25" y="-62.5" font-family="Helvetica,sans-Serif" font-size="10.00">graphics_support.h</text>
</a>
</g>
</g>
<!-- Node2&#45;&gt;Node23 -->
<g id="edge22_Node000002_Node000023" class="edge">
<title>Node2&#45;&gt;Node23</title>
<g id="a_edge22_Node000002_Node000023"><a xlink:title=" ">
<path fill="none" stroke="#63b8ff" d="M1539.14,-108.18C1569.43,-98.44 1610.39,-85.28 1637.76,-76.48"/>
<polygon fill="#63b8ff" stroke="#63b8ff" points="1538.4,-104.74 1529.95,-111.13 1540.55,-111.4 1538.4,-104.74"/>
</a>
</g>
</g>
<!-- Node25 -->
<g id="Node000025" class="node">
<title>Node25</title>
<g id="a_Node000025"><a xlink:href="external__examples_2f9c2d4b3_2azure__board__apps_2graphics_23d__matrix_23d__matrix__src_2graphics__support_8h.html" target="_top" xlink:title=" ">
<polygon fill="white" stroke="#666666" points="1833.5,-76 1735,-76 1735,-56 1833.5,-56 1833.5,-76"/>
<text xml:space="preserve" text-anchor="middle" x="1784.25" y="-62.5" font-family="Helvetica,sans-Serif" font-size="10.00">graphics_support.h</text>
</a>
</g>
</g>
<!-- Node2&#45;&gt;Node25 -->
<g id="edge24_Node000002_Node000025" class="edge">
<title>Node2&#45;&gt;Node25</title>
<g id="a_edge24_Node000002_Node000025"><a xlink:title=" ">
<path fill="none" stroke="#63b8ff" d="M1541.05,-111.49C1613.69,-96.62 1687.3,-83.54 1734.65,-75.39"/>
<polygon fill="#63b8ff" stroke="#63b8ff" points="1540.45,-108.04 1531.36,-113.49 1541.86,-114.9 1540.45,-108.04"/>
</a>
</g>
</g>
<!-- Node27 -->
<g id="Node000027" class="node">
<title>Node27</title>
<g id="a_Node000027"><a xlink:href="applications_2m5stack__core__s3_2apps_23d__graphics_2main_2init__display_8c.html" target="_top" xlink:title=" ">
<polygon fill="white" stroke="#666666" points="1923.38,-76 1851.12,-76 1851.12,-56 1923.38,-56 1923.38,-76"/>
<text xml:space="preserve" text-anchor="middle" x="1887.25" y="-62.5" font-family="Helvetica,sans-Serif" font-size="10.00">init_display.c</text>
</a>
</g>
</g>
<!-- Node2&#45;&gt;Node27 -->
<g id="edge26_Node000002_Node000027" class="edge">
<title>Node2&#45;&gt;Node27</title>
<g id="a_edge26_Node000002_Node000027"><a xlink:title=" ">
<path fill="none" stroke="#63b8ff" d="M1540.89,-111.7C1674.24,-89.11 1711.42,-96.8 1842.25,-76 1845.08,-75.55 1848.01,-75.05 1850.95,-74.52"/>
<polygon fill="#63b8ff" stroke="#63b8ff" points="1540.59,-108.2 1531.33,-113.35 1541.78,-115.1 1540.59,-108.2"/>
</a>
</g>
</g>
<!-- Node28 -->
<g id="Node000028" class="node">
<title>Node28</title>
<g id="a_Node000028"><a xlink:href="external__examples_2b00f000e_2applications_2m5stack__core__s3_2apps_23d__graphics_2main_2init__display_8c.html" target="_top" xlink:title=" ">
<polygon fill="white" stroke="#666666" points="2013.38,-76 1941.12,-76 1941.12,-56 2013.38,-56 2013.38,-76"/>
<text xml:space="preserve" text-anchor="middle" x="1977.25" y="-62.5" font-family="Helvetica,sans-Serif" font-size="10.00">init_display.c</text>
</a>
</g>
</g>
<!-- Node2&#45;&gt;Node28 -->
<g id="edge27_Node000002_Node000028" class="edge">
<title>Node2&#45;&gt;Node28</title>
<g id="a_edge27_Node000002_Node000028"><a xlink:title=" ">
<path fill="none" stroke="#63b8ff" d="M1541.12,-111.74C1713.88,-84.87 1761.89,-100.75 1932.25,-76 1935.09,-75.59 1938.02,-75.11 1940.96,-74.6"/>
<polygon fill="#63b8ff" stroke="#63b8ff" points="1540.65,-108.27 1531.32,-113.29 1541.75,-115.19 1540.65,-108.27"/>
</a>
</g>
</g>
<!-- Node29 -->
<g id="Node000029" class="node">
<title>Node29</title>
<g id="a_Node000029"><a xlink:href="applications_2azure__board__apps_2apps_2kalman__filter_2main_2kalman__filter__demo_8cpp.html" target="_top" xlink:title=" ">
<polygon fill="white" stroke="#666666" points="2151,-76 2031.5,-76 2031.5,-56 2151,-56 2151,-76"/>
<text xml:space="preserve" text-anchor="middle" x="2091.25" y="-62.5" font-family="Helvetica,sans-Serif" font-size="10.00">kalman_filter_demo.cpp</text>
</a>
</g>
</g>
<!-- Node2&#45;&gt;Node29 -->
<g id="edge28_Node000002_Node000029" class="edge">
<title>Node2&#45;&gt;Node29</title>
<g id="a_edge28_Node000002_Node000029"><a xlink:title=" ">
<path fill="none" stroke="#63b8ff" d="M1541.45,-111.71C1753.48,-80.27 1811.33,-97.58 2022.25,-76 2025.13,-75.7 2028.08,-75.39 2031.06,-75.05"/>
<polygon fill="#63b8ff" stroke="#63b8ff" points="1541.11,-108.22 1531.74,-113.17 1542.15,-115.15 1541.11,-108.22"/>
</a>
</g>
</g>
<!-- Node30 -->
<g id="Node000030" class="node">
<title>Node30</title>
<g id="a_Node000030"><a xlink:href="external__examples_2b00f000e_2applications_2azure__board__apps_2apps_2kalman__filter_2main_2kalman__filter__demo_8cpp.html" target="_top" xlink:title=" ">
<polygon fill="white" stroke="#666666" points="2289,-76 2169.5,-76 2169.5,-56 2289,-56 2289,-76"/>
<text xml:space="preserve" text-anchor="middle" x="2229.25" y="-62.5" font-family="Helvetica,sans-Serif" font-size="10.00">kalman_filter_demo.cpp</text>
</a>
</g>
</g>
<!-- Node2&#45;&gt;Node30 -->
<g id="edge29_Node000002_Node000030" class="edge">
<title>Node2&#45;&gt;Node30</title>
<g id="a_edge29_Node000002_Node000030"><a xlink:title=" ">
<path fill="none" stroke="#63b8ff" d="M1541.29,-111.78C1814.3,-73.49 1888.19,-101.58 2160.25,-76 2163.14,-75.73 2166.09,-75.43 2169.07,-75.11"/>
<polygon fill="#63b8ff" stroke="#63b8ff" points="1541.15,-108.27 1531.74,-113.14 1542.13,-115.2 1541.15,-108.27"/>
</a>
</g>
</g>
<!-- Node31 -->
<g id="Node000031" class="node">
<title>Node31</title>
<g id="a_Node000031"><a xlink:href="external__examples_2d1468452_2apps_2kalman__filter_2main_2kalman__filter__demo_8cpp.html" target="_top" xlink:title=" ">
<polygon fill="white" stroke="#666666" points="2427,-76 2307.5,-76 2307.5,-56 2427,-56 2427,-76"/>
<text xml:space="preserve" text-anchor="middle" x="2367.25" y="-62.5" font-family="Helvetica,sans-Serif" font-size="10.00">kalman_filter_demo.cpp</text>
</a>
</g>
</g>
<!-- Node2&#45;&gt;Node31 -->
<g id="edge30_Node000002_Node000031" class="edge">
<title>Node2&#45;&gt;Node31</title>
<g id="a_edge30_Node000002_Node000031"><a xlink:title=" ">
<path fill="none" stroke="#63b8ff" d="M1541.2,-111.82C1875.16,-66.65 1965.04,-105.57 2298.25,-76 2301.14,-75.74 2304.09,-75.46 2307.07,-75.15"/>
<polygon fill="#63b8ff" stroke="#63b8ff" points="1541.17,-108.29 1531.74,-113.12 1542.12,-115.23 1541.17,-108.29"/>
</a>
</g>
</g>
<!-- Node32 -->
<g id="Node000032" class="node">
<title>Node32</title>
<g id="a_Node000032"><a xlink:href="external__examples_2f9c2d4b3_2azure__board__apps_2apps_2kalman__filter_2main_2kalman__filter__demo_8cpp.html" target="_top" xlink:title=" ">
<polygon fill="white" stroke="#666666" points="2565,-76 2445.5,-76 2445.5,-56 2565,-56 2565,-76"/>
<text xml:space="preserve" text-anchor="middle" x="2505.25" y="-62.5" font-family="Helvetica,sans-Serif" font-size="10.00">kalman_filter_demo.cpp</text>
</a>
</g>
</g>
<!-- Node2&#45;&gt;Node32 -->
<g id="edge31_Node000002_Node000032" class="edge">
<title>Node2&#45;&gt;Node32</title>
<g id="a_edge31_Node000002_Node000032"><a xlink:title=" ">
<path fill="none" stroke="#63b8ff" d="M1541.4,-111.81C1936.09,-59.8 2041.95,-109.55 2436.25,-76 2439.14,-75.75 2442.09,-75.48 2445.07,-75.17"/>
<polygon fill="#63b8ff" stroke="#63b8ff" points="1541.18,-108.31 1531.73,-113.1 1542.11,-115.25 1541.18,-108.31"/>
</a>
</g>
</g>
<!-- Node33 -->
<g id="Node000033" class="node">
<title>Node33</title>
<g id="a_Node000033"><a xlink:href="main_2main_8c.html" target="_top" xlink:title=" ">
<polygon fill="white" stroke="#666666" points="2627.88,-76 2582.62,-76 2582.62,-56 2627.88,-56 2627.88,-76"/>
<text xml:space="preserve" text-anchor="middle" x="2605.25" y="-62.5" font-family="Helvetica,sans-Serif" font-size="10.00">main.c</text>
</a>
</g>
</g>
<!-- Node2&#45;&gt;Node33 -->
<g id="edge32_Node000002_Node000033" class="edge">
<title>Node2&#45;&gt;Node33</title>
<g id="a_edge32_Node000002_Node000033"><a xlink:title=" ">
<path fill="none" stroke="#63b8ff" d="M1541.4,-111.83C1997.06,-53.47 2122.98,-148.2 2574.25,-76 2576.91,-75.58 2579.66,-74.99 2582.37,-74.33"/>
<polygon fill="#63b8ff" stroke="#63b8ff" points="1541.2,-108.33 1531.73,-113.09 1542.1,-115.27 1541.2,-108.33"/>
</a>
</g>
</g>
<!-- Node34 -->
<g id="Node000034" class="node">
<title>Node34</title>
<g id="a_Node000034"><a xlink:href="components_2espressif____esp-dsp_2applications_2spectrum__box__lite_2main_2main_8c.html" target="_top" xlink:title=" ">
<polygon fill="white" stroke="#666666" points="2690.88,-76 2645.62,-76 2645.62,-56 2690.88,-56 2690.88,-76"/>
<text xml:space="preserve" text-anchor="middle" x="2668.25" y="-62.5" font-family="Helvetica,sans-Serif" font-size="10.00">main.c</text>
</a>
</g>
</g>
<!-- Node2&#45;&gt;Node34 -->
<g id="edge33_Node000002_Node000034" class="edge">
<title>Node2&#45;&gt;Node34</title>
<g id="a_edge33_Node000002_Node000034"><a xlink:title=" ">
<path fill="none" stroke="#63b8ff" d="M1541.35,-111.84C2024.86,-50.32 2158.26,-152.15 2637.25,-76 2639.91,-75.58 2642.66,-75 2645.37,-74.33"/>
<polygon fill="#63b8ff" stroke="#63b8ff" points="1541.2,-108.33 1531.73,-113.09 1542.1,-115.28 1541.2,-108.33"/>
</a>
</g>
</g>
<!-- Node35 -->
<g id="Node000035" class="node">
<title>Node35</title>
<g id="a_Node000035"><a xlink:href="components_2espressif____esp-dsp_2external__examples_2b00f000e_2applications_2spectrum__box__lite_2main_2main_8c.html" target="_top" xlink:title=" ">
<polygon fill="white" stroke="#666666" points="2753.88,-76 2708.62,-76 2708.62,-56 2753.88,-56 2753.88,-76"/>
<text xml:space="preserve" text-anchor="middle" x="2731.25" y="-62.5" font-family="Helvetica,sans-Serif" font-size="10.00">main.c</text>
</a>
</g>
</g>
<!-- Node2&#45;&gt;Node35 -->
<g id="edge34_Node000002_Node000035" class="edge">
<title>Node2&#45;&gt;Node35</title>
<g id="a_edge34_Node000002_Node000035"><a xlink:title=" ">
<path fill="none" stroke="#63b8ff" d="M1541.6,-111.82C2052.72,-47.21 2193.63,-156.08 2700.25,-76 2702.91,-75.58 2705.66,-75 2708.37,-74.34"/>
<polygon fill="#63b8ff" stroke="#63b8ff" points="1541.21,-108.34 1531.73,-113.08 1542.1,-115.28 1541.21,-108.34"/>
</a>
</g>
</g>
<!-- Node15 -->
<g id="Node000015" class="node">
<title>Node15</title>
<g id="a_Node000015"><a xlink:href="dsps__fft2r__sc16__ansi_8c.html" target="_top" xlink:title=" ">
<polygon fill="white" stroke="#666666" points="1000.5,-20 884,-20 884,0 1000.5,0 1000.5,-20"/>
<text xml:space="preserve" text-anchor="middle" x="942.25" y="-6.5" font-family="Helvetica,sans-Serif" font-size="10.00">dsps_fft2r_sc16_ansi.c</text>
</a>
</g>
</g>
<!-- Node14&#45;&gt;Node15 -->
<g id="edge14_Node000014_Node000015" class="edge">
<title>Node14&#45;&gt;Node15</title>
<g id="a_edge14_Node000014_Node000015"><a xlink:title=" ">
<path fill="none" stroke="#63b8ff" d="M1404.02,-55.66C1230.11,-29.81 1182.63,-39.22 1010.25,-20 1007.17,-19.66 1004.02,-19.29 1000.84,-18.91"/>
<polygon fill="#63b8ff" stroke="#63b8ff" points="1403.48,-59.12 1413.89,-57.15 1404.53,-52.2 1403.48,-59.12"/>
</a>
</g>
</g>
<!-- Node16 -->
<g id="Node000016" class="node">
<title>Node16</title>
<g id="a_Node000016"><a xlink:href="dsps__fird__init__s16_8c.html" target="_top" xlink:title=" ">
<polygon fill="white" stroke="#666666" points="1121.75,-20 1018.75,-20 1018.75,0 1121.75,0 1121.75,-20"/>
<text xml:space="preserve" text-anchor="middle" x="1070.25" y="-6.5" font-family="Helvetica,sans-Serif" font-size="10.00">dsps_fird_init_s16.c</text>
</a>
</g>
</g>
<!-- Node14&#45;&gt;Node16 -->
<g id="edge15_Node000014_Node000016" class="edge">
<title>Node14&#45;&gt;Node16</title>
<g id="a_edge15_Node000014_Node000016"><a xlink:title=" ">
<path fill="none" stroke="#63b8ff" d="M1404.19,-55.58C1283.41,-35.12 1250.19,-36.53 1131.25,-20 1128.28,-19.59 1125.23,-19.16 1122.16,-18.72"/>
<polygon fill="#63b8ff" stroke="#63b8ff" points="1403.43,-59 1413.88,-57.24 1404.61,-52.1 1403.43,-59"/>
</a>
</g>
</g>
<!-- Node17 -->
<g id="Node000017" class="node">
<title>Node17</title>
<g id="a_Node000017"><a xlink:href="dsps__firmr__f32__ansi_8c.html" target="_top" xlink:title=" ">
<polygon fill="white" stroke="#666666" points="1252.25,-20 1140.25,-20 1140.25,0 1252.25,0 1252.25,-20"/>
<text xml:space="preserve" text-anchor="middle" x="1196.25" y="-6.5" font-family="Helvetica,sans-Serif" font-size="10.00">dsps_firmr_f32_ansi.c</text>
</a>
</g>
</g>
<!-- Node14&#45;&gt;Node17 -->
<g id="edge16_Node000014_Node000017" class="edge">
<title>Node14&#45;&gt;Node17</title>
<g id="a_edge16_Node000014_Node000017"><a xlink:title=" ">
<path fill="none" stroke="#63b8ff" d="M1404.18,-55.34C1342.31,-42.12 1280.99,-29.05 1240.71,-20.47"/>
<polygon fill="#63b8ff" stroke="#63b8ff" points="1403.33,-58.74 1413.84,-57.41 1404.8,-51.9 1403.33,-58.74"/>
</a>
</g>
</g>
<!-- Node18 -->
<g id="Node000018" class="node">
<title>Node18</title>
<g id="a_Node000018"><a xlink:href="dsps__firmr__init__f32_8c.html" target="_top" xlink:title=" ">
<polygon fill="white" stroke="#666666" points="1376.62,-20 1269.88,-20 1269.88,0 1376.62,0 1376.62,-20"/>
<text xml:space="preserve" text-anchor="middle" x="1323.25" y="-6.5" font-family="Helvetica,sans-Serif" font-size="10.00">dsps_firmr_init_f32.c</text>
</a>
</g>
</g>
<!-- Node14&#45;&gt;Node18 -->
<g id="edge17_Node000014_Node000018" class="edge">
<title>Node14&#45;&gt;Node18</title>
<g id="a_edge17_Node000014_Node000018"><a xlink:title=" ">
<path fill="none" stroke="#63b8ff" d="M1416.91,-51.14C1394.47,-41.52 1365.18,-28.97 1345.37,-20.48"/>
<polygon fill="#63b8ff" stroke="#63b8ff" points="1415.34,-54.28 1425.91,-55 1418.1,-47.84 1415.34,-54.28"/>
</a>
</g>
</g>
<!-- Node19 -->
<g id="Node000019" class="node">
<title>Node19</title>
<g id="a_Node000019"><a xlink:href="dsps__firmr__init__s16_8c.html" target="_top" xlink:title=" ">
<polygon fill="white" stroke="#666666" points="1503.75,-20 1394.75,-20 1394.75,0 1503.75,0 1503.75,-20"/>
<text xml:space="preserve" text-anchor="middle" x="1449.25" y="-6.5" font-family="Helvetica,sans-Serif" font-size="10.00">dsps_firmr_init_s16.c</text>
</a>
</g>
</g>
<!-- Node14&#45;&gt;Node19 -->
<g id="edge18_Node000014_Node000019" class="edge">
<title>Node14&#45;&gt;Node19</title>
<g id="a_edge18_Node000014_Node000019"><a xlink:title=" ">
<path fill="none" stroke="#63b8ff" d="M1449.25,-44.13C1449.25,-35.9 1449.25,-26.85 1449.25,-20.3"/>
<polygon fill="#63b8ff" stroke="#63b8ff" points="1445.75,-44.08 1449.25,-54.08 1452.75,-44.08 1445.75,-44.08"/>
</a>
</g>
</g>
<!-- Node20 -->
<g id="Node000020" class="node">
<title>Node20</title>
<g id="a_Node000020"><a xlink:href="dsps__firmr__s16__ansi_8c.html" target="_top" xlink:title=" ">
<polygon fill="white" stroke="#666666" points="1636.38,-20 1522.12,-20 1522.12,0 1636.38,0 1636.38,-20"/>
<text xml:space="preserve" text-anchor="middle" x="1579.25" y="-6.5" font-family="Helvetica,sans-Serif" font-size="10.00">dsps_firmr_s16_ansi.c</text>
</a>
</g>
</g>
<!-- Node14&#45;&gt;Node20 -->
<g id="edge19_Node000014_Node000020" class="edge">
<title>Node14&#45;&gt;Node20</title>
<g id="a_edge19_Node000014_Node000020"><a xlink:title=" ">
<path fill="none" stroke="#63b8ff" d="M1482.3,-51.27C1505.49,-41.64 1535.9,-29.01 1556.43,-20.48"/>
<polygon fill="#63b8ff" stroke="#63b8ff" points="1481.18,-47.94 1473.29,-55.01 1483.87,-54.41 1481.18,-47.94"/>
</a>
</g>
</g>
<!-- Node22 -->
<g id="Node000022" class="node">
<title>Node22</title>
<g id="a_Node000022"><a xlink:href="applications_2azure__board__apps_2graphics_23d__matrix_23d__matrix__src_2graphics__support_8cpp.html" target="_top" xlink:title=" ">
<polygon fill="white" stroke="#666666" points="1763.75,-20 1654.75,-20 1654.75,0 1763.75,0 1763.75,-20"/>
<text xml:space="preserve" text-anchor="middle" x="1709.25" y="-6.5" font-family="Helvetica,sans-Serif" font-size="10.00">graphics_support.cpp</text>
</a>
</g>
</g>
<!-- Node21&#45;&gt;Node22 -->
<g id="edge21_Node000021_Node000022" class="edge">
<title>Node21&#45;&gt;Node22</title>
<g id="a_edge21_Node000021_Node000022"><a xlink:title=" ">
<path fill="none" stroke="#63b8ff" d="M1588.76,-51.92C1617.35,-42.21 1655.66,-29.2 1681.34,-20.48"/>
<polygon fill="#63b8ff" stroke="#63b8ff" points="1587.72,-48.58 1579.38,-55.11 1589.97,-55.21 1587.72,-48.58"/>
</a>
</g>
</g>
<!-- Node24 -->
<g id="Node000024" class="node">
<title>Node24</title>
<g id="a_Node000024"><a xlink:href="external__examples_2b00f000e_2applications_2azure__board__apps_2graphics_23d__matrix_23d__matrix__src_2graphics__support_8cpp.html" target="_top" xlink:title=" ">
<polygon fill="white" stroke="#666666" points="1890.75,-20 1781.75,-20 1781.75,0 1890.75,0 1890.75,-20"/>
<text xml:space="preserve" text-anchor="middle" x="1836.25" y="-6.5" font-family="Helvetica,sans-Serif" font-size="10.00">graphics_support.cpp</text>
</a>
</g>
</g>
<!-- Node23&#45;&gt;Node24 -->
<g id="edge23_Node000023_Node000024" class="edge">
<title>Node23&#45;&gt;Node24</title>
<g id="a_edge23_Node000023_Node000024"><a xlink:title=" ">
<path fill="none" stroke="#63b8ff" d="M1707.38,-52.18C1737.84,-42.44 1779.05,-29.28 1806.58,-20.48"/>
<polygon fill="#63b8ff" stroke="#63b8ff" points="1706.59,-48.76 1698.13,-55.13 1708.72,-55.42 1706.59,-48.76"/>
</a>
</g>
</g>
<!-- Node26 -->
<g id="Node000026" class="node">
<title>Node26</title>
<g id="a_Node000026"><a xlink:href="external__examples_2f9c2d4b3_2azure__board__apps_2graphics_23d__matrix_23d__matrix__src_2graphics__support_8cpp.html" target="_top" xlink:title=" ">
<polygon fill="white" stroke="#666666" points="2017.75,-20 1908.75,-20 1908.75,0 2017.75,0 2017.75,-20"/>
<text xml:space="preserve" text-anchor="middle" x="1963.25" y="-6.5" font-family="Helvetica,sans-Serif" font-size="10.00">graphics_support.cpp</text>
</a>
</g>
</g>
<!-- Node25&#45;&gt;Node26 -->
<g id="edge25_Node000025_Node000026" class="edge">
<title>Node25&#45;&gt;Node26</title>
<g id="a_edge25_Node000025_Node000026"><a xlink:title=" ">
<path fill="none" stroke="#63b8ff" d="M1826.33,-52.31C1858.64,-42.56 1902.54,-29.32 1931.83,-20.48"/>
<polygon fill="#63b8ff" stroke="#63b8ff" points="1825.44,-48.92 1816.88,-55.16 1827.46,-55.62 1825.44,-48.92"/>
</a>
</g>
</g>
</g>
</svg>
