<?xml version="1.0" encoding="UTF-8" standalone="no"?>
<!DOCTYPE svg PUBLIC "-//W3C//DTD SVG 1.1//EN"
 "http://www.w3.org/Graphics/SVG/1.1/DTD/svg11.dtd">
<!-- Generated by graphviz version 14.1.2 (20260124.0452)
 -->
<!-- Title: dsps_cplx2real_sc16_ansi Pages: 1 -->
<svg width="273pt" height="66pt"
 viewBox="0.00 0.00 273.00 66.00" xmlns="http://www.w3.org/2000/svg" xmlns:xlink="http://www.w3.org/1999/xlink">
<g id="graph0" class="graph" transform="scale(1 1) rotate(0) translate(4 62)">
<title>dsps_cplx2real_sc16_ansi</title>
<!-- Node1 -->
<g id="Node000001" class="node">
<title>Node1</title>
<g id="a_Node000001"><a xlink:title="Convert complex FFT result to real array.">
<polygon fill="#999999" stroke="#666666" points="130.75,-39 0,-39 0,-19 130.75,-19 130.75,-39"/>
<text xml:space="preserve" text-anchor="middle" x="65.38" y="-25.5" font-family="Helvetica,sans-Serif" font-size="10.00">dsps_cplx2real_sc16_ansi</text>
</a>
</g>
</g>
<!-- Node2 -->
<g id="Node000002" class="node">
<title>Node2</title>
<g id="a_Node000002"><a xlink:href="test__fft2r_8c.html#a58855e560e0563aa519b012dbdcbaec2" target="_top" xlink:title="Power of two The function return power of 2 for values 2^N. The implementation use ANSI C and could b...">
<polygon fill="white" stroke="#666666" points="264.5,-58 166.75,-58 166.75,-38 264.5,-38 264.5,-58"/>
<text xml:space="preserve" text-anchor="middle" x="215.62" y="-44.5" font-family="Helvetica,sans-Serif" font-size="10.00">dsp_power_of_two</text>
</a>
</g>
</g>
<!-- Node1&#45;&gt;Node2 -->
<g id="edge1_Node000001_Node000002" class="edge">
<title>Node1&#45;&gt;Node2</title>
<g id="a_edge1_Node000001_Node000002"><a xlink:title=" ">
<path fill="none" stroke="#63b8ff" d="M130.97,-37.28C138.94,-38.3 147.05,-39.34 154.95,-40.35"/>
<polygon fill="#63b8ff" stroke="#63b8ff" points="154.44,-43.81 164.8,-41.61 155.33,-36.87 154.44,-43.81"/>
</a>
</g>
</g>
<!-- Node3 -->
<g id="Node000003" class="node">
<title>Node3</title>
<g id="a_Node000003"><a xlink:href="dsps__fft2r__fc32__ansi_8c.html#a9e5b644e23feecb94b24428862edcc15" target="_top" xlink:title=" ">
<polygon fill="white" stroke="#666666" points="239.75,-20 191.5,-20 191.5,0 239.75,0 239.75,-20"/>
<text xml:space="preserve" text-anchor="middle" x="215.62" y="-6.5" font-family="Helvetica,sans-Serif" font-size="10.00">reverse</text>
</a>
</g>
</g>
<!-- Node1&#45;&gt;Node3 -->
<g id="edge2_Node000001_Node000003" class="edge">
<title>Node1&#45;&gt;Node3</title>
<g id="a_edge2_Node000001_Node000003"><a xlink:title=" ">
<path fill="none" stroke="#63b8ff" d="M130.97,-20.72C147.84,-18.56 165.38,-16.31 180.01,-14.44"/>
<polygon fill="#63b8ff" stroke="#63b8ff" points="180.08,-17.96 189.56,-13.21 179.2,-11.01 180.08,-17.96"/>
</a>
</g>
</g>
</g>
</svg>
