<?xml version="1.0" encoding="UTF-8" standalone="no"?>
<!DOCTYPE svg PUBLIC "-//W3C//DTD SVG 1.1//EN"
 "http://www.w3.org/Graphics/SVG/1.1/DTD/svg11.dtd">
<!-- Generated by graphviz version 14.1.2 (20260124.0452)
 -->
<!-- Title: dsps_dotprod_f32_ansi.c Pages: 1 -->
<svg width="353pt" height="252pt"
 viewBox="0.00 0.00 353.00 252.00" xmlns="http://www.w3.org/2000/svg" xmlns:xlink="http://www.w3.org/1999/xlink">
<g id="graph0" class="graph" transform="scale(1 1) rotate(0) translate(4 248)">
<title>dsps_dotprod_f32_ansi.c</title>
<!-- Node1 -->
<g id="Node000001" class="node">
<title>Node1</title>
<g id="a_Node000001"><a xlink:title=" ">
<polygon fill="#999999" stroke="#666666" points="189.38,-244 64.62,-244 64.62,-224 189.38,-224 189.38,-244"/>
<text xml:space="preserve" text-anchor="middle" x="127" y="-230.5" font-family="Helvetica,sans-Serif" font-size="10.00">dsps_dotprod_f32_ansi.c</text>
</a>
</g>
</g>
<!-- Node2 -->
<g id="Node000002" class="node">
<title>Node2</title>
<g id="a_Node000002"><a xlink:href="dsps__dotprod_8h.html" target="_top" xlink:title=" ">
<polygon fill="white" stroke="#666666" points="168.38,-188 85.62,-188 85.62,-168 168.38,-168 168.38,-188"/>
<text xml:space="preserve" text-anchor="middle" x="127" y="-174.5" font-family="Helvetica,sans-Serif" font-size="10.00">dsps_dotprod.h</text>
</a>
</g>
</g>
<!-- Node1&#45;&gt;Node2 -->
<g id="edge1_Node000001_Node000002" class="edge">
<title>Node1&#45;&gt;Node2</title>
<g id="a_edge1_Node000001_Node000002"><a xlink:title=" ">
<path fill="none" stroke="#63b8ff" d="M127,-223.59C127,-217.01 127,-207.96 127,-199.73"/>
<polygon fill="#63b8ff" stroke="#63b8ff" points="130.5,-199.81 127,-189.81 123.5,-199.81 130.5,-199.81"/>
</a>
</g>
</g>
<!-- Node3 -->
<g id="Node000003" class="node">
<title>Node3</title>
<g id="a_Node000003"><a xlink:href="esp__log_8h.html" target="_top" xlink:title=" ">
<polygon fill="white" stroke="#666666" points="58,-132 0,-132 0,-112 58,-112 58,-132"/>
<text xml:space="preserve" text-anchor="middle" x="29" y="-118.5" font-family="Helvetica,sans-Serif" font-size="10.00">esp_log.h</text>
</a>
</g>
</g>
<!-- Node2&#45;&gt;Node3 -->
<g id="edge2_Node000002_Node000003" class="edge">
<title>Node2&#45;&gt;Node3</title>
<g id="a_edge2_Node000002_Node000003"><a xlink:title=" ">
<path fill="none" stroke="#63b8ff" d="M109.93,-167.59C95.12,-159.44 73.43,-147.48 56.23,-138"/>
<polygon fill="#63b8ff" stroke="#63b8ff" points="57.98,-134.97 47.53,-133.21 54.6,-141.1 57.98,-134.97"/>
</a>
</g>
</g>
<!-- Node5 -->
<g id="Node000005" class="node">
<title>Node5</title>
<g id="a_Node000005"><a xlink:href="dsp__err_8h.html" target="_top" xlink:title=" ">
<polygon fill="white" stroke="#666666" points="155.25,-132 98.75,-132 98.75,-112 155.25,-112 155.25,-132"/>
<text xml:space="preserve" text-anchor="middle" x="127" y="-118.5" font-family="Helvetica,sans-Serif" font-size="10.00">dsp_err.h</text>
</a>
</g>
</g>
<!-- Node2&#45;&gt;Node5 -->
<g id="edge4_Node000002_Node000005" class="edge">
<title>Node2&#45;&gt;Node5</title>
<g id="a_edge4_Node000002_Node000005"><a xlink:title=" ">
<path fill="none" stroke="#63b8ff" d="M127,-167.59C127,-161.01 127,-151.96 127,-143.73"/>
<polygon fill="#63b8ff" stroke="#63b8ff" points="130.5,-143.81 127,-133.81 123.5,-143.81 130.5,-143.81"/>
</a>
</g>
</g>
<!-- Node9 -->
<g id="Node000009" class="node">
<title>Node9</title>
<g id="a_Node000009"><a xlink:href="dsps__dotprod__platform_8h.html" target="_top" xlink:title=" ">
<polygon fill="white" stroke="#666666" points="334.62,-132 211.38,-132 211.38,-112 334.62,-112 334.62,-132"/>
<text xml:space="preserve" text-anchor="middle" x="273" y="-118.5" font-family="Helvetica,sans-Serif" font-size="10.00">dsps_dotprod_platform.h</text>
</a>
</g>
</g>
<!-- Node2&#45;&gt;Node9 -->
<g id="edge9_Node000002_Node000009" class="edge">
<title>Node2&#45;&gt;Node9</title>
<g id="a_edge9_Node000002_Node000009"><a xlink:title=" ">
<path fill="none" stroke="#63b8ff" d="M152.43,-167.59C175.74,-158.97 210.5,-146.12 236.72,-136.42"/>
<polygon fill="#63b8ff" stroke="#63b8ff" points="237.79,-139.76 245.95,-133 235.36,-133.19 237.79,-139.76"/>
</a>
</g>
</g>
<!-- Node4 -->
<g id="Node000004" class="node">
<title>Node4</title>
<g id="a_Node000004"><a xlink:title=" ">
<polygon fill="#e0e0e0" stroke="#999999" points="89.75,-20 42.25,-20 42.25,0 89.75,0 89.75,-20"/>
<text xml:space="preserve" text-anchor="middle" x="66" y="-6.5" font-family="Helvetica,sans-Serif" font-size="10.00">stdlib.h</text>
</a>
</g>
</g>
<!-- Node3&#45;&gt;Node4 -->
<g id="edge3_Node000003_Node000004" class="edge">
<title>Node3&#45;&gt;Node4</title>
<g id="a_edge3_Node000003_Node000004"><a xlink:title=" ">
<path fill="none" stroke="#63b8ff" d="M25.83,-111.79C21.92,-98.85 16.61,-74.74 24,-56 28.26,-45.19 36.47,-35.45 44.51,-27.82"/>
<polygon fill="#63b8ff" stroke="#63b8ff" points="46.62,-30.63 51.84,-21.41 42.01,-25.36 46.62,-30.63"/>
</a>
</g>
</g>
<!-- Node6 -->
<g id="Node000006" class="node">
<title>Node6</title>
<g id="a_Node000006"><a xlink:title=" ">
<polygon fill="#e0e0e0" stroke="#999999" points="81.12,-76 32.88,-76 32.88,-56 81.12,-56 81.12,-76"/>
<text xml:space="preserve" text-anchor="middle" x="57" y="-62.5" font-family="Helvetica,sans-Serif" font-size="10.00">stdint.h</text>
</a>
</g>
</g>
<!-- Node5&#45;&gt;Node6 -->
<g id="edge5_Node000005_Node000006" class="edge">
<title>Node5&#45;&gt;Node6</title>
<g id="a_edge5_Node000005_Node000006"><a xlink:title=" ">
<path fill="none" stroke="#63b8ff" d="M114.81,-111.59C104.67,-103.77 90.01,-92.46 77.99,-83.19"/>
<polygon fill="#63b8ff" stroke="#63b8ff" points="80.31,-80.56 70.25,-77.22 76.03,-86.1 80.31,-80.56"/>
</a>
</g>
</g>
<!-- Node7 -->
<g id="Node000007" class="node">
<title>Node7</title>
<g id="a_Node000007"><a xlink:href="esp__err_8h.html" target="_top" xlink:title=" ">
<polygon fill="white" stroke="#666666" points="155.25,-76 98.75,-76 98.75,-56 155.25,-56 155.25,-76"/>
<text xml:space="preserve" text-anchor="middle" x="127" y="-62.5" font-family="Helvetica,sans-Serif" font-size="10.00">esp_err.h</text>
</a>
</g>
</g>
<!-- Node5&#45;&gt;Node7 -->
<g id="edge6_Node000005_Node000007" class="edge">
<title>Node5&#45;&gt;Node7</title>
<g id="a_edge6_Node000005_Node000007"><a xlink:title=" ">
<path fill="none" stroke="#63b8ff" d="M127,-111.59C127,-105.01 127,-95.96 127,-87.73"/>
<polygon fill="#63b8ff" stroke="#63b8ff" points="130.5,-87.81 127,-77.81 123.5,-87.81 130.5,-87.81"/>
</a>
</g>
</g>
<!-- Node8 -->
<g id="Node000008" class="node">
<title>Node8</title>
<g id="a_Node000008"><a xlink:href="dsp__err__codes_8h.html" target="_top" xlink:title=" ">
<polygon fill="white" stroke="#666666" points="261,-76 173,-76 173,-56 261,-56 261,-76"/>
<text xml:space="preserve" text-anchor="middle" x="217" y="-62.5" font-family="Helvetica,sans-Serif" font-size="10.00">dsp_err_codes.h</text>
</a>
</g>
</g>
<!-- Node5&#45;&gt;Node8 -->
<g id="edge8_Node000005_Node000008" class="edge">
<title>Node5&#45;&gt;Node8</title>
<g id="a_edge8_Node000005_Node000008"><a xlink:title=" ">
<path fill="none" stroke="#63b8ff" d="M142.68,-111.59C156.14,-103.51 175.82,-91.71 191.54,-82.27"/>
<polygon fill="#63b8ff" stroke="#63b8ff" points="193.13,-85.4 199.9,-77.26 189.53,-79.4 193.13,-85.4"/>
</a>
</g>
</g>
<!-- Node7&#45;&gt;Node4 -->
<g id="edge7_Node000007_Node000004" class="edge">
<title>Node7&#45;&gt;Node4</title>
<g id="a_edge7_Node000007_Node000004"><a xlink:title=" ">
<path fill="none" stroke="#63b8ff" d="M116.37,-55.59C107.72,-47.93 95.27,-36.91 84.92,-27.75"/>
<polygon fill="#63b8ff" stroke="#63b8ff" points="87.44,-25.31 77.64,-21.3 82.8,-30.55 87.44,-25.31"/>
</a>
</g>
</g>
<!-- Node10 -->
<g id="Node000010" class="node">
<title>Node10</title>
<g id="a_Node000010"><a xlink:title=" ">
<polygon fill="#e0e0e0" stroke="#999999" points="345.12,-76 278.88,-76 278.88,-56 345.12,-56 345.12,-76"/>
<text xml:space="preserve" text-anchor="middle" x="312" y="-62.5" font-family="Helvetica,sans-Serif" font-size="10.00">sdkconfig.h</text>
</a>
</g>
</g>
<!-- Node9&#45;&gt;Node10 -->
<g id="edge10_Node000009_Node000010" class="edge">
<title>Node9&#45;&gt;Node10</title>
<g id="a_edge10_Node000009_Node000010"><a xlink:title=" ">
<path fill="none" stroke="#63b8ff" d="M279.79,-111.59C284.99,-104.39 292.33,-94.23 298.69,-85.43"/>
<polygon fill="#63b8ff" stroke="#63b8ff" points="301.38,-87.68 304.4,-77.53 295.71,-83.58 301.38,-87.68"/>
</a>
</g>
</g>
</g>
</svg>
