<?xml version="1.0" encoding="UTF-8" standalone="no"?>
<!DOCTYPE svg PUBLIC "-//W3C//DTD SVG 1.1//EN"
 "http://www.w3.org/Graphics/SVG/1.1/DTD/svg11.dtd">
<!-- Generated by graphviz version 14.1.2 (20260124.0452)
 -->
<!-- Title: dsps_snr_f32 Pages: 1 -->
<svg width="521pt" height="120pt"
 viewBox="0.00 0.00 521.00 120.00" xmlns="http://www.w3.org/2000/svg" xmlns:xlink="http://www.w3.org/1999/xlink">
<g id="graph0" class="graph" transform="scale(1 1) rotate(0) translate(4 116.31)">
<title>dsps_snr_f32</title>
<!-- Node1 -->
<g id="Node000001" class="node">
<title>Node1</title>
<g id="a_Node000001"><a xlink:title="SNR.">
<polygon fill="#999999" stroke="#666666" points="74.5,-96 0,-96 0,-76 74.5,-76 74.5,-96"/>
<text xml:space="preserve" text-anchor="middle" x="37.25" y="-82.5" font-family="Helvetica,sans-Serif" font-size="10.00">dsps_snr_f32</text>
</a>
</g>
</g>
<!-- Node2 -->
<g id="Node000002" class="node">
<title>Node2</title>
<g id="a_Node000002"><a xlink:href="test__fft2r_8c.html#a0dc0b4dd19d7ebd2f69bfb0c1a6f85da" target="_top" xlink:title="check power of two The function check if the argument is power of 2. The implementation use ANSI C an...">
<polygon fill="white" stroke="#666666" points="512.5,-96 402,-96 402,-76 512.5,-76 512.5,-96"/>
<text xml:space="preserve" text-anchor="middle" x="457.25" y="-82.5" font-family="Helvetica,sans-Serif" font-size="10.00">dsp_is_power_of_two</text>
</a>
</g>
</g>
<!-- Node1&#45;&gt;Node2 -->
<g id="edge1_Node000001_Node000002" class="edge">
<title>Node1&#45;&gt;Node2</title>
<g id="a_edge1_Node000001_Node000002"><a xlink:title=" ">
<path fill="none" stroke="#63b8ff" d="M74.84,-94.23C86.21,-96.48 98.82,-98.66 110.5,-100 223.34,-112.92 253.03,-116.76 366,-105 378.56,-103.69 391.94,-101.39 404.46,-98.82"/>
<polygon fill="#63b8ff" stroke="#63b8ff" points="405.13,-102.26 414.17,-96.74 403.66,-95.42 405.13,-102.26"/>
</a>
</g>
</g>
<!-- Node3 -->
<g id="Node000003" class="node">
<title>Node3</title>
<g id="a_Node000003"><a xlink:href="dsps__fft2r__fc32__ansi_8c.html#af6eeaefef23180c3d2c319bfe402b558" target="_top" xlink:title="bit reverse operation for the complex input array">
<polygon fill="white" stroke="#666666" points="366,-96 247.25,-96 247.25,-76 366,-76 366,-96"/>
<text xml:space="preserve" text-anchor="middle" x="306.62" y="-82.5" font-family="Helvetica,sans-Serif" font-size="10.00">dsps_bit_rev_fc32_ansi</text>
</a>
</g>
</g>
<!-- Node1&#45;&gt;Node3 -->
<g id="edge2_Node000001_Node000003" class="edge">
<title>Node1&#45;&gt;Node3</title>
<g id="a_edge2_Node000001_Node000003"><a xlink:title=" ">
<path fill="none" stroke="#63b8ff" d="M74.87,-86C116.09,-86 184.02,-86 235.53,-86"/>
<polygon fill="#63b8ff" stroke="#63b8ff" points="235.4,-89.5 245.4,-86 235.4,-82.5 235.4,-89.5"/>
</a>
</g>
</g>
<!-- Node4 -->
<g id="Node000004" class="node">
<title>Node4</title>
<g id="a_Node000004"><a xlink:href="dsps__fft2r__fc32__ansi_8c.html#aa5f77f0db0301950603a20f9e67822aa" target="_top" xlink:title="init fft tables">
<polygon fill="white" stroke="#666666" points="211.25,-58 110.5,-58 110.5,-38 211.25,-38 211.25,-58"/>
<text xml:space="preserve" text-anchor="middle" x="160.88" y="-44.5" font-family="Helvetica,sans-Serif" font-size="10.00">dsps_fft2r_init_fc32</text>
</a>
</g>
</g>
<!-- Node1&#45;&gt;Node4 -->
<g id="edge4_Node000001_Node000004" class="edge">
<title>Node1&#45;&gt;Node4</title>
<g id="a_edge4_Node000001_Node000004"><a xlink:title=" ">
<path fill="none" stroke="#63b8ff" d="M71.81,-75.52C85.37,-71.28 101.2,-66.33 115.68,-61.81"/>
<polygon fill="#63b8ff" stroke="#63b8ff" points="116.48,-65.22 124.98,-58.9 114.39,-58.54 116.48,-65.22"/>
</a>
</g>
</g>
<!-- Node3&#45;&gt;Node2 -->
<g id="edge3_Node000003_Node000002" class="edge">
<title>Node3&#45;&gt;Node2</title>
<g id="a_edge3_Node000003_Node000002"><a xlink:title=" ">
<path fill="none" stroke="#63b8ff" d="M366.37,-86C374.31,-86 382.5,-86 390.55,-86"/>
<polygon fill="#63b8ff" stroke="#63b8ff" points="390.29,-89.5 400.29,-86 390.29,-82.5 390.29,-89.5"/>
</a>
</g>
</g>
<!-- Node4&#45;&gt;Node3 -->
<g id="edge6_Node000004_Node000003" class="edge">
<title>Node4&#45;&gt;Node3</title>
<g id="a_edge6_Node000004_Node000003"><a xlink:title=" ">
<path fill="none" stroke="#63b8ff" d="M201.54,-58.48C218.19,-62.89 237.75,-68.06 255.4,-72.72"/>
<polygon fill="#63b8ff" stroke="#63b8ff" points="254.07,-75.99 264.63,-75.16 255.86,-69.22 254.07,-75.99"/>
</a>
</g>
</g>
<!-- Node5 -->
<g id="Node000005" class="node">
<title>Node5</title>
<g id="a_Node000005"><a xlink:href="test__fft2r_8c.html#a58855e560e0563aa519b012dbdcbaec2" target="_top" xlink:title="Power of two The function return power of 2 for values 2^N. The implementation use ANSI C and could b...">
<polygon fill="white" stroke="#666666" points="355.5,-58 257.75,-58 257.75,-38 355.5,-38 355.5,-58"/>
<text xml:space="preserve" text-anchor="middle" x="306.62" y="-44.5" font-family="Helvetica,sans-Serif" font-size="10.00">dsp_power_of_two</text>
</a>
</g>
</g>
<!-- Node4&#45;&gt;Node5 -->
<g id="edge5_Node000004_Node000005" class="edge">
<title>Node4&#45;&gt;Node5</title>
<g id="a_edge5_Node000004_Node000005"><a xlink:title=" ">
<path fill="none" stroke="#63b8ff" d="M211.75,-48C222.82,-48 234.66,-48 246.07,-48"/>
<polygon fill="#63b8ff" stroke="#63b8ff" points="245.78,-51.5 255.78,-48 245.78,-44.5 245.78,-51.5"/>
</a>
</g>
</g>
<!-- Node6 -->
<g id="Node000006" class="node">
<title>Node6</title>
<g id="a_Node000006"><a xlink:href="dsps__fft2r__fc32__ansi_8c.html#a512cd6d2b04793b59881041e37e51738" target="_top" xlink:title="Generate coefficients table for the FFT radix 2.">
<polygon fill="white" stroke="#666666" points="360.75,-20 252.5,-20 252.5,0 360.75,0 360.75,-20"/>
<text xml:space="preserve" text-anchor="middle" x="306.62" y="-6.5" font-family="Helvetica,sans-Serif" font-size="10.00">dsps_gen_w_r2_fc32</text>
</a>
</g>
</g>
<!-- Node4&#45;&gt;Node6 -->
<g id="edge7_Node000004_Node000006" class="edge">
<title>Node4&#45;&gt;Node6</title>
<g id="a_edge7_Node000004_Node000006"><a xlink:title=" ">
<path fill="none" stroke="#63b8ff" d="M201.54,-37.52C218.19,-33.11 237.75,-27.94 255.4,-23.28"/>
<polygon fill="#63b8ff" stroke="#63b8ff" points="255.86,-26.78 264.63,-20.84 254.07,-20.01 255.86,-26.78"/>
</a>
</g>
</g>
<!-- Node6&#45;&gt;Node2 -->
<g id="edge8_Node000006_Node000002" class="edge">
<title>Node6&#45;&gt;Node2</title>
<g id="a_edge8_Node000006_Node000002"><a xlink:title=" ">
<path fill="none" stroke="#63b8ff" d="M344.6,-20.49C351.82,-22.97 359.25,-25.83 366,-29 390.06,-40.3 415.49,-56.83 433.2,-69.18"/>
<polygon fill="#63b8ff" stroke="#63b8ff" points="430.78,-71.75 440.96,-74.68 434.83,-66.04 430.78,-71.75"/>
</a>
</g>
</g>
</g>
</svg>
