<?xml version="1.0" encoding="UTF-8" standalone="no"?>
<!DOCTYPE svg PUBLIC "-//W3C//DTD SVG 1.1//EN"
 "http://www.w3.org/Graphics/SVG/1.1/DTD/svg11.dtd">
<!-- Generated by graphviz version 14.1.2 (20260124.0452)
 -->
<!-- Title: dsps_wind.h Pages: 1 -->
<svg width="744pt" height="96pt"
 viewBox="0.00 0.00 744.00 96.00" xmlns="http://www.w3.org/2000/svg" xmlns:xlink="http://www.w3.org/1999/xlink">
<g id="graph0" class="graph" transform="scale(1 1) rotate(0) translate(4 92)">
<title>dsps_wind.h</title>
<!-- Node1 -->
<g id="Node000001" class="node">
<title>Node1</title>
<g id="a_Node000001"><a xlink:title=" ">
<polygon fill="#999999" stroke="#666666" points="405.88,-88 335.12,-88 335.12,-68 405.88,-68 405.88,-88"/>
<text xml:space="preserve" text-anchor="middle" x="370.5" y="-74.5" font-family="Helvetica,sans-Serif" font-size="10.00">dsps_wind.h</text>
</a>
</g>
</g>
<!-- Node2 -->
<g id="Node000002" class="node">
<title>Node2</title>
<g id="a_Node000002"><a xlink:href="dsps__wind__hann_8h.html" target="_top" xlink:title=" ">
<polygon fill="white" stroke="#666666" points="97,-26 0,-26 0,-6 97,-6 97,-26"/>
<text xml:space="preserve" text-anchor="middle" x="48.5" y="-12.5" font-family="Helvetica,sans-Serif" font-size="10.00">dsps_wind_hann.h</text>
</a>
</g>
</g>
<!-- Node1&#45;&gt;Node2 -->
<g id="edge1_Node000001_Node000002" class="edge">
<title>Node1&#45;&gt;Node2</title>
<g id="a_edge1_Node000001_Node000002"><a xlink:title=" ">
<path fill="none" stroke="#63b8ff" d="M334.88,-71.9C283.99,-64.4 187.65,-49.38 106.5,-32 102.45,-31.13 98.25,-30.17 94.06,-29.17"/>
<polygon fill="#63b8ff" stroke="#63b8ff" points="95.06,-25.81 84.51,-26.81 93.38,-32.61 95.06,-25.81"/>
</a>
</g>
</g>
<!-- Node3 -->
<g id="Node000003" class="node">
<title>Node3</title>
<g id="a_Node000003"><a xlink:href="dsps__wind__blackman_8h.html" target="_top" xlink:title=" ">
<polygon fill="white" stroke="#666666" points="233.5,-26 115.5,-26 115.5,-6 233.5,-6 233.5,-26"/>
<text xml:space="preserve" text-anchor="middle" x="174.5" y="-12.5" font-family="Helvetica,sans-Serif" font-size="10.00">dsps_wind_blackman.h</text>
</a>
</g>
</g>
<!-- Node1&#45;&gt;Node3 -->
<g id="edge2_Node000001_Node000003" class="edge">
<title>Node1&#45;&gt;Node3</title>
<g id="a_edge2_Node000001_Node000003"><a xlink:title=" ">
<path fill="none" stroke="#63b8ff" d="M339.88,-67.62C306.6,-57.44 253.25,-41.11 216.18,-29.76"/>
<polygon fill="#63b8ff" stroke="#63b8ff" points="217.27,-26.43 206.68,-26.85 215.22,-33.12 217.27,-26.43"/>
</a>
</g>
</g>
<!-- Node4 -->
<g id="Node000004" class="node">
<title>Node4</title>
<g id="a_Node000004"><a xlink:href="dsps__wind__blackman__harris_8h.html" target="_top" xlink:title=" ">
<polygon fill="white" stroke="#666666" points="361.38,-32 251.62,-32 251.62,0 361.38,0 361.38,-32"/>
<text xml:space="preserve" text-anchor="start" x="259.62" y="-18.5" font-family="Helvetica,sans-Serif" font-size="10.00">dsps_wind_blackman</text>
<text xml:space="preserve" text-anchor="middle" x="306.5" y="-6.5" font-family="Helvetica,sans-Serif" font-size="10.00">_harris.h</text>
</a>
</g>
</g>
<!-- Node1&#45;&gt;Node4 -->
<g id="edge3_Node000001_Node000004" class="edge">
<title>Node1&#45;&gt;Node4</title>
<g id="a_edge3_Node000001_Node000004"><a xlink:title=" ">
<path fill="none" stroke="#63b8ff" d="M360.5,-67.62C352.64,-60.26 341.36,-49.68 331.14,-40.1"/>
<polygon fill="#63b8ff" stroke="#63b8ff" points="333.69,-37.69 324,-33.41 328.9,-42.8 333.69,-37.69"/>
</a>
</g>
</g>
<!-- Node5 -->
<g id="Node000005" class="node">
<title>Node5</title>
<g id="a_Node000005"><a xlink:href="dsps__wind__blackman__nuttall_8h.html" target="_top" xlink:title=" ">
<polygon fill="white" stroke="#666666" points="489.38,-32 379.62,-32 379.62,0 489.38,0 489.38,-32"/>
<text xml:space="preserve" text-anchor="start" x="387.62" y="-18.5" font-family="Helvetica,sans-Serif" font-size="10.00">dsps_wind_blackman</text>
<text xml:space="preserve" text-anchor="middle" x="434.5" y="-6.5" font-family="Helvetica,sans-Serif" font-size="10.00">_nuttall.h</text>
</a>
</g>
</g>
<!-- Node1&#45;&gt;Node5 -->
<g id="edge4_Node000001_Node000005" class="edge">
<title>Node1&#45;&gt;Node5</title>
<g id="a_edge4_Node000001_Node000005"><a xlink:title=" ">
<path fill="none" stroke="#63b8ff" d="M380.5,-67.62C388.36,-60.26 399.64,-49.68 409.86,-40.1"/>
<polygon fill="#63b8ff" stroke="#63b8ff" points="412.1,-42.8 417,-33.41 407.31,-37.69 412.1,-42.8"/>
</a>
</g>
</g>
<!-- Node6 -->
<g id="Node000006" class="node">
<title>Node6</title>
<g id="a_Node000006"><a xlink:href="dsps__wind__nuttall_8h.html" target="_top" xlink:title=" ">
<polygon fill="white" stroke="#666666" points="609.62,-26 507.38,-26 507.38,-6 609.62,-6 609.62,-26"/>
<text xml:space="preserve" text-anchor="middle" x="558.5" y="-12.5" font-family="Helvetica,sans-Serif" font-size="10.00">dsps_wind_nuttall.h</text>
</a>
</g>
</g>
<!-- Node1&#45;&gt;Node6 -->
<g id="edge5_Node000001_Node000006" class="edge">
<title>Node1&#45;&gt;Node6</title>
<g id="a_edge5_Node000001_Node000006"><a xlink:title=" ">
<path fill="none" stroke="#63b8ff" d="M399.88,-67.62C431.65,-57.48 482.53,-41.25 518.07,-29.9"/>
<polygon fill="#63b8ff" stroke="#63b8ff" points="519.12,-33.24 527.58,-26.87 516.99,-26.57 519.12,-33.24"/>
</a>
</g>
</g>
<!-- Node7 -->
<g id="Node000007" class="node">
<title>Node7</title>
<g id="a_Node000007"><a xlink:href="dsps__wind__flat__top_8h.html" target="_top" xlink:title=" ">
<polygon fill="white" stroke="#666666" points="735.62,-26 627.38,-26 627.38,-6 735.62,-6 735.62,-26"/>
<text xml:space="preserve" text-anchor="middle" x="681.5" y="-12.5" font-family="Helvetica,sans-Serif" font-size="10.00">dsps_wind_flat_top.h</text>
</a>
</g>
</g>
<!-- Node1&#45;&gt;Node7 -->
<g id="edge6_Node000001_Node000007" class="edge">
<title>Node1&#45;&gt;Node7</title>
<g id="a_edge6_Node000001_Node000007"><a xlink:title=" ">
<path fill="none" stroke="#63b8ff" d="M406.35,-71.12C454.68,-63.06 543.34,-47.76 618.5,-32 623.02,-31.05 627.71,-30.02 632.4,-28.96"/>
<polygon fill="#63b8ff" stroke="#63b8ff" points="632.83,-32.46 641.79,-26.8 631.26,-25.63 632.83,-32.46"/>
</a>
</g>
</g>
</g>
</svg>
