<?xml version="1.0" encoding="UTF-8" standalone="no"?>
<!DOCTYPE svg PUBLIC "-//W3C//DTD SVG 1.1//EN"
 "http://www.w3.org/Graphics/SVG/1.1/DTD/svg11.dtd">
<!-- Generated by graphviz version 14.1.2 (20260124.0452)
 -->
<!-- Title: dsps_fft2r_init_sc16 Pages: 1 -->
<svg width="415pt" height="66pt"
 viewBox="0.00 0.00 415.00 66.00" xmlns="http://www.w3.org/2000/svg" xmlns:xlink="http://www.w3.org/1999/xlink">
<g id="graph0" class="graph" transform="scale(1 1) rotate(0) translate(4 62)">
<title>dsps_fft2r_init_sc16</title>
<!-- Node1 -->
<g id="Node000001" class="node">
<title>Node1</title>
<g id="a_Node000001"><a xlink:title=" ">
<polygon fill="#999999" stroke="#666666" points="103,-39 0,-39 0,-19 103,-19 103,-39"/>
<text xml:space="preserve" text-anchor="middle" x="51.5" y="-25.5" font-family="Helvetica,sans-Serif" font-size="10.00">dsps_fft2r_init_sc16</text>
</a>
</g>
</g>
<!-- Node2 -->
<g id="Node000002" class="node">
<title>Node2</title>
<g id="a_Node000002"><a xlink:href="dsps__fft2r__sc16__ansi_8c.html#a4f30eaf6ab6af9c67f262e11ef917361" target="_top" xlink:title=" ">
<polygon fill="white" stroke="#666666" points="260,-58 139,-58 139,-38 260,-38 260,-58"/>
<text xml:space="preserve" text-anchor="middle" x="199.5" y="-44.5" font-family="Helvetica,sans-Serif" font-size="10.00">dsps_bit_rev_sc16_ansi</text>
</a>
</g>
</g>
<!-- Node1&#45;&gt;Node2 -->
<g id="edge1_Node000001_Node000002" class="edge">
<title>Node1&#45;&gt;Node2</title>
<g id="a_edge1_Node000001_Node000002"><a xlink:title=" ">
<path fill="none" stroke="#63b8ff" d="M103.15,-35.59C111.02,-36.62 119.28,-37.69 127.5,-38.76"/>
<polygon fill="#63b8ff" stroke="#63b8ff" points="126.78,-42.2 137.15,-40.02 127.68,-35.25 126.78,-42.2"/>
</a>
</g>
</g>
<!-- Node4 -->
<g id="Node000004" class="node">
<title>Node4</title>
<g id="a_Node000004"><a xlink:href="dsps__fft2r__sc16__ansi_8c.html#a9b94ca984cb2a6935843f2efed9ad233" target="_top" xlink:title=" ">
<polygon fill="white" stroke="#666666" points="254.75,-20 144.25,-20 144.25,0 254.75,0 254.75,-20"/>
<text xml:space="preserve" text-anchor="middle" x="199.5" y="-6.5" font-family="Helvetica,sans-Serif" font-size="10.00">dsps_gen_w_r2_sc16</text>
</a>
</g>
</g>
<!-- Node1&#45;&gt;Node4 -->
<g id="edge3_Node000001_Node000004" class="edge">
<title>Node1&#45;&gt;Node4</title>
<g id="a_edge3_Node000001_Node000004"><a xlink:title=" ">
<path fill="none" stroke="#63b8ff" d="M103.15,-22.41C112.73,-21.16 122.87,-19.84 132.83,-18.55"/>
<polygon fill="#63b8ff" stroke="#63b8ff" points="132.99,-22.06 142.45,-17.29 132.08,-15.11 132.99,-22.06"/>
</a>
</g>
</g>
<!-- Node3 -->
<g id="Node000003" class="node">
<title>Node3</title>
<g id="a_Node000003"><a xlink:href="test__fft2r_8c.html#a0dc0b4dd19d7ebd2f69bfb0c1a6f85da" target="_top" xlink:title="check power of two The function check if the argument is power of 2. The implementation use ANSI C an...">
<polygon fill="white" stroke="#666666" points="406.5,-39 296,-39 296,-19 406.5,-19 406.5,-39"/>
<text xml:space="preserve" text-anchor="middle" x="351.25" y="-25.5" font-family="Helvetica,sans-Serif" font-size="10.00">dsp_is_power_of_two</text>
</a>
</g>
</g>
<!-- Node2&#45;&gt;Node3 -->
<g id="edge2_Node000002_Node000003" class="edge">
<title>Node2&#45;&gt;Node3</title>
<g id="a_edge2_Node000002_Node000003"><a xlink:title=" ">
<path fill="none" stroke="#63b8ff" d="M260.12,-40.44C268.1,-39.42 276.32,-38.38 284.41,-37.35"/>
<polygon fill="#63b8ff" stroke="#63b8ff" points="284.72,-40.84 294.2,-36.11 283.83,-33.9 284.72,-40.84"/>
</a>
</g>
</g>
<!-- Node4&#45;&gt;Node3 -->
<g id="edge4_Node000004_Node000003" class="edge">
<title>Node4&#45;&gt;Node3</title>
<g id="a_edge4_Node000004_Node000003"><a xlink:title=" ">
<path fill="none" stroke="#63b8ff" d="M254.99,-16.91C264.48,-18.12 274.45,-19.38 284.22,-20.62"/>
<polygon fill="#63b8ff" stroke="#63b8ff" points="283.69,-24.08 294.05,-21.87 284.57,-17.14 283.69,-24.08"/>
</a>
</g>
</g>
</g>
</svg>
