<?xml version="1.0" encoding="UTF-8" standalone="no"?>
<!DOCTYPE svg PUBLIC "-//W3C//DTD SVG 1.1//EN"
 "http://www.w3.org/Graphics/SVG/1.1/DTD/svg11.dtd">
<!-- Generated by graphviz version 14.1.2 (20260124.0452)
 -->
<!-- Title: dsps_wind_nuttall_f32.c Pages: 1 -->
<svg width="174pt" height="84pt"
 viewBox="0.00 0.00 174.00 84.00" xmlns="http://www.w3.org/2000/svg" xmlns:xlink="http://www.w3.org/1999/xlink">
<g id="graph0" class="graph" transform="scale(1 1) rotate(0) translate(4 80)">
<title>dsps_wind_nuttall_f32.c</title>
<!-- Node1 -->
<g id="Node000001" class="node">
<title>Node1</title>
<g id="a_Node000001"><a xlink:title=" ">
<polygon fill="#999999" stroke="#666666" points="157.62,-76 36.62,-76 36.62,-56 157.62,-56 157.62,-76"/>
<text xml:space="preserve" text-anchor="middle" x="97.12" y="-62.5" font-family="Helvetica,sans-Serif" font-size="10.00">dsps_wind_nuttall_f32.c</text>
</a>
</g>
</g>
<!-- Node2 -->
<g id="Node000002" class="node">
<title>Node2</title>
<g id="a_Node000002"><a xlink:href="dsps__wind__nuttall_8h.html" target="_top" xlink:title=" ">
<polygon fill="white" stroke="#666666" points="102.25,-20 0,-20 0,0 102.25,0 102.25,-20"/>
<text xml:space="preserve" text-anchor="middle" x="51.12" y="-6.5" font-family="Helvetica,sans-Serif" font-size="10.00">dsps_wind_nuttall.h</text>
</a>
</g>
</g>
<!-- Node1&#45;&gt;Node2 -->
<g id="edge1_Node000001_Node000002" class="edge">
<title>Node1&#45;&gt;Node2</title>
<g id="a_edge1_Node000001_Node000002"><a xlink:title=" ">
<path fill="none" stroke="#63b8ff" d="M89.11,-55.59C82.85,-48.24 73.95,-37.8 66.34,-28.87"/>
<polygon fill="#63b8ff" stroke="#63b8ff" points="69.18,-26.79 60.03,-21.45 63.85,-31.33 69.18,-26.79"/>
</a>
</g>
</g>
<!-- Node3 -->
<g id="Node000003" class="node">
<title>Node3</title>
<g id="a_Node000003"><a xlink:title=" ">
<polygon fill="#e0e0e0" stroke="#999999" points="166.12,-20 120.12,-20 120.12,0 166.12,0 166.12,-20"/>
<text xml:space="preserve" text-anchor="middle" x="143.12" y="-6.5" font-family="Helvetica,sans-Serif" font-size="10.00">math.h</text>
</a>
</g>
</g>
<!-- Node1&#45;&gt;Node3 -->
<g id="edge2_Node000001_Node000003" class="edge">
<title>Node1&#45;&gt;Node3</title>
<g id="a_edge2_Node000001_Node000003"><a xlink:title=" ">
<path fill="none" stroke="#63b8ff" d="M105.14,-55.59C111.4,-48.24 120.3,-37.8 127.91,-28.87"/>
<polygon fill="#63b8ff" stroke="#63b8ff" points="130.4,-31.33 134.22,-21.45 125.07,-26.79 130.4,-31.33"/>
</a>
</g>
</g>
</g>
</svg>
