<?xml version="1.0" encoding="UTF-8" standalone="no"?>
<!DOCTYPE svg PUBLIC "-//W3C//DTD SVG 1.1//EN"
 "http://www.w3.org/Graphics/SVG/1.1/DTD/svg11.dtd">
<!-- Generated by graphviz version 14.1.2 (20260124.0452)
 -->
<!-- Title: dsps_fft4r_fc32_ansi.c Pages: 1 -->
<svg width="1070pt" height="252pt"
 viewBox="0.00 0.00 1070.00 252.00" xmlns="http://www.w3.org/2000/svg" xmlns:xlink="http://www.w3.org/1999/xlink">
<g id="graph0" class="graph" transform="scale(1 1) rotate(0) translate(4 248)">
<title>dsps_fft4r_fc32_ansi.c</title>
<!-- Node1 -->
<g id="Node000001" class="node">
<title>Node1</title>
<g id="a_Node000001"><a xlink:title=" ">
<polygon fill="#999999" stroke="#666666" points="843.21,-244 728.96,-244 728.96,-224 843.21,-224 843.21,-244"/>
<text xml:space="preserve" text-anchor="middle" x="786.08" y="-230.5" font-family="Helvetica,sans-Serif" font-size="10.00">dsps_fft4r_fc32_ansi.c</text>
</a>
</g>
</g>
<!-- Node2 -->
<g id="Node000002" class="node">
<title>Node2</title>
<g id="a_Node000002"><a xlink:href="dsps__fft2r_8h.html" target="_top" xlink:title=" ">
<polygon fill="white" stroke="#666666" points="221.58,-188 154.58,-188 154.58,-168 221.58,-168 221.58,-188"/>
<text xml:space="preserve" text-anchor="middle" x="188.08" y="-174.5" font-family="Helvetica,sans-Serif" font-size="10.00">dsps_fft2r.h</text>
</a>
</g>
</g>
<!-- Node1&#45;&gt;Node2 -->
<g id="edge1_Node000001_Node000002" class="edge">
<title>Node1&#45;&gt;Node2</title>
<g id="a_edge1_Node000001_Node000002"><a xlink:title=" ">
<path fill="none" stroke="#63b8ff" d="M728.47,-227.8C609.83,-217.08 340.39,-192.75 233.24,-183.08"/>
<polygon fill="#63b8ff" stroke="#63b8ff" points="233.68,-179.6 223.4,-182.19 233.05,-186.57 233.68,-179.6"/>
</a>
</g>
</g>
<!-- Node11 -->
<g id="Node000011" class="node">
<title>Node11</title>
<g id="a_Node000011"><a xlink:href="dsps__fft4r_8h.html" target="_top" xlink:title=" ">
<polygon fill="white" stroke="#666666" points="420.58,-188 353.58,-188 353.58,-168 420.58,-168 420.58,-188"/>
<text xml:space="preserve" text-anchor="middle" x="387.08" y="-174.5" font-family="Helvetica,sans-Serif" font-size="10.00">dsps_fft4r.h</text>
</a>
</g>
</g>
<!-- Node1&#45;&gt;Node11 -->
<g id="edge11_Node000001_Node000011" class="edge">
<title>Node1&#45;&gt;Node11</title>
<g id="a_edge11_Node000001_Node000011"><a xlink:title=" ">
<path fill="none" stroke="#63b8ff" d="M728.49,-225.21C648.29,-214.35 504.65,-194.91 431.92,-185.07"/>
<polygon fill="#63b8ff" stroke="#63b8ff" points="432.75,-181.65 422.37,-183.78 431.81,-188.59 432.75,-181.65"/>
</a>
</g>
</g>
<!-- Node13 -->
<g id="Node000013" class="node">
<title>Node13</title>
<g id="a_Node000013"><a xlink:href="dsp__common_8h.html" target="_top" xlink:title=" ">
<polygon fill="white" stroke="#666666" points="639.46,-188 556.71,-188 556.71,-168 639.46,-168 639.46,-188"/>
<text xml:space="preserve" text-anchor="middle" x="598.08" y="-174.5" font-family="Helvetica,sans-Serif" font-size="10.00">dsp_common.h</text>
</a>
</g>
</g>
<!-- Node1&#45;&gt;Node13 -->
<g id="edge17_Node000001_Node000013" class="edge">
<title>Node1&#45;&gt;Node13</title>
<g id="a_edge17_Node000001_Node000013"><a xlink:title=" ">
<path fill="none" stroke="#63b8ff" d="M753.33,-223.59C722.52,-214.74 676.16,-201.43 642.12,-191.65"/>
<polygon fill="#63b8ff" stroke="#63b8ff" points="643.12,-188.29 632.54,-188.9 641.18,-195.02 643.12,-188.29"/>
</a>
</g>
</g>
<!-- Node17 -->
<g id="Node000017" class="node">
<title>Node17</title>
<g id="a_Node000017"><a xlink:href="dsp__types_8h.html" target="_top" xlink:title=" ">
<polygon fill="white" stroke="#666666" points="744.71,-188 675.46,-188 675.46,-168 744.71,-168 744.71,-188"/>
<text xml:space="preserve" text-anchor="middle" x="710.08" y="-174.5" font-family="Helvetica,sans-Serif" font-size="10.00">dsp_types.h</text>
</a>
</g>
</g>
<!-- Node1&#45;&gt;Node17 -->
<g id="edge23_Node000001_Node000017" class="edge">
<title>Node1&#45;&gt;Node17</title>
<g id="a_edge23_Node000001_Node000017"><a xlink:title=" ">
<path fill="none" stroke="#63b8ff" d="M772.84,-223.59C761.8,-215.74 745.8,-204.38 732.72,-195.09"/>
<polygon fill="#63b8ff" stroke="#63b8ff" points="734.84,-192.3 724.66,-189.36 730.78,-198 734.84,-192.3"/>
</a>
</g>
</g>
<!-- Node19 -->
<g id="Node000019" class="node">
<title>Node19</title>
<g id="a_Node000019"><a xlink:title=" ">
<polygon fill="#e0e0e0" stroke="#999999" points="809.08,-188 763.08,-188 763.08,-168 809.08,-168 809.08,-188"/>
<text xml:space="preserve" text-anchor="middle" x="786.08" y="-174.5" font-family="Helvetica,sans-Serif" font-size="10.00">math.h</text>
</a>
</g>
</g>
<!-- Node1&#45;&gt;Node19 -->
<g id="edge27_Node000001_Node000019" class="edge">
<title>Node1&#45;&gt;Node19</title>
<g id="a_edge27_Node000001_Node000019"><a xlink:title=" ">
<path fill="none" stroke="#63b8ff" d="M786.08,-223.59C786.08,-217.01 786.08,-207.96 786.08,-199.73"/>
<polygon fill="#63b8ff" stroke="#63b8ff" points="789.58,-199.81 786.08,-189.81 782.58,-199.81 789.58,-199.81"/>
</a>
</g>
</g>
<!-- Node20 -->
<g id="Node000020" class="node">
<title>Node20</title>
<g id="a_Node000020"><a xlink:href="esp__attr_8h.html" target="_top" xlink:title=" ">
<polygon fill="white" stroke="#666666" points="886.83,-188 827.33,-188 827.33,-168 886.83,-168 886.83,-188"/>
<text xml:space="preserve" text-anchor="middle" x="857.08" y="-174.5" font-family="Helvetica,sans-Serif" font-size="10.00">esp_attr.h</text>
</a>
</g>
</g>
<!-- Node1&#45;&gt;Node20 -->
<g id="edge28_Node000001_Node000020" class="edge">
<title>Node1&#45;&gt;Node20</title>
<g id="a_edge28_Node000001_Node000020"><a xlink:title=" ">
<path fill="none" stroke="#63b8ff" d="M798.45,-223.59C808.73,-215.77 823.6,-204.46 835.79,-195.19"/>
<polygon fill="#63b8ff" stroke="#63b8ff" points="837.81,-198.05 843.65,-189.21 833.57,-192.48 837.81,-198.05"/>
</a>
</g>
</g>
<!-- Node21 -->
<g id="Node000021" class="node">
<title>Node21</title>
<g id="a_Node000021"><a xlink:href="esp__log_8h.html" target="_top" xlink:title=" ">
<polygon fill="white" stroke="#666666" points="831.08,-76 773.08,-76 773.08,-56 831.08,-56 831.08,-76"/>
<text xml:space="preserve" text-anchor="middle" x="802.08" y="-62.5" font-family="Helvetica,sans-Serif" font-size="10.00">esp_log.h</text>
</a>
</g>
</g>
<!-- Node1&#45;&gt;Node21 -->
<g id="edge29_Node000001_Node000021" class="edge">
<title>Node1&#45;&gt;Node21</title>
<g id="a_edge29_Node000001_Node000021"><a xlink:title=" ">
<path fill="none" stroke="#63b8ff" d="M842.28,-223.55C862.74,-217.1 883.83,-206.24 896.08,-188 914.91,-159.96 914.09,-140.58 896.08,-112 884.26,-93.23 862.19,-82.12 842.41,-75.63"/>
<polygon fill="#63b8ff" stroke="#63b8ff" points="843.47,-72.29 832.89,-72.83 841.49,-79.01 843.47,-72.29"/>
</a>
</g>
</g>
<!-- Node22 -->
<g id="Node000022" class="node">
<title>Node22</title>
<g id="a_Node000022"><a xlink:title=" ">
<polygon fill="#e0e0e0" stroke="#999999" points="991.21,-188 942.96,-188 942.96,-168 991.21,-168 991.21,-188"/>
<text xml:space="preserve" text-anchor="middle" x="967.08" y="-174.5" font-family="Helvetica,sans-Serif" font-size="10.00">string.h</text>
</a>
</g>
</g>
<!-- Node1&#45;&gt;Node22 -->
<g id="edge31_Node000001_Node000022" class="edge">
<title>Node1&#45;&gt;Node22</title>
<g id="a_edge31_Node000001_Node000022"><a xlink:title=" ">
<path fill="none" stroke="#63b8ff" d="M817.61,-223.59C849.41,-214.11 898.42,-199.48 931.57,-189.59"/>
<polygon fill="#63b8ff" stroke="#63b8ff" points="932.55,-192.95 941.13,-186.74 930.55,-186.25 932.55,-192.95"/>
</a>
</g>
</g>
<!-- Node23 -->
<g id="Node000023" class="node">
<title>Node23</title>
<g id="a_Node000023"><a xlink:title=" ">
<polygon fill="#e0e0e0" stroke="#999999" points="1062.46,-188 1009.71,-188 1009.71,-168 1062.46,-168 1062.46,-188"/>
<text xml:space="preserve" text-anchor="middle" x="1036.08" y="-174.5" font-family="Helvetica,sans-Serif" font-size="10.00">malloc.h</text>
</a>
</g>
</g>
<!-- Node1&#45;&gt;Node23 -->
<g id="edge32_Node000001_Node000023" class="edge">
<title>Node1&#45;&gt;Node23</title>
<g id="a_edge32_Node000001_Node000023"><a xlink:title=" ">
<path fill="none" stroke="#63b8ff" d="M833.79,-223.5C874.86,-215.21 935.97,-202.58 998.51,-188.29"/>
<polygon fill="#63b8ff" stroke="#63b8ff" points="998.93,-191.79 1007.9,-186.14 997.37,-184.96 998.93,-191.79"/>
</a>
</g>
</g>
<!-- Node3 -->
<g id="Node000003" class="node">
<title>Node3</title>
<g id="a_Node000003"><a xlink:href="dsp__err_8h.html" target="_top" xlink:title=" ">
<polygon fill="white" stroke="#666666" points="471.33,-132 414.83,-132 414.83,-112 471.33,-112 471.33,-132"/>
<text xml:space="preserve" text-anchor="middle" x="443.08" y="-118.5" font-family="Helvetica,sans-Serif" font-size="10.00">dsp_err.h</text>
</a>
</g>
</g>
<!-- Node2&#45;&gt;Node3 -->
<g id="edge2_Node000002_Node000003" class="edge">
<title>Node2&#45;&gt;Node3</title>
<g id="a_edge2_Node000002_Node000003"><a xlink:title=" ">
<path fill="none" stroke="#63b8ff" d="M221.94,-169.83C268.95,-159.87 353.8,-141.91 403.62,-131.36"/>
<polygon fill="#63b8ff" stroke="#63b8ff" points="404.05,-134.84 413.11,-129.35 402.6,-127.99 404.05,-134.84"/>
</a>
</g>
</g>
<!-- Node8 -->
<g id="Node000008" class="node">
<title>Node8</title>
<g id="a_Node000008"><a xlink:title=" ">
<polygon fill="#e0e0e0" stroke="#999999" points="221.21,-76 154.96,-76 154.96,-56 221.21,-56 221.21,-76"/>
<text xml:space="preserve" text-anchor="middle" x="188.08" y="-62.5" font-family="Helvetica,sans-Serif" font-size="10.00">sdkconfig.h</text>
</a>
</g>
</g>
<!-- Node2&#45;&gt;Node8 -->
<g id="edge7_Node000002_Node000008" class="edge">
<title>Node2&#45;&gt;Node8</title>
<g id="a_edge7_Node000002_Node000008"><a xlink:title=" ">
<path fill="none" stroke="#63b8ff" d="M154.23,-173.45C107.21,-167.74 25.87,-154.79 8.08,-132 -29.34,-84.07 78.74,-71.45 143.4,-68.15"/>
<polygon fill="#63b8ff" stroke="#63b8ff" points="143.2,-71.66 153.03,-67.72 142.88,-64.67 143.2,-71.66"/>
</a>
</g>
</g>
<!-- Node9 -->
<g id="Node000009" class="node">
<title>Node9</title>
<g id="a_Node000009"><a xlink:href="dsps__fft__tables_8h.html" target="_top" xlink:title=" ">
<polygon fill="white" stroke="#666666" points="233.21,-132 142.96,-132 142.96,-112 233.21,-112 233.21,-132"/>
<text xml:space="preserve" text-anchor="middle" x="188.08" y="-118.5" font-family="Helvetica,sans-Serif" font-size="10.00">dsps_fft_tables.h</text>
</a>
</g>
</g>
<!-- Node2&#45;&gt;Node9 -->
<g id="edge8_Node000002_Node000009" class="edge">
<title>Node2&#45;&gt;Node9</title>
<g id="a_edge8_Node000002_Node000009"><a xlink:title=" ">
<path fill="none" stroke="#63b8ff" d="M188.08,-167.59C188.08,-161.01 188.08,-151.96 188.08,-143.73"/>
<polygon fill="#63b8ff" stroke="#63b8ff" points="191.58,-143.81 188.08,-133.81 184.58,-143.81 191.58,-143.81"/>
</a>
</g>
</g>
<!-- Node10 -->
<g id="Node000010" class="node">
<title>Node10</title>
<g id="a_Node000010"><a xlink:href="dsps__fft2r__platform_8h.html" target="_top" xlink:title=" ">
<polygon fill="white" stroke="#666666" points="124.83,-132 17.33,-132 17.33,-112 124.83,-112 124.83,-132"/>
<text xml:space="preserve" text-anchor="middle" x="71.08" y="-118.5" font-family="Helvetica,sans-Serif" font-size="10.00">dsps_fft2r_platform.h</text>
</a>
</g>
</g>
<!-- Node2&#45;&gt;Node10 -->
<g id="edge9_Node000002_Node000010" class="edge">
<title>Node2&#45;&gt;Node10</title>
<g id="a_edge9_Node000002_Node000010"><a xlink:title=" ">
<path fill="none" stroke="#63b8ff" d="M167.7,-167.59C149.53,-159.21 122.66,-146.8 101.86,-137.21"/>
<polygon fill="#63b8ff" stroke="#63b8ff" points="103.54,-134.13 92.99,-133.11 100.61,-140.48 103.54,-134.13"/>
</a>
</g>
</g>
<!-- Node4 -->
<g id="Node000004" class="node">
<title>Node4</title>
<g id="a_Node000004"><a xlink:title=" ">
<polygon fill="#e0e0e0" stroke="#999999" points="623.21,-76 574.96,-76 574.96,-56 623.21,-56 623.21,-76"/>
<text xml:space="preserve" text-anchor="middle" x="599.08" y="-62.5" font-family="Helvetica,sans-Serif" font-size="10.00">stdint.h</text>
</a>
</g>
</g>
<!-- Node3&#45;&gt;Node4 -->
<g id="edge3_Node000003_Node000004" class="edge">
<title>Node3&#45;&gt;Node4</title>
<g id="a_edge3_Node000003_Node000004"><a xlink:title=" ">
<path fill="none" stroke="#63b8ff" d="M470.25,-111.59C496.23,-102.6 535.51,-89 563.87,-79.19"/>
<polygon fill="#63b8ff" stroke="#63b8ff" points="564.79,-82.57 573.1,-75.99 562.5,-75.96 564.79,-82.57"/>
</a>
</g>
</g>
<!-- Node5 -->
<g id="Node000005" class="node">
<title>Node5</title>
<g id="a_Node000005"><a xlink:href="esp__err_8h.html" target="_top" xlink:title=" ">
<polygon fill="white" stroke="#666666" points="451.33,-76 394.83,-76 394.83,-56 451.33,-56 451.33,-76"/>
<text xml:space="preserve" text-anchor="middle" x="423.08" y="-62.5" font-family="Helvetica,sans-Serif" font-size="10.00">esp_err.h</text>
</a>
</g>
</g>
<!-- Node3&#45;&gt;Node5 -->
<g id="edge4_Node000003_Node000005" class="edge">
<title>Node3&#45;&gt;Node5</title>
<g id="a_edge4_Node000003_Node000005"><a xlink:title=" ">
<path fill="none" stroke="#63b8ff" d="M439.6,-111.59C437.07,-104.78 433.57,-95.32 430.44,-86.86"/>
<polygon fill="#63b8ff" stroke="#63b8ff" points="433.81,-85.88 427.05,-77.72 427.24,-88.31 433.81,-85.88"/>
</a>
</g>
</g>
<!-- Node7 -->
<g id="Node000007" class="node">
<title>Node7</title>
<g id="a_Node000007"><a xlink:href="dsp__err__codes_8h.html" target="_top" xlink:title=" ">
<polygon fill="white" stroke="#666666" points="557.08,-76 469.08,-76 469.08,-56 557.08,-56 557.08,-76"/>
<text xml:space="preserve" text-anchor="middle" x="513.08" y="-62.5" font-family="Helvetica,sans-Serif" font-size="10.00">dsp_err_codes.h</text>
</a>
</g>
</g>
<!-- Node3&#45;&gt;Node7 -->
<g id="edge6_Node000003_Node000007" class="edge">
<title>Node3&#45;&gt;Node7</title>
<g id="a_edge6_Node000003_Node000007"><a xlink:title=" ">
<path fill="none" stroke="#63b8ff" d="M455.27,-111.59C465.41,-103.77 480.07,-92.46 492.09,-83.19"/>
<polygon fill="#63b8ff" stroke="#63b8ff" points="494.05,-86.1 499.83,-77.22 489.77,-80.56 494.05,-86.1"/>
</a>
</g>
</g>
<!-- Node6 -->
<g id="Node000006" class="node">
<title>Node6</title>
<g id="a_Node000006"><a xlink:title=" ">
<polygon fill="#e0e0e0" stroke="#999999" points="635.83,-20 588.33,-20 588.33,0 635.83,0 635.83,-20"/>
<text xml:space="preserve" text-anchor="middle" x="612.08" y="-6.5" font-family="Helvetica,sans-Serif" font-size="10.00">stdlib.h</text>
</a>
</g>
</g>
<!-- Node5&#45;&gt;Node6 -->
<g id="edge5_Node000005_Node000006" class="edge">
<title>Node5&#45;&gt;Node6</title>
<g id="a_edge5_Node000005_Node000006"><a xlink:title=" ">
<path fill="none" stroke="#63b8ff" d="M451.79,-56.8C485.33,-47.21 540.84,-31.36 576.93,-21.04"/>
<polygon fill="#63b8ff" stroke="#63b8ff" points="577.81,-24.43 586.46,-18.32 575.88,-17.7 577.81,-24.43"/>
</a>
</g>
</g>
<!-- Node10&#45;&gt;Node8 -->
<g id="edge10_Node000010_Node000008" class="edge">
<title>Node10&#45;&gt;Node8</title>
<g id="a_edge10_Node000010_Node000008"><a xlink:title=" ">
<path fill="none" stroke="#63b8ff" d="M91.46,-111.59C109.64,-103.21 136.51,-90.8 157.3,-81.21"/>
<polygon fill="#63b8ff" stroke="#63b8ff" points="158.56,-84.48 166.17,-77.11 155.62,-78.13 158.56,-84.48"/>
</a>
</g>
</g>
<!-- Node11&#45;&gt;Node3 -->
<g id="edge12_Node000011_Node000003" class="edge">
<title>Node11&#45;&gt;Node3</title>
<g id="a_edge12_Node000011_Node000003"><a xlink:title=" ">
<path fill="none" stroke="#63b8ff" d="M396.84,-167.59C404.71,-160.01 415.98,-149.13 425.43,-140.02"/>
<polygon fill="#63b8ff" stroke="#63b8ff" points="427.58,-142.81 432.35,-133.35 422.72,-137.77 427.58,-142.81"/>
</a>
</g>
</g>
<!-- Node11&#45;&gt;Node8 -->
<g id="edge13_Node000011_Node000008" class="edge">
<title>Node11&#45;&gt;Node8</title>
<g id="a_edge13_Node000011_Node000008"><a xlink:title=" ">
<path fill="none" stroke="#63b8ff" d="M387.1,-167.56C386.6,-153.43 383.51,-126.83 368.08,-112 348.92,-93.58 279.67,-80.21 232.87,-73.03"/>
<polygon fill="#63b8ff" stroke="#63b8ff" points="233.4,-69.57 223,-71.56 232.37,-76.5 233.4,-69.57"/>
</a>
</g>
</g>
<!-- Node11&#45;&gt;Node9 -->
<g id="edge14_Node000011_Node000009" class="edge">
<title>Node11&#45;&gt;Node9</title>
<g id="a_edge14_Node000011_Node000009"><a xlink:title=" ">
<path fill="none" stroke="#63b8ff" d="M353.32,-167.84C320.46,-158.92 270.28,-145.31 233.84,-135.42"/>
<polygon fill="#63b8ff" stroke="#63b8ff" points="235.04,-132.12 224.47,-132.87 233.2,-138.87 235.04,-132.12"/>
</a>
</g>
</g>
<!-- Node12 -->
<g id="Node000012" class="node">
<title>Node12</title>
<g id="a_Node000012"><a xlink:href="dsps__fft4r__platform_8h.html" target="_top" xlink:title=" ">
<polygon fill="white" stroke="#666666" points="358.83,-132 251.33,-132 251.33,-112 358.83,-112 358.83,-132"/>
<text xml:space="preserve" text-anchor="middle" x="305.08" y="-118.5" font-family="Helvetica,sans-Serif" font-size="10.00">dsps_fft4r_platform.h</text>
</a>
</g>
</g>
<!-- Node11&#45;&gt;Node12 -->
<g id="edge15_Node000011_Node000012" class="edge">
<title>Node11&#45;&gt;Node12</title>
<g id="a_edge15_Node000011_Node000012"><a xlink:title=" ">
<path fill="none" stroke="#63b8ff" d="M372.8,-167.59C360.64,-159.59 342.94,-147.93 328.69,-138.54"/>
<polygon fill="#63b8ff" stroke="#63b8ff" points="331.02,-135.89 320.74,-133.31 327.17,-141.73 331.02,-135.89"/>
</a>
</g>
</g>
<!-- Node12&#45;&gt;Node8 -->
<g id="edge16_Node000012_Node000008" class="edge">
<title>Node12&#45;&gt;Node8</title>
<g id="a_edge16_Node000012_Node000008"><a xlink:title=" ">
<path fill="none" stroke="#63b8ff" d="M284.7,-111.59C266.53,-103.21 239.66,-90.8 218.86,-81.21"/>
<polygon fill="#63b8ff" stroke="#63b8ff" points="220.54,-78.13 209.99,-77.11 217.61,-84.48 220.54,-78.13"/>
</a>
</g>
</g>
<!-- Node13&#45;&gt;Node3 -->
<g id="edge20_Node000013_Node000003" class="edge">
<title>Node13&#45;&gt;Node3</title>
<g id="a_edge20_Node000013_Node000003"><a xlink:title=" ">
<path fill="none" stroke="#63b8ff" d="M571.08,-167.59C546.12,-158.9 508.78,-145.89 480.86,-136.16"/>
<polygon fill="#63b8ff" stroke="#63b8ff" points="482.32,-132.96 471.72,-132.98 480.01,-139.57 482.32,-132.96"/>
</a>
</g>
</g>
<!-- Node13&#45;&gt;Node4 -->
<g id="edge18_Node000013_Node000004" class="edge">
<title>Node13&#45;&gt;Node4</title>
<g id="a_edge18_Node000013_Node000004"><a xlink:title=" ">
<path fill="none" stroke="#63b8ff" d="M598.02,-167.74C597.94,-155.14 597.86,-131.86 598.08,-112 598.17,-104.09 598.34,-95.4 598.52,-87.78"/>
<polygon fill="#63b8ff" stroke="#63b8ff" points="602.02,-87.91 598.78,-77.82 595.02,-87.73 602.02,-87.91"/>
</a>
</g>
</g>
<!-- Node14 -->
<g id="Node000014" class="node">
<title>Node14</title>
<g id="a_Node000014"><a xlink:title=" ">
<polygon fill="#e0e0e0" stroke="#999999" points="772.96,-132 717.21,-132 717.21,-112 772.96,-112 772.96,-132"/>
<text xml:space="preserve" text-anchor="middle" x="745.08" y="-118.5" font-family="Helvetica,sans-Serif" font-size="10.00">stdbool.h</text>
</a>
</g>
</g>
<!-- Node13&#45;&gt;Node14 -->
<g id="edge19_Node000013_Node000014" class="edge">
<title>Node13&#45;&gt;Node14</title>
<g id="a_edge19_Node000013_Node000014"><a xlink:title=" ">
<path fill="none" stroke="#63b8ff" d="M623.69,-167.59C647.15,-158.97 682.15,-146.12 708.55,-136.42"/>
<polygon fill="#63b8ff" stroke="#63b8ff" points="709.68,-139.73 717.86,-133 707.26,-133.16 709.68,-139.73"/>
</a>
</g>
</g>
<!-- Node15 -->
<g id="Node000015" class="node">
<title>Node15</title>
<g id="a_Node000015"><a xlink:title=" ">
<polygon fill="#e0e0e0" stroke="#999999" points="699.33,-132 606.83,-132 606.83,-112 699.33,-112 699.33,-132"/>
<text xml:space="preserve" text-anchor="middle" x="653.08" y="-118.5" font-family="Helvetica,sans-Serif" font-size="10.00">esp_idf_version.h</text>
</a>
</g>
</g>
<!-- Node13&#45;&gt;Node15 -->
<g id="edge21_Node000013_Node000015" class="edge">
<title>Node13&#45;&gt;Node15</title>
<g id="a_edge21_Node000013_Node000015"><a xlink:title=" ">
<path fill="none" stroke="#63b8ff" d="M607.66,-167.59C615.31,-160.08 626.24,-149.35 635.46,-140.3"/>
<polygon fill="#63b8ff" stroke="#63b8ff" points="637.85,-142.86 642.53,-133.36 632.94,-137.87 637.85,-142.86"/>
</a>
</g>
</g>
<!-- Node16 -->
<g id="Node000016" class="node">
<title>Node16</title>
<g id="a_Node000016"><a xlink:title=" ">
<polygon fill="#e0e0e0" stroke="#999999" points="550.58,-132 489.58,-132 489.58,-112 550.58,-112 550.58,-132"/>
<text xml:space="preserve" text-anchor="middle" x="520.08" y="-118.5" font-family="Helvetica,sans-Serif" font-size="10.00">x86intrin.h</text>
</a>
</g>
</g>
<!-- Node13&#45;&gt;Node16 -->
<g id="edge22_Node000013_Node000016" class="edge">
<title>Node13&#45;&gt;Node16</title>
<g id="a_edge22_Node000013_Node000016"><a xlink:title=" ">
<path fill="none" stroke="#63b8ff" d="M584.49,-167.59C573.04,-159.67 556.42,-148.16 542.93,-138.82"/>
<polygon fill="#63b8ff" stroke="#63b8ff" points="545.23,-136.16 535.02,-133.34 541.25,-141.91 545.23,-136.16"/>
</a>
</g>
</g>
<!-- Node17&#45;&gt;Node4 -->
<g id="edge24_Node000017_Node000004" class="edge">
<title>Node17&#45;&gt;Node4</title>
<g id="a_edge24_Node000017_Node000004"><a xlink:title=" ">
<path fill="none" stroke="#63b8ff" d="M734.98,-167.55C762.2,-155.8 799.74,-134.53 782.08,-112 764.13,-89.1 682.81,-76.3 634.82,-70.62"/>
<polygon fill="#63b8ff" stroke="#63b8ff" points="635.52,-67.18 625.19,-69.53 634.73,-74.13 635.52,-67.18"/>
</a>
</g>
</g>
<!-- Node17&#45;&gt;Node14 -->
<g id="edge25_Node000017_Node000014" class="edge">
<title>Node17&#45;&gt;Node14</title>
<g id="a_edge25_Node000017_Node000014"><a xlink:title=" ">
<path fill="none" stroke="#63b8ff" d="M716.18,-167.59C720.8,-160.47 727.29,-150.45 732.95,-141.72"/>
<polygon fill="#63b8ff" stroke="#63b8ff" points="735.73,-143.86 738.23,-133.57 729.86,-140.06 735.73,-143.86"/>
</a>
</g>
</g>
<!-- Node18 -->
<g id="Node000018" class="node">
<title>Node18</title>
<g id="a_Node000018"><a xlink:title=" ">
<polygon fill="#e0e0e0" stroke="#999999" points="887.46,-132 828.71,-132 828.71,-112 887.46,-112 887.46,-132"/>
<text xml:space="preserve" text-anchor="middle" x="858.08" y="-118.5" font-family="Helvetica,sans-Serif" font-size="10.00">inttypes.h</text>
</a>
</g>
</g>
<!-- Node17&#45;&gt;Node18 -->
<g id="edge26_Node000017_Node000018" class="edge">
<title>Node17&#45;&gt;Node18</title>
<g id="a_edge26_Node000017_Node000018"><a xlink:title=" ">
<path fill="none" stroke="#63b8ff" d="M735.86,-167.59C759.48,-158.97 794.72,-146.12 821.3,-136.42"/>
<polygon fill="#63b8ff" stroke="#63b8ff" points="822.48,-139.71 830.68,-133 820.08,-133.14 822.48,-139.71"/>
</a>
</g>
</g>
<!-- Node21&#45;&gt;Node6 -->
<g id="edge30_Node000021_Node000006" class="edge">
<title>Node21&#45;&gt;Node6</title>
<g id="a_edge30_Node000021_Node000006"><a xlink:title=" ">
<path fill="none" stroke="#63b8ff" d="M772.81,-56.68C739,-47.07 683.39,-31.27 647.25,-21"/>
<polygon fill="#63b8ff" stroke="#63b8ff" points="648.29,-17.65 637.72,-18.29 646.38,-24.39 648.29,-17.65"/>
</a>
</g>
</g>
</g>
</svg>
