<?xml version="1.0" encoding="UTF-8" standalone="no"?>
<!DOCTYPE svg PUBLIC "-//W3C//DTD SVG 1.1//EN"
 "http://www.w3.org/Graphics/SVG/1.1/DTD/svg11.dtd">
<!-- Generated by graphviz version 14.1.2 (20260124.0452)
 -->
<!-- Title: dsps_firmr_init_s16.c Pages: 1 -->
<svg width="1530pt" height="476pt"
 viewBox="0.00 0.00 1530.00 476.00" xmlns="http://www.w3.org/2000/svg" xmlns:xlink="http://www.w3.org/1999/xlink">
<g id="graph0" class="graph" transform="scale(1 1) rotate(0) translate(4 472)">
<title>dsps_firmr_init_s16.c</title>
<!-- Node1 -->
<g id="Node000001" class="node">
<title>Node1</title>
<g id="a_Node000001"><a xlink:title=" ">
<polygon fill="#999999" stroke="#666666" points="266.75,-468 157.75,-468 157.75,-448 266.75,-448 266.75,-468"/>
<text xml:space="preserve" text-anchor="middle" x="212.25" y="-454.5" font-family="Helvetica,sans-Serif" font-size="10.00">dsps_firmr_init_s16.c</text>
</a>
</g>
</g>
<!-- Node2 -->
<g id="Node000002" class="node">
<title>Node2</title>
<g id="a_Node000002"><a xlink:href="dsps__fir_8h.html" target="_top" xlink:title=" ">
<polygon fill="white" stroke="#666666" points="334.62,-244 275.88,-244 275.88,-224 334.62,-224 334.62,-244"/>
<text xml:space="preserve" text-anchor="middle" x="305.25" y="-230.5" font-family="Helvetica,sans-Serif" font-size="10.00">dsps_fir.h</text>
</a>
</g>
</g>
<!-- Node1&#45;&gt;Node2 -->
<g id="edge1_Node000001_Node000002" class="edge">
<title>Node1&#45;&gt;Node2</title>
<g id="a_edge1_Node000001_Node000002"><a xlink:title=" ">
<path fill="none" stroke="#63b8ff" d="M202.03,-447.8C193.56,-439.43 182.13,-426.23 177.25,-412 161.75,-366.84 177.14,-323.71 215.25,-280 228.37,-264.95 247.71,-254.37 265.11,-247.27"/>
<polygon fill="#63b8ff" stroke="#63b8ff" points="266.09,-250.64 274.2,-243.82 263.6,-244.1 266.09,-250.64"/>
</a>
</g>
</g>
<!-- Node10 -->
<g id="Node000010" class="node">
<title>Node10</title>
<g id="a_Node000010"><a xlink:href="dsp__common_8h.html" target="_top" xlink:title=" ">
<polygon fill="white" stroke="#666666" points="192.62,-188 109.88,-188 109.88,-168 192.62,-168 192.62,-188"/>
<text xml:space="preserve" text-anchor="middle" x="151.25" y="-174.5" font-family="Helvetica,sans-Serif" font-size="10.00">dsp_common.h</text>
</a>
</g>
</g>
<!-- Node1&#45;&gt;Node10 -->
<g id="edge69_Node000001_Node000010" class="edge">
<title>Node1&#45;&gt;Node10</title>
<g id="a_edge69_Node000001_Node000010"><a xlink:title=" ">
<path fill="none" stroke="#63b8ff" d="M165.9,-447.59C116.17,-434.47 44.25,-405.39 44.25,-347 44.25,-347 44.25,-347 44.25,-289 44.25,-244.84 89.11,-211.75 120.74,-193.91"/>
<polygon fill="#63b8ff" stroke="#63b8ff" points="122.4,-196.99 129.54,-189.16 119.08,-190.83 122.4,-196.99"/>
</a>
</g>
</g>
<!-- Node14 -->
<g id="Node000014" class="node">
<title>Node14</title>
<g id="a_Node000014"><a xlink:title=" ">
<polygon fill="#e0e0e0" stroke="#999999" points="238.62,-412 185.88,-412 185.88,-392 238.62,-392 238.62,-412"/>
<text xml:space="preserve" text-anchor="middle" x="212.25" y="-398.5" font-family="Helvetica,sans-Serif" font-size="10.00">malloc.h</text>
</a>
</g>
</g>
<!-- Node1&#45;&gt;Node14 -->
<g id="edge15_Node000001_Node000014" class="edge">
<title>Node1&#45;&gt;Node14</title>
<g id="a_edge15_Node000001_Node000014"><a xlink:title=" ">
<path fill="none" stroke="#63b8ff" d="M212.25,-447.59C212.25,-441.01 212.25,-431.96 212.25,-423.73"/>
<polygon fill="#63b8ff" stroke="#63b8ff" points="215.75,-423.81 212.25,-413.81 208.75,-423.81 215.75,-423.81"/>
</a>
</g>
</g>
<!-- Node15 -->
<g id="Node000015" class="node">
<title>Node15</title>
<g id="a_Node000015"><a xlink:title=" ">
<polygon fill="#e0e0e0" stroke="#999999" points="305.38,-412 257.12,-412 257.12,-392 305.38,-392 305.38,-412"/>
<text xml:space="preserve" text-anchor="middle" x="281.25" y="-398.5" font-family="Helvetica,sans-Serif" font-size="10.00">string.h</text>
</a>
</g>
</g>
<!-- Node1&#45;&gt;Node15 -->
<g id="edge16_Node000001_Node000015" class="edge">
<title>Node1&#45;&gt;Node15</title>
<g id="a_edge16_Node000001_Node000015"><a xlink:title=" ">
<path fill="none" stroke="#63b8ff" d="M224.27,-447.59C234.26,-439.77 248.71,-428.46 260.56,-419.19"/>
<polygon fill="#63b8ff" stroke="#63b8ff" points="262.46,-422.15 268.18,-413.23 258.14,-416.64 262.46,-422.15"/>
</a>
</g>
</g>
<!-- Node16 -->
<g id="Node000016" class="node">
<title>Node16</title>
<g id="a_Node000016"><a xlink:href="dsp__tests_8h.html" target="_top" xlink:title=" ">
<polygon fill="white" stroke="#666666" points="601.75,-412 534.75,-412 534.75,-392 601.75,-392 601.75,-412"/>
<text xml:space="preserve" text-anchor="middle" x="568.25" y="-398.5" font-family="Helvetica,sans-Serif" font-size="10.00">dsp_tests.h</text>
</a>
</g>
</g>
<!-- Node1&#45;&gt;Node16 -->
<g id="edge17_Node000001_Node000016" class="edge">
<title>Node1&#45;&gt;Node16</title>
<g id="a_edge17_Node000001_Node000016"><a xlink:title=" ">
<path fill="none" stroke="#63b8ff" d="M267.09,-448.68C337.38,-438.02 457.91,-419.74 523.15,-409.84"/>
<polygon fill="#63b8ff" stroke="#63b8ff" points="523.42,-413.34 532.78,-408.38 522.37,-406.42 523.42,-413.34"/>
</a>
</g>
</g>
<!-- Node3 -->
<g id="Node000003" class="node">
<title>Node3</title>
<g id="a_Node000003"><a xlink:href="dsp__err_8h.html" target="_top" xlink:title=" ">
<polygon fill="white" stroke="#666666" points="897.5,-132 841,-132 841,-112 897.5,-112 897.5,-132"/>
<text xml:space="preserve" text-anchor="middle" x="869.25" y="-118.5" font-family="Helvetica,sans-Serif" font-size="10.00">dsp_err.h</text>
</a>
</g>
</g>
<!-- Node2&#45;&gt;Node3 -->
<g id="edge2_Node000002_Node000003" class="edge">
<title>Node2&#45;&gt;Node3</title>
<g id="a_edge2_Node000002_Node000003"><a xlink:title=" ">
<path fill="none" stroke="#63b8ff" d="M334.82,-230.36C384.9,-225.39 489.25,-212.81 574.25,-188 596.04,-181.64 599.5,-174.51 621.25,-168 693.24,-146.45 780.25,-133.56 829.73,-127.41"/>
<polygon fill="#63b8ff" stroke="#63b8ff" points="829.87,-130.92 839.37,-126.24 829.03,-123.97 829.87,-130.92"/>
</a>
</g>
</g>
<!-- Node8 -->
<g id="Node000008" class="node">
<title>Node8</title>
<g id="a_Node000008"><a xlink:href="dsps__fir__platform_8h.html" target="_top" xlink:title=" ">
<polygon fill="white" stroke="#666666" points="396.88,-188 297.62,-188 297.62,-168 396.88,-168 396.88,-188"/>
<text xml:space="preserve" text-anchor="middle" x="347.25" y="-174.5" font-family="Helvetica,sans-Serif" font-size="10.00">dsps_fir_platform.h</text>
</a>
</g>
</g>
<!-- Node2&#45;&gt;Node8 -->
<g id="edge7_Node000002_Node000008" class="edge">
<title>Node2&#45;&gt;Node8</title>
<g id="a_edge7_Node000002_Node000008"><a xlink:title=" ">
<path fill="none" stroke="#63b8ff" d="M312.57,-223.59C318.23,-216.32 326.24,-206.02 333.14,-197.15"/>
<polygon fill="#63b8ff" stroke="#63b8ff" points="335.71,-199.54 339.09,-189.49 330.19,-195.24 335.71,-199.54"/>
</a>
</g>
</g>
<!-- Node2&#45;&gt;Node10 -->
<g id="edge9_Node000002_Node000010" class="edge">
<title>Node2&#45;&gt;Node10</title>
<g id="a_edge9_Node000002_Node000010"><a xlink:title=" ">
<path fill="none" stroke="#63b8ff" d="M278.43,-223.59C253.62,-214.9 216.52,-201.89 188.78,-192.16"/>
<polygon fill="#63b8ff" stroke="#63b8ff" points="190.31,-188.99 179.71,-188.98 187.99,-195.59 190.31,-188.99"/>
</a>
</g>
</g>
<!-- Node4 -->
<g id="Node000004" class="node">
<title>Node4</title>
<g id="a_Node000004"><a xlink:title=" ">
<polygon fill="#e0e0e0" stroke="#999999" points="336.38,-76 288.12,-76 288.12,-56 336.38,-56 336.38,-76"/>
<text xml:space="preserve" text-anchor="middle" x="312.25" y="-62.5" font-family="Helvetica,sans-Serif" font-size="10.00">stdint.h</text>
</a>
</g>
</g>
<!-- Node3&#45;&gt;Node4 -->
<g id="edge3_Node000003_Node000004" class="edge">
<title>Node3&#45;&gt;Node4</title>
<g id="a_edge3_Node000003_Node000004"><a xlink:title=" ">
<path fill="none" stroke="#63b8ff" d="M840.86,-118.25C747.67,-109.21 451.19,-80.47 348.04,-70.47"/>
<polygon fill="#63b8ff" stroke="#63b8ff" points="348.52,-67 338.23,-69.52 347.84,-73.97 348.52,-67"/>
</a>
</g>
</g>
<!-- Node5 -->
<g id="Node000005" class="node">
<title>Node5</title>
<g id="a_Node000005"><a xlink:href="esp__err_8h.html" target="_top" xlink:title=" ">
<polygon fill="white" stroke="#666666" points="1241.5,-76 1185,-76 1185,-56 1241.5,-56 1241.5,-76"/>
<text xml:space="preserve" text-anchor="middle" x="1213.25" y="-62.5" font-family="Helvetica,sans-Serif" font-size="10.00">esp_err.h</text>
</a>
</g>
</g>
<!-- Node3&#45;&gt;Node5 -->
<g id="edge4_Node000003_Node000005" class="edge">
<title>Node3&#45;&gt;Node5</title>
<g id="a_edge4_Node000003_Node000005"><a xlink:title=" ">
<path fill="none" stroke="#63b8ff" d="M897.99,-116.49C959.48,-106.84 1103.89,-84.17 1173.87,-73.18"/>
<polygon fill="#63b8ff" stroke="#63b8ff" points="1174,-76.7 1183.34,-71.7 1172.92,-69.79 1174,-76.7"/>
</a>
</g>
</g>
<!-- Node7 -->
<g id="Node000007" class="node">
<title>Node7</title>
<g id="a_Node000007"><a xlink:href="dsp__err__codes_8h.html" target="_top" xlink:title=" ">
<polygon fill="white" stroke="#666666" points="913.25,-76 825.25,-76 825.25,-56 913.25,-56 913.25,-76"/>
<text xml:space="preserve" text-anchor="middle" x="869.25" y="-62.5" font-family="Helvetica,sans-Serif" font-size="10.00">dsp_err_codes.h</text>
</a>
</g>
</g>
<!-- Node3&#45;&gt;Node7 -->
<g id="edge6_Node000003_Node000007" class="edge">
<title>Node3&#45;&gt;Node7</title>
<g id="a_edge6_Node000003_Node000007"><a xlink:title=" ">
<path fill="none" stroke="#63b8ff" d="M869.25,-111.59C869.25,-105.01 869.25,-95.96 869.25,-87.73"/>
<polygon fill="#63b8ff" stroke="#63b8ff" points="872.75,-87.81 869.25,-77.81 865.75,-87.81 872.75,-87.81"/>
</a>
</g>
</g>
<!-- Node6 -->
<g id="Node000006" class="node">
<title>Node6</title>
<g id="a_Node000006"><a xlink:title=" ">
<polygon fill="#e0e0e0" stroke="#999999" points="1265,-20 1217.5,-20 1217.5,0 1265,0 1265,-20"/>
<text xml:space="preserve" text-anchor="middle" x="1241.25" y="-6.5" font-family="Helvetica,sans-Serif" font-size="10.00">stdlib.h</text>
</a>
</g>
</g>
<!-- Node5&#45;&gt;Node6 -->
<g id="edge5_Node000005_Node000006" class="edge">
<title>Node5&#45;&gt;Node6</title>
<g id="a_edge5_Node000005_Node000006"><a xlink:title=" ">
<path fill="none" stroke="#63b8ff" d="M1218.13,-55.59C1221.74,-48.63 1226.79,-38.89 1231.25,-30.29"/>
<polygon fill="#63b8ff" stroke="#63b8ff" points="1234.24,-32.13 1235.73,-21.64 1228.02,-28.91 1234.24,-32.13"/>
</a>
</g>
</g>
<!-- Node9 -->
<g id="Node000009" class="node">
<title>Node9</title>
<g id="a_Node000009"><a xlink:title=" ">
<polygon fill="#e0e0e0" stroke="#999999" points="522.38,-132 456.12,-132 456.12,-112 522.38,-112 522.38,-132"/>
<text xml:space="preserve" text-anchor="middle" x="489.25" y="-118.5" font-family="Helvetica,sans-Serif" font-size="10.00">sdkconfig.h</text>
</a>
</g>
</g>
<!-- Node8&#45;&gt;Node9 -->
<g id="edge8_Node000008_Node000009" class="edge">
<title>Node8&#45;&gt;Node9</title>
<g id="a_edge8_Node000008_Node000009"><a xlink:title=" ">
<path fill="none" stroke="#63b8ff" d="M371.98,-167.59C394.55,-159.01 428.16,-146.23 453.62,-136.55"/>
<polygon fill="#63b8ff" stroke="#63b8ff" points="454.8,-139.84 462.91,-133.02 452.32,-133.3 454.8,-139.84"/>
</a>
</g>
</g>
<!-- Node10&#45;&gt;Node3 -->
<g id="edge12_Node000010_Node000003" class="edge">
<title>Node10&#45;&gt;Node3</title>
<g id="a_edge12_Node000010_Node000003"><a xlink:title=" ">
<path fill="none" stroke="#63b8ff" d="M192.94,-169.14C195.75,-168.72 198.54,-168.33 201.25,-168 438.44,-138.75 725.53,-127.46 829.36,-124.14"/>
<polygon fill="#63b8ff" stroke="#63b8ff" points="829.42,-127.64 839.31,-123.84 829.2,-120.65 829.42,-127.64"/>
</a>
</g>
</g>
<!-- Node10&#45;&gt;Node4 -->
<g id="edge10_Node000010_Node000004" class="edge">
<title>Node10&#45;&gt;Node4</title>
<g id="a_edge10_Node000010_Node000004"><a xlink:title=" ">
<path fill="none" stroke="#63b8ff" d="M159.29,-167.65C171.29,-154.09 195.1,-128.76 219.25,-112 237.27,-99.49 259.3,-88.66 277.4,-80.76"/>
<polygon fill="#63b8ff" stroke="#63b8ff" points="278.57,-84.07 286.41,-76.94 275.84,-77.62 278.57,-84.07"/>
</a>
</g>
</g>
<!-- Node11 -->
<g id="Node000011" class="node">
<title>Node11</title>
<g id="a_Node000011"><a xlink:title=" ">
<polygon fill="#e0e0e0" stroke="#999999" points="284.12,-132 228.38,-132 228.38,-112 284.12,-112 284.12,-132"/>
<text xml:space="preserve" text-anchor="middle" x="256.25" y="-118.5" font-family="Helvetica,sans-Serif" font-size="10.00">stdbool.h</text>
</a>
</g>
</g>
<!-- Node10&#45;&gt;Node11 -->
<g id="edge11_Node000010_Node000011" class="edge">
<title>Node10&#45;&gt;Node11</title>
<g id="a_edge11_Node000010_Node000011"><a xlink:title=" ">
<path fill="none" stroke="#63b8ff" d="M169.54,-167.59C185.55,-159.36 209.08,-147.26 227.59,-137.74"/>
<polygon fill="#63b8ff" stroke="#63b8ff" points="229.18,-140.86 236.47,-133.17 225.98,-134.63 229.18,-140.86"/>
</a>
</g>
</g>
<!-- Node12 -->
<g id="Node000012" class="node">
<title>Node12</title>
<g id="a_Node000012"><a xlink:title=" ">
<polygon fill="#e0e0e0" stroke="#999999" points="92.5,-132 0,-132 0,-112 92.5,-112 92.5,-132"/>
<text xml:space="preserve" text-anchor="middle" x="46.25" y="-118.5" font-family="Helvetica,sans-Serif" font-size="10.00">esp_idf_version.h</text>
</a>
</g>
</g>
<!-- Node10&#45;&gt;Node12 -->
<g id="edge13_Node000010_Node000012" class="edge">
<title>Node10&#45;&gt;Node12</title>
<g id="a_edge13_Node000010_Node000012"><a xlink:title=" ">
<path fill="none" stroke="#63b8ff" d="M132.96,-167.59C116.95,-159.36 93.42,-147.26 74.91,-137.74"/>
<polygon fill="#63b8ff" stroke="#63b8ff" points="76.52,-134.63 66.03,-133.17 73.32,-140.86 76.52,-134.63"/>
</a>
</g>
</g>
<!-- Node13 -->
<g id="Node000013" class="node">
<title>Node13</title>
<g id="a_Node000013"><a xlink:title=" ">
<polygon fill="#e0e0e0" stroke="#999999" points="171.75,-132 110.75,-132 110.75,-112 171.75,-112 171.75,-132"/>
<text xml:space="preserve" text-anchor="middle" x="141.25" y="-118.5" font-family="Helvetica,sans-Serif" font-size="10.00">x86intrin.h</text>
</a>
</g>
</g>
<!-- Node10&#45;&gt;Node13 -->
<g id="edge14_Node000010_Node000013" class="edge">
<title>Node10&#45;&gt;Node13</title>
<g id="a_edge14_Node000010_Node000013"><a xlink:title=" ">
<path fill="none" stroke="#63b8ff" d="M149.51,-167.59C148.27,-160.93 146.57,-151.75 145.04,-143.44"/>
<polygon fill="#63b8ff" stroke="#63b8ff" points="148.51,-142.98 143.25,-133.79 141.63,-144.26 148.51,-142.98"/>
</a>
</g>
</g>
<!-- Node16&#45;&gt;Node6 -->
<g id="edge18_Node000016_Node000006" class="edge">
<title>Node16&#45;&gt;Node6</title>
<g id="a_edge18_Node000016_Node000006"><a xlink:title=" ">
<path fill="none" stroke="#63b8ff" d="M602.2,-400.73C772.15,-398.93 1522.25,-385.61 1522.25,-291 1522.25,-291 1522.25,-291 1522.25,-121 1522.25,-68.78 1351.88,-31.19 1276.46,-17.11"/>
<polygon fill="#63b8ff" stroke="#63b8ff" points="1277.16,-13.68 1266.7,-15.32 1275.9,-20.56 1277.16,-13.68"/>
</a>
</g>
</g>
<!-- Node16&#45;&gt;Node12 -->
<g id="edge19_Node000016_Node000012" class="edge">
<title>Node16&#45;&gt;Node12</title>
<g id="a_edge19_Node000016_Node000012"><a xlink:title=" ">
<path fill="none" stroke="#63b8ff" d="M534.42,-399.66C462.77,-395.33 292.9,-377.05 178.25,-300 117.1,-258.9 73.37,-179.75 55.37,-142.84"/>
<polygon fill="#63b8ff" stroke="#63b8ff" points="58.53,-141.35 51.08,-133.82 52.21,-144.35 58.53,-141.35"/>
</a>
</g>
</g>
<!-- Node17 -->
<g id="Node000017" class="node">
<title>Node17</title>
<g id="a_Node000017"><a xlink:href="esp__dsp_8h.html" target="_top" xlink:title=" ">
<polygon fill="white" stroke="#666666" points="777.75,-356 716.75,-356 716.75,-336 777.75,-336 777.75,-356"/>
<text xml:space="preserve" text-anchor="middle" x="747.25" y="-342.5" font-family="Helvetica,sans-Serif" font-size="10.00">esp_dsp.h</text>
</a>
</g>
</g>
<!-- Node16&#45;&gt;Node17 -->
<g id="edge20_Node000016_Node000017" class="edge">
<title>Node16&#45;&gt;Node17</title>
<g id="a_edge20_Node000016_Node000017"><a xlink:title=" ">
<path fill="none" stroke="#63b8ff" d="M599.43,-391.59C628.82,-382.73 673.07,-369.38 705.49,-359.6"/>
<polygon fill="#63b8ff" stroke="#63b8ff" points="706.42,-362.97 714.98,-356.74 704.39,-356.27 706.42,-362.97"/>
</a>
</g>
</g>
<!-- Node17&#45;&gt;Node2 -->
<g id="edge28_Node000017_Node000002" class="edge">
<title>Node17&#45;&gt;Node2</title>
<g id="a_edge28_Node000017_Node000002"><a xlink:title=" ">
<path fill="none" stroke="#63b8ff" d="M716.35,-344.83C633.76,-343.87 409.93,-337.76 348.25,-300 331.33,-289.64 319.69,-269.83 312.82,-254.78"/>
<polygon fill="#63b8ff" stroke="#63b8ff" points="316.17,-253.72 309.09,-245.84 309.72,-256.42 316.17,-253.72"/>
</a>
</g>
</g>
<!-- Node17&#45;&gt;Node10 -->
<g id="edge21_Node000017_Node000010" class="edge">
<title>Node17&#45;&gt;Node10</title>
<g id="a_edge21_Node000017_Node000010"><a xlink:title=" ">
<path fill="none" stroke="#63b8ff" d="M716.38,-344.31C607.1,-341.63 242.97,-330.46 201.25,-300 168.61,-276.17 157.19,-227.09 153.26,-199.32"/>
<polygon fill="#63b8ff" stroke="#63b8ff" points="156.78,-199.24 152.11,-189.73 149.83,-200.07 156.78,-199.24"/>
</a>
</g>
</g>
<!-- Node18 -->
<g id="Node000018" class="node">
<title>Node18</title>
<g id="a_Node000018"><a xlink:href="dsp__types_8h.html" target="_top" xlink:title=" ">
<polygon fill="#fff0f0" stroke="red" points="279.88,-188 210.62,-188 210.62,-168 279.88,-168 279.88,-188"/>
<text xml:space="preserve" text-anchor="middle" x="245.25" y="-174.5" font-family="Helvetica,sans-Serif" font-size="10.00">dsp_types.h</text>
</a>
</g>
</g>
<!-- Node17&#45;&gt;Node18 -->
<g id="edge22_Node000017_Node000018" class="edge">
<title>Node17&#45;&gt;Node18</title>
<g id="a_edge22_Node000017_Node000018"><a xlink:title=" ">
<path fill="none" stroke="#63b8ff" d="M716.34,-344.76C607.87,-343.61 249.28,-337.02 215.25,-300 189.01,-271.44 214.21,-223.57 231.69,-197.42"/>
<polygon fill="#63b8ff" stroke="#63b8ff" points="234.37,-199.69 237.23,-189.49 228.63,-195.68 234.37,-199.69"/>
</a>
</g>
</g>
<!-- Node20 -->
<g id="Node000020" class="node">
<title>Node20</title>
<g id="a_Node000020"><a xlink:href="dsps__dotprod_8h.html" target="_top" xlink:title=" ">
<polygon fill="#fff0f0" stroke="red" points="1166.62,-244 1083.88,-244 1083.88,-224 1166.62,-224 1166.62,-244"/>
<text xml:space="preserve" text-anchor="middle" x="1125.25" y="-230.5" font-family="Helvetica,sans-Serif" font-size="10.00">dsps_dotprod.h</text>
</a>
</g>
</g>
<!-- Node17&#45;&gt;Node20 -->
<g id="edge25_Node000017_Node000020" class="edge">
<title>Node17&#45;&gt;Node20</title>
<g id="a_edge25_Node000017_Node000020"><a xlink:title=" ">
<path fill="none" stroke="#63b8ff" d="M778.08,-344.27C875.21,-341.64 1170.06,-331.14 1198.25,-300 1215.54,-280.9 1186.64,-261.59 1160.26,-249.04"/>
<polygon fill="#63b8ff" stroke="#63b8ff" points="1161.93,-245.95 1151.38,-245.03 1159.06,-252.34 1161.93,-245.95"/>
</a>
</g>
</g>
<!-- Node23 -->
<g id="Node000023" class="node">
<title>Node23</title>
<g id="a_Node000023"><a xlink:href="dsps__math_8h.html" target="_top" xlink:title=" ">
<polygon fill="#fff0f0" stroke="red" points="296.38,-300 224.12,-300 224.12,-280 296.38,-280 296.38,-300"/>
<text xml:space="preserve" text-anchor="middle" x="260.25" y="-286.5" font-family="Helvetica,sans-Serif" font-size="10.00">dsps_math.h</text>
</a>
</g>
</g>
<!-- Node17&#45;&gt;Node23 -->
<g id="edge27_Node000017_Node000023" class="edge">
<title>Node17&#45;&gt;Node23</title>
<g id="a_edge27_Node000017_Node000023"><a xlink:title=" ">
<path fill="none" stroke="#63b8ff" d="M716.42,-342.63C644.87,-336.96 462.04,-321.45 310.25,-300 309.43,-299.88 308.61,-299.77 307.77,-299.64"/>
<polygon fill="#63b8ff" stroke="#63b8ff" points="308.71,-296.25 298.29,-298.14 307.62,-303.16 308.71,-296.25"/>
</a>
</g>
</g>
<!-- Node35 -->
<g id="Node000035" class="node">
<title>Node35</title>
<g id="a_Node000035"><a xlink:href="dsps__resampler_8h.html" target="_top" xlink:title=" ">
<polygon fill="white" stroke="#666666" points="571.88,-300 478.62,-300 478.62,-280 571.88,-280 571.88,-300"/>
<text xml:space="preserve" text-anchor="middle" x="525.25" y="-286.5" font-family="Helvetica,sans-Serif" font-size="10.00">dsps_resampler.h</text>
</a>
</g>
</g>
<!-- Node17&#45;&gt;Node35 -->
<g id="edge29_Node000017_Node000035" class="edge">
<title>Node17&#45;&gt;Node35</title>
<g id="a_edge29_Node000017_Node000035"><a xlink:title=" ">
<path fill="none" stroke="#63b8ff" d="M716.38,-337.49C679.85,-328.61 618.53,-313.69 575.21,-303.15"/>
<polygon fill="#63b8ff" stroke="#63b8ff" points="576.08,-299.76 565.53,-300.8 574.42,-306.56 576.08,-299.76"/>
</a>
</g>
</g>
<!-- Node36 -->
<g id="Node000036" class="node">
<title>Node36</title>
<g id="a_Node000036"><a xlink:href="dsps__biquad_8h.html" target="_top" xlink:title=" ">
<polygon fill="#fff0f0" stroke="red" points="1263.75,-244 1184.75,-244 1184.75,-224 1263.75,-224 1263.75,-244"/>
<text xml:space="preserve" text-anchor="middle" x="1224.25" y="-230.5" font-family="Helvetica,sans-Serif" font-size="10.00">dsps_biquad.h</text>
</a>
</g>
</g>
<!-- Node17&#45;&gt;Node36 -->
<g id="edge32_Node000017_Node000036" class="edge">
<title>Node17&#45;&gt;Node36</title>
<g id="a_edge32_Node000017_Node000036"><a xlink:title=" ">
<path fill="none" stroke="#63b8ff" d="M778.01,-344.21C877.16,-341.39 1183.7,-330.26 1215.25,-300 1226.95,-288.78 1228.42,-269.95 1227.42,-255.43"/>
<polygon fill="#63b8ff" stroke="#63b8ff" points="1230.91,-255.12 1226.28,-245.59 1223.96,-255.93 1230.91,-255.12"/>
</a>
</g>
</g>
<!-- Node38 -->
<g id="Node000038" class="node">
<title>Node38</title>
<g id="a_Node000038"><a xlink:href="dsps__biquad__gen_8h.html" target="_top" xlink:title=" ">
<polygon fill="white" stroke="#666666" points="1291.25,-188 1191.25,-188 1191.25,-168 1291.25,-168 1291.25,-188"/>
<text xml:space="preserve" text-anchor="middle" x="1241.25" y="-174.5" font-family="Helvetica,sans-Serif" font-size="10.00">dsps_biquad_gen.h</text>
</a>
</g>
</g>
<!-- Node17&#45;&gt;Node38 -->
<g id="edge34_Node000017_Node000038" class="edge">
<title>Node17&#45;&gt;Node38</title>
<g id="a_edge34_Node000017_Node000038"><a xlink:title=" ">
<path fill="none" stroke="#63b8ff" d="M778.24,-345.48C872.87,-346.43 1156.38,-345.34 1234.25,-300 1267.06,-280.9 1284.8,-260.17 1273.25,-224 1270.13,-214.24 1264.04,-204.79 1258,-197.08"/>
<polygon fill="#63b8ff" stroke="#63b8ff" points="1260.73,-194.89 1251.59,-189.53 1255.39,-199.42 1260.73,-194.89"/>
</a>
</g>
</g>
<!-- Node39 -->
<g id="Node000039" class="node">
<title>Node39</title>
<g id="a_Node000039"><a xlink:href="dsps__wind_8h.html" target="_top" xlink:title=" ">
<polygon fill="#fff0f0" stroke="red" points="460.62,-300 389.88,-300 389.88,-280 460.62,-280 460.62,-300"/>
<text xml:space="preserve" text-anchor="middle" x="425.25" y="-286.5" font-family="Helvetica,sans-Serif" font-size="10.00">dsps_wind.h</text>
</a>
</g>
</g>
<!-- Node17&#45;&gt;Node39 -->
<g id="edge36_Node000017_Node000039" class="edge">
<title>Node17&#45;&gt;Node39</title>
<g id="a_edge36_Node000017_Node000039"><a xlink:title=" ">
<path fill="none" stroke="#63b8ff" d="M716.32,-340.42C666.88,-333.01 566.71,-317.61 471.99,-300.44"/>
<polygon fill="#63b8ff" stroke="#63b8ff" points="472.72,-297.02 462.26,-298.67 471.47,-303.91 472.72,-297.02"/>
</a>
</g>
</g>
<!-- Node46 -->
<g id="Node000046" class="node">
<title>Node46</title>
<g id="a_Node000046"><a xlink:href="dsps__conv_8h.html" target="_top" xlink:title=" ">
<polygon fill="#fff0f0" stroke="red" points="1390.62,-244 1319.88,-244 1319.88,-224 1390.62,-224 1390.62,-244"/>
<text xml:space="preserve" text-anchor="middle" x="1355.25" y="-230.5" font-family="Helvetica,sans-Serif" font-size="10.00">dsps_conv.h</text>
</a>
</g>
</g>
<!-- Node17&#45;&gt;Node46 -->
<g id="edge37_Node000017_Node000046" class="edge">
<title>Node17&#45;&gt;Node46</title>
<g id="a_edge37_Node000017_Node000046"><a xlink:title=" ">
<path fill="none" stroke="#63b8ff" d="M777.91,-344.01C888.22,-340.27 1260.84,-325.8 1307.25,-300 1325.6,-289.8 1338.9,-269.31 1346.78,-254.04"/>
<polygon fill="#63b8ff" stroke="#63b8ff" points="1349.74,-255.97 1350.91,-245.44 1343.43,-252.95 1349.74,-255.97"/>
</a>
</g>
</g>
<!-- Node48 -->
<g id="Node000048" class="node">
<title>Node48</title>
<g id="a_Node000048"><a xlink:href="dsps__corr_8h.html" target="_top" xlink:title=" ">
<polygon fill="#fff0f0" stroke="red" points="1425.75,-188 1358.75,-188 1358.75,-168 1425.75,-168 1425.75,-188"/>
<text xml:space="preserve" text-anchor="middle" x="1392.25" y="-174.5" font-family="Helvetica,sans-Serif" font-size="10.00">dsps_corr.h</text>
</a>
</g>
</g>
<!-- Node17&#45;&gt;Node48 -->
<g id="edge39_Node000017_Node000048" class="edge">
<title>Node17&#45;&gt;Node48</title>
<g id="a_edge39_Node000017_Node000048"><a xlink:title=" ">
<path fill="none" stroke="#63b8ff" d="M778.17,-345.08C883.94,-344.99 1230.35,-341.47 1332.25,-300 1368.2,-285.37 1382.81,-279.16 1399.25,-244 1405.8,-229.99 1403.39,-212.47 1399.71,-199.16"/>
<polygon fill="#63b8ff" stroke="#63b8ff" points="1403.08,-198.19 1396.65,-189.77 1396.42,-200.36 1403.08,-198.19"/>
</a>
</g>
</g>
<!-- Node49 -->
<g id="Node000049" class="node">
<title>Node49</title>
<g id="a_Node000049"><a xlink:href="dsps__d__gen_8h.html" target="_top" xlink:title=" ">
<polygon fill="white" stroke="#666666" points="1494.62,-300 1417.88,-300 1417.88,-280 1494.62,-280 1494.62,-300"/>
<text xml:space="preserve" text-anchor="middle" x="1456.25" y="-286.5" font-family="Helvetica,sans-Serif" font-size="10.00">dsps_d_gen.h</text>
</a>
</g>
</g>
<!-- Node17&#45;&gt;Node49 -->
<g id="edge41_Node000017_Node000049" class="edge">
<title>Node17&#45;&gt;Node49</title>
<g id="a_edge41_Node000017_Node000049"><a xlink:title=" ">
<path fill="none" stroke="#63b8ff" d="M778.14,-344.02C872.35,-340.77 1164.18,-328.92 1404.25,-300 1404.92,-299.92 1405.59,-299.84 1406.27,-299.75"/>
<polygon fill="#63b8ff" stroke="#63b8ff" points="1406.5,-303.25 1415.91,-298.38 1405.52,-296.32 1406.5,-303.25"/>
</a>
</g>
</g>
<!-- Node50 -->
<g id="Node000050" class="node">
<title>Node50</title>
<g id="a_Node000050"><a xlink:href="dsps__h__gen_8h.html" target="_top" xlink:title=" ">
<polygon fill="white" stroke="#666666" points="818.62,-300 741.88,-300 741.88,-280 818.62,-280 818.62,-300"/>
<text xml:space="preserve" text-anchor="middle" x="780.25" y="-286.5" font-family="Helvetica,sans-Serif" font-size="10.00">dsps_h_gen.h</text>
</a>
</g>
</g>
<!-- Node17&#45;&gt;Node50 -->
<g id="edge43_Node000017_Node000050" class="edge">
<title>Node17&#45;&gt;Node50</title>
<g id="a_edge43_Node000017_Node000050"><a xlink:title=" ">
<path fill="none" stroke="#63b8ff" d="M753,-335.59C757.3,-328.55 763.34,-318.67 768.64,-310"/>
<polygon fill="#63b8ff" stroke="#63b8ff" points="771.55,-311.95 773.78,-301.59 765.58,-308.3 771.55,-311.95"/>
</a>
</g>
</g>
<!-- Node51 -->
<g id="Node000051" class="node">
<title>Node51</title>
<g id="a_Node000051"><a xlink:href="dsps__tone__gen_8h.html" target="_top" xlink:title=" ">
<polygon fill="white" stroke="#666666" points="927.38,-300 837.12,-300 837.12,-280 927.38,-280 927.38,-300"/>
<text xml:space="preserve" text-anchor="middle" x="882.25" y="-286.5" font-family="Helvetica,sans-Serif" font-size="10.00">dsps_tone_gen.h</text>
</a>
</g>
</g>
<!-- Node17&#45;&gt;Node51 -->
<g id="edge45_Node000017_Node000051" class="edge">
<title>Node17&#45;&gt;Node51</title>
<g id="a_edge45_Node000017_Node000051"><a xlink:title=" ">
<path fill="none" stroke="#63b8ff" d="M770.77,-335.59C792.12,-327.05 823.88,-314.35 848.05,-304.68"/>
<polygon fill="#63b8ff" stroke="#63b8ff" points="849.16,-308.01 857.15,-301.04 846.56,-301.51 849.16,-308.01"/>
</a>
</g>
</g>
<!-- Node52 -->
<g id="Node000052" class="node">
<title>Node52</title>
<g id="a_Node000052"><a xlink:href="dsps__snr_8h.html" target="_top" xlink:title=" ">
<polygon fill="white" stroke="#666666" points="942.25,-244 878.25,-244 878.25,-224 942.25,-224 942.25,-244"/>
<text xml:space="preserve" text-anchor="middle" x="910.25" y="-230.5" font-family="Helvetica,sans-Serif" font-size="10.00">dsps_snr.h</text>
</a>
</g>
</g>
<!-- Node17&#45;&gt;Node52 -->
<g id="edge47_Node000017_Node000052" class="edge">
<title>Node17&#45;&gt;Node52</title>
<g id="a_edge47_Node000017_Node000052"><a xlink:title=" ">
<path fill="none" stroke="#63b8ff" d="M777.94,-342.23C826.33,-337.15 916.86,-324.55 936.25,-300 947.27,-286.05 937.21,-266.83 926.56,-252.91"/>
<polygon fill="#63b8ff" stroke="#63b8ff" points="929.41,-250.85 920.32,-245.41 924.03,-255.33 929.41,-250.85"/>
</a>
</g>
</g>
<!-- Node53 -->
<g id="Node000053" class="node">
<title>Node53</title>
<g id="a_Node000053"><a xlink:href="dsps__sfdr_8h.html" target="_top" xlink:title=" ">
<polygon fill="white" stroke="#666666" points="1027.75,-244 960.75,-244 960.75,-224 1027.75,-224 1027.75,-244"/>
<text xml:space="preserve" text-anchor="middle" x="994.25" y="-230.5" font-family="Helvetica,sans-Serif" font-size="10.00">dsps_sfdr.h</text>
</a>
</g>
</g>
<!-- Node17&#45;&gt;Node53 -->
<g id="edge49_Node000017_Node000053" class="edge">
<title>Node17&#45;&gt;Node53</title>
<g id="a_edge49_Node000017_Node000053"><a xlink:title=" ">
<path fill="none" stroke="#63b8ff" d="M777.91,-345.31C820.67,-344.29 898.96,-336.98 952.25,-300 968.28,-288.88 979.63,-269.47 986.46,-254.74"/>
<polygon fill="#63b8ff" stroke="#63b8ff" points="989.67,-256.15 990.38,-245.58 983.23,-253.4 989.67,-256.15"/>
</a>
</g>
</g>
<!-- Node54 -->
<g id="Node000054" class="node">
<title>Node54</title>
<g id="a_Node000054"><a xlink:href="dsps__fft2r_8h.html" target="_top" xlink:title=" ">
<polygon fill="#fff0f0" stroke="red" points="564.75,-188 497.75,-188 497.75,-168 564.75,-168 564.75,-188"/>
<text xml:space="preserve" text-anchor="middle" x="531.25" y="-174.5" font-family="Helvetica,sans-Serif" font-size="10.00">dsps_fft2r.h</text>
</a>
</g>
</g>
<!-- Node17&#45;&gt;Node54 -->
<g id="edge51_Node000017_Node000054" class="edge">
<title>Node17&#45;&gt;Node54</title>
<g id="a_edge51_Node000017_Node000054"><a xlink:title=" ">
<path fill="none" stroke="#63b8ff" d="M721.3,-335.59C697.28,-326.76 660.65,-313.01 629.25,-300 622.22,-297.09 508.39,-250.39 504.25,-244 494.73,-229.31 504.32,-210.71 514.61,-197.17"/>
<polygon fill="#63b8ff" stroke="#63b8ff" points="517.29,-199.43 521,-189.5 511.91,-194.95 517.29,-199.43"/>
</a>
</g>
</g>
<!-- Node57 -->
<g id="Node000057" class="node">
<title>Node57</title>
<g id="a_Node000057"><a xlink:href="dsps__fft4r_8h.html" target="_top" xlink:title=" ">
<polygon fill="#fff0f0" stroke="red" points="802.75,-188 735.75,-188 735.75,-168 802.75,-168 802.75,-188"/>
<text xml:space="preserve" text-anchor="middle" x="769.25" y="-174.5" font-family="Helvetica,sans-Serif" font-size="10.00">dsps_fft4r.h</text>
</a>
</g>
</g>
<!-- Node17&#45;&gt;Node57 -->
<g id="edge54_Node000017_Node000057" class="edge">
<title>Node17&#45;&gt;Node57</title>
<g id="a_edge54_Node000017_Node000057"><a xlink:title=" ">
<path fill="none" stroke="#63b8ff" d="M742.99,-335.79C737.7,-323.23 729.79,-300.02 733.25,-280 738.31,-250.71 751.06,-218.67 759.94,-198.7"/>
<polygon fill="#63b8ff" stroke="#63b8ff" points="763.03,-200.38 764.01,-189.83 756.66,-197.46 763.03,-200.38"/>
</a>
</g>
</g>
<!-- Node59 -->
<g id="Node000059" class="node">
<title>Node59</title>
<g id="a_Node000059"><a xlink:href="dsps__dct_8h.html" target="_top" xlink:title=" ">
<polygon fill="white" stroke="#666666" points="479.25,-188 415.25,-188 415.25,-168 479.25,-168 479.25,-188"/>
<text xml:space="preserve" text-anchor="middle" x="447.25" y="-174.5" font-family="Helvetica,sans-Serif" font-size="10.00">dsps_dct.h</text>
</a>
</g>
</g>
<!-- Node17&#45;&gt;Node59 -->
<g id="edge57_Node000017_Node000059" class="edge">
<title>Node17&#45;&gt;Node59</title>
<g id="a_edge57_Node000017_Node000059"><a xlink:title=" ">
<path fill="none" stroke="#63b8ff" d="M716.41,-343.51C632.24,-339.13 403.36,-324.99 381.25,-300 352.5,-267.49 397.61,-220.31 426.36,-195.57"/>
<polygon fill="#63b8ff" stroke="#63b8ff" points="428.4,-198.42 433.84,-189.34 423.92,-193.05 428.4,-198.42"/>
</a>
</g>
</g>
<!-- Node60 -->
<g id="Node000060" class="node">
<title>Node60</title>
<g id="a_Node000060"><a xlink:href="dspm__matrix_8h.html" target="_top" xlink:title=" ">
<polygon fill="#fff0f0" stroke="red" points="1189.5,-300 1109,-300 1109,-280 1189.5,-280 1189.5,-300"/>
<text xml:space="preserve" text-anchor="middle" x="1149.25" y="-286.5" font-family="Helvetica,sans-Serif" font-size="10.00">dspm_matrix.h</text>
</a>
</g>
</g>
<!-- Node17&#45;&gt;Node60 -->
<g id="edge60_Node000017_Node000060" class="edge">
<title>Node17&#45;&gt;Node60</title>
<g id="a_edge60_Node000017_Node000060"><a xlink:title=" ">
<path fill="none" stroke="#63b8ff" d="M778.02,-341.65C837.63,-335.04 973.26,-319.41 1097.43,-300.37"/>
<polygon fill="#63b8ff" stroke="#63b8ff" points="1097.79,-303.86 1107.14,-298.87 1096.72,-296.94 1097.79,-303.86"/>
</a>
</g>
</g>
<!-- Node71 -->
<g id="Node000071" class="node">
<title>Node71</title>
<g id="a_Node000071"><a xlink:href="dsps__view_8h.html" target="_top" xlink:title=" ">
<polygon fill="white" stroke="#666666" points="1091.25,-300 1021.25,-300 1021.25,-280 1091.25,-280 1091.25,-300"/>
<text xml:space="preserve" text-anchor="middle" x="1056.25" y="-286.5" font-family="Helvetica,sans-Serif" font-size="10.00">dsps_view.h</text>
</a>
</g>
</g>
<!-- Node17&#45;&gt;Node71 -->
<g id="edge61_Node000017_Node000071" class="edge">
<title>Node17&#45;&gt;Node71</title>
<g id="a_edge61_Node000017_Node000071"><a xlink:title=" ">
<path fill="none" stroke="#63b8ff" d="M778.09,-339.77C826.79,-331.48 924.49,-314.76 1007.25,-300 1008.08,-299.85 1008.92,-299.7 1009.76,-299.55"/>
<polygon fill="#63b8ff" stroke="#63b8ff" points="1010.22,-303.02 1019.44,-297.8 1008.98,-296.14 1010.22,-303.02"/>
</a>
</g>
</g>
<!-- Node72 -->
<g id="Node000072" class="node">
<title>Node72</title>
<g id="a_Node000072"><a xlink:href="dspi__dotprod_8h.html" target="_top" xlink:title=" ">
<polygon fill="#fff0f0" stroke="red" points="593.12,-244 513.38,-244 513.38,-224 593.12,-224 593.12,-244"/>
<text xml:space="preserve" text-anchor="middle" x="553.25" y="-230.5" font-family="Helvetica,sans-Serif" font-size="10.00">dspi_dotprod.h</text>
</a>
</g>
</g>
<!-- Node17&#45;&gt;Node72 -->
<g id="edge63_Node000017_Node000072" class="edge">
<title>Node17&#45;&gt;Node72</title>
<g id="a_edge63_Node000017_Node000072"><a xlink:title=" ">
<path fill="none" stroke="#63b8ff" d="M730.71,-335.62C697.06,-316.54 620.41,-273.08 579.73,-250.02"/>
<polygon fill="#63b8ff" stroke="#63b8ff" points="581.49,-246.99 571.07,-245.1 578.04,-253.08 581.49,-246.99"/>
</a>
</g>
</g>
<!-- Node74 -->
<g id="Node000074" class="node">
<title>Node74</title>
<g id="a_Node000074"><a xlink:href="dspi__conv_8h.html" target="_top" xlink:title=" ">
<polygon fill="#fff0f0" stroke="red" points="679.12,-244 611.38,-244 611.38,-224 679.12,-224 679.12,-244"/>
<text xml:space="preserve" text-anchor="middle" x="645.25" y="-230.5" font-family="Helvetica,sans-Serif" font-size="10.00">dspi_conv.h</text>
</a>
</g>
</g>
<!-- Node17&#45;&gt;Node74 -->
<g id="edge66_Node000017_Node000074" class="edge">
<title>Node17&#45;&gt;Node74</title>
<g id="a_edge66_Node000017_Node000074"><a xlink:title=" ">
<path fill="none" stroke="#63b8ff" d="M736.86,-335.64C727.13,-326.74 712.32,-312.84 700.25,-300 685.74,-284.58 670.25,-266.06 659.42,-252.75"/>
<polygon fill="#63b8ff" stroke="#63b8ff" points="662.39,-250.85 653.39,-245.27 656.94,-255.25 662.39,-250.85"/>
</a>
</g>
</g>
<!-- Node18&#45;&gt;Node4 -->
<g id="edge23_Node000018_Node000004" class="edge">
<title>Node18&#45;&gt;Node4</title>
<g id="a_edge23_Node000018_Node000004"><a xlink:title=" ">
<path fill="none" stroke="#63b8ff" d="M258.51,-167.75C269.34,-159.54 284.28,-146.6 293.25,-132 301.64,-118.35 306.48,-100.81 309.17,-87.39"/>
<polygon fill="#63b8ff" stroke="#63b8ff" points="312.55,-88.4 310.82,-77.95 305.66,-87.2 312.55,-88.4"/>
</a>
</g>
</g>
<!-- Node18&#45;&gt;Node11 -->
<g id="edge24_Node000018_Node000011" class="edge">
<title>Node18&#45;&gt;Node11</title>
<g id="a_edge24_Node000018_Node000011"><a xlink:title=" ">
<path fill="none" stroke="#63b8ff" d="M247.17,-167.59C248.52,-160.93 250.39,-151.75 252.09,-143.44"/>
<polygon fill="#63b8ff" stroke="#63b8ff" points="255.49,-144.28 254.05,-133.78 248.63,-142.88 255.49,-144.28"/>
</a>
</g>
</g>
<!-- Node20&#45;&gt;Node3 -->
<g id="edge26_Node000020_Node000003" class="edge">
<title>Node20&#45;&gt;Node3</title>
<g id="a_edge26_Node000020_Node000003"><a xlink:title=" ">
<path fill="none" stroke="#63b8ff" d="M1120.17,-223.81C1111.75,-209.5 1093.52,-182.09 1070.25,-168 1020.06,-137.61 951.64,-127.69 908.97,-124.49"/>
<polygon fill="#63b8ff" stroke="#63b8ff" points="909.38,-121 899.17,-123.85 908.92,-127.99 909.38,-121"/>
</a>
</g>
</g>
<!-- Node35&#45;&gt;Node2 -->
<g id="edge31_Node000035_Node000002" class="edge">
<title>Node35&#45;&gt;Node2</title>
<g id="a_edge31_Node000035_Node000002"><a xlink:title=" ">
<path fill="none" stroke="#63b8ff" d="M486.68,-279.53C447.22,-269.85 386.17,-254.86 345.96,-244.99"/>
<polygon fill="#63b8ff" stroke="#63b8ff" points="346.97,-241.64 336.43,-242.65 345.3,-248.44 346.97,-241.64"/>
</a>
</g>
</g>
<!-- Node35&#45;&gt;Node3 -->
<g id="edge30_Node000035_Node000003" class="edge">
<title>Node35&#45;&gt;Node3</title>
<g id="a_edge30_Node000035_Node000003"><a xlink:title=" ">
<path fill="none" stroke="#63b8ff" d="M572.35,-286.06C607.65,-281.66 655.35,-270.77 688.25,-244 717.7,-220.04 698.26,-192.51 727.25,-168 756.15,-143.57 798.39,-132.37 829.29,-127.25"/>
<polygon fill="#63b8ff" stroke="#63b8ff" points="829.66,-130.74 839.03,-125.8 828.63,-123.81 829.66,-130.74"/>
</a>
</g>
</g>
<!-- Node36&#45;&gt;Node3 -->
<g id="edge33_Node000036_Node000003" class="edge">
<title>Node36&#45;&gt;Node3</title>
<g id="a_edge33_Node000036_Node000003"><a xlink:title=" ">
<path fill="none" stroke="#63b8ff" d="M1209.09,-223.56C1185.73,-209.42 1139.12,-182.82 1096.25,-168 1032.67,-146.03 955.16,-133.55 909.14,-127.54"/>
<polygon fill="#63b8ff" stroke="#63b8ff" points="909.72,-124.09 899.36,-126.31 908.85,-131.03 909.72,-124.09"/>
</a>
</g>
</g>
<!-- Node38&#45;&gt;Node3 -->
<g id="edge35_Node000038_Node000003" class="edge">
<title>Node38&#45;&gt;Node3</title>
<g id="a_edge35_Node000038_Node000003"><a xlink:title=" ">
<path fill="none" stroke="#63b8ff" d="M1191.08,-169.72C1116.28,-158.86 977.03,-138.65 908.88,-128.75"/>
<polygon fill="#63b8ff" stroke="#63b8ff" points="909.69,-125.33 899.29,-127.36 908.69,-132.26 909.69,-125.33"/>
</a>
</g>
</g>
<!-- Node46&#45;&gt;Node3 -->
<g id="edge38_Node000046_Node000003" class="edge">
<title>Node46&#45;&gt;Node3</title>
<g id="a_edge38_Node000046_Node000003"><a xlink:title=" ">
<path fill="none" stroke="#63b8ff" d="M1350.61,-223.96C1342.58,-209.34 1324.56,-180.85 1300.25,-168 1232.95,-132.42 1002.7,-124.97 909.2,-123.41"/>
<polygon fill="#63b8ff" stroke="#63b8ff" points="909.28,-119.91 899.23,-123.26 909.17,-126.91 909.28,-119.91"/>
</a>
</g>
</g>
<!-- Node48&#45;&gt;Node3 -->
<g id="edge40_Node000048_Node000003" class="edge">
<title>Node48&#45;&gt;Node3</title>
<g id="a_edge40_Node000048_Node000003"><a xlink:title=" ">
<path fill="none" stroke="#63b8ff" d="M1358.46,-170.77C1352.41,-169.76 1346.15,-168.79 1340.25,-168 1181.14,-146.66 990.47,-131.68 909.15,-125.78"/>
<polygon fill="#63b8ff" stroke="#63b8ff" points="909.48,-122.3 899.25,-125.07 908.97,-129.28 909.48,-122.3"/>
</a>
</g>
</g>
<!-- Node49&#45;&gt;Node3 -->
<g id="edge42_Node000049_Node000003" class="edge">
<title>Node49&#45;&gt;Node3</title>
<g id="a_edge42_Node000049_Node000003"><a xlink:title=" ">
<path fill="none" stroke="#63b8ff" d="M1457.98,-279.68C1461.64,-256.74 1467.39,-197.3 1435.25,-168 1396.52,-132.69 1031.53,-124.99 909.08,-123.4"/>
<polygon fill="#63b8ff" stroke="#63b8ff" points="909.23,-119.9 899.19,-123.28 909.14,-126.9 909.23,-119.9"/>
</a>
</g>
</g>
<!-- Node50&#45;&gt;Node3 -->
<g id="edge44_Node000050_Node000003" class="edge">
<title>Node50&#45;&gt;Node3</title>
<g id="a_edge44_Node000050_Node000003"><a xlink:title=" ">
<path fill="none" stroke="#63b8ff" d="M785.29,-279.6C799.43,-253.23 839.66,-178.19 858.84,-142.42"/>
<polygon fill="#63b8ff" stroke="#63b8ff" points="861.91,-144.1 863.55,-133.63 855.74,-140.79 861.91,-144.1"/>
</a>
</g>
</g>
<!-- Node51&#45;&gt;Node3 -->
<g id="edge46_Node000051_Node000003" class="edge">
<title>Node51&#45;&gt;Node3</title>
<g id="a_edge46_Node000051_Node000003"><a xlink:title=" ">
<path fill="none" stroke="#63b8ff" d="M878.66,-279.51C875.47,-270.52 871.03,-256.56 869.25,-244 864.31,-209.09 865.85,-167.95 867.49,-143.75"/>
<polygon fill="#63b8ff" stroke="#63b8ff" points="870.97,-144.22 868.24,-133.99 863.99,-143.69 870.97,-144.22"/>
</a>
</g>
</g>
<!-- Node52&#45;&gt;Node3 -->
<g id="edge48_Node000052_Node000003" class="edge">
<title>Node52&#45;&gt;Node3</title>
<g id="a_edge48_Node000052_Node000003"><a xlink:title=" ">
<path fill="none" stroke="#63b8ff" d="M906.75,-223.62C900.13,-205.84 885.61,-166.88 876.7,-143"/>
<polygon fill="#63b8ff" stroke="#63b8ff" points="880.04,-141.92 873.27,-133.77 873.48,-144.37 880.04,-141.92"/>
</a>
</g>
</g>
<!-- Node53&#45;&gt;Node3 -->
<g id="edge50_Node000053_Node000003" class="edge">
<title>Node53&#45;&gt;Node3</title>
<g id="a_edge50_Node000053_Node000003"><a xlink:title=" ">
<path fill="none" stroke="#63b8ff" d="M983.59,-223.62C962.47,-205.03 915.02,-163.28 888.37,-139.82"/>
<polygon fill="#63b8ff" stroke="#63b8ff" points="890.84,-137.33 881.02,-133.35 886.21,-142.59 890.84,-137.33"/>
</a>
</g>
</g>
<!-- Node54&#45;&gt;Node3 -->
<g id="edge52_Node000054_Node000003" class="edge">
<title>Node54&#45;&gt;Node3</title>
<g id="a_edge52_Node000054_Node000003"><a xlink:title=" ">
<path fill="none" stroke="#63b8ff" d="M565.05,-170.52C569.82,-169.65 574.65,-168.79 579.25,-168 668.56,-152.7 773.75,-136.94 829.64,-128.74"/>
<polygon fill="#63b8ff" stroke="#63b8ff" points="829.91,-132.24 839.3,-127.33 828.9,-125.31 829.91,-132.24"/>
</a>
</g>
</g>
<!-- Node54&#45;&gt;Node9 -->
<g id="edge53_Node000054_Node000009" class="edge">
<title>Node54&#45;&gt;Node9</title>
<g id="a_edge53_Node000054_Node000009"><a xlink:title=" ">
<path fill="none" stroke="#63b8ff" d="M523.93,-167.59C518.27,-160.32 510.26,-150.02 503.36,-141.15"/>
<polygon fill="#63b8ff" stroke="#63b8ff" points="506.31,-139.24 497.41,-133.49 500.79,-143.54 506.31,-139.24"/>
</a>
</g>
</g>
<!-- Node57&#45;&gt;Node3 -->
<g id="edge55_Node000057_Node000003" class="edge">
<title>Node57&#45;&gt;Node3</title>
<g id="a_edge55_Node000057_Node000003"><a xlink:title=" ">
<path fill="none" stroke="#63b8ff" d="M786.67,-167.59C801.92,-159.36 824.33,-147.26 841.96,-137.74"/>
<polygon fill="#63b8ff" stroke="#63b8ff" points="843.23,-141.03 850.36,-133.2 839.9,-134.87 843.23,-141.03"/>
</a>
</g>
</g>
<!-- Node57&#45;&gt;Node9 -->
<g id="edge56_Node000057_Node000009" class="edge">
<title>Node57&#45;&gt;Node9</title>
<g id="a_edge56_Node000057_Node000009"><a xlink:title=" ">
<path fill="none" stroke="#63b8ff" d="M735.48,-170.49C684.99,-160.75 589.8,-142.39 533.72,-131.58"/>
<polygon fill="#63b8ff" stroke="#63b8ff" points="534.68,-128.2 524.19,-129.74 533.35,-135.07 534.68,-128.2"/>
</a>
</g>
</g>
<!-- Node59&#45;&gt;Node3 -->
<g id="edge58_Node000059_Node000003" class="edge">
<title>Node59&#45;&gt;Node3</title>
<g id="a_edge58_Node000059_Node000003"><a xlink:title=" ">
<path fill="none" stroke="#63b8ff" d="M479.29,-169.81C482.65,-169.16 486.01,-168.54 489.25,-168 612.54,-147.54 759.82,-132.85 829.27,-126.5"/>
<polygon fill="#63b8ff" stroke="#63b8ff" points="829.37,-130 839.01,-125.62 828.74,-123.03 829.37,-130"/>
</a>
</g>
</g>
<!-- Node59&#45;&gt;Node9 -->
<g id="edge59_Node000059_Node000009" class="edge">
<title>Node59&#45;&gt;Node9</title>
<g id="a_edge59_Node000059_Node000009"><a xlink:title=" ">
<path fill="none" stroke="#63b8ff" d="M454.57,-167.59C460.23,-160.32 468.24,-150.02 475.14,-141.15"/>
<polygon fill="#63b8ff" stroke="#63b8ff" points="477.71,-143.54 481.09,-133.49 472.19,-139.24 477.71,-143.54"/>
</a>
</g>
</g>
<!-- Node71&#45;&gt;Node3 -->
<g id="edge62_Node000071_Node000003" class="edge">
<title>Node71&#45;&gt;Node3</title>
<g id="a_edge62_Node000071_Node000003"><a xlink:title=" ">
<path fill="none" stroke="#63b8ff" d="M1055.61,-279.66C1054.27,-266.12 1050.09,-240.82 1037.25,-224 1004.04,-180.47 946.22,-151.77 907.84,-136.44"/>
<polygon fill="#63b8ff" stroke="#63b8ff" points="909.57,-133.36 898.98,-133.02 907.05,-139.89 909.57,-133.36"/>
</a>
</g>
</g>
<!-- Node72&#45;&gt;Node3 -->
<g id="edge64_Node000072_Node000003" class="edge">
<title>Node72&#45;&gt;Node3</title>
<g id="a_edge64_Node000072_Node000003"><a xlink:title=" ">
<path fill="none" stroke="#63b8ff" d="M566.76,-223.6C587.6,-209.52 629.3,-182.99 668.25,-168 722.13,-147.27 787.99,-134.79 829.29,-128.4"/>
<polygon fill="#63b8ff" stroke="#63b8ff" points="829.65,-131.88 839.02,-126.94 828.61,-124.96 829.65,-131.88"/>
</a>
</g>
</g>
<!-- Node72&#45;&gt;Node18 -->
<g id="edge65_Node000072_Node000018" class="edge">
<title>Node72&#45;&gt;Node18</title>
<g id="a_edge65_Node000072_Node000018"><a xlink:title=" ">
<path fill="none" stroke="#63b8ff" d="M513.21,-226.69C463.42,-218.73 375.57,-204.35 291.05,-188.48"/>
<polygon fill="#63b8ff" stroke="#63b8ff" points="291.92,-185.08 281.45,-186.66 290.63,-191.96 291.92,-185.08"/>
</a>
</g>
</g>
<!-- Node74&#45;&gt;Node3 -->
<g id="edge67_Node000074_Node000003" class="edge">
<title>Node74&#45;&gt;Node3</title>
<g id="a_edge67_Node000074_Node000003"><a xlink:title=" ">
<path fill="none" stroke="#63b8ff" d="M649.42,-223.89C656.41,-209.69 671.84,-182.41 693.25,-168 734.5,-140.23 791.71,-129.59 829.57,-125.52"/>
<polygon fill="#63b8ff" stroke="#63b8ff" points="829.53,-129.04 839.15,-124.6 828.86,-122.08 829.53,-129.04"/>
</a>
</g>
</g>
<!-- Node74&#45;&gt;Node18 -->
<g id="edge68_Node000074_Node000018" class="edge">
<title>Node74&#45;&gt;Node18</title>
<g id="a_edge68_Node000074_Node000018"><a xlink:title=" ">
<path fill="none" stroke="#63b8ff" d="M611.04,-225.54C608.07,-224.99 605.11,-224.46 602.25,-224 467.1,-202.16 428.85,-209.98 290.92,-188.3"/>
<polygon fill="#63b8ff" stroke="#63b8ff" points="291.85,-184.91 281.43,-186.78 290.75,-191.82 291.85,-184.91"/>
</a>
</g>
</g>
</g>
</svg>
