<?xml version="1.0" encoding="UTF-8" standalone="no"?>
<!DOCTYPE svg PUBLIC "-//W3C//DTD SVG 1.1//EN"
 "http://www.w3.org/Graphics/SVG/1.1/DTD/svg11.dtd">
<!-- Generated by graphviz version 14.1.2 (20260124.0452)
 -->
<!-- Title: dsps_mem.h Pages: 1 -->
<svg width="496pt" height="252pt"
 viewBox="0.00 0.00 496.00 252.00" xmlns="http://www.w3.org/2000/svg" xmlns:xlink="http://www.w3.org/1999/xlink">
<g id="graph0" class="graph" transform="scale(1 1) rotate(0) translate(4 248)">
<title>dsps_mem.h</title>
<!-- Node1 -->
<g id="Node000001" class="node">
<title>Node1</title>
<g id="a_Node000001"><a xlink:title=" ">
<polygon fill="#999999" stroke="#666666" points="297.38,-244 225.12,-244 225.12,-224 297.38,-224 297.38,-244"/>
<text xml:space="preserve" text-anchor="middle" x="261.25" y="-230.5" font-family="Helvetica,sans-Serif" font-size="10.00">dsps_mem.h</text>
</a>
</g>
</g>
<!-- Node2 -->
<g id="Node000002" class="node">
<title>Node2</title>
<g id="a_Node000002"><a xlink:href="dsp__err_8h.html" target="_top" xlink:title=" ">
<polygon fill="white" stroke="#666666" points="101.5,-132 45,-132 45,-112 101.5,-112 101.5,-132"/>
<text xml:space="preserve" text-anchor="middle" x="73.25" y="-118.5" font-family="Helvetica,sans-Serif" font-size="10.00">dsp_err.h</text>
</a>
</g>
</g>
<!-- Node1&#45;&gt;Node2 -->
<g id="edge1_Node000001_Node000002" class="edge">
<title>Node1&#45;&gt;Node2</title>
<g id="a_edge1_Node000001_Node000002"><a xlink:title=" ">
<path fill="none" stroke="#63b8ff" d="M245.22,-223.62C212.69,-204.58 138.64,-161.26 99.17,-138.16"/>
<polygon fill="#63b8ff" stroke="#63b8ff" points="100.94,-135.15 90.54,-133.12 97.41,-141.19 100.94,-135.15"/>
</a>
</g>
</g>
<!-- Node7 -->
<g id="Node000007" class="node">
<title>Node7</title>
<g id="a_Node000007"><a xlink:href="dsp__common_8h.html" target="_top" xlink:title=" ">
<polygon fill="white" stroke="#666666" points="302.62,-188 219.88,-188 219.88,-168 302.62,-168 302.62,-188"/>
<text xml:space="preserve" text-anchor="middle" x="261.25" y="-174.5" font-family="Helvetica,sans-Serif" font-size="10.00">dsp_common.h</text>
</a>
</g>
</g>
<!-- Node1&#45;&gt;Node7 -->
<g id="edge6_Node000001_Node000007" class="edge">
<title>Node1&#45;&gt;Node7</title>
<g id="a_edge6_Node000001_Node000007"><a xlink:title=" ">
<path fill="none" stroke="#63b8ff" d="M261.25,-223.59C261.25,-217.01 261.25,-207.96 261.25,-199.73"/>
<polygon fill="#63b8ff" stroke="#63b8ff" points="264.75,-199.81 261.25,-189.81 257.75,-199.81 264.75,-199.81"/>
</a>
</g>
</g>
<!-- Node11 -->
<g id="Node000011" class="node">
<title>Node11</title>
<g id="a_Node000011"><a xlink:href="dsps__mem__platform_8h.html" target="_top" xlink:title=" ">
<polygon fill="white" stroke="#666666" points="472.62,-188 359.88,-188 359.88,-168 472.62,-168 472.62,-188"/>
<text xml:space="preserve" text-anchor="middle" x="416.25" y="-174.5" font-family="Helvetica,sans-Serif" font-size="10.00">dsps_mem_platform.h</text>
</a>
</g>
</g>
<!-- Node1&#45;&gt;Node11 -->
<g id="edge12_Node000001_Node000011" class="edge">
<title>Node1&#45;&gt;Node11</title>
<g id="a_edge12_Node000001_Node000011"><a xlink:title=" ">
<path fill="none" stroke="#63b8ff" d="M288.25,-223.59C313.21,-214.9 350.55,-201.89 378.47,-192.16"/>
<polygon fill="#63b8ff" stroke="#63b8ff" points="379.32,-195.57 387.61,-188.98 377.02,-188.96 379.32,-195.57"/>
</a>
</g>
</g>
<!-- Node3 -->
<g id="Node000003" class="node">
<title>Node3</title>
<g id="a_Node000003"><a xlink:title=" ">
<polygon fill="#e0e0e0" stroke="#999999" points="286.38,-76 238.12,-76 238.12,-56 286.38,-56 286.38,-76"/>
<text xml:space="preserve" text-anchor="middle" x="262.25" y="-62.5" font-family="Helvetica,sans-Serif" font-size="10.00">stdint.h</text>
</a>
</g>
</g>
<!-- Node2&#45;&gt;Node3 -->
<g id="edge2_Node000002_Node000003" class="edge">
<title>Node2&#45;&gt;Node3</title>
<g id="a_edge2_Node000002_Node000003"><a xlink:title=" ">
<path fill="none" stroke="#63b8ff" d="M101.96,-112.8C135.41,-103.24 190.7,-87.44 226.8,-77.13"/>
<polygon fill="#63b8ff" stroke="#63b8ff" points="227.69,-80.52 236.34,-74.4 225.76,-73.79 227.69,-80.52"/>
</a>
</g>
</g>
<!-- Node4 -->
<g id="Node000004" class="node">
<title>Node4</title>
<g id="a_Node000004"><a xlink:href="esp__err_8h.html" target="_top" xlink:title=" ">
<polygon fill="white" stroke="#666666" points="56.5,-76 0,-76 0,-56 56.5,-56 56.5,-76"/>
<text xml:space="preserve" text-anchor="middle" x="28.25" y="-62.5" font-family="Helvetica,sans-Serif" font-size="10.00">esp_err.h</text>
</a>
</g>
</g>
<!-- Node2&#45;&gt;Node4 -->
<g id="edge3_Node000002_Node000004" class="edge">
<title>Node2&#45;&gt;Node4</title>
<g id="a_edge3_Node000002_Node000004"><a xlink:title=" ">
<path fill="none" stroke="#63b8ff" d="M65.41,-111.59C59.28,-104.24 50.58,-93.8 43.14,-84.87"/>
<polygon fill="#63b8ff" stroke="#63b8ff" points="46.06,-82.9 36.97,-77.46 40.68,-87.38 46.06,-82.9"/>
</a>
</g>
</g>
<!-- Node6 -->
<g id="Node000006" class="node">
<title>Node6</title>
<g id="a_Node000006"><a xlink:href="dsp__err__codes_8h.html" target="_top" xlink:title=" ">
<polygon fill="white" stroke="#666666" points="162.25,-76 74.25,-76 74.25,-56 162.25,-56 162.25,-76"/>
<text xml:space="preserve" text-anchor="middle" x="118.25" y="-62.5" font-family="Helvetica,sans-Serif" font-size="10.00">dsp_err_codes.h</text>
</a>
</g>
</g>
<!-- Node2&#45;&gt;Node6 -->
<g id="edge5_Node000002_Node000006" class="edge">
<title>Node2&#45;&gt;Node6</title>
<g id="a_edge5_Node000002_Node000006"><a xlink:title=" ">
<path fill="none" stroke="#63b8ff" d="M81.09,-111.59C87.22,-104.24 95.92,-93.8 103.36,-84.87"/>
<polygon fill="#63b8ff" stroke="#63b8ff" points="105.82,-87.38 109.53,-77.46 100.44,-82.9 105.82,-87.38"/>
</a>
</g>
</g>
<!-- Node5 -->
<g id="Node000005" class="node">
<title>Node5</title>
<g id="a_Node000005"><a xlink:title=" ">
<polygon fill="#e0e0e0" stroke="#999999" points="52,-20 4.5,-20 4.5,0 52,0 52,-20"/>
<text xml:space="preserve" text-anchor="middle" x="28.25" y="-6.5" font-family="Helvetica,sans-Serif" font-size="10.00">stdlib.h</text>
</a>
</g>
</g>
<!-- Node4&#45;&gt;Node5 -->
<g id="edge4_Node000004_Node000005" class="edge">
<title>Node4&#45;&gt;Node5</title>
<g id="a_edge4_Node000004_Node000005"><a xlink:title=" ">
<path fill="none" stroke="#63b8ff" d="M28.25,-55.59C28.25,-49.01 28.25,-39.96 28.25,-31.73"/>
<polygon fill="#63b8ff" stroke="#63b8ff" points="31.75,-31.81 28.25,-21.81 24.75,-31.81 31.75,-31.81"/>
</a>
</g>
</g>
<!-- Node7&#45;&gt;Node2 -->
<g id="edge9_Node000007_Node000002" class="edge">
<title>Node7&#45;&gt;Node2</title>
<g id="a_edge9_Node000007_Node000002"><a xlink:title=" ">
<path fill="none" stroke="#63b8ff" d="M228.5,-167.59C196.37,-158.36 147.31,-144.27 112.97,-134.41"/>
<polygon fill="#63b8ff" stroke="#63b8ff" points="113.96,-131.05 103.39,-131.66 112.03,-137.78 113.96,-131.05"/>
</a>
</g>
</g>
<!-- Node7&#45;&gt;Node3 -->
<g id="edge7_Node000007_Node000003" class="edge">
<title>Node7&#45;&gt;Node3</title>
<g id="a_edge7_Node000007_Node000003"><a xlink:title=" ">
<path fill="none" stroke="#63b8ff" d="M273.28,-167.78C282.9,-159.59 295.68,-146.66 301.25,-132 307.93,-114.44 295.03,-96.26 282.32,-83.6"/>
<polygon fill="#63b8ff" stroke="#63b8ff" points="285.04,-81.35 275.31,-77.17 280.31,-86.51 285.04,-81.35"/>
</a>
</g>
</g>
<!-- Node8 -->
<g id="Node000008" class="node">
<title>Node8</title>
<g id="a_Node000008"><a xlink:title=" ">
<polygon fill="#e0e0e0" stroke="#999999" points="404.12,-132 348.38,-132 348.38,-112 404.12,-112 404.12,-132"/>
<text xml:space="preserve" text-anchor="middle" x="376.25" y="-118.5" font-family="Helvetica,sans-Serif" font-size="10.00">stdbool.h</text>
</a>
</g>
</g>
<!-- Node7&#45;&gt;Node8 -->
<g id="edge8_Node000007_Node000008" class="edge">
<title>Node7&#45;&gt;Node8</title>
<g id="a_edge8_Node000007_Node000008"><a xlink:title=" ">
<path fill="none" stroke="#63b8ff" d="M281.28,-167.59C299.06,-159.24 325.32,-146.92 345.71,-137.34"/>
<polygon fill="#63b8ff" stroke="#63b8ff" points="347.13,-140.54 354.69,-133.12 344.15,-134.21 347.13,-140.54"/>
</a>
</g>
</g>
<!-- Node9 -->
<g id="Node000009" class="node">
<title>Node9</title>
<g id="a_Node000009"><a xlink:title=" ">
<polygon fill="#e0e0e0" stroke="#999999" points="212.5,-132 120,-132 120,-112 212.5,-112 212.5,-132"/>
<text xml:space="preserve" text-anchor="middle" x="166.25" y="-118.5" font-family="Helvetica,sans-Serif" font-size="10.00">esp_idf_version.h</text>
</a>
</g>
</g>
<!-- Node7&#45;&gt;Node9 -->
<g id="edge10_Node000007_Node000009" class="edge">
<title>Node7&#45;&gt;Node9</title>
<g id="a_edge10_Node000007_Node000009"><a xlink:title=" ">
<path fill="none" stroke="#63b8ff" d="M244.7,-167.59C230.35,-159.44 209.32,-147.48 192.65,-138"/>
<polygon fill="#63b8ff" stroke="#63b8ff" points="194.67,-135.13 184.24,-133.23 191.21,-141.21 194.67,-135.13"/>
</a>
</g>
</g>
<!-- Node10 -->
<g id="Node000010" class="node">
<title>Node10</title>
<g id="a_Node000010"><a xlink:title=" ">
<polygon fill="#e0e0e0" stroke="#999999" points="291.75,-132 230.75,-132 230.75,-112 291.75,-112 291.75,-132"/>
<text xml:space="preserve" text-anchor="middle" x="261.25" y="-118.5" font-family="Helvetica,sans-Serif" font-size="10.00">x86intrin.h</text>
</a>
</g>
</g>
<!-- Node7&#45;&gt;Node10 -->
<g id="edge11_Node000007_Node000010" class="edge">
<title>Node7&#45;&gt;Node10</title>
<g id="a_edge11_Node000007_Node000010"><a xlink:title=" ">
<path fill="none" stroke="#63b8ff" d="M261.25,-167.59C261.25,-161.01 261.25,-151.96 261.25,-143.73"/>
<polygon fill="#63b8ff" stroke="#63b8ff" points="264.75,-143.81 261.25,-133.81 257.75,-143.81 264.75,-143.81"/>
</a>
</g>
</g>
<!-- Node12 -->
<g id="Node000012" class="node">
<title>Node12</title>
<g id="a_Node000012"><a xlink:title=" ">
<polygon fill="#e0e0e0" stroke="#999999" points="488.38,-132 422.12,-132 422.12,-112 488.38,-112 488.38,-132"/>
<text xml:space="preserve" text-anchor="middle" x="455.25" y="-118.5" font-family="Helvetica,sans-Serif" font-size="10.00">sdkconfig.h</text>
</a>
</g>
</g>
<!-- Node11&#45;&gt;Node12 -->
<g id="edge13_Node000011_Node000012" class="edge">
<title>Node11&#45;&gt;Node12</title>
<g id="a_edge13_Node000011_Node000012"><a xlink:title=" ">
<path fill="none" stroke="#63b8ff" d="M423.04,-167.59C428.24,-160.39 435.58,-150.23 441.94,-141.43"/>
<polygon fill="#63b8ff" stroke="#63b8ff" points="444.63,-143.68 447.65,-133.53 438.96,-139.58 444.63,-143.68"/>
</a>
</g>
</g>
</g>
</svg>
