<?xml version="1.0" encoding="UTF-8" standalone="no"?>
<!DOCTYPE svg PUBLIC "-//W3C//DTD SVG 1.1//EN"
 "http://www.w3.org/Graphics/SVG/1.1/DTD/svg11.dtd">
<!-- Generated by graphviz version 14.1.2 (20260124.0452)
 -->
<!-- Title: dsps_add_f32_ansi.c Pages: 1 -->
<svg width="320pt" height="196pt"
 viewBox="0.00 0.00 320.00 196.00" xmlns="http://www.w3.org/2000/svg" xmlns:xlink="http://www.w3.org/1999/xlink">
<g id="graph0" class="graph" transform="scale(1 1) rotate(0) translate(4 192)">
<title>dsps_add_f32_ansi.c</title>
<!-- Node1 -->
<g id="Node000001" class="node">
<title>Node1</title>
<g id="a_Node000001"><a xlink:title=" ">
<polygon fill="#999999" stroke="#666666" points="240.25,-188 132,-188 132,-168 240.25,-168 240.25,-188"/>
<text xml:space="preserve" text-anchor="middle" x="186.12" y="-174.5" font-family="Helvetica,sans-Serif" font-size="10.00">dsps_add_f32_ansi.c</text>
</a>
</g>
</g>
<!-- Node2 -->
<g id="Node000002" class="node">
<title>Node2</title>
<g id="a_Node000002"><a xlink:href="dsps__add_8h.html" target="_top" xlink:title=" ">
<polygon fill="white" stroke="#666666" points="219.25,-132 153,-132 153,-112 219.25,-112 219.25,-132"/>
<text xml:space="preserve" text-anchor="middle" x="186.12" y="-118.5" font-family="Helvetica,sans-Serif" font-size="10.00">dsps_add.h</text>
</a>
</g>
</g>
<!-- Node1&#45;&gt;Node2 -->
<g id="edge1_Node000001_Node000002" class="edge">
<title>Node1&#45;&gt;Node2</title>
<g id="a_edge1_Node000001_Node000002"><a xlink:title=" ">
<path fill="none" stroke="#63b8ff" d="M186.12,-167.59C186.12,-161.01 186.12,-151.96 186.12,-143.73"/>
<polygon fill="#63b8ff" stroke="#63b8ff" points="189.63,-143.81 186.13,-133.81 182.63,-143.81 189.63,-143.81"/>
</a>
</g>
</g>
<!-- Node3 -->
<g id="Node000003" class="node">
<title>Node3</title>
<g id="a_Node000003"><a xlink:href="dsp__err_8h.html" target="_top" xlink:title=" ">
<polygon fill="white" stroke="#666666" points="164.38,-76 107.88,-76 107.88,-56 164.38,-56 164.38,-76"/>
<text xml:space="preserve" text-anchor="middle" x="136.12" y="-62.5" font-family="Helvetica,sans-Serif" font-size="10.00">dsp_err.h</text>
</a>
</g>
</g>
<!-- Node2&#45;&gt;Node3 -->
<g id="edge2_Node000002_Node000003" class="edge">
<title>Node2&#45;&gt;Node3</title>
<g id="a_edge2_Node000002_Node000003"><a xlink:title=" ">
<path fill="none" stroke="#63b8ff" d="M177.42,-111.59C170.53,-104.16 160.73,-93.58 152.41,-84.58"/>
<polygon fill="#63b8ff" stroke="#63b8ff" points="155.13,-82.37 145.76,-77.41 149.99,-87.12 155.13,-82.37"/>
</a>
</g>
</g>
<!-- Node8 -->
<g id="Node000008" class="node">
<title>Node8</title>
<g id="a_Node000008"><a xlink:href="dsps__add__platform_8h.html" target="_top" xlink:title=" ">
<polygon fill="white" stroke="#666666" points="310.5,-76 203.75,-76 203.75,-56 310.5,-56 310.5,-76"/>
<text xml:space="preserve" text-anchor="middle" x="257.12" y="-62.5" font-family="Helvetica,sans-Serif" font-size="10.00">dsps_add_platform.h</text>
</a>
</g>
</g>
<!-- Node2&#45;&gt;Node8 -->
<g id="edge6_Node000002_Node000008" class="edge">
<title>Node2&#45;&gt;Node8</title>
<g id="a_edge6_Node000002_Node000008"><a xlink:title=" ">
<path fill="none" stroke="#63b8ff" d="M198.49,-111.59C208.77,-103.77 223.64,-92.46 235.84,-83.19"/>
<polygon fill="#63b8ff" stroke="#63b8ff" points="237.85,-86.05 243.69,-77.21 233.62,-80.48 237.85,-86.05"/>
</a>
</g>
</g>
<!-- Node4 -->
<g id="Node000004" class="node">
<title>Node4</title>
<g id="a_Node000004"><a xlink:title=" ">
<polygon fill="#e0e0e0" stroke="#999999" points="48.25,-20 0,-20 0,0 48.25,0 48.25,-20"/>
<text xml:space="preserve" text-anchor="middle" x="24.12" y="-6.5" font-family="Helvetica,sans-Serif" font-size="10.00">stdint.h</text>
</a>
</g>
</g>
<!-- Node3&#45;&gt;Node4 -->
<g id="edge3_Node000003_Node000004" class="edge">
<title>Node3&#45;&gt;Node4</title>
<g id="a_edge3_Node000003_Node000004"><a xlink:title=" ">
<path fill="none" stroke="#63b8ff" d="M116.62,-55.59C99.38,-47.28 73.97,-35.03 54.14,-25.47"/>
<polygon fill="#63b8ff" stroke="#63b8ff" points="55.68,-22.33 45.15,-21.14 52.64,-28.63 55.68,-22.33"/>
</a>
</g>
</g>
<!-- Node5 -->
<g id="Node000005" class="node">
<title>Node5</title>
<g id="a_Node000005"><a xlink:href="esp__err_8h.html" target="_top" xlink:title=" ">
<polygon fill="#fff0f0" stroke="red" points="122.38,-20 65.88,-20 65.88,0 122.38,0 122.38,-20"/>
<text xml:space="preserve" text-anchor="middle" x="94.12" y="-6.5" font-family="Helvetica,sans-Serif" font-size="10.00">esp_err.h</text>
</a>
</g>
</g>
<!-- Node3&#45;&gt;Node5 -->
<g id="edge4_Node000003_Node000005" class="edge">
<title>Node3&#45;&gt;Node5</title>
<g id="a_edge4_Node000003_Node000005"><a xlink:title=" ">
<path fill="none" stroke="#63b8ff" d="M128.81,-55.59C123.15,-48.32 115.14,-38.02 108.24,-29.15"/>
<polygon fill="#63b8ff" stroke="#63b8ff" points="111.19,-27.24 102.29,-21.49 105.66,-31.54 111.19,-27.24"/>
</a>
</g>
</g>
<!-- Node7 -->
<g id="Node000007" class="node">
<title>Node7</title>
<g id="a_Node000007"><a xlink:href="dsp__err__codes_8h.html" target="_top" xlink:title=" ">
<polygon fill="white" stroke="#666666" points="228.12,-20 140.12,-20 140.12,0 228.12,0 228.12,-20"/>
<text xml:space="preserve" text-anchor="middle" x="184.12" y="-6.5" font-family="Helvetica,sans-Serif" font-size="10.00">dsp_err_codes.h</text>
</a>
</g>
</g>
<!-- Node3&#45;&gt;Node7 -->
<g id="edge5_Node000003_Node000007" class="edge">
<title>Node3&#45;&gt;Node7</title>
<g id="a_edge5_Node000003_Node000007"><a xlink:title=" ">
<path fill="none" stroke="#63b8ff" d="M144.49,-55.59C151.02,-48.24 160.31,-37.8 168.24,-28.87"/>
<polygon fill="#63b8ff" stroke="#63b8ff" points="170.83,-31.23 174.85,-21.43 165.59,-26.58 170.83,-31.23"/>
</a>
</g>
</g>
<!-- Node9 -->
<g id="Node000009" class="node">
<title>Node9</title>
<g id="a_Node000009"><a xlink:title=" ">
<polygon fill="#e0e0e0" stroke="#999999" points="312.25,-20 246,-20 246,0 312.25,0 312.25,-20"/>
<text xml:space="preserve" text-anchor="middle" x="279.12" y="-6.5" font-family="Helvetica,sans-Serif" font-size="10.00">sdkconfig.h</text>
</a>
</g>
</g>
<!-- Node8&#45;&gt;Node9 -->
<g id="edge7_Node000008_Node000009" class="edge">
<title>Node8&#45;&gt;Node9</title>
<g id="a_edge7_Node000008_Node000009"><a xlink:title=" ">
<path fill="none" stroke="#63b8ff" d="M260.96,-55.59C263.73,-48.78 267.59,-39.32 271.03,-30.86"/>
<polygon fill="#63b8ff" stroke="#63b8ff" points="274.23,-32.28 274.77,-21.7 267.75,-29.64 274.23,-32.28"/>
</a>
</g>
</g>
</g>
</svg>
