<?xml version="1.0" encoding="UTF-8" standalone="no"?>
<!DOCTYPE svg PUBLIC "-//W3C//DTD SVG 1.1//EN"
 "http://www.w3.org/Graphics/SVG/1.1/DTD/svg11.dtd">
<!-- Generated by graphviz version 14.1.2 (20260124.0452)
 -->
<!-- Title: dsps_add_platform.h Pages: 1 -->
<svg width="586pt" height="196pt"
 viewBox="0.00 0.00 586.00 196.00" xmlns="http://www.w3.org/2000/svg" xmlns:xlink="http://www.w3.org/1999/xlink">
<g id="graph0" class="graph" transform="scale(1 1) rotate(0) translate(4 192)">
<title>dsps_add_platform.h</title>
<!-- Node1 -->
<g id="Node000001" class="node">
<title>Node1</title>
<g id="a_Node000001"><a xlink:title=" ">
<polygon fill="#999999" stroke="#666666" points="360.5,-188 253.75,-188 253.75,-168 360.5,-168 360.5,-188"/>
<text xml:space="preserve" text-anchor="middle" x="307.12" y="-174.5" font-family="Helvetica,sans-Serif" font-size="10.00">dsps_add_platform.h</text>
</a>
</g>
</g>
<!-- Node2 -->
<g id="Node000002" class="node">
<title>Node2</title>
<g id="a_Node000002"><a xlink:href="dsps__add_8h.html" target="_top" xlink:title=" ">
<polygon fill="white" stroke="#666666" points="340.25,-132 274,-132 274,-112 340.25,-112 340.25,-132"/>
<text xml:space="preserve" text-anchor="middle" x="307.12" y="-118.5" font-family="Helvetica,sans-Serif" font-size="10.00">dsps_add.h</text>
</a>
</g>
</g>
<!-- Node1&#45;&gt;Node2 -->
<g id="edge1_Node000001_Node000002" class="edge">
<title>Node1&#45;&gt;Node2</title>
<g id="a_edge1_Node000001_Node000002"><a xlink:title=" ">
<path fill="none" stroke="#63b8ff" d="M307.12,-156.13C307.12,-147.9 307.12,-138.85 307.12,-132.3"/>
<polygon fill="#63b8ff" stroke="#63b8ff" points="303.63,-156.08 307.13,-166.08 310.63,-156.08 303.63,-156.08"/>
</a>
</g>
</g>
<!-- Node3 -->
<g id="Node000003" class="node">
<title>Node3</title>
<g id="a_Node000003"><a xlink:href="dsps__add__f32__ansi_8c.html" target="_top" xlink:title=" ">
<polygon fill="white" stroke="#666666" points="108.25,-76 0,-76 0,-56 108.25,-56 108.25,-76"/>
<text xml:space="preserve" text-anchor="middle" x="54.12" y="-62.5" font-family="Helvetica,sans-Serif" font-size="10.00">dsps_add_f32_ansi.c</text>
</a>
</g>
</g>
<!-- Node2&#45;&gt;Node3 -->
<g id="edge2_Node000002_Node000003" class="edge">
<title>Node2&#45;&gt;Node3</title>
<g id="a_edge2_Node000002_Node000003"><a xlink:title=" ">
<path fill="none" stroke="#63b8ff" d="M262.36,-111.45C216.18,-101.59 144.56,-86.3 98.51,-76.47"/>
<polygon fill="#63b8ff" stroke="#63b8ff" points="261.54,-114.85 272.05,-113.51 263,-108 261.54,-114.85"/>
</a>
</g>
</g>
<!-- Node4 -->
<g id="Node000004" class="node">
<title>Node4</title>
<g id="a_Node000004"><a xlink:href="dsps__add__s16__ansi_8c.html" target="_top" xlink:title=" ">
<polygon fill="white" stroke="#666666" points="236.38,-76 125.88,-76 125.88,-56 236.38,-56 236.38,-76"/>
<text xml:space="preserve" text-anchor="middle" x="181.12" y="-62.5" font-family="Helvetica,sans-Serif" font-size="10.00">dsps_add_s16_ansi.c</text>
</a>
</g>
</g>
<!-- Node2&#45;&gt;Node4 -->
<g id="edge3_Node000002_Node000004" class="edge">
<title>Node2&#45;&gt;Node4</title>
<g id="a_edge3_Node000002_Node000004"><a xlink:title=" ">
<path fill="none" stroke="#63b8ff" d="M274.79,-107.14C252.35,-97.52 223.05,-84.97 203.24,-76.48"/>
<polygon fill="#63b8ff" stroke="#63b8ff" points="273.22,-110.28 283.79,-111 275.97,-103.84 273.22,-110.28"/>
</a>
</g>
</g>
<!-- Node5 -->
<g id="Node000005" class="node">
<title>Node5</title>
<g id="a_Node000005"><a xlink:href="dsps__add__s8__ansi_8c.html" target="_top" xlink:title=" ">
<polygon fill="white" stroke="#666666" points="359.75,-76 254.5,-76 254.5,-56 359.75,-56 359.75,-76"/>
<text xml:space="preserve" text-anchor="middle" x="307.12" y="-62.5" font-family="Helvetica,sans-Serif" font-size="10.00">dsps_add_s8_ansi.c</text>
</a>
</g>
</g>
<!-- Node2&#45;&gt;Node5 -->
<g id="edge4_Node000002_Node000005" class="edge">
<title>Node2&#45;&gt;Node5</title>
<g id="a_edge4_Node000002_Node000005"><a xlink:title=" ">
<path fill="none" stroke="#63b8ff" d="M307.12,-100.13C307.12,-91.9 307.12,-82.85 307.12,-76.3"/>
<polygon fill="#63b8ff" stroke="#63b8ff" points="303.63,-100.08 307.13,-110.08 310.63,-100.08 303.63,-100.08"/>
</a>
</g>
</g>
<!-- Node6 -->
<g id="Node000006" class="node">
<title>Node6</title>
<g id="a_Node000006"><a xlink:href="dsps__math_8h.html" target="_top" xlink:title=" ">
<polygon fill="white" stroke="#666666" points="450.25,-76 378,-76 378,-56 450.25,-56 450.25,-76"/>
<text xml:space="preserve" text-anchor="middle" x="414.12" y="-62.5" font-family="Helvetica,sans-Serif" font-size="10.00">dsps_math.h</text>
</a>
</g>
</g>
<!-- Node2&#45;&gt;Node6 -->
<g id="edge5_Node000002_Node000006" class="edge">
<title>Node2&#45;&gt;Node6</title>
<g id="a_edge5_Node000002_Node000006"><a xlink:title=" ">
<path fill="none" stroke="#63b8ff" d="M335.9,-106.48C354.77,-96.96 378.9,-84.78 395.34,-76.48"/>
<polygon fill="#63b8ff" stroke="#63b8ff" points="334.46,-103.28 327.11,-110.91 337.62,-109.53 334.46,-103.28"/>
</a>
</g>
</g>
<!-- Node42 -->
<g id="Node000042" class="node">
<title>Node42</title>
<g id="a_Node000042"><a xlink:href="dsps__sub__s16__ansi_8c.html" target="_top" xlink:title=" ">
<polygon fill="white" stroke="#666666" points="578.38,-76 467.88,-76 467.88,-56 578.38,-56 578.38,-76"/>
<text xml:space="preserve" text-anchor="middle" x="523.12" y="-62.5" font-family="Helvetica,sans-Serif" font-size="10.00">dsps_sub_s16_ansi.c</text>
</a>
</g>
</g>
<!-- Node2&#45;&gt;Node42 -->
<g id="edge8_Node000002_Node000042" class="edge">
<title>Node2&#45;&gt;Node42</title>
<g id="a_edge8_Node000002_Node000042"><a xlink:title=" ">
<path fill="none" stroke="#63b8ff" d="M351.55,-109.89C391.04,-100.02 448.15,-85.74 485.45,-76.42"/>
<polygon fill="#63b8ff" stroke="#63b8ff" points="350.72,-106.49 341.87,-112.31 352.42,-113.28 350.72,-106.49"/>
</a>
</g>
</g>
<!-- Node7 -->
<g id="Node000007" class="node">
<title>Node7</title>
<g id="a_Node000007"><a xlink:href="esp__dsp_8h.html" target="_top" xlink:title=" ">
<polygon fill="#fff0f0" stroke="red" points="407.62,-20 346.62,-20 346.62,0 407.62,0 407.62,-20"/>
<text xml:space="preserve" text-anchor="middle" x="377.12" y="-6.5" font-family="Helvetica,sans-Serif" font-size="10.00">esp_dsp.h</text>
</a>
</g>
</g>
<!-- Node6&#45;&gt;Node7 -->
<g id="edge6_Node000006_Node000007" class="edge">
<title>Node6&#45;&gt;Node7</title>
<g id="a_edge6_Node000006_Node000007"><a xlink:title=" ">
<path fill="none" stroke="#63b8ff" d="M401.21,-46.15C395.22,-37.4 388.36,-27.39 383.5,-20.3"/>
<polygon fill="#63b8ff" stroke="#63b8ff" points="398.28,-48.07 406.82,-54.35 404.06,-44.12 398.28,-48.07"/>
</a>
</g>
</g>
<!-- Node41 -->
<g id="Node000041" class="node">
<title>Node41</title>
<g id="a_Node000041"><a xlink:href="mat_8cpp.html" target="_top" xlink:title=" ">
<polygon fill="white" stroke="#666666" points="476.75,-20 425.5,-20 425.5,0 476.75,0 476.75,-20"/>
<text xml:space="preserve" text-anchor="middle" x="451.12" y="-6.5" font-family="Helvetica,sans-Serif" font-size="10.00">mat.cpp</text>
</a>
</g>
</g>
<!-- Node6&#45;&gt;Node41 -->
<g id="edge7_Node000006_Node000041" class="edge">
<title>Node6&#45;&gt;Node41</title>
<g id="a_edge7_Node000006_Node000041"><a xlink:title=" ">
<path fill="none" stroke="#63b8ff" d="M427.04,-46.15C433.03,-37.4 439.89,-27.39 444.75,-20.3"/>
<polygon fill="#63b8ff" stroke="#63b8ff" points="424.19,-44.12 421.43,-54.35 429.97,-48.07 424.19,-44.12"/>
</a>
</g>
</g>
</g>
</svg>
