<?xml version="1.0" encoding="UTF-8" standalone="no"?>
<!DOCTYPE svg PUBLIC "-//W3C//DTD SVG 1.1//EN"
 "http://www.w3.org/Graphics/SVG/1.1/DTD/svg11.dtd">
<!-- Generated by graphviz version 14.1.2 (20260124.0452)
 -->
<!-- Title: dsps_view.cpp Pages: 1 -->
<svg width="404pt" height="252pt"
 viewBox="0.00 0.00 404.00 252.00" xmlns="http://www.w3.org/2000/svg" xmlns:xlink="http://www.w3.org/1999/xlink">
<g id="graph0" class="graph" transform="scale(1 1) rotate(0) translate(4 248)">
<title>dsps_view.cpp</title>
<!-- Node1 -->
<g id="Node000001" class="node">
<title>Node1</title>
<g id="a_Node000001"><a xlink:title=" ">
<polygon fill="#999999" stroke="#666666" points="291.38,-244 210.88,-244 210.88,-224 291.38,-224 291.38,-244"/>
<text xml:space="preserve" text-anchor="middle" x="251.12" y="-230.5" font-family="Helvetica,sans-Serif" font-size="10.00">dsps_view.cpp</text>
</a>
</g>
</g>
<!-- Node2 -->
<g id="Node000002" class="node">
<title>Node2</title>
<g id="a_Node000002"><a xlink:href="dsps__view_8h.html" target="_top" xlink:title=" ">
<polygon fill="white" stroke="#666666" points="150.12,-188 80.12,-188 80.12,-168 150.12,-168 150.12,-188"/>
<text xml:space="preserve" text-anchor="middle" x="115.12" y="-174.5" font-family="Helvetica,sans-Serif" font-size="10.00">dsps_view.h</text>
</a>
</g>
</g>
<!-- Node1&#45;&gt;Node2 -->
<g id="edge1_Node000001_Node000002" class="edge">
<title>Node1&#45;&gt;Node2</title>
<g id="a_edge1_Node000001_Node000002"><a xlink:title=" ">
<path fill="none" stroke="#63b8ff" d="M227.44,-223.59C205.92,-215.05 173.92,-202.35 149.58,-192.68"/>
<polygon fill="#63b8ff" stroke="#63b8ff" points="150.99,-189.48 140.41,-189.04 148.41,-195.98 150.99,-189.48"/>
</a>
</g>
</g>
<!-- Node8 -->
<g id="Node000008" class="node">
<title>Node8</title>
<g id="a_Node000008"><a xlink:title=" ">
<polygon fill="#e0e0e0" stroke="#999999" points="223.12,-188 177.12,-188 177.12,-168 223.12,-168 223.12,-188"/>
<text xml:space="preserve" text-anchor="middle" x="200.12" y="-174.5" font-family="Helvetica,sans-Serif" font-size="10.00">math.h</text>
</a>
</g>
</g>
<!-- Node1&#45;&gt;Node8 -->
<g id="edge7_Node000001_Node000008" class="edge">
<title>Node1&#45;&gt;Node8</title>
<g id="a_edge7_Node000001_Node000008"><a xlink:title=" ">
<path fill="none" stroke="#63b8ff" d="M242.24,-223.59C235.22,-216.16 225.22,-205.58 216.73,-196.58"/>
<polygon fill="#63b8ff" stroke="#63b8ff" points="219.36,-194.27 209.95,-189.4 214.27,-199.07 219.36,-194.27"/>
</a>
</g>
</g>
<!-- Node9 -->
<g id="Node000009" class="node">
<title>Node9</title>
<g id="a_Node000009"><a xlink:href="esp__log_8h.html" target="_top" xlink:title=" ">
<polygon fill="white" stroke="#666666" points="282.12,-132 224.12,-132 224.12,-112 282.12,-112 282.12,-132"/>
<text xml:space="preserve" text-anchor="middle" x="253.12" y="-118.5" font-family="Helvetica,sans-Serif" font-size="10.00">esp_log.h</text>
</a>
</g>
</g>
<!-- Node1&#45;&gt;Node9 -->
<g id="edge8_Node000001_Node000009" class="edge">
<title>Node1&#45;&gt;Node9</title>
<g id="a_edge8_Node000001_Node000009"><a xlink:title=" ">
<path fill="none" stroke="#63b8ff" d="M251.3,-223.62C251.62,-206.01 252.31,-167.59 252.75,-143.65"/>
<polygon fill="#63b8ff" stroke="#63b8ff" points="256.24,-143.93 252.93,-133.87 249.25,-143.8 256.24,-143.93"/>
</a>
</g>
</g>
<!-- Node10 -->
<g id="Node000010" class="node">
<title>Node10</title>
<g id="a_Node000010"><a xlink:title=" ">
<polygon fill="#e0e0e0" stroke="#999999" points="318.75,-188 279.5,-188 279.5,-168 318.75,-168 318.75,-188"/>
<text xml:space="preserve" text-anchor="middle" x="299.12" y="-174.5" font-family="Helvetica,sans-Serif" font-size="10.00">limits</text>
</a>
</g>
</g>
<!-- Node1&#45;&gt;Node10 -->
<g id="edge10_Node000001_Node000010" class="edge">
<title>Node1&#45;&gt;Node10</title>
<g id="a_edge10_Node000001_Node000010"><a xlink:title=" ">
<path fill="none" stroke="#63b8ff" d="M259.49,-223.59C266.02,-216.24 275.31,-205.8 283.24,-196.87"/>
<polygon fill="#63b8ff" stroke="#63b8ff" points="285.83,-199.23 289.85,-189.43 280.59,-194.58 285.83,-199.23"/>
</a>
</g>
</g>
<!-- Node11 -->
<g id="Node000011" class="node">
<title>Node11</title>
<g id="a_Node000011"><a xlink:title=" ">
<polygon fill="#e0e0e0" stroke="#999999" points="395.5,-188 336.75,-188 336.75,-168 395.5,-168 395.5,-188"/>
<text xml:space="preserve" text-anchor="middle" x="366.12" y="-174.5" font-family="Helvetica,sans-Serif" font-size="10.00">inttypes.h</text>
</a>
</g>
</g>
<!-- Node1&#45;&gt;Node11 -->
<g id="edge11_Node000001_Node000011" class="edge">
<title>Node1&#45;&gt;Node11</title>
<g id="a_edge11_Node000001_Node000011"><a xlink:title=" ">
<path fill="none" stroke="#63b8ff" d="M271.16,-223.59C288.94,-215.24 315.19,-202.92 335.59,-193.34"/>
<polygon fill="#63b8ff" stroke="#63b8ff" points="337,-196.54 344.57,-189.12 334.03,-190.21 337,-196.54"/>
</a>
</g>
</g>
<!-- Node3 -->
<g id="Node000003" class="node">
<title>Node3</title>
<g id="a_Node000003"><a xlink:href="dsp__err_8h.html" target="_top" xlink:title=" ">
<polygon fill="white" stroke="#666666" points="126.38,-132 69.88,-132 69.88,-112 126.38,-112 126.38,-132"/>
<text xml:space="preserve" text-anchor="middle" x="98.12" y="-118.5" font-family="Helvetica,sans-Serif" font-size="10.00">dsp_err.h</text>
</a>
</g>
</g>
<!-- Node2&#45;&gt;Node3 -->
<g id="edge2_Node000002_Node000003" class="edge">
<title>Node2&#45;&gt;Node3</title>
<g id="a_edge2_Node000002_Node000003"><a xlink:title=" ">
<path fill="none" stroke="#63b8ff" d="M112.16,-167.59C110.04,-160.86 107.11,-151.53 104.47,-143.15"/>
<polygon fill="#63b8ff" stroke="#63b8ff" points="107.85,-142.23 101.51,-133.74 101.17,-144.33 107.85,-142.23"/>
</a>
</g>
</g>
<!-- Node4 -->
<g id="Node000004" class="node">
<title>Node4</title>
<g id="a_Node000004"><a xlink:title=" ">
<polygon fill="#e0e0e0" stroke="#999999" points="48.25,-76 0,-76 0,-56 48.25,-56 48.25,-76"/>
<text xml:space="preserve" text-anchor="middle" x="24.12" y="-62.5" font-family="Helvetica,sans-Serif" font-size="10.00">stdint.h</text>
</a>
</g>
</g>
<!-- Node3&#45;&gt;Node4 -->
<g id="edge3_Node000003_Node000004" class="edge">
<title>Node3&#45;&gt;Node4</title>
<g id="a_edge3_Node000003_Node000004"><a xlink:title=" ">
<path fill="none" stroke="#63b8ff" d="M85.24,-111.59C74.41,-103.7 58.71,-92.24 45.94,-82.92"/>
<polygon fill="#63b8ff" stroke="#63b8ff" points="48.23,-80.26 38.09,-77.19 44.1,-85.91 48.23,-80.26"/>
</a>
</g>
</g>
<!-- Node5 -->
<g id="Node000005" class="node">
<title>Node5</title>
<g id="a_Node000005"><a xlink:href="esp__err_8h.html" target="_top" xlink:title=" ">
<polygon fill="white" stroke="#666666" points="122.38,-76 65.88,-76 65.88,-56 122.38,-56 122.38,-76"/>
<text xml:space="preserve" text-anchor="middle" x="94.12" y="-62.5" font-family="Helvetica,sans-Serif" font-size="10.00">esp_err.h</text>
</a>
</g>
</g>
<!-- Node3&#45;&gt;Node5 -->
<g id="edge4_Node000003_Node000005" class="edge">
<title>Node3&#45;&gt;Node5</title>
<g id="a_edge4_Node000003_Node000005"><a xlink:title=" ">
<path fill="none" stroke="#63b8ff" d="M97.43,-111.59C96.94,-105.01 96.27,-95.96 95.66,-87.73"/>
<polygon fill="#63b8ff" stroke="#63b8ff" points="99.15,-87.52 94.93,-77.81 92.17,-88.04 99.15,-87.52"/>
</a>
</g>
</g>
<!-- Node7 -->
<g id="Node000007" class="node">
<title>Node7</title>
<g id="a_Node000007"><a xlink:href="dsp__err__codes_8h.html" target="_top" xlink:title=" ">
<polygon fill="white" stroke="#666666" points="228.12,-76 140.12,-76 140.12,-56 228.12,-56 228.12,-76"/>
<text xml:space="preserve" text-anchor="middle" x="184.12" y="-62.5" font-family="Helvetica,sans-Serif" font-size="10.00">dsp_err_codes.h</text>
</a>
</g>
</g>
<!-- Node3&#45;&gt;Node7 -->
<g id="edge6_Node000003_Node000007" class="edge">
<title>Node3&#45;&gt;Node7</title>
<g id="a_edge6_Node000003_Node000007"><a xlink:title=" ">
<path fill="none" stroke="#63b8ff" d="M113.11,-111.59C125.85,-103.59 144.42,-91.93 159.37,-82.54"/>
<polygon fill="#63b8ff" stroke="#63b8ff" points="161.14,-85.57 167.75,-77.28 157.42,-79.64 161.14,-85.57"/>
</a>
</g>
</g>
<!-- Node6 -->
<g id="Node000006" class="node">
<title>Node6</title>
<g id="a_Node000006"><a xlink:title=" ">
<polygon fill="#e0e0e0" stroke="#999999" points="198.88,-20 151.38,-20 151.38,0 198.88,0 198.88,-20"/>
<text xml:space="preserve" text-anchor="middle" x="175.12" y="-6.5" font-family="Helvetica,sans-Serif" font-size="10.00">stdlib.h</text>
</a>
</g>
</g>
<!-- Node5&#45;&gt;Node6 -->
<g id="edge5_Node000005_Node000006" class="edge">
<title>Node5&#45;&gt;Node6</title>
<g id="a_edge5_Node000005_Node000006"><a xlink:title=" ">
<path fill="none" stroke="#63b8ff" d="M108.23,-55.59C120.12,-47.67 137.39,-36.16 151.4,-26.82"/>
<polygon fill="#63b8ff" stroke="#63b8ff" points="153.27,-29.78 159.65,-21.32 149.38,-23.95 153.27,-29.78"/>
</a>
</g>
</g>
<!-- Node9&#45;&gt;Node6 -->
<g id="edge9_Node000009_Node000006" class="edge">
<title>Node9&#45;&gt;Node6</title>
<g id="a_edge9_Node000009_Node000006"><a xlink:title=" ">
<path fill="none" stroke="#63b8ff" d="M252.82,-111.8C251.97,-98.44 248.8,-73.36 237.12,-56 228.83,-43.67 215.97,-33.53 204.1,-26.02"/>
<polygon fill="#63b8ff" stroke="#63b8ff" points="206.19,-23.19 195.8,-21.11 202.62,-29.21 206.19,-23.19"/>
</a>
</g>
</g>
</g>
</svg>
