<?xml version="1.0" encoding="UTF-8" standalone="no"?>
<!DOCTYPE svg PUBLIC "-//W3C//DTD SVG 1.1//EN"
 "http://www.w3.org/Graphics/SVG/1.1/DTD/svg11.dtd">
<!-- Generated by graphviz version 14.1.2 (20260124.0452)
 -->
<!-- Title: dsps_wind.h Pages: 1 -->
<!--zoomable 96 -->

<svg id="main" version="1.1" xmlns="http://www.w3.org/2000/svg" xmlns:xlink="http://www.w3.org/1999/xlink" xml:space="preserve" onload="init(evt)">

<style type="text/css"><![CDATA[
.node, .edge {opacity: 0.7;}
.node.selected, .edge.selected {opacity: 1;}
.edge:hover path { stroke: red; }
.edge:hover polygon { stroke: red; fill: red; }
]]></style>

<defs>
  <circle id="rim" cx="0" cy="0" r="7"/>
  <circle id="rim2" cx="0" cy="0" r="3.5"/>
  <g id="zoomPlus">
    <use xlink:href="#rim" fill="#404040"><set attributeName="fill" to="#808080" begin="zoomplus.mouseover" end="zoomplus.mouseout"/></use>
    <path d="M-4,0h8M0,-4v8" fill="none" stroke="white" stroke-width="1.5" pointer-events="none"/>
  </g>
  <g id="zoomMin">
    <use xlink:href="#rim" fill="#404040"><set attributeName="fill" to="#808080" begin="zoomminus.mouseover" end="zoomminus.mouseout"/></use>
    <path d="M-4,0h8" fill="none" stroke="white" stroke-width="1.5" pointer-events="none"/>
  </g>
  <g id="arrowUp" transform="translate(30 24)">
    <use xlink:href="#rim"/>
    <path pointer-events="none" fill="none" stroke="white" stroke-width="1.5" d="M0,-3.0v7 M-2.5,-0.5L0,-3.0L2.5,-0.5"/>
  </g>
  <g id="arrowRight" transform="rotate(90) translate(36 -43)">
    <use xlink:href="#rim"/>
    <path pointer-events="none" fill="none" stroke="white" stroke-width="1.5" d="M0,-3.0v7 M-2.5,-0.5L0,-3.0L2.5,-0.5"/>
  </g>
  <g id="arrowDown" transform="rotate(180) translate(-30 -48)">
    <use xlink:href="#rim"/>
    <path pointer-events="none" fill="none" stroke="white" stroke-width="1.5" d="M0,-3.0v7 M-2.5,-0.5L0,-3.0L2.5,-0.5"/>
  </g>
  <g id="arrowLeft" transform="rotate(270) translate(-36 17)">
    <use xlink:href="#rim"/>
    <path pointer-events="none" fill="none" stroke="white" stroke-width="1.5" d="M0,-3.0v7 M-2.5,-0.5L0,-3.0L2.5,-0.5"/>
  </g>
  <g id="resetDef">
    <use xlink:href="#rim2" fill="#404040"><set attributeName="fill" to="#808080" begin="reset.mouseover" end="reset.mouseout"/></use>
  </g>
</defs>
<script type="application/ecmascript">
var viewWidth = 744;
var viewHeight = 96;
var sectionId = 'dynsection-0';
</script>
<script type="application/ecmascript" xlink:href="svg.min.js"/>
<svg id="graph" class="graph">
<g id="viewport">
<title>dsps_wind.h</title>
<!-- Node1 -->
<g id="Node000001" class="node">
<title>Node1</title>
<g id="a_Node000001"><a xlink:title=" ">
<polygon fill="#999999" stroke="#666666" points="405.88,-88 335.12,-88 335.12,-68 405.88,-68 405.88,-88"/>
<text xml:space="preserve" text-anchor="middle" x="370.5" y="-74.5" font-family="Helvetica,sans-Serif" font-size="10.00">dsps_wind.h</text>
</a>
</g>
</g>
<!-- Node2 -->
<g id="Node000002" class="node">
<title>Node2</title>
<g id="a_Node000002"><a xlink:href="dsps__wind__hann_8h.html" target="_top" xlink:title=" ">
<polygon fill="white" stroke="#666666" points="97,-26 0,-26 0,-6 97,-6 97,-26"/>
<text xml:space="preserve" text-anchor="middle" x="48.5" y="-12.5" font-family="Helvetica,sans-Serif" font-size="10.00">dsps_wind_hann.h</text>
</a>
</g>
</g>
<!-- Node1&#45;&gt;Node2 -->
<g id="edge1_Node000001_Node000002" class="edge">
<title>Node1&#45;&gt;Node2</title>
<g id="a_edge1_Node000001_Node000002"><a xlink:title=" ">
<path fill="none" stroke="#63b8ff" d="M334.88,-71.9C283.99,-64.4 187.65,-49.38 106.5,-32 102.45,-31.13 98.25,-30.17 94.06,-29.17"/>
<polygon fill="#63b8ff" stroke="#63b8ff" points="95.06,-25.81 84.51,-26.81 93.38,-32.61 95.06,-25.81"/>
</a>
</g>
</g>
<!-- Node3 -->
<g id="Node000003" class="node">
<title>Node3</title>
<g id="a_Node000003"><a xlink:href="dsps__wind__blackman_8h.html" target="_top" xlink:title=" ">
<polygon fill="white" stroke="#666666" points="233.5,-26 115.5,-26 115.5,-6 233.5,-6 233.5,-26"/>
<text xml:space="preserve" text-anchor="middle" x="174.5" y="-12.5" font-family="Helvetica,sans-Serif" font-size="10.00">dsps_wind_blackman.h</text>
</a>
</g>
</g>
<!-- Node1&#45;&gt;Node3 -->
<g id="edge2_Node000001_Node000003" class="edge">
<title>Node1&#45;&gt;Node3</title>
<g id="a_edge2_Node000001_Node000003"><a xlink:title=" ">
<path fill="none" stroke="#63b8ff" d="M339.88,-67.62C306.6,-57.44 253.25,-41.11 216.18,-29.76"/>
<polygon fill="#63b8ff" stroke="#63b8ff" points="217.27,-26.43 206.68,-26.85 215.22,-33.12 217.27,-26.43"/>
</a>
</g>
</g>
<!-- Node4 -->
<g id="Node000004" class="node">
<title>Node4</title>
<g id="a_Node000004"><a xlink:href="dsps__wind__blackman__harris_8h.html" target="_top" xlink:title=" ">
<polygon fill="white" stroke="#666666" points="361.38,-32 251.62,-32 251.62,0 361.38,0 361.38,-32"/>
<text xml:space="preserve" text-anchor="start" x="259.62" y="-18.5" font-family="Helvetica,sans-Serif" font-size="10.00">dsps_wind_blackman</text>
<text xml:space="preserve" text-anchor="middle" x="306.5" y="-6.5" font-family="Helvetica,sans-Serif" font-size="10.00">_harris.h</text>
</a>
</g>
</g>
<!-- Node1&#45;&gt;Node4 -->
<g id="edge3_Node000001_Node000004" class="edge">
<title>Node1&#45;&gt;Node4</title>
<g id="a_edge3_Node000001_Node000004"><a xlink:title=" ">
<path fill="none" stroke="#63b8ff" d="M360.5,-67.62C352.64,-60.26 341.36,-49.68 331.14,-40.1"/>
<polygon fill="#63b8ff" stroke="#63b8ff" points="333.69,-37.69 324,-33.41 328.9,-42.8 333.69,-37.69"/>
</a>
</g>
</g>
<!-- Node5 -->
<g id="Node000005" class="node">
<title>Node5</title>
<g id="a_Node000005"><a xlink:href="dsps__wind__blackman__nuttall_8h.html" target="_top" xlink:title=" ">
<polygon fill="white" stroke="#666666" points="489.38,-32 379.62,-32 379.62,0 489.38,0 489.38,-32"/>
<text xml:space="preserve" text-anchor="start" x="387.62" y="-18.5" font-family="Helvetica,sans-Serif" font-size="10.00">dsps_wind_blackman</text>
<text xml:space="preserve" text-anchor="middle" x="434.5" y="-6.5" font-family="Helvetica,sans-Serif" font-size="10.00">_nuttall.h</text>
</a>
</g>
</g>
<!-- Node1&#45;&gt;Node5 -->
<g id="edge4_Node000001_Node000005" class="edge">
<title>Node1&#45;&gt;Node5</title>
<g id="a_edge4_Node000001_Node000005"><a xlink:title=" ">
<path fill="none" stroke="#63b8ff" d="M380.5,-67.62C388.36,-60.26 399.64,-49.68 409.86,-40.1"/>
<polygon fill="#63b8ff" stroke="#63b8ff" points="412.1,-42.8 417,-33.41 407.31,-37.69 412.1,-42.8"/>
</a>
</g>
</g>
<!-- Node6 -->
<g id="Node000006" class="node">
<title>Node6</title>
<g id="a_Node000006"><a xlink:href="dsps__wind__nuttall_8h.html" target="_top" xlink:title=" ">
<polygon fill="white" stroke="#666666" points="609.62,-26 507.38,-26 507.38,-6 609.62,-6 609.62,-26"/>
<text xml:space="preserve" text-anchor="middle" x="558.5" y="-12.5" font-family="Helvetica,sans-Serif" font-size="10.00">dsps_wind_nuttall.h</text>
</a>
</g>
</g>
<!-- Node1&#45;&gt;Node6 -->
<g id="edge5_Node000001_Node000006" class="edge">
<title>Node1&#45;&gt;Node6</title>
<g id="a_edge5_Node000001_Node000006"><a xlink:title=" ">
<path fill="none" stroke="#63b8ff" d="M399.88,-67.62C431.65,-57.48 482.53,-41.25 518.07,-29.9"/>
<polygon fill="#63b8ff" stroke="#63b8ff" points="519.12,-33.24 527.58,-26.87 516.99,-26.57 519.12,-33.24"/>
</a>
</g>
</g>
<!-- Node7 -->
<g id="Node000007" class="node">
<title>Node7</title>
<g id="a_Node000007"><a xlink:href="dsps__wind__flat__top_8h.html" target="_top" xlink:title=" ">
<polygon fill="white" stroke="#666666" points="735.62,-26 627.38,-26 627.38,-6 735.62,-6 735.62,-26"/>
<text xml:space="preserve" text-anchor="middle" x="681.5" y="-12.5" font-family="Helvetica,sans-Serif" font-size="10.00">dsps_wind_flat_top.h</text>
</a>
</g>
</g>
<!-- Node1&#45;&gt;Node7 -->
<g id="edge6_Node000001_Node000007" class="edge">
<title>Node1&#45;&gt;Node7</title>
<g id="a_edge6_Node000001_Node000007"><a xlink:title=" ">
<path fill="none" stroke="#63b8ff" d="M406.35,-71.12C454.68,-63.06 543.34,-47.76 618.5,-32 623.02,-31.05 627.71,-30.02 632.4,-28.96"/>
<polygon fill="#63b8ff" stroke="#63b8ff" points="632.83,-32.46 641.79,-26.8 631.26,-25.63 632.83,-32.46"/>
</a>
</g>
</g>
</g>
</svg>

<g id="navigator" transform="translate(0 0)" fill="#404254">
  <rect fill="#f2f5e9" fill-opacity="0.5" stroke="#606060" stroke-width=".5" x="0" y="0" width="60" height="60"/>
  <use id="zoomplus" xlink:href="#zoomPlus" x="17" y="9" onmousedown="handleZoom(evt,'in')"/>
  <use id="zoomminus" xlink:href="#zoomMin" x="42" y="9" onmousedown="handleZoom(evt,'out')"/>
  <use id="reset" xlink:href="#resetDef" x="30" y="36" onmousedown="handleReset()"/>
   <use id="arrowup" xlink:href="#arrowUp" x="0" y="0" onmousedown="handlePan(0,-1)"/>
  <use id="arrowright" xlink:href="#arrowRight" x="0" y="0" onmousedown="handlePan(1,0)"/>
  <use id="arrowdown" xlink:href="#arrowDown" x="0" y="0" onmousedown="handlePan(0,1)"/>
  <use id="arrowleft" xlink:href="#arrowLeft" x="0" y="0" onmousedown="handlePan(-1,0)"/>
</g>
<svg viewBox="0 0 15 15" width="100%" height="30px" preserveAspectRatio="xMaxYMin meet">
 <g id="arrow_out" transform="scale(0.3 0.3)">
  <a xlink:href="dsps__wind_8h__incl_org.svg" target="_base">
   <rect id="button" ry="5" rx="5" y="6" x="6" height="38" width="38"
        fill="#f2f5e9" fill-opacity="0.5" stroke="#606060" stroke-width="1.0"/>
   <path id="arrow"
     d="M 11.500037,31.436501 C 11.940474,20.09759 22.043105,11.32322 32.158766,21.979434 L 37.068811,17.246167 C 37.068811,17.246167 37.088388,32 37.088388,32 L 22.160133,31.978069 C 22.160133,31.978069 26.997745,27.140456 26.997745,27.140456 C 18.528582,18.264221 13.291696,25.230495 11.500037,31.436501 z"
     style="fill:#404040;"/>
  </a>
 </g>
</svg>

<style type='text/css'>
<![CDATA[
[data-mouse-over-selected='false'] { opacity: 0.7; }
[data-mouse-over-selected='true']  { opacity: 1.0; }
]]>
</style>
<script type="application/ecmascript"><![CDATA[
document.addEventListener('DOMContentLoaded', (event) => {
  highlightEdges();
  highlightAdjacentNodes();
});
]]></script>
</svg>
