<?xml version="1.0" encoding="UTF-8" standalone="no"?>
<!DOCTYPE svg PUBLIC "-//W3C//DTD SVG 1.1//EN"
 "http://www.w3.org/Graphics/SVG/1.1/DTD/svg11.dtd">
<!-- Generated by graphviz version 14.1.2 (20260124.0452)
 -->
<!-- Title: dsps_resampler.h Pages: 1 -->
<svg width="495pt" height="308pt"
 viewBox="0.00 0.00 495.00 308.00" xmlns="http://www.w3.org/2000/svg" xmlns:xlink="http://www.w3.org/1999/xlink">
<g id="graph0" class="graph" transform="scale(1 1) rotate(0) translate(4 304)">
<title>dsps_resampler.h</title>
<!-- Node1 -->
<g id="Node000001" class="node">
<title>Node1</title>
<g id="a_Node000001"><a xlink:title=" ">
<polygon fill="#999999" stroke="#666666" points="397.75,-300 304.5,-300 304.5,-280 397.75,-280 397.75,-300"/>
<text xml:space="preserve" text-anchor="middle" x="351.12" y="-286.5" font-family="Helvetica,sans-Serif" font-size="10.00">dsps_resampler.h</text>
</a>
</g>
</g>
<!-- Node2 -->
<g id="Node000002" class="node">
<title>Node2</title>
<g id="a_Node000002"><a xlink:href="dsp__err_8h.html" target="_top" xlink:title=" ">
<polygon fill="white" stroke="#666666" points="442.38,-132 385.88,-132 385.88,-112 442.38,-112 442.38,-132"/>
<text xml:space="preserve" text-anchor="middle" x="414.12" y="-118.5" font-family="Helvetica,sans-Serif" font-size="10.00">dsp_err.h</text>
</a>
</g>
</g>
<!-- Node1&#45;&gt;Node2 -->
<g id="edge1_Node000001_Node000002" class="edge">
<title>Node1&#45;&gt;Node2</title>
<g id="a_edge1_Node000001_Node000002"><a xlink:title=" ">
<path fill="none" stroke="#63b8ff" d="M354.69,-279.6C364.66,-253.35 392.93,-178.84 406.58,-142.89"/>
<polygon fill="#63b8ff" stroke="#63b8ff" points="409.78,-144.3 410.06,-133.71 403.24,-141.82 409.78,-144.3"/>
</a>
</g>
</g>
<!-- Node7 -->
<g id="Node000007" class="node">
<title>Node7</title>
<g id="a_Node000007"><a xlink:href="dsps__fir_8h.html" target="_top" xlink:title=" ">
<polygon fill="white" stroke="#666666" points="352.5,-244 293.75,-244 293.75,-224 352.5,-224 352.5,-244"/>
<text xml:space="preserve" text-anchor="middle" x="323.12" y="-230.5" font-family="Helvetica,sans-Serif" font-size="10.00">dsps_fir.h</text>
</a>
</g>
</g>
<!-- Node1&#45;&gt;Node7 -->
<g id="edge6_Node000001_Node000007" class="edge">
<title>Node1&#45;&gt;Node7</title>
<g id="a_edge6_Node000001_Node000007"><a xlink:title=" ">
<path fill="none" stroke="#63b8ff" d="M346.25,-279.59C342.63,-272.63 337.58,-262.89 333.13,-254.29"/>
<polygon fill="#63b8ff" stroke="#63b8ff" points="336.35,-252.91 328.64,-245.64 330.14,-256.13 336.35,-252.91"/>
</a>
</g>
</g>
<!-- Node3 -->
<g id="Node000003" class="node">
<title>Node3</title>
<g id="a_Node000003"><a xlink:title=" ">
<polygon fill="#e0e0e0" stroke="#999999" points="235.25,-76 187,-76 187,-56 235.25,-56 235.25,-76"/>
<text xml:space="preserve" text-anchor="middle" x="211.12" y="-62.5" font-family="Helvetica,sans-Serif" font-size="10.00">stdint.h</text>
</a>
</g>
</g>
<!-- Node2&#45;&gt;Node3 -->
<g id="edge2_Node000002_Node000003" class="edge">
<title>Node2&#45;&gt;Node3</title>
<g id="a_edge2_Node000002_Node000003"><a xlink:title=" ">
<path fill="none" stroke="#63b8ff" d="M385.47,-113.38C348.96,-103.67 285.89,-86.89 246.44,-76.4"/>
<polygon fill="#63b8ff" stroke="#63b8ff" points="247.53,-73.06 236.97,-73.87 245.73,-79.83 247.53,-73.06"/>
</a>
</g>
</g>
<!-- Node4 -->
<g id="Node000004" class="node">
<title>Node4</title>
<g id="a_Node000004"><a xlink:href="esp__err_8h.html" target="_top" xlink:title=" ">
<polygon fill="white" stroke="#666666" points="487.38,-76 430.88,-76 430.88,-56 487.38,-56 487.38,-76"/>
<text xml:space="preserve" text-anchor="middle" x="459.12" y="-62.5" font-family="Helvetica,sans-Serif" font-size="10.00">esp_err.h</text>
</a>
</g>
</g>
<!-- Node2&#45;&gt;Node4 -->
<g id="edge3_Node000002_Node000004" class="edge">
<title>Node2&#45;&gt;Node4</title>
<g id="a_edge3_Node000002_Node000004"><a xlink:title=" ">
<path fill="none" stroke="#63b8ff" d="M421.96,-111.59C428.09,-104.24 436.8,-93.8 444.24,-84.87"/>
<polygon fill="#63b8ff" stroke="#63b8ff" points="446.69,-87.38 450.41,-77.46 441.32,-82.9 446.69,-87.38"/>
</a>
</g>
</g>
<!-- Node6 -->
<g id="Node000006" class="node">
<title>Node6</title>
<g id="a_Node000006"><a xlink:href="dsp__err__codes_8h.html" target="_top" xlink:title=" ">
<polygon fill="white" stroke="#666666" points="413.12,-76 325.12,-76 325.12,-56 413.12,-56 413.12,-76"/>
<text xml:space="preserve" text-anchor="middle" x="369.12" y="-62.5" font-family="Helvetica,sans-Serif" font-size="10.00">dsp_err_codes.h</text>
</a>
</g>
</g>
<!-- Node2&#45;&gt;Node6 -->
<g id="edge5_Node000002_Node000006" class="edge">
<title>Node2&#45;&gt;Node6</title>
<g id="a_edge5_Node000002_Node000006"><a xlink:title=" ">
<path fill="none" stroke="#63b8ff" d="M406.29,-111.59C400.16,-104.24 391.45,-93.8 384.01,-84.87"/>
<polygon fill="#63b8ff" stroke="#63b8ff" points="386.93,-82.9 377.84,-77.46 381.56,-87.38 386.93,-82.9"/>
</a>
</g>
</g>
<!-- Node5 -->
<g id="Node000005" class="node">
<title>Node5</title>
<g id="a_Node000005"><a xlink:title=" ">
<polygon fill="#e0e0e0" stroke="#999999" points="482.88,-20 435.38,-20 435.38,0 482.88,0 482.88,-20"/>
<text xml:space="preserve" text-anchor="middle" x="459.12" y="-6.5" font-family="Helvetica,sans-Serif" font-size="10.00">stdlib.h</text>
</a>
</g>
</g>
<!-- Node4&#45;&gt;Node5 -->
<g id="edge4_Node000004_Node000005" class="edge">
<title>Node4&#45;&gt;Node5</title>
<g id="a_edge4_Node000004_Node000005"><a xlink:title=" ">
<path fill="none" stroke="#63b8ff" d="M459.12,-55.59C459.12,-49.01 459.12,-39.96 459.12,-31.73"/>
<polygon fill="#63b8ff" stroke="#63b8ff" points="462.63,-31.81 459.13,-21.81 455.63,-31.81 462.63,-31.81"/>
</a>
</g>
</g>
<!-- Node7&#45;&gt;Node2 -->
<g id="edge7_Node000007_Node000002" class="edge">
<title>Node7&#45;&gt;Node2</title>
<g id="a_edge7_Node000007_Node000002"><a xlink:title=" ">
<path fill="none" stroke="#63b8ff" d="M330.88,-223.62C345.99,-205.36 379.6,-164.73 399.18,-141.07"/>
<polygon fill="#63b8ff" stroke="#63b8ff" points="401.74,-143.46 405.42,-133.52 396.35,-139 401.74,-143.46"/>
</a>
</g>
</g>
<!-- Node8 -->
<g id="Node000008" class="node">
<title>Node8</title>
<g id="a_Node000008"><a xlink:href="dsps__fir__platform_8h.html" target="_top" xlink:title=" ">
<polygon fill="white" stroke="#666666" points="140.75,-188 41.5,-188 41.5,-168 140.75,-168 140.75,-188"/>
<text xml:space="preserve" text-anchor="middle" x="91.12" y="-174.5" font-family="Helvetica,sans-Serif" font-size="10.00">dsps_fir_platform.h</text>
</a>
</g>
</g>
<!-- Node7&#45;&gt;Node8 -->
<g id="edge8_Node000007_Node000008" class="edge">
<title>Node7&#45;&gt;Node8</title>
<g id="a_edge8_Node000007_Node000008"><a xlink:title=" ">
<path fill="none" stroke="#63b8ff" d="M293.27,-226.05C255.28,-217.21 189.06,-201.79 142.79,-191.03"/>
<polygon fill="#63b8ff" stroke="#63b8ff" points="143.79,-187.67 133.26,-188.81 142.21,-194.48 143.79,-187.67"/>
</a>
</g>
</g>
<!-- Node10 -->
<g id="Node000010" class="node">
<title>Node10</title>
<g id="a_Node000010"><a xlink:href="dsp__common_8h.html" target="_top" xlink:title=" ">
<polygon fill="white" stroke="#666666" points="291.5,-188 208.75,-188 208.75,-168 291.5,-168 291.5,-188"/>
<text xml:space="preserve" text-anchor="middle" x="250.12" y="-174.5" font-family="Helvetica,sans-Serif" font-size="10.00">dsp_common.h</text>
</a>
</g>
</g>
<!-- Node7&#45;&gt;Node10 -->
<g id="edge10_Node000007_Node000010" class="edge">
<title>Node7&#45;&gt;Node10</title>
<g id="a_edge10_Node000007_Node000010"><a xlink:title=" ">
<path fill="none" stroke="#63b8ff" d="M310.41,-223.59C299.73,-215.7 284.25,-204.24 271.64,-194.92"/>
<polygon fill="#63b8ff" stroke="#63b8ff" points="274.03,-192.33 263.91,-189.2 269.87,-197.96 274.03,-192.33"/>
</a>
</g>
</g>
<!-- Node9 -->
<g id="Node000009" class="node">
<title>Node9</title>
<g id="a_Node000009"><a xlink:title=" ">
<polygon fill="#e0e0e0" stroke="#999999" points="66.25,-132 0,-132 0,-112 66.25,-112 66.25,-132"/>
<text xml:space="preserve" text-anchor="middle" x="33.12" y="-118.5" font-family="Helvetica,sans-Serif" font-size="10.00">sdkconfig.h</text>
</a>
</g>
</g>
<!-- Node8&#45;&gt;Node9 -->
<g id="edge9_Node000008_Node000009" class="edge">
<title>Node8&#45;&gt;Node9</title>
<g id="a_edge9_Node000008_Node000009"><a xlink:title=" ">
<path fill="none" stroke="#63b8ff" d="M81.02,-167.59C72.87,-160.01 61.19,-149.13 51.41,-140.02"/>
<polygon fill="#63b8ff" stroke="#63b8ff" points="53.92,-137.58 44.22,-133.33 49.15,-142.71 53.92,-137.58"/>
</a>
</g>
</g>
<!-- Node10&#45;&gt;Node2 -->
<g id="edge13_Node000010_Node000002" class="edge">
<title>Node10&#45;&gt;Node2</title>
<g id="a_edge13_Node000010_Node000002"><a xlink:title=" ">
<path fill="none" stroke="#63b8ff" d="M278.69,-167.59C305.3,-158.83 345.21,-145.69 374.82,-135.94"/>
<polygon fill="#63b8ff" stroke="#63b8ff" points="375.77,-139.31 384.17,-132.86 373.58,-132.67 375.77,-139.31"/>
</a>
</g>
</g>
<!-- Node10&#45;&gt;Node3 -->
<g id="edge11_Node000010_Node000003" class="edge">
<title>Node10&#45;&gt;Node3</title>
<g id="a_edge11_Node000010_Node000003"><a xlink:title=" ">
<path fill="none" stroke="#63b8ff" d="M208.5,-175.68C176.68,-172.22 134.71,-161.81 113.12,-132 93.3,-104.62 140.12,-85.47 175.66,-75.35"/>
<polygon fill="#63b8ff" stroke="#63b8ff" points="176.5,-78.75 185.25,-72.78 174.68,-71.99 176.5,-78.75"/>
</a>
</g>
</g>
<!-- Node11 -->
<g id="Node000011" class="node">
<title>Node11</title>
<g id="a_Node000011"><a xlink:title=" ">
<polygon fill="#e0e0e0" stroke="#999999" points="178,-132 122.25,-132 122.25,-112 178,-112 178,-132"/>
<text xml:space="preserve" text-anchor="middle" x="150.12" y="-118.5" font-family="Helvetica,sans-Serif" font-size="10.00">stdbool.h</text>
</a>
</g>
</g>
<!-- Node10&#45;&gt;Node11 -->
<g id="edge12_Node000010_Node000011" class="edge">
<title>Node10&#45;&gt;Node11</title>
<g id="a_edge12_Node000010_Node000011"><a xlink:title=" ">
<path fill="none" stroke="#63b8ff" d="M232.71,-167.59C217.46,-159.36 195.05,-147.26 177.42,-137.74"/>
<polygon fill="#63b8ff" stroke="#63b8ff" points="179.47,-134.87 169.01,-133.2 176.15,-141.03 179.47,-134.87"/>
</a>
</g>
</g>
<!-- Node12 -->
<g id="Node000012" class="node">
<title>Node12</title>
<g id="a_Node000012"><a xlink:title=" ">
<polygon fill="#e0e0e0" stroke="#999999" points="288.38,-132 195.88,-132 195.88,-112 288.38,-112 288.38,-132"/>
<text xml:space="preserve" text-anchor="middle" x="242.12" y="-118.5" font-family="Helvetica,sans-Serif" font-size="10.00">esp_idf_version.h</text>
</a>
</g>
</g>
<!-- Node10&#45;&gt;Node12 -->
<g id="edge14_Node000010_Node000012" class="edge">
<title>Node10&#45;&gt;Node12</title>
<g id="a_edge14_Node000010_Node000012"><a xlink:title=" ">
<path fill="none" stroke="#63b8ff" d="M248.73,-167.59C247.74,-160.93 246.38,-151.75 245.15,-143.44"/>
<polygon fill="#63b8ff" stroke="#63b8ff" points="248.65,-143.17 243.72,-133.8 241.73,-144.2 248.65,-143.17"/>
</a>
</g>
</g>
<!-- Node13 -->
<g id="Node000013" class="node">
<title>Node13</title>
<g id="a_Node000013"><a xlink:title=" ">
<polygon fill="#e0e0e0" stroke="#999999" points="367.62,-132 306.62,-132 306.62,-112 367.62,-112 367.62,-132"/>
<text xml:space="preserve" text-anchor="middle" x="337.12" y="-118.5" font-family="Helvetica,sans-Serif" font-size="10.00">x86intrin.h</text>
</a>
</g>
</g>
<!-- Node10&#45;&gt;Node13 -->
<g id="edge15_Node000010_Node000013" class="edge">
<title>Node10&#45;&gt;Node13</title>
<g id="a_edge15_Node000010_Node000013"><a xlink:title=" ">
<path fill="none" stroke="#63b8ff" d="M265.28,-167.59C278.17,-159.59 296.96,-147.93 312.08,-138.54"/>
<polygon fill="#63b8ff" stroke="#63b8ff" points="313.92,-141.53 320.57,-133.28 310.22,-135.58 313.92,-141.53"/>
</a>
</g>
</g>
</g>
</svg>
