<?xml version="1.0" encoding="UTF-8" standalone="no"?>
<!DOCTYPE svg PUBLIC "-//W3C//DTD SVG 1.1//EN"
 "http://www.w3.org/Graphics/SVG/1.1/DTD/svg11.dtd">
<!-- Generated by graphviz version 14.1.2 (20260124.0452)
 -->
<!-- Title: dsps_cplx_gen_init.c Pages: 1 -->
<!--zoomable 252 -->

<svg id="main" version="1.1" xmlns="http://www.w3.org/2000/svg" xmlns:xlink="http://www.w3.org/1999/xlink" xml:space="preserve" onload="init(evt)">

<style type="text/css"><![CDATA[
.node, .edge {opacity: 0.7;}
.node.selected, .edge.selected {opacity: 1;}
.edge:hover path { stroke: red; }
.edge:hover polygon { stroke: red; fill: red; }
]]></style>

<defs>
  <circle id="rim" cx="0" cy="0" r="7"/>
  <circle id="rim2" cx="0" cy="0" r="3.5"/>
  <g id="zoomPlus">
    <use xlink:href="#rim" fill="#404040"><set attributeName="fill" to="#808080" begin="zoomplus.mouseover" end="zoomplus.mouseout"/></use>
    <path d="M-4,0h8M0,-4v8" fill="none" stroke="white" stroke-width="1.5" pointer-events="none"/>
  </g>
  <g id="zoomMin">
    <use xlink:href="#rim" fill="#404040"><set attributeName="fill" to="#808080" begin="zoomminus.mouseover" end="zoomminus.mouseout"/></use>
    <path d="M-4,0h8" fill="none" stroke="white" stroke-width="1.5" pointer-events="none"/>
  </g>
  <g id="arrowUp" transform="translate(30 24)">
    <use xlink:href="#rim"/>
    <path pointer-events="none" fill="none" stroke="white" stroke-width="1.5" d="M0,-3.0v7 M-2.5,-0.5L0,-3.0L2.5,-0.5"/>
  </g>
  <g id="arrowRight" transform="rotate(90) translate(36 -43)">
    <use xlink:href="#rim"/>
    <path pointer-events="none" fill="none" stroke="white" stroke-width="1.5" d="M0,-3.0v7 M-2.5,-0.5L0,-3.0L2.5,-0.5"/>
  </g>
  <g id="arrowDown" transform="rotate(180) translate(-30 -48)">
    <use xlink:href="#rim"/>
    <path pointer-events="none" fill="none" stroke="white" stroke-width="1.5" d="M0,-3.0v7 M-2.5,-0.5L0,-3.0L2.5,-0.5"/>
  </g>
  <g id="arrowLeft" transform="rotate(270) translate(-36 17)">
    <use xlink:href="#rim"/>
    <path pointer-events="none" fill="none" stroke="white" stroke-width="1.5" d="M0,-3.0v7 M-2.5,-0.5L0,-3.0L2.5,-0.5"/>
  </g>
  <g id="resetDef">
    <use xlink:href="#rim2" fill="#404040"><set attributeName="fill" to="#808080" begin="reset.mouseover" end="reset.mouseout"/></use>
  </g>
</defs>
<script type="application/ecmascript">
var viewWidth = 688;
var viewHeight = 252;
var sectionId = 'dynsection-0';
</script>
<script type="application/ecmascript" xlink:href="svg.min.js"/>
<svg id="graph" class="graph">
<g id="viewport">
<title>dsps_cplx_gen_init.c</title>
<!-- Node1 -->
<g id="Node000001" class="node">
<title>Node1</title>
<g id="a_Node000001"><a xlink:title=" ">
<polygon fill="#999999" stroke="#666666" points="589.75,-244 482.25,-244 482.25,-224 589.75,-224 589.75,-244"/>
<text xml:space="preserve" text-anchor="middle" x="536" y="-230.5" font-family="Helvetica,sans-Serif" font-size="10.00">dsps_cplx_gen_init.c</text>
</a>
</g>
</g>
<!-- Node2 -->
<g id="Node000002" class="node">
<title>Node2</title>
<g id="a_Node000002"><a xlink:href="dsps__cplx__gen_8h.html" target="_top" xlink:title=" ">
<polygon fill="white" stroke="#666666" points="222.75,-188 133.25,-188 133.25,-168 222.75,-168 222.75,-188"/>
<text xml:space="preserve" text-anchor="middle" x="178" y="-174.5" font-family="Helvetica,sans-Serif" font-size="10.00">dsps_cplx_gen.h</text>
</a>
</g>
</g>
<!-- Node1&#45;&gt;Node2 -->
<g id="edge1_Node000001_Node000002" class="edge">
<title>Node1&#45;&gt;Node2</title>
<g id="a_edge1_Node000001_Node000002"><a xlink:title=" ">
<path fill="none" stroke="#63b8ff" d="M482.02,-224.86C415.26,-214.79 302.19,-197.73 234.36,-187.5"/>
<polygon fill="#63b8ff" stroke="#63b8ff" points="234.96,-184.05 224.55,-186.02 233.92,-190.97 234.96,-184.05"/>
</a>
</g>
</g>
<!-- Node10 -->
<g id="Node000010" class="node">
<title>Node10</title>
<g id="a_Node000010"><a xlink:href="dsp__common_8h.html" target="_top" xlink:title=" ">
<polygon fill="white" stroke="#666666" points="383.38,-188 300.62,-188 300.62,-168 383.38,-168 383.38,-188"/>
<text xml:space="preserve" text-anchor="middle" x="342" y="-174.5" font-family="Helvetica,sans-Serif" font-size="10.00">dsp_common.h</text>
</a>
</g>
</g>
<!-- Node1&#45;&gt;Node10 -->
<g id="edge9_Node000001_Node000010" class="edge">
<title>Node1&#45;&gt;Node10</title>
<g id="a_edge9_Node000001_Node000010"><a xlink:title=" ">
<path fill="none" stroke="#63b8ff" d="M502.21,-223.59C470.27,-214.71 422.15,-201.31 386.98,-191.52"/>
<polygon fill="#63b8ff" stroke="#63b8ff" points="388.09,-188.2 377.51,-188.89 386.21,-194.94 388.09,-188.2"/>
</a>
</g>
</g>
<!-- Node14 -->
<g id="Node000014" class="node">
<title>Node14</title>
<g id="a_Node000014"><a xlink:href="esp__log_8h.html" target="_top" xlink:title=" ">
<polygon fill="white" stroke="#666666" points="490,-76 432,-76 432,-56 490,-56 490,-76"/>
<text xml:space="preserve" text-anchor="middle" x="461" y="-62.5" font-family="Helvetica,sans-Serif" font-size="10.00">esp_log.h</text>
</a>
</g>
</g>
<!-- Node1&#45;&gt;Node14 -->
<g id="edge15_Node000001_Node000014" class="edge">
<title>Node1&#45;&gt;Node14</title>
<g id="a_edge15_Node000001_Node000014"><a xlink:title=" ">
<path fill="none" stroke="#63b8ff" d="M536.71,-223.77C537.92,-202.49 538.42,-148.99 517,-112 510.11,-100.1 498.77,-90.1 488.09,-82.58"/>
<polygon fill="#63b8ff" stroke="#63b8ff" points="490.16,-79.75 479.88,-77.21 486.33,-85.61 490.16,-79.75"/>
</a>
</g>
</g>
<!-- Node15 -->
<g id="Node000015" class="node">
<title>Node15</title>
<g id="a_Node000015"><a xlink:title=" ">
<polygon fill="#e0e0e0" stroke="#999999" points="610,-188 564,-188 564,-168 610,-168 610,-188"/>
<text xml:space="preserve" text-anchor="middle" x="587" y="-174.5" font-family="Helvetica,sans-Serif" font-size="10.00">math.h</text>
</a>
</g>
</g>
<!-- Node1&#45;&gt;Node15 -->
<g id="edge17_Node000001_Node000015" class="edge">
<title>Node1&#45;&gt;Node15</title>
<g id="a_edge17_Node000001_Node000015"><a xlink:title=" ">
<path fill="none" stroke="#63b8ff" d="M544.88,-223.59C551.9,-216.16 561.9,-205.58 570.39,-196.58"/>
<polygon fill="#63b8ff" stroke="#63b8ff" points="572.86,-199.07 577.18,-189.4 567.77,-194.27 572.86,-199.07"/>
</a>
</g>
</g>
<!-- Node16 -->
<g id="Node000016" class="node">
<title>Node16</title>
<g id="a_Node000016"><a xlink:title=" ">
<polygon fill="#e0e0e0" stroke="#999999" points="680.38,-188 627.62,-188 627.62,-168 680.38,-168 680.38,-188"/>
<text xml:space="preserve" text-anchor="middle" x="654" y="-174.5" font-family="Helvetica,sans-Serif" font-size="10.00">malloc.h</text>
</a>
</g>
</g>
<!-- Node1&#45;&gt;Node16 -->
<g id="edge18_Node000001_Node000016" class="edge">
<title>Node1&#45;&gt;Node16</title>
<g id="a_edge18_Node000001_Node000016"><a xlink:title=" ">
<path fill="none" stroke="#63b8ff" d="M556.55,-223.59C574.88,-215.21 601.99,-202.8 622.96,-193.21"/>
<polygon fill="#63b8ff" stroke="#63b8ff" points="624.27,-196.45 631.91,-189.11 621.36,-190.09 624.27,-196.45"/>
</a>
</g>
</g>
<!-- Node3 -->
<g id="Node000003" class="node">
<title>Node3</title>
<g id="a_Node000003"><a xlink:href="dsp__err_8h.html" target="_top" xlink:title=" ">
<polygon fill="white" stroke="#666666" points="206.25,-132 149.75,-132 149.75,-112 206.25,-112 206.25,-132"/>
<text xml:space="preserve" text-anchor="middle" x="178" y="-118.5" font-family="Helvetica,sans-Serif" font-size="10.00">dsp_err.h</text>
</a>
</g>
</g>
<!-- Node2&#45;&gt;Node3 -->
<g id="edge2_Node000002_Node000003" class="edge">
<title>Node2&#45;&gt;Node3</title>
<g id="a_edge2_Node000002_Node000003"><a xlink:title=" ">
<path fill="none" stroke="#63b8ff" d="M178,-167.59C178,-161.01 178,-151.96 178,-143.73"/>
<polygon fill="#63b8ff" stroke="#63b8ff" points="181.5,-143.81 178,-133.81 174.5,-143.81 181.5,-143.81"/>
</a>
</g>
</g>
<!-- Node8 -->
<g id="Node000008" class="node">
<title>Node8</title>
<g id="a_Node000008"><a xlink:href="dsps__cplx__gen__platform_8h.html" target="_top" xlink:title=" ">
<polygon fill="white" stroke="#666666" points="130,-132 0,-132 0,-112 130,-112 130,-132"/>
<text xml:space="preserve" text-anchor="middle" x="65" y="-118.5" font-family="Helvetica,sans-Serif" font-size="10.00">dsps_cplx_gen_platform.h</text>
</a>
</g>
</g>
<!-- Node2&#45;&gt;Node8 -->
<g id="edge7_Node000002_Node000008" class="edge">
<title>Node2&#45;&gt;Node8</title>
<g id="a_edge7_Node000002_Node000008"><a xlink:title=" ">
<path fill="none" stroke="#63b8ff" d="M158.32,-167.59C140.84,-159.24 115.05,-146.92 95,-137.34"/>
<polygon fill="#63b8ff" stroke="#63b8ff" points="96.73,-134.29 86.2,-133.13 93.72,-140.6 96.73,-134.29"/>
</a>
</g>
</g>
<!-- Node4 -->
<g id="Node000004" class="node">
<title>Node4</title>
<g id="a_Node000004"><a xlink:title=" ">
<polygon fill="#e0e0e0" stroke="#999999" points="340.12,-76 291.88,-76 291.88,-56 340.12,-56 340.12,-76"/>
<text xml:space="preserve" text-anchor="middle" x="316" y="-62.5" font-family="Helvetica,sans-Serif" font-size="10.00">stdint.h</text>
</a>
</g>
</g>
<!-- Node3&#45;&gt;Node4 -->
<g id="edge3_Node000003_Node000004" class="edge">
<title>Node3&#45;&gt;Node4</title>
<g id="a_edge3_Node000003_Node000004"><a xlink:title=" ">
<path fill="none" stroke="#63b8ff" d="M202.04,-111.59C223.97,-103.01 256.63,-90.23 281.37,-80.55"/>
<polygon fill="#63b8ff" stroke="#63b8ff" points="282.33,-83.93 290.37,-77.03 279.78,-77.42 282.33,-83.93"/>
</a>
</g>
</g>
<!-- Node5 -->
<g id="Node000005" class="node">
<title>Node5</title>
<g id="a_Node000005"><a xlink:href="esp__err_8h.html" target="_top" xlink:title=" ">
<polygon fill="white" stroke="#666666" points="274.25,-76 217.75,-76 217.75,-56 274.25,-56 274.25,-76"/>
<text xml:space="preserve" text-anchor="middle" x="246" y="-62.5" font-family="Helvetica,sans-Serif" font-size="10.00">esp_err.h</text>
</a>
</g>
</g>
<!-- Node3&#45;&gt;Node5 -->
<g id="edge4_Node000003_Node000005" class="edge">
<title>Node3&#45;&gt;Node5</title>
<g id="a_edge4_Node000003_Node000005"><a xlink:title=" ">
<path fill="none" stroke="#63b8ff" d="M189.84,-111.59C199.69,-103.77 213.93,-92.46 225.61,-83.19"/>
<polygon fill="#63b8ff" stroke="#63b8ff" points="227.45,-86.2 233.11,-77.24 223.1,-80.72 227.45,-86.2"/>
</a>
</g>
</g>
<!-- Node7 -->
<g id="Node000007" class="node">
<title>Node7</title>
<g id="a_Node000007"><a xlink:href="dsp__err__codes_8h.html" target="_top" xlink:title=" ">
<polygon fill="white" stroke="#666666" points="200,-76 112,-76 112,-56 200,-56 200,-76"/>
<text xml:space="preserve" text-anchor="middle" x="156" y="-62.5" font-family="Helvetica,sans-Serif" font-size="10.00">dsp_err_codes.h</text>
</a>
</g>
</g>
<!-- Node3&#45;&gt;Node7 -->
<g id="edge6_Node000003_Node000007" class="edge">
<title>Node3&#45;&gt;Node7</title>
<g id="a_edge6_Node000003_Node000007"><a xlink:title=" ">
<path fill="none" stroke="#63b8ff" d="M174.17,-111.59C171.39,-104.78 167.54,-95.32 164.09,-86.86"/>
<polygon fill="#63b8ff" stroke="#63b8ff" points="167.37,-85.64 160.36,-77.7 160.89,-88.28 167.37,-85.64"/>
</a>
</g>
</g>
<!-- Node6 -->
<g id="Node000006" class="node">
<title>Node6</title>
<g id="a_Node000006"><a xlink:title=" ">
<polygon fill="#e0e0e0" stroke="#999999" points="376.75,-20 329.25,-20 329.25,0 376.75,0 376.75,-20"/>
<text xml:space="preserve" text-anchor="middle" x="353" y="-6.5" font-family="Helvetica,sans-Serif" font-size="10.00">stdlib.h</text>
</a>
</g>
</g>
<!-- Node5&#45;&gt;Node6 -->
<g id="edge5_Node000005_Node000006" class="edge">
<title>Node5&#45;&gt;Node6</title>
<g id="a_edge5_Node000005_Node000006"><a xlink:title=" ">
<path fill="none" stroke="#63b8ff" d="M264.64,-55.59C281.03,-47.32 305.16,-35.14 324.06,-25.6"/>
<polygon fill="#63b8ff" stroke="#63b8ff" points="325.51,-28.79 332.87,-21.16 322.36,-22.54 325.51,-28.79"/>
</a>
</g>
</g>
<!-- Node9 -->
<g id="Node000009" class="node">
<title>Node9</title>
<g id="a_Node000009"><a xlink:title=" ">
<polygon fill="#e0e0e0" stroke="#999999" points="94.12,-76 27.88,-76 27.88,-56 94.12,-56 94.12,-76"/>
<text xml:space="preserve" text-anchor="middle" x="61" y="-62.5" font-family="Helvetica,sans-Serif" font-size="10.00">sdkconfig.h</text>
</a>
</g>
</g>
<!-- Node8&#45;&gt;Node9 -->
<g id="edge8_Node000008_Node000009" class="edge">
<title>Node8&#45;&gt;Node9</title>
<g id="a_edge8_Node000008_Node000009"><a xlink:title=" ">
<path fill="none" stroke="#63b8ff" d="M64.3,-111.59C63.82,-105.01 63.15,-95.96 62.54,-87.73"/>
<polygon fill="#63b8ff" stroke="#63b8ff" points="66.03,-87.52 61.8,-77.81 59.05,-88.04 66.03,-87.52"/>
</a>
</g>
</g>
<!-- Node10&#45;&gt;Node3 -->
<g id="edge12_Node000010_Node000003" class="edge">
<title>Node10&#45;&gt;Node3</title>
<g id="a_edge12_Node000010_Node000003"><a xlink:title=" ">
<path fill="none" stroke="#63b8ff" d="M313.43,-167.59C286.82,-158.83 246.92,-145.69 217.31,-135.94"/>
<polygon fill="#63b8ff" stroke="#63b8ff" points="218.54,-132.67 207.95,-132.86 216.36,-139.31 218.54,-132.67"/>
</a>
</g>
</g>
<!-- Node10&#45;&gt;Node4 -->
<g id="edge10_Node000010_Node000004" class="edge">
<title>Node10&#45;&gt;Node4</title>
<g id="a_edge10_Node000010_Node000004"><a xlink:title=" ">
<path fill="none" stroke="#63b8ff" d="M339.78,-167.62C335.6,-149.92 326.46,-111.24 320.8,-87.32"/>
<polygon fill="#63b8ff" stroke="#63b8ff" points="324.27,-86.75 318.56,-77.83 317.45,-88.36 324.27,-86.75"/>
</a>
</g>
</g>
<!-- Node11 -->
<g id="Node000011" class="node">
<title>Node11</title>
<g id="a_Node000011"><a xlink:title=" ">
<polygon fill="#e0e0e0" stroke="#999999" points="397.88,-132 342.12,-132 342.12,-112 397.88,-112 397.88,-132"/>
<text xml:space="preserve" text-anchor="middle" x="370" y="-118.5" font-family="Helvetica,sans-Serif" font-size="10.00">stdbool.h</text>
</a>
</g>
</g>
<!-- Node10&#45;&gt;Node11 -->
<g id="edge11_Node000010_Node000011" class="edge">
<title>Node10&#45;&gt;Node11</title>
<g id="a_edge11_Node000010_Node000011"><a xlink:title=" ">
<path fill="none" stroke="#63b8ff" d="M346.88,-167.59C350.49,-160.63 355.54,-150.89 360,-142.29"/>
<polygon fill="#63b8ff" stroke="#63b8ff" points="362.99,-144.13 364.48,-133.64 356.77,-140.91 362.99,-144.13"/>
</a>
</g>
</g>
<!-- Node12 -->
<g id="Node000012" class="node">
<title>Node12</title>
<g id="a_Node000012"><a xlink:title=" ">
<polygon fill="#e0e0e0" stroke="#999999" points="508.25,-132 415.75,-132 415.75,-112 508.25,-112 508.25,-132"/>
<text xml:space="preserve" text-anchor="middle" x="462" y="-118.5" font-family="Helvetica,sans-Serif" font-size="10.00">esp_idf_version.h</text>
</a>
</g>
</g>
<!-- Node10&#45;&gt;Node12 -->
<g id="edge13_Node000010_Node000012" class="edge">
<title>Node10&#45;&gt;Node12</title>
<g id="a_edge13_Node000010_Node000012"><a xlink:title=" ">
<path fill="none" stroke="#63b8ff" d="M362.9,-167.59C381.63,-159.17 409.36,-146.69 430.72,-137.07"/>
<polygon fill="#63b8ff" stroke="#63b8ff" points="431.87,-140.4 439.55,-133.1 429,-134.01 431.87,-140.4"/>
</a>
</g>
</g>
<!-- Node13 -->
<g id="Node000013" class="node">
<title>Node13</title>
<g id="a_Node000013"><a xlink:title=" ">
<polygon fill="#e0e0e0" stroke="#999999" points="285.5,-132 224.5,-132 224.5,-112 285.5,-112 285.5,-132"/>
<text xml:space="preserve" text-anchor="middle" x="255" y="-118.5" font-family="Helvetica,sans-Serif" font-size="10.00">x86intrin.h</text>
</a>
</g>
</g>
<!-- Node10&#45;&gt;Node13 -->
<g id="edge14_Node000010_Node000013" class="edge">
<title>Node10&#45;&gt;Node13</title>
<g id="a_edge14_Node000010_Node000013"><a xlink:title=" ">
<path fill="none" stroke="#63b8ff" d="M326.85,-167.59C313.95,-159.59 295.17,-147.93 280.04,-138.54"/>
<polygon fill="#63b8ff" stroke="#63b8ff" points="281.9,-135.58 271.56,-133.28 278.21,-141.53 281.9,-135.58"/>
</a>
</g>
</g>
<!-- Node14&#45;&gt;Node6 -->
<g id="edge16_Node000014_Node000006" class="edge">
<title>Node14&#45;&gt;Node6</title>
<g id="a_edge16_Node000014_Node000006"><a xlink:title=" ">
<path fill="none" stroke="#63b8ff" d="M442.19,-55.59C425.64,-47.32 401.29,-35.14 382.21,-25.6"/>
<polygon fill="#63b8ff" stroke="#63b8ff" points="383.82,-22.5 373.31,-21.16 380.69,-28.76 383.82,-22.5"/>
</a>
</g>
</g>
</g>
</svg>

<g id="navigator" transform="translate(0 0)" fill="#404254">
  <rect fill="#f2f5e9" fill-opacity="0.5" stroke="#606060" stroke-width=".5" x="0" y="0" width="60" height="60"/>
  <use id="zoomplus" xlink:href="#zoomPlus" x="17" y="9" onmousedown="handleZoom(evt,'in')"/>
  <use id="zoomminus" xlink:href="#zoomMin" x="42" y="9" onmousedown="handleZoom(evt,'out')"/>
  <use id="reset" xlink:href="#resetDef" x="30" y="36" onmousedown="handleReset()"/>
   <use id="arrowup" xlink:href="#arrowUp" x="0" y="0" onmousedown="handlePan(0,-1)"/>
  <use id="arrowright" xlink:href="#arrowRight" x="0" y="0" onmousedown="handlePan(1,0)"/>
  <use id="arrowdown" xlink:href="#arrowDown" x="0" y="0" onmousedown="handlePan(0,1)"/>
  <use id="arrowleft" xlink:href="#arrowLeft" x="0" y="0" onmousedown="handlePan(-1,0)"/>
</g>
<svg viewBox="0 0 15 15" width="100%" height="30px" preserveAspectRatio="xMaxYMin meet">
 <g id="arrow_out" transform="scale(0.3 0.3)">
  <a xlink:href="dsps__cplx__gen__init_8c__incl_org.svg" target="_base">
   <rect id="button" ry="5" rx="5" y="6" x="6" height="38" width="38"
        fill="#f2f5e9" fill-opacity="0.5" stroke="#606060" stroke-width="1.0"/>
   <path id="arrow"
     d="M 11.500037,31.436501 C 11.940474,20.09759 22.043105,11.32322 32.158766,21.979434 L 37.068811,17.246167 C 37.068811,17.246167 37.088388,32 37.088388,32 L 22.160133,31.978069 C 22.160133,31.978069 26.997745,27.140456 26.997745,27.140456 C 18.528582,18.264221 13.291696,25.230495 11.500037,31.436501 z"
     style="fill:#404040;"/>
  </a>
 </g>
</svg>

<style type='text/css'>
<![CDATA[
[data-mouse-over-selected='false'] { opacity: 0.7; }
[data-mouse-over-selected='true']  { opacity: 1.0; }
]]>
</style>
<script type="application/ecmascript"><![CDATA[
document.addEventListener('DOMContentLoaded', (event) => {
  highlightEdges();
  highlightAdjacentNodes();
});
]]></script>
</svg>
