<?xml version="1.0" encoding="UTF-8" standalone="no"?>
<!DOCTYPE svg PUBLIC "-//W3C//DTD SVG 1.1//EN"
 "http://www.w3.org/Graphics/SVG/1.1/DTD/svg11.dtd">
<!-- Generated by graphviz version 14.1.2 (20260124.0452)
 -->
<!-- Title: dsps_fir.h Pages: 1 -->
<!--zoomable 252 -->

<svg id="main" version="1.1" xmlns="http://www.w3.org/2000/svg" xmlns:xlink="http://www.w3.org/1999/xlink" xml:space="preserve" onload="init(evt)">

<style type="text/css"><![CDATA[
.node, .edge {opacity: 0.7;}
.node.selected, .edge.selected {opacity: 1;}
.edge:hover path { stroke: red; }
.edge:hover polygon { stroke: red; fill: red; }
]]></style>

<defs>
  <circle id="rim" cx="0" cy="0" r="7"/>
  <circle id="rim2" cx="0" cy="0" r="3.5"/>
  <g id="zoomPlus">
    <use xlink:href="#rim" fill="#404040"><set attributeName="fill" to="#808080" begin="zoomplus.mouseover" end="zoomplus.mouseout"/></use>
    <path d="M-4,0h8M0,-4v8" fill="none" stroke="white" stroke-width="1.5" pointer-events="none"/>
  </g>
  <g id="zoomMin">
    <use xlink:href="#rim" fill="#404040"><set attributeName="fill" to="#808080" begin="zoomminus.mouseover" end="zoomminus.mouseout"/></use>
    <path d="M-4,0h8" fill="none" stroke="white" stroke-width="1.5" pointer-events="none"/>
  </g>
  <g id="arrowUp" transform="translate(30 24)">
    <use xlink:href="#rim"/>
    <path pointer-events="none" fill="none" stroke="white" stroke-width="1.5" d="M0,-3.0v7 M-2.5,-0.5L0,-3.0L2.5,-0.5"/>
  </g>
  <g id="arrowRight" transform="rotate(90) translate(36 -43)">
    <use xlink:href="#rim"/>
    <path pointer-events="none" fill="none" stroke="white" stroke-width="1.5" d="M0,-3.0v7 M-2.5,-0.5L0,-3.0L2.5,-0.5"/>
  </g>
  <g id="arrowDown" transform="rotate(180) translate(-30 -48)">
    <use xlink:href="#rim"/>
    <path pointer-events="none" fill="none" stroke="white" stroke-width="1.5" d="M0,-3.0v7 M-2.5,-0.5L0,-3.0L2.5,-0.5"/>
  </g>
  <g id="arrowLeft" transform="rotate(270) translate(-36 17)">
    <use xlink:href="#rim"/>
    <path pointer-events="none" fill="none" stroke="white" stroke-width="1.5" d="M0,-3.0v7 M-2.5,-0.5L0,-3.0L2.5,-0.5"/>
  </g>
  <g id="resetDef">
    <use xlink:href="#rim2" fill="#404040"><set attributeName="fill" to="#808080" begin="reset.mouseover" end="reset.mouseout"/></use>
  </g>
</defs>
<script type="application/ecmascript">
var viewWidth = 3402;
var viewHeight = 252;
var sectionId = 'dynsection-1';
</script>
<script type="application/ecmascript" xlink:href="svg.min.js"/>
<svg id="graph" class="graph">
<g id="viewport">
<title>dsps_fir.h</title>
<!-- Node1 -->
<g id="Node000001" class="node">
<title>Node1</title>
<g id="a_Node000001"><a xlink:title=" ">
<polygon fill="#999999" stroke="#666666" points="589.75,-244 531,-244 531,-224 589.75,-224 589.75,-244"/>
<text xml:space="preserve" text-anchor="middle" x="560.38" y="-230.5" font-family="Helvetica,sans-Serif" font-size="10.00">dsps_fir.h</text>
</a>
</g>
</g>
<!-- Node2 -->
<g id="Node000002" class="node">
<title>Node2</title>
<g id="a_Node000002"><a xlink:href="dsps__fir__f32__ansi_8c.html" target="_top" xlink:title=" ">
<polygon fill="white" stroke="#666666" points="100.75,-188 0,-188 0,-168 100.75,-168 100.75,-188"/>
<text xml:space="preserve" text-anchor="middle" x="50.38" y="-174.5" font-family="Helvetica,sans-Serif" font-size="10.00">dsps_fir_f32_ansi.c</text>
</a>
</g>
</g>
<!-- Node1&#45;&gt;Node2 -->
<g id="edge1_Node000001_Node000002" class="edge">
<title>Node1&#45;&gt;Node2</title>
<g id="a_edge1_Node000001_Node000002"><a xlink:title=" ">
<path fill="none" stroke="#63b8ff" d="M519.36,-229.63C440.04,-222.94 260.12,-207 109.38,-188 106.7,-187.66 103.96,-187.3 101.2,-186.92"/>
<polygon fill="#63b8ff" stroke="#63b8ff" points="519,-233.11 529.26,-230.46 519.58,-226.13 519,-233.11"/>
</a>
</g>
</g>
<!-- Node3 -->
<g id="Node000003" class="node">
<title>Node3</title>
<g id="a_Node000003"><a xlink:href="dsps__fir__init__f32_8c.html" target="_top" xlink:title=" ">
<polygon fill="white" stroke="#666666" points="214.12,-188 118.62,-188 118.62,-168 214.12,-168 214.12,-188"/>
<text xml:space="preserve" text-anchor="middle" x="166.38" y="-174.5" font-family="Helvetica,sans-Serif" font-size="10.00">dsps_fir_init_f32.c</text>
</a>
</g>
</g>
<!-- Node1&#45;&gt;Node3 -->
<g id="edge2_Node000001_Node000003" class="edge">
<title>Node1&#45;&gt;Node3</title>
<g id="a_edge2_Node000001_Node000003"><a xlink:title=" ">
<path fill="none" stroke="#63b8ff" d="M519.49,-227.86C456.04,-219.81 330.05,-203.54 223.38,-188 220.5,-187.58 217.54,-187.14 214.56,-186.69"/>
<polygon fill="#63b8ff" stroke="#63b8ff" points="518.73,-231.29 529.09,-229.08 519.61,-224.35 518.73,-231.29"/>
</a>
</g>
</g>
<!-- Node4 -->
<g id="Node000004" class="node">
<title>Node4</title>
<g id="a_Node000004"><a xlink:href="dsps__fird__f32__ansi_8c.html" target="_top" xlink:title=" ">
<polygon fill="white" stroke="#666666" points="338.38,-188 232.38,-188 232.38,-168 338.38,-168 338.38,-188"/>
<text xml:space="preserve" text-anchor="middle" x="285.38" y="-174.5" font-family="Helvetica,sans-Serif" font-size="10.00">dsps_fird_f32_ansi.c</text>
</a>
</g>
</g>
<!-- Node1&#45;&gt;Node4 -->
<g id="edge3_Node000001_Node000004" class="edge">
<title>Node1&#45;&gt;Node4</title>
<g id="a_edge3_Node000001_Node000004"><a xlink:title=" ">
<path fill="none" stroke="#63b8ff" d="M519.42,-224.96C469.71,-215.2 386.01,-198.76 333.34,-188.42"/>
<polygon fill="#63b8ff" stroke="#63b8ff" points="518.71,-228.39 529.2,-226.88 520.06,-221.52 518.71,-228.39"/>
</a>
</g>
</g>
<!-- Node5 -->
<g id="Node000005" class="node">
<title>Node5</title>
<g id="a_Node000005"><a xlink:href="dsps__fird__init__f32_8c.html" target="_top" xlink:title=" ">
<polygon fill="white" stroke="#666666" points="456.75,-188 356,-188 356,-168 456.75,-168 456.75,-188"/>
<text xml:space="preserve" text-anchor="middle" x="406.38" y="-174.5" font-family="Helvetica,sans-Serif" font-size="10.00">dsps_fird_init_f32.c</text>
</a>
</g>
</g>
<!-- Node1&#45;&gt;Node5 -->
<g id="edge4_Node000001_Node000005" class="edge">
<title>Node1&#45;&gt;Node5</title>
<g id="a_edge4_Node000001_Node000005"><a xlink:title=" ">
<path fill="none" stroke="#63b8ff" d="M522.71,-219.79C495.06,-210.1 458.17,-197.16 433.41,-188.48"/>
<polygon fill="#63b8ff" stroke="#63b8ff" points="521.53,-223.09 532.12,-223.09 523.84,-216.48 521.53,-223.09"/>
</a>
</g>
</g>
<!-- Node6 -->
<g id="Node000006" class="node">
<title>Node6</title>
<g id="a_Node000006"><a xlink:href="dsps__fird__init__s16_8c.html" target="_top" xlink:title=" ">
<polygon fill="white" stroke="#666666" points="434.88,-20 331.88,-20 331.88,0 434.88,0 434.88,-20"/>
<text xml:space="preserve" text-anchor="middle" x="383.38" y="-6.5" font-family="Helvetica,sans-Serif" font-size="10.00">dsps_fird_init_s16.c</text>
</a>
</g>
</g>
<!-- Node1&#45;&gt;Node6 -->
<g id="edge5_Node000001_Node000006" class="edge">
<title>Node1&#45;&gt;Node6</title>
<g id="a_edge5_Node000001_Node000006"><a xlink:title=" ">
<path fill="none" stroke="#63b8ff" d="M545.85,-214.78C509.88,-169.66 417.6,-53.93 390.79,-20.3"/>
<polygon fill="#63b8ff" stroke="#63b8ff" points="543.08,-216.92 552.05,-222.56 548.55,-212.56 543.08,-216.92"/>
</a>
</g>
</g>
<!-- Node7 -->
<g id="Node000007" class="node">
<title>Node7</title>
<g id="a_Node000007"><a xlink:href="dsps__fird__s16__ansi_8c.html" target="_top" xlink:title=" ">
<polygon fill="white" stroke="#666666" points="2132.5,-188 2024.25,-188 2024.25,-168 2132.5,-168 2132.5,-188"/>
<text xml:space="preserve" text-anchor="middle" x="2078.38" y="-174.5" font-family="Helvetica,sans-Serif" font-size="10.00">dsps_fird_s16_ansi.c</text>
</a>
</g>
</g>
<!-- Node1&#45;&gt;Node7 -->
<g id="edge6_Node000001_Node000007" class="edge">
<title>Node1&#45;&gt;Node7</title>
<g id="a_edge6_Node000001_Node000007"><a xlink:title=" ">
<path fill="none" stroke="#63b8ff" d="M601.46,-233.4C774.01,-234.71 1456.95,-236.37 2015.38,-188 2018.13,-187.76 2020.94,-187.48 2023.78,-187.18"/>
<polygon fill="#63b8ff" stroke="#63b8ff" points="601.7,-229.9 591.67,-233.32 601.64,-236.9 601.7,-229.9"/>
</a>
</g>
</g>
<!-- Node8 -->
<g id="Node000008" class="node">
<title>Node8</title>
<g id="a_Node000008"><a xlink:href="dsps__firmr__f32__ansi_8c.html" target="_top" xlink:title=" ">
<polygon fill="white" stroke="#666666" points="565.38,-20 453.38,-20 453.38,0 565.38,0 565.38,-20"/>
<text xml:space="preserve" text-anchor="middle" x="509.38" y="-6.5" font-family="Helvetica,sans-Serif" font-size="10.00">dsps_firmr_f32_ansi.c</text>
</a>
</g>
</g>
<!-- Node1&#45;&gt;Node8 -->
<g id="edge7_Node000001_Node000008" class="edge">
<title>Node1&#45;&gt;Node8</title>
<g id="a_edge7_Node000001_Node000008"><a xlink:title=" ">
<path fill="none" stroke="#63b8ff" d="M553.67,-212.89C551.21,-205.15 548.51,-196.21 546.38,-188 529.9,-124.49 515.66,-46.71 510.99,-20.29"/>
<polygon fill="#63b8ff" stroke="#63b8ff" points="550.32,-213.91 556.75,-222.33 556.97,-211.74 550.32,-213.91"/>
</a>
</g>
</g>
<!-- Node9 -->
<g id="Node000009" class="node">
<title>Node9</title>
<g id="a_Node000009"><a xlink:href="dsps__firmr__init__f32_8c.html" target="_top" xlink:title=" ">
<polygon fill="white" stroke="#666666" points="689.75,-20 583,-20 583,0 689.75,0 689.75,-20"/>
<text xml:space="preserve" text-anchor="middle" x="636.38" y="-6.5" font-family="Helvetica,sans-Serif" font-size="10.00">dsps_firmr_init_f32.c</text>
</a>
</g>
</g>
<!-- Node1&#45;&gt;Node9 -->
<g id="edge8_Node000001_Node000009" class="edge">
<title>Node1&#45;&gt;Node9</title>
<g id="a_edge8_Node000001_Node000009"><a xlink:title=" ">
<path fill="none" stroke="#63b8ff" d="M557.69,-212.44C554.17,-177.79 551.41,-106.61 579.38,-56 588.09,-40.22 604.86,-28.03 617.96,-20.34"/>
<polygon fill="#63b8ff" stroke="#63b8ff" points="554.2,-212.77 558.83,-222.3 561.16,-211.97 554.2,-212.77"/>
</a>
</g>
</g>
<!-- Node10 -->
<g id="Node000010" class="node">
<title>Node10</title>
<g id="a_Node000010"><a xlink:href="dsps__firmr__init__s16_8c.html" target="_top" xlink:title=" ">
<polygon fill="white" stroke="#666666" points="816.88,-20 707.88,-20 707.88,0 816.88,0 816.88,-20"/>
<text xml:space="preserve" text-anchor="middle" x="762.38" y="-6.5" font-family="Helvetica,sans-Serif" font-size="10.00">dsps_firmr_init_s16.c</text>
</a>
</g>
</g>
<!-- Node1&#45;&gt;Node10 -->
<g id="edge9_Node000001_Node000010" class="edge">
<title>Node1&#45;&gt;Node10</title>
<g id="a_edge9_Node000001_Node000010"><a xlink:title=" ">
<path fill="none" stroke="#63b8ff" d="M573.14,-214.37C596.68,-180.72 649.47,-108.41 703.38,-56 717.41,-42.35 735.58,-29.04 748.03,-20.49"/>
<polygon fill="#63b8ff" stroke="#63b8ff" points="570.49,-212.06 567.67,-222.27 576.24,-216.04 570.49,-212.06"/>
</a>
</g>
</g>
<!-- Node11 -->
<g id="Node000011" class="node">
<title>Node11</title>
<g id="a_Node000011"><a xlink:href="dsps__firmr__s16__ansi_8c.html" target="_top" xlink:title=" ">
<polygon fill="white" stroke="#666666" points="2200.5,-20 2086.25,-20 2086.25,0 2200.5,0 2200.5,-20"/>
<text xml:space="preserve" text-anchor="middle" x="2143.38" y="-6.5" font-family="Helvetica,sans-Serif" font-size="10.00">dsps_firmr_s16_ansi.c</text>
</a>
</g>
</g>
<!-- Node1&#45;&gt;Node11 -->
<g id="edge10_Node000001_Node000011" class="edge">
<title>Node1&#45;&gt;Node11</title>
<g id="a_edge10_Node000001_Node000011"><a xlink:title=" ">
<path fill="none" stroke="#63b8ff" d="M601.38,-230.37C703.69,-223.76 978.44,-205.7 1207.38,-188 1500,-165.37 1583.69,-214.43 1865.38,-132 1883.69,-126.64 1884.9,-116.8 1903.38,-112 1983.3,-91.22 3331.69,-135.1 3389.38,-76 3395.58,-69.64 3395.55,-62.4 3389.38,-56 3347.65,-12.74 2440.27,-10.67 2200.86,-10.88"/>
<polygon fill="#63b8ff" stroke="#63b8ff" points="601.32,-226.87 591.56,-231 601.77,-233.85 601.32,-226.87"/>
</a>
</g>
</g>
<!-- Node12 -->
<g id="Node000012" class="node">
<title>Node12</title>
<g id="a_Node000012"><a xlink:href="dsps__resampler_8h.html" target="_top" xlink:title=" ">
<polygon fill="white" stroke="#666666" points="2006,-188 1912.75,-188 1912.75,-168 2006,-168 2006,-188"/>
<text xml:space="preserve" text-anchor="middle" x="1959.38" y="-174.5" font-family="Helvetica,sans-Serif" font-size="10.00">dsps_resampler.h</text>
</a>
</g>
</g>
<!-- Node1&#45;&gt;Node12 -->
<g id="edge11_Node000001_Node000012" class="edge">
<title>Node1&#45;&gt;Node12</title>
<g id="a_edge11_Node000001_Node000012"><a xlink:title=" ">
<path fill="none" stroke="#63b8ff" d="M601.56,-233.31C765.65,-234.17 1388.56,-234.03 1898.38,-188 1902.96,-187.59 1907.72,-187.06 1912.48,-186.46"/>
<polygon fill="#63b8ff" stroke="#63b8ff" points="601.65,-229.81 591.63,-233.25 601.61,-236.81 601.65,-229.81"/>
</a>
</g>
</g>
<!-- Node15 -->
<g id="Node000015" class="node">
<title>Node15</title>
<g id="a_Node000015"><a xlink:href="esp__dsp_8h.html" target="_top" xlink:title=" ">
<polygon fill="white" stroke="#666666" points="1855.88,-132 1794.88,-132 1794.88,-112 1855.88,-112 1855.88,-132"/>
<text xml:space="preserve" text-anchor="middle" x="1825.38" y="-118.5" font-family="Helvetica,sans-Serif" font-size="10.00">esp_dsp.h</text>
</a>
</g>
</g>
<!-- Node1&#45;&gt;Node15 -->
<g id="edge44_Node000001_Node000015" class="edge">
<title>Node1&#45;&gt;Node15</title>
<g id="a_edge44_Node000001_Node000015"><a xlink:title=" ">
<path fill="none" stroke="#63b8ff" d="M601.48,-229.43C796.22,-212.49 1623.72,-140.54 1794.47,-125.69"/>
<polygon fill="#63b8ff" stroke="#63b8ff" points="601.26,-225.93 591.6,-230.29 601.86,-232.91 601.26,-225.93"/>
</a>
</g>
</g>
<!-- Node44 -->
<g id="Node000044" class="node">
<title>Node44</title>
<g id="a_Node000044"><a xlink:href="test__fir_8c.html" target="_top" xlink:title=" ">
<polygon fill="white" stroke="#666666" points="2204.5,-188 2150.25,-188 2150.25,-168 2204.5,-168 2204.5,-188"/>
<text xml:space="preserve" text-anchor="middle" x="2177.38" y="-174.5" font-family="Helvetica,sans-Serif" font-size="10.00">test_fir.c</text>
</a>
</g>
</g>
<!-- Node1&#45;&gt;Node44 -->
<g id="edge45_Node000001_Node000044" class="edge">
<title>Node1&#45;&gt;Node44</title>
<g id="a_edge45_Node000001_Node000044"><a xlink:title=" ">
<path fill="none" stroke="#63b8ff" d="M601.67,-233.03C818.91,-233.03 1831.18,-230.68 2141.38,-188 2144.18,-187.61 2147.09,-187.09 2149.98,-186.5"/>
<polygon fill="#63b8ff" stroke="#63b8ff" points="601.72,-229.53 591.72,-233.03 601.72,-236.53 601.72,-229.53"/>
</a>
</g>
</g>
<!-- Node13 -->
<g id="Node000013" class="node">
<title>Node13</title>
<g id="a_Node000013"><a xlink:href="dsps__resampler__mr_8c.html" target="_top" xlink:title=" ">
<polygon fill="white" stroke="#666666" points="2022.25,-132 1912.5,-132 1912.5,-112 2022.25,-112 2022.25,-132"/>
<text xml:space="preserve" text-anchor="middle" x="1967.38" y="-118.5" font-family="Helvetica,sans-Serif" font-size="10.00">dsps_resampler_mr.c</text>
</a>
</g>
</g>
<!-- Node12&#45;&gt;Node13 -->
<g id="edge12_Node000012_Node000013" class="edge">
<title>Node12&#45;&gt;Node13</title>
<g id="a_edge12_Node000012_Node000013"><a xlink:title=" ">
<path fill="none" stroke="#63b8ff" d="M1962.42,-156.43C1963.66,-148.11 1965.01,-138.93 1966,-132.3"/>
<polygon fill="#63b8ff" stroke="#63b8ff" points="1958.99,-155.69 1960.99,-166.1 1965.92,-156.72 1958.99,-155.69"/>
</a>
</g>
</g>
<!-- Node14 -->
<g id="Node000014" class="node">
<title>Node14</title>
<g id="a_Node000014"><a xlink:href="dsps__resampler__ph_8c.html" target="_top" xlink:title=" ">
<polygon fill="white" stroke="#666666" points="2148.88,-132 2039.88,-132 2039.88,-112 2148.88,-112 2148.88,-132"/>
<text xml:space="preserve" text-anchor="middle" x="2094.38" y="-118.5" font-family="Helvetica,sans-Serif" font-size="10.00">dsps_resampler_ph.c</text>
</a>
</g>
</g>
<!-- Node12&#45;&gt;Node14 -->
<g id="edge13_Node000012_Node000014" class="edge">
<title>Node12&#45;&gt;Node14</title>
<g id="a_edge13_Node000012_Node000014"><a xlink:title=" ">
<path fill="none" stroke="#63b8ff" d="M1993.37,-163.4C2017.49,-153.75 2049.26,-141.05 2070.68,-132.48"/>
<polygon fill="#63b8ff" stroke="#63b8ff" points="1992.28,-160.07 1984.3,-167.03 1994.88,-166.57 1992.28,-160.07"/>
</a>
</g>
</g>
<!-- Node12&#45;&gt;Node15 -->
<g id="edge14_Node000012_Node000015" class="edge">
<title>Node12&#45;&gt;Node15</title>
<g id="a_edge14_Node000012_Node000015"><a xlink:title=" ">
<path fill="none" stroke="#63b8ff" d="M1925.63,-163.4C1901.69,-153.75 1870.16,-141.05 1848.9,-132.48"/>
<polygon fill="#63b8ff" stroke="#63b8ff" points="1924.05,-166.54 1934.63,-167.03 1926.66,-160.04 1924.05,-166.54"/>
</a>
</g>
</g>
<!-- Node16 -->
<g id="Node000016" class="node">
<title>Node16</title>
<g id="a_Node000016"><a xlink:href="applications_2azure__board__apps_2apps_23d__graphics_2main_23d__graphics__demo_8cpp.html" target="_top" xlink:title=" ">
<polygon fill="white" stroke="#666666" points="1982.62,-76 1866.12,-76 1866.12,-56 1982.62,-56 1982.62,-76"/>
<text xml:space="preserve" text-anchor="middle" x="1924.38" y="-62.5" font-family="Helvetica,sans-Serif" font-size="10.00">3d_graphics_demo.cpp</text>
</a>
</g>
</g>
<!-- Node15&#45;&gt;Node16 -->
<g id="edge15_Node000015_Node000016" class="edge">
<title>Node15&#45;&gt;Node16</title>
<g id="a_edge15_Node000015_Node000016"><a xlink:title=" ">
<path fill="none" stroke="#63b8ff" d="M1852.24,-106.35C1869.66,-96.84 1891.86,-84.74 1907,-76.48"/>
<polygon fill="#63b8ff" stroke="#63b8ff" points="1851.05,-103.01 1843.95,-110.87 1854.4,-109.15 1851.05,-103.01"/>
</a>
</g>
</g>
<!-- Node17 -->
<g id="Node000017" class="node">
<title>Node17</title>
<g id="a_Node000017"><a xlink:href="applications_2m5stack__core__s3_2apps_23d__graphics_2main_23d__graphics__demo_8cpp.html" target="_top" xlink:title=" ">
<polygon fill="white" stroke="#666666" points="2117.62,-76 2001.12,-76 2001.12,-56 2117.62,-56 2117.62,-76"/>
<text xml:space="preserve" text-anchor="middle" x="2059.38" y="-62.5" font-family="Helvetica,sans-Serif" font-size="10.00">3d_graphics_demo.cpp</text>
</a>
</g>
</g>
<!-- Node15&#45;&gt;Node17 -->
<g id="edge16_Node000015_Node000017" class="edge">
<title>Node15&#45;&gt;Node17</title>
<g id="a_edge16_Node000015_Node000017"><a xlink:title=" ">
<path fill="none" stroke="#63b8ff" d="M1867.12,-111.37C1909.92,-101.49 1976.08,-86.22 2018.55,-76.42"/>
<polygon fill="#63b8ff" stroke="#63b8ff" points="1866.4,-107.94 1857.44,-113.6 1867.97,-114.76 1866.4,-107.94"/>
</a>
</g>
</g>
<!-- Node18 -->
<g id="Node000018" class="node">
<title>Node18</title>
<g id="a_Node000018"><a xlink:href="external__examples_2b00f000e_2applications_2azure__board__apps_2apps_23d__graphics_2main_23d__graphics__demo_8cpp.html" target="_top" xlink:title=" ">
<polygon fill="white" stroke="#666666" points="2252.62,-76 2136.12,-76 2136.12,-56 2252.62,-56 2252.62,-76"/>
<text xml:space="preserve" text-anchor="middle" x="2194.38" y="-62.5" font-family="Helvetica,sans-Serif" font-size="10.00">3d_graphics_demo.cpp</text>
</a>
</g>
</g>
<!-- Node15&#45;&gt;Node18 -->
<g id="edge17_Node000015_Node000018" class="edge">
<title>Node15&#45;&gt;Node18</title>
<g id="a_edge17_Node000015_Node000018"><a xlink:title=" ">
<path fill="none" stroke="#63b8ff" d="M1867.35,-112.52C1868.37,-112.34 1869.38,-112.17 1870.38,-112 1895.92,-107.68 2049.71,-86.65 2135.91,-74.93"/>
<polygon fill="#63b8ff" stroke="#63b8ff" points="1867,-109.03 1857.8,-114.29 1868.27,-115.91 1867,-109.03"/>
</a>
</g>
</g>
<!-- Node19 -->
<g id="Node000019" class="node">
<title>Node19</title>
<g id="a_Node000019"><a xlink:href="external__examples_2b00f000e_2applications_2m5stack__core__s3_2apps_23d__graphics_2main_23d__graphics__demo_8cpp.html" target="_top" xlink:title=" ">
<polygon fill="white" stroke="#666666" points="2387.62,-76 2271.12,-76 2271.12,-56 2387.62,-56 2387.62,-76"/>
<text xml:space="preserve" text-anchor="middle" x="2329.38" y="-62.5" font-family="Helvetica,sans-Serif" font-size="10.00">3d_graphics_demo.cpp</text>
</a>
</g>
</g>
<!-- Node15&#45;&gt;Node19 -->
<g id="edge18_Node000015_Node000019" class="edge">
<title>Node15&#45;&gt;Node19</title>
<g id="a_edge18_Node000015_Node000019"><a xlink:title=" ">
<path fill="none" stroke="#63b8ff" d="M1867.34,-112.46C1868.36,-112.3 1869.37,-112.15 1870.38,-112 2043.07,-86.85 2087.95,-95.45 2261.38,-76 2264.45,-75.65 2267.61,-75.29 2270.79,-74.9"/>
<polygon fill="#63b8ff" stroke="#63b8ff" points="1867.03,-108.96 1857.78,-114.11 1868.23,-115.86 1867.03,-108.96"/>
</a>
</g>
</g>
<!-- Node20 -->
<g id="Node000020" class="node">
<title>Node20</title>
<g id="a_Node000020"><a xlink:href="external__examples_2d1468452_2apps_23d__graphics_2main_23d__graphics__demo_8cpp.html" target="_top" xlink:title=" ">
<polygon fill="white" stroke="#666666" points="2522.62,-76 2406.12,-76 2406.12,-56 2522.62,-56 2522.62,-76"/>
<text xml:space="preserve" text-anchor="middle" x="2464.38" y="-62.5" font-family="Helvetica,sans-Serif" font-size="10.00">3d_graphics_demo.cpp</text>
</a>
</g>
</g>
<!-- Node15&#45;&gt;Node20 -->
<g id="edge19_Node000015_Node000020" class="edge">
<title>Node15&#45;&gt;Node20</title>
<g id="a_edge19_Node000015_Node000020"><a xlink:title=" ">
<path fill="none" stroke="#63b8ff" d="M1867.34,-112.43C1868.36,-112.28 1869.37,-112.13 1870.38,-112 2102.63,-80.96 2163.22,-99.38 2396.38,-76 2399.46,-75.69 2402.61,-75.35 2405.8,-74.99"/>
<polygon fill="#63b8ff" stroke="#63b8ff" points="1867.05,-108.93 1857.77,-114.03 1868.21,-115.83 1867.05,-108.93"/>
</a>
</g>
</g>
<!-- Node21 -->
<g id="Node000021" class="node">
<title>Node21</title>
<g id="a_Node000021"><a xlink:href="external__examples_2f9c2d4b3_2azure__board__apps_2apps_23d__graphics_2main_23d__graphics__demo_8cpp.html" target="_top" xlink:title=" ">
<polygon fill="white" stroke="#666666" points="2657.62,-76 2541.12,-76 2541.12,-56 2657.62,-56 2657.62,-76"/>
<text xml:space="preserve" text-anchor="middle" x="2599.38" y="-62.5" font-family="Helvetica,sans-Serif" font-size="10.00">3d_graphics_demo.cpp</text>
</a>
</g>
</g>
<!-- Node15&#45;&gt;Node21 -->
<g id="edge20_Node000015_Node000021" class="edge">
<title>Node15&#45;&gt;Node21</title>
<g id="a_edge20_Node000015_Node000021"><a xlink:title=" ">
<path fill="none" stroke="#63b8ff" d="M1867.34,-112.41C1868.36,-112.26 1869.37,-112.13 1870.38,-112 2162.26,-75.06 2238.43,-103.32 2531.38,-76 2534.46,-75.71 2537.62,-75.39 2540.8,-75.04"/>
<polygon fill="#63b8ff" stroke="#63b8ff" points="1867.06,-108.91 1857.76,-113.97 1868.19,-115.81 1867.06,-108.91"/>
</a>
</g>
</g>
<!-- Node22 -->
<g id="Node000022" class="node">
<title>Node22</title>
<g id="a_Node000022"><a xlink:href="applications_2m5stack__core__s3_2apps_2kalman__filter_2main_23d__kalman__demo_8cpp.html" target="_top" xlink:title=" ">
<polygon fill="white" stroke="#666666" points="2787,-76 2675.75,-76 2675.75,-56 2787,-56 2787,-76"/>
<text xml:space="preserve" text-anchor="middle" x="2731.38" y="-62.5" font-family="Helvetica,sans-Serif" font-size="10.00">3d_kalman_demo.cpp</text>
</a>
</g>
</g>
<!-- Node15&#45;&gt;Node22 -->
<g id="edge21_Node000015_Node000022" class="edge">
<title>Node15&#45;&gt;Node22</title>
<g id="a_edge21_Node000015_Node000022"><a xlink:title=" ">
<path fill="none" stroke="#63b8ff" d="M1867.34,-112.4C1868.36,-112.25 1869.37,-112.12 1870.38,-112 2221.91,-69.15 2313.71,-108.32 2666.38,-76 2669.32,-75.73 2672.35,-75.42 2675.39,-75.09"/>
<polygon fill="#63b8ff" stroke="#63b8ff" points="1867.07,-108.89 1857.75,-113.94 1868.18,-115.8 1867.07,-108.89"/>
</a>
</g>
</g>
<!-- Node23 -->
<g id="Node000023" class="node">
<title>Node23</title>
<g id="a_Node000023"><a xlink:href="external__examples_2b00f000e_2applications_2m5stack__core__s3_2apps_2kalman__filter_2main_23d__kalman__demo_8cpp.html" target="_top" xlink:title=" ">
<polygon fill="white" stroke="#666666" points="2916,-76 2804.75,-76 2804.75,-56 2916,-56 2916,-76"/>
<text xml:space="preserve" text-anchor="middle" x="2860.38" y="-62.5" font-family="Helvetica,sans-Serif" font-size="10.00">3d_kalman_demo.cpp</text>
</a>
</g>
</g>
<!-- Node15&#45;&gt;Node23 -->
<g id="edge22_Node000015_Node000023" class="edge">
<title>Node15&#45;&gt;Node23</title>
<g id="a_edge22_Node000015_Node000023"><a xlink:title=" ">
<path fill="none" stroke="#63b8ff" d="M1867.33,-112.39C1868.36,-112.25 1869.37,-112.12 1870.38,-112 2279.37,-63.46 2386.15,-112.72 2796.38,-76 2799.06,-75.76 2801.8,-75.49 2804.57,-75.19"/>
<polygon fill="#63b8ff" stroke="#63b8ff" points="1867.08,-108.88 1857.75,-113.92 1868.18,-115.8 1867.08,-108.88"/>
</a>
</g>
</g>
<!-- Node24 -->
<g id="Node000024" class="node">
<title>Node24</title>
<g id="a_Node000024"><a xlink:href="applications_2lyrat__board__app_2main_2audio__amp__main_8c.html" target="_top" xlink:title=" ">
<polygon fill="white" stroke="#666666" points="3032.25,-76 2934.5,-76 2934.5,-56 3032.25,-56 3032.25,-76"/>
<text xml:space="preserve" text-anchor="middle" x="2983.38" y="-62.5" font-family="Helvetica,sans-Serif" font-size="10.00">audio_amp_main.c</text>
</a>
</g>
</g>
<!-- Node15&#45;&gt;Node24 -->
<g id="edge23_Node000015_Node000024" class="edge">
<title>Node15&#45;&gt;Node24</title>
<g id="a_edge23_Node000015_Node000024"><a xlink:title=" ">
<path fill="none" stroke="#63b8ff" d="M1867.33,-112.38C1868.36,-112.24 1869.37,-112.12 1870.38,-112 2336.4,-57.81 2458.29,-120.05 2925.38,-76 2928.22,-75.73 2931.13,-75.42 2934.06,-75.06"/>
<polygon fill="#63b8ff" stroke="#63b8ff" points="1867.08,-108.88 1857.75,-113.9 1868.17,-115.79 1867.08,-108.88"/>
</a>
</g>
</g>
<!-- Node25 -->
<g id="Node000025" class="node">
<title>Node25</title>
<g id="a_Node000025"><a xlink:href="external__examples_21fa4e38f_2lyrat__board__app_2main_2audio__amp__main_8c.html" target="_top" xlink:title=" ">
<polygon fill="white" stroke="#666666" points="3148.25,-76 3050.5,-76 3050.5,-56 3148.25,-56 3148.25,-76"/>
<text xml:space="preserve" text-anchor="middle" x="3099.38" y="-62.5" font-family="Helvetica,sans-Serif" font-size="10.00">audio_amp_main.c</text>
</a>
</g>
</g>
<!-- Node15&#45;&gt;Node25 -->
<g id="edge24_Node000015_Node000025" class="edge">
<title>Node15&#45;&gt;Node25</title>
<g id="a_edge24_Node000015_Node000025"><a xlink:title=" ">
<path fill="none" stroke="#63b8ff" d="M1867.33,-112.38C1868.36,-112.24 1869.37,-112.12 1870.38,-112 2387.68,-52.74 2522.9,-124.01 3041.38,-76 3044.22,-75.74 3047.13,-75.42 3050.07,-75.07"/>
<polygon fill="#63b8ff" stroke="#63b8ff" points="1867.08,-108.87 1857.75,-113.89 1868.17,-115.79 1867.08,-108.87"/>
</a>
</g>
</g>
<!-- Node26 -->
<g id="Node000026" class="node">
<title>Node26</title>
<g id="a_Node000026"><a xlink:href="external__examples_2b00f000e_2applications_2lyrat__board__app_2main_2audio__amp__main_8c.html" target="_top" xlink:title=" ">
<polygon fill="white" stroke="#666666" points="3264.25,-76 3166.5,-76 3166.5,-56 3264.25,-56 3264.25,-76"/>
<text xml:space="preserve" text-anchor="middle" x="3215.38" y="-62.5" font-family="Helvetica,sans-Serif" font-size="10.00">audio_amp_main.c</text>
</a>
</g>
</g>
<!-- Node15&#45;&gt;Node26 -->
<g id="edge25_Node000015_Node000026" class="edge">
<title>Node15&#45;&gt;Node26</title>
<g id="a_edge25_Node000015_Node000026"><a xlink:title=" ">
<path fill="none" stroke="#63b8ff" d="M1867.33,-112.37C1868.36,-112.24 1869.37,-112.11 1870.38,-112 2438.97,-47.66 2587.52,-127.97 3157.38,-76 3160.22,-75.74 3163.13,-75.43 3166.07,-75.08"/>
<polygon fill="#63b8ff" stroke="#63b8ff" points="1867.08,-108.87 1857.75,-113.87 1868.17,-115.78 1867.08,-108.87"/>
</a>
</g>
</g>
<!-- Node27 -->
<g id="Node000027" class="node">
<title>Node27</title>
<g id="a_Node000027"><a xlink:href="dsp__tests_8h.html" target="_top" xlink:title=" ">
<polygon fill="#fff0f0" stroke="red" points="655.88,-76 588.88,-76 588.88,-56 655.88,-56 655.88,-76"/>
<text xml:space="preserve" text-anchor="middle" x="622.38" y="-62.5" font-family="Helvetica,sans-Serif" font-size="10.00">dsp_tests.h</text>
</a>
</g>
</g>
<!-- Node15&#45;&gt;Node27 -->
<g id="edge26_Node000015_Node000027" class="edge">
<title>Node15&#45;&gt;Node27</title>
<g id="a_edge26_Node000015_Node000027"><a xlink:title=" ">
<path fill="none" stroke="#63b8ff" d="M1783.32,-120.38C1635.2,-117.98 1124.03,-107.77 703.38,-76 687.86,-74.83 670.72,-73 656.22,-71.3"/>
<polygon fill="#63b8ff" stroke="#63b8ff" points="1782.97,-123.88 1793.03,-120.54 1783.08,-116.88 1782.97,-123.88"/>
</a>
</g>
</g>
<!-- Node29 -->
<g id="Node000029" class="node">
<title>Node29</title>
<g id="a_Node000029"><a xlink:href="applications_2azure__board__apps_2graphics_23d__matrix_23d__matrix__src_2graphics__support_8h.html" target="_top" xlink:title=" ">
<polygon fill="#fff0f0" stroke="red" points="3380.62,-76 3282.12,-76 3282.12,-56 3380.62,-56 3380.62,-76"/>
<text xml:space="preserve" text-anchor="middle" x="3331.38" y="-62.5" font-family="Helvetica,sans-Serif" font-size="10.00">graphics_support.h</text>
</a>
</g>
</g>
<!-- Node15&#45;&gt;Node29 -->
<g id="edge32_Node000015_Node000029" class="edge">
<title>Node15&#45;&gt;Node29</title>
<g id="a_edge32_Node000015_Node000029"><a xlink:title=" ">
<path fill="none" stroke="#63b8ff" d="M1867.33,-112.37C1868.35,-112.24 1869.37,-112.11 1870.38,-112 2490.26,-42.58 2652.13,-131.94 3273.38,-76 3276.12,-75.75 3278.92,-75.46 3281.75,-75.13"/>
<polygon fill="#63b8ff" stroke="#63b8ff" points="1867.09,-108.86 1857.75,-113.87 1868.17,-115.78 1867.09,-108.86"/>
</a>
</g>
</g>
<!-- Node31 -->
<g id="Node000031" class="node">
<title>Node31</title>
<g id="a_Node000031"><a xlink:href="external__examples_2b00f000e_2applications_2azure__board__apps_2graphics_23d__matrix_23d__matrix__src_2graphics__support_8h.html" target="_top" xlink:title=" ">
<polygon fill="#fff0f0" stroke="red" points="810.62,-76 712.12,-76 712.12,-56 810.62,-56 810.62,-76"/>
<text xml:space="preserve" text-anchor="middle" x="761.38" y="-62.5" font-family="Helvetica,sans-Serif" font-size="10.00">graphics_support.h</text>
</a>
</g>
</g>
<!-- Node15&#45;&gt;Node31 -->
<g id="edge33_Node000015_Node000031" class="edge">
<title>Node15&#45;&gt;Node31</title>
<g id="a_edge33_Node000015_Node000031"><a xlink:title=" ">
<path fill="none" stroke="#63b8ff" d="M1783.16,-120.72C1644.76,-119.45 1192.36,-112.59 820.38,-76 817.28,-75.7 814.1,-75.34 810.9,-74.95"/>
<polygon fill="#63b8ff" stroke="#63b8ff" points="1782.91,-124.22 1792.94,-120.8 1782.97,-117.22 1782.91,-124.22"/>
</a>
</g>
</g>
<!-- Node33 -->
<g id="Node000033" class="node">
<title>Node33</title>
<g id="a_Node000033"><a xlink:href="external__examples_2f9c2d4b3_2azure__board__apps_2graphics_23d__matrix_23d__matrix__src_2graphics__support_8h.html" target="_top" xlink:title=" ">
<polygon fill="#fff0f0" stroke="red" points="927.62,-76 829.12,-76 829.12,-56 927.62,-56 927.62,-76"/>
<text xml:space="preserve" text-anchor="middle" x="878.38" y="-62.5" font-family="Helvetica,sans-Serif" font-size="10.00">graphics_support.h</text>
</a>
</g>
</g>
<!-- Node15&#45;&gt;Node33 -->
<g id="edge34_Node000015_Node000033" class="edge">
<title>Node15&#45;&gt;Node33</title>
<g id="a_edge34_Node000015_Node000033"><a xlink:title=" ">
<path fill="none" stroke="#63b8ff" d="M1783.42,-120.42C1655.84,-118.31 1261.36,-109.35 936.38,-76 933.64,-75.72 930.83,-75.4 928.01,-75.05"/>
<polygon fill="#63b8ff" stroke="#63b8ff" points="1783.01,-123.91 1793.07,-120.57 1783.12,-116.91 1783.01,-123.91"/>
</a>
</g>
</g>
<!-- Node35 -->
<g id="Node000035" class="node">
<title>Node35</title>
<g id="a_Node000035"><a xlink:href="applications_2m5stack__core__s3_2apps_23d__graphics_2main_2init__display_8c.html" target="_top" xlink:title=" ">
<polygon fill="white" stroke="#666666" points="1017.5,-76 945.25,-76 945.25,-56 1017.5,-56 1017.5,-76"/>
<text xml:space="preserve" text-anchor="middle" x="981.38" y="-62.5" font-family="Helvetica,sans-Serif" font-size="10.00">init_display.c</text>
</a>
</g>
</g>
<!-- Node15&#45;&gt;Node35 -->
<g id="edge35_Node000015_Node000035" class="edge">
<title>Node15&#45;&gt;Node35</title>
<g id="a_edge35_Node000015_Node000035"><a xlink:title=" ">
<path fill="none" stroke="#63b8ff" d="M1782.89,-120.71C1663.3,-119.45 1313.85,-112.66 1026.38,-76 1023.53,-75.64 1020.59,-75.2 1017.65,-74.71"/>
<polygon fill="#63b8ff" stroke="#63b8ff" points="1782.84,-124.21 1792.87,-120.81 1782.9,-117.21 1782.84,-124.21"/>
</a>
</g>
</g>
<!-- Node36 -->
<g id="Node000036" class="node">
<title>Node36</title>
<g id="a_Node000036"><a xlink:href="external__examples_2b00f000e_2applications_2m5stack__core__s3_2apps_23d__graphics_2main_2init__display_8c.html" target="_top" xlink:title=" ">
<polygon fill="white" stroke="#666666" points="1107.5,-76 1035.25,-76 1035.25,-56 1107.5,-56 1107.5,-76"/>
<text xml:space="preserve" text-anchor="middle" x="1071.38" y="-62.5" font-family="Helvetica,sans-Serif" font-size="10.00">init_display.c</text>
</a>
</g>
</g>
<!-- Node15&#45;&gt;Node36 -->
<g id="edge36_Node000015_Node000036" class="edge">
<title>Node15&#45;&gt;Node36</title>
<g id="a_edge36_Node000015_Node000036"><a xlink:title=" ">
<path fill="none" stroke="#63b8ff" d="M1783.24,-120.29C1673.14,-118.02 1367.99,-109 1116.38,-76 1113.53,-75.63 1110.6,-75.18 1107.65,-74.69"/>
<polygon fill="#63b8ff" stroke="#63b8ff" points="1782.9,-123.79 1792.97,-120.49 1783.04,-116.79 1782.9,-123.79"/>
</a>
</g>
</g>
<!-- Node37 -->
<g id="Node000037" class="node">
<title>Node37</title>
<g id="a_Node000037"><a xlink:href="applications_2azure__board__apps_2apps_2kalman__filter_2main_2kalman__filter__demo_8cpp.html" target="_top" xlink:title=" ">
<polygon fill="white" stroke="#666666" points="1245.12,-76 1125.62,-76 1125.62,-56 1245.12,-56 1245.12,-76"/>
<text xml:space="preserve" text-anchor="middle" x="1185.38" y="-62.5" font-family="Helvetica,sans-Serif" font-size="10.00">kalman_filter_demo.cpp</text>
</a>
</g>
</g>
<!-- Node15&#45;&gt;Node37 -->
<g id="edge37_Node000015_Node000037" class="edge">
<title>Node15&#45;&gt;Node37</title>
<g id="a_edge37_Node000015_Node000037"><a xlink:title=" ">
<path fill="none" stroke="#63b8ff" d="M1783,-118.4C1688.16,-112.43 1451.65,-96.63 1254.38,-76 1251.49,-75.7 1248.54,-75.37 1245.56,-75.03"/>
<polygon fill="#63b8ff" stroke="#63b8ff" points="1782.67,-121.89 1792.87,-119.02 1783.1,-114.9 1782.67,-121.89"/>
</a>
</g>
</g>
<!-- Node38 -->
<g id="Node000038" class="node">
<title>Node38</title>
<g id="a_Node000038"><a xlink:href="external__examples_2b00f000e_2applications_2azure__board__apps_2apps_2kalman__filter_2main_2kalman__filter__demo_8cpp.html" target="_top" xlink:title=" ">
<polygon fill="white" stroke="#666666" points="1383.12,-76 1263.62,-76 1263.62,-56 1383.12,-56 1383.12,-76"/>
<text xml:space="preserve" text-anchor="middle" x="1323.38" y="-62.5" font-family="Helvetica,sans-Serif" font-size="10.00">kalman_filter_demo.cpp</text>
</a>
</g>
</g>
<!-- Node15&#45;&gt;Node38 -->
<g id="edge38_Node000015_Node000038" class="edge">
<title>Node15&#45;&gt;Node38</title>
<g id="a_edge38_Node000015_Node000038"><a xlink:title=" ">
<path fill="none" stroke="#63b8ff" d="M1783.47,-117.01C1706.12,-109.57 1535.71,-92.79 1392.38,-76 1389.5,-75.66 1386.55,-75.31 1383.57,-74.95"/>
<polygon fill="#63b8ff" stroke="#63b8ff" points="1782.84,-120.47 1793.13,-117.94 1783.51,-113.5 1782.84,-120.47"/>
</a>
</g>
</g>
<!-- Node39 -->
<g id="Node000039" class="node">
<title>Node39</title>
<g id="a_Node000039"><a xlink:href="external__examples_2d1468452_2apps_2kalman__filter_2main_2kalman__filter__demo_8cpp.html" target="_top" xlink:title=" ">
<polygon fill="white" stroke="#666666" points="1521.12,-76 1401.62,-76 1401.62,-56 1521.12,-56 1521.12,-76"/>
<text xml:space="preserve" text-anchor="middle" x="1461.38" y="-62.5" font-family="Helvetica,sans-Serif" font-size="10.00">kalman_filter_demo.cpp</text>
</a>
</g>
</g>
<!-- Node15&#45;&gt;Node39 -->
<g id="edge39_Node000015_Node000039" class="edge">
<title>Node15&#45;&gt;Node39</title>
<g id="a_edge39_Node000015_Node000039"><a xlink:title=" ">
<path fill="none" stroke="#63b8ff" d="M1783.32,-114.76C1718.83,-105.19 1595.21,-86.85 1521.33,-75.89"/>
<polygon fill="#63b8ff" stroke="#63b8ff" points="1782.75,-118.21 1793.16,-116.22 1783.78,-111.29 1782.75,-118.21"/>
</a>
</g>
</g>
<!-- Node40 -->
<g id="Node000040" class="node">
<title>Node40</title>
<g id="a_Node000040"><a xlink:href="external__examples_2f9c2d4b3_2azure__board__apps_2apps_2kalman__filter_2main_2kalman__filter__demo_8cpp.html" target="_top" xlink:title=" ">
<polygon fill="white" stroke="#666666" points="1659.12,-76 1539.62,-76 1539.62,-56 1659.12,-56 1659.12,-76"/>
<text xml:space="preserve" text-anchor="middle" x="1599.38" y="-62.5" font-family="Helvetica,sans-Serif" font-size="10.00">kalman_filter_demo.cpp</text>
</a>
</g>
</g>
<!-- Node15&#45;&gt;Node40 -->
<g id="edge40_Node000015_Node000040" class="edge">
<title>Node15&#45;&gt;Node40</title>
<g id="a_edge40_Node000015_Node000040"><a xlink:title=" ">
<path fill="none" stroke="#63b8ff" d="M1783.38,-110.97C1742.09,-101.1 1679.54,-86.15 1639.07,-76.48"/>
<polygon fill="#63b8ff" stroke="#63b8ff" points="1782.41,-114.33 1792.95,-113.25 1784.04,-107.52 1782.41,-114.33"/>
</a>
</g>
</g>
<!-- Node41 -->
<g id="Node000041" class="node">
<title>Node41</title>
<g id="a_Node000041"><a xlink:href="main_2main_8c.html" target="_top" xlink:title=" ">
<polygon fill="white" stroke="#666666" points="1722,-76 1676.75,-76 1676.75,-56 1722,-56 1722,-76"/>
<text xml:space="preserve" text-anchor="middle" x="1699.38" y="-62.5" font-family="Helvetica,sans-Serif" font-size="10.00">main.c</text>
</a>
</g>
</g>
<!-- Node15&#45;&gt;Node41 -->
<g id="edge41_Node000015_Node000041" class="edge">
<title>Node15&#45;&gt;Node41</title>
<g id="a_edge41_Node000015_Node000041"><a xlink:title=" ">
<path fill="none" stroke="#63b8ff" d="M1793.04,-107.14C1770.6,-97.52 1741.3,-84.97 1721.49,-76.48"/>
<polygon fill="#63b8ff" stroke="#63b8ff" points="1791.47,-110.28 1802.04,-111 1794.22,-103.84 1791.47,-110.28"/>
</a>
</g>
</g>
<!-- Node42 -->
<g id="Node000042" class="node">
<title>Node42</title>
<g id="a_Node000042"><a xlink:href="components_2espressif____esp-dsp_2applications_2spectrum__box__lite_2main_2main_8c.html" target="_top" xlink:title=" ">
<polygon fill="white" stroke="#666666" points="1785,-76 1739.75,-76 1739.75,-56 1785,-56 1785,-76"/>
<text xml:space="preserve" text-anchor="middle" x="1762.38" y="-62.5" font-family="Helvetica,sans-Serif" font-size="10.00">main.c</text>
</a>
</g>
</g>
<!-- Node15&#45;&gt;Node42 -->
<g id="edge42_Node000015_Node000042" class="edge">
<title>Node15&#45;&gt;Node42</title>
<g id="a_edge42_Node000015_Node000042"><a xlink:title=" ">
<path fill="none" stroke="#63b8ff" d="M1805.69,-104.13C1794.97,-94.94 1782.13,-83.93 1773.22,-76.3"/>
<polygon fill="#63b8ff" stroke="#63b8ff" points="1803.38,-106.76 1813.25,-110.61 1807.94,-101.44 1803.38,-106.76"/>
</a>
</g>
</g>
<!-- Node43 -->
<g id="Node000043" class="node">
<title>Node43</title>
<g id="a_Node000043"><a xlink:href="components_2espressif____esp-dsp_2external__examples_2b00f000e_2applications_2spectrum__box__lite_2main_2main_8c.html" target="_top" xlink:title=" ">
<polygon fill="white" stroke="#666666" points="1848,-76 1802.75,-76 1802.75,-56 1848,-56 1848,-76"/>
<text xml:space="preserve" text-anchor="middle" x="1825.38" y="-62.5" font-family="Helvetica,sans-Serif" font-size="10.00">main.c</text>
</a>
</g>
</g>
<!-- Node15&#45;&gt;Node43 -->
<g id="edge43_Node000015_Node000043" class="edge">
<title>Node15&#45;&gt;Node43</title>
<g id="a_edge43_Node000015_Node000043"><a xlink:title=" ">
<path fill="none" stroke="#63b8ff" d="M1825.38,-100.13C1825.38,-91.9 1825.38,-82.85 1825.38,-76.3"/>
<polygon fill="#63b8ff" stroke="#63b8ff" points="1821.88,-100.08 1825.38,-110.08 1828.88,-100.08 1821.88,-100.08"/>
</a>
</g>
</g>
<!-- Node27&#45;&gt;Node6 -->
<g id="edge27_Node000027_Node000006" class="edge">
<title>Node27&#45;&gt;Node6</title>
<g id="a_edge27_Node000027_Node000006"><a xlink:title=" ">
<path fill="none" stroke="#63b8ff" d="M577.23,-54.8C533.55,-44.93 467.85,-30.09 425.29,-20.47"/>
<polygon fill="#63b8ff" stroke="#63b8ff" points="576.38,-58.2 586.91,-56.99 577.93,-51.37 576.38,-58.2"/>
</a>
</g>
</g>
<!-- Node27&#45;&gt;Node8 -->
<g id="edge28_Node000027_Node000008" class="edge">
<title>Node27&#45;&gt;Node8</title>
<g id="a_edge28_Node000027_Node000008"><a xlink:title=" ">
<path fill="none" stroke="#63b8ff" d="M592.55,-50.75C572.54,-41.18 546.73,-28.85 529.21,-20.48"/>
<polygon fill="#63b8ff" stroke="#63b8ff" points="590.79,-53.79 601.33,-54.94 593.81,-47.47 590.79,-53.79"/>
</a>
</g>
</g>
<!-- Node27&#45;&gt;Node9 -->
<g id="edge29_Node000027_Node000009" class="edge">
<title>Node27&#45;&gt;Node9</title>
<g id="a_edge29_Node000027_Node000009"><a xlink:title=" ">
<path fill="none" stroke="#63b8ff" d="M627.63,-44.71C629.81,-36.32 632.23,-27.01 633.96,-20.3"/>
<polygon fill="#63b8ff" stroke="#63b8ff" points="624.32,-43.57 625.19,-54.13 631.09,-45.33 624.32,-43.57"/>
</a>
</g>
</g>
<!-- Node27&#45;&gt;Node10 -->
<g id="edge30_Node000027_Node000010" class="edge">
<title>Node27&#45;&gt;Node10</title>
<g id="a_edge30_Node000027_Node000010"><a xlink:title=" ">
<path fill="none" stroke="#63b8ff" d="M657.29,-51.53C682.35,-41.87 715.49,-29.08 737.8,-20.48"/>
<polygon fill="#63b8ff" stroke="#63b8ff" points="656.24,-48.18 648.17,-55.05 658.76,-54.72 656.24,-48.18"/>
</a>
</g>
</g>
<!-- Node27&#45;&gt;Node11 -->
<g id="edge31_Node000027_Node000011" class="edge">
<title>Node27&#45;&gt;Node11</title>
<g id="a_edge31_Node000027_Node000011"><a xlink:title=" ">
<path fill="none" stroke="#63b8ff" d="M667.52,-59.34C679.18,-58.06 691.73,-56.83 703.38,-56 1240.1,-17.86 1891.64,-12.04 2086.01,-11.16"/>
<polygon fill="#63b8ff" stroke="#63b8ff" points="667.25,-55.85 657.72,-60.46 668.05,-62.8 667.25,-55.85"/>
</a>
</g>
</g>
</g>
</svg>

<g id="navigator" transform="translate(0 0)" fill="#404254">
  <rect fill="#f2f5e9" fill-opacity="0.5" stroke="#606060" stroke-width=".5" x="0" y="0" width="60" height="60"/>
  <use id="zoomplus" xlink:href="#zoomPlus" x="17" y="9" onmousedown="handleZoom(evt,'in')"/>
  <use id="zoomminus" xlink:href="#zoomMin" x="42" y="9" onmousedown="handleZoom(evt,'out')"/>
  <use id="reset" xlink:href="#resetDef" x="30" y="36" onmousedown="handleReset()"/>
   <use id="arrowup" xlink:href="#arrowUp" x="0" y="0" onmousedown="handlePan(0,-1)"/>
  <use id="arrowright" xlink:href="#arrowRight" x="0" y="0" onmousedown="handlePan(1,0)"/>
  <use id="arrowdown" xlink:href="#arrowDown" x="0" y="0" onmousedown="handlePan(0,1)"/>
  <use id="arrowleft" xlink:href="#arrowLeft" x="0" y="0" onmousedown="handlePan(-1,0)"/>
</g>
<svg viewBox="0 0 15 15" width="100%" height="30px" preserveAspectRatio="xMaxYMin meet">
 <g id="arrow_out" transform="scale(0.3 0.3)">
  <a xlink:href="dsps__fir_8h__dep__incl_org.svg" target="_base">
   <rect id="button" ry="5" rx="5" y="6" x="6" height="38" width="38"
        fill="#f2f5e9" fill-opacity="0.5" stroke="#606060" stroke-width="1.0"/>
   <path id="arrow"
     d="M 11.500037,31.436501 C 11.940474,20.09759 22.043105,11.32322 32.158766,21.979434 L 37.068811,17.246167 C 37.068811,17.246167 37.088388,32 37.088388,32 L 22.160133,31.978069 C 22.160133,31.978069 26.997745,27.140456 26.997745,27.140456 C 18.528582,18.264221 13.291696,25.230495 11.500037,31.436501 z"
     style="fill:#404040;"/>
  </a>
 </g>
</svg>

<style type='text/css'>
<![CDATA[
[data-mouse-over-selected='false'] { opacity: 0.7; }
[data-mouse-over-selected='true']  { opacity: 1.0; }
]]>
</style>
<script type="application/ecmascript"><![CDATA[
document.addEventListener('DOMContentLoaded', (event) => {
  highlightEdges();
  highlightAdjacentNodes();
});
]]></script>
</svg>
