<?xml version="1.0" encoding="UTF-8" standalone="no"?>
<!DOCTYPE svg PUBLIC "-//W3C//DTD SVG 1.1//EN"
 "http://www.w3.org/Graphics/SVG/1.1/DTD/svg11.dtd">
<!-- Generated by graphviz version 14.1.2 (20260124.0452)
 -->
<!-- Title: dsps_cplx_gen.h Pages: 1 -->
<svg width="333pt" height="196pt"
 viewBox="0.00 0.00 333.00 196.00" xmlns="http://www.w3.org/2000/svg" xmlns:xlink="http://www.w3.org/1999/xlink">
<g id="graph0" class="graph" transform="scale(1 1) rotate(0) translate(4 192)">
<title>dsps_cplx_gen.h</title>
<!-- Node1 -->
<g id="Node000001" class="node">
<title>Node1</title>
<g id="a_Node000001"><a xlink:title=" ">
<polygon fill="#999999" stroke="#666666" points="230.88,-188 141.38,-188 141.38,-168 230.88,-168 230.88,-188"/>
<text xml:space="preserve" text-anchor="middle" x="186.12" y="-174.5" font-family="Helvetica,sans-Serif" font-size="10.00">dsps_cplx_gen.h</text>
</a>
</g>
</g>
<!-- Node2 -->
<g id="Node000002" class="node">
<title>Node2</title>
<g id="a_Node000002"><a xlink:href="dsp__err_8h.html" target="_top" xlink:title=" ">
<polygon fill="white" stroke="#666666" points="140.38,-132 83.88,-132 83.88,-112 140.38,-112 140.38,-132"/>
<text xml:space="preserve" text-anchor="middle" x="112.12" y="-118.5" font-family="Helvetica,sans-Serif" font-size="10.00">dsp_err.h</text>
</a>
</g>
</g>
<!-- Node1&#45;&gt;Node2 -->
<g id="edge1_Node000001_Node000002" class="edge">
<title>Node1&#45;&gt;Node2</title>
<g id="a_edge1_Node000001_Node000002"><a xlink:title=" ">
<path fill="none" stroke="#63b8ff" d="M173.24,-167.59C162.41,-159.7 146.71,-148.24 133.94,-138.92"/>
<polygon fill="#63b8ff" stroke="#63b8ff" points="136.23,-136.26 126.09,-133.19 132.1,-141.91 136.23,-136.26"/>
</a>
</g>
</g>
<!-- Node7 -->
<g id="Node000007" class="node">
<title>Node7</title>
<g id="a_Node000007"><a xlink:href="dsps__cplx__gen__platform_8h.html" target="_top" xlink:title=" ">
<polygon fill="white" stroke="#666666" points="325.12,-132 195.12,-132 195.12,-112 325.12,-112 325.12,-132"/>
<text xml:space="preserve" text-anchor="middle" x="260.12" y="-118.5" font-family="Helvetica,sans-Serif" font-size="10.00">dsps_cplx_gen_platform.h</text>
</a>
</g>
</g>
<!-- Node1&#45;&gt;Node7 -->
<g id="edge6_Node000001_Node000007" class="edge">
<title>Node1&#45;&gt;Node7</title>
<g id="a_edge6_Node000001_Node000007"><a xlink:title=" ">
<path fill="none" stroke="#63b8ff" d="M199.01,-167.59C209.84,-159.7 225.54,-148.24 238.31,-138.92"/>
<polygon fill="#63b8ff" stroke="#63b8ff" points="240.15,-141.91 246.16,-133.19 236.02,-136.26 240.15,-141.91"/>
</a>
</g>
</g>
<!-- Node3 -->
<g id="Node000003" class="node">
<title>Node3</title>
<g id="a_Node000003"><a xlink:title=" ">
<polygon fill="#e0e0e0" stroke="#999999" points="48.25,-76 0,-76 0,-56 48.25,-56 48.25,-76"/>
<text xml:space="preserve" text-anchor="middle" x="24.12" y="-62.5" font-family="Helvetica,sans-Serif" font-size="10.00">stdint.h</text>
</a>
</g>
</g>
<!-- Node2&#45;&gt;Node3 -->
<g id="edge2_Node000002_Node000003" class="edge">
<title>Node2&#45;&gt;Node3</title>
<g id="a_edge2_Node000002_Node000003"><a xlink:title=" ">
<path fill="none" stroke="#63b8ff" d="M96.8,-111.59C83.63,-103.51 64.39,-91.71 49.02,-82.27"/>
<polygon fill="#63b8ff" stroke="#63b8ff" points="51.22,-79.52 40.86,-77.27 47.56,-85.48 51.22,-79.52"/>
</a>
</g>
</g>
<!-- Node4 -->
<g id="Node000004" class="node">
<title>Node4</title>
<g id="a_Node000004"><a xlink:href="esp__err_8h.html" target="_top" xlink:title=" ">
<polygon fill="white" stroke="#666666" points="122.38,-76 65.88,-76 65.88,-56 122.38,-56 122.38,-76"/>
<text xml:space="preserve" text-anchor="middle" x="94.12" y="-62.5" font-family="Helvetica,sans-Serif" font-size="10.00">esp_err.h</text>
</a>
</g>
</g>
<!-- Node2&#45;&gt;Node4 -->
<g id="edge3_Node000002_Node000004" class="edge">
<title>Node2&#45;&gt;Node4</title>
<g id="a_edge3_Node000002_Node000004"><a xlink:title=" ">
<path fill="none" stroke="#63b8ff" d="M108.99,-111.59C106.74,-104.86 103.64,-95.53 100.84,-87.15"/>
<polygon fill="#63b8ff" stroke="#63b8ff" points="104.19,-86.11 97.7,-77.73 97.55,-88.33 104.19,-86.11"/>
</a>
</g>
</g>
<!-- Node6 -->
<g id="Node000006" class="node">
<title>Node6</title>
<g id="a_Node000006"><a xlink:href="dsp__err__codes_8h.html" target="_top" xlink:title=" ">
<polygon fill="white" stroke="#666666" points="228.12,-76 140.12,-76 140.12,-56 228.12,-56 228.12,-76"/>
<text xml:space="preserve" text-anchor="middle" x="184.12" y="-62.5" font-family="Helvetica,sans-Serif" font-size="10.00">dsp_err_codes.h</text>
</a>
</g>
</g>
<!-- Node2&#45;&gt;Node6 -->
<g id="edge5_Node000002_Node000006" class="edge">
<title>Node2&#45;&gt;Node6</title>
<g id="a_edge5_Node000002_Node000006"><a xlink:title=" ">
<path fill="none" stroke="#63b8ff" d="M124.67,-111.59C135.09,-103.77 150.17,-92.46 162.54,-83.19"/>
<polygon fill="#63b8ff" stroke="#63b8ff" points="164.62,-86.01 170.52,-77.21 160.42,-80.41 164.62,-86.01"/>
</a>
</g>
</g>
<!-- Node5 -->
<g id="Node000005" class="node">
<title>Node5</title>
<g id="a_Node000005"><a xlink:title=" ">
<polygon fill="#e0e0e0" stroke="#999999" points="117.88,-20 70.38,-20 70.38,0 117.88,0 117.88,-20"/>
<text xml:space="preserve" text-anchor="middle" x="94.12" y="-6.5" font-family="Helvetica,sans-Serif" font-size="10.00">stdlib.h</text>
</a>
</g>
</g>
<!-- Node4&#45;&gt;Node5 -->
<g id="edge4_Node000004_Node000005" class="edge">
<title>Node4&#45;&gt;Node5</title>
<g id="a_edge4_Node000004_Node000005"><a xlink:title=" ">
<path fill="none" stroke="#63b8ff" d="M94.12,-55.59C94.12,-49.01 94.12,-39.96 94.12,-31.73"/>
<polygon fill="#63b8ff" stroke="#63b8ff" points="97.63,-31.81 94.13,-21.81 90.63,-31.81 97.63,-31.81"/>
</a>
</g>
</g>
<!-- Node8 -->
<g id="Node000008" class="node">
<title>Node8</title>
<g id="a_Node000008"><a xlink:title=" ">
<polygon fill="#e0e0e0" stroke="#999999" points="312.25,-76 246,-76 246,-56 312.25,-56 312.25,-76"/>
<text xml:space="preserve" text-anchor="middle" x="279.12" y="-62.5" font-family="Helvetica,sans-Serif" font-size="10.00">sdkconfig.h</text>
</a>
</g>
</g>
<!-- Node7&#45;&gt;Node8 -->
<g id="edge7_Node000007_Node000008" class="edge">
<title>Node7&#45;&gt;Node8</title>
<g id="a_edge7_Node000007_Node000008"><a xlink:title=" ">
<path fill="none" stroke="#63b8ff" d="M263.43,-111.59C265.8,-104.86 269.09,-95.53 272.03,-87.15"/>
<polygon fill="#63b8ff" stroke="#63b8ff" points="275.33,-88.32 275.35,-77.73 268.73,-86 275.33,-88.32"/>
</a>
</g>
</g>
</g>
</svg>
