<?xml version="1.0" encoding="UTF-8" standalone="no"?>
<!DOCTYPE svg PUBLIC "-//W3C//DTD SVG 1.1//EN"
 "http://www.w3.org/Graphics/SVG/1.1/DTD/svg11.dtd">
<!-- Generated by graphviz version 14.1.2 (20260124.0452)
 -->
<!-- Title: dsps_wind_flat_top_f32.c Pages: 1 -->
<svg width="180pt" height="96pt"
 viewBox="0.00 0.00 180.00 96.00" xmlns="http://www.w3.org/2000/svg" xmlns:xlink="http://www.w3.org/1999/xlink">
<g id="graph0" class="graph" transform="scale(1 1) rotate(0) translate(4 92)">
<title>dsps_wind_flat_top_f32.c</title>
<!-- Node1 -->
<g id="Node000001" class="node">
<title>Node1</title>
<g id="a_Node000001"><a xlink:title=" ">
<polygon fill="#999999" stroke="#666666" points="151.12,-88 51.12,-88 51.12,-56 151.12,-56 151.12,-88"/>
<text xml:space="preserve" text-anchor="start" x="59.12" y="-74.5" font-family="Helvetica,sans-Serif" font-size="10.00">dsps_wind_flat_top</text>
<text xml:space="preserve" text-anchor="middle" x="101.12" y="-62.5" font-family="Helvetica,sans-Serif" font-size="10.00">_f32.c</text>
</a>
</g>
</g>
<!-- Node2 -->
<g id="Node000002" class="node">
<title>Node2</title>
<g id="a_Node000002"><a xlink:href="dsps__wind__flat__top_8h.html" target="_top" xlink:title=" ">
<polygon fill="white" stroke="#666666" points="108.25,-20 0,-20 0,0 108.25,0 108.25,-20"/>
<text xml:space="preserve" text-anchor="middle" x="54.12" y="-6.5" font-family="Helvetica,sans-Serif" font-size="10.00">dsps_wind_flat_top.h</text>
</a>
</g>
</g>
<!-- Node1&#45;&gt;Node2 -->
<g id="edge1_Node000001_Node000002" class="edge">
<title>Node1&#45;&gt;Node2</title>
<g id="a_edge1_Node000001_Node000002"><a xlink:title=" ">
<path fill="none" stroke="#63b8ff" d="M89.02,-55.55C82.77,-47.56 75.09,-37.76 68.53,-29.39"/>
<polygon fill="#63b8ff" stroke="#63b8ff" points="71.35,-27.31 62.43,-21.6 65.84,-31.63 71.35,-27.31"/>
</a>
</g>
</g>
<!-- Node3 -->
<g id="Node000003" class="node">
<title>Node3</title>
<g id="a_Node000003"><a xlink:title=" ">
<polygon fill="#e0e0e0" stroke="#999999" points="172.12,-20 126.12,-20 126.12,0 172.12,0 172.12,-20"/>
<text xml:space="preserve" text-anchor="middle" x="149.12" y="-6.5" font-family="Helvetica,sans-Serif" font-size="10.00">math.h</text>
</a>
</g>
</g>
<!-- Node1&#45;&gt;Node3 -->
<g id="edge2_Node000001_Node000003" class="edge">
<title>Node1&#45;&gt;Node3</title>
<g id="a_edge2_Node000001_Node000003"><a xlink:title=" ">
<path fill="none" stroke="#63b8ff" d="M113.49,-55.55C119.88,-47.56 127.72,-37.76 134.41,-29.39"/>
<polygon fill="#63b8ff" stroke="#63b8ff" points="137.14,-31.59 140.65,-21.59 131.67,-27.21 137.14,-31.59"/>
</a>
</g>
</g>
</g>
</svg>
