<?xml version="1.0" encoding="UTF-8" standalone="no"?>
<!DOCTYPE svg PUBLIC "-//W3C//DTD SVG 1.1//EN"
 "http://www.w3.org/Graphics/SVG/1.1/DTD/svg11.dtd">
<!-- Generated by graphviz version 14.1.2 (20260124.0452)
 -->
<!-- Title: dsps_cplx_gen.c Pages: 1 -->
<svg width="333pt" height="196pt"
 viewBox="0.00 0.00 333.00 196.00" xmlns="http://www.w3.org/2000/svg" xmlns:xlink="http://www.w3.org/1999/xlink">
<g id="graph0" class="graph" transform="scale(1 1) rotate(0) translate(4 192)">
<title>dsps_cplx_gen.c</title>
<!-- Node1 -->
<g id="Node000001" class="node">
<title>Node1</title>
<g id="a_Node000001"><a xlink:title=" ">
<polygon fill="#999999" stroke="#666666" points="230.88,-188 141.38,-188 141.38,-168 230.88,-168 230.88,-188"/>
<text xml:space="preserve" text-anchor="middle" x="186.12" y="-174.5" font-family="Helvetica,sans-Serif" font-size="10.00">dsps_cplx_gen.c</text>
</a>
</g>
</g>
<!-- Node2 -->
<g id="Node000002" class="node">
<title>Node2</title>
<g id="a_Node000002"><a xlink:href="dsps__cplx__gen_8h.html" target="_top" xlink:title=" ">
<polygon fill="white" stroke="#666666" points="230.88,-132 141.38,-132 141.38,-112 230.88,-112 230.88,-132"/>
<text xml:space="preserve" text-anchor="middle" x="186.12" y="-118.5" font-family="Helvetica,sans-Serif" font-size="10.00">dsps_cplx_gen.h</text>
</a>
</g>
</g>
<!-- Node1&#45;&gt;Node2 -->
<g id="edge1_Node000001_Node000002" class="edge">
<title>Node1&#45;&gt;Node2</title>
<g id="a_edge1_Node000001_Node000002"><a xlink:title=" ">
<path fill="none" stroke="#63b8ff" d="M186.12,-167.59C186.12,-161.01 186.12,-151.96 186.12,-143.73"/>
<polygon fill="#63b8ff" stroke="#63b8ff" points="189.63,-143.81 186.13,-133.81 182.63,-143.81 189.63,-143.81"/>
</a>
</g>
</g>
<!-- Node3 -->
<g id="Node000003" class="node">
<title>Node3</title>
<g id="a_Node000003"><a xlink:href="dsp__err_8h.html" target="_top" xlink:title=" ">
<polygon fill="white" stroke="#666666" points="140.38,-76 83.88,-76 83.88,-56 140.38,-56 140.38,-76"/>
<text xml:space="preserve" text-anchor="middle" x="112.12" y="-62.5" font-family="Helvetica,sans-Serif" font-size="10.00">dsp_err.h</text>
</a>
</g>
</g>
<!-- Node2&#45;&gt;Node3 -->
<g id="edge2_Node000002_Node000003" class="edge">
<title>Node2&#45;&gt;Node3</title>
<g id="a_edge2_Node000002_Node000003"><a xlink:title=" ">
<path fill="none" stroke="#63b8ff" d="M173.24,-111.59C162.41,-103.7 146.71,-92.24 133.94,-82.92"/>
<polygon fill="#63b8ff" stroke="#63b8ff" points="136.23,-80.26 126.09,-77.19 132.1,-85.91 136.23,-80.26"/>
</a>
</g>
</g>
<!-- Node8 -->
<g id="Node000008" class="node">
<title>Node8</title>
<g id="a_Node000008"><a xlink:href="dsps__cplx__gen__platform_8h.html" target="_top" xlink:title=" ">
<polygon fill="white" stroke="#666666" points="325.12,-76 195.12,-76 195.12,-56 325.12,-56 325.12,-76"/>
<text xml:space="preserve" text-anchor="middle" x="260.12" y="-62.5" font-family="Helvetica,sans-Serif" font-size="10.00">dsps_cplx_gen_platform.h</text>
</a>
</g>
</g>
<!-- Node2&#45;&gt;Node8 -->
<g id="edge6_Node000002_Node000008" class="edge">
<title>Node2&#45;&gt;Node8</title>
<g id="a_edge6_Node000002_Node000008"><a xlink:title=" ">
<path fill="none" stroke="#63b8ff" d="M199.01,-111.59C209.84,-103.7 225.54,-92.24 238.31,-82.92"/>
<polygon fill="#63b8ff" stroke="#63b8ff" points="240.15,-85.91 246.16,-77.19 236.02,-80.26 240.15,-85.91"/>
</a>
</g>
</g>
<!-- Node4 -->
<g id="Node000004" class="node">
<title>Node4</title>
<g id="a_Node000004"><a xlink:title=" ">
<polygon fill="#e0e0e0" stroke="#999999" points="48.25,-20 0,-20 0,0 48.25,0 48.25,-20"/>
<text xml:space="preserve" text-anchor="middle" x="24.12" y="-6.5" font-family="Helvetica,sans-Serif" font-size="10.00">stdint.h</text>
</a>
</g>
</g>
<!-- Node3&#45;&gt;Node4 -->
<g id="edge3_Node000003_Node000004" class="edge">
<title>Node3&#45;&gt;Node4</title>
<g id="a_edge3_Node000003_Node000004"><a xlink:title=" ">
<path fill="none" stroke="#63b8ff" d="M96.8,-55.59C83.63,-47.51 64.39,-35.71 49.02,-26.27"/>
<polygon fill="#63b8ff" stroke="#63b8ff" points="51.22,-23.52 40.86,-21.27 47.56,-29.48 51.22,-23.52"/>
</a>
</g>
</g>
<!-- Node5 -->
<g id="Node000005" class="node">
<title>Node5</title>
<g id="a_Node000005"><a xlink:href="esp__err_8h.html" target="_top" xlink:title=" ">
<polygon fill="#fff0f0" stroke="red" points="122.38,-20 65.88,-20 65.88,0 122.38,0 122.38,-20"/>
<text xml:space="preserve" text-anchor="middle" x="94.12" y="-6.5" font-family="Helvetica,sans-Serif" font-size="10.00">esp_err.h</text>
</a>
</g>
</g>
<!-- Node3&#45;&gt;Node5 -->
<g id="edge4_Node000003_Node000005" class="edge">
<title>Node3&#45;&gt;Node5</title>
<g id="a_edge4_Node000003_Node000005"><a xlink:title=" ">
<path fill="none" stroke="#63b8ff" d="M108.99,-55.59C106.74,-48.86 103.64,-39.53 100.84,-31.15"/>
<polygon fill="#63b8ff" stroke="#63b8ff" points="104.19,-30.11 97.7,-21.73 97.55,-32.33 104.19,-30.11"/>
</a>
</g>
</g>
<!-- Node7 -->
<g id="Node000007" class="node">
<title>Node7</title>
<g id="a_Node000007"><a xlink:href="dsp__err__codes_8h.html" target="_top" xlink:title=" ">
<polygon fill="white" stroke="#666666" points="228.12,-20 140.12,-20 140.12,0 228.12,0 228.12,-20"/>
<text xml:space="preserve" text-anchor="middle" x="184.12" y="-6.5" font-family="Helvetica,sans-Serif" font-size="10.00">dsp_err_codes.h</text>
</a>
</g>
</g>
<!-- Node3&#45;&gt;Node7 -->
<g id="edge5_Node000003_Node000007" class="edge">
<title>Node3&#45;&gt;Node7</title>
<g id="a_edge5_Node000003_Node000007"><a xlink:title=" ">
<path fill="none" stroke="#63b8ff" d="M124.67,-55.59C135.09,-47.77 150.17,-36.46 162.54,-27.19"/>
<polygon fill="#63b8ff" stroke="#63b8ff" points="164.62,-30.01 170.52,-21.21 160.42,-24.41 164.62,-30.01"/>
</a>
</g>
</g>
<!-- Node9 -->
<g id="Node000009" class="node">
<title>Node9</title>
<g id="a_Node000009"><a xlink:title=" ">
<polygon fill="#e0e0e0" stroke="#999999" points="312.25,-20 246,-20 246,0 312.25,0 312.25,-20"/>
<text xml:space="preserve" text-anchor="middle" x="279.12" y="-6.5" font-family="Helvetica,sans-Serif" font-size="10.00">sdkconfig.h</text>
</a>
</g>
</g>
<!-- Node8&#45;&gt;Node9 -->
<g id="edge7_Node000008_Node000009" class="edge">
<title>Node8&#45;&gt;Node9</title>
<g id="a_edge7_Node000008_Node000009"><a xlink:title=" ">
<path fill="none" stroke="#63b8ff" d="M263.43,-55.59C265.8,-48.86 269.09,-39.53 272.03,-31.15"/>
<polygon fill="#63b8ff" stroke="#63b8ff" points="275.33,-32.32 275.35,-21.73 268.73,-30 275.33,-32.32"/>
</a>
</g>
</g>
</g>
</svg>
