<?xml version="1.0" encoding="UTF-8" standalone="no"?>
<!DOCTYPE svg PUBLIC "-//W3C//DTD SVG 1.1//EN"
 "http://www.w3.org/Graphics/SVG/1.1/DTD/svg11.dtd">
<!-- Generated by graphviz version 14.1.2 (20260124.0452)
 -->
<!-- Title: dsps_fft2r.h Pages: 1 -->
<svg width="3385pt" height="196pt"
 viewBox="0.00 0.00 3385.00 196.00" xmlns="http://www.w3.org/2000/svg" xmlns:xlink="http://www.w3.org/1999/xlink">
<g id="graph0" class="graph" transform="scale(1 1) rotate(0) translate(4 192)">
<title>dsps_fft2r.h</title>
<!-- Node1 -->
<g id="Node000001" class="node">
<title>Node1</title>
<g id="a_Node000001"><a xlink:title=" ">
<polygon fill="#999999" stroke="#666666" points="671.88,-188 604.88,-188 604.88,-168 671.88,-168 671.88,-188"/>
<text xml:space="preserve" text-anchor="middle" x="638.38" y="-174.5" font-family="Helvetica,sans-Serif" font-size="10.00">dsps_fft2r.h</text>
</a>
</g>
</g>
<!-- Node2 -->
<g id="Node000002" class="node">
<title>Node2</title>
<g id="a_Node000002"><a xlink:href="dsps__dct__f32_8c.html" target="_top" xlink:title=" ">
<polygon fill="white" stroke="#666666" points="82.75,-132 0,-132 0,-112 82.75,-112 82.75,-132"/>
<text xml:space="preserve" text-anchor="middle" x="41.38" y="-118.5" font-family="Helvetica,sans-Serif" font-size="10.00">dsps_dct_f32.c</text>
</a>
</g>
</g>
<!-- Node1&#45;&gt;Node2 -->
<g id="edge1_Node000001_Node000002" class="edge">
<title>Node1&#45;&gt;Node2</title>
<g id="a_edge1_Node000001_Node000002"><a xlink:title=" ">
<path fill="none" stroke="#63b8ff" d="M593.09,-174.69C499.35,-169.59 277.37,-155.89 92.38,-132 89.34,-131.61 86.22,-131.16 83.08,-130.68"/>
<polygon fill="#63b8ff" stroke="#63b8ff" points="592.71,-178.17 602.88,-175.21 593.09,-171.18 592.71,-178.17"/>
</a>
</g>
</g>
<!-- Node3 -->
<g id="Node000003" class="node">
<title>Node3</title>
<g id="a_Node000003"><a xlink:href="dsps__dctiv__f32_8c.html" target="_top" xlink:title=" ">
<polygon fill="white" stroke="#666666" points="191.5,-132 101.25,-132 101.25,-112 191.5,-112 191.5,-132"/>
<text xml:space="preserve" text-anchor="middle" x="146.38" y="-118.5" font-family="Helvetica,sans-Serif" font-size="10.00">dsps_dctiv_f32.c</text>
</a>
</g>
</g>
<!-- Node1&#45;&gt;Node3 -->
<g id="edge2_Node000001_Node000003" class="edge">
<title>Node1&#45;&gt;Node3</title>
<g id="a_edge2_Node000001_Node000003"><a xlink:title=" ">
<path fill="none" stroke="#63b8ff" d="M593.44,-173.32C513.98,-166.61 343.53,-151.26 200.38,-132 197.55,-131.62 194.64,-131.2 191.72,-130.77"/>
<polygon fill="#63b8ff" stroke="#63b8ff" points="592.73,-176.77 602.98,-174.12 593.31,-169.8 592.73,-176.77"/>
</a>
</g>
</g>
<!-- Node4 -->
<g id="Node000004" class="node">
<title>Node4</title>
<g id="a_Node000004"><a xlink:href="dsps__dstiv__f32_8c.html" target="_top" xlink:title=" ">
<polygon fill="white" stroke="#666666" points="299.5,-132 209.25,-132 209.25,-112 299.5,-112 299.5,-132"/>
<text xml:space="preserve" text-anchor="middle" x="254.38" y="-118.5" font-family="Helvetica,sans-Serif" font-size="10.00">dsps_dstiv_f32.c</text>
</a>
</g>
</g>
<!-- Node1&#45;&gt;Node4 -->
<g id="edge3_Node000001_Node000004" class="edge">
<title>Node1&#45;&gt;Node4</title>
<g id="a_edge3_Node000001_Node000004"><a xlink:title=" ">
<path fill="none" stroke="#63b8ff" d="M593.4,-171.3C529.83,-163.14 410.09,-147.41 308.38,-132 305.56,-131.57 302.66,-131.12 299.73,-130.66"/>
<polygon fill="#63b8ff" stroke="#63b8ff" points="592.73,-174.74 603.1,-172.54 593.62,-167.8 592.73,-174.74"/>
</a>
</g>
</g>
<!-- Node5 -->
<g id="Node000005" class="node">
<title>Node5</title>
<g id="a_Node000005"><a xlink:href="dsps__fft2r__fc32__ae32_8c.html" target="_top" xlink:title=" ">
<polygon fill="white" stroke="#666666" points="435,-132 317.75,-132 317.75,-112 435,-112 435,-132"/>
<text xml:space="preserve" text-anchor="middle" x="376.38" y="-118.5" font-family="Helvetica,sans-Serif" font-size="10.00">dsps_fft2r_fc32_ae32.c</text>
</a>
</g>
</g>
<!-- Node1&#45;&gt;Node5 -->
<g id="edge4_Node000001_Node000005" class="edge">
<title>Node1&#45;&gt;Node5</title>
<g id="a_edge4_Node000001_Node000005"><a xlink:title=" ">
<path fill="none" stroke="#63b8ff" d="M593.14,-167.68C545.31,-157.82 470.25,-142.35 422.19,-132.44"/>
<polygon fill="#63b8ff" stroke="#63b8ff" points="592.41,-171.1 602.91,-169.69 593.82,-164.24 592.41,-171.1"/>
</a>
</g>
</g>
<!-- Node6 -->
<g id="Node000006" class="node">
<title>Node6</title>
<g id="a_Node000006"><a xlink:href="dsps__fft2r__fc32__ansi_8c.html" target="_top" xlink:title=" ">
<polygon fill="white" stroke="#666666" points="567.5,-132 453.25,-132 453.25,-112 567.5,-112 567.5,-132"/>
<text xml:space="preserve" text-anchor="middle" x="510.38" y="-118.5" font-family="Helvetica,sans-Serif" font-size="10.00">dsps_fft2r_fc32_ansi.c</text>
</a>
</g>
</g>
<!-- Node1&#45;&gt;Node6 -->
<g id="edge5_Node000001_Node000006" class="edge">
<title>Node1&#45;&gt;Node6</title>
<g id="a_edge5_Node000001_Node000006"><a xlink:title=" ">
<path fill="none" stroke="#63b8ff" d="M605.52,-163.14C582.73,-153.52 552.97,-140.97 532.84,-132.48"/>
<polygon fill="#63b8ff" stroke="#63b8ff" points="604.11,-166.34 614.68,-167.01 606.83,-159.89 604.11,-166.34"/>
</a>
</g>
</g>
<!-- Node7 -->
<g id="Node000007" class="node">
<title>Node7</title>
<g id="a_Node000007"><a xlink:href="dsps__fft2r__sc16__ansi_8c.html" target="_top" xlink:title=" ">
<polygon fill="white" stroke="#666666" points="1138.62,-20 1022.12,-20 1022.12,0 1138.62,0 1138.62,-20"/>
<text xml:space="preserve" text-anchor="middle" x="1080.38" y="-6.5" font-family="Helvetica,sans-Serif" font-size="10.00">dsps_fft2r_sc16_ansi.c</text>
</a>
</g>
</g>
<!-- Node1&#45;&gt;Node7 -->
<g id="edge6_Node000001_Node000007" class="edge">
<title>Node1&#45;&gt;Node7</title>
<g id="a_edge6_Node000001_Node000007"><a xlink:title=" ">
<path fill="none" stroke="#63b8ff" d="M626.02,-158.19C610.46,-131.92 588.69,-84.29 614.38,-56 641.29,-26.37 902.73,-15.69 1021.82,-12.35"/>
<polygon fill="#63b8ff" stroke="#63b8ff" points="622.9,-159.8 631.16,-166.44 628.84,-156.1 622.9,-159.8"/>
</a>
</g>
</g>
<!-- Node8 -->
<g id="Node000008" class="node">
<title>Node8</title>
<g id="a_Node000008"><a xlink:href="dsps__fft4r__fc32__ae32_8c.html" target="_top" xlink:title=" ">
<polygon fill="white" stroke="#666666" points="741,-132 623.75,-132 623.75,-112 741,-112 741,-132"/>
<text xml:space="preserve" text-anchor="middle" x="682.38" y="-118.5" font-family="Helvetica,sans-Serif" font-size="10.00">dsps_fft4r_fc32_ae32.c</text>
</a>
</g>
</g>
<!-- Node1&#45;&gt;Node8 -->
<g id="edge7_Node000001_Node000008" class="edge">
<title>Node1&#45;&gt;Node8</title>
<g id="a_edge7_Node000001_Node000008"><a xlink:title=" ">
<path fill="none" stroke="#63b8ff" d="M653.27,-158.72C660.51,-149.84 668.89,-139.55 674.8,-132.3"/>
<polygon fill="#63b8ff" stroke="#63b8ff" points="650.6,-156.46 647,-166.42 656.03,-160.88 650.6,-156.46"/>
</a>
</g>
</g>
<!-- Node9 -->
<g id="Node000009" class="node">
<title>Node9</title>
<g id="a_Node000009"><a xlink:href="dsps__fft4r__fc32__ansi_8c.html" target="_top" xlink:title=" ">
<polygon fill="white" stroke="#666666" points="873.5,-132 759.25,-132 759.25,-112 873.5,-112 873.5,-132"/>
<text xml:space="preserve" text-anchor="middle" x="816.38" y="-118.5" font-family="Helvetica,sans-Serif" font-size="10.00">dsps_fft4r_fc32_ansi.c</text>
</a>
</g>
</g>
<!-- Node1&#45;&gt;Node9 -->
<g id="edge8_Node000001_Node000009" class="edge">
<title>Node1&#45;&gt;Node9</title>
<g id="a_edge8_Node000001_Node000009"><a xlink:title=" ">
<path fill="none" stroke="#63b8ff" d="M680.22,-164.31C712.35,-154.56 756,-141.32 785.13,-132.48"/>
<polygon fill="#63b8ff" stroke="#63b8ff" points="679.38,-160.9 670.83,-167.15 681.41,-167.6 679.38,-160.9"/>
</a>
</g>
</g>
<!-- Node10 -->
<g id="Node000010" class="node">
<title>Node10</title>
<g id="a_Node000010"><a xlink:href="dsps__sfdr__f32_8cpp.html" target="_top" xlink:title=" ">
<polygon fill="white" stroke="#666666" points="987.5,-132 891.25,-132 891.25,-112 987.5,-112 987.5,-132"/>
<text xml:space="preserve" text-anchor="middle" x="939.38" y="-118.5" font-family="Helvetica,sans-Serif" font-size="10.00">dsps_sfdr_f32.cpp</text>
</a>
</g>
</g>
<!-- Node1&#45;&gt;Node10 -->
<g id="edge9_Node000001_Node000010" class="edge">
<title>Node1&#45;&gt;Node10</title>
<g id="a_edge9_Node000001_Node000010"><a xlink:title=" ">
<path fill="none" stroke="#63b8ff" d="M683.6,-168.89C739.36,-158.88 833.74,-141.95 890.93,-131.69"/>
<polygon fill="#63b8ff" stroke="#63b8ff" points="683.03,-165.43 673.81,-170.64 684.27,-172.32 683.03,-165.43"/>
</a>
</g>
</g>
<!-- Node11 -->
<g id="Node000011" class="node">
<title>Node11</title>
<g id="a_Node000011"><a xlink:href="dsps__snr__f32_8cpp.html" target="_top" xlink:title=" ">
<polygon fill="white" stroke="#666666" points="1099,-132 1005.75,-132 1005.75,-112 1099,-112 1099,-132"/>
<text xml:space="preserve" text-anchor="middle" x="1052.38" y="-118.5" font-family="Helvetica,sans-Serif" font-size="10.00">dsps_snr_f32.cpp</text>
</a>
</g>
</g>
<!-- Node1&#45;&gt;Node11 -->
<g id="edge10_Node000001_Node000011" class="edge">
<title>Node1&#45;&gt;Node11</title>
<g id="a_edge10_Node000001_Node000011"><a xlink:title=" ">
<path fill="none" stroke="#63b8ff" d="M683.36,-171.85C751.26,-163.96 883.97,-148.09 996.38,-132 999.3,-131.58 1002.31,-131.14 1005.34,-130.68"/>
<polygon fill="#63b8ff" stroke="#63b8ff" points="683.27,-168.33 673.74,-172.96 684.08,-175.29 683.27,-168.33"/>
</a>
</g>
</g>
<!-- Node12 -->
<g id="Node000012" class="node">
<title>Node12</title>
<g id="a_Node000012"><a xlink:href="esp__dsp_8h.html" target="_top" xlink:title=" ">
<polygon fill="white" stroke="#666666" points="2052.88,-132 1991.88,-132 1991.88,-112 2052.88,-112 2052.88,-132"/>
<text xml:space="preserve" text-anchor="middle" x="2022.38" y="-118.5" font-family="Helvetica,sans-Serif" font-size="10.00">esp_dsp.h</text>
</a>
</g>
</g>
<!-- Node1&#45;&gt;Node12 -->
<g id="edge11_Node000001_Node000012" class="edge">
<title>Node1&#45;&gt;Node12</title>
<g id="a_edge11_Node000001_Node000012"><a xlink:title=" ">
<path fill="none" stroke="#63b8ff" d="M683.67,-175.23C898.44,-166.85 1811.34,-131.23 1991.44,-124.21"/>
<polygon fill="#63b8ff" stroke="#63b8ff" points="683.61,-171.73 673.76,-175.62 683.88,-178.73 683.61,-171.73"/>
</a>
</g>
</g>
<!-- Node45 -->
<g id="Node000045" class="node">
<title>Node45</title>
<g id="a_Node000045"><a xlink:href="test__fft2r_8c.html" target="_top" xlink:title=" ">
<polygon fill="white" stroke="#666666" points="2133.62,-132 2071.12,-132 2071.12,-112 2133.62,-112 2133.62,-132"/>
<text xml:space="preserve" text-anchor="middle" x="2102.38" y="-118.5" font-family="Helvetica,sans-Serif" font-size="10.00">test_fft2r.c</text>
</a>
</g>
</g>
<!-- Node1&#45;&gt;Node45 -->
<g id="edge45_Node000001_Node000045" class="edge">
<title>Node1&#45;&gt;Node45</title>
<g id="a_edge45_Node000001_Node000045"><a xlink:title=" ">
<path fill="none" stroke="#63b8ff" d="M683.48,-176.73C894.57,-175.27 1786.19,-167.11 2062.38,-132 2065.2,-131.64 2068.12,-131.17 2071.03,-130.64"/>
<polygon fill="#63b8ff" stroke="#63b8ff" points="683.74,-173.22 673.76,-176.79 683.79,-180.22 683.74,-173.22"/>
</a>
</g>
</g>
<!-- Node13 -->
<g id="Node000013" class="node">
<title>Node13</title>
<g id="a_Node000013"><a xlink:href="applications_2azure__board__apps_2apps_23d__graphics_2main_23d__graphics__demo_8cpp.html" target="_top" xlink:title=" ">
<polygon fill="white" stroke="#666666" points="739.62,-76 623.12,-76 623.12,-56 739.62,-56 739.62,-76"/>
<text xml:space="preserve" text-anchor="middle" x="681.38" y="-62.5" font-family="Helvetica,sans-Serif" font-size="10.00">3d_graphics_demo.cpp</text>
</a>
</g>
</g>
<!-- Node12&#45;&gt;Node13 -->
<g id="edge12_Node000012_Node000013" class="edge">
<title>Node12&#45;&gt;Node13</title>
<g id="a_edge12_Node000012_Node000013"><a xlink:title=" ">
<path fill="none" stroke="#63b8ff" d="M1980.57,-120.98C1820.6,-120.6 1232.04,-116.38 749.38,-76 746.29,-75.74 743.13,-75.44 739.94,-75.12"/>
<polygon fill="#63b8ff" stroke="#63b8ff" points="1980.25,-124.48 1990.25,-121 1980.26,-117.48 1980.25,-124.48"/>
</a>
</g>
</g>
<!-- Node14 -->
<g id="Node000014" class="node">
<title>Node14</title>
<g id="a_Node000014"><a xlink:href="applications_2m5stack__core__s3_2apps_23d__graphics_2main_23d__graphics__demo_8cpp.html" target="_top" xlink:title=" ">
<polygon fill="white" stroke="#666666" points="874.62,-76 758.12,-76 758.12,-56 874.62,-56 874.62,-76"/>
<text xml:space="preserve" text-anchor="middle" x="816.38" y="-62.5" font-family="Helvetica,sans-Serif" font-size="10.00">3d_graphics_demo.cpp</text>
</a>
</g>
</g>
<!-- Node12&#45;&gt;Node14 -->
<g id="edge13_Node000012_Node000014" class="edge">
<title>Node12&#45;&gt;Node14</title>
<g id="a_edge13_Node000012_Node000014"><a xlink:title=" ">
<path fill="none" stroke="#63b8ff" d="M1980.2,-120.73C1830.54,-119.48 1311.14,-112.6 884.38,-76 881.29,-75.74 878.13,-75.43 874.94,-75.1"/>
<polygon fill="#63b8ff" stroke="#63b8ff" points="1979.99,-124.23 1990.02,-120.81 1980.05,-117.23 1979.99,-124.23"/>
</a>
</g>
</g>
<!-- Node15 -->
<g id="Node000015" class="node">
<title>Node15</title>
<g id="a_Node000015"><a xlink:href="external__examples_2b00f000e_2applications_2azure__board__apps_2apps_23d__graphics_2main_23d__graphics__demo_8cpp.html" target="_top" xlink:title=" ">
<polygon fill="white" stroke="#666666" points="1009.62,-76 893.12,-76 893.12,-56 1009.62,-56 1009.62,-76"/>
<text xml:space="preserve" text-anchor="middle" x="951.38" y="-62.5" font-family="Helvetica,sans-Serif" font-size="10.00">3d_graphics_demo.cpp</text>
</a>
</g>
</g>
<!-- Node12&#45;&gt;Node15 -->
<g id="edge14_Node000012_Node000015" class="edge">
<title>Node12&#45;&gt;Node15</title>
<g id="a_edge14_Node000012_Node000015"><a xlink:title=" ">
<path fill="none" stroke="#63b8ff" d="M1980.27,-120.42C1842.24,-118.23 1390.96,-108.86 1019.38,-76 1016.29,-75.73 1013.13,-75.42 1009.94,-75.08"/>
<polygon fill="#63b8ff" stroke="#63b8ff" points="1979.96,-123.91 1990.02,-120.57 1980.07,-116.91 1979.96,-123.91"/>
</a>
</g>
</g>
<!-- Node16 -->
<g id="Node000016" class="node">
<title>Node16</title>
<g id="a_Node000016"><a xlink:href="external__examples_2b00f000e_2applications_2m5stack__core__s3_2apps_23d__graphics_2main_23d__graphics__demo_8cpp.html" target="_top" xlink:title=" ">
<polygon fill="white" stroke="#666666" points="1144.62,-76 1028.12,-76 1028.12,-56 1144.62,-56 1144.62,-76"/>
<text xml:space="preserve" text-anchor="middle" x="1086.38" y="-62.5" font-family="Helvetica,sans-Serif" font-size="10.00">3d_graphics_demo.cpp</text>
</a>
</g>
</g>
<!-- Node12&#45;&gt;Node16 -->
<g id="edge15_Node000012_Node000016" class="edge">
<title>Node12&#45;&gt;Node16</title>
<g id="a_edge15_Node000012_Node000016"><a xlink:title=" ">
<path fill="none" stroke="#63b8ff" d="M1980.2,-120.01C1854.42,-116.79 1470.98,-105.11 1154.38,-76 1151.29,-75.72 1148.13,-75.4 1144.95,-75.05"/>
<polygon fill="#63b8ff" stroke="#63b8ff" points="1979.96,-123.5 1990.05,-120.25 1980.14,-116.5 1979.96,-123.5"/>
</a>
</g>
</g>
<!-- Node17 -->
<g id="Node000017" class="node">
<title>Node17</title>
<g id="a_Node000017"><a xlink:href="external__examples_2d1468452_2apps_23d__graphics_2main_23d__graphics__demo_8cpp.html" target="_top" xlink:title=" ">
<polygon fill="white" stroke="#666666" points="1279.62,-76 1163.12,-76 1163.12,-56 1279.62,-56 1279.62,-76"/>
<text xml:space="preserve" text-anchor="middle" x="1221.38" y="-62.5" font-family="Helvetica,sans-Serif" font-size="10.00">3d_graphics_demo.cpp</text>
</a>
</g>
</g>
<!-- Node12&#45;&gt;Node17 -->
<g id="edge16_Node000012_Node000017" class="edge">
<title>Node12&#45;&gt;Node17</title>
<g id="a_edge16_Node000012_Node000017"><a xlink:title=" ">
<path fill="none" stroke="#63b8ff" d="M1980.11,-119.45C1867.59,-115.08 1551.4,-101.35 1289.38,-76 1286.29,-75.7 1283.14,-75.37 1279.95,-75.02"/>
<polygon fill="#63b8ff" stroke="#63b8ff" points="1979.95,-122.94 1990.08,-119.83 1980.22,-115.95 1979.95,-122.94"/>
</a>
</g>
</g>
<!-- Node18 -->
<g id="Node000018" class="node">
<title>Node18</title>
<g id="a_Node000018"><a xlink:href="external__examples_2f9c2d4b3_2azure__board__apps_2apps_23d__graphics_2main_23d__graphics__demo_8cpp.html" target="_top" xlink:title=" ">
<polygon fill="white" stroke="#666666" points="1414.62,-76 1298.12,-76 1298.12,-56 1414.62,-56 1414.62,-76"/>
<text xml:space="preserve" text-anchor="middle" x="1356.38" y="-62.5" font-family="Helvetica,sans-Serif" font-size="10.00">3d_graphics_demo.cpp</text>
</a>
</g>
</g>
<!-- Node12&#45;&gt;Node18 -->
<g id="edge17_Node000012_Node000018" class="edge">
<title>Node12&#45;&gt;Node18</title>
<g id="a_edge17_Node000012_Node000018"><a xlink:title=" ">
<path fill="none" stroke="#63b8ff" d="M1979.99,-118.67C1881.9,-113.09 1631.72,-97.8 1423.38,-76 1420.57,-75.71 1417.71,-75.39 1414.82,-75.06"/>
<polygon fill="#63b8ff" stroke="#63b8ff" points="1979.76,-122.16 1989.95,-119.23 1980.16,-115.18 1979.76,-122.16"/>
</a>
</g>
</g>
<!-- Node19 -->
<g id="Node000019" class="node">
<title>Node19</title>
<g id="a_Node000019"><a xlink:href="applications_2m5stack__core__s3_2apps_2kalman__filter_2main_23d__kalman__demo_8cpp.html" target="_top" xlink:title=" ">
<polygon fill="white" stroke="#666666" points="1544,-76 1432.75,-76 1432.75,-56 1544,-56 1544,-76"/>
<text xml:space="preserve" text-anchor="middle" x="1488.38" y="-62.5" font-family="Helvetica,sans-Serif" font-size="10.00">3d_kalman_demo.cpp</text>
</a>
</g>
</g>
<!-- Node12&#45;&gt;Node19 -->
<g id="edge18_Node000012_Node000019" class="edge">
<title>Node12&#45;&gt;Node19</title>
<g id="a_edge18_Node000012_Node000019"><a xlink:title=" ">
<path fill="none" stroke="#63b8ff" d="M1980.16,-117.59C1897.78,-110.79 1709.88,-94.61 1552.38,-76 1549.7,-75.68 1546.97,-75.35 1544.2,-75"/>
<polygon fill="#63b8ff" stroke="#63b8ff" points="1979.77,-121.07 1990.02,-118.4 1980.34,-114.09 1979.77,-121.07"/>
</a>
</g>
</g>
<!-- Node20 -->
<g id="Node000020" class="node">
<title>Node20</title>
<g id="a_Node000020"><a xlink:href="external__examples_2b00f000e_2applications_2m5stack__core__s3_2apps_2kalman__filter_2main_23d__kalman__demo_8cpp.html" target="_top" xlink:title=" ">
<polygon fill="white" stroke="#666666" points="1673,-76 1561.75,-76 1561.75,-56 1673,-56 1673,-76"/>
<text xml:space="preserve" text-anchor="middle" x="1617.38" y="-62.5" font-family="Helvetica,sans-Serif" font-size="10.00">3d_kalman_demo.cpp</text>
</a>
</g>
</g>
<!-- Node12&#45;&gt;Node20 -->
<g id="edge19_Node000012_Node000020" class="edge">
<title>Node12&#45;&gt;Node20</title>
<g id="a_edge19_Node000012_Node000020"><a xlink:title=" ">
<path fill="none" stroke="#63b8ff" d="M1980.16,-115.5C1915.88,-107.09 1789.58,-90.52 1682.38,-76 1679.44,-75.6 1676.43,-75.19 1673.39,-74.78"/>
<polygon fill="#63b8ff" stroke="#63b8ff" points="1979.56,-118.95 1989.93,-116.77 1980.46,-112.01 1979.56,-118.95"/>
</a>
</g>
</g>
<!-- Node21 -->
<g id="Node000021" class="node">
<title>Node21</title>
<g id="a_Node000021"><a xlink:href="applications_2lyrat__board__app_2main_2audio__amp__main_8c.html" target="_top" xlink:title=" ">
<polygon fill="white" stroke="#666666" points="1789.25,-76 1691.5,-76 1691.5,-56 1789.25,-56 1789.25,-76"/>
<text xml:space="preserve" text-anchor="middle" x="1740.38" y="-62.5" font-family="Helvetica,sans-Serif" font-size="10.00">audio_amp_main.c</text>
</a>
</g>
</g>
<!-- Node12&#45;&gt;Node21 -->
<g id="edge20_Node000012_Node000021" class="edge">
<title>Node12&#45;&gt;Node21</title>
<g id="a_edge20_Node000012_Node000021"><a xlink:title=" ">
<path fill="none" stroke="#63b8ff" d="M1980.13,-112.91C1929.14,-103.15 1843.53,-86.75 1789.6,-76.43"/>
<polygon fill="#63b8ff" stroke="#63b8ff" points="1979.42,-116.34 1989.9,-114.78 1980.74,-109.46 1979.42,-116.34"/>
</a>
</g>
</g>
<!-- Node22 -->
<g id="Node000022" class="node">
<title>Node22</title>
<g id="a_Node000022"><a xlink:href="external__examples_21fa4e38f_2lyrat__board__app_2main_2audio__amp__main_8c.html" target="_top" xlink:title=" ">
<polygon fill="white" stroke="#666666" points="1905.25,-76 1807.5,-76 1807.5,-56 1905.25,-56 1905.25,-76"/>
<text xml:space="preserve" text-anchor="middle" x="1856.38" y="-62.5" font-family="Helvetica,sans-Serif" font-size="10.00">audio_amp_main.c</text>
</a>
</g>
</g>
<!-- Node12&#45;&gt;Node22 -->
<g id="edge21_Node000012_Node000022" class="edge">
<title>Node12&#45;&gt;Node22</title>
<g id="a_edge21_Node000012_Node000022"><a xlink:title=" ">
<path fill="none" stroke="#63b8ff" d="M1982.56,-108.05C1952.68,-98.33 1912.44,-85.24 1885.52,-76.48"/>
<polygon fill="#63b8ff" stroke="#63b8ff" points="1981.43,-111.36 1992.02,-111.13 1983.59,-104.7 1981.43,-111.36"/>
</a>
</g>
</g>
<!-- Node23 -->
<g id="Node000023" class="node">
<title>Node23</title>
<g id="a_Node000023"><a xlink:href="external__examples_2b00f000e_2applications_2lyrat__board__app_2main_2audio__amp__main_8c.html" target="_top" xlink:title=" ">
<polygon fill="white" stroke="#666666" points="2021.25,-76 1923.5,-76 1923.5,-56 2021.25,-56 2021.25,-76"/>
<text xml:space="preserve" text-anchor="middle" x="1972.38" y="-62.5" font-family="Helvetica,sans-Serif" font-size="10.00">audio_amp_main.c</text>
</a>
</g>
</g>
<!-- Node12&#45;&gt;Node23 -->
<g id="edge22_Node000012_Node000023" class="edge">
<title>Node12&#45;&gt;Node23</title>
<g id="a_edge22_Node000012_Node000023"><a xlink:title=" ">
<path fill="none" stroke="#63b8ff" d="M2005.97,-103.29C1997.63,-94.28 1987.84,-83.7 1980.98,-76.3"/>
<polygon fill="#63b8ff" stroke="#63b8ff" points="2003.28,-105.52 2012.64,-110.48 2008.41,-100.77 2003.28,-105.52"/>
</a>
</g>
</g>
<!-- Node24 -->
<g id="Node000024" class="node">
<title>Node24</title>
<g id="a_Node000024"><a xlink:href="dsp__tests_8h.html" target="_top" xlink:title=" ">
<polygon fill="white" stroke="#666666" points="2105.88,-76 2038.88,-76 2038.88,-56 2105.88,-56 2105.88,-76"/>
<text xml:space="preserve" text-anchor="middle" x="2072.38" y="-62.5" font-family="Helvetica,sans-Serif" font-size="10.00">dsp_tests.h</text>
</a>
</g>
</g>
<!-- Node12&#45;&gt;Node24 -->
<g id="edge23_Node000012_Node000024" class="edge">
<title>Node12&#45;&gt;Node24</title>
<g id="a_edge23_Node000012_Node000024"><a xlink:title=" ">
<path fill="none" stroke="#63b8ff" d="M2038.78,-103.29C2047.12,-94.28 2056.91,-83.7 2063.77,-76.3"/>
<polygon fill="#63b8ff" stroke="#63b8ff" points="2036.34,-100.77 2032.11,-110.48 2041.47,-105.52 2036.34,-100.77"/>
</a>
</g>
</g>
<!-- Node30 -->
<g id="Node000030" class="node">
<title>Node30</title>
<g id="a_Node000030"><a xlink:href="applications_2azure__board__apps_2graphics_23d__matrix_23d__matrix__src_2graphics__support_8h.html" target="_top" xlink:title=" ">
<polygon fill="white" stroke="#666666" points="2222.62,-76 2124.12,-76 2124.12,-56 2222.62,-56 2222.62,-76"/>
<text xml:space="preserve" text-anchor="middle" x="2173.38" y="-62.5" font-family="Helvetica,sans-Serif" font-size="10.00">graphics_support.h</text>
</a>
</g>
</g>
<!-- Node12&#45;&gt;Node30 -->
<g id="edge30_Node000012_Node000030" class="edge">
<title>Node12&#45;&gt;Node30</title>
<g id="a_edge30_Node000012_Node000030"><a xlink:title=" ">
<path fill="none" stroke="#63b8ff" d="M2059.31,-107.79C2086.42,-98.1 2122.59,-85.16 2146.87,-76.48"/>
<polygon fill="#63b8ff" stroke="#63b8ff" points="2058.34,-104.42 2050.1,-111.08 2060.7,-111.01 2058.34,-104.42"/>
</a>
</g>
</g>
<!-- Node32 -->
<g id="Node000032" class="node">
<title>Node32</title>
<g id="a_Node000032"><a xlink:href="external__examples_2b00f000e_2applications_2azure__board__apps_2graphics_23d__matrix_23d__matrix__src_2graphics__support_8h.html" target="_top" xlink:title=" ">
<polygon fill="white" stroke="#666666" points="2339.62,-76 2241.12,-76 2241.12,-56 2339.62,-56 2339.62,-76"/>
<text xml:space="preserve" text-anchor="middle" x="2290.38" y="-62.5" font-family="Helvetica,sans-Serif" font-size="10.00">graphics_support.h</text>
</a>
</g>
</g>
<!-- Node12&#45;&gt;Node32 -->
<g id="edge32_Node000012_Node000032" class="edge">
<title>Node12&#45;&gt;Node32</title>
<g id="a_edge32_Node000012_Node000032"><a xlink:title=" ">
<path fill="none" stroke="#63b8ff" d="M2064.5,-111.59C2131.17,-97.59 2197.13,-84.75 2240.93,-76.37"/>
<polygon fill="#63b8ff" stroke="#63b8ff" points="2063.91,-108.14 2054.85,-113.63 2065.35,-114.99 2063.91,-108.14"/>
</a>
</g>
</g>
<!-- Node34 -->
<g id="Node000034" class="node">
<title>Node34</title>
<g id="a_Node000034"><a xlink:href="external__examples_2f9c2d4b3_2azure__board__apps_2graphics_23d__matrix_23d__matrix__src_2graphics__support_8h.html" target="_top" xlink:title=" ">
<polygon fill="white" stroke="#666666" points="2456.62,-76 2358.12,-76 2358.12,-56 2456.62,-56 2456.62,-76"/>
<text xml:space="preserve" text-anchor="middle" x="2407.38" y="-62.5" font-family="Helvetica,sans-Serif" font-size="10.00">graphics_support.h</text>
</a>
</g>
</g>
<!-- Node12&#45;&gt;Node34 -->
<g id="edge34_Node000012_Node000034" class="edge">
<title>Node12&#45;&gt;Node34</title>
<g id="a_edge34_Node000012_Node000034"><a xlink:title=" ">
<path fill="none" stroke="#63b8ff" d="M2064.57,-111.77C2190.51,-90.11 2225.08,-93.16 2348.38,-76 2351.45,-75.57 2354.62,-75.12 2357.81,-74.66"/>
<polygon fill="#63b8ff" stroke="#63b8ff" points="2064.07,-108.31 2054.82,-113.47 2065.27,-115.2 2064.07,-108.31"/>
</a>
</g>
</g>
<!-- Node36 -->
<g id="Node000036" class="node">
<title>Node36</title>
<g id="a_Node000036"><a xlink:href="applications_2m5stack__core__s3_2apps_23d__graphics_2main_2init__display_8c.html" target="_top" xlink:title=" ">
<polygon fill="white" stroke="#666666" points="2546.5,-76 2474.25,-76 2474.25,-56 2546.5,-56 2546.5,-76"/>
<text xml:space="preserve" text-anchor="middle" x="2510.38" y="-62.5" font-family="Helvetica,sans-Serif" font-size="10.00">init_display.c</text>
</a>
</g>
</g>
<!-- Node12&#45;&gt;Node36 -->
<g id="edge36_Node000012_Node000036" class="edge">
<title>Node12&#45;&gt;Node36</title>
<g id="a_edge36_Node000012_Node000036"><a xlink:title=" ">
<path fill="none" stroke="#63b8ff" d="M2064.62,-111.86C2242.04,-84.9 2291.04,-101.14 2465.38,-76 2468.21,-75.59 2471.14,-75.12 2474.08,-74.61"/>
<polygon fill="#63b8ff" stroke="#63b8ff" points="2064.15,-108.4 2054.8,-113.38 2065.22,-115.31 2064.15,-108.4"/>
</a>
</g>
</g>
<!-- Node37 -->
<g id="Node000037" class="node">
<title>Node37</title>
<g id="a_Node000037"><a xlink:href="external__examples_2b00f000e_2applications_2m5stack__core__s3_2apps_23d__graphics_2main_2init__display_8c.html" target="_top" xlink:title=" ">
<polygon fill="white" stroke="#666666" points="2636.5,-76 2564.25,-76 2564.25,-56 2636.5,-56 2636.5,-76"/>
<text xml:space="preserve" text-anchor="middle" x="2600.38" y="-62.5" font-family="Helvetica,sans-Serif" font-size="10.00">init_display.c</text>
</a>
</g>
</g>
<!-- Node12&#45;&gt;Node37 -->
<g id="edge37_Node000012_Node000037" class="edge">
<title>Node12&#45;&gt;Node37</title>
<g id="a_edge37_Node000012_Node000037"><a xlink:title=" ">
<path fill="none" stroke="#63b8ff" d="M2064.44,-111.93C2281.67,-80.64 2341.3,-105.11 2555.38,-76 2558.22,-75.61 2561.15,-75.16 2564.09,-74.66"/>
<polygon fill="#63b8ff" stroke="#63b8ff" points="2064.18,-108.43 2054.8,-113.35 2065.2,-115.36 2064.18,-108.43"/>
</a>
</g>
</g>
<!-- Node38 -->
<g id="Node000038" class="node">
<title>Node38</title>
<g id="a_Node000038"><a xlink:href="applications_2azure__board__apps_2apps_2kalman__filter_2main_2kalman__filter__demo_8cpp.html" target="_top" xlink:title=" ">
<polygon fill="white" stroke="#666666" points="2774.12,-76 2654.62,-76 2654.62,-56 2774.12,-56 2774.12,-76"/>
<text xml:space="preserve" text-anchor="middle" x="2714.38" y="-62.5" font-family="Helvetica,sans-Serif" font-size="10.00">kalman_filter_demo.cpp</text>
</a>
</g>
</g>
<!-- Node12&#45;&gt;Node38 -->
<g id="edge38_Node000012_Node000038" class="edge">
<title>Node12&#45;&gt;Node38</title>
<g id="a_edge38_Node000012_Node000038"><a xlink:title=" ">
<path fill="none" stroke="#63b8ff" d="M2064.48,-111.95C2321.34,-76.1 2390.62,-100.45 2645.38,-76 2648.26,-75.72 2651.21,-75.42 2654.19,-75.1"/>
<polygon fill="#63b8ff" stroke="#63b8ff" points="2064.2,-108.45 2054.79,-113.32 2065.18,-115.38 2064.2,-108.45"/>
</a>
</g>
</g>
<!-- Node39 -->
<g id="Node000039" class="node">
<title>Node39</title>
<g id="a_Node000039"><a xlink:href="external__examples_2b00f000e_2applications_2azure__board__apps_2apps_2kalman__filter_2main_2kalman__filter__demo_8cpp.html" target="_top" xlink:title=" ">
<polygon fill="white" stroke="#666666" points="2912.12,-76 2792.62,-76 2792.62,-56 2912.12,-56 2912.12,-76"/>
<text xml:space="preserve" text-anchor="middle" x="2852.38" y="-62.5" font-family="Helvetica,sans-Serif" font-size="10.00">kalman_filter_demo.cpp</text>
</a>
</g>
</g>
<!-- Node12&#45;&gt;Node39 -->
<g id="edge39_Node000012_Node000039" class="edge">
<title>Node12&#45;&gt;Node39</title>
<g id="a_edge39_Node000012_Node000039"><a xlink:title=" ">
<path fill="none" stroke="#63b8ff" d="M2064.68,-111.95C2382.26,-69.46 2467.57,-104.43 2783.38,-76 2786.26,-75.74 2789.22,-75.45 2792.2,-75.14"/>
<polygon fill="#63b8ff" stroke="#63b8ff" points="2064.23,-108.48 2054.79,-113.29 2065.17,-115.42 2064.23,-108.48"/>
</a>
</g>
</g>
<!-- Node40 -->
<g id="Node000040" class="node">
<title>Node40</title>
<g id="a_Node000040"><a xlink:href="external__examples_2d1468452_2apps_2kalman__filter_2main_2kalman__filter__demo_8cpp.html" target="_top" xlink:title=" ">
<polygon fill="white" stroke="#666666" points="3050.12,-76 2930.62,-76 2930.62,-56 3050.12,-56 3050.12,-76"/>
<text xml:space="preserve" text-anchor="middle" x="2990.38" y="-62.5" font-family="Helvetica,sans-Serif" font-size="10.00">kalman_filter_demo.cpp</text>
</a>
</g>
</g>
<!-- Node12&#45;&gt;Node40 -->
<g id="edge40_Node000012_Node000040" class="edge">
<title>Node12&#45;&gt;Node40</title>
<g id="a_edge40_Node000012_Node000040"><a xlink:title=" ">
<path fill="none" stroke="#63b8ff" d="M2064.57,-111.99C2443.15,-62.77 2544.39,-108.42 2921.38,-76 2924.26,-75.75 2927.22,-75.47 2930.2,-75.17"/>
<polygon fill="#63b8ff" stroke="#63b8ff" points="2064.24,-108.5 2054.79,-113.27 2065.16,-115.44 2064.24,-108.5"/>
</a>
</g>
</g>
<!-- Node41 -->
<g id="Node000041" class="node">
<title>Node41</title>
<g id="a_Node000041"><a xlink:href="external__examples_2f9c2d4b3_2azure__board__apps_2apps_2kalman__filter_2main_2kalman__filter__demo_8cpp.html" target="_top" xlink:title=" ">
<polygon fill="white" stroke="#666666" points="3188.12,-76 3068.62,-76 3068.62,-56 3188.12,-56 3188.12,-76"/>
<text xml:space="preserve" text-anchor="middle" x="3128.38" y="-62.5" font-family="Helvetica,sans-Serif" font-size="10.00">kalman_filter_demo.cpp</text>
</a>
</g>
</g>
<!-- Node12&#45;&gt;Node41 -->
<g id="edge41_Node000012_Node000041" class="edge">
<title>Node12&#45;&gt;Node41</title>
<g id="a_edge41_Node000012_Node000041"><a xlink:title=" ">
<path fill="none" stroke="#63b8ff" d="M2064.39,-112.02C2504.05,-56.04 2621.17,-112.41 3059.38,-76 3062.26,-75.76 3065.22,-75.49 3068.2,-75.19"/>
<polygon fill="#63b8ff" stroke="#63b8ff" points="2064.26,-108.51 2054.78,-113.26 2065.15,-115.45 2064.26,-108.51"/>
</a>
</g>
</g>
<!-- Node42 -->
<g id="Node000042" class="node">
<title>Node42</title>
<g id="a_Node000042"><a xlink:href="main_2main_8c.html" target="_top" xlink:title=" ">
<polygon fill="white" stroke="#666666" points="3251,-76 3205.75,-76 3205.75,-56 3251,-56 3251,-76"/>
<text xml:space="preserve" text-anchor="middle" x="3228.38" y="-62.5" font-family="Helvetica,sans-Serif" font-size="10.00">main.c</text>
</a>
</g>
</g>
<!-- Node12&#45;&gt;Node42 -->
<g id="edge42_Node000012_Node000042" class="edge">
<title>Node12&#45;&gt;Node42</title>
<g id="a_edge42_Node000012_Node000042"><a xlink:title=" ">
<path fill="none" stroke="#63b8ff" d="M2064.42,-112.03C2565.05,-49.87 2702.55,-154.4 3197.38,-76 3200.03,-75.58 3202.78,-75 3205.5,-74.34"/>
<polygon fill="#63b8ff" stroke="#63b8ff" points="2064.27,-108.53 2054.78,-113.25 2065.14,-115.47 2064.27,-108.53"/>
</a>
</g>
</g>
<!-- Node43 -->
<g id="Node000043" class="node">
<title>Node43</title>
<g id="a_Node000043"><a xlink:href="components_2espressif____esp-dsp_2applications_2spectrum__box__lite_2main_2main_8c.html" target="_top" xlink:title=" ">
<polygon fill="white" stroke="#666666" points="3314,-76 3268.75,-76 3268.75,-56 3314,-56 3314,-76"/>
<text xml:space="preserve" text-anchor="middle" x="3291.38" y="-62.5" font-family="Helvetica,sans-Serif" font-size="10.00">main.c</text>
</a>
</g>
</g>
<!-- Node12&#45;&gt;Node43 -->
<g id="edge43_Node000012_Node000043" class="edge">
<title>Node12&#45;&gt;Node43</title>
<g id="a_edge43_Node000012_Node000043"><a xlink:title=" ">
<path fill="none" stroke="#63b8ff" d="M2064.64,-112.01C2592.91,-46.83 2737.91,-158.33 3260.38,-76 3263.03,-75.58 3265.78,-75 3268.5,-74.34"/>
<polygon fill="#63b8ff" stroke="#63b8ff" points="2064.27,-108.53 2054.78,-113.24 2065.14,-115.48 2064.27,-108.53"/>
</a>
</g>
</g>
<!-- Node44 -->
<g id="Node000044" class="node">
<title>Node44</title>
<g id="a_Node000044"><a xlink:href="components_2espressif____esp-dsp_2external__examples_2b00f000e_2applications_2spectrum__box__lite_2main_2main_8c.html" target="_top" xlink:title=" ">
<polygon fill="white" stroke="#666666" points="3377,-76 3331.75,-76 3331.75,-56 3377,-56 3377,-76"/>
<text xml:space="preserve" text-anchor="middle" x="3354.38" y="-62.5" font-family="Helvetica,sans-Serif" font-size="10.00">main.c</text>
</a>
</g>
</g>
<!-- Node12&#45;&gt;Node44 -->
<g id="edge44_Node000012_Node000044" class="edge">
<title>Node12&#45;&gt;Node44</title>
<g id="a_edge44_Node000012_Node000044"><a xlink:title=" ">
<path fill="none" stroke="#63b8ff" d="M2064.41,-112.04C2620.68,-43.72 2773.12,-162.29 3323.38,-76 3326.03,-75.58 3328.78,-75.01 3331.5,-74.34"/>
<polygon fill="#63b8ff" stroke="#63b8ff" points="2064.27,-108.53 2054.78,-113.24 2065.14,-115.48 2064.27,-108.53"/>
</a>
</g>
</g>
<!-- Node24&#45;&gt;Node7 -->
<g id="edge24_Node000024_Node000007" class="edge">
<title>Node24&#45;&gt;Node7</title>
<g id="a_edge24_Node000024_Node000007"><a xlink:title=" ">
<path fill="none" stroke="#63b8ff" d="M2027.18,-55.83C1835.18,-32.78 1314.36,-17.25 1138.9,-12.52"/>
<polygon fill="#63b8ff" stroke="#63b8ff" points="2026.67,-59.29 2037.03,-57.06 2027.54,-52.35 2026.67,-59.29"/>
</a>
</g>
</g>
<!-- Node25 -->
<g id="Node000025" class="node">
<title>Node25</title>
<g id="a_Node000025"><a xlink:href="dsps__fird__init__s16_8c.html" target="_top" xlink:title=" ">
<polygon fill="white" stroke="#666666" points="1679.88,-20 1576.88,-20 1576.88,0 1679.88,0 1679.88,-20"/>
<text xml:space="preserve" text-anchor="middle" x="1628.38" y="-6.5" font-family="Helvetica,sans-Serif" font-size="10.00">dsps_fird_init_s16.c</text>
</a>
</g>
</g>
<!-- Node24&#45;&gt;Node25 -->
<g id="edge25_Node000024_Node000025" class="edge">
<title>Node24&#45;&gt;Node25</title>
<g id="a_edge25_Node000024_Node000025"><a xlink:title=" ">
<path fill="none" stroke="#63b8ff" d="M2027.55,-55.69C1877.97,-32.32 1837.02,-38.68 1689.38,-20 1686.4,-19.62 1683.35,-19.22 1680.27,-18.81"/>
<polygon fill="#63b8ff" stroke="#63b8ff" points="2026.59,-59.08 2037.01,-57.18 2027.68,-52.16 2026.59,-59.08"/>
</a>
</g>
</g>
<!-- Node26 -->
<g id="Node000026" class="node">
<title>Node26</title>
<g id="a_Node000026"><a xlink:href="dsps__firmr__f32__ansi_8c.html" target="_top" xlink:title=" ">
<polygon fill="white" stroke="#666666" points="1810.38,-20 1698.38,-20 1698.38,0 1810.38,0 1810.38,-20"/>
<text xml:space="preserve" text-anchor="middle" x="1754.38" y="-6.5" font-family="Helvetica,sans-Serif" font-size="10.00">dsps_firmr_f32_ansi.c</text>
</a>
</g>
</g>
<!-- Node24&#45;&gt;Node26 -->
<g id="edge26_Node000024_Node000026" class="edge">
<title>Node24&#45;&gt;Node26</title>
<g id="a_edge26_Node000024_Node000026"><a xlink:title=" ">
<path fill="none" stroke="#63b8ff" d="M2027.65,-55.55C1947.14,-40.54 1864.3,-27.48 1810.81,-19.37"/>
<polygon fill="#63b8ff" stroke="#63b8ff" points="2026.52,-58.9 2036.99,-57.31 2027.81,-52.02 2026.52,-58.9"/>
</a>
</g>
</g>
<!-- Node27 -->
<g id="Node000027" class="node">
<title>Node27</title>
<g id="a_Node000027"><a xlink:href="dsps__firmr__init__f32_8c.html" target="_top" xlink:title=" ">
<polygon fill="white" stroke="#666666" points="1934.75,-20 1828,-20 1828,0 1934.75,0 1934.75,-20"/>
<text xml:space="preserve" text-anchor="middle" x="1881.38" y="-6.5" font-family="Helvetica,sans-Serif" font-size="10.00">dsps_firmr_init_f32.c</text>
</a>
</g>
</g>
<!-- Node24&#45;&gt;Node27 -->
<g id="edge27_Node000024_Node000027" class="edge">
<title>Node24&#45;&gt;Node27</title>
<g id="a_edge27_Node000024_Node000027"><a xlink:title=" ">
<path fill="none" stroke="#63b8ff" d="M2028.37,-52.56C1993.82,-42.79 1946.43,-29.39 1914.9,-20.48"/>
<polygon fill="#63b8ff" stroke="#63b8ff" points="2027.07,-55.83 2037.65,-55.18 2028.98,-49.09 2027.07,-55.83"/>
</a>
</g>
</g>
<!-- Node28 -->
<g id="Node000028" class="node">
<title>Node28</title>
<g id="a_Node000028"><a xlink:href="dsps__firmr__init__s16_8c.html" target="_top" xlink:title=" ">
<polygon fill="white" stroke="#666666" points="2061.88,-20 1952.88,-20 1952.88,0 2061.88,0 2061.88,-20"/>
<text xml:space="preserve" text-anchor="middle" x="2007.38" y="-6.5" font-family="Helvetica,sans-Serif" font-size="10.00">dsps_firmr_init_s16.c</text>
</a>
</g>
</g>
<!-- Node24&#45;&gt;Node28 -->
<g id="edge28_Node000024_Node000028" class="edge">
<title>Node24&#45;&gt;Node28</title>
<g id="a_edge28_Node000024_Node000028"><a xlink:title=" ">
<path fill="none" stroke="#63b8ff" d="M2052.4,-48.4C2041.28,-39.17 2027.85,-28.01 2018.57,-20.3"/>
<polygon fill="#63b8ff" stroke="#63b8ff" points="2049.96,-50.93 2059.89,-54.63 2054.43,-45.54 2049.96,-50.93"/>
</a>
</g>
</g>
<!-- Node29 -->
<g id="Node000029" class="node">
<title>Node29</title>
<g id="a_Node000029"><a xlink:href="dsps__firmr__s16__ansi_8c.html" target="_top" xlink:title=" ">
<polygon fill="white" stroke="#666666" points="2194.5,-20 2080.25,-20 2080.25,0 2194.5,0 2194.5,-20"/>
<text xml:space="preserve" text-anchor="middle" x="2137.38" y="-6.5" font-family="Helvetica,sans-Serif" font-size="10.00">dsps_firmr_s16_ansi.c</text>
</a>
</g>
</g>
<!-- Node24&#45;&gt;Node29 -->
<g id="edge29_Node000024_Node000029" class="edge">
<title>Node24&#45;&gt;Node29</title>
<g id="a_edge29_Node000024_Node000029"><a xlink:title=" ">
<path fill="none" stroke="#63b8ff" d="M2092.35,-48.4C2103.47,-39.17 2116.9,-28.01 2126.18,-20.3"/>
<polygon fill="#63b8ff" stroke="#63b8ff" points="2090.32,-45.54 2084.86,-54.63 2094.79,-50.93 2090.32,-45.54"/>
</a>
</g>
</g>
<!-- Node31 -->
<g id="Node000031" class="node">
<title>Node31</title>
<g id="a_Node000031"><a xlink:href="applications_2azure__board__apps_2graphics_23d__matrix_23d__matrix__src_2graphics__support_8cpp.html" target="_top" xlink:title=" ">
<polygon fill="white" stroke="#666666" points="2321.88,-20 2212.88,-20 2212.88,0 2321.88,0 2321.88,-20"/>
<text xml:space="preserve" text-anchor="middle" x="2267.38" y="-6.5" font-family="Helvetica,sans-Serif" font-size="10.00">graphics_support.cpp</text>
</a>
</g>
</g>
<!-- Node30&#45;&gt;Node31 -->
<g id="edge31_Node000030_Node000031" class="edge">
<title>Node30&#45;&gt;Node31</title>
<g id="a_edge31_Node000030_Node000031"><a xlink:title=" ">
<path fill="none" stroke="#63b8ff" d="M2199.35,-50.08C2215.82,-40.62 2236.63,-28.66 2250.87,-20.48"/>
<polygon fill="#63b8ff" stroke="#63b8ff" points="2197.99,-46.82 2191.06,-54.84 2201.48,-52.89 2197.99,-46.82"/>
</a>
</g>
</g>
<!-- Node33 -->
<g id="Node000033" class="node">
<title>Node33</title>
<g id="a_Node000033"><a xlink:href="external__examples_2b00f000e_2applications_2azure__board__apps_2graphics_23d__matrix_23d__matrix__src_2graphics__support_8cpp.html" target="_top" xlink:title=" ">
<polygon fill="white" stroke="#666666" points="2448.88,-20 2339.88,-20 2339.88,0 2448.88,0 2448.88,-20"/>
<text xml:space="preserve" text-anchor="middle" x="2394.38" y="-6.5" font-family="Helvetica,sans-Serif" font-size="10.00">graphics_support.cpp</text>
</a>
</g>
</g>
<!-- Node32&#45;&gt;Node33 -->
<g id="edge33_Node000032_Node000033" class="edge">
<title>Node32&#45;&gt;Node33</title>
<g id="a_edge33_Node000032_Node000033"><a xlink:title=" ">
<path fill="none" stroke="#63b8ff" d="M2318.6,-50.35C2336.9,-40.84 2360.21,-28.74 2376.12,-20.48"/>
<polygon fill="#63b8ff" stroke="#63b8ff" points="2317.1,-47.18 2309.83,-54.9 2320.32,-53.39 2317.1,-47.18"/>
</a>
</g>
</g>
<!-- Node35 -->
<g id="Node000035" class="node">
<title>Node35</title>
<g id="a_Node000035"><a xlink:href="external__examples_2f9c2d4b3_2azure__board__apps_2graphics_23d__matrix_23d__matrix__src_2graphics__support_8cpp.html" target="_top" xlink:title=" ">
<polygon fill="white" stroke="#666666" points="2575.88,-20 2466.88,-20 2466.88,0 2575.88,0 2575.88,-20"/>
<text xml:space="preserve" text-anchor="middle" x="2521.38" y="-6.5" font-family="Helvetica,sans-Serif" font-size="10.00">graphics_support.cpp</text>
</a>
</g>
</g>
<!-- Node34&#45;&gt;Node35 -->
<g id="edge35_Node000034_Node000035" class="edge">
<title>Node34&#45;&gt;Node35</title>
<g id="a_edge35_Node000034_Node000035"><a xlink:title=" ">
<path fill="none" stroke="#63b8ff" d="M2437.47,-50.75C2457.66,-41.18 2483.69,-28.85 2501.36,-20.48"/>
<polygon fill="#63b8ff" stroke="#63b8ff" points="2436.14,-47.5 2428.6,-54.95 2439.14,-53.83 2436.14,-47.5"/>
</a>
</g>
</g>
</g>
</svg>
