<?xml version="1.0" encoding="UTF-8" standalone="no"?>
<!DOCTYPE svg PUBLIC "-//W3C//DTD SVG 1.1//EN"
 "http://www.w3.org/Graphics/SVG/1.1/DTD/svg11.dtd">
<!-- Generated by graphviz version 14.1.2 (20260124.0452)
 -->
<!-- Title: dsps_conv.h Pages: 1 -->
<!--zoomable 196 -->

<svg id="main" version="1.1" xmlns="http://www.w3.org/2000/svg" xmlns:xlink="http://www.w3.org/1999/xlink" xml:space="preserve" onload="init(evt)">

<style type="text/css"><![CDATA[
.node, .edge {opacity: 0.7;}
.node.selected, .edge.selected {opacity: 1;}
.edge:hover path { stroke: red; }
.edge:hover polygon { stroke: red; fill: red; }
]]></style>

<defs>
  <circle id="rim" cx="0" cy="0" r="7"/>
  <circle id="rim2" cx="0" cy="0" r="3.5"/>
  <g id="zoomPlus">
    <use xlink:href="#rim" fill="#404040"><set attributeName="fill" to="#808080" begin="zoomplus.mouseover" end="zoomplus.mouseout"/></use>
    <path d="M-4,0h8M0,-4v8" fill="none" stroke="white" stroke-width="1.5" pointer-events="none"/>
  </g>
  <g id="zoomMin">
    <use xlink:href="#rim" fill="#404040"><set attributeName="fill" to="#808080" begin="zoomminus.mouseover" end="zoomminus.mouseout"/></use>
    <path d="M-4,0h8" fill="none" stroke="white" stroke-width="1.5" pointer-events="none"/>
  </g>
  <g id="arrowUp" transform="translate(30 24)">
    <use xlink:href="#rim"/>
    <path pointer-events="none" fill="none" stroke="white" stroke-width="1.5" d="M0,-3.0v7 M-2.5,-0.5L0,-3.0L2.5,-0.5"/>
  </g>
  <g id="arrowRight" transform="rotate(90) translate(36 -43)">
    <use xlink:href="#rim"/>
    <path pointer-events="none" fill="none" stroke="white" stroke-width="1.5" d="M0,-3.0v7 M-2.5,-0.5L0,-3.0L2.5,-0.5"/>
  </g>
  <g id="arrowDown" transform="rotate(180) translate(-30 -48)">
    <use xlink:href="#rim"/>
    <path pointer-events="none" fill="none" stroke="white" stroke-width="1.5" d="M0,-3.0v7 M-2.5,-0.5L0,-3.0L2.5,-0.5"/>
  </g>
  <g id="arrowLeft" transform="rotate(270) translate(-36 17)">
    <use xlink:href="#rim"/>
    <path pointer-events="none" fill="none" stroke="white" stroke-width="1.5" d="M0,-3.0v7 M-2.5,-0.5L0,-3.0L2.5,-0.5"/>
  </g>
  <g id="resetDef">
    <use xlink:href="#rim2" fill="#404040"><set attributeName="fill" to="#808080" begin="reset.mouseover" end="reset.mouseout"/></use>
  </g>
</defs>
<script type="application/ecmascript">
var viewWidth = 2762;
var viewHeight = 196;
var sectionId = 'dynsection-1';
</script>
<script type="application/ecmascript" xlink:href="svg.min.js"/>
<svg id="graph" class="graph">
<g id="viewport">
<title>dsps_conv.h</title>
<!-- Node1 -->
<g id="Node000001" class="node">
<title>Node1</title>
<g id="a_Node000001"><a xlink:title=" ">
<polygon fill="#999999" stroke="#666666" points="1429.62,-188 1358.88,-188 1358.88,-168 1429.62,-168 1429.62,-188"/>
<text xml:space="preserve" text-anchor="middle" x="1394.25" y="-174.5" font-family="Helvetica,sans-Serif" font-size="10.00">dsps_conv.h</text>
</a>
</g>
</g>
<!-- Node2 -->
<g id="Node000002" class="node">
<title>Node2</title>
<g id="a_Node000002"><a xlink:href="dsps__ccorr__f32__ansi_8c.html" target="_top" xlink:title=" ">
<polygon fill="white" stroke="#666666" points="1319.38,-132 1205.12,-132 1205.12,-112 1319.38,-112 1319.38,-132"/>
<text xml:space="preserve" text-anchor="middle" x="1262.25" y="-118.5" font-family="Helvetica,sans-Serif" font-size="10.00">dsps_ccorr_f32_ansi.c</text>
</a>
</g>
</g>
<!-- Node1&#45;&gt;Node2 -->
<g id="edge1_Node000001_Node000002" class="edge">
<title>Node1&#45;&gt;Node2</title>
<g id="a_edge1_Node000001_Node000002"><a xlink:title=" ">
<path fill="none" stroke="#63b8ff" d="M1360.69,-163.27C1337.15,-153.64 1306.27,-141.01 1285.42,-132.48"/>
<polygon fill="#63b8ff" stroke="#63b8ff" points="1359.28,-166.47 1369.86,-167.02 1361.93,-160 1359.28,-166.47"/>
</a>
</g>
</g>
<!-- Node3 -->
<g id="Node000003" class="node">
<title>Node3</title>
<g id="a_Node000003"><a xlink:href="dsps__conv__f32__ansi_8c.html" target="_top" xlink:title=" ">
<polygon fill="white" stroke="#666666" points="1451,-132 1337.5,-132 1337.5,-112 1451,-112 1451,-132"/>
<text xml:space="preserve" text-anchor="middle" x="1394.25" y="-118.5" font-family="Helvetica,sans-Serif" font-size="10.00">dsps_conv_f32_ansi.c</text>
</a>
</g>
</g>
<!-- Node1&#45;&gt;Node3 -->
<g id="edge2_Node000001_Node000003" class="edge">
<title>Node1&#45;&gt;Node3</title>
<g id="a_edge2_Node000001_Node000003"><a xlink:title=" ">
<path fill="none" stroke="#63b8ff" d="M1394.25,-156.13C1394.25,-147.9 1394.25,-138.85 1394.25,-132.3"/>
<polygon fill="#63b8ff" stroke="#63b8ff" points="1390.75,-156.08 1394.25,-166.08 1397.75,-156.08 1390.75,-156.08"/>
</a>
</g>
</g>
<!-- Node4 -->
<g id="Node000004" class="node">
<title>Node4</title>
<g id="a_Node000004"><a xlink:href="esp__dsp_8h.html" target="_top" xlink:title=" ">
<polygon fill="white" stroke="#666666" points="1529.75,-132 1468.75,-132 1468.75,-112 1529.75,-112 1529.75,-132"/>
<text xml:space="preserve" text-anchor="middle" x="1499.25" y="-118.5" font-family="Helvetica,sans-Serif" font-size="10.00">esp_dsp.h</text>
</a>
</g>
</g>
<!-- Node1&#45;&gt;Node4 -->
<g id="edge3_Node000001_Node000004" class="edge">
<title>Node1&#45;&gt;Node4</title>
<g id="a_edge3_Node000001_Node000004"><a xlink:title=" ">
<path fill="none" stroke="#63b8ff" d="M1422.74,-162.35C1441.22,-152.84 1464.76,-140.74 1480.82,-132.48"/>
<polygon fill="#63b8ff" stroke="#63b8ff" points="1421.18,-159.22 1413.89,-166.9 1424.38,-165.44 1421.18,-159.22"/>
</a>
</g>
</g>
<!-- Node5 -->
<g id="Node000005" class="node">
<title>Node5</title>
<g id="a_Node000005"><a xlink:href="applications_2azure__board__apps_2apps_23d__graphics_2main_23d__graphics__demo_8cpp.html" target="_top" xlink:title=" ">
<polygon fill="white" stroke="#666666" points="116.5,-76 0,-76 0,-56 116.5,-56 116.5,-76"/>
<text xml:space="preserve" text-anchor="middle" x="58.25" y="-62.5" font-family="Helvetica,sans-Serif" font-size="10.00">3d_graphics_demo.cpp</text>
</a>
</g>
</g>
<!-- Node4&#45;&gt;Node5 -->
<g id="edge4_Node000004_Node000005" class="edge">
<title>Node4&#45;&gt;Node5</title>
<g id="a_edge4_Node000004_Node000005"><a xlink:title=" ">
<path fill="none" stroke="#63b8ff" d="M1456.97,-111.83C869.94,-38.03 713.74,-122.68 126.25,-76 123.16,-75.75 120,-75.47 116.81,-75.15"/>
<polygon fill="#63b8ff" stroke="#63b8ff" points="1456.41,-115.29 1466.77,-113.07 1457.29,-108.34 1456.41,-115.29"/>
</a>
</g>
</g>
<!-- Node6 -->
<g id="Node000006" class="node">
<title>Node6</title>
<g id="a_Node000006"><a xlink:href="applications_2m5stack__core__s3_2apps_23d__graphics_2main_23d__graphics__demo_8cpp.html" target="_top" xlink:title=" ">
<polygon fill="white" stroke="#666666" points="251.5,-76 135,-76 135,-56 251.5,-56 251.5,-76"/>
<text xml:space="preserve" text-anchor="middle" x="193.25" y="-62.5" font-family="Helvetica,sans-Serif" font-size="10.00">3d_graphics_demo.cpp</text>
</a>
</g>
</g>
<!-- Node4&#45;&gt;Node6 -->
<g id="edge5_Node000004_Node000006" class="edge">
<title>Node4&#45;&gt;Node6</title>
<g id="a_edge5_Node000004_Node000006"><a xlink:title=" ">
<path fill="none" stroke="#63b8ff" d="M1456.93,-111.82C929.52,-44.79 788.88,-118.73 261.25,-76 258.16,-75.75 255,-75.46 251.81,-75.14"/>
<polygon fill="#63b8ff" stroke="#63b8ff" points="1456.4,-115.28 1466.77,-113.08 1457.3,-108.33 1456.4,-115.28"/>
</a>
</g>
</g>
<!-- Node7 -->
<g id="Node000007" class="node">
<title>Node7</title>
<g id="a_Node000007"><a xlink:href="external__examples_2b00f000e_2applications_2azure__board__apps_2apps_23d__graphics_2main_23d__graphics__demo_8cpp.html" target="_top" xlink:title=" ">
<polygon fill="white" stroke="#666666" points="386.5,-76 270,-76 270,-56 386.5,-56 386.5,-76"/>
<text xml:space="preserve" text-anchor="middle" x="328.25" y="-62.5" font-family="Helvetica,sans-Serif" font-size="10.00">3d_graphics_demo.cpp</text>
</a>
</g>
</g>
<!-- Node4&#45;&gt;Node7 -->
<g id="edge6_Node000004_Node000007" class="edge">
<title>Node4&#45;&gt;Node7</title>
<g id="a_edge6_Node000004_Node000007"><a xlink:title=" ">
<path fill="none" stroke="#63b8ff" d="M1457.15,-111.83C989.15,-51.52 864.11,-114.78 396.25,-76 393.16,-75.74 390,-75.45 386.82,-75.12"/>
<polygon fill="#63b8ff" stroke="#63b8ff" points="1456.4,-115.27 1466.77,-113.09 1457.3,-108.33 1456.4,-115.27"/>
</a>
</g>
</g>
<!-- Node8 -->
<g id="Node000008" class="node">
<title>Node8</title>
<g id="a_Node000008"><a xlink:href="external__examples_2b00f000e_2applications_2m5stack__core__s3_2apps_23d__graphics_2main_23d__graphics__demo_8cpp.html" target="_top" xlink:title=" ">
<polygon fill="white" stroke="#666666" points="521.5,-76 405,-76 405,-56 521.5,-56 521.5,-76"/>
<text xml:space="preserve" text-anchor="middle" x="463.25" y="-62.5" font-family="Helvetica,sans-Serif" font-size="10.00">3d_graphics_demo.cpp</text>
</a>
</g>
</g>
<!-- Node4&#45;&gt;Node8 -->
<g id="edge7_Node000004_Node000008" class="edge">
<title>Node4&#45;&gt;Node8</title>
<g id="a_edge7_Node000004_Node000008"><a xlink:title=" ">
<path fill="none" stroke="#63b8ff" d="M1457.03,-111.81C1048.72,-58.27 939.23,-110.83 531.25,-76 528.17,-75.74 525.01,-75.43 521.82,-75.1"/>
<polygon fill="#63b8ff" stroke="#63b8ff" points="1456.39,-115.25 1466.77,-113.1 1457.31,-108.31 1456.39,-115.25"/>
</a>
</g>
</g>
<!-- Node9 -->
<g id="Node000009" class="node">
<title>Node9</title>
<g id="a_Node000009"><a xlink:href="external__examples_2d1468452_2apps_23d__graphics_2main_23d__graphics__demo_8cpp.html" target="_top" xlink:title=" ">
<polygon fill="white" stroke="#666666" points="656.5,-76 540,-76 540,-56 656.5,-56 656.5,-76"/>
<text xml:space="preserve" text-anchor="middle" x="598.25" y="-62.5" font-family="Helvetica,sans-Serif" font-size="10.00">3d_graphics_demo.cpp</text>
</a>
</g>
</g>
<!-- Node4&#45;&gt;Node9 -->
<g id="edge8_Node000004_Node000009" class="edge">
<title>Node4&#45;&gt;Node9</title>
<g id="a_edge8_Node000004_Node000009"><a xlink:title=" ">
<path fill="none" stroke="#63b8ff" d="M1457.08,-111.8C1108.3,-64.98 1014.43,-106.88 666.25,-76 663.17,-75.73 660.01,-75.42 656.82,-75.08"/>
<polygon fill="#63b8ff" stroke="#63b8ff" points="1456.38,-115.23 1466.76,-113.11 1457.33,-108.3 1456.38,-115.23"/>
</a>
</g>
</g>
<!-- Node10 -->
<g id="Node000010" class="node">
<title>Node10</title>
<g id="a_Node000010"><a xlink:href="external__examples_2f9c2d4b3_2azure__board__apps_2apps_23d__graphics_2main_23d__graphics__demo_8cpp.html" target="_top" xlink:title=" ">
<polygon fill="white" stroke="#666666" points="791.5,-76 675,-76 675,-56 791.5,-56 791.5,-76"/>
<text xml:space="preserve" text-anchor="middle" x="733.25" y="-62.5" font-family="Helvetica,sans-Serif" font-size="10.00">3d_graphics_demo.cpp</text>
</a>
</g>
</g>
<!-- Node4&#45;&gt;Node10 -->
<g id="edge9_Node000004_Node000010" class="edge">
<title>Node4&#45;&gt;Node10</title>
<g id="a_edge9_Node000004_Node000010"><a xlink:title=" ">
<path fill="none" stroke="#63b8ff" d="M1456.98,-111.76C1167.4,-71.64 1089.01,-103.23 800.25,-76 797.45,-75.74 794.58,-75.44 791.68,-75.13"/>
<polygon fill="#63b8ff" stroke="#63b8ff" points="1456.37,-115.21 1466.76,-113.13 1457.35,-108.27 1456.37,-115.21"/>
</a>
</g>
</g>
<!-- Node11 -->
<g id="Node000011" class="node">
<title>Node11</title>
<g id="a_Node000011"><a xlink:href="applications_2m5stack__core__s3_2apps_2kalman__filter_2main_23d__kalman__demo_8cpp.html" target="_top" xlink:title=" ">
<polygon fill="white" stroke="#666666" points="920.88,-76 809.62,-76 809.62,-56 920.88,-56 920.88,-76"/>
<text xml:space="preserve" text-anchor="middle" x="865.25" y="-62.5" font-family="Helvetica,sans-Serif" font-size="10.00">3d_kalman_demo.cpp</text>
</a>
</g>
</g>
<!-- Node4&#45;&gt;Node11 -->
<g id="edge10_Node000004_Node000011" class="edge">
<title>Node4&#45;&gt;Node11</title>
<g id="a_edge10_Node000004_Node000011"><a xlink:title=" ">
<path fill="none" stroke="#63b8ff" d="M1457.04,-111.73C1224.3,-78.01 1160.84,-100.1 929.25,-76 926.57,-75.72 923.83,-75.42 921.07,-75.09"/>
<polygon fill="#63b8ff" stroke="#63b8ff" points="1456.35,-115.17 1466.76,-113.16 1457.37,-108.24 1456.35,-115.17"/>
</a>
</g>
</g>
<!-- Node12 -->
<g id="Node000012" class="node">
<title>Node12</title>
<g id="a_Node000012"><a xlink:href="external__examples_2b00f000e_2applications_2m5stack__core__s3_2apps_2kalman__filter_2main_23d__kalman__demo_8cpp.html" target="_top" xlink:title=" ">
<polygon fill="white" stroke="#666666" points="1049.88,-76 938.62,-76 938.62,-56 1049.88,-56 1049.88,-76"/>
<text xml:space="preserve" text-anchor="middle" x="994.25" y="-62.5" font-family="Helvetica,sans-Serif" font-size="10.00">3d_kalman_demo.cpp</text>
</a>
</g>
</g>
<!-- Node4&#45;&gt;Node12 -->
<g id="edge11_Node000004_Node000012" class="edge">
<title>Node4&#45;&gt;Node12</title>
<g id="a_edge11_Node000004_Node000012"><a xlink:title=" ">
<path fill="none" stroke="#63b8ff" d="M1457.45,-111.75C1281.58,-84.31 1233.39,-95.86 1059.25,-76 1056.31,-75.66 1053.29,-75.3 1050.25,-74.93"/>
<polygon fill="#63b8ff" stroke="#63b8ff" points="1456.75,-115.18 1467.18,-113.29 1457.85,-108.27 1456.75,-115.18"/>
</a>
</g>
</g>
<!-- Node13 -->
<g id="Node000013" class="node">
<title>Node13</title>
<g id="a_Node000013"><a xlink:href="applications_2lyrat__board__app_2main_2audio__amp__main_8c.html" target="_top" xlink:title=" ">
<polygon fill="white" stroke="#666666" points="1166.12,-76 1068.38,-76 1068.38,-56 1166.12,-56 1166.12,-76"/>
<text xml:space="preserve" text-anchor="middle" x="1117.25" y="-62.5" font-family="Helvetica,sans-Serif" font-size="10.00">audio_amp_main.c</text>
</a>
</g>
</g>
<!-- Node4&#45;&gt;Node13 -->
<g id="edge12_Node000004_Node000013" class="edge">
<title>Node4&#45;&gt;Node13</title>
<g id="a_edge12_Node000004_Node000013"><a xlink:title=" ">
<path fill="none" stroke="#63b8ff" d="M1457.5,-111.66C1332.62,-89.84 1298.1,-93.29 1175.25,-76 1172.42,-75.6 1169.52,-75.18 1166.6,-74.75"/>
<polygon fill="#63b8ff" stroke="#63b8ff" points="1456.71,-115.07 1467.16,-113.37 1457.93,-108.18 1456.71,-115.07"/>
</a>
</g>
</g>
<!-- Node14 -->
<g id="Node000014" class="node">
<title>Node14</title>
<g id="a_Node000014"><a xlink:href="external__examples_21fa4e38f_2lyrat__board__app_2main_2audio__amp__main_8c.html" target="_top" xlink:title=" ">
<polygon fill="white" stroke="#666666" points="1282.12,-76 1184.38,-76 1184.38,-56 1282.12,-56 1282.12,-76"/>
<text xml:space="preserve" text-anchor="middle" x="1233.25" y="-62.5" font-family="Helvetica,sans-Serif" font-size="10.00">audio_amp_main.c</text>
</a>
</g>
</g>
<!-- Node4&#45;&gt;Node14 -->
<g id="edge13_Node000004_Node000014" class="edge">
<title>Node4&#45;&gt;Node14</title>
<g id="a_edge13_Node000004_Node000014"><a xlink:title=" ">
<path fill="none" stroke="#63b8ff" d="M1457.62,-111.48C1391.78,-97.46 1326.11,-84.65 1282.49,-76.3"/>
<polygon fill="#63b8ff" stroke="#63b8ff" points="1456.62,-114.85 1467.13,-113.52 1458.09,-108 1456.62,-114.85"/>
</a>
</g>
</g>
<!-- Node15 -->
<g id="Node000015" class="node">
<title>Node15</title>
<g id="a_Node000015"><a xlink:href="external__examples_2b00f000e_2applications_2lyrat__board__app_2main_2audio__amp__main_8c.html" target="_top" xlink:title=" ">
<polygon fill="white" stroke="#666666" points="1398.12,-76 1300.38,-76 1300.38,-56 1398.12,-56 1398.12,-76"/>
<text xml:space="preserve" text-anchor="middle" x="1349.25" y="-62.5" font-family="Helvetica,sans-Serif" font-size="10.00">audio_amp_main.c</text>
</a>
</g>
</g>
<!-- Node4&#45;&gt;Node15 -->
<g id="edge14_Node000004_Node000015" class="edge">
<title>Node4&#45;&gt;Node15</title>
<g id="a_edge14_Node000004_Node000015"><a xlink:title=" ">
<path fill="none" stroke="#63b8ff" d="M1462.56,-107.79C1435.63,-98.1 1399.7,-85.16 1375.58,-76.48"/>
<polygon fill="#63b8ff" stroke="#63b8ff" points="1461.1,-110.99 1471.7,-111.08 1463.47,-104.4 1461.1,-110.99"/>
</a>
</g>
</g>
<!-- Node16 -->
<g id="Node000016" class="node">
<title>Node16</title>
<g id="a_Node000016"><a xlink:href="dsp__tests_8h.html" target="_top" xlink:title=" ">
<polygon fill="white" stroke="#666666" points="1482.75,-76 1415.75,-76 1415.75,-56 1482.75,-56 1482.75,-76"/>
<text xml:space="preserve" text-anchor="middle" x="1449.25" y="-62.5" font-family="Helvetica,sans-Serif" font-size="10.00">dsp_tests.h</text>
</a>
</g>
</g>
<!-- Node4&#45;&gt;Node16 -->
<g id="edge15_Node000004_Node000016" class="edge">
<title>Node4&#45;&gt;Node16</title>
<g id="a_edge15_Node000004_Node000016"><a xlink:title=" ">
<path fill="none" stroke="#63b8ff" d="M1482.85,-103.29C1474.51,-94.28 1464.71,-83.7 1457.86,-76.3"/>
<polygon fill="#63b8ff" stroke="#63b8ff" points="1480.15,-105.52 1489.51,-110.48 1485.29,-100.77 1480.15,-105.52"/>
</a>
</g>
</g>
<!-- Node23 -->
<g id="Node000023" class="node">
<title>Node23</title>
<g id="a_Node000023"><a xlink:href="applications_2azure__board__apps_2graphics_23d__matrix_23d__matrix__src_2graphics__support_8h.html" target="_top" xlink:title=" ">
<polygon fill="white" stroke="#666666" points="1599.5,-76 1501,-76 1501,-56 1599.5,-56 1599.5,-76"/>
<text xml:space="preserve" text-anchor="middle" x="1550.25" y="-62.5" font-family="Helvetica,sans-Serif" font-size="10.00">graphics_support.h</text>
</a>
</g>
</g>
<!-- Node4&#45;&gt;Node23 -->
<g id="edge22_Node000004_Node000023" class="edge">
<title>Node4&#45;&gt;Node23</title>
<g id="a_edge22_Node000004_Node000023"><a xlink:title=" ">
<path fill="none" stroke="#63b8ff" d="M1515.98,-103.29C1524.49,-94.28 1534.48,-83.7 1541.47,-76.3"/>
<polygon fill="#63b8ff" stroke="#63b8ff" points="1513.49,-100.82 1509.17,-110.49 1518.58,-105.63 1513.49,-100.82"/>
</a>
</g>
</g>
<!-- Node25 -->
<g id="Node000025" class="node">
<title>Node25</title>
<g id="a_Node000025"><a xlink:href="external__examples_2b00f000e_2applications_2azure__board__apps_2graphics_23d__matrix_23d__matrix__src_2graphics__support_8h.html" target="_top" xlink:title=" ">
<polygon fill="white" stroke="#666666" points="1716.5,-76 1618,-76 1618,-56 1716.5,-56 1716.5,-76"/>
<text xml:space="preserve" text-anchor="middle" x="1667.25" y="-62.5" font-family="Helvetica,sans-Serif" font-size="10.00">graphics_support.h</text>
</a>
</g>
</g>
<!-- Node4&#45;&gt;Node25 -->
<g id="edge24_Node000004_Node000025" class="edge">
<title>Node4&#45;&gt;Node25</title>
<g id="a_edge24_Node000004_Node000025"><a xlink:title=" ">
<path fill="none" stroke="#63b8ff" d="M1539.14,-108.18C1569.43,-98.44 1610.39,-85.28 1637.76,-76.48"/>
<polygon fill="#63b8ff" stroke="#63b8ff" points="1538.4,-104.74 1529.95,-111.13 1540.55,-111.4 1538.4,-104.74"/>
</a>
</g>
</g>
<!-- Node27 -->
<g id="Node000027" class="node">
<title>Node27</title>
<g id="a_Node000027"><a xlink:href="external__examples_2f9c2d4b3_2azure__board__apps_2graphics_23d__matrix_23d__matrix__src_2graphics__support_8h.html" target="_top" xlink:title=" ">
<polygon fill="white" stroke="#666666" points="1833.5,-76 1735,-76 1735,-56 1833.5,-56 1833.5,-76"/>
<text xml:space="preserve" text-anchor="middle" x="1784.25" y="-62.5" font-family="Helvetica,sans-Serif" font-size="10.00">graphics_support.h</text>
</a>
</g>
</g>
<!-- Node4&#45;&gt;Node27 -->
<g id="edge26_Node000004_Node000027" class="edge">
<title>Node4&#45;&gt;Node27</title>
<g id="a_edge26_Node000004_Node000027"><a xlink:title=" ">
<path fill="none" stroke="#63b8ff" d="M1541.05,-113.08C1592.48,-103.33 1679.72,-86.81 1734.54,-76.42"/>
<polygon fill="#63b8ff" stroke="#63b8ff" points="1540.68,-109.59 1531.51,-114.89 1541.98,-116.47 1540.68,-109.59"/>
</a>
</g>
</g>
<!-- Node29 -->
<g id="Node000029" class="node">
<title>Node29</title>
<g id="a_Node000029"><a xlink:href="applications_2m5stack__core__s3_2apps_23d__graphics_2main_2init__display_8c.html" target="_top" xlink:title=" ">
<polygon fill="white" stroke="#666666" points="1923.38,-76 1851.12,-76 1851.12,-56 1923.38,-56 1923.38,-76"/>
<text xml:space="preserve" text-anchor="middle" x="1887.25" y="-62.5" font-family="Helvetica,sans-Serif" font-size="10.00">init_display.c</text>
</a>
</g>
</g>
<!-- Node4&#45;&gt;Node29 -->
<g id="edge28_Node000004_Node000029" class="edge">
<title>Node4&#45;&gt;Node29</title>
<g id="a_edge28_Node000004_Node000029"><a xlink:title=" ">
<path fill="none" stroke="#63b8ff" d="M1541.45,-116.38C1606.31,-109.08 1734.31,-93.85 1842.25,-76 1845.08,-75.53 1848,-75.02 1850.94,-74.48"/>
<polygon fill="#63b8ff" stroke="#63b8ff" points="1541.15,-112.9 1531.6,-117.49 1541.93,-119.85 1541.15,-112.9"/>
</a>
</g>
</g>
<!-- Node30 -->
<g id="Node000030" class="node">
<title>Node30</title>
<g id="a_Node000030"><a xlink:href="external__examples_2b00f000e_2applications_2m5stack__core__s3_2apps_23d__graphics_2main_2init__display_8c.html" target="_top" xlink:title=" ">
<polygon fill="white" stroke="#666666" points="2013.38,-76 1941.12,-76 1941.12,-56 2013.38,-56 2013.38,-76"/>
<text xml:space="preserve" text-anchor="middle" x="1977.25" y="-62.5" font-family="Helvetica,sans-Serif" font-size="10.00">init_display.c</text>
</a>
</g>
</g>
<!-- Node4&#45;&gt;Node30 -->
<g id="edge29_Node000004_Node000030" class="edge">
<title>Node4&#45;&gt;Node30</title>
<g id="a_edge29_Node000004_Node000030"><a xlink:title=" ">
<path fill="none" stroke="#63b8ff" d="M1541.28,-117.95C1618.83,-112.03 1789.57,-97.63 1932.25,-76 1935.09,-75.57 1938.01,-75.08 1940.95,-74.56"/>
<polygon fill="#63b8ff" stroke="#63b8ff" points="1541.31,-114.44 1531.6,-118.68 1541.83,-121.42 1541.31,-114.44"/>
</a>
</g>
</g>
<!-- Node31 -->
<g id="Node000031" class="node">
<title>Node31</title>
<g id="a_Node000031"><a xlink:href="applications_2azure__board__apps_2apps_2kalman__filter_2main_2kalman__filter__demo_8cpp.html" target="_top" xlink:title=" ">
<polygon fill="white" stroke="#666666" points="2151,-76 2031.5,-76 2031.5,-56 2151,-56 2151,-76"/>
<text xml:space="preserve" text-anchor="middle" x="2091.25" y="-62.5" font-family="Helvetica,sans-Serif" font-size="10.00">kalman_filter_demo.cpp</text>
</a>
</g>
</g>
<!-- Node4&#45;&gt;Node31 -->
<g id="edge30_Node000004_Node000031" class="edge">
<title>Node4&#45;&gt;Node31</title>
<g id="a_edge30_Node000004_Node000031"><a xlink:title=" ">
<path fill="none" stroke="#63b8ff" d="M1541.46,-118C1630.46,-111.53 1843.84,-95.3 2022.25,-76 2025.13,-75.69 2028.08,-75.36 2031.06,-75.01"/>
<polygon fill="#63b8ff" stroke="#63b8ff" points="1541.48,-114.49 1531.75,-118.7 1541.98,-121.47 1541.48,-114.49"/>
</a>
</g>
</g>
<!-- Node32 -->
<g id="Node000032" class="node">
<title>Node32</title>
<g id="a_Node000032"><a xlink:href="external__examples_2b00f000e_2applications_2azure__board__apps_2apps_2kalman__filter_2main_2kalman__filter__demo_8cpp.html" target="_top" xlink:title=" ">
<polygon fill="white" stroke="#666666" points="2289,-76 2169.5,-76 2169.5,-56 2289,-56 2289,-76"/>
<text xml:space="preserve" text-anchor="middle" x="2229.25" y="-62.5" font-family="Helvetica,sans-Serif" font-size="10.00">kalman_filter_demo.cpp</text>
</a>
</g>
</g>
<!-- Node4&#45;&gt;Node32 -->
<g id="edge31_Node000004_Node000032" class="edge">
<title>Node4&#45;&gt;Node32</title>
<g id="a_edge31_Node000004_Node000032"><a xlink:title=" ">
<path fill="none" stroke="#63b8ff" d="M1541.25,-119.04C1645.95,-113.97 1926.87,-99.14 2160.25,-76 2163.14,-75.71 2166.09,-75.4 2169.06,-75.07"/>
<polygon fill="#63b8ff" stroke="#63b8ff" points="1541.28,-115.54 1531.46,-119.51 1541.61,-122.53 1541.28,-115.54"/>
</a>
</g>
</g>
<!-- Node33 -->
<g id="Node000033" class="node">
<title>Node33</title>
<g id="a_Node000033"><a xlink:href="external__examples_2d1468452_2apps_2kalman__filter_2main_2kalman__filter__demo_8cpp.html" target="_top" xlink:title=" ">
<polygon fill="white" stroke="#666666" points="2427,-76 2307.5,-76 2307.5,-56 2427,-56 2427,-76"/>
<text xml:space="preserve" text-anchor="middle" x="2367.25" y="-62.5" font-family="Helvetica,sans-Serif" font-size="10.00">kalman_filter_demo.cpp</text>
</a>
</g>
</g>
<!-- Node4&#45;&gt;Node33 -->
<g id="edge32_Node000004_Node000033" class="edge">
<title>Node4&#45;&gt;Node33</title>
<g id="a_edge32_Node000004_Node000033"><a xlink:title=" ">
<path fill="none" stroke="#63b8ff" d="M1541.63,-119.71C1660.92,-115.84 2009.7,-102.91 2298.25,-76 2301.14,-75.73 2304.09,-75.43 2307.07,-75.11"/>
<polygon fill="#63b8ff" stroke="#63b8ff" points="1541.56,-116.21 1531.67,-120.03 1541.78,-123.21 1541.56,-116.21"/>
</a>
</g>
</g>
<!-- Node34 -->
<g id="Node000034" class="node">
<title>Node34</title>
<g id="a_Node000034"><a xlink:href="external__examples_2f9c2d4b3_2azure__board__apps_2apps_2kalman__filter_2main_2kalman__filter__demo_8cpp.html" target="_top" xlink:title=" ">
<polygon fill="white" stroke="#666666" points="2565,-76 2445.5,-76 2445.5,-56 2565,-56 2565,-76"/>
<text xml:space="preserve" text-anchor="middle" x="2505.25" y="-62.5" font-family="Helvetica,sans-Serif" font-size="10.00">kalman_filter_demo.cpp</text>
</a>
</g>
</g>
<!-- Node4&#45;&gt;Node34 -->
<g id="edge33_Node000004_Node000034" class="edge">
<title>Node4&#45;&gt;Node34</title>
<g id="a_edge33_Node000004_Node000034"><a xlink:title=" ">
<path fill="none" stroke="#63b8ff" d="M1541.2,-120.21C1673.15,-117.45 2091.4,-106.72 2436.25,-76 2439.14,-75.74 2442.09,-75.45 2445.07,-75.14"/>
<polygon fill="#63b8ff" stroke="#63b8ff" points="1541.49,-116.7 1531.56,-120.4 1541.63,-123.7 1541.49,-116.7"/>
</a>
</g>
</g>
<!-- Node35 -->
<g id="Node000035" class="node">
<title>Node35</title>
<g id="a_Node000035"><a xlink:href="main_2main_8c.html" target="_top" xlink:title=" ">
<polygon fill="white" stroke="#666666" points="2627.88,-76 2582.62,-76 2582.62,-56 2627.88,-56 2627.88,-76"/>
<text xml:space="preserve" text-anchor="middle" x="2605.25" y="-62.5" font-family="Helvetica,sans-Serif" font-size="10.00">main.c</text>
</a>
</g>
</g>
<!-- Node4&#45;&gt;Node35 -->
<g id="edge34_Node000004_Node000035" class="edge">
<title>Node4&#45;&gt;Node35</title>
<g id="a_edge34_Node000004_Node000035"><a xlink:title=" ">
<path fill="none" stroke="#63b8ff" d="M1541.61,-120.59C1714.89,-118.69 2370.16,-109.4 2574.25,-76 2576.9,-75.57 2579.65,-74.98 2582.37,-74.31"/>
<polygon fill="#63b8ff" stroke="#63b8ff" points="1541.69,-117.09 1531.73,-120.69 1541.76,-124.09 1541.69,-117.09"/>
</a>
</g>
</g>
<!-- Node36 -->
<g id="Node000036" class="node">
<title>Node36</title>
<g id="a_Node000036"><a xlink:href="components_2espressif____esp-dsp_2applications_2spectrum__box__lite_2main_2main_8c.html" target="_top" xlink:title=" ">
<polygon fill="white" stroke="#666666" points="2690.88,-76 2645.62,-76 2645.62,-56 2690.88,-56 2690.88,-76"/>
<text xml:space="preserve" text-anchor="middle" x="2668.25" y="-62.5" font-family="Helvetica,sans-Serif" font-size="10.00">main.c</text>
</a>
</g>
</g>
<!-- Node4&#45;&gt;Node36 -->
<g id="edge35_Node000004_Node000036" class="edge">
<title>Node4&#45;&gt;Node36</title>
<g id="a_edge35_Node000004_Node000036"><a xlink:title=" ">
<path fill="none" stroke="#63b8ff" d="M1541.45,-120.7C1720.77,-119.22 2420.13,-111.27 2637.25,-76 2639.91,-75.57 2642.65,-74.98 2645.37,-74.32"/>
<polygon fill="#63b8ff" stroke="#63b8ff" points="1541.65,-117.2 1531.68,-120.78 1541.71,-124.2 1541.65,-117.2"/>
</a>
</g>
</g>
<!-- Node37 -->
<g id="Node000037" class="node">
<title>Node37</title>
<g id="a_Node000037"><a xlink:href="components_2espressif____esp-dsp_2external__examples_2b00f000e_2applications_2spectrum__box__lite_2main_2main_8c.html" target="_top" xlink:title=" ">
<polygon fill="white" stroke="#666666" points="2753.88,-76 2708.62,-76 2708.62,-56 2753.88,-56 2753.88,-76"/>
<text xml:space="preserve" text-anchor="middle" x="2731.25" y="-62.5" font-family="Helvetica,sans-Serif" font-size="10.00">main.c</text>
</a>
</g>
</g>
<!-- Node4&#45;&gt;Node37 -->
<g id="edge36_Node000004_Node000037" class="edge">
<title>Node4&#45;&gt;Node37</title>
<g id="a_edge36_Node000004_Node000037"><a xlink:title=" ">
<path fill="none" stroke="#63b8ff" d="M1541.66,-120.8C1727.41,-119.72 2470.22,-113.12 2700.25,-76 2702.91,-75.57 2705.66,-74.99 2708.37,-74.32"/>
<polygon fill="#63b8ff" stroke="#63b8ff" points="1541.73,-117.3 1531.75,-120.86 1541.77,-124.3 1541.73,-117.3"/>
</a>
</g>
</g>
<!-- Node17 -->
<g id="Node000017" class="node">
<title>Node17</title>
<g id="a_Node000017"><a xlink:href="dsps__fft2r__sc16__ansi_8c.html" target="_top" xlink:title=" ">
<polygon fill="white" stroke="#666666" points="1000.5,-20 884,-20 884,0 1000.5,0 1000.5,-20"/>
<text xml:space="preserve" text-anchor="middle" x="942.25" y="-6.5" font-family="Helvetica,sans-Serif" font-size="10.00">dsps_fft2r_sc16_ansi.c</text>
</a>
</g>
</g>
<!-- Node16&#45;&gt;Node17 -->
<g id="edge16_Node000016_Node000017" class="edge">
<title>Node16&#45;&gt;Node17</title>
<g id="a_edge16_Node000016_Node000017"><a xlink:title=" ">
<path fill="none" stroke="#63b8ff" d="M1404.02,-55.66C1230.11,-29.81 1182.63,-39.22 1010.25,-20 1007.17,-19.66 1004.02,-19.29 1000.84,-18.91"/>
<polygon fill="#63b8ff" stroke="#63b8ff" points="1403.48,-59.12 1413.89,-57.15 1404.53,-52.2 1403.48,-59.12"/>
</a>
</g>
</g>
<!-- Node18 -->
<g id="Node000018" class="node">
<title>Node18</title>
<g id="a_Node000018"><a xlink:href="dsps__fird__init__s16_8c.html" target="_top" xlink:title=" ">
<polygon fill="white" stroke="#666666" points="1121.75,-20 1018.75,-20 1018.75,0 1121.75,0 1121.75,-20"/>
<text xml:space="preserve" text-anchor="middle" x="1070.25" y="-6.5" font-family="Helvetica,sans-Serif" font-size="10.00">dsps_fird_init_s16.c</text>
</a>
</g>
</g>
<!-- Node16&#45;&gt;Node18 -->
<g id="edge17_Node000016_Node000018" class="edge">
<title>Node16&#45;&gt;Node18</title>
<g id="a_edge17_Node000016_Node000018"><a xlink:title=" ">
<path fill="none" stroke="#63b8ff" d="M1404.19,-55.58C1283.41,-35.12 1250.19,-36.53 1131.25,-20 1128.28,-19.59 1125.23,-19.16 1122.16,-18.72"/>
<polygon fill="#63b8ff" stroke="#63b8ff" points="1403.43,-59 1413.88,-57.24 1404.61,-52.1 1403.43,-59"/>
</a>
</g>
</g>
<!-- Node19 -->
<g id="Node000019" class="node">
<title>Node19</title>
<g id="a_Node000019"><a xlink:href="dsps__firmr__f32__ansi_8c.html" target="_top" xlink:title=" ">
<polygon fill="white" stroke="#666666" points="1252.25,-20 1140.25,-20 1140.25,0 1252.25,0 1252.25,-20"/>
<text xml:space="preserve" text-anchor="middle" x="1196.25" y="-6.5" font-family="Helvetica,sans-Serif" font-size="10.00">dsps_firmr_f32_ansi.c</text>
</a>
</g>
</g>
<!-- Node16&#45;&gt;Node19 -->
<g id="edge18_Node000016_Node000019" class="edge">
<title>Node16&#45;&gt;Node19</title>
<g id="a_edge18_Node000016_Node000019"><a xlink:title=" ">
<path fill="none" stroke="#63b8ff" d="M1404.18,-55.34C1342.31,-42.12 1280.99,-29.05 1240.71,-20.47"/>
<polygon fill="#63b8ff" stroke="#63b8ff" points="1403.33,-58.74 1413.84,-57.41 1404.8,-51.9 1403.33,-58.74"/>
</a>
</g>
</g>
<!-- Node20 -->
<g id="Node000020" class="node">
<title>Node20</title>
<g id="a_Node000020"><a xlink:href="dsps__firmr__init__f32_8c.html" target="_top" xlink:title=" ">
<polygon fill="white" stroke="#666666" points="1376.62,-20 1269.88,-20 1269.88,0 1376.62,0 1376.62,-20"/>
<text xml:space="preserve" text-anchor="middle" x="1323.25" y="-6.5" font-family="Helvetica,sans-Serif" font-size="10.00">dsps_firmr_init_f32.c</text>
</a>
</g>
</g>
<!-- Node16&#45;&gt;Node20 -->
<g id="edge19_Node000016_Node000020" class="edge">
<title>Node16&#45;&gt;Node20</title>
<g id="a_edge19_Node000016_Node000020"><a xlink:title=" ">
<path fill="none" stroke="#63b8ff" d="M1416.91,-51.14C1394.47,-41.52 1365.18,-28.97 1345.37,-20.48"/>
<polygon fill="#63b8ff" stroke="#63b8ff" points="1415.34,-54.28 1425.91,-55 1418.1,-47.84 1415.34,-54.28"/>
</a>
</g>
</g>
<!-- Node21 -->
<g id="Node000021" class="node">
<title>Node21</title>
<g id="a_Node000021"><a xlink:href="dsps__firmr__init__s16_8c.html" target="_top" xlink:title=" ">
<polygon fill="white" stroke="#666666" points="1503.75,-20 1394.75,-20 1394.75,0 1503.75,0 1503.75,-20"/>
<text xml:space="preserve" text-anchor="middle" x="1449.25" y="-6.5" font-family="Helvetica,sans-Serif" font-size="10.00">dsps_firmr_init_s16.c</text>
</a>
</g>
</g>
<!-- Node16&#45;&gt;Node21 -->
<g id="edge20_Node000016_Node000021" class="edge">
<title>Node16&#45;&gt;Node21</title>
<g id="a_edge20_Node000016_Node000021"><a xlink:title=" ">
<path fill="none" stroke="#63b8ff" d="M1449.25,-44.13C1449.25,-35.9 1449.25,-26.85 1449.25,-20.3"/>
<polygon fill="#63b8ff" stroke="#63b8ff" points="1445.75,-44.08 1449.25,-54.08 1452.75,-44.08 1445.75,-44.08"/>
</a>
</g>
</g>
<!-- Node22 -->
<g id="Node000022" class="node">
<title>Node22</title>
<g id="a_Node000022"><a xlink:href="dsps__firmr__s16__ansi_8c.html" target="_top" xlink:title=" ">
<polygon fill="white" stroke="#666666" points="1636.38,-20 1522.12,-20 1522.12,0 1636.38,0 1636.38,-20"/>
<text xml:space="preserve" text-anchor="middle" x="1579.25" y="-6.5" font-family="Helvetica,sans-Serif" font-size="10.00">dsps_firmr_s16_ansi.c</text>
</a>
</g>
</g>
<!-- Node16&#45;&gt;Node22 -->
<g id="edge21_Node000016_Node000022" class="edge">
<title>Node16&#45;&gt;Node22</title>
<g id="a_edge21_Node000016_Node000022"><a xlink:title=" ">
<path fill="none" stroke="#63b8ff" d="M1482.3,-51.27C1505.49,-41.64 1535.9,-29.01 1556.43,-20.48"/>
<polygon fill="#63b8ff" stroke="#63b8ff" points="1481.18,-47.94 1473.29,-55.01 1483.87,-54.41 1481.18,-47.94"/>
</a>
</g>
</g>
<!-- Node24 -->
<g id="Node000024" class="node">
<title>Node24</title>
<g id="a_Node000024"><a xlink:href="applications_2azure__board__apps_2graphics_23d__matrix_23d__matrix__src_2graphics__support_8cpp.html" target="_top" xlink:title=" ">
<polygon fill="white" stroke="#666666" points="1763.75,-20 1654.75,-20 1654.75,0 1763.75,0 1763.75,-20"/>
<text xml:space="preserve" text-anchor="middle" x="1709.25" y="-6.5" font-family="Helvetica,sans-Serif" font-size="10.00">graphics_support.cpp</text>
</a>
</g>
</g>
<!-- Node23&#45;&gt;Node24 -->
<g id="edge23_Node000023_Node000024" class="edge">
<title>Node23&#45;&gt;Node24</title>
<g id="a_edge23_Node000023_Node000024"><a xlink:title=" ">
<path fill="none" stroke="#63b8ff" d="M1588.76,-51.92C1617.35,-42.21 1655.66,-29.2 1681.34,-20.48"/>
<polygon fill="#63b8ff" stroke="#63b8ff" points="1587.72,-48.58 1579.38,-55.11 1589.97,-55.21 1587.72,-48.58"/>
</a>
</g>
</g>
<!-- Node26 -->
<g id="Node000026" class="node">
<title>Node26</title>
<g id="a_Node000026"><a xlink:href="external__examples_2b00f000e_2applications_2azure__board__apps_2graphics_23d__matrix_23d__matrix__src_2graphics__support_8cpp.html" target="_top" xlink:title=" ">
<polygon fill="white" stroke="#666666" points="1890.75,-20 1781.75,-20 1781.75,0 1890.75,0 1890.75,-20"/>
<text xml:space="preserve" text-anchor="middle" x="1836.25" y="-6.5" font-family="Helvetica,sans-Serif" font-size="10.00">graphics_support.cpp</text>
</a>
</g>
</g>
<!-- Node25&#45;&gt;Node26 -->
<g id="edge25_Node000025_Node000026" class="edge">
<title>Node25&#45;&gt;Node26</title>
<g id="a_edge25_Node000025_Node000026"><a xlink:title=" ">
<path fill="none" stroke="#63b8ff" d="M1707.38,-52.18C1737.84,-42.44 1779.05,-29.28 1806.58,-20.48"/>
<polygon fill="#63b8ff" stroke="#63b8ff" points="1706.59,-48.76 1698.13,-55.13 1708.72,-55.42 1706.59,-48.76"/>
</a>
</g>
</g>
<!-- Node28 -->
<g id="Node000028" class="node">
<title>Node28</title>
<g id="a_Node000028"><a xlink:href="external__examples_2f9c2d4b3_2azure__board__apps_2graphics_23d__matrix_23d__matrix__src_2graphics__support_8cpp.html" target="_top" xlink:title=" ">
<polygon fill="white" stroke="#666666" points="2017.75,-20 1908.75,-20 1908.75,0 2017.75,0 2017.75,-20"/>
<text xml:space="preserve" text-anchor="middle" x="1963.25" y="-6.5" font-family="Helvetica,sans-Serif" font-size="10.00">graphics_support.cpp</text>
</a>
</g>
</g>
<!-- Node27&#45;&gt;Node28 -->
<g id="edge27_Node000027_Node000028" class="edge">
<title>Node27&#45;&gt;Node28</title>
<g id="a_edge27_Node000027_Node000028"><a xlink:title=" ">
<path fill="none" stroke="#63b8ff" d="M1826.33,-52.31C1858.64,-42.56 1902.54,-29.32 1931.83,-20.48"/>
<polygon fill="#63b8ff" stroke="#63b8ff" points="1825.44,-48.92 1816.88,-55.16 1827.46,-55.62 1825.44,-48.92"/>
</a>
</g>
</g>
</g>
</svg>

<g id="navigator" transform="translate(0 0)" fill="#404254">
  <rect fill="#f2f5e9" fill-opacity="0.5" stroke="#606060" stroke-width=".5" x="0" y="0" width="60" height="60"/>
  <use id="zoomplus" xlink:href="#zoomPlus" x="17" y="9" onmousedown="handleZoom(evt,'in')"/>
  <use id="zoomminus" xlink:href="#zoomMin" x="42" y="9" onmousedown="handleZoom(evt,'out')"/>
  <use id="reset" xlink:href="#resetDef" x="30" y="36" onmousedown="handleReset()"/>
   <use id="arrowup" xlink:href="#arrowUp" x="0" y="0" onmousedown="handlePan(0,-1)"/>
  <use id="arrowright" xlink:href="#arrowRight" x="0" y="0" onmousedown="handlePan(1,0)"/>
  <use id="arrowdown" xlink:href="#arrowDown" x="0" y="0" onmousedown="handlePan(0,1)"/>
  <use id="arrowleft" xlink:href="#arrowLeft" x="0" y="0" onmousedown="handlePan(-1,0)"/>
</g>
<svg viewBox="0 0 15 15" width="100%" height="30px" preserveAspectRatio="xMaxYMin meet">
 <g id="arrow_out" transform="scale(0.3 0.3)">
  <a xlink:href="dsps__conv_8h__dep__incl_org.svg" target="_base">
   <rect id="button" ry="5" rx="5" y="6" x="6" height="38" width="38"
        fill="#f2f5e9" fill-opacity="0.5" stroke="#606060" stroke-width="1.0"/>
   <path id="arrow"
     d="M 11.500037,31.436501 C 11.940474,20.09759 22.043105,11.32322 32.158766,21.979434 L 37.068811,17.246167 C 37.068811,17.246167 37.088388,32 37.088388,32 L 22.160133,31.978069 C 22.160133,31.978069 26.997745,27.140456 26.997745,27.140456 C 18.528582,18.264221 13.291696,25.230495 11.500037,31.436501 z"
     style="fill:#404040;"/>
  </a>
 </g>
</svg>

<style type='text/css'>
<![CDATA[
[data-mouse-over-selected='false'] { opacity: 0.7; }
[data-mouse-over-selected='true']  { opacity: 1.0; }
]]>
</style>
<script type="application/ecmascript"><![CDATA[
document.addEventListener('DOMContentLoaded', (event) => {
  highlightEdges();
  highlightAdjacentNodes();
});
]]></script>
</svg>
