<?xml version="1.0" encoding="UTF-8" standalone="no"?>
<!DOCTYPE svg PUBLIC "-//W3C//DTD SVG 1.1//EN"
 "http://www.w3.org/Graphics/SVG/1.1/DTD/svg11.dtd">
<!-- Generated by graphviz version 14.1.2 (20260124.0452)
 -->
<!-- Title: dsps_fird_init_s16.c Pages: 1 -->
<svg width="1693pt" height="476pt"
 viewBox="0.00 0.00 1693.00 476.00" xmlns="http://www.w3.org/2000/svg" xmlns:xlink="http://www.w3.org/1999/xlink">
<g id="graph0" class="graph" transform="scale(1 1) rotate(0) translate(4 472)">
<title>dsps_fird_init_s16.c</title>
<!-- Node1 -->
<g id="Node000001" class="node">
<title>Node1</title>
<g id="a_Node000001"><a xlink:title=" ">
<polygon fill="#999999" stroke="#666666" points="1604.62,-468 1501.62,-468 1501.62,-448 1604.62,-448 1604.62,-468"/>
<text xml:space="preserve" text-anchor="middle" x="1553.12" y="-454.5" font-family="Helvetica,sans-Serif" font-size="10.00">dsps_fird_init_s16.c</text>
</a>
</g>
</g>
<!-- Node2 -->
<g id="Node000002" class="node">
<title>Node2</title>
<g id="a_Node000002"><a xlink:href="dsps__fir_8h.html" target="_top" xlink:title=" ">
<polygon fill="white" stroke="#666666" points="1386.5,-244 1327.75,-244 1327.75,-224 1386.5,-224 1386.5,-244"/>
<text xml:space="preserve" text-anchor="middle" x="1357.12" y="-230.5" font-family="Helvetica,sans-Serif" font-size="10.00">dsps_fir.h</text>
</a>
</g>
</g>
<!-- Node1&#45;&gt;Node2 -->
<g id="edge1_Node000001_Node000002" class="edge">
<title>Node1&#45;&gt;Node2</title>
<g id="a_edge1_Node000001_Node000002"><a xlink:title=" ">
<path fill="none" stroke="#63b8ff" d="M1529.54,-447.61C1512.25,-439.9 1488.94,-427.7 1472.12,-412 1421.1,-364.38 1382.34,-289.64 1365.84,-254.5"/>
<polygon fill="#63b8ff" stroke="#63b8ff" points="1369.1,-253.2 1361.75,-245.57 1362.74,-256.12 1369.1,-253.2"/>
</a>
</g>
</g>
<!-- Node14 -->
<g id="Node000014" class="node">
<title>Node14</title>
<g id="a_Node000014"><a xlink:title=" ">
<polygon fill="#e0e0e0" stroke="#999999" points="1618.5,-412 1565.75,-412 1565.75,-392 1618.5,-392 1618.5,-412"/>
<text xml:space="preserve" text-anchor="middle" x="1592.12" y="-398.5" font-family="Helvetica,sans-Serif" font-size="10.00">malloc.h</text>
</a>
</g>
</g>
<!-- Node1&#45;&gt;Node14 -->
<g id="edge15_Node000001_Node000014" class="edge">
<title>Node1&#45;&gt;Node14</title>
<g id="a_edge15_Node000001_Node000014"><a xlink:title=" ">
<path fill="none" stroke="#63b8ff" d="M1559.92,-447.59C1565.12,-440.39 1572.46,-430.23 1578.81,-421.43"/>
<polygon fill="#63b8ff" stroke="#63b8ff" points="1581.51,-423.68 1584.52,-413.53 1575.83,-419.58 1581.51,-423.68"/>
</a>
</g>
</g>
<!-- Node15 -->
<g id="Node000015" class="node">
<title>Node15</title>
<g id="a_Node000015"><a xlink:title=" ">
<polygon fill="#e0e0e0" stroke="#999999" points="1685.25,-412 1637,-412 1637,-392 1685.25,-392 1685.25,-412"/>
<text xml:space="preserve" text-anchor="middle" x="1661.12" y="-398.5" font-family="Helvetica,sans-Serif" font-size="10.00">string.h</text>
</a>
</g>
</g>
<!-- Node1&#45;&gt;Node15 -->
<g id="edge16_Node000001_Node000015" class="edge">
<title>Node1&#45;&gt;Node15</title>
<g id="a_edge16_Node000001_Node000015"><a xlink:title=" ">
<path fill="none" stroke="#63b8ff" d="M1571.94,-447.59C1588.48,-439.32 1612.84,-427.14 1631.92,-417.6"/>
<polygon fill="#63b8ff" stroke="#63b8ff" points="1633.43,-420.76 1640.81,-413.16 1630.3,-414.5 1633.43,-420.76"/>
</a>
</g>
</g>
<!-- Node16 -->
<g id="Node000016" class="node">
<title>Node16</title>
<g id="a_Node000016"><a xlink:href="dsp__tests_8h.html" target="_top" xlink:title=" ">
<polygon fill="white" stroke="#666666" points="1547.62,-412 1480.62,-412 1480.62,-392 1547.62,-392 1547.62,-412"/>
<text xml:space="preserve" text-anchor="middle" x="1514.12" y="-398.5" font-family="Helvetica,sans-Serif" font-size="10.00">dsp_tests.h</text>
</a>
</g>
</g>
<!-- Node1&#45;&gt;Node16 -->
<g id="edge17_Node000001_Node000016" class="edge">
<title>Node1&#45;&gt;Node16</title>
<g id="a_edge17_Node000001_Node000016"><a xlink:title=" ">
<path fill="none" stroke="#63b8ff" d="M1546.33,-447.59C1541.13,-440.39 1533.79,-430.23 1527.44,-421.43"/>
<polygon fill="#63b8ff" stroke="#63b8ff" points="1530.42,-419.58 1521.73,-413.53 1524.74,-423.68 1530.42,-419.58"/>
</a>
</g>
</g>
<!-- Node3 -->
<g id="Node000003" class="node">
<title>Node3</title>
<g id="a_Node000003"><a xlink:href="dsp__err_8h.html" target="_top" xlink:title=" ">
<polygon fill="white" stroke="#666666" points="689.38,-132 632.88,-132 632.88,-112 689.38,-112 689.38,-132"/>
<text xml:space="preserve" text-anchor="middle" x="661.12" y="-118.5" font-family="Helvetica,sans-Serif" font-size="10.00">dsp_err.h</text>
</a>
</g>
</g>
<!-- Node2&#45;&gt;Node3 -->
<g id="edge2_Node000002_Node000003" class="edge">
<title>Node2&#45;&gt;Node3</title>
<g id="a_edge2_Node000002_Node000003"><a xlink:title=" ">
<path fill="none" stroke="#63b8ff" d="M1327.5,-225.91C1286.4,-215.93 1214.29,-197.85 1189.12,-188 1171.35,-181.04 1169.42,-173.42 1151.12,-168 1066.92,-143.05 801.89,-129.15 700.82,-124.64"/>
<polygon fill="#63b8ff" stroke="#63b8ff" points="701.26,-121.16 691.12,-124.22 700.96,-128.15 701.26,-121.16"/>
</a>
</g>
</g>
<!-- Node8 -->
<g id="Node000008" class="node">
<title>Node8</title>
<g id="a_Node000008"><a xlink:href="dsps__fir__platform_8h.html" target="_top" xlink:title=" ">
<polygon fill="white" stroke="#666666" points="1297.75,-188 1198.5,-188 1198.5,-168 1297.75,-168 1297.75,-188"/>
<text xml:space="preserve" text-anchor="middle" x="1248.12" y="-174.5" font-family="Helvetica,sans-Serif" font-size="10.00">dsps_fir_platform.h</text>
</a>
</g>
</g>
<!-- Node2&#45;&gt;Node8 -->
<g id="edge7_Node000002_Node000008" class="edge">
<title>Node2&#45;&gt;Node8</title>
<g id="a_edge7_Node000002_Node000008"><a xlink:title=" ">
<path fill="none" stroke="#63b8ff" d="M1338.14,-223.59C1321.36,-215.28 1296.63,-203.03 1277.34,-193.47"/>
<polygon fill="#63b8ff" stroke="#63b8ff" points="1279.13,-190.45 1268.62,-189.15 1276.02,-196.73 1279.13,-190.45"/>
</a>
</g>
</g>
<!-- Node10 -->
<g id="Node000010" class="node">
<title>Node10</title>
<g id="a_Node000010"><a xlink:href="dsp__common_8h.html" target="_top" xlink:title=" ">
<polygon fill="white" stroke="#666666" points="1398.5,-188 1315.75,-188 1315.75,-168 1398.5,-168 1398.5,-188"/>
<text xml:space="preserve" text-anchor="middle" x="1357.12" y="-174.5" font-family="Helvetica,sans-Serif" font-size="10.00">dsp_common.h</text>
</a>
</g>
</g>
<!-- Node2&#45;&gt;Node10 -->
<g id="edge9_Node000002_Node000010" class="edge">
<title>Node2&#45;&gt;Node10</title>
<g id="a_edge9_Node000002_Node000010"><a xlink:title=" ">
<path fill="none" stroke="#63b8ff" d="M1357.12,-223.59C1357.12,-217.01 1357.12,-207.96 1357.12,-199.73"/>
<polygon fill="#63b8ff" stroke="#63b8ff" points="1360.63,-199.81 1357.13,-189.81 1353.63,-199.81 1360.63,-199.81"/>
</a>
</g>
</g>
<!-- Node4 -->
<g id="Node000004" class="node">
<title>Node4</title>
<g id="a_Node000004"><a xlink:title=" ">
<polygon fill="#e0e0e0" stroke="#999999" points="1131.25,-76 1083,-76 1083,-56 1131.25,-56 1131.25,-76"/>
<text xml:space="preserve" text-anchor="middle" x="1107.12" y="-62.5" font-family="Helvetica,sans-Serif" font-size="10.00">stdint.h</text>
</a>
</g>
</g>
<!-- Node3&#45;&gt;Node4 -->
<g id="edge3_Node000003_Node000004" class="edge">
<title>Node3&#45;&gt;Node4</title>
<g id="a_edge3_Node000003_Node000004"><a xlink:title=" ">
<path fill="none" stroke="#63b8ff" d="M689.7,-117.54C767.93,-108.07 985.42,-81.74 1071.45,-71.32"/>
<polygon fill="#63b8ff" stroke="#63b8ff" points="1071.67,-74.82 1081.18,-70.14 1070.83,-67.87 1071.67,-74.82"/>
</a>
</g>
</g>
<!-- Node5 -->
<g id="Node000005" class="node">
<title>Node5</title>
<g id="a_Node000005"><a xlink:href="esp__err_8h.html" target="_top" xlink:title=" ">
<polygon fill="white" stroke="#666666" points="922.38,-76 865.88,-76 865.88,-56 922.38,-56 922.38,-76"/>
<text xml:space="preserve" text-anchor="middle" x="894.12" y="-62.5" font-family="Helvetica,sans-Serif" font-size="10.00">esp_err.h</text>
</a>
</g>
</g>
<!-- Node3&#45;&gt;Node5 -->
<g id="edge4_Node000003_Node000005" class="edge">
<title>Node3&#45;&gt;Node5</title>
<g id="a_edge4_Node000003_Node000005"><a xlink:title=" ">
<path fill="none" stroke="#63b8ff" d="M689.7,-114.38C731.03,-104.8 807.68,-87.03 854.47,-76.19"/>
<polygon fill="#63b8ff" stroke="#63b8ff" points="855.26,-79.6 864.21,-73.93 853.68,-72.78 855.26,-79.6"/>
</a>
</g>
</g>
<!-- Node7 -->
<g id="Node000007" class="node">
<title>Node7</title>
<g id="a_Node000007"><a xlink:href="dsp__err__codes_8h.html" target="_top" xlink:title=" ">
<polygon fill="white" stroke="#666666" points="705.12,-76 617.12,-76 617.12,-56 705.12,-56 705.12,-76"/>
<text xml:space="preserve" text-anchor="middle" x="661.12" y="-62.5" font-family="Helvetica,sans-Serif" font-size="10.00">dsp_err_codes.h</text>
</a>
</g>
</g>
<!-- Node3&#45;&gt;Node7 -->
<g id="edge6_Node000003_Node000007" class="edge">
<title>Node3&#45;&gt;Node7</title>
<g id="a_edge6_Node000003_Node000007"><a xlink:title=" ">
<path fill="none" stroke="#63b8ff" d="M661.12,-111.59C661.12,-105.01 661.12,-95.96 661.12,-87.73"/>
<polygon fill="#63b8ff" stroke="#63b8ff" points="664.63,-87.81 661.13,-77.81 657.63,-87.81 664.63,-87.81"/>
</a>
</g>
</g>
<!-- Node6 -->
<g id="Node000006" class="node">
<title>Node6</title>
<g id="a_Node000006"><a xlink:title=" ">
<polygon fill="#e0e0e0" stroke="#999999" points="1162.88,-20 1115.38,-20 1115.38,0 1162.88,0 1162.88,-20"/>
<text xml:space="preserve" text-anchor="middle" x="1139.12" y="-6.5" font-family="Helvetica,sans-Serif" font-size="10.00">stdlib.h</text>
</a>
</g>
</g>
<!-- Node5&#45;&gt;Node6 -->
<g id="edge5_Node000005_Node000006" class="edge">
<title>Node5&#45;&gt;Node6</title>
<g id="a_edge5_Node000005_Node000006"><a xlink:title=" ">
<path fill="none" stroke="#63b8ff" d="M922.71,-58.7C967.82,-48.76 1055.38,-29.46 1104.17,-18.71"/>
<polygon fill="#63b8ff" stroke="#63b8ff" points="1104.62,-22.19 1113.63,-16.62 1103.11,-15.35 1104.62,-22.19"/>
</a>
</g>
</g>
<!-- Node9 -->
<g id="Node000009" class="node">
<title>Node9</title>
<g id="a_Node000009"><a xlink:title=" ">
<polygon fill="#e0e0e0" stroke="#999999" points="993.25,-132 927,-132 927,-112 993.25,-112 993.25,-132"/>
<text xml:space="preserve" text-anchor="middle" x="960.12" y="-118.5" font-family="Helvetica,sans-Serif" font-size="10.00">sdkconfig.h</text>
</a>
</g>
</g>
<!-- Node8&#45;&gt;Node9 -->
<g id="edge8_Node000008_Node000009" class="edge">
<title>Node8&#45;&gt;Node9</title>
<g id="a_edge8_Node000008_Node000009"><a xlink:title=" ">
<path fill="none" stroke="#63b8ff" d="M1198.29,-167.66C1143.81,-157.44 1057.3,-141.22 1004.91,-131.4"/>
<polygon fill="#63b8ff" stroke="#63b8ff" points="1005.59,-127.96 995.12,-129.56 1004.3,-134.84 1005.59,-127.96"/>
</a>
</g>
</g>
<!-- Node10&#45;&gt;Node3 -->
<g id="edge12_Node000010_Node000003" class="edge">
<title>Node10&#45;&gt;Node3</title>
<g id="a_edge12_Node000010_Node000003"><a xlink:title=" ">
<path fill="none" stroke="#63b8ff" d="M1315.43,-169.15C1312.63,-168.73 1309.84,-168.34 1307.12,-168 1078.78,-139.58 802.62,-127.84 701.07,-124.27"/>
<polygon fill="#63b8ff" stroke="#63b8ff" points="701.19,-120.78 691.08,-123.93 700.95,-127.77 701.19,-120.78"/>
</a>
</g>
</g>
<!-- Node10&#45;&gt;Node4 -->
<g id="edge10_Node000010_Node000004" class="edge">
<title>Node10&#45;&gt;Node4</title>
<g id="a_edge10_Node000010_Node000004"><a xlink:title=" ">
<path fill="none" stroke="#63b8ff" d="M1357.25,-167.93C1356.93,-153.78 1354.11,-126.58 1338.12,-112 1310.01,-86.36 1200.53,-74.21 1142.96,-69.49"/>
<polygon fill="#63b8ff" stroke="#63b8ff" points="1143.27,-66 1133.02,-68.71 1142.72,-72.98 1143.27,-66"/>
</a>
</g>
</g>
<!-- Node11 -->
<g id="Node000011" class="node">
<title>Node11</title>
<g id="a_Node000011"><a xlink:title=" ">
<polygon fill="#e0e0e0" stroke="#999999" points="1221,-132 1165.25,-132 1165.25,-112 1221,-112 1221,-132"/>
<text xml:space="preserve" text-anchor="middle" x="1193.12" y="-118.5" font-family="Helvetica,sans-Serif" font-size="10.00">stdbool.h</text>
</a>
</g>
</g>
<!-- Node10&#45;&gt;Node11 -->
<g id="edge11_Node000010_Node000011" class="edge">
<title>Node10&#45;&gt;Node11</title>
<g id="a_edge11_Node000010_Node000011"><a xlink:title=" ">
<path fill="none" stroke="#63b8ff" d="M1328.56,-167.59C1301.87,-158.81 1261.8,-145.61 1232.16,-135.85"/>
<polygon fill="#63b8ff" stroke="#63b8ff" points="1233.39,-132.57 1222.8,-132.77 1231.21,-139.22 1233.39,-132.57"/>
</a>
</g>
</g>
<!-- Node12 -->
<g id="Node000012" class="node">
<title>Node12</title>
<g id="a_Node000012"><a xlink:title=" ">
<polygon fill="#e0e0e0" stroke="#999999" points="1489.38,-132 1396.88,-132 1396.88,-112 1489.38,-112 1489.38,-132"/>
<text xml:space="preserve" text-anchor="middle" x="1443.12" y="-118.5" font-family="Helvetica,sans-Serif" font-size="10.00">esp_idf_version.h</text>
</a>
</g>
</g>
<!-- Node10&#45;&gt;Node12 -->
<g id="edge13_Node000010_Node000012" class="edge">
<title>Node10&#45;&gt;Node12</title>
<g id="a_edge13_Node000010_Node000012"><a xlink:title=" ">
<path fill="none" stroke="#63b8ff" d="M1372.11,-167.59C1384.85,-159.59 1403.42,-147.93 1418.37,-138.54"/>
<polygon fill="#63b8ff" stroke="#63b8ff" points="1420.14,-141.57 1426.75,-133.28 1416.42,-135.64 1420.14,-141.57"/>
</a>
</g>
</g>
<!-- Node13 -->
<g id="Node000013" class="node">
<title>Node13</title>
<g id="a_Node000013"><a xlink:title=" ">
<polygon fill="#e0e0e0" stroke="#999999" points="1328.62,-132 1267.62,-132 1267.62,-112 1328.62,-112 1328.62,-132"/>
<text xml:space="preserve" text-anchor="middle" x="1298.12" y="-118.5" font-family="Helvetica,sans-Serif" font-size="10.00">x86intrin.h</text>
</a>
</g>
</g>
<!-- Node10&#45;&gt;Node13 -->
<g id="edge14_Node000010_Node000013" class="edge">
<title>Node10&#45;&gt;Node13</title>
<g id="a_edge14_Node000010_Node000013"><a xlink:title=" ">
<path fill="none" stroke="#63b8ff" d="M1346.85,-167.59C1338.56,-160.01 1326.68,-149.13 1316.72,-140.02"/>
<polygon fill="#63b8ff" stroke="#63b8ff" points="1319.14,-137.49 1309.4,-133.32 1314.41,-142.65 1319.14,-137.49"/>
</a>
</g>
</g>
<!-- Node16&#45;&gt;Node6 -->
<g id="edge18_Node000016_Node000006" class="edge">
<title>Node16&#45;&gt;Node6</title>
<g id="a_edge18_Node000016_Node000006"><a xlink:title=" ">
<path fill="none" stroke="#63b8ff" d="M1516.13,-391.63C1520,-372.71 1528.12,-328.54 1528.12,-291 1528.12,-291 1528.12,-291 1528.12,-121 1528.12,-47.89 1270.49,-20.92 1174.55,-13.42"/>
<polygon fill="#63b8ff" stroke="#63b8ff" points="1174.91,-9.93 1164.67,-12.67 1174.38,-16.91 1174.91,-9.93"/>
</a>
</g>
</g>
<!-- Node16&#45;&gt;Node12 -->
<g id="edge19_Node000016_Node000012" class="edge">
<title>Node16&#45;&gt;Node12</title>
<g id="a_edge19_Node000016_Node000012"><a xlink:title=" ">
<path fill="none" stroke="#63b8ff" d="M1510.69,-391.73C1504.05,-372.99 1490.12,-329.12 1490.12,-291 1490.12,-291 1490.12,-291 1490.12,-233 1490.12,-198.71 1470.58,-162.9 1456.69,-141.79"/>
<polygon fill="#63b8ff" stroke="#63b8ff" points="1459.67,-139.93 1451.12,-133.67 1453.9,-143.9 1459.67,-139.93"/>
</a>
</g>
</g>
<!-- Node17 -->
<g id="Node000017" class="node">
<title>Node17</title>
<g id="a_Node000017"><a xlink:href="esp__dsp_8h.html" target="_top" xlink:title=" ">
<polygon fill="white" stroke="#666666" points="807.62,-356 746.62,-356 746.62,-336 807.62,-336 807.62,-356"/>
<text xml:space="preserve" text-anchor="middle" x="777.12" y="-342.5" font-family="Helvetica,sans-Serif" font-size="10.00">esp_dsp.h</text>
</a>
</g>
</g>
<!-- Node16&#45;&gt;Node17 -->
<g id="edge20_Node000016_Node000017" class="edge">
<title>Node16&#45;&gt;Node17</title>
<g id="a_edge20_Node000016_Node000017"><a xlink:title=" ">
<path fill="none" stroke="#63b8ff" d="M1480.54,-398.54C1360.41,-389.74 952.09,-359.82 819.26,-350.09"/>
<polygon fill="#63b8ff" stroke="#63b8ff" points="819.74,-346.61 809.51,-349.37 819.23,-353.59 819.74,-346.61"/>
</a>
</g>
</g>
<!-- Node17&#45;&gt;Node2 -->
<g id="edge28_Node000017_Node000002" class="edge">
<title>Node17&#45;&gt;Node2</title>
<g id="a_edge28_Node000017_Node000002"><a xlink:title=" ">
<path fill="none" stroke="#63b8ff" d="M808.04,-344.88C921.92,-344.12 1313.47,-338.7 1352.12,-300 1363.51,-288.6 1363.78,-269.79 1361.78,-255.33"/>
<polygon fill="#63b8ff" stroke="#63b8ff" points="1365.22,-254.7 1359.93,-245.52 1358.34,-256 1365.22,-254.7"/>
</a>
</g>
</g>
<!-- Node17&#45;&gt;Node10 -->
<g id="edge21_Node000017_Node000010" class="edge">
<title>Node17&#45;&gt;Node10</title>
<g id="a_edge21_Node000017_Node000010"><a xlink:title=" ">
<path fill="none" stroke="#63b8ff" d="M807.88,-344.52C923.11,-342.45 1325.07,-332.93 1371.12,-300 1399.94,-279.4 1407.29,-257.27 1395.12,-224 1391.34,-213.65 1384,-204.03 1376.78,-196.37"/>
<polygon fill="#63b8ff" stroke="#63b8ff" points="1379.25,-193.89 1369.65,-189.41 1374.35,-198.9 1379.25,-193.89"/>
</a>
</g>
</g>
<!-- Node18 -->
<g id="Node000018" class="node">
<title>Node18</title>
<g id="a_Node000018"><a xlink:href="dsp__types_8h.html" target="_top" xlink:title=" ">
<polygon fill="#fff0f0" stroke="red" points="1141.75,-188 1072.5,-188 1072.5,-168 1141.75,-168 1141.75,-188"/>
<text xml:space="preserve" text-anchor="middle" x="1107.12" y="-174.5" font-family="Helvetica,sans-Serif" font-size="10.00">dsp_types.h</text>
</a>
</g>
</g>
<!-- Node17&#45;&gt;Node18 -->
<g id="edge22_Node000017_Node000018" class="edge">
<title>Node17&#45;&gt;Node18</title>
<g id="a_edge22_Node000017_Node000018"><a xlink:title=" ">
<path fill="none" stroke="#63b8ff" d="M807.85,-344.82C917.43,-343.84 1284.36,-337.78 1319.12,-300 1325.14,-293.46 1323.87,-287.52 1319.12,-280 1299.49,-248.89 1202.18,-211.45 1146.47,-192.06"/>
<polygon fill="#63b8ff" stroke="#63b8ff" points="1147.94,-188.87 1137.35,-188.93 1145.67,-195.49 1147.94,-188.87"/>
</a>
</g>
</g>
<!-- Node20 -->
<g id="Node000020" class="node">
<title>Node20</title>
<g id="a_Node000020"><a xlink:href="dsps__dotprod_8h.html" target="_top" xlink:title=" ">
<polygon fill="#fff0f0" stroke="red" points="127.5,-244 44.75,-244 44.75,-224 127.5,-224 127.5,-244"/>
<text xml:space="preserve" text-anchor="middle" x="86.12" y="-230.5" font-family="Helvetica,sans-Serif" font-size="10.00">dsps_dotprod.h</text>
</a>
</g>
</g>
<!-- Node17&#45;&gt;Node20 -->
<g id="edge25_Node000017_Node000020" class="edge">
<title>Node17&#45;&gt;Node20</title>
<g id="a_edge25_Node000017_Node000020"><a xlink:title=" ">
<path fill="none" stroke="#63b8ff" d="M746.36,-344.18C643.49,-341.2 312.23,-329.47 210.12,-300 172.49,-289.14 133.1,-266.19 109.08,-250.68"/>
<polygon fill="#63b8ff" stroke="#63b8ff" points="111.02,-247.77 100.74,-245.18 107.16,-253.61 111.02,-247.77"/>
</a>
</g>
</g>
<!-- Node23 -->
<g id="Node000023" class="node">
<title>Node23</title>
<g id="a_Node000023"><a xlink:href="dsps__math_8h.html" target="_top" xlink:title=" ">
<polygon fill="#fff0f0" stroke="red" points="1122.25,-300 1050,-300 1050,-280 1122.25,-280 1122.25,-300"/>
<text xml:space="preserve" text-anchor="middle" x="1086.12" y="-286.5" font-family="Helvetica,sans-Serif" font-size="10.00">dsps_math.h</text>
</a>
</g>
</g>
<!-- Node17&#45;&gt;Node23 -->
<g id="edge27_Node000017_Node000023" class="edge">
<title>Node17&#45;&gt;Node23</title>
<g id="a_edge27_Node000017_Node000023"><a xlink:title=" ">
<path fill="none" stroke="#63b8ff" d="M807.83,-339.73C856.34,-331.38 953.66,-314.59 1036.12,-300 1036.94,-299.86 1037.76,-299.71 1038.59,-299.56"/>
<polygon fill="#63b8ff" stroke="#63b8ff" points="1038.82,-303.08 1048.05,-297.88 1037.59,-296.19 1038.82,-303.08"/>
</a>
</g>
</g>
<!-- Node35 -->
<g id="Node000035" class="node">
<title>Node35</title>
<g id="a_Node000035"><a xlink:href="dsps__resampler_8h.html" target="_top" xlink:title=" ">
<polygon fill="white" stroke="#666666" points="993.75,-300 900.5,-300 900.5,-280 993.75,-280 993.75,-300"/>
<text xml:space="preserve" text-anchor="middle" x="947.12" y="-286.5" font-family="Helvetica,sans-Serif" font-size="10.00">dsps_resampler.h</text>
</a>
</g>
</g>
<!-- Node17&#45;&gt;Node35 -->
<g id="edge29_Node000017_Node000035" class="edge">
<title>Node17&#45;&gt;Node35</title>
<g id="a_edge29_Node000017_Node000035"><a xlink:title=" ">
<path fill="none" stroke="#63b8ff" d="M806.74,-335.59C834.36,-326.82 875.8,-313.66 906.5,-303.9"/>
<polygon fill="#63b8ff" stroke="#63b8ff" points="907.37,-307.3 915.84,-300.94 905.25,-300.63 907.37,-307.3"/>
</a>
</g>
</g>
<!-- Node36 -->
<g id="Node000036" class="node">
<title>Node36</title>
<g id="a_Node000036"><a xlink:href="dsps__biquad_8h.html" target="_top" xlink:title=" ">
<polygon fill="#fff0f0" stroke="red" points="224.62,-244 145.62,-244 145.62,-224 224.62,-224 224.62,-244"/>
<text xml:space="preserve" text-anchor="middle" x="185.12" y="-230.5" font-family="Helvetica,sans-Serif" font-size="10.00">dsps_biquad.h</text>
</a>
</g>
</g>
<!-- Node17&#45;&gt;Node36 -->
<g id="edge32_Node000017_Node000036" class="edge">
<title>Node17&#45;&gt;Node36</title>
<g id="a_edge32_Node000017_Node000036"><a xlink:title=" ">
<path fill="none" stroke="#63b8ff" d="M746.32,-345.5C645.73,-346.66 328.27,-346.47 239.12,-300 219.65,-289.85 204.49,-269.35 195.26,-254.07"/>
<polygon fill="#63b8ff" stroke="#63b8ff" points="198.32,-252.38 190.35,-245.41 192.23,-255.84 198.32,-252.38"/>
</a>
</g>
</g>
<!-- Node38 -->
<g id="Node000038" class="node">
<title>Node38</title>
<g id="a_Node000038"><a xlink:href="dsps__biquad__gen_8h.html" target="_top" xlink:title=" ">
<polygon fill="white" stroke="#666666" points="303.12,-188 203.12,-188 203.12,-168 303.12,-168 303.12,-188"/>
<text xml:space="preserve" text-anchor="middle" x="253.12" y="-174.5" font-family="Helvetica,sans-Serif" font-size="10.00">dsps_biquad_gen.h</text>
</a>
</g>
</g>
<!-- Node17&#45;&gt;Node38 -->
<g id="edge34_Node000017_Node000038" class="edge">
<title>Node17&#45;&gt;Node38</title>
<g id="a_edge34_Node000017_Node000038"><a xlink:title=" ">
<path fill="none" stroke="#63b8ff" d="M746.45,-344.19C644.49,-341.24 321.42,-329.6 286.12,-300 256.75,-275.36 252.17,-227.36 252.18,-199.8"/>
<polygon fill="#63b8ff" stroke="#63b8ff" points="255.67,-200.01 252.41,-189.93 248.67,-199.84 255.67,-200.01"/>
</a>
</g>
</g>
<!-- Node39 -->
<g id="Node000039" class="node">
<title>Node39</title>
<g id="a_Node000039"><a xlink:href="dsps__wind_8h.html" target="_top" xlink:title=" ">
<polygon fill="#fff0f0" stroke="red" points="1211.5,-300 1140.75,-300 1140.75,-280 1211.5,-280 1211.5,-300"/>
<text xml:space="preserve" text-anchor="middle" x="1176.12" y="-286.5" font-family="Helvetica,sans-Serif" font-size="10.00">dsps_wind.h</text>
</a>
</g>
</g>
<!-- Node17&#45;&gt;Node39 -->
<g id="edge36_Node000017_Node000039" class="edge">
<title>Node17&#45;&gt;Node39</title>
<g id="a_edge36_Node000017_Node000039"><a xlink:title=" ">
<path fill="none" stroke="#63b8ff" d="M808.01,-341.82C867.84,-335.5 1003.92,-320.35 1129.01,-300.24"/>
<polygon fill="#63b8ff" stroke="#63b8ff" points="1129.5,-303.7 1138.81,-298.64 1128.38,-296.79 1129.5,-303.7"/>
</a>
</g>
</g>
<!-- Node46 -->
<g id="Node000046" class="node">
<title>Node46</title>
<g id="a_Node000046"><a xlink:href="dsps__conv_8h.html" target="_top" xlink:title=" ">
<polygon fill="#fff0f0" stroke="red" points="389.5,-244 318.75,-244 318.75,-224 389.5,-224 389.5,-244"/>
<text xml:space="preserve" text-anchor="middle" x="354.12" y="-230.5" font-family="Helvetica,sans-Serif" font-size="10.00">dsps_conv.h</text>
</a>
</g>
</g>
<!-- Node17&#45;&gt;Node46 -->
<g id="edge37_Node000017_Node000046" class="edge">
<title>Node17&#45;&gt;Node46</title>
<g id="a_edge37_Node000017_Node000046"><a xlink:title=" ">
<path fill="none" stroke="#63b8ff" d="M746.32,-343.9C690.77,-341.15 570.72,-331.72 475.12,-300 439.05,-288.03 400.98,-265.76 377.39,-250.66"/>
<polygon fill="#63b8ff" stroke="#63b8ff" points="379.48,-247.85 369.2,-245.32 375.66,-253.71 379.48,-247.85"/>
</a>
</g>
</g>
<!-- Node48 -->
<g id="Node000048" class="node">
<title>Node48</title>
<g id="a_Node000048"><a xlink:href="dsps__corr_8h.html" target="_top" xlink:title=" ">
<polygon fill="#fff0f0" stroke="red" points="594.62,-188 527.62,-188 527.62,-168 594.62,-168 594.62,-188"/>
<text xml:space="preserve" text-anchor="middle" x="561.12" y="-174.5" font-family="Helvetica,sans-Serif" font-size="10.00">dsps_corr.h</text>
</a>
</g>
</g>
<!-- Node17&#45;&gt;Node48 -->
<g id="edge39_Node000017_Node000048" class="edge">
<title>Node17&#45;&gt;Node48</title>
<g id="a_edge39_Node000017_Node000048"><a xlink:title=" ">
<path fill="none" stroke="#63b8ff" d="M746.25,-343.56C690.05,-340.22 574.6,-329.81 550.12,-300 544.48,-293.13 548.38,-288.72 550.12,-280 553.52,-263 561.73,-261 565.12,-244 566.87,-235.28 565.52,-232.88 565.12,-224 564.77,-215.97 564.06,-207.16 563.33,-199.48"/>
<polygon fill="#63b8ff" stroke="#63b8ff" points="566.84,-199.39 562.35,-189.8 559.88,-200.1 566.84,-199.39"/>
</a>
</g>
</g>
<!-- Node49 -->
<g id="Node000049" class="node">
<title>Node49</title>
<g id="a_Node000049"><a xlink:href="dsps__d__gen_8h.html" target="_top" xlink:title=" ">
<polygon fill="white" stroke="#666666" points="635.5,-300 558.75,-300 558.75,-280 635.5,-280 635.5,-300"/>
<text xml:space="preserve" text-anchor="middle" x="597.12" y="-286.5" font-family="Helvetica,sans-Serif" font-size="10.00">dsps_d_gen.h</text>
</a>
</g>
</g>
<!-- Node17&#45;&gt;Node49 -->
<g id="edge41_Node000017_Node000049" class="edge">
<title>Node17&#45;&gt;Node49</title>
<g id="a_edge41_Node000017_Node000049"><a xlink:title=" ">
<path fill="none" stroke="#63b8ff" d="M746.18,-335.72C716.65,-326.86 671.93,-313.44 639.18,-303.62"/>
<polygon fill="#63b8ff" stroke="#63b8ff" points="640.6,-300.39 630.02,-300.87 638.59,-307.09 640.6,-300.39"/>
</a>
</g>
</g>
<!-- Node50 -->
<g id="Node000050" class="node">
<title>Node50</title>
<g id="a_Node000050"><a xlink:href="dsps__h__gen_8h.html" target="_top" xlink:title=" ">
<polygon fill="white" stroke="#666666" points="730.5,-300 653.75,-300 653.75,-280 730.5,-280 730.5,-300"/>
<text xml:space="preserve" text-anchor="middle" x="692.12" y="-286.5" font-family="Helvetica,sans-Serif" font-size="10.00">dsps_h_gen.h</text>
</a>
</g>
</g>
<!-- Node17&#45;&gt;Node50 -->
<g id="edge43_Node000017_Node000050" class="edge">
<title>Node17&#45;&gt;Node50</title>
<g id="a_edge43_Node000017_Node000050"><a xlink:title=" ">
<path fill="none" stroke="#63b8ff" d="M762.32,-335.59C749.72,-327.59 731.37,-315.93 716.59,-306.54"/>
<polygon fill="#63b8ff" stroke="#63b8ff" points="718.64,-303.7 708.32,-301.29 714.89,-309.61 718.64,-303.7"/>
</a>
</g>
</g>
<!-- Node51 -->
<g id="Node000051" class="node">
<title>Node51</title>
<g id="a_Node000051"><a xlink:href="dsps__tone__gen_8h.html" target="_top" xlink:title=" ">
<polygon fill="white" stroke="#666666" points="90.25,-300 0,-300 0,-280 90.25,-280 90.25,-300"/>
<text xml:space="preserve" text-anchor="middle" x="45.12" y="-286.5" font-family="Helvetica,sans-Serif" font-size="10.00">dsps_tone_gen.h</text>
</a>
</g>
</g>
<!-- Node17&#45;&gt;Node51 -->
<g id="edge45_Node000017_Node000051" class="edge">
<title>Node17&#45;&gt;Node51</title>
<g id="a_edge45_Node000017_Node000051"><a xlink:title=" ">
<path fill="none" stroke="#63b8ff" d="M746.31,-343.18C653.65,-337.64 369.39,-320.12 134.12,-300 123.67,-299.11 112.54,-298.06 101.81,-297"/>
<polygon fill="#63b8ff" stroke="#63b8ff" points="102.18,-293.52 91.88,-296 101.48,-300.48 102.18,-293.52"/>
</a>
</g>
</g>
<!-- Node52 -->
<g id="Node000052" class="node">
<title>Node52</title>
<g id="a_Node000052"><a xlink:href="dsps__snr_8h.html" target="_top" xlink:title=" ">
<polygon fill="white" stroke="#666666" points="471.12,-244 407.12,-244 407.12,-224 471.12,-224 471.12,-244"/>
<text xml:space="preserve" text-anchor="middle" x="439.12" y="-230.5" font-family="Helvetica,sans-Serif" font-size="10.00">dsps_snr.h</text>
</a>
</g>
</g>
<!-- Node17&#45;&gt;Node52 -->
<g id="edge47_Node000017_Node000052" class="edge">
<title>Node17&#45;&gt;Node52</title>
<g id="a_edge47_Node000017_Node000052"><a xlink:title=" ">
<path fill="none" stroke="#63b8ff" d="M746.45,-345.71C694.22,-345.7 585.96,-340.29 506.12,-300 484.29,-288.98 464.91,-268.36 452.68,-253.29"/>
<polygon fill="#63b8ff" stroke="#63b8ff" points="455.56,-251.28 446.66,-245.54 450.03,-255.58 455.56,-251.28"/>
</a>
</g>
</g>
<!-- Node53 -->
<g id="Node000053" class="node">
<title>Node53</title>
<g id="a_Node000053"><a xlink:href="dsps__sfdr_8h.html" target="_top" xlink:title=" ">
<polygon fill="white" stroke="#666666" points="556.62,-244 489.62,-244 489.62,-224 556.62,-224 556.62,-244"/>
<text xml:space="preserve" text-anchor="middle" x="523.12" y="-230.5" font-family="Helvetica,sans-Serif" font-size="10.00">dsps_sfdr.h</text>
</a>
</g>
</g>
<!-- Node17&#45;&gt;Node53 -->
<g id="edge49_Node000017_Node000053" class="edge">
<title>Node17&#45;&gt;Node53</title>
<g id="a_edge49_Node000017_Node000053"><a xlink:title=" ">
<path fill="none" stroke="#63b8ff" d="M746.22,-344.42C683.78,-342.52 546.11,-334.43 517.12,-300 506.75,-287.67 509.75,-268.99 514.47,-254.81"/>
<polygon fill="#63b8ff" stroke="#63b8ff" points="517.68,-256.2 518.03,-245.61 511.16,-253.67 517.68,-256.2"/>
</a>
</g>
</g>
<!-- Node54 -->
<g id="Node000054" class="node">
<title>Node54</title>
<g id="a_Node000054"><a xlink:href="dsps__fft2r_8h.html" target="_top" xlink:title=" ">
<polygon fill="#fff0f0" stroke="red" points="1054.62,-188 987.62,-188 987.62,-168 1054.62,-168 1054.62,-188"/>
<text xml:space="preserve" text-anchor="middle" x="1021.12" y="-174.5" font-family="Helvetica,sans-Serif" font-size="10.00">dsps_fft2r.h</text>
</a>
</g>
</g>
<!-- Node17&#45;&gt;Node54 -->
<g id="edge51_Node000017_Node000054" class="edge">
<title>Node17&#45;&gt;Node54</title>
<g id="a_edge51_Node000017_Node000054"><a xlink:title=" ">
<path fill="none" stroke="#63b8ff" d="M807.9,-343.15C863.35,-339.16 976.71,-327.74 1003.12,-300 1028.79,-273.05 1027.75,-226.29 1024.54,-199.48"/>
<polygon fill="#63b8ff" stroke="#63b8ff" points="1028.05,-199.3 1023.17,-189.89 1021.12,-200.29 1028.05,-199.3"/>
</a>
</g>
</g>
<!-- Node57 -->
<g id="Node000057" class="node">
<title>Node57</title>
<g id="a_Node000057"><a xlink:href="dsps__fft4r_8h.html" target="_top" xlink:title=" ">
<polygon fill="#fff0f0" stroke="red" points="848.62,-188 781.62,-188 781.62,-168 848.62,-168 848.62,-188"/>
<text xml:space="preserve" text-anchor="middle" x="815.12" y="-174.5" font-family="Helvetica,sans-Serif" font-size="10.00">dsps_fft4r.h</text>
</a>
</g>
</g>
<!-- Node17&#45;&gt;Node57 -->
<g id="edge54_Node000017_Node000057" class="edge">
<title>Node17&#45;&gt;Node57</title>
<g id="a_edge54_Node000017_Node000057"><a xlink:title=" ">
<path fill="none" stroke="#63b8ff" d="M789.72,-335.53C810,-319.39 849.14,-284.35 864.12,-244 867.22,-235.67 867.7,-232.14 864.12,-224 859.04,-212.42 849.34,-202.51 839.9,-194.97"/>
<polygon fill="#63b8ff" stroke="#63b8ff" points="842.09,-192.23 831.95,-189.13 837.94,-197.87 842.09,-192.23"/>
</a>
</g>
</g>
<!-- Node59 -->
<g id="Node000059" class="node">
<title>Node59</title>
<g id="a_Node000059"><a xlink:href="dsps__dct_8h.html" target="_top" xlink:title=" ">
<polygon fill="white" stroke="#666666" points="931.12,-188 867.12,-188 867.12,-168 931.12,-168 931.12,-188"/>
<text xml:space="preserve" text-anchor="middle" x="899.12" y="-174.5" font-family="Helvetica,sans-Serif" font-size="10.00">dsps_dct.h</text>
</a>
</g>
</g>
<!-- Node17&#45;&gt;Node59 -->
<g id="edge57_Node000017_Node000059" class="edge">
<title>Node17&#45;&gt;Node59</title>
<g id="a_edge57_Node000017_Node000059"><a xlink:title=" ">
<path fill="none" stroke="#63b8ff" d="M798.77,-335.56C814.56,-327.82 835.64,-315.61 850.12,-300 876.89,-271.16 889.89,-225.8 895.48,-199.58"/>
<polygon fill="#63b8ff" stroke="#63b8ff" points="898.89,-200.37 897.37,-189.89 892.02,-199.03 898.89,-200.37"/>
</a>
</g>
</g>
<!-- Node60 -->
<g id="Node000060" class="node">
<title>Node60</title>
<g id="a_Node000060"><a xlink:href="dspm__matrix_8h.html" target="_top" xlink:title=" ">
<polygon fill="#fff0f0" stroke="red" points="1310.38,-300 1229.88,-300 1229.88,-280 1310.38,-280 1310.38,-300"/>
<text xml:space="preserve" text-anchor="middle" x="1270.12" y="-286.5" font-family="Helvetica,sans-Serif" font-size="10.00">dspm_matrix.h</text>
</a>
</g>
</g>
<!-- Node17&#45;&gt;Node60 -->
<g id="edge60_Node000017_Node000060" class="edge">
<title>Node17&#45;&gt;Node60</title>
<g id="a_edge60_Node000017_Node000060"><a xlink:title=" ">
<path fill="none" stroke="#63b8ff" d="M808.11,-342.68C878.83,-337.2 1057.78,-322.35 1218.46,-300.12"/>
<polygon fill="#63b8ff" stroke="#63b8ff" points="1218.59,-303.64 1228.01,-298.79 1217.62,-296.71 1218.59,-303.64"/>
</a>
</g>
</g>
<!-- Node71 -->
<g id="Node000071" class="node">
<title>Node71</title>
<g id="a_Node000071"><a xlink:href="dsps__view_8h.html" target="_top" xlink:title=" ">
<polygon fill="white" stroke="#666666" points="365.12,-300 295.12,-300 295.12,-280 365.12,-280 365.12,-300"/>
<text xml:space="preserve" text-anchor="middle" x="330.12" y="-286.5" font-family="Helvetica,sans-Serif" font-size="10.00">dsps_view.h</text>
</a>
</g>
</g>
<!-- Node17&#45;&gt;Node71 -->
<g id="edge61_Node000017_Node000071" class="edge">
<title>Node17&#45;&gt;Node71</title>
<g id="a_edge61_Node000017_Node000071"><a xlink:title=" ">
<path fill="none" stroke="#63b8ff" d="M746.48,-341.79C680.98,-334.84 522.55,-317.63 390.12,-300 385.73,-299.41 381.15,-298.78 376.58,-298.12"/>
<polygon fill="#63b8ff" stroke="#63b8ff" points="377.21,-294.68 366.81,-296.7 376.2,-301.61 377.21,-294.68"/>
</a>
</g>
</g>
<!-- Node72 -->
<g id="Node000072" class="node">
<title>Node72</title>
<g id="a_Node000072"><a xlink:href="dspi__dotprod_8h.html" target="_top" xlink:title=" ">
<polygon fill="#fff0f0" stroke="red" points="769,-244 689.25,-244 689.25,-224 769,-224 769,-244"/>
<text xml:space="preserve" text-anchor="middle" x="729.12" y="-230.5" font-family="Helvetica,sans-Serif" font-size="10.00">dspi_dotprod.h</text>
</a>
</g>
</g>
<!-- Node17&#45;&gt;Node72 -->
<g id="edge63_Node000017_Node000072" class="edge">
<title>Node17&#45;&gt;Node72</title>
<g id="a_edge63_Node000017_Node000072"><a xlink:title=" ">
<path fill="none" stroke="#63b8ff" d="M773.03,-335.62C765.24,-317.76 748.12,-278.53 737.71,-254.67"/>
<polygon fill="#63b8ff" stroke="#63b8ff" points="741.02,-253.51 733.81,-245.74 734.6,-256.31 741.02,-253.51"/>
</a>
</g>
</g>
<!-- Node74 -->
<g id="Node000074" class="node">
<title>Node74</title>
<g id="a_Node000074"><a xlink:href="dspi__conv_8h.html" target="_top" xlink:title=" ">
<polygon fill="#fff0f0" stroke="red" points="855,-244 787.25,-244 787.25,-224 855,-224 855,-244"/>
<text xml:space="preserve" text-anchor="middle" x="821.12" y="-230.5" font-family="Helvetica,sans-Serif" font-size="10.00">dspi_conv.h</text>
</a>
</g>
</g>
<!-- Node17&#45;&gt;Node74 -->
<g id="edge66_Node000017_Node000074" class="edge">
<title>Node17&#45;&gt;Node74</title>
<g id="a_edge66_Node000017_Node000074"><a xlink:title=" ">
<path fill="none" stroke="#63b8ff" d="M780.88,-335.62C787.99,-317.84 803.57,-278.88 813.13,-255"/>
<polygon fill="#63b8ff" stroke="#63b8ff" points="816.36,-256.34 816.82,-245.76 809.86,-253.74 816.36,-256.34"/>
</a>
</g>
</g>
<!-- Node18&#45;&gt;Node4 -->
<g id="edge23_Node000018_Node000004" class="edge">
<title>Node18&#45;&gt;Node4</title>
<g id="a_edge23_Node000018_Node000004"><a xlink:title=" ">
<path fill="none" stroke="#63b8ff" d="M1107.12,-167.62C1107.12,-150.01 1107.12,-111.59 1107.12,-87.65"/>
<polygon fill="#63b8ff" stroke="#63b8ff" points="1110.63,-87.87 1107.13,-77.87 1103.63,-87.87 1110.63,-87.87"/>
</a>
</g>
</g>
<!-- Node18&#45;&gt;Node11 -->
<g id="edge24_Node000018_Node000011" class="edge">
<title>Node18&#45;&gt;Node11</title>
<g id="a_edge24_Node000018_Node000011"><a xlink:title=" ">
<path fill="none" stroke="#63b8ff" d="M1122.11,-167.59C1134.85,-159.59 1153.42,-147.93 1168.37,-138.54"/>
<polygon fill="#63b8ff" stroke="#63b8ff" points="1170.14,-141.57 1176.75,-133.28 1166.42,-135.64 1170.14,-141.57"/>
</a>
</g>
</g>
<!-- Node20&#45;&gt;Node3 -->
<g id="edge26_Node000020_Node000003" class="edge">
<title>Node20&#45;&gt;Node3</title>
<g id="a_edge26_Node000020_Node000003"><a xlink:title=" ">
<path fill="none" stroke="#63b8ff" d="M95.85,-223.67C111.9,-208.91 145.63,-180.56 180.12,-168 260.88,-138.6 520.55,-127.43 620.96,-124.15"/>
<polygon fill="#63b8ff" stroke="#63b8ff" points="621,-127.65 630.88,-123.83 620.78,-120.65 621,-127.65"/>
</a>
</g>
</g>
<!-- Node35&#45;&gt;Node2 -->
<g id="edge31_Node000035_Node000002" class="edge">
<title>Node35&#45;&gt;Node2</title>
<g id="a_edge31_Node000035_Node000002"><a xlink:title=" ">
<path fill="none" stroke="#63b8ff" d="M994.16,-282.81C1075.19,-272.13 1239.76,-250.46 1316.29,-240.38"/>
<polygon fill="#63b8ff" stroke="#63b8ff" points="1316.4,-243.89 1325.85,-239.12 1315.48,-236.95 1316.4,-243.89"/>
</a>
</g>
</g>
<!-- Node35&#45;&gt;Node3 -->
<g id="edge30_Node000035_Node000003" class="edge">
<title>Node35&#45;&gt;Node3</title>
<g id="a_edge30_Node000035_Node000003"><a xlink:title=" ">
<path fill="none" stroke="#63b8ff" d="M950.03,-279.67C956.38,-257.21 968.75,-199.71 940.12,-168 908.89,-133.4 770.32,-125.37 700.96,-123.53"/>
<polygon fill="#63b8ff" stroke="#63b8ff" points="701.24,-120.04 691.16,-123.31 701.08,-127.04 701.24,-120.04"/>
</a>
</g>
</g>
<!-- Node36&#45;&gt;Node3 -->
<g id="edge33_Node000036_Node000003" class="edge">
<title>Node36&#45;&gt;Node3</title>
<g id="a_edge33_Node000036_Node000003"><a xlink:title=" ">
<path fill="none" stroke="#63b8ff" d="M183.27,-223.91C180.97,-209.74 179,-182.51 194.12,-168 224.68,-138.69 513.75,-127.3 621.18,-124.06"/>
<polygon fill="#63b8ff" stroke="#63b8ff" points="621.07,-127.57 630.96,-123.78 620.86,-120.57 621.07,-127.57"/>
</a>
</g>
</g>
<!-- Node38&#45;&gt;Node3 -->
<g id="edge35_Node000038_Node000003" class="edge">
<title>Node38&#45;&gt;Node3</title>
<g id="a_edge35_Node000038_Node000003"><a xlink:title=" ">
<path fill="none" stroke="#63b8ff" d="M303.43,-169.88C308.06,-169.24 312.68,-168.6 317.12,-168 427.25,-153.05 557.34,-136.28 621.4,-128.07"/>
<polygon fill="#63b8ff" stroke="#63b8ff" points="621.59,-131.57 631.07,-126.83 620.71,-124.63 621.59,-131.57"/>
</a>
</g>
</g>
<!-- Node46&#45;&gt;Node3 -->
<g id="edge38_Node000046_Node000003" class="edge">
<title>Node46&#45;&gt;Node3</title>
<g id="a_edge38_Node000046_Node000003"><a xlink:title=" ">
<path fill="none" stroke="#63b8ff" d="M369.09,-223.53C391.69,-209.59 436.26,-183.52 477.12,-168 525.32,-149.69 583.5,-136.93 621.35,-129.79"/>
<polygon fill="#63b8ff" stroke="#63b8ff" points="621.72,-133.28 630.93,-128.03 620.46,-126.39 621.72,-133.28"/>
</a>
</g>
</g>
<!-- Node48&#45;&gt;Node3 -->
<g id="edge40_Node000048_Node000003" class="edge">
<title>Node48&#45;&gt;Node3</title>
<g id="a_edge40_Node000048_Node000003"><a xlink:title=" ">
<path fill="none" stroke="#63b8ff" d="M578.54,-167.59C593.79,-159.36 616.2,-147.26 633.83,-137.74"/>
<polygon fill="#63b8ff" stroke="#63b8ff" points="635.1,-141.03 642.24,-133.2 631.78,-134.87 635.1,-141.03"/>
</a>
</g>
</g>
<!-- Node49&#45;&gt;Node3 -->
<g id="edge42_Node000049_Node000003" class="edge">
<title>Node49&#45;&gt;Node3</title>
<g id="a_edge42_Node000049_Node000003"><a xlink:title=" ">
<path fill="none" stroke="#63b8ff" d="M600.75,-279.6C610.87,-253.35 639.6,-178.84 653.46,-142.89"/>
<polygon fill="#63b8ff" stroke="#63b8ff" points="656.66,-144.3 657,-133.71 650.13,-141.78 656.66,-144.3"/>
</a>
</g>
</g>
<!-- Node50&#45;&gt;Node3 -->
<g id="edge44_Node000050_Node000003" class="edge">
<title>Node50&#45;&gt;Node3</title>
<g id="a_edge44_Node000050_Node000003"><a xlink:title=" ">
<path fill="none" stroke="#63b8ff" d="M689.36,-279.76C686.72,-270.71 682.77,-256.5 680.12,-244 672.75,-209.08 666.88,-167.94 663.71,-143.74"/>
<polygon fill="#63b8ff" stroke="#63b8ff" points="667.2,-143.45 662.46,-133.98 660.26,-144.34 667.2,-143.45"/>
</a>
</g>
</g>
<!-- Node51&#45;&gt;Node3 -->
<g id="edge46_Node000051_Node000003" class="edge">
<title>Node51&#45;&gt;Node3</title>
<g id="a_edge46_Node000051_Node000003"><a xlink:title=" ">
<path fill="none" stroke="#63b8ff" d="M40.44,-279.87C34.33,-266.59 25.61,-241.6 36.12,-224 63.04,-178.93 89.82,-183.01 140.12,-168 230.18,-141.12 515.3,-128.29 621.1,-124.36"/>
<polygon fill="#63b8ff" stroke="#63b8ff" points="621.13,-127.86 631,-124 620.88,-120.87 621.13,-127.86"/>
</a>
</g>
</g>
<!-- Node52&#45;&gt;Node3 -->
<g id="edge48_Node000052_Node000003" class="edge">
<title>Node52&#45;&gt;Node3</title>
<g id="a_edge48_Node000052_Node000003"><a xlink:title=" ">
<path fill="none" stroke="#63b8ff" d="M446.58,-223.58C458.23,-209.47 482.14,-182.9 508.12,-168 543.63,-147.63 589.16,-135.78 621.29,-129.4"/>
<polygon fill="#63b8ff" stroke="#63b8ff" points="621.81,-132.87 630.99,-127.58 620.51,-125.99 621.81,-132.87"/>
</a>
</g>
</g>
<!-- Node53&#45;&gt;Node3 -->
<g id="edge50_Node000053_Node000003" class="edge">
<title>Node53&#45;&gt;Node3</title>
<g id="a_edge50_Node000053_Node000003"><a xlink:title=" ">
<path fill="none" stroke="#63b8ff" d="M518.88,-223.56C513.44,-209.89 506.07,-184.43 518.12,-168 541.54,-136.09 587.59,-126.21 621.13,-123.45"/>
<polygon fill="#63b8ff" stroke="#63b8ff" points="621.14,-126.96 630.9,-122.84 620.71,-119.97 621.14,-126.96"/>
</a>
</g>
</g>
<!-- Node54&#45;&gt;Node3 -->
<g id="edge52_Node000054_Node000003" class="edge">
<title>Node54&#45;&gt;Node3</title>
<g id="a_edge52_Node000054_Node000003"><a xlink:title=" ">
<path fill="none" stroke="#63b8ff" d="M987.33,-170.48C982.56,-169.61 977.73,-168.76 973.12,-168 875.44,-151.8 759.98,-136.02 700.67,-128.16"/>
<polygon fill="#63b8ff" stroke="#63b8ff" points="701.45,-124.73 691.08,-126.89 700.54,-131.67 701.45,-124.73"/>
</a>
</g>
</g>
<!-- Node54&#45;&gt;Node9 -->
<g id="edge53_Node000054_Node000009" class="edge">
<title>Node54&#45;&gt;Node9</title>
<g id="a_edge53_Node000054_Node000009"><a xlink:title=" ">
<path fill="none" stroke="#63b8ff" d="M1010.5,-167.59C1001.84,-159.93 989.39,-148.91 979.04,-139.75"/>
<polygon fill="#63b8ff" stroke="#63b8ff" points="981.57,-137.31 971.76,-133.3 976.93,-142.55 981.57,-137.31"/>
</a>
</g>
</g>
<!-- Node57&#45;&gt;Node3 -->
<g id="edge55_Node000057_Node000003" class="edge">
<title>Node57&#45;&gt;Node3</title>
<g id="a_edge55_Node000057_Node000003"><a xlink:title=" ">
<path fill="none" stroke="#63b8ff" d="M788.3,-167.59C763.5,-158.9 726.4,-145.89 698.66,-136.16"/>
<polygon fill="#63b8ff" stroke="#63b8ff" points="700.18,-132.99 689.59,-132.98 697.87,-139.59 700.18,-132.99"/>
</a>
</g>
</g>
<!-- Node57&#45;&gt;Node9 -->
<g id="edge56_Node000057_Node000009" class="edge">
<title>Node57&#45;&gt;Node9</title>
<g id="a_edge56_Node000057_Node000009"><a xlink:title=" ">
<path fill="none" stroke="#63b8ff" d="M840.38,-167.59C863.53,-158.97 898.05,-146.12 924.09,-136.42"/>
<polygon fill="#63b8ff" stroke="#63b8ff" points="925.1,-139.78 933.25,-133.01 922.66,-133.22 925.1,-139.78"/>
</a>
</g>
</g>
<!-- Node59&#45;&gt;Node3 -->
<g id="edge58_Node000059_Node000003" class="edge">
<title>Node59&#45;&gt;Node3</title>
<g id="a_edge58_Node000059_Node000003"><a xlink:title=" ">
<path fill="none" stroke="#63b8ff" d="M867.03,-169.72C823.98,-159.95 747.58,-142.62 700.93,-132.03"/>
<polygon fill="#63b8ff" stroke="#63b8ff" points="701.75,-128.63 691.22,-129.83 700.2,-135.45 701.75,-128.63"/>
</a>
</g>
</g>
<!-- Node59&#45;&gt;Node9 -->
<g id="edge59_Node000059_Node000009" class="edge">
<title>Node59&#45;&gt;Node9</title>
<g id="a_edge59_Node000059_Node000009"><a xlink:title=" ">
<path fill="none" stroke="#63b8ff" d="M909.75,-167.59C918.41,-159.93 930.86,-148.91 941.21,-139.75"/>
<polygon fill="#63b8ff" stroke="#63b8ff" points="943.32,-142.55 948.49,-133.3 938.68,-137.31 943.32,-142.55"/>
</a>
</g>
</g>
<!-- Node71&#45;&gt;Node3 -->
<g id="edge62_Node000071_Node000003" class="edge">
<title>Node71&#45;&gt;Node3</title>
<g id="a_edge62_Node000071_Node000003"><a xlink:title=" ">
<path fill="none" stroke="#63b8ff" d="M322.53,-279.51C312.9,-266.22 298.81,-241.71 310.12,-224 344.04,-170.93 536.68,-139.4 621.29,-127.94"/>
<polygon fill="#63b8ff" stroke="#63b8ff" points="621.52,-131.44 630.98,-126.66 620.6,-124.5 621.52,-131.44"/>
</a>
</g>
</g>
<!-- Node72&#45;&gt;Node3 -->
<g id="edge64_Node000072_Node000003" class="edge">
<title>Node72&#45;&gt;Node3</title>
<g id="a_edge64_Node000072_Node000003"><a xlink:title=" ">
<path fill="none" stroke="#63b8ff" d="M723.33,-223.62C712.19,-205.6 687.59,-165.81 672.88,-142.02"/>
<polygon fill="#63b8ff" stroke="#63b8ff" points="675.94,-140.31 667.7,-133.64 669.99,-143.99 675.94,-140.31"/>
</a>
</g>
</g>
<!-- Node72&#45;&gt;Node18 -->
<g id="edge65_Node000072_Node000018" class="edge">
<title>Node72&#45;&gt;Node18</title>
<g id="a_edge65_Node000072_Node000018"><a xlink:title=" ">
<path fill="none" stroke="#63b8ff" d="M769.47,-225.4C772.4,-224.91 775.3,-224.44 778.12,-224 901.15,-204.97 935.82,-208.89 1061.24,-188.37"/>
<polygon fill="#63b8ff" stroke="#63b8ff" points="1061.65,-191.85 1070.94,-186.76 1060.51,-184.94 1061.65,-191.85"/>
</a>
</g>
</g>
<!-- Node74&#45;&gt;Node3 -->
<g id="edge67_Node000074_Node000003" class="edge">
<title>Node74&#45;&gt;Node3</title>
<g id="a_edge67_Node000074_Node000003"><a xlink:title=" ">
<path fill="none" stroke="#63b8ff" d="M807.48,-223.62C779.97,-204.71 717.58,-161.82 683.83,-138.61"/>
<polygon fill="#63b8ff" stroke="#63b8ff" points="686.2,-135.99 675.98,-133.21 682.24,-141.76 686.2,-135.99"/>
</a>
</g>
</g>
<!-- Node74&#45;&gt;Node18 -->
<g id="edge68_Node000074_Node000018" class="edge">
<title>Node74&#45;&gt;Node18</title>
<g id="a_edge68_Node000074_Node000018"><a xlink:title=" ">
<path fill="none" stroke="#63b8ff" d="M855.38,-226.92C900.36,-218.87 982.06,-204.06 1061.25,-188.53"/>
<polygon fill="#63b8ff" stroke="#63b8ff" points="1061.78,-192 1070.92,-186.63 1060.43,-185.13 1061.78,-192"/>
</a>
</g>
</g>
</g>
</svg>
