<?xml version="1.0" encoding="UTF-8" standalone="no"?>
<!DOCTYPE svg PUBLIC "-//W3C//DTD SVG 1.1//EN"
 "http://www.w3.org/Graphics/SVG/1.1/DTD/svg11.dtd">
<!-- Generated by graphviz version 14.1.2 (20260124.0452)
 -->
<!-- Title: dsps_fft2r_platform.h Pages: 1 -->
<svg width="3384pt" height="252pt"
 viewBox="0.00 0.00 3384.00 252.00" xmlns="http://www.w3.org/2000/svg" xmlns:xlink="http://www.w3.org/1999/xlink">
<g id="graph0" class="graph" transform="scale(1 1) rotate(0) translate(4 248)">
<title>dsps_fft2r_platform.h</title>
<!-- Node1 -->
<g id="Node000001" class="node">
<title>Node1</title>
<g id="a_Node000001"><a xlink:title=" ">
<polygon fill="#999999" stroke="#666666" points="380.38,-244 272.88,-244 272.88,-224 380.38,-224 380.38,-244"/>
<text xml:space="preserve" text-anchor="middle" x="326.62" y="-230.5" font-family="Helvetica,sans-Serif" font-size="10.00">dsps_fft2r_platform.h</text>
</a>
</g>
</g>
<!-- Node2 -->
<g id="Node000002" class="node">
<title>Node2</title>
<g id="a_Node000002"><a xlink:href="dsps__fft2r_8h.html" target="_top" xlink:title=" ">
<polygon fill="white" stroke="#666666" points="628.12,-188 561.12,-188 561.12,-168 628.12,-168 628.12,-188"/>
<text xml:space="preserve" text-anchor="middle" x="594.62" y="-174.5" font-family="Helvetica,sans-Serif" font-size="10.00">dsps_fft2r.h</text>
</a>
</g>
</g>
<!-- Node1&#45;&gt;Node2 -->
<g id="edge1_Node000001_Node000002" class="edge">
<title>Node1&#45;&gt;Node2</title>
<g id="a_edge1_Node000001_Node000002"><a xlink:title=" ">
<path fill="none" stroke="#63b8ff" d="M384.7,-221.3C438.5,-210.46 516.66,-194.71 560.86,-185.8"/>
<polygon fill="#63b8ff" stroke="#63b8ff" points="384.21,-217.83 375.1,-223.23 385.59,-224.69 384.21,-217.83"/>
</a>
</g>
</g>
<!-- Node6 -->
<g id="Node000006" class="node">
<title>Node6</title>
<g id="a_Node000006"><a xlink:href="dsps__fft2r__fc32__ae32_8c.html" target="_top" xlink:title=" ">
<polygon fill="white" stroke="#666666" points="117.25,-132 0,-132 0,-112 117.25,-112 117.25,-132"/>
<text xml:space="preserve" text-anchor="middle" x="58.62" y="-118.5" font-family="Helvetica,sans-Serif" font-size="10.00">dsps_fft2r_fc32_ae32.c</text>
</a>
</g>
</g>
<!-- Node1&#45;&gt;Node6 -->
<g id="edge39_Node000001_Node000006" class="edge">
<title>Node1&#45;&gt;Node6</title>
<g id="a_edge39_Node000001_Node000006"><a xlink:title=" ">
<path fill="none" stroke="#63b8ff" d="M293.14,-219.26C237.82,-196.55 128.74,-151.78 81.42,-132.35"/>
<polygon fill="#63b8ff" stroke="#63b8ff" points="291.8,-222.49 302.38,-223.05 294.45,-216.01 291.8,-222.49"/>
</a>
</g>
</g>
<!-- Node3 -->
<g id="Node000003" class="node">
<title>Node3</title>
<g id="a_Node000003"><a xlink:href="dsps__dct__f32_8c.html" target="_top" xlink:title=" ">
<polygon fill="white" stroke="#666666" points="218,-132 135.25,-132 135.25,-112 218,-112 218,-132"/>
<text xml:space="preserve" text-anchor="middle" x="176.62" y="-118.5" font-family="Helvetica,sans-Serif" font-size="10.00">dsps_dct_f32.c</text>
</a>
</g>
</g>
<!-- Node2&#45;&gt;Node3 -->
<g id="edge2_Node000002_Node000003" class="edge">
<title>Node2&#45;&gt;Node3</title>
<g id="a_edge2_Node000002_Node000003"><a xlink:title=" ">
<path fill="none" stroke="#63b8ff" d="M549.29,-172.22C479.88,-164.72 343.15,-149.26 227.62,-132 224.6,-131.55 221.48,-131.06 218.34,-130.55"/>
<polygon fill="#63b8ff" stroke="#63b8ff" points="548.82,-175.69 559.14,-173.28 549.57,-168.73 548.82,-175.69"/>
</a>
</g>
</g>
<!-- Node4 -->
<g id="Node000004" class="node">
<title>Node4</title>
<g id="a_Node000004"><a xlink:href="dsps__dctiv__f32_8c.html" target="_top" xlink:title=" ">
<polygon fill="white" stroke="#666666" points="326.75,-132 236.5,-132 236.5,-112 326.75,-112 326.75,-132"/>
<text xml:space="preserve" text-anchor="middle" x="281.62" y="-118.5" font-family="Helvetica,sans-Serif" font-size="10.00">dsps_dctiv_f32.c</text>
</a>
</g>
</g>
<!-- Node2&#45;&gt;Node4 -->
<g id="edge3_Node000002_Node000004" class="edge">
<title>Node2&#45;&gt;Node4</title>
<g id="a_edge3_Node000002_Node000004"><a xlink:title=" ">
<path fill="none" stroke="#63b8ff" d="M549.59,-169.23C490.3,-159 386.63,-141.12 327.12,-130.85"/>
<polygon fill="#63b8ff" stroke="#63b8ff" points="548.89,-172.66 559.34,-170.91 550.08,-165.76 548.89,-172.66"/>
</a>
</g>
</g>
<!-- Node5 -->
<g id="Node000005" class="node">
<title>Node5</title>
<g id="a_Node000005"><a xlink:href="dsps__dstiv__f32_8c.html" target="_top" xlink:title=" ">
<polygon fill="white" stroke="#666666" points="434.75,-132 344.5,-132 344.5,-112 434.75,-112 434.75,-132"/>
<text xml:space="preserve" text-anchor="middle" x="389.62" y="-118.5" font-family="Helvetica,sans-Serif" font-size="10.00">dsps_dstiv_f32.c</text>
</a>
</g>
</g>
<!-- Node2&#45;&gt;Node5 -->
<g id="edge4_Node000002_Node000005" class="edge">
<title>Node2&#45;&gt;Node5</title>
<g id="a_edge4_Node000002_Node000005"><a xlink:title=" ">
<path fill="none" stroke="#63b8ff" d="M549.73,-165.17C512.46,-155.36 460.15,-141.58 425.6,-132.48"/>
<polygon fill="#63b8ff" stroke="#63b8ff" points="548.75,-168.53 559.31,-167.7 550.53,-161.77 548.75,-168.53"/>
</a>
</g>
</g>
<!-- Node2&#45;&gt;Node6 -->
<g id="edge5_Node000002_Node000006" class="edge">
<title>Node2&#45;&gt;Node6</title>
<g id="a_edge5_Node000002_Node000006"><a xlink:title=" ">
<path fill="none" stroke="#63b8ff" d="M549.47,-173.2C465.91,-166.04 281.57,-149.7 126.62,-132 123.67,-131.66 120.64,-131.3 117.58,-130.93"/>
<polygon fill="#63b8ff" stroke="#63b8ff" points="549.04,-176.67 559.3,-174.04 549.64,-169.7 549.04,-176.67"/>
</a>
</g>
</g>
<!-- Node7 -->
<g id="Node000007" class="node">
<title>Node7</title>
<g id="a_Node000007"><a xlink:href="dsps__fft2r__fc32__ansi_8c.html" target="_top" xlink:title=" ">
<polygon fill="white" stroke="#666666" points="566.75,-132 452.5,-132 452.5,-112 566.75,-112 566.75,-132"/>
<text xml:space="preserve" text-anchor="middle" x="509.62" y="-118.5" font-family="Helvetica,sans-Serif" font-size="10.00">dsps_fft2r_fc32_ansi.c</text>
</a>
</g>
</g>
<!-- Node2&#45;&gt;Node7 -->
<g id="edge6_Node000002_Node000007" class="edge">
<title>Node2&#45;&gt;Node7</title>
<g id="a_edge6_Node000002_Node000007"><a xlink:title=" ">
<path fill="none" stroke="#63b8ff" d="M570.29,-161.54C555.54,-152.17 537.18,-140.51 524.55,-132.48"/>
<polygon fill="#63b8ff" stroke="#63b8ff" points="568.22,-164.37 578.54,-166.78 571.98,-158.47 568.22,-164.37"/>
</a>
</g>
</g>
<!-- Node8 -->
<g id="Node000008" class="node">
<title>Node8</title>
<g id="a_Node000008"><a xlink:href="dsps__fft2r__sc16__ansi_8c.html" target="_top" xlink:title=" ">
<polygon fill="white" stroke="#666666" points="1390.88,-20 1274.38,-20 1274.38,0 1390.88,0 1390.88,-20"/>
<text xml:space="preserve" text-anchor="middle" x="1332.62" y="-6.5" font-family="Helvetica,sans-Serif" font-size="10.00">dsps_fft2r_sc16_ansi.c</text>
</a>
</g>
</g>
<!-- Node2&#45;&gt;Node8 -->
<g id="edge7_Node000002_Node000008" class="edge">
<title>Node2&#45;&gt;Node8</title>
<g id="a_edge7_Node000002_Node000008"><a xlink:title=" ">
<path fill="none" stroke="#63b8ff" d="M590.93,-156.37C587.35,-129 585.94,-81.22 613.62,-56 661.97,-11.97 1111.13,-9.85 1274,-10.54"/>
<polygon fill="#63b8ff" stroke="#63b8ff" points="587.46,-156.83 592.46,-166.17 594.38,-155.75 587.46,-156.83"/>
</a>
</g>
</g>
<!-- Node9 -->
<g id="Node000009" class="node">
<title>Node9</title>
<g id="a_Node000009"><a xlink:href="dsps__fft4r__fc32__ae32_8c.html" target="_top" xlink:title=" ">
<polygon fill="white" stroke="#666666" points="740.25,-132 623,-132 623,-112 740.25,-112 740.25,-132"/>
<text xml:space="preserve" text-anchor="middle" x="681.62" y="-118.5" font-family="Helvetica,sans-Serif" font-size="10.00">dsps_fft4r_fc32_ae32.c</text>
</a>
</g>
</g>
<!-- Node2&#45;&gt;Node9 -->
<g id="edge8_Node000002_Node000009" class="edge">
<title>Node2&#45;&gt;Node9</title>
<g id="a_edge8_Node000002_Node000009"><a xlink:title=" ">
<path fill="none" stroke="#63b8ff" d="M619.53,-161.54C634.63,-152.17 653.42,-140.51 666.35,-132.48"/>
<polygon fill="#63b8ff" stroke="#63b8ff" points="617.72,-158.55 611.07,-166.8 621.41,-164.5 617.72,-158.55"/>
</a>
</g>
</g>
<!-- Node10 -->
<g id="Node000010" class="node">
<title>Node10</title>
<g id="a_Node000010"><a xlink:href="dsps__fft4r__fc32__ansi_8c.html" target="_top" xlink:title=" ">
<polygon fill="white" stroke="#666666" points="872.75,-132 758.5,-132 758.5,-112 872.75,-112 872.75,-132"/>
<text xml:space="preserve" text-anchor="middle" x="815.62" y="-118.5" font-family="Helvetica,sans-Serif" font-size="10.00">dsps_fft4r_fc32_ansi.c</text>
</a>
</g>
</g>
<!-- Node2&#45;&gt;Node10 -->
<g id="edge9_Node000002_Node000010" class="edge">
<title>Node2&#45;&gt;Node10</title>
<g id="a_edge9_Node000002_Node000010"><a xlink:title=" ">
<path fill="none" stroke="#63b8ff" d="M639.31,-166.08C679.68,-156.22 738.49,-141.85 776.9,-132.46"/>
<polygon fill="#63b8ff" stroke="#63b8ff" points="638.54,-162.67 629.66,-168.44 640.21,-169.47 638.54,-162.67"/>
</a>
</g>
</g>
<!-- Node11 -->
<g id="Node000011" class="node">
<title>Node11</title>
<g id="a_Node000011"><a xlink:href="dsps__sfdr__f32_8cpp.html" target="_top" xlink:title=" ">
<polygon fill="white" stroke="#666666" points="986.75,-132 890.5,-132 890.5,-112 986.75,-112 986.75,-132"/>
<text xml:space="preserve" text-anchor="middle" x="938.62" y="-118.5" font-family="Helvetica,sans-Serif" font-size="10.00">dsps_sfdr_f32.cpp</text>
</a>
</g>
</g>
<!-- Node2&#45;&gt;Node11 -->
<g id="edge10_Node000002_Node000011" class="edge">
<title>Node2&#45;&gt;Node11</title>
<g id="a_edge10_Node000002_Node000011"><a xlink:title=" ">
<path fill="none" stroke="#63b8ff" d="M639.23,-170.02C695.67,-161.19 795.86,-145.49 881.62,-132 884.4,-131.56 887.24,-131.12 890.12,-130.66"/>
<polygon fill="#63b8ff" stroke="#63b8ff" points="639.04,-166.51 629.7,-171.51 640.12,-173.42 639.04,-166.51"/>
</a>
</g>
</g>
<!-- Node12 -->
<g id="Node000012" class="node">
<title>Node12</title>
<g id="a_Node000012"><a xlink:href="dsps__snr__f32_8cpp.html" target="_top" xlink:title=" ">
<polygon fill="white" stroke="#666666" points="1098.25,-132 1005,-132 1005,-112 1098.25,-112 1098.25,-132"/>
<text xml:space="preserve" text-anchor="middle" x="1051.62" y="-118.5" font-family="Helvetica,sans-Serif" font-size="10.00">dsps_snr_f32.cpp</text>
</a>
</g>
</g>
<!-- Node2&#45;&gt;Node12 -->
<g id="edge11_Node000002_Node000012" class="edge">
<title>Node2&#45;&gt;Node12</title>
<g id="a_edge11_Node000002_Node000012"><a xlink:title=" ">
<path fill="none" stroke="#63b8ff" d="M639.73,-172.65C714.04,-165.31 866.81,-149.57 995.62,-132 998.55,-131.6 1001.56,-131.17 1004.6,-130.72"/>
<polygon fill="#63b8ff" stroke="#63b8ff" points="639.61,-169.14 630,-173.6 640.29,-176.11 639.61,-169.14"/>
</a>
</g>
</g>
<!-- Node13 -->
<g id="Node000013" class="node">
<title>Node13</title>
<g id="a_Node000013"><a xlink:href="esp__dsp_8h.html" target="_top" xlink:title=" ">
<polygon fill="white" stroke="#666666" points="2052.12,-132 1991.12,-132 1991.12,-112 2052.12,-112 2052.12,-132"/>
<text xml:space="preserve" text-anchor="middle" x="2021.62" y="-118.5" font-family="Helvetica,sans-Serif" font-size="10.00">esp_dsp.h</text>
</a>
</g>
</g>
<!-- Node2&#45;&gt;Node13 -->
<g id="edge12_Node000002_Node000013" class="edge">
<title>Node2&#45;&gt;Node13</title>
<g id="a_edge12_Node000002_Node000013"><a xlink:title=" ">
<path fill="none" stroke="#63b8ff" d="M639.84,-175.29C858.96,-167 1807.45,-131.1 1990.86,-124.16"/>
<polygon fill="#63b8ff" stroke="#63b8ff" points="639.86,-171.79 630,-175.66 640.13,-178.78 639.86,-171.79"/>
</a>
</g>
</g>
<!-- Node46 -->
<g id="Node000046" class="node">
<title>Node46</title>
<g id="a_Node000046"><a xlink:href="test__fft2r_8c.html" target="_top" xlink:title=" ">
<polygon fill="white" stroke="#666666" points="2132.88,-132 2070.38,-132 2070.38,-112 2132.88,-112 2132.88,-132"/>
<text xml:space="preserve" text-anchor="middle" x="2101.62" y="-118.5" font-family="Helvetica,sans-Serif" font-size="10.00">test_fft2r.c</text>
</a>
</g>
</g>
<!-- Node2&#45;&gt;Node46 -->
<g id="edge38_Node000002_Node000046" class="edge">
<title>Node2&#45;&gt;Node46</title>
<g id="a_edge38_Node000002_Node000046"><a xlink:title=" ">
<path fill="none" stroke="#63b8ff" d="M640.03,-176.77C855.55,-175.52 1776.62,-168.1 2061.62,-132 2064.45,-131.64 2067.37,-131.18 2070.28,-130.65"/>
<polygon fill="#63b8ff" stroke="#63b8ff" points="640.07,-173.27 630.09,-176.83 640.11,-180.27 640.07,-173.27"/>
</a>
</g>
</g>
<!-- Node14 -->
<g id="Node000014" class="node">
<title>Node14</title>
<g id="a_Node000014"><a xlink:href="applications_2azure__board__apps_2apps_23d__graphics_2main_23d__graphics__demo_8cpp.html" target="_top" xlink:title=" ">
<polygon fill="white" stroke="#666666" points="738.88,-76 622.38,-76 622.38,-56 738.88,-56 738.88,-76"/>
<text xml:space="preserve" text-anchor="middle" x="680.62" y="-62.5" font-family="Helvetica,sans-Serif" font-size="10.00">3d_graphics_demo.cpp</text>
</a>
</g>
</g>
<!-- Node13&#45;&gt;Node14 -->
<g id="edge13_Node000013_Node000014" class="edge">
<title>Node13&#45;&gt;Node14</title>
<g id="a_edge13_Node000013_Node000014"><a xlink:title=" ">
<path fill="none" stroke="#63b8ff" d="M1979.82,-120.98C1819.85,-120.6 1231.29,-116.38 748.62,-76 745.54,-75.74 742.38,-75.44 739.19,-75.12"/>
<polygon fill="#63b8ff" stroke="#63b8ff" points="1979.5,-124.48 1989.5,-121 1979.51,-117.48 1979.5,-124.48"/>
</a>
</g>
</g>
<!-- Node15 -->
<g id="Node000015" class="node">
<title>Node15</title>
<g id="a_Node000015"><a xlink:href="applications_2m5stack__core__s3_2apps_23d__graphics_2main_23d__graphics__demo_8cpp.html" target="_top" xlink:title=" ">
<polygon fill="white" stroke="#666666" points="873.88,-76 757.38,-76 757.38,-56 873.88,-56 873.88,-76"/>
<text xml:space="preserve" text-anchor="middle" x="815.62" y="-62.5" font-family="Helvetica,sans-Serif" font-size="10.00">3d_graphics_demo.cpp</text>
</a>
</g>
</g>
<!-- Node13&#45;&gt;Node15 -->
<g id="edge14_Node000013_Node000015" class="edge">
<title>Node13&#45;&gt;Node15</title>
<g id="a_edge14_Node000013_Node000015"><a xlink:title=" ">
<path fill="none" stroke="#63b8ff" d="M1979.45,-120.73C1829.79,-119.48 1310.39,-112.6 883.62,-76 880.54,-75.74 877.38,-75.43 874.19,-75.1"/>
<polygon fill="#63b8ff" stroke="#63b8ff" points="1979.24,-124.23 1989.27,-120.81 1979.3,-117.23 1979.24,-124.23"/>
</a>
</g>
</g>
<!-- Node16 -->
<g id="Node000016" class="node">
<title>Node16</title>
<g id="a_Node000016"><a xlink:href="external__examples_2b00f000e_2applications_2azure__board__apps_2apps_23d__graphics_2main_23d__graphics__demo_8cpp.html" target="_top" xlink:title=" ">
<polygon fill="white" stroke="#666666" points="1008.88,-76 892.38,-76 892.38,-56 1008.88,-56 1008.88,-76"/>
<text xml:space="preserve" text-anchor="middle" x="950.62" y="-62.5" font-family="Helvetica,sans-Serif" font-size="10.00">3d_graphics_demo.cpp</text>
</a>
</g>
</g>
<!-- Node13&#45;&gt;Node16 -->
<g id="edge15_Node000013_Node000016" class="edge">
<title>Node13&#45;&gt;Node16</title>
<g id="a_edge15_Node000013_Node000016"><a xlink:title=" ">
<path fill="none" stroke="#63b8ff" d="M1979.52,-120.42C1841.49,-118.23 1390.21,-108.86 1018.62,-76 1015.54,-75.73 1012.38,-75.42 1009.19,-75.08"/>
<polygon fill="#63b8ff" stroke="#63b8ff" points="1979.21,-123.91 1989.27,-120.57 1979.32,-116.91 1979.21,-123.91"/>
</a>
</g>
</g>
<!-- Node17 -->
<g id="Node000017" class="node">
<title>Node17</title>
<g id="a_Node000017"><a xlink:href="external__examples_2b00f000e_2applications_2m5stack__core__s3_2apps_23d__graphics_2main_23d__graphics__demo_8cpp.html" target="_top" xlink:title=" ">
<polygon fill="white" stroke="#666666" points="1143.88,-76 1027.38,-76 1027.38,-56 1143.88,-56 1143.88,-76"/>
<text xml:space="preserve" text-anchor="middle" x="1085.62" y="-62.5" font-family="Helvetica,sans-Serif" font-size="10.00">3d_graphics_demo.cpp</text>
</a>
</g>
</g>
<!-- Node13&#45;&gt;Node17 -->
<g id="edge16_Node000013_Node000017" class="edge">
<title>Node13&#45;&gt;Node17</title>
<g id="a_edge16_Node000013_Node000017"><a xlink:title=" ">
<path fill="none" stroke="#63b8ff" d="M1979.45,-120.01C1853.67,-116.79 1470.23,-105.11 1153.62,-76 1150.54,-75.72 1147.38,-75.4 1144.2,-75.05"/>
<polygon fill="#63b8ff" stroke="#63b8ff" points="1979.21,-123.5 1989.3,-120.25 1979.39,-116.5 1979.21,-123.5"/>
</a>
</g>
</g>
<!-- Node18 -->
<g id="Node000018" class="node">
<title>Node18</title>
<g id="a_Node000018"><a xlink:href="external__examples_2d1468452_2apps_23d__graphics_2main_23d__graphics__demo_8cpp.html" target="_top" xlink:title=" ">
<polygon fill="white" stroke="#666666" points="1278.88,-76 1162.38,-76 1162.38,-56 1278.88,-56 1278.88,-76"/>
<text xml:space="preserve" text-anchor="middle" x="1220.62" y="-62.5" font-family="Helvetica,sans-Serif" font-size="10.00">3d_graphics_demo.cpp</text>
</a>
</g>
</g>
<!-- Node13&#45;&gt;Node18 -->
<g id="edge17_Node000013_Node000018" class="edge">
<title>Node13&#45;&gt;Node18</title>
<g id="a_edge17_Node000013_Node000018"><a xlink:title=" ">
<path fill="none" stroke="#63b8ff" d="M1979.36,-119.45C1866.84,-115.08 1550.65,-101.35 1288.62,-76 1285.54,-75.7 1282.39,-75.37 1279.2,-75.02"/>
<polygon fill="#63b8ff" stroke="#63b8ff" points="1979.2,-122.94 1989.33,-119.83 1979.47,-115.95 1979.2,-122.94"/>
</a>
</g>
</g>
<!-- Node19 -->
<g id="Node000019" class="node">
<title>Node19</title>
<g id="a_Node000019"><a xlink:href="external__examples_2f9c2d4b3_2azure__board__apps_2apps_23d__graphics_2main_23d__graphics__demo_8cpp.html" target="_top" xlink:title=" ">
<polygon fill="white" stroke="#666666" points="1413.88,-76 1297.38,-76 1297.38,-56 1413.88,-56 1413.88,-76"/>
<text xml:space="preserve" text-anchor="middle" x="1355.62" y="-62.5" font-family="Helvetica,sans-Serif" font-size="10.00">3d_graphics_demo.cpp</text>
</a>
</g>
</g>
<!-- Node13&#45;&gt;Node19 -->
<g id="edge18_Node000013_Node000019" class="edge">
<title>Node13&#45;&gt;Node19</title>
<g id="a_edge18_Node000013_Node000019"><a xlink:title=" ">
<path fill="none" stroke="#63b8ff" d="M1979.24,-118.67C1881.15,-113.09 1630.97,-97.8 1422.62,-76 1419.82,-75.71 1416.96,-75.39 1414.07,-75.06"/>
<polygon fill="#63b8ff" stroke="#63b8ff" points="1979.01,-122.16 1989.2,-119.23 1979.41,-115.18 1979.01,-122.16"/>
</a>
</g>
</g>
<!-- Node20 -->
<g id="Node000020" class="node">
<title>Node20</title>
<g id="a_Node000020"><a xlink:href="applications_2m5stack__core__s3_2apps_2kalman__filter_2main_23d__kalman__demo_8cpp.html" target="_top" xlink:title=" ">
<polygon fill="white" stroke="#666666" points="1543.25,-76 1432,-76 1432,-56 1543.25,-56 1543.25,-76"/>
<text xml:space="preserve" text-anchor="middle" x="1487.62" y="-62.5" font-family="Helvetica,sans-Serif" font-size="10.00">3d_kalman_demo.cpp</text>
</a>
</g>
</g>
<!-- Node13&#45;&gt;Node20 -->
<g id="edge19_Node000013_Node000020" class="edge">
<title>Node13&#45;&gt;Node20</title>
<g id="a_edge19_Node000013_Node000020"><a xlink:title=" ">
<path fill="none" stroke="#63b8ff" d="M1979.41,-117.59C1897.03,-110.79 1709.13,-94.61 1551.62,-76 1548.95,-75.68 1546.22,-75.35 1543.45,-75"/>
<polygon fill="#63b8ff" stroke="#63b8ff" points="1979.02,-121.07 1989.27,-118.4 1979.59,-114.09 1979.02,-121.07"/>
</a>
</g>
</g>
<!-- Node21 -->
<g id="Node000021" class="node">
<title>Node21</title>
<g id="a_Node000021"><a xlink:href="external__examples_2b00f000e_2applications_2m5stack__core__s3_2apps_2kalman__filter_2main_23d__kalman__demo_8cpp.html" target="_top" xlink:title=" ">
<polygon fill="white" stroke="#666666" points="1672.25,-76 1561,-76 1561,-56 1672.25,-56 1672.25,-76"/>
<text xml:space="preserve" text-anchor="middle" x="1616.62" y="-62.5" font-family="Helvetica,sans-Serif" font-size="10.00">3d_kalman_demo.cpp</text>
</a>
</g>
</g>
<!-- Node13&#45;&gt;Node21 -->
<g id="edge20_Node000013_Node000021" class="edge">
<title>Node13&#45;&gt;Node21</title>
<g id="a_edge20_Node000013_Node000021"><a xlink:title=" ">
<path fill="none" stroke="#63b8ff" d="M1979.41,-115.5C1915.13,-107.09 1788.83,-90.52 1681.62,-76 1678.69,-75.6 1675.68,-75.19 1672.64,-74.78"/>
<polygon fill="#63b8ff" stroke="#63b8ff" points="1978.81,-118.95 1989.18,-116.77 1979.71,-112.01 1978.81,-118.95"/>
</a>
</g>
</g>
<!-- Node22 -->
<g id="Node000022" class="node">
<title>Node22</title>
<g id="a_Node000022"><a xlink:href="applications_2lyrat__board__app_2main_2audio__amp__main_8c.html" target="_top" xlink:title=" ">
<polygon fill="white" stroke="#666666" points="1788.5,-76 1690.75,-76 1690.75,-56 1788.5,-56 1788.5,-76"/>
<text xml:space="preserve" text-anchor="middle" x="1739.62" y="-62.5" font-family="Helvetica,sans-Serif" font-size="10.00">audio_amp_main.c</text>
</a>
</g>
</g>
<!-- Node13&#45;&gt;Node22 -->
<g id="edge21_Node000013_Node000022" class="edge">
<title>Node13&#45;&gt;Node22</title>
<g id="a_edge21_Node000013_Node000022"><a xlink:title=" ">
<path fill="none" stroke="#63b8ff" d="M1979.38,-112.91C1928.39,-103.15 1842.78,-86.75 1788.85,-76.43"/>
<polygon fill="#63b8ff" stroke="#63b8ff" points="1978.67,-116.34 1989.15,-114.78 1979.99,-109.46 1978.67,-116.34"/>
</a>
</g>
</g>
<!-- Node23 -->
<g id="Node000023" class="node">
<title>Node23</title>
<g id="a_Node000023"><a xlink:href="external__examples_21fa4e38f_2lyrat__board__app_2main_2audio__amp__main_8c.html" target="_top" xlink:title=" ">
<polygon fill="white" stroke="#666666" points="1904.5,-76 1806.75,-76 1806.75,-56 1904.5,-56 1904.5,-76"/>
<text xml:space="preserve" text-anchor="middle" x="1855.62" y="-62.5" font-family="Helvetica,sans-Serif" font-size="10.00">audio_amp_main.c</text>
</a>
</g>
</g>
<!-- Node13&#45;&gt;Node23 -->
<g id="edge22_Node000013_Node000023" class="edge">
<title>Node13&#45;&gt;Node23</title>
<g id="a_edge22_Node000013_Node000023"><a xlink:title=" ">
<path fill="none" stroke="#63b8ff" d="M1981.81,-108.05C1951.93,-98.33 1911.69,-85.24 1884.77,-76.48"/>
<polygon fill="#63b8ff" stroke="#63b8ff" points="1980.68,-111.36 1991.27,-111.13 1982.84,-104.7 1980.68,-111.36"/>
</a>
</g>
</g>
<!-- Node24 -->
<g id="Node000024" class="node">
<title>Node24</title>
<g id="a_Node000024"><a xlink:href="external__examples_2b00f000e_2applications_2lyrat__board__app_2main_2audio__amp__main_8c.html" target="_top" xlink:title=" ">
<polygon fill="white" stroke="#666666" points="2020.5,-76 1922.75,-76 1922.75,-56 2020.5,-56 2020.5,-76"/>
<text xml:space="preserve" text-anchor="middle" x="1971.62" y="-62.5" font-family="Helvetica,sans-Serif" font-size="10.00">audio_amp_main.c</text>
</a>
</g>
</g>
<!-- Node13&#45;&gt;Node24 -->
<g id="edge23_Node000013_Node000024" class="edge">
<title>Node13&#45;&gt;Node24</title>
<g id="a_edge23_Node000013_Node000024"><a xlink:title=" ">
<path fill="none" stroke="#63b8ff" d="M2005.22,-103.29C1996.88,-94.28 1987.09,-83.7 1980.23,-76.3"/>
<polygon fill="#63b8ff" stroke="#63b8ff" points="2002.53,-105.52 2011.89,-110.48 2007.66,-100.77 2002.53,-105.52"/>
</a>
</g>
</g>
<!-- Node25 -->
<g id="Node000025" class="node">
<title>Node25</title>
<g id="a_Node000025"><a xlink:href="dsp__tests_8h.html" target="_top" xlink:title=" ">
<polygon fill="#fff0f0" stroke="red" points="2105.12,-76 2038.12,-76 2038.12,-56 2105.12,-56 2105.12,-76"/>
<text xml:space="preserve" text-anchor="middle" x="2071.62" y="-62.5" font-family="Helvetica,sans-Serif" font-size="10.00">dsp_tests.h</text>
</a>
</g>
</g>
<!-- Node13&#45;&gt;Node25 -->
<g id="edge24_Node000013_Node000025" class="edge">
<title>Node13&#45;&gt;Node25</title>
<g id="a_edge24_Node000013_Node000025"><a xlink:title=" ">
<path fill="none" stroke="#63b8ff" d="M2038.03,-103.29C2046.37,-94.28 2056.16,-83.7 2063.02,-76.3"/>
<polygon fill="#63b8ff" stroke="#63b8ff" points="2035.59,-100.77 2031.36,-110.48 2040.72,-105.52 2035.59,-100.77"/>
</a>
</g>
</g>
<!-- Node31 -->
<g id="Node000031" class="node">
<title>Node31</title>
<g id="a_Node000031"><a xlink:href="applications_2azure__board__apps_2graphics_23d__matrix_23d__matrix__src_2graphics__support_8h.html" target="_top" xlink:title=" ">
<polygon fill="#fff0f0" stroke="red" points="2221.88,-76 2123.38,-76 2123.38,-56 2221.88,-56 2221.88,-76"/>
<text xml:space="preserve" text-anchor="middle" x="2172.62" y="-62.5" font-family="Helvetica,sans-Serif" font-size="10.00">graphics_support.h</text>
</a>
</g>
</g>
<!-- Node13&#45;&gt;Node31 -->
<g id="edge26_Node000013_Node000031" class="edge">
<title>Node13&#45;&gt;Node31</title>
<g id="a_edge26_Node000013_Node000031"><a xlink:title=" ">
<path fill="none" stroke="#63b8ff" d="M2058.56,-107.79C2085.67,-98.1 2121.84,-85.16 2146.12,-76.48"/>
<polygon fill="#63b8ff" stroke="#63b8ff" points="2057.59,-104.42 2049.35,-111.08 2059.95,-111.01 2057.59,-104.42"/>
</a>
</g>
</g>
<!-- Node33 -->
<g id="Node000033" class="node">
<title>Node33</title>
<g id="a_Node000033"><a xlink:href="external__examples_2b00f000e_2applications_2azure__board__apps_2graphics_23d__matrix_23d__matrix__src_2graphics__support_8h.html" target="_top" xlink:title=" ">
<polygon fill="#fff0f0" stroke="red" points="2338.88,-76 2240.38,-76 2240.38,-56 2338.88,-56 2338.88,-76"/>
<text xml:space="preserve" text-anchor="middle" x="2289.62" y="-62.5" font-family="Helvetica,sans-Serif" font-size="10.00">graphics_support.h</text>
</a>
</g>
</g>
<!-- Node13&#45;&gt;Node33 -->
<g id="edge27_Node000013_Node000033" class="edge">
<title>Node13&#45;&gt;Node33</title>
<g id="a_edge27_Node000013_Node000033"><a xlink:title=" ">
<path fill="none" stroke="#63b8ff" d="M2063.75,-111.59C2130.42,-97.59 2196.38,-84.75 2240.18,-76.37"/>
<polygon fill="#63b8ff" stroke="#63b8ff" points="2063.16,-108.14 2054.1,-113.63 2064.6,-114.99 2063.16,-108.14"/>
</a>
</g>
</g>
<!-- Node35 -->
<g id="Node000035" class="node">
<title>Node35</title>
<g id="a_Node000035"><a xlink:href="external__examples_2f9c2d4b3_2azure__board__apps_2graphics_23d__matrix_23d__matrix__src_2graphics__support_8h.html" target="_top" xlink:title=" ">
<polygon fill="#fff0f0" stroke="red" points="2455.88,-76 2357.38,-76 2357.38,-56 2455.88,-56 2455.88,-76"/>
<text xml:space="preserve" text-anchor="middle" x="2406.62" y="-62.5" font-family="Helvetica,sans-Serif" font-size="10.00">graphics_support.h</text>
</a>
</g>
</g>
<!-- Node13&#45;&gt;Node35 -->
<g id="edge28_Node000013_Node000035" class="edge">
<title>Node13&#45;&gt;Node35</title>
<g id="a_edge28_Node000013_Node000035"><a xlink:title=" ">
<path fill="none" stroke="#63b8ff" d="M2063.82,-111.77C2189.76,-90.11 2224.33,-93.16 2347.62,-76 2350.7,-75.57 2353.87,-75.12 2357.06,-74.66"/>
<polygon fill="#63b8ff" stroke="#63b8ff" points="2063.32,-108.31 2054.07,-113.47 2064.52,-115.2 2063.32,-108.31"/>
</a>
</g>
</g>
<!-- Node37 -->
<g id="Node000037" class="node">
<title>Node37</title>
<g id="a_Node000037"><a xlink:href="applications_2m5stack__core__s3_2apps_23d__graphics_2main_2init__display_8c.html" target="_top" xlink:title=" ">
<polygon fill="white" stroke="#666666" points="2545.75,-76 2473.5,-76 2473.5,-56 2545.75,-56 2545.75,-76"/>
<text xml:space="preserve" text-anchor="middle" x="2509.62" y="-62.5" font-family="Helvetica,sans-Serif" font-size="10.00">init_display.c</text>
</a>
</g>
</g>
<!-- Node13&#45;&gt;Node37 -->
<g id="edge29_Node000013_Node000037" class="edge">
<title>Node13&#45;&gt;Node37</title>
<g id="a_edge29_Node000013_Node000037"><a xlink:title=" ">
<path fill="none" stroke="#63b8ff" d="M2063.87,-111.86C2241.29,-84.9 2290.29,-101.14 2464.62,-76 2467.46,-75.59 2470.39,-75.12 2473.33,-74.61"/>
<polygon fill="#63b8ff" stroke="#63b8ff" points="2063.4,-108.4 2054.05,-113.38 2064.47,-115.31 2063.4,-108.4"/>
</a>
</g>
</g>
<!-- Node38 -->
<g id="Node000038" class="node">
<title>Node38</title>
<g id="a_Node000038"><a xlink:href="external__examples_2b00f000e_2applications_2m5stack__core__s3_2apps_23d__graphics_2main_2init__display_8c.html" target="_top" xlink:title=" ">
<polygon fill="white" stroke="#666666" points="2635.75,-76 2563.5,-76 2563.5,-56 2635.75,-56 2635.75,-76"/>
<text xml:space="preserve" text-anchor="middle" x="2599.62" y="-62.5" font-family="Helvetica,sans-Serif" font-size="10.00">init_display.c</text>
</a>
</g>
</g>
<!-- Node13&#45;&gt;Node38 -->
<g id="edge30_Node000013_Node000038" class="edge">
<title>Node13&#45;&gt;Node38</title>
<g id="a_edge30_Node000013_Node000038"><a xlink:title=" ">
<path fill="none" stroke="#63b8ff" d="M2063.69,-111.93C2280.92,-80.64 2340.55,-105.11 2554.62,-76 2557.47,-75.61 2560.4,-75.16 2563.34,-74.66"/>
<polygon fill="#63b8ff" stroke="#63b8ff" points="2063.43,-108.43 2054.05,-113.35 2064.45,-115.36 2063.43,-108.43"/>
</a>
</g>
</g>
<!-- Node39 -->
<g id="Node000039" class="node">
<title>Node39</title>
<g id="a_Node000039"><a xlink:href="applications_2azure__board__apps_2apps_2kalman__filter_2main_2kalman__filter__demo_8cpp.html" target="_top" xlink:title=" ">
<polygon fill="white" stroke="#666666" points="2773.38,-76 2653.88,-76 2653.88,-56 2773.38,-56 2773.38,-76"/>
<text xml:space="preserve" text-anchor="middle" x="2713.62" y="-62.5" font-family="Helvetica,sans-Serif" font-size="10.00">kalman_filter_demo.cpp</text>
</a>
</g>
</g>
<!-- Node13&#45;&gt;Node39 -->
<g id="edge31_Node000013_Node000039" class="edge">
<title>Node13&#45;&gt;Node39</title>
<g id="a_edge31_Node000013_Node000039"><a xlink:title=" ">
<path fill="none" stroke="#63b8ff" d="M2063.73,-111.95C2320.59,-76.1 2389.87,-100.45 2644.62,-76 2647.51,-75.72 2650.46,-75.42 2653.44,-75.1"/>
<polygon fill="#63b8ff" stroke="#63b8ff" points="2063.45,-108.45 2054.04,-113.32 2064.43,-115.38 2063.45,-108.45"/>
</a>
</g>
</g>
<!-- Node40 -->
<g id="Node000040" class="node">
<title>Node40</title>
<g id="a_Node000040"><a xlink:href="external__examples_2b00f000e_2applications_2azure__board__apps_2apps_2kalman__filter_2main_2kalman__filter__demo_8cpp.html" target="_top" xlink:title=" ">
<polygon fill="white" stroke="#666666" points="2911.38,-76 2791.88,-76 2791.88,-56 2911.38,-56 2911.38,-76"/>
<text xml:space="preserve" text-anchor="middle" x="2851.62" y="-62.5" font-family="Helvetica,sans-Serif" font-size="10.00">kalman_filter_demo.cpp</text>
</a>
</g>
</g>
<!-- Node13&#45;&gt;Node40 -->
<g id="edge32_Node000013_Node000040" class="edge">
<title>Node13&#45;&gt;Node40</title>
<g id="a_edge32_Node000013_Node000040"><a xlink:title=" ">
<path fill="none" stroke="#63b8ff" d="M2063.93,-111.95C2381.51,-69.46 2466.82,-104.43 2782.62,-76 2785.51,-75.74 2788.47,-75.45 2791.45,-75.14"/>
<polygon fill="#63b8ff" stroke="#63b8ff" points="2063.48,-108.48 2054.04,-113.29 2064.42,-115.42 2063.48,-108.48"/>
</a>
</g>
</g>
<!-- Node41 -->
<g id="Node000041" class="node">
<title>Node41</title>
<g id="a_Node000041"><a xlink:href="external__examples_2d1468452_2apps_2kalman__filter_2main_2kalman__filter__demo_8cpp.html" target="_top" xlink:title=" ">
<polygon fill="white" stroke="#666666" points="3049.38,-76 2929.88,-76 2929.88,-56 3049.38,-56 3049.38,-76"/>
<text xml:space="preserve" text-anchor="middle" x="2989.62" y="-62.5" font-family="Helvetica,sans-Serif" font-size="10.00">kalman_filter_demo.cpp</text>
</a>
</g>
</g>
<!-- Node13&#45;&gt;Node41 -->
<g id="edge33_Node000013_Node000041" class="edge">
<title>Node13&#45;&gt;Node41</title>
<g id="a_edge33_Node000013_Node000041"><a xlink:title=" ">
<path fill="none" stroke="#63b8ff" d="M2063.82,-111.99C2442.4,-62.77 2543.64,-108.42 2920.62,-76 2923.51,-75.75 2926.47,-75.47 2929.45,-75.17"/>
<polygon fill="#63b8ff" stroke="#63b8ff" points="2063.49,-108.5 2054.04,-113.27 2064.41,-115.44 2063.49,-108.5"/>
</a>
</g>
</g>
<!-- Node42 -->
<g id="Node000042" class="node">
<title>Node42</title>
<g id="a_Node000042"><a xlink:href="external__examples_2f9c2d4b3_2azure__board__apps_2apps_2kalman__filter_2main_2kalman__filter__demo_8cpp.html" target="_top" xlink:title=" ">
<polygon fill="white" stroke="#666666" points="3187.38,-76 3067.88,-76 3067.88,-56 3187.38,-56 3187.38,-76"/>
<text xml:space="preserve" text-anchor="middle" x="3127.62" y="-62.5" font-family="Helvetica,sans-Serif" font-size="10.00">kalman_filter_demo.cpp</text>
</a>
</g>
</g>
<!-- Node13&#45;&gt;Node42 -->
<g id="edge34_Node000013_Node000042" class="edge">
<title>Node13&#45;&gt;Node42</title>
<g id="a_edge34_Node000013_Node000042"><a xlink:title=" ">
<path fill="none" stroke="#63b8ff" d="M2063.64,-112.02C2503.3,-56.04 2620.42,-112.41 3058.62,-76 3061.51,-75.76 3064.47,-75.49 3067.45,-75.19"/>
<polygon fill="#63b8ff" stroke="#63b8ff" points="2063.51,-108.51 2054.03,-113.26 2064.4,-115.45 2063.51,-108.51"/>
</a>
</g>
</g>
<!-- Node43 -->
<g id="Node000043" class="node">
<title>Node43</title>
<g id="a_Node000043"><a xlink:href="main_2main_8c.html" target="_top" xlink:title=" ">
<polygon fill="white" stroke="#666666" points="3250.25,-76 3205,-76 3205,-56 3250.25,-56 3250.25,-76"/>
<text xml:space="preserve" text-anchor="middle" x="3227.62" y="-62.5" font-family="Helvetica,sans-Serif" font-size="10.00">main.c</text>
</a>
</g>
</g>
<!-- Node13&#45;&gt;Node43 -->
<g id="edge35_Node000013_Node000043" class="edge">
<title>Node13&#45;&gt;Node43</title>
<g id="a_edge35_Node000013_Node000043"><a xlink:title=" ">
<path fill="none" stroke="#63b8ff" d="M2063.67,-112.03C2564.3,-49.87 2701.8,-154.4 3196.62,-76 3199.28,-75.58 3202.03,-75 3204.75,-74.34"/>
<polygon fill="#63b8ff" stroke="#63b8ff" points="2063.52,-108.53 2054.03,-113.25 2064.39,-115.47 2063.52,-108.53"/>
</a>
</g>
</g>
<!-- Node44 -->
<g id="Node000044" class="node">
<title>Node44</title>
<g id="a_Node000044"><a xlink:href="components_2espressif____esp-dsp_2applications_2spectrum__box__lite_2main_2main_8c.html" target="_top" xlink:title=" ">
<polygon fill="white" stroke="#666666" points="3313.25,-76 3268,-76 3268,-56 3313.25,-56 3313.25,-76"/>
<text xml:space="preserve" text-anchor="middle" x="3290.62" y="-62.5" font-family="Helvetica,sans-Serif" font-size="10.00">main.c</text>
</a>
</g>
</g>
<!-- Node13&#45;&gt;Node44 -->
<g id="edge36_Node000013_Node000044" class="edge">
<title>Node13&#45;&gt;Node44</title>
<g id="a_edge36_Node000013_Node000044"><a xlink:title=" ">
<path fill="none" stroke="#63b8ff" d="M2063.89,-112.01C2592.16,-46.83 2737.16,-158.33 3259.62,-76 3262.28,-75.58 3265.03,-75 3267.75,-74.34"/>
<polygon fill="#63b8ff" stroke="#63b8ff" points="2063.52,-108.53 2054.03,-113.24 2064.39,-115.48 2063.52,-108.53"/>
</a>
</g>
</g>
<!-- Node45 -->
<g id="Node000045" class="node">
<title>Node45</title>
<g id="a_Node000045"><a xlink:href="components_2espressif____esp-dsp_2external__examples_2b00f000e_2applications_2spectrum__box__lite_2main_2main_8c.html" target="_top" xlink:title=" ">
<polygon fill="white" stroke="#666666" points="3376.25,-76 3331,-76 3331,-56 3376.25,-56 3376.25,-76"/>
<text xml:space="preserve" text-anchor="middle" x="3353.62" y="-62.5" font-family="Helvetica,sans-Serif" font-size="10.00">main.c</text>
</a>
</g>
</g>
<!-- Node13&#45;&gt;Node45 -->
<g id="edge37_Node000013_Node000045" class="edge">
<title>Node13&#45;&gt;Node45</title>
<g id="a_edge37_Node000013_Node000045"><a xlink:title=" ">
<path fill="none" stroke="#63b8ff" d="M2063.66,-112.04C2619.93,-43.72 2772.37,-162.29 3322.62,-76 3325.28,-75.58 3328.03,-75.01 3330.75,-74.34"/>
<polygon fill="#63b8ff" stroke="#63b8ff" points="2063.52,-108.53 2054.03,-113.24 2064.39,-115.48 2063.52,-108.53"/>
</a>
</g>
</g>
<!-- Node25&#45;&gt;Node8 -->
<g id="edge25_Node000025_Node000008" class="edge">
<title>Node25&#45;&gt;Node8</title>
<g id="a_edge25_Node000025_Node000008"><a xlink:title=" ">
<path fill="none" stroke="#63b8ff" d="M2026.7,-55.78C1785.98,-23.13 1509.61,-14.31 1391.2,-11.89"/>
<polygon fill="#63b8ff" stroke="#63b8ff" points="2025.89,-59.2 2036.28,-57.09 2026.85,-52.27 2025.89,-59.2"/>
</a>
</g>
</g>
</g>
</svg>
