<?xml version="1.0" encoding="UTF-8" standalone="no"?>
<!DOCTYPE svg PUBLIC "-//W3C//DTD SVG 1.1//EN"
 "http://www.w3.org/Graphics/SVG/1.1/DTD/svg11.dtd">
<!-- Generated by graphviz version 14.1.2 (20260124.0452)
 -->
<!-- Title: dsps_fir.h Pages: 1 -->
<svg width="467pt" height="252pt"
 viewBox="0.00 0.00 467.00 252.00" xmlns="http://www.w3.org/2000/svg" xmlns:xlink="http://www.w3.org/1999/xlink">

<svg id="main" version="1.1" xmlns="http://www.w3.org/2000/svg" xmlns:xlink="http://www.w3.org/1999/xlink" xml:space="preserve">

<style type="text/css"><![CDATA[
.node, .edge {opacity: 0.7;}
.node.selected, .edge.selected {opacity: 1;}
.edge:hover path { stroke: red; }
.edge:hover polygon { stroke: red; fill: red; }
]]></style>
<script type="application/ecmascript" xlink:href="svg.min.js"/>
<svg id="graph" class="graph">
<g id="graph0" class="graph" transform="scale(1 1) rotate(0) translate(4 248)">
<title>dsps_fir.h</title>
<!-- Node1 -->
<g id="Node000001" class="node">
<title>Node1</title>
<g id="a_Node000001"><a xlink:title=" ">
<polygon fill="#999999" stroke="#666666" points="157,-244 98.25,-244 98.25,-224 157,-224 157,-244"/>
<text xml:space="preserve" text-anchor="middle" x="127.62" y="-230.5" font-family="Helvetica,sans-Serif" font-size="10.00">dsps_fir.h</text>
</a>
</g>
</g>
<!-- Node2 -->
<g id="Node000002" class="node">
<title>Node2</title>
<g id="a_Node000002"><a xlink:href="dsp__err_8h.html" target="_top" xlink:title=" ">
<polygon fill="white" stroke="#666666" points="155.88,-132 99.38,-132 99.38,-112 155.88,-112 155.88,-132"/>
<text xml:space="preserve" text-anchor="middle" x="127.62" y="-118.5" font-family="Helvetica,sans-Serif" font-size="10.00">dsp_err.h</text>
</a>
</g>
</g>
<!-- Node1&#45;&gt;Node2 -->
<g id="edge1_Node000001_Node000002" class="edge">
<title>Node1&#45;&gt;Node2</title>
<g id="a_edge1_Node000001_Node000002"><a xlink:title=" ">
<path fill="none" stroke="#63b8ff" d="M127.62,-223.62C127.62,-206.01 127.62,-167.59 127.62,-143.65"/>
<polygon fill="#63b8ff" stroke="#63b8ff" points="131.13,-143.87 127.63,-133.87 124.13,-143.87 131.13,-143.87"/>
</a>
</g>
</g>
<!-- Node7 -->
<g id="Node000007" class="node">
<title>Node7</title>
<g id="a_Node000007"><a xlink:href="dsps__fir__platform_8h.html" target="_top" xlink:title=" ">
<polygon fill="white" stroke="#666666" points="99.25,-188 0,-188 0,-168 99.25,-168 99.25,-188"/>
<text xml:space="preserve" text-anchor="middle" x="49.62" y="-174.5" font-family="Helvetica,sans-Serif" font-size="10.00">dsps_fir_platform.h</text>
</a>
</g>
</g>
<!-- Node1&#45;&gt;Node7 -->
<g id="edge6_Node000001_Node000007" class="edge">
<title>Node1&#45;&gt;Node7</title>
<g id="a_edge6_Node000001_Node000007"><a xlink:title=" ">
<path fill="none" stroke="#63b8ff" d="M114.04,-223.59C102.59,-215.67 85.96,-204.16 72.47,-194.82"/>
<polygon fill="#63b8ff" stroke="#63b8ff" points="74.78,-192.16 64.56,-189.34 70.79,-197.91 74.78,-192.16"/>
</a>
</g>
</g>
<!-- Node9 -->
<g id="Node000009" class="node">
<title>Node9</title>
<g id="a_Node000009"><a xlink:href="dsp__common_8h.html" target="_top" xlink:title=" ">
<polygon fill="white" stroke="#666666" points="309,-188 226.25,-188 226.25,-168 309,-168 309,-188"/>
<text xml:space="preserve" text-anchor="middle" x="267.62" y="-174.5" font-family="Helvetica,sans-Serif" font-size="10.00">dsp_common.h</text>
</a>
</g>
</g>
<!-- Node1&#45;&gt;Node9 -->
<g id="edge8_Node000001_Node000009" class="edge">
<title>Node1&#45;&gt;Node9</title>
<g id="a_edge8_Node000001_Node000009"><a xlink:title=" ">
<path fill="none" stroke="#63b8ff" d="M152.01,-223.59C174.26,-215.01 207.39,-202.23 232.49,-192.55"/>
<polygon fill="#63b8ff" stroke="#63b8ff" points="233.57,-195.89 241.64,-189.02 231.05,-189.36 233.57,-195.89"/>
</a>
</g>
</g>
<!-- Node3 -->
<g id="Node000003" class="node">
<title>Node3</title>
<g id="a_Node000003"><a xlink:title=" ">
<polygon fill="#e0e0e0" stroke="#999999" points="353.75,-76 305.5,-76 305.5,-56 353.75,-56 353.75,-76"/>
<text xml:space="preserve" text-anchor="middle" x="329.62" y="-62.5" font-family="Helvetica,sans-Serif" font-size="10.00">stdint.h</text>
</a>
</g>
</g>
<!-- Node2&#45;&gt;Node3 -->
<g id="edge2_Node000002_Node000003" class="edge">
<title>Node2&#45;&gt;Node3</title>
<g id="a_edge2_Node000002_Node000003"><a xlink:title=" ">
<path fill="none" stroke="#63b8ff" d="M156.14,-113.38C192.37,-103.69 254.89,-86.98 294.16,-76.48"/>
<polygon fill="#63b8ff" stroke="#63b8ff" points="294.84,-79.92 303.6,-73.96 293.03,-73.16 294.84,-79.92"/>
</a>
</g>
</g>
<!-- Node4 -->
<g id="Node000004" class="node">
<title>Node4</title>
<g id="a_Node000004"><a xlink:href="esp__err_8h.html" target="_top" xlink:title=" ">
<polygon fill="white" stroke="#666666" points="199.88,-76 143.38,-76 143.38,-56 199.88,-56 199.88,-76"/>
<text xml:space="preserve" text-anchor="middle" x="171.62" y="-62.5" font-family="Helvetica,sans-Serif" font-size="10.00">esp_err.h</text>
</a>
</g>
</g>
<!-- Node2&#45;&gt;Node4 -->
<g id="edge3_Node000002_Node000004" class="edge">
<title>Node2&#45;&gt;Node4</title>
<g id="a_edge3_Node000002_Node000004"><a xlink:title=" ">
<path fill="none" stroke="#63b8ff" d="M135.29,-111.59C141.22,-104.32 149.61,-94.02 156.84,-85.15"/>
<polygon fill="#63b8ff" stroke="#63b8ff" points="159.49,-87.43 163.09,-77.47 154.06,-83.01 159.49,-87.43"/>
</a>
</g>
</g>
<!-- Node6 -->
<g id="Node000006" class="node">
<title>Node6</title>
<g id="a_Node000006"><a xlink:href="dsp__err__codes_8h.html" target="_top" xlink:title=" ">
<polygon fill="white" stroke="#666666" points="125.62,-76 37.62,-76 37.62,-56 125.62,-56 125.62,-76"/>
<text xml:space="preserve" text-anchor="middle" x="81.62" y="-62.5" font-family="Helvetica,sans-Serif" font-size="10.00">dsp_err_codes.h</text>
</a>
</g>
</g>
<!-- Node2&#45;&gt;Node6 -->
<g id="edge5_Node000002_Node000006" class="edge">
<title>Node2&#45;&gt;Node6</title>
<g id="a_edge5_Node000002_Node000006"><a xlink:title=" ">
<path fill="none" stroke="#63b8ff" d="M119.61,-111.59C113.35,-104.24 104.45,-93.8 96.84,-84.87"/>
<polygon fill="#63b8ff" stroke="#63b8ff" points="99.68,-82.79 90.53,-77.45 94.35,-87.33 99.68,-82.79"/>
</a>
</g>
</g>
<!-- Node5 -->
<g id="Node000005" class="node">
<title>Node5</title>
<g id="a_Node000005"><a xlink:title=" ">
<polygon fill="#e0e0e0" stroke="#999999" points="195.38,-20 147.88,-20 147.88,0 195.38,0 195.38,-20"/>
<text xml:space="preserve" text-anchor="middle" x="171.62" y="-6.5" font-family="Helvetica,sans-Serif" font-size="10.00">stdlib.h</text>
</a>
</g>
</g>
<!-- Node4&#45;&gt;Node5 -->
<g id="edge4_Node000004_Node000005" class="edge">
<title>Node4&#45;&gt;Node5</title>
<g id="a_edge4_Node000004_Node000005"><a xlink:title=" ">
<path fill="none" stroke="#63b8ff" d="M171.62,-55.59C171.62,-49.01 171.62,-39.96 171.62,-31.73"/>
<polygon fill="#63b8ff" stroke="#63b8ff" points="175.13,-31.81 171.63,-21.81 168.13,-31.81 175.13,-31.81"/>
</a>
</g>
</g>
<!-- Node8 -->
<g id="Node000008" class="node">
<title>Node8</title>
<g id="a_Node000008"><a xlink:title=" ">
<polygon fill="#e0e0e0" stroke="#999999" points="81.75,-132 15.5,-132 15.5,-112 81.75,-112 81.75,-132"/>
<text xml:space="preserve" text-anchor="middle" x="48.62" y="-118.5" font-family="Helvetica,sans-Serif" font-size="10.00">sdkconfig.h</text>
</a>
</g>
</g>
<!-- Node7&#45;&gt;Node8 -->
<g id="edge7_Node000007_Node000008" class="edge">
<title>Node7&#45;&gt;Node8</title>
<g id="a_edge7_Node000007_Node000008"><a xlink:title=" ">
<path fill="none" stroke="#63b8ff" d="M49.45,-167.59C49.33,-161.01 49.16,-151.96 49.01,-143.73"/>
<polygon fill="#63b8ff" stroke="#63b8ff" points="52.51,-143.75 48.83,-133.81 45.51,-143.87 52.51,-143.75"/>
</a>
</g>
</g>
<!-- Node9&#45;&gt;Node2 -->
<g id="edge11_Node000009_Node000002" class="edge">
<title>Node9&#45;&gt;Node2</title>
<g id="a_edge11_Node000009_Node000002"><a xlink:title=" ">
<path fill="none" stroke="#63b8ff" d="M243.24,-167.59C220.99,-159.01 187.86,-146.23 162.76,-136.55"/>
<polygon fill="#63b8ff" stroke="#63b8ff" points="164.2,-133.36 153.61,-133.02 161.68,-139.89 164.2,-133.36"/>
</a>
</g>
</g>
<!-- Node9&#45;&gt;Node3 -->
<g id="edge9_Node000009_Node000003" class="edge">
<title>Node9&#45;&gt;Node3</title>
<g id="a_edge9_Node000009_Node000003"><a xlink:title=" ">
<path fill="none" stroke="#63b8ff" d="M305.74,-167.6C324.2,-160.91 344.7,-149.86 355.62,-132 364.71,-117.15 355.49,-98.57 345.6,-85.08"/>
<polygon fill="#63b8ff" stroke="#63b8ff" points="348.48,-83.07 339.49,-77.47 343.02,-87.45 348.48,-83.07"/>
</a>
</g>
</g>
<!-- Node10 -->
<g id="Node000010" class="node">
<title>Node10</title>
<g id="a_Node000010"><a xlink:title=" ">
<polygon fill="#e0e0e0" stroke="#999999" points="458.5,-132 402.75,-132 402.75,-112 458.5,-112 458.5,-132"/>
<text xml:space="preserve" text-anchor="middle" x="430.62" y="-118.5" font-family="Helvetica,sans-Serif" font-size="10.00">stdbool.h</text>
</a>
</g>
</g>
<!-- Node9&#45;&gt;Node10 -->
<g id="edge10_Node000009_Node000010" class="edge">
<title>Node9&#45;&gt;Node10</title>
<g id="a_edge10_Node000009_Node000010"><a xlink:title=" ">
<path fill="none" stroke="#63b8ff" d="M296.02,-167.59C322.47,-158.83 362.13,-145.69 391.56,-135.94"/>
<polygon fill="#63b8ff" stroke="#63b8ff" points="392.46,-139.33 400.85,-132.86 390.25,-132.69 392.46,-139.33"/>
</a>
</g>
</g>
<!-- Node11 -->
<g id="Node000011" class="node">
<title>Node11</title>
<g id="a_Node000011"><a xlink:title=" ">
<polygon fill="#e0e0e0" stroke="#999999" points="266.88,-132 174.38,-132 174.38,-112 266.88,-112 266.88,-132"/>
<text xml:space="preserve" text-anchor="middle" x="220.62" y="-118.5" font-family="Helvetica,sans-Serif" font-size="10.00">esp_idf_version.h</text>
</a>
</g>
</g>
<!-- Node9&#45;&gt;Node11 -->
<g id="edge12_Node000009_Node000011" class="edge">
<title>Node9&#45;&gt;Node11</title>
<g id="a_edge12_Node000009_Node000011"><a xlink:title=" ">
<path fill="none" stroke="#63b8ff" d="M259.44,-167.59C253.04,-160.24 243.95,-149.8 236.17,-140.87"/>
<polygon fill="#63b8ff" stroke="#63b8ff" points="238.92,-138.69 229.71,-133.44 233.64,-143.28 238.92,-138.69"/>
</a>
</g>
</g>
<!-- Node12 -->
<g id="Node000012" class="node">
<title>Node12</title>
<g id="a_Node000012"><a xlink:title=" ">
<polygon fill="#e0e0e0" stroke="#999999" points="346.12,-132 285.12,-132 285.12,-112 346.12,-112 346.12,-132"/>
<text xml:space="preserve" text-anchor="middle" x="315.62" y="-118.5" font-family="Helvetica,sans-Serif" font-size="10.00">x86intrin.h</text>
</a>
</g>
</g>
<!-- Node9&#45;&gt;Node12 -->
<g id="edge13_Node000009_Node000012" class="edge">
<title>Node9&#45;&gt;Node12</title>
<g id="a_edge13_Node000009_Node000012"><a xlink:title=" ">
<path fill="none" stroke="#63b8ff" d="M275.99,-167.59C282.52,-160.24 291.81,-149.8 299.74,-140.87"/>
<polygon fill="#63b8ff" stroke="#63b8ff" points="302.33,-143.23 306.35,-133.43 297.09,-138.58 302.33,-143.23"/>
</a>
</g>
</g>
</g>
</svg>
</svg>

<style type='text/css'>
<![CDATA[
[data-mouse-over-selected='false'] { opacity: 0.7; }
[data-mouse-over-selected='true']  { opacity: 1.0; }
]]>
</style>
<script type="application/ecmascript"><![CDATA[
document.addEventListener('DOMContentLoaded', (event) => {
  highlightEdges();
  highlightAdjacentNodes();
});
]]></script>
</svg>
