<?xml version="1.0" encoding="UTF-8" standalone="no"?>
<!DOCTYPE svg PUBLIC "-//W3C//DTD SVG 1.1//EN"
 "http://www.w3.org/Graphics/SVG/1.1/DTD/svg11.dtd">
<!-- Generated by graphviz version 14.1.2 (20260124.0452)
 -->
<!-- Title: dsps_fft2r_fc32_ansi.c Pages: 1 -->
<!--zoomable 252 -->

<svg id="main" version="1.1" xmlns="http://www.w3.org/2000/svg" xmlns:xlink="http://www.w3.org/1999/xlink" xml:space="preserve" onload="init(evt)">

<style type="text/css"><![CDATA[
.node, .edge {opacity: 0.7;}
.node.selected, .edge.selected {opacity: 1;}
.edge:hover path { stroke: red; }
.edge:hover polygon { stroke: red; fill: red; }
]]></style>

<defs>
  <circle id="rim" cx="0" cy="0" r="7"/>
  <circle id="rim2" cx="0" cy="0" r="3.5"/>
  <g id="zoomPlus">
    <use xlink:href="#rim" fill="#404040"><set attributeName="fill" to="#808080" begin="zoomplus.mouseover" end="zoomplus.mouseout"/></use>
    <path d="M-4,0h8M0,-4v8" fill="none" stroke="white" stroke-width="1.5" pointer-events="none"/>
  </g>
  <g id="zoomMin">
    <use xlink:href="#rim" fill="#404040"><set attributeName="fill" to="#808080" begin="zoomminus.mouseover" end="zoomminus.mouseout"/></use>
    <path d="M-4,0h8" fill="none" stroke="white" stroke-width="1.5" pointer-events="none"/>
  </g>
  <g id="arrowUp" transform="translate(30 24)">
    <use xlink:href="#rim"/>
    <path pointer-events="none" fill="none" stroke="white" stroke-width="1.5" d="M0,-3.0v7 M-2.5,-0.5L0,-3.0L2.5,-0.5"/>
  </g>
  <g id="arrowRight" transform="rotate(90) translate(36 -43)">
    <use xlink:href="#rim"/>
    <path pointer-events="none" fill="none" stroke="white" stroke-width="1.5" d="M0,-3.0v7 M-2.5,-0.5L0,-3.0L2.5,-0.5"/>
  </g>
  <g id="arrowDown" transform="rotate(180) translate(-30 -48)">
    <use xlink:href="#rim"/>
    <path pointer-events="none" fill="none" stroke="white" stroke-width="1.5" d="M0,-3.0v7 M-2.5,-0.5L0,-3.0L2.5,-0.5"/>
  </g>
  <g id="arrowLeft" transform="rotate(270) translate(-36 17)">
    <use xlink:href="#rim"/>
    <path pointer-events="none" fill="none" stroke="white" stroke-width="1.5" d="M0,-3.0v7 M-2.5,-0.5L0,-3.0L2.5,-0.5"/>
  </g>
  <g id="resetDef">
    <use xlink:href="#rim2" fill="#404040"><set attributeName="fill" to="#808080" begin="reset.mouseover" end="reset.mouseout"/></use>
  </g>
</defs>
<script type="application/ecmascript">
var viewWidth = 945;
var viewHeight = 252;
var sectionId = 'dynsection-0';
</script>
<script type="application/ecmascript" xlink:href="svg.min.js"/>
<svg id="graph" class="graph">
<g id="viewport">
<title>dsps_fft2r_fc32_ansi.c</title>
<!-- Node1 -->
<g id="Node000001" class="node">
<title>Node1</title>
<g id="a_Node000001"><a xlink:title=" ">
<polygon fill="#999999" stroke="#666666" points="752.25,-244 638,-244 638,-224 752.25,-224 752.25,-244"/>
<text xml:space="preserve" text-anchor="middle" x="695.12" y="-230.5" font-family="Helvetica,sans-Serif" font-size="10.00">dsps_fft2r_fc32_ansi.c</text>
</a>
</g>
</g>
<!-- Node2 -->
<g id="Node000002" class="node">
<title>Node2</title>
<g id="a_Node000002"><a xlink:href="dsps__fft2r_8h.html" target="_top" xlink:title=" ">
<polygon fill="white" stroke="#666666" points="277.62,-188 210.62,-188 210.62,-168 277.62,-168 277.62,-188"/>
<text xml:space="preserve" text-anchor="middle" x="244.12" y="-174.5" font-family="Helvetica,sans-Serif" font-size="10.00">dsps_fft2r.h</text>
</a>
</g>
</g>
<!-- Node1&#45;&gt;Node2 -->
<g id="edge1_Node000001_Node000002" class="edge">
<title>Node1&#45;&gt;Node2</title>
<g id="a_edge1_Node000001_Node000002"><a xlink:title=" ">
<path fill="none" stroke="#63b8ff" d="M637.55,-226.11C546.58,-215.21 371.5,-194.25 289.1,-184.38"/>
<polygon fill="#63b8ff" stroke="#63b8ff" points="289.72,-180.93 279.37,-183.22 288.88,-187.88 289.72,-180.93"/>
</a>
</g>
</g>
<!-- Node11 -->
<g id="Node000011" class="node">
<title>Node11</title>
<g id="a_Node000011"><a xlink:href="dsp__common_8h.html" target="_top" xlink:title=" ">
<polygon fill="white" stroke="#666666" points="504.5,-188 421.75,-188 421.75,-168 504.5,-168 504.5,-188"/>
<text xml:space="preserve" text-anchor="middle" x="463.12" y="-174.5" font-family="Helvetica,sans-Serif" font-size="10.00">dsp_common.h</text>
</a>
</g>
</g>
<!-- Node1&#45;&gt;Node11 -->
<g id="edge11_Node000001_Node000011" class="edge">
<title>Node1&#45;&gt;Node11</title>
<g id="a_edge11_Node000001_Node000011"><a xlink:title=" ">
<path fill="none" stroke="#63b8ff" d="M654.45,-223.53C615.64,-214.5 557.02,-200.85 514.9,-191.05"/>
<polygon fill="#63b8ff" stroke="#63b8ff" points="515.76,-187.66 505.23,-188.8 514.18,-194.48 515.76,-187.66"/>
</a>
</g>
</g>
<!-- Node15 -->
<g id="Node000015" class="node">
<title>Node15</title>
<g id="a_Node000015"><a xlink:href="dsp__types_8h.html" target="_top" xlink:title=" ">
<polygon fill="white" stroke="#666666" points="618.75,-188 549.5,-188 549.5,-168 618.75,-168 618.75,-188"/>
<text xml:space="preserve" text-anchor="middle" x="584.12" y="-174.5" font-family="Helvetica,sans-Serif" font-size="10.00">dsp_types.h</text>
</a>
</g>
</g>
<!-- Node1&#45;&gt;Node15 -->
<g id="edge17_Node000001_Node000015" class="edge">
<title>Node1&#45;&gt;Node15</title>
<g id="a_edge17_Node000001_Node000015"><a xlink:title=" ">
<path fill="none" stroke="#63b8ff" d="M675.79,-223.59C658.71,-215.28 633.52,-203.03 613.87,-193.47"/>
<polygon fill="#63b8ff" stroke="#63b8ff" points="615.5,-190.37 604.97,-189.14 612.43,-196.66 615.5,-190.37"/>
</a>
</g>
</g>
<!-- Node17 -->
<g id="Node000017" class="node">
<title>Node17</title>
<g id="a_Node000017"><a xlink:title=" ">
<polygon fill="#e0e0e0" stroke="#999999" points="683.12,-188 637.12,-188 637.12,-168 683.12,-168 683.12,-188"/>
<text xml:space="preserve" text-anchor="middle" x="660.12" y="-174.5" font-family="Helvetica,sans-Serif" font-size="10.00">math.h</text>
</a>
</g>
</g>
<!-- Node1&#45;&gt;Node17 -->
<g id="edge21_Node000001_Node000017" class="edge">
<title>Node1&#45;&gt;Node17</title>
<g id="a_edge21_Node000001_Node000017"><a xlink:title=" ">
<path fill="none" stroke="#63b8ff" d="M689.03,-223.59C684.41,-216.47 677.92,-206.45 672.26,-197.72"/>
<polygon fill="#63b8ff" stroke="#63b8ff" points="675.35,-196.06 666.97,-189.57 669.48,-199.86 675.35,-196.06"/>
</a>
</g>
</g>
<!-- Node18 -->
<g id="Node000018" class="node">
<title>Node18</title>
<g id="a_Node000018"><a xlink:href="esp__attr_8h.html" target="_top" xlink:title=" ">
<polygon fill="white" stroke="#666666" points="760.88,-188 701.38,-188 701.38,-168 760.88,-168 760.88,-188"/>
<text xml:space="preserve" text-anchor="middle" x="731.12" y="-174.5" font-family="Helvetica,sans-Serif" font-size="10.00">esp_attr.h</text>
</a>
</g>
</g>
<!-- Node1&#45;&gt;Node18 -->
<g id="edge22_Node000001_Node000018" class="edge">
<title>Node1&#45;&gt;Node18</title>
<g id="a_edge22_Node000001_Node000018"><a xlink:title=" ">
<path fill="none" stroke="#63b8ff" d="M701.4,-223.59C706.14,-216.47 712.82,-206.45 718.65,-197.72"/>
<polygon fill="#63b8ff" stroke="#63b8ff" points="721.45,-199.82 724.09,-189.56 715.63,-195.94 721.45,-199.82"/>
</a>
</g>
</g>
<!-- Node19 -->
<g id="Node000019" class="node">
<title>Node19</title>
<g id="a_Node000019"><a xlink:href="esp__log_8h.html" target="_top" xlink:title=" ">
<polygon fill="white" stroke="#666666" points="680.12,-76 622.12,-76 622.12,-56 680.12,-56 680.12,-76"/>
<text xml:space="preserve" text-anchor="middle" x="651.12" y="-62.5" font-family="Helvetica,sans-Serif" font-size="10.00">esp_log.h</text>
</a>
</g>
</g>
<!-- Node1&#45;&gt;Node19 -->
<g id="edge23_Node000001_Node000019" class="edge">
<title>Node1&#45;&gt;Node19</title>
<g id="a_edge23_Node000001_Node000019"><a xlink:title=" ">
<path fill="none" stroke="#63b8ff" d="M724.68,-223.51C741.21,-216.51 760.4,-205.18 770.12,-188 774.5,-180.26 772.79,-176.48 770.12,-168 761.04,-139.06 753.58,-132.39 731.12,-112 717.32,-99.46 699.43,-88.99 684.06,-81.31"/>
<polygon fill="#63b8ff" stroke="#63b8ff" points="685.81,-78.26 675.28,-77.1 682.78,-84.57 685.81,-78.26"/>
</a>
</g>
</g>
<!-- Node20 -->
<g id="Node000020" class="node">
<title>Node20</title>
<g id="a_Node000020"><a xlink:title=" ">
<polygon fill="#e0e0e0" stroke="#999999" points="865.25,-188 817,-188 817,-168 865.25,-168 865.25,-188"/>
<text xml:space="preserve" text-anchor="middle" x="841.12" y="-174.5" font-family="Helvetica,sans-Serif" font-size="10.00">string.h</text>
</a>
</g>
</g>
<!-- Node1&#45;&gt;Node20 -->
<g id="edge25_Node000001_Node000020" class="edge">
<title>Node1&#45;&gt;Node20</title>
<g id="a_edge25_Node000001_Node000020"><a xlink:title=" ">
<path fill="none" stroke="#63b8ff" d="M720.56,-223.59C744.29,-214.82 779.91,-201.64 806.28,-191.89"/>
<polygon fill="#63b8ff" stroke="#63b8ff" points="807.37,-195.22 815.54,-188.46 804.94,-188.65 807.37,-195.22"/>
</a>
</g>
</g>
<!-- Node21 -->
<g id="Node000021" class="node">
<title>Node21</title>
<g id="a_Node000021"><a xlink:title=" ">
<polygon fill="#e0e0e0" stroke="#999999" points="936.5,-188 883.75,-188 883.75,-168 936.5,-168 936.5,-188"/>
<text xml:space="preserve" text-anchor="middle" x="910.12" y="-174.5" font-family="Helvetica,sans-Serif" font-size="10.00">malloc.h</text>
</a>
</g>
</g>
<!-- Node1&#45;&gt;Node21 -->
<g id="edge26_Node000001_Node000021" class="edge">
<title>Node1&#45;&gt;Node21</title>
<g id="a_edge26_Node000001_Node000021"><a xlink:title=" ">
<path fill="none" stroke="#63b8ff" d="M732.58,-223.59C771.78,-213.75 832.99,-198.37 872.32,-188.49"/>
<polygon fill="#63b8ff" stroke="#63b8ff" points="872.98,-191.94 881.82,-186.11 871.27,-185.15 872.98,-191.94"/>
</a>
</g>
</g>
<!-- Node3 -->
<g id="Node000003" class="node">
<title>Node3</title>
<g id="a_Node000003"><a xlink:href="dsp__err_8h.html" target="_top" xlink:title=" ">
<polygon fill="white" stroke="#666666" points="328.38,-132 271.88,-132 271.88,-112 328.38,-112 328.38,-132"/>
<text xml:space="preserve" text-anchor="middle" x="300.12" y="-118.5" font-family="Helvetica,sans-Serif" font-size="10.00">dsp_err.h</text>
</a>
</g>
</g>
<!-- Node2&#45;&gt;Node3 -->
<g id="edge2_Node000002_Node000003" class="edge">
<title>Node2&#45;&gt;Node3</title>
<g id="a_edge2_Node000002_Node000003"><a xlink:title=" ">
<path fill="none" stroke="#63b8ff" d="M253.88,-167.59C261.75,-160.01 273.02,-149.13 282.47,-140.02"/>
<polygon fill="#63b8ff" stroke="#63b8ff" points="284.62,-142.81 289.39,-133.35 279.76,-137.77 284.62,-142.81"/>
</a>
</g>
</g>
<!-- Node8 -->
<g id="Node000008" class="node">
<title>Node8</title>
<g id="a_Node000008"><a xlink:title=" ">
<polygon fill="#e0e0e0" stroke="#999999" points="217.25,-76 151,-76 151,-56 217.25,-56 217.25,-76"/>
<text xml:space="preserve" text-anchor="middle" x="184.12" y="-62.5" font-family="Helvetica,sans-Serif" font-size="10.00">sdkconfig.h</text>
</a>
</g>
</g>
<!-- Node2&#45;&gt;Node8 -->
<g id="edge7_Node000002_Node000008" class="edge">
<title>Node2&#45;&gt;Node8</title>
<g id="a_edge7_Node000002_Node000008"><a xlink:title=" ">
<path fill="none" stroke="#63b8ff" d="M242.76,-167.66C240.55,-154.54 235.37,-130.25 225.12,-112 219.41,-101.82 211,-92.05 203.27,-84.23"/>
<polygon fill="#63b8ff" stroke="#63b8ff" points="205.76,-81.76 196.12,-77.36 200.91,-86.81 205.76,-81.76"/>
</a>
</g>
</g>
<!-- Node9 -->
<g id="Node000009" class="node">
<title>Node9</title>
<g id="a_Node000009"><a xlink:href="dsps__fft__tables_8h.html" target="_top" xlink:title=" ">
<polygon fill="white" stroke="#666666" points="90.25,-132 0,-132 0,-112 90.25,-112 90.25,-132"/>
<text xml:space="preserve" text-anchor="middle" x="45.12" y="-118.5" font-family="Helvetica,sans-Serif" font-size="10.00">dsps_fft_tables.h</text>
</a>
</g>
</g>
<!-- Node2&#45;&gt;Node9 -->
<g id="edge8_Node000002_Node000009" class="edge">
<title>Node2&#45;&gt;Node9</title>
<g id="a_edge8_Node000002_Node000009"><a xlink:title=" ">
<path fill="none" stroke="#63b8ff" d="M210.37,-167.84C177.51,-158.92 127.33,-145.31 90.89,-135.42"/>
<polygon fill="#63b8ff" stroke="#63b8ff" points="92.08,-132.12 81.51,-132.87 90.25,-138.87 92.08,-132.12"/>
</a>
</g>
</g>
<!-- Node10 -->
<g id="Node000010" class="node">
<title>Node10</title>
<g id="a_Node000010"><a xlink:href="dsps__fft2r__platform_8h.html" target="_top" xlink:title=" ">
<polygon fill="white" stroke="#666666" points="215.88,-132 108.38,-132 108.38,-112 215.88,-112 215.88,-132"/>
<text xml:space="preserve" text-anchor="middle" x="162.12" y="-118.5" font-family="Helvetica,sans-Serif" font-size="10.00">dsps_fft2r_platform.h</text>
</a>
</g>
</g>
<!-- Node2&#45;&gt;Node10 -->
<g id="edge9_Node000002_Node000010" class="edge">
<title>Node2&#45;&gt;Node10</title>
<g id="a_edge9_Node000002_Node000010"><a xlink:title=" ">
<path fill="none" stroke="#63b8ff" d="M229.84,-167.59C217.69,-159.59 199.99,-147.93 185.73,-138.54"/>
<polygon fill="#63b8ff" stroke="#63b8ff" points="188.06,-135.89 177.78,-133.31 184.21,-141.73 188.06,-135.89"/>
</a>
</g>
</g>
<!-- Node4 -->
<g id="Node000004" class="node">
<title>Node4</title>
<g id="a_Node000004"><a xlink:title=" ">
<polygon fill="#e0e0e0" stroke="#999999" points="472.25,-76 424,-76 424,-56 472.25,-56 472.25,-76"/>
<text xml:space="preserve" text-anchor="middle" x="448.12" y="-62.5" font-family="Helvetica,sans-Serif" font-size="10.00">stdint.h</text>
</a>
</g>
</g>
<!-- Node3&#45;&gt;Node4 -->
<g id="edge3_Node000003_Node000004" class="edge">
<title>Node3&#45;&gt;Node4</title>
<g id="a_edge3_Node000003_Node000004"><a xlink:title=" ">
<path fill="none" stroke="#63b8ff" d="M325.9,-111.59C350.07,-102.78 386.39,-89.53 413.16,-79.76"/>
<polygon fill="#63b8ff" stroke="#63b8ff" points="414.01,-83.17 422.2,-76.46 411.61,-76.6 414.01,-83.17"/>
</a>
</g>
</g>
<!-- Node5 -->
<g id="Node000005" class="node">
<title>Node5</title>
<g id="a_Node000005"><a xlink:href="esp__err_8h.html" target="_top" xlink:title=" ">
<polygon fill="white" stroke="#666666" points="406.38,-76 349.88,-76 349.88,-56 406.38,-56 406.38,-76"/>
<text xml:space="preserve" text-anchor="middle" x="378.12" y="-62.5" font-family="Helvetica,sans-Serif" font-size="10.00">esp_err.h</text>
</a>
</g>
</g>
<!-- Node3&#45;&gt;Node5 -->
<g id="edge4_Node000003_Node000005" class="edge">
<title>Node3&#45;&gt;Node5</title>
<g id="a_edge4_Node000003_Node000005"><a xlink:title=" ">
<path fill="none" stroke="#63b8ff" d="M313.71,-111.59C325.16,-103.67 341.79,-92.16 355.28,-82.82"/>
<polygon fill="#63b8ff" stroke="#63b8ff" points="356.96,-85.91 363.19,-77.34 352.97,-80.16 356.96,-85.91"/>
</a>
</g>
</g>
<!-- Node7 -->
<g id="Node000007" class="node">
<title>Node7</title>
<g id="a_Node000007"><a xlink:href="dsp__err__codes_8h.html" target="_top" xlink:title=" ">
<polygon fill="white" stroke="#666666" points="332.12,-76 244.12,-76 244.12,-56 332.12,-56 332.12,-76"/>
<text xml:space="preserve" text-anchor="middle" x="288.12" y="-62.5" font-family="Helvetica,sans-Serif" font-size="10.00">dsp_err_codes.h</text>
</a>
</g>
</g>
<!-- Node3&#45;&gt;Node7 -->
<g id="edge6_Node000003_Node000007" class="edge">
<title>Node3&#45;&gt;Node7</title>
<g id="a_edge6_Node000003_Node000007"><a xlink:title=" ">
<path fill="none" stroke="#63b8ff" d="M298.03,-111.59C296.55,-104.93 294.51,-95.75 292.67,-87.44"/>
<polygon fill="#63b8ff" stroke="#63b8ff" points="296.11,-86.78 290.52,-77.78 289.27,-88.3 296.11,-86.78"/>
</a>
</g>
</g>
<!-- Node6 -->
<g id="Node000006" class="node">
<title>Node6</title>
<g id="a_Node000006"><a xlink:title=" ">
<polygon fill="#e0e0e0" stroke="#999999" points="537.88,-20 490.38,-20 490.38,0 537.88,0 537.88,-20"/>
<text xml:space="preserve" text-anchor="middle" x="514.12" y="-6.5" font-family="Helvetica,sans-Serif" font-size="10.00">stdlib.h</text>
</a>
</g>
</g>
<!-- Node5&#45;&gt;Node6 -->
<g id="edge5_Node000005_Node000006" class="edge">
<title>Node5&#45;&gt;Node6</title>
<g id="a_edge5_Node000005_Node000006"><a xlink:title=" ">
<path fill="none" stroke="#63b8ff" d="M401.81,-55.59C423.33,-47.05 455.33,-34.35 479.67,-24.68"/>
<polygon fill="#63b8ff" stroke="#63b8ff" points="480.84,-27.98 488.84,-21.04 478.26,-21.48 480.84,-27.98"/>
</a>
</g>
</g>
<!-- Node10&#45;&gt;Node8 -->
<g id="edge10_Node000010_Node000008" class="edge">
<title>Node10&#45;&gt;Node8</title>
<g id="a_edge10_Node000010_Node000008"><a xlink:title=" ">
<path fill="none" stroke="#63b8ff" d="M165.96,-111.59C168.73,-104.78 172.59,-95.32 176.03,-86.86"/>
<polygon fill="#63b8ff" stroke="#63b8ff" points="179.23,-88.28 179.77,-77.7 172.75,-85.64 179.23,-88.28"/>
</a>
</g>
</g>
<!-- Node11&#45;&gt;Node3 -->
<g id="edge14_Node000011_Node000003" class="edge">
<title>Node11&#45;&gt;Node3</title>
<g id="a_edge14_Node000011_Node000003"><a xlink:title=" ">
<path fill="none" stroke="#63b8ff" d="M434.73,-167.59C408.37,-158.86 368.86,-145.77 339.46,-136.03"/>
<polygon fill="#63b8ff" stroke="#63b8ff" points="340.77,-132.78 330.18,-132.96 338.57,-139.42 340.77,-132.78"/>
</a>
</g>
</g>
<!-- Node11&#45;&gt;Node4 -->
<g id="edge12_Node000011_Node000004" class="edge">
<title>Node11&#45;&gt;Node4</title>
<g id="a_edge12_Node000011_Node000004"><a xlink:title=" ">
<path fill="none" stroke="#63b8ff" d="M461.28,-167.72C459.53,-158.64 456.89,-144.41 455.12,-132 453.01,-117.17 451.22,-100.35 449.97,-87.54"/>
<polygon fill="#63b8ff" stroke="#63b8ff" points="453.48,-87.42 449.06,-77.79 446.51,-88.07 453.48,-87.42"/>
</a>
</g>
</g>
<!-- Node12 -->
<g id="Node000012" class="node">
<title>Node12</title>
<g id="a_Node000012"><a xlink:title=" ">
<polygon fill="#e0e0e0" stroke="#999999" points="630,-132 574.25,-132 574.25,-112 630,-112 630,-132"/>
<text xml:space="preserve" text-anchor="middle" x="602.12" y="-118.5" font-family="Helvetica,sans-Serif" font-size="10.00">stdbool.h</text>
</a>
</g>
</g>
<!-- Node11&#45;&gt;Node12 -->
<g id="edge13_Node000011_Node000012" class="edge">
<title>Node11&#45;&gt;Node12</title>
<g id="a_edge13_Node000011_Node000012"><a xlink:title=" ">
<path fill="none" stroke="#63b8ff" d="M487.34,-167.59C509.43,-159.01 542.32,-146.23 567.25,-136.55"/>
<polygon fill="#63b8ff" stroke="#63b8ff" points="568.26,-139.91 576.31,-133.03 565.72,-133.39 568.26,-139.91"/>
</a>
</g>
</g>
<!-- Node13 -->
<g id="Node000013" class="node">
<title>Node13</title>
<g id="a_Node000013"><a xlink:title=" ">
<polygon fill="#e0e0e0" stroke="#999999" points="556.38,-132 463.88,-132 463.88,-112 556.38,-112 556.38,-132"/>
<text xml:space="preserve" text-anchor="middle" x="510.12" y="-118.5" font-family="Helvetica,sans-Serif" font-size="10.00">esp_idf_version.h</text>
</a>
</g>
</g>
<!-- Node11&#45;&gt;Node13 -->
<g id="edge15_Node000011_Node000013" class="edge">
<title>Node11&#45;&gt;Node13</title>
<g id="a_edge15_Node000011_Node000013"><a xlink:title=" ">
<path fill="none" stroke="#63b8ff" d="M471.31,-167.59C477.71,-160.24 486.8,-149.8 494.58,-140.87"/>
<polygon fill="#63b8ff" stroke="#63b8ff" points="497.11,-143.28 501.04,-133.44 491.83,-138.69 497.11,-143.28"/>
</a>
</g>
</g>
<!-- Node14 -->
<g id="Node000014" class="node">
<title>Node14</title>
<g id="a_Node000014"><a xlink:title=" ">
<polygon fill="#e0e0e0" stroke="#999999" points="407.62,-132 346.62,-132 346.62,-112 407.62,-112 407.62,-132"/>
<text xml:space="preserve" text-anchor="middle" x="377.12" y="-118.5" font-family="Helvetica,sans-Serif" font-size="10.00">x86intrin.h</text>
</a>
</g>
</g>
<!-- Node11&#45;&gt;Node14 -->
<g id="edge16_Node000011_Node000014" class="edge">
<title>Node11&#45;&gt;Node14</title>
<g id="a_edge16_Node000011_Node000014"><a xlink:title=" ">
<path fill="none" stroke="#63b8ff" d="M448.14,-167.59C435.4,-159.59 416.83,-147.93 401.88,-138.54"/>
<polygon fill="#63b8ff" stroke="#63b8ff" points="403.83,-135.64 393.5,-133.28 400.11,-141.57 403.83,-135.64"/>
</a>
</g>
</g>
<!-- Node15&#45;&gt;Node4 -->
<g id="edge18_Node000015_Node000004" class="edge">
<title>Node15&#45;&gt;Node4</title>
<g id="a_edge18_Node000015_Node000004"><a xlink:title=" ">
<path fill="none" stroke="#63b8ff" d="M619.24,-169.74C654.05,-161.75 703.77,-147.9 715.12,-132 720.29,-124.77 720.86,-118.79 715.12,-112 685.91,-77.45 549.64,-69.41 483.85,-67.55"/>
<polygon fill="#63b8ff" stroke="#63b8ff" points="484.02,-64.06 473.94,-67.31 483.85,-71.06 484.02,-64.06"/>
</a>
</g>
</g>
<!-- Node15&#45;&gt;Node12 -->
<g id="edge19_Node000015_Node000012" class="edge">
<title>Node15&#45;&gt;Node12</title>
<g id="a_edge19_Node000015_Node000012"><a xlink:title=" ">
<path fill="none" stroke="#63b8ff" d="M587.26,-167.59C589.51,-160.86 592.61,-151.53 595.41,-143.15"/>
<polygon fill="#63b8ff" stroke="#63b8ff" points="598.7,-144.33 598.55,-133.73 592.06,-142.11 598.7,-144.33"/>
</a>
</g>
</g>
<!-- Node16 -->
<g id="Node000016" class="node">
<title>Node16</title>
<g id="a_Node000016"><a xlink:title=" ">
<polygon fill="#e0e0e0" stroke="#999999" points="706.5,-132 647.75,-132 647.75,-112 706.5,-112 706.5,-132"/>
<text xml:space="preserve" text-anchor="middle" x="677.12" y="-118.5" font-family="Helvetica,sans-Serif" font-size="10.00">inttypes.h</text>
</a>
</g>
</g>
<!-- Node15&#45;&gt;Node16 -->
<g id="edge20_Node000015_Node000016" class="edge">
<title>Node15&#45;&gt;Node16</title>
<g id="a_edge20_Node000015_Node000016"><a xlink:title=" ">
<path fill="none" stroke="#63b8ff" d="M600.32,-167.59C614.37,-159.44 634.96,-147.48 651.28,-138"/>
<polygon fill="#63b8ff" stroke="#63b8ff" points="652.6,-141.29 659.49,-133.24 649.08,-135.23 652.6,-141.29"/>
</a>
</g>
</g>
<!-- Node19&#45;&gt;Node6 -->
<g id="edge24_Node000019_Node000006" class="edge">
<title>Node19&#45;&gt;Node6</title>
<g id="a_edge24_Node000019_Node000006"><a xlink:title=" ">
<path fill="none" stroke="#63b8ff" d="M627.26,-55.59C605.59,-47.05 573.36,-34.35 548.83,-24.68"/>
<polygon fill="#63b8ff" stroke="#63b8ff" points="550.17,-21.45 539.58,-21.03 547.6,-27.96 550.17,-21.45"/>
</a>
</g>
</g>
</g>
</svg>

<g id="navigator" transform="translate(0 0)" fill="#404254">
  <rect fill="#f2f5e9" fill-opacity="0.5" stroke="#606060" stroke-width=".5" x="0" y="0" width="60" height="60"/>
  <use id="zoomplus" xlink:href="#zoomPlus" x="17" y="9" onmousedown="handleZoom(evt,'in')"/>
  <use id="zoomminus" xlink:href="#zoomMin" x="42" y="9" onmousedown="handleZoom(evt,'out')"/>
  <use id="reset" xlink:href="#resetDef" x="30" y="36" onmousedown="handleReset()"/>
   <use id="arrowup" xlink:href="#arrowUp" x="0" y="0" onmousedown="handlePan(0,-1)"/>
  <use id="arrowright" xlink:href="#arrowRight" x="0" y="0" onmousedown="handlePan(1,0)"/>
  <use id="arrowdown" xlink:href="#arrowDown" x="0" y="0" onmousedown="handlePan(0,1)"/>
  <use id="arrowleft" xlink:href="#arrowLeft" x="0" y="0" onmousedown="handlePan(-1,0)"/>
</g>
<svg viewBox="0 0 15 15" width="100%" height="30px" preserveAspectRatio="xMaxYMin meet">
 <g id="arrow_out" transform="scale(0.3 0.3)">
  <a xlink:href="dsps__fft2r__fc32__ansi_8c__incl_org.svg" target="_base">
   <rect id="button" ry="5" rx="5" y="6" x="6" height="38" width="38"
        fill="#f2f5e9" fill-opacity="0.5" stroke="#606060" stroke-width="1.0"/>
   <path id="arrow"
     d="M 11.500037,31.436501 C 11.940474,20.09759 22.043105,11.32322 32.158766,21.979434 L 37.068811,17.246167 C 37.068811,17.246167 37.088388,32 37.088388,32 L 22.160133,31.978069 C 22.160133,31.978069 26.997745,27.140456 26.997745,27.140456 C 18.528582,18.264221 13.291696,25.230495 11.500037,31.436501 z"
     style="fill:#404040;"/>
  </a>
 </g>
</svg>

<style type='text/css'>
<![CDATA[
[data-mouse-over-selected='false'] { opacity: 0.7; }
[data-mouse-over-selected='true']  { opacity: 1.0; }
]]>
</style>
<script type="application/ecmascript"><![CDATA[
document.addEventListener('DOMContentLoaded', (event) => {
  highlightEdges();
  highlightAdjacentNodes();
});
]]></script>
</svg>
