<?xml version="1.0" encoding="UTF-8" standalone="no"?>
<!DOCTYPE svg PUBLIC "-//W3C//DTD SVG 1.1//EN"
 "http://www.w3.org/Graphics/SVG/1.1/DTD/svg11.dtd">
<!-- Generated by graphviz version 14.1.2 (20260124.0452)
 -->
<!-- Title: dsps_fft2r_sc16_ansi_ Pages: 1 -->
<svg width="268pt" height="180pt"
 viewBox="0.00 0.00 268.00 180.00" xmlns="http://www.w3.org/2000/svg" xmlns:xlink="http://www.w3.org/1999/xlink">

<svg id="main" version="1.1" xmlns="http://www.w3.org/2000/svg" xmlns:xlink="http://www.w3.org/1999/xlink" xml:space="preserve">

<style type="text/css"><![CDATA[
.node, .edge {opacity: 0.7;}
.node.selected, .edge.selected {opacity: 1;}
.edge:hover path { stroke: red; }
.edge:hover polygon { stroke: red; fill: red; }
]]></style>
<script type="application/ecmascript" xlink:href="svg.min.js"/>
<svg id="graph" class="graph">
<g id="graph0" class="graph" transform="scale(1 1) rotate(0) translate(4 176)">
<title>dsps_fft2r_sc16_ansi_</title>
<!-- Node1 -->
<g id="Node000001" class="node">
<title>Node1</title>
<g id="a_Node000001"><a xlink:title=" ">
<polygon fill="#999999" stroke="#666666" points="113.5,-96 0,-96 0,-76 113.5,-76 113.5,-96"/>
<text xml:space="preserve" text-anchor="middle" x="56.75" y="-82.5" font-family="Helvetica,sans-Serif" font-size="10.00">dsps_fft2r_sc16_ansi_</text>
</a>
</g>
</g>
<!-- Node2 -->
<g id="Node000002" class="node">
<title>Node2</title>
<g id="a_Node000002"><a xlink:href="test__fft2r_8c.html#a0dc0b4dd19d7ebd2f69bfb0c1a6f85da" target="_top" xlink:title="check power of two The function check if the argument is power of 2. The implementation use ANSI C an...">
<polygon fill="white" stroke="#666666" points="260,-172 149.5,-172 149.5,-152 260,-152 260,-172"/>
<text xml:space="preserve" text-anchor="middle" x="204.75" y="-158.5" font-family="Helvetica,sans-Serif" font-size="10.00">dsp_is_power_of_two</text>
</a>
</g>
</g>
<!-- Node1&#45;&gt;Node2 -->
<g id="edge1_Node000001_Node000002" class="edge">
<title>Node1&#45;&gt;Node2</title>
<g id="a_edge1_Node000001_Node000002"><a xlink:title=" ">
<path fill="none" stroke="#63b8ff" d="M72.12,-96.32C89.72,-108.62 120.74,-129.24 149.5,-143 152.79,-144.57 156.24,-146.08 159.74,-147.52"/>
<polygon fill="#63b8ff" stroke="#63b8ff" points="158.29,-150.71 168.88,-151.03 160.8,-144.18 158.29,-150.71"/>
</a>
</g>
</g>
<!-- Node3 -->
<g id="Node000003" class="node">
<title>Node3</title>
<g id="a_Node000003"><a xlink:href="dsps__fft2r__sc16__ansi_8c.html#ac91c55de4ce9256978db7f5a7458934d" target="_top" xlink:title=" ">
<polygon fill="white" stroke="#666666" points="239.38,-134 170.12,-134 170.12,-114 239.38,-114 239.38,-134"/>
<text xml:space="preserve" text-anchor="middle" x="204.75" y="-120.5" font-family="Helvetica,sans-Serif" font-size="10.00">xtfixed_bf_1</text>
</a>
</g>
</g>
<!-- Node1&#45;&gt;Node3 -->
<g id="edge2_Node000001_Node000003" class="edge">
<title>Node1&#45;&gt;Node3</title>
<g id="a_edge2_Node000001_Node000003"><a xlink:title=" ">
<path fill="none" stroke="#63b8ff" d="M98.03,-96.48C116.94,-101.41 139.54,-107.29 158.99,-112.35"/>
<polygon fill="#63b8ff" stroke="#63b8ff" points="157.99,-115.71 168.55,-114.84 159.76,-108.93 157.99,-115.71"/>
</a>
</g>
</g>
<!-- Node4 -->
<g id="Node000004" class="node">
<title>Node4</title>
<g id="a_Node000004"><a xlink:href="dsps__fft2r__sc16__ansi_8c.html#a61175e204ea9cc4392f63531f62e725e" target="_top" xlink:title=" ">
<polygon fill="white" stroke="#666666" points="239.38,-96 170.12,-96 170.12,-76 239.38,-76 239.38,-96"/>
<text xml:space="preserve" text-anchor="middle" x="204.75" y="-82.5" font-family="Helvetica,sans-Serif" font-size="10.00">xtfixed_bf_2</text>
</a>
</g>
</g>
<!-- Node1&#45;&gt;Node4 -->
<g id="edge3_Node000001_Node000004" class="edge">
<title>Node1&#45;&gt;Node4</title>
<g id="a_edge3_Node000001_Node000004"><a xlink:title=" ">
<path fill="none" stroke="#63b8ff" d="M113.78,-86C128.61,-86 144.42,-86 158.59,-86"/>
<polygon fill="#63b8ff" stroke="#63b8ff" points="158.53,-89.5 168.53,-86 158.53,-82.5 158.53,-89.5"/>
</a>
</g>
</g>
<!-- Node5 -->
<g id="Node000005" class="node">
<title>Node5</title>
<g id="a_Node000005"><a xlink:href="dsps__fft2r__sc16__ansi_8c.html#ab039200a07f9f0929f7d8b0bd2d1da07" target="_top" xlink:title=" ">
<polygon fill="white" stroke="#666666" points="239.38,-58 170.12,-58 170.12,-38 239.38,-38 239.38,-58"/>
<text xml:space="preserve" text-anchor="middle" x="204.75" y="-44.5" font-family="Helvetica,sans-Serif" font-size="10.00">xtfixed_bf_3</text>
</a>
</g>
</g>
<!-- Node1&#45;&gt;Node5 -->
<g id="edge4_Node000001_Node000005" class="edge">
<title>Node1&#45;&gt;Node5</title>
<g id="a_edge4_Node000001_Node000005"><a xlink:title=" ">
<path fill="none" stroke="#63b8ff" d="M98.03,-75.52C116.94,-70.59 139.54,-64.71 158.99,-59.65"/>
<polygon fill="#63b8ff" stroke="#63b8ff" points="159.76,-63.07 168.55,-57.16 157.99,-56.29 159.76,-63.07"/>
</a>
</g>
</g>
<!-- Node6 -->
<g id="Node000006" class="node">
<title>Node6</title>
<g id="a_Node000006"><a xlink:href="dsps__fft2r__sc16__ansi_8c.html#a9ca1fe0618df8608d34c3a1d7b8decca" target="_top" xlink:title=" ">
<polygon fill="white" stroke="#666666" points="239.38,-20 170.12,-20 170.12,0 239.38,0 239.38,-20"/>
<text xml:space="preserve" text-anchor="middle" x="204.75" y="-6.5" font-family="Helvetica,sans-Serif" font-size="10.00">xtfixed_bf_4</text>
</a>
</g>
</g>
<!-- Node1&#45;&gt;Node6 -->
<g id="edge5_Node000001_Node000006" class="edge">
<title>Node1&#45;&gt;Node6</title>
<g id="a_edge5_Node000001_Node000006"><a xlink:title=" ">
<path fill="none" stroke="#63b8ff" d="M72.12,-75.68C89.72,-63.38 120.74,-42.76 149.5,-29 152.79,-27.43 156.24,-25.92 159.74,-24.48"/>
<polygon fill="#63b8ff" stroke="#63b8ff" points="160.8,-27.82 168.88,-20.97 158.29,-21.29 160.8,-27.82"/>
</a>
</g>
</g>
</g>
</svg>
</svg>

<style type='text/css'>
<![CDATA[
[data-mouse-over-selected='false'] { opacity: 0.7; }
[data-mouse-over-selected='true']  { opacity: 1.0; }
]]>
</style>
<script type="application/ecmascript"><![CDATA[
document.addEventListener('DOMContentLoaded', (event) => {
  highlightEdges();
  highlightAdjacentNodes();
});
]]></script>
</svg>
