<?xml version="1.0" encoding="UTF-8" standalone="no"?>
<!DOCTYPE svg PUBLIC "-//W3C//DTD SVG 1.1//EN"
 "http://www.w3.org/Graphics/SVG/1.1/DTD/svg11.dtd">
<!-- Generated by graphviz version 14.1.2 (20260124.0452)
 -->
<!-- Title: dsps_cplx2reC_sc16 Pages: 1 -->
<svg width="360pt" height="66pt"
 viewBox="0.00 0.00 360.00 66.00" xmlns="http://www.w3.org/2000/svg" xmlns:xlink="http://www.w3.org/1999/xlink">
<g id="graph0" class="graph" transform="scale(1 1) rotate(0) translate(4 62)">
<title>dsps_cplx2reC_sc16</title>
<!-- Node1 -->
<g id="Node000001" class="node">
<title>Node1</title>
<g id="a_Node000001"><a xlink:title=" ">
<polygon fill="#999999" stroke="#666666" points="351.75,-39 244.25,-39 244.25,-19 351.75,-19 351.75,-39"/>
<text xml:space="preserve" text-anchor="middle" x="298" y="-25.5" font-family="Helvetica,sans-Serif" font-size="10.00">dsps_cplx2reC_sc16</text>
</a>
</g>
</g>
<!-- Node2 -->
<g id="Node000002" class="node">
<title>Node2</title>
<g id="a_Node000002"><a xlink:href="components_2espressif____esp-dsp_2applications_2spectrum__box__lite_2main_2main_8c.html#a04947e47b733459d79baaebe3425c9dd" target="_top" xlink:title=" ">
<polygon fill="white" stroke="#666666" points="208.25,-58 94,-58 94,-38 208.25,-38 208.25,-58"/>
<text xml:space="preserve" text-anchor="middle" x="151.12" y="-44.5" font-family="Helvetica,sans-Serif" font-size="10.00">microphone_read_task</text>
</a>
</g>
</g>
<!-- Node1&#45;&gt;Node2 -->
<g id="edge1_Node000001_Node000002" class="edge">
<title>Node1&#45;&gt;Node2</title>
<g id="a_edge1_Node000001_Node000002"><a xlink:title=" ">
<path fill="none" stroke="#63b8ff" d="M232.68,-37.43C224.68,-38.49 216.53,-39.55 208.65,-40.59"/>
<polygon fill="#63b8ff" stroke="#63b8ff" points="232.92,-40.93 242.38,-36.16 232.01,-33.99 232.92,-40.93"/>
</a>
</g>
</g>
<!-- Node4 -->
<g id="Node000004" class="node">
<title>Node4</title>
<g id="a_Node000004"><a xlink:href="components_2espressif____esp-dsp_2external__examples_2b00f000e_2applications_2spectrum__box__lite_2main_2main_8c.html#a04947e47b733459d79baaebe3425c9dd" target="_top" xlink:title=" ">
<polygon fill="white" stroke="#666666" points="208.25,-20 94,-20 94,0 208.25,0 208.25,-20"/>
<text xml:space="preserve" text-anchor="middle" x="151.12" y="-6.5" font-family="Helvetica,sans-Serif" font-size="10.00">microphone_read_task</text>
</a>
</g>
</g>
<!-- Node1&#45;&gt;Node4 -->
<g id="edge3_Node000001_Node000004" class="edge">
<title>Node1&#45;&gt;Node4</title>
<g id="a_edge3_Node000001_Node000004"><a xlink:title=" ">
<path fill="none" stroke="#63b8ff" d="M232.68,-20.57C224.68,-19.51 216.53,-18.45 208.65,-17.41"/>
<polygon fill="#63b8ff" stroke="#63b8ff" points="232.01,-24.01 242.38,-21.84 232.92,-17.07 232.01,-24.01"/>
</a>
</g>
</g>
<!-- Node3 -->
<g id="Node000003" class="node">
<title>Node3</title>
<g id="a_Node000003"><a xlink:href="components_2espressif____esp-dsp_2applications_2spectrum__box__lite_2main_2main_8c.html#a630544a7f0a2cc40d8a7fefab7e2fe70" target="_top" xlink:title=" ">
<polygon fill="white" stroke="#666666" points="58,-58 0,-58 0,-38 58,-38 58,-58"/>
<text xml:space="preserve" text-anchor="middle" x="29" y="-44.5" font-family="Helvetica,sans-Serif" font-size="10.00">app_main</text>
</a>
</g>
</g>
<!-- Node2&#45;&gt;Node3 -->
<g id="edge2_Node000002_Node000003" class="edge">
<title>Node2&#45;&gt;Node3</title>
<g id="a_edge2_Node000002_Node000003"><a xlink:title=" ">
<path fill="none" stroke="#63b8ff" d="M82.17,-48C73.86,-48 65.75,-48 58.5,-48"/>
<polygon fill="#63b8ff" stroke="#63b8ff" points="82.07,-51.5 92.07,-48 82.07,-44.5 82.07,-51.5"/>
</a>
</g>
</g>
</g>
</svg>
