<?xml version="1.0" encoding="UTF-8" standalone="no"?>
<!DOCTYPE svg PUBLIC "-//W3C//DTD SVG 1.1//EN"
 "http://www.w3.org/Graphics/SVG/1.1/DTD/svg11.dtd">
<!-- Generated by graphviz version 14.1.2 (20260124.0452)
 -->
<!-- Title: dsps_gen_bitrev4r_table Pages: 1 -->
<svg width="276pt" height="66pt"
 viewBox="0.00 0.00 276.00 66.00" xmlns="http://www.w3.org/2000/svg" xmlns:xlink="http://www.w3.org/1999/xlink">
<g id="graph0" class="graph" transform="scale(1 1) rotate(0) translate(4 62)">
<title>dsps_gen_bitrev4r_table</title>
<!-- Node1 -->
<g id="Node000001" class="node">
<title>Node1</title>
<g id="a_Node000001"><a xlink:title=" ">
<polygon fill="#999999" stroke="#666666" points="121.75,-39 0,-39 0,-19 121.75,-19 121.75,-39"/>
<text xml:space="preserve" text-anchor="middle" x="60.88" y="-25.5" font-family="Helvetica,sans-Serif" font-size="10.00">dsps_gen_bitrev4r_table</text>
</a>
</g>
</g>
<!-- Node2 -->
<g id="Node000002" class="node">
<title>Node2</title>
<g id="a_Node000002"><a xlink:href="test__fft2r_8c.html#a0dc0b4dd19d7ebd2f69bfb0c1a6f85da" target="_top" xlink:title="check power of two The function check if the argument is power of 2. The implementation use ANSI C an...">
<polygon fill="white" stroke="#666666" points="268.25,-58 157.75,-58 157.75,-38 268.25,-38 268.25,-58"/>
<text xml:space="preserve" text-anchor="middle" x="213" y="-44.5" font-family="Helvetica,sans-Serif" font-size="10.00">dsp_is_power_of_two</text>
</a>
</g>
</g>
<!-- Node1&#45;&gt;Node2 -->
<g id="edge1_Node000001_Node000002" class="edge">
<title>Node1&#45;&gt;Node2</title>
<g id="a_edge1_Node000001_Node000002"><a xlink:title=" ">
<path fill="none" stroke="#63b8ff" d="M122.07,-36.62C130.06,-37.63 138.27,-38.67 146.34,-39.69"/>
<polygon fill="#63b8ff" stroke="#63b8ff" points="145.75,-43.14 156.11,-40.93 146.63,-36.2 145.75,-43.14"/>
</a>
</g>
</g>
<!-- Node3 -->
<g id="Node000003" class="node">
<title>Node3</title>
<g id="a_Node000003"><a xlink:href="test__fft2r_8c.html#a58855e560e0563aa519b012dbdcbaec2" target="_top" xlink:title="Power of two The function return power of 2 for values 2^N. The implementation use ANSI C and could b...">
<polygon fill="white" stroke="#666666" points="261.88,-20 164.12,-20 164.12,0 261.88,0 261.88,-20"/>
<text xml:space="preserve" text-anchor="middle" x="213" y="-6.5" font-family="Helvetica,sans-Serif" font-size="10.00">dsp_power_of_two</text>
</a>
</g>
</g>
<!-- Node1&#45;&gt;Node3 -->
<g id="edge2_Node000001_Node000003" class="edge">
<title>Node1&#45;&gt;Node3</title>
<g id="a_edge2_Node000001_Node000003"><a xlink:title=" ">
<path fill="none" stroke="#63b8ff" d="M122.07,-21.38C132.15,-20.11 142.6,-18.78 152.65,-17.51"/>
<polygon fill="#63b8ff" stroke="#63b8ff" points="152.81,-21.02 162.29,-16.29 151.93,-14.07 152.81,-21.02"/>
</a>
</g>
</g>
</g>
</svg>
