<?xml version="1.0" encoding="UTF-8" standalone="no"?>
<!DOCTYPE svg PUBLIC "-//W3C//DTD SVG 1.1//EN"
 "http://www.w3.org/Graphics/SVG/1.1/DTD/svg11.dtd">
<!-- Generated by graphviz version 14.1.2 (20260124.0452)
 -->
<!-- Title: dsps_fir_platform.h Pages: 1 -->
<!--zoomable 196 -->

<svg id="main" version="1.1" xmlns="http://www.w3.org/2000/svg" xmlns:xlink="http://www.w3.org/1999/xlink" xml:space="preserve" onload="init(evt)">

<style type="text/css"><![CDATA[
.node, .edge {opacity: 0.7;}
.node.selected, .edge.selected {opacity: 1;}
.edge:hover path { stroke: red; }
.edge:hover polygon { stroke: red; fill: red; }
]]></style>

<defs>
  <circle id="rim" cx="0" cy="0" r="7"/>
  <circle id="rim2" cx="0" cy="0" r="3.5"/>
  <g id="zoomPlus">
    <use xlink:href="#rim" fill="#404040"><set attributeName="fill" to="#808080" begin="zoomplus.mouseover" end="zoomplus.mouseout"/></use>
    <path d="M-4,0h8M0,-4v8" fill="none" stroke="white" stroke-width="1.5" pointer-events="none"/>
  </g>
  <g id="zoomMin">
    <use xlink:href="#rim" fill="#404040"><set attributeName="fill" to="#808080" begin="zoomminus.mouseover" end="zoomminus.mouseout"/></use>
    <path d="M-4,0h8" fill="none" stroke="white" stroke-width="1.5" pointer-events="none"/>
  </g>
  <g id="arrowUp" transform="translate(30 24)">
    <use xlink:href="#rim"/>
    <path pointer-events="none" fill="none" stroke="white" stroke-width="1.5" d="M0,-3.0v7 M-2.5,-0.5L0,-3.0L2.5,-0.5"/>
  </g>
  <g id="arrowRight" transform="rotate(90) translate(36 -43)">
    <use xlink:href="#rim"/>
    <path pointer-events="none" fill="none" stroke="white" stroke-width="1.5" d="M0,-3.0v7 M-2.5,-0.5L0,-3.0L2.5,-0.5"/>
  </g>
  <g id="arrowDown" transform="rotate(180) translate(-30 -48)">
    <use xlink:href="#rim"/>
    <path pointer-events="none" fill="none" stroke="white" stroke-width="1.5" d="M0,-3.0v7 M-2.5,-0.5L0,-3.0L2.5,-0.5"/>
  </g>
  <g id="arrowLeft" transform="rotate(270) translate(-36 17)">
    <use xlink:href="#rim"/>
    <path pointer-events="none" fill="none" stroke="white" stroke-width="1.5" d="M0,-3.0v7 M-2.5,-0.5L0,-3.0L2.5,-0.5"/>
  </g>
  <g id="resetDef">
    <use xlink:href="#rim2" fill="#404040"><set attributeName="fill" to="#808080" begin="reset.mouseover" end="reset.mouseout"/></use>
  </g>
</defs>
<script type="application/ecmascript">
var viewWidth = 1449;
var viewHeight = 196;
var sectionId = 'dynsection-1';
</script>
<script type="application/ecmascript" xlink:href="svg.min.js"/>
<svg id="graph" class="graph">
<g id="viewport">
<title>dsps_fir_platform.h</title>
<!-- Node1 -->
<g id="Node000001" class="node">
<title>Node1</title>
<g id="a_Node000001"><a xlink:title=" ">
<polygon fill="#999999" stroke="#666666" points="828,-188 728.75,-188 728.75,-168 828,-168 828,-188"/>
<text xml:space="preserve" text-anchor="middle" x="778.38" y="-174.5" font-family="Helvetica,sans-Serif" font-size="10.00">dsps_fir_platform.h</text>
</a>
</g>
</g>
<!-- Node2 -->
<g id="Node000002" class="node">
<title>Node2</title>
<g id="a_Node000002"><a xlink:href="dsps__fir_8h.html" target="_top" xlink:title=" ">
<polygon fill="white" stroke="#666666" points="807.75,-132 749,-132 749,-112 807.75,-112 807.75,-132"/>
<text xml:space="preserve" text-anchor="middle" x="778.38" y="-118.5" font-family="Helvetica,sans-Serif" font-size="10.00">dsps_fir.h</text>
</a>
</g>
</g>
<!-- Node1&#45;&gt;Node2 -->
<g id="edge1_Node000001_Node000002" class="edge">
<title>Node1&#45;&gt;Node2</title>
<g id="a_edge1_Node000001_Node000002"><a xlink:title=" ">
<path fill="none" stroke="#63b8ff" d="M778.38,-156.13C778.38,-147.9 778.38,-138.85 778.38,-132.3"/>
<polygon fill="#63b8ff" stroke="#63b8ff" points="774.88,-156.08 778.38,-166.08 781.88,-156.08 774.88,-156.08"/>
</a>
</g>
</g>
<!-- Node3 -->
<g id="Node000003" class="node">
<title>Node3</title>
<g id="a_Node000003"><a xlink:href="dsps__fir__f32__ansi_8c.html" target="_top" xlink:title=" ">
<polygon fill="white" stroke="#666666" points="100.75,-76 0,-76 0,-56 100.75,-56 100.75,-76"/>
<text xml:space="preserve" text-anchor="middle" x="50.38" y="-62.5" font-family="Helvetica,sans-Serif" font-size="10.00">dsps_fir_f32_ansi.c</text>
</a>
</g>
</g>
<!-- Node2&#45;&gt;Node3 -->
<g id="edge2_Node000002_Node000003" class="edge">
<title>Node2&#45;&gt;Node3</title>
<g id="a_edge2_Node000002_Node000003"><a xlink:title=" ">
<path fill="none" stroke="#63b8ff" d="M737.32,-119.44C632.48,-115.21 346.42,-102.01 109.38,-76 106.7,-75.71 103.95,-75.38 101.19,-75.03"/>
<polygon fill="#63b8ff" stroke="#63b8ff" points="736.98,-122.93 747.11,-119.83 737.26,-115.94 736.98,-122.93"/>
</a>
</g>
</g>
<!-- Node4 -->
<g id="Node000004" class="node">
<title>Node4</title>
<g id="a_Node000004"><a xlink:href="dsps__fir__init__f32_8c.html" target="_top" xlink:title=" ">
<polygon fill="white" stroke="#666666" points="214.12,-76 118.62,-76 118.62,-56 214.12,-56 214.12,-76"/>
<text xml:space="preserve" text-anchor="middle" x="166.38" y="-62.5" font-family="Helvetica,sans-Serif" font-size="10.00">dsps_fir_init_f32.c</text>
</a>
</g>
</g>
<!-- Node2&#45;&gt;Node4 -->
<g id="edge3_Node000002_Node000004" class="edge">
<title>Node2&#45;&gt;Node4</title>
<g id="a_edge3_Node000002_Node000004"><a xlink:title=" ">
<path fill="none" stroke="#63b8ff" d="M737.2,-118.73C644.97,-113.41 414.88,-98.85 223.38,-76 220.49,-75.66 217.53,-75.27 214.54,-74.87"/>
<polygon fill="#63b8ff" stroke="#63b8ff" points="736.82,-122.22 747,-119.29 737.22,-115.23 736.82,-122.22"/>
</a>
</g>
</g>
<!-- Node5 -->
<g id="Node000005" class="node">
<title>Node5</title>
<g id="a_Node000005"><a xlink:href="dsps__fird__f32__ansi_8c.html" target="_top" xlink:title=" ">
<polygon fill="white" stroke="#666666" points="338.38,-76 232.38,-76 232.38,-56 338.38,-56 338.38,-76"/>
<text xml:space="preserve" text-anchor="middle" x="285.38" y="-62.5" font-family="Helvetica,sans-Serif" font-size="10.00">dsps_fird_f32_ansi.c</text>
</a>
</g>
</g>
<!-- Node2&#45;&gt;Node5 -->
<g id="edge4_Node000002_Node000005" class="edge">
<title>Node2&#45;&gt;Node5</title>
<g id="a_edge4_Node000002_Node000005"><a xlink:title=" ">
<path fill="none" stroke="#63b8ff" d="M737.5,-117.28C660.88,-110.19 490.46,-93.85 347.38,-76 344.57,-75.65 341.69,-75.28 338.79,-74.89"/>
<polygon fill="#63b8ff" stroke="#63b8ff" points="736.76,-120.73 747.04,-118.16 737.4,-113.76 736.76,-120.73"/>
</a>
</g>
</g>
<!-- Node6 -->
<g id="Node000006" class="node">
<title>Node6</title>
<g id="a_Node000006"><a xlink:href="dsps__fird__init__f32_8c.html" target="_top" xlink:title=" ">
<polygon fill="white" stroke="#666666" points="456.75,-76 356,-76 356,-56 456.75,-56 456.75,-76"/>
<text xml:space="preserve" text-anchor="middle" x="406.38" y="-62.5" font-family="Helvetica,sans-Serif" font-size="10.00">dsps_fird_init_f32.c</text>
</a>
</g>
</g>
<!-- Node2&#45;&gt;Node6 -->
<g id="edge5_Node000002_Node000006" class="edge">
<title>Node2&#45;&gt;Node6</title>
<g id="a_edge5_Node000002_Node000006"><a xlink:title=" ">
<path fill="none" stroke="#63b8ff" d="M737.51,-115.18C677.89,-106.67 563.58,-90.3 466.38,-76 463.35,-75.56 460.25,-75.1 457.11,-74.63"/>
<polygon fill="#63b8ff" stroke="#63b8ff" points="736.79,-118.61 747.19,-116.56 737.78,-111.68 736.79,-118.61"/>
</a>
</g>
</g>
<!-- Node7 -->
<g id="Node000007" class="node">
<title>Node7</title>
<g id="a_Node000007"><a xlink:href="dsps__fird__init__s16_8c.html" target="_top" xlink:title=" ">
<polygon fill="white" stroke="#666666" points="577.88,-76 474.88,-76 474.88,-56 577.88,-56 577.88,-76"/>
<text xml:space="preserve" text-anchor="middle" x="526.38" y="-62.5" font-family="Helvetica,sans-Serif" font-size="10.00">dsps_fird_init_s16.c</text>
</a>
</g>
</g>
<!-- Node2&#45;&gt;Node7 -->
<g id="edge6_Node000002_Node000007" class="edge">
<title>Node2&#45;&gt;Node7</title>
<g id="a_edge6_Node000002_Node000007"><a xlink:title=" ">
<path fill="none" stroke="#63b8ff" d="M737.97,-112.34C692.14,-102.52 617.64,-86.56 570.37,-76.43"/>
<polygon fill="#63b8ff" stroke="#63b8ff" points="736.98,-115.71 747.49,-114.38 738.45,-108.87 736.98,-115.71"/>
</a>
</g>
</g>
<!-- Node8 -->
<g id="Node000008" class="node">
<title>Node8</title>
<g id="a_Node000008"><a xlink:href="dsps__fird__s16__ansi_8c.html" target="_top" xlink:title=" ">
<polygon fill="white" stroke="#666666" points="704.5,-76 596.25,-76 596.25,-56 704.5,-56 704.5,-76"/>
<text xml:space="preserve" text-anchor="middle" x="650.38" y="-62.5" font-family="Helvetica,sans-Serif" font-size="10.00">dsps_fird_s16_ansi.c</text>
</a>
</g>
</g>
<!-- Node2&#45;&gt;Node8 -->
<g id="edge7_Node000002_Node000008" class="edge">
<title>Node2&#45;&gt;Node8</title>
<g id="a_edge7_Node000002_Node000008"><a xlink:title=" ">
<path fill="none" stroke="#63b8ff" d="M745.52,-107.14C722.73,-97.52 692.97,-84.97 672.84,-76.48"/>
<polygon fill="#63b8ff" stroke="#63b8ff" points="744.11,-110.34 754.68,-111.01 746.83,-103.89 744.11,-110.34"/>
</a>
</g>
</g>
<!-- Node9 -->
<g id="Node000009" class="node">
<title>Node9</title>
<g id="a_Node000009"><a xlink:href="dsps__firmr__f32__ansi_8c.html" target="_top" xlink:title=" ">
<polygon fill="white" stroke="#666666" points="834.38,-76 722.38,-76 722.38,-56 834.38,-56 834.38,-76"/>
<text xml:space="preserve" text-anchor="middle" x="778.38" y="-62.5" font-family="Helvetica,sans-Serif" font-size="10.00">dsps_firmr_f32_ansi.c</text>
</a>
</g>
</g>
<!-- Node2&#45;&gt;Node9 -->
<g id="edge8_Node000002_Node000009" class="edge">
<title>Node2&#45;&gt;Node9</title>
<g id="a_edge8_Node000002_Node000009"><a xlink:title=" ">
<path fill="none" stroke="#63b8ff" d="M778.38,-100.13C778.38,-91.9 778.38,-82.85 778.38,-76.3"/>
<polygon fill="#63b8ff" stroke="#63b8ff" points="774.88,-100.08 778.38,-110.08 781.88,-100.08 774.88,-100.08"/>
</a>
</g>
</g>
<!-- Node10 -->
<g id="Node000010" class="node">
<title>Node10</title>
<g id="a_Node000010"><a xlink:href="dsps__firmr__init__f32_8c.html" target="_top" xlink:title=" ">
<polygon fill="white" stroke="#666666" points="958.75,-76 852,-76 852,-56 958.75,-56 958.75,-76"/>
<text xml:space="preserve" text-anchor="middle" x="905.38" y="-62.5" font-family="Helvetica,sans-Serif" font-size="10.00">dsps_firmr_init_f32.c</text>
</a>
</g>
</g>
<!-- Node2&#45;&gt;Node10 -->
<g id="edge9_Node000002_Node000010" class="edge">
<title>Node2&#45;&gt;Node10</title>
<g id="a_edge9_Node000002_Node000010"><a xlink:title=" ">
<path fill="none" stroke="#63b8ff" d="M810.97,-107.14C833.59,-97.52 863.12,-84.97 883.08,-76.48"/>
<polygon fill="#63b8ff" stroke="#63b8ff" points="809.72,-103.87 801.89,-111 812.46,-110.31 809.72,-103.87"/>
</a>
</g>
</g>
<!-- Node11 -->
<g id="Node000011" class="node">
<title>Node11</title>
<g id="a_Node000011"><a xlink:href="dsps__firmr__init__s16_8c.html" target="_top" xlink:title=" ">
<polygon fill="white" stroke="#666666" points="1085.88,-76 976.88,-76 976.88,-56 1085.88,-56 1085.88,-76"/>
<text xml:space="preserve" text-anchor="middle" x="1031.38" y="-62.5" font-family="Helvetica,sans-Serif" font-size="10.00">dsps_firmr_init_s16.c</text>
</a>
</g>
</g>
<!-- Node2&#45;&gt;Node11 -->
<g id="edge10_Node000002_Node000011" class="edge">
<title>Node2&#45;&gt;Node11</title>
<g id="a_edge10_Node000002_Node000011"><a xlink:title=" ">
<path fill="none" stroke="#63b8ff" d="M818.94,-112.34C864.95,-102.52 939.75,-86.56 987.21,-76.43"/>
<polygon fill="#63b8ff" stroke="#63b8ff" points="818.42,-108.87 809.37,-114.38 819.88,-115.72 818.42,-108.87"/>
</a>
</g>
</g>
<!-- Node12 -->
<g id="Node000012" class="node">
<title>Node12</title>
<g id="a_Node000012"><a xlink:href="dsps__firmr__s16__ansi_8c.html" target="_top" xlink:title=" ">
<polygon fill="white" stroke="#666666" points="1218.5,-76 1104.25,-76 1104.25,-56 1218.5,-56 1218.5,-76"/>
<text xml:space="preserve" text-anchor="middle" x="1161.38" y="-62.5" font-family="Helvetica,sans-Serif" font-size="10.00">dsps_firmr_s16_ansi.c</text>
</a>
</g>
</g>
<!-- Node2&#45;&gt;Node12 -->
<g id="edge11_Node000002_Node000012" class="edge">
<title>Node2&#45;&gt;Node12</title>
<g id="a_edge11_Node000002_Node000012"><a xlink:title=" ">
<path fill="none" stroke="#63b8ff" d="M819.27,-115.23C887.72,-105.58 1025.68,-86.13 1103.87,-75.11"/>
<polygon fill="#63b8ff" stroke="#63b8ff" points="819.02,-111.73 809.61,-116.6 820,-118.67 819.02,-111.73"/>
</a>
</g>
</g>
<!-- Node13 -->
<g id="Node000013" class="node">
<title>Node13</title>
<g id="a_Node000013"><a xlink:href="dsps__resampler_8h.html" target="_top" xlink:title=" ">
<polygon fill="white" stroke="#666666" points="1330,-76 1236.75,-76 1236.75,-56 1330,-56 1330,-76"/>
<text xml:space="preserve" text-anchor="middle" x="1283.38" y="-62.5" font-family="Helvetica,sans-Serif" font-size="10.00">dsps_resampler.h</text>
</a>
</g>
</g>
<!-- Node2&#45;&gt;Node13 -->
<g id="edge12_Node000002_Node000013" class="edge">
<title>Node2&#45;&gt;Node13</title>
<g id="a_edge12_Node000002_Node000013"><a xlink:title=" ">
<path fill="none" stroke="#63b8ff" d="M819.51,-117.7C898.66,-111.17 1077.56,-95.53 1227.38,-76 1230.3,-75.62 1233.32,-75.2 1236.35,-74.77"/>
<polygon fill="#63b8ff" stroke="#63b8ff" points="819.32,-114.21 809.64,-118.51 819.89,-121.18 819.32,-114.21"/>
</a>
</g>
</g>
<!-- Node16 -->
<g id="Node000016" class="node">
<title>Node16</title>
<g id="a_Node000016"><a xlink:href="esp__dsp_8h.html" target="_top" xlink:title=" ">
<polygon fill="#fff0f0" stroke="red" points="1402.88,-20 1341.88,-20 1341.88,0 1402.88,0 1402.88,-20"/>
<text xml:space="preserve" text-anchor="middle" x="1372.38" y="-6.5" font-family="Helvetica,sans-Serif" font-size="10.00">esp_dsp.h</text>
</a>
</g>
</g>
<!-- Node2&#45;&gt;Node16 -->
<g id="edge16_Node000002_Node000016" class="edge">
<title>Node2&#45;&gt;Node16</title>
<g id="a_edge16_Node000002_Node000016"><a xlink:title=" ">
<path fill="none" stroke="#63b8ff" d="M819.52,-120C941.68,-116.71 1296.47,-104.76 1339.38,-76 1358.72,-63.03 1367.3,-35.13 1370.6,-20.46"/>
<polygon fill="#63b8ff" stroke="#63b8ff" points="819.53,-116.5 809.62,-120.26 819.71,-123.5 819.53,-116.5"/>
</a>
</g>
</g>
<!-- Node45 -->
<g id="Node000045" class="node">
<title>Node45</title>
<g id="a_Node000045"><a xlink:href="test__fir_8c.html" target="_top" xlink:title=" ">
<polygon fill="white" stroke="#666666" points="1440.5,-76 1386.25,-76 1386.25,-56 1440.5,-56 1440.5,-76"/>
<text xml:space="preserve" text-anchor="middle" x="1413.38" y="-62.5" font-family="Helvetica,sans-Serif" font-size="10.00">test_fir.c</text>
</a>
</g>
</g>
<!-- Node2&#45;&gt;Node45 -->
<g id="edge17_Node000002_Node000045" class="edge">
<title>Node2&#45;&gt;Node45</title>
<g id="a_edge17_Node000002_Node000045"><a xlink:title=" ">
<path fill="none" stroke="#63b8ff" d="M819.51,-119.87C916.35,-116.78 1166.1,-106.3 1372.38,-76 1376.85,-75.34 1381.56,-74.48 1386.13,-73.54"/>
<polygon fill="#63b8ff" stroke="#63b8ff" points="819.61,-116.37 809.72,-120.17 819.82,-123.36 819.61,-116.37"/>
</a>
</g>
</g>
<!-- Node14 -->
<g id="Node000014" class="node">
<title>Node14</title>
<g id="a_Node000014"><a xlink:href="dsps__resampler__mr_8c.html" target="_top" xlink:title=" ">
<polygon fill="white" stroke="#666666" points="1197.25,-20 1087.5,-20 1087.5,0 1197.25,0 1197.25,-20"/>
<text xml:space="preserve" text-anchor="middle" x="1142.38" y="-6.5" font-family="Helvetica,sans-Serif" font-size="10.00">dsps_resampler_mr.c</text>
</a>
</g>
</g>
<!-- Node13&#45;&gt;Node14 -->
<g id="edge13_Node000013_Node000014" class="edge">
<title>Node13&#45;&gt;Node14</title>
<g id="a_edge13_Node000013_Node000014"><a xlink:title=" ">
<path fill="none" stroke="#63b8ff" d="M1248.21,-51.53C1222.97,-41.87 1189.6,-29.08 1167.13,-20.48"/>
<polygon fill="#63b8ff" stroke="#63b8ff" points="1246.81,-54.74 1257.4,-55.05 1249.31,-48.21 1246.81,-54.74"/>
</a>
</g>
</g>
<!-- Node15 -->
<g id="Node000015" class="node">
<title>Node15</title>
<g id="a_Node000015"><a xlink:href="dsps__resampler__ph_8c.html" target="_top" xlink:title=" ">
<polygon fill="white" stroke="#666666" points="1323.88,-20 1214.88,-20 1214.88,0 1323.88,0 1323.88,-20"/>
<text xml:space="preserve" text-anchor="middle" x="1269.38" y="-6.5" font-family="Helvetica,sans-Serif" font-size="10.00">dsps_resampler_ph.c</text>
</a>
</g>
</g>
<!-- Node13&#45;&gt;Node15 -->
<g id="edge14_Node000013_Node000015" class="edge">
<title>Node13&#45;&gt;Node15</title>
<g id="a_edge14_Node000013_Node000015"><a xlink:title=" ">
<path fill="none" stroke="#63b8ff" d="M1278.12,-44.71C1275.94,-36.32 1273.52,-27.01 1271.79,-20.3"/>
<polygon fill="#63b8ff" stroke="#63b8ff" points="1274.66,-45.33 1280.56,-54.13 1281.43,-43.57 1274.66,-45.33"/>
</a>
</g>
</g>
<!-- Node13&#45;&gt;Node16 -->
<g id="edge15_Node000013_Node000016" class="edge">
<title>Node13&#45;&gt;Node16</title>
<g id="a_edge15_Node000013_Node000016"><a xlink:title=" ">
<path fill="none" stroke="#63b8ff" d="M1308.41,-49.81C1323.93,-40.39 1343.4,-28.58 1356.75,-20.48"/>
<polygon fill="#63b8ff" stroke="#63b8ff" points="1306.91,-46.63 1300.17,-54.81 1310.54,-52.61 1306.91,-46.63"/>
</a>
</g>
</g>
</g>
</svg>

<g id="navigator" transform="translate(0 0)" fill="#404254">
  <rect fill="#f2f5e9" fill-opacity="0.5" stroke="#606060" stroke-width=".5" x="0" y="0" width="60" height="60"/>
  <use id="zoomplus" xlink:href="#zoomPlus" x="17" y="9" onmousedown="handleZoom(evt,'in')"/>
  <use id="zoomminus" xlink:href="#zoomMin" x="42" y="9" onmousedown="handleZoom(evt,'out')"/>
  <use id="reset" xlink:href="#resetDef" x="30" y="36" onmousedown="handleReset()"/>
   <use id="arrowup" xlink:href="#arrowUp" x="0" y="0" onmousedown="handlePan(0,-1)"/>
  <use id="arrowright" xlink:href="#arrowRight" x="0" y="0" onmousedown="handlePan(1,0)"/>
  <use id="arrowdown" xlink:href="#arrowDown" x="0" y="0" onmousedown="handlePan(0,1)"/>
  <use id="arrowleft" xlink:href="#arrowLeft" x="0" y="0" onmousedown="handlePan(-1,0)"/>
</g>
<svg viewBox="0 0 15 15" width="100%" height="30px" preserveAspectRatio="xMaxYMin meet">
 <g id="arrow_out" transform="scale(0.3 0.3)">
  <a xlink:href="dsps__fir__platform_8h__dep__incl_org.svg" target="_base">
   <rect id="button" ry="5" rx="5" y="6" x="6" height="38" width="38"
        fill="#f2f5e9" fill-opacity="0.5" stroke="#606060" stroke-width="1.0"/>
   <path id="arrow"
     d="M 11.500037,31.436501 C 11.940474,20.09759 22.043105,11.32322 32.158766,21.979434 L 37.068811,17.246167 C 37.068811,17.246167 37.088388,32 37.088388,32 L 22.160133,31.978069 C 22.160133,31.978069 26.997745,27.140456 26.997745,27.140456 C 18.528582,18.264221 13.291696,25.230495 11.500037,31.436501 z"
     style="fill:#404040;"/>
  </a>
 </g>
</svg>

<style type='text/css'>
<![CDATA[
[data-mouse-over-selected='false'] { opacity: 0.7; }
[data-mouse-over-selected='true']  { opacity: 1.0; }
]]>
</style>
<script type="application/ecmascript"><![CDATA[
document.addEventListener('DOMContentLoaded', (event) => {
  highlightEdges();
  highlightAdjacentNodes();
});
]]></script>
</svg>
