<?xml version="1.0" encoding="UTF-8" standalone="no"?>
<!DOCTYPE svg PUBLIC "-//W3C//DTD SVG 1.1//EN"
 "http://www.w3.org/Graphics/SVG/1.1/DTD/svg11.dtd">
<!-- Generated by graphviz version 14.1.2 (20260124.0452)
 -->
<!-- Title: ekf.cpp Pages: 1 -->
<svg width="277pt" height="196pt"
 viewBox="0.00 0.00 277.00 196.00" xmlns="http://www.w3.org/2000/svg" xmlns:xlink="http://www.w3.org/1999/xlink">
<g id="graph0" class="graph" transform="scale(1 1) rotate(0) translate(4 192)">
<title>ekf.cpp</title>
<!-- Node1 -->
<g id="Node000001" class="node">
<title>Node1</title>
<g id="a_Node000001"><a xlink:title=" ">
<polygon fill="#999999" stroke="#666666" points="210.25,-188 162,-188 162,-168 210.25,-168 210.25,-188"/>
<text xml:space="preserve" text-anchor="middle" x="186.12" y="-174.5" font-family="Helvetica,sans-Serif" font-size="10.00">ekf.cpp</text>
</a>
</g>
</g>
<!-- Node2 -->
<g id="Node000002" class="node">
<title>Node2</title>
<g id="a_Node000002"><a xlink:href="ekf_8h.html" target="_top" xlink:title=" ">
<polygon fill="white" stroke="#666666" points="147,-132 109.25,-132 109.25,-112 147,-112 147,-132"/>
<text xml:space="preserve" text-anchor="middle" x="128.12" y="-118.5" font-family="Helvetica,sans-Serif" font-size="10.00">ekf.h</text>
</a>
</g>
</g>
<!-- Node1&#45;&gt;Node2 -->
<g id="edge1_Node000001_Node000002" class="edge">
<title>Node1&#45;&gt;Node2</title>
<g id="a_edge1_Node000001_Node000002"><a xlink:title=" ">
<path fill="none" stroke="#63b8ff" d="M176.02,-167.59C167.87,-160.01 156.19,-149.13 146.41,-140.02"/>
<polygon fill="#63b8ff" stroke="#63b8ff" points="148.92,-137.58 139.22,-133.33 144.15,-142.71 148.92,-137.58"/>
</a>
</g>
</g>
<!-- Node8 -->
<g id="Node000008" class="node">
<title>Node8</title>
<g id="a_Node000008"><a xlink:title=" ">
<polygon fill="#e0e0e0" stroke="#999999" points="207.62,-132 164.62,-132 164.62,-112 207.62,-112 207.62,-132"/>
<text xml:space="preserve" text-anchor="middle" x="186.12" y="-118.5" font-family="Helvetica,sans-Serif" font-size="10.00">cmath</text>
</a>
</g>
</g>
<!-- Node1&#45;&gt;Node8 -->
<g id="edge7_Node000001_Node000008" class="edge">
<title>Node1&#45;&gt;Node8</title>
<g id="a_edge7_Node000001_Node000008"><a xlink:title=" ">
<path fill="none" stroke="#63b8ff" d="M186.12,-167.59C186.12,-161.01 186.12,-151.96 186.12,-143.73"/>
<polygon fill="#63b8ff" stroke="#63b8ff" points="189.63,-143.81 186.13,-133.81 182.63,-143.81 189.63,-143.81"/>
</a>
</g>
</g>
<!-- Node9 -->
<g id="Node000009" class="node">
<title>Node9</title>
<g id="a_Node000009"><a xlink:title=" ">
<polygon fill="#e0e0e0" stroke="#999999" points="268.62,-132 225.62,-132 225.62,-112 268.62,-112 268.62,-132"/>
<text xml:space="preserve" text-anchor="middle" x="247.12" y="-118.5" font-family="Helvetica,sans-Serif" font-size="10.00">float.h</text>
</a>
</g>
</g>
<!-- Node1&#45;&gt;Node9 -->
<g id="edge8_Node000001_Node000009" class="edge">
<title>Node1&#45;&gt;Node9</title>
<g id="a_edge8_Node000001_Node000009"><a xlink:title=" ">
<path fill="none" stroke="#63b8ff" d="M196.75,-167.59C205.41,-159.93 217.86,-148.91 228.21,-139.75"/>
<polygon fill="#63b8ff" stroke="#63b8ff" points="230.32,-142.55 235.49,-133.3 225.68,-137.31 230.32,-142.55"/>
</a>
</g>
</g>
<!-- Node3 -->
<g id="Node000003" class="node">
<title>Node3</title>
<g id="a_Node000003"><a xlink:title=" ">
<polygon fill="#e0e0e0" stroke="#999999" points="48.25,-76 0,-76 0,-56 48.25,-56 48.25,-76"/>
<text xml:space="preserve" text-anchor="middle" x="24.12" y="-62.5" font-family="Helvetica,sans-Serif" font-size="10.00">stdint.h</text>
</a>
</g>
</g>
<!-- Node2&#45;&gt;Node3 -->
<g id="edge2_Node000002_Node000003" class="edge">
<title>Node2&#45;&gt;Node3</title>
<g id="a_edge2_Node000002_Node000003"><a xlink:title=" ">
<path fill="none" stroke="#63b8ff" d="M110.01,-111.59C94.15,-103.36 70.84,-91.26 52.51,-81.74"/>
<polygon fill="#63b8ff" stroke="#63b8ff" points="54.21,-78.68 43.73,-77.18 50.99,-84.89 54.21,-78.68"/>
</a>
</g>
</g>
<!-- Node4 -->
<g id="Node000004" class="node">
<title>Node4</title>
<g id="a_Node000004"><a xlink:title=" ">
<polygon fill="#e0e0e0" stroke="#999999" points="122,-76 66.25,-76 66.25,-56 122,-56 122,-76"/>
<text xml:space="preserve" text-anchor="middle" x="94.12" y="-62.5" font-family="Helvetica,sans-Serif" font-size="10.00">stdbool.h</text>
</a>
</g>
</g>
<!-- Node2&#45;&gt;Node4 -->
<g id="edge3_Node000002_Node000004" class="edge">
<title>Node2&#45;&gt;Node4</title>
<g id="a_edge3_Node000002_Node000004"><a xlink:title=" ">
<path fill="none" stroke="#63b8ff" d="M122.2,-111.59C117.77,-104.55 111.55,-94.67 106.09,-86"/>
<polygon fill="#63b8ff" stroke="#63b8ff" points="109.08,-84.18 100.79,-77.58 103.15,-87.91 109.08,-84.18"/>
</a>
</g>
</g>
<!-- Node5 -->
<g id="Node000005" class="node">
<title>Node5</title>
<g id="a_Node000005"><a xlink:title=" ">
<polygon fill="#e0e0e0" stroke="#999999" points="186.12,-76 140.12,-76 140.12,-56 186.12,-56 186.12,-76"/>
<text xml:space="preserve" text-anchor="middle" x="163.12" y="-62.5" font-family="Helvetica,sans-Serif" font-size="10.00">math.h</text>
</a>
</g>
</g>
<!-- Node2&#45;&gt;Node5 -->
<g id="edge4_Node000002_Node000005" class="edge">
<title>Node2&#45;&gt;Node5</title>
<g id="a_edge4_Node000002_Node000005"><a xlink:title=" ">
<path fill="none" stroke="#63b8ff" d="M134.22,-111.59C138.84,-104.47 145.33,-94.45 150.99,-85.72"/>
<polygon fill="#63b8ff" stroke="#63b8ff" points="153.77,-87.86 156.28,-77.57 147.9,-84.06 153.77,-87.86"/>
</a>
</g>
</g>
<!-- Node6 -->
<g id="Node000006" class="node">
<title>Node6</title>
<g id="a_Node000006"><a xlink:href="mat_8h.html" target="_top" xlink:title=" ">
<polygon fill="white" stroke="#666666" points="244.5,-76 203.75,-76 203.75,-56 244.5,-56 244.5,-76"/>
<text xml:space="preserve" text-anchor="middle" x="224.12" y="-62.5" font-family="Helvetica,sans-Serif" font-size="10.00">mat.h</text>
</a>
</g>
</g>
<!-- Node2&#45;&gt;Node6 -->
<g id="edge5_Node000002_Node000006" class="edge">
<title>Node2&#45;&gt;Node6</title>
<g id="a_edge5_Node000002_Node000006"><a xlink:title=" ">
<path fill="none" stroke="#63b8ff" d="M144.85,-111.59C159.35,-103.44 180.6,-91.48 197.45,-82"/>
<polygon fill="#63b8ff" stroke="#63b8ff" points="198.95,-85.17 205.95,-77.22 195.52,-79.07 198.95,-85.17"/>
</a>
</g>
</g>
<!-- Node7 -->
<g id="Node000007" class="node">
<title>Node7</title>
<g id="a_Node000007"><a xlink:title=" ">
<polygon fill="#e0e0e0" stroke="#999999" points="250.88,-20 197.38,-20 197.38,0 250.88,0 250.88,-20"/>
<text xml:space="preserve" text-anchor="middle" x="224.12" y="-6.5" font-family="Helvetica,sans-Serif" font-size="10.00">iostream</text>
</a>
</g>
</g>
<!-- Node6&#45;&gt;Node7 -->
<g id="edge6_Node000006_Node000007" class="edge">
<title>Node6&#45;&gt;Node7</title>
<g id="a_edge6_Node000006_Node000007"><a xlink:title=" ">
<path fill="none" stroke="#63b8ff" d="M224.12,-55.59C224.12,-49.01 224.12,-39.96 224.12,-31.73"/>
<polygon fill="#63b8ff" stroke="#63b8ff" points="227.63,-31.81 224.13,-21.81 220.63,-31.81 227.63,-31.81"/>
</a>
</g>
</g>
</g>
</svg>
