<?xml version="1.0" encoding="UTF-8" standalone="no"?>
<!DOCTYPE svg PUBLIC "-//W3C//DTD SVG 1.1//EN"
 "http://www.w3.org/Graphics/SVG/1.1/DTD/svg11.dtd">
<!-- Generated by graphviz version 14.1.2 (20260124.0452)
 -->
<!-- Title: SIGN Pages: 1 -->
<svg width="328pt" height="28pt"
 viewBox="0.00 0.00 328.00 28.00" xmlns="http://www.w3.org/2000/svg" xmlns:xlink="http://www.w3.org/1999/xlink">
<g id="graph0" class="graph" transform="scale(1 1) rotate(0) translate(4 24)">
<title>SIGN</title>
<!-- Node1 -->
<g id="Node000001" class="node">
<title>Node1</title>
<g id="a_Node000001"><a xlink:title=" ">
<polygon fill="#999999" stroke="#666666" points="320.25,-20 279.5,-20 279.5,0 320.25,0 320.25,-20"/>
<text xml:space="preserve" text-anchor="middle" x="299.88" y="-6.5" font-family="Helvetica,sans-Serif" font-size="10.00">SIGN</text>
</a>
</g>
</g>
<!-- Node2 -->
<g id="Node000002" class="node">
<title>Node2</title>
<g id="a_Node000002"><a xlink:href="classekf.html#a148bfefd351013bb66d84b160ce31ee3" target="_top" xlink:title=" ">
<polygon fill="white" stroke="#666666" points="243.5,-20 164.5,-20 164.5,0 243.5,0 243.5,-20"/>
<text xml:space="preserve" text-anchor="middle" x="204" y="-6.5" font-family="Helvetica,sans-Serif" font-size="10.00">ekf::rotm2quat</text>
</a>
</g>
</g>
<!-- Node1&#45;&gt;Node2 -->
<g id="edge1_Node000001_Node000002" class="edge">
<title>Node1&#45;&gt;Node2</title>
<g id="a_edge1_Node000001_Node000002"><a xlink:title=" ">
<path fill="none" stroke="#63b8ff" d="M267.96,-10C260.24,-10 251.85,-10 243.79,-10"/>
<polygon fill="#63b8ff" stroke="#63b8ff" points="267.91,-13.5 277.91,-10 267.91,-6.5 267.91,-13.5"/>
</a>
</g>
</g>
<!-- Node3 -->
<g id="Node000003" class="node">
<title>Node3</title>
<g id="a_Node000003"><a xlink:href="classekf__imu13states.html#a7f315abd38007e57247edc0967d688f7" target="_top" xlink:title=" ">
<polygon fill="white" stroke="#666666" points="128.5,-20 0,-20 0,0 128.5,0 128.5,-20"/>
<text xml:space="preserve" text-anchor="middle" x="64.25" y="-6.5" font-family="Helvetica,sans-Serif" font-size="10.00">ekf_imu13states::TestFull</text>
</a>
</g>
</g>
<!-- Node2&#45;&gt;Node3 -->
<g id="edge2_Node000002_Node000003" class="edge">
<title>Node2&#45;&gt;Node3</title>
<g id="a_edge2_Node000002_Node000003"><a xlink:title=" ">
<path fill="none" stroke="#63b8ff" d="M152.82,-10C145.07,-10 136.98,-10 128.98,-10"/>
<polygon fill="#63b8ff" stroke="#63b8ff" points="152.75,-13.5 162.75,-10 152.75,-6.5 152.75,-13.5"/>
</a>
</g>
</g>
</g>
</svg>
