<?xml version="1.0" encoding="UTF-8" standalone="no"?>
<!DOCTYPE svg PUBLIC "-//W3C//DTD SVG 1.1//EN"
 "http://www.w3.org/Graphics/SVG/1.1/DTD/svg11.dtd">
<!-- Generated by graphviz version 14.1.2 (20260124.0452)
 -->
<!-- Title: ekf_imu13states.cpp Pages: 1 -->
<svg width="253pt" height="196pt"
 viewBox="0.00 0.00 253.00 196.00" xmlns="http://www.w3.org/2000/svg" xmlns:xlink="http://www.w3.org/1999/xlink">
<g id="graph0" class="graph" transform="scale(1 1) rotate(0) translate(4 192)">
<title>ekf_imu13states.cpp</title>
<!-- Node1 -->
<g id="Node000001" class="node">
<title>Node1</title>
<g id="a_Node000001"><a xlink:title=" ">
<polygon fill="#999999" stroke="#666666" points="225.5,-188 118.75,-188 118.75,-168 225.5,-168 225.5,-188"/>
<text xml:space="preserve" text-anchor="middle" x="172.12" y="-174.5" font-family="Helvetica,sans-Serif" font-size="10.00">ekf_imu13states.cpp</text>
</a>
</g>
</g>
<!-- Node2 -->
<g id="Node000002" class="node">
<title>Node2</title>
<g id="a_Node000002"><a xlink:href="ekf__imu13states_8h.html" target="_top" xlink:title=" ">
<polygon fill="white" stroke="#666666" points="176.25,-132 80,-132 80,-112 176.25,-112 176.25,-132"/>
<text xml:space="preserve" text-anchor="middle" x="128.12" y="-118.5" font-family="Helvetica,sans-Serif" font-size="10.00">ekf_imu13states.h</text>
</a>
</g>
</g>
<!-- Node1&#45;&gt;Node2 -->
<g id="edge1_Node000001_Node000002" class="edge">
<title>Node1&#45;&gt;Node2</title>
<g id="a_edge1_Node000001_Node000002"><a xlink:title=" ">
<path fill="none" stroke="#63b8ff" d="M164.46,-167.59C158.53,-160.32 150.14,-150.02 142.91,-141.15"/>
<polygon fill="#63b8ff" stroke="#63b8ff" points="145.69,-139.01 136.66,-133.47 140.26,-143.43 145.69,-139.01"/>
</a>
</g>
</g>
<!-- Node9 -->
<g id="Node000009" class="node">
<title>Node9</title>
<g id="a_Node000009"><a xlink:title=" ">
<polygon fill="#e0e0e0" stroke="#999999" points="237.62,-132 194.62,-132 194.62,-112 237.62,-112 237.62,-132"/>
<text xml:space="preserve" text-anchor="middle" x="216.12" y="-118.5" font-family="Helvetica,sans-Serif" font-size="10.00">cmath</text>
</a>
</g>
</g>
<!-- Node1&#45;&gt;Node9 -->
<g id="edge7_Node000001_Node000009" class="edge">
<title>Node1&#45;&gt;Node9</title>
<g id="a_edge7_Node000001_Node000009"><a xlink:title=" ">
<path fill="none" stroke="#63b8ff" d="M179.79,-167.59C185.72,-160.32 194.11,-150.02 201.34,-141.15"/>
<polygon fill="#63b8ff" stroke="#63b8ff" points="203.99,-143.43 207.59,-133.47 198.56,-139.01 203.99,-143.43"/>
</a>
</g>
</g>
<!-- Node3 -->
<g id="Node000003" class="node">
<title>Node3</title>
<g id="a_Node000003"><a xlink:href="ekf_8h.html" target="_top" xlink:title=" ">
<polygon fill="white" stroke="#666666" points="147,-76 109.25,-76 109.25,-56 147,-56 147,-76"/>
<text xml:space="preserve" text-anchor="middle" x="128.12" y="-62.5" font-family="Helvetica,sans-Serif" font-size="10.00">ekf.h</text>
</a>
</g>
</g>
<!-- Node2&#45;&gt;Node3 -->
<g id="edge2_Node000002_Node000003" class="edge">
<title>Node2&#45;&gt;Node3</title>
<g id="a_edge2_Node000002_Node000003"><a xlink:title=" ">
<path fill="none" stroke="#63b8ff" d="M128.12,-111.59C128.12,-105.01 128.12,-95.96 128.12,-87.73"/>
<polygon fill="#63b8ff" stroke="#63b8ff" points="131.63,-87.81 128.13,-77.81 124.63,-87.81 131.63,-87.81"/>
</a>
</g>
</g>
<!-- Node4 -->
<g id="Node000004" class="node">
<title>Node4</title>
<g id="a_Node000004"><a xlink:title=" ">
<polygon fill="#e0e0e0" stroke="#999999" points="48.25,-20 0,-20 0,0 48.25,0 48.25,-20"/>
<text xml:space="preserve" text-anchor="middle" x="24.12" y="-6.5" font-family="Helvetica,sans-Serif" font-size="10.00">stdint.h</text>
</a>
</g>
</g>
<!-- Node3&#45;&gt;Node4 -->
<g id="edge3_Node000003_Node000004" class="edge">
<title>Node3&#45;&gt;Node4</title>
<g id="a_edge3_Node000003_Node000004"><a xlink:title=" ">
<path fill="none" stroke="#63b8ff" d="M110.01,-55.59C94.15,-47.36 70.84,-35.26 52.51,-25.74"/>
<polygon fill="#63b8ff" stroke="#63b8ff" points="54.21,-22.68 43.73,-21.18 50.99,-28.89 54.21,-22.68"/>
</a>
</g>
</g>
<!-- Node5 -->
<g id="Node000005" class="node">
<title>Node5</title>
<g id="a_Node000005"><a xlink:title=" ">
<polygon fill="#e0e0e0" stroke="#999999" points="122,-20 66.25,-20 66.25,0 122,0 122,-20"/>
<text xml:space="preserve" text-anchor="middle" x="94.12" y="-6.5" font-family="Helvetica,sans-Serif" font-size="10.00">stdbool.h</text>
</a>
</g>
</g>
<!-- Node3&#45;&gt;Node5 -->
<g id="edge4_Node000003_Node000005" class="edge">
<title>Node3&#45;&gt;Node5</title>
<g id="a_edge4_Node000003_Node000005"><a xlink:title=" ">
<path fill="none" stroke="#63b8ff" d="M122.2,-55.59C117.77,-48.55 111.55,-38.67 106.09,-30"/>
<polygon fill="#63b8ff" stroke="#63b8ff" points="109.08,-28.18 100.79,-21.58 103.15,-31.91 109.08,-28.18"/>
</a>
</g>
</g>
<!-- Node6 -->
<g id="Node000006" class="node">
<title>Node6</title>
<g id="a_Node000006"><a xlink:title=" ">
<polygon fill="#e0e0e0" stroke="#999999" points="186.12,-20 140.12,-20 140.12,0 186.12,0 186.12,-20"/>
<text xml:space="preserve" text-anchor="middle" x="163.12" y="-6.5" font-family="Helvetica,sans-Serif" font-size="10.00">math.h</text>
</a>
</g>
</g>
<!-- Node3&#45;&gt;Node6 -->
<g id="edge5_Node000003_Node000006" class="edge">
<title>Node3&#45;&gt;Node6</title>
<g id="a_edge5_Node000003_Node000006"><a xlink:title=" ">
<path fill="none" stroke="#63b8ff" d="M134.22,-55.59C138.84,-48.47 145.33,-38.45 150.99,-29.72"/>
<polygon fill="#63b8ff" stroke="#63b8ff" points="153.77,-31.86 156.28,-21.57 147.9,-28.06 153.77,-31.86"/>
</a>
</g>
</g>
<!-- Node7 -->
<g id="Node000007" class="node">
<title>Node7</title>
<g id="a_Node000007"><a xlink:href="mat_8h.html" target="_top" xlink:title=" ">
<polygon fill="#fff0f0" stroke="red" points="244.5,-20 203.75,-20 203.75,0 244.5,0 244.5,-20"/>
<text xml:space="preserve" text-anchor="middle" x="224.12" y="-6.5" font-family="Helvetica,sans-Serif" font-size="10.00">mat.h</text>
</a>
</g>
</g>
<!-- Node3&#45;&gt;Node7 -->
<g id="edge6_Node000003_Node000007" class="edge">
<title>Node3&#45;&gt;Node7</title>
<g id="a_edge6_Node000003_Node000007"><a xlink:title=" ">
<path fill="none" stroke="#63b8ff" d="M144.85,-55.59C159.35,-47.44 180.6,-35.48 197.45,-26"/>
<polygon fill="#63b8ff" stroke="#63b8ff" points="198.95,-29.17 205.95,-21.22 195.52,-23.07 198.95,-29.17"/>
</a>
</g>
</g>
</g>
</svg>
