<?xml version="1.0" encoding="UTF-8" standalone="no"?>
<!DOCTYPE svg PUBLIC "-//W3C//DTD SVG 1.1//EN"
 "http://www.w3.org/Graphics/SVG/1.1/DTD/svg11.dtd">
<!-- Generated by graphviz version 14.1.2 (20260124.0452)
 -->
<!-- Title: esp_attr.h Pages: 1 -->
<svg width="816pt" height="84pt"
 viewBox="0.00 0.00 816.00 84.00" xmlns="http://www.w3.org/2000/svg" xmlns:xlink="http://www.w3.org/1999/xlink">
<g id="graph0" class="graph" transform="scale(1 1) rotate(0) translate(4 80)">
<title>esp_attr.h</title>
<!-- Node1 -->
<g id="Node000001" class="node">
<title>Node1</title>
<g id="a_Node000001"><a xlink:title=" ">
<polygon fill="#999999" stroke="#666666" points="490.38,-76 430.88,-76 430.88,-56 490.38,-56 490.38,-76"/>
<text xml:space="preserve" text-anchor="middle" x="460.62" y="-62.5" font-family="Helvetica,sans-Serif" font-size="10.00">esp_attr.h</text>
</a>
</g>
</g>
<!-- Node2 -->
<g id="Node000002" class="node">
<title>Node2</title>
<g id="a_Node000002"><a xlink:href="dsps__fft2r__fc32__ae32_8c.html" target="_top" xlink:title=" ">
<polygon fill="white" stroke="#666666" points="117.25,-20 0,-20 0,0 117.25,0 117.25,-20"/>
<text xml:space="preserve" text-anchor="middle" x="58.62" y="-6.5" font-family="Helvetica,sans-Serif" font-size="10.00">dsps_fft2r_fc32_ae32.c</text>
</a>
</g>
</g>
<!-- Node1&#45;&gt;Node2 -->
<g id="edge1_Node000001_Node000002" class="edge">
<title>Node1&#45;&gt;Node2</title>
<g id="a_edge1_Node000001_Node000002"><a xlink:title=" ">
<path fill="none" stroke="#63b8ff" d="M419.16,-59.43C347.41,-49.79 199.93,-29.98 117.56,-18.92"/>
<polygon fill="#63b8ff" stroke="#63b8ff" points="418.53,-62.88 428.91,-60.74 419.46,-55.94 418.53,-62.88"/>
</a>
</g>
</g>
<!-- Node3 -->
<g id="Node000003" class="node">
<title>Node3</title>
<g id="a_Node000003"><a xlink:href="dsps__fft2r__fc32__ansi_8c.html" target="_top" xlink:title=" ">
<polygon fill="white" stroke="#666666" points="249.75,-20 135.5,-20 135.5,0 249.75,0 249.75,-20"/>
<text xml:space="preserve" text-anchor="middle" x="192.62" y="-6.5" font-family="Helvetica,sans-Serif" font-size="10.00">dsps_fft2r_fc32_ansi.c</text>
</a>
</g>
</g>
<!-- Node1&#45;&gt;Node3 -->
<g id="edge2_Node000001_Node000003" class="edge">
<title>Node1&#45;&gt;Node3</title>
<g id="a_edge2_Node000001_Node000003"><a xlink:title=" ">
<path fill="none" stroke="#63b8ff" d="M419.36,-56.69C370.75,-46.89 290.2,-30.66 239.34,-20.41"/>
<polygon fill="#63b8ff" stroke="#63b8ff" points="418.42,-60.07 428.92,-58.61 419.81,-53.21 418.42,-60.07"/>
</a>
</g>
</g>
<!-- Node4 -->
<g id="Node000004" class="node">
<title>Node4</title>
<g id="a_Node000004"><a xlink:href="dsps__fft2r__sc16__ansi_8c.html" target="_top" xlink:title=" ">
<polygon fill="white" stroke="#666666" points="383.88,-20 267.38,-20 267.38,0 383.88,0 383.88,-20"/>
<text xml:space="preserve" text-anchor="middle" x="325.62" y="-6.5" font-family="Helvetica,sans-Serif" font-size="10.00">dsps_fft2r_sc16_ansi.c</text>
</a>
</g>
</g>
<!-- Node1&#45;&gt;Node4 -->
<g id="edge3_Node000001_Node000004" class="edge">
<title>Node1&#45;&gt;Node4</title>
<g id="a_edge3_Node000001_Node000004"><a xlink:title=" ">
<path fill="none" stroke="#63b8ff" d="M426.63,-51.4C402.51,-41.75 370.74,-29.05 349.32,-20.48"/>
<polygon fill="#63b8ff" stroke="#63b8ff" points="425.12,-54.57 435.7,-55.03 427.72,-48.07 425.12,-54.57"/>
</a>
</g>
</g>
<!-- Node5 -->
<g id="Node000005" class="node">
<title>Node5</title>
<g id="a_Node000005"><a xlink:href="dsps__fft4r__fc32__ae32_8c.html" target="_top" xlink:title=" ">
<polygon fill="white" stroke="#666666" points="519.25,-20 402,-20 402,0 519.25,0 519.25,-20"/>
<text xml:space="preserve" text-anchor="middle" x="460.62" y="-6.5" font-family="Helvetica,sans-Serif" font-size="10.00">dsps_fft4r_fc32_ae32.c</text>
</a>
</g>
</g>
<!-- Node1&#45;&gt;Node5 -->
<g id="edge4_Node000001_Node000005" class="edge">
<title>Node1&#45;&gt;Node5</title>
<g id="a_edge4_Node000001_Node000005"><a xlink:title=" ">
<path fill="none" stroke="#63b8ff" d="M460.62,-44.13C460.62,-35.9 460.62,-26.85 460.62,-20.3"/>
<polygon fill="#63b8ff" stroke="#63b8ff" points="457.13,-44.08 460.63,-54.08 464.13,-44.08 457.13,-44.08"/>
</a>
</g>
</g>
<!-- Node6 -->
<g id="Node000006" class="node">
<title>Node6</title>
<g id="a_Node000006"><a xlink:href="dsps__fft4r__fc32__ansi_8c.html" target="_top" xlink:title=" ">
<polygon fill="white" stroke="#666666" points="651.75,-20 537.5,-20 537.5,0 651.75,0 651.75,-20"/>
<text xml:space="preserve" text-anchor="middle" x="594.62" y="-6.5" font-family="Helvetica,sans-Serif" font-size="10.00">dsps_fft4r_fc32_ansi.c</text>
</a>
</g>
</g>
<!-- Node1&#45;&gt;Node6 -->
<g id="edge5_Node000001_Node000006" class="edge">
<title>Node1&#45;&gt;Node6</title>
<g id="a_edge5_Node000001_Node000006"><a xlink:title=" ">
<path fill="none" stroke="#63b8ff" d="M494.37,-51.4C518.31,-41.75 549.84,-29.05 571.1,-20.48"/>
<polygon fill="#63b8ff" stroke="#63b8ff" points="493.34,-48.04 485.37,-55.03 495.95,-54.54 493.34,-48.04"/>
</a>
</g>
</g>
<!-- Node7 -->
<g id="Node000007" class="node">
<title>Node7</title>
<g id="a_Node000007"><a xlink:href="main_2main_8c.html" target="_top" xlink:title=" ">
<polygon fill="white" stroke="#666666" points="715.25,-20 670,-20 670,0 715.25,0 715.25,-20"/>
<text xml:space="preserve" text-anchor="middle" x="692.62" y="-6.5" font-family="Helvetica,sans-Serif" font-size="10.00">main.c</text>
</a>
</g>
</g>
<!-- Node1&#45;&gt;Node7 -->
<g id="edge6_Node000001_Node000007" class="edge">
<title>Node1&#45;&gt;Node7</title>
<g id="a_edge6_Node000001_Node000007"><a xlink:title=" ">
<path fill="none" stroke="#63b8ff" d="M501.6,-56.44C542.13,-47.82 605.87,-33.85 660.62,-20 663.53,-19.26 666.58,-18.46 669.59,-17.63"/>
<polygon fill="#63b8ff" stroke="#63b8ff" points="501.1,-52.97 492.04,-58.47 502.55,-59.82 501.1,-52.97"/>
</a>
</g>
</g>
<!-- Node8 -->
<g id="Node000008" class="node">
<title>Node8</title>
<g id="a_Node000008"><a xlink:href="vfs__tinyusb_8c.html" target="_top" xlink:title=" ">
<polygon fill="white" stroke="#666666" points="807.88,-20 733.38,-20 733.38,0 807.88,0 807.88,-20"/>
<text xml:space="preserve" text-anchor="middle" x="770.62" y="-6.5" font-family="Helvetica,sans-Serif" font-size="10.00">vfs_tinyusb.c</text>
</a>
</g>
</g>
<!-- Node1&#45;&gt;Node8 -->
<g id="edge7_Node000001_Node000008" class="edge">
<title>Node1&#45;&gt;Node8</title>
<g id="a_edge7_Node000001_Node000008"><a xlink:title=" ">
<path fill="none" stroke="#63b8ff" d="M501.84,-58.29C553.84,-49.76 645.96,-34.4 724.62,-20 727.35,-19.5 730.16,-18.98 732.98,-18.44"/>
<polygon fill="#63b8ff" stroke="#63b8ff" points="501.55,-54.79 492.25,-59.86 502.68,-61.7 501.55,-54.79"/>
</a>
</g>
</g>
</g>
</svg>
