<?xml version="1.0" encoding="UTF-8" standalone="no"?>
<!DOCTYPE svg PUBLIC "-//W3C//DTD SVG 1.1//EN"
 "http://www.w3.org/Graphics/SVG/1.1/DTD/svg11.dtd">
<!-- Generated by graphviz version 14.1.2 (20260124.0452)
 -->
<!-- Title: app_main Pages: 1 -->
<svg width="611pt" height="344pt"
 viewBox="0.00 0.00 611.00 344.00" xmlns="http://www.w3.org/2000/svg" xmlns:xlink="http://www.w3.org/1999/xlink">
<g id="graph0" class="graph" transform="scale(1 1) rotate(0) translate(4 340)">
<title>app_main</title>
<!-- Node1 -->
<g id="Node000001" class="node">
<title>Node1</title>
<g id="a_Node000001"><a xlink:title=" ">
<polygon fill="#999999" stroke="#666666" points="58,-89 0,-89 0,-69 58,-69 58,-89"/>
<text xml:space="preserve" text-anchor="middle" x="29" y="-75.5" font-family="Helvetica,sans-Serif" font-size="10.00">app_main</text>
</a>
</g>
</g>
<!-- Node2 -->
<g id="Node000002" class="node">
<title>Node2</title>
<g id="a_Node000002"><a xlink:href="external__examples_2b00f000e_2applications_2m5stack__core__s3_2apps_2kalman__filter_2main_23d__kalman__demo_8cpp.html#ad6cae3f4505c3e369a1ac0d3c3b60f42" target="_top" xlink:title="Initialize the application.">
<polygon fill="white" stroke="#666666" points="177.12,-241 127.38,-241 127.38,-221 177.12,-221 177.12,-241"/>
<text xml:space="preserve" text-anchor="middle" x="152.25" y="-227.5" font-family="Helvetica,sans-Serif" font-size="10.00">app_init</text>
</a>
</g>
</g>
<!-- Node1&#45;&gt;Node2 -->
<g id="edge1_Node000001_Node000002" class="edge">
<title>Node1&#45;&gt;Node2</title>
<g id="a_edge1_Node000001_Node000002"><a xlink:title=" ">
<path fill="none" stroke="#63b8ff" d="M38.33,-89.45C58.5,-114.73 110.19,-179.53 136.05,-211.94"/>
<polygon fill="#63b8ff" stroke="#63b8ff" points="133.26,-214.06 142.23,-219.7 138.73,-209.7 133.26,-214.06"/>
</a>
</g>
</g>
<!-- Node8 -->
<g id="Node000008" class="node">
<title>Node8</title>
<g id="a_Node000008"><a xlink:href="applications_2azure__board__apps_2apps_23d__graphics_2main_23d__graphics__demo_8cpp.html#af3debef909dca35dbf0b6f842df6def3" target="_top" xlink:title="RTOS task to draw a 3d image.">
<polygon fill="white" stroke="#666666" points="206.38,-108 98.12,-108 98.12,-88 206.38,-88 206.38,-108"/>
<text xml:space="preserve" text-anchor="middle" x="152.25" y="-94.5" font-family="Helvetica,sans-Serif" font-size="10.00">draw_3d_image_task</text>
</a>
</g>
</g>
<!-- Node1&#45;&gt;Node8 -->
<g id="edge7_Node000001_Node000008" class="edge">
<title>Node1&#45;&gt;Node8</title>
<g id="a_edge7_Node000001_Node000008"><a xlink:title=" ">
<path fill="none" stroke="#63b8ff" d="M58.43,-83.45C66.97,-84.79 76.72,-86.32 86.61,-87.87"/>
<polygon fill="#63b8ff" stroke="#63b8ff" points="85.86,-91.3 96.28,-89.39 86.94,-84.38 85.86,-91.3"/>
</a>
</g>
</g>
<!-- Node17 -->
<g id="Node000017" class="node">
<title>Node17</title>
<g id="a_Node000017"><a xlink:href="external__examples_2b00f000e_2applications_2m5stack__core__s3_2apps_2kalman__filter_2main_23d__kalman__demo_8cpp.html#a3340d28d7e9de0fd62d17e02ce70a52c" target="_top" xlink:title="Initialize 3d image structure.">
<polygon fill="white" stroke="#666666" points="205.62,-70 98.88,-70 98.88,-50 205.62,-50 205.62,-70"/>
<text xml:space="preserve" text-anchor="middle" x="152.25" y="-56.5" font-family="Helvetica,sans-Serif" font-size="10.00">init_3d_matrix_struct</text>
</a>
</g>
</g>
<!-- Node1&#45;&gt;Node17 -->
<g id="edge16_Node000001_Node000017" class="edge">
<title>Node1&#45;&gt;Node17</title>
<g id="a_edge16_Node000001_Node000017"><a xlink:title=" ">
<path fill="none" stroke="#63b8ff" d="M58.43,-74.55C67.27,-73.16 77.4,-71.57 87.64,-69.97"/>
<polygon fill="#63b8ff" stroke="#63b8ff" points="87.91,-73.47 97.25,-68.46 86.83,-66.55 87.91,-73.47"/>
</a>
</g>
</g>
<!-- Node18 -->
<g id="Node000018" class="node">
<title>Node18</title>
<g id="a_Node000018"><a xlink:href="applications_2azure__board__apps_2graphics_23d__matrix_23d__matrix__src_2graphics__support_8cpp.html#ab5c13c601603a6d1b586b8ad9aa7ee98" target="_top" xlink:title="initialize perspective projection matrix">
<polygon fill="white" stroke="#666666" points="210.5,-32 94,-32 94,-12 210.5,-12 210.5,-32"/>
<text xml:space="preserve" text-anchor="middle" x="152.25" y="-18.5" font-family="Helvetica,sans-Serif" font-size="10.00">init_perspective_matrix</text>
</a>
</g>
</g>
<!-- Node1&#45;&gt;Node18 -->
<g id="edge17_Node000001_Node000018" class="edge">
<title>Node1&#45;&gt;Node18</title>
<g id="a_edge17_Node000001_Node000018"><a xlink:title=" ">
<path fill="none" stroke="#63b8ff" d="M45.27,-68.66C57.93,-60.4 76.6,-48.94 94,-41 97.54,-39.39 101.25,-37.84 105.02,-36.38"/>
<polygon fill="#63b8ff" stroke="#63b8ff" points="106.06,-39.72 114.25,-33 103.65,-33.15 106.06,-39.72"/>
</a>
</g>
</g>
<!-- Node3 -->
<g id="Node000003" class="node">
<title>Node3</title>
<g id="a_Node000003"><a xlink:href="external__examples_2b00f000e_2applications_2m5stack__core__s3_2apps_2kalman__filter_2main_23d__kalman__demo_8cpp.html#af738e0476293a8e7822b85ba126ba159" target="_top" xlink:title=" ">
<polygon fill="white" stroke="#666666" points="349.12,-336 258.88,-336 258.88,-316 349.12,-316 349.12,-336"/>
<text xml:space="preserve" text-anchor="middle" x="304" y="-322.5" font-family="Helvetica,sans-Serif" font-size="10.00">read_bmi270_reg</text>
</a>
</g>
</g>
<!-- Node2&#45;&gt;Node3 -->
<g id="edge2_Node000002_Node000003" class="edge">
<title>Node2&#45;&gt;Node3</title>
<g id="a_edge2_Node000002_Node000003"><a xlink:title=" ">
<path fill="none" stroke="#63b8ff" d="M163.24,-241.25C179.4,-257.3 212.85,-288.44 246.5,-307 249.3,-308.55 252.25,-310 255.28,-311.35"/>
<polygon fill="#63b8ff" stroke="#63b8ff" points="253.73,-314.5 264.31,-315.02 256.36,-308.01 253.73,-314.5"/>
</a>
</g>
</g>
<!-- Node4 -->
<g id="Node000004" class="node">
<title>Node4</title>
<g id="a_Node000004"><a xlink:href="external__examples_2b00f000e_2applications_2m5stack__core__s3_2apps_2kalman__filter_2main_23d__kalman__demo_8cpp.html#aaa70e24a0cabfe8a2f7b4d1a8cb38915" target="_top" xlink:title=" ">
<polygon fill="white" stroke="#666666" points="354.75,-298 253.25,-298 253.25,-278 354.75,-278 354.75,-298"/>
<text xml:space="preserve" text-anchor="middle" x="304" y="-284.5" font-family="Helvetica,sans-Serif" font-size="10.00">read_bmm150_data</text>
</a>
</g>
</g>
<!-- Node2&#45;&gt;Node4 -->
<g id="edge3_Node000002_Node000004" class="edge">
<title>Node2&#45;&gt;Node4</title>
<g id="a_edge3_Node000002_Node000004"><a xlink:title=" ">
<path fill="none" stroke="#63b8ff" d="M177.24,-241.26C195.98,-249.15 222.74,-260.17 246.5,-269 250.92,-270.64 255.56,-272.3 260.19,-273.92"/>
<polygon fill="#63b8ff" stroke="#63b8ff" points="258.88,-277.17 269.47,-277.1 261.15,-270.55 258.88,-277.17"/>
</a>
</g>
</g>
<!-- Node5 -->
<g id="Node000005" class="node">
<title>Node5</title>
<g id="a_Node000005"><a xlink:href="external__examples_2b00f000e_2applications_2m5stack__core__s3_2apps_2kalman__filter_2main_23d__kalman__demo_8cpp.html#a3bbb9efa771a4f9e06817a8cb0d14501" target="_top" xlink:title=" ">
<polygon fill="white" stroke="#666666" points="352.88,-260 255.12,-260 255.12,-240 352.88,-240 352.88,-260"/>
<text xml:space="preserve" text-anchor="middle" x="304" y="-246.5" font-family="Helvetica,sans-Serif" font-size="10.00">write_bmi270_data</text>
</a>
</g>
</g>
<!-- Node2&#45;&gt;Node5 -->
<g id="edge4_Node000002_Node000005" class="edge">
<title>Node2&#45;&gt;Node5</title>
<g id="a_edge4_Node000002_Node000005"><a xlink:title=" ">
<path fill="none" stroke="#63b8ff" d="M177.31,-234.05C195.21,-236.32 220.46,-239.53 243.63,-242.47"/>
<polygon fill="#63b8ff" stroke="#63b8ff" points="242.94,-245.91 253.3,-243.69 243.82,-238.96 242.94,-245.91"/>
</a>
</g>
</g>
<!-- Node6 -->
<g id="Node000006" class="node">
<title>Node6</title>
<g id="a_Node000006"><a xlink:href="external__examples_2b00f000e_2applications_2m5stack__core__s3_2apps_2kalman__filter_2main_23d__kalman__demo_8cpp.html#a41d4e2f025faabb41f47bc054cf3d92a" target="_top" xlink:title=" ">
<polygon fill="white" stroke="#666666" points="350.25,-222 257.75,-222 257.75,-202 350.25,-202 350.25,-222"/>
<text xml:space="preserve" text-anchor="middle" x="304" y="-208.5" font-family="Helvetica,sans-Serif" font-size="10.00">write_bmi270_reg</text>
</a>
</g>
</g>
<!-- Node2&#45;&gt;Node6 -->
<g id="edge5_Node000002_Node000006" class="edge">
<title>Node2&#45;&gt;Node6</title>
<g id="a_edge5_Node000002_Node000006"><a xlink:title=" ">
<path fill="none" stroke="#63b8ff" d="M177.31,-227.95C195.94,-225.58 222.51,-222.21 246.43,-219.18"/>
<polygon fill="#63b8ff" stroke="#63b8ff" points="246.57,-222.69 256.05,-217.96 245.69,-215.74 246.57,-222.69"/>
</a>
</g>
</g>
<!-- Node7 -->
<g id="Node000007" class="node">
<title>Node7</title>
<g id="a_Node000007"><a xlink:href="external__examples_2b00f000e_2applications_2m5stack__core__s3_2apps_2kalman__filter_2main_23d__kalman__demo_8cpp.html#a3ea8f747686c9736edb1c30a2bf5d3ca" target="_top" xlink:title=" ">
<polygon fill="white" stroke="#666666" points="355.88,-184 252.12,-184 252.12,-164 355.88,-164 355.88,-184"/>
<text xml:space="preserve" text-anchor="middle" x="304" y="-170.5" font-family="Helvetica,sans-Serif" font-size="10.00">write_bmm150_data</text>
</a>
</g>
</g>
<!-- Node2&#45;&gt;Node7 -->
<g id="edge6_Node000002_Node000007" class="edge">
<title>Node2&#45;&gt;Node7</title>
<g id="a_edge6_Node000002_Node000007"><a xlink:title=" ">
<path fill="none" stroke="#63b8ff" d="M177.24,-220.74C195.98,-212.85 222.74,-201.83 246.5,-193 250.92,-191.36 255.56,-189.7 260.19,-188.08"/>
<polygon fill="#63b8ff" stroke="#63b8ff" points="261.15,-191.45 269.47,-184.9 258.88,-184.83 261.15,-191.45"/>
</a>
</g>
</g>
<!-- Node9 -->
<g id="Node000009" class="node">
<title>Node9</title>
<g id="a_Node000009"><a xlink:href="applications_2azure__board__apps_2apps_23d__graphics_2main_23d__graphics__demo_8cpp.html#a4b024d66e45ca738ce324999e3d8f75b" target="_top" xlink:title="Display a 3d image.">
<polygon fill="white" stroke="#666666" points="351,-146 257,-146 257,-126 351,-126 351,-146"/>
<text xml:space="preserve" text-anchor="middle" x="304" y="-132.5" font-family="Helvetica,sans-Serif" font-size="10.00">display_3d_image</text>
</a>
</g>
</g>
<!-- Node8&#45;&gt;Node9 -->
<g id="edge8_Node000008_Node000009" class="edge">
<title>Node8&#45;&gt;Node9</title>
<g id="a_edge8_Node000008_Node000009"><a xlink:title=" ">
<path fill="none" stroke="#63b8ff" d="M194.57,-108.48C211.92,-112.89 232.3,-118.06 250.68,-122.72"/>
<polygon fill="#63b8ff" stroke="#63b8ff" points="249.8,-126.11 260.35,-125.18 251.52,-119.33 249.8,-126.11"/>
</a>
</g>
</g>
<!-- Node10 -->
<g id="Node000010" class="node">
<title>Node10</title>
<g id="a_Node000010"><a xlink:href="classdspm_1_1_mat.html#a7502c6d836d1ae05f6880620c1a832b5" target="_top" xlink:title=" ">
<polygon fill="white" stroke="#666666" points="481.75,-108 397.5,-108 397.5,-88 481.75,-88 481.75,-108"/>
<text xml:space="preserve" text-anchor="middle" x="439.62" y="-94.5" font-family="Helvetica,sans-Serif" font-size="10.00">dspm::Mat::eye</text>
</a>
</g>
</g>
<!-- Node8&#45;&gt;Node10 -->
<g id="edge9_Node000008_Node000010" class="edge">
<title>Node8&#45;&gt;Node10</title>
<g id="a_edge9_Node000008_Node000010"><a xlink:title=" ">
<path fill="none" stroke="#63b8ff" d="M206.59,-98C257.78,-98 334.63,-98 385.68,-98"/>
<polygon fill="#63b8ff" stroke="#63b8ff" points="385.6,-101.5 395.6,-98 385.6,-94.5 385.6,-101.5"/>
</a>
</g>
</g>
<!-- Node13 -->
<g id="Node000013" class="node">
<title>Node13</title>
<g id="a_Node000013"><a xlink:href="applications_2azure__board__apps_2graphics_23d__matrix_23d__matrix__src_2graphics__support_8cpp.html#abddf00a5f71e067190147e3ecdb49d3f" target="_top" xlink:title="update rotation matrix">
<polygon fill="white" stroke="#666666" points="361.5,-70 246.5,-70 246.5,-50 361.5,-50 361.5,-70"/>
<text xml:space="preserve" text-anchor="middle" x="304" y="-56.5" font-family="Helvetica,sans-Serif" font-size="10.00">update_rotation_matrix</text>
</a>
</g>
</g>
<!-- Node8&#45;&gt;Node13 -->
<g id="edge11_Node000008_Node000013" class="edge">
<title>Node8&#45;&gt;Node13</title>
<g id="a_edge11_Node000008_Node000013"><a xlink:title=" ">
<path fill="none" stroke="#63b8ff" d="M194.57,-87.52C211.92,-83.11 232.3,-77.94 250.68,-73.28"/>
<polygon fill="#63b8ff" stroke="#63b8ff" points="251.52,-76.67 260.35,-70.82 249.8,-69.89 251.52,-76.67"/>
</a>
</g>
</g>
<!-- Node16 -->
<g id="Node000016" class="node">
<title>Node16</title>
<g id="a_Node000016"><a xlink:href="applications_2azure__board__apps_2graphics_23d__matrix_23d__matrix__src_2graphics__support_8cpp.html#a2f5dfc8616993b1485635978ec29513d" target="_top" xlink:title="update translation matrix">
<polygon fill="white" stroke="#666666" points="351.75,-32 256.25,-32 256.25,0 351.75,0 351.75,-32"/>
<text xml:space="preserve" text-anchor="start" x="264.25" y="-18.5" font-family="Helvetica,sans-Serif" font-size="10.00">update_translation</text>
<text xml:space="preserve" text-anchor="middle" x="304" y="-6.5" font-family="Helvetica,sans-Serif" font-size="10.00">_matrix</text>
</a>
</g>
</g>
<!-- Node8&#45;&gt;Node16 -->
<g id="edge15_Node000008_Node000016" class="edge">
<title>Node8&#45;&gt;Node16</title>
<g id="a_edge15_Node000008_Node000016"><a xlink:title=" ">
<path fill="none" stroke="#63b8ff" d="M193.22,-87.57C199.24,-85.21 205.2,-82.37 210.5,-79 230.13,-66.52 227.49,-54.41 246.5,-41 248.04,-39.92 249.63,-38.86 251.26,-37.84"/>
<polygon fill="#63b8ff" stroke="#63b8ff" points="252.65,-41.08 259.62,-33.1 249.19,-34.99 252.65,-41.08"/>
</a>
</g>
</g>
<!-- Node11 -->
<g id="Node000011" class="node">
<title>Node11</title>
<g id="a_Node000011"><a xlink:href="classdspm_1_1_mat.html#a5eb6987452e618ba8d638a6773a074df" target="_top" xlink:title=" ">
<polygon fill="#fff0f0" stroke="red" points="602.75,-70 517.75,-70 517.75,-50 602.75,-50 602.75,-70"/>
<text xml:space="preserve" text-anchor="middle" x="560.25" y="-56.5" font-family="Helvetica,sans-Serif" font-size="10.00">dspm::Mat::Mat</text>
</a>
</g>
</g>
<!-- Node10&#45;&gt;Node11 -->
<g id="edge10_Node000010_Node000011" class="edge">
<title>Node10&#45;&gt;Node11</title>
<g id="a_edge10_Node000010_Node000011"><a xlink:title=" ">
<path fill="none" stroke="#63b8ff" d="M473.35,-87.52C486.45,-83.32 501.72,-78.43 515.73,-73.94"/>
<polygon fill="#63b8ff" stroke="#63b8ff" points="516.73,-77.3 525.19,-70.91 514.6,-70.63 516.73,-77.3"/>
</a>
</g>
</g>
<!-- Node14 -->
<g id="Node000014" class="node">
<title>Node14</title>
<g id="a_Node000014"><a xlink:href="classekf.html#a6e279ffd67d217145d7891a44ea0d9e8" target="_top" xlink:title=" ">
<polygon fill="white" stroke="#666666" points="476.12,-70 403.12,-70 403.12,-50 476.12,-50 476.12,-70"/>
<text xml:space="preserve" text-anchor="middle" x="439.62" y="-56.5" font-family="Helvetica,sans-Serif" font-size="10.00">ekf::eul2rotm</text>
</a>
</g>
</g>
<!-- Node13&#45;&gt;Node14 -->
<g id="edge12_Node000013_Node000014" class="edge">
<title>Node13&#45;&gt;Node14</title>
<g id="a_edge12_Node000013_Node000014"><a xlink:title=" ">
<path fill="none" stroke="#63b8ff" d="M361.67,-60C371.58,-60 381.8,-60 391.42,-60"/>
<polygon fill="#63b8ff" stroke="#63b8ff" points="391.29,-63.5 401.29,-60 391.29,-56.5 391.29,-63.5"/>
</a>
</g>
</g>
<!-- Node15 -->
<g id="Node000015" class="node">
<title>Node15</title>
<g id="a_Node000015"><a xlink:href="classdspm_1_1_mat.html#af1013adcb6d601fba7bf788fd52d80b4" target="_top" xlink:title=" ">
<polygon fill="white" stroke="#666666" points="475.38,-32 403.88,-32 403.88,-12 475.38,-12 475.38,-32"/>
<text xml:space="preserve" text-anchor="middle" x="439.62" y="-18.5" font-family="Helvetica,sans-Serif" font-size="10.00">dspm::Mat::t</text>
</a>
</g>
</g>
<!-- Node13&#45;&gt;Node15 -->
<g id="edge13_Node000013_Node000015" class="edge">
<title>Node13&#45;&gt;Node15</title>
<g id="a_edge13_Node000013_Node000015"><a xlink:title=" ">
<path fill="none" stroke="#63b8ff" d="M341.87,-49.52C357.71,-45.01 376.38,-39.7 393.08,-34.95"/>
<polygon fill="#63b8ff" stroke="#63b8ff" points="393.6,-38.44 402.26,-32.34 391.69,-31.71 393.6,-38.44"/>
</a>
</g>
</g>
<!-- Node15&#45;&gt;Node11 -->
<g id="edge14_Node000015_Node000011" class="edge">
<title>Node15&#45;&gt;Node11</title>
<g id="a_edge14_Node000015_Node000011"><a xlink:title=" ">
<path fill="none" stroke="#63b8ff" d="M473.35,-32.48C486.45,-36.68 501.72,-41.57 515.73,-46.06"/>
<polygon fill="#63b8ff" stroke="#63b8ff" points="514.6,-49.37 525.19,-49.09 516.73,-42.7 514.6,-49.37"/>
</a>
</g>
</g>
</g>
</svg>
