<?xml version="1.0" encoding="UTF-8" standalone="no"?>
<!DOCTYPE svg PUBLIC "-//W3C//DTD SVG 1.1//EN"
 "http://www.w3.org/Graphics/SVG/1.1/DTD/svg11.dtd">
<!-- Generated by graphviz version 14.1.2 (20260124.0452)
 -->
<!-- Title: dsp_display_start_with_config Pages: 1 -->
<svg width="676pt" height="104pt"
 viewBox="0.00 0.00 676.00 104.00" xmlns="http://www.w3.org/2000/svg" xmlns:xlink="http://www.w3.org/1999/xlink">
<g id="graph0" class="graph" transform="scale(1 1) rotate(0) translate(4 100)">
<title>dsp_display_start_with_config</title>
<!-- Node1 -->
<g id="Node000001" class="node">
<title>Node1</title>
<g id="a_Node000001"><a xlink:title=" ">
<polygon fill="#999999" stroke="#666666" points="115.75,-45 0,-45 0,-13 115.75,-13 115.75,-45"/>
<text xml:space="preserve" text-anchor="start" x="8" y="-31.5" font-family="Helvetica,sans-Serif" font-size="10.00">dsp_display_start_with</text>
<text xml:space="preserve" text-anchor="middle" x="57.88" y="-19.5" font-family="Helvetica,sans-Serif" font-size="10.00">_config</text>
</a>
</g>
</g>
<!-- Node2 -->
<g id="Node000002" class="node">
<title>Node2</title>
<g id="a_Node000002"><a xlink:href="external__examples_2b00f000e_2applications_2m5stack__core__s3_2apps_23d__graphics_2main_2init__display_8c.html#a042e5da5d3336dd10ebda5674ec495c3" target="_top" xlink:title=" ">
<polygon fill="white" stroke="#666666" points="255.5,-58 151.75,-58 151.75,-38 255.5,-38 255.5,-58"/>
<text xml:space="preserve" text-anchor="middle" x="203.62" y="-44.5" font-family="Helvetica,sans-Serif" font-size="10.00">bsp_display_lcd_init</text>
</a>
</g>
</g>
<!-- Node1&#45;&gt;Node2 -->
<g id="edge1_Node000001_Node000002" class="edge">
<title>Node1&#45;&gt;Node2</title>
<g id="a_edge1_Node000001_Node000002"><a xlink:title=" ">
<path fill="none" stroke="#63b8ff" d="M116.1,-36.56C124.08,-37.62 132.32,-38.71 140.39,-39.77"/>
<polygon fill="#63b8ff" stroke="#63b8ff" points="139.77,-43.22 150.14,-41.06 140.69,-36.28 139.77,-43.22"/>
</a>
</g>
</g>
<!-- Node7 -->
<g id="Node000007" class="node">
<title>Node7</title>
<g id="a_Node000007"><a xlink:href="external__examples_2b00f000e_2applications_2m5stack__core__s3_2apps_23d__graphics_2main_2init__display_8c.html#ae0e932afc1e59f18ce869a88e5954baf" target="_top" xlink:title=" ">
<polygon fill="white" stroke="#666666" points="427.5,-20 291.5,-20 291.5,0 427.5,0 427.5,-20"/>
<text xml:space="preserve" text-anchor="middle" x="359.5" y="-6.5" font-family="Helvetica,sans-Serif" font-size="10.00">dsp_display_brightness_init</text>
</a>
</g>
</g>
<!-- Node1&#45;&gt;Node7 -->
<g id="edge6_Node000001_Node000007" class="edge">
<title>Node1&#45;&gt;Node7</title>
<g id="a_edge6_Node000001_Node000007"><a xlink:title=" ">
<path fill="none" stroke="#63b8ff" d="M115.94,-25.38C162.35,-22.44 228.33,-18.25 279.77,-14.99"/>
<polygon fill="#63b8ff" stroke="#63b8ff" points="279.9,-18.49 289.66,-14.37 279.46,-11.51 279.9,-18.49"/>
</a>
</g>
</g>
<!-- Node3 -->
<g id="Node000003" class="node">
<title>Node3</title>
<g id="a_Node000003"><a xlink:href="external__examples_2b00f000e_2applications_2m5stack__core__s3_2apps_23d__graphics_2main_2init__display_8c.html#acbf166af6a0c6f9ee069922e14c83023" target="_top" xlink:title=" ">
<polygon fill="white" stroke="#666666" points="405,-58 314,-58 314,-38 405,-38 405,-58"/>
<text xml:space="preserve" text-anchor="middle" x="359.5" y="-44.5" font-family="Helvetica,sans-Serif" font-size="10.00">dsp_display_new</text>
</a>
</g>
</g>
<!-- Node2&#45;&gt;Node3 -->
<g id="edge2_Node000002_Node000003" class="edge">
<title>Node2&#45;&gt;Node3</title>
<g id="a_edge2_Node000002_Node000003"><a xlink:title=" ">
<path fill="none" stroke="#63b8ff" d="M255.86,-48C270.77,-48 287.14,-48 302.33,-48"/>
<polygon fill="#63b8ff" stroke="#63b8ff" points="302.17,-51.5 312.17,-48 302.17,-44.5 302.17,-51.5"/>
</a>
</g>
</g>
<!-- Node4 -->
<g id="Node000004" class="node">
<title>Node4</title>
<g id="a_Node000004"><a xlink:href="external__examples_2b00f000e_2applications_2m5stack__core__s3_2apps_23d__graphics_2main_2init__display_8c.html#ad7f56c5752f2747c0774a27b5622674b" target="_top" xlink:title=" ">
<polygon fill="white" stroke="#666666" points="564.25,-96 463.5,-96 463.5,-76 564.25,-76 564.25,-96"/>
<text xml:space="preserve" text-anchor="middle" x="513.88" y="-82.5" font-family="Helvetica,sans-Serif" font-size="10.00">bsp_enable_feature</text>
</a>
</g>
</g>
<!-- Node3&#45;&gt;Node4 -->
<g id="edge3_Node000003_Node000004" class="edge">
<title>Node3&#45;&gt;Node4</title>
<g id="a_edge3_Node000003_Node000004"><a xlink:title=" ">
<path fill="none" stroke="#63b8ff" d="M402.54,-58.48C420.28,-62.91 441.13,-68.11 459.9,-72.79"/>
<polygon fill="#63b8ff" stroke="#63b8ff" points="458.95,-76.16 469.5,-75.18 460.65,-69.37 458.95,-76.16"/>
</a>
</g>
</g>
<!-- Node6 -->
<g id="Node000006" class="node">
<title>Node6</title>
<g id="a_Node000006"><a xlink:href="external__examples_2b00f000e_2applications_2m5stack__core__s3_2apps_23d__graphics_2main_2init__display_8c.html#ab742706b828d976fd293882d63d561a7" target="_top" xlink:title=" ">
<polygon fill="white" stroke="#666666" points="547.75,-58 480,-58 480,-38 547.75,-38 547.75,-58"/>
<text xml:space="preserve" text-anchor="middle" x="513.88" y="-44.5" font-family="Helvetica,sans-Serif" font-size="10.00">bsp_spi_init</text>
</a>
</g>
</g>
<!-- Node3&#45;&gt;Node6 -->
<g id="edge5_Node000003_Node000006" class="edge">
<title>Node3&#45;&gt;Node6</title>
<g id="a_edge5_Node000003_Node000006"><a xlink:title=" ">
<path fill="none" stroke="#63b8ff" d="M405.39,-48C425.35,-48 448.78,-48 468.66,-48"/>
<polygon fill="#63b8ff" stroke="#63b8ff" points="468.39,-51.5 478.39,-48 468.39,-44.5 468.39,-51.5"/>
</a>
</g>
</g>
<!-- Node5 -->
<g id="Node000005" class="node">
<title>Node5</title>
<g id="a_Node000005"><a xlink:href="external__examples_2b00f000e_2applications_2m5stack__core__s3_2apps_23d__graphics_2main_2init__display_8c.html#afb504c284aa8a47f2ffee89038bd5b98" target="_top" xlink:title=" ">
<polygon fill="white" stroke="#666666" points="668,-58 600.25,-58 600.25,-38 668,-38 668,-58"/>
<text xml:space="preserve" text-anchor="middle" x="634.12" y="-44.5" font-family="Helvetica,sans-Serif" font-size="10.00">bsp_i2c_init</text>
</a>
</g>
</g>
<!-- Node4&#45;&gt;Node5 -->
<g id="edge4_Node000004_Node000005" class="edge">
<title>Node4&#45;&gt;Node5</title>
<g id="a_edge4_Node000004_Node000005"><a xlink:title=" ">
<path fill="none" stroke="#63b8ff" d="M547.5,-75.52C560.55,-71.32 575.78,-66.43 589.74,-61.94"/>
<polygon fill="#63b8ff" stroke="#63b8ff" points="590.72,-65.3 599.17,-58.91 588.57,-58.64 590.72,-65.3"/>
</a>
</g>
</g>
<!-- Node7&#45;&gt;Node5 -->
<g id="edge7_Node000007_Node000005" class="edge">
<title>Node7&#45;&gt;Node5</title>
<g id="a_edge7_Node000007_Node000005"><a xlink:title=" ">
<path fill="none" stroke="#63b8ff" d="M427.9,-13.3C467.79,-15.99 519.17,-20.75 564.25,-29 572.3,-30.47 580.78,-32.45 588.93,-34.57"/>
<polygon fill="#63b8ff" stroke="#63b8ff" points="587.74,-37.88 598.31,-37.13 589.58,-31.12 587.74,-37.88"/>
</a>
</g>
</g>
</g>
</svg>
