<?xml version="1.0" encoding="UTF-8" standalone="no"?>
<!DOCTYPE svg PUBLIC "-//W3C//DTD SVG 1.1//EN"
 "http://www.w3.org/Graphics/SVG/1.1/DTD/svg11.dtd">
<!-- Generated by graphviz version 14.1.2 (20260124.0452)
 -->
<!-- Title: audio_read_task Pages: 1 -->
<svg width="237pt" height="142pt"
 viewBox="0.00 0.00 237.00 142.00" xmlns="http://www.w3.org/2000/svg" xmlns:xlink="http://www.w3.org/1999/xlink">
<g id="graph0" class="graph" transform="scale(1 1) rotate(0) translate(4 138)">
<title>audio_read_task</title>
<!-- Node1 -->
<g id="Node000001" class="node">
<title>Node1</title>
<g id="a_Node000001"><a xlink:title=" ">
<polygon fill="#999999" stroke="#666666" points="87.25,-77 0,-77 0,-57 87.25,-57 87.25,-77"/>
<text xml:space="preserve" text-anchor="middle" x="43.62" y="-63.5" font-family="Helvetica,sans-Serif" font-size="10.00">audio_read_task</text>
</a>
</g>
</g>
<!-- Node2 -->
<g id="Node000002" class="node">
<title>Node2</title>
<g id="a_Node000002"><a xlink:href="external__examples_2b00f000e_2applications_2lyrat__board__app_2main_2audio__amp__main_8c.html#ae8bef2245ac9fb55d56a7af6c4b5fe5d" target="_top" xlink:title=" ">
<polygon fill="white" stroke="#666666" points="225.5,-134 126.25,-134 126.25,-114 225.5,-114 225.5,-134"/>
<text xml:space="preserve" text-anchor="middle" x="175.88" y="-120.5" font-family="Helvetica,sans-Serif" font-size="10.00">convert_float2short</text>
</a>
</g>
</g>
<!-- Node1&#45;&gt;Node2 -->
<g id="edge1_Node000001_Node000002" class="edge">
<title>Node1&#45;&gt;Node2</title>
<g id="a_edge1_Node000001_Node000002"><a xlink:title=" ">
<path fill="none" stroke="#63b8ff" d="M64.74,-77.39C80.48,-85.36 103.01,-96.41 123.25,-105 126.83,-106.52 130.58,-108.04 134.35,-109.51"/>
<polygon fill="#63b8ff" stroke="#63b8ff" points="132.92,-112.71 143.51,-113 135.41,-106.17 132.92,-112.71"/>
</a>
</g>
</g>
<!-- Node3 -->
<g id="Node000003" class="node">
<title>Node3</title>
<g id="a_Node000003"><a xlink:href="external__examples_2b00f000e_2applications_2lyrat__board__app_2main_2audio__amp__main_8c.html#aedfa0ee2b0d2e41a702707315faa5e10" target="_top" xlink:title=" ">
<polygon fill="white" stroke="#666666" points="225.5,-96 126.25,-96 126.25,-76 225.5,-76 225.5,-96"/>
<text xml:space="preserve" text-anchor="middle" x="175.88" y="-82.5" font-family="Helvetica,sans-Serif" font-size="10.00">convert_short2float</text>
</a>
</g>
</g>
<!-- Node1&#45;&gt;Node3 -->
<g id="edge2_Node000001_Node000003" class="edge">
<title>Node1&#45;&gt;Node3</title>
<g id="a_edge2_Node000001_Node000003"><a xlink:title=" ">
<path fill="none" stroke="#63b8ff" d="M87.63,-73.27C96.38,-74.55 105.73,-75.91 114.94,-77.26"/>
<polygon fill="#63b8ff" stroke="#63b8ff" points="114.15,-80.68 124.55,-78.66 115.16,-73.75 114.15,-80.68"/>
</a>
</g>
</g>
<!-- Node4 -->
<g id="Node000004" class="node">
<title>Node4</title>
<g id="a_Node000004"><a xlink:href="external__examples_2b00f000e_2applications_2lyrat__board__app_2main_2audio__amp__main_8c.html#a021b7404dd661c25c3fba8503b22d2d7" target="_top" xlink:title=" ">
<polygon fill="white" stroke="#666666" points="211.25,-58 140.5,-58 140.5,-38 211.25,-38 211.25,-58"/>
<text xml:space="preserve" text-anchor="middle" x="175.88" y="-44.5" font-family="Helvetica,sans-Serif" font-size="10.00">digitalLimiter</text>
</a>
</g>
</g>
<!-- Node1&#45;&gt;Node4 -->
<g id="edge3_Node000001_Node000004" class="edge">
<title>Node1&#45;&gt;Node4</title>
<g id="a_edge3_Node000001_Node000004"><a xlink:title=" ">
<path fill="none" stroke="#63b8ff" d="M87.63,-60.73C100.82,-58.8 115.37,-56.68 128.75,-54.73"/>
<polygon fill="#63b8ff" stroke="#63b8ff" points="129.26,-58.19 138.65,-53.28 128.24,-51.27 129.26,-58.19"/>
</a>
</g>
</g>
<!-- Node5 -->
<g id="Node000005" class="node">
<title>Node5</title>
<g id="a_Node000005"><a xlink:href="dsps__mulc__f32__ansi_8c.html#a60b32e0d6ff107c7ff8307e2ff612c84" target="_top" xlink:title="multiply constant">
<polygon fill="white" stroke="#666666" points="228.5,-20 123.25,-20 123.25,0 228.5,0 228.5,-20"/>
<text xml:space="preserve" text-anchor="middle" x="175.88" y="-6.5" font-family="Helvetica,sans-Serif" font-size="10.00">dsps_mulc_f32_ansi</text>
</a>
</g>
</g>
<!-- Node1&#45;&gt;Node5 -->
<g id="edge4_Node000001_Node000005" class="edge">
<title>Node1&#45;&gt;Node5</title>
<g id="a_edge4_Node000001_Node000005"><a xlink:title=" ">
<path fill="none" stroke="#63b8ff" d="M64.74,-56.61C80.48,-48.64 103.01,-37.59 123.25,-29 126.83,-27.48 130.58,-25.96 134.35,-24.49"/>
<polygon fill="#63b8ff" stroke="#63b8ff" points="135.41,-27.83 143.51,-21 132.92,-21.29 135.41,-27.83"/>
</a>
</g>
</g>
</g>
</svg>
