<?xml version="1.0" encoding="UTF-8" standalone="no"?>
<!DOCTYPE svg PUBLIC "-//W3C//DTD SVG 1.1//EN"
 "http://www.w3.org/Graphics/SVG/1.1/DTD/svg11.dtd">
<!-- Generated by graphviz version 14.1.2 (20260124.0452)
 -->
<!-- Title: app_main Pages: 1 -->
<!--zoomable 217 -->

<svg id="main" version="1.1" xmlns="http://www.w3.org/2000/svg" xmlns:xlink="http://www.w3.org/1999/xlink" xml:space="preserve" onload="init(evt)">

<style type="text/css"><![CDATA[
.node, .edge {opacity: 0.7;}
.node.selected, .edge.selected {opacity: 1;}
.edge:hover path { stroke: red; }
.edge:hover polygon { stroke: red; fill: red; }
]]></style>

<defs>
  <circle id="rim" cx="0" cy="0" r="7"/>
  <circle id="rim2" cx="0" cy="0" r="3.5"/>
  <g id="zoomPlus">
    <use xlink:href="#rim" fill="#404040"><set attributeName="fill" to="#808080" begin="zoomplus.mouseover" end="zoomplus.mouseout"/></use>
    <path d="M-4,0h8M0,-4v8" fill="none" stroke="white" stroke-width="1.5" pointer-events="none"/>
  </g>
  <g id="zoomMin">
    <use xlink:href="#rim" fill="#404040"><set attributeName="fill" to="#808080" begin="zoomminus.mouseover" end="zoomminus.mouseout"/></use>
    <path d="M-4,0h8" fill="none" stroke="white" stroke-width="1.5" pointer-events="none"/>
  </g>
  <g id="arrowUp" transform="translate(30 24)">
    <use xlink:href="#rim"/>
    <path pointer-events="none" fill="none" stroke="white" stroke-width="1.5" d="M0,-3.0v7 M-2.5,-0.5L0,-3.0L2.5,-0.5"/>
  </g>
  <g id="arrowRight" transform="rotate(90) translate(36 -43)">
    <use xlink:href="#rim"/>
    <path pointer-events="none" fill="none" stroke="white" stroke-width="1.5" d="M0,-3.0v7 M-2.5,-0.5L0,-3.0L2.5,-0.5"/>
  </g>
  <g id="arrowDown" transform="rotate(180) translate(-30 -48)">
    <use xlink:href="#rim"/>
    <path pointer-events="none" fill="none" stroke="white" stroke-width="1.5" d="M0,-3.0v7 M-2.5,-0.5L0,-3.0L2.5,-0.5"/>
  </g>
  <g id="arrowLeft" transform="rotate(270) translate(-36 17)">
    <use xlink:href="#rim"/>
    <path pointer-events="none" fill="none" stroke="white" stroke-width="1.5" d="M0,-3.0v7 M-2.5,-0.5L0,-3.0L2.5,-0.5"/>
  </g>
  <g id="resetDef">
    <use xlink:href="#rim2" fill="#404040"><set attributeName="fill" to="#808080" begin="reset.mouseover" end="reset.mouseout"/></use>
  </g>
</defs>
<script type="application/ecmascript">
var viewWidth = 663;
var viewHeight = 217;
var sectionId = 'dynsection-1';
</script>
<script type="application/ecmascript" xlink:href="svg.min.js"/>
<svg id="graph" class="graph">
<g id="viewport">
<title>app_main</title>
<!-- Node1 -->
<g id="Node000001" class="node">
<title>Node1</title>
<g id="a_Node000001"><a xlink:title=" ">
<polygon fill="#999999" stroke="#666666" points="58,-89 0,-89 0,-69 58,-69 58,-89"/>
<text xml:space="preserve" text-anchor="middle" x="29" y="-75.5" font-family="Helvetica,sans-Serif" font-size="10.00">app_main</text>
</a>
</g>
</g>
<!-- Node2 -->
<g id="Node000002" class="node">
<title>Node2</title>
<g id="a_Node000002"><a xlink:href="external__examples_2b00f000e_2applications_2m5stack__core__s3_2apps_23d__graphics_2main_2init__display_8c.html#af2392dd06c1a7e0f317d26309d9e0d18" target="_top" xlink:title=" ">
<polygon fill="white" stroke="#666666" points="184.62,-168 119.88,-168 119.88,-148 184.62,-148 184.62,-168"/>
<text xml:space="preserve" text-anchor="middle" x="152.25" y="-154.5" font-family="Helvetica,sans-Serif" font-size="10.00">display_init</text>
</a>
</g>
</g>
<!-- Node1&#45;&gt;Node2 -->
<g id="edge1_Node000001_Node000002" class="edge">
<title>Node1&#45;&gt;Node2</title>
<g id="a_edge1_Node000001_Node000002"><a xlink:title=" ">
<path fill="none" stroke="#63b8ff" d="M46.1,-89.49C66.51,-102.79 101.91,-125.85 125.94,-141.51"/>
<polygon fill="#63b8ff" stroke="#63b8ff" points="123.91,-144.36 134.2,-146.89 127.73,-138.5 123.91,-144.36"/>
</a>
</g>
</g>
<!-- Node10 -->
<g id="Node000010" class="node">
<title>Node10</title>
<g id="a_Node000010"><a xlink:href="applications_2azure__board__apps_2apps_23d__graphics_2main_23d__graphics__demo_8cpp.html#af3debef909dca35dbf0b6f842df6def3" target="_top" xlink:title="RTOS task to draw a 3d image.">
<polygon fill="white" stroke="#666666" points="206.38,-108 98.12,-108 98.12,-88 206.38,-88 206.38,-108"/>
<text xml:space="preserve" text-anchor="middle" x="152.25" y="-94.5" font-family="Helvetica,sans-Serif" font-size="10.00">draw_3d_image_task</text>
</a>
</g>
</g>
<!-- Node1&#45;&gt;Node10 -->
<g id="edge5_Node000001_Node000010" class="edge">
<title>Node1&#45;&gt;Node10</title>
<g id="a_edge5_Node000001_Node000010"><a xlink:title=" ">
<path fill="none" stroke="#63b8ff" d="M58.43,-83.45C66.97,-84.79 76.72,-86.32 86.61,-87.87"/>
<polygon fill="#63b8ff" stroke="#63b8ff" points="85.86,-91.3 96.28,-89.39 86.94,-84.38 85.86,-91.3"/>
</a>
</g>
</g>
<!-- Node19 -->
<g id="Node000019" class="node">
<title>Node19</title>
<g id="a_Node000019"><a xlink:href="external__examples_2b00f000e_2applications_2m5stack__core__s3_2apps_23d__graphics_2main_23d__graphics__demo_8cpp.html#a3340d28d7e9de0fd62d17e02ce70a52c" target="_top" xlink:title="Initialize 3d image structure.">
<polygon fill="white" stroke="#666666" points="205.62,-70 98.88,-70 98.88,-50 205.62,-50 205.62,-70"/>
<text xml:space="preserve" text-anchor="middle" x="152.25" y="-56.5" font-family="Helvetica,sans-Serif" font-size="10.00">init_3d_matrix_struct</text>
</a>
</g>
</g>
<!-- Node1&#45;&gt;Node19 -->
<g id="edge14_Node000001_Node000019" class="edge">
<title>Node1&#45;&gt;Node19</title>
<g id="a_edge14_Node000001_Node000019"><a xlink:title=" ">
<path fill="none" stroke="#63b8ff" d="M58.43,-74.55C67.27,-73.16 77.4,-71.57 87.64,-69.97"/>
<polygon fill="#63b8ff" stroke="#63b8ff" points="87.91,-73.47 97.25,-68.46 86.83,-66.55 87.91,-73.47"/>
</a>
</g>
</g>
<!-- Node20 -->
<g id="Node000020" class="node">
<title>Node20</title>
<g id="a_Node000020"><a xlink:href="applications_2azure__board__apps_2graphics_23d__matrix_23d__matrix__src_2graphics__support_8cpp.html#ab5c13c601603a6d1b586b8ad9aa7ee98" target="_top" xlink:title="initialize perspective projection matrix">
<polygon fill="white" stroke="#666666" points="210.5,-32 94,-32 94,-12 210.5,-12 210.5,-32"/>
<text xml:space="preserve" text-anchor="middle" x="152.25" y="-18.5" font-family="Helvetica,sans-Serif" font-size="10.00">init_perspective_matrix</text>
</a>
</g>
</g>
<!-- Node1&#45;&gt;Node20 -->
<g id="edge15_Node000001_Node000020" class="edge">
<title>Node1&#45;&gt;Node20</title>
<g id="a_edge15_Node000001_Node000020"><a xlink:title=" ">
<path fill="none" stroke="#63b8ff" d="M45.27,-68.66C57.93,-60.4 76.6,-48.94 94,-41 97.54,-39.39 101.25,-37.84 105.02,-36.38"/>
<polygon fill="#63b8ff" stroke="#63b8ff" points="106.06,-39.72 114.25,-33 103.65,-33.15 106.06,-39.72"/>
</a>
</g>
</g>
<!-- Node3 -->
<g id="Node000003" class="node">
<title>Node3</title>
<g id="a_Node000003"><a xlink:href="external__examples_2b00f000e_2applications_2m5stack__core__s3_2apps_23d__graphics_2main_2init__display_8c.html#aea76cb12d19d5676634c1a78817fa316" target="_top" xlink:title=" ">
<polygon fill="white" stroke="#666666" points="362.25,-196 246.5,-196 246.5,-164 362.25,-164 362.25,-196"/>
<text xml:space="preserve" text-anchor="start" x="254.5" y="-182.5" font-family="Helvetica,sans-Serif" font-size="10.00">dsp_display_start_with</text>
<text xml:space="preserve" text-anchor="middle" x="304.38" y="-170.5" font-family="Helvetica,sans-Serif" font-size="10.00">_config</text>
</a>
</g>
</g>
<!-- Node2&#45;&gt;Node3 -->
<g id="edge2_Node000002_Node000003" class="edge">
<title>Node2&#45;&gt;Node3</title>
<g id="a_edge2_Node000002_Node000003"><a xlink:title=" ">
<path fill="none" stroke="#63b8ff" d="M185.09,-162.67C199.63,-164.8 217.46,-167.41 234.82,-169.95"/>
<polygon fill="#63b8ff" stroke="#63b8ff" points="234.22,-173.4 244.63,-171.39 235.24,-166.48 234.22,-173.4"/>
</a>
</g>
</g>
<!-- Node4 -->
<g id="Node000004" class="node">
<title>Node4</title>
<g id="a_Node000004"><a xlink:href="external__examples_2b00f000e_2applications_2m5stack__core__s3_2apps_23d__graphics_2main_2init__display_8c.html#a042e5da5d3336dd10ebda5674ec495c3" target="_top" xlink:title=" ">
<polygon fill="#fff0f0" stroke="red" points="518.12,-209 414.38,-209 414.38,-189 518.12,-189 518.12,-209"/>
<text xml:space="preserve" text-anchor="middle" x="466.25" y="-195.5" font-family="Helvetica,sans-Serif" font-size="10.00">bsp_display_lcd_init</text>
</a>
</g>
</g>
<!-- Node3&#45;&gt;Node4 -->
<g id="edge3_Node000003_Node000004" class="edge">
<title>Node3&#45;&gt;Node4</title>
<g id="a_edge3_Node000003_Node000004"><a xlink:title=" ">
<path fill="none" stroke="#63b8ff" d="M362.64,-186.81C375.6,-188.35 389.43,-189.99 402.59,-191.55"/>
<polygon fill="#63b8ff" stroke="#63b8ff" points="402.11,-195.02 412.46,-192.73 402.94,-188.07 402.11,-195.02"/>
</a>
</g>
</g>
<!-- Node9 -->
<g id="Node000009" class="node">
<title>Node9</title>
<g id="a_Node000009"><a xlink:href="external__examples_2b00f000e_2applications_2m5stack__core__s3_2apps_23d__graphics_2main_2init__display_8c.html#ae0e932afc1e59f18ce869a88e5954baf" target="_top" xlink:title=" ">
<polygon fill="#fff0f0" stroke="red" points="534.25,-171 398.25,-171 398.25,-151 534.25,-151 534.25,-171"/>
<text xml:space="preserve" text-anchor="middle" x="466.25" y="-157.5" font-family="Helvetica,sans-Serif" font-size="10.00">dsp_display_brightness_init</text>
</a>
</g>
</g>
<!-- Node3&#45;&gt;Node9 -->
<g id="edge4_Node000003_Node000009" class="edge">
<title>Node3&#45;&gt;Node9</title>
<g id="a_edge4_Node000003_Node000009"><a xlink:title=" ">
<path fill="none" stroke="#63b8ff" d="M362.64,-173.19C370.38,-172.28 378.42,-171.32 386.45,-170.37"/>
<polygon fill="#63b8ff" stroke="#63b8ff" points="386.73,-173.86 396.25,-169.2 385.91,-166.9 386.73,-173.86"/>
</a>
</g>
</g>
<!-- Node11 -->
<g id="Node000011" class="node">
<title>Node11</title>
<g id="a_Node000011"><a xlink:href="applications_2azure__board__apps_2apps_23d__graphics_2main_23d__graphics__demo_8cpp.html#a4b024d66e45ca738ce324999e3d8f75b" target="_top" xlink:title="Display a 3d image.">
<polygon fill="white" stroke="#666666" points="351.38,-146 257.38,-146 257.38,-126 351.38,-126 351.38,-146"/>
<text xml:space="preserve" text-anchor="middle" x="304.38" y="-132.5" font-family="Helvetica,sans-Serif" font-size="10.00">display_3d_image</text>
</a>
</g>
</g>
<!-- Node10&#45;&gt;Node11 -->
<g id="edge6_Node000010_Node000011" class="edge">
<title>Node10&#45;&gt;Node11</title>
<g id="a_edge6_Node000010_Node000011"><a xlink:title=" ">
<path fill="none" stroke="#63b8ff" d="M194.67,-108.48C212.14,-112.91 232.69,-118.11 251.18,-122.79"/>
<polygon fill="#63b8ff" stroke="#63b8ff" points="250.07,-126.12 260.62,-125.18 251.79,-119.33 250.07,-126.12"/>
</a>
</g>
</g>
<!-- Node12 -->
<g id="Node000012" class="node">
<title>Node12</title>
<g id="a_Node000012"><a xlink:href="classdspm_1_1_mat.html#a7502c6d836d1ae05f6880620c1a832b5" target="_top" xlink:title=" ">
<polygon fill="white" stroke="#666666" points="508.38,-108 424.12,-108 424.12,-88 508.38,-88 508.38,-108"/>
<text xml:space="preserve" text-anchor="middle" x="466.25" y="-94.5" font-family="Helvetica,sans-Serif" font-size="10.00">dspm::Mat::eye</text>
</a>
</g>
</g>
<!-- Node10&#45;&gt;Node12 -->
<g id="edge7_Node000010_Node000012" class="edge">
<title>Node10&#45;&gt;Node12</title>
<g id="a_edge7_Node000010_Node000012"><a xlink:title=" ">
<path fill="none" stroke="#63b8ff" d="M206.53,-98C264.01,-98 354.98,-98 412.32,-98"/>
<polygon fill="#63b8ff" stroke="#63b8ff" points="412.16,-101.5 422.16,-98 412.16,-94.5 412.16,-101.5"/>
</a>
</g>
</g>
<!-- Node15 -->
<g id="Node000015" class="node">
<title>Node15</title>
<g id="a_Node000015"><a xlink:href="applications_2azure__board__apps_2graphics_23d__matrix_23d__matrix__src_2graphics__support_8cpp.html#abddf00a5f71e067190147e3ecdb49d3f" target="_top" xlink:title="update rotation matrix">
<polygon fill="white" stroke="#666666" points="361.88,-70 246.88,-70 246.88,-50 361.88,-50 361.88,-70"/>
<text xml:space="preserve" text-anchor="middle" x="304.38" y="-56.5" font-family="Helvetica,sans-Serif" font-size="10.00">update_rotation_matrix</text>
</a>
</g>
</g>
<!-- Node10&#45;&gt;Node15 -->
<g id="edge9_Node000010_Node000015" class="edge">
<title>Node10&#45;&gt;Node15</title>
<g id="a_edge9_Node000010_Node000015"><a xlink:title=" ">
<path fill="none" stroke="#63b8ff" d="M194.67,-87.52C212.14,-83.09 232.69,-77.89 251.18,-73.21"/>
<polygon fill="#63b8ff" stroke="#63b8ff" points="251.79,-76.67 260.62,-70.82 250.07,-69.88 251.79,-76.67"/>
</a>
</g>
</g>
<!-- Node18 -->
<g id="Node000018" class="node">
<title>Node18</title>
<g id="a_Node000018"><a xlink:href="applications_2azure__board__apps_2graphics_23d__matrix_23d__matrix__src_2graphics__support_8cpp.html#a2f5dfc8616993b1485635978ec29513d" target="_top" xlink:title="update translation matrix">
<polygon fill="white" stroke="#666666" points="352.12,-32 256.62,-32 256.62,0 352.12,0 352.12,-32"/>
<text xml:space="preserve" text-anchor="start" x="264.62" y="-18.5" font-family="Helvetica,sans-Serif" font-size="10.00">update_translation</text>
<text xml:space="preserve" text-anchor="middle" x="304.38" y="-6.5" font-family="Helvetica,sans-Serif" font-size="10.00">_matrix</text>
</a>
</g>
</g>
<!-- Node10&#45;&gt;Node18 -->
<g id="edge13_Node000010_Node000018" class="edge">
<title>Node10&#45;&gt;Node18</title>
<g id="a_edge13_Node000010_Node000018"><a xlink:title=" ">
<path fill="none" stroke="#63b8ff" d="M193.22,-87.57C199.24,-85.21 205.2,-82.37 210.5,-79 230.13,-66.52 227.48,-54.39 246.5,-41 247.88,-40.03 249.3,-39.09 250.76,-38.17"/>
<polygon fill="#63b8ff" stroke="#63b8ff" points="252.46,-41.22 259.41,-33.23 248.99,-35.14 252.46,-41.22"/>
</a>
</g>
</g>
<!-- Node13 -->
<g id="Node000013" class="node">
<title>Node13</title>
<g id="a_Node000013"><a xlink:href="classdspm_1_1_mat.html#a5eb6987452e618ba8d638a6773a074df" target="_top" xlink:title=" ">
<polygon fill="#fff0f0" stroke="red" points="655.25,-70 570.25,-70 570.25,-50 655.25,-50 655.25,-70"/>
<text xml:space="preserve" text-anchor="middle" x="612.75" y="-56.5" font-family="Helvetica,sans-Serif" font-size="10.00">dspm::Mat::Mat</text>
</a>
</g>
</g>
<!-- Node12&#45;&gt;Node13 -->
<g id="edge8_Node000012_Node000013" class="edge">
<title>Node12&#45;&gt;Node13</title>
<g id="a_edge8_Node000012_Node000013"><a xlink:title=" ">
<path fill="none" stroke="#63b8ff" d="M507.12,-87.52C523.78,-83.13 543.34,-77.99 561.01,-73.34"/>
<polygon fill="#63b8ff" stroke="#63b8ff" points="561.77,-76.76 570.55,-70.83 559.99,-69.99 561.77,-76.76"/>
</a>
</g>
</g>
<!-- Node16 -->
<g id="Node000016" class="node">
<title>Node16</title>
<g id="a_Node000016"><a xlink:href="classekf.html#a6e279ffd67d217145d7891a44ea0d9e8" target="_top" xlink:title=" ">
<polygon fill="white" stroke="#666666" points="502.75,-70 429.75,-70 429.75,-50 502.75,-50 502.75,-70"/>
<text xml:space="preserve" text-anchor="middle" x="466.25" y="-56.5" font-family="Helvetica,sans-Serif" font-size="10.00">ekf::eul2rotm</text>
</a>
</g>
</g>
<!-- Node15&#45;&gt;Node16 -->
<g id="edge10_Node000015_Node000016" class="edge">
<title>Node15&#45;&gt;Node16</title>
<g id="a_edge10_Node000015_Node000016"><a xlink:title=" ">
<path fill="none" stroke="#63b8ff" d="M362.19,-60C380.51,-60 400.6,-60 418.14,-60"/>
<polygon fill="#63b8ff" stroke="#63b8ff" points="418.02,-63.5 428.02,-60 418.02,-56.5 418.02,-63.5"/>
</a>
</g>
</g>
<!-- Node17 -->
<g id="Node000017" class="node">
<title>Node17</title>
<g id="a_Node000017"><a xlink:href="classdspm_1_1_mat.html#af1013adcb6d601fba7bf788fd52d80b4" target="_top" xlink:title=" ">
<polygon fill="white" stroke="#666666" points="502,-32 430.5,-32 430.5,-12 502,-12 502,-32"/>
<text xml:space="preserve" text-anchor="middle" x="466.25" y="-18.5" font-family="Helvetica,sans-Serif" font-size="10.00">dspm::Mat::t</text>
</a>
</g>
</g>
<!-- Node15&#45;&gt;Node17 -->
<g id="edge11_Node000015_Node000017" class="edge">
<title>Node15&#45;&gt;Node17</title>
<g id="a_edge11_Node000015_Node000017"><a xlink:title=" ">
<path fill="none" stroke="#63b8ff" d="M349.48,-49.52C371.13,-44.37 397.19,-38.18 419.1,-32.97"/>
<polygon fill="#63b8ff" stroke="#63b8ff" points="419.75,-36.41 428.67,-30.7 418.13,-29.6 419.75,-36.41"/>
</a>
</g>
</g>
<!-- Node17&#45;&gt;Node13 -->
<g id="edge12_Node000017_Node000013" class="edge">
<title>Node17&#45;&gt;Node13</title>
<g id="a_edge12_Node000017_Node000013"><a xlink:title=" ">
<path fill="none" stroke="#63b8ff" d="M502.23,-31.2C519.82,-35.83 541.48,-41.52 560.88,-46.62"/>
<polygon fill="#63b8ff" stroke="#63b8ff" points="559.96,-50 570.53,-49.16 561.75,-43.23 559.96,-50"/>
</a>
</g>
</g>
</g>
</svg>

<g id="navigator" transform="translate(0 0)" fill="#404254">
  <rect fill="#f2f5e9" fill-opacity="0.5" stroke="#606060" stroke-width=".5" x="0" y="0" width="60" height="60"/>
  <use id="zoomplus" xlink:href="#zoomPlus" x="17" y="9" onmousedown="handleZoom(evt,'in')"/>
  <use id="zoomminus" xlink:href="#zoomMin" x="42" y="9" onmousedown="handleZoom(evt,'out')"/>
  <use id="reset" xlink:href="#resetDef" x="30" y="36" onmousedown="handleReset()"/>
   <use id="arrowup" xlink:href="#arrowUp" x="0" y="0" onmousedown="handlePan(0,-1)"/>
  <use id="arrowright" xlink:href="#arrowRight" x="0" y="0" onmousedown="handlePan(1,0)"/>
  <use id="arrowdown" xlink:href="#arrowDown" x="0" y="0" onmousedown="handlePan(0,1)"/>
  <use id="arrowleft" xlink:href="#arrowLeft" x="0" y="0" onmousedown="handlePan(-1,0)"/>
</g>
<svg viewBox="0 0 15 15" width="100%" height="30px" preserveAspectRatio="xMaxYMin meet">
 <g id="arrow_out" transform="scale(0.3 0.3)">
  <a xlink:href="external__examples_2b00f000e_2applications_2m5stack__core__s3_2apps_23d__graphics_2main_23d__graphics__demo_8cpp_abce06be17fc37d675118a678a8100a36_cgraph_org.svg" target="_base">
   <rect id="button" ry="5" rx="5" y="6" x="6" height="38" width="38"
        fill="#f2f5e9" fill-opacity="0.5" stroke="#606060" stroke-width="1.0"/>
   <path id="arrow"
     d="M 11.500037,31.436501 C 11.940474,20.09759 22.043105,11.32322 32.158766,21.979434 L 37.068811,17.246167 C 37.068811,17.246167 37.088388,32 37.088388,32 L 22.160133,31.978069 C 22.160133,31.978069 26.997745,27.140456 26.997745,27.140456 C 18.528582,18.264221 13.291696,25.230495 11.500037,31.436501 z"
     style="fill:#404040;"/>
  </a>
 </g>
</svg>

<style type='text/css'>
<![CDATA[
[data-mouse-over-selected='false'] { opacity: 0.7; }
[data-mouse-over-selected='true']  { opacity: 1.0; }
]]>
</style>
<script type="application/ecmascript"><![CDATA[
document.addEventListener('DOMContentLoaded', (event) => {
  highlightEdges();
  highlightAdjacentNodes();
});
]]></script>
</svg>
