<?xml version="1.0" encoding="UTF-8" standalone="no"?>
<!DOCTYPE svg PUBLIC "-//W3C//DTD SVG 1.1//EN"
 "http://www.w3.org/Graphics/SVG/1.1/DTD/svg11.dtd">
<!-- Generated by graphviz version 14.1.2 (20260124.0452)
 -->
<!-- Title: update_perspective_matrix Pages: 1 -->
<!--zoomable 446 -->

<svg id="main" version="1.1" xmlns="http://www.w3.org/2000/svg" xmlns:xlink="http://www.w3.org/1999/xlink" xml:space="preserve" onload="init(evt)">

<style type="text/css"><![CDATA[
.node, .edge {opacity: 0.7;}
.node.selected, .edge.selected {opacity: 1;}
.edge:hover path { stroke: red; }
.edge:hover polygon { stroke: red; fill: red; }
]]></style>

<defs>
  <circle id="rim" cx="0" cy="0" r="7"/>
  <circle id="rim2" cx="0" cy="0" r="3.5"/>
  <g id="zoomPlus">
    <use xlink:href="#rim" fill="#404040"><set attributeName="fill" to="#808080" begin="zoomplus.mouseover" end="zoomplus.mouseout"/></use>
    <path d="M-4,0h8M0,-4v8" fill="none" stroke="white" stroke-width="1.5" pointer-events="none"/>
  </g>
  <g id="zoomMin">
    <use xlink:href="#rim" fill="#404040"><set attributeName="fill" to="#808080" begin="zoomminus.mouseover" end="zoomminus.mouseout"/></use>
    <path d="M-4,0h8" fill="none" stroke="white" stroke-width="1.5" pointer-events="none"/>
  </g>
  <g id="arrowUp" transform="translate(30 24)">
    <use xlink:href="#rim"/>
    <path pointer-events="none" fill="none" stroke="white" stroke-width="1.5" d="M0,-3.0v7 M-2.5,-0.5L0,-3.0L2.5,-0.5"/>
  </g>
  <g id="arrowRight" transform="rotate(90) translate(36 -43)">
    <use xlink:href="#rim"/>
    <path pointer-events="none" fill="none" stroke="white" stroke-width="1.5" d="M0,-3.0v7 M-2.5,-0.5L0,-3.0L2.5,-0.5"/>
  </g>
  <g id="arrowDown" transform="rotate(180) translate(-30 -48)">
    <use xlink:href="#rim"/>
    <path pointer-events="none" fill="none" stroke="white" stroke-width="1.5" d="M0,-3.0v7 M-2.5,-0.5L0,-3.0L2.5,-0.5"/>
  </g>
  <g id="arrowLeft" transform="rotate(270) translate(-36 17)">
    <use xlink:href="#rim"/>
    <path pointer-events="none" fill="none" stroke="white" stroke-width="1.5" d="M0,-3.0v7 M-2.5,-0.5L0,-3.0L2.5,-0.5"/>
  </g>
  <g id="resetDef">
    <use xlink:href="#rim2" fill="#404040"><set attributeName="fill" to="#808080" begin="reset.mouseover" end="reset.mouseout"/></use>
  </g>
</defs>
<script type="application/ecmascript">
var viewWidth = 624;
var viewHeight = 446;
var sectionId = 'dynsection-3';
</script>
<script type="application/ecmascript" xlink:href="svg.min.js"/>
<svg id="graph" class="graph">
<g id="viewport">
<title>update_perspective_matrix</title>
<!-- Node1 -->
<g id="Node000001" class="node">
<title>Node1</title>
<g id="a_Node000001"><a xlink:title="update perspective matrix">
<polygon fill="#999999" stroke="#666666" points="616.25,-235 515.5,-235 515.5,-203 616.25,-203 616.25,-235"/>
<text xml:space="preserve" text-anchor="start" x="523.5" y="-221.5" font-family="Helvetica,sans-Serif" font-size="10.00">update_perspective</text>
<text xml:space="preserve" text-anchor="middle" x="565.88" y="-209.5" font-family="Helvetica,sans-Serif" font-size="10.00">_matrix</text>
</a>
</g>
</g>
<!-- Node2 -->
<g id="Node000002" class="node">
<title>Node2</title>
<g id="a_Node000002"><a xlink:href="applications_2azure__board__apps_2apps_2kalman__filter_2main_2kalman__filter__demo_8cpp.html#a2955b9e77f5bd23f109feaaed1496af5" target="_top" xlink:title="Draw a 3d image.">
<polygon fill="white" stroke="#666666" points="473.5,-438 389.25,-438 389.25,-418 473.5,-418 473.5,-438"/>
<text xml:space="preserve" text-anchor="middle" x="431.38" y="-424.5" font-family="Helvetica,sans-Serif" font-size="10.00">draw_3d_image</text>
</a>
</g>
</g>
<!-- Node1&#45;&gt;Node2 -->
<g id="edge1_Node000001_Node000002" class="edge">
<title>Node1&#45;&gt;Node2</title>
<g id="a_edge1_Node000001_Node000002"><a xlink:title=" ">
<path fill="none" stroke="#63b8ff" d="M558.34,-246.47C547.77,-285.75 523.51,-358.26 479.5,-404 474.15,-409.56 467.24,-414.05 460.37,-417.58"/>
<polygon fill="#63b8ff" stroke="#63b8ff" points="561.71,-247.44 560.81,-236.88 554.93,-245.69 561.71,-247.44"/>
</a>
</g>
</g>
<!-- Node3 -->
<g id="Node000003" class="node">
<title>Node3</title>
<g id="a_Node000003"><a xlink:href="applications_2azure__board__apps_2apps_2kalman__filter_2main_2kalman__filter__demo_8cpp.html#af43b34764385f3f1ad35ce1c00db220f" target="_top" xlink:title="Kalman filter RTOS task (or ESP timer callback).">
<polygon fill="white" stroke="#666666" points="346.88,-400 251.38,-400 251.38,-380 346.88,-380 346.88,-400"/>
<text xml:space="preserve" text-anchor="middle" x="299.12" y="-386.5" font-family="Helvetica,sans-Serif" font-size="10.00">kalman_filter_task</text>
</a>
</g>
</g>
<!-- Node1&#45;&gt;Node3 -->
<g id="edge20_Node000001_Node000003" class="edge">
<title>Node1&#45;&gt;Node3</title>
<g id="a_edge20_Node000001_Node000003"><a xlink:title=" ">
<path fill="none" stroke="#63b8ff" d="M557.96,-246.16C547.44,-281.4 523.79,-341.84 479.5,-371 440.4,-396.75 385.79,-398.9 347.13,-396.24"/>
<polygon fill="#63b8ff" stroke="#63b8ff" points="561.28,-247.28 560.63,-236.71 554.55,-245.38 561.28,-247.28"/>
</a>
</g>
</g>
<!-- Node12 -->
<g id="Node000012" class="node">
<title>Node12</title>
<g id="a_Node000012"><a xlink:href="external__examples_2b00f000e_2applications_2azure__board__apps_2apps_2kalman__filter_2main_2kalman__filter__demo_8cpp.html#a2955b9e77f5bd23f109feaaed1496af5" target="_top" xlink:title="Draw a 3d image.">
<polygon fill="white" stroke="#666666" points="473.5,-362 389.25,-362 389.25,-342 473.5,-342 473.5,-362"/>
<text xml:space="preserve" text-anchor="middle" x="431.38" y="-348.5" font-family="Helvetica,sans-Serif" font-size="10.00">draw_3d_image</text>
</a>
</g>
</g>
<!-- Node1&#45;&gt;Node12 -->
<g id="edge9_Node000001_Node000012" class="edge">
<title>Node1&#45;&gt;Node12</title>
<g id="a_edge9_Node000001_Node000012"><a xlink:title=" ">
<path fill="none" stroke="#63b8ff" d="M549.41,-244.71C534.02,-268.62 508.57,-304.07 479.5,-328 472.98,-333.37 465.06,-337.98 457.59,-341.68"/>
<polygon fill="#63b8ff" stroke="#63b8ff" points="552.2,-246.84 554.56,-236.51 546.28,-243.11 552.2,-246.84"/>
</a>
</g>
</g>
<!-- Node13 -->
<g id="Node000013" class="node">
<title>Node13</title>
<g id="a_Node000013"><a xlink:href="external__examples_2b00f000e_2applications_2azure__board__apps_2apps_2kalman__filter_2main_2kalman__filter__demo_8cpp.html#af43b34764385f3f1ad35ce1c00db220f" target="_top" xlink:title="Kalman filter RTOS task (or ESP timer callback).">
<polygon fill="white" stroke="#666666" points="346.88,-343 251.38,-343 251.38,-323 346.88,-323 346.88,-343"/>
<text xml:space="preserve" text-anchor="middle" x="299.12" y="-329.5" font-family="Helvetica,sans-Serif" font-size="10.00">kalman_filter_task</text>
</a>
</g>
</g>
<!-- Node1&#45;&gt;Node13 -->
<g id="edge21_Node000001_Node000013" class="edge">
<title>Node1&#45;&gt;Node13</title>
<g id="a_edge21_Node000001_Node000013"><a xlink:title=" ">
<path fill="none" stroke="#63b8ff" d="M543.62,-243.77C527.67,-260.76 504.38,-282.42 479.5,-295 437.74,-316.11 384.79,-325.51 347.28,-329.68"/>
<polygon fill="#63b8ff" stroke="#63b8ff" points="546.09,-246.25 550.24,-236.5 540.92,-241.54 546.09,-246.25"/>
</a>
</g>
</g>
<!-- Node14 -->
<g id="Node000014" class="node">
<title>Node14</title>
<g id="a_Node000014"><a xlink:href="external__examples_2d1468452_2apps_2kalman__filter_2main_2kalman__filter__demo_8cpp.html#a2955b9e77f5bd23f109feaaed1496af5" target="_top" xlink:title="Draw a 3d image.">
<polygon fill="white" stroke="#666666" points="473.5,-286 389.25,-286 389.25,-266 473.5,-266 473.5,-286"/>
<text xml:space="preserve" text-anchor="middle" x="431.38" y="-272.5" font-family="Helvetica,sans-Serif" font-size="10.00">draw_3d_image</text>
</a>
</g>
</g>
<!-- Node1&#45;&gt;Node14 -->
<g id="edge11_Node000001_Node000014" class="edge">
<title>Node1&#45;&gt;Node14</title>
<g id="a_edge11_Node000001_Node000014"><a xlink:title=" ">
<path fill="none" stroke="#63b8ff" d="M516.17,-239.95C495.82,-248.71 473.08,-258.49 456.44,-265.65"/>
<polygon fill="#63b8ff" stroke="#63b8ff" points="517.36,-243.25 525.16,-236.08 514.59,-236.82 517.36,-243.25"/>
</a>
</g>
</g>
<!-- Node15 -->
<g id="Node000015" class="node">
<title>Node15</title>
<g id="a_Node000015"><a xlink:href="external__examples_2d1468452_2apps_2kalman__filter_2main_2kalman__filter__demo_8cpp.html#af43b34764385f3f1ad35ce1c00db220f" target="_top" xlink:title="Kalman filter RTOS task (or ESP timer callback).">
<polygon fill="white" stroke="#666666" points="346.88,-267 251.38,-267 251.38,-247 346.88,-247 346.88,-267"/>
<text xml:space="preserve" text-anchor="middle" x="299.12" y="-253.5" font-family="Helvetica,sans-Serif" font-size="10.00">kalman_filter_task</text>
</a>
</g>
</g>
<!-- Node1&#45;&gt;Node15 -->
<g id="edge22_Node000001_Node000015" class="edge">
<title>Node1&#45;&gt;Node15</title>
<g id="a_edge22_Node000001_Node000015"><a xlink:title=" ">
<path fill="none" stroke="#63b8ff" d="M503.96,-227.74C456.21,-234.6 390.76,-243.99 347.03,-250.27"/>
<polygon fill="#63b8ff" stroke="#63b8ff" points="504.18,-231.25 513.58,-226.36 503.18,-224.32 504.18,-231.25"/>
</a>
</g>
</g>
<!-- Node16 -->
<g id="Node000016" class="node">
<title>Node16</title>
<g id="a_Node000016"><a xlink:href="external__examples_2f9c2d4b3_2azure__board__apps_2apps_2kalman__filter_2main_2kalman__filter__demo_8cpp.html#a2955b9e77f5bd23f109feaaed1496af5" target="_top" xlink:title="Draw a 3d image.">
<polygon fill="white" stroke="#666666" points="473.5,-210 389.25,-210 389.25,-190 473.5,-190 473.5,-210"/>
<text xml:space="preserve" text-anchor="middle" x="431.38" y="-196.5" font-family="Helvetica,sans-Serif" font-size="10.00">draw_3d_image</text>
</a>
</g>
</g>
<!-- Node1&#45;&gt;Node16 -->
<g id="edge13_Node000001_Node000016" class="edge">
<title>Node1&#45;&gt;Node16</title>
<g id="a_edge13_Node000001_Node000016"><a xlink:title=" ">
<path fill="none" stroke="#63b8ff" d="M503.78,-210.24C493.6,-208.78 483.25,-207.3 473.71,-205.93"/>
<polygon fill="#63b8ff" stroke="#63b8ff" points="503.27,-213.7 513.66,-211.66 504.26,-206.77 503.27,-213.7"/>
</a>
</g>
</g>
<!-- Node17 -->
<g id="Node000017" class="node">
<title>Node17</title>
<g id="a_Node000017"><a xlink:href="external__examples_2f9c2d4b3_2azure__board__apps_2apps_2kalman__filter_2main_2kalman__filter__demo_8cpp.html#af43b34764385f3f1ad35ce1c00db220f" target="_top" xlink:title="Kalman filter RTOS task (or ESP timer callback).">
<polygon fill="white" stroke="#666666" points="346.88,-200 251.38,-200 251.38,-180 346.88,-180 346.88,-200"/>
<text xml:space="preserve" text-anchor="middle" x="299.12" y="-186.5" font-family="Helvetica,sans-Serif" font-size="10.00">kalman_filter_task</text>
</a>
</g>
</g>
<!-- Node1&#45;&gt;Node17 -->
<g id="edge23_Node000001_Node000017" class="edge">
<title>Node1&#45;&gt;Node17</title>
<g id="a_edge23_Node000001_Node000017"><a xlink:title=" ">
<path fill="none" stroke="#63b8ff" d="M526.33,-197.74C512.06,-190.98 495.46,-184.39 479.5,-181 435.28,-171.6 383.6,-175.74 347.11,-181.09"/>
<polygon fill="#63b8ff" stroke="#63b8ff" points="524.4,-200.69 534.91,-201.97 527.49,-194.41 524.4,-200.69"/>
</a>
</g>
</g>
<!-- Node18 -->
<g id="Node000018" class="node">
<title>Node18</title>
<g id="a_Node000018"><a xlink:href="applications_2azure__board__apps_2apps_2kalman__filter_2main_2kalman__filter__demo_8cpp.html#a7cbec0bc78cfb4326f8b5c19d7f9a5bb" target="_top" xlink:title="ROTS task to read a pressure.">
<polygon fill="white" stroke="#666666" points="347.25,-143 251,-143 251,-123 347.25,-123 347.25,-143"/>
<text xml:space="preserve" text-anchor="middle" x="299.12" y="-129.5" font-family="Helvetica,sans-Serif" font-size="10.00">get_pressure_task</text>
</a>
</g>
</g>
<!-- Node1&#45;&gt;Node18 -->
<g id="edge15_Node000001_Node000018" class="edge">
<title>Node1&#45;&gt;Node18</title>
<g id="a_edge15_Node000001_Node000018"><a xlink:title=" ">
<path fill="none" stroke="#63b8ff" d="M530.96,-196.79C515.74,-187.67 497.25,-177.69 479.5,-171 436.31,-154.72 384.5,-144.69 347.69,-139.05"/>
<polygon fill="#63b8ff" stroke="#63b8ff" points="528.81,-199.58 539.16,-201.83 532.47,-193.61 528.81,-199.58"/>
</a>
</g>
</g>
<!-- Node19 -->
<g id="Node000019" class="node">
<title>Node19</title>
<g id="a_Node000019"><a xlink:href="external__examples_2b00f000e_2applications_2azure__board__apps_2apps_2kalman__filter_2main_2kalman__filter__demo_8cpp.html#a7cbec0bc78cfb4326f8b5c19d7f9a5bb" target="_top" xlink:title="ROTS task to read a pressure.">
<polygon fill="white" stroke="#666666" points="479.5,-96 383.25,-96 383.25,-76 479.5,-76 479.5,-96"/>
<text xml:space="preserve" text-anchor="middle" x="431.38" y="-82.5" font-family="Helvetica,sans-Serif" font-size="10.00">get_pressure_task</text>
</a>
</g>
</g>
<!-- Node1&#45;&gt;Node19 -->
<g id="edge17_Node000001_Node000019" class="edge">
<title>Node1&#45;&gt;Node19</title>
<g id="a_edge17_Node000001_Node000019"><a xlink:title=" ">
<path fill="none" stroke="#63b8ff" d="M549.41,-193.29C534.02,-169.38 508.57,-133.93 479.5,-110 472.98,-104.63 465.06,-100.02 457.59,-96.32"/>
<polygon fill="#63b8ff" stroke="#63b8ff" points="546.28,-194.89 554.56,-201.49 552.2,-191.16 546.28,-194.89"/>
</a>
</g>
</g>
<!-- Node20 -->
<g id="Node000020" class="node">
<title>Node20</title>
<g id="a_Node000020"><a xlink:href="external__examples_2d1468452_2apps_2kalman__filter_2main_2kalman__filter__demo_8cpp.html#a7cbec0bc78cfb4326f8b5c19d7f9a5bb" target="_top" xlink:title="ROTS task to read a pressure.">
<polygon fill="white" stroke="#666666" points="479.5,-58 383.25,-58 383.25,-38 479.5,-38 479.5,-58"/>
<text xml:space="preserve" text-anchor="middle" x="431.38" y="-44.5" font-family="Helvetica,sans-Serif" font-size="10.00">get_pressure_task</text>
</a>
</g>
</g>
<!-- Node1&#45;&gt;Node20 -->
<g id="edge18_Node000001_Node000020" class="edge">
<title>Node1&#45;&gt;Node20</title>
<g id="a_edge18_Node000001_Node000020"><a xlink:title=" ">
<path fill="none" stroke="#63b8ff" d="M556.1,-192.12C543.89,-158.6 518.75,-101.5 479.5,-67 475.66,-63.62 471.14,-60.8 466.44,-58.45"/>
<polygon fill="#63b8ff" stroke="#63b8ff" points="552.77,-193.21 559.38,-201.49 559.38,-190.9 552.77,-193.21"/>
</a>
</g>
</g>
<!-- Node21 -->
<g id="Node000021" class="node">
<title>Node21</title>
<g id="a_Node000021"><a xlink:href="external__examples_2f9c2d4b3_2azure__board__apps_2apps_2kalman__filter_2main_2kalman__filter__demo_8cpp.html#a7cbec0bc78cfb4326f8b5c19d7f9a5bb" target="_top" xlink:title="ROTS task to read a pressure.">
<polygon fill="white" stroke="#666666" points="479.5,-20 383.25,-20 383.25,0 479.5,0 479.5,-20"/>
<text xml:space="preserve" text-anchor="middle" x="431.38" y="-6.5" font-family="Helvetica,sans-Serif" font-size="10.00">get_pressure_task</text>
</a>
</g>
</g>
<!-- Node1&#45;&gt;Node21 -->
<g id="edge19_Node000001_Node000021" class="edge">
<title>Node1&#45;&gt;Node21</title>
<g id="a_edge19_Node000001_Node000021"><a xlink:title=" ">
<path fill="none" stroke="#63b8ff" d="M559.36,-191.44C549.87,-150.72 526.73,-74.42 479.5,-29 475.94,-25.58 471.68,-22.74 467.2,-20.4"/>
<polygon fill="#63b8ff" stroke="#63b8ff" points="555.93,-192.14 561.51,-201.15 562.77,-190.63 555.93,-192.14"/>
</a>
</g>
</g>
<!-- Node2&#45;&gt;Node3 -->
<g id="edge2_Node000002_Node000003" class="edge">
<title>Node2&#45;&gt;Node3</title>
<g id="a_edge2_Node000002_Node000003"><a xlink:title=" ">
<path fill="none" stroke="#63b8ff" d="M383.83,-414.42C368.08,-409.82 350.74,-404.77 335.94,-400.45"/>
<polygon fill="#63b8ff" stroke="#63b8ff" points="382.41,-417.65 392.99,-417.09 384.37,-410.93 382.41,-417.65"/>
</a>
</g>
</g>
<!-- Node4 -->
<g id="Node000004" class="node">
<title>Node4</title>
<g id="a_Node000004"><a xlink:href="applications_2azure__board__apps_2apps_2kalman__filter_2main_2kalman__filter__demo_8cpp.html#abce06be17fc37d675118a678a8100a36" target="_top" xlink:title=" ">
<polygon fill="white" stroke="#666666" points="58,-419 0,-419 0,-399 58,-399 58,-419"/>
<text xml:space="preserve" text-anchor="middle" x="29" y="-405.5" font-family="Helvetica,sans-Serif" font-size="10.00">app_main</text>
</a>
</g>
</g>
<!-- Node3&#45;&gt;Node4 -->
<g id="edge3_Node000003_Node000004" class="edge">
<title>Node3&#45;&gt;Node4</title>
<g id="a_edge3_Node000003_Node000004"><a xlink:title=" ">
<path fill="none" stroke="#63b8ff" d="M270.98,-406.01C255.22,-414.36 234.65,-423.72 215,-428 162.45,-439.44 147.22,-435.73 94,-428 82.07,-426.27 69.27,-422.81 58.28,-419.31"/>
<polygon fill="#63b8ff" stroke="#63b8ff" points="272.66,-409.08 279.73,-401.18 269.28,-402.95 272.66,-409.08"/>
</a>
</g>
</g>
<!-- Node5 -->
<g id="Node000005" class="node">
<title>Node5</title>
<g id="a_Node000005"><a xlink:href="applications_2azure__board__apps_2apps_2kalman__filter_2main_2kalman__filter__demo_8cpp.html#a1967e917dafd16b5f02410c5b10c1d90" target="_top" xlink:title="Kalman filter calibration procedure.">
<polygon fill="white" stroke="#666666" points="215,-419 94,-419 94,-399 215,-399 215,-419"/>
<text xml:space="preserve" text-anchor="middle" x="154.5" y="-405.5" font-family="Helvetica,sans-Serif" font-size="10.00">kalman_filter_calibration</text>
</a>
</g>
</g>
<!-- Node3&#45;&gt;Node5 -->
<g id="edge4_Node000003_Node000005" class="edge">
<title>Node3&#45;&gt;Node5</title>
<g id="a_edge4_Node000003_Node000005"><a xlink:title=" ">
<path fill="none" stroke="#63b8ff" d="M239.79,-397.77C231.7,-398.85 223.38,-399.96 215.26,-401.04"/>
<polygon fill="#63b8ff" stroke="#63b8ff" points="240.08,-401.26 249.53,-396.47 239.15,-394.33 240.08,-401.26"/>
</a>
</g>
</g>
<!-- Node6 -->
<g id="Node000006" class="node">
<title>Node6</title>
<g id="a_Node000006"><a xlink:href="external__examples_2b00f000e_2applications_2azure__board__apps_2apps_2kalman__filter_2main_2kalman__filter__demo_8cpp.html#a1967e917dafd16b5f02410c5b10c1d90" target="_top" xlink:title="Kalman filter calibration procedure.">
<polygon fill="#fff0f0" stroke="red" points="215,-381 94,-381 94,-361 215,-361 215,-381"/>
<text xml:space="preserve" text-anchor="middle" x="154.5" y="-367.5" font-family="Helvetica,sans-Serif" font-size="10.00">kalman_filter_calibration</text>
</a>
</g>
</g>
<!-- Node3&#45;&gt;Node6 -->
<g id="edge6_Node000003_Node000006" class="edge">
<title>Node3&#45;&gt;Node6</title>
<g id="a_edge6_Node000003_Node000006"><a xlink:title=" ">
<path fill="none" stroke="#63b8ff" d="M239.79,-382.23C231.7,-381.15 223.38,-380.04 215.26,-378.96"/>
<polygon fill="#63b8ff" stroke="#63b8ff" points="239.15,-385.67 249.53,-383.53 240.08,-378.74 239.15,-385.67"/>
</a>
</g>
</g>
<!-- Node8 -->
<g id="Node000008" class="node">
<title>Node8</title>
<g id="a_Node000008"><a xlink:href="external__examples_2d1468452_2apps_2kalman__filter_2main_2kalman__filter__demo_8cpp.html#a1967e917dafd16b5f02410c5b10c1d90" target="_top" xlink:title="Kalman filter calibration procedure.">
<polygon fill="#fff0f0" stroke="red" points="215,-343 94,-343 94,-323 215,-323 215,-343"/>
<text xml:space="preserve" text-anchor="middle" x="154.5" y="-329.5" font-family="Helvetica,sans-Serif" font-size="10.00">kalman_filter_calibration</text>
</a>
</g>
</g>
<!-- Node3&#45;&gt;Node8 -->
<g id="edge7_Node000003_Node000008" class="edge">
<title>Node3&#45;&gt;Node8</title>
<g id="a_edge7_Node000003_Node000008"><a xlink:title=" ">
<path fill="none" stroke="#63b8ff" d="M267.17,-374.78C251.69,-367.44 232.56,-358.79 215,-352 207.21,-348.99 198.73,-346.07 190.67,-343.46"/>
<polygon fill="#63b8ff" stroke="#63b8ff" points="265.35,-377.79 275.88,-378.95 268.37,-371.47 265.35,-377.79"/>
</a>
</g>
</g>
<!-- Node10 -->
<g id="Node000010" class="node">
<title>Node10</title>
<g id="a_Node000010"><a xlink:href="external__examples_2f9c2d4b3_2azure__board__apps_2apps_2kalman__filter_2main_2kalman__filter__demo_8cpp.html#a1967e917dafd16b5f02410c5b10c1d90" target="_top" xlink:title="Kalman filter calibration procedure.">
<polygon fill="#fff0f0" stroke="red" points="215,-305 94,-305 94,-285 215,-285 215,-305"/>
<text xml:space="preserve" text-anchor="middle" x="154.5" y="-291.5" font-family="Helvetica,sans-Serif" font-size="10.00">kalman_filter_calibration</text>
</a>
</g>
</g>
<!-- Node3&#45;&gt;Node10 -->
<g id="edge8_Node000003_Node000010" class="edge">
<title>Node3&#45;&gt;Node10</title>
<g id="a_edge8_Node000003_Node000010"><a xlink:title=" ">
<path fill="none" stroke="#63b8ff" d="M275.71,-372.93C267.71,-366.58 258.77,-359.17 251,-352 233.91,-336.22 234.7,-326.37 215,-314 209.58,-310.6 203.5,-307.75 197.35,-305.39"/>
<polygon fill="#63b8ff" stroke="#63b8ff" points="273.3,-375.48 283.33,-378.88 277.6,-369.97 273.3,-375.48"/>
</a>
</g>
</g>
<!-- Node5&#45;&gt;Node4 -->
<g id="edge5_Node000005_Node000004" class="edge">
<title>Node5&#45;&gt;Node4</title>
<g id="a_edge5_Node000005_Node000004"><a xlink:title=" ">
<path fill="none" stroke="#63b8ff" d="M82.07,-409C73.71,-409 65.59,-409 58.35,-409"/>
<polygon fill="#63b8ff" stroke="#63b8ff" points="82.05,-412.5 92.05,-409 82.05,-405.5 82.05,-412.5"/>
</a>
</g>
</g>
<!-- Node12&#45;&gt;Node13 -->
<g id="edge10_Node000012_Node000013" class="edge">
<title>Node12&#45;&gt;Node13</title>
<g id="a_edge10_Node000012_Node000013"><a xlink:title=" ">
<path fill="none" stroke="#63b8ff" d="M377.65,-344.31C367.57,-342.84 357.07,-341.31 347.18,-339.86"/>
<polygon fill="#63b8ff" stroke="#63b8ff" points="376.91,-347.74 387.31,-345.72 377.92,-340.81 376.91,-347.74"/>
</a>
</g>
</g>
<!-- Node14&#45;&gt;Node15 -->
<g id="edge12_Node000014_Node000015" class="edge">
<title>Node14&#45;&gt;Node15</title>
<g id="a_edge12_Node000014_Node000015"><a xlink:title=" ">
<path fill="none" stroke="#63b8ff" d="M377.65,-268.31C367.57,-266.84 357.07,-265.31 347.18,-263.86"/>
<polygon fill="#63b8ff" stroke="#63b8ff" points="376.91,-271.74 387.31,-269.72 377.92,-264.81 376.91,-271.74"/>
</a>
</g>
</g>
<!-- Node16&#45;&gt;Node17 -->
<g id="edge14_Node000016_Node000017" class="edge">
<title>Node16&#45;&gt;Node17</title>
<g id="a_edge14_Node000016_Node000017"><a xlink:title=" ">
<path fill="none" stroke="#63b8ff" d="M377.33,-195.93C367.34,-195.16 356.97,-194.36 347.18,-193.61"/>
<polygon fill="#63b8ff" stroke="#63b8ff" points="377.06,-199.42 387.3,-196.69 377.59,-192.44 377.06,-199.42"/>
</a>
</g>
</g>
<!-- Node18&#45;&gt;Node4 -->
<g id="edge16_Node000018_Node000004" class="edge">
<title>Node18&#45;&gt;Node4</title>
<g id="a_edge16_Node000018_Node000004"><a xlink:title=" ">
<path fill="none" stroke="#63b8ff" d="M266.25,-148.63C222.51,-171.42 143.68,-217.5 94,-276 60.66,-315.26 40.22,-374.86 32.98,-398.66"/>
<polygon fill="#63b8ff" stroke="#63b8ff" points="267.66,-151.84 274.97,-144.16 264.47,-145.6 267.66,-151.84"/>
</a>
</g>
</g>
</g>
</svg>

<g id="navigator" transform="translate(0 0)" fill="#404254">
  <rect fill="#f2f5e9" fill-opacity="0.5" stroke="#606060" stroke-width=".5" x="0" y="0" width="60" height="60"/>
  <use id="zoomplus" xlink:href="#zoomPlus" x="17" y="9" onmousedown="handleZoom(evt,'in')"/>
  <use id="zoomminus" xlink:href="#zoomMin" x="42" y="9" onmousedown="handleZoom(evt,'out')"/>
  <use id="reset" xlink:href="#resetDef" x="30" y="36" onmousedown="handleReset()"/>
   <use id="arrowup" xlink:href="#arrowUp" x="0" y="0" onmousedown="handlePan(0,-1)"/>
  <use id="arrowright" xlink:href="#arrowRight" x="0" y="0" onmousedown="handlePan(1,0)"/>
  <use id="arrowdown" xlink:href="#arrowDown" x="0" y="0" onmousedown="handlePan(0,1)"/>
  <use id="arrowleft" xlink:href="#arrowLeft" x="0" y="0" onmousedown="handlePan(-1,0)"/>
</g>
<svg viewBox="0 0 15 15" width="100%" height="30px" preserveAspectRatio="xMaxYMin meet">
 <g id="arrow_out" transform="scale(0.3 0.3)">
  <a xlink:href="external__examples_2f9c2d4b3_2azure__board__apps_2graphics_23d__matrix_23d__matrix__src_2graphics__support_8h_a7361f858eac611923f3e090a2a4837c8_icgraph_org.svg" target="_base">
   <rect id="button" ry="5" rx="5" y="6" x="6" height="38" width="38"
        fill="#f2f5e9" fill-opacity="0.5" stroke="#606060" stroke-width="1.0"/>
   <path id="arrow"
     d="M 11.500037,31.436501 C 11.940474,20.09759 22.043105,11.32322 32.158766,21.979434 L 37.068811,17.246167 C 37.068811,17.246167 37.088388,32 37.088388,32 L 22.160133,31.978069 C 22.160133,31.978069 26.997745,27.140456 26.997745,27.140456 C 18.528582,18.264221 13.291696,25.230495 11.500037,31.436501 z"
     style="fill:#404040;"/>
  </a>
 </g>
</svg>

<style type='text/css'>
<![CDATA[
[data-mouse-over-selected='false'] { opacity: 0.7; }
[data-mouse-over-selected='true']  { opacity: 1.0; }
]]>
</style>
<script type="application/ecmascript"><![CDATA[
document.addEventListener('DOMContentLoaded', (event) => {
  highlightEdges();
  highlightAdjacentNodes();
});
]]></script>
</svg>
