<?xml version="1.0" encoding="UTF-8" standalone="no"?>
<!DOCTYPE svg PUBLIC "-//W3C//DTD SVG 1.1//EN"
 "http://www.w3.org/Graphics/SVG/1.1/DTD/svg11.dtd">
<!-- Generated by graphviz version 14.1.2 (20260124.0452)
 -->
<!-- Title: app_main Pages: 1 -->
<!--zoomable 484 -->

<svg id="main" version="1.1" xmlns="http://www.w3.org/2000/svg" xmlns:xlink="http://www.w3.org/1999/xlink" xml:space="preserve" onload="init(evt)">

<style type="text/css"><![CDATA[
.node, .edge {opacity: 0.7;}
.node.selected, .edge.selected {opacity: 1;}
.edge:hover path { stroke: red; }
.edge:hover polygon { stroke: red; fill: red; }
]]></style>

<defs>
  <circle id="rim" cx="0" cy="0" r="7"/>
  <circle id="rim2" cx="0" cy="0" r="3.5"/>
  <g id="zoomPlus">
    <use xlink:href="#rim" fill="#404040"><set attributeName="fill" to="#808080" begin="zoomplus.mouseover" end="zoomplus.mouseout"/></use>
    <path d="M-4,0h8M0,-4v8" fill="none" stroke="white" stroke-width="1.5" pointer-events="none"/>
  </g>
  <g id="zoomMin">
    <use xlink:href="#rim" fill="#404040"><set attributeName="fill" to="#808080" begin="zoomminus.mouseover" end="zoomminus.mouseout"/></use>
    <path d="M-4,0h8" fill="none" stroke="white" stroke-width="1.5" pointer-events="none"/>
  </g>
  <g id="arrowUp" transform="translate(30 24)">
    <use xlink:href="#rim"/>
    <path pointer-events="none" fill="none" stroke="white" stroke-width="1.5" d="M0,-3.0v7 M-2.5,-0.5L0,-3.0L2.5,-0.5"/>
  </g>
  <g id="arrowRight" transform="rotate(90) translate(36 -43)">
    <use xlink:href="#rim"/>
    <path pointer-events="none" fill="none" stroke="white" stroke-width="1.5" d="M0,-3.0v7 M-2.5,-0.5L0,-3.0L2.5,-0.5"/>
  </g>
  <g id="arrowDown" transform="rotate(180) translate(-30 -48)">
    <use xlink:href="#rim"/>
    <path pointer-events="none" fill="none" stroke="white" stroke-width="1.5" d="M0,-3.0v7 M-2.5,-0.5L0,-3.0L2.5,-0.5"/>
  </g>
  <g id="arrowLeft" transform="rotate(270) translate(-36 17)">
    <use xlink:href="#rim"/>
    <path pointer-events="none" fill="none" stroke="white" stroke-width="1.5" d="M0,-3.0v7 M-2.5,-0.5L0,-3.0L2.5,-0.5"/>
  </g>
  <g id="resetDef">
    <use xlink:href="#rim2" fill="#404040"><set attributeName="fill" to="#808080" begin="reset.mouseover" end="reset.mouseout"/></use>
  </g>
</defs>
<script type="application/ecmascript">
var viewWidth = 623;
var viewHeight = 484;
var sectionId = 'dynsection-3';
</script>
<script type="application/ecmascript" xlink:href="svg.min.js"/>
<svg id="graph" class="graph">
<g id="viewport">
<title>app_main</title>
<!-- Node1 -->
<g id="Node000001" class="node">
<title>Node1</title>
<g id="a_Node000001"><a xlink:title=" ">
<polygon fill="#999999" stroke="#666666" points="58,-248 0,-248 0,-228 58,-228 58,-248"/>
<text xml:space="preserve" text-anchor="middle" x="29" y="-234.5" font-family="Helvetica,sans-Serif" font-size="10.00">app_main</text>
</a>
</g>
</g>
<!-- Node2 -->
<g id="Node000002" class="node">
<title>Node2</title>
<g id="a_Node000002"><a xlink:href="external__examples_2f9c2d4b3_2azure__board__apps_2apps_2kalman__filter_2main_2kalman__filter__demo_8cpp.html#abf02d1479863a05aa4759131e408264e" target="_top" xlink:title="Initialize pressure sensor.">
<polygon fill="white" stroke="#666666" points="200.38,-476 113.12,-476 113.12,-456 200.38,-456 200.38,-476"/>
<text xml:space="preserve" text-anchor="middle" x="156.75" y="-462.5" font-family="Helvetica,sans-Serif" font-size="10.00">app_fbm320_init</text>
</a>
</g>
</g>
<!-- Node1&#45;&gt;Node2 -->
<g id="edge1_Node000001_Node000002" class="edge">
<title>Node1&#45;&gt;Node2</title>
<g id="a_edge1_Node000001_Node000002"><a xlink:title=" ">
<path fill="none" stroke="#63b8ff" d="M29.97,-248.39C30.45,-282.1 36.62,-389.54 94,-447 96.62,-449.62 99.58,-451.88 102.77,-453.83"/>
<polygon fill="#63b8ff" stroke="#63b8ff" points="100.97,-456.84 111.48,-458.12 104.06,-450.56 100.97,-456.84"/>
</a>
</g>
</g>
<!-- Node3 -->
<g id="Node000003" class="node">
<title>Node3</title>
<g id="a_Node000003"><a xlink:href="external__examples_2f9c2d4b3_2azure__board__apps_2apps_2kalman__filter_2main_2kalman__filter__demo_8cpp.html#a944145b69708f61a94696cd081386d5a" target="_top" xlink:title="Initialize magnetometer.">
<polygon fill="white" stroke="#666666" points="203.75,-438 109.75,-438 109.75,-418 203.75,-418 203.75,-438"/>
<text xml:space="preserve" text-anchor="middle" x="156.75" y="-424.5" font-family="Helvetica,sans-Serif" font-size="10.00">app_mag3110_init</text>
</a>
</g>
</g>
<!-- Node1&#45;&gt;Node3 -->
<g id="edge2_Node000001_Node000003" class="edge">
<title>Node1&#45;&gt;Node3</title>
<g id="a_edge2_Node000001_Node000003"><a xlink:title=" ">
<path fill="none" stroke="#63b8ff" d="M30.76,-248.16C33.52,-277.53 45.55,-363.35 94,-409 95.65,-410.56 97.43,-411.99 99.3,-413.3"/>
<polygon fill="#63b8ff" stroke="#63b8ff" points="97.57,-416.34 108,-418.19 101,-410.24 97.57,-416.34"/>
</a>
</g>
</g>
<!-- Node4 -->
<g id="Node000004" class="node">
<title>Node4</title>
<g id="a_Node000004"><a xlink:href="external__examples_2f9c2d4b3_2azure__board__apps_2apps_2kalman__filter_2main_2kalman__filter__demo_8cpp.html#afac7c47eff81b6719e589256c8799d5e" target="_top" xlink:title="Initialize display.">
<polygon fill="white" stroke="#666666" points="202.62,-400 110.88,-400 110.88,-380 202.62,-380 202.62,-400"/>
<text xml:space="preserve" text-anchor="middle" x="156.75" y="-386.5" font-family="Helvetica,sans-Serif" font-size="10.00">app_ssd1306_init</text>
</a>
</g>
</g>
<!-- Node1&#45;&gt;Node4 -->
<g id="edge3_Node000001_Node000004" class="edge">
<title>Node1&#45;&gt;Node4</title>
<g id="a_edge3_Node000001_Node000004"><a xlink:title=" ">
<path fill="none" stroke="#63b8ff" d="M32.02,-248.38C37.43,-273.32 54.57,-337.08 94,-371 96.04,-372.76 98.25,-374.36 100.57,-375.8"/>
<polygon fill="#63b8ff" stroke="#63b8ff" points="98.77,-378.81 109.26,-380.27 101.97,-372.59 98.77,-378.81"/>
</a>
</g>
</g>
<!-- Node5 -->
<g id="Node000005" class="node">
<title>Node5</title>
<g id="a_Node000005"><a xlink:href="applications_2m5stack__core__s3_2apps_23d__graphics_2main_2init__display_8c.html#afb504c284aa8a47f2ffee89038bd5b98" target="_top" xlink:title=" ">
<polygon fill="white" stroke="#666666" points="190.62,-362 122.88,-362 122.88,-342 190.62,-342 190.62,-362"/>
<text xml:space="preserve" text-anchor="middle" x="156.75" y="-348.5" font-family="Helvetica,sans-Serif" font-size="10.00">bsp_i2c_init</text>
</a>
</g>
</g>
<!-- Node1&#45;&gt;Node5 -->
<g id="edge4_Node000001_Node000005" class="edge">
<title>Node1&#45;&gt;Node5</title>
<g id="a_edge4_Node000001_Node000005"><a xlink:title=" ">
<path fill="none" stroke="#63b8ff" d="M34.12,-248.27C42.45,-267.75 63.17,-310.13 94,-333 99.31,-336.94 105.45,-340.07 111.75,-342.56"/>
<polygon fill="#63b8ff" stroke="#63b8ff" points="110.37,-345.79 120.96,-345.68 112.62,-339.16 110.37,-345.79"/>
</a>
</g>
</g>
<!-- Node6 -->
<g id="Node000006" class="node">
<title>Node6</title>
<g id="a_Node000006"><a xlink:href="external__examples_2f9c2d4b3_2azure__board__apps_2apps_2kalman__filter_2main_2kalman__filter__demo_8cpp.html#a2ccb3a970d903b791f523902ab06d694" target="_top" xlink:title="read the initial value of pressure">
<polygon fill="white" stroke="#666666" points="206.75,-324 106.75,-324 106.75,-304 206.75,-304 206.75,-324"/>
<text xml:space="preserve" text-anchor="middle" x="156.75" y="-310.5" font-family="Helvetica,sans-Serif" font-size="10.00">get_initial_pressure</text>
</a>
</g>
</g>
<!-- Node1&#45;&gt;Node6 -->
<g id="edge5_Node000001_Node000006" class="edge">
<title>Node1&#45;&gt;Node6</title>
<g id="a_edge5_Node000001_Node000006"><a xlink:title=" ">
<path fill="none" stroke="#63b8ff" d="M40.55,-248.33C52.64,-259.74 73.45,-278.06 94,-290 100,-293.49 106.61,-296.67 113.2,-299.49"/>
<polygon fill="#63b8ff" stroke="#63b8ff" points="111.47,-302.56 122.05,-303.05 114.08,-296.07 111.47,-302.56"/>
</a>
</g>
</g>
<!-- Node7 -->
<g id="Node000007" class="node">
<title>Node7</title>
<g id="a_Node000007"><a xlink:href="applications_2azure__board__apps_2apps_2kalman__filter_2main_2kalman__filter__demo_8cpp.html#a7cbec0bc78cfb4326f8b5c19d7f9a5bb" target="_top" xlink:title="ROTS task to read a pressure.">
<polygon fill="white" stroke="#666666" points="351.75,-271 255.5,-271 255.5,-251 351.75,-251 351.75,-271"/>
<text xml:space="preserve" text-anchor="middle" x="303.62" y="-257.5" font-family="Helvetica,sans-Serif" font-size="10.00">get_pressure_task</text>
</a>
</g>
</g>
<!-- Node1&#45;&gt;Node7 -->
<g id="edge6_Node000001_Node000007" class="edge">
<title>Node1&#45;&gt;Node7</title>
<g id="a_edge6_Node000001_Node000007"><a xlink:title=" ">
<path fill="none" stroke="#63b8ff" d="M58.3,-248.19C69.29,-251.67 82.09,-255.15 94,-257 144.06,-264.77 201.69,-265.24 243.68,-264.07"/>
<polygon fill="#63b8ff" stroke="#63b8ff" points="243.69,-267.57 253.57,-263.75 243.46,-260.58 243.69,-267.57"/>
</a>
</g>
</g>
<!-- Node9 -->
<g id="Node000009" class="node">
<title>Node9</title>
<g id="a_Node000009"><a xlink:href="external__examples_2f9c2d4b3_2azure__board__apps_2apps_2kalman__filter_2main_2kalman__filter__demo_8cpp.html#af4bd9d0f6d48907b5fbbdbed6f06f20d" target="_top" xlink:title="Initialize 3d image structure.">
<polygon fill="white" stroke="#666666" points="210.12,-248 103.38,-248 103.38,-228 210.12,-228 210.12,-248"/>
<text xml:space="preserve" text-anchor="middle" x="156.75" y="-234.5" font-family="Helvetica,sans-Serif" font-size="10.00">init_3d_matrix_struct</text>
</a>
</g>
</g>
<!-- Node1&#45;&gt;Node9 -->
<g id="edge8_Node000001_Node000009" class="edge">
<title>Node1&#45;&gt;Node9</title>
<g id="a_edge8_Node000001_Node000009"><a xlink:title=" ">
<path fill="none" stroke="#63b8ff" d="M58.22,-238C68.26,-238 80.02,-238 91.83,-238"/>
<polygon fill="#63b8ff" stroke="#63b8ff" points="91.59,-241.5 101.59,-238 91.59,-234.5 91.59,-241.5"/>
</a>
</g>
</g>
<!-- Node10 -->
<g id="Node000010" class="node">
<title>Node10</title>
<g id="a_Node000010"><a xlink:href="external__examples_2f9c2d4b3_2azure__board__apps_2apps_2kalman__filter_2main_2kalman__filter__demo_8cpp.html#aba35410bb6759629444f03a95bbd7c98" target="_top" xlink:title="Initialize NVS flash memory.">
<polygon fill="white" stroke="#666666" points="215,-210 98.5,-210 98.5,-190 215,-190 215,-210"/>
<text xml:space="preserve" text-anchor="middle" x="156.75" y="-196.5" font-family="Helvetica,sans-Serif" font-size="10.00">init_nvs_flash_memory</text>
</a>
</g>
</g>
<!-- Node1&#45;&gt;Node10 -->
<g id="edge9_Node000001_Node000010" class="edge">
<title>Node1&#45;&gt;Node10</title>
<g id="a_edge9_Node000001_Node000010"><a xlink:title=" ">
<path fill="none" stroke="#63b8ff" d="M58.22,-229.47C73.69,-224.8 93.23,-218.89 110.76,-213.6"/>
<polygon fill="#63b8ff" stroke="#63b8ff" points="111.34,-217.08 119.9,-210.83 109.32,-210.38 111.34,-217.08"/>
</a>
</g>
</g>
<!-- Node11 -->
<g id="Node000011" class="node">
<title>Node11</title>
<g id="a_Node000011"><a xlink:href="applications_2azure__board__apps_2graphics_23d__matrix_23d__matrix__src_2graphics__support_8cpp.html#ab5c13c601603a6d1b586b8ad9aa7ee98" target="_top" xlink:title="initialize perspective projection matrix">
<polygon fill="white" stroke="#666666" points="215,-172 98.5,-172 98.5,-152 215,-152 215,-172"/>
<text xml:space="preserve" text-anchor="middle" x="156.75" y="-158.5" font-family="Helvetica,sans-Serif" font-size="10.00">init_perspective_matrix</text>
</a>
</g>
</g>
<!-- Node1&#45;&gt;Node11 -->
<g id="edge10_Node000001_Node000011" class="edge">
<title>Node1&#45;&gt;Node11</title>
<g id="a_edge10_Node000001_Node000011"><a xlink:title=" ">
<path fill="none" stroke="#63b8ff" d="M38.95,-227.67C50.48,-214.97 71.7,-193.56 94,-181 96.79,-179.43 99.73,-177.97 102.75,-176.62"/>
<polygon fill="#63b8ff" stroke="#63b8ff" points="103.83,-179.95 111.82,-172.99 101.23,-173.45 103.83,-179.95"/>
</a>
</g>
</g>
<!-- Node12 -->
<g id="Node000012" class="node">
<title>Node12</title>
<g id="a_Node000012"><a xlink:href="external__examples_2f9c2d4b3_2azure__board__apps_2apps_2kalman__filter_2main_2kalman__filter__demo_8cpp.html#a1967e917dafd16b5f02410c5b10c1d90" target="_top" xlink:title="Kalman filter calibration procedure.">
<polygon fill="white" stroke="#666666" points="217.25,-134 96.25,-134 96.25,-114 217.25,-114 217.25,-134"/>
<text xml:space="preserve" text-anchor="middle" x="156.75" y="-120.5" font-family="Helvetica,sans-Serif" font-size="10.00">kalman_filter_calibration</text>
</a>
</g>
</g>
<!-- Node1&#45;&gt;Node12 -->
<g id="edge11_Node000001_Node000012" class="edge">
<title>Node1&#45;&gt;Node12</title>
<g id="a_edge11_Node000001_Node000012"><a xlink:title=" ">
<path fill="none" stroke="#63b8ff" d="M34.12,-227.73C42.45,-208.25 63.17,-165.87 94,-143 95.72,-141.72 97.53,-140.53 99.41,-139.42"/>
<polygon fill="#63b8ff" stroke="#63b8ff" points="100.5,-142.78 107.86,-135.16 97.36,-136.53 100.5,-142.78"/>
</a>
</g>
</g>
<!-- Node13 -->
<g id="Node000013" class="node">
<title>Node13</title>
<g id="a_Node000013"><a xlink:href="applications_2azure__board__apps_2apps_2kalman__filter_2main_2kalman__filter__demo_8cpp.html#af43b34764385f3f1ad35ce1c00db220f" target="_top" xlink:title="Kalman filter RTOS task (or ESP timer callback).">
<polygon fill="white" stroke="#666666" points="351.38,-134 255.88,-134 255.88,-114 351.38,-114 351.38,-134"/>
<text xml:space="preserve" text-anchor="middle" x="303.62" y="-120.5" font-family="Helvetica,sans-Serif" font-size="10.00">kalman_filter_task</text>
</a>
</g>
</g>
<!-- Node1&#45;&gt;Node13 -->
<g id="edge17_Node000001_Node000013" class="edge">
<title>Node1&#45;&gt;Node13</title>
<g id="a_edge17_Node000001_Node000013"><a xlink:title=" ">
<path fill="none" stroke="#63b8ff" d="M31.31,-227.6C35.24,-201.42 49.53,-132.95 94,-105 147.82,-71.17 225.4,-92.39 269.21,-109.26"/>
<polygon fill="#63b8ff" stroke="#63b8ff" points="267.85,-112.49 278.44,-112.97 270.46,-105.99 267.85,-112.49"/>
</a>
</g>
</g>
<!-- Node25 -->
<g id="Node000025" class="node">
<title>Node25</title>
<g id="a_Node000025"><a xlink:href="external__examples_2f9c2d4b3_2azure__board__apps_2apps_2kalman__filter_2main_2kalman__filter__demo_8cpp.html#a0d450ba4dd28ea2acb105a3ece7db976" target="_top" xlink:title="Initialize accelerometer and gyroscope.">
<polygon fill="white" stroke="#666666" points="193.62,-58 119.88,-58 119.88,-38 193.62,-38 193.62,-58"/>
<text xml:space="preserve" text-anchor="middle" x="156.75" y="-44.5" font-family="Helvetica,sans-Serif" font-size="10.00">mpu6050_init</text>
</a>
</g>
</g>
<!-- Node1&#45;&gt;Node25 -->
<g id="edge18_Node000001_Node000025" class="edge">
<title>Node1&#45;&gt;Node25</title>
<g id="a_edge18_Node000001_Node000025"><a xlink:title=" ">
<path fill="none" stroke="#63b8ff" d="M31.07,-227.89C34.6,-199.43 48.42,-117.71 94,-72 98.37,-67.62 103.62,-64.03 109.2,-61.07"/>
<polygon fill="#63b8ff" stroke="#63b8ff" points="110.42,-64.36 118.09,-57.05 107.53,-57.99 110.42,-64.36"/>
</a>
</g>
</g>
<!-- Node26 -->
<g id="Node000026" class="node">
<title>Node26</title>
<g id="a_Node000026"><a xlink:href="applications_2azure__board__apps_2apps_2kalman__filter_2main_2kalman__filter__demo_8cpp.html#a2f69aa0d08a5e85a5016ab08dbdc20fb" target="_top" xlink:title="RTOS task to periodically save the filter state.">
<polygon fill="white" stroke="#666666" points="219.5,-20 94,-20 94,0 219.5,0 219.5,-20"/>
<text xml:space="preserve" text-anchor="middle" x="156.75" y="-6.5" font-family="Helvetica,sans-Serif" font-size="10.00">save_state_vectors_task</text>
</a>
</g>
</g>
<!-- Node1&#45;&gt;Node26 -->
<g id="edge19_Node000001_Node000026" class="edge">
<title>Node1&#45;&gt;Node26</title>
<g id="a_edge19_Node000001_Node000026"><a xlink:title=" ">
<path fill="none" stroke="#63b8ff" d="M29.97,-227.61C30.45,-193.9 36.62,-86.46 94,-29 94.75,-28.25 95.52,-27.54 96.32,-26.85"/>
<polygon fill="#63b8ff" stroke="#63b8ff" points="98.15,-29.84 104.47,-21.33 94.22,-24.04 98.15,-29.84"/>
</a>
</g>
</g>
<!-- Node8 -->
<g id="Node000008" class="node">
<title>Node8</title>
<g id="a_Node000008"><a xlink:href="applications_2azure__board__apps_2graphics_23d__matrix_23d__matrix__src_2graphics__support_8cpp.html#a7361f858eac611923f3e090a2a4837c8" target="_top" xlink:title="update perspective matrix">
<polygon fill="white" stroke="#666666" points="614.75,-197 514,-197 514,-165 614.75,-165 614.75,-197"/>
<text xml:space="preserve" text-anchor="start" x="522" y="-183.5" font-family="Helvetica,sans-Serif" font-size="10.00">update_perspective</text>
<text xml:space="preserve" text-anchor="middle" x="564.38" y="-171.5" font-family="Helvetica,sans-Serif" font-size="10.00">_matrix</text>
</a>
</g>
</g>
<!-- Node7&#45;&gt;Node8 -->
<g id="edge7_Node000007_Node000008" class="edge">
<title>Node7&#45;&gt;Node8</title>
<g id="a_edge7_Node000007_Node000008"><a xlink:title=" ">
<path fill="none" stroke="#63b8ff" d="M338.45,-250.54C380.06,-237.68 451.45,-215.61 502.65,-199.78"/>
<polygon fill="#63b8ff" stroke="#63b8ff" points="503.61,-203.14 512.13,-196.85 501.54,-196.46 503.61,-203.14"/>
</a>
</g>
</g>
<!-- Node12&#45;&gt;Node13 -->
<g id="edge12_Node000012_Node000013" class="edge">
<title>Node12&#45;&gt;Node13</title>
<g id="a_edge12_Node000012_Node000013"><a xlink:title=" ">
<path fill="none" stroke="#63b8ff" d="M217.51,-124C226.29,-124 235.33,-124 244.08,-124"/>
<polygon fill="#63b8ff" stroke="#63b8ff" points="243.87,-127.5 253.87,-124 243.87,-120.5 243.87,-127.5"/>
</a>
</g>
</g>
<!-- Node13&#45;&gt;Node8 -->
<g id="edge16_Node000013_Node000008" class="edge">
<title>Node13&#45;&gt;Node8</title>
<g id="a_edge16_Node000013_Node000008"><a xlink:title=" ">
<path fill="none" stroke="#63b8ff" d="M322.8,-134.38C339.22,-143.25 364.34,-155.56 387.75,-162 425.08,-172.26 468.29,-177.02 502.52,-179.21"/>
<polygon fill="#63b8ff" stroke="#63b8ff" points="502.06,-182.69 512.25,-179.77 502.46,-175.7 502.06,-182.69"/>
</a>
</g>
</g>
<!-- Node14 -->
<g id="Node000014" class="node">
<title>Node14</title>
<g id="a_Node000014"><a xlink:href="applications_2azure__board__apps_2apps_2kalman__filter_2main_2kalman__filter__demo_8cpp.html#a2955b9e77f5bd23f109feaaed1496af5" target="_top" xlink:title="Draw a 3d image.">
<polygon fill="#fff0f0" stroke="red" points="475,-153 390.75,-153 390.75,-133 475,-133 475,-153"/>
<text xml:space="preserve" text-anchor="middle" x="432.88" y="-139.5" font-family="Helvetica,sans-Serif" font-size="10.00">draw_3d_image</text>
</a>
</g>
</g>
<!-- Node13&#45;&gt;Node14 -->
<g id="edge13_Node000013_Node000014" class="edge">
<title>Node13&#45;&gt;Node14</title>
<g id="a_edge13_Node000013_Node000014"><a xlink:title=" ">
<path fill="none" stroke="#63b8ff" d="M351.65,-131.02C360.61,-132.36 370.04,-133.77 379.16,-135.13"/>
<polygon fill="#63b8ff" stroke="#63b8ff" points="378.59,-138.58 389,-136.6 379.63,-131.66 378.59,-138.58"/>
</a>
</g>
</g>
<!-- Node24 -->
<g id="Node000024" class="node">
<title>Node24</title>
<g id="a_Node000024"><a xlink:href="classdspm_1_1_mat.html#a3b4566db0f4ad277e70c09f5e934b91e" target="_top" xlink:title=" ">
<polygon fill="white" stroke="#666666" points="478,-115 387.75,-115 387.75,-95 478,-95 478,-115"/>
<text xml:space="preserve" text-anchor="middle" x="432.88" y="-101.5" font-family="Helvetica,sans-Serif" font-size="10.00">dspm::Mat::norm</text>
</a>
</g>
</g>
<!-- Node13&#45;&gt;Node24 -->
<g id="edge15_Node000013_Node000024" class="edge">
<title>Node13&#45;&gt;Node24</title>
<g id="a_edge15_Node000013_Node000024"><a xlink:title=" ">
<path fill="none" stroke="#63b8ff" d="M351.65,-116.98C359.73,-115.77 368.19,-114.51 376.47,-113.27"/>
<polygon fill="#63b8ff" stroke="#63b8ff" points="376.71,-116.78 386.08,-111.84 375.68,-109.85 376.71,-116.78"/>
</a>
</g>
</g>
<!-- Node14&#45;&gt;Node8 -->
<g id="edge14_Node000014_Node000008" class="edge">
<title>Node14&#45;&gt;Node8</title>
<g id="a_edge14_Node000014_Node000008"><a xlink:title=" ">
<path fill="none" stroke="#63b8ff" d="M469.6,-153.48C479.93,-156.51 491.5,-159.91 502.89,-163.25"/>
<polygon fill="#63b8ff" stroke="#63b8ff" points="501.67,-166.54 512.26,-166 503.65,-159.83 501.67,-166.54"/>
</a>
</g>
</g>
</g>
</svg>

<g id="navigator" transform="translate(0 0)" fill="#404254">
  <rect fill="#f2f5e9" fill-opacity="0.5" stroke="#606060" stroke-width=".5" x="0" y="0" width="60" height="60"/>
  <use id="zoomplus" xlink:href="#zoomPlus" x="17" y="9" onmousedown="handleZoom(evt,'in')"/>
  <use id="zoomminus" xlink:href="#zoomMin" x="42" y="9" onmousedown="handleZoom(evt,'out')"/>
  <use id="reset" xlink:href="#resetDef" x="30" y="36" onmousedown="handleReset()"/>
   <use id="arrowup" xlink:href="#arrowUp" x="0" y="0" onmousedown="handlePan(0,-1)"/>
  <use id="arrowright" xlink:href="#arrowRight" x="0" y="0" onmousedown="handlePan(1,0)"/>
  <use id="arrowdown" xlink:href="#arrowDown" x="0" y="0" onmousedown="handlePan(0,1)"/>
  <use id="arrowleft" xlink:href="#arrowLeft" x="0" y="0" onmousedown="handlePan(-1,0)"/>
</g>
<svg viewBox="0 0 15 15" width="100%" height="30px" preserveAspectRatio="xMaxYMin meet">
 <g id="arrow_out" transform="scale(0.3 0.3)">
  <a xlink:href="external__examples_2f9c2d4b3_2azure__board__apps_2apps_2kalman__filter_2main_2kalman__filter__demo_8cpp_abce06be17fc37d675118a678a8100a36_cgraph_org.svg" target="_base">
   <rect id="button" ry="5" rx="5" y="6" x="6" height="38" width="38"
        fill="#f2f5e9" fill-opacity="0.5" stroke="#606060" stroke-width="1.0"/>
   <path id="arrow"
     d="M 11.500037,31.436501 C 11.940474,20.09759 22.043105,11.32322 32.158766,21.979434 L 37.068811,17.246167 C 37.068811,17.246167 37.088388,32 37.088388,32 L 22.160133,31.978069 C 22.160133,31.978069 26.997745,27.140456 26.997745,27.140456 C 18.528582,18.264221 13.291696,25.230495 11.500037,31.436501 z"
     style="fill:#404040;"/>
  </a>
 </g>
</svg>

<style type='text/css'>
<![CDATA[
[data-mouse-over-selected='false'] { opacity: 0.7; }
[data-mouse-over-selected='true']  { opacity: 1.0; }
]]>
</style>
<script type="application/ecmascript"><![CDATA[
document.addEventListener('DOMContentLoaded', (event) => {
  highlightEdges();
  highlightAdjacentNodes();
});
]]></script>
</svg>
