<?xml version="1.0" encoding="UTF-8" standalone="no"?>
<!DOCTYPE svg PUBLIC "-//W3C//DTD SVG 1.1//EN"
 "http://www.w3.org/Graphics/SVG/1.1/DTD/svg11.dtd">
<!-- Generated by graphviz version 14.1.2 (20260124.0452)
 -->
<!-- Title: image_to_3d_matrix.c Pages: 1 -->
<svg width="140pt" height="140pt"
 viewBox="0.00 0.00 140.00 140.00" xmlns="http://www.w3.org/2000/svg" xmlns:xlink="http://www.w3.org/1999/xlink">
<g id="graph0" class="graph" transform="scale(1 1) rotate(0) translate(4 136)">
<title>image_to_3d_matrix.c</title>
<!-- Node1 -->
<g id="Node000001" class="node">
<title>Node1</title>
<g id="a_Node000001"><a xlink:title=" ">
<polygon fill="#999999" stroke="#666666" points="117.12,-132 5.13,-132 5.13,-112 117.12,-112 117.12,-132"/>
<text xml:space="preserve" text-anchor="middle" x="61.12" y="-118.5" font-family="Helvetica,sans-Serif" font-size="10.00">image_to_3d_matrix.c</text>
</a>
</g>
</g>
<!-- Node2 -->
<g id="Node000002" class="node">
<title>Node2</title>
<g id="a_Node000002"><a xlink:href="external__examples_2b00f000e_2applications_2azure__board__apps_2graphics_23d__matrix_23d__matrixf4c5eabf8e562dab5a785f82358bb809.html" target="_top" xlink:title=" ">
<polygon fill="white" stroke="#666666" points="117.12,-76 5.13,-76 5.13,-56 117.12,-56 117.12,-76"/>
<text xml:space="preserve" text-anchor="middle" x="61.12" y="-62.5" font-family="Helvetica,sans-Serif" font-size="10.00">image_to_3d_matrix.h</text>
</a>
</g>
</g>
<!-- Node1&#45;&gt;Node2 -->
<g id="edge1_Node000001_Node000002" class="edge">
<title>Node1&#45;&gt;Node2</title>
<g id="a_edge1_Node000001_Node000002"><a xlink:title=" ">
<path fill="none" stroke="#63b8ff" d="M61.12,-111.59C61.12,-105.01 61.12,-95.96 61.12,-87.73"/>
<polygon fill="#63b8ff" stroke="#63b8ff" points="64.63,-87.81 61.13,-77.81 57.63,-87.81 64.63,-87.81"/>
</a>
</g>
</g>
<!-- Node3 -->
<g id="Node000003" class="node">
<title>Node3</title>
<g id="a_Node000003"><a xlink:title=" ">
<polygon fill="#e0e0e0" stroke="#999999" points="48.25,-20 0,-20 0,0 48.25,0 48.25,-20"/>
<text xml:space="preserve" text-anchor="middle" x="24.12" y="-6.5" font-family="Helvetica,sans-Serif" font-size="10.00">stdint.h</text>
</a>
</g>
</g>
<!-- Node2&#45;&gt;Node3 -->
<g id="edge2_Node000002_Node000003" class="edge">
<title>Node2&#45;&gt;Node3</title>
<g id="a_edge2_Node000002_Node000003"><a xlink:title=" ">
<path fill="none" stroke="#63b8ff" d="M54.68,-55.59C49.8,-48.47 42.93,-38.45 36.95,-29.72"/>
<polygon fill="#63b8ff" stroke="#63b8ff" points="39.89,-27.82 31.35,-21.55 34.12,-31.77 39.89,-27.82"/>
</a>
</g>
</g>
<!-- Node4 -->
<g id="Node000004" class="node">
<title>Node4</title>
<g id="a_Node000004"><a xlink:title=" ">
<polygon fill="#e0e0e0" stroke="#999999" points="132.25,-20 66,-20 66,0 132.25,0 132.25,-20"/>
<text xml:space="preserve" text-anchor="middle" x="99.12" y="-6.5" font-family="Helvetica,sans-Serif" font-size="10.00">sdkconfig.h</text>
</a>
</g>
</g>
<!-- Node2&#45;&gt;Node4 -->
<g id="edge3_Node000002_Node000004" class="edge">
<title>Node2&#45;&gt;Node4</title>
<g id="a_edge3_Node000002_Node000004"><a xlink:title=" ">
<path fill="none" stroke="#63b8ff" d="M67.74,-55.59C72.81,-48.39 79.96,-38.23 86.15,-29.43"/>
<polygon fill="#63b8ff" stroke="#63b8ff" points="88.82,-31.73 91.71,-21.54 83.09,-27.7 88.82,-31.73"/>
</a>
</g>
</g>
</g>
</svg>
