<?xml version="1.0" encoding="UTF-8" standalone="no"?>
<!DOCTYPE svg PUBLIC "-//W3C//DTD SVG 1.1//EN"
 "http://www.w3.org/Graphics/SVG/1.1/DTD/svg11.dtd">
<!-- Generated by graphviz version 14.1.2 (20260124.0452)
 -->
<!-- Title: bsp_i2c_init Pages: 1 -->
<svg width="676pt" height="66pt"
 viewBox="0.00 0.00 676.00 66.00" xmlns="http://www.w3.org/2000/svg" xmlns:xlink="http://www.w3.org/1999/xlink">
<g id="graph0" class="graph" transform="scale(1 1) rotate(0) translate(4 62)">
<title>bsp_i2c_init</title>
<!-- Node1 -->
<g id="Node000001" class="node">
<title>Node1</title>
<g id="a_Node000001"><a xlink:title=" ">
<polygon fill="#999999" stroke="#666666" points="668,-39 600.25,-39 600.25,-19 668,-19 668,-39"/>
<text xml:space="preserve" text-anchor="middle" x="634.12" y="-25.5" font-family="Helvetica,sans-Serif" font-size="10.00">bsp_i2c_init</text>
</a>
</g>
</g>
<!-- Node2 -->
<g id="Node000002" class="node">
<title>Node2</title>
<g id="a_Node000002"><a xlink:href="external__examples_2b00f000e_2applications_2m5stack__core__s3_2apps_23d__graphics_2main_2init__display_8c.html#ad7f56c5752f2747c0774a27b5622674b" target="_top" xlink:title=" ">
<polygon fill="white" stroke="#666666" points="564.25,-58 463.5,-58 463.5,-38 564.25,-38 564.25,-58"/>
<text xml:space="preserve" text-anchor="middle" x="513.88" y="-44.5" font-family="Helvetica,sans-Serif" font-size="10.00">bsp_enable_feature</text>
</a>
</g>
</g>
<!-- Node1&#45;&gt;Node2 -->
<g id="edge1_Node000001_Node000002" class="edge">
<title>Node1&#45;&gt;Node2</title>
<g id="a_edge1_Node000001_Node000002"><a xlink:title=" ">
<path fill="none" stroke="#63b8ff" d="M588.71,-36.14C580.86,-37.4 572.64,-38.72 564.66,-40"/>
<polygon fill="#63b8ff" stroke="#63b8ff" points="589.06,-39.63 598.38,-34.58 587.95,-32.71 589.06,-39.63"/>
</a>
</g>
</g>
<!-- Node8 -->
<g id="Node000008" class="node">
<title>Node8</title>
<g id="a_Node000008"><a xlink:href="external__examples_2b00f000e_2applications_2m5stack__core__s3_2apps_23d__graphics_2main_2init__display_8c.html#ae0e932afc1e59f18ce869a88e5954baf" target="_top" xlink:title=" ">
<polygon fill="white" stroke="#666666" points="427.5,-20 291.5,-20 291.5,0 427.5,0 427.5,-20"/>
<text xml:space="preserve" text-anchor="middle" x="359.5" y="-6.5" font-family="Helvetica,sans-Serif" font-size="10.00">dsp_display_brightness_init</text>
</a>
</g>
</g>
<!-- Node1&#45;&gt;Node8 -->
<g id="edge5_Node000001_Node000008" class="edge">
<title>Node1&#45;&gt;Node8</title>
<g id="a_edge5_Node000001_Node000008"><a xlink:title=" ">
<path fill="none" stroke="#63b8ff" d="M588.59,-25.9C544.96,-22.86 477.9,-18.18 427.77,-14.69"/>
<polygon fill="#63b8ff" stroke="#63b8ff" points="588.24,-29.38 598.46,-26.58 588.73,-22.4 588.24,-29.38"/>
</a>
</g>
</g>
<!-- Node3 -->
<g id="Node000003" class="node">
<title>Node3</title>
<g id="a_Node000003"><a xlink:href="external__examples_2b00f000e_2applications_2m5stack__core__s3_2apps_23d__graphics_2main_2init__display_8c.html#acbf166af6a0c6f9ee069922e14c83023" target="_top" xlink:title=" ">
<polygon fill="white" stroke="#666666" points="405,-58 314,-58 314,-38 405,-38 405,-58"/>
<text xml:space="preserve" text-anchor="middle" x="359.5" y="-44.5" font-family="Helvetica,sans-Serif" font-size="10.00">dsp_display_new</text>
</a>
</g>
</g>
<!-- Node2&#45;&gt;Node3 -->
<g id="edge2_Node000002_Node000003" class="edge">
<title>Node2&#45;&gt;Node3</title>
<g id="a_edge2_Node000002_Node000003"><a xlink:title=" ">
<path fill="none" stroke="#63b8ff" d="M452.21,-48C436.57,-48 420.02,-48 405.35,-48"/>
<polygon fill="#63b8ff" stroke="#63b8ff" points="451.89,-51.5 461.89,-48 451.89,-44.5 451.89,-51.5"/>
</a>
</g>
</g>
<!-- Node4 -->
<g id="Node000004" class="node">
<title>Node4</title>
<g id="a_Node000004"><a xlink:href="external__examples_2b00f000e_2applications_2m5stack__core__s3_2apps_23d__graphics_2main_2init__display_8c.html#a042e5da5d3336dd10ebda5674ec495c3" target="_top" xlink:title=" ">
<polygon fill="white" stroke="#666666" points="255.5,-58 151.75,-58 151.75,-38 255.5,-38 255.5,-58"/>
<text xml:space="preserve" text-anchor="middle" x="203.62" y="-44.5" font-family="Helvetica,sans-Serif" font-size="10.00">bsp_display_lcd_init</text>
</a>
</g>
</g>
<!-- Node3&#45;&gt;Node4 -->
<g id="edge3_Node000003_Node000004" class="edge">
<title>Node3&#45;&gt;Node4</title>
<g id="a_edge3_Node000003_Node000004"><a xlink:title=" ">
<path fill="none" stroke="#63b8ff" d="M302.24,-48C287.06,-48 270.72,-48 255.83,-48"/>
<polygon fill="#63b8ff" stroke="#63b8ff" points="302.07,-51.5 312.07,-48 302.07,-44.5 302.07,-51.5"/>
</a>
</g>
</g>
<!-- Node5 -->
<g id="Node000005" class="node">
<title>Node5</title>
<g id="a_Node000005"><a xlink:href="external__examples_2b00f000e_2applications_2m5stack__core__s3_2apps_23d__graphics_2main_2init__display_8c.html#aea76cb12d19d5676634c1a78817fa316" target="_top" xlink:title=" ">
<polygon fill="#fff0f0" stroke="red" points="115.75,-45 0,-45 0,-13 115.75,-13 115.75,-45"/>
<text xml:space="preserve" text-anchor="start" x="8" y="-31.5" font-family="Helvetica,sans-Serif" font-size="10.00">dsp_display_start_with</text>
<text xml:space="preserve" text-anchor="middle" x="57.88" y="-19.5" font-family="Helvetica,sans-Serif" font-size="10.00">_config</text>
</a>
</g>
</g>
<!-- Node4&#45;&gt;Node5 -->
<g id="edge4_Node000004_Node000005" class="edge">
<title>Node4&#45;&gt;Node5</title>
<g id="a_edge4_Node000004_Node000005"><a xlink:title=" ">
<path fill="none" stroke="#63b8ff" d="M140.33,-39.77C132.3,-38.7 124.1,-37.62 116.16,-36.57"/>
<polygon fill="#63b8ff" stroke="#63b8ff" points="139.67,-43.21 150.04,-41.05 140.58,-36.27 139.67,-43.21"/>
</a>
</g>
</g>
<!-- Node8&#45;&gt;Node5 -->
<g id="edge6_Node000008_Node000005" class="edge">
<title>Node8&#45;&gt;Node5</title>
<g id="a_edge6_Node000008_Node000005"><a xlink:title=" ">
<path fill="none" stroke="#63b8ff" d="M279.84,-14.99C228.35,-18.25 162.26,-22.44 115.82,-25.39"/>
<polygon fill="#63b8ff" stroke="#63b8ff" points="279.99,-18.49 289.75,-14.36 279.55,-11.5 279.99,-18.49"/>
</a>
</g>
</g>
</g>
</svg>
