<?xml version="1.0" encoding="UTF-8" standalone="no"?>
<!DOCTYPE svg PUBLIC "-//W3C//DTD SVG 1.1//EN"
 "http://www.w3.org/Graphics/SVG/1.1/DTD/svg11.dtd">
<!-- Generated by graphviz version 14.1.2 (20260124.0452)
 -->
<!-- Title: dispaly_esp_text Pages: 1 -->
<svg width="506pt" height="116pt"
 viewBox="0.00 0.00 506.00 116.00" xmlns="http://www.w3.org/2000/svg" xmlns:xlink="http://www.w3.org/1999/xlink">
<g id="graph0" class="graph" transform="scale(1 1) rotate(0) translate(4 112)">
<title>dispaly_esp_text</title>
<!-- Node1 -->
<g id="Node000001" class="node">
<title>Node1</title>
<g id="a_Node000001"><a xlink:title="Display ESPRESSIF text.">
<polygon fill="#999999" stroke="#666666" points="89.5,-70 0,-70 0,-50 89.5,-50 89.5,-70"/>
<text xml:space="preserve" text-anchor="middle" x="44.75" y="-56.5" font-family="Helvetica,sans-Serif" font-size="10.00">dispaly_esp_text</text>
</a>
</g>
</g>
<!-- Node2 -->
<g id="Node000002" class="node">
<title>Node2</title>
<g id="a_Node000002"><a xlink:href="classdspm_1_1_mat.html#a7502c6d836d1ae05f6880620c1a832b5" target="_top" xlink:title=" ">
<polygon fill="white" stroke="#666666" points="224.38,-108 140.12,-108 140.12,-88 224.38,-88 224.38,-108"/>
<text xml:space="preserve" text-anchor="middle" x="182.25" y="-94.5" font-family="Helvetica,sans-Serif" font-size="10.00">dspm::Mat::eye</text>
</a>
</g>
</g>
<!-- Node1&#45;&gt;Node2 -->
<g id="edge1_Node000001_Node000002" class="edge">
<title>Node1&#45;&gt;Node2</title>
<g id="a_edge1_Node000001_Node000002"><a xlink:title=" ">
<path fill="none" stroke="#63b8ff" d="M83.13,-70.48C98.54,-74.8 116.58,-79.86 132.96,-84.46"/>
<polygon fill="#63b8ff" stroke="#63b8ff" points="131.96,-87.81 142.53,-87.14 133.85,-81.07 131.96,-87.81"/>
</a>
</g>
</g>
<!-- Node5 -->
<g id="Node000005" class="node">
<title>Node5</title>
<g id="a_Node000005"><a xlink:href="applications_2azure__board__apps_2graphics_23d__matrix_23d__matrix__src_2graphics__support_8cpp.html#a7d3520bcf116c1dcaa67c1925e48b2d9" target="_top" xlink:title="update scaling matrix">
<polygon fill="white" stroke="#666666" points="239,-70 125.5,-70 125.5,-50 239,-50 239,-70"/>
<text xml:space="preserve" text-anchor="middle" x="182.25" y="-56.5" font-family="Helvetica,sans-Serif" font-size="10.00">update_scaling_matrix</text>
</a>
</g>
</g>
<!-- Node1&#45;&gt;Node5 -->
<g id="edge4_Node000001_Node000005" class="edge">
<title>Node1&#45;&gt;Node5</title>
<g id="a_edge4_Node000001_Node000005"><a xlink:title=" ">
<path fill="none" stroke="#63b8ff" d="M89.74,-60C97.41,-60 105.54,-60 113.67,-60"/>
<polygon fill="#63b8ff" stroke="#63b8ff" points="113.6,-63.5 123.6,-60 113.6,-56.5 113.6,-63.5"/>
</a>
</g>
</g>
<!-- Node6 -->
<g id="Node000006" class="node">
<title>Node6</title>
<g id="a_Node000006"><a xlink:href="applications_2azure__board__apps_2graphics_23d__matrix_23d__matrix__src_2graphics__support_8cpp.html#a2f5dfc8616993b1485635978ec29513d" target="_top" xlink:title="update translation matrix">
<polygon fill="white" stroke="#666666" points="230,-32 134.5,-32 134.5,0 230,0 230,-32"/>
<text xml:space="preserve" text-anchor="start" x="142.5" y="-18.5" font-family="Helvetica,sans-Serif" font-size="10.00">update_translation</text>
<text xml:space="preserve" text-anchor="middle" x="182.25" y="-6.5" font-family="Helvetica,sans-Serif" font-size="10.00">_matrix</text>
</a>
</g>
</g>
<!-- Node1&#45;&gt;Node6 -->
<g id="edge5_Node000001_Node000006" class="edge">
<title>Node1&#45;&gt;Node6</title>
<g id="a_edge5_Node000001_Node000006"><a xlink:title=" ">
<path fill="none" stroke="#63b8ff" d="M77.86,-49.57C91.53,-45.13 107.91,-39.82 123.56,-34.73"/>
<polygon fill="#63b8ff" stroke="#63b8ff" points="124.36,-38.15 132.79,-31.74 122.2,-31.5 124.36,-38.15"/>
</a>
</g>
</g>
<!-- Node3 -->
<g id="Node000003" class="node">
<title>Node3</title>
<g id="a_Node000003"><a xlink:href="classdspm_1_1_mat.html#a5eb6987452e618ba8d638a6773a074df" target="_top" xlink:title=" ">
<polygon fill="white" stroke="#666666" points="360,-108 275,-108 275,-88 360,-88 360,-108"/>
<text xml:space="preserve" text-anchor="middle" x="317.5" y="-94.5" font-family="Helvetica,sans-Serif" font-size="10.00">dspm::Mat::Mat</text>
</a>
</g>
</g>
<!-- Node2&#45;&gt;Node3 -->
<g id="edge2_Node000002_Node000003" class="edge">
<title>Node2&#45;&gt;Node3</title>
<g id="a_edge2_Node000002_Node000003"><a xlink:title=" ">
<path fill="none" stroke="#63b8ff" d="M224.68,-98C236.85,-98 250.33,-98 263.13,-98"/>
<polygon fill="#63b8ff" stroke="#63b8ff" points="263.12,-101.5 273.12,-98 263.12,-94.5 263.12,-101.5"/>
</a>
</g>
</g>
<!-- Node4 -->
<g id="Node000004" class="node">
<title>Node4</title>
<g id="a_Node000004"><a xlink:href="classdspm_1_1_mat.html#aa82f099abe2da9662fd06e72056df323" target="_top" xlink:title=" ">
<polygon fill="white" stroke="#666666" points="498.25,-108 396,-108 396,-88 498.25,-88 498.25,-108"/>
<text xml:space="preserve" text-anchor="middle" x="447.12" y="-94.5" font-family="Helvetica,sans-Serif" font-size="10.00">dspm::Mat::allocate</text>
</a>
</g>
</g>
<!-- Node3&#45;&gt;Node4 -->
<g id="edge3_Node000003_Node000004" class="edge">
<title>Node3&#45;&gt;Node4</title>
<g id="a_edge3_Node000003_Node000004"><a xlink:title=" ">
<path fill="none" stroke="#63b8ff" d="M360.29,-98C368,-98 376.19,-98 384.35,-98"/>
<polygon fill="#63b8ff" stroke="#63b8ff" points="384.27,-101.5 394.27,-98 384.27,-94.5 384.27,-101.5"/>
</a>
</g>
</g>
</g>
</svg>
