<?xml version="1.0" encoding="UTF-8" standalone="no"?>
<!DOCTYPE svg PUBLIC "-//W3C//DTD SVG 1.1//EN"
 "http://www.w3.org/Graphics/SVG/1.1/DTD/svg11.dtd">
<!-- Generated by graphviz version 14.1.2 (20260124.0452)
 -->
<!-- Title: dsp_display_new Pages: 1 -->
<svg width="491pt" height="40pt"
 viewBox="0.00 0.00 491.00 40.00" xmlns="http://www.w3.org/2000/svg" xmlns:xlink="http://www.w3.org/1999/xlink">
<g id="graph0" class="graph" transform="scale(1 1) rotate(0) translate(4 36)">
<title>dsp_display_new</title>
<!-- Node1 -->
<g id="Node000001" class="node">
<title>Node1</title>
<g id="a_Node000001"><a xlink:title=" ">
<polygon fill="#999999" stroke="#666666" points="483.25,-26 392.25,-26 392.25,-6 483.25,-6 483.25,-26"/>
<text xml:space="preserve" text-anchor="middle" x="437.75" y="-12.5" font-family="Helvetica,sans-Serif" font-size="10.00">dsp_display_new</text>
</a>
</g>
</g>
<!-- Node2 -->
<g id="Node000002" class="node">
<title>Node2</title>
<g id="a_Node000002"><a xlink:href="external__examples_2b00f000e_2applications_2m5stack__core__s3_2apps_23d__graphics_2main_2init__display_8c.html#a042e5da5d3336dd10ebda5674ec495c3" target="_top" xlink:title=" ">
<polygon fill="white" stroke="#666666" points="356.25,-26 252.5,-26 252.5,-6 356.25,-6 356.25,-26"/>
<text xml:space="preserve" text-anchor="middle" x="304.38" y="-12.5" font-family="Helvetica,sans-Serif" font-size="10.00">bsp_display_lcd_init</text>
</a>
</g>
</g>
<!-- Node1&#45;&gt;Node2 -->
<g id="edge1_Node000001_Node000002" class="edge">
<title>Node1&#45;&gt;Node2</title>
<g id="a_edge1_Node000001_Node000002"><a xlink:title=" ">
<path fill="none" stroke="#63b8ff" d="M380.67,-16C372.59,-16 364.31,-16 356.34,-16"/>
<polygon fill="#63b8ff" stroke="#63b8ff" points="380.39,-19.5 390.39,-16 380.39,-12.5 380.39,-19.5"/>
</a>
</g>
</g>
<!-- Node3 -->
<g id="Node000003" class="node">
<title>Node3</title>
<g id="a_Node000003"><a xlink:href="external__examples_2b00f000e_2applications_2m5stack__core__s3_2apps_23d__graphics_2main_2init__display_8c.html#aea76cb12d19d5676634c1a78817fa316" target="_top" xlink:title=" ">
<polygon fill="white" stroke="#666666" points="216.5,-32 100.75,-32 100.75,0 216.5,0 216.5,-32"/>
<text xml:space="preserve" text-anchor="start" x="108.75" y="-18.5" font-family="Helvetica,sans-Serif" font-size="10.00">dsp_display_start_with</text>
<text xml:space="preserve" text-anchor="middle" x="158.62" y="-6.5" font-family="Helvetica,sans-Serif" font-size="10.00">_config</text>
</a>
</g>
</g>
<!-- Node2&#45;&gt;Node3 -->
<g id="edge2_Node000002_Node000003" class="edge">
<title>Node2&#45;&gt;Node3</title>
<g id="a_edge2_Node000002_Node000003"><a xlink:title=" ">
<path fill="none" stroke="#63b8ff" d="M240.81,-16C232.86,-16 224.76,-16 216.91,-16"/>
<polygon fill="#63b8ff" stroke="#63b8ff" points="240.78,-19.5 250.78,-16 240.78,-12.5 240.78,-19.5"/>
</a>
</g>
</g>
<!-- Node4 -->
<g id="Node000004" class="node">
<title>Node4</title>
<g id="a_Node000004"><a xlink:href="external__examples_2b00f000e_2applications_2m5stack__core__s3_2apps_23d__graphics_2main_2init__display_8c.html#af2392dd06c1a7e0f317d26309d9e0d18" target="_top" xlink:title=" ">
<polygon fill="#fff0f0" stroke="red" points="64.75,-26 0,-26 0,-6 64.75,-6 64.75,-26"/>
<text xml:space="preserve" text-anchor="middle" x="32.38" y="-12.5" font-family="Helvetica,sans-Serif" font-size="10.00">display_init</text>
</a>
</g>
</g>
<!-- Node3&#45;&gt;Node4 -->
<g id="edge3_Node000003_Node000004" class="edge">
<title>Node3&#45;&gt;Node4</title>
<g id="a_edge3_Node000003_Node000004"><a xlink:title=" ">
<path fill="none" stroke="#63b8ff" d="M89.09,-16C80.68,-16 72.43,-16 64.97,-16"/>
<polygon fill="#63b8ff" stroke="#63b8ff" points="89.08,-19.5 99.08,-16 89.08,-12.5 89.08,-19.5"/>
</a>
</g>
</g>
</g>
</svg>
