<?xml version="1.0" encoding="UTF-8" standalone="no"?>
<!DOCTYPE svg PUBLIC "-//W3C//DTD SVG 1.1//EN"
 "http://www.w3.org/Graphics/SVG/1.1/DTD/svg11.dtd">
<!-- Generated by graphviz version 14.1.2 (20260124.0452)
 -->
<!-- Title: display_init Pages: 1 -->
<svg width="524pt" height="145pt"
 viewBox="0.00 0.00 524.00 145.00" xmlns="http://www.w3.org/2000/svg" xmlns:xlink="http://www.w3.org/1999/xlink">
<g id="graph0" class="graph" transform="scale(1 1) rotate(0) translate(4 141)">
<title>display_init</title>
<!-- Node1 -->
<g id="Node000001" class="node">
<title>Node1</title>
<g id="a_Node000001"><a xlink:title=" ">
<polygon fill="#999999" stroke="#666666" points="64.75,-80 0,-80 0,-60 64.75,-60 64.75,-80"/>
<text xml:space="preserve" text-anchor="middle" x="32.38" y="-66.5" font-family="Helvetica,sans-Serif" font-size="10.00">display_init</text>
</a>
</g>
</g>
<!-- Node2 -->
<g id="Node000002" class="node">
<title>Node2</title>
<g id="a_Node000002"><a xlink:href="applications_2m5stack__core__s3_2apps_23d__graphics_2main_2init__display_8c.html#aea76cb12d19d5676634c1a78817fa316" target="_top" xlink:title=" ">
<polygon fill="white" stroke="#666666" points="216.5,-111 100.75,-111 100.75,-79 216.5,-79 216.5,-111"/>
<text xml:space="preserve" text-anchor="start" x="108.75" y="-97.5" font-family="Helvetica,sans-Serif" font-size="10.00">dsp_display_start_with</text>
<text xml:space="preserve" text-anchor="middle" x="158.62" y="-85.5" font-family="Helvetica,sans-Serif" font-size="10.00">_config</text>
</a>
</g>
</g>
<!-- Node1&#45;&gt;Node2 -->
<g id="edge1_Node000001_Node000002" class="edge">
<title>Node1&#45;&gt;Node2</title>
<g id="a_edge1_Node000001_Node000002"><a xlink:title=" ">
<path fill="none" stroke="#63b8ff" d="M65.05,-76.37C72.55,-77.88 80.83,-79.55 89.27,-81.25"/>
<polygon fill="#63b8ff" stroke="#63b8ff" points="88.43,-84.65 98.92,-83.19 89.81,-77.78 88.43,-84.65"/>
</a>
</g>
</g>
<!-- Node9 -->
<g id="Node000009" class="node">
<title>Node9</title>
<g id="a_Node000009"><a xlink:href="external__examples_2b00f000e_2applications_2m5stack__core__s3_2apps_23d__graphics_2main_2init__display_8c.html#aea76cb12d19d5676634c1a78817fa316" target="_top" xlink:title=" ">
<polygon fill="white" stroke="#666666" points="216.5,-61 100.75,-61 100.75,-29 216.5,-29 216.5,-61"/>
<text xml:space="preserve" text-anchor="start" x="108.75" y="-47.5" font-family="Helvetica,sans-Serif" font-size="10.00">dsp_display_start_with</text>
<text xml:space="preserve" text-anchor="middle" x="158.62" y="-35.5" font-family="Helvetica,sans-Serif" font-size="10.00">_config</text>
</a>
</g>
</g>
<!-- Node1&#45;&gt;Node9 -->
<g id="edge6_Node000001_Node000009" class="edge">
<title>Node1&#45;&gt;Node9</title>
<g id="a_edge6_Node000001_Node000009"><a xlink:title=" ">
<path fill="none" stroke="#63b8ff" d="M65.05,-63.63C72.55,-62.12 80.83,-60.45 89.27,-58.75"/>
<polygon fill="#63b8ff" stroke="#63b8ff" points="89.81,-62.22 98.92,-56.81 88.43,-55.35 89.81,-62.22"/>
</a>
</g>
</g>
<!-- Node3 -->
<g id="Node000003" class="node">
<title>Node3</title>
<g id="a_Node000003"><a xlink:href="applications_2m5stack__core__s3_2apps_23d__graphics_2main_2init__display_8c.html#a042e5da5d3336dd10ebda5674ec495c3" target="_top" xlink:title=" ">
<polygon fill="white" stroke="#666666" points="372.38,-137 268.62,-137 268.62,-117 372.38,-117 372.38,-137"/>
<text xml:space="preserve" text-anchor="middle" x="320.5" y="-123.5" font-family="Helvetica,sans-Serif" font-size="10.00">bsp_display_lcd_init</text>
</a>
</g>
</g>
<!-- Node2&#45;&gt;Node3 -->
<g id="edge2_Node000002_Node000003" class="edge">
<title>Node2&#45;&gt;Node3</title>
<g id="a_edge2_Node000002_Node000003"><a xlink:title=" ">
<path fill="none" stroke="#63b8ff" d="M216.89,-106.46C229.98,-109.08 243.96,-111.88 257.24,-114.54"/>
<polygon fill="#63b8ff" stroke="#63b8ff" points="256.23,-117.91 266.73,-116.44 257.61,-111.04 256.23,-117.91"/>
</a>
</g>
</g>
<!-- Node8 -->
<g id="Node000008" class="node">
<title>Node8</title>
<g id="a_Node000008"><a xlink:href="applications_2m5stack__core__s3_2apps_23d__graphics_2main_2init__display_8c.html#ae0e932afc1e59f18ce869a88e5954baf" target="_top" xlink:title=" ">
<polygon fill="white" stroke="#666666" points="388.5,-99 252.5,-99 252.5,-79 388.5,-79 388.5,-99"/>
<text xml:space="preserve" text-anchor="middle" x="320.5" y="-85.5" font-family="Helvetica,sans-Serif" font-size="10.00">dsp_display_brightness_init</text>
</a>
</g>
</g>
<!-- Node2&#45;&gt;Node8 -->
<g id="edge4_Node000002_Node000008" class="edge">
<title>Node2&#45;&gt;Node8</title>
<g id="a_edge4_Node000002_Node000008"><a xlink:title=" ">
<path fill="none" stroke="#63b8ff" d="M216.89,-92.85C224.63,-92.56 232.67,-92.26 240.7,-91.96"/>
<polygon fill="#63b8ff" stroke="#63b8ff" points="240.63,-95.46 250.49,-91.59 240.37,-88.47 240.63,-95.46"/>
</a>
</g>
</g>
<!-- Node4 -->
<g id="Node000004" class="node">
<title>Node4</title>
<g id="a_Node000004"><a xlink:href="applications_2m5stack__core__s3_2apps_23d__graphics_2main_2init__display_8c.html#acbf166af6a0c6f9ee069922e14c83023" target="_top" xlink:title=" ">
<polygon fill="#fff0f0" stroke="red" points="515.5,-137 424.5,-137 424.5,-117 515.5,-117 515.5,-137"/>
<text xml:space="preserve" text-anchor="middle" x="470" y="-123.5" font-family="Helvetica,sans-Serif" font-size="10.00">dsp_display_new</text>
</a>
</g>
</g>
<!-- Node3&#45;&gt;Node4 -->
<g id="edge3_Node000003_Node000004" class="edge">
<title>Node3&#45;&gt;Node4</title>
<g id="a_edge3_Node000003_Node000004"><a xlink:title=" ">
<path fill="none" stroke="#63b8ff" d="M372.67,-127C385.67,-127 399.71,-127 412.94,-127"/>
<polygon fill="#63b8ff" stroke="#63b8ff" points="412.8,-130.5 422.8,-127 412.8,-123.5 412.8,-130.5"/>
</a>
</g>
</g>
<!-- Node6 -->
<g id="Node000006" class="node">
<title>Node6</title>
<g id="a_Node000006"><a xlink:href="applications_2m5stack__core__s3_2apps_23d__graphics_2main_2init__display_8c.html#afb504c284aa8a47f2ffee89038bd5b98" target="_top" xlink:title=" ">
<polygon fill="white" stroke="#666666" points="503.88,-99 436.12,-99 436.12,-79 503.88,-79 503.88,-99"/>
<text xml:space="preserve" text-anchor="middle" x="470" y="-85.5" font-family="Helvetica,sans-Serif" font-size="10.00">bsp_i2c_init</text>
</a>
</g>
</g>
<!-- Node8&#45;&gt;Node6 -->
<g id="edge5_Node000008_Node000006" class="edge">
<title>Node8&#45;&gt;Node6</title>
<g id="a_edge5_Node000008_Node000006"><a xlink:title=" ">
<path fill="none" stroke="#63b8ff" d="M388.78,-89C400.84,-89 413.14,-89 424.37,-89"/>
<polygon fill="#63b8ff" stroke="#63b8ff" points="424.12,-92.5 434.12,-89 424.12,-85.5 424.12,-92.5"/>
</a>
</g>
</g>
<!-- Node10 -->
<g id="Node000010" class="node">
<title>Node10</title>
<g id="a_Node000010"><a xlink:href="external__examples_2b00f000e_2applications_2m5stack__core__s3_2apps_23d__graphics_2main_2init__display_8c.html#a042e5da5d3336dd10ebda5674ec495c3" target="_top" xlink:title=" ">
<polygon fill="white" stroke="#666666" points="372.38,-58 268.62,-58 268.62,-38 372.38,-38 372.38,-58"/>
<text xml:space="preserve" text-anchor="middle" x="320.5" y="-44.5" font-family="Helvetica,sans-Serif" font-size="10.00">bsp_display_lcd_init</text>
</a>
</g>
</g>
<!-- Node9&#45;&gt;Node10 -->
<g id="edge7_Node000009_Node000010" class="edge">
<title>Node9&#45;&gt;Node10</title>
<g id="a_edge7_Node000009_Node000010"><a xlink:title=" ">
<path fill="none" stroke="#63b8ff" d="M216.89,-46.07C229.85,-46.32 243.68,-46.58 256.84,-46.82"/>
<polygon fill="#63b8ff" stroke="#63b8ff" points="256.63,-50.32 266.7,-47.01 256.76,-43.32 256.63,-50.32"/>
</a>
</g>
</g>
<!-- Node15 -->
<g id="Node000015" class="node">
<title>Node15</title>
<g id="a_Node000015"><a xlink:href="external__examples_2b00f000e_2applications_2m5stack__core__s3_2apps_23d__graphics_2main_2init__display_8c.html#ae0e932afc1e59f18ce869a88e5954baf" target="_top" xlink:title=" ">
<polygon fill="white" stroke="#666666" points="388.5,-20 252.5,-20 252.5,0 388.5,0 388.5,-20"/>
<text xml:space="preserve" text-anchor="middle" x="320.5" y="-6.5" font-family="Helvetica,sans-Serif" font-size="10.00">dsp_display_brightness_init</text>
</a>
</g>
</g>
<!-- Node9&#45;&gt;Node15 -->
<g id="edge9_Node000009_Node000015" class="edge">
<title>Node9&#45;&gt;Node15</title>
<g id="a_edge9_Node000009_Node000015"><a xlink:title=" ">
<path fill="none" stroke="#63b8ff" d="M216.89,-32.46C231.03,-29.37 246.2,-26.05 260.43,-22.93"/>
<polygon fill="#63b8ff" stroke="#63b8ff" points="261.09,-26.37 270.11,-20.81 259.6,-19.53 261.09,-26.37"/>
</a>
</g>
</g>
<!-- Node11 -->
<g id="Node000011" class="node">
<title>Node11</title>
<g id="a_Node000011"><a xlink:href="external__examples_2b00f000e_2applications_2m5stack__core__s3_2apps_23d__graphics_2main_2init__display_8c.html#acbf166af6a0c6f9ee069922e14c83023" target="_top" xlink:title=" ">
<polygon fill="#fff0f0" stroke="red" points="515.5,-58 424.5,-58 424.5,-38 515.5,-38 515.5,-58"/>
<text xml:space="preserve" text-anchor="middle" x="470" y="-44.5" font-family="Helvetica,sans-Serif" font-size="10.00">dsp_display_new</text>
</a>
</g>
</g>
<!-- Node10&#45;&gt;Node11 -->
<g id="edge8_Node000010_Node000011" class="edge">
<title>Node10&#45;&gt;Node11</title>
<g id="a_edge8_Node000010_Node000011"><a xlink:title=" ">
<path fill="none" stroke="#63b8ff" d="M372.67,-48C385.67,-48 399.71,-48 412.94,-48"/>
<polygon fill="#63b8ff" stroke="#63b8ff" points="412.8,-51.5 422.8,-48 412.8,-44.5 412.8,-51.5"/>
</a>
</g>
</g>
<!-- Node13 -->
<g id="Node000013" class="node">
<title>Node13</title>
<g id="a_Node000013"><a xlink:href="external__examples_2b00f000e_2applications_2m5stack__core__s3_2apps_23d__graphics_2main_2init__display_8c.html#afb504c284aa8a47f2ffee89038bd5b98" target="_top" xlink:title=" ">
<polygon fill="white" stroke="#666666" points="503.88,-20 436.12,-20 436.12,0 503.88,0 503.88,-20"/>
<text xml:space="preserve" text-anchor="middle" x="470" y="-6.5" font-family="Helvetica,sans-Serif" font-size="10.00">bsp_i2c_init</text>
</a>
</g>
</g>
<!-- Node15&#45;&gt;Node13 -->
<g id="edge10_Node000015_Node000013" class="edge">
<title>Node15&#45;&gt;Node13</title>
<g id="a_edge10_Node000015_Node000013"><a xlink:title=" ">
<path fill="none" stroke="#63b8ff" d="M388.78,-10C400.84,-10 413.14,-10 424.37,-10"/>
<polygon fill="#63b8ff" stroke="#63b8ff" points="424.12,-13.5 434.12,-10 424.12,-6.5 424.12,-13.5"/>
</a>
</g>
</g>
</g>
</svg>
