<?xml version="1.0" encoding="UTF-8" standalone="no"?>
<!DOCTYPE svg PUBLIC "-//W3C//DTD SVG 1.1//EN"
 "http://www.w3.org/Graphics/SVG/1.1/DTD/svg11.dtd">
<!-- Generated by graphviz version 14.1.2 (20260124.0452)
 -->
<!-- Title: update_scaling_matrix Pages: 1 -->
<svg width="360pt" height="218pt"
 viewBox="0.00 0.00 360.00 218.00" xmlns="http://www.w3.org/2000/svg" xmlns:xlink="http://www.w3.org/1999/xlink">

<svg id="main" version="1.1" xmlns="http://www.w3.org/2000/svg" xmlns:xlink="http://www.w3.org/1999/xlink" xml:space="preserve">

<style type="text/css"><![CDATA[
.node, .edge {opacity: 0.7;}
.node.selected, .edge.selected {opacity: 1;}
.edge:hover path { stroke: red; }
.edge:hover polygon { stroke: red; fill: red; }
]]></style>
<script type="application/ecmascript" xlink:href="svg.min.js"/>
<svg id="graph" class="graph">
<g id="graph0" class="graph" transform="scale(1 1) rotate(0) translate(4 214)">
<title>update_scaling_matrix</title>
<!-- Node1 -->
<g id="Node000001" class="node">
<title>Node1</title>
<g id="a_Node000001"><a xlink:title="update scaling matrix">
<polygon fill="#999999" stroke="#666666" points="351.75,-115 238.25,-115 238.25,-95 351.75,-95 351.75,-115"/>
<text xml:space="preserve" text-anchor="middle" x="295" y="-101.5" font-family="Helvetica,sans-Serif" font-size="10.00">update_scaling_matrix</text>
</a>
</g>
</g>
<!-- Node2 -->
<g id="Node000002" class="node">
<title>Node2</title>
<g id="a_Node000002"><a xlink:href="applications_2azure__board__apps_2apps_23d__graphics_2main_23d__graphics__demo_8cpp.html#a0edd8bfc49beafeacd3540ba291680c3" target="_top" xlink:title="Display ESPRESSIF text.">
<polygon fill="white" stroke="#666666" points="192.88,-210 103.38,-210 103.38,-190 192.88,-190 192.88,-210"/>
<text xml:space="preserve" text-anchor="middle" x="148.12" y="-196.5" font-family="Helvetica,sans-Serif" font-size="10.00">dispaly_esp_text</text>
</a>
</g>
</g>
<!-- Node1&#45;&gt;Node2 -->
<g id="edge1_Node000001_Node000002" class="edge">
<title>Node1&#45;&gt;Node2</title>
<g id="a_edge1_Node000001_Node000002"><a xlink:title=" ">
<path fill="none" stroke="#63b8ff" d="M275.72,-123.47C258.17,-140.36 230.26,-165.05 202.25,-181 196.55,-184.25 190.19,-187.1 183.91,-189.53"/>
<polygon fill="#63b8ff" stroke="#63b8ff" points="278.13,-126.01 282.82,-116.51 273.23,-121.01 278.13,-126.01"/>
</a>
</g>
</g>
<!-- Node4 -->
<g id="Node000004" class="node">
<title>Node4</title>
<g id="a_Node000004"><a xlink:href="external__examples_2b00f000e_2applications_2azure__board__apps_2apps_23d__graphics_2main_23d__graphics__demo_8cpp.html#a0edd8bfc49beafeacd3540ba291680c3" target="_top" xlink:title="Display ESPRESSIF text.">
<polygon fill="white" stroke="#666666" points="192.88,-172 103.38,-172 103.38,-152 192.88,-152 192.88,-172"/>
<text xml:space="preserve" text-anchor="middle" x="148.12" y="-158.5" font-family="Helvetica,sans-Serif" font-size="10.00">dispaly_esp_text</text>
</a>
</g>
</g>
<!-- Node1&#45;&gt;Node4 -->
<g id="edge3_Node000001_Node000004" class="edge">
<title>Node1&#45;&gt;Node4</title>
<g id="a_edge3_Node000001_Node000004"><a xlink:title=" ">
<path fill="none" stroke="#63b8ff" d="M259,-119.97C241.96,-127.14 221.12,-135.72 202.25,-143 194.85,-145.85 186.81,-148.81 179.28,-151.5"/>
<polygon fill="#63b8ff" stroke="#63b8ff" points="260.36,-123.2 268.2,-116.08 257.63,-116.75 260.36,-123.2"/>
</a>
</g>
</g>
<!-- Node6 -->
<g id="Node000006" class="node">
<title>Node6</title>
<g id="a_Node000006"><a xlink:href="external__examples_2d1468452_2apps_23d__graphics_2main_23d__graphics__demo_8cpp.html#a0edd8bfc49beafeacd3540ba291680c3" target="_top" xlink:title="Display ESPRESSIF text.">
<polygon fill="white" stroke="#666666" points="192.88,-134 103.38,-134 103.38,-114 192.88,-114 192.88,-134"/>
<text xml:space="preserve" text-anchor="middle" x="148.12" y="-120.5" font-family="Helvetica,sans-Serif" font-size="10.00">dispaly_esp_text</text>
</a>
</g>
</g>
<!-- Node1&#45;&gt;Node6 -->
<g id="edge5_Node000001_Node000006" class="edge">
<title>Node1&#45;&gt;Node6</title>
<g id="a_edge5_Node000001_Node000006"><a xlink:title=" ">
<path fill="none" stroke="#63b8ff" d="M226.74,-113.82C215.39,-115.31 203.88,-116.82 193.31,-118.2"/>
<polygon fill="#63b8ff" stroke="#63b8ff" points="227.03,-117.31 236.49,-112.54 226.12,-110.37 227.03,-117.31"/>
</a>
</g>
</g>
<!-- Node8 -->
<g id="Node000008" class="node">
<title>Node8</title>
<g id="a_Node000008"><a xlink:href="external__examples_2f9c2d4b3_2azure__board__apps_2apps_23d__graphics_2main_23d__graphics__demo_8cpp.html#a0edd8bfc49beafeacd3540ba291680c3" target="_top" xlink:title="Display ESPRESSIF text.">
<polygon fill="white" stroke="#666666" points="192.88,-96 103.38,-96 103.38,-76 192.88,-76 192.88,-96"/>
<text xml:space="preserve" text-anchor="middle" x="148.12" y="-82.5" font-family="Helvetica,sans-Serif" font-size="10.00">dispaly_esp_text</text>
</a>
</g>
</g>
<!-- Node1&#45;&gt;Node8 -->
<g id="edge7_Node000001_Node000008" class="edge">
<title>Node1&#45;&gt;Node8</title>
<g id="a_edge7_Node000001_Node000008"><a xlink:title=" ">
<path fill="none" stroke="#63b8ff" d="M226.74,-96.18C215.39,-94.69 203.88,-93.18 193.31,-91.8"/>
<polygon fill="#63b8ff" stroke="#63b8ff" points="226.12,-99.63 236.49,-97.46 227.03,-92.69 226.12,-99.63"/>
</a>
</g>
</g>
<!-- Node10 -->
<g id="Node000010" class="node">
<title>Node10</title>
<g id="a_Node000010"><a xlink:href="applications_2m5stack__core__s3_2apps_23d__graphics_2main_23d__graphics__demo_8cpp.html#af3debef909dca35dbf0b6f842df6def3" target="_top" xlink:title="RTOS task to draw a 3d image.">
<polygon fill="white" stroke="#666666" points="202.25,-58 94,-58 94,-38 202.25,-38 202.25,-58"/>
<text xml:space="preserve" text-anchor="middle" x="148.12" y="-44.5" font-family="Helvetica,sans-Serif" font-size="10.00">draw_3d_image_task</text>
</a>
</g>
</g>
<!-- Node1&#45;&gt;Node10 -->
<g id="edge9_Node000001_Node000010" class="edge">
<title>Node1&#45;&gt;Node10</title>
<g id="a_edge9_Node000001_Node000010"><a xlink:title=" ">
<path fill="none" stroke="#63b8ff" d="M259,-90.03C241.96,-82.86 221.12,-74.28 202.25,-67 194.85,-64.15 186.81,-61.19 179.28,-58.5"/>
<polygon fill="#63b8ff" stroke="#63b8ff" points="257.63,-93.25 268.2,-93.92 260.36,-86.8 257.63,-93.25"/>
</a>
</g>
</g>
<!-- Node11 -->
<g id="Node000011" class="node">
<title>Node11</title>
<g id="a_Node000011"><a xlink:href="external__examples_2b00f000e_2applications_2m5stack__core__s3_2apps_23d__graphics_2main_23d__graphics__demo_8cpp.html#af3debef909dca35dbf0b6f842df6def3" target="_top" xlink:title="RTOS task to draw a 3d image.">
<polygon fill="white" stroke="#666666" points="202.25,-20 94,-20 94,0 202.25,0 202.25,-20"/>
<text xml:space="preserve" text-anchor="middle" x="148.12" y="-6.5" font-family="Helvetica,sans-Serif" font-size="10.00">draw_3d_image_task</text>
</a>
</g>
</g>
<!-- Node1&#45;&gt;Node11 -->
<g id="edge10_Node000001_Node000011" class="edge">
<title>Node1&#45;&gt;Node11</title>
<g id="a_edge10_Node000001_Node000011"><a xlink:title=" ">
<path fill="none" stroke="#63b8ff" d="M275.72,-86.53C258.17,-69.64 230.26,-44.95 202.25,-29 196.55,-25.75 190.19,-22.9 183.91,-20.47"/>
<polygon fill="#63b8ff" stroke="#63b8ff" points="273.23,-88.99 282.82,-93.49 278.13,-83.99 273.23,-88.99"/>
</a>
</g>
</g>
<!-- Node3 -->
<g id="Node000003" class="node">
<title>Node3</title>
<g id="a_Node000003"><a xlink:href="applications_2azure__board__apps_2apps_23d__graphics_2main_23d__graphics__demo_8cpp.html#abce06be17fc37d675118a678a8100a36" target="_top" xlink:title=" ">
<polygon fill="white" stroke="#666666" points="58,-210 0,-210 0,-190 58,-190 58,-210"/>
<text xml:space="preserve" text-anchor="middle" x="29" y="-196.5" font-family="Helvetica,sans-Serif" font-size="10.00">app_main</text>
</a>
</g>
</g>
<!-- Node2&#45;&gt;Node3 -->
<g id="edge2_Node000002_Node000003" class="edge">
<title>Node2&#45;&gt;Node3</title>
<g id="a_edge2_Node000002_Node000003"><a xlink:title=" ">
<path fill="none" stroke="#63b8ff" d="M91.69,-200C80.09,-200 68.31,-200 58.21,-200"/>
<polygon fill="#63b8ff" stroke="#63b8ff" points="91.67,-203.5 101.67,-200 91.67,-196.5 91.67,-203.5"/>
</a>
</g>
</g>
<!-- Node5 -->
<g id="Node000005" class="node">
<title>Node5</title>
<g id="a_Node000005"><a xlink:href="external__examples_2b00f000e_2applications_2azure__board__apps_2apps_23d__graphics_2main_23d__graphics__demo_8cpp.html#abce06be17fc37d675118a678a8100a36" target="_top" xlink:title=" ">
<polygon fill="white" stroke="#666666" points="58,-172 0,-172 0,-152 58,-152 58,-172"/>
<text xml:space="preserve" text-anchor="middle" x="29" y="-158.5" font-family="Helvetica,sans-Serif" font-size="10.00">app_main</text>
</a>
</g>
</g>
<!-- Node4&#45;&gt;Node5 -->
<g id="edge4_Node000004_Node000005" class="edge">
<title>Node4&#45;&gt;Node5</title>
<g id="a_edge4_Node000004_Node000005"><a xlink:title=" ">
<path fill="none" stroke="#63b8ff" d="M91.69,-162C80.09,-162 68.31,-162 58.21,-162"/>
<polygon fill="#63b8ff" stroke="#63b8ff" points="91.67,-165.5 101.67,-162 91.67,-158.5 91.67,-165.5"/>
</a>
</g>
</g>
<!-- Node7 -->
<g id="Node000007" class="node">
<title>Node7</title>
<g id="a_Node000007"><a xlink:href="external__examples_2d1468452_2apps_23d__graphics_2main_23d__graphics__demo_8cpp.html#abce06be17fc37d675118a678a8100a36" target="_top" xlink:title=" ">
<polygon fill="white" stroke="#666666" points="58,-134 0,-134 0,-114 58,-114 58,-134"/>
<text xml:space="preserve" text-anchor="middle" x="29" y="-120.5" font-family="Helvetica,sans-Serif" font-size="10.00">app_main</text>
</a>
</g>
</g>
<!-- Node6&#45;&gt;Node7 -->
<g id="edge6_Node000006_Node000007" class="edge">
<title>Node6&#45;&gt;Node7</title>
<g id="a_edge6_Node000006_Node000007"><a xlink:title=" ">
<path fill="none" stroke="#63b8ff" d="M91.69,-124C80.09,-124 68.31,-124 58.21,-124"/>
<polygon fill="#63b8ff" stroke="#63b8ff" points="91.67,-127.5 101.67,-124 91.67,-120.5 91.67,-127.5"/>
</a>
</g>
</g>
<!-- Node9 -->
<g id="Node000009" class="node">
<title>Node9</title>
<g id="a_Node000009"><a xlink:href="external__examples_2f9c2d4b3_2azure__board__apps_2apps_23d__graphics_2main_23d__graphics__demo_8cpp.html#abce06be17fc37d675118a678a8100a36" target="_top" xlink:title=" ">
<polygon fill="white" stroke="#666666" points="58,-96 0,-96 0,-76 58,-76 58,-96"/>
<text xml:space="preserve" text-anchor="middle" x="29" y="-82.5" font-family="Helvetica,sans-Serif" font-size="10.00">app_main</text>
</a>
</g>
</g>
<!-- Node8&#45;&gt;Node9 -->
<g id="edge8_Node000008_Node000009" class="edge">
<title>Node8&#45;&gt;Node9</title>
<g id="a_edge8_Node000008_Node000009"><a xlink:title=" ">
<path fill="none" stroke="#63b8ff" d="M91.69,-86C80.09,-86 68.31,-86 58.21,-86"/>
<polygon fill="#63b8ff" stroke="#63b8ff" points="91.67,-89.5 101.67,-86 91.67,-82.5 91.67,-89.5"/>
</a>
</g>
</g>
</g>
</svg>
</svg>

<style type='text/css'>
<![CDATA[
[data-mouse-over-selected='false'] { opacity: 0.7; }
[data-mouse-over-selected='true']  { opacity: 1.0; }
]]>
</style>
<script type="application/ecmascript"><![CDATA[
document.addEventListener('DOMContentLoaded', (event) => {
  highlightEdges();
  highlightAdjacentNodes();
});
]]></script>
</svg>
