<?xml version="1.0" encoding="UTF-8" standalone="no"?>
<!DOCTYPE svg PUBLIC "-//W3C//DTD SVG 1.1//EN"
 "http://www.w3.org/Graphics/SVG/1.1/DTD/svg11.dtd">
<!-- Generated by graphviz version 14.1.2 (20260124.0452)
 -->
<!-- Title: dsp_display_brightness_init Pages: 1 -->
<svg width="491pt" height="40pt"
 viewBox="0.00 0.00 491.00 40.00" xmlns="http://www.w3.org/2000/svg" xmlns:xlink="http://www.w3.org/1999/xlink">
<g id="graph0" class="graph" transform="scale(1 1) rotate(0) translate(4 36)">
<title>dsp_display_brightness_init</title>
<!-- Node1 -->
<g id="Node000001" class="node">
<title>Node1</title>
<g id="a_Node000001"><a xlink:title=" ">
<polygon fill="#999999" stroke="#666666" points="482.5,-26 346.5,-26 346.5,-6 482.5,-6 482.5,-26"/>
<text xml:space="preserve" text-anchor="middle" x="414.5" y="-12.5" font-family="Helvetica,sans-Serif" font-size="10.00">dsp_display_brightness_init</text>
</a>
</g>
</g>
<!-- Node2 -->
<g id="Node000002" class="node">
<title>Node2</title>
<g id="a_Node000002"><a xlink:href="external__examples_2b00f000e_2applications_2m5stack__core__s3_2apps_23d__graphics_2main_2init__display_8c.html#aea76cb12d19d5676634c1a78817fa316" target="_top" xlink:title=" ">
<polygon fill="white" stroke="#666666" points="310.5,-32 194.75,-32 194.75,0 310.5,0 310.5,-32"/>
<text xml:space="preserve" text-anchor="start" x="202.75" y="-18.5" font-family="Helvetica,sans-Serif" font-size="10.00">dsp_display_start_with</text>
<text xml:space="preserve" text-anchor="middle" x="252.62" y="-6.5" font-family="Helvetica,sans-Serif" font-size="10.00">_config</text>
</a>
</g>
</g>
<!-- Node1&#45;&gt;Node2 -->
<g id="edge1_Node000001_Node000002" class="edge">
<title>Node1&#45;&gt;Node2</title>
<g id="a_edge1_Node000001_Node000002"><a xlink:title=" ">
<path fill="none" stroke="#63b8ff" d="M334.76,-16C326.67,-16 318.56,-16 310.77,-16"/>
<polygon fill="#63b8ff" stroke="#63b8ff" points="334.65,-19.5 344.65,-16 334.65,-12.5 334.65,-19.5"/>
</a>
</g>
</g>
<!-- Node3 -->
<g id="Node000003" class="node">
<title>Node3</title>
<g id="a_Node000003"><a xlink:href="external__examples_2b00f000e_2applications_2m5stack__core__s3_2apps_23d__graphics_2main_2init__display_8c.html#af2392dd06c1a7e0f317d26309d9e0d18" target="_top" xlink:title=" ">
<polygon fill="white" stroke="#666666" points="158.75,-26 94,-26 94,-6 158.75,-6 158.75,-26"/>
<text xml:space="preserve" text-anchor="middle" x="126.38" y="-12.5" font-family="Helvetica,sans-Serif" font-size="10.00">display_init</text>
</a>
</g>
</g>
<!-- Node2&#45;&gt;Node3 -->
<g id="edge2_Node000002_Node000003" class="edge">
<title>Node2&#45;&gt;Node3</title>
<g id="a_edge2_Node000002_Node000003"><a xlink:title=" ">
<path fill="none" stroke="#63b8ff" d="M183.09,-16C174.68,-16 166.43,-16 158.97,-16"/>
<polygon fill="#63b8ff" stroke="#63b8ff" points="183.08,-19.5 193.08,-16 183.08,-12.5 183.08,-19.5"/>
</a>
</g>
</g>
<!-- Node4 -->
<g id="Node000004" class="node">
<title>Node4</title>
<g id="a_Node000004"><a xlink:href="applications_2m5stack__core__s3_2apps_23d__graphics_2main_23d__graphics__demo_8cpp.html#abce06be17fc37d675118a678a8100a36" target="_top" xlink:title=" ">
<polygon fill="white" stroke="#666666" points="58,-26 0,-26 0,-6 58,-6 58,-26"/>
<text xml:space="preserve" text-anchor="middle" x="29" y="-12.5" font-family="Helvetica,sans-Serif" font-size="10.00">app_main</text>
</a>
</g>
</g>
<!-- Node3&#45;&gt;Node4 -->
<g id="edge3_Node000003_Node000004" class="edge">
<title>Node3&#45;&gt;Node4</title>
<g id="a_edge3_Node000003_Node000004"><a xlink:title=" ">
<path fill="none" stroke="#63b8ff" d="M82.36,-16C74.24,-16 65.94,-16 58.41,-16"/>
<polygon fill="#63b8ff" stroke="#63b8ff" points="82.1,-19.5 92.1,-16 82.1,-12.5 82.1,-19.5"/>
</a>
</g>
</g>
</g>
</svg>
