<?xml version="1.0" encoding="UTF-8" standalone="no"?>
<!DOCTYPE svg PUBLIC "-//W3C//DTD SVG 1.1//EN"
 "http://www.w3.org/Graphics/SVG/1.1/DTD/svg11.dtd">
<!-- Generated by graphviz version 14.1.2 (20260124.0452)
 -->
<!-- Title: draw_3d_image_task Pages: 1 -->
<svg width="647pt" height="192pt"
 viewBox="0.00 0.00 647.00 192.00" xmlns="http://www.w3.org/2000/svg" xmlns:xlink="http://www.w3.org/1999/xlink">
<g id="graph0" class="graph" transform="scale(1 1) rotate(0) translate(4 188)">
<title>draw_3d_image_task</title>
<!-- Node1 -->
<g id="Node000001" class="node">
<title>Node1</title>
<g id="a_Node000001"><a xlink:title="RTOS task to draw a 3d image.">
<polygon fill="#999999" stroke="#666666" points="108.25,-108 0,-108 0,-88 108.25,-88 108.25,-108"/>
<text xml:space="preserve" text-anchor="middle" x="54.12" y="-94.5" font-family="Helvetica,sans-Serif" font-size="10.00">draw_3d_image_task</text>
</a>
</g>
</g>
<!-- Node2 -->
<g id="Node000002" class="node">
<title>Node2</title>
<g id="a_Node000002"><a xlink:href="external__examples_2b00f000e_2applications_2m5stack__core__s3_2apps_23d__graphics_2main_23d__graphics__demo_8cpp.html#a4b024d66e45ca738ce324999e3d8f75b" target="_top" xlink:title="Display a 3d image.">
<polygon fill="white" stroke="#666666" points="248.75,-184 154.75,-184 154.75,-164 248.75,-164 248.75,-184"/>
<text xml:space="preserve" text-anchor="middle" x="201.75" y="-170.5" font-family="Helvetica,sans-Serif" font-size="10.00">display_3d_image</text>
</a>
</g>
</g>
<!-- Node1&#45;&gt;Node2 -->
<g id="edge1_Node000001_Node000002" class="edge">
<title>Node1&#45;&gt;Node2</title>
<g id="a_edge1_Node000001_Node000002"><a xlink:title=" ">
<path fill="none" stroke="#63b8ff" d="M71.53,-108.42C89.15,-119.41 118.15,-136.91 144.25,-150 150.56,-153.17 157.4,-156.3 164.05,-159.21"/>
<polygon fill="#63b8ff" stroke="#63b8ff" points="162.31,-162.27 172.88,-162.97 165.06,-155.83 162.31,-162.27"/>
</a>
</g>
</g>
<!-- Node3 -->
<g id="Node000003" class="node">
<title>Node3</title>
<g id="a_Node000003"><a xlink:href="classdspm_1_1_mat.html#a7502c6d836d1ae05f6880620c1a832b5" target="_top" xlink:title=" ">
<polygon fill="white" stroke="#666666" points="379.5,-146 295.25,-146 295.25,-126 379.5,-126 379.5,-146"/>
<text xml:space="preserve" text-anchor="middle" x="337.38" y="-132.5" font-family="Helvetica,sans-Serif" font-size="10.00">dspm::Mat::eye</text>
</a>
</g>
</g>
<!-- Node1&#45;&gt;Node3 -->
<g id="edge2_Node000001_Node000003" class="edge">
<title>Node1&#45;&gt;Node3</title>
<g id="a_edge2_Node000001_Node000003"><a xlink:title=" ">
<path fill="none" stroke="#63b8ff" d="M99.37,-108.45C113.64,-111.55 129.56,-114.71 144.25,-117 191.27,-124.31 245.24,-129.36 283.98,-132.4"/>
<polygon fill="#63b8ff" stroke="#63b8ff" points="283.23,-135.86 293.47,-133.13 283.77,-128.88 283.23,-135.86"/>
</a>
</g>
</g>
<!-- Node6 -->
<g id="Node000006" class="node">
<title>Node6</title>
<g id="a_Node000006"><a xlink:href="applications_2azure__board__apps_2graphics_23d__matrix_23d__matrix__src_2graphics__support_8cpp.html#abddf00a5f71e067190147e3ecdb49d3f" target="_top" xlink:title="update rotation matrix">
<polygon fill="white" stroke="#666666" points="259.25,-108 144.25,-108 144.25,-88 259.25,-88 259.25,-108"/>
<text xml:space="preserve" text-anchor="middle" x="201.75" y="-94.5" font-family="Helvetica,sans-Serif" font-size="10.00">update_rotation_matrix</text>
</a>
</g>
</g>
<!-- Node1&#45;&gt;Node6 -->
<g id="edge5_Node000001_Node000006" class="edge">
<title>Node1&#45;&gt;Node6</title>
<g id="a_edge5_Node000001_Node000006"><a xlink:title=" ">
<path fill="none" stroke="#63b8ff" d="M108.52,-98C116.36,-98 124.52,-98 132.6,-98"/>
<polygon fill="#63b8ff" stroke="#63b8ff" points="132.42,-101.5 142.42,-98 132.42,-94.5 132.42,-101.5"/>
</a>
</g>
</g>
<!-- Node9 -->
<g id="Node000009" class="node">
<title>Node9</title>
<g id="a_Node000009"><a xlink:href="applications_2azure__board__apps_2graphics_23d__matrix_23d__matrix__src_2graphics__support_8cpp.html#a7d3520bcf116c1dcaa67c1925e48b2d9" target="_top" xlink:title="update scaling matrix">
<polygon fill="white" stroke="#666666" points="258.5,-70 145,-70 145,-50 258.5,-50 258.5,-70"/>
<text xml:space="preserve" text-anchor="middle" x="201.75" y="-56.5" font-family="Helvetica,sans-Serif" font-size="10.00">update_scaling_matrix</text>
</a>
</g>
</g>
<!-- Node1&#45;&gt;Node9 -->
<g id="edge9_Node000001_Node000009" class="edge">
<title>Node1&#45;&gt;Node9</title>
<g id="a_edge9_Node000001_Node000009"><a xlink:title=" ">
<path fill="none" stroke="#63b8ff" d="M95.3,-87.52C112.1,-83.13 131.81,-77.99 149.62,-73.34"/>
<polygon fill="#63b8ff" stroke="#63b8ff" points="150.45,-76.74 159.24,-70.83 148.68,-69.97 150.45,-76.74"/>
</a>
</g>
</g>
<!-- Node10 -->
<g id="Node000010" class="node">
<title>Node10</title>
<g id="a_Node000010"><a xlink:href="applications_2azure__board__apps_2graphics_23d__matrix_23d__matrix__src_2graphics__support_8cpp.html#a2f5dfc8616993b1485635978ec29513d" target="_top" xlink:title="update translation matrix">
<polygon fill="white" stroke="#666666" points="249.5,-32 154,-32 154,0 249.5,0 249.5,-32"/>
<text xml:space="preserve" text-anchor="start" x="162" y="-18.5" font-family="Helvetica,sans-Serif" font-size="10.00">update_translation</text>
<text xml:space="preserve" text-anchor="middle" x="201.75" y="-6.5" font-family="Helvetica,sans-Serif" font-size="10.00">_matrix</text>
</a>
</g>
</g>
<!-- Node1&#45;&gt;Node10 -->
<g id="edge10_Node000001_Node000010" class="edge">
<title>Node1&#45;&gt;Node10</title>
<g id="a_edge10_Node000001_Node000010"><a xlink:title=" ">
<path fill="none" stroke="#63b8ff" d="M69.84,-87.6C87.18,-75.58 117.06,-55.6 144.25,-41 146.48,-39.8 148.77,-38.62 151.1,-37.45"/>
<polygon fill="#63b8ff" stroke="#63b8ff" points="152.62,-40.6 160.11,-33.11 149.58,-34.3 152.62,-40.6"/>
</a>
</g>
</g>
<!-- Node4 -->
<g id="Node000004" class="node">
<title>Node4</title>
<g id="a_Node000004"><a xlink:href="classdspm_1_1_mat.html#a5eb6987452e618ba8d638a6773a074df" target="_top" xlink:title=" ">
<polygon fill="white" stroke="#666666" points="500.5,-108 415.5,-108 415.5,-88 500.5,-88 500.5,-108"/>
<text xml:space="preserve" text-anchor="middle" x="458" y="-94.5" font-family="Helvetica,sans-Serif" font-size="10.00">dspm::Mat::Mat</text>
</a>
</g>
</g>
<!-- Node3&#45;&gt;Node4 -->
<g id="edge3_Node000003_Node000004" class="edge">
<title>Node3&#45;&gt;Node4</title>
<g id="a_edge3_Node000003_Node000004"><a xlink:title=" ">
<path fill="none" stroke="#63b8ff" d="M371.1,-125.52C384.2,-121.32 399.47,-116.43 413.48,-111.94"/>
<polygon fill="#63b8ff" stroke="#63b8ff" points="414.48,-115.3 422.94,-108.91 412.35,-108.63 414.48,-115.3"/>
</a>
</g>
</g>
<!-- Node5 -->
<g id="Node000005" class="node">
<title>Node5</title>
<g id="a_Node000005"><a xlink:href="classdspm_1_1_mat.html#aa82f099abe2da9662fd06e72056df323" target="_top" xlink:title=" ">
<polygon fill="white" stroke="#666666" points="638.75,-108 536.5,-108 536.5,-88 638.75,-88 638.75,-108"/>
<text xml:space="preserve" text-anchor="middle" x="587.62" y="-94.5" font-family="Helvetica,sans-Serif" font-size="10.00">dspm::Mat::allocate</text>
</a>
</g>
</g>
<!-- Node4&#45;&gt;Node5 -->
<g id="edge4_Node000004_Node000005" class="edge">
<title>Node4&#45;&gt;Node5</title>
<g id="a_edge4_Node000004_Node000005"><a xlink:title=" ">
<path fill="none" stroke="#63b8ff" d="M500.79,-98C508.5,-98 516.69,-98 524.85,-98"/>
<polygon fill="#63b8ff" stroke="#63b8ff" points="524.77,-101.5 534.77,-98 524.77,-94.5 524.77,-101.5"/>
</a>
</g>
</g>
<!-- Node7 -->
<g id="Node000007" class="node">
<title>Node7</title>
<g id="a_Node000007"><a xlink:href="classekf.html#a6e279ffd67d217145d7891a44ea0d9e8" target="_top" xlink:title=" ">
<polygon fill="white" stroke="#666666" points="373.88,-108 300.88,-108 300.88,-88 373.88,-88 373.88,-108"/>
<text xml:space="preserve" text-anchor="middle" x="337.38" y="-94.5" font-family="Helvetica,sans-Serif" font-size="10.00">ekf::eul2rotm</text>
</a>
</g>
</g>
<!-- Node6&#45;&gt;Node7 -->
<g id="edge6_Node000006_Node000007" class="edge">
<title>Node6&#45;&gt;Node7</title>
<g id="a_edge6_Node000006_Node000007"><a xlink:title=" ">
<path fill="none" stroke="#63b8ff" d="M259.42,-98C269.33,-98 279.55,-98 289.17,-98"/>
<polygon fill="#63b8ff" stroke="#63b8ff" points="289.04,-101.5 299.04,-98 289.04,-94.5 289.04,-101.5"/>
</a>
</g>
</g>
<!-- Node8 -->
<g id="Node000008" class="node">
<title>Node8</title>
<g id="a_Node000008"><a xlink:href="classdspm_1_1_mat.html#af1013adcb6d601fba7bf788fd52d80b4" target="_top" xlink:title=" ">
<polygon fill="white" stroke="#666666" points="373.12,-70 301.62,-70 301.62,-50 373.12,-50 373.12,-70"/>
<text xml:space="preserve" text-anchor="middle" x="337.38" y="-56.5" font-family="Helvetica,sans-Serif" font-size="10.00">dspm::Mat::t</text>
</a>
</g>
</g>
<!-- Node6&#45;&gt;Node8 -->
<g id="edge7_Node000006_Node000008" class="edge">
<title>Node6&#45;&gt;Node8</title>
<g id="a_edge7_Node000006_Node000008"><a xlink:title=" ">
<path fill="none" stroke="#63b8ff" d="M239.62,-87.52C255.46,-83.01 274.13,-77.7 290.83,-72.95"/>
<polygon fill="#63b8ff" stroke="#63b8ff" points="291.35,-76.44 300.01,-70.34 289.44,-69.71 291.35,-76.44"/>
</a>
</g>
</g>
<!-- Node8&#45;&gt;Node4 -->
<g id="edge8_Node000008_Node000004" class="edge">
<title>Node8&#45;&gt;Node4</title>
<g id="a_edge8_Node000008_Node000004"><a xlink:title=" ">
<path fill="none" stroke="#63b8ff" d="M371.1,-70.48C384.2,-74.68 399.47,-79.57 413.48,-84.06"/>
<polygon fill="#63b8ff" stroke="#63b8ff" points="412.35,-87.37 422.94,-87.09 414.48,-80.7 412.35,-87.37"/>
</a>
</g>
</g>
</g>
</svg>
