<?xml version="1.0" encoding="UTF-8" standalone="no"?>
<!DOCTYPE svg PUBLIC "-//W3C//DTD SVG 1.1//EN"
 "http://www.w3.org/Graphics/SVG/1.1/DTD/svg11.dtd">
<!-- Generated by graphviz version 14.1.2 (20260124.0452)
 -->
<!-- Title: audio_process_task Pages: 1 -->
<svg width="451pt" height="218pt"
 viewBox="0.00 0.00 451.00 218.00" xmlns="http://www.w3.org/2000/svg" xmlns:xlink="http://www.w3.org/1999/xlink">
<g id="graph0" class="graph" transform="scale(1 1) rotate(0) translate(4 214)">
<title>audio_process_task</title>
<!-- Node1 -->
<g id="Node000001" class="node">
<title>Node1</title>
<g id="a_Node000001"><a xlink:title=" ">
<polygon fill="#999999" stroke="#666666" points="103,-77 0,-77 0,-57 103,-57 103,-77"/>
<text xml:space="preserve" text-anchor="middle" x="51.5" y="-63.5" font-family="Helvetica,sans-Serif" font-size="10.00">audio_process_task</text>
</a>
</g>
</g>
<!-- Node2 -->
<g id="Node000002" class="node">
<title>Node2</title>
<g id="a_Node000002"><a xlink:href="applications_2lyrat__board__app_2main_2audio__amp__main_8c.html#a11a7e6affe758e24d45f22bade3f7ac3" target="_top" xlink:title=" ">
<polygon fill="white" stroke="#666666" points="238.62,-134 151.38,-134 151.38,-114 238.62,-114 238.62,-134"/>
<text xml:space="preserve" text-anchor="middle" x="195" y="-120.5" font-family="Helvetica,sans-Serif" font-size="10.00">audio_read_task</text>
</a>
</g>
</g>
<!-- Node1&#45;&gt;Node2 -->
<g id="edge1_Node000001_Node000002" class="edge">
<title>Node1&#45;&gt;Node2</title>
<g id="a_edge1_Node000001_Node000002"><a xlink:title=" ">
<path fill="none" stroke="#63b8ff" d="M78.45,-77.45C100.69,-86.41 132.97,-99.41 157.75,-109.4"/>
<polygon fill="#63b8ff" stroke="#63b8ff" points="156.22,-112.56 166.81,-113.05 158.84,-106.06 156.22,-112.56"/>
</a>
</g>
</g>
<!-- Node7 -->
<g id="Node000007" class="node">
<title>Node7</title>
<g id="a_Node000007"><a xlink:href="applications_2lyrat__board__app_2main_2audio__amp__main_8c.html#a9b37162177a4acfc9abcc52ca620736c" target="_top" xlink:title=" ">
<polygon fill="white" stroke="#666666" points="251,-58 139,-58 139,-38 251,-38 251,-58"/>
<text xml:space="preserve" text-anchor="middle" x="195" y="-44.5" font-family="Helvetica,sans-Serif" font-size="10.00">buttons_process_task</text>
</a>
</g>
</g>
<!-- Node1&#45;&gt;Node7 -->
<g id="edge6_Node000001_Node000007" class="edge">
<title>Node1&#45;&gt;Node7</title>
<g id="a_edge6_Node000001_Node000007"><a xlink:title=" ">
<path fill="none" stroke="#63b8ff" d="M103.19,-60.19C111.14,-59.13 119.47,-58.01 127.72,-56.9"/>
<polygon fill="#63b8ff" stroke="#63b8ff" points="127.93,-60.4 137.38,-55.6 127,-53.47 127.93,-60.4"/>
</a>
</g>
</g>
<!-- Node8 -->
<g id="Node000008" class="node">
<title>Node8</title>
<g id="a_Node000008"><a xlink:href="dsps__biquad__gen__f32_8c.html#aff286789300a4805e9d133099144ef3e" target="_top" xlink:title="high shelf IIR filter coefficients">
<polygon fill="white" stroke="#666666" points="443.25,-58 287,-58 287,-38 443.25,-38 443.25,-58"/>
<text xml:space="preserve" text-anchor="middle" x="365.12" y="-44.5" font-family="Helvetica,sans-Serif" font-size="10.00">dsps_biquad_gen_highShelf_f32</text>
</a>
</g>
</g>
<!-- Node1&#45;&gt;Node8 -->
<g id="edge9_Node000001_Node000008" class="edge">
<title>Node1&#45;&gt;Node8</title>
<g id="a_edge9_Node000001_Node000008"><a xlink:title=" ">
<path fill="none" stroke="#63b8ff" d="M103.18,-69.32C143.35,-70.59 200.86,-71.18 251,-67 267.53,-65.62 285.27,-63.13 301.7,-60.39"/>
<polygon fill="#63b8ff" stroke="#63b8ff" points="302.07,-63.88 311.33,-58.73 300.88,-56.98 302.07,-63.88"/>
</a>
</g>
</g>
<!-- Node9 -->
<g id="Node000009" class="node">
<title>Node9</title>
<g id="a_Node000009"><a xlink:href="dsps__biquad__gen__f32_8c.html#ab6bcec3856bdd4d742ab98f6431903e2" target="_top" xlink:title="low shelf IIR filter coefficients">
<polygon fill="white" stroke="#666666" points="441.75,-20 288.5,-20 288.5,0 441.75,0 441.75,-20"/>
<text xml:space="preserve" text-anchor="middle" x="365.12" y="-6.5" font-family="Helvetica,sans-Serif" font-size="10.00">dsps_biquad_gen_lowShelf_f32</text>
</a>
</g>
</g>
<!-- Node1&#45;&gt;Node9 -->
<g id="edge10_Node000001_Node000009" class="edge">
<title>Node1&#45;&gt;Node9</title>
<g id="a_edge10_Node000001_Node000009"><a xlink:title=" ">
<path fill="none" stroke="#63b8ff" d="M71.09,-56.67C88.19,-47.71 114.52,-35.23 139,-29 183.57,-17.66 234.54,-12.73 276.69,-10.7"/>
<polygon fill="#63b8ff" stroke="#63b8ff" points="276.7,-14.21 286.54,-10.28 276.4,-7.21 276.7,-14.21"/>
</a>
</g>
</g>
<!-- Node3 -->
<g id="Node000003" class="node">
<title>Node3</title>
<g id="a_Node000003"><a xlink:href="applications_2lyrat__board__app_2main_2audio__amp__main_8c.html#ae8bef2245ac9fb55d56a7af6c4b5fe5d" target="_top" xlink:title=" ">
<polygon fill="white" stroke="#666666" points="414.75,-210 315.5,-210 315.5,-190 414.75,-190 414.75,-210"/>
<text xml:space="preserve" text-anchor="middle" x="365.12" y="-196.5" font-family="Helvetica,sans-Serif" font-size="10.00">convert_float2short</text>
</a>
</g>
</g>
<!-- Node2&#45;&gt;Node3 -->
<g id="edge2_Node000002_Node000003" class="edge">
<title>Node2&#45;&gt;Node3</title>
<g id="a_edge2_Node000002_Node000003"><a xlink:title=" ">
<path fill="none" stroke="#63b8ff" d="M209.43,-134.35C226.54,-147.06 257.47,-168.5 287,-181 292.56,-183.35 298.46,-185.46 304.44,-187.33"/>
<polygon fill="#63b8ff" stroke="#63b8ff" points="303.19,-190.61 313.77,-190.03 305.14,-183.88 303.19,-190.61"/>
</a>
</g>
</g>
<!-- Node4 -->
<g id="Node000004" class="node">
<title>Node4</title>
<g id="a_Node000004"><a xlink:href="applications_2lyrat__board__app_2main_2audio__amp__main_8c.html#aedfa0ee2b0d2e41a702707315faa5e10" target="_top" xlink:title=" ">
<polygon fill="white" stroke="#666666" points="414.75,-172 315.5,-172 315.5,-152 414.75,-152 414.75,-172"/>
<text xml:space="preserve" text-anchor="middle" x="365.12" y="-158.5" font-family="Helvetica,sans-Serif" font-size="10.00">convert_short2float</text>
</a>
</g>
</g>
<!-- Node2&#45;&gt;Node4 -->
<g id="edge3_Node000002_Node000004" class="edge">
<title>Node2&#45;&gt;Node4</title>
<g id="a_edge3_Node000002_Node000004"><a xlink:title=" ">
<path fill="none" stroke="#63b8ff" d="M238.86,-133.69C259.5,-138.35 284.54,-144.01 306.8,-149.04"/>
<polygon fill="#63b8ff" stroke="#63b8ff" points="305.8,-152.41 316.33,-151.2 307.34,-145.58 305.8,-152.41"/>
</a>
</g>
</g>
<!-- Node5 -->
<g id="Node000005" class="node">
<title>Node5</title>
<g id="a_Node000005"><a xlink:href="applications_2lyrat__board__app_2main_2audio__amp__main_8c.html#a021b7404dd661c25c3fba8503b22d2d7" target="_top" xlink:title=" ">
<polygon fill="white" stroke="#666666" points="400.5,-134 329.75,-134 329.75,-114 400.5,-114 400.5,-134"/>
<text xml:space="preserve" text-anchor="middle" x="365.12" y="-120.5" font-family="Helvetica,sans-Serif" font-size="10.00">digitalLimiter</text>
</a>
</g>
</g>
<!-- Node2&#45;&gt;Node5 -->
<g id="edge4_Node000002_Node000005" class="edge">
<title>Node2&#45;&gt;Node5</title>
<g id="a_edge4_Node000002_Node000005"><a xlink:title=" ">
<path fill="none" stroke="#63b8ff" d="M238.86,-124C263.05,-124 293.28,-124 317.99,-124"/>
<polygon fill="#63b8ff" stroke="#63b8ff" points="317.75,-127.5 327.75,-124 317.75,-120.5 317.75,-127.5"/>
</a>
</g>
</g>
<!-- Node6 -->
<g id="Node000006" class="node">
<title>Node6</title>
<g id="a_Node000006"><a xlink:href="dsps__mulc__f32__ansi_8c.html#a60b32e0d6ff107c7ff8307e2ff612c84" target="_top" xlink:title="multiply constant">
<polygon fill="white" stroke="#666666" points="417.75,-96 312.5,-96 312.5,-76 417.75,-76 417.75,-96"/>
<text xml:space="preserve" text-anchor="middle" x="365.12" y="-82.5" font-family="Helvetica,sans-Serif" font-size="10.00">dsps_mulc_f32_ansi</text>
</a>
</g>
</g>
<!-- Node2&#45;&gt;Node6 -->
<g id="edge5_Node000002_Node000006" class="edge">
<title>Node2&#45;&gt;Node6</title>
<g id="a_edge5_Node000002_Node000006"><a xlink:title=" ">
<path fill="none" stroke="#63b8ff" d="M238.86,-114.31C259.5,-109.65 284.54,-103.99 306.8,-98.96"/>
<polygon fill="#63b8ff" stroke="#63b8ff" points="307.34,-102.42 316.33,-96.8 305.8,-95.59 307.34,-102.42"/>
</a>
</g>
</g>
<!-- Node7&#45;&gt;Node8 -->
<g id="edge7_Node000007_Node000008" class="edge">
<title>Node7&#45;&gt;Node8</title>
<g id="a_edge7_Node000007_Node000008"><a xlink:title=" ">
<path fill="none" stroke="#63b8ff" d="M251.05,-48C258.89,-48 267.1,-48 275.38,-48"/>
<polygon fill="#63b8ff" stroke="#63b8ff" points="275.17,-51.5 285.17,-48 275.17,-44.5 275.17,-51.5"/>
</a>
</g>
</g>
<!-- Node7&#45;&gt;Node9 -->
<g id="edge8_Node000007_Node000009" class="edge">
<title>Node7&#45;&gt;Node9</title>
<g id="a_edge8_Node000007_Node000009"><a xlink:title=" ">
<path fill="none" stroke="#63b8ff" d="M242.39,-37.52C262.32,-33.01 285.83,-27.7 306.84,-22.95"/>
<polygon fill="#63b8ff" stroke="#63b8ff" points="307.43,-26.4 316.41,-20.78 305.89,-19.57 307.43,-26.4"/>
</a>
</g>
</g>
</g>
</svg>
