<?xml version="1.0" encoding="UTF-8" standalone="no"?>
<!DOCTYPE svg PUBLIC "-//W3C//DTD SVG 1.1//EN"
 "http://www.w3.org/Graphics/SVG/1.1/DTD/svg11.dtd">
<!-- Generated by graphviz version 14.1.2 (20260124.0452)
 -->
<!-- Title: app_main Pages: 1 -->
<svg width="545pt" height="218pt"
 viewBox="0.00 0.00 545.00 218.00" xmlns="http://www.w3.org/2000/svg" xmlns:xlink="http://www.w3.org/1999/xlink">
<g id="graph0" class="graph" transform="scale(1 1) rotate(0) translate(4 214)">
<title>app_main</title>
<!-- Node1 -->
<g id="Node000001" class="node">
<title>Node1</title>
<g id="a_Node000001"><a xlink:title=" ">
<polygon fill="#999999" stroke="#666666" points="58,-58 0,-58 0,-38 58,-38 58,-58"/>
<text xml:space="preserve" text-anchor="middle" x="29" y="-44.5" font-family="Helvetica,sans-Serif" font-size="10.00">app_main</text>
</a>
</g>
</g>
<!-- Node2 -->
<g id="Node000002" class="node">
<title>Node2</title>
<g id="a_Node000002"><a xlink:href="applications_2lyrat__board__app_2main_2audio__amp__main_8c.html#ab091c1cbf0cdee1a9e75495e68236ab6" target="_top" xlink:title=" ">
<polygon fill="white" stroke="#666666" points="197,-77 94,-77 94,-57 197,-57 197,-77"/>
<text xml:space="preserve" text-anchor="middle" x="145.5" y="-63.5" font-family="Helvetica,sans-Serif" font-size="10.00">audio_process_task</text>
</a>
</g>
</g>
<!-- Node1&#45;&gt;Node2 -->
<g id="edge1_Node000001_Node000002" class="edge">
<title>Node1&#45;&gt;Node2</title>
<g id="a_edge1_Node000001_Node000002"><a xlink:title=" ">
<path fill="none" stroke="#63b8ff" d="M58.3,-52.7C65.76,-53.93 74.11,-55.32 82.6,-56.73"/>
<polygon fill="#63b8ff" stroke="#63b8ff" points="81.84,-60.15 92.28,-58.33 82.99,-53.24 81.84,-60.15"/>
</a>
</g>
</g>
<!-- Node11 -->
<g id="Node000011" class="node">
<title>Node11</title>
<g id="a_Node000011"><a xlink:href="applications_2lyrat__board__app_2main_2audio__amp__main_8c.html#a562facc4884e8a7bb96fe161d64a12da" target="_top" xlink:title=" ">
<polygon fill="white" stroke="#666666" points="178.62,-39 112.38,-39 112.38,-19 178.62,-19 178.62,-39"/>
<text xml:space="preserve" text-anchor="middle" x="145.5" y="-25.5" font-family="Helvetica,sans-Serif" font-size="10.00">btn_handler</text>
</a>
</g>
</g>
<!-- Node1&#45;&gt;Node11 -->
<g id="edge12_Node000001_Node000011" class="edge">
<title>Node1&#45;&gt;Node11</title>
<g id="a_edge12_Node000001_Node000011"><a xlink:title=" ">
<path fill="none" stroke="#63b8ff" d="M58.3,-43.3C71.16,-41.17 86.66,-38.6 100.94,-36.23"/>
<polygon fill="#63b8ff" stroke="#63b8ff" points="101.28,-39.72 110.58,-34.63 100.14,-32.81 101.28,-39.72"/>
</a>
</g>
</g>
<!-- Node3 -->
<g id="Node000003" class="node">
<title>Node3</title>
<g id="a_Node000003"><a xlink:href="applications_2lyrat__board__app_2main_2audio__amp__main_8c.html#a11a7e6affe758e24d45f22bade3f7ac3" target="_top" xlink:title=" ">
<polygon fill="white" stroke="#666666" points="332.62,-134 245.38,-134 245.38,-114 332.62,-114 332.62,-134"/>
<text xml:space="preserve" text-anchor="middle" x="289" y="-120.5" font-family="Helvetica,sans-Serif" font-size="10.00">audio_read_task</text>
</a>
</g>
</g>
<!-- Node2&#45;&gt;Node3 -->
<g id="edge2_Node000002_Node000003" class="edge">
<title>Node2&#45;&gt;Node3</title>
<g id="a_edge2_Node000002_Node000003"><a xlink:title=" ">
<path fill="none" stroke="#63b8ff" d="M172.45,-77.45C194.69,-86.41 226.97,-99.41 251.75,-109.4"/>
<polygon fill="#63b8ff" stroke="#63b8ff" points="250.22,-112.56 260.81,-113.05 252.84,-106.06 250.22,-112.56"/>
</a>
</g>
</g>
<!-- Node8 -->
<g id="Node000008" class="node">
<title>Node8</title>
<g id="a_Node000008"><a xlink:href="applications_2lyrat__board__app_2main_2audio__amp__main_8c.html#a9b37162177a4acfc9abcc52ca620736c" target="_top" xlink:title=" ">
<polygon fill="white" stroke="#666666" points="345,-58 233,-58 233,-38 345,-38 345,-58"/>
<text xml:space="preserve" text-anchor="middle" x="289" y="-44.5" font-family="Helvetica,sans-Serif" font-size="10.00">buttons_process_task</text>
</a>
</g>
</g>
<!-- Node2&#45;&gt;Node8 -->
<g id="edge7_Node000002_Node000008" class="edge">
<title>Node2&#45;&gt;Node8</title>
<g id="a_edge7_Node000002_Node000008"><a xlink:title=" ">
<path fill="none" stroke="#63b8ff" d="M197.19,-60.19C205.14,-59.13 213.47,-58.01 221.72,-56.9"/>
<polygon fill="#63b8ff" stroke="#63b8ff" points="221.93,-60.4 231.38,-55.6 221,-53.47 221.93,-60.4"/>
</a>
</g>
</g>
<!-- Node9 -->
<g id="Node000009" class="node">
<title>Node9</title>
<g id="a_Node000009"><a xlink:href="dsps__biquad__gen__f32_8c.html#aff286789300a4805e9d133099144ef3e" target="_top" xlink:title="high shelf IIR filter coefficients">
<polygon fill="white" stroke="#666666" points="537.25,-58 381,-58 381,-38 537.25,-38 537.25,-58"/>
<text xml:space="preserve" text-anchor="middle" x="459.12" y="-44.5" font-family="Helvetica,sans-Serif" font-size="10.00">dsps_biquad_gen_highShelf_f32</text>
</a>
</g>
</g>
<!-- Node2&#45;&gt;Node9 -->
<g id="edge10_Node000002_Node000009" class="edge">
<title>Node2&#45;&gt;Node9</title>
<g id="a_edge10_Node000002_Node000009"><a xlink:title=" ">
<path fill="none" stroke="#63b8ff" d="M197.18,-69.32C237.35,-70.59 294.86,-71.18 345,-67 361.53,-65.62 379.27,-63.13 395.7,-60.39"/>
<polygon fill="#63b8ff" stroke="#63b8ff" points="396.07,-63.88 405.33,-58.73 394.88,-56.98 396.07,-63.88"/>
</a>
</g>
</g>
<!-- Node10 -->
<g id="Node000010" class="node">
<title>Node10</title>
<g id="a_Node000010"><a xlink:href="dsps__biquad__gen__f32_8c.html#ab6bcec3856bdd4d742ab98f6431903e2" target="_top" xlink:title="low shelf IIR filter coefficients">
<polygon fill="white" stroke="#666666" points="535.75,-20 382.5,-20 382.5,0 535.75,0 535.75,-20"/>
<text xml:space="preserve" text-anchor="middle" x="459.12" y="-6.5" font-family="Helvetica,sans-Serif" font-size="10.00">dsps_biquad_gen_lowShelf_f32</text>
</a>
</g>
</g>
<!-- Node2&#45;&gt;Node10 -->
<g id="edge11_Node000002_Node000010" class="edge">
<title>Node2&#45;&gt;Node10</title>
<g id="a_edge11_Node000002_Node000010"><a xlink:title=" ">
<path fill="none" stroke="#63b8ff" d="M176.13,-56.56C183.05,-53.93 190.34,-51 197,-48 213.5,-40.58 215.64,-34.09 233,-29 277.31,-16.02 328.46,-10.96 370.81,-9.28"/>
<polygon fill="#63b8ff" stroke="#63b8ff" points="370.83,-12.78 380.7,-8.95 370.59,-5.79 370.83,-12.78"/>
</a>
</g>
</g>
<!-- Node4 -->
<g id="Node000004" class="node">
<title>Node4</title>
<g id="a_Node000004"><a xlink:href="applications_2lyrat__board__app_2main_2audio__amp__main_8c.html#ae8bef2245ac9fb55d56a7af6c4b5fe5d" target="_top" xlink:title=" ">
<polygon fill="white" stroke="#666666" points="508.75,-210 409.5,-210 409.5,-190 508.75,-190 508.75,-210"/>
<text xml:space="preserve" text-anchor="middle" x="459.12" y="-196.5" font-family="Helvetica,sans-Serif" font-size="10.00">convert_float2short</text>
</a>
</g>
</g>
<!-- Node3&#45;&gt;Node4 -->
<g id="edge3_Node000003_Node000004" class="edge">
<title>Node3&#45;&gt;Node4</title>
<g id="a_edge3_Node000003_Node000004"><a xlink:title=" ">
<path fill="none" stroke="#63b8ff" d="M303.43,-134.35C320.54,-147.06 351.47,-168.5 381,-181 386.56,-183.35 392.46,-185.46 398.44,-187.33"/>
<polygon fill="#63b8ff" stroke="#63b8ff" points="397.19,-190.61 407.77,-190.03 399.14,-183.88 397.19,-190.61"/>
</a>
</g>
</g>
<!-- Node5 -->
<g id="Node000005" class="node">
<title>Node5</title>
<g id="a_Node000005"><a xlink:href="applications_2lyrat__board__app_2main_2audio__amp__main_8c.html#aedfa0ee2b0d2e41a702707315faa5e10" target="_top" xlink:title=" ">
<polygon fill="white" stroke="#666666" points="508.75,-172 409.5,-172 409.5,-152 508.75,-152 508.75,-172"/>
<text xml:space="preserve" text-anchor="middle" x="459.12" y="-158.5" font-family="Helvetica,sans-Serif" font-size="10.00">convert_short2float</text>
</a>
</g>
</g>
<!-- Node3&#45;&gt;Node5 -->
<g id="edge4_Node000003_Node000005" class="edge">
<title>Node3&#45;&gt;Node5</title>
<g id="a_edge4_Node000003_Node000005"><a xlink:title=" ">
<path fill="none" stroke="#63b8ff" d="M332.86,-133.69C353.5,-138.35 378.54,-144.01 400.8,-149.04"/>
<polygon fill="#63b8ff" stroke="#63b8ff" points="399.8,-152.41 410.33,-151.2 401.34,-145.58 399.8,-152.41"/>
</a>
</g>
</g>
<!-- Node6 -->
<g id="Node000006" class="node">
<title>Node6</title>
<g id="a_Node000006"><a xlink:href="applications_2lyrat__board__app_2main_2audio__amp__main_8c.html#a021b7404dd661c25c3fba8503b22d2d7" target="_top" xlink:title=" ">
<polygon fill="white" stroke="#666666" points="494.5,-134 423.75,-134 423.75,-114 494.5,-114 494.5,-134"/>
<text xml:space="preserve" text-anchor="middle" x="459.12" y="-120.5" font-family="Helvetica,sans-Serif" font-size="10.00">digitalLimiter</text>
</a>
</g>
</g>
<!-- Node3&#45;&gt;Node6 -->
<g id="edge5_Node000003_Node000006" class="edge">
<title>Node3&#45;&gt;Node6</title>
<g id="a_edge5_Node000003_Node000006"><a xlink:title=" ">
<path fill="none" stroke="#63b8ff" d="M332.86,-124C357.05,-124 387.28,-124 411.99,-124"/>
<polygon fill="#63b8ff" stroke="#63b8ff" points="411.75,-127.5 421.75,-124 411.75,-120.5 411.75,-127.5"/>
</a>
</g>
</g>
<!-- Node7 -->
<g id="Node000007" class="node">
<title>Node7</title>
<g id="a_Node000007"><a xlink:href="dsps__mulc__f32__ansi_8c.html#a60b32e0d6ff107c7ff8307e2ff612c84" target="_top" xlink:title="multiply constant">
<polygon fill="white" stroke="#666666" points="511.75,-96 406.5,-96 406.5,-76 511.75,-76 511.75,-96"/>
<text xml:space="preserve" text-anchor="middle" x="459.12" y="-82.5" font-family="Helvetica,sans-Serif" font-size="10.00">dsps_mulc_f32_ansi</text>
</a>
</g>
</g>
<!-- Node3&#45;&gt;Node7 -->
<g id="edge6_Node000003_Node000007" class="edge">
<title>Node3&#45;&gt;Node7</title>
<g id="a_edge6_Node000003_Node000007"><a xlink:title=" ">
<path fill="none" stroke="#63b8ff" d="M332.86,-114.31C353.5,-109.65 378.54,-103.99 400.8,-98.96"/>
<polygon fill="#63b8ff" stroke="#63b8ff" points="401.34,-102.42 410.33,-96.8 399.8,-95.59 401.34,-102.42"/>
</a>
</g>
</g>
<!-- Node8&#45;&gt;Node9 -->
<g id="edge8_Node000008_Node000009" class="edge">
<title>Node8&#45;&gt;Node9</title>
<g id="a_edge8_Node000008_Node000009"><a xlink:title=" ">
<path fill="none" stroke="#63b8ff" d="M345.05,-48C352.89,-48 361.1,-48 369.38,-48"/>
<polygon fill="#63b8ff" stroke="#63b8ff" points="369.17,-51.5 379.17,-48 369.17,-44.5 369.17,-51.5"/>
</a>
</g>
</g>
<!-- Node8&#45;&gt;Node10 -->
<g id="edge9_Node000008_Node000010" class="edge">
<title>Node8&#45;&gt;Node10</title>
<g id="a_edge9_Node000008_Node000010"><a xlink:title=" ">
<path fill="none" stroke="#63b8ff" d="M336.39,-37.52C356.32,-33.01 379.83,-27.7 400.84,-22.95"/>
<polygon fill="#63b8ff" stroke="#63b8ff" points="401.43,-26.4 410.41,-20.78 399.89,-19.57 401.43,-26.4"/>
</a>
</g>
</g>
</g>
</svg>
