<?xml version="1.0" encoding="UTF-8" standalone="no"?>
<!DOCTYPE svg PUBLIC "-//W3C//DTD SVG 1.1//EN"
 "http://www.w3.org/Graphics/SVG/1.1/DTD/svg11.dtd">
<!-- Generated by graphviz version 14.1.2 (20260124.0452)
 -->
<!-- Title: led_strip_rmt.h Pages: 1 -->
<svg width="527pt" height="140pt"
 viewBox="0.00 0.00 527.00 140.00" xmlns="http://www.w3.org/2000/svg" xmlns:xlink="http://www.w3.org/1999/xlink">
<g id="graph0" class="graph" transform="scale(1 1) rotate(0) translate(4 136)">
<title>led_strip_rmt.h</title>
<!-- Node1 -->
<g id="Node000001" class="node">
<title>Node1</title>
<g id="a_Node000001"><a xlink:title=" ">
<polygon fill="#999999" stroke="#666666" points="317.75,-132 237.25,-132 237.25,-112 317.75,-112 317.75,-132"/>
<text xml:space="preserve" text-anchor="middle" x="277.5" y="-118.5" font-family="Helvetica,sans-Serif" font-size="10.00">led_strip_rmt.h</text>
</a>
</g>
</g>
<!-- Node2 -->
<g id="Node000002" class="node">
<title>Node2</title>
<g id="a_Node000002"><a xlink:href="led__strip_8h.html" target="_top" xlink:title=" ">
<polygon fill="white" stroke="#666666" points="308,-76 247,-76 247,-56 308,-56 308,-76"/>
<text xml:space="preserve" text-anchor="middle" x="277.5" y="-62.5" font-family="Helvetica,sans-Serif" font-size="10.00">led_strip.h</text>
</a>
</g>
</g>
<!-- Node1&#45;&gt;Node2 -->
<g id="edge1_Node000001_Node000002" class="edge">
<title>Node1&#45;&gt;Node2</title>
<g id="a_edge1_Node000001_Node000002"><a xlink:title=" ">
<path fill="none" stroke="#63b8ff" d="M277.5,-100.13C277.5,-91.9 277.5,-82.85 277.5,-76.3"/>
<polygon fill="#63b8ff" stroke="#63b8ff" points="274,-100.08 277.5,-110.08 281,-100.08 274,-100.08"/>
</a>
</g>
</g>
<!-- Node3 -->
<g id="Node000003" class="node">
<title>Node3</title>
<g id="a_Node000003"><a xlink:href="led__strip__api_8c.html" target="_top" xlink:title=" ">
<polygon fill="white" stroke="#666666" points="79,-20 0,-20 0,0 79,0 79,-20"/>
<text xml:space="preserve" text-anchor="middle" x="39.5" y="-6.5" font-family="Helvetica,sans-Serif" font-size="10.00">led_strip_api.c</text>
</a>
</g>
</g>
<!-- Node2&#45;&gt;Node3 -->
<g id="edge2_Node000002_Node000003" class="edge">
<title>Node2&#45;&gt;Node3</title>
<g id="a_edge2_Node000002_Node000003"><a xlink:title=" ">
<path fill="none" stroke="#63b8ff" d="M235.67,-55.51C191.51,-45.49 122.42,-29.81 79.12,-19.99"/>
<polygon fill="#63b8ff" stroke="#63b8ff" points="234.87,-58.92 245.4,-57.72 236.42,-52.09 234.87,-58.92"/>
</a>
</g>
</g>
<!-- Node4 -->
<g id="Node000004" class="node">
<title>Node4</title>
<g id="a_Node000004"><a xlink:href="led__strip__rmt__dev_8c.html" target="_top" xlink:title=" ">
<polygon fill="white" stroke="#666666" points="197.88,-20 97.12,-20 97.12,0 197.88,0 197.88,-20"/>
<text xml:space="preserve" text-anchor="middle" x="147.5" y="-6.5" font-family="Helvetica,sans-Serif" font-size="10.00">led_strip_rmt_dev.c</text>
</a>
</g>
</g>
<!-- Node2&#45;&gt;Node4 -->
<g id="edge3_Node000002_Node000004" class="edge">
<title>Node2&#45;&gt;Node4</title>
<g id="a_edge3_Node000002_Node000004"><a xlink:title=" ">
<path fill="none" stroke="#63b8ff" d="M244.45,-51.27C221.26,-41.64 190.85,-29.01 170.32,-20.48"/>
<polygon fill="#63b8ff" stroke="#63b8ff" points="242.88,-54.41 253.46,-55.01 245.57,-47.94 242.88,-54.41"/>
</a>
</g>
</g>
<!-- Node5 -->
<g id="Node000005" class="node">
<title>Node5</title>
<g id="a_Node000005"><a xlink:href="led__strip__rmt__dev__idf4_8c.html" target="_top" xlink:title=" ">
<polygon fill="white" stroke="#666666" points="338.75,-20 216.25,-20 216.25,0 338.75,0 338.75,-20"/>
<text xml:space="preserve" text-anchor="middle" x="277.5" y="-6.5" font-family="Helvetica,sans-Serif" font-size="10.00">led_strip_rmt_dev_idf4.c</text>
</a>
</g>
</g>
<!-- Node2&#45;&gt;Node5 -->
<g id="edge4_Node000002_Node000005" class="edge">
<title>Node2&#45;&gt;Node5</title>
<g id="a_edge4_Node000002_Node000005"><a xlink:title=" ">
<path fill="none" stroke="#63b8ff" d="M277.5,-44.13C277.5,-35.9 277.5,-26.85 277.5,-20.3"/>
<polygon fill="#63b8ff" stroke="#63b8ff" points="274,-44.08 277.5,-54.08 281,-44.08 274,-44.08"/>
</a>
</g>
</g>
<!-- Node6 -->
<g id="Node000006" class="node">
<title>Node6</title>
<g id="a_Node000006"><a xlink:href="led__strip__spi__dev_8c.html" target="_top" xlink:title=" ">
<polygon fill="white" stroke="#666666" points="456.12,-20 356.88,-20 356.88,0 456.12,0 456.12,-20"/>
<text xml:space="preserve" text-anchor="middle" x="406.5" y="-6.5" font-family="Helvetica,sans-Serif" font-size="10.00">led_strip_spi_dev.c</text>
</a>
</g>
</g>
<!-- Node2&#45;&gt;Node6 -->
<g id="edge5_Node000002_Node000006" class="edge">
<title>Node2&#45;&gt;Node6</title>
<g id="a_edge5_Node000002_Node000006"><a xlink:title=" ">
<path fill="none" stroke="#63b8ff" d="M310.3,-51.27C333.31,-41.64 363.48,-29.01 383.85,-20.48"/>
<polygon fill="#63b8ff" stroke="#63b8ff" points="309.24,-47.92 301.37,-55.01 311.94,-54.38 309.24,-47.92"/>
</a>
</g>
</g>
<!-- Node7 -->
<g id="Node000007" class="node">
<title>Node7</title>
<g id="a_Node000007"><a xlink:href="main_2main_8c.html" target="_top" xlink:title=" ">
<polygon fill="white" stroke="#666666" points="519.12,-20 473.88,-20 473.88,0 519.12,0 519.12,-20"/>
<text xml:space="preserve" text-anchor="middle" x="496.5" y="-6.5" font-family="Helvetica,sans-Serif" font-size="10.00">main.c</text>
</a>
</g>
</g>
<!-- Node2&#45;&gt;Node7 -->
<g id="edge6_Node000002_Node000007" class="edge">
<title>Node2&#45;&gt;Node7</title>
<g id="a_edge6_Node000002_Node000007"><a xlink:title=" ">
<path fill="none" stroke="#63b8ff" d="M319.41,-55.57C357.61,-46.83 415.52,-33.23 465.5,-20 468.1,-19.31 470.82,-18.57 473.51,-17.81"/>
<polygon fill="#63b8ff" stroke="#63b8ff" points="318.67,-52.15 309.7,-57.78 320.23,-58.97 318.67,-52.15"/>
</a>
</g>
</g>
</g>
</svg>
