<?xml version="1.0" encoding="UTF-8" standalone="no"?>
<!DOCTYPE svg PUBLIC "-//W3C//DTD SVG 1.1//EN"
 "http://www.w3.org/Graphics/SVG/1.1/DTD/svg11.dtd">
<!-- Generated by graphviz version 14.1.2 (20260124.0452)
 -->
<!-- Title: led_strip_rmt.h Pages: 1 -->
<svg width="412pt" height="140pt"
 viewBox="0.00 0.00 412.00 140.00" xmlns="http://www.w3.org/2000/svg" xmlns:xlink="http://www.w3.org/1999/xlink">

<svg id="main" version="1.1" xmlns="http://www.w3.org/2000/svg" xmlns:xlink="http://www.w3.org/1999/xlink" xml:space="preserve">

<style type="text/css"><![CDATA[
.node, .edge {opacity: 0.7;}
.node.selected, .edge.selected {opacity: 1;}
.edge:hover path { stroke: red; }
.edge:hover polygon { stroke: red; fill: red; }
]]></style>
<script type="application/ecmascript" xlink:href="svg.min.js"/>
<svg id="graph" class="graph">
<g id="graph0" class="graph" transform="scale(1 1) rotate(0) translate(4 136)">
<title>led_strip_rmt.h</title>
<!-- Node1 -->
<g id="Node000001" class="node">
<title>Node1</title>
<g id="a_Node000001"><a xlink:title=" ">
<polygon fill="#999999" stroke="#666666" points="191.38,-132 110.88,-132 110.88,-112 191.38,-112 191.38,-132"/>
<text xml:space="preserve" text-anchor="middle" x="151.12" y="-118.5" font-family="Helvetica,sans-Serif" font-size="10.00">led_strip_rmt.h</text>
</a>
</g>
</g>
<!-- Node2 -->
<g id="Node000002" class="node">
<title>Node2</title>
<g id="a_Node000002"><a xlink:title=" ">
<polygon fill="#e0e0e0" stroke="#999999" points="48.25,-20 0,-20 0,0 48.25,0 48.25,-20"/>
<text xml:space="preserve" text-anchor="middle" x="24.12" y="-6.5" font-family="Helvetica,sans-Serif" font-size="10.00">stdint.h</text>
</a>
</g>
</g>
<!-- Node1&#45;&gt;Node2 -->
<g id="edge1_Node000001_Node000002" class="edge">
<title>Node1&#45;&gt;Node2</title>
<g id="a_edge1_Node000001_Node000002"><a xlink:title=" ">
<path fill="none" stroke="#63b8ff" d="M110.54,-120.72C76.55,-118.07 29.89,-108.26 6.12,-76 -3.84,-62.48 3.02,-43.7 10.97,-29.81"/>
<polygon fill="#63b8ff" stroke="#63b8ff" points="13.79,-31.89 16.19,-21.58 7.88,-28.14 13.79,-31.89"/>
</a>
</g>
</g>
<!-- Node3 -->
<g id="Node000003" class="node">
<title>Node3</title>
<g id="a_Node000003"><a xlink:href="esp__err_8h.html" target="_top" xlink:title=" ">
<polygon fill="white" stroke="#666666" points="179.38,-76 122.88,-76 122.88,-56 179.38,-56 179.38,-76"/>
<text xml:space="preserve" text-anchor="middle" x="151.12" y="-62.5" font-family="Helvetica,sans-Serif" font-size="10.00">esp_err.h</text>
</a>
</g>
</g>
<!-- Node1&#45;&gt;Node3 -->
<g id="edge2_Node000001_Node000003" class="edge">
<title>Node1&#45;&gt;Node3</title>
<g id="a_edge2_Node000001_Node000003"><a xlink:title=" ">
<path fill="none" stroke="#63b8ff" d="M151.12,-111.59C151.12,-105.01 151.12,-95.96 151.12,-87.73"/>
<polygon fill="#63b8ff" stroke="#63b8ff" points="154.63,-87.81 151.13,-77.81 147.63,-87.81 154.63,-87.81"/>
</a>
</g>
</g>
<!-- Node5 -->
<g id="Node000005" class="node">
<title>Node5</title>
<g id="a_Node000005"><a xlink:href="led__strip__types_8h.html" target="_top" xlink:title=" ">
<polygon fill="white" stroke="#666666" points="105.25,-76 15,-76 15,-56 105.25,-56 105.25,-76"/>
<text xml:space="preserve" text-anchor="middle" x="60.12" y="-62.5" font-family="Helvetica,sans-Serif" font-size="10.00">led_strip_types.h</text>
</a>
</g>
</g>
<!-- Node1&#45;&gt;Node5 -->
<g id="edge4_Node000001_Node000005" class="edge">
<title>Node1&#45;&gt;Node5</title>
<g id="a_edge4_Node000001_Node000005"><a xlink:title=" ">
<path fill="none" stroke="#63b8ff" d="M135.27,-111.59C121.66,-103.51 101.76,-91.71 85.86,-82.27"/>
<polygon fill="#63b8ff" stroke="#63b8ff" points="87.79,-79.35 77.4,-77.25 84.22,-85.37 87.79,-79.35"/>
</a>
</g>
</g>
<!-- Node6 -->
<g id="Node000006" class="node">
<title>Node6</title>
<g id="a_Node000006"><a xlink:title=" ">
<polygon fill="#e0e0e0" stroke="#999999" points="290.38,-76 197.88,-76 197.88,-56 290.38,-56 290.38,-76"/>
<text xml:space="preserve" text-anchor="middle" x="244.12" y="-62.5" font-family="Helvetica,sans-Serif" font-size="10.00">esp_idf_version.h</text>
</a>
</g>
</g>
<!-- Node1&#45;&gt;Node6 -->
<g id="edge6_Node000001_Node000006" class="edge">
<title>Node1&#45;&gt;Node6</title>
<g id="a_edge6_Node000001_Node000006"><a xlink:title=" ">
<path fill="none" stroke="#63b8ff" d="M167.32,-111.59C181.37,-103.44 201.96,-91.48 218.28,-82"/>
<polygon fill="#63b8ff" stroke="#63b8ff" points="219.6,-85.29 226.49,-77.24 216.08,-79.23 219.6,-85.29"/>
</a>
</g>
</g>
<!-- Node7 -->
<g id="Node000007" class="node">
<title>Node7</title>
<g id="a_Node000007"><a xlink:title=" ">
<polygon fill="#e0e0e0" stroke="#999999" points="403.5,-76 308.75,-76 308.75,-56 403.5,-56 403.5,-76"/>
<text xml:space="preserve" text-anchor="middle" x="356.12" y="-62.5" font-family="Helvetica,sans-Serif" font-size="10.00">driver/rmt_types.h</text>
</a>
</g>
</g>
<!-- Node1&#45;&gt;Node7 -->
<g id="edge7_Node000001_Node000007" class="edge">
<title>Node1&#45;&gt;Node7</title>
<g id="a_edge7_Node000001_Node000007"><a xlink:title=" ">
<path fill="none" stroke="#63b8ff" d="M186.83,-111.59C220.72,-102.67 271.87,-89.19 309.07,-79.39"/>
<polygon fill="#63b8ff" stroke="#63b8ff" points="309.9,-82.8 318.67,-76.87 308.11,-76.03 309.9,-82.8"/>
</a>
</g>
</g>
<!-- Node4 -->
<g id="Node000004" class="node">
<title>Node4</title>
<g id="a_Node000004"><a xlink:title=" ">
<polygon fill="#e0e0e0" stroke="#999999" points="174.88,-20 127.38,-20 127.38,0 174.88,0 174.88,-20"/>
<text xml:space="preserve" text-anchor="middle" x="151.12" y="-6.5" font-family="Helvetica,sans-Serif" font-size="10.00">stdlib.h</text>
</a>
</g>
</g>
<!-- Node3&#45;&gt;Node4 -->
<g id="edge3_Node000003_Node000004" class="edge">
<title>Node3&#45;&gt;Node4</title>
<g id="a_edge3_Node000003_Node000004"><a xlink:title=" ">
<path fill="none" stroke="#63b8ff" d="M151.12,-55.59C151.12,-49.01 151.12,-39.96 151.12,-31.73"/>
<polygon fill="#63b8ff" stroke="#63b8ff" points="154.63,-31.81 151.13,-21.81 147.63,-31.81 154.63,-31.81"/>
</a>
</g>
</g>
<!-- Node5&#45;&gt;Node2 -->
<g id="edge5_Node000005_Node000002" class="edge">
<title>Node5&#45;&gt;Node2</title>
<g id="a_edge5_Node000005_Node000002"><a xlink:title=" ">
<path fill="none" stroke="#63b8ff" d="M53.85,-55.59C49.11,-48.47 42.43,-38.45 36.6,-29.72"/>
<polygon fill="#63b8ff" stroke="#63b8ff" points="39.62,-27.94 31.16,-21.56 33.8,-31.82 39.62,-27.94"/>
</a>
</g>
</g>
</g>
</svg>
</svg>

<style type='text/css'>
<![CDATA[
[data-mouse-over-selected='false'] { opacity: 0.7; }
[data-mouse-over-selected='true']  { opacity: 1.0; }
]]>
</style>
<script type="application/ecmascript"><![CDATA[
document.addEventListener('DOMContentLoaded', (event) => {
  highlightEdges();
  highlightAdjacentNodes();
});
]]></script>
</svg>
