<?xml version="1.0" encoding="UTF-8" standalone="no"?>
<!DOCTYPE svg PUBLIC "-//W3C//DTD SVG 1.1//EN"
 "http://www.w3.org/Graphics/SVG/1.1/DTD/svg11.dtd">
<!-- Generated by graphviz version 14.1.2 (20260124.0452)
 -->
<!-- Title: led_strip_interface.h Pages: 1 -->
<svg width="464pt" height="84pt"
 viewBox="0.00 0.00 464.00 84.00" xmlns="http://www.w3.org/2000/svg" xmlns:xlink="http://www.w3.org/1999/xlink">

<svg id="main" version="1.1" xmlns="http://www.w3.org/2000/svg" xmlns:xlink="http://www.w3.org/1999/xlink" xml:space="preserve">

<style type="text/css"><![CDATA[
.node, .edge {opacity: 0.7;}
.node.selected, .edge.selected {opacity: 1;}
.edge:hover path { stroke: red; }
.edge:hover polygon { stroke: red; fill: red; }
]]></style>
<script type="application/ecmascript" xlink:href="svg.min.js"/>
<svg id="graph" class="graph">
<g id="graph0" class="graph" transform="scale(1 1) rotate(0) translate(4 80)">
<title>led_strip_interface.h</title>
<!-- Node1 -->
<g id="Node000001" class="node">
<title>Node1</title>
<g id="a_Node000001"><a xlink:title=" ">
<polygon fill="#999999" stroke="#666666" points="264.38,-76 160.62,-76 160.62,-56 264.38,-56 264.38,-76"/>
<text xml:space="preserve" text-anchor="middle" x="212.5" y="-62.5" font-family="Helvetica,sans-Serif" font-size="10.00">led_strip_interface.h</text>
</a>
</g>
</g>
<!-- Node2 -->
<g id="Node000002" class="node">
<title>Node2</title>
<g id="a_Node000002"><a xlink:href="led__strip__api_8c.html" target="_top" xlink:title=" ">
<polygon fill="white" stroke="#666666" points="79,-20 0,-20 0,0 79,0 79,-20"/>
<text xml:space="preserve" text-anchor="middle" x="39.5" y="-6.5" font-family="Helvetica,sans-Serif" font-size="10.00">led_strip_api.c</text>
</a>
</g>
</g>
<!-- Node1&#45;&gt;Node2 -->
<g id="edge1_Node000001_Node000002" class="edge">
<title>Node1&#45;&gt;Node2</title>
<g id="a_edge1_Node000001_Node000002"><a xlink:title=" ">
<path fill="none" stroke="#63b8ff" d="M171.42,-52.18C140.24,-42.44 98.06,-29.28 69.87,-20.48"/>
<polygon fill="#63b8ff" stroke="#63b8ff" points="170.33,-55.5 180.92,-55.14 172.42,-48.82 170.33,-55.5"/>
</a>
</g>
</g>
<!-- Node3 -->
<g id="Node000003" class="node">
<title>Node3</title>
<g id="a_Node000003"><a xlink:href="led__strip__rmt__dev_8c.html" target="_top" xlink:title=" ">
<polygon fill="white" stroke="#666666" points="197.88,-20 97.12,-20 97.12,0 197.88,0 197.88,-20"/>
<text xml:space="preserve" text-anchor="middle" x="147.5" y="-6.5" font-family="Helvetica,sans-Serif" font-size="10.00">led_strip_rmt_dev.c</text>
</a>
</g>
</g>
<!-- Node1&#45;&gt;Node3 -->
<g id="edge2_Node000001_Node000003" class="edge">
<title>Node1&#45;&gt;Node3</title>
<g id="a_edge2_Node000001_Node000003"><a xlink:title=" ">
<path fill="none" stroke="#63b8ff" d="M192.52,-48.4C181.4,-39.17 167.97,-28.01 158.69,-20.3"/>
<polygon fill="#63b8ff" stroke="#63b8ff" points="190.09,-50.93 200.01,-54.63 194.56,-45.54 190.09,-50.93"/>
</a>
</g>
</g>
<!-- Node4 -->
<g id="Node000004" class="node">
<title>Node4</title>
<g id="a_Node000004"><a xlink:href="led__strip__rmt__dev__idf4_8c.html" target="_top" xlink:title=" ">
<polygon fill="white" stroke="#666666" points="338.75,-20 216.25,-20 216.25,0 338.75,0 338.75,-20"/>
<text xml:space="preserve" text-anchor="middle" x="277.5" y="-6.5" font-family="Helvetica,sans-Serif" font-size="10.00">led_strip_rmt_dev_idf4.c</text>
</a>
</g>
</g>
<!-- Node1&#45;&gt;Node4 -->
<g id="edge3_Node000001_Node000004" class="edge">
<title>Node1&#45;&gt;Node4</title>
<g id="a_edge3_Node000001_Node000004"><a xlink:title=" ">
<path fill="none" stroke="#63b8ff" d="M232.48,-48.4C243.6,-39.17 257.03,-28.01 266.31,-20.3"/>
<polygon fill="#63b8ff" stroke="#63b8ff" points="230.44,-45.54 224.99,-54.63 234.91,-50.93 230.44,-45.54"/>
</a>
</g>
</g>
<!-- Node5 -->
<g id="Node000005" class="node">
<title>Node5</title>
<g id="a_Node000005"><a xlink:href="led__strip__spi__dev_8c.html" target="_top" xlink:title=" ">
<polygon fill="white" stroke="#666666" points="456.12,-20 356.88,-20 356.88,0 456.12,0 456.12,-20"/>
<text xml:space="preserve" text-anchor="middle" x="406.5" y="-6.5" font-family="Helvetica,sans-Serif" font-size="10.00">led_strip_spi_dev.c</text>
</a>
</g>
</g>
<!-- Node1&#45;&gt;Node5 -->
<g id="edge4_Node000001_Node000005" class="edge">
<title>Node1&#45;&gt;Node5</title>
<g id="a_edge4_Node000001_Node000005"><a xlink:title=" ">
<path fill="none" stroke="#63b8ff" d="M257.19,-52.56C292.29,-42.79 340.42,-29.39 372.44,-20.48"/>
<polygon fill="#63b8ff" stroke="#63b8ff" points="256.45,-49.13 247.75,-55.19 258.32,-55.88 256.45,-49.13"/>
</a>
</g>
</g>
</g>
</svg>
</svg>

<style type='text/css'>
<![CDATA[
[data-mouse-over-selected='false'] { opacity: 0.7; }
[data-mouse-over-selected='true']  { opacity: 1.0; }
]]>
</style>
<script type="application/ecmascript"><![CDATA[
document.addEventListener('DOMContentLoaded', (event) => {
  highlightEdges();
  highlightAdjacentNodes();
});
]]></script>
</svg>
