<?xml version="1.0" encoding="UTF-8" standalone="no"?>
<!DOCTYPE svg PUBLIC "-//W3C//DTD SVG 1.1//EN"
 "http://www.w3.org/Graphics/SVG/1.1/DTD/svg11.dtd">
<!-- Generated by graphviz version 14.1.2 (20260124.0452)
 -->
<!-- Title: led_strip_rmt_encoder.c Pages: 1 -->
<svg width="319pt" height="196pt"
 viewBox="0.00 0.00 319.00 196.00" xmlns="http://www.w3.org/2000/svg" xmlns:xlink="http://www.w3.org/1999/xlink">
<g id="graph0" class="graph" transform="scale(1 1) rotate(0) translate(4 192)">
<title>led_strip_rmt_encoder.c</title>
<!-- Node1 -->
<g id="Node000001" class="node">
<title>Node1</title>
<g id="a_Node000001"><a xlink:title=" ">
<polygon fill="#999999" stroke="#666666" points="152.88,-188 32.62,-188 32.62,-168 152.88,-168 152.88,-188"/>
<text xml:space="preserve" text-anchor="middle" x="92.75" y="-174.5" font-family="Helvetica,sans-Serif" font-size="10.00">led_strip_rmt_encoder.c</text>
</a>
</g>
</g>
<!-- Node2 -->
<g id="Node000002" class="node">
<title>Node2</title>
<g id="a_Node000002"><a xlink:title=" ">
<polygon fill="#e0e0e0" stroke="#999999" points="71.5,-132 0,-132 0,-112 71.5,-112 71.5,-132"/>
<text xml:space="preserve" text-anchor="middle" x="35.75" y="-118.5" font-family="Helvetica,sans-Serif" font-size="10.00">esp_check.h</text>
</a>
</g>
</g>
<!-- Node1&#45;&gt;Node2 -->
<g id="edge1_Node000001_Node000002" class="edge">
<title>Node1&#45;&gt;Node2</title>
<g id="a_edge1_Node000001_Node000002"><a xlink:title=" ">
<path fill="none" stroke="#63b8ff" d="M82.82,-167.59C74.81,-160.01 63.33,-149.13 53.72,-140.02"/>
<polygon fill="#63b8ff" stroke="#63b8ff" points="56.33,-137.68 46.66,-133.34 51.52,-142.76 56.33,-137.68"/>
</a>
</g>
</g>
<!-- Node3 -->
<g id="Node000003" class="node">
<title>Node3</title>
<g id="a_Node000003"><a xlink:href="led__strip__rmt__encoder_8h.html" target="_top" xlink:title=" ">
<polygon fill="white" stroke="#666666" points="209.88,-132 89.62,-132 89.62,-112 209.88,-112 209.88,-132"/>
<text xml:space="preserve" text-anchor="middle" x="149.75" y="-118.5" font-family="Helvetica,sans-Serif" font-size="10.00">led_strip_rmt_encoder.h</text>
</a>
</g>
</g>
<!-- Node1&#45;&gt;Node3 -->
<g id="edge2_Node000001_Node000003" class="edge">
<title>Node1&#45;&gt;Node3</title>
<g id="a_edge2_Node000001_Node000003"><a xlink:title=" ">
<path fill="none" stroke="#63b8ff" d="M102.68,-167.59C110.69,-160.01 122.17,-149.13 131.78,-140.02"/>
<polygon fill="#63b8ff" stroke="#63b8ff" points="133.98,-142.76 138.84,-133.34 129.17,-137.68 133.98,-142.76"/>
</a>
</g>
</g>
<!-- Node4 -->
<g id="Node000004" class="node">
<title>Node4</title>
<g id="a_Node000004"><a xlink:title=" ">
<polygon fill="#e0e0e0" stroke="#999999" points="190.88,-20 142.62,-20 142.62,0 190.88,0 190.88,-20"/>
<text xml:space="preserve" text-anchor="middle" x="166.75" y="-6.5" font-family="Helvetica,sans-Serif" font-size="10.00">stdint.h</text>
</a>
</g>
</g>
<!-- Node3&#45;&gt;Node4 -->
<g id="edge3_Node000003_Node000004" class="edge">
<title>Node3&#45;&gt;Node4</title>
<g id="a_edge3_Node000003_Node000004"><a xlink:title=" ">
<path fill="none" stroke="#63b8ff" d="M128.95,-111.68C106.14,-100.06 74.43,-78.92 87.75,-56 97.31,-39.54 115.4,-28.61 131.85,-21.64"/>
<polygon fill="#63b8ff" stroke="#63b8ff" points="132.83,-25.01 140.91,-18.16 130.32,-18.48 132.83,-25.01"/>
</a>
</g>
</g>
<!-- Node5 -->
<g id="Node000005" class="node">
<title>Node5</title>
<g id="a_Node000005"><a xlink:title=" ">
<polygon fill="#e0e0e0" stroke="#999999" points="202.38,-76 97.12,-76 97.12,-56 202.38,-56 202.38,-76"/>
<text xml:space="preserve" text-anchor="middle" x="149.75" y="-62.5" font-family="Helvetica,sans-Serif" font-size="10.00">driver/rmt_encoder.h</text>
</a>
</g>
</g>
<!-- Node3&#45;&gt;Node5 -->
<g id="edge4_Node000003_Node000005" class="edge">
<title>Node3&#45;&gt;Node5</title>
<g id="a_edge4_Node000003_Node000005"><a xlink:title=" ">
<path fill="none" stroke="#63b8ff" d="M149.75,-111.59C149.75,-105.01 149.75,-95.96 149.75,-87.73"/>
<polygon fill="#63b8ff" stroke="#63b8ff" points="153.25,-87.81 149.75,-77.81 146.25,-87.81 153.25,-87.81"/>
</a>
</g>
</g>
<!-- Node6 -->
<g id="Node000006" class="node">
<title>Node6</title>
<g id="a_Node000006"><a xlink:href="led__strip__types_8h.html" target="_top" xlink:title=" ">
<polygon fill="white" stroke="#666666" points="310.88,-76 220.62,-76 220.62,-56 310.88,-56 310.88,-76"/>
<text xml:space="preserve" text-anchor="middle" x="265.75" y="-62.5" font-family="Helvetica,sans-Serif" font-size="10.00">led_strip_types.h</text>
</a>
</g>
</g>
<!-- Node3&#45;&gt;Node6 -->
<g id="edge5_Node000003_Node000006" class="edge">
<title>Node3&#45;&gt;Node6</title>
<g id="a_edge5_Node000003_Node000006"><a xlink:title=" ">
<path fill="none" stroke="#63b8ff" d="M169.96,-111.59C187.98,-103.21 214.62,-90.8 235.23,-81.21"/>
<polygon fill="#63b8ff" stroke="#63b8ff" points="236.43,-84.51 244.01,-77.12 233.47,-78.17 236.43,-84.51"/>
</a>
</g>
</g>
<!-- Node6&#45;&gt;Node4 -->
<g id="edge6_Node000006_Node000004" class="edge">
<title>Node6&#45;&gt;Node4</title>
<g id="a_edge6_Node000006_Node000004"><a xlink:title=" ">
<path fill="none" stroke="#63b8ff" d="M248.51,-55.59C233.41,-47.36 211.22,-35.26 193.77,-25.74"/>
<polygon fill="#63b8ff" stroke="#63b8ff" points="195.91,-22.92 185.46,-21.2 192.56,-29.07 195.91,-22.92"/>
</a>
</g>
</g>
</g>
</svg>
