<?xml version="1.0" encoding="UTF-8" standalone="no"?>
<!DOCTYPE svg PUBLIC "-//W3C//DTD SVG 1.1//EN"
 "http://www.w3.org/Graphics/SVG/1.1/DTD/svg11.dtd">
<!-- Generated by graphviz version 14.1.2 (20260124.0452)
 -->
<!-- Title: led_strip_types.h Pages: 1 -->
<!--zoomable 196 -->

<svg id="main" version="1.1" xmlns="http://www.w3.org/2000/svg" xmlns:xlink="http://www.w3.org/1999/xlink" xml:space="preserve" onload="init(evt)">

<style type="text/css"><![CDATA[
.node, .edge {opacity: 0.7;}
.node.selected, .edge.selected {opacity: 1;}
.edge:hover path { stroke: red; }
.edge:hover polygon { stroke: red; fill: red; }
]]></style>

<defs>
  <circle id="rim" cx="0" cy="0" r="7"/>
  <circle id="rim2" cx="0" cy="0" r="3.5"/>
  <g id="zoomPlus">
    <use xlink:href="#rim" fill="#404040"><set attributeName="fill" to="#808080" begin="zoomplus.mouseover" end="zoomplus.mouseout"/></use>
    <path d="M-4,0h8M0,-4v8" fill="none" stroke="white" stroke-width="1.5" pointer-events="none"/>
  </g>
  <g id="zoomMin">
    <use xlink:href="#rim" fill="#404040"><set attributeName="fill" to="#808080" begin="zoomminus.mouseover" end="zoomminus.mouseout"/></use>
    <path d="M-4,0h8" fill="none" stroke="white" stroke-width="1.5" pointer-events="none"/>
  </g>
  <g id="arrowUp" transform="translate(30 24)">
    <use xlink:href="#rim"/>
    <path pointer-events="none" fill="none" stroke="white" stroke-width="1.5" d="M0,-3.0v7 M-2.5,-0.5L0,-3.0L2.5,-0.5"/>
  </g>
  <g id="arrowRight" transform="rotate(90) translate(36 -43)">
    <use xlink:href="#rim"/>
    <path pointer-events="none" fill="none" stroke="white" stroke-width="1.5" d="M0,-3.0v7 M-2.5,-0.5L0,-3.0L2.5,-0.5"/>
  </g>
  <g id="arrowDown" transform="rotate(180) translate(-30 -48)">
    <use xlink:href="#rim"/>
    <path pointer-events="none" fill="none" stroke="white" stroke-width="1.5" d="M0,-3.0v7 M-2.5,-0.5L0,-3.0L2.5,-0.5"/>
  </g>
  <g id="arrowLeft" transform="rotate(270) translate(-36 17)">
    <use xlink:href="#rim"/>
    <path pointer-events="none" fill="none" stroke="white" stroke-width="1.5" d="M0,-3.0v7 M-2.5,-0.5L0,-3.0L2.5,-0.5"/>
  </g>
  <g id="resetDef">
    <use xlink:href="#rim2" fill="#404040"><set attributeName="fill" to="#808080" begin="reset.mouseover" end="reset.mouseout"/></use>
  </g>
</defs>
<script type="application/ecmascript">
var viewWidth = 625;
var viewHeight = 196;
var sectionId = 'dynsection-1';
</script>
<script type="application/ecmascript" xlink:href="svg.min.js"/>
<svg id="graph" class="graph">
<g id="viewport">
<title>led_strip_types.h</title>
<!-- Node1 -->
<g id="Node000001" class="node">
<title>Node1</title>
<g id="a_Node000001"><a xlink:title=" ">
<polygon fill="#999999" stroke="#666666" points="413.62,-188 323.38,-188 323.38,-168 413.62,-168 413.62,-188"/>
<text xml:space="preserve" text-anchor="middle" x="368.5" y="-174.5" font-family="Helvetica,sans-Serif" font-size="10.00">led_strip_types.h</text>
</a>
</g>
</g>
<!-- Node2 -->
<g id="Node000002" class="node">
<title>Node2</title>
<g id="a_Node000002"><a xlink:href="led__strip__rmt_8h.html" target="_top" xlink:title=" ">
<polygon fill="white" stroke="#666666" points="310.75,-132 230.25,-132 230.25,-112 310.75,-112 310.75,-132"/>
<text xml:space="preserve" text-anchor="middle" x="270.5" y="-118.5" font-family="Helvetica,sans-Serif" font-size="10.00">led_strip_rmt.h</text>
</a>
</g>
</g>
<!-- Node1&#45;&gt;Node2 -->
<g id="edge1_Node000001_Node000002" class="edge">
<title>Node1&#45;&gt;Node2</title>
<g id="a_edge1_Node000001_Node000002"><a xlink:title=" ">
<path fill="none" stroke="#63b8ff" d="M341.42,-162.08C324.25,-152.62 302.55,-140.66 287.7,-132.48"/>
<polygon fill="#63b8ff" stroke="#63b8ff" points="339.66,-165.1 350.1,-166.86 343.03,-158.97 339.66,-165.1"/>
</a>
</g>
</g>
<!-- Node9 -->
<g id="Node000009" class="node">
<title>Node9</title>
<g id="a_Node000009"><a xlink:href="led__strip__rmt__encoder_8h.html" target="_top" xlink:title=" ">
<polygon fill="white" stroke="#666666" points="546.62,-132 426.38,-132 426.38,-112 546.62,-112 546.62,-132"/>
<text xml:space="preserve" text-anchor="middle" x="486.5" y="-118.5" font-family="Helvetica,sans-Serif" font-size="10.00">led_strip_rmt_encoder.h</text>
</a>
</g>
</g>
<!-- Node1&#45;&gt;Node9 -->
<g id="edge8_Node000001_Node000009" class="edge">
<title>Node1&#45;&gt;Node9</title>
<g id="a_edge8_Node000001_Node000009"><a xlink:title=" ">
<path fill="none" stroke="#63b8ff" d="M399.36,-162.88C420.3,-153.3 447.4,-140.89 465.79,-132.48"/>
<polygon fill="#63b8ff" stroke="#63b8ff" points="398.07,-159.62 390.43,-166.96 400.98,-165.99 398.07,-159.62"/>
</a>
</g>
</g>
<!-- Node11 -->
<g id="Node000011" class="node">
<title>Node11</title>
<g id="a_Node000011"><a xlink:href="led__strip__spi_8h.html" target="_top" xlink:title=" ">
<polygon fill="white" stroke="#666666" points="408,-132 329,-132 329,-112 408,-112 408,-132"/>
<text xml:space="preserve" text-anchor="middle" x="368.5" y="-118.5" font-family="Helvetica,sans-Serif" font-size="10.00">led_strip_spi.h</text>
</a>
</g>
</g>
<!-- Node1&#45;&gt;Node11 -->
<g id="edge11_Node000001_Node000011" class="edge">
<title>Node1&#45;&gt;Node11</title>
<g id="a_edge11_Node000001_Node000011"><a xlink:title=" ">
<path fill="none" stroke="#63b8ff" d="M368.5,-156.13C368.5,-147.9 368.5,-138.85 368.5,-132.3"/>
<polygon fill="#63b8ff" stroke="#63b8ff" points="365,-156.08 368.5,-166.08 372,-156.08 365,-156.08"/>
</a>
</g>
</g>
<!-- Node3 -->
<g id="Node000003" class="node">
<title>Node3</title>
<g id="a_Node000003"><a xlink:href="led__strip_8h.html" target="_top" xlink:title=" ">
<polygon fill="white" stroke="#666666" points="318,-76 257,-76 257,-56 318,-56 318,-76"/>
<text xml:space="preserve" text-anchor="middle" x="287.5" y="-62.5" font-family="Helvetica,sans-Serif" font-size="10.00">led_strip.h</text>
</a>
</g>
</g>
<!-- Node2&#45;&gt;Node3 -->
<g id="edge2_Node000002_Node000003" class="edge">
<title>Node2&#45;&gt;Node3</title>
<g id="a_edge2_Node000002_Node000003"><a xlink:title=" ">
<path fill="none" stroke="#63b8ff" d="M276.89,-100.71C279.53,-92.32 282.46,-83.01 284.57,-76.3"/>
<polygon fill="#63b8ff" stroke="#63b8ff" points="273.58,-99.56 273.92,-110.15 280.26,-101.66 273.58,-99.56"/>
</a>
</g>
</g>
<!-- Node4 -->
<g id="Node000004" class="node">
<title>Node4</title>
<g id="a_Node000004"><a xlink:href="led__strip__api_8c.html" target="_top" xlink:title=" ">
<polygon fill="white" stroke="#666666" points="79,-20 0,-20 0,0 79,0 79,-20"/>
<text xml:space="preserve" text-anchor="middle" x="39.5" y="-6.5" font-family="Helvetica,sans-Serif" font-size="10.00">led_strip_api.c</text>
</a>
</g>
</g>
<!-- Node3&#45;&gt;Node4 -->
<g id="edge3_Node000003_Node000004" class="edge">
<title>Node3&#45;&gt;Node4</title>
<g id="a_edge3_Node000003_Node000004"><a xlink:title=" ">
<path fill="none" stroke="#63b8ff" d="M245.43,-55.84C199.03,-45.74 124.94,-29.6 79.42,-19.69"/>
<polygon fill="#63b8ff" stroke="#63b8ff" points="244.6,-59.24 255.11,-57.95 246.09,-52.4 244.6,-59.24"/>
</a>
</g>
</g>
<!-- Node5 -->
<g id="Node000005" class="node">
<title>Node5</title>
<g id="a_Node000005"><a xlink:href="led__strip__rmt__dev_8c.html" target="_top" xlink:title=" ">
<polygon fill="white" stroke="#666666" points="518.88,-20 418.12,-20 418.12,0 518.88,0 518.88,-20"/>
<text xml:space="preserve" text-anchor="middle" x="468.5" y="-6.5" font-family="Helvetica,sans-Serif" font-size="10.00">led_strip_rmt_dev.c</text>
</a>
</g>
</g>
<!-- Node3&#45;&gt;Node5 -->
<g id="edge4_Node000003_Node000005" class="edge">
<title>Node3&#45;&gt;Node5</title>
<g id="a_edge4_Node000003_Node000005"><a xlink:title=" ">
<path fill="none" stroke="#63b8ff" d="M329.24,-52.55C361.98,-42.78 406.87,-29.39 436.73,-20.48"/>
<polygon fill="#63b8ff" stroke="#63b8ff" points="328.24,-49.19 319.65,-55.41 330.24,-55.9 328.24,-49.19"/>
</a>
</g>
</g>
<!-- Node6 -->
<g id="Node000006" class="node">
<title>Node6</title>
<g id="a_Node000006"><a xlink:href="led__strip__rmt__dev__idf4_8c.html" target="_top" xlink:title=" ">
<polygon fill="white" stroke="#666666" points="219.75,-20 97.25,-20 97.25,0 219.75,0 219.75,-20"/>
<text xml:space="preserve" text-anchor="middle" x="158.5" y="-6.5" font-family="Helvetica,sans-Serif" font-size="10.00">led_strip_rmt_dev_idf4.c</text>
</a>
</g>
</g>
<!-- Node3&#45;&gt;Node6 -->
<g id="edge5_Node000003_Node000006" class="edge">
<title>Node3&#45;&gt;Node6</title>
<g id="a_edge5_Node000003_Node000006"><a xlink:title=" ">
<path fill="none" stroke="#63b8ff" d="M254.7,-51.27C231.69,-41.64 201.52,-29.01 181.15,-20.48"/>
<polygon fill="#63b8ff" stroke="#63b8ff" points="253.06,-54.38 263.63,-55.01 255.76,-47.92 253.06,-54.38"/>
</a>
</g>
</g>
<!-- Node7 -->
<g id="Node000007" class="node">
<title>Node7</title>
<g id="a_Node000007"><a xlink:href="led__strip__spi__dev_8c.html" target="_top" xlink:title=" ">
<polygon fill="white" stroke="#666666" points="337.12,-20 237.88,-20 237.88,0 337.12,0 337.12,-20"/>
<text xml:space="preserve" text-anchor="middle" x="287.5" y="-6.5" font-family="Helvetica,sans-Serif" font-size="10.00">led_strip_spi_dev.c</text>
</a>
</g>
</g>
<!-- Node3&#45;&gt;Node7 -->
<g id="edge6_Node000003_Node000007" class="edge">
<title>Node3&#45;&gt;Node7</title>
<g id="a_edge6_Node000003_Node000007"><a xlink:title=" ">
<path fill="none" stroke="#63b8ff" d="M287.5,-44.13C287.5,-35.9 287.5,-26.85 287.5,-20.3"/>
<polygon fill="#63b8ff" stroke="#63b8ff" points="284,-44.08 287.5,-54.08 291,-44.08 284,-44.08"/>
</a>
</g>
</g>
<!-- Node8 -->
<g id="Node000008" class="node">
<title>Node8</title>
<g id="a_Node000008"><a xlink:href="main_2main_8c.html" target="_top" xlink:title=" ">
<polygon fill="white" stroke="#666666" points="400.12,-20 354.88,-20 354.88,0 400.12,0 400.12,-20"/>
<text xml:space="preserve" text-anchor="middle" x="377.5" y="-6.5" font-family="Helvetica,sans-Serif" font-size="10.00">main.c</text>
</a>
</g>
</g>
<!-- Node3&#45;&gt;Node8 -->
<g id="edge7_Node000003_Node000008" class="edge">
<title>Node3&#45;&gt;Node8</title>
<g id="a_edge7_Node000003_Node000008"><a xlink:title=" ">
<path fill="none" stroke="#63b8ff" d="M312.81,-49.81C328.51,-40.39 348.2,-28.58 361.7,-20.48"/>
<polygon fill="#63b8ff" stroke="#63b8ff" points="311.25,-46.67 304.47,-54.82 314.85,-52.67 311.25,-46.67"/>
</a>
</g>
</g>
<!-- Node9&#45;&gt;Node5 -->
<g id="edge9_Node000009_Node000005" class="edge">
<title>Node9&#45;&gt;Node5</title>
<g id="a_edge9_Node000009_Node000005"><a xlink:title=" ">
<path fill="none" stroke="#63b8ff" d="M483.11,-100.31C479.2,-76.36 472.91,-37.95 470.03,-20.35"/>
<polygon fill="#63b8ff" stroke="#63b8ff" points="479.65,-100.82 484.72,-110.13 486.56,-99.69 479.65,-100.82"/>
</a>
</g>
</g>
<!-- Node10 -->
<g id="Node000010" class="node">
<title>Node10</title>
<g id="a_Node000010"><a xlink:href="led__strip__rmt__encoder_8c.html" target="_top" xlink:title=" ">
<polygon fill="white" stroke="#666666" points="616.62,-76 496.38,-76 496.38,-56 616.62,-56 616.62,-76"/>
<text xml:space="preserve" text-anchor="middle" x="556.5" y="-62.5" font-family="Helvetica,sans-Serif" font-size="10.00">led_strip_rmt_encoder.c</text>
</a>
</g>
</g>
<!-- Node9&#45;&gt;Node10 -->
<g id="edge10_Node000009_Node000010" class="edge">
<title>Node9&#45;&gt;Node10</title>
<g id="a_edge10_Node000009_Node000010"><a xlink:title=" ">
<path fill="none" stroke="#63b8ff" d="M507.66,-104.68C519.7,-95.39 534.35,-84.09 544.45,-76.3"/>
<polygon fill="#63b8ff" stroke="#63b8ff" points="505.67,-101.79 499.89,-110.67 509.95,-107.33 505.67,-101.79"/>
</a>
</g>
</g>
<!-- Node11&#45;&gt;Node3 -->
<g id="edge12_Node000011_Node000003" class="edge">
<title>Node11&#45;&gt;Node3</title>
<g id="a_edge12_Node000011_Node000003"><a xlink:title=" ">
<path fill="none" stroke="#63b8ff" d="M344.91,-105.27C330.91,-95.94 313.64,-84.43 301.72,-76.48"/>
<polygon fill="#63b8ff" stroke="#63b8ff" points="342.87,-108.12 353.13,-110.75 346.75,-102.3 342.87,-108.12"/>
</a>
</g>
</g>
</g>
</svg>

<g id="navigator" transform="translate(0 0)" fill="#404254">
  <rect fill="#f2f5e9" fill-opacity="0.5" stroke="#606060" stroke-width=".5" x="0" y="0" width="60" height="60"/>
  <use id="zoomplus" xlink:href="#zoomPlus" x="17" y="9" onmousedown="handleZoom(evt,'in')"/>
  <use id="zoomminus" xlink:href="#zoomMin" x="42" y="9" onmousedown="handleZoom(evt,'out')"/>
  <use id="reset" xlink:href="#resetDef" x="30" y="36" onmousedown="handleReset()"/>
   <use id="arrowup" xlink:href="#arrowUp" x="0" y="0" onmousedown="handlePan(0,-1)"/>
  <use id="arrowright" xlink:href="#arrowRight" x="0" y="0" onmousedown="handlePan(1,0)"/>
  <use id="arrowdown" xlink:href="#arrowDown" x="0" y="0" onmousedown="handlePan(0,1)"/>
  <use id="arrowleft" xlink:href="#arrowLeft" x="0" y="0" onmousedown="handlePan(-1,0)"/>
</g>
<svg viewBox="0 0 15 15" width="100%" height="30px" preserveAspectRatio="xMaxYMin meet">
 <g id="arrow_out" transform="scale(0.3 0.3)">
  <a xlink:href="led__strip__types_8h__dep__incl_org.svg" target="_base">
   <rect id="button" ry="5" rx="5" y="6" x="6" height="38" width="38"
        fill="#f2f5e9" fill-opacity="0.5" stroke="#606060" stroke-width="1.0"/>
   <path id="arrow"
     d="M 11.500037,31.436501 C 11.940474,20.09759 22.043105,11.32322 32.158766,21.979434 L 37.068811,17.246167 C 37.068811,17.246167 37.088388,32 37.088388,32 L 22.160133,31.978069 C 22.160133,31.978069 26.997745,27.140456 26.997745,27.140456 C 18.528582,18.264221 13.291696,25.230495 11.500037,31.436501 z"
     style="fill:#404040;"/>
  </a>
 </g>
</svg>

<style type='text/css'>
<![CDATA[
[data-mouse-over-selected='false'] { opacity: 0.7; }
[data-mouse-over-selected='true']  { opacity: 1.0; }
]]>
</style>
<script type="application/ecmascript"><![CDATA[
document.addEventListener('DOMContentLoaded', (event) => {
  highlightEdges();
  highlightAdjacentNodes();
});
]]></script>
</svg>
