<?xml version="1.0" encoding="UTF-8" standalone="no"?>
<!DOCTYPE svg PUBLIC "-//W3C//DTD SVG 1.1//EN"
 "http://www.w3.org/Graphics/SVG/1.1/DTD/svg11.dtd">
<!-- Generated by graphviz version 14.1.2 (20260124.0452)
 -->
<!-- Title: rmt_new_led_strip_encoder Pages: 1 -->
<svg width="309pt" height="116pt"
 viewBox="0.00 0.00 309.00 116.00" xmlns="http://www.w3.org/2000/svg" xmlns:xlink="http://www.w3.org/1999/xlink">
<g id="graph0" class="graph" transform="scale(1 1) rotate(0) translate(4 112)">
<title>rmt_new_led_strip_encoder</title>
<!-- Node1 -->
<g id="Node000001" class="node">
<title>Node1</title>
<g id="a_Node000001"><a xlink:title="Create RMT encoder for encoding LED strip pixels into RMT symbols.">
<polygon fill="#999999" stroke="#666666" points="135.25,-70 0,-70 0,-50 135.25,-50 135.25,-70"/>
<text xml:space="preserve" text-anchor="middle" x="67.62" y="-56.5" font-family="Helvetica,sans-Serif" font-size="10.00">rmt_new_led_strip_encoder</text>
</a>
</g>
</g>
<!-- Node2 -->
<g id="Node000002" class="node">
<title>Node2</title>
<g id="a_Node000002"><a xlink:href="led__strip__rmt__encoder_8c.html#a468c0fc56235d76562777c8f551463f9" target="_top" xlink:title=" ">
<polygon fill="white" stroke="#666666" points="301.25,-108 171.25,-108 171.25,-88 301.25,-88 301.25,-108"/>
<text xml:space="preserve" text-anchor="middle" x="236.25" y="-94.5" font-family="Helvetica,sans-Serif" font-size="10.00">rmt_del_led_strip_encoder</text>
</a>
</g>
</g>
<!-- Node1&#45;&gt;Node2 -->
<g id="edge1_Node000001_Node000002" class="edge">
<title>Node1&#45;&gt;Node2</title>
<g id="a_edge1_Node000001_Node000002"><a xlink:title=" ">
<path fill="none" stroke="#63b8ff" d="M114.6,-70.48C134.36,-74.99 157.65,-80.3 178.47,-85.05"/>
<polygon fill="#63b8ff" stroke="#63b8ff" points="177.42,-88.4 187.95,-87.21 178.98,-81.58 177.42,-88.4"/>
</a>
</g>
</g>
<!-- Node3 -->
<g id="Node000003" class="node">
<title>Node3</title>
<g id="a_Node000003"><a xlink:href="led__strip__rmt__encoder_8c.html#a1c85c2660c0f2c003f8064baea91782d" target="_top" xlink:title=" ">
<polygon fill="white" stroke="#666666" points="290.75,-70 181.75,-70 181.75,-50 290.75,-50 290.75,-70"/>
<text xml:space="preserve" text-anchor="middle" x="236.25" y="-56.5" font-family="Helvetica,sans-Serif" font-size="10.00">rmt_encode_led_strip</text>
</a>
</g>
</g>
<!-- Node1&#45;&gt;Node3 -->
<g id="edge2_Node000001_Node000003" class="edge">
<title>Node1&#45;&gt;Node3</title>
<g id="a_edge2_Node000001_Node000003"><a xlink:title=" ">
<path fill="none" stroke="#63b8ff" d="M135.44,-60C146.91,-60 158.82,-60 170.25,-60"/>
<polygon fill="#63b8ff" stroke="#63b8ff" points="169.97,-63.5 179.97,-60 169.97,-56.5 169.97,-63.5"/>
</a>
</g>
</g>
<!-- Node4 -->
<g id="Node000004" class="node">
<title>Node4</title>
<g id="a_Node000004"><a xlink:href="led__strip__rmt__encoder_8c.html#a95120e82d0a3b4358ef81559bc851010" target="_top" xlink:title=" ">
<polygon fill="white" stroke="#666666" points="292.25,-32 180.25,-32 180.25,0 292.25,0 292.25,-32"/>
<text xml:space="preserve" text-anchor="start" x="188.25" y="-18.5" font-family="Helvetica,sans-Serif" font-size="10.00">rmt_led_strip_encoder</text>
<text xml:space="preserve" text-anchor="middle" x="236.25" y="-6.5" font-family="Helvetica,sans-Serif" font-size="10.00">_reset</text>
</a>
</g>
</g>
<!-- Node1&#45;&gt;Node4 -->
<g id="edge3_Node000001_Node000004" class="edge">
<title>Node1&#45;&gt;Node4</title>
<g id="a_edge3_Node000001_Node000004"><a xlink:title=" ">
<path fill="none" stroke="#63b8ff" d="M108.11,-49.57C126.3,-44.77 148.39,-38.94 169.02,-33.49"/>
<polygon fill="#63b8ff" stroke="#63b8ff" points="169.73,-36.92 178.51,-30.98 167.95,-30.15 169.73,-36.92"/>
</a>
</g>
</g>
</g>
</svg>
