<?xml version="1.0" encoding="UTF-8" standalone="no"?>
<!DOCTYPE svg PUBLIC "-//W3C//DTD SVG 1.1//EN"
 "http://www.w3.org/Graphics/SVG/1.1/DTD/svg11.dtd">
<!-- Generated by graphviz version 14.1.2 (20260124.0452)
 -->
<!-- Title: led_strip_new_rmt_device Pages: 1 -->
<svg width="482pt" height="268pt"
 viewBox="0.00 0.00 482.00 268.00" xmlns="http://www.w3.org/2000/svg" xmlns:xlink="http://www.w3.org/1999/xlink">
<g id="graph0" class="graph" transform="scale(1 1) rotate(0) translate(4 264)">
<title>led_strip_new_rmt_device</title>
<!-- Node1 -->
<g id="Node000001" class="node">
<title>Node1</title>
<g id="a_Node000001"><a xlink:title="Create LED strip based on RMT TX channel.">
<polygon fill="#999999" stroke="#666666" points="129.25,-146 0,-146 0,-126 129.25,-126 129.25,-146"/>
<text xml:space="preserve" text-anchor="middle" x="64.62" y="-132.5" font-family="Helvetica,sans-Serif" font-size="10.00">led_strip_new_rmt_device</text>
</a>
</g>
</g>
<!-- Node2 -->
<g id="Node000002" class="node">
<title>Node2</title>
<g id="a_Node000002"><a xlink:href="led__strip__rmt__dev_8c.html#a5c523f0d1ca56d4aa47389a902fc45ce" target="_top" xlink:title=" ">
<polygon fill="white" stroke="#666666" points="285.88,-260 187.38,-260 187.38,-240 285.88,-240 285.88,-260"/>
<text xml:space="preserve" text-anchor="middle" x="236.62" y="-246.5" font-family="Helvetica,sans-Serif" font-size="10.00">led_strip_rmt_clear</text>
</a>
</g>
</g>
<!-- Node1&#45;&gt;Node2 -->
<g id="edge1_Node000001_Node000002" class="edge">
<title>Node1&#45;&gt;Node2</title>
<g id="a_edge1_Node000001_Node000002"><a xlink:title=" ">
<path fill="none" stroke="#63b8ff" d="M74.46,-146.38C90.69,-164.85 127.08,-203.55 165.25,-226 171.38,-229.61 178.14,-232.77 184.96,-235.52"/>
<polygon fill="#63b8ff" stroke="#63b8ff" points="183.65,-238.77 194.25,-238.97 186.09,-232.21 183.65,-238.77"/>
</a>
</g>
</g>
<!-- Node3 -->
<g id="Node000003" class="node">
<title>Node3</title>
<g id="a_Node000003"><a xlink:href="led__strip__rmt__dev_8c.html#a02acafefc7398491a56770e0606ebb82" target="_top" xlink:title=" ">
<polygon fill="white" stroke="#666666" points="462.75,-241 355.25,-241 355.25,-221 462.75,-221 462.75,-241"/>
<text xml:space="preserve" text-anchor="middle" x="409" y="-227.5" font-family="Helvetica,sans-Serif" font-size="10.00">led_strip_rmt_refresh</text>
</a>
</g>
</g>
<!-- Node1&#45;&gt;Node3 -->
<g id="edge4_Node000001_Node000003" class="edge">
<title>Node1&#45;&gt;Node3</title>
<g id="a_edge4_Node000001_Node000003"><a xlink:title=" ">
<path fill="none" stroke="#63b8ff" d="M79.99,-146.49C98.66,-159.57 132.72,-181.59 165.25,-193 223.69,-213.51 293.92,-222.98 343.78,-227.33"/>
<polygon fill="#63b8ff" stroke="#63b8ff" points="343.28,-230.8 353.53,-228.13 343.85,-223.83 343.28,-230.8"/>
</a>
</g>
</g>
<!-- Node4 -->
<g id="Node000004" class="node">
<title>Node4</title>
<g id="a_Node000004"><a xlink:href="led__strip__rmt__dev_8c.html#a9524741152d38ceaab491dae03d606d6" target="_top" xlink:title=" ">
<polygon fill="white" stroke="#666666" points="281.75,-184 191.5,-184 191.5,-164 281.75,-164 281.75,-184"/>
<text xml:space="preserve" text-anchor="middle" x="236.62" y="-170.5" font-family="Helvetica,sans-Serif" font-size="10.00">led_strip_rmt_del</text>
</a>
</g>
</g>
<!-- Node1&#45;&gt;Node4 -->
<g id="edge3_Node000001_Node000004" class="edge">
<title>Node1&#45;&gt;Node4</title>
<g id="a_edge3_Node000001_Node000004"><a xlink:title=" ">
<path fill="none" stroke="#63b8ff" d="M112.53,-146.48C133.45,-151.16 158.26,-156.71 180.1,-161.59"/>
<polygon fill="#63b8ff" stroke="#63b8ff" points="179.21,-164.98 189.74,-163.74 180.74,-158.15 179.21,-164.98"/>
</a>
</g>
</g>
<!-- Node5 -->
<g id="Node000005" class="node">
<title>Node5</title>
<g id="a_Node000005"><a xlink:href="led__strip__rmt__dev_8c.html#a369ad496b407ba725d8ebaac0bfb3490" target="_top" xlink:title=" ">
<polygon fill="white" stroke="#666666" points="294.88,-146 178.38,-146 178.38,-126 294.88,-126 294.88,-146"/>
<text xml:space="preserve" text-anchor="middle" x="236.62" y="-132.5" font-family="Helvetica,sans-Serif" font-size="10.00">led_strip_rmt_set_pixel</text>
</a>
</g>
</g>
<!-- Node1&#45;&gt;Node5 -->
<g id="edge5_Node000001_Node000005" class="edge">
<title>Node1&#45;&gt;Node5</title>
<g id="a_edge5_Node000001_Node000005"><a xlink:title=" ">
<path fill="none" stroke="#63b8ff" d="M129.41,-136C141.6,-136 154.41,-136 166.75,-136"/>
<polygon fill="#63b8ff" stroke="#63b8ff" points="166.41,-139.5 176.41,-136 166.41,-132.5 166.41,-139.5"/>
</a>
</g>
</g>
<!-- Node6 -->
<g id="Node000006" class="node">
<title>Node6</title>
<g id="a_Node000006"><a xlink:href="led__strip__rmt__dev_8c.html#a2d361ca55b18711fe84c91b5286199a5" target="_top" xlink:title=" ">
<polygon fill="white" stroke="#666666" points="308,-108 165.25,-108 165.25,-88 308,-88 308,-108"/>
<text xml:space="preserve" text-anchor="middle" x="236.62" y="-94.5" font-family="Helvetica,sans-Serif" font-size="10.00">led_strip_rmt_set_pixel_rgbw</text>
</a>
</g>
</g>
<!-- Node1&#45;&gt;Node6 -->
<g id="edge6_Node000001_Node000006" class="edge">
<title>Node1&#45;&gt;Node6</title>
<g id="a_edge6_Node000001_Node000006"><a xlink:title=" ">
<path fill="none" stroke="#63b8ff" d="M112.53,-125.52C132.69,-121.01 156.45,-115.7 177.7,-110.95"/>
<polygon fill="#63b8ff" stroke="#63b8ff" points="178.4,-114.38 187.4,-108.78 176.88,-107.55 178.4,-114.38"/>
</a>
</g>
</g>
<!-- Node7 -->
<g id="Node000007" class="node">
<title>Node7</title>
<g id="a_Node000007"><a xlink:href="led__strip__rmt__encoder_8c.html#a367480d48d10d4288ae0ea8078b771f5" target="_top" xlink:title="Create RMT encoder for encoding LED strip pixels into RMT symbols.">
<polygon fill="white" stroke="#666666" points="304.25,-70 169,-70 169,-50 304.25,-50 304.25,-70"/>
<text xml:space="preserve" text-anchor="middle" x="236.62" y="-56.5" font-family="Helvetica,sans-Serif" font-size="10.00">rmt_new_led_strip_encoder</text>
</a>
</g>
</g>
<!-- Node1&#45;&gt;Node7 -->
<g id="edge7_Node000001_Node000007" class="edge">
<title>Node1&#45;&gt;Node7</title>
<g id="a_edge7_Node000001_Node000007"><a xlink:title=" ">
<path fill="none" stroke="#63b8ff" d="M80.86,-125.62C99.88,-113.07 133.76,-92.01 165.25,-79 169.78,-77.13 174.55,-75.39 179.39,-73.78"/>
<polygon fill="#63b8ff" stroke="#63b8ff" points="180.05,-77.24 188.56,-70.93 177.97,-70.56 180.05,-77.24"/>
</a>
</g>
</g>
<!-- Node11 -->
<g id="Node000011" class="node">
<title>Node11</title>
<g id="a_Node000011"><a xlink:href="led__strip__rmt__dev__idf4_8c.html#a2bf46144d9309e73778237a6b4e7c53d" target="_top" xlink:title=" ">
<polygon fill="white" stroke="#666666" points="290,-32 183.25,-32 183.25,-12 290,-12 290,-32"/>
<text xml:space="preserve" text-anchor="middle" x="236.62" y="-18.5" font-family="Helvetica,sans-Serif" font-size="10.00">ws2812_rmt_adapter</text>
</a>
</g>
</g>
<!-- Node1&#45;&gt;Node11 -->
<g id="edge11_Node000001_Node000011" class="edge">
<title>Node1&#45;&gt;Node11</title>
<g id="a_edge11_Node000001_Node000011"><a xlink:title=" ">
<path fill="none" stroke="#63b8ff" d="M73.45,-125.68C88.84,-106.13 125.05,-63.62 165.25,-41 168.09,-39.4 171.08,-37.93 174.15,-36.58"/>
<polygon fill="#63b8ff" stroke="#63b8ff" points="175.35,-39.86 183.41,-32.98 172.82,-33.34 175.35,-39.86"/>
</a>
</g>
</g>
<!-- Node2&#45;&gt;Node3 -->
<g id="edge2_Node000002_Node000003" class="edge">
<title>Node2&#45;&gt;Node3</title>
<g id="a_edge2_Node000002_Node000003"><a xlink:title=" ">
<path fill="none" stroke="#63b8ff" d="M285.99,-244.61C303.92,-242.61 324.54,-240.31 343.66,-238.17"/>
<polygon fill="#63b8ff" stroke="#63b8ff" points="343.98,-241.66 353.53,-237.07 343.2,-234.7 343.98,-241.66"/>
</a>
</g>
</g>
<!-- Node8 -->
<g id="Node000008" class="node">
<title>Node8</title>
<g id="a_Node000008"><a xlink:href="led__strip__rmt__encoder_8c.html#a468c0fc56235d76562777c8f551463f9" target="_top" xlink:title=" ">
<polygon fill="white" stroke="#666666" points="474,-108 344,-108 344,-88 474,-88 474,-108"/>
<text xml:space="preserve" text-anchor="middle" x="409" y="-94.5" font-family="Helvetica,sans-Serif" font-size="10.00">rmt_del_led_strip_encoder</text>
</a>
</g>
</g>
<!-- Node7&#45;&gt;Node8 -->
<g id="edge8_Node000007_Node000008" class="edge">
<title>Node7&#45;&gt;Node8</title>
<g id="a_edge8_Node000007_Node000008"><a xlink:title=" ">
<path fill="none" stroke="#63b8ff" d="M284.63,-70.48C304.84,-74.99 328.65,-80.3 349.95,-85.05"/>
<polygon fill="#63b8ff" stroke="#63b8ff" points="349.15,-88.46 359.67,-87.22 350.67,-81.63 349.15,-88.46"/>
</a>
</g>
</g>
<!-- Node9 -->
<g id="Node000009" class="node">
<title>Node9</title>
<g id="a_Node000009"><a xlink:href="led__strip__rmt__encoder_8c.html#a1c85c2660c0f2c003f8064baea91782d" target="_top" xlink:title=" ">
<polygon fill="white" stroke="#666666" points="463.5,-70 354.5,-70 354.5,-50 463.5,-50 463.5,-70"/>
<text xml:space="preserve" text-anchor="middle" x="409" y="-56.5" font-family="Helvetica,sans-Serif" font-size="10.00">rmt_encode_led_strip</text>
</a>
</g>
</g>
<!-- Node7&#45;&gt;Node9 -->
<g id="edge9_Node000007_Node000009" class="edge">
<title>Node7&#45;&gt;Node9</title>
<g id="a_edge9_Node000007_Node000009"><a xlink:title=" ">
<path fill="none" stroke="#63b8ff" d="M304.47,-60C317.11,-60 330.3,-60 342.88,-60"/>
<polygon fill="#63b8ff" stroke="#63b8ff" points="342.71,-63.5 352.71,-60 342.71,-56.5 342.71,-63.5"/>
</a>
</g>
</g>
<!-- Node10 -->
<g id="Node000010" class="node">
<title>Node10</title>
<g id="a_Node000010"><a xlink:href="led__strip__rmt__encoder_8c.html#a95120e82d0a3b4358ef81559bc851010" target="_top" xlink:title=" ">
<polygon fill="white" stroke="#666666" points="465,-32 353,-32 353,0 465,0 465,-32"/>
<text xml:space="preserve" text-anchor="start" x="361" y="-18.5" font-family="Helvetica,sans-Serif" font-size="10.00">rmt_led_strip_encoder</text>
<text xml:space="preserve" text-anchor="middle" x="409" y="-6.5" font-family="Helvetica,sans-Serif" font-size="10.00">_reset</text>
</a>
</g>
</g>
<!-- Node7&#45;&gt;Node10 -->
<g id="edge10_Node000007_Node000010" class="edge">
<title>Node7&#45;&gt;Node10</title>
<g id="a_edge10_Node000007_Node000010"><a xlink:title=" ">
<path fill="none" stroke="#63b8ff" d="M278,-49.57C297.02,-44.66 320.21,-38.67 341.71,-33.12"/>
<polygon fill="#63b8ff" stroke="#63b8ff" points="342.49,-36.53 351.3,-30.64 340.74,-29.75 342.49,-36.53"/>
</a>
</g>
</g>
</g>
</svg>
