<?xml version="1.0" encoding="UTF-8" standalone="no"?>
<!DOCTYPE svg PUBLIC "-//W3C//DTD SVG 1.1//EN"
 "http://www.w3.org/Graphics/SVG/1.1/DTD/svg11.dtd">
<!-- Generated by graphviz version 14.1.2 (20260124.0452)
 -->
<!-- Title: led_strip.h Pages: 1 -->
<svg width="574pt" height="196pt"
 viewBox="0.00 0.00 574.00 196.00" xmlns="http://www.w3.org/2000/svg" xmlns:xlink="http://www.w3.org/1999/xlink">
<g id="graph0" class="graph" transform="scale(1 1) rotate(0) translate(4 192)">
<title>led_strip.h</title>
<!-- Node1 -->
<g id="Node000001" class="node">
<title>Node1</title>
<g id="a_Node000001"><a xlink:title=" ">
<polygon fill="#999999" stroke="#666666" points="294.76,-188 233.76,-188 233.76,-168 294.76,-168 294.76,-188"/>
<text xml:space="preserve" text-anchor="middle" x="264.26" y="-174.5" font-family="Helvetica,sans-Serif" font-size="10.00">led_strip.h</text>
</a>
</g>
</g>
<!-- Node2 -->
<g id="Node000002" class="node">
<title>Node2</title>
<g id="a_Node000002"><a xlink:title=" ">
<polygon fill="#e0e0e0" stroke="#999999" points="114.38,-20 66.13,-20 66.13,0 114.38,0 114.38,-20"/>
<text xml:space="preserve" text-anchor="middle" x="90.26" y="-6.5" font-family="Helvetica,sans-Serif" font-size="10.00">stdint.h</text>
</a>
</g>
</g>
<!-- Node1&#45;&gt;Node2 -->
<g id="edge1_Node000001_Node000002" class="edge">
<title>Node1&#45;&gt;Node2</title>
<g id="a_edge1_Node000001_Node000002"><a xlink:title=" ">
<path fill="none" stroke="#63b8ff" d="M233.7,-175.79C176.8,-171.67 55.72,-153.73 4.26,-76 -12.07,-51.33 24.56,-32.34 54.97,-21.43"/>
<polygon fill="#63b8ff" stroke="#63b8ff" points="56,-24.77 64.35,-18.26 53.76,-18.14 56,-24.77"/>
</a>
</g>
</g>
<!-- Node3 -->
<g id="Node000003" class="node">
<title>Node3</title>
<g id="a_Node000003"><a xlink:href="esp__err_8h.html" target="_top" xlink:title=" ">
<polygon fill="white" stroke="#666666" points="304.51,-76 248.01,-76 248.01,-56 304.51,-56 304.51,-76"/>
<text xml:space="preserve" text-anchor="middle" x="276.26" y="-62.5" font-family="Helvetica,sans-Serif" font-size="10.00">esp_err.h</text>
</a>
</g>
</g>
<!-- Node1&#45;&gt;Node3 -->
<g id="edge2_Node000001_Node000003" class="edge">
<title>Node1&#45;&gt;Node3</title>
<g id="a_edge2_Node000001_Node000003"><a xlink:title=" ">
<path fill="none" stroke="#63b8ff" d="M265.28,-167.62C267.2,-150.01 271.39,-111.59 274.01,-87.65"/>
<polygon fill="#63b8ff" stroke="#63b8ff" points="277.47,-88.18 275.07,-77.86 270.51,-87.42 277.47,-88.18"/>
</a>
</g>
</g>
<!-- Node5 -->
<g id="Node000005" class="node">
<title>Node5</title>
<g id="a_Node000005"><a xlink:href="led__strip__rmt_8h.html" target="_top" xlink:title=" ">
<polygon fill="white" stroke="#666666" points="372.51,-132 292.01,-132 292.01,-112 372.51,-112 372.51,-132"/>
<text xml:space="preserve" text-anchor="middle" x="332.26" y="-118.5" font-family="Helvetica,sans-Serif" font-size="10.00">led_strip_rmt.h</text>
</a>
</g>
</g>
<!-- Node1&#45;&gt;Node5 -->
<g id="edge4_Node000001_Node000005" class="edge">
<title>Node1&#45;&gt;Node5</title>
<g id="a_edge4_Node000001_Node000005"><a xlink:title=" ">
<path fill="none" stroke="#63b8ff" d="M276.1,-167.59C285.95,-159.77 300.19,-148.46 311.87,-139.19"/>
<polygon fill="#63b8ff" stroke="#63b8ff" points="313.71,-142.2 319.37,-133.24 309.36,-136.72 313.71,-142.2"/>
</a>
</g>
</g>
<!-- Node7 -->
<g id="Node000007" class="node">
<title>Node7</title>
<g id="a_Node000007"><a xlink:title=" ">
<polygon fill="#e0e0e0" stroke="#999999" points="565.51,-76 473.01,-76 473.01,-56 565.51,-56 565.51,-76"/>
<text xml:space="preserve" text-anchor="middle" x="519.26" y="-62.5" font-family="Helvetica,sans-Serif" font-size="10.00">esp_idf_version.h</text>
</a>
</g>
</g>
<!-- Node1&#45;&gt;Node7 -->
<g id="edge11_Node000001_Node000007" class="edge">
<title>Node1&#45;&gt;Node7</title>
<g id="a_edge11_Node000001_Node000007"><a xlink:title=" ">
<path fill="none" stroke="#63b8ff" d="M290.5,-167.53C314.36,-158.78 350.44,-145.17 381.26,-132 419.31,-115.74 462.33,-95.12 490.07,-81.51"/>
<polygon fill="#63b8ff" stroke="#63b8ff" points="491.48,-84.72 498.9,-77.16 488.39,-78.44 491.48,-84.72"/>
</a>
</g>
</g>
<!-- Node9 -->
<g id="Node000009" class="node">
<title>Node9</title>
<g id="a_Node000009"><a xlink:href="led__strip__spi_8h.html" target="_top" xlink:title=" ">
<polygon fill="white" stroke="#666666" points="224.76,-132 145.76,-132 145.76,-112 224.76,-112 224.76,-132"/>
<text xml:space="preserve" text-anchor="middle" x="185.26" y="-118.5" font-family="Helvetica,sans-Serif" font-size="10.00">led_strip_spi.h</text>
</a>
</g>
</g>
<!-- Node1&#45;&gt;Node9 -->
<g id="edge12_Node000001_Node000009" class="edge">
<title>Node1&#45;&gt;Node9</title>
<g id="a_edge12_Node000001_Node000009"><a xlink:title=" ">
<path fill="none" stroke="#63b8ff" d="M250.5,-167.59C238.9,-159.67 222.06,-148.16 208.4,-138.82"/>
<polygon fill="#63b8ff" stroke="#63b8ff" points="210.61,-136.09 200.38,-133.33 206.66,-141.87 210.61,-136.09"/>
</a>
</g>
</g>
<!-- Node4 -->
<g id="Node000004" class="node">
<title>Node4</title>
<g id="a_Node000004"><a xlink:title=" ">
<polygon fill="#e0e0e0" stroke="#999999" points="300.01,-20 252.51,-20 252.51,0 300.01,0 300.01,-20"/>
<text xml:space="preserve" text-anchor="middle" x="276.26" y="-6.5" font-family="Helvetica,sans-Serif" font-size="10.00">stdlib.h</text>
</a>
</g>
</g>
<!-- Node3&#45;&gt;Node4 -->
<g id="edge3_Node000003_Node000004" class="edge">
<title>Node3&#45;&gt;Node4</title>
<g id="a_edge3_Node000003_Node000004"><a xlink:title=" ">
<path fill="none" stroke="#63b8ff" d="M276.26,-55.59C276.26,-49.01 276.26,-39.96 276.26,-31.73"/>
<polygon fill="#63b8ff" stroke="#63b8ff" points="279.76,-31.81 276.26,-21.81 272.76,-31.81 279.76,-31.81"/>
</a>
</g>
</g>
<!-- Node5&#45;&gt;Node2 -->
<g id="edge5_Node000005_Node000002" class="edge">
<title>Node5&#45;&gt;Node2</title>
<g id="a_edge5_Node000005_Node000002"><a xlink:title=" ">
<path fill="none" stroke="#63b8ff" d="M332.38,-111.94C332.04,-97.81 329.19,-70.63 313.26,-56 286.36,-31.3 181.95,-18.8 126.06,-13.77"/>
<polygon fill="#63b8ff" stroke="#63b8ff" points="126.36,-10.28 116.09,-12.91 125.76,-17.26 126.36,-10.28"/>
</a>
</g>
</g>
<!-- Node5&#45;&gt;Node3 -->
<g id="edge6_Node000005_Node000003" class="edge">
<title>Node5&#45;&gt;Node3</title>
<g id="a_edge6_Node000005_Node000003"><a xlink:title=" ">
<path fill="none" stroke="#63b8ff" d="M322.5,-111.59C314.64,-104.01 303.36,-93.13 293.91,-84.02"/>
<polygon fill="#63b8ff" stroke="#63b8ff" points="296.62,-81.77 286.99,-77.35 291.76,-86.81 296.62,-81.77"/>
</a>
</g>
</g>
<!-- Node6 -->
<g id="Node000006" class="node">
<title>Node6</title>
<g id="a_Node000006"><a xlink:href="led__strip__types_8h.html" target="_top" xlink:title=" ">
<polygon fill="white" stroke="#666666" points="230.38,-76 140.13,-76 140.13,-56 230.38,-56 230.38,-76"/>
<text xml:space="preserve" text-anchor="middle" x="185.26" y="-62.5" font-family="Helvetica,sans-Serif" font-size="10.00">led_strip_types.h</text>
</a>
</g>
</g>
<!-- Node5&#45;&gt;Node6 -->
<g id="edge7_Node000005_Node000006" class="edge">
<title>Node5&#45;&gt;Node6</title>
<g id="a_edge7_Node000005_Node000006"><a xlink:title=" ">
<path fill="none" stroke="#63b8ff" d="M306.65,-111.59C283.19,-102.97 248.19,-90.12 221.79,-80.42"/>
<polygon fill="#63b8ff" stroke="#63b8ff" points="223.08,-77.16 212.49,-77 220.67,-83.73 223.08,-77.16"/>
</a>
</g>
</g>
<!-- Node5&#45;&gt;Node7 -->
<g id="edge9_Node000005_Node000007" class="edge">
<title>Node5&#45;&gt;Node7</title>
<g id="a_edge9_Node000005_Node000007"><a xlink:title=" ">
<path fill="none" stroke="#63b8ff" d="M364.83,-111.59C395.48,-102.74 441.6,-89.43 475.46,-79.65"/>
<polygon fill="#63b8ff" stroke="#63b8ff" points="476.34,-83.04 484.98,-76.9 474.4,-76.31 476.34,-83.04"/>
</a>
</g>
</g>
<!-- Node8 -->
<g id="Node000008" class="node">
<title>Node8</title>
<g id="a_Node000008"><a xlink:title=" ">
<polygon fill="#e0e0e0" stroke="#999999" points="454.63,-76 359.88,-76 359.88,-56 454.63,-56 454.63,-76"/>
<text xml:space="preserve" text-anchor="middle" x="407.26" y="-62.5" font-family="Helvetica,sans-Serif" font-size="10.00">driver/rmt_types.h</text>
</a>
</g>
</g>
<!-- Node5&#45;&gt;Node8 -->
<g id="edge10_Node000005_Node000008" class="edge">
<title>Node5&#45;&gt;Node8</title>
<g id="a_edge10_Node000005_Node000008"><a xlink:title=" ">
<path fill="none" stroke="#63b8ff" d="M345.32,-111.59C356.23,-103.74 372.01,-92.38 384.91,-83.09"/>
<polygon fill="#63b8ff" stroke="#63b8ff" points="386.79,-86.05 392.87,-77.36 382.7,-80.37 386.79,-86.05"/>
</a>
</g>
</g>
<!-- Node6&#45;&gt;Node2 -->
<g id="edge8_Node000006_Node000002" class="edge">
<title>Node6&#45;&gt;Node2</title>
<g id="a_edge8_Node000006_Node000002"><a xlink:title=" ">
<path fill="none" stroke="#63b8ff" d="M168.71,-55.59C154.36,-47.44 133.33,-35.48 116.66,-26"/>
<polygon fill="#63b8ff" stroke="#63b8ff" points="118.68,-23.13 108.25,-21.23 115.22,-29.21 118.68,-23.13"/>
</a>
</g>
</g>
<!-- Node9&#45;&gt;Node2 -->
<g id="edge13_Node000009_Node000002" class="edge">
<title>Node9&#45;&gt;Node2</title>
<g id="a_edge13_Node000009_Node000002"><a xlink:title=" ">
<path fill="none" stroke="#63b8ff" d="M145.5,-116.21C99.88,-109.8 29.29,-96.77 13.26,-76 -3.12,-54.79 27.67,-35.69 55.04,-23.77"/>
<polygon fill="#63b8ff" stroke="#63b8ff" points="56.32,-27.03 64.24,-19.99 53.66,-20.55 56.32,-27.03"/>
</a>
</g>
</g>
<!-- Node9&#45;&gt;Node3 -->
<g id="edge14_Node000009_Node000003" class="edge">
<title>Node9&#45;&gt;Node3</title>
<g id="a_edge14_Node000009_Node000003"><a xlink:title=" ">
<path fill="none" stroke="#63b8ff" d="M201.11,-111.59C214.73,-103.51 234.62,-91.71 250.52,-82.27"/>
<polygon fill="#63b8ff" stroke="#63b8ff" points="252.17,-85.37 258.98,-77.25 248.6,-79.35 252.17,-85.37"/>
</a>
</g>
</g>
<!-- Node9&#45;&gt;Node6 -->
<g id="edge16_Node000009_Node000006" class="edge">
<title>Node9&#45;&gt;Node6</title>
<g id="a_edge16_Node000009_Node000006"><a xlink:title=" ">
<path fill="none" stroke="#63b8ff" d="M185.26,-111.59C185.26,-105.01 185.26,-95.96 185.26,-87.73"/>
<polygon fill="#63b8ff" stroke="#63b8ff" points="188.76,-87.81 185.26,-77.81 181.76,-87.81 188.76,-87.81"/>
</a>
</g>
</g>
<!-- Node10 -->
<g id="Node000010" class="node">
<title>Node10</title>
<g id="a_Node000010"><a xlink:title=" ">
<polygon fill="#e0e0e0" stroke="#999999" points="121.88,-76 22.63,-76 22.63,-56 121.88,-56 121.88,-76"/>
<text xml:space="preserve" text-anchor="middle" x="72.26" y="-62.5" font-family="Helvetica,sans-Serif" font-size="10.00">driver/spi_master.h</text>
</a>
</g>
</g>
<!-- Node9&#45;&gt;Node10 -->
<g id="edge15_Node000009_Node000010" class="edge">
<title>Node9&#45;&gt;Node10</title>
<g id="a_edge15_Node000009_Node000010"><a xlink:title=" ">
<path fill="none" stroke="#63b8ff" d="M165.58,-111.59C148.1,-103.24 122.31,-90.92 102.26,-81.34"/>
<polygon fill="#63b8ff" stroke="#63b8ff" points="103.99,-78.29 93.46,-77.13 100.98,-84.6 103.99,-78.29"/>
</a>
</g>
</g>
</g>
</svg>
