<?xml version="1.0" encoding="UTF-8" standalone="no"?>
<!DOCTYPE svg PUBLIC "-//W3C//DTD SVG 1.1//EN"
 "http://www.w3.org/Graphics/SVG/1.1/DTD/svg11.dtd">
<!-- Generated by graphviz version 14.1.2 (20260124.0452)
 -->
<!-- Title: led_strip_api.c Pages: 1 -->
<!--zoomable 252 -->

<svg id="main" version="1.1" xmlns="http://www.w3.org/2000/svg" xmlns:xlink="http://www.w3.org/1999/xlink" xml:space="preserve" onload="init(evt)">

<style type="text/css"><![CDATA[
.node, .edge {opacity: 0.7;}
.node.selected, .edge.selected {opacity: 1;}
.edge:hover path { stroke: red; }
.edge:hover polygon { stroke: red; fill: red; }
]]></style>

<defs>
  <circle id="rim" cx="0" cy="0" r="7"/>
  <circle id="rim2" cx="0" cy="0" r="3.5"/>
  <g id="zoomPlus">
    <use xlink:href="#rim" fill="#404040"><set attributeName="fill" to="#808080" begin="zoomplus.mouseover" end="zoomplus.mouseout"/></use>
    <path d="M-4,0h8M0,-4v8" fill="none" stroke="white" stroke-width="1.5" pointer-events="none"/>
  </g>
  <g id="zoomMin">
    <use xlink:href="#rim" fill="#404040"><set attributeName="fill" to="#808080" begin="zoomminus.mouseover" end="zoomminus.mouseout"/></use>
    <path d="M-4,0h8" fill="none" stroke="white" stroke-width="1.5" pointer-events="none"/>
  </g>
  <g id="arrowUp" transform="translate(30 24)">
    <use xlink:href="#rim"/>
    <path pointer-events="none" fill="none" stroke="white" stroke-width="1.5" d="M0,-3.0v7 M-2.5,-0.5L0,-3.0L2.5,-0.5"/>
  </g>
  <g id="arrowRight" transform="rotate(90) translate(36 -43)">
    <use xlink:href="#rim"/>
    <path pointer-events="none" fill="none" stroke="white" stroke-width="1.5" d="M0,-3.0v7 M-2.5,-0.5L0,-3.0L2.5,-0.5"/>
  </g>
  <g id="arrowDown" transform="rotate(180) translate(-30 -48)">
    <use xlink:href="#rim"/>
    <path pointer-events="none" fill="none" stroke="white" stroke-width="1.5" d="M0,-3.0v7 M-2.5,-0.5L0,-3.0L2.5,-0.5"/>
  </g>
  <g id="arrowLeft" transform="rotate(270) translate(-36 17)">
    <use xlink:href="#rim"/>
    <path pointer-events="none" fill="none" stroke="white" stroke-width="1.5" d="M0,-3.0v7 M-2.5,-0.5L0,-3.0L2.5,-0.5"/>
  </g>
  <g id="resetDef">
    <use xlink:href="#rim2" fill="#404040"><set attributeName="fill" to="#808080" begin="reset.mouseover" end="reset.mouseout"/></use>
  </g>
</defs>
<script type="application/ecmascript">
var viewWidth = 645;
var viewHeight = 252;
var sectionId = 'dynsection-0';
</script>
<script type="application/ecmascript" xlink:href="svg.min.js"/>
<svg id="graph" class="graph">
<g id="viewport">
<title>led_strip_api.c</title>
<!-- Node1 -->
<g id="Node000001" class="node">
<title>Node1</title>
<g id="a_Node000001"><a xlink:title=" ">
<polygon fill="#999999" stroke="#666666" points="221.25,-244 142.25,-244 142.25,-224 221.25,-224 221.25,-244"/>
<text xml:space="preserve" text-anchor="middle" x="181.75" y="-230.5" font-family="Helvetica,sans-Serif" font-size="10.00">led_strip_api.c</text>
</a>
</g>
</g>
<!-- Node2 -->
<g id="Node000002" class="node">
<title>Node2</title>
<g id="a_Node000002"><a xlink:href="esp__log_8h.html" target="_top" xlink:title=" ">
<polygon fill="white" stroke="#666666" points="61.75,-188 3.75,-188 3.75,-168 61.75,-168 61.75,-188"/>
<text xml:space="preserve" text-anchor="middle" x="32.75" y="-174.5" font-family="Helvetica,sans-Serif" font-size="10.00">esp_log.h</text>
</a>
</g>
</g>
<!-- Node1&#45;&gt;Node2 -->
<g id="edge1_Node000001_Node000002" class="edge">
<title>Node1&#45;&gt;Node2</title>
<g id="a_edge1_Node000001_Node000002"><a xlink:title=" ">
<path fill="none" stroke="#63b8ff" d="M155.8,-223.59C131.91,-214.94 96.22,-202 69.42,-192.29"/>
<polygon fill="#63b8ff" stroke="#63b8ff" points="70.92,-189.11 60.33,-189 68.54,-195.69 70.92,-189.11"/>
</a>
</g>
</g>
<!-- Node4 -->
<g id="Node000004" class="node">
<title>Node4</title>
<g id="a_Node000004"><a xlink:title=" ">
<polygon fill="#e0e0e0" stroke="#999999" points="338.5,-188 267,-188 267,-168 338.5,-168 338.5,-188"/>
<text xml:space="preserve" text-anchor="middle" x="302.75" y="-174.5" font-family="Helvetica,sans-Serif" font-size="10.00">esp_check.h</text>
</a>
</g>
</g>
<!-- Node1&#45;&gt;Node4 -->
<g id="edge3_Node000001_Node000004" class="edge">
<title>Node1&#45;&gt;Node4</title>
<g id="a_edge3_Node000001_Node000004"><a xlink:title=" ">
<path fill="none" stroke="#63b8ff" d="M202.83,-223.59C221.71,-215.17 249.67,-202.69 271.21,-193.07"/>
<polygon fill="#63b8ff" stroke="#63b8ff" points="272.42,-196.37 280.13,-189.1 269.57,-189.98 272.42,-196.37"/>
</a>
</g>
</g>
<!-- Node5 -->
<g id="Node000005" class="node">
<title>Node5</title>
<g id="a_Node000005"><a xlink:href="led__strip_8h.html" target="_top" xlink:title=" ">
<polygon fill="white" stroke="#666666" points="249.25,-188 188.25,-188 188.25,-168 249.25,-168 249.25,-188"/>
<text xml:space="preserve" text-anchor="middle" x="218.75" y="-174.5" font-family="Helvetica,sans-Serif" font-size="10.00">led_strip.h</text>
</a>
</g>
</g>
<!-- Node1&#45;&gt;Node5 -->
<g id="edge4_Node000001_Node000005" class="edge">
<title>Node1&#45;&gt;Node5</title>
<g id="a_edge4_Node000001_Node000005"><a xlink:title=" ">
<path fill="none" stroke="#63b8ff" d="M188.19,-223.59C193.08,-216.47 199.94,-206.45 205.93,-197.72"/>
<polygon fill="#63b8ff" stroke="#63b8ff" points="208.76,-199.77 211.52,-189.55 202.98,-195.82 208.76,-199.77"/>
</a>
</g>
</g>
<!-- Node14 -->
<g id="Node000014" class="node">
<title>Node14</title>
<g id="a_Node000014"><a xlink:href="led__strip__interface_8h.html" target="_top" xlink:title=" ">
<polygon fill="white" stroke="#666666" points="122.62,-132 18.88,-132 18.88,-112 122.62,-112 122.62,-132"/>
<text xml:space="preserve" text-anchor="middle" x="70.75" y="-118.5" font-family="Helvetica,sans-Serif" font-size="10.00">led_strip_interface.h</text>
</a>
</g>
</g>
<!-- Node1&#45;&gt;Node14 -->
<g id="edge21_Node000001_Node000014" class="edge">
<title>Node1&#45;&gt;Node14</title>
<g id="a_edge21_Node000001_Node000014"><a xlink:title=" ">
<path fill="none" stroke="#63b8ff" d="M172.29,-223.62C153.69,-205.19 112.13,-164.01 88.35,-140.44"/>
<polygon fill="#63b8ff" stroke="#63b8ff" points="90.83,-137.97 81.26,-133.42 85.9,-142.95 90.83,-137.97"/>
</a>
</g>
</g>
<!-- Node3 -->
<g id="Node000003" class="node">
<title>Node3</title>
<g id="a_Node000003"><a xlink:title=" ">
<polygon fill="#e0e0e0" stroke="#999999" points="47.5,-20 0,-20 0,0 47.5,0 47.5,-20"/>
<text xml:space="preserve" text-anchor="middle" x="23.75" y="-6.5" font-family="Helvetica,sans-Serif" font-size="10.00">stdlib.h</text>
</a>
</g>
</g>
<!-- Node2&#45;&gt;Node3 -->
<g id="edge2_Node000002_Node000003" class="edge">
<title>Node2&#45;&gt;Node3</title>
<g id="a_edge2_Node000002_Node000003"><a xlink:title=" ">
<path fill="none" stroke="#63b8ff" d="M26.21,-167.52C20.59,-158.75 12.91,-145.14 9.75,-132 1.36,-97.16 10.21,-55.42 17.16,-31.19"/>
<polygon fill="#63b8ff" stroke="#63b8ff" points="20.48,-32.27 20.07,-21.69 13.79,-30.22 20.48,-32.27"/>
</a>
</g>
</g>
<!-- Node6 -->
<g id="Node000006" class="node">
<title>Node6</title>
<g id="a_Node000006"><a xlink:title=" ">
<polygon fill="#e0e0e0" stroke="#999999" points="341.88,-20 293.62,-20 293.62,0 341.88,0 341.88,-20"/>
<text xml:space="preserve" text-anchor="middle" x="317.75" y="-6.5" font-family="Helvetica,sans-Serif" font-size="10.00">stdint.h</text>
</a>
</g>
</g>
<!-- Node5&#45;&gt;Node6 -->
<g id="edge5_Node000005_Node000006" class="edge">
<title>Node5&#45;&gt;Node6</title>
<g id="a_edge5_Node000005_Node000006"><a xlink:title=" ">
<path fill="none" stroke="#63b8ff" d="M249.38,-169.79C252.2,-169.17 255.03,-168.56 257.75,-168 425.82,-133.35 531.34,-214.44 632.75,-76 638,-68.83 638.57,-62.72 632.75,-56 596.93,-14.7 428.23,-10.36 353.51,-10.52"/>
<polygon fill="#63b8ff" stroke="#63b8ff" points="353.86,-7.02 343.88,-10.57 353.89,-14.02 353.86,-7.02"/>
</a>
</g>
</g>
<!-- Node7 -->
<g id="Node000007" class="node">
<title>Node7</title>
<g id="a_Node000007"><a xlink:href="esp__err_8h.html" target="_top" xlink:title=" ">
<polygon fill="white" stroke="#666666" points="99,-76 42.5,-76 42.5,-56 99,-56 99,-76"/>
<text xml:space="preserve" text-anchor="middle" x="70.75" y="-62.5" font-family="Helvetica,sans-Serif" font-size="10.00">esp_err.h</text>
</a>
</g>
</g>
<!-- Node5&#45;&gt;Node7 -->
<g id="edge6_Node000005_Node000007" class="edge">
<title>Node5&#45;&gt;Node7</title>
<g id="a_edge6_Node000005_Node000007"><a xlink:title=" ">
<path fill="none" stroke="#63b8ff" d="M206.09,-167.5C189.17,-154.82 158.24,-131.67 131.75,-112 118.71,-102.32 104.06,-91.51 92.39,-82.91"/>
<polygon fill="#63b8ff" stroke="#63b8ff" points="94.73,-80.29 84.6,-77.18 90.58,-85.93 94.73,-80.29"/>
</a>
</g>
</g>
<!-- Node8 -->
<g id="Node000008" class="node">
<title>Node8</title>
<g id="a_Node000008"><a xlink:href="led__strip__rmt_8h.html" target="_top" xlink:title=" ">
<polygon fill="white" stroke="#666666" points="406,-132 325.5,-132 325.5,-112 406,-112 406,-132"/>
<text xml:space="preserve" text-anchor="middle" x="365.75" y="-118.5" font-family="Helvetica,sans-Serif" font-size="10.00">led_strip_rmt.h</text>
</a>
</g>
</g>
<!-- Node5&#45;&gt;Node8 -->
<g id="edge8_Node000005_Node000008" class="edge">
<title>Node5&#45;&gt;Node8</title>
<g id="a_edge8_Node000005_Node000008"><a xlink:title=" ">
<path fill="none" stroke="#63b8ff" d="M244.36,-167.59C267.82,-158.97 302.82,-146.12 329.22,-136.42"/>
<polygon fill="#63b8ff" stroke="#63b8ff" points="330.34,-139.73 338.52,-133 327.93,-133.16 330.34,-139.73"/>
</a>
</g>
</g>
<!-- Node10 -->
<g id="Node000010" class="node">
<title>Node10</title>
<g id="a_Node000010"><a xlink:title=" ">
<polygon fill="#e0e0e0" stroke="#999999" points="624,-76 531.5,-76 531.5,-56 624,-56 624,-76"/>
<text xml:space="preserve" text-anchor="middle" x="577.75" y="-62.5" font-family="Helvetica,sans-Serif" font-size="10.00">esp_idf_version.h</text>
</a>
</g>
</g>
<!-- Node5&#45;&gt;Node10 -->
<g id="edge15_Node000005_Node000010" class="edge">
<title>Node5&#45;&gt;Node10</title>
<g id="a_edge15_Node000005_Node000010"><a xlink:title=" ">
<path fill="none" stroke="#63b8ff" d="M249.41,-169.92C252.23,-169.27 255.04,-168.62 257.75,-168 327.52,-151.95 346.41,-153.32 414.75,-132 461.78,-117.33 514.44,-95.25 546.85,-80.98"/>
<polygon fill="#63b8ff" stroke="#63b8ff" points="547.92,-84.34 555.64,-77.08 545.08,-77.94 547.92,-84.34"/>
</a>
</g>
</g>
<!-- Node12 -->
<g id="Node000012" class="node">
<title>Node12</title>
<g id="a_Node000012"><a xlink:href="led__strip__spi_8h.html" target="_top" xlink:title=" ">
<polygon fill="white" stroke="#666666" points="258.25,-132 179.25,-132 179.25,-112 258.25,-112 258.25,-132"/>
<text xml:space="preserve" text-anchor="middle" x="218.75" y="-118.5" font-family="Helvetica,sans-Serif" font-size="10.00">led_strip_spi.h</text>
</a>
</g>
</g>
<!-- Node5&#45;&gt;Node12 -->
<g id="edge16_Node000005_Node000012" class="edge">
<title>Node5&#45;&gt;Node12</title>
<g id="a_edge16_Node000005_Node000012"><a xlink:title=" ">
<path fill="none" stroke="#63b8ff" d="M218.75,-167.59C218.75,-161.01 218.75,-151.96 218.75,-143.73"/>
<polygon fill="#63b8ff" stroke="#63b8ff" points="222.25,-143.81 218.75,-133.81 215.25,-143.81 222.25,-143.81"/>
</a>
</g>
</g>
<!-- Node7&#45;&gt;Node3 -->
<g id="edge7_Node000007_Node000003" class="edge">
<title>Node7&#45;&gt;Node3</title>
<g id="a_edge7_Node000007_Node000003"><a xlink:title=" ">
<path fill="none" stroke="#63b8ff" d="M62.56,-55.59C56.16,-48.24 47.07,-37.8 39.3,-28.87"/>
<polygon fill="#63b8ff" stroke="#63b8ff" points="42.04,-26.69 32.84,-21.44 36.76,-31.28 42.04,-26.69"/>
</a>
</g>
</g>
<!-- Node8&#45;&gt;Node6 -->
<g id="edge9_Node000008_Node000006" class="edge">
<title>Node8&#45;&gt;Node6</title>
<g id="a_edge9_Node000008_Node000006"><a xlink:title=" ">
<path fill="none" stroke="#63b8ff" d="M406.41,-114.45C449.69,-105.68 508.88,-87.49 484.75,-56 468.87,-35.27 397.46,-21.93 353.32,-15.52"/>
<polygon fill="#63b8ff" stroke="#63b8ff" points="354.09,-12.09 343.7,-14.17 353.12,-19.02 354.09,-12.09"/>
</a>
</g>
</g>
<!-- Node8&#45;&gt;Node7 -->
<g id="edge10_Node000008_Node000007" class="edge">
<title>Node8&#45;&gt;Node7</title>
<g id="a_edge10_Node000008_Node000007"><a xlink:title=" ">
<path fill="none" stroke="#63b8ff" d="M325.37,-114.8C276.64,-107.14 191.98,-93.23 110.36,-76.44"/>
<polygon fill="#63b8ff" stroke="#63b8ff" points="111.38,-73.08 100.87,-74.47 109.95,-79.93 111.38,-73.08"/>
</a>
</g>
</g>
<!-- Node9 -->
<g id="Node000009" class="node">
<title>Node9</title>
<g id="a_Node000009"><a xlink:href="led__strip__types_8h.html" target="_top" xlink:title=" ">
<polygon fill="white" stroke="#666666" points="362.88,-76 272.62,-76 272.62,-56 362.88,-56 362.88,-76"/>
<text xml:space="preserve" text-anchor="middle" x="317.75" y="-62.5" font-family="Helvetica,sans-Serif" font-size="10.00">led_strip_types.h</text>
</a>
</g>
</g>
<!-- Node8&#45;&gt;Node9 -->
<g id="edge11_Node000008_Node000009" class="edge">
<title>Node8&#45;&gt;Node9</title>
<g id="a_edge11_Node000008_Node000009"><a xlink:title=" ">
<path fill="none" stroke="#63b8ff" d="M357.39,-111.59C350.85,-104.24 341.57,-93.8 333.63,-84.87"/>
<polygon fill="#63b8ff" stroke="#63b8ff" points="336.28,-82.58 327.02,-77.43 331.05,-87.23 336.28,-82.58"/>
</a>
</g>
</g>
<!-- Node8&#45;&gt;Node10 -->
<g id="edge13_Node000008_Node000010" class="edge">
<title>Node8&#45;&gt;Node10</title>
<g id="a_edge13_Node000008_Node000010"><a xlink:title=" ">
<path fill="none" stroke="#63b8ff" d="M402.68,-111.59C437.88,-102.63 491.07,-89.08 529.59,-79.27"/>
<polygon fill="#63b8ff" stroke="#63b8ff" points="530.24,-82.71 539.07,-76.85 528.51,-75.93 530.24,-82.71"/>
</a>
</g>
</g>
<!-- Node11 -->
<g id="Node000011" class="node">
<title>Node11</title>
<g id="a_Node000011"><a xlink:title=" ">
<polygon fill="#e0e0e0" stroke="#999999" points="476.12,-76 381.38,-76 381.38,-56 476.12,-56 476.12,-76"/>
<text xml:space="preserve" text-anchor="middle" x="428.75" y="-62.5" font-family="Helvetica,sans-Serif" font-size="10.00">driver/rmt_types.h</text>
</a>
</g>
</g>
<!-- Node8&#45;&gt;Node11 -->
<g id="edge14_Node000008_Node000011" class="edge">
<title>Node8&#45;&gt;Node11</title>
<g id="a_edge14_Node000008_Node000011"><a xlink:title=" ">
<path fill="none" stroke="#63b8ff" d="M376.72,-111.59C385.67,-103.93 398.52,-92.91 409.21,-83.75"/>
<polygon fill="#63b8ff" stroke="#63b8ff" points="411.44,-86.45 416.75,-77.28 406.88,-81.13 411.44,-86.45"/>
</a>
</g>
</g>
<!-- Node9&#45;&gt;Node6 -->
<g id="edge12_Node000009_Node000006" class="edge">
<title>Node9&#45;&gt;Node6</title>
<g id="a_edge12_Node000009_Node000006"><a xlink:title=" ">
<path fill="none" stroke="#63b8ff" d="M317.75,-55.59C317.75,-49.01 317.75,-39.96 317.75,-31.73"/>
<polygon fill="#63b8ff" stroke="#63b8ff" points="321.25,-31.81 317.75,-21.81 314.25,-31.81 321.25,-31.81"/>
</a>
</g>
</g>
<!-- Node12&#45;&gt;Node6 -->
<g id="edge17_Node000012_Node000006" class="edge">
<title>Node12&#45;&gt;Node6</title>
<g id="a_edge17_Node000012_Node000006"><a xlink:title=" ">
<path fill="none" stroke="#63b8ff" d="M224.15,-111.6C231.95,-98.41 247.26,-74.03 263.75,-56 273.24,-45.63 285.12,-35.48 295.32,-27.45"/>
<polygon fill="#63b8ff" stroke="#63b8ff" points="297.43,-30.24 303.25,-21.39 293.18,-24.68 297.43,-30.24"/>
</a>
</g>
</g>
<!-- Node12&#45;&gt;Node7 -->
<g id="edge18_Node000012_Node000007" class="edge">
<title>Node12&#45;&gt;Node7</title>
<g id="a_edge18_Node000012_Node000007"><a xlink:title=" ">
<path fill="none" stroke="#63b8ff" d="M192.97,-111.59C169.35,-102.97 134.11,-90.12 107.53,-80.42"/>
<polygon fill="#63b8ff" stroke="#63b8ff" points="108.75,-77.14 98.15,-77 106.35,-83.71 108.75,-77.14"/>
</a>
</g>
</g>
<!-- Node12&#45;&gt;Node9 -->
<g id="edge20_Node000012_Node000009" class="edge">
<title>Node12&#45;&gt;Node9</title>
<g id="a_edge20_Node000012_Node000009"><a xlink:title=" ">
<path fill="none" stroke="#63b8ff" d="M235.99,-111.59C251.09,-103.36 273.28,-91.26 290.73,-81.74"/>
<polygon fill="#63b8ff" stroke="#63b8ff" points="291.94,-85.07 299.04,-77.2 288.59,-78.92 291.94,-85.07"/>
</a>
</g>
</g>
<!-- Node13 -->
<g id="Node000013" class="node">
<title>Node13</title>
<g id="a_Node000013"><a xlink:title=" ">
<polygon fill="#e0e0e0" stroke="#999999" points="216.38,-76 117.12,-76 117.12,-56 216.38,-56 216.38,-76"/>
<text xml:space="preserve" text-anchor="middle" x="166.75" y="-62.5" font-family="Helvetica,sans-Serif" font-size="10.00">driver/spi_master.h</text>
</a>
</g>
</g>
<!-- Node12&#45;&gt;Node13 -->
<g id="edge19_Node000012_Node000013" class="edge">
<title>Node12&#45;&gt;Node13</title>
<g id="a_edge19_Node000012_Node000013"><a xlink:title=" ">
<path fill="none" stroke="#63b8ff" d="M209.69,-111.59C202.53,-104.16 192.34,-93.58 183.68,-84.58"/>
<polygon fill="#63b8ff" stroke="#63b8ff" points="186.21,-82.16 176.75,-77.39 181.17,-87.02 186.21,-82.16"/>
</a>
</g>
</g>
<!-- Node14&#45;&gt;Node6 -->
<g id="edge22_Node000014_Node000006" class="edge">
<title>Node14&#45;&gt;Node6</title>
<g id="a_edge22_Node000014_Node000006"><a xlink:title=" ">
<path fill="none" stroke="#63b8ff" d="M58.62,-111.69C42.76,-98.41 18.66,-73.67 33.75,-56 65.32,-19.04 213.19,-12.27 282.16,-11.15"/>
<polygon fill="#63b8ff" stroke="#63b8ff" points="281.83,-14.65 291.79,-11.02 281.74,-7.65 281.83,-14.65"/>
</a>
</g>
</g>
<!-- Node14&#45;&gt;Node7 -->
<g id="edge23_Node000014_Node000007" class="edge">
<title>Node14&#45;&gt;Node7</title>
<g id="a_edge23_Node000014_Node000007"><a xlink:title=" ">
<path fill="none" stroke="#63b8ff" d="M70.75,-111.59C70.75,-105.01 70.75,-95.96 70.75,-87.73"/>
<polygon fill="#63b8ff" stroke="#63b8ff" points="74.25,-87.81 70.75,-77.81 67.25,-87.81 74.25,-87.81"/>
</a>
</g>
</g>
</g>
</svg>

<g id="navigator" transform="translate(0 0)" fill="#404254">
  <rect fill="#f2f5e9" fill-opacity="0.5" stroke="#606060" stroke-width=".5" x="0" y="0" width="60" height="60"/>
  <use id="zoomplus" xlink:href="#zoomPlus" x="17" y="9" onmousedown="handleZoom(evt,'in')"/>
  <use id="zoomminus" xlink:href="#zoomMin" x="42" y="9" onmousedown="handleZoom(evt,'out')"/>
  <use id="reset" xlink:href="#resetDef" x="30" y="36" onmousedown="handleReset()"/>
   <use id="arrowup" xlink:href="#arrowUp" x="0" y="0" onmousedown="handlePan(0,-1)"/>
  <use id="arrowright" xlink:href="#arrowRight" x="0" y="0" onmousedown="handlePan(1,0)"/>
  <use id="arrowdown" xlink:href="#arrowDown" x="0" y="0" onmousedown="handlePan(0,1)"/>
  <use id="arrowleft" xlink:href="#arrowLeft" x="0" y="0" onmousedown="handlePan(-1,0)"/>
</g>
<svg viewBox="0 0 15 15" width="100%" height="30px" preserveAspectRatio="xMaxYMin meet">
 <g id="arrow_out" transform="scale(0.3 0.3)">
  <a xlink:href="led__strip__api_8c__incl_org.svg" target="_base">
   <rect id="button" ry="5" rx="5" y="6" x="6" height="38" width="38"
        fill="#f2f5e9" fill-opacity="0.5" stroke="#606060" stroke-width="1.0"/>
   <path id="arrow"
     d="M 11.500037,31.436501 C 11.940474,20.09759 22.043105,11.32322 32.158766,21.979434 L 37.068811,17.246167 C 37.068811,17.246167 37.088388,32 37.088388,32 L 22.160133,31.978069 C 22.160133,31.978069 26.997745,27.140456 26.997745,27.140456 C 18.528582,18.264221 13.291696,25.230495 11.500037,31.436501 z"
     style="fill:#404040;"/>
  </a>
 </g>
</svg>

<style type='text/css'>
<![CDATA[
[data-mouse-over-selected='false'] { opacity: 0.7; }
[data-mouse-over-selected='true']  { opacity: 1.0; }
]]>
</style>
<script type="application/ecmascript"><![CDATA[
document.addEventListener('DOMContentLoaded', (event) => {
  highlightEdges();
  highlightAdjacentNodes();
});
]]></script>
</svg>
