<?xml version="1.0" encoding="UTF-8" standalone="no"?>
<!DOCTYPE svg PUBLIC "-//W3C//DTD SVG 1.1//EN"
 "http://www.w3.org/Graphics/SVG/1.1/DTD/svg11.dtd">
<!-- Generated by graphviz version 14.1.2 (20260124.0452)
 -->
<!-- Title: led_strip_set_pixel Pages: 1 -->
<svg width="304pt" height="28pt"
 viewBox="0.00 0.00 304.00 28.00" xmlns="http://www.w3.org/2000/svg" xmlns:xlink="http://www.w3.org/1999/xlink">
<g id="graph0" class="graph" transform="scale(1 1) rotate(0) translate(4 24)">
<title>led_strip_set_pixel</title>
<!-- Node1 -->
<g id="Node000001" class="node">
<title>Node1</title>
<g id="a_Node000001"><a xlink:title="Set RGB for a specific pixel.">
<polygon fill="#999999" stroke="#666666" points="296.25,-20 199.25,-20 199.25,0 296.25,0 296.25,-20"/>
<text xml:space="preserve" text-anchor="middle" x="247.75" y="-6.5" font-family="Helvetica,sans-Serif" font-size="10.00">led_strip_set_pixel</text>
</a>
</g>
</g>
<!-- Node2 -->
<g id="Node000002" class="node">
<title>Node2</title>
<g id="a_Node000002"><a xlink:href="main_2main_8c.html#ad159bf0147cc4f5288bae8edf3a846e5" target="_top" xlink:title=" ">
<polygon fill="white" stroke="#666666" points="163.25,-20 94,-20 94,0 163.25,0 163.25,-20"/>
<text xml:space="preserve" text-anchor="middle" x="128.62" y="-6.5" font-family="Helvetica,sans-Serif" font-size="10.00">cdc_tx_task</text>
</a>
</g>
</g>
<!-- Node1&#45;&gt;Node2 -->
<g id="edge1_Node000001_Node000002" class="edge">
<title>Node1&#45;&gt;Node2</title>
<g id="a_edge1_Node000001_Node000002"><a xlink:title=" ">
<path fill="none" stroke="#63b8ff" d="M187.37,-10C179.26,-10 171.18,-10 163.73,-10"/>
<polygon fill="#63b8ff" stroke="#63b8ff" points="187.26,-13.5 197.26,-10 187.26,-6.5 187.26,-13.5"/>
</a>
</g>
</g>
<!-- Node3 -->
<g id="Node000003" class="node">
<title>Node3</title>
<g id="a_Node000003"><a xlink:href="main_2main_8c.html#a630544a7f0a2cc40d8a7fefab7e2fe70" target="_top" xlink:title=" ">
<polygon fill="white" stroke="#666666" points="58,-20 0,-20 0,0 58,0 58,-20"/>
<text xml:space="preserve" text-anchor="middle" x="29" y="-6.5" font-family="Helvetica,sans-Serif" font-size="10.00">app_main</text>
</a>
</g>
</g>
<!-- Node2&#45;&gt;Node3 -->
<g id="edge2_Node000002_Node000003" class="edge">
<title>Node2&#45;&gt;Node3</title>
<g id="a_edge2_Node000002_Node000003"><a xlink:title=" ">
<path fill="none" stroke="#63b8ff" d="M82.36,-10C74.16,-10 65.84,-10 58.31,-10"/>
<polygon fill="#63b8ff" stroke="#63b8ff" points="82.24,-13.5 92.24,-10 82.24,-6.5 82.24,-13.5"/>
</a>
</g>
</g>
</g>
</svg>
