<?xml version="1.0" encoding="UTF-8" standalone="no"?>
<!DOCTYPE svg PUBLIC "-//W3C//DTD SVG 1.1//EN"
 "http://www.w3.org/Graphics/SVG/1.1/DTD/svg11.dtd">
<!-- Generated by graphviz version 14.1.2 (20260124.0452)
 -->
<!-- Title: led_strip_rmt_encoder.h Pages: 1 -->
<svg width="234pt" height="140pt"
 viewBox="0.00 0.00 234.00 140.00" xmlns="http://www.w3.org/2000/svg" xmlns:xlink="http://www.w3.org/1999/xlink">

<svg id="main" version="1.1" xmlns="http://www.w3.org/2000/svg" xmlns:xlink="http://www.w3.org/1999/xlink" xml:space="preserve">

<style type="text/css"><![CDATA[
.node, .edge {opacity: 0.7;}
.node.selected, .edge.selected {opacity: 1;}
.edge:hover path { stroke: red; }
.edge:hover polygon { stroke: red; fill: red; }
]]></style>
<script type="application/ecmascript" xlink:href="svg.min.js"/>
<svg id="graph" class="graph">
<g id="graph0" class="graph" transform="scale(1 1) rotate(0) translate(4 136)">
<title>led_strip_rmt_encoder.h</title>
<!-- Node1 -->
<g id="Node000001" class="node">
<title>Node1</title>
<g id="a_Node000001"><a xlink:title=" ">
<polygon fill="#999999" stroke="#666666" points="125.48,-132 5.23,-132 5.23,-112 125.48,-112 125.48,-132"/>
<text xml:space="preserve" text-anchor="middle" x="65.35" y="-118.5" font-family="Helvetica,sans-Serif" font-size="10.00">led_strip_rmt_encoder.h</text>
</a>
</g>
</g>
<!-- Node2 -->
<g id="Node000002" class="node">
<title>Node2</title>
<g id="a_Node000002"><a xlink:title=" ">
<polygon fill="#e0e0e0" stroke="#999999" points="106.48,-20 58.23,-20 58.23,0 106.48,0 106.48,-20"/>
<text xml:space="preserve" text-anchor="middle" x="82.35" y="-6.5" font-family="Helvetica,sans-Serif" font-size="10.00">stdint.h</text>
</a>
</g>
</g>
<!-- Node1&#45;&gt;Node2 -->
<g id="edge1_Node000001_Node000002" class="edge">
<title>Node1&#45;&gt;Node2</title>
<g id="a_edge1_Node000001_Node000002"><a xlink:title=" ">
<path fill="none" stroke="#63b8ff" d="M44.55,-111.68C21.74,-100.06 -9.97,-78.92 3.35,-56 12.92,-39.54 31,-28.61 47.45,-21.64"/>
<polygon fill="#63b8ff" stroke="#63b8ff" points="48.43,-25.01 56.51,-18.16 45.92,-18.48 48.43,-25.01"/>
</a>
</g>
</g>
<!-- Node3 -->
<g id="Node000003" class="node">
<title>Node3</title>
<g id="a_Node000003"><a xlink:title=" ">
<polygon fill="#e0e0e0" stroke="#999999" points="117.98,-76 12.73,-76 12.73,-56 117.98,-56 117.98,-76"/>
<text xml:space="preserve" text-anchor="middle" x="65.35" y="-62.5" font-family="Helvetica,sans-Serif" font-size="10.00">driver/rmt_encoder.h</text>
</a>
</g>
</g>
<!-- Node1&#45;&gt;Node3 -->
<g id="edge2_Node000001_Node000003" class="edge">
<title>Node1&#45;&gt;Node3</title>
<g id="a_edge2_Node000001_Node000003"><a xlink:title=" ">
<path fill="none" stroke="#63b8ff" d="M65.35,-111.59C65.35,-105.01 65.35,-95.96 65.35,-87.73"/>
<polygon fill="#63b8ff" stroke="#63b8ff" points="68.85,-87.81 65.35,-77.81 61.85,-87.81 68.85,-87.81"/>
</a>
</g>
</g>
<!-- Node4 -->
<g id="Node000004" class="node">
<title>Node4</title>
<g id="a_Node000004"><a xlink:href="led__strip__types_8h.html" target="_top" xlink:title=" ">
<polygon fill="white" stroke="#666666" points="226.48,-76 136.23,-76 136.23,-56 226.48,-56 226.48,-76"/>
<text xml:space="preserve" text-anchor="middle" x="181.35" y="-62.5" font-family="Helvetica,sans-Serif" font-size="10.00">led_strip_types.h</text>
</a>
</g>
</g>
<!-- Node1&#45;&gt;Node4 -->
<g id="edge3_Node000001_Node000004" class="edge">
<title>Node1&#45;&gt;Node4</title>
<g id="a_edge3_Node000001_Node000004"><a xlink:title=" ">
<path fill="none" stroke="#63b8ff" d="M85.56,-111.59C103.58,-103.21 130.22,-90.8 150.84,-81.21"/>
<polygon fill="#63b8ff" stroke="#63b8ff" points="152.03,-84.51 159.62,-77.12 149.08,-78.17 152.03,-84.51"/>
</a>
</g>
</g>
<!-- Node4&#45;&gt;Node2 -->
<g id="edge4_Node000004_Node000002" class="edge">
<title>Node4&#45;&gt;Node2</title>
<g id="a_edge4_Node000004_Node000002"><a xlink:title=" ">
<path fill="none" stroke="#63b8ff" d="M164.11,-55.59C149.01,-47.36 126.82,-35.26 109.37,-25.74"/>
<polygon fill="#63b8ff" stroke="#63b8ff" points="111.52,-22.92 101.06,-21.2 108.16,-29.07 111.52,-22.92"/>
</a>
</g>
</g>
</g>
</svg>
</svg>

<style type='text/css'>
<![CDATA[
[data-mouse-over-selected='false'] { opacity: 0.7; }
[data-mouse-over-selected='true']  { opacity: 1.0; }
]]>
</style>
<script type="application/ecmascript"><![CDATA[
document.addEventListener('DOMContentLoaded', (event) => {
  highlightEdges();
  highlightAdjacentNodes();
});
]]></script>
</svg>
