<?xml version="1.0" encoding="UTF-8" standalone="no"?>
<!DOCTYPE svg PUBLIC "-//W3C//DTD SVG 1.1//EN"
 "http://www.w3.org/Graphics/SVG/1.1/DTD/svg11.dtd">
<!-- Generated by graphviz version 14.1.2 (20260124.0452)
 -->
<!-- Title: rmt_encode_led_strip Pages: 1 -->
<svg width="454pt" height="28pt"
 viewBox="0.00 0.00 454.00 28.00" xmlns="http://www.w3.org/2000/svg" xmlns:xlink="http://www.w3.org/1999/xlink">
<g id="graph0" class="graph" transform="scale(1 1) rotate(0) translate(4 24)">
<title>rmt_encode_led_strip</title>
<!-- Node1 -->
<g id="Node000001" class="node">
<title>Node1</title>
<g id="a_Node000001"><a xlink:title=" ">
<polygon fill="#999999" stroke="#666666" points="445.5,-20 336.5,-20 336.5,0 445.5,0 445.5,-20"/>
<text xml:space="preserve" text-anchor="middle" x="391" y="-6.5" font-family="Helvetica,sans-Serif" font-size="10.00">rmt_encode_led_strip</text>
</a>
</g>
</g>
<!-- Node2 -->
<g id="Node000002" class="node">
<title>Node2</title>
<g id="a_Node000002"><a xlink:href="led__strip__rmt__encoder_8c.html#a367480d48d10d4288ae0ea8078b771f5" target="_top" xlink:title="Create RMT encoder for encoding LED strip pixels into RMT symbols.">
<polygon fill="white" stroke="#666666" points="300.5,-20 165.25,-20 165.25,0 300.5,0 300.5,-20"/>
<text xml:space="preserve" text-anchor="middle" x="232.88" y="-6.5" font-family="Helvetica,sans-Serif" font-size="10.00">rmt_new_led_strip_encoder</text>
</a>
</g>
</g>
<!-- Node1&#45;&gt;Node2 -->
<g id="edge1_Node000001_Node000002" class="edge">
<title>Node1&#45;&gt;Node2</title>
<g id="a_edge1_Node000001_Node000002"><a xlink:title=" ">
<path fill="none" stroke="#63b8ff" d="M324.86,-10C316.96,-10 308.87,-10 300.94,-10"/>
<polygon fill="#63b8ff" stroke="#63b8ff" points="324.76,-13.5 334.76,-10 324.76,-6.5 324.76,-13.5"/>
</a>
</g>
</g>
<!-- Node3 -->
<g id="Node000003" class="node">
<title>Node3</title>
<g id="a_Node000003"><a xlink:href="led__strip__rmt__dev__idf4_8c.html#ae4d64fa8ea126d15a1692124551f4d31" target="_top" xlink:title="Create LED strip based on RMT TX channel.">
<polygon fill="white" stroke="#666666" points="129.25,-20 0,-20 0,0 129.25,0 129.25,-20"/>
<text xml:space="preserve" text-anchor="middle" x="64.62" y="-6.5" font-family="Helvetica,sans-Serif" font-size="10.00">led_strip_new_rmt_device</text>
</a>
</g>
</g>
<!-- Node2&#45;&gt;Node3 -->
<g id="edge2_Node000002_Node000003" class="edge">
<title>Node2&#45;&gt;Node3</title>
<g id="a_edge2_Node000002_Node000003"><a xlink:title=" ">
<path fill="none" stroke="#63b8ff" d="M153.82,-10C145.71,-10 137.53,-10 129.6,-10"/>
<polygon fill="#63b8ff" stroke="#63b8ff" points="153.7,-13.5 163.7,-10 153.7,-6.5 153.7,-13.5"/>
</a>
</g>
</g>
</g>
</svg>
