<?xml version="1.0" encoding="UTF-8" standalone="no"?>
<!DOCTYPE svg PUBLIC "-//W3C//DTD SVG 1.1//EN"
 "http://www.w3.org/Graphics/SVG/1.1/DTD/svg11.dtd">
<!-- Generated by graphviz version 14.1.2 (20260124.0452)
 -->
<!-- Title: adc_fft_task Pages: 1 -->
<svg width="431pt" height="218pt"
 viewBox="0.00 0.00 431.00 218.00" xmlns="http://www.w3.org/2000/svg" xmlns:xlink="http://www.w3.org/1999/xlink">
<g id="graph0" class="graph" transform="scale(1 1) rotate(0) translate(4 214)">
<title>adc_fft_task</title>
<!-- Node1 -->
<g id="Node000001" class="node">
<title>Node1</title>
<g id="a_Node000001"><a xlink:title=" ">
<polygon fill="#999999" stroke="#666666" points="69.25,-115 0,-115 0,-95 69.25,-95 69.25,-115"/>
<text xml:space="preserve" text-anchor="middle" x="34.62" y="-101.5" font-family="Helvetica,sans-Serif" font-size="10.00">adc_fft_task</text>
</a>
</g>
</g>
<!-- Node2 -->
<g id="Node000002" class="node">
<title>Node2</title>
<g id="a_Node000002"><a xlink:href="main_2main_8c.html#aab52a3d83223de794687d57813a5099e" target="_top" xlink:title=" ">
<polygon fill="white" stroke="#666666" points="206.75,-210 107.5,-210 107.5,-190 206.75,-190 206.75,-210"/>
<text xml:space="preserve" text-anchor="middle" x="157.12" y="-196.5" font-family="Helvetica,sans-Serif" font-size="10.00">adc_calibration_init</text>
</a>
</g>
</g>
<!-- Node1&#45;&gt;Node2 -->
<g id="edge1_Node000001_Node000002" class="edge">
<title>Node1&#45;&gt;Node2</title>
<g id="a_edge1_Node000001_Node000002"><a xlink:title=" ">
<path fill="none" stroke="#63b8ff" d="M42.57,-115.29C53.93,-131.38 77.95,-162.59 105.25,-181 107.1,-182.25 109.04,-183.42 111.03,-184.53"/>
<polygon fill="#63b8ff" stroke="#63b8ff" points="109.49,-187.67 120.01,-188.89 112.54,-181.37 109.49,-187.67"/>
</a>
</g>
</g>
<!-- Node3 -->
<g id="Node000003" class="node">
<title>Node3</title>
<g id="a_Node000003"><a xlink:href="main_2main_8c.html#a977caf721d1a48319bf966739332b9d5" target="_top" xlink:title=" ">
<polygon fill="white" stroke="#666666" points="195.88,-172 118.38,-172 118.38,-152 195.88,-152 195.88,-172"/>
<text xml:space="preserve" text-anchor="middle" x="157.12" y="-158.5" font-family="Helvetica,sans-Serif" font-size="10.00">apply_window</text>
</a>
</g>
</g>
<!-- Node1&#45;&gt;Node3 -->
<g id="edge2_Node000001_Node000003" class="edge">
<title>Node1&#45;&gt;Node3</title>
<g id="a_edge2_Node000001_Node000003"><a xlink:title=" ">
<path fill="none" stroke="#63b8ff" d="M53.01,-115.39C66.89,-123.46 86.96,-134.65 105.25,-143 108.55,-144.51 112.01,-145.99 115.51,-147.43"/>
<polygon fill="#63b8ff" stroke="#63b8ff" points="113.98,-150.59 124.57,-150.99 116.54,-144.07 113.98,-150.59"/>
</a>
</g>
</g>
<!-- Node4 -->
<g id="Node000004" class="node">
<title>Node4</title>
<g id="a_Node000004"><a xlink:href="main_2main_8c.html#a820a3865c8d10711e576870a886f5875" target="_top" xlink:title=" ">
<polygon fill="white" stroke="#666666" points="190.25,-134 124,-134 124,-114 190.25,-114 190.25,-134"/>
<text xml:space="preserve" text-anchor="middle" x="157.12" y="-120.5" font-family="Helvetica,sans-Serif" font-size="10.00">build_frame</text>
</a>
</g>
</g>
<!-- Node1&#45;&gt;Node4 -->
<g id="edge3_Node000001_Node000004" class="edge">
<title>Node1&#45;&gt;Node4</title>
<g id="a_edge3_Node000001_Node000004"><a xlink:title=" ">
<path fill="none" stroke="#63b8ff" d="M69.51,-110.34C82.91,-112.46 98.48,-114.91 112.7,-117.15"/>
<polygon fill="#63b8ff" stroke="#63b8ff" points="111.82,-120.56 122.24,-118.66 112.91,-113.64 111.82,-120.56"/>
</a>
</g>
</g>
<!-- Node9 -->
<g id="Node000009" class="node">
<title>Node9</title>
<g id="a_Node000009"><a xlink:href="main_2main_8c.html#ae21970c9cc814c282cd9e7bba97c6e02" target="_top" xlink:title=" ">
<polygon fill="white" stroke="#666666" points="185.38,-96 128.88,-96 128.88,-76 185.38,-76 185.38,-96"/>
<text xml:space="preserve" text-anchor="middle" x="157.12" y="-82.5" font-family="Helvetica,sans-Serif" font-size="10.00">cfg_atten</text>
</a>
</g>
</g>
<!-- Node1&#45;&gt;Node9 -->
<g id="edge9_Node000001_Node000009" class="edge">
<title>Node1&#45;&gt;Node9</title>
<g id="a_edge9_Node000001_Node000009"><a xlink:title=" ">
<path fill="none" stroke="#63b8ff" d="M69.51,-99.66C84.38,-97.31 101.91,-94.55 117.3,-92.12"/>
<polygon fill="#63b8ff" stroke="#63b8ff" points="117.74,-95.6 127.08,-90.58 116.65,-88.68 117.74,-95.6"/>
</a>
</g>
</g>
<!-- Node10 -->
<g id="Node000010" class="node">
<title>Node10</title>
<g id="a_Node000010"><a xlink:href="main_2main_8c.html#ab89052be374967a50f397269b6eec1c6" target="_top" xlink:title=" ">
<polygon fill="white" stroke="#666666" points="188.38,-58 125.88,-58 125.88,-38 188.38,-38 188.38,-58"/>
<text xml:space="preserve" text-anchor="middle" x="157.12" y="-44.5" font-family="Helvetica,sans-Serif" font-size="10.00">perform_fft</text>
</a>
</g>
</g>
<!-- Node1&#45;&gt;Node10 -->
<g id="edge10_Node000001_Node000010" class="edge">
<title>Node1&#45;&gt;Node10</title>
<g id="a_edge10_Node000001_Node000010"><a xlink:title=" ">
<path fill="none" stroke="#63b8ff" d="M53.01,-94.61C66.89,-86.54 86.96,-75.35 105.25,-67 108.55,-65.49 112.01,-64.01 115.51,-62.57"/>
<polygon fill="#63b8ff" stroke="#63b8ff" points="116.54,-65.93 124.57,-59.01 113.98,-59.41 116.54,-65.93"/>
</a>
</g>
</g>
<!-- Node11 -->
<g id="Node000011" class="node">
<title>Node11</title>
<g id="a_Node000011"><a xlink:href="main_2main_8c.html#a49681a73daa6b957bcab0adae536a3cc" target="_top" xlink:title=" ">
<polygon fill="white" stroke="#666666" points="209,-20 105.25,-20 105.25,0 209,0 209,-20"/>
<text xml:space="preserve" text-anchor="middle" x="157.12" y="-6.5" font-family="Helvetica,sans-Serif" font-size="10.00">sample_to_centered</text>
</a>
</g>
</g>
<!-- Node1&#45;&gt;Node11 -->
<g id="edge11_Node000001_Node000011" class="edge">
<title>Node1&#45;&gt;Node11</title>
<g id="a_edge11_Node000001_Node000011"><a xlink:title=" ">
<path fill="none" stroke="#63b8ff" d="M42.57,-94.71C53.93,-78.62 77.95,-47.41 105.25,-29 107.1,-27.75 109.04,-26.58 111.03,-25.47"/>
<polygon fill="#63b8ff" stroke="#63b8ff" points="112.54,-28.63 120.01,-21.11 109.49,-22.33 112.54,-28.63"/>
</a>
</g>
</g>
<!-- Node5 -->
<g id="Node000005" class="node">
<title>Node5</title>
<g id="a_Node000005"><a xlink:href="main_2main_8c.html#ae8e1abb3bbe00cc09343f89b55a03324" target="_top" xlink:title=" ">
<polygon fill="white" stroke="#666666" points="315.38,-191 245.38,-191 245.38,-171 315.38,-171 315.38,-191"/>
<text xml:space="preserve" text-anchor="middle" x="280.38" y="-177.5" font-family="Helvetica,sans-Serif" font-size="10.00">frame_crc32</text>
</a>
</g>
</g>
<!-- Node4&#45;&gt;Node5 -->
<g id="edge4_Node000004_Node000005" class="edge">
<title>Node4&#45;&gt;Node5</title>
<g id="a_edge4_Node000004_Node000005"><a xlink:title=" ">
<path fill="none" stroke="#63b8ff" d="M188.27,-134.47C195.15,-137.08 202.39,-140 209,-143 213.31,-144.96 232.97,-155.59 250.41,-165.12"/>
<polygon fill="#63b8ff" stroke="#63b8ff" points="248.52,-168.07 258.97,-169.8 251.88,-161.93 248.52,-168.07"/>
</a>
</g>
</g>
<!-- Node6 -->
<g id="Node000006" class="node">
<title>Node6</title>
<g id="a_Node000006"><a xlink:href="main_2main_8c.html#a6e60394bf8e92ca191c3f7e94724e3b2" target="_top" xlink:title=" ">
<polygon fill="white" stroke="#666666" points="315.75,-153 245,-153 245,-133 315.75,-133 315.75,-153"/>
<text xml:space="preserve" text-anchor="middle" x="280.38" y="-139.5" font-family="Helvetica,sans-Serif" font-size="10.00">write_u16_le</text>
</a>
</g>
</g>
<!-- Node4&#45;&gt;Node6 -->
<g id="edge5_Node000004_Node000006" class="edge">
<title>Node4&#45;&gt;Node6</title>
<g id="a_edge5_Node000004_Node000006"><a xlink:title=" ">
<path fill="none" stroke="#63b8ff" d="M190.62,-129.09C203.79,-131.16 219.24,-133.58 233.53,-135.82"/>
<polygon fill="#63b8ff" stroke="#63b8ff" points="232.75,-139.24 243.17,-137.33 233.83,-132.32 232.75,-139.24"/>
</a>
</g>
</g>
<!-- Node7 -->
<g id="Node000007" class="node">
<title>Node7</title>
<g id="a_Node000007"><a xlink:href="main_2main_8c.html#a2185935dcabbab8cd5781d57844535af" target="_top" xlink:title=" ">
<polygon fill="white" stroke="#666666" points="422.5,-96 351.75,-96 351.75,-76 422.5,-76 422.5,-96"/>
<text xml:space="preserve" text-anchor="middle" x="387.12" y="-82.5" font-family="Helvetica,sans-Serif" font-size="10.00">write_u32_le</text>
</a>
</g>
</g>
<!-- Node4&#45;&gt;Node7 -->
<g id="edge6_Node000004_Node000007" class="edge">
<title>Node4&#45;&gt;Node7</title>
<g id="a_edge6_Node000004_Node000007"><a xlink:title=" ">
<path fill="none" stroke="#63b8ff" d="M190.31,-118.64C229.49,-112.11 295.93,-101.03 340.41,-93.62"/>
<polygon fill="#63b8ff" stroke="#63b8ff" points="340.71,-97.12 350,-92.02 339.56,-90.21 340.71,-97.12"/>
</a>
</g>
</g>
<!-- Node8 -->
<g id="Node000008" class="node">
<title>Node8</title>
<g id="a_Node000008"><a xlink:href="main_2main_8c.html#af8adfaadd7f2cd184529b42110fc492a" target="_top" xlink:title=" ">
<polygon fill="white" stroke="#666666" points="315.75,-77 245,-77 245,-57 315.75,-57 315.75,-77"/>
<text xml:space="preserve" text-anchor="middle" x="280.38" y="-63.5" font-family="Helvetica,sans-Serif" font-size="10.00">write_u64_le</text>
</a>
</g>
</g>
<!-- Node4&#45;&gt;Node8 -->
<g id="edge7_Node000004_Node000008" class="edge">
<title>Node4&#45;&gt;Node8</title>
<g id="a_edge7_Node000004_Node000008"><a xlink:title=" ">
<path fill="none" stroke="#63b8ff" d="M188.27,-113.53C195.15,-110.92 202.39,-108 209,-105 223.56,-98.39 239.27,-90.03 252.15,-82.84"/>
<polygon fill="#63b8ff" stroke="#63b8ff" points="253.49,-86.1 260.47,-78.12 250.04,-80.01 253.49,-86.1"/>
</a>
</g>
</g>
<!-- Node8&#45;&gt;Node7 -->
<g id="edge8_Node000008_Node000007" class="edge">
<title>Node8&#45;&gt;Node7</title>
<g id="a_edge8_Node000008_Node000007"><a xlink:title=" ">
<path fill="none" stroke="#63b8ff" d="M315.96,-73.27C323.74,-74.68 332.11,-76.2 340.27,-77.68"/>
<polygon fill="#63b8ff" stroke="#63b8ff" points="339.62,-81.12 350.08,-79.46 340.87,-74.23 339.62,-81.12"/>
</a>
</g>
</g>
</g>
</svg>
