<?xml version="1.0" encoding="UTF-8" standalone="no"?>
<!DOCTYPE svg PUBLIC "-//W3C//DTD SVG 1.1//EN"
 "http://www.w3.org/Graphics/SVG/1.1/DTD/svg11.dtd">
<!-- Generated by graphviz version 14.1.2 (20260124.0452)
 -->
<!-- Title: write_u64_le Pages: 1 -->
<svg width="380pt" height="28pt"
 viewBox="0.00 0.00 380.00 28.00" xmlns="http://www.w3.org/2000/svg" xmlns:xlink="http://www.w3.org/1999/xlink">

<svg id="main" version="1.1" xmlns="http://www.w3.org/2000/svg" xmlns:xlink="http://www.w3.org/1999/xlink" xml:space="preserve">

<style type="text/css"><![CDATA[
.node, .edge {opacity: 0.7;}
.node.selected, .edge.selected {opacity: 1;}
.edge:hover path { stroke: red; }
.edge:hover polygon { stroke: red; fill: red; }
]]></style>
<script type="application/ecmascript" xlink:href="svg.min.js"/>
<svg id="graph" class="graph">
<g id="graph0" class="graph" transform="scale(1 1) rotate(0) translate(4 24)">
<title>write_u64_le</title>
<!-- Node1 -->
<g id="Node000001" class="node">
<title>Node1</title>
<g id="a_Node000001"><a xlink:title=" ">
<polygon fill="#999999" stroke="#666666" points="372.25,-20 301.5,-20 301.5,0 372.25,0 372.25,-20"/>
<text xml:space="preserve" text-anchor="middle" x="336.88" y="-6.5" font-family="Helvetica,sans-Serif" font-size="10.00">write_u64_le</text>
</a>
</g>
</g>
<!-- Node2 -->
<g id="Node000002" class="node">
<title>Node2</title>
<g id="a_Node000002"><a xlink:href="main_2main_8c.html#a820a3865c8d10711e576870a886f5875" target="_top" xlink:title=" ">
<polygon fill="white" stroke="#666666" points="265.5,-20 199.25,-20 199.25,0 265.5,0 265.5,-20"/>
<text xml:space="preserve" text-anchor="middle" x="232.38" y="-6.5" font-family="Helvetica,sans-Serif" font-size="10.00">build_frame</text>
</a>
</g>
</g>
<!-- Node1&#45;&gt;Node2 -->
<g id="edge1_Node000001_Node000002" class="edge">
<title>Node1&#45;&gt;Node2</title>
<g id="a_edge1_Node000001_Node000002"><a xlink:title=" ">
<path fill="none" stroke="#63b8ff" d="M289.67,-10C281.67,-10 273.5,-10 265.97,-10"/>
<polygon fill="#63b8ff" stroke="#63b8ff" points="289.66,-13.5 299.66,-10 289.66,-6.5 289.66,-13.5"/>
</a>
</g>
</g>
<!-- Node3 -->
<g id="Node000003" class="node">
<title>Node3</title>
<g id="a_Node000003"><a xlink:href="main_2main_8c.html#aa4dd1082f901d0e72c33ab791e774158" target="_top" xlink:title=" ">
<polygon fill="white" stroke="#666666" points="163.25,-20 94,-20 94,0 163.25,0 163.25,-20"/>
<text xml:space="preserve" text-anchor="middle" x="128.62" y="-6.5" font-family="Helvetica,sans-Serif" font-size="10.00">adc_fft_task</text>
</a>
</g>
</g>
<!-- Node2&#45;&gt;Node3 -->
<g id="edge2_Node000002_Node000003" class="edge">
<title>Node2&#45;&gt;Node3</title>
<g id="a_edge2_Node000002_Node000003"><a xlink:title=" ">
<path fill="none" stroke="#63b8ff" d="M187.44,-10C179.44,-10 171.2,-10 163.54,-10"/>
<polygon fill="#63b8ff" stroke="#63b8ff" points="187.39,-13.5 197.39,-10 187.39,-6.5 187.39,-13.5"/>
</a>
</g>
</g>
<!-- Node4 -->
<g id="Node000004" class="node">
<title>Node4</title>
<g id="a_Node000004"><a xlink:href="main_2main_8c.html#a630544a7f0a2cc40d8a7fefab7e2fe70" target="_top" xlink:title=" ">
<polygon fill="white" stroke="#666666" points="58,-20 0,-20 0,0 58,0 58,-20"/>
<text xml:space="preserve" text-anchor="middle" x="29" y="-6.5" font-family="Helvetica,sans-Serif" font-size="10.00">app_main</text>
</a>
</g>
</g>
<!-- Node3&#45;&gt;Node4 -->
<g id="edge3_Node000003_Node000004" class="edge">
<title>Node3&#45;&gt;Node4</title>
<g id="a_edge3_Node000003_Node000004"><a xlink:title=" ">
<path fill="none" stroke="#63b8ff" d="M82.36,-10C74.16,-10 65.84,-10 58.31,-10"/>
<polygon fill="#63b8ff" stroke="#63b8ff" points="82.24,-13.5 92.24,-10 82.24,-6.5 82.24,-13.5"/>
</a>
</g>
</g>
</g>
</svg>
</svg>

<style type='text/css'>
<![CDATA[
[data-mouse-over-selected='false'] { opacity: 0.7; }
[data-mouse-over-selected='true']  { opacity: 1.0; }
]]>
</style>
<script type="application/ecmascript"><![CDATA[
document.addEventListener('DOMContentLoaded', (event) => {
  highlightEdges();
  highlightAdjacentNodes();
});
]]></script>
</svg>
