<?xml version="1.0" encoding="UTF-8" standalone="no"?>
<!DOCTYPE svg PUBLIC "-//W3C//DTD SVG 1.1//EN"
 "http://www.w3.org/Graphics/SVG/1.1/DTD/svg11.dtd">
<!-- Generated by graphviz version 14.1.2 (20260124.0452)
 -->
<!-- Title: build_frame Pages: 1 -->
<svg width="288pt" height="142pt"
 viewBox="0.00 0.00 288.00 142.00" xmlns="http://www.w3.org/2000/svg" xmlns:xlink="http://www.w3.org/1999/xlink">
<g id="graph0" class="graph" transform="scale(1 1) rotate(0) translate(4 138)">
<title>build_frame</title>
<!-- Node1 -->
<g id="Node000001" class="node">
<title>Node1</title>
<g id="a_Node000001"><a xlink:title=" ">
<polygon fill="#999999" stroke="#666666" points="66.25,-77 0,-77 0,-57 66.25,-57 66.25,-77"/>
<text xml:space="preserve" text-anchor="middle" x="33.12" y="-63.5" font-family="Helvetica,sans-Serif" font-size="10.00">build_frame</text>
</a>
</g>
</g>
<!-- Node2 -->
<g id="Node000002" class="node">
<title>Node2</title>
<g id="a_Node000002"><a xlink:href="main_2main_8c.html#ae8e1abb3bbe00cc09343f89b55a03324" target="_top" xlink:title=" ">
<polygon fill="white" stroke="#666666" points="172.62,-134 102.62,-134 102.62,-114 172.62,-114 172.62,-134"/>
<text xml:space="preserve" text-anchor="middle" x="137.62" y="-120.5" font-family="Helvetica,sans-Serif" font-size="10.00">frame_crc32</text>
</a>
</g>
</g>
<!-- Node1&#45;&gt;Node2 -->
<g id="edge1_Node000001_Node000002" class="edge">
<title>Node1&#45;&gt;Node2</title>
<g id="a_edge1_Node000001_Node000002"><a xlink:title=" ">
<path fill="none" stroke="#63b8ff" d="M52.62,-77.34C66.32,-84.99 85.44,-95.66 102.25,-105 104.13,-106.04 106.06,-107.12 108.02,-108.2"/>
<polygon fill="#63b8ff" stroke="#63b8ff" points="105.94,-111.05 116.38,-112.83 109.33,-104.92 105.94,-111.05"/>
</a>
</g>
</g>
<!-- Node3 -->
<g id="Node000003" class="node">
<title>Node3</title>
<g id="a_Node000003"><a xlink:href="main_2main_8c.html#a6e60394bf8e92ca191c3f7e94724e3b2" target="_top" xlink:title=" ">
<polygon fill="white" stroke="#666666" points="173,-96 102.25,-96 102.25,-76 173,-76 173,-96"/>
<text xml:space="preserve" text-anchor="middle" x="137.62" y="-82.5" font-family="Helvetica,sans-Serif" font-size="10.00">write_u16_le</text>
</a>
</g>
</g>
<!-- Node1&#45;&gt;Node3 -->
<g id="edge2_Node000001_Node000003" class="edge">
<title>Node1&#45;&gt;Node3</title>
<g id="a_edge2_Node000001_Node000003"><a xlink:title=" ">
<path fill="none" stroke="#63b8ff" d="M66.56,-73.01C74.21,-74.43 82.51,-75.97 90.64,-77.48"/>
<polygon fill="#63b8ff" stroke="#63b8ff" points="89.96,-80.91 100.43,-79.29 91.24,-74.03 89.96,-80.91"/>
</a>
</g>
</g>
<!-- Node4 -->
<g id="Node000004" class="node">
<title>Node4</title>
<g id="a_Node000004"><a xlink:href="main_2main_8c.html#a2185935dcabbab8cd5781d57844535af" target="_top" xlink:title=" ">
<polygon fill="white" stroke="#666666" points="279.75,-39 209,-39 209,-19 279.75,-19 279.75,-39"/>
<text xml:space="preserve" text-anchor="middle" x="244.38" y="-25.5" font-family="Helvetica,sans-Serif" font-size="10.00">write_u32_le</text>
</a>
</g>
</g>
<!-- Node1&#45;&gt;Node4 -->
<g id="edge3_Node000001_Node000004" class="edge">
<title>Node1&#45;&gt;Node4</title>
<g id="a_edge3_Node000001_Node000004"><a xlink:title=" ">
<path fill="none" stroke="#63b8ff" d="M66.36,-61.15C101.42,-54.78 157.75,-44.55 197.43,-37.34"/>
<polygon fill="#63b8ff" stroke="#63b8ff" points="197.96,-40.81 207.17,-35.57 196.71,-33.92 197.96,-40.81"/>
</a>
</g>
</g>
<!-- Node5 -->
<g id="Node000005" class="node">
<title>Node5</title>
<g id="a_Node000005"><a xlink:href="main_2main_8c.html#af8adfaadd7f2cd184529b42110fc492a" target="_top" xlink:title=" ">
<polygon fill="white" stroke="#666666" points="173,-20 102.25,-20 102.25,0 173,0 173,-20"/>
<text xml:space="preserve" text-anchor="middle" x="137.62" y="-6.5" font-family="Helvetica,sans-Serif" font-size="10.00">write_u64_le</text>
</a>
</g>
</g>
<!-- Node1&#45;&gt;Node5 -->
<g id="edge4_Node000001_Node000005" class="edge">
<title>Node1&#45;&gt;Node5</title>
<g id="a_edge4_Node000001_Node000005"><a xlink:title=" ">
<path fill="none" stroke="#63b8ff" d="M52.93,-56.55C68.39,-47.95 90.54,-35.63 108.17,-25.82"/>
<polygon fill="#63b8ff" stroke="#63b8ff" points="109.58,-29.04 116.62,-21.12 106.18,-22.93 109.58,-29.04"/>
</a>
</g>
</g>
<!-- Node5&#45;&gt;Node4 -->
<g id="edge5_Node000005_Node000004" class="edge">
<title>Node5&#45;&gt;Node4</title>
<g id="a_edge5_Node000005_Node000004"><a xlink:title=" ">
<path fill="none" stroke="#63b8ff" d="M173.21,-16.27C180.99,-17.68 189.36,-19.2 197.52,-20.68"/>
<polygon fill="#63b8ff" stroke="#63b8ff" points="196.87,-24.12 207.33,-22.46 198.12,-17.23 196.87,-24.12"/>
</a>
</g>
</g>
</g>
</svg>
