<?xml version="1.0" encoding="UTF-8" standalone="no"?>
<!DOCTYPE svg PUBLIC "-//W3C//DTD SVG 1.1//EN"
 "http://www.w3.org/Graphics/SVG/1.1/DTD/svg11.dtd">
<!-- Generated by graphviz version 14.1.2 (20260124.0452)
 -->
<!-- Title: cdc_tx_task Pages: 1 -->
<svg width="569pt" height="186pt"
 viewBox="0.00 0.00 569.00 186.00" xmlns="http://www.w3.org/2000/svg" xmlns:xlink="http://www.w3.org/1999/xlink">
<g id="graph0" class="graph" transform="scale(1 1) rotate(0) translate(4 182)">
<title>cdc_tx_task</title>
<!-- Node1 -->
<g id="Node000001" class="node">
<title>Node1</title>
<g id="a_Node000001"><a xlink:title=" ">
<polygon fill="#999999" stroke="#666666" points="69.25,-102 0,-102 0,-82 69.25,-82 69.25,-102"/>
<text xml:space="preserve" text-anchor="middle" x="34.62" y="-88.5" font-family="Helvetica,sans-Serif" font-size="10.00">cdc_tx_task</text>
</a>
</g>
</g>
<!-- Node2 -->
<g id="Node000002" class="node">
<title>Node2</title>
<g id="a_Node000002"><a xlink:href="led__strip__api_8c.html#a5e7ed29ab9fcd9e963ceeb9bb22c5736" target="_top" xlink:title="Refresh memory colors to LEDs.">
<polygon fill="white" stroke="#666666" points="212.75,-178 124.75,-178 124.75,-158 212.75,-158 212.75,-178"/>
<text xml:space="preserve" text-anchor="middle" x="168.75" y="-164.5" font-family="Helvetica,sans-Serif" font-size="10.00">led_strip_refresh</text>
</a>
</g>
</g>
<!-- Node1&#45;&gt;Node2 -->
<g id="edge1_Node000001_Node000002" class="edge">
<title>Node1&#45;&gt;Node2</title>
<g id="a_edge1_Node000001_Node000002"><a xlink:title=" ">
<path fill="none" stroke="#63b8ff" d="M45.54,-102.29C58.27,-114.96 81.55,-136.34 105.25,-149 108.25,-150.6 111.41,-152.09 114.65,-153.47"/>
<polygon fill="#63b8ff" stroke="#63b8ff" points="113.15,-156.65 123.74,-156.97 115.67,-150.11 113.15,-156.65"/>
</a>
</g>
</g>
<!-- Node3 -->
<g id="Node000003" class="node">
<title>Node3</title>
<g id="a_Node000003"><a xlink:href="led__strip__api_8c.html#ac35423873d3ac95155349a89b51d651b" target="_top" xlink:title="Set RGB for a specific pixel.">
<polygon fill="white" stroke="#666666" points="217.25,-140 120.25,-140 120.25,-120 217.25,-120 217.25,-140"/>
<text xml:space="preserve" text-anchor="middle" x="168.75" y="-126.5" font-family="Helvetica,sans-Serif" font-size="10.00">led_strip_set_pixel</text>
</a>
</g>
</g>
<!-- Node1&#45;&gt;Node3 -->
<g id="edge2_Node000001_Node000003" class="edge">
<title>Node1&#45;&gt;Node3</title>
<g id="a_edge2_Node000001_Node000003"><a xlink:title=" ">
<path fill="none" stroke="#63b8ff" d="M69.65,-101.79C85.21,-106.26 103.89,-111.63 120.75,-116.48"/>
<polygon fill="#63b8ff" stroke="#63b8ff" points="119.49,-119.76 130.07,-119.16 121.43,-113.04 119.49,-119.76"/>
</a>
</g>
</g>
<!-- Node4 -->
<g id="Node000004" class="node">
<title>Node4</title>
<g id="a_Node000004"><a xlink:href="main_2main_8c.html#adcd8f7518fef8e05fa85c0afaa299c3a" target="_top" xlink:title=" ">
<polygon fill="white" stroke="#666666" points="232.25,-102 105.25,-102 105.25,-82 232.25,-82 232.25,-102"/>
<text xml:space="preserve" text-anchor="middle" x="168.75" y="-88.5" font-family="Helvetica,sans-Serif" font-size="10.00">safe_cdcacm_write_flush</text>
</a>
</g>
</g>
<!-- Node1&#45;&gt;Node4 -->
<g id="edge3_Node000001_Node000004" class="edge">
<title>Node1&#45;&gt;Node4</title>
<g id="a_edge3_Node000001_Node000004"><a xlink:title=" ">
<path fill="none" stroke="#63b8ff" d="M69.65,-92C77.06,-92 85.18,-92 93.48,-92"/>
<polygon fill="#63b8ff" stroke="#63b8ff" points="93.34,-95.5 103.34,-92 93.34,-88.5 93.34,-95.5"/>
</a>
</g>
</g>
<!-- Node9 -->
<g id="Node000009" class="node">
<title>Node9</title>
<g id="a_Node000009"><a xlink:href="tusb__cdc__acm_8c.html#a0f1bac102ae6fce8d7211062a899e4b5" target="_top" xlink:title="Write data to write buffer from a byte array.">
<polygon fill="white" stroke="#666666" points="387.75,-70 274.25,-70 274.25,-38 387.75,-38 387.75,-70"/>
<text xml:space="preserve" text-anchor="start" x="282.25" y="-56.5" font-family="Helvetica,sans-Serif" font-size="10.00">tinyusb_cdcacm_write</text>
<text xml:space="preserve" text-anchor="middle" x="331" y="-44.5" font-family="Helvetica,sans-Serif" font-size="10.00">_queue</text>
</a>
</g>
</g>
<!-- Node1&#45;&gt;Node9 -->
<g id="edge7_Node000001_Node000009" class="edge">
<title>Node1&#45;&gt;Node9</title>
<g id="a_edge7_Node000001_Node000009"><a xlink:title=" ">
<path fill="none" stroke="#63b8ff" d="M68.99,-81.57C80.39,-78.36 93.28,-75.12 105.25,-73 157.57,-63.73 217.57,-58.95 262.4,-56.5"/>
<polygon fill="#63b8ff" stroke="#63b8ff" points="262.44,-60.01 272.24,-55.99 262.07,-53.01 262.44,-60.01"/>
</a>
</g>
</g>
<!-- Node10 -->
<g id="Node000010" class="node">
<title>Node10</title>
<g id="a_Node000010"><a xlink:href="tusb__cdc__acm_8c.html#a659f81b1f0fd5b43eedd4b8bca19e427" target="_top" xlink:title="Check if the ACM initialized.">
<polygon fill="white" stroke="#666666" points="393.75,-20 268.25,-20 268.25,0 393.75,0 393.75,-20"/>
<text xml:space="preserve" text-anchor="middle" x="331" y="-6.5" font-family="Helvetica,sans-Serif" font-size="10.00">tusb_cdc_acm_initialized</text>
</a>
</g>
</g>
<!-- Node1&#45;&gt;Node10 -->
<g id="edge9_Node000001_Node000010" class="edge">
<title>Node1&#45;&gt;Node10</title>
<g id="a_edge9_Node000001_Node000010"><a xlink:title=" ">
<path fill="none" stroke="#63b8ff" d="M51.88,-81.61C65.61,-73.27 86.04,-61.86 105.25,-55 154.38,-37.45 212.12,-26.08 256.78,-19.15"/>
<polygon fill="#63b8ff" stroke="#63b8ff" points="257.27,-22.62 266.63,-17.67 256.22,-15.7 257.27,-22.62"/>
</a>
</g>
</g>
<!-- Node5 -->
<g id="Node000005" class="node">
<title>Node5</title>
<g id="a_Node000005"><a xlink:href="tusb__cdc__acm_8c.html#ae56eee472acd5c32ac333dc551fd1a84" target="_top" xlink:title="Send all data from a write buffer. Use tinyusb_cdcacm_write_queue to add data to the buffer.">
<polygon fill="white" stroke="#666666" points="387.75,-120 274.25,-120 274.25,-88 387.75,-88 387.75,-120"/>
<text xml:space="preserve" text-anchor="start" x="282.25" y="-106.5" font-family="Helvetica,sans-Serif" font-size="10.00">tinyusb_cdcacm_write</text>
<text xml:space="preserve" text-anchor="middle" x="331" y="-94.5" font-family="Helvetica,sans-Serif" font-size="10.00">_flush</text>
</a>
</g>
</g>
<!-- Node4&#45;&gt;Node5 -->
<g id="edge4_Node000004_Node000005" class="edge">
<title>Node4&#45;&gt;Node5</title>
<g id="a_edge4_Node000004_Node000005"><a xlink:title=" ">
<path fill="none" stroke="#63b8ff" d="M232.63,-96.71C242.39,-97.44 252.52,-98.2 262.39,-98.94"/>
<polygon fill="#63b8ff" stroke="#63b8ff" points="262.08,-102.42 272.31,-99.68 262.6,-95.44 262.08,-102.42"/>
</a>
</g>
</g>
<!-- Node6 -->
<g id="Node000006" class="node">
<title>Node6</title>
<g id="a_Node000006"><a xlink:href="tusb__cdc__acm_8c.html#ab24ee802c4641898cbc524df38a75dc1" target="_top" xlink:title=" ">
<polygon fill="#fff0f0" stroke="red" points="522.25,-64 468.75,-64 468.75,-44 522.25,-44 522.25,-64"/>
<text xml:space="preserve" text-anchor="middle" x="495.5" y="-50.5" font-family="Helvetica,sans-Serif" font-size="10.00">get_acm</text>
</a>
</g>
</g>
<!-- Node5&#45;&gt;Node6 -->
<g id="edge5_Node000005_Node000006" class="edge">
<title>Node5&#45;&gt;Node6</title>
<g id="a_edge5_Node000005_Node000006"><a xlink:title=" ">
<path fill="none" stroke="#63b8ff" d="M385.21,-87.63C408.9,-80.34 436.23,-71.93 457.62,-65.35"/>
<polygon fill="#63b8ff" stroke="#63b8ff" points="458.56,-68.72 467.09,-62.44 456.5,-62.03 458.56,-68.72"/>
</a>
</g>
</g>
<!-- Node8 -->
<g id="Node000008" class="node">
<title>Node8</title>
<g id="a_Node000008"><a xlink:href="tusb__cdc__acm_8c.html#afe305c04d317e949f013f6d03b8d9f8c" target="_top" xlink:title=" ">
<polygon fill="white" stroke="#666666" points="561.25,-114 429.75,-114 429.75,-94 561.25,-94 561.25,-114"/>
<text xml:space="preserve" text-anchor="middle" x="495.5" y="-100.5" font-family="Helvetica,sans-Serif" font-size="10.00">tud_cdc_n_write_occupied</text>
</a>
</g>
</g>
<!-- Node5&#45;&gt;Node8 -->
<g id="edge6_Node000005_Node000008" class="edge">
<title>Node5&#45;&gt;Node8</title>
<g id="a_edge6_Node000005_Node000008"><a xlink:title=" ">
<path fill="none" stroke="#63b8ff" d="M387.92,-104C397.66,-104 407.94,-104 418.12,-104"/>
<polygon fill="#63b8ff" stroke="#63b8ff" points="418.01,-107.5 428.01,-104 418.01,-100.5 418.01,-107.5"/>
</a>
</g>
</g>
<!-- Node9&#45;&gt;Node6 -->
<g id="edge8_Node000009_Node000006" class="edge">
<title>Node9&#45;&gt;Node6</title>
<g id="a_edge8_Node000009_Node000006"><a xlink:title=" ">
<path fill="none" stroke="#63b8ff" d="M387.92,-54C410.79,-54 436.64,-54 457.15,-54"/>
<polygon fill="#63b8ff" stroke="#63b8ff" points="457.03,-57.5 467.03,-54 457.03,-50.5 457.03,-57.5"/>
</a>
</g>
</g>
<!-- Node10&#45;&gt;Node6 -->
<g id="edge10_Node000010_Node000006" class="edge">
<title>Node10&#45;&gt;Node6</title>
<g id="a_edge10_Node000010_Node000006"><a xlink:title=" ">
<path fill="none" stroke="#63b8ff" d="M370.51,-20.43C396.84,-27.56 431.53,-36.95 457.52,-43.99"/>
<polygon fill="#63b8ff" stroke="#63b8ff" points="456.41,-47.31 466.97,-46.55 458.24,-40.55 456.41,-47.31"/>
</a>
</g>
</g>
</g>
</svg>
