<?xml version="1.0" encoding="UTF-8" standalone="no"?>
<!DOCTYPE svg PUBLIC "-//W3C//DTD SVG 1.1//EN"
 "http://www.w3.org/Graphics/SVG/1.1/DTD/svg11.dtd">
<!-- Generated by graphviz version 14.1.2 (20260124.0452)
 -->
<!-- Title: write_u32_le Pages: 1 -->
<svg width="487pt" height="47pt"
 viewBox="0.00 0.00 487.00 47.00" xmlns="http://www.w3.org/2000/svg" xmlns:xlink="http://www.w3.org/1999/xlink">

<svg id="main" version="1.1" xmlns="http://www.w3.org/2000/svg" xmlns:xlink="http://www.w3.org/1999/xlink" xml:space="preserve">

<style type="text/css"><![CDATA[
.node, .edge {opacity: 0.7;}
.node.selected, .edge.selected {opacity: 1;}
.edge:hover path { stroke: red; }
.edge:hover polygon { stroke: red; fill: red; }
]]></style>
<script type="application/ecmascript" xlink:href="svg.min.js"/>
<svg id="graph" class="graph">
<g id="graph0" class="graph" transform="scale(1 1) rotate(0) translate(4 43)">
<title>write_u32_le</title>
<!-- Node1 -->
<g id="Node000001" class="node">
<title>Node1</title>
<g id="a_Node000001"><a xlink:title=" ">
<polygon fill="#999999" stroke="#666666" points="479,-39 408.25,-39 408.25,-19 479,-19 479,-39"/>
<text xml:space="preserve" text-anchor="middle" x="443.62" y="-25.5" font-family="Helvetica,sans-Serif" font-size="10.00">write_u32_le</text>
</a>
</g>
</g>
<!-- Node2 -->
<g id="Node000002" class="node">
<title>Node2</title>
<g id="a_Node000002"><a xlink:href="main_2main_8c.html#a820a3865c8d10711e576870a886f5875" target="_top" xlink:title=" ">
<polygon fill="white" stroke="#666666" points="265.5,-39 199.25,-39 199.25,-19 265.5,-19 265.5,-39"/>
<text xml:space="preserve" text-anchor="middle" x="232.38" y="-25.5" font-family="Helvetica,sans-Serif" font-size="10.00">build_frame</text>
</a>
</g>
</g>
<!-- Node1&#45;&gt;Node2 -->
<g id="edge1_Node000001_Node000002" class="edge">
<title>Node1&#45;&gt;Node2</title>
<g id="a_edge1_Node000001_Node000002"><a xlink:title=" ">
<path fill="none" stroke="#63b8ff" d="M396.62,-29C357.05,-29 300.97,-29 265.91,-29"/>
<polygon fill="#63b8ff" stroke="#63b8ff" points="396.56,-32.5 406.56,-29 396.56,-25.5 396.56,-32.5"/>
</a>
</g>
</g>
<!-- Node5 -->
<g id="Node000005" class="node">
<title>Node5</title>
<g id="a_Node000005"><a xlink:href="main_2main_8c.html#af8adfaadd7f2cd184529b42110fc492a" target="_top" xlink:title=" ">
<polygon fill="white" stroke="#666666" points="372.25,-20 301.5,-20 301.5,0 372.25,0 372.25,-20"/>
<text xml:space="preserve" text-anchor="middle" x="336.88" y="-6.5" font-family="Helvetica,sans-Serif" font-size="10.00">write_u64_le</text>
</a>
</g>
</g>
<!-- Node1&#45;&gt;Node5 -->
<g id="edge4_Node000001_Node000005" class="edge">
<title>Node1&#45;&gt;Node5</title>
<g id="a_edge4_Node000001_Node000005"><a xlink:title=" ">
<path fill="none" stroke="#63b8ff" d="M396.73,-20.68C388.57,-19.2 380.2,-17.68 372.43,-16.27"/>
<polygon fill="#63b8ff" stroke="#63b8ff" points="396.08,-24.11 406.55,-22.46 397.33,-17.23 396.08,-24.11"/>
</a>
</g>
</g>
<!-- Node3 -->
<g id="Node000003" class="node">
<title>Node3</title>
<g id="a_Node000003"><a xlink:href="main_2main_8c.html#aa4dd1082f901d0e72c33ab791e774158" target="_top" xlink:title=" ">
<polygon fill="white" stroke="#666666" points="163.25,-39 94,-39 94,-19 163.25,-19 163.25,-39"/>
<text xml:space="preserve" text-anchor="middle" x="128.62" y="-25.5" font-family="Helvetica,sans-Serif" font-size="10.00">adc_fft_task</text>
</a>
</g>
</g>
<!-- Node2&#45;&gt;Node3 -->
<g id="edge2_Node000002_Node000003" class="edge">
<title>Node2&#45;&gt;Node3</title>
<g id="a_edge2_Node000002_Node000003"><a xlink:title=" ">
<path fill="none" stroke="#63b8ff" d="M187.44,-29C179.44,-29 171.2,-29 163.54,-29"/>
<polygon fill="#63b8ff" stroke="#63b8ff" points="187.39,-32.5 197.39,-29 187.39,-25.5 187.39,-32.5"/>
</a>
</g>
</g>
<!-- Node4 -->
<g id="Node000004" class="node">
<title>Node4</title>
<g id="a_Node000004"><a xlink:href="main_2main_8c.html#a630544a7f0a2cc40d8a7fefab7e2fe70" target="_top" xlink:title=" ">
<polygon fill="white" stroke="#666666" points="58,-39 0,-39 0,-19 58,-19 58,-39"/>
<text xml:space="preserve" text-anchor="middle" x="29" y="-25.5" font-family="Helvetica,sans-Serif" font-size="10.00">app_main</text>
</a>
</g>
</g>
<!-- Node3&#45;&gt;Node4 -->
<g id="edge3_Node000003_Node000004" class="edge">
<title>Node3&#45;&gt;Node4</title>
<g id="a_edge3_Node000003_Node000004"><a xlink:title=" ">
<path fill="none" stroke="#63b8ff" d="M82.36,-29C74.16,-29 65.84,-29 58.31,-29"/>
<polygon fill="#63b8ff" stroke="#63b8ff" points="82.24,-32.5 92.24,-29 82.24,-25.5 82.24,-32.5"/>
</a>
</g>
</g>
<!-- Node5&#45;&gt;Node2 -->
<g id="edge5_Node000005_Node000002" class="edge">
<title>Node5&#45;&gt;Node2</title>
<g id="a_edge5_Node000005_Node000002"><a xlink:title=" ">
<path fill="none" stroke="#63b8ff" d="M289.94,-18.51C281.86,-20.01 273.59,-21.55 265.97,-22.96"/>
<polygon fill="#63b8ff" stroke="#63b8ff" points="290.49,-21.97 299.68,-16.71 289.21,-15.09 290.49,-21.97"/>
</a>
</g>
</g>
</g>
</svg>
</svg>

<style type='text/css'>
<![CDATA[
[data-mouse-over-selected='false'] { opacity: 0.7; }
[data-mouse-over-selected='true']  { opacity: 1.0; }
]]>
</style>
<script type="application/ecmascript"><![CDATA[
document.addEventListener('DOMContentLoaded', (event) => {
  highlightEdges();
  highlightAdjacentNodes();
});
]]></script>
</svg>
