<?xml version="1.0" encoding="UTF-8" standalone="no"?>
<!DOCTYPE svg PUBLIC "-//W3C//DTD SVG 1.1//EN"
 "http://www.w3.org/Graphics/SVG/1.1/DTD/svg11.dtd">
<!-- Generated by graphviz version 14.1.2 (20260124.0452)
 -->
<!-- Title: safe_cdcacm_write_flush Pages: 1 -->
<svg width="594pt" height="66pt"
 viewBox="0.00 0.00 594.00 66.00" xmlns="http://www.w3.org/2000/svg" xmlns:xlink="http://www.w3.org/1999/xlink">
<g id="graph0" class="graph" transform="scale(1 1) rotate(0) translate(4 62)">
<title>safe_cdcacm_write_flush</title>
<!-- Node1 -->
<g id="Node000001" class="node">
<title>Node1</title>
<g id="a_Node000001"><a xlink:title=" ">
<polygon fill="#999999" stroke="#666666" points="127,-39 0,-39 0,-19 127,-19 127,-39"/>
<text xml:space="preserve" text-anchor="middle" x="63.5" y="-25.5" font-family="Helvetica,sans-Serif" font-size="10.00">safe_cdcacm_write_flush</text>
</a>
</g>
</g>
<!-- Node2 -->
<g id="Node000002" class="node">
<title>Node2</title>
<g id="a_Node000002"><a xlink:href="tusb__cdc__acm_8c.html#ae56eee472acd5c32ac333dc551fd1a84" target="_top" xlink:title="Send all data from a write buffer. Use tinyusb_cdcacm_write_queue to add data to the buffer.">
<polygon fill="white" stroke="#666666" points="276.5,-45 163,-45 163,-13 276.5,-13 276.5,-45"/>
<text xml:space="preserve" text-anchor="start" x="171" y="-31.5" font-family="Helvetica,sans-Serif" font-size="10.00">tinyusb_cdcacm_write</text>
<text xml:space="preserve" text-anchor="middle" x="219.75" y="-19.5" font-family="Helvetica,sans-Serif" font-size="10.00">_flush</text>
</a>
</g>
</g>
<!-- Node1&#45;&gt;Node2 -->
<g id="edge1_Node000001_Node000002" class="edge">
<title>Node1&#45;&gt;Node2</title>
<g id="a_edge1_Node000001_Node000002"><a xlink:title=" ">
<path fill="none" stroke="#63b8ff" d="M127.24,-29C135.08,-29 143.14,-29 151.05,-29"/>
<polygon fill="#63b8ff" stroke="#63b8ff" points="151,-32.5 161,-29 151,-25.5 151,-32.5"/>
</a>
</g>
</g>
<!-- Node3 -->
<g id="Node000003" class="node">
<title>Node3</title>
<g id="a_Node000003"><a xlink:href="tusb__cdc__acm_8c.html#ab24ee802c4641898cbc524df38a75dc1" target="_top" xlink:title=" ">
<polygon fill="white" stroke="#666666" points="405,-58 351.5,-58 351.5,-38 405,-38 405,-58"/>
<text xml:space="preserve" text-anchor="middle" x="378.25" y="-44.5" font-family="Helvetica,sans-Serif" font-size="10.00">get_acm</text>
</a>
</g>
</g>
<!-- Node2&#45;&gt;Node3 -->
<g id="edge2_Node000002_Node000003" class="edge">
<title>Node2&#45;&gt;Node3</title>
<g id="a_edge2_Node000002_Node000003"><a xlink:title=" ">
<path fill="none" stroke="#63b8ff" d="M276.81,-35.81C297.77,-38.35 321.05,-41.18 339.92,-43.47"/>
<polygon fill="#63b8ff" stroke="#63b8ff" points="339.47,-46.94 349.82,-44.67 340.31,-39.99 339.47,-46.94"/>
</a>
</g>
</g>
<!-- Node5 -->
<g id="Node000005" class="node">
<title>Node5</title>
<g id="a_Node000005"><a xlink:href="tusb__cdc__acm_8c.html#afe305c04d317e949f013f6d03b8d9f8c" target="_top" xlink:title=" ">
<polygon fill="white" stroke="#666666" points="444,-20 312.5,-20 312.5,0 444,0 444,-20"/>
<text xml:space="preserve" text-anchor="middle" x="378.25" y="-6.5" font-family="Helvetica,sans-Serif" font-size="10.00">tud_cdc_n_write_occupied</text>
</a>
</g>
</g>
<!-- Node2&#45;&gt;Node5 -->
<g id="edge4_Node000002_Node000005" class="edge">
<title>Node2&#45;&gt;Node5</title>
<g id="a_edge4_Node000002_Node000005"><a xlink:title=" ">
<path fill="none" stroke="#63b8ff" d="M276.81,-22.19C284.62,-21.25 292.75,-20.26 300.85,-19.28"/>
<polygon fill="#63b8ff" stroke="#63b8ff" points="301.25,-22.75 310.75,-18.07 300.4,-15.8 301.25,-22.75"/>
</a>
</g>
</g>
<!-- Node4 -->
<g id="Node000004" class="node">
<title>Node4</title>
<g id="a_Node000004"><a xlink:href="cdc_8c.html#a19af1be61f3d48fb87311dd61c06cbae" target="_top" xlink:title="Return interface of a CDC device.">
<polygon fill="white" stroke="#666666" points="586,-58 480,-58 480,-38 586,-38 586,-58"/>
<text xml:space="preserve" text-anchor="middle" x="533" y="-44.5" font-family="Helvetica,sans-Serif" font-size="10.00">tinyusb_cdc_get_intf</text>
</a>
</g>
</g>
<!-- Node3&#45;&gt;Node4 -->
<g id="edge3_Node000003_Node000004" class="edge">
<title>Node3&#45;&gt;Node4</title>
<g id="a_edge3_Node000003_Node000004"><a xlink:title=" ">
<path fill="none" stroke="#63b8ff" d="M405.16,-48C422.49,-48 446.08,-48 468.22,-48"/>
<polygon fill="#63b8ff" stroke="#63b8ff" points="468.11,-51.5 478.11,-48 468.11,-44.5 468.11,-51.5"/>
</a>
</g>
</g>
</g>
</svg>
