<?xml version="1.0" encoding="UTF-8" standalone="no"?>
<!DOCTYPE svg PUBLIC "-//W3C//DTD SVG 1.1//EN"
 "http://www.w3.org/Graphics/SVG/1.1/DTD/svg11.dtd">
<!-- Generated by graphviz version 14.1.2 (20260124.0452)
 -->
<!-- Title: mat.h Pages: 1 -->
<svg width="1017pt" height="196pt"
 viewBox="0.00 0.00 1017.00 196.00" xmlns="http://www.w3.org/2000/svg" xmlns:xlink="http://www.w3.org/1999/xlink">
<g id="graph0" class="graph" transform="scale(1 1) rotate(0) translate(4 192)">
<title>mat.h</title>
<!-- Node1 -->
<g id="Node000001" class="node">
<title>Node1</title>
<g id="a_Node000001"><a xlink:title=" ">
<polygon fill="#999999" stroke="#666666" points="477.75,-188 437,-188 437,-168 477.75,-168 477.75,-188"/>
<text xml:space="preserve" text-anchor="middle" x="457.38" y="-174.5" font-family="Helvetica,sans-Serif" font-size="10.00">mat.h</text>
</a>
</g>
</g>
<!-- Node2 -->
<g id="Node000002" class="node">
<title>Node2</title>
<g id="a_Node000002"><a xlink:href="ekf_8h.html" target="_top" xlink:title=" ">
<polygon fill="white" stroke="#666666" points="445.25,-132 407.5,-132 407.5,-112 445.25,-112 445.25,-132"/>
<text xml:space="preserve" text-anchor="middle" x="426.38" y="-118.5" font-family="Helvetica,sans-Serif" font-size="10.00">ekf.h</text>
</a>
</g>
</g>
<!-- Node1&#45;&gt;Node2 -->
<g id="edge1_Node000001_Node000002" class="edge">
<title>Node1&#45;&gt;Node2</title>
<g id="a_edge1_Node000001_Node000002"><a xlink:title=" ">
<path fill="none" stroke="#63b8ff" d="M446.39,-157.87C441.41,-149.19 435.74,-139.32 431.71,-132.3"/>
<polygon fill="#63b8ff" stroke="#63b8ff" points="443.21,-159.35 451.22,-166.28 449.28,-155.87 443.21,-159.35"/>
</a>
</g>
</g>
<!-- Node16 -->
<g id="Node000016" class="node">
<title>Node16</title>
<g id="a_Node000016"><a xlink:href="mat_8cpp.html" target="_top" xlink:title=" ">
<polygon fill="white" stroke="#666666" points="515,-132 463.75,-132 463.75,-112 515,-112 515,-132"/>
<text xml:space="preserve" text-anchor="middle" x="489.38" y="-118.5" font-family="Helvetica,sans-Serif" font-size="10.00">mat.cpp</text>
</a>
</g>
</g>
<!-- Node1&#45;&gt;Node16 -->
<g id="edge12_Node000001_Node000016" class="edge">
<title>Node1&#45;&gt;Node16</title>
<g id="a_edge12_Node000001_Node000016"><a xlink:title=" ">
<path fill="none" stroke="#63b8ff" d="M468.71,-157.87C473.86,-149.19 479.71,-139.32 483.86,-132.3"/>
<polygon fill="#63b8ff" stroke="#63b8ff" points="465.81,-155.9 463.72,-166.29 471.83,-159.47 465.81,-155.9"/>
</a>
</g>
</g>
<!-- Node3 -->
<g id="Node000003" class="node">
<title>Node3</title>
<g id="a_Node000003"><a xlink:href="ekf_8cpp.html" target="_top" xlink:title=" ">
<polygon fill="white" stroke="#666666" points="405.5,-76 357.25,-76 357.25,-56 405.5,-56 405.5,-76"/>
<text xml:space="preserve" text-anchor="middle" x="381.38" y="-62.5" font-family="Helvetica,sans-Serif" font-size="10.00">ekf.cpp</text>
</a>
</g>
</g>
<!-- Node2&#45;&gt;Node3 -->
<g id="edge2_Node000002_Node000003" class="edge">
<title>Node2&#45;&gt;Node3</title>
<g id="a_edge2_Node000002_Node000003"><a xlink:title=" ">
<path fill="none" stroke="#63b8ff" d="M411.38,-103C403.92,-94.06 395.23,-83.62 389.12,-76.3"/>
<polygon fill="#63b8ff" stroke="#63b8ff" points="408.48,-104.99 417.57,-110.43 413.85,-100.51 408.48,-104.99"/>
</a>
</g>
</g>
<!-- Node4 -->
<g id="Node000004" class="node">
<title>Node4</title>
<g id="a_Node000004"><a xlink:href="ekf__imu13states_8h.html" target="_top" xlink:title=" ">
<polygon fill="white" stroke="#666666" points="519.5,-76 423.25,-76 423.25,-56 519.5,-56 519.5,-76"/>
<text xml:space="preserve" text-anchor="middle" x="471.38" y="-62.5" font-family="Helvetica,sans-Serif" font-size="10.00">ekf_imu13states.h</text>
</a>
</g>
</g>
<!-- Node2&#45;&gt;Node4 -->
<g id="edge3_Node000002_Node000004" class="edge">
<title>Node2&#45;&gt;Node4</title>
<g id="a_edge3_Node000002_Node000004"><a xlink:title=" ">
<path fill="none" stroke="#63b8ff" d="M441.37,-103C448.83,-94.06 457.52,-83.62 463.63,-76.3"/>
<polygon fill="#63b8ff" stroke="#63b8ff" points="438.9,-100.51 435.18,-110.43 444.27,-104.99 438.9,-100.51"/>
</a>
</g>
</g>
<!-- Node5 -->
<g id="Node000005" class="node">
<title>Node5</title>
<g id="a_Node000005"><a xlink:href="ekf__imu13states_8cpp.html" target="_top" xlink:title=" ">
<polygon fill="white" stroke="#666666" points="106.75,-20 0,-20 0,0 106.75,0 106.75,-20"/>
<text xml:space="preserve" text-anchor="middle" x="53.38" y="-6.5" font-family="Helvetica,sans-Serif" font-size="10.00">ekf_imu13states.cpp</text>
</a>
</g>
</g>
<!-- Node4&#45;&gt;Node5 -->
<g id="edge4_Node000004_Node000005" class="edge">
<title>Node4&#45;&gt;Node5</title>
<g id="a_edge4_Node000004_Node000005"><a xlink:title=" ">
<path fill="none" stroke="#63b8ff" d="M411.58,-55.65C280.33,-37.57 245.02,-36.96 116.38,-20 113.31,-19.6 110.16,-19.17 106.98,-18.74"/>
<polygon fill="#63b8ff" stroke="#63b8ff" points="411,-59.11 421.38,-57.01 411.96,-52.17 411,-59.11"/>
</a>
</g>
</g>
<!-- Node6 -->
<g id="Node000006" class="node">
<title>Node6</title>
<g id="a_Node000006"><a xlink:href="applications_2azure__board__apps_2graphics_23d__matrix_23d__matrix__src_2graphics__support_8h.html" target="_top" xlink:title=" ">
<polygon fill="#fff0f0" stroke="red" points="223.62,-20 125.12,-20 125.12,0 223.62,0 223.62,-20"/>
<text xml:space="preserve" text-anchor="middle" x="174.38" y="-6.5" font-family="Helvetica,sans-Serif" font-size="10.00">graphics_support.h</text>
</a>
</g>
</g>
<!-- Node4&#45;&gt;Node6 -->
<g id="edge5_Node000004_Node000006" class="edge">
<title>Node4&#45;&gt;Node6</title>
<g id="a_edge5_Node000004_Node000006"><a xlink:title=" ">
<path fill="none" stroke="#63b8ff" d="M411.97,-54.2C356.75,-44.16 275.46,-29.38 223.72,-19.97"/>
<polygon fill="#63b8ff" stroke="#63b8ff" points="411.04,-57.59 421.51,-55.93 412.29,-50.7 411.04,-57.59"/>
</a>
</g>
</g>
<!-- Node8 -->
<g id="Node000008" class="node">
<title>Node8</title>
<g id="a_Node000008"><a xlink:href="external__examples_2b00f000e_2applications_2azure__board__apps_2graphics_23d__matrix_23d__matrix__src_2graphics__support_8h.html" target="_top" xlink:title=" ">
<polygon fill="#fff0f0" stroke="red" points="340.62,-20 242.12,-20 242.12,0 340.62,0 340.62,-20"/>
<text xml:space="preserve" text-anchor="middle" x="291.38" y="-6.5" font-family="Helvetica,sans-Serif" font-size="10.00">graphics_support.h</text>
</a>
</g>
</g>
<!-- Node4&#45;&gt;Node8 -->
<g id="edge6_Node000004_Node000008" class="edge">
<title>Node4&#45;&gt;Node8</title>
<g id="a_edge6_Node000004_Node000008"><a xlink:title=" ">
<path fill="none" stroke="#63b8ff" d="M429.06,-52.31C396.57,-42.56 352.43,-29.32 322.97,-20.48"/>
<polygon fill="#63b8ff" stroke="#63b8ff" points="427.99,-55.64 438.57,-55.16 430,-48.93 427.99,-55.64"/>
</a>
</g>
</g>
<!-- Node10 -->
<g id="Node000010" class="node">
<title>Node10</title>
<g id="a_Node000010"><a xlink:href="external__examples_2f9c2d4b3_2azure__board__apps_2graphics_23d__matrix_23d__matrix__src_2graphics__support_8h.html" target="_top" xlink:title=" ">
<polygon fill="#fff0f0" stroke="red" points="457.62,-20 359.12,-20 359.12,0 457.62,0 457.62,-20"/>
<text xml:space="preserve" text-anchor="middle" x="408.38" y="-6.5" font-family="Helvetica,sans-Serif" font-size="10.00">graphics_support.h</text>
</a>
</g>
</g>
<!-- Node4&#45;&gt;Node10 -->
<g id="edge7_Node000004_Node000010" class="edge">
<title>Node4&#45;&gt;Node10</title>
<g id="a_edge7_Node000004_Node000010"><a xlink:title=" ">
<path fill="none" stroke="#63b8ff" d="M451.69,-48.13C440.97,-38.94 428.13,-27.93 419.22,-20.3"/>
<polygon fill="#63b8ff" stroke="#63b8ff" points="449.38,-50.76 459.25,-54.61 453.94,-45.44 449.38,-50.76"/>
</a>
</g>
</g>
<!-- Node12 -->
<g id="Node000012" class="node">
<title>Node12</title>
<g id="a_Node000012"><a xlink:href="applications_2azure__board__apps_2apps_2kalman__filter_2main_2kalman__filter__demo_8cpp.html" target="_top" xlink:title=" ">
<polygon fill="white" stroke="#666666" points="595.12,-20 475.62,-20 475.62,0 595.12,0 595.12,-20"/>
<text xml:space="preserve" text-anchor="middle" x="535.38" y="-6.5" font-family="Helvetica,sans-Serif" font-size="10.00">kalman_filter_demo.cpp</text>
</a>
</g>
</g>
<!-- Node4&#45;&gt;Node12 -->
<g id="edge8_Node000004_Node000012" class="edge">
<title>Node4&#45;&gt;Node12</title>
<g id="a_edge8_Node000004_Node000012"><a xlink:title=" ">
<path fill="none" stroke="#63b8ff" d="M491.05,-48.4C501.99,-39.17 515.22,-28.01 524.35,-20.3"/>
<polygon fill="#63b8ff" stroke="#63b8ff" points="489.07,-45.49 483.68,-54.62 493.58,-50.84 489.07,-45.49"/>
</a>
</g>
</g>
<!-- Node13 -->
<g id="Node000013" class="node">
<title>Node13</title>
<g id="a_Node000013"><a xlink:href="external__examples_2b00f000e_2applications_2azure__board__apps_2apps_2kalman__filter_2main_2kalman__filter__demo_8cpp.html" target="_top" xlink:title=" ">
<polygon fill="white" stroke="#666666" points="733.12,-20 613.62,-20 613.62,0 733.12,0 733.12,-20"/>
<text xml:space="preserve" text-anchor="middle" x="673.38" y="-6.5" font-family="Helvetica,sans-Serif" font-size="10.00">kalman_filter_demo.cpp</text>
</a>
</g>
</g>
<!-- Node4&#45;&gt;Node13 -->
<g id="edge9_Node000004_Node000013" class="edge">
<title>Node4&#45;&gt;Node13</title>
<g id="a_edge9_Node000004_Node000013"><a xlink:title=" ">
<path fill="none" stroke="#63b8ff" d="M517.44,-52.69C554.02,-42.91 604.43,-29.43 637.91,-20.48"/>
<polygon fill="#63b8ff" stroke="#63b8ff" points="516.78,-49.24 508.02,-55.2 518.59,-56 516.78,-49.24"/>
</a>
</g>
</g>
<!-- Node14 -->
<g id="Node000014" class="node">
<title>Node14</title>
<g id="a_Node000014"><a xlink:href="external__examples_2d1468452_2apps_2kalman__filter_2main_2kalman__filter__demo_8cpp.html" target="_top" xlink:title=" ">
<polygon fill="white" stroke="#666666" points="871.12,-20 751.62,-20 751.62,0 871.12,0 871.12,-20"/>
<text xml:space="preserve" text-anchor="middle" x="811.38" y="-6.5" font-family="Helvetica,sans-Serif" font-size="10.00">kalman_filter_demo.cpp</text>
</a>
</g>
</g>
<!-- Node4&#45;&gt;Node14 -->
<g id="edge10_Node000004_Node000014" class="edge">
<title>Node4&#45;&gt;Node14</title>
<g id="a_edge10_Node000004_Node000014"><a xlink:title=" ">
<path fill="none" stroke="#63b8ff" d="M530.9,-55.55C592.95,-45.69 689.65,-30.33 751.74,-20.47"/>
<polygon fill="#63b8ff" stroke="#63b8ff" points="530.55,-52.06 521.22,-57.08 531.65,-58.97 530.55,-52.06"/>
</a>
</g>
</g>
<!-- Node15 -->
<g id="Node000015" class="node">
<title>Node15</title>
<g id="a_Node000015"><a xlink:href="external__examples_2f9c2d4b3_2azure__board__apps_2apps_2kalman__filter_2main_2kalman__filter__demo_8cpp.html" target="_top" xlink:title=" ">
<polygon fill="white" stroke="#666666" points="1009.12,-20 889.62,-20 889.62,0 1009.12,0 1009.12,-20"/>
<text xml:space="preserve" text-anchor="middle" x="949.38" y="-6.5" font-family="Helvetica,sans-Serif" font-size="10.00">kalman_filter_demo.cpp</text>
</a>
</g>
</g>
<!-- Node4&#45;&gt;Node15 -->
<g id="edge11_Node000004_Node000015" class="edge">
<title>Node4&#45;&gt;Node15</title>
<g id="a_edge11_Node000004_Node000015"><a xlink:title=" ">
<path fill="none" stroke="#63b8ff" d="M531.16,-58.8C610.87,-50.45 756.33,-34.91 880.38,-20 883.25,-19.65 886.2,-19.29 889.17,-18.92"/>
<polygon fill="#63b8ff" stroke="#63b8ff" points="530.98,-55.3 521.4,-59.82 531.71,-62.26 530.98,-55.3"/>
</a>
</g>
</g>
</g>
</svg>
