<?xml version="1.0" encoding="UTF-8" standalone="no"?>
<!DOCTYPE svg PUBLIC "-//W3C//DTD SVG 1.1//EN"
 "http://www.w3.org/Graphics/SVG/1.1/DTD/svg11.dtd">
<!-- Generated by graphviz version 14.1.2 (20260124.0452)
 -->
<!-- Title: mat.cpp Pages: 1 -->
<!--zoomable 196 -->

<svg id="main" version="1.1" xmlns="http://www.w3.org/2000/svg" xmlns:xlink="http://www.w3.org/1999/xlink" xml:space="preserve" onload="init(evt)">

<style type="text/css"><![CDATA[
.node, .edge {opacity: 0.7;}
.node.selected, .edge.selected {opacity: 1;}
.edge:hover path { stroke: red; }
.edge:hover polygon { stroke: red; fill: red; }
]]></style>

<defs>
  <circle id="rim" cx="0" cy="0" r="7"/>
  <circle id="rim2" cx="0" cy="0" r="3.5"/>
  <g id="zoomPlus">
    <use xlink:href="#rim" fill="#404040"><set attributeName="fill" to="#808080" begin="zoomplus.mouseover" end="zoomplus.mouseout"/></use>
    <path d="M-4,0h8M0,-4v8" fill="none" stroke="white" stroke-width="1.5" pointer-events="none"/>
  </g>
  <g id="zoomMin">
    <use xlink:href="#rim" fill="#404040"><set attributeName="fill" to="#808080" begin="zoomminus.mouseover" end="zoomminus.mouseout"/></use>
    <path d="M-4,0h8" fill="none" stroke="white" stroke-width="1.5" pointer-events="none"/>
  </g>
  <g id="arrowUp" transform="translate(30 24)">
    <use xlink:href="#rim"/>
    <path pointer-events="none" fill="none" stroke="white" stroke-width="1.5" d="M0,-3.0v7 M-2.5,-0.5L0,-3.0L2.5,-0.5"/>
  </g>
  <g id="arrowRight" transform="rotate(90) translate(36 -43)">
    <use xlink:href="#rim"/>
    <path pointer-events="none" fill="none" stroke="white" stroke-width="1.5" d="M0,-3.0v7 M-2.5,-0.5L0,-3.0L2.5,-0.5"/>
  </g>
  <g id="arrowDown" transform="rotate(180) translate(-30 -48)">
    <use xlink:href="#rim"/>
    <path pointer-events="none" fill="none" stroke="white" stroke-width="1.5" d="M0,-3.0v7 M-2.5,-0.5L0,-3.0L2.5,-0.5"/>
  </g>
  <g id="arrowLeft" transform="rotate(270) translate(-36 17)">
    <use xlink:href="#rim"/>
    <path pointer-events="none" fill="none" stroke="white" stroke-width="1.5" d="M0,-3.0v7 M-2.5,-0.5L0,-3.0L2.5,-0.5"/>
  </g>
  <g id="resetDef">
    <use xlink:href="#rim2" fill="#404040"><set attributeName="fill" to="#808080" begin="reset.mouseover" end="reset.mouseout"/></use>
  </g>
</defs>
<script type="application/ecmascript">
var viewWidth = 1351;
var viewHeight = 196;
var sectionId = 'dynsection-0';
</script>
<script type="application/ecmascript" xlink:href="svg.min.js"/>
<svg id="graph" class="graph">
<g id="viewport">
<title>mat.cpp</title>
<!-- Node1 -->
<g id="Node000001" class="node">
<title>Node1</title>
<g id="a_Node000001"><a xlink:title=" ">
<polygon fill="#999999" stroke="#666666" points="556.62,-188 505.38,-188 505.38,-168 556.62,-168 556.62,-188"/>
<text xml:space="preserve" text-anchor="middle" x="531" y="-174.5" font-family="Helvetica,sans-Serif" font-size="10.00">mat.cpp</text>
</a>
</g>
</g>
<!-- Node2 -->
<g id="Node000002" class="node">
<title>Node2</title>
<g id="a_Node000002"><a xlink:title=" ">
<polygon fill="#e0e0e0" stroke="#999999" points="275.38,-132 216.62,-132 216.62,-112 275.38,-112 275.38,-132"/>
<text xml:space="preserve" text-anchor="middle" x="246" y="-118.5" font-family="Helvetica,sans-Serif" font-size="10.00">stdexcept</text>
</a>
</g>
</g>
<!-- Node1&#45;&gt;Node2 -->
<g id="edge1_Node000001_Node000002" class="edge">
<title>Node1&#45;&gt;Node2</title>
<g id="a_edge1_Node000001_Node000002"><a xlink:title=" ">
<path fill="none" stroke="#63b8ff" d="M505.07,-172.66C462.02,-165.37 372.84,-149.9 287.04,-132.34"/>
<polygon fill="#63b8ff" stroke="#63b8ff" points="287.76,-128.92 277.26,-130.33 286.35,-135.77 287.76,-128.92"/>
</a>
</g>
</g>
<!-- Node3 -->
<g id="Node000003" class="node">
<title>Node3</title>
<g id="a_Node000003"><a xlink:title=" ">
<polygon fill="#e0e0e0" stroke="#999999" points="342.12,-132 293.88,-132 293.88,-112 342.12,-112 342.12,-132"/>
<text xml:space="preserve" text-anchor="middle" x="318" y="-118.5" font-family="Helvetica,sans-Serif" font-size="10.00">string.h</text>
</a>
</g>
</g>
<!-- Node1&#45;&gt;Node3 -->
<g id="edge2_Node000001_Node000003" class="edge">
<title>Node1&#45;&gt;Node3</title>
<g id="a_edge2_Node000001_Node000003"><a xlink:title=" ">
<path fill="none" stroke="#63b8ff" d="M504.89,-170.54C471.98,-162.38 413.42,-147.79 353.34,-132.32"/>
<polygon fill="#63b8ff" stroke="#63b8ff" points="354.53,-129.01 343.97,-129.9 352.78,-135.79 354.53,-129.01"/>
</a>
</g>
</g>
<!-- Node4 -->
<g id="Node000004" class="node">
<title>Node4</title>
<g id="a_Node000004"><a xlink:href="mat_8h.html" target="_top" xlink:title=" ">
<polygon fill="white" stroke="#666666" points="401.38,-132 360.62,-132 360.62,-112 401.38,-112 401.38,-132"/>
<text xml:space="preserve" text-anchor="middle" x="381" y="-118.5" font-family="Helvetica,sans-Serif" font-size="10.00">mat.h</text>
</a>
</g>
</g>
<!-- Node1&#45;&gt;Node4 -->
<g id="edge3_Node000001_Node000004" class="edge">
<title>Node1&#45;&gt;Node4</title>
<g id="a_edge3_Node000001_Node000004"><a xlink:title=" ">
<path fill="none" stroke="#63b8ff" d="M505.21,-167.72C479.45,-158.44 439.8,-144.17 412.26,-134.25"/>
<polygon fill="#63b8ff" stroke="#63b8ff" points="413.65,-131.03 403.06,-130.94 411.28,-137.62 413.65,-131.03"/>
</a>
</g>
</g>
<!-- Node6 -->
<g id="Node000006" class="node">
<title>Node6</title>
<g id="a_Node000006"><a xlink:href="esp__log_8h.html" target="_top" xlink:title=" ">
<polygon fill="white" stroke="#666666" points="477,-132 419,-132 419,-112 477,-112 477,-132"/>
<text xml:space="preserve" text-anchor="middle" x="448" y="-118.5" font-family="Helvetica,sans-Serif" font-size="10.00">esp_log.h</text>
</a>
</g>
</g>
<!-- Node1&#45;&gt;Node6 -->
<g id="edge5_Node000001_Node000006" class="edge">
<title>Node1&#45;&gt;Node6</title>
<g id="a_edge5_Node000001_Node000006"><a xlink:title=" ">
<path fill="none" stroke="#63b8ff" d="M516.54,-167.59C504.24,-159.59 486.32,-147.93 471.89,-138.54"/>
<polygon fill="#63b8ff" stroke="#63b8ff" points="474.13,-135.82 463.84,-133.3 470.31,-141.69 474.13,-135.82"/>
</a>
</g>
</g>
<!-- Node8 -->
<g id="Node000008" class="node">
<title>Node8</title>
<g id="a_Node000008"><a xlink:href="dsps__math_8h.html" target="_top" xlink:title=" ">
<polygon fill="white" stroke="#666666" points="567.12,-132 494.88,-132 494.88,-112 567.12,-112 567.12,-132"/>
<text xml:space="preserve" text-anchor="middle" x="531" y="-118.5" font-family="Helvetica,sans-Serif" font-size="10.00">dsps_math.h</text>
</a>
</g>
</g>
<!-- Node1&#45;&gt;Node8 -->
<g id="edge7_Node000001_Node000008" class="edge">
<title>Node1&#45;&gt;Node8</title>
<g id="a_edge7_Node000001_Node000008"><a xlink:title=" ">
<path fill="none" stroke="#63b8ff" d="M531,-167.59C531,-161.01 531,-151.96 531,-143.73"/>
<polygon fill="#63b8ff" stroke="#63b8ff" points="534.5,-143.81 531,-133.81 527.5,-143.81 534.5,-143.81"/>
</a>
</g>
</g>
<!-- Node25 -->
<g id="Node000025" class="node">
<title>Node25</title>
<g id="a_Node000025"><a xlink:href="dspm__matrix_8h.html" target="_top" xlink:title=" ">
<polygon fill="white" stroke="#666666" points="788.25,-132 707.75,-132 707.75,-112 788.25,-112 788.25,-132"/>
<text xml:space="preserve" text-anchor="middle" x="748" y="-118.5" font-family="Helvetica,sans-Serif" font-size="10.00">dspm_matrix.h</text>
</a>
</g>
</g>
<!-- Node1&#45;&gt;Node25 -->
<g id="edge25_Node000001_Node000025" class="edge">
<title>Node1&#45;&gt;Node25</title>
<g id="a_edge25_Node000001_Node000025"><a xlink:title=" ">
<path fill="none" stroke="#63b8ff" d="M556.74,-170.59C591.65,-161.91 654.7,-146.22 698.83,-135.24"/>
<polygon fill="#63b8ff" stroke="#63b8ff" points="699.57,-138.66 708.43,-132.85 697.88,-131.87 699.57,-138.66"/>
</a>
</g>
</g>
<!-- Node36 -->
<g id="Node000036" class="node">
<title>Node36</title>
<g id="a_Node000036"><a xlink:title=" ">
<polygon fill="#e0e0e0" stroke="#999999" points="852,-132 806,-132 806,-112 852,-112 852,-132"/>
<text xml:space="preserve" text-anchor="middle" x="829" y="-118.5" font-family="Helvetica,sans-Serif" font-size="10.00">math.h</text>
</a>
</g>
</g>
<!-- Node1&#45;&gt;Node36 -->
<g id="edge41_Node000001_Node000036" class="edge">
<title>Node1&#45;&gt;Node36</title>
<g id="a_edge41_Node000001_Node000036"><a xlink:title=" ">
<path fill="none" stroke="#63b8ff" d="M556.86,-173.56C602.79,-167.25 701.79,-152.76 794.66,-132.33"/>
<polygon fill="#63b8ff" stroke="#63b8ff" points="795.18,-135.8 804.18,-130.21 793.65,-128.97 795.18,-135.8"/>
</a>
</g>
</g>
<!-- Node37 -->
<g id="Node000037" class="node">
<title>Node37</title>
<g id="a_Node000037"><a xlink:title=" ">
<polygon fill="#e0e0e0" stroke="#999999" points="913.5,-132 870.5,-132 870.5,-112 913.5,-112 913.5,-132"/>
<text xml:space="preserve" text-anchor="middle" x="892" y="-118.5" font-family="Helvetica,sans-Serif" font-size="10.00">cmath</text>
</a>
</g>
</g>
<!-- Node1&#45;&gt;Node37 -->
<g id="edge42_Node000001_Node000037" class="edge">
<title>Node1&#45;&gt;Node37</title>
<g id="a_edge42_Node000001_Node000037"><a xlink:title=" ">
<path fill="none" stroke="#63b8ff" d="M556.9,-174.78C611.15,-169.84 740.83,-156.59 859.05,-132.12"/>
<polygon fill="#63b8ff" stroke="#63b8ff" points="859.54,-135.59 868.6,-130.11 858.1,-128.74 859.54,-135.59"/>
</a>
</g>
</g>
<!-- Node38 -->
<g id="Node000038" class="node">
<title>Node38</title>
<g id="a_Node000038"><a xlink:title=" ">
<polygon fill="#e0e0e0" stroke="#999999" points="990.38,-132 931.62,-132 931.62,-112 990.38,-112 990.38,-132"/>
<text xml:space="preserve" text-anchor="middle" x="961" y="-118.5" font-family="Helvetica,sans-Serif" font-size="10.00">inttypes.h</text>
</a>
</g>
</g>
<!-- Node1&#45;&gt;Node38 -->
<g id="edge43_Node000001_Node000038" class="edge">
<title>Node1&#45;&gt;Node38</title>
<g id="a_edge43_Node000001_Node000038"><a xlink:title=" ">
<path fill="none" stroke="#63b8ff" d="M556.84,-175.1C618.2,-170.36 777.65,-156.71 920.1,-132.34"/>
<polygon fill="#63b8ff" stroke="#63b8ff" points="920.45,-135.83 929.71,-130.67 919.26,-128.93 920.45,-135.83"/>
</a>
</g>
</g>
<!-- Node5 -->
<g id="Node000005" class="node">
<title>Node5</title>
<g id="a_Node000005"><a xlink:title=" ">
<polygon fill="#e0e0e0" stroke="#999999" points="112.75,-76 59.25,-76 59.25,-56 112.75,-56 112.75,-76"/>
<text xml:space="preserve" text-anchor="middle" x="86" y="-62.5" font-family="Helvetica,sans-Serif" font-size="10.00">iostream</text>
</a>
</g>
</g>
<!-- Node4&#45;&gt;Node5 -->
<g id="edge4_Node000004_Node000005" class="edge">
<title>Node4&#45;&gt;Node5</title>
<g id="a_edge4_Node000004_Node000005"><a xlink:title=" ">
<path fill="none" stroke="#63b8ff" d="M360.44,-114.43C357.3,-113.54 354.08,-112.7 351,-112 253.97,-89.93 224.93,-96.05 124.05,-76.24"/>
<polygon fill="#63b8ff" stroke="#63b8ff" points="125.04,-72.87 114.55,-74.34 123.67,-79.74 125.04,-72.87"/>
</a>
</g>
</g>
<!-- Node7 -->
<g id="Node000007" class="node">
<title>Node7</title>
<g id="a_Node000007"><a xlink:title=" ">
<polygon fill="#e0e0e0" stroke="#999999" points="178.75,-76 131.25,-76 131.25,-56 178.75,-56 178.75,-76"/>
<text xml:space="preserve" text-anchor="middle" x="155" y="-62.5" font-family="Helvetica,sans-Serif" font-size="10.00">stdlib.h</text>
</a>
</g>
</g>
<!-- Node6&#45;&gt;Node7 -->
<g id="edge6_Node000006_Node000007" class="edge">
<title>Node6&#45;&gt;Node7</title>
<g id="a_edge6_Node000006_Node000007"><a xlink:title=" ">
<path fill="none" stroke="#63b8ff" d="M418.59,-113.81C415.69,-113.17 412.79,-112.56 410,-112 315.51,-93.17 287.68,-96.87 190.33,-76.3"/>
<polygon fill="#63b8ff" stroke="#63b8ff" points="191.07,-72.88 180.56,-74.2 189.6,-79.72 191.07,-72.88"/>
</a>
</g>
</g>
<!-- Node9 -->
<g id="Node000009" class="node">
<title>Node9</title>
<g id="a_Node000009"><a xlink:href="dsps__add_8h.html" target="_top" xlink:title=" ">
<polygon fill="white" stroke="#666666" points="353.12,-76 286.88,-76 286.88,-56 353.12,-56 353.12,-76"/>
<text xml:space="preserve" text-anchor="middle" x="320" y="-62.5" font-family="Helvetica,sans-Serif" font-size="10.00">dsps_add.h</text>
</a>
</g>
</g>
<!-- Node8&#45;&gt;Node9 -->
<g id="edge8_Node000008_Node000009" class="edge">
<title>Node8&#45;&gt;Node9</title>
<g id="a_edge8_Node000008_Node000009"><a xlink:title=" ">
<path fill="none" stroke="#63b8ff" d="M494.73,-111.72C458.59,-102.47 403.04,-88.25 364.31,-78.34"/>
<polygon fill="#63b8ff" stroke="#63b8ff" points="365.39,-75 354.83,-75.91 363.65,-81.78 365.39,-75"/>
</a>
</g>
</g>
<!-- Node16 -->
<g id="Node000016" class="node">
<title>Node16</title>
<g id="a_Node000016"><a xlink:href="dsps__sub_8h.html" target="_top" xlink:title=" ">
<polygon fill="white" stroke="#666666" points="437.12,-76 370.88,-76 370.88,-56 437.12,-56 437.12,-76"/>
<text xml:space="preserve" text-anchor="middle" x="404" y="-62.5" font-family="Helvetica,sans-Serif" font-size="10.00">dsps_sub.h</text>
</a>
</g>
</g>
<!-- Node8&#45;&gt;Node16 -->
<g id="edge11_Node000008_Node000016" class="edge">
<title>Node8&#45;&gt;Node16</title>
<g id="a_edge11_Node000008_Node000016"><a xlink:title=" ">
<path fill="none" stroke="#63b8ff" d="M508.88,-111.59C488.97,-103.13 459.45,-90.58 436.79,-80.94"/>
<polygon fill="#63b8ff" stroke="#63b8ff" points="438.26,-77.76 427.69,-77.07 435.52,-84.21 438.26,-77.76"/>
</a>
</g>
</g>
<!-- Node18 -->
<g id="Node000018" class="node">
<title>Node18</title>
<g id="a_Node000018"><a xlink:href="dsps__mul_8h.html" target="_top" xlink:title=" ">
<polygon fill="white" stroke="#666666" points="521.12,-76 454.88,-76 454.88,-56 521.12,-56 521.12,-76"/>
<text xml:space="preserve" text-anchor="middle" x="488" y="-62.5" font-family="Helvetica,sans-Serif" font-size="10.00">dsps_mul.h</text>
</a>
</g>
</g>
<!-- Node8&#45;&gt;Node18 -->
<g id="edge14_Node000008_Node000018" class="edge">
<title>Node8&#45;&gt;Node18</title>
<g id="a_edge14_Node000008_Node000018"><a xlink:title=" ">
<path fill="none" stroke="#63b8ff" d="M523.51,-111.59C517.71,-104.32 509.51,-94.02 502.45,-85.15"/>
<polygon fill="#63b8ff" stroke="#63b8ff" points="505.31,-83.12 496.35,-77.48 499.84,-87.49 505.31,-83.12"/>
</a>
</g>
</g>
<!-- Node20 -->
<g id="Node000020" class="node">
<title>Node20</title>
<g id="a_Node000020"><a xlink:href="dsps__addc_8h.html" target="_top" xlink:title=" ">
<polygon fill="white" stroke="#666666" points="610.75,-76 539.25,-76 539.25,-56 610.75,-56 610.75,-76"/>
<text xml:space="preserve" text-anchor="middle" x="575" y="-62.5" font-family="Helvetica,sans-Serif" font-size="10.00">dsps_addc.h</text>
</a>
</g>
</g>
<!-- Node8&#45;&gt;Node20 -->
<g id="edge17_Node000008_Node000020" class="edge">
<title>Node8&#45;&gt;Node20</title>
<g id="a_edge17_Node000008_Node000020"><a xlink:title=" ">
<path fill="none" stroke="#63b8ff" d="M538.66,-111.59C544.59,-104.32 552.99,-94.02 560.21,-85.15"/>
<polygon fill="#63b8ff" stroke="#63b8ff" points="562.86,-87.43 566.47,-77.47 557.44,-83.01 562.86,-87.43"/>
</a>
</g>
</g>
<!-- Node22 -->
<g id="Node000022" class="node">
<title>Node22</title>
<g id="a_Node000022"><a xlink:href="dsps__mulc_8h.html" target="_top" xlink:title=" ">
<polygon fill="white" stroke="#666666" points="268.75,-76 197.25,-76 197.25,-56 268.75,-56 268.75,-76"/>
<text xml:space="preserve" text-anchor="middle" x="233" y="-62.5" font-family="Helvetica,sans-Serif" font-size="10.00">dsps_mulc.h</text>
</a>
</g>
</g>
<!-- Node8&#45;&gt;Node22 -->
<g id="edge20_Node000008_Node000022" class="edge">
<title>Node8&#45;&gt;Node22</title>
<g id="a_edge20_Node000008_Node000022"><a xlink:title=" ">
<path fill="none" stroke="#63b8ff" d="M494.67,-113.65C491.74,-113.08 488.82,-112.53 486,-112 397.28,-95.45 372.12,-93.35 280.1,-76.35"/>
<polygon fill="#63b8ff" stroke="#63b8ff" points="280.8,-72.92 270.33,-74.53 279.53,-79.8 280.8,-72.92"/>
</a>
</g>
</g>
<!-- Node24 -->
<g id="Node000024" class="node">
<title>Node24</title>
<g id="a_Node000024"><a xlink:href="dsps__sqrt_8h.html" target="_top" xlink:title=" ">
<polygon fill="white" stroke="#666666" points="695.5,-76 628.5,-76 628.5,-56 695.5,-56 695.5,-76"/>
<text xml:space="preserve" text-anchor="middle" x="662" y="-62.5" font-family="Helvetica,sans-Serif" font-size="10.00">dsps_sqrt.h</text>
</a>
</g>
</g>
<!-- Node8&#45;&gt;Node24 -->
<g id="edge23_Node000008_Node000024" class="edge">
<title>Node8&#45;&gt;Node24</title>
<g id="a_edge23_Node000008_Node000024"><a xlink:title=" ">
<path fill="none" stroke="#63b8ff" d="M553.82,-111.59C574.45,-103.09 605.08,-90.46 628.49,-80.81"/>
<polygon fill="#63b8ff" stroke="#63b8ff" points="629.69,-84.1 637.6,-77.06 627.02,-77.63 629.69,-84.1"/>
</a>
</g>
</g>
<!-- Node10 -->
<g id="Node000010" class="node">
<title>Node10</title>
<g id="a_Node000010"><a xlink:href="dsp__err_8h.html" target="_top" xlink:title=" ">
<polygon fill="#fff0f0" stroke="red" points="690.25,-20 633.75,-20 633.75,0 690.25,0 690.25,-20"/>
<text xml:space="preserve" text-anchor="middle" x="662" y="-6.5" font-family="Helvetica,sans-Serif" font-size="10.00">dsp_err.h</text>
</a>
</g>
</g>
<!-- Node9&#45;&gt;Node10 -->
<g id="edge9_Node000009_Node000010" class="edge">
<title>Node9&#45;&gt;Node10</title>
<g id="a_edge9_Node000009_Node000010"><a xlink:title=" ">
<path fill="none" stroke="#63b8ff" d="M353.43,-57.6C356.32,-57.03 359.21,-56.49 362,-56 474.69,-36.24 507.14,-41.61 622.34,-20.34"/>
<polygon fill="#63b8ff" stroke="#63b8ff" points="622.71,-23.83 631.89,-18.55 621.42,-16.95 622.71,-23.83"/>
</a>
</g>
</g>
<!-- Node14 -->
<g id="Node000014" class="node">
<title>Node14</title>
<g id="a_Node000014"><a xlink:href="dsps__add__platform_8h.html" target="_top" xlink:title=" ">
<polygon fill="#fff0f0" stroke="red" points="236.38,-20 129.62,-20 129.62,0 236.38,0 236.38,-20"/>
<text xml:space="preserve" text-anchor="middle" x="183" y="-6.5" font-family="Helvetica,sans-Serif" font-size="10.00">dsps_add_platform.h</text>
</a>
</g>
</g>
<!-- Node9&#45;&gt;Node14 -->
<g id="edge10_Node000009_Node000014" class="edge">
<title>Node9&#45;&gt;Node14</title>
<g id="a_edge10_Node000009_Node000014"><a xlink:title=" ">
<path fill="none" stroke="#63b8ff" d="M296.14,-55.59C274.46,-47.05 242.23,-34.35 217.71,-24.68"/>
<polygon fill="#63b8ff" stroke="#63b8ff" points="219.04,-21.45 208.46,-21.03 216.48,-27.96 219.04,-21.45"/>
</a>
</g>
</g>
<!-- Node16&#45;&gt;Node10 -->
<g id="edge12_Node000016_Node000010" class="edge">
<title>Node16&#45;&gt;Node10</title>
<g id="a_edge12_Node000016_Node000010"><a xlink:title=" ">
<path fill="none" stroke="#63b8ff" d="M437.46,-57.79C440.35,-57.18 443.23,-56.58 446,-56 522.04,-40.21 543.93,-37.78 622.42,-20.51"/>
<polygon fill="#63b8ff" stroke="#63b8ff" points="622.86,-24 631.87,-18.42 621.35,-17.16 622.86,-24"/>
</a>
</g>
</g>
<!-- Node17 -->
<g id="Node000017" class="node">
<title>Node17</title>
<g id="a_Node000017"><a xlink:href="dsps__sub__platform_8h.html" target="_top" xlink:title=" ">
<polygon fill="#fff0f0" stroke="red" points="361.38,-20 254.62,-20 254.62,0 361.38,0 361.38,-20"/>
<text xml:space="preserve" text-anchor="middle" x="308" y="-6.5" font-family="Helvetica,sans-Serif" font-size="10.00">dsps_sub_platform.h</text>
</a>
</g>
</g>
<!-- Node16&#45;&gt;Node17 -->
<g id="edge13_Node000016_Node000017" class="edge">
<title>Node16&#45;&gt;Node17</title>
<g id="a_edge13_Node000016_Node000017"><a xlink:title=" ">
<path fill="none" stroke="#63b8ff" d="M387.28,-55.59C372.78,-47.44 351.53,-35.48 334.68,-26"/>
<polygon fill="#63b8ff" stroke="#63b8ff" points="336.6,-23.07 326.17,-21.22 333.17,-29.17 336.6,-23.07"/>
</a>
</g>
</g>
<!-- Node18&#45;&gt;Node10 -->
<g id="edge15_Node000018_Node000010" class="edge">
<title>Node18&#45;&gt;Node10</title>
<g id="a_edge15_Node000018_Node000010"><a xlink:title=" ">
<path fill="none" stroke="#63b8ff" d="M518.31,-55.59C547.31,-46.59 591.2,-32.97 622.84,-23.15"/>
<polygon fill="#63b8ff" stroke="#63b8ff" points="623.52,-26.61 632.03,-20.3 621.45,-19.92 623.52,-26.61"/>
</a>
</g>
</g>
<!-- Node19 -->
<g id="Node000019" class="node">
<title>Node19</title>
<g id="a_Node000019"><a xlink:href="dsps__mul__platform_8h.html" target="_top" xlink:title=" ">
<polygon fill="#fff0f0" stroke="red" points="486.38,-20 379.62,-20 379.62,0 486.38,0 486.38,-20"/>
<text xml:space="preserve" text-anchor="middle" x="433" y="-6.5" font-family="Helvetica,sans-Serif" font-size="10.00">dsps_mul_platform.h</text>
</a>
</g>
</g>
<!-- Node18&#45;&gt;Node19 -->
<g id="edge16_Node000018_Node000019" class="edge">
<title>Node18&#45;&gt;Node19</title>
<g id="a_edge16_Node000018_Node000019"><a xlink:title=" ">
<path fill="none" stroke="#63b8ff" d="M478.42,-55.59C470.77,-48.08 459.84,-37.35 450.62,-28.3"/>
<polygon fill="#63b8ff" stroke="#63b8ff" points="453.14,-25.87 443.55,-21.36 448.23,-30.86 453.14,-25.87"/>
</a>
</g>
</g>
<!-- Node20&#45;&gt;Node10 -->
<g id="edge18_Node000020_Node000010" class="edge">
<title>Node20&#45;&gt;Node10</title>
<g id="a_edge18_Node000020_Node000010"><a xlink:title=" ">
<path fill="none" stroke="#63b8ff" d="M590.15,-55.59C603.05,-47.59 621.83,-35.93 636.96,-26.54"/>
<polygon fill="#63b8ff" stroke="#63b8ff" points="638.79,-29.53 645.44,-21.28 635.1,-23.58 638.79,-29.53"/>
</a>
</g>
</g>
<!-- Node21 -->
<g id="Node000021" class="node">
<title>Node21</title>
<g id="a_Node000021"><a xlink:href="dsps__addc__platform_8h.html" target="_top" xlink:title=" ">
<polygon fill="#fff0f0" stroke="red" points="616,-20 504,-20 504,0 616,0 616,-20"/>
<text xml:space="preserve" text-anchor="middle" x="560" y="-6.5" font-family="Helvetica,sans-Serif" font-size="10.00">dsps_addc_platform.h</text>
</a>
</g>
</g>
<!-- Node20&#45;&gt;Node21 -->
<g id="edge19_Node000020_Node000021" class="edge">
<title>Node20&#45;&gt;Node21</title>
<g id="a_edge19_Node000020_Node000021"><a xlink:title=" ">
<path fill="none" stroke="#63b8ff" d="M572.39,-55.59C570.52,-48.86 567.93,-39.53 565.6,-31.15"/>
<polygon fill="#63b8ff" stroke="#63b8ff" points="569.04,-30.46 562.99,-21.76 562.29,-32.33 569.04,-30.46"/>
</a>
</g>
</g>
<!-- Node22&#45;&gt;Node10 -->
<g id="edge21_Node000022_Node000010" class="edge">
<title>Node22&#45;&gt;Node10</title>
<g id="a_edge21_Node000022_Node000010"><a xlink:title=" ">
<path fill="none" stroke="#63b8ff" d="M268.81,-57.52C271.91,-56.97 275.01,-56.45 278,-56 427.71,-33.31 470.23,-45.77 622.26,-20.26"/>
<polygon fill="#63b8ff" stroke="#63b8ff" points="622.64,-23.75 631.9,-18.62 621.46,-16.85 622.64,-23.75"/>
</a>
</g>
</g>
<!-- Node23 -->
<g id="Node000023" class="node">
<title>Node23</title>
<g id="a_Node000023"><a xlink:href="dsps__mulc__platform_8h.html" target="_top" xlink:title=" ">
<polygon fill="#fff0f0" stroke="red" points="112,-20 0,-20 0,0 112,0 112,-20"/>
<text xml:space="preserve" text-anchor="middle" x="56" y="-6.5" font-family="Helvetica,sans-Serif" font-size="10.00">dsps_mulc_platform.h</text>
</a>
</g>
</g>
<!-- Node22&#45;&gt;Node23 -->
<g id="edge22_Node000022_Node000023" class="edge">
<title>Node22&#45;&gt;Node23</title>
<g id="a_edge22_Node000022_Node000023"><a xlink:title=" ">
<path fill="none" stroke="#63b8ff" d="M202.17,-55.59C173.29,-46.78 129.89,-33.54 97.88,-23.78"/>
<polygon fill="#63b8ff" stroke="#63b8ff" points="99.11,-20.49 88.52,-20.92 97.06,-27.19 99.11,-20.49"/>
</a>
</g>
</g>
<!-- Node24&#45;&gt;Node10 -->
<g id="edge24_Node000024_Node000010" class="edge">
<title>Node24&#45;&gt;Node10</title>
<g id="a_edge24_Node000024_Node000010"><a xlink:title=" ">
<path fill="none" stroke="#63b8ff" d="M662,-55.59C662,-49.01 662,-39.96 662,-31.73"/>
<polygon fill="#63b8ff" stroke="#63b8ff" points="665.5,-31.81 662,-21.81 658.5,-31.81 665.5,-31.81"/>
</a>
</g>
</g>
<!-- Node26 -->
<g id="Node000026" class="node">
<title>Node26</title>
<g id="a_Node000026"><a xlink:href="dspm__add_8h.html" target="_top" xlink:title=" ">
<polygon fill="white" stroke="#666666" points="869.62,-76 800.38,-76 800.38,-56 869.62,-56 869.62,-76"/>
<text xml:space="preserve" text-anchor="middle" x="835" y="-62.5" font-family="Helvetica,sans-Serif" font-size="10.00">dspm_add.h</text>
</a>
</g>
</g>
<!-- Node25&#45;&gt;Node26 -->
<g id="edge26_Node000025_Node000026" class="edge">
<title>Node25&#45;&gt;Node26</title>
<g id="a_edge26_Node000025_Node000026"><a xlink:title=" ">
<path fill="none" stroke="#63b8ff" d="M763.15,-111.59C776.05,-103.59 794.83,-91.93 809.96,-82.54"/>
<polygon fill="#63b8ff" stroke="#63b8ff" points="811.79,-85.53 818.44,-77.28 808.1,-79.58 811.79,-85.53"/>
</a>
</g>
</g>
<!-- Node28 -->
<g id="Node000028" class="node">
<title>Node28</title>
<g id="a_Node000028"><a xlink:href="dspm__addc_8h.html" target="_top" xlink:title=" ">
<polygon fill="white" stroke="#666666" points="962.25,-76 887.75,-76 887.75,-56 962.25,-56 962.25,-76"/>
<text xml:space="preserve" text-anchor="middle" x="925" y="-62.5" font-family="Helvetica,sans-Serif" font-size="10.00">dspm_addc.h</text>
</a>
</g>
</g>
<!-- Node25&#45;&gt;Node28 -->
<g id="edge29_Node000025_Node000028" class="edge">
<title>Node25&#45;&gt;Node28</title>
<g id="a_edge29_Node000025_Node000028"><a xlink:title=" ">
<path fill="none" stroke="#63b8ff" d="M778.83,-111.59C807.71,-102.78 851.11,-89.54 883.12,-79.78"/>
<polygon fill="#63b8ff" stroke="#63b8ff" points="883.94,-83.19 892.48,-76.92 881.89,-76.49 883.94,-83.19"/>
</a>
</g>
</g>
<!-- Node30 -->
<g id="Node000030" class="node">
<title>Node30</title>
<g id="a_Node000030"><a xlink:href="dspm__mult_8h.html" target="_top" xlink:title=" ">
<polygon fill="white" stroke="#666666" points="1052.12,-76 979.88,-76 979.88,-56 1052.12,-56 1052.12,-76"/>
<text xml:space="preserve" text-anchor="middle" x="1016" y="-62.5" font-family="Helvetica,sans-Serif" font-size="10.00">dspm_mult.h</text>
</a>
</g>
</g>
<!-- Node25&#45;&gt;Node30 -->
<g id="edge32_Node000025_Node000030" class="edge">
<title>Node25&#45;&gt;Node30</title>
<g id="a_edge32_Node000025_Node000030"><a xlink:title=" ">
<path fill="none" stroke="#63b8ff" d="M788.7,-112.8C837.03,-103.06 917.5,-86.85 968.59,-76.55"/>
<polygon fill="#63b8ff" stroke="#63b8ff" points="969.06,-80.03 978.17,-74.62 967.68,-73.17 969.06,-80.03"/>
</a>
</g>
</g>
<!-- Node32 -->
<g id="Node000032" class="node">
<title>Node32</title>
<g id="a_Node000032"><a xlink:href="dspm__mulc_8h.html" target="_top" xlink:title=" ">
<polygon fill="white" stroke="#666666" points="1144.25,-76 1069.75,-76 1069.75,-56 1144.25,-56 1144.25,-76"/>
<text xml:space="preserve" text-anchor="middle" x="1107" y="-62.5" font-family="Helvetica,sans-Serif" font-size="10.00">dspm_mulc.h</text>
</a>
</g>
</g>
<!-- Node25&#45;&gt;Node32 -->
<g id="edge35_Node000025_Node000032" class="edge">
<title>Node25&#45;&gt;Node32</title>
<g id="a_edge35_Node000025_Node000032"><a xlink:title=" ">
<path fill="none" stroke="#63b8ff" d="M788.62,-113.39C791.45,-112.91 794.27,-112.44 797,-112 910.39,-93.86 942.27,-95.27 1058.26,-76.37"/>
<polygon fill="#63b8ff" stroke="#63b8ff" points="1058.58,-79.87 1067.88,-74.79 1057.45,-72.96 1058.58,-79.87"/>
</a>
</g>
</g>
<!-- Node34 -->
<g id="Node000034" class="node">
<title>Node34</title>
<g id="a_Node000034"><a xlink:href="dspm__sub_8h.html" target="_top" xlink:title=" ">
<polygon fill="white" stroke="#666666" points="782.62,-76 713.38,-76 713.38,-56 782.62,-56 782.62,-76"/>
<text xml:space="preserve" text-anchor="middle" x="748" y="-62.5" font-family="Helvetica,sans-Serif" font-size="10.00">dspm_sub.h</text>
</a>
</g>
</g>
<!-- Node25&#45;&gt;Node34 -->
<g id="edge38_Node000025_Node000034" class="edge">
<title>Node25&#45;&gt;Node34</title>
<g id="a_edge38_Node000025_Node000034"><a xlink:title=" ">
<path fill="none" stroke="#63b8ff" d="M748,-111.59C748,-105.01 748,-95.96 748,-87.73"/>
<polygon fill="#63b8ff" stroke="#63b8ff" points="751.5,-87.81 748,-77.81 744.5,-87.81 751.5,-87.81"/>
</a>
</g>
</g>
<!-- Node26&#45;&gt;Node10 -->
<g id="edge27_Node000026_Node000010" class="edge">
<title>Node26&#45;&gt;Node10</title>
<g id="a_edge27_Node000026_Node000010"><a xlink:title=" ">
<path fill="none" stroke="#63b8ff" d="M804.87,-55.59C776.24,-46.66 733.03,-33.17 701.63,-23.37"/>
<polygon fill="#63b8ff" stroke="#63b8ff" points="702.67,-20.03 692.08,-20.39 700.59,-26.71 702.67,-20.03"/>
</a>
</g>
</g>
<!-- Node27 -->
<g id="Node000027" class="node">
<title>Node27</title>
<g id="a_Node000027"><a xlink:href="dspm__add__platform_8h.html" target="_top" xlink:title=" ">
<polygon fill="#fff0f0" stroke="red" points="945.88,-20 836.12,-20 836.12,0 945.88,0 945.88,-20"/>
<text xml:space="preserve" text-anchor="middle" x="891" y="-6.5" font-family="Helvetica,sans-Serif" font-size="10.00">dspm_add_platform.h</text>
</a>
</g>
</g>
<!-- Node26&#45;&gt;Node27 -->
<g id="edge28_Node000026_Node000027" class="edge">
<title>Node26&#45;&gt;Node27</title>
<g id="a_edge28_Node000026_Node000027"><a xlink:title=" ">
<path fill="none" stroke="#63b8ff" d="M844.75,-55.59C852.62,-48.01 863.9,-37.13 873.35,-28.02"/>
<polygon fill="#63b8ff" stroke="#63b8ff" points="875.5,-30.81 880.27,-21.35 870.64,-25.77 875.5,-30.81"/>
</a>
</g>
</g>
<!-- Node28&#45;&gt;Node10 -->
<g id="edge30_Node000028_Node000010" class="edge">
<title>Node28&#45;&gt;Node10</title>
<g id="a_edge30_Node000028_Node000010"><a xlink:title=" ">
<path fill="none" stroke="#63b8ff" d="M887.62,-57.65C834.5,-47.18 740.02,-28.53 701.71,-20.47"/>
<polygon fill="#63b8ff" stroke="#63b8ff" points="702.65,-17.1 692.14,-18.41 701.18,-23.94 702.65,-17.1"/>
</a>
</g>
</g>
<!-- Node29 -->
<g id="Node000029" class="node">
<title>Node29</title>
<g id="a_Node000029"><a xlink:href="dspm__addc__platform_8h.html" target="_top" xlink:title=" ">
<polygon fill="#fff0f0" stroke="red" points="1078.5,-20 963.5,-20 963.5,0 1078.5,0 1078.5,-20"/>
<text xml:space="preserve" text-anchor="middle" x="1021" y="-6.5" font-family="Helvetica,sans-Serif" font-size="10.00">dspm_addc_platform.h</text>
</a>
</g>
</g>
<!-- Node28&#45;&gt;Node29 -->
<g id="edge31_Node000028_Node000029" class="edge">
<title>Node28&#45;&gt;Node29</title>
<g id="a_edge31_Node000028_Node000029"><a xlink:title=" ">
<path fill="none" stroke="#63b8ff" d="M941.72,-55.59C956.22,-47.44 977.47,-35.48 994.32,-26"/>
<polygon fill="#63b8ff" stroke="#63b8ff" points="995.83,-29.17 1002.83,-21.22 992.4,-23.07 995.83,-29.17"/>
</a>
</g>
</g>
<!-- Node30&#45;&gt;Node10 -->
<g id="edge33_Node000030_Node000010" class="edge">
<title>Node30&#45;&gt;Node10</title>
<g id="a_edge33_Node000030_Node000010"><a xlink:title=" ">
<path fill="none" stroke="#63b8ff" d="M979.69,-57.52C976.75,-56.99 973.83,-56.47 971,-56 854.23,-36.62 820.8,-42.09 701.65,-20.33"/>
<polygon fill="#63b8ff" stroke="#63b8ff" points="702.58,-16.94 692.11,-18.56 701.3,-23.82 702.58,-16.94"/>
</a>
</g>
</g>
<!-- Node31 -->
<g id="Node000031" class="node">
<title>Node31</title>
<g id="a_Node000031"><a xlink:href="dspm__mult__platform_8h.html" target="_top" xlink:title=" ">
<polygon fill="#fff0f0" stroke="red" points="1209.38,-20 1096.62,-20 1096.62,0 1209.38,0 1209.38,-20"/>
<text xml:space="preserve" text-anchor="middle" x="1153" y="-6.5" font-family="Helvetica,sans-Serif" font-size="10.00">dspm_mult_platform.h</text>
</a>
</g>
</g>
<!-- Node30&#45;&gt;Node31 -->
<g id="edge34_Node000030_Node000031" class="edge">
<title>Node30&#45;&gt;Node31</title>
<g id="a_edge34_Node000030_Node000031"><a xlink:title=" ">
<path fill="none" stroke="#63b8ff" d="M1039.86,-55.59C1061.54,-47.05 1093.77,-34.35 1118.29,-24.68"/>
<polygon fill="#63b8ff" stroke="#63b8ff" points="1119.52,-27.96 1127.54,-21.03 1116.96,-21.45 1119.52,-27.96"/>
</a>
</g>
</g>
<!-- Node32&#45;&gt;Node10 -->
<g id="edge36_Node000032_Node000010" class="edge">
<title>Node32&#45;&gt;Node10</title>
<g id="a_edge36_Node000032_Node000010"><a xlink:title=" ">
<path fill="none" stroke="#63b8ff" d="M1069.39,-57.34C1066.56,-56.86 1063.74,-56.4 1061,-56 904.63,-32.98 860.36,-46.53 701.72,-20.25"/>
<polygon fill="#63b8ff" stroke="#63b8ff" points="702.54,-16.84 692.09,-18.63 701.37,-23.74 702.54,-16.84"/>
</a>
</g>
</g>
<!-- Node33 -->
<g id="Node000033" class="node">
<title>Node33</title>
<g id="a_Node000033"><a xlink:href="dspm__mulc__platform_8h.html" target="_top" xlink:title=" ">
<polygon fill="#fff0f0" stroke="red" points="1342.5,-20 1227.5,-20 1227.5,0 1342.5,0 1342.5,-20"/>
<text xml:space="preserve" text-anchor="middle" x="1285" y="-6.5" font-family="Helvetica,sans-Serif" font-size="10.00">dspm_mulc_platform.h</text>
</a>
</g>
</g>
<!-- Node32&#45;&gt;Node33 -->
<g id="edge37_Node000032_Node000033" class="edge">
<title>Node32&#45;&gt;Node33</title>
<g id="a_edge37_Node000032_Node000033"><a xlink:title=" ">
<path fill="none" stroke="#63b8ff" d="M1138.01,-55.59C1167.05,-46.78 1210.7,-33.54 1242.89,-23.78"/>
<polygon fill="#63b8ff" stroke="#63b8ff" points="1243.75,-27.17 1252.3,-20.92 1241.72,-20.47 1243.75,-27.17"/>
</a>
</g>
</g>
<!-- Node34&#45;&gt;Node10 -->
<g id="edge39_Node000034_Node000010" class="edge">
<title>Node34&#45;&gt;Node10</title>
<g id="a_edge39_Node000034_Node000010"><a xlink:title=" ">
<path fill="none" stroke="#63b8ff" d="M733.02,-55.59C720.27,-47.59 701.71,-35.93 686.76,-26.54"/>
<polygon fill="#63b8ff" stroke="#63b8ff" points="688.71,-23.64 678.38,-21.28 684.99,-29.57 688.71,-23.64"/>
</a>
</g>
</g>
<!-- Node35 -->
<g id="Node000035" class="node">
<title>Node35</title>
<g id="a_Node000035"><a xlink:href="dspm__sub__platform_8h.html" target="_top" xlink:title=" ">
<polygon fill="#fff0f0" stroke="red" points="817.88,-20 708.12,-20 708.12,0 817.88,0 817.88,-20"/>
<text xml:space="preserve" text-anchor="middle" x="763" y="-6.5" font-family="Helvetica,sans-Serif" font-size="10.00">dspm_sub_platform.h</text>
</a>
</g>
</g>
<!-- Node34&#45;&gt;Node35 -->
<g id="edge40_Node000034_Node000035" class="edge">
<title>Node34&#45;&gt;Node35</title>
<g id="a_edge40_Node000034_Node000035"><a xlink:title=" ">
<path fill="none" stroke="#63b8ff" d="M750.61,-55.59C752.48,-48.86 755.07,-39.53 757.4,-31.15"/>
<polygon fill="#63b8ff" stroke="#63b8ff" points="760.71,-32.33 760.01,-21.76 753.96,-30.46 760.71,-32.33"/>
</a>
</g>
</g>
</g>
</svg>

<g id="navigator" transform="translate(0 0)" fill="#404254">
  <rect fill="#f2f5e9" fill-opacity="0.5" stroke="#606060" stroke-width=".5" x="0" y="0" width="60" height="60"/>
  <use id="zoomplus" xlink:href="#zoomPlus" x="17" y="9" onmousedown="handleZoom(evt,'in')"/>
  <use id="zoomminus" xlink:href="#zoomMin" x="42" y="9" onmousedown="handleZoom(evt,'out')"/>
  <use id="reset" xlink:href="#resetDef" x="30" y="36" onmousedown="handleReset()"/>
   <use id="arrowup" xlink:href="#arrowUp" x="0" y="0" onmousedown="handlePan(0,-1)"/>
  <use id="arrowright" xlink:href="#arrowRight" x="0" y="0" onmousedown="handlePan(1,0)"/>
  <use id="arrowdown" xlink:href="#arrowDown" x="0" y="0" onmousedown="handlePan(0,1)"/>
  <use id="arrowleft" xlink:href="#arrowLeft" x="0" y="0" onmousedown="handlePan(-1,0)"/>
</g>
<svg viewBox="0 0 15 15" width="100%" height="30px" preserveAspectRatio="xMaxYMin meet">
 <g id="arrow_out" transform="scale(0.3 0.3)">
  <a xlink:href="mat_8cpp__incl_org.svg" target="_base">
   <rect id="button" ry="5" rx="5" y="6" x="6" height="38" width="38"
        fill="#f2f5e9" fill-opacity="0.5" stroke="#606060" stroke-width="1.0"/>
   <path id="arrow"
     d="M 11.500037,31.436501 C 11.940474,20.09759 22.043105,11.32322 32.158766,21.979434 L 37.068811,17.246167 C 37.068811,17.246167 37.088388,32 37.088388,32 L 22.160133,31.978069 C 22.160133,31.978069 26.997745,27.140456 26.997745,27.140456 C 18.528582,18.264221 13.291696,25.230495 11.500037,31.436501 z"
     style="fill:#404040;"/>
  </a>
 </g>
</svg>

<style type='text/css'>
<![CDATA[
[data-mouse-over-selected='false'] { opacity: 0.7; }
[data-mouse-over-selected='true']  { opacity: 1.0; }
]]>
</style>
<script type="application/ecmascript"><![CDATA[
document.addEventListener('DOMContentLoaded', (event) => {
  highlightEdges();
  highlightAdjacentNodes();
});
]]></script>
</svg>
