<?xml version="1.0" encoding="UTF-8" standalone="no"?>
<!DOCTYPE svg PUBLIC "-//W3C//DTD SVG 1.1//EN"
 "http://www.w3.org/Graphics/SVG/1.1/DTD/svg11.dtd">
<!-- Generated by graphviz version 14.1.2 (20260124.0452)
 -->
<!-- Title: image_3d_matrix_kalman_s Pages: 1 -->
<svg width="146pt" height="311pt"
 viewBox="0.00 0.00 146.00 311.00" xmlns="http://www.w3.org/2000/svg" xmlns:xlink="http://www.w3.org/1999/xlink">
<g id="graph0" class="graph" transform="scale(1 1) rotate(0) translate(4 307)">
<title>image_3d_matrix_kalman_s</title>
<!-- Node1 -->
<g id="Node000001" class="node">
<title>Node1</title>
<g id="a_Node000001"><a xlink:title="Data struct of 3d image matrix with kalman filter object.">
<polygon fill="#999999" stroke="#666666" points="137.5,-20 0,-20 0,0 137.5,0 137.5,-20"/>
<text xml:space="preserve" text-anchor="middle" x="68.75" y="-6.5" font-family="Helvetica,sans-Serif" font-size="10.00">image_3d_matrix_kalman_s</text>
</a>
</g>
</g>
<!-- Node2 -->
<g id="Node000002" class="node">
<title>Node2</title>
<g id="a_Node000002"><a xlink:href="classekf__imu13states.html" target="_top" xlink:title="This class is used to process and calculate attitude from imu sensors.">
<polygon fill="white" stroke="#666666" points="112.75,-94 24.75,-94 24.75,-74 112.75,-74 112.75,-94"/>
<text xml:space="preserve" text-anchor="middle" x="68.75" y="-80.5" font-family="Helvetica,sans-Serif" font-size="10.00">ekf_imu13states</text>
</a>
</g>
</g>
<!-- Node2&#45;&gt;Node1 -->
<g id="edge1_Node000001_Node000002" class="edge">
<title>Node2&#45;&gt;Node1</title>
<g id="a_edge1_Node000001_Node000002"><a xlink:title=" ">
<path fill="none" stroke="#9a32cd" stroke-dasharray="5,2" d="M68.75,-62.18C68.75,-48.29 68.75,-30.71 68.75,-20.19"/>
<polygon fill="#9a32cd" stroke="#9a32cd" points="65.25,-62.07 68.75,-72.07 72.25,-62.07 65.25,-62.07"/>
</a>
</g>
<text xml:space="preserve" text-anchor="start" x="71.75" y="-43.5" font-family="Helvetica,sans-Serif" font-size="10.00" fill="grey">ekf13</text>
</g>
<!-- Node3 -->
<g id="Node000003" class="node">
<title>Node3</title>
<g id="a_Node000003"><a xlink:href="classekf.html" target="_top" xlink:title=" ">
<polygon fill="white" stroke="#666666" points="127.5,-158 98,-158 98,-138 127.5,-138 127.5,-158"/>
<text xml:space="preserve" text-anchor="middle" x="112.75" y="-144.5" font-family="Helvetica,sans-Serif" font-size="10.00">ekf</text>
</a>
</g>
</g>
<!-- Node3&#45;&gt;Node2 -->
<g id="edge2_Node000002_Node000003" class="edge">
<title>Node3&#45;&gt;Node2</title>
<g id="a_edge2_Node000002_Node000003"><a xlink:title=" ">
<path fill="none" stroke="#63b8ff" d="M99.62,-128.49C91.56,-117.14 81.6,-103.1 75.21,-94.1"/>
<polygon fill="#63b8ff" stroke="#63b8ff" points="96.55,-130.22 105.19,-136.35 102.26,-126.17 96.55,-130.22"/>
</a>
</g>
</g>
<!-- Node4 -->
<g id="Node000004" class="node">
<title>Node4</title>
<g id="a_Node000004"><a xlink:href="classdspm_1_1_mat.html" target="_top" xlink:title="Matrix.">
<polygon fill="white" stroke="#666666" points="93,-303 30.5,-303 30.5,-283 93,-283 93,-303"/>
<text xml:space="preserve" text-anchor="middle" x="61.75" y="-289.5" font-family="Helvetica,sans-Serif" font-size="10.00">dspm::Mat</text>
</a>
</g>
</g>
<!-- Node4&#45;&gt;Node2 -->
<g id="edge4_Node000002_Node000004" class="edge">
<title>Node4&#45;&gt;Node2</title>
<g id="a_edge4_Node000002_Node000004"><a xlink:title=" ">
<path fill="none" stroke="#9a32cd" stroke-dasharray="5,2" d="M58.22,-271.59C53.5,-240.9 46.54,-181.09 54.25,-131 56.26,-117.92 61.31,-103.47 64.89,-94.31"/>
<polygon fill="#9a32cd" stroke="#9a32cd" points="54.75,-272.06 59.82,-281.36 61.66,-270.93 54.75,-272.06"/>
</a>
</g>
<text xml:space="preserve" text-anchor="start" x="57.25" y="-152.5" font-family="Helvetica,sans-Serif" font-size="10.00" fill="grey">accel0</text>
<text xml:space="preserve" text-anchor="start" x="57.25" y="-136.5" font-family="Helvetica,sans-Serif" font-size="10.00" fill="grey">mag0</text>
</g>
<!-- Node4&#45;&gt;Node3 -->
<g id="edge3_Node000003_Node000004" class="edge">
<title>Node4&#45;&gt;Node3</title>
<g id="a_edge3_Node000003_Node000004"><a xlink:title=" ">
<path fill="none" stroke="#9a32cd" stroke-dasharray="5,2" d="M68.84,-272.13C80.01,-240.79 101.3,-181.1 109.46,-158.23"/>
<polygon fill="#9a32cd" stroke="#9a32cd" points="65.67,-270.6 65.6,-281.19 72.26,-272.95 65.67,-270.6"/>
</a>
</g>
<text xml:space="preserve" text-anchor="start" x="103.43" y="-252.5" font-family="Helvetica,sans-Serif" font-size="10.00" fill="grey">F</text>
<text xml:space="preserve" text-anchor="start" x="103.43" y="-236.5" font-family="Helvetica,sans-Serif" font-size="10.00" fill="grey">G</text>
<text xml:space="preserve" text-anchor="start" x="103.43" y="-220.5" font-family="Helvetica,sans-Serif" font-size="10.00" fill="grey">P</text>
<text xml:space="preserve" text-anchor="start" x="103.43" y="-204.5" font-family="Helvetica,sans-Serif" font-size="10.00" fill="grey">Q</text>
<text xml:space="preserve" text-anchor="start" x="103.43" y="-188.5" font-family="Helvetica,sans-Serif" font-size="10.00" fill="grey">X</text>
</g>
</g>
</svg>
