<?xml version="1.0" encoding="UTF-8" standalone="no"?>
<!DOCTYPE svg PUBLIC "-//W3C//DTD SVG 1.1//EN"
 "http://www.w3.org/Graphics/SVG/1.1/DTD/svg11.dtd">
<!-- Generated by graphviz version 14.1.2 (20260124.0452)
 -->
<!-- Title: cdcacm_event_t Pages: 1 -->
<svg width="387pt" height="140pt"
 viewBox="0.00 0.00 387.00 140.00" xmlns="http://www.w3.org/2000/svg" xmlns:xlink="http://www.w3.org/1999/xlink">
<g id="graph0" class="graph" transform="scale(1 1) rotate(0) translate(4 136)">
<title>cdcacm_event_t</title>
<!-- Node1 -->
<g id="Node000001" class="node">
<title>Node1</title>
<g id="a_Node000001"><a xlink:title="Describes an event passing to the input of a callbacks.">
<polygon fill="#999999" stroke="#666666" points="378.5,-76 290.5,-76 290.5,-56 378.5,-56 378.5,-76"/>
<text xml:space="preserve" text-anchor="middle" x="334.5" y="-62.5" font-family="Helvetica,sans-Serif" font-size="10.00">cdcacm_event_t</text>
</a>
</g>
</g>
<!-- Node2 -->
<g id="Node000002" class="node">
<title>Node2</title>
<g id="a_Node000002"><a xlink:href="structcdcacm__event__rx__wanted__char__data__t.html" target="_top" xlink:title="Data provided to the input of the callback_rx_wanted_char callback.">
<polygon fill="white" stroke="#666666" points="131.88,-132 1.88,-132 1.88,-100 131.88,-100 131.88,-132"/>
<text xml:space="preserve" text-anchor="start" x="9.88" y="-118.5" font-family="Helvetica,sans-Serif" font-size="10.00">cdcacm_event_rx_wanted</text>
<text xml:space="preserve" text-anchor="middle" x="66.88" y="-106.5" font-family="Helvetica,sans-Serif" font-size="10.00">_char_data_t</text>
</a>
</g>
</g>
<!-- Node2&#45;&gt;Node1 -->
<g id="edge1_Node000001_Node000002" class="edge">
<title>Node2&#45;&gt;Node1</title>
<g id="a_edge1_Node000001_Node000002"><a xlink:title=" ">
<path fill="none" stroke="#9a32cd" stroke-dasharray="5,2" d="M143.37,-109.5C182.31,-105.19 230.35,-98.36 272.5,-88 284.53,-85.04 297.48,-80.57 308.34,-76.42"/>
<polygon fill="#9a32cd" stroke="#9a32cd" points="143.2,-106 133.63,-110.54 143.94,-112.96 143.2,-106"/>
</a>
</g>
<text xml:space="preserve" text-anchor="start" x="165.62" y="-113.46" font-family="Helvetica,sans-Serif" font-size="10.00" fill="grey">rx_wanted_char_data</text>
</g>
<!-- Node3 -->
<g id="Node000003" class="node">
<title>Node3</title>
<g id="a_Node000003"><a xlink:href="structcdcacm__event__line__state__changed__data__t.html" target="_top" xlink:title="Data provided to the input of the callback_line_state_changed callback.">
<polygon fill="white" stroke="#666666" points="130.38,-82 3.37,-82 3.37,-50 130.38,-50 130.38,-82"/>
<text xml:space="preserve" text-anchor="start" x="11.38" y="-68.5" font-family="Helvetica,sans-Serif" font-size="10.00">cdcacm_event_line_state</text>
<text xml:space="preserve" text-anchor="middle" x="66.88" y="-56.5" font-family="Helvetica,sans-Serif" font-size="10.00">_changed_data_t</text>
</a>
</g>
</g>
<!-- Node3&#45;&gt;Node1 -->
<g id="edge2_Node000001_Node000003" class="edge">
<title>Node3&#45;&gt;Node1</title>
<g id="a_edge2_Node000001_Node000003"><a xlink:title=" ">
<path fill="none" stroke="#9a32cd" stroke-dasharray="5,2" d="M142.33,-66C189.97,-66 250.11,-66 290.08,-66"/>
<polygon fill="#9a32cd" stroke="#9a32cd" points="142.34,-62.5 132.34,-66 142.34,-69.5 142.34,-62.5"/>
</a>
</g>
<text xml:space="preserve" text-anchor="start" x="158.12" y="-71.5" font-family="Helvetica,sans-Serif" font-size="10.00" fill="grey">line_state_changed_data</text>
</g>
<!-- Node4 -->
<g id="Node000004" class="node">
<title>Node4</title>
<g id="a_Node000004"><a xlink:href="structcdcacm__event__line__coding__changed__data__t.html" target="_top" xlink:title="Data provided to the input of the line_coding_changed callback.">
<polygon fill="white" stroke="#666666" points="133.75,-32 0,-32 0,0 133.75,0 133.75,-32"/>
<text xml:space="preserve" text-anchor="start" x="8" y="-18.5" font-family="Helvetica,sans-Serif" font-size="10.00">cdcacm_event_line_coding</text>
<text xml:space="preserve" text-anchor="middle" x="66.88" y="-6.5" font-family="Helvetica,sans-Serif" font-size="10.00">_changed_data_t</text>
</a>
</g>
</g>
<!-- Node4&#45;&gt;Node1 -->
<g id="edge3_Node000001_Node000004" class="edge">
<title>Node4&#45;&gt;Node1</title>
<g id="a_edge3_Node000001_Node000004"><a xlink:title=" ">
<path fill="none" stroke="#9a32cd" stroke-dasharray="5,2" d="M145.14,-22.7C183.75,-27.02 230.98,-33.79 272.5,-44 284.53,-46.96 297.48,-51.43 308.34,-55.58"/>
<polygon fill="#9a32cd" stroke="#9a32cd" points="145.79,-19.25 135.47,-21.65 145.04,-26.21 145.79,-19.25"/>
</a>
</g>
<text xml:space="preserve" text-anchor="start" x="154.75" y="-49.5" font-family="Helvetica,sans-Serif" font-size="10.00" fill="grey">line_coding_changed_data</text>
</g>
</g>
</svg>
