<?xml version="1.0" encoding="UTF-8" standalone="no"?>
<!DOCTYPE svg PUBLIC "-//W3C//DTD SVG 1.1//EN"
 "http://www.w3.org/Graphics/SVG/1.1/DTD/svg11.dtd">
<!-- Generated by graphviz version 14.1.2 (20260124.0452)
 -->
<!-- Title: esp_tusb_cdcacm_t Pages: 1 -->
<!--zoomable 172 -->

<svg id="main" version="1.1" xmlns="http://www.w3.org/2000/svg" xmlns:xlink="http://www.w3.org/1999/xlink" xml:space="preserve" onload="init(evt)">

<style type="text/css"><![CDATA[
.node, .edge {opacity: 0.7;}
.node.selected, .edge.selected {opacity: 1;}
.edge:hover path { stroke: red; }
.edge:hover polygon { stroke: red; fill: red; }
]]></style>

<defs>
  <circle id="rim" cx="0" cy="0" r="7"/>
  <circle id="rim2" cx="0" cy="0" r="3.5"/>
  <g id="zoomPlus">
    <use xlink:href="#rim" fill="#404040"><set attributeName="fill" to="#808080" begin="zoomplus.mouseover" end="zoomplus.mouseout"/></use>
    <path d="M-4,0h8M0,-4v8" fill="none" stroke="white" stroke-width="1.5" pointer-events="none"/>
  </g>
  <g id="zoomMin">
    <use xlink:href="#rim" fill="#404040"><set attributeName="fill" to="#808080" begin="zoomminus.mouseover" end="zoomminus.mouseout"/></use>
    <path d="M-4,0h8" fill="none" stroke="white" stroke-width="1.5" pointer-events="none"/>
  </g>
  <g id="arrowUp" transform="translate(30 24)">
    <use xlink:href="#rim"/>
    <path pointer-events="none" fill="none" stroke="white" stroke-width="1.5" d="M0,-3.0v7 M-2.5,-0.5L0,-3.0L2.5,-0.5"/>
  </g>
  <g id="arrowRight" transform="rotate(90) translate(36 -43)">
    <use xlink:href="#rim"/>
    <path pointer-events="none" fill="none" stroke="white" stroke-width="1.5" d="M0,-3.0v7 M-2.5,-0.5L0,-3.0L2.5,-0.5"/>
  </g>
  <g id="arrowDown" transform="rotate(180) translate(-30 -48)">
    <use xlink:href="#rim"/>
    <path pointer-events="none" fill="none" stroke="white" stroke-width="1.5" d="M0,-3.0v7 M-2.5,-0.5L0,-3.0L2.5,-0.5"/>
  </g>
  <g id="arrowLeft" transform="rotate(270) translate(-36 17)">
    <use xlink:href="#rim"/>
    <path pointer-events="none" fill="none" stroke="white" stroke-width="1.5" d="M0,-3.0v7 M-2.5,-0.5L0,-3.0L2.5,-0.5"/>
  </g>
  <g id="resetDef">
    <use xlink:href="#rim2" fill="#404040"><set attributeName="fill" to="#808080" begin="reset.mouseover" end="reset.mouseout"/></use>
  </g>
</defs>
<script type="application/ecmascript">
var viewWidth = 643;
var viewHeight = 172;
var sectionId = 'dynsection-0';
</script>
<script type="application/ecmascript" xlink:href="svg.min.js"/>
<svg id="graph" class="graph">
<g id="viewport">
<title>esp_tusb_cdcacm_t</title>
<!-- Node1 -->
<g id="Node000001" class="node">
<title>Node1</title>
<g id="a_Node000001"><a xlink:title=" ">
<polygon fill="#999999" stroke="#666666" points="634.5,-76 530.75,-76 530.75,-56 634.5,-56 634.5,-76"/>
<text xml:space="preserve" text-anchor="middle" x="582.62" y="-62.5" font-family="Helvetica,sans-Serif" font-size="10.00">esp_tusb_cdcacm_t</text>
</a>
</g>
</g>
<!-- Node2 -->
<g id="Node000002" class="node">
<title>Node2</title>
<g id="a_Node000002"><a xlink:href="structcdcacm__event__t.html" target="_top" xlink:title="Describes an event passing to the input of a callbacks.">
<polygon fill="white" stroke="#666666" points="378.5,-76 290.5,-76 290.5,-56 378.5,-56 378.5,-76"/>
<text xml:space="preserve" text-anchor="middle" x="334.5" y="-62.5" font-family="Helvetica,sans-Serif" font-size="10.00">cdcacm_event_t</text>
</a>
</g>
</g>
<!-- Node2&#45;&gt;Node1 -->
<g id="edge1_Node000001_Node000002" class="edge">
<title>Node2&#45;&gt;Node1</title>
<g id="a_edge1_Node000001_Node000002"><a xlink:title=" ">
<path fill="none" stroke="#9a32cd" stroke-dasharray="5,2" d="M390.32,-66C432.23,-66 489.59,-66 530.54,-66"/>
<polygon fill="#9a32cd" stroke="#9a32cd" points="390.45,-62.5 380.45,-66 390.45,-69.5 390.45,-62.5"/>
</a>
</g>
<text xml:space="preserve" text-anchor="start" x="399.5" y="-151.5" font-family="Helvetica,sans-Serif" font-size="10.00" fill="grey">callback_line_coding</text>
<text xml:space="preserve" text-anchor="start" x="399.5" y="-135.5" font-family="Helvetica,sans-Serif" font-size="10.00" fill="grey">  _changed</text>
<text xml:space="preserve" text-anchor="start" x="399.5" y="-119.5" font-family="Helvetica,sans-Serif" font-size="10.00" fill="grey">callback_line_state</text>
<text xml:space="preserve" text-anchor="start" x="399.5" y="-103.5" font-family="Helvetica,sans-Serif" font-size="10.00" fill="grey">  _changed</text>
<text xml:space="preserve" text-anchor="start" x="399.5" y="-87.5" font-family="Helvetica,sans-Serif" font-size="10.00" fill="grey">callback_rx</text>
<text xml:space="preserve" text-anchor="start" x="399.5" y="-71.5" font-family="Helvetica,sans-Serif" font-size="10.00" fill="grey">callback_rx_wanted_char</text>
</g>
<!-- Node3 -->
<g id="Node000003" class="node">
<title>Node3</title>
<g id="a_Node000003"><a xlink:href="structcdcacm__event__rx__wanted__char__data__t.html" target="_top" xlink:title="Data provided to the input of the callback_rx_wanted_char callback.">
<polygon fill="white" stroke="#666666" points="131.88,-132 1.88,-132 1.88,-100 131.88,-100 131.88,-132"/>
<text xml:space="preserve" text-anchor="start" x="9.88" y="-118.5" font-family="Helvetica,sans-Serif" font-size="10.00">cdcacm_event_rx_wanted</text>
<text xml:space="preserve" text-anchor="middle" x="66.88" y="-106.5" font-family="Helvetica,sans-Serif" font-size="10.00">_char_data_t</text>
</a>
</g>
</g>
<!-- Node3&#45;&gt;Node2 -->
<g id="edge2_Node000002_Node000003" class="edge">
<title>Node3&#45;&gt;Node2</title>
<g id="a_edge2_Node000002_Node000003"><a xlink:title=" ">
<path fill="none" stroke="#9a32cd" stroke-dasharray="5,2" d="M143.37,-109.5C182.31,-105.19 230.35,-98.36 272.5,-88 284.53,-85.04 297.48,-80.57 308.34,-76.42"/>
<polygon fill="#9a32cd" stroke="#9a32cd" points="143.2,-106 133.63,-110.54 143.94,-112.96 143.2,-106"/>
</a>
</g>
<text xml:space="preserve" text-anchor="start" x="165.62" y="-113.46" font-family="Helvetica,sans-Serif" font-size="10.00" fill="grey">rx_wanted_char_data</text>
</g>
<!-- Node4 -->
<g id="Node000004" class="node">
<title>Node4</title>
<g id="a_Node000004"><a xlink:href="structcdcacm__event__line__state__changed__data__t.html" target="_top" xlink:title="Data provided to the input of the callback_line_state_changed callback.">
<polygon fill="white" stroke="#666666" points="130.38,-82 3.37,-82 3.37,-50 130.38,-50 130.38,-82"/>
<text xml:space="preserve" text-anchor="start" x="11.38" y="-68.5" font-family="Helvetica,sans-Serif" font-size="10.00">cdcacm_event_line_state</text>
<text xml:space="preserve" text-anchor="middle" x="66.88" y="-56.5" font-family="Helvetica,sans-Serif" font-size="10.00">_changed_data_t</text>
</a>
</g>
</g>
<!-- Node4&#45;&gt;Node2 -->
<g id="edge3_Node000002_Node000004" class="edge">
<title>Node4&#45;&gt;Node2</title>
<g id="a_edge3_Node000002_Node000004"><a xlink:title=" ">
<path fill="none" stroke="#9a32cd" stroke-dasharray="5,2" d="M142.33,-66C189.97,-66 250.11,-66 290.08,-66"/>
<polygon fill="#9a32cd" stroke="#9a32cd" points="142.34,-62.5 132.34,-66 142.34,-69.5 142.34,-62.5"/>
</a>
</g>
<text xml:space="preserve" text-anchor="start" x="158.12" y="-71.5" font-family="Helvetica,sans-Serif" font-size="10.00" fill="grey">line_state_changed_data</text>
</g>
<!-- Node5 -->
<g id="Node000005" class="node">
<title>Node5</title>
<g id="a_Node000005"><a xlink:href="structcdcacm__event__line__coding__changed__data__t.html" target="_top" xlink:title="Data provided to the input of the line_coding_changed callback.">
<polygon fill="white" stroke="#666666" points="133.75,-32 0,-32 0,0 133.75,0 133.75,-32"/>
<text xml:space="preserve" text-anchor="start" x="8" y="-18.5" font-family="Helvetica,sans-Serif" font-size="10.00">cdcacm_event_line_coding</text>
<text xml:space="preserve" text-anchor="middle" x="66.88" y="-6.5" font-family="Helvetica,sans-Serif" font-size="10.00">_changed_data_t</text>
</a>
</g>
</g>
<!-- Node5&#45;&gt;Node2 -->
<g id="edge4_Node000002_Node000005" class="edge">
<title>Node5&#45;&gt;Node2</title>
<g id="a_edge4_Node000002_Node000005"><a xlink:title=" ">
<path fill="none" stroke="#9a32cd" stroke-dasharray="5,2" d="M145.14,-22.7C183.75,-27.02 230.98,-33.79 272.5,-44 284.53,-46.96 297.48,-51.43 308.34,-55.58"/>
<polygon fill="#9a32cd" stroke="#9a32cd" points="145.79,-19.25 135.47,-21.65 145.04,-26.21 145.79,-19.25"/>
</a>
</g>
<text xml:space="preserve" text-anchor="start" x="154.75" y="-49.5" font-family="Helvetica,sans-Serif" font-size="10.00" fill="grey">line_coding_changed_data</text>
</g>
</g>
</svg>

<g id="navigator" transform="translate(0 0)" fill="#404254">
  <rect fill="#f2f5e9" fill-opacity="0.5" stroke="#606060" stroke-width=".5" x="0" y="0" width="60" height="60"/>
  <use id="zoomplus" xlink:href="#zoomPlus" x="17" y="9" onmousedown="handleZoom(evt,'in')"/>
  <use id="zoomminus" xlink:href="#zoomMin" x="42" y="9" onmousedown="handleZoom(evt,'out')"/>
  <use id="reset" xlink:href="#resetDef" x="30" y="36" onmousedown="handleReset()"/>
   <use id="arrowup" xlink:href="#arrowUp" x="0" y="0" onmousedown="handlePan(0,-1)"/>
  <use id="arrowright" xlink:href="#arrowRight" x="0" y="0" onmousedown="handlePan(1,0)"/>
  <use id="arrowdown" xlink:href="#arrowDown" x="0" y="0" onmousedown="handlePan(0,1)"/>
  <use id="arrowleft" xlink:href="#arrowLeft" x="0" y="0" onmousedown="handlePan(-1,0)"/>
</g>
<svg viewBox="0 0 15 15" width="100%" height="30px" preserveAspectRatio="xMaxYMin meet">
 <g id="arrow_out" transform="scale(0.3 0.3)">
  <a xlink:href="structesp__tusb__cdcacm__t__coll__graph_org.svg" target="_base">
   <rect id="button" ry="5" rx="5" y="6" x="6" height="38" width="38"
        fill="#f2f5e9" fill-opacity="0.5" stroke="#606060" stroke-width="1.0"/>
   <path id="arrow"
     d="M 11.500037,31.436501 C 11.940474,20.09759 22.043105,11.32322 32.158766,21.979434 L 37.068811,17.246167 C 37.068811,17.246167 37.088388,32 37.088388,32 L 22.160133,31.978069 C 22.160133,31.978069 26.997745,27.140456 26.997745,27.140456 C 18.528582,18.264221 13.291696,25.230495 11.500037,31.436501 z"
     style="fill:#404040;"/>
  </a>
 </g>
</svg>

<style type='text/css'>
<![CDATA[
[data-mouse-over-selected='false'] { opacity: 0.7; }
[data-mouse-over-selected='true']  { opacity: 1.0; }
]]>
</style>
<script type="application/ecmascript"><![CDATA[
document.addEventListener('DOMContentLoaded', (event) => {
  highlightEdges();
  highlightAdjacentNodes();
});
]]></script>
</svg>
