<?xml version="1.0" encoding="UTF-8" standalone="no"?>
<!DOCTYPE svg PUBLIC "-//W3C//DTD SVG 1.1//EN"
 "http://www.w3.org/Graphics/SVG/1.1/DTD/svg11.dtd">
<!-- Generated by graphviz version 14.1.2 (20260124.0452)
 -->
<!-- Title: test_fft2r Pages: 1 -->
<!--zoomable 142 -->

<svg id="main" version="1.1" xmlns="http://www.w3.org/2000/svg" xmlns:xlink="http://www.w3.org/1999/xlink" xml:space="preserve" onload="init(evt)">

<style type="text/css"><![CDATA[
.node, .edge {opacity: 0.7;}
.node.selected, .edge.selected {opacity: 1;}
.edge:hover path { stroke: red; }
.edge:hover polygon { stroke: red; fill: red; }
]]></style>

<defs>
  <circle id="rim" cx="0" cy="0" r="7"/>
  <circle id="rim2" cx="0" cy="0" r="3.5"/>
  <g id="zoomPlus">
    <use xlink:href="#rim" fill="#404040"><set attributeName="fill" to="#808080" begin="zoomplus.mouseover" end="zoomplus.mouseout"/></use>
    <path d="M-4,0h8M0,-4v8" fill="none" stroke="white" stroke-width="1.5" pointer-events="none"/>
  </g>
  <g id="zoomMin">
    <use xlink:href="#rim" fill="#404040"><set attributeName="fill" to="#808080" begin="zoomminus.mouseover" end="zoomminus.mouseout"/></use>
    <path d="M-4,0h8" fill="none" stroke="white" stroke-width="1.5" pointer-events="none"/>
  </g>
  <g id="arrowUp" transform="translate(30 24)">
    <use xlink:href="#rim"/>
    <path pointer-events="none" fill="none" stroke="white" stroke-width="1.5" d="M0,-3.0v7 M-2.5,-0.5L0,-3.0L2.5,-0.5"/>
  </g>
  <g id="arrowRight" transform="rotate(90) translate(36 -43)">
    <use xlink:href="#rim"/>
    <path pointer-events="none" fill="none" stroke="white" stroke-width="1.5" d="M0,-3.0v7 M-2.5,-0.5L0,-3.0L2.5,-0.5"/>
  </g>
  <g id="arrowDown" transform="rotate(180) translate(-30 -48)">
    <use xlink:href="#rim"/>
    <path pointer-events="none" fill="none" stroke="white" stroke-width="1.5" d="M0,-3.0v7 M-2.5,-0.5L0,-3.0L2.5,-0.5"/>
  </g>
  <g id="arrowLeft" transform="rotate(270) translate(-36 17)">
    <use xlink:href="#rim"/>
    <path pointer-events="none" fill="none" stroke="white" stroke-width="1.5" d="M0,-3.0v7 M-2.5,-0.5L0,-3.0L2.5,-0.5"/>
  </g>
  <g id="resetDef">
    <use xlink:href="#rim2" fill="#404040"><set attributeName="fill" to="#808080" begin="reset.mouseover" end="reset.mouseout"/></use>
  </g>
</defs>
<script type="application/ecmascript">
var viewWidth = 514;
var viewHeight = 142;
var sectionId = 'dynsection-3';
</script>
<script type="application/ecmascript" xlink:href="svg.min.js"/>
<svg id="graph" class="graph">
<g id="viewport">
<title>test_fft2r</title>
<!-- Node1 -->
<g id="Node000001" class="node">
<title>Node1</title>
<g id="a_Node000001"><a xlink:title=" ">
<polygon fill="#999999" stroke="#666666" points="54.25,-77 0,-77 0,-57 54.25,-57 54.25,-77"/>
<text xml:space="preserve" text-anchor="middle" x="27.12" y="-63.5" font-family="Helvetica,sans-Serif" font-size="10.00">test_fft2r</text>
</a>
</g>
</g>
<!-- Node2 -->
<g id="Node000002" class="node">
<title>Node2</title>
<g id="a_Node000002"><a xlink:href="dsps__fft2r_8h.html#a4998d68606bf7e1cd35b25197345a9b0" target="_top" xlink:title=" ">
<polygon fill="white" stroke="#666666" points="204.5,-134 90.25,-134 90.25,-114 204.5,-114 204.5,-134"/>
<text xml:space="preserve" text-anchor="middle" x="147.38" y="-120.5" font-family="Helvetica,sans-Serif" font-size="10.00">dsps_fft2r_fc32_aes3_</text>
</a>
</g>
</g>
<!-- Node1&#45;&gt;Node2 -->
<g id="edge1_Node000001_Node000002" class="edge">
<title>Node1&#45;&gt;Node2</title>
<g id="a_edge1_Node000001_Node000002"><a xlink:title=" ">
<path fill="none" stroke="#63b8ff" d="M42.92,-77.35C55.19,-85.61 73.3,-97.07 90.25,-105 93.6,-106.57 97.13,-108.07 100.7,-109.5"/>
<polygon fill="#63b8ff" stroke="#63b8ff" points="99.46,-112.77 110.05,-113 101.91,-106.22 99.46,-112.77"/>
</a>
</g>
</g>
<!-- Node3 -->
<g id="Node000003" class="node">
<title>Node3</title>
<g id="a_Node000003"><a xlink:href="dsps__fft2r__fc32__ansi_8c.html#aa5f77f0db0301950603a20f9e67822aa" target="_top" xlink:title="init fft tables">
<polygon fill="white" stroke="#666666" points="197.75,-96 97,-96 97,-76 197.75,-76 197.75,-96"/>
<text xml:space="preserve" text-anchor="middle" x="147.38" y="-82.5" font-family="Helvetica,sans-Serif" font-size="10.00">dsps_fft2r_init_fc32</text>
</a>
</g>
</g>
<!-- Node1&#45;&gt;Node3 -->
<g id="edge2_Node000001_Node000003" class="edge">
<title>Node1&#45;&gt;Node3</title>
<g id="a_edge2_Node000001_Node000003"><a xlink:title=" ">
<path fill="none" stroke="#63b8ff" d="M54.66,-71.26C63.86,-72.74 74.59,-74.47 85.4,-76.2"/>
<polygon fill="#63b8ff" stroke="#63b8ff" points="84.71,-79.64 95.14,-77.77 85.82,-72.73 84.71,-79.64"/>
</a>
</g>
</g>
<!-- Node8 -->
<g id="Node000008" class="node">
<title>Node8</title>
<g id="a_Node000008"><a xlink:href="test__fft2r_8c.html#a06b268b0fdcf14f32fb97b4fa648370c" target="_top" xlink:title=" ">
<polygon fill="white" stroke="#666666" points="202.25,-58 92.5,-58 92.5,-38 202.25,-38 202.25,-58"/>
<text xml:space="preserve" text-anchor="middle" x="147.38" y="-44.5" font-family="Helvetica,sans-Serif" font-size="10.00">xt_iss_profile_disable</text>
</a>
</g>
</g>
<!-- Node1&#45;&gt;Node8 -->
<g id="edge8_Node000001_Node000008" class="edge">
<title>Node1&#45;&gt;Node8</title>
<g id="a_edge8_Node000001_Node000008"><a xlink:title=" ">
<path fill="none" stroke="#63b8ff" d="M54.66,-62.74C62.69,-61.45 71.88,-59.97 81.28,-58.46"/>
<polygon fill="#63b8ff" stroke="#63b8ff" points="81.53,-61.96 90.85,-56.92 80.42,-55.05 81.53,-61.96"/>
</a>
</g>
</g>
<!-- Node9 -->
<g id="Node000009" class="node">
<title>Node9</title>
<g id="a_Node000009"><a xlink:href="test__fft2r_8c.html#af5fa635d13bdde8b0ccbf5de160a14cf" target="_top" xlink:title=" ">
<polygon fill="white" stroke="#666666" points="201.12,-20 93.62,-20 93.62,0 201.12,0 201.12,-20"/>
<text xml:space="preserve" text-anchor="middle" x="147.38" y="-6.5" font-family="Helvetica,sans-Serif" font-size="10.00">xt_iss_profile_enable</text>
</a>
</g>
</g>
<!-- Node1&#45;&gt;Node9 -->
<g id="edge9_Node000001_Node000009" class="edge">
<title>Node1&#45;&gt;Node9</title>
<g id="a_edge9_Node000001_Node000009"><a xlink:title=" ">
<path fill="none" stroke="#63b8ff" d="M42.92,-56.65C55.19,-48.39 73.3,-36.93 90.25,-29 93.6,-27.43 97.13,-25.93 100.7,-24.5"/>
<polygon fill="#63b8ff" stroke="#63b8ff" points="101.91,-27.78 110.05,-21 99.46,-21.23 101.91,-27.78"/>
</a>
</g>
</g>
<!-- Node4 -->
<g id="Node000004" class="node">
<title>Node4</title>
<g id="a_Node000004"><a xlink:href="test__fft2r_8c.html#a58855e560e0563aa519b012dbdcbaec2" target="_top" xlink:title="Power of two The function return power of 2 for values 2^N. The implementation use ANSI C and could b...">
<polygon fill="white" stroke="#666666" points="348.75,-134 251,-134 251,-114 348.75,-114 348.75,-134"/>
<text xml:space="preserve" text-anchor="middle" x="299.88" y="-120.5" font-family="Helvetica,sans-Serif" font-size="10.00">dsp_power_of_two</text>
</a>
</g>
</g>
<!-- Node3&#45;&gt;Node4 -->
<g id="edge3_Node000003_Node000004" class="edge">
<title>Node3&#45;&gt;Node4</title>
<g id="a_edge3_Node000003_Node000004"><a xlink:title=" ">
<path fill="none" stroke="#63b8ff" d="M189.9,-96.48C207.42,-100.91 228.01,-106.11 246.55,-110.79"/>
<polygon fill="#63b8ff" stroke="#63b8ff" points="245.47,-114.12 256.02,-113.18 247.18,-107.34 245.47,-114.12"/>
</a>
</g>
</g>
<!-- Node5 -->
<g id="Node000005" class="node">
<title>Node5</title>
<g id="a_Node000005"><a xlink:href="dsps__fft2r__fc32__ansi_8c.html#af6eeaefef23180c3d2c319bfe402b558" target="_top" xlink:title="bit reverse operation for the complex input array">
<polygon fill="white" stroke="#666666" points="359.25,-96 240.5,-96 240.5,-76 359.25,-76 359.25,-96"/>
<text xml:space="preserve" text-anchor="middle" x="299.88" y="-82.5" font-family="Helvetica,sans-Serif" font-size="10.00">dsps_bit_rev_fc32_ansi</text>
</a>
</g>
</g>
<!-- Node3&#45;&gt;Node5 -->
<g id="edge4_Node000003_Node000005" class="edge">
<title>Node3&#45;&gt;Node5</title>
<g id="a_edge4_Node000003_Node000005"><a xlink:title=" ">
<path fill="none" stroke="#63b8ff" d="M198.07,-86C207.94,-86 218.48,-86 228.88,-86"/>
<polygon fill="#63b8ff" stroke="#63b8ff" points="228.57,-89.5 238.57,-86 228.57,-82.5 228.57,-89.5"/>
</a>
</g>
</g>
<!-- Node7 -->
<g id="Node000007" class="node">
<title>Node7</title>
<g id="a_Node000007"><a xlink:href="dsps__fft2r__fc32__ansi_8c.html#a512cd6d2b04793b59881041e37e51738" target="_top" xlink:title="Generate coefficients table for the FFT radix 2.">
<polygon fill="white" stroke="#666666" points="354,-58 245.75,-58 245.75,-38 354,-38 354,-58"/>
<text xml:space="preserve" text-anchor="middle" x="299.88" y="-44.5" font-family="Helvetica,sans-Serif" font-size="10.00">dsps_gen_w_r2_fc32</text>
</a>
</g>
</g>
<!-- Node3&#45;&gt;Node7 -->
<g id="edge6_Node000003_Node000007" class="edge">
<title>Node3&#45;&gt;Node7</title>
<g id="a_edge6_Node000003_Node000007"><a xlink:title=" ">
<path fill="none" stroke="#63b8ff" d="M189.9,-75.52C207.42,-71.09 228.01,-65.89 246.55,-61.21"/>
<polygon fill="#63b8ff" stroke="#63b8ff" points="247.18,-64.66 256.02,-58.82 245.47,-57.88 247.18,-64.66"/>
</a>
</g>
</g>
<!-- Node6 -->
<g id="Node000006" class="node">
<title>Node6</title>
<g id="a_Node000006"><a xlink:href="test__fft2r_8c.html#a0dc0b4dd19d7ebd2f69bfb0c1a6f85da" target="_top" xlink:title="check power of two The function check if the argument is power of 2. The implementation use ANSI C an...">
<polygon fill="white" stroke="#666666" points="505.75,-77 395.25,-77 395.25,-57 505.75,-57 505.75,-77"/>
<text xml:space="preserve" text-anchor="middle" x="450.5" y="-63.5" font-family="Helvetica,sans-Serif" font-size="10.00">dsp_is_power_of_two</text>
</a>
</g>
</g>
<!-- Node5&#45;&gt;Node6 -->
<g id="edge5_Node000005_Node000006" class="edge">
<title>Node5&#45;&gt;Node6</title>
<g id="a_edge5_Node000005_Node000006"><a xlink:title=" ">
<path fill="none" stroke="#63b8ff" d="M359.62,-78.49C367.56,-77.48 375.75,-76.43 383.8,-75.4"/>
<polygon fill="#63b8ff" stroke="#63b8ff" points="384.08,-78.89 393.55,-74.15 383.19,-71.95 384.08,-78.89"/>
</a>
</g>
</g>
<!-- Node7&#45;&gt;Node6 -->
<g id="edge7_Node000007_Node000006" class="edge">
<title>Node7&#45;&gt;Node6</title>
<g id="a_edge7_Node000007_Node000006"><a xlink:title=" ">
<path fill="none" stroke="#63b8ff" d="M354.11,-54.81C363.63,-56.02 373.65,-57.3 383.48,-58.56"/>
<polygon fill="#63b8ff" stroke="#63b8ff" points="383.02,-62.03 393.38,-59.83 383.91,-55.09 383.02,-62.03"/>
</a>
</g>
</g>
</g>
</svg>

<g id="navigator" transform="translate(0 0)" fill="#404254">
  <rect fill="#f2f5e9" fill-opacity="0.5" stroke="#606060" stroke-width=".5" x="0" y="0" width="60" height="60"/>
  <use id="zoomplus" xlink:href="#zoomPlus" x="17" y="9" onmousedown="handleZoom(evt,'in')"/>
  <use id="zoomminus" xlink:href="#zoomMin" x="42" y="9" onmousedown="handleZoom(evt,'out')"/>
  <use id="reset" xlink:href="#resetDef" x="30" y="36" onmousedown="handleReset()"/>
   <use id="arrowup" xlink:href="#arrowUp" x="0" y="0" onmousedown="handlePan(0,-1)"/>
  <use id="arrowright" xlink:href="#arrowRight" x="0" y="0" onmousedown="handlePan(1,0)"/>
  <use id="arrowdown" xlink:href="#arrowDown" x="0" y="0" onmousedown="handlePan(0,1)"/>
  <use id="arrowleft" xlink:href="#arrowLeft" x="0" y="0" onmousedown="handlePan(-1,0)"/>
</g>
<svg viewBox="0 0 15 15" width="100%" height="30px" preserveAspectRatio="xMaxYMin meet">
 <g id="arrow_out" transform="scale(0.3 0.3)">
  <a xlink:href="test__fft2r_8c_af57f5d7a9dfff9aeea49fb117331c12d_cgraph_org.svg" target="_base">
   <rect id="button" ry="5" rx="5" y="6" x="6" height="38" width="38"
        fill="#f2f5e9" fill-opacity="0.5" stroke="#606060" stroke-width="1.0"/>
   <path id="arrow"
     d="M 11.500037,31.436501 C 11.940474,20.09759 22.043105,11.32322 32.158766,21.979434 L 37.068811,17.246167 C 37.068811,17.246167 37.088388,32 37.088388,32 L 22.160133,31.978069 C 22.160133,31.978069 26.997745,27.140456 26.997745,27.140456 C 18.528582,18.264221 13.291696,25.230495 11.500037,31.436501 z"
     style="fill:#404040;"/>
  </a>
 </g>
</svg>

<style type='text/css'>
<![CDATA[
[data-mouse-over-selected='false'] { opacity: 0.7; }
[data-mouse-over-selected='true']  { opacity: 1.0; }
]]>
</style>
<script type="application/ecmascript"><![CDATA[
document.addEventListener('DOMContentLoaded', (event) => {
  highlightEdges();
  highlightAdjacentNodes();
});
]]></script>
</svg>
