<?xml version="1.0" encoding="UTF-8" standalone="no"?>
<!DOCTYPE svg PUBLIC "-//W3C//DTD SVG 1.1//EN"
 "http://www.w3.org/Graphics/SVG/1.1/DTD/svg11.dtd">
<!-- Generated by graphviz version 14.1.2 (20260124.0452)
 -->
<!-- Title: tinyusb.h Pages: 1 -->
<svg width="433pt" height="140pt"
 viewBox="0.00 0.00 433.00 140.00" xmlns="http://www.w3.org/2000/svg" xmlns:xlink="http://www.w3.org/1999/xlink">
<g id="graph0" class="graph" transform="scale(1 1) rotate(0) translate(4 136)">
<title>tinyusb.h</title>
<!-- Node1 -->
<g id="Node000001" class="node">
<title>Node1</title>
<g id="a_Node000001"><a xlink:title=" ">
<polygon fill="#999999" stroke="#666666" points="222.75,-132 167,-132 167,-112 222.75,-112 222.75,-132"/>
<text xml:space="preserve" text-anchor="middle" x="194.88" y="-118.5" font-family="Helvetica,sans-Serif" font-size="10.00">tinyusb.h</text>
</a>
</g>
</g>
<!-- Node2 -->
<g id="Node000002" class="node">
<title>Node2</title>
<g id="a_Node000002"><a xlink:title=" ">
<polygon fill="#e0e0e0" stroke="#999999" points="55.75,-76 0,-76 0,-56 55.75,-56 55.75,-76"/>
<text xml:space="preserve" text-anchor="middle" x="27.88" y="-62.5" font-family="Helvetica,sans-Serif" font-size="10.00">stdbool.h</text>
</a>
</g>
</g>
<!-- Node1&#45;&gt;Node2 -->
<g id="edge1_Node000001_Node000002" class="edge">
<title>Node1&#45;&gt;Node2</title>
<g id="a_edge1_Node000001_Node000002"><a xlink:title=" ">
<path fill="none" stroke="#63b8ff" d="M166.55,-111.84C139.11,-102.97 97.3,-89.45 66.76,-79.57"/>
<polygon fill="#63b8ff" stroke="#63b8ff" points="68.1,-76.33 57.5,-76.58 65.94,-82.99 68.1,-76.33"/>
</a>
</g>
</g>
<!-- Node3 -->
<g id="Node000003" class="node">
<title>Node3</title>
<g id="a_Node000003"><a xlink:href="esp__err_8h.html" target="_top" xlink:title=" ">
<polygon fill="white" stroke="#666666" points="130.12,-76 73.62,-76 73.62,-56 130.12,-56 130.12,-76"/>
<text xml:space="preserve" text-anchor="middle" x="101.88" y="-62.5" font-family="Helvetica,sans-Serif" font-size="10.00">esp_err.h</text>
</a>
</g>
</g>
<!-- Node1&#45;&gt;Node3 -->
<g id="edge2_Node000001_Node000003" class="edge">
<title>Node1&#45;&gt;Node3</title>
<g id="a_edge2_Node000001_Node000003"><a xlink:title=" ">
<path fill="none" stroke="#63b8ff" d="M178.68,-111.59C164.63,-103.44 144.04,-91.48 127.72,-82"/>
<polygon fill="#63b8ff" stroke="#63b8ff" points="129.92,-79.23 119.51,-77.24 126.4,-85.29 129.92,-79.23"/>
</a>
</g>
</g>
<!-- Node5 -->
<g id="Node000005" class="node">
<title>Node5</title>
<g id="a_Node000005"><a xlink:title=" ">
<polygon fill="#e0e0e0" stroke="#999999" points="191.38,-76 148.38,-76 148.38,-56 191.38,-56 191.38,-76"/>
<text xml:space="preserve" text-anchor="middle" x="169.88" y="-62.5" font-family="Helvetica,sans-Serif" font-size="10.00">tusb.h</text>
</a>
</g>
</g>
<!-- Node1&#45;&gt;Node5 -->
<g id="edge4_Node000001_Node000005" class="edge">
<title>Node1&#45;&gt;Node5</title>
<g id="a_edge4_Node000001_Node000005"><a xlink:title=" ">
<path fill="none" stroke="#63b8ff" d="M190.52,-111.59C187.33,-104.7 182.89,-95.1 178.94,-86.57"/>
<polygon fill="#63b8ff" stroke="#63b8ff" points="182.19,-85.28 174.82,-77.67 175.84,-88.22 182.19,-85.28"/>
</a>
</g>
</g>
<!-- Node6 -->
<g id="Node000006" class="node">
<title>Node6</title>
<g id="a_Node000006"><a xlink:title=" ">
<polygon fill="#e0e0e0" stroke="#999999" points="257.12,-20 182.62,-20 182.62,0 257.12,0 257.12,-20"/>
<text xml:space="preserve" text-anchor="middle" x="219.88" y="-6.5" font-family="Helvetica,sans-Serif" font-size="10.00">tusb_option.h</text>
</a>
</g>
</g>
<!-- Node1&#45;&gt;Node6 -->
<g id="edge5_Node000001_Node000006" class="edge">
<title>Node1&#45;&gt;Node6</title>
<g id="a_edge5_Node000001_Node000006"><a xlink:title=" ">
<path fill="none" stroke="#63b8ff" d="M197.01,-111.62C201.03,-93.92 209.82,-55.24 215.26,-31.32"/>
<polygon fill="#63b8ff" stroke="#63b8ff" points="218.61,-32.36 217.41,-21.83 211.78,-30.81 218.61,-32.36"/>
</a>
</g>
</g>
<!-- Node7 -->
<g id="Node000007" class="node">
<title>Node7</title>
<g id="a_Node000007"><a xlink:href="tusb__config_8h.html" target="_top" xlink:title=" ">
<polygon fill="white" stroke="#666666" points="322.12,-76 247.62,-76 247.62,-56 322.12,-56 322.12,-76"/>
<text xml:space="preserve" text-anchor="middle" x="284.88" y="-62.5" font-family="Helvetica,sans-Serif" font-size="10.00">tusb_config.h</text>
</a>
</g>
</g>
<!-- Node1&#45;&gt;Node7 -->
<g id="edge6_Node000001_Node000007" class="edge">
<title>Node1&#45;&gt;Node7</title>
<g id="a_edge6_Node000001_Node000007"><a xlink:title=" ">
<path fill="none" stroke="#63b8ff" d="M210.55,-111.59C224.02,-103.51 243.69,-91.71 259.42,-82.27"/>
<polygon fill="#63b8ff" stroke="#63b8ff" points="261,-85.4 267.78,-77.26 257.4,-79.4 261,-85.4"/>
</a>
</g>
</g>
<!-- Node9 -->
<g id="Node000009" class="node">
<title>Node9</title>
<g id="a_Node000009"><a xlink:href="tinyusb__types_8h.html" target="_top" xlink:title=" ">
<polygon fill="white" stroke="#666666" points="425.38,-76 340.38,-76 340.38,-56 425.38,-56 425.38,-76"/>
<text xml:space="preserve" text-anchor="middle" x="382.88" y="-62.5" font-family="Helvetica,sans-Serif" font-size="10.00">tinyusb_types.h</text>
</a>
</g>
</g>
<!-- Node1&#45;&gt;Node9 -->
<g id="edge9_Node000001_Node000009" class="edge">
<title>Node1&#45;&gt;Node9</title>
<g id="a_edge9_Node000001_Node000009"><a xlink:title=" ">
<path fill="none" stroke="#63b8ff" d="M223.02,-112.92C253.84,-104.06 303.64,-89.76 339.47,-79.47"/>
<polygon fill="#63b8ff" stroke="#63b8ff" points="340,-82.96 348.65,-76.83 338.07,-76.23 340,-82.96"/>
</a>
</g>
</g>
<!-- Node4 -->
<g id="Node000004" class="node">
<title>Node4</title>
<g id="a_Node000004"><a xlink:title=" ">
<polygon fill="#e0e0e0" stroke="#999999" points="125.62,-20 78.12,-20 78.12,0 125.62,0 125.62,-20"/>
<text xml:space="preserve" text-anchor="middle" x="101.88" y="-6.5" font-family="Helvetica,sans-Serif" font-size="10.00">stdlib.h</text>
</a>
</g>
</g>
<!-- Node3&#45;&gt;Node4 -->
<g id="edge3_Node000003_Node000004" class="edge">
<title>Node3&#45;&gt;Node4</title>
<g id="a_edge3_Node000003_Node000004"><a xlink:title=" ">
<path fill="none" stroke="#63b8ff" d="M101.88,-55.59C101.88,-49.01 101.88,-39.96 101.88,-31.73"/>
<polygon fill="#63b8ff" stroke="#63b8ff" points="105.38,-31.81 101.88,-21.81 98.38,-31.81 105.38,-31.81"/>
</a>
</g>
</g>
<!-- Node7&#45;&gt;Node6 -->
<g id="edge7_Node000007_Node000006" class="edge">
<title>Node7&#45;&gt;Node6</title>
<g id="a_edge7_Node000007_Node000006"><a xlink:title=" ">
<path fill="none" stroke="#63b8ff" d="M273.55,-55.59C264.23,-47.85 250.8,-36.69 239.7,-27.47"/>
<polygon fill="#63b8ff" stroke="#63b8ff" points="242.16,-24.96 232.23,-21.27 237.69,-30.35 242.16,-24.96"/>
</a>
</g>
</g>
<!-- Node8 -->
<g id="Node000008" class="node">
<title>Node8</title>
<g id="a_Node000008"><a xlink:title=" ">
<polygon fill="#e0e0e0" stroke="#999999" points="341,-20 274.75,-20 274.75,0 341,0 341,-20"/>
<text xml:space="preserve" text-anchor="middle" x="307.88" y="-6.5" font-family="Helvetica,sans-Serif" font-size="10.00">sdkconfig.h</text>
</a>
</g>
</g>
<!-- Node7&#45;&gt;Node8 -->
<g id="edge8_Node000007_Node000008" class="edge">
<title>Node7&#45;&gt;Node8</title>
<g id="a_edge8_Node000007_Node000008"><a xlink:title=" ">
<path fill="none" stroke="#63b8ff" d="M288.88,-55.59C291.78,-48.78 295.81,-39.32 299.42,-30.86"/>
<polygon fill="#63b8ff" stroke="#63b8ff" points="302.62,-32.26 303.32,-21.69 296.18,-29.52 302.62,-32.26"/>
</a>
</g>
</g>
</g>
</svg>
