<?xml version="1.0" encoding="UTF-8" standalone="no"?>
<!DOCTYPE svg PUBLIC "-//W3C//DTD SVG 1.1//EN"
 "http://www.w3.org/Graphics/SVG/1.1/DTD/svg11.dtd">
<!-- Generated by graphviz version 14.1.2 (20260124.0452)
 -->
<!-- Title: tinyusb_types.h Pages: 1 -->
<!--zoomable 196 -->

<svg id="main" version="1.1" xmlns="http://www.w3.org/2000/svg" xmlns:xlink="http://www.w3.org/1999/xlink" xml:space="preserve" onload="init(evt)">

<style type="text/css"><![CDATA[
.node, .edge {opacity: 0.7;}
.node.selected, .edge.selected {opacity: 1;}
.edge:hover path { stroke: red; }
.edge:hover polygon { stroke: red; fill: red; }
]]></style>

<defs>
  <circle id="rim" cx="0" cy="0" r="7"/>
  <circle id="rim2" cx="0" cy="0" r="3.5"/>
  <g id="zoomPlus">
    <use xlink:href="#rim" fill="#404040"><set attributeName="fill" to="#808080" begin="zoomplus.mouseover" end="zoomplus.mouseout"/></use>
    <path d="M-4,0h8M0,-4v8" fill="none" stroke="white" stroke-width="1.5" pointer-events="none"/>
  </g>
  <g id="zoomMin">
    <use xlink:href="#rim" fill="#404040"><set attributeName="fill" to="#808080" begin="zoomminus.mouseover" end="zoomminus.mouseout"/></use>
    <path d="M-4,0h8" fill="none" stroke="white" stroke-width="1.5" pointer-events="none"/>
  </g>
  <g id="arrowUp" transform="translate(30 24)">
    <use xlink:href="#rim"/>
    <path pointer-events="none" fill="none" stroke="white" stroke-width="1.5" d="M0,-3.0v7 M-2.5,-0.5L0,-3.0L2.5,-0.5"/>
  </g>
  <g id="arrowRight" transform="rotate(90) translate(36 -43)">
    <use xlink:href="#rim"/>
    <path pointer-events="none" fill="none" stroke="white" stroke-width="1.5" d="M0,-3.0v7 M-2.5,-0.5L0,-3.0L2.5,-0.5"/>
  </g>
  <g id="arrowDown" transform="rotate(180) translate(-30 -48)">
    <use xlink:href="#rim"/>
    <path pointer-events="none" fill="none" stroke="white" stroke-width="1.5" d="M0,-3.0v7 M-2.5,-0.5L0,-3.0L2.5,-0.5"/>
  </g>
  <g id="arrowLeft" transform="rotate(270) translate(-36 17)">
    <use xlink:href="#rim"/>
    <path pointer-events="none" fill="none" stroke="white" stroke-width="1.5" d="M0,-3.0v7 M-2.5,-0.5L0,-3.0L2.5,-0.5"/>
  </g>
  <g id="resetDef">
    <use xlink:href="#rim2" fill="#404040"><set attributeName="fill" to="#808080" begin="reset.mouseover" end="reset.mouseout"/></use>
  </g>
</defs>
<script type="application/ecmascript">
var viewWidth = 768;
var viewHeight = 196;
var sectionId = 'dynsection-0';
</script>
<script type="application/ecmascript" xlink:href="svg.min.js"/>
<svg id="graph" class="graph">
<g id="viewport">
<title>tinyusb_types.h</title>
<!-- Node1 -->
<g id="Node000001" class="node">
<title>Node1</title>
<g id="a_Node000001"><a xlink:title=" ">
<polygon fill="#999999" stroke="#666666" points="459.5,-188 374.5,-188 374.5,-168 459.5,-168 459.5,-188"/>
<text xml:space="preserve" text-anchor="middle" x="417" y="-174.5" font-family="Helvetica,sans-Serif" font-size="10.00">tinyusb_types.h</text>
</a>
</g>
</g>
<!-- Node2 -->
<g id="Node000002" class="node">
<title>Node2</title>
<g id="a_Node000002"><a xlink:href="cdc_8h.html" target="_top" xlink:title=" ">
<polygon fill="white" stroke="#666666" points="123,-132 83,-132 83,-112 123,-112 123,-132"/>
<text xml:space="preserve" text-anchor="middle" x="103" y="-118.5" font-family="Helvetica,sans-Serif" font-size="10.00">cdc.h</text>
</a>
</g>
</g>
<!-- Node1&#45;&gt;Node2 -->
<g id="edge1_Node000001_Node000002" class="edge">
<title>Node1&#45;&gt;Node2</title>
<g id="a_edge1_Node000001_Node000002"><a xlink:title=" ">
<path fill="none" stroke="#63b8ff" d="M363.4,-167.78C292.53,-155.59 171.03,-134.7 123.2,-126.47"/>
<polygon fill="#63b8ff" stroke="#63b8ff" points="362.39,-171.16 372.83,-169.4 363.57,-164.26 362.39,-171.16"/>
</a>
</g>
</g>
<!-- Node6 -->
<g id="Node000006" class="node">
<title>Node6</title>
<g id="a_Node000006"><a xlink:href="descriptors__control_8h.html" target="_top" xlink:title=" ">
<polygon fill="white" stroke="#666666" points="534.38,-132 427.62,-132 427.62,-112 534.38,-112 534.38,-132"/>
<text xml:space="preserve" text-anchor="middle" x="481" y="-118.5" font-family="Helvetica,sans-Serif" font-size="10.00">descriptors_control.h</text>
</a>
</g>
</g>
<!-- Node1&#45;&gt;Node6 -->
<g id="edge5_Node000001_Node000006" class="edge">
<title>Node1&#45;&gt;Node6</title>
<g id="a_edge5_Node000001_Node000006"><a xlink:title=" ">
<path fill="none" stroke="#63b8ff" d="M436.67,-160.4C447.62,-151.17 460.84,-140.01 469.98,-132.3"/>
<polygon fill="#63b8ff" stroke="#63b8ff" points="434.69,-157.49 429.3,-166.62 439.2,-162.84 434.69,-157.49"/>
</a>
</g>
</g>
<!-- Node9 -->
<g id="Node000009" class="node">
<title>Node9</title>
<g id="a_Node000009"><a xlink:href="tinyusb_8h.html" target="_top" xlink:title=" ">
<polygon fill="white" stroke="#666666" points="395.88,-132 340.12,-132 340.12,-112 395.88,-112 395.88,-132"/>
<text xml:space="preserve" text-anchor="middle" x="368" y="-118.5" font-family="Helvetica,sans-Serif" font-size="10.00">tinyusb.h</text>
</a>
</g>
</g>
<!-- Node1&#45;&gt;Node9 -->
<g id="edge8_Node000001_Node000009" class="edge">
<title>Node1&#45;&gt;Node9</title>
<g id="a_edge8_Node000001_Node000009"><a xlink:title=" ">
<path fill="none" stroke="#63b8ff" d="M400.93,-159.29C392.75,-150.28 383.15,-139.7 376.44,-132.3"/>
<polygon fill="#63b8ff" stroke="#63b8ff" points="398.14,-161.42 407.45,-166.47 403.32,-156.72 398.14,-161.42"/>
</a>
</g>
</g>
<!-- Node14 -->
<g id="Node000014" class="node">
<title>Node14</title>
<g id="a_Node000014"><a xlink:href="usb__descriptors_8h.html" target="_top" xlink:title=" ">
<polygon fill="white" stroke="#666666" points="645.62,-132 552.38,-132 552.38,-112 645.62,-112 645.62,-132"/>
<text xml:space="preserve" text-anchor="middle" x="599" y="-118.5" font-family="Helvetica,sans-Serif" font-size="10.00">usb_descriptors.h</text>
</a>
</g>
</g>
<!-- Node1&#45;&gt;Node14 -->
<g id="edge18_Node000001_Node000014" class="edge">
<title>Node1&#45;&gt;Node14</title>
<g id="a_edge18_Node000001_Node000014"><a xlink:title=" ">
<path fill="none" stroke="#63b8ff" d="M459.36,-164.43C492.24,-154.67 537.14,-141.35 567.05,-132.48"/>
<polygon fill="#63b8ff" stroke="#63b8ff" points="458.74,-160.96 450.15,-167.16 460.74,-167.67 458.74,-160.96"/>
</a>
</g>
</g>
<!-- Node3 -->
<g id="Node000003" class="node">
<title>Node3</title>
<g id="a_Node000003"><a xlink:href="cdc_8c.html" target="_top" xlink:title=" ">
<polygon fill="white" stroke="#666666" points="40,-76 0,-76 0,-56 40,-56 40,-76"/>
<text xml:space="preserve" text-anchor="middle" x="20" y="-62.5" font-family="Helvetica,sans-Serif" font-size="10.00">cdc.c</text>
</a>
</g>
</g>
<!-- Node2&#45;&gt;Node3 -->
<g id="edge2_Node000002_Node000003" class="edge">
<title>Node2&#45;&gt;Node3</title>
<g id="a_edge2_Node000002_Node000003"><a xlink:title=" ">
<path fill="none" stroke="#63b8ff" d="M79.24,-105.54C64.83,-96.17 46.91,-84.51 34.57,-76.48"/>
<polygon fill="#63b8ff" stroke="#63b8ff" points="76.98,-108.25 87.27,-110.77 80.8,-102.38 76.98,-108.25"/>
</a>
</g>
</g>
<!-- Node4 -->
<g id="Node000004" class="node">
<title>Node4</title>
<g id="a_Node000004"><a xlink:href="tusb__cdc__acm_8c.html" target="_top" xlink:title=" ">
<polygon fill="white" stroke="#666666" points="174,-20 86,-20 86,0 174,0 174,-20"/>
<text xml:space="preserve" text-anchor="middle" x="130" y="-6.5" font-family="Helvetica,sans-Serif" font-size="10.00">tusb_cdc_acm.c</text>
</a>
</g>
</g>
<!-- Node2&#45;&gt;Node4 -->
<g id="edge3_Node000002_Node000004" class="edge">
<title>Node2&#45;&gt;Node4</title>
<g id="a_edge3_Node000002_Node000004"><a xlink:title=" ">
<path fill="none" stroke="#63b8ff" d="M92.09,-101.69C86.12,-88.53 81.05,-70.85 87,-56 92.95,-41.16 106.39,-28.44 116.68,-20.34"/>
<polygon fill="#63b8ff" stroke="#63b8ff" points="88.96,-103.26 96.62,-110.57 95.19,-100.08 88.96,-103.26"/>
</a>
</g>
</g>
<!-- Node5 -->
<g id="Node000005" class="node">
<title>Node5</title>
<g id="a_Node000005"><a xlink:href="tusb__console_8c.html" target="_top" xlink:title=" ">
<polygon fill="white" stroke="#666666" points="178,-76 96,-76 96,-56 178,-56 178,-76"/>
<text xml:space="preserve" text-anchor="middle" x="137" y="-62.5" font-family="Helvetica,sans-Serif" font-size="10.00">tusb_console.c</text>
</a>
</g>
</g>
<!-- Node2&#45;&gt;Node5 -->
<g id="edge4_Node000002_Node000005" class="edge">
<title>Node2&#45;&gt;Node5</title>
<g id="a_edge4_Node000002_Node000005"><a xlink:title=" ">
<path fill="none" stroke="#63b8ff" d="M115.05,-101.87C120.51,-93.19 126.73,-83.32 131.15,-76.3"/>
<polygon fill="#63b8ff" stroke="#63b8ff" points="112.1,-99.99 109.73,-110.31 118.02,-103.72 112.1,-99.99"/>
</a>
</g>
</g>
<!-- Node7 -->
<g id="Node000007" class="node">
<title>Node7</title>
<g id="a_Node000007"><a xlink:href="descriptors__control_8c.html" target="_top" xlink:title=" ">
<polygon fill="white" stroke="#666666" points="648.38,-76 541.62,-76 541.62,-56 648.38,-56 648.38,-76"/>
<text xml:space="preserve" text-anchor="middle" x="595" y="-62.5" font-family="Helvetica,sans-Serif" font-size="10.00">descriptors_control.c</text>
</a>
</g>
</g>
<!-- Node6&#45;&gt;Node7 -->
<g id="edge6_Node000006_Node000007" class="edge">
<title>Node6&#45;&gt;Node7</title>
<g id="a_edge6_Node000006_Node000007"><a xlink:title=" ">
<path fill="none" stroke="#63b8ff" d="M511.09,-106.75C531.28,-97.18 557.31,-84.85 574.99,-76.48"/>
<polygon fill="#63b8ff" stroke="#63b8ff" points="509.76,-103.5 502.23,-110.95 512.76,-109.83 509.76,-103.5"/>
</a>
</g>
</g>
<!-- Node8 -->
<g id="Node000008" class="node">
<title>Node8</title>
<g id="a_Node000008"><a xlink:href="tinyusb_8c.html" target="_top" xlink:title=" ">
<polygon fill="white" stroke="#666666" points="523.88,-76 468.12,-76 468.12,-56 523.88,-56 523.88,-76"/>
<text xml:space="preserve" text-anchor="middle" x="496" y="-62.5" font-family="Helvetica,sans-Serif" font-size="10.00">tinyusb.c</text>
</a>
</g>
</g>
<!-- Node6&#45;&gt;Node8 -->
<g id="edge7_Node000006_Node000008" class="edge">
<title>Node6&#45;&gt;Node8</title>
<g id="a_edge7_Node000006_Node000008"><a xlink:title=" ">
<path fill="none" stroke="#63b8ff" d="M486.63,-100.71C488.97,-92.32 491.55,-83.01 493.42,-76.3"/>
<polygon fill="#63b8ff" stroke="#63b8ff" points="483.32,-99.56 484.02,-110.14 490.07,-101.44 483.32,-99.56"/>
</a>
</g>
</g>
<!-- Node9&#45;&gt;Node5 -->
<g id="edge15_Node000009_Node000005" class="edge">
<title>Node9&#45;&gt;Node5</title>
<g id="a_edge15_Node000009_Node000005"><a xlink:title=" ">
<path fill="none" stroke="#63b8ff" d="M328.49,-111.76C286.4,-101.92 220.12,-86.43 177.62,-76.49"/>
<polygon fill="#63b8ff" stroke="#63b8ff" points="327.67,-115.17 338.2,-114.03 329.26,-108.35 327.67,-115.17"/>
</a>
</g>
</g>
<!-- Node9&#45;&gt;Node8 -->
<g id="edge10_Node000009_Node000008" class="edge">
<title>Node9&#45;&gt;Node8</title>
<g id="a_edge10_Node000009_Node000008"><a xlink:title=" ">
<path fill="none" stroke="#63b8ff" d="M400.85,-107.14C423.64,-97.52 453.41,-84.97 473.53,-76.48"/>
<polygon fill="#63b8ff" stroke="#63b8ff" points="399.54,-103.89 391.69,-111.01 402.26,-110.34 399.54,-103.89"/>
</a>
</g>
</g>
<!-- Node10 -->
<g id="Node000010" class="node">
<title>Node10</title>
<g id="a_Node000010"><a xlink:href="main_2main_8c.html" target="_top" xlink:title=" ">
<polygon fill="white" stroke="#666666" points="426.62,-20 381.38,-20 381.38,0 426.62,0 426.62,-20"/>
<text xml:space="preserve" text-anchor="middle" x="404" y="-6.5" font-family="Helvetica,sans-Serif" font-size="10.00">main.c</text>
</a>
</g>
</g>
<!-- Node9&#45;&gt;Node10 -->
<g id="edge9_Node000009_Node000010" class="edge">
<title>Node9&#45;&gt;Node10</title>
<g id="a_edge9_Node000009_Node000010"><a xlink:title=" ">
<path fill="none" stroke="#63b8ff" d="M395.07,-105.21C405.17,-97.76 415.51,-87.87 421,-76 429.72,-57.16 418.09,-33.09 410.2,-20.18"/>
<polygon fill="#63b8ff" stroke="#63b8ff" points="393.2,-102.24 386.88,-110.75 397.12,-108.04 393.2,-102.24"/>
</a>
</g>
</g>
<!-- Node11 -->
<g id="Node000011" class="node">
<title>Node11</title>
<g id="a_Node000011"><a xlink:href="tusb__cdc__acm_8h.html" target="_top" xlink:title=" ">
<polygon fill="white" stroke="#666666" points="412,-76 324,-76 324,-56 412,-56 412,-76"/>
<text xml:space="preserve" text-anchor="middle" x="368" y="-62.5" font-family="Helvetica,sans-Serif" font-size="10.00">tusb_cdc_acm.h</text>
</a>
</g>
</g>
<!-- Node9&#45;&gt;Node11 -->
<g id="edge11_Node000009_Node000011" class="edge">
<title>Node9&#45;&gt;Node11</title>
<g id="a_edge11_Node000009_Node000011"><a xlink:title=" ">
<path fill="none" stroke="#63b8ff" d="M368,-100.13C368,-91.9 368,-82.85 368,-76.3"/>
<polygon fill="#63b8ff" stroke="#63b8ff" points="364.5,-100.08 368,-110.08 371.5,-100.08 364.5,-100.08"/>
</a>
</g>
</g>
<!-- Node12 -->
<g id="Node000012" class="node">
<title>Node12</title>
<g id="a_Node000012"><a xlink:href="vfs__tinyusb_8c.html" target="_top" xlink:title=" ">
<polygon fill="white" stroke="#666666" points="285.25,-20 210.75,-20 210.75,0 285.25,0 285.25,-20"/>
<text xml:space="preserve" text-anchor="middle" x="248" y="-6.5" font-family="Helvetica,sans-Serif" font-size="10.00">vfs_tinyusb.c</text>
</a>
</g>
</g>
<!-- Node9&#45;&gt;Node12 -->
<g id="edge17_Node000009_Node000012" class="edge">
<title>Node9&#45;&gt;Node12</title>
<g id="a_edge17_Node000009_Node000012"><a xlink:title=" ">
<path fill="none" stroke="#63b8ff" d="M328.6,-120.6C295.01,-117.9 248.55,-108.1 225,-76 212.25,-58.63 228.8,-33.55 239.75,-20.19"/>
<polygon fill="#63b8ff" stroke="#63b8ff" points="328.18,-124.08 338.37,-121.19 328.6,-117.09 328.18,-124.08"/>
</a>
</g>
</g>
<!-- Node13 -->
<g id="Node000013" class="node">
<title>Node13</title>
<g id="a_Node000013"><a xlink:href="tusb__tasks_8c.html" target="_top" xlink:title=" ">
<polygon fill="white" stroke="#666666" points="306.12,-76 233.88,-76 233.88,-56 306.12,-56 306.12,-76"/>
<text xml:space="preserve" text-anchor="middle" x="270" y="-62.5" font-family="Helvetica,sans-Serif" font-size="10.00">tusb_tasks.c</text>
</a>
</g>
</g>
<!-- Node9&#45;&gt;Node13 -->
<g id="edge16_Node000009_Node000013" class="edge">
<title>Node9&#45;&gt;Node13</title>
<g id="a_edge16_Node000009_Node000013"><a xlink:title=" ">
<path fill="none" stroke="#63b8ff" d="M340.92,-106.08C323.75,-96.62 302.05,-84.66 287.2,-76.48"/>
<polygon fill="#63b8ff" stroke="#63b8ff" points="339.16,-109.1 349.6,-110.86 342.53,-102.97 339.16,-109.1"/>
</a>
</g>
</g>
<!-- Node11&#45;&gt;Node4 -->
<g id="edge13_Node000011_Node000004" class="edge">
<title>Node11&#45;&gt;Node4</title>
<g id="a_edge13_Node000011_Node000004"><a xlink:title=" ">
<path fill="none" stroke="#63b8ff" d="M315.11,-53C271.87,-43.19 211.56,-29.51 171.68,-20.46"/>
<polygon fill="#63b8ff" stroke="#63b8ff" points="314.27,-56.4 324.8,-55.2 315.82,-49.57 314.27,-56.4"/>
</a>
</g>
</g>
<!-- Node11&#45;&gt;Node10 -->
<g id="edge12_Node000011_Node000010" class="edge">
<title>Node11&#45;&gt;Node10</title>
<g id="a_edge12_Node000011_Node000010"><a xlink:title=" ">
<path fill="none" stroke="#63b8ff" d="M380.57,-46.15C386.4,-37.4 393.07,-27.39 397.8,-20.3"/>
<polygon fill="#63b8ff" stroke="#63b8ff" points="377.75,-44.07 375.11,-54.33 383.57,-47.96 377.75,-44.07"/>
</a>
</g>
</g>
<!-- Node11&#45;&gt;Node12 -->
<g id="edge14_Node000011_Node000012" class="edge">
<title>Node11&#45;&gt;Node12</title>
<g id="a_edge14_Node000011_Node000012"><a xlink:title=" ">
<path fill="none" stroke="#63b8ff" d="M336.62,-50.88C315.33,-41.3 287.76,-28.89 269.07,-20.48"/>
<polygon fill="#63b8ff" stroke="#63b8ff" points="335.16,-54.06 345.72,-54.97 338.03,-47.68 335.16,-54.06"/>
</a>
</g>
</g>
<!-- Node14&#45;&gt;Node8 -->
<g id="edge19_Node000014_Node000008" class="edge">
<title>Node14&#45;&gt;Node8</title>
<g id="a_edge19_Node000014_Node000008"><a xlink:title=" ">
<path fill="none" stroke="#63b8ff" d="M571.05,-106.35C552.92,-96.84 529.83,-84.74 514.08,-76.48"/>
<polygon fill="#63b8ff" stroke="#63b8ff" points="569.24,-109.35 579.72,-110.89 572.49,-103.15 569.24,-109.35"/>
</a>
</g>
</g>
<!-- Node15 -->
<g id="Node000015" class="node">
<title>Node15</title>
<g id="a_Node000015"><a xlink:href="usb__descriptors_8c.html" target="_top" xlink:title=" ">
<polygon fill="white" stroke="#666666" points="759.62,-76 666.38,-76 666.38,-56 759.62,-56 759.62,-76"/>
<text xml:space="preserve" text-anchor="middle" x="713" y="-62.5" font-family="Helvetica,sans-Serif" font-size="10.00">usb_descriptors.c</text>
</a>
</g>
</g>
<!-- Node14&#45;&gt;Node15 -->
<g id="edge20_Node000014_Node000015" class="edge">
<title>Node14&#45;&gt;Node15</title>
<g id="a_edge20_Node000014_Node000015"><a xlink:title=" ">
<path fill="none" stroke="#63b8ff" d="M629.09,-106.75C649.28,-97.18 675.31,-84.85 692.99,-76.48"/>
<polygon fill="#63b8ff" stroke="#63b8ff" points="627.76,-103.5 620.23,-110.95 630.76,-109.83 627.76,-103.5"/>
</a>
</g>
</g>
</g>
</svg>

<g id="navigator" transform="translate(0 0)" fill="#404254">
  <rect fill="#f2f5e9" fill-opacity="0.5" stroke="#606060" stroke-width=".5" x="0" y="0" width="60" height="60"/>
  <use id="zoomplus" xlink:href="#zoomPlus" x="17" y="9" onmousedown="handleZoom(evt,'in')"/>
  <use id="zoomminus" xlink:href="#zoomMin" x="42" y="9" onmousedown="handleZoom(evt,'out')"/>
  <use id="reset" xlink:href="#resetDef" x="30" y="36" onmousedown="handleReset()"/>
   <use id="arrowup" xlink:href="#arrowUp" x="0" y="0" onmousedown="handlePan(0,-1)"/>
  <use id="arrowright" xlink:href="#arrowRight" x="0" y="0" onmousedown="handlePan(1,0)"/>
  <use id="arrowdown" xlink:href="#arrowDown" x="0" y="0" onmousedown="handlePan(0,1)"/>
  <use id="arrowleft" xlink:href="#arrowLeft" x="0" y="0" onmousedown="handlePan(-1,0)"/>
</g>
<svg viewBox="0 0 15 15" width="100%" height="30px" preserveAspectRatio="xMaxYMin meet">
 <g id="arrow_out" transform="scale(0.3 0.3)">
  <a xlink:href="tinyusb__types_8h__dep__incl_org.svg" target="_base">
   <rect id="button" ry="5" rx="5" y="6" x="6" height="38" width="38"
        fill="#f2f5e9" fill-opacity="0.5" stroke="#606060" stroke-width="1.0"/>
   <path id="arrow"
     d="M 11.500037,31.436501 C 11.940474,20.09759 22.043105,11.32322 32.158766,21.979434 L 37.068811,17.246167 C 37.068811,17.246167 37.088388,32 37.088388,32 L 22.160133,31.978069 C 22.160133,31.978069 26.997745,27.140456 26.997745,27.140456 C 18.528582,18.264221 13.291696,25.230495 11.500037,31.436501 z"
     style="fill:#404040;"/>
  </a>
 </g>
</svg>

<style type='text/css'>
<![CDATA[
[data-mouse-over-selected='false'] { opacity: 0.7; }
[data-mouse-over-selected='true']  { opacity: 1.0; }
]]>
</style>
<script type="application/ecmascript"><![CDATA[
document.addEventListener('DOMContentLoaded', (event) => {
  highlightEdges();
  highlightAdjacentNodes();
});
]]></script>
</svg>
