<?xml version="1.0" encoding="UTF-8" standalone="no"?>
<!DOCTYPE svg PUBLIC "-//W3C//DTD SVG 1.1//EN"
 "http://www.w3.org/Graphics/SVG/1.1/DTD/svg11.dtd">
<!-- Generated by graphviz version 14.1.2 (20260124.0452)
 -->
<!-- Title: tinyusb.c Pages: 1 -->
<svg width="985pt" height="208pt"
 viewBox="0.00 0.00 985.00 208.00" xmlns="http://www.w3.org/2000/svg" xmlns:xlink="http://www.w3.org/1999/xlink">
<g id="graph0" class="graph" transform="scale(1 1) rotate(0) translate(4 204)">
<title>tinyusb.c</title>
<!-- Node1 -->
<g id="Node000001" class="node">
<title>Node1</title>
<g id="a_Node000001"><a xlink:title=" ">
<polygon fill="#999999" stroke="#666666" points="364.12,-200 308.38,-200 308.38,-180 364.12,-180 364.12,-200"/>
<text xml:space="preserve" text-anchor="middle" x="336.25" y="-186.5" font-family="Helvetica,sans-Serif" font-size="10.00">tinyusb.c</text>
</a>
</g>
</g>
<!-- Node2 -->
<g id="Node000002" class="node">
<title>Node2</title>
<g id="a_Node000002"><a xlink:title=" ">
<polygon fill="#e0e0e0" stroke="#999999" points="203.38,-20 137.12,-20 137.12,0 203.38,0 203.38,-20"/>
<text xml:space="preserve" text-anchor="middle" x="170.25" y="-6.5" font-family="Helvetica,sans-Serif" font-size="10.00">sdkconfig.h</text>
</a>
</g>
</g>
<!-- Node1&#45;&gt;Node2 -->
<g id="edge1_Node000001_Node000002" class="edge">
<title>Node1&#45;&gt;Node2</title>
<g id="a_edge1_Node000001_Node000002"><a xlink:title=" ">
<path fill="none" stroke="#63b8ff" d="M308.09,-186.62C278.28,-182.65 231.7,-172.08 203.25,-144 172.87,-114.01 168.86,-60.72 169.19,-31.52"/>
<polygon fill="#63b8ff" stroke="#63b8ff" points="172.68,-31.92 169.5,-21.81 165.68,-31.7 172.68,-31.92"/>
</a>
</g>
</g>
<!-- Node3 -->
<g id="Node000003" class="node">
<title>Node3</title>
<g id="a_Node000003"><a xlink:href="esp__log_8h.html" target="_top" xlink:title=" ">
<polygon fill="white" stroke="#666666" points="132.25,-76 74.25,-76 74.25,-56 132.25,-56 132.25,-76"/>
<text xml:space="preserve" text-anchor="middle" x="103.25" y="-62.5" font-family="Helvetica,sans-Serif" font-size="10.00">esp_log.h</text>
</a>
</g>
</g>
<!-- Node1&#45;&gt;Node3 -->
<g id="edge2_Node000001_Node000003" class="edge">
<title>Node1&#45;&gt;Node3</title>
<g id="a_edge2_Node000001_Node000003"><a xlink:title=" ">
<path fill="none" stroke="#63b8ff" d="M308.16,-189.16C268.27,-188 194.66,-180.58 146.25,-144 127.49,-129.83 115.76,-104.95 109.38,-87.31"/>
<polygon fill="#63b8ff" stroke="#63b8ff" points="112.74,-86.31 106.28,-77.91 106.09,-88.51 112.74,-86.31"/>
</a>
</g>
</g>
<!-- Node5 -->
<g id="Node000005" class="node">
<title>Node5</title>
<g id="a_Node000005"><a xlink:title=" ">
<polygon fill="#e0e0e0" stroke="#999999" points="631,-138 559.5,-138 559.5,-118 631,-118 631,-138"/>
<text xml:space="preserve" text-anchor="middle" x="595.25" y="-124.5" font-family="Helvetica,sans-Serif" font-size="10.00">esp_check.h</text>
</a>
</g>
</g>
<!-- Node1&#45;&gt;Node5 -->
<g id="edge4_Node000001_Node000005" class="edge">
<title>Node1&#45;&gt;Node5</title>
<g id="a_edge4_Node000001_Node000005"><a xlink:title=" ">
<path fill="none" stroke="#63b8ff" d="M364.34,-184.25C405.65,-177.02 485.05,-162.14 551.25,-144 553.65,-143.34 556.12,-142.62 558.59,-141.87"/>
<polygon fill="#63b8ff" stroke="#63b8ff" points="559.46,-145.27 567.91,-138.88 557.32,-138.6 559.46,-145.27"/>
</a>
</g>
</g>
<!-- Node6 -->
<g id="Node000006" class="node">
<title>Node6</title>
<g id="a_Node000006"><a xlink:href="esp__err_8h.html" target="_top" xlink:title=" ">
<polygon fill="white" stroke="#666666" points="56.5,-76 0,-76 0,-56 56.5,-56 56.5,-76"/>
<text xml:space="preserve" text-anchor="middle" x="28.25" y="-62.5" font-family="Helvetica,sans-Serif" font-size="10.00">esp_err.h</text>
</a>
</g>
</g>
<!-- Node1&#45;&gt;Node6 -->
<g id="edge5_Node000001_Node000006" class="edge">
<title>Node1&#45;&gt;Node6</title>
<g id="a_edge5_Node000001_Node000006"><a xlink:title=" ">
<path fill="none" stroke="#63b8ff" d="M307.96,-189.56C236.45,-190.31 51.44,-187.88 13.25,-144 -0.54,-128.16 7.73,-103.46 16.48,-86.32"/>
<polygon fill="#63b8ff" stroke="#63b8ff" points="19.51,-88.08 21.34,-77.64 13.4,-84.66 19.51,-88.08"/>
</a>
</g>
</g>
<!-- Node7 -->
<g id="Node000007" class="node">
<title>Node7</title>
<g id="a_Node000007"><a xlink:title=" ">
<polygon fill="#e0e0e0" stroke="#999999" points="745,-144 649.5,-144 649.5,-112 745,-112 745,-144"/>
<text xml:space="preserve" text-anchor="start" x="657.5" y="-130.5" font-family="Helvetica,sans-Serif" font-size="10.00">esp_private/periph</text>
<text xml:space="preserve" text-anchor="middle" x="697.25" y="-118.5" font-family="Helvetica,sans-Serif" font-size="10.00">_ctrl.h</text>
</a>
</g>
</g>
<!-- Node1&#45;&gt;Node7 -->
<g id="edge7_Node000001_Node000007" class="edge">
<title>Node1&#45;&gt;Node7</title>
<g id="a_edge7_Node000001_Node000007"><a xlink:title=" ">
<path fill="none" stroke="#63b8ff" d="M364.51,-185.87C416.6,-179.89 531.43,-165.64 637.87,-144.35"/>
<polygon fill="#63b8ff" stroke="#63b8ff" points="638.55,-147.78 647.65,-142.36 637.16,-140.92 638.55,-147.78"/>
</a>
</g>
</g>
<!-- Node8 -->
<g id="Node000008" class="node">
<title>Node8</title>
<g id="a_Node000008"><a xlink:title=" ">
<polygon fill="#e0e0e0" stroke="#999999" points="877,-138 763.5,-138 763.5,-118 877,-118 877,-138"/>
<text xml:space="preserve" text-anchor="middle" x="820.25" y="-124.5" font-family="Helvetica,sans-Serif" font-size="10.00">esp_private/usb_phy.h</text>
</a>
</g>
</g>
<!-- Node1&#45;&gt;Node8 -->
<g id="edge8_Node000001_Node000008" class="edge">
<title>Node1&#45;&gt;Node8</title>
<g id="a_edge8_Node000001_Node000008"><a xlink:title=" ">
<path fill="none" stroke="#63b8ff" d="M364.29,-187.11C431.77,-182.33 608.46,-168.33 754.25,-144 759.76,-143.08 765.5,-141.99 771.19,-140.81"/>
<polygon fill="#63b8ff" stroke="#63b8ff" points="771.49,-144.33 780.53,-138.8 770.02,-137.48 771.49,-144.33"/>
</a>
</g>
</g>
<!-- Node9 -->
<g id="Node000009" class="node">
<title>Node9</title>
<g id="a_Node000009"><a xlink:title=" ">
<polygon fill="#e0e0e0" stroke="#999999" points="977.25,-138 895.25,-138 895.25,-118 977.25,-118 977.25,-138"/>
<text xml:space="preserve" text-anchor="middle" x="936.25" y="-124.5" font-family="Helvetica,sans-Serif" font-size="10.00">soc/usb_pins.h</text>
</a>
</g>
</g>
<!-- Node1&#45;&gt;Node9 -->
<g id="edge9_Node000001_Node000009" class="edge">
<title>Node1&#45;&gt;Node9</title>
<g id="a_edge9_Node000001_Node000009"><a xlink:title=" ">
<path fill="none" stroke="#63b8ff" d="M364.57,-188.77C446.26,-187.66 689.02,-181.23 886.25,-144 889.9,-143.31 893.67,-142.46 897.41,-141.51"/>
<polygon fill="#63b8ff" stroke="#63b8ff" points="898.31,-144.9 907.02,-138.86 896.44,-138.15 898.31,-144.9"/>
</a>
</g>
</g>
<!-- Node10 -->
<g id="Node000010" class="node">
<title>Node10</title>
<g id="a_Node000010"><a xlink:href="tinyusb_8h.html" target="_top" xlink:title=" ">
<polygon fill="white" stroke="#666666" points="268.12,-138 212.38,-138 212.38,-118 268.12,-118 268.12,-138"/>
<text xml:space="preserve" text-anchor="middle" x="240.25" y="-124.5" font-family="Helvetica,sans-Serif" font-size="10.00">tinyusb.h</text>
</a>
</g>
</g>
<!-- Node1&#45;&gt;Node10 -->
<g id="edge10_Node000001_Node000010" class="edge">
<title>Node1&#45;&gt;Node10</title>
<g id="a_edge10_Node000001_Node000010"><a xlink:title=" ">
<path fill="none" stroke="#63b8ff" d="M321.25,-179.62C306.17,-170.2 282.68,-155.52 264.87,-144.39"/>
<polygon fill="#63b8ff" stroke="#63b8ff" points="266.76,-141.44 256.43,-139.11 263.05,-147.38 266.76,-141.44"/>
</a>
</g>
</g>
<!-- Node12 -->
<g id="Node000012" class="node">
<title>Node12</title>
<g id="a_Node000012"><a xlink:title=" ">
<polygon fill="#e0e0e0" stroke="#999999" points="434.75,-76 391.75,-76 391.75,-56 434.75,-56 434.75,-76"/>
<text xml:space="preserve" text-anchor="middle" x="413.25" y="-62.5" font-family="Helvetica,sans-Serif" font-size="10.00">tusb.h</text>
</a>
</g>
</g>
<!-- Node1&#45;&gt;Node12 -->
<g id="edge25_Node000001_Node000012" class="edge">
<title>Node1&#45;&gt;Node12</title>
<g id="a_edge25_Node000001_Node000012"><a xlink:title=" ">
<path fill="none" stroke="#63b8ff" d="M329.28,-179.74C318.73,-164.51 301.34,-133.7 315.25,-112 322.82,-100.19 355.1,-86.79 380.57,-77.71"/>
<polygon fill="#63b8ff" stroke="#63b8ff" points="381.6,-81.06 389.9,-74.47 379.3,-74.44 381.6,-81.06"/>
</a>
</g>
</g>
<!-- Node16 -->
<g id="Node000016" class="node">
<title>Node16</title>
<g id="a_Node000016"><a xlink:href="descriptors__control_8h.html" target="_top" xlink:title=" ">
<polygon fill="white" stroke="#666666" points="430.62,-138 323.88,-138 323.88,-118 430.62,-118 430.62,-138"/>
<text xml:space="preserve" text-anchor="middle" x="377.25" y="-124.5" font-family="Helvetica,sans-Serif" font-size="10.00">descriptors_control.h</text>
</a>
</g>
</g>
<!-- Node1&#45;&gt;Node16 -->
<g id="edge19_Node000001_Node000016" class="edge">
<title>Node1&#45;&gt;Node16</title>
<g id="a_edge19_Node000001_Node000016"><a xlink:title=" ">
<path fill="none" stroke="#63b8ff" d="M342.66,-179.62C348.53,-171.03 357.39,-158.07 364.67,-147.41"/>
<polygon fill="#63b8ff" stroke="#63b8ff" points="367.42,-149.59 370.17,-139.36 361.64,-145.64 367.42,-149.59"/>
</a>
</g>
</g>
<!-- Node17 -->
<g id="Node000017" class="node">
<title>Node17</title>
<g id="a_Node000017"><a xlink:href="usb__descriptors_8h.html" target="_top" xlink:title=" ">
<polygon fill="white" stroke="#666666" points="541.88,-138 448.62,-138 448.62,-118 541.88,-118 541.88,-138"/>
<text xml:space="preserve" text-anchor="middle" x="495.25" y="-124.5" font-family="Helvetica,sans-Serif" font-size="10.00">usb_descriptors.h</text>
</a>
</g>
</g>
<!-- Node1&#45;&gt;Node17 -->
<g id="edge22_Node000001_Node000017" class="edge">
<title>Node1&#45;&gt;Node17</title>
<g id="a_edge22_Node000001_Node000017"><a xlink:title=" ">
<path fill="none" stroke="#63b8ff" d="M361.09,-179.62C387.62,-169.62 429.88,-153.67 459.87,-142.35"/>
<polygon fill="#63b8ff" stroke="#63b8ff" points="460.78,-145.75 468.9,-138.94 458.31,-139.2 460.78,-145.75"/>
</a>
</g>
</g>
<!-- Node18 -->
<g id="Node000018" class="node">
<title>Node18</title>
<g id="a_Node000018"><a xlink:href="tusb__tasks_8h.html" target="_top" xlink:title=" ">
<polygon fill="white" stroke="#666666" points="94.38,-138 22.12,-138 22.12,-118 94.38,-118 94.38,-138"/>
<text xml:space="preserve" text-anchor="middle" x="58.25" y="-124.5" font-family="Helvetica,sans-Serif" font-size="10.00">tusb_tasks.h</text>
</a>
</g>
</g>
<!-- Node1&#45;&gt;Node18 -->
<g id="edge26_Node000001_Node000018" class="edge">
<title>Node1&#45;&gt;Node18</title>
<g id="a_edge26_Node000001_Node000018"><a xlink:title=" ">
<path fill="none" stroke="#63b8ff" d="M307.98,-184.33C264.69,-176.97 179.52,-161.68 108.25,-144 105.16,-143.23 101.97,-142.39 98.78,-141.52"/>
<polygon fill="#63b8ff" stroke="#63b8ff" points="100.03,-138.23 89.45,-138.85 98.11,-144.97 100.03,-138.23"/>
</a>
</g>
</g>
<!-- Node4 -->
<g id="Node000004" class="node">
<title>Node4</title>
<g id="a_Node000004"><a xlink:title=" ">
<polygon fill="#e0e0e0" stroke="#999999" points="91,-20 43.5,-20 43.5,0 91,0 91,-20"/>
<text xml:space="preserve" text-anchor="middle" x="67.25" y="-6.5" font-family="Helvetica,sans-Serif" font-size="10.00">stdlib.h</text>
</a>
</g>
</g>
<!-- Node3&#45;&gt;Node4 -->
<g id="edge3_Node000003_Node000004" class="edge">
<title>Node3&#45;&gt;Node4</title>
<g id="a_edge3_Node000003_Node000004"><a xlink:title=" ">
<path fill="none" stroke="#63b8ff" d="M96.98,-55.59C92.23,-48.47 85.55,-38.45 79.73,-29.72"/>
<polygon fill="#63b8ff" stroke="#63b8ff" points="82.75,-27.94 74.29,-21.56 76.92,-31.82 82.75,-27.94"/>
</a>
</g>
</g>
<!-- Node6&#45;&gt;Node4 -->
<g id="edge6_Node000006_Node000004" class="edge">
<title>Node6&#45;&gt;Node4</title>
<g id="a_edge6_Node000006_Node000004"><a xlink:title=" ">
<path fill="none" stroke="#63b8ff" d="M35.04,-55.59C40.24,-48.39 47.58,-38.23 53.94,-29.43"/>
<polygon fill="#63b8ff" stroke="#63b8ff" points="56.63,-31.68 59.65,-21.53 50.96,-27.58 56.63,-31.68"/>
</a>
</g>
</g>
<!-- Node10&#45;&gt;Node6 -->
<g id="edge12_Node000010_Node000006" class="edge">
<title>Node10&#45;&gt;Node6</title>
<g id="a_edge12_Node000010_Node000006"><a xlink:title=" ">
<path fill="none" stroke="#63b8ff" d="M212.1,-119.03C175.06,-108.55 109.76,-90.07 67.78,-78.19"/>
<polygon fill="#63b8ff" stroke="#63b8ff" points="68.89,-74.86 58.31,-75.51 66.98,-81.6 68.89,-74.86"/>
</a>
</g>
</g>
<!-- Node11 -->
<g id="Node000011" class="node">
<title>Node11</title>
<g id="a_Node000011"><a xlink:title=" ">
<polygon fill="#e0e0e0" stroke="#999999" points="374.12,-76 318.38,-76 318.38,-56 374.12,-56 374.12,-76"/>
<text xml:space="preserve" text-anchor="middle" x="346.25" y="-62.5" font-family="Helvetica,sans-Serif" font-size="10.00">stdbool.h</text>
</a>
</g>
</g>
<!-- Node10&#45;&gt;Node11 -->
<g id="edge11_Node000010_Node000011" class="edge">
<title>Node10&#45;&gt;Node11</title>
<g id="a_edge11_Node000010_Node000011"><a xlink:title=" ">
<path fill="none" stroke="#63b8ff" d="M256.81,-117.62C273.69,-108.07 300.13,-93.11 319.89,-81.92"/>
<polygon fill="#63b8ff" stroke="#63b8ff" points="321.51,-85.03 328.49,-77.05 318.06,-78.93 321.51,-85.03"/>
</a>
</g>
</g>
<!-- Node10&#45;&gt;Node12 -->
<g id="edge13_Node000010_Node000012" class="edge">
<title>Node10&#45;&gt;Node12</title>
<g id="a_edge13_Node000010_Node000012"><a xlink:title=" ">
<path fill="none" stroke="#63b8ff" d="M266.45,-117.59C271.68,-115.73 277.13,-113.79 282.25,-112 315.81,-100.24 354.31,-87.05 380.84,-78.01"/>
<polygon fill="#63b8ff" stroke="#63b8ff" points="381.66,-81.43 390,-74.89 379.41,-74.8 381.66,-81.43"/>
</a>
</g>
</g>
<!-- Node13 -->
<g id="Node000013" class="node">
<title>Node13</title>
<g id="a_Node000013"><a xlink:title=" ">
<polygon fill="#e0e0e0" stroke="#999999" points="316.5,-20 242,-20 242,0 316.5,0 316.5,-20"/>
<text xml:space="preserve" text-anchor="middle" x="279.25" y="-6.5" font-family="Helvetica,sans-Serif" font-size="10.00">tusb_option.h</text>
</a>
</g>
</g>
<!-- Node10&#45;&gt;Node13 -->
<g id="edge14_Node000010_Node000013" class="edge">
<title>Node10&#45;&gt;Node13</title>
<g id="a_edge14_Node000010_Node000013"><a xlink:title=" ">
<path fill="none" stroke="#63b8ff" d="M247.49,-117.83C254.79,-108.07 265.74,-91.86 271.25,-76 276.23,-61.66 278.19,-44.6 278.93,-31.56"/>
<polygon fill="#63b8ff" stroke="#63b8ff" points="282.42,-31.73 279.27,-21.61 275.43,-31.49 282.42,-31.73"/>
</a>
</g>
</g>
<!-- Node14 -->
<g id="Node000014" class="node">
<title>Node14</title>
<g id="a_Node000014"><a xlink:href="tusb__config_8h.html" target="_top" xlink:title=" ">
<polygon fill="white" stroke="#666666" points="262.5,-76 188,-76 188,-56 262.5,-56 262.5,-76"/>
<text xml:space="preserve" text-anchor="middle" x="225.25" y="-62.5" font-family="Helvetica,sans-Serif" font-size="10.00">tusb_config.h</text>
</a>
</g>
</g>
<!-- Node10&#45;&gt;Node14 -->
<g id="edge15_Node000010_Node000014" class="edge">
<title>Node10&#45;&gt;Node14</title>
<g id="a_edge15_Node000010_Node000014"><a xlink:title=" ">
<path fill="none" stroke="#63b8ff" d="M237.91,-117.62C235.87,-109.48 232.85,-97.39 230.27,-87.07"/>
<polygon fill="#63b8ff" stroke="#63b8ff" points="233.72,-86.43 227.9,-77.58 226.93,-88.13 233.72,-86.43"/>
</a>
</g>
</g>
<!-- Node15 -->
<g id="Node000015" class="node">
<title>Node15</title>
<g id="a_Node000015"><a xlink:href="tinyusb__types_8h.html" target="_top" xlink:title=" ">
<polygon fill="white" stroke="#666666" points="537.75,-76 452.75,-76 452.75,-56 537.75,-56 537.75,-76"/>
<text xml:space="preserve" text-anchor="middle" x="495.25" y="-62.5" font-family="Helvetica,sans-Serif" font-size="10.00">tinyusb_types.h</text>
</a>
</g>
</g>
<!-- Node10&#45;&gt;Node15 -->
<g id="edge18_Node000010_Node000015" class="edge">
<title>Node10&#45;&gt;Node15</title>
<g id="a_edge18_Node000010_Node000015"><a xlink:title=" ">
<path fill="none" stroke="#63b8ff" d="M268.51,-120.35C310.8,-110.4 391.19,-91.49 443.99,-79.06"/>
<polygon fill="#63b8ff" stroke="#63b8ff" points="444.74,-82.48 453.67,-76.78 443.14,-75.67 444.74,-82.48"/>
</a>
</g>
</g>
<!-- Node14&#45;&gt;Node2 -->
<g id="edge17_Node000014_Node000002" class="edge">
<title>Node14&#45;&gt;Node2</title>
<g id="a_edge17_Node000014_Node000002"><a xlink:title=" ">
<path fill="none" stroke="#63b8ff" d="M215.67,-55.59C208.02,-48.08 197.09,-37.35 187.87,-28.3"/>
<polygon fill="#63b8ff" stroke="#63b8ff" points="190.39,-25.87 180.8,-21.36 185.48,-30.86 190.39,-25.87"/>
</a>
</g>
</g>
<!-- Node14&#45;&gt;Node13 -->
<g id="edge16_Node000014_Node000013" class="edge">
<title>Node14&#45;&gt;Node13</title>
<g id="a_edge16_Node000014_Node000013"><a xlink:title=" ">
<path fill="none" stroke="#63b8ff" d="M234.66,-55.59C242.17,-48.08 252.9,-37.35 261.95,-28.3"/>
<polygon fill="#63b8ff" stroke="#63b8ff" points="264.29,-30.91 268.88,-21.37 259.34,-25.96 264.29,-30.91"/>
</a>
</g>
</g>
<!-- Node16&#45;&gt;Node12 -->
<g id="edge20_Node000016_Node000012" class="edge">
<title>Node16&#45;&gt;Node12</title>
<g id="a_edge20_Node000016_Node000012"><a xlink:title=" ">
<path fill="none" stroke="#63b8ff" d="M382.88,-117.62C387.98,-109.12 395.65,-96.33 402.01,-85.74"/>
<polygon fill="#63b8ff" stroke="#63b8ff" points="404.86,-87.79 407,-77.41 398.86,-84.18 404.86,-87.79"/>
</a>
</g>
</g>
<!-- Node16&#45;&gt;Node15 -->
<g id="edge21_Node000016_Node000015" class="edge">
<title>Node16&#45;&gt;Node15</title>
<g id="a_edge21_Node000016_Node000015"><a xlink:title=" ">
<path fill="none" stroke="#63b8ff" d="M395.69,-117.62C414.74,-107.94 444.72,-92.69 466.81,-81.46"/>
<polygon fill="#63b8ff" stroke="#63b8ff" points="468.27,-84.65 475.59,-77 465.09,-78.41 468.27,-84.65"/>
</a>
</g>
</g>
<!-- Node17&#45;&gt;Node12 -->
<g id="edge23_Node000017_Node000012" class="edge">
<title>Node17&#45;&gt;Node12</title>
<g id="a_edge23_Node000017_Node000012"><a xlink:title=" ">
<path fill="none" stroke="#63b8ff" d="M482.44,-117.62C469.8,-108.38 450.24,-94.07 435.14,-83.01"/>
<polygon fill="#63b8ff" stroke="#63b8ff" points="437.33,-80.28 427.19,-77.2 433.2,-85.93 437.33,-80.28"/>
</a>
</g>
</g>
<!-- Node17&#45;&gt;Node15 -->
<g id="edge24_Node000017_Node000015" class="edge">
<title>Node17&#45;&gt;Node15</title>
<g id="a_edge24_Node000017_Node000015"><a xlink:title=" ">
<path fill="none" stroke="#63b8ff" d="M495.25,-117.62C495.25,-109.56 495.25,-97.65 495.25,-87.41"/>
<polygon fill="#63b8ff" stroke="#63b8ff" points="498.75,-87.63 495.25,-77.63 491.75,-87.63 498.75,-87.63"/>
</a>
</g>
</g>
<!-- Node18&#45;&gt;Node6 -->
<g id="edge27_Node000018_Node000006" class="edge">
<title>Node18&#45;&gt;Node6</title>
<g id="a_edge27_Node000018_Node000006"><a xlink:title=" ">
<path fill="none" stroke="#63b8ff" d="M53.56,-117.62C49.4,-109.3 43.18,-96.86 37.95,-86.4"/>
<polygon fill="#63b8ff" stroke="#63b8ff" points="41.09,-84.85 33.48,-77.47 34.82,-87.98 41.09,-84.85"/>
</a>
</g>
</g>
</g>
</svg>
