<?xml version="1.0" encoding="UTF-8" standalone="no"?>
<!DOCTYPE svg PUBLIC "-//W3C//DTD SVG 1.1//EN"
 "http://www.w3.org/Graphics/SVG/1.1/DTD/svg11.dtd">
<!-- Generated by graphviz version 14.1.2 (20260124.0452)
 -->
<!-- Title: tusb_console.c Pages: 1 -->
<svg width="881pt" height="196pt"
 viewBox="0.00 0.00 881.00 196.00" xmlns="http://www.w3.org/2000/svg" xmlns:xlink="http://www.w3.org/1999/xlink">
<g id="graph0" class="graph" transform="scale(1 1) rotate(0) translate(4 192)">
<title>tusb_console.c</title>
<!-- Node1 -->
<g id="Node000001" class="node">
<title>Node1</title>
<g id="a_Node000001"><a xlink:title=" ">
<polygon fill="#999999" stroke="#666666" points="458.37,-188 376.37,-188 376.37,-168 458.37,-168 458.37,-188"/>
<text xml:space="preserve" text-anchor="middle" x="417.37" y="-174.5" font-family="Helvetica,sans-Serif" font-size="10.00">tusb_console.c</text>
</a>
</g>
</g>
<!-- Node2 -->
<g id="Node000002" class="node">
<title>Node2</title>
<g id="a_Node000002"><a xlink:title=" ">
<polygon fill="#e0e0e0" stroke="#999999" points="182,-132 136.75,-132 136.75,-112 182,-112 182,-132"/>
<text xml:space="preserve" text-anchor="middle" x="159.37" y="-118.5" font-family="Helvetica,sans-Serif" font-size="10.00">stdio.h</text>
</a>
</g>
</g>
<!-- Node1&#45;&gt;Node2 -->
<g id="edge1_Node000001_Node000002" class="edge">
<title>Node1&#45;&gt;Node2</title>
<g id="a_edge1_Node000001_Node000002"><a xlink:title=" ">
<path fill="none" stroke="#63b8ff" d="M375.93,-169.74C332.75,-161.97 262.92,-148.77 193.52,-132.36"/>
<polygon fill="#63b8ff" stroke="#63b8ff" points="194.4,-128.98 183.86,-130.06 192.78,-135.78 194.4,-128.98"/>
</a>
</g>
</g>
<!-- Node3 -->
<g id="Node000003" class="node">
<title>Node3</title>
<g id="a_Node000003"><a xlink:title=" ">
<polygon fill="#e0e0e0" stroke="#999999" points="264.37,-132 200.37,-132 200.37,-112 264.37,-112 264.37,-132"/>
<text xml:space="preserve" text-anchor="middle" x="232.37" y="-118.5" font-family="Helvetica,sans-Serif" font-size="10.00">stdio_ext.h</text>
</a>
</g>
</g>
<!-- Node1&#45;&gt;Node3 -->
<g id="edge2_Node000001_Node000003" class="edge">
<title>Node1&#45;&gt;Node3</title>
<g id="a_edge2_Node000001_Node000003"><a xlink:title=" ">
<path fill="none" stroke="#63b8ff" d="M385.15,-167.59C354.83,-158.74 309.2,-145.43 275.71,-135.65"/>
<polygon fill="#63b8ff" stroke="#63b8ff" points="276.88,-132.35 266.3,-132.9 274.92,-139.07 276.88,-132.35"/>
</a>
</g>
</g>
<!-- Node4 -->
<g id="Node000004" class="node">
<title>Node4</title>
<g id="a_Node000004"><a xlink:href="esp__log_8h.html" target="_top" xlink:title=" ">
<polygon fill="white" stroke="#666666" points="340.37,-132 282.37,-132 282.37,-112 340.37,-112 340.37,-132"/>
<text xml:space="preserve" text-anchor="middle" x="311.37" y="-118.5" font-family="Helvetica,sans-Serif" font-size="10.00">esp_log.h</text>
</a>
</g>
</g>
<!-- Node1&#45;&gt;Node4 -->
<g id="edge3_Node000001_Node000004" class="edge">
<title>Node1&#45;&gt;Node4</title>
<g id="a_edge3_Node000001_Node000004"><a xlink:title=" ">
<path fill="none" stroke="#63b8ff" d="M398.91,-167.59C382.67,-159.32 358.77,-147.14 340.04,-137.6"/>
<polygon fill="#63b8ff" stroke="#63b8ff" points="341.83,-134.59 331.33,-133.17 338.65,-140.82 341.83,-134.59"/>
</a>
</g>
</g>
<!-- Node6 -->
<g id="Node000006" class="node">
<title>Node6</title>
<g id="a_Node000006"><a xlink:href="cdc_8h.html" target="_top" xlink:title=" ">
<polygon fill="white" stroke="#666666" points="398.37,-132 358.37,-132 358.37,-112 398.37,-112 398.37,-132"/>
<text xml:space="preserve" text-anchor="middle" x="378.37" y="-118.5" font-family="Helvetica,sans-Serif" font-size="10.00">cdc.h</text>
</a>
</g>
</g>
<!-- Node1&#45;&gt;Node6 -->
<g id="edge5_Node000001_Node000006" class="edge">
<title>Node1&#45;&gt;Node6</title>
<g id="a_edge5_Node000001_Node000006"><a xlink:title=" ">
<path fill="none" stroke="#63b8ff" d="M410.58,-167.59C405.38,-160.39 398.04,-150.23 391.69,-141.43"/>
<polygon fill="#63b8ff" stroke="#63b8ff" points="394.67,-139.58 385.98,-133.53 388.99,-143.68 394.67,-139.58"/>
</a>
</g>
</g>
<!-- Node13 -->
<g id="Node000013" class="node">
<title>Node13</title>
<g id="a_Node000013"><a xlink:href="tusb__console_8h.html" target="_top" xlink:title=" ">
<polygon fill="white" stroke="#666666" points="498.37,-132 416.37,-132 416.37,-112 498.37,-112 498.37,-132"/>
<text xml:space="preserve" text-anchor="middle" x="457.37" y="-118.5" font-family="Helvetica,sans-Serif" font-size="10.00">tusb_console.h</text>
</a>
</g>
</g>
<!-- Node1&#45;&gt;Node13 -->
<g id="edge12_Node000001_Node000013" class="edge">
<title>Node1&#45;&gt;Node13</title>
<g id="a_edge12_Node000001_Node000013"><a xlink:title=" ">
<path fill="none" stroke="#63b8ff" d="M424.34,-167.59C429.68,-160.39 437.2,-150.23 443.72,-141.43"/>
<polygon fill="#63b8ff" stroke="#63b8ff" points="446.45,-143.63 449.59,-133.51 440.82,-139.47 446.45,-143.63"/>
</a>
</g>
</g>
<!-- Node15 -->
<g id="Node000015" class="node">
<title>Node15</title>
<g id="a_Node000015"><a xlink:href="tinyusb_8h.html" target="_top" xlink:title=" ">
<polygon fill="white" stroke="#666666" points="664.25,-132 608.5,-132 608.5,-112 664.25,-112 664.25,-132"/>
<text xml:space="preserve" text-anchor="middle" x="636.37" y="-118.5" font-family="Helvetica,sans-Serif" font-size="10.00">tinyusb.h</text>
</a>
</g>
</g>
<!-- Node1&#45;&gt;Node15 -->
<g id="edge15_Node000001_Node000015" class="edge">
<title>Node1&#45;&gt;Node15</title>
<g id="a_edge15_Node000001_Node000015"><a xlink:title=" ">
<path fill="none" stroke="#63b8ff" d="M455.77,-167.53C495.41,-157.76 556.94,-142.59 596.95,-132.72"/>
<polygon fill="#63b8ff" stroke="#63b8ff" points="597.79,-136.12 606.66,-130.33 596.11,-129.32 597.79,-136.12"/>
</a>
</g>
</g>
<!-- Node20 -->
<g id="Node000020" class="node">
<title>Node20</title>
<g id="a_Node000020"><a xlink:href="vfs__tinyusb_8h.html" target="_top" xlink:title=" ">
<polygon fill="white" stroke="#666666" points="590.62,-132 516.12,-132 516.12,-112 590.62,-112 590.62,-132"/>
<text xml:space="preserve" text-anchor="middle" x="553.37" y="-118.5" font-family="Helvetica,sans-Serif" font-size="10.00">vfs_tinyusb.h</text>
</a>
</g>
</g>
<!-- Node1&#45;&gt;Node20 -->
<g id="edge24_Node000001_Node000020" class="edge">
<title>Node1&#45;&gt;Node20</title>
<g id="a_edge24_Node000001_Node000020"><a xlink:title=" ">
<path fill="none" stroke="#63b8ff" d="M441.06,-167.59C462.58,-159.05 494.58,-146.35 518.92,-136.68"/>
<polygon fill="#63b8ff" stroke="#63b8ff" points="520.09,-139.98 528.09,-133.04 517.51,-133.48 520.09,-139.98"/>
</a>
</g>
</g>
<!-- Node21 -->
<g id="Node000021" class="node">
<title>Node21</title>
<g id="a_Node000021"><a xlink:title=" ">
<polygon fill="#e0e0e0" stroke="#999999" points="754.12,-132 682.62,-132 682.62,-112 754.12,-112 754.12,-132"/>
<text xml:space="preserve" text-anchor="middle" x="718.37" y="-118.5" font-family="Helvetica,sans-Serif" font-size="10.00">esp_check.h</text>
</a>
</g>
</g>
<!-- Node1&#45;&gt;Node21 -->
<g id="edge26_Node000001_Node000021" class="edge">
<title>Node1&#45;&gt;Node21</title>
<g id="a_edge26_Node000001_Node000021"><a xlink:title=" ">
<path fill="none" stroke="#63b8ff" d="M458.66,-170.05C507.13,-161.82 590.23,-147.5 671.58,-132.3"/>
<polygon fill="#63b8ff" stroke="#63b8ff" points="671.86,-135.81 681.04,-130.53 670.57,-128.93 671.86,-135.81"/>
</a>
</g>
</g>
<!-- Node5 -->
<g id="Node000005" class="node">
<title>Node5</title>
<g id="a_Node000005"><a xlink:title=" ">
<polygon fill="#e0e0e0" stroke="#999999" points="323.12,-20 275.62,-20 275.62,0 323.12,0 323.12,-20"/>
<text xml:space="preserve" text-anchor="middle" x="299.37" y="-6.5" font-family="Helvetica,sans-Serif" font-size="10.00">stdlib.h</text>
</a>
</g>
</g>
<!-- Node4&#45;&gt;Node5 -->
<g id="edge4_Node000004_Node000005" class="edge">
<title>Node4&#45;&gt;Node5</title>
<g id="a_edge4_Node000004_Node000005"><a xlink:title=" ">
<path fill="none" stroke="#63b8ff" d="M281.98,-113.73C279.08,-113.11 276.17,-112.52 273.37,-112 214.07,-101.04 44.09,-121.39 4.37,-76 -1.48,-69.31 -1.42,-62.74 4.37,-56 37.48,-17.46 193.05,-11.56 263.97,-10.91"/>
<polygon fill="#63b8ff" stroke="#63b8ff" points="263.9,-14.41 273.88,-10.85 263.86,-7.41 263.9,-14.41"/>
</a>
</g>
</g>
<!-- Node7 -->
<g id="Node000007" class="node">
<title>Node7</title>
<g id="a_Node000007"><a xlink:title=" ">
<polygon fill="#e0e0e0" stroke="#999999" points="402.5,-76 354.25,-76 354.25,-56 402.5,-56 402.5,-76"/>
<text xml:space="preserve" text-anchor="middle" x="378.37" y="-62.5" font-family="Helvetica,sans-Serif" font-size="10.00">stdint.h</text>
</a>
</g>
</g>
<!-- Node6&#45;&gt;Node7 -->
<g id="edge6_Node000006_Node000007" class="edge">
<title>Node6&#45;&gt;Node7</title>
<g id="a_edge6_Node000006_Node000007"><a xlink:title=" ">
<path fill="none" stroke="#63b8ff" d="M378.37,-111.59C378.37,-105.01 378.37,-95.96 378.37,-87.73"/>
<polygon fill="#63b8ff" stroke="#63b8ff" points="381.87,-87.81 378.37,-77.81 374.87,-87.81 381.87,-87.81"/>
</a>
</g>
</g>
<!-- Node8 -->
<g id="Node000008" class="node">
<title>Node8</title>
<g id="a_Node000008"><a xlink:title=" ">
<polygon fill="#e0e0e0" stroke="#999999" points="119.75,-76 13,-76 13,-56 119.75,-56 119.75,-76"/>
<text xml:space="preserve" text-anchor="middle" x="66.37" y="-62.5" font-family="Helvetica,sans-Serif" font-size="10.00">freertos/FreeRTOS.h</text>
</a>
</g>
</g>
<!-- Node6&#45;&gt;Node8 -->
<g id="edge7_Node000006_Node000008" class="edge">
<title>Node6&#45;&gt;Node8</title>
<g id="a_edge7_Node000006_Node000008"><a xlink:title=" ">
<path fill="none" stroke="#63b8ff" d="M357.88,-114.24C355.04,-113.42 352.15,-112.65 349.37,-112 328.54,-107.14 207.9,-88.49 131.01,-76.78"/>
<polygon fill="#63b8ff" stroke="#63b8ff" points="131.91,-73.37 121.49,-75.33 130.85,-80.29 131.91,-73.37"/>
</a>
</g>
</g>
<!-- Node9 -->
<g id="Node000009" class="node">
<title>Node9</title>
<g id="a_Node000009"><a xlink:title=" ">
<polygon fill="#e0e0e0" stroke="#999999" points="230.62,-76 138.12,-76 138.12,-56 230.62,-56 230.62,-76"/>
<text xml:space="preserve" text-anchor="middle" x="184.37" y="-62.5" font-family="Helvetica,sans-Serif" font-size="10.00">freertos/semphr.h</text>
</a>
</g>
</g>
<!-- Node6&#45;&gt;Node9 -->
<g id="edge8_Node000006_Node000009" class="edge">
<title>Node6&#45;&gt;Node9</title>
<g id="a_edge8_Node000006_Node000009"><a xlink:title=" ">
<path fill="none" stroke="#63b8ff" d="M358.12,-114.62C355.19,-113.72 352.21,-112.83 349.37,-112 309.68,-100.43 264.34,-88.13 231.25,-79.32"/>
<polygon fill="#63b8ff" stroke="#63b8ff" points="232.55,-76.05 221.99,-76.86 230.76,-82.81 232.55,-76.05"/>
</a>
</g>
</g>
<!-- Node10 -->
<g id="Node000010" class="node">
<title>Node10</title>
<g id="a_Node000010"><a xlink:title=" ">
<polygon fill="#e0e0e0" stroke="#999999" points="336,-76 248.75,-76 248.75,-56 336,-56 336,-76"/>
<text xml:space="preserve" text-anchor="middle" x="292.37" y="-62.5" font-family="Helvetica,sans-Serif" font-size="10.00">freertos/timers.h</text>
</a>
</g>
</g>
<!-- Node6&#45;&gt;Node10 -->
<g id="edge9_Node000006_Node000010" class="edge">
<title>Node6&#45;&gt;Node10</title>
<g id="a_edge9_Node000006_Node000010"><a xlink:title=" ">
<path fill="none" stroke="#63b8ff" d="M363.39,-111.59C350.65,-103.59 332.08,-91.93 317.13,-82.54"/>
<polygon fill="#63b8ff" stroke="#63b8ff" points="319.08,-79.64 308.75,-77.28 315.36,-85.57 319.08,-79.64"/>
</a>
</g>
</g>
<!-- Node11 -->
<g id="Node000011" class="node">
<title>Node11</title>
<g id="a_Node000011"><a xlink:title=" ">
<polygon fill="#e0e0e0" stroke="#999999" points="566.87,-76 523.87,-76 523.87,-56 566.87,-56 566.87,-76"/>
<text xml:space="preserve" text-anchor="middle" x="545.37" y="-62.5" font-family="Helvetica,sans-Serif" font-size="10.00">tusb.h</text>
</a>
</g>
</g>
<!-- Node6&#45;&gt;Node11 -->
<g id="edge10_Node000006_Node000011" class="edge">
<title>Node6&#45;&gt;Node11</title>
<g id="a_edge10_Node000006_Node000011"><a xlink:title=" ">
<path fill="none" stroke="#63b8ff" d="M398.85,-114.38C427.26,-105.19 478.93,-88.49 512.7,-77.57"/>
<polygon fill="#63b8ff" stroke="#63b8ff" points="513.52,-80.98 521.96,-74.57 511.37,-74.32 513.52,-80.98"/>
</a>
</g>
</g>
<!-- Node12 -->
<g id="Node000012" class="node">
<title>Node12</title>
<g id="a_Node000012"><a xlink:href="tinyusb__types_8h.html" target="_top" xlink:title=" ">
<polygon fill="white" stroke="#666666" points="505.87,-76 420.87,-76 420.87,-56 505.87,-56 505.87,-76"/>
<text xml:space="preserve" text-anchor="middle" x="463.37" y="-62.5" font-family="Helvetica,sans-Serif" font-size="10.00">tinyusb_types.h</text>
</a>
</g>
</g>
<!-- Node6&#45;&gt;Node12 -->
<g id="edge11_Node000006_Node000012" class="edge">
<title>Node6&#45;&gt;Node12</title>
<g id="a_edge11_Node000006_Node000012"><a xlink:title=" ">
<path fill="none" stroke="#63b8ff" d="M393.18,-111.59C405.78,-103.59 424.13,-91.93 438.91,-82.54"/>
<polygon fill="#63b8ff" stroke="#63b8ff" points="440.61,-85.61 447.18,-77.29 436.86,-79.7 440.61,-85.61"/>
</a>
</g>
</g>
<!-- Node14 -->
<g id="Node000014" class="node">
<title>Node14</title>
<g id="a_Node000014"><a xlink:href="esp__err_8h.html" target="_top" xlink:title=" ">
<polygon fill="white" stroke="#666666" points="641.62,-76 585.12,-76 585.12,-56 641.62,-56 641.62,-76"/>
<text xml:space="preserve" text-anchor="middle" x="613.37" y="-62.5" font-family="Helvetica,sans-Serif" font-size="10.00">esp_err.h</text>
</a>
</g>
</g>
<!-- Node13&#45;&gt;Node14 -->
<g id="edge13_Node000013_Node000014" class="edge">
<title>Node13&#45;&gt;Node14</title>
<g id="a_edge13_Node000013_Node000014"><a xlink:title=" ">
<path fill="none" stroke="#63b8ff" d="M484.55,-111.59C509.67,-102.9 547.25,-89.89 575.35,-80.16"/>
<polygon fill="#63b8ff" stroke="#63b8ff" points="576.25,-83.55 584.56,-76.97 573.96,-76.94 576.25,-83.55"/>
</a>
</g>
</g>
<!-- Node14&#45;&gt;Node5 -->
<g id="edge14_Node000014_Node000005" class="edge">
<title>Node14&#45;&gt;Node5</title>
<g id="a_edge14_Node000014_Node000005"><a xlink:title=" ">
<path fill="none" stroke="#63b8ff" d="M584.74,-57.8C581.92,-57.16 579.1,-56.55 576.37,-56 490.03,-38.51 387.46,-23.28 334.67,-15.84"/>
<polygon fill="#63b8ff" stroke="#63b8ff" points="335.46,-12.42 325.07,-14.5 334.49,-19.35 335.46,-12.42"/>
</a>
</g>
</g>
<!-- Node15&#45;&gt;Node11 -->
<g id="edge18_Node000015_Node000011" class="edge">
<title>Node15&#45;&gt;Node11</title>
<g id="a_edge18_Node000015_Node000011"><a xlink:title=" ">
<path fill="none" stroke="#63b8ff" d="M620.52,-111.59C606.91,-103.51 587.01,-91.71 571.11,-82.27"/>
<polygon fill="#63b8ff" stroke="#63b8ff" points="573.04,-79.35 562.65,-77.25 569.46,-85.37 573.04,-79.35"/>
</a>
</g>
</g>
<!-- Node15&#45;&gt;Node12 -->
<g id="edge23_Node000015_Node000012" class="edge">
<title>Node15&#45;&gt;Node12</title>
<g id="a_edge23_Node000015_Node000012"><a xlink:title=" ">
<path fill="none" stroke="#63b8ff" d="M608.19,-112.2C580.02,-103.41 536.38,-89.79 504.37,-79.8"/>
<polygon fill="#63b8ff" stroke="#63b8ff" points="505.61,-76.52 495.02,-76.88 503.53,-83.2 505.61,-76.52"/>
</a>
</g>
</g>
<!-- Node15&#45;&gt;Node14 -->
<g id="edge17_Node000015_Node000014" class="edge">
<title>Node15&#45;&gt;Node14</title>
<g id="a_edge17_Node000015_Node000014"><a xlink:title=" ">
<path fill="none" stroke="#63b8ff" d="M632.37,-111.59C629.47,-104.78 625.44,-95.32 621.83,-86.86"/>
<polygon fill="#63b8ff" stroke="#63b8ff" points="625.07,-85.52 617.93,-77.69 618.63,-88.26 625.07,-85.52"/>
</a>
</g>
</g>
<!-- Node16 -->
<g id="Node000016" class="node">
<title>Node16</title>
<g id="a_Node000016"><a xlink:title=" ">
<polygon fill="#e0e0e0" stroke="#999999" points="715.25,-76 659.5,-76 659.5,-56 715.25,-56 715.25,-76"/>
<text xml:space="preserve" text-anchor="middle" x="687.37" y="-62.5" font-family="Helvetica,sans-Serif" font-size="10.00">stdbool.h</text>
</a>
</g>
</g>
<!-- Node15&#45;&gt;Node16 -->
<g id="edge16_Node000015_Node000016" class="edge">
<title>Node15&#45;&gt;Node16</title>
<g id="a_edge16_Node000015_Node000016"><a xlink:title=" ">
<path fill="none" stroke="#63b8ff" d="M645.26,-111.59C652.28,-104.16 662.28,-93.58 670.77,-84.58"/>
<polygon fill="#63b8ff" stroke="#63b8ff" points="673.23,-87.07 677.55,-77.4 668.14,-82.27 673.23,-87.07"/>
</a>
</g>
</g>
<!-- Node17 -->
<g id="Node000017" class="node">
<title>Node17</title>
<g id="a_Node000017"><a xlink:title=" ">
<polygon fill="#e0e0e0" stroke="#999999" points="872.62,-20 798.12,-20 798.12,0 872.62,0 872.62,-20"/>
<text xml:space="preserve" text-anchor="middle" x="835.37" y="-6.5" font-family="Helvetica,sans-Serif" font-size="10.00">tusb_option.h</text>
</a>
</g>
</g>
<!-- Node15&#45;&gt;Node17 -->
<g id="edge19_Node000015_Node000017" class="edge">
<title>Node15&#45;&gt;Node17</title>
<g id="a_edge19_Node000015_Node000017"><a xlink:title=" ">
<path fill="none" stroke="#63b8ff" d="M664.63,-114.12C714.95,-101.85 814.99,-77.34 816.37,-76 828.31,-64.53 832.86,-46.02 834.54,-31.68"/>
<polygon fill="#63b8ff" stroke="#63b8ff" points="838.02,-32.18 835.28,-21.95 831.04,-31.65 838.02,-32.18"/>
</a>
</g>
</g>
<!-- Node18 -->
<g id="Node000018" class="node">
<title>Node18</title>
<g id="a_Node000018"><a xlink:href="tusb__config_8h.html" target="_top" xlink:title=" ">
<polygon fill="white" stroke="#666666" points="807.62,-76 733.12,-76 733.12,-56 807.62,-56 807.62,-76"/>
<text xml:space="preserve" text-anchor="middle" x="770.37" y="-62.5" font-family="Helvetica,sans-Serif" font-size="10.00">tusb_config.h</text>
</a>
</g>
</g>
<!-- Node15&#45;&gt;Node18 -->
<g id="edge20_Node000015_Node000018" class="edge">
<title>Node15&#45;&gt;Node18</title>
<g id="a_edge20_Node000015_Node000018"><a xlink:title=" ">
<path fill="none" stroke="#63b8ff" d="M659.72,-111.59C680.91,-103.05 712.44,-90.35 736.43,-80.68"/>
<polygon fill="#63b8ff" stroke="#63b8ff" points="737.48,-84.03 745.45,-77.05 734.86,-77.54 737.48,-84.03"/>
</a>
</g>
</g>
<!-- Node18&#45;&gt;Node17 -->
<g id="edge21_Node000018_Node000017" class="edge">
<title>Node18&#45;&gt;Node17</title>
<g id="a_edge21_Node000018_Node000017"><a xlink:title=" ">
<path fill="none" stroke="#63b8ff" d="M781.7,-55.59C791.02,-47.85 804.45,-36.69 815.55,-27.47"/>
<polygon fill="#63b8ff" stroke="#63b8ff" points="817.56,-30.35 823.02,-21.27 813.09,-24.96 817.56,-30.35"/>
</a>
</g>
</g>
<!-- Node19 -->
<g id="Node000019" class="node">
<title>Node19</title>
<g id="a_Node000019"><a xlink:title=" ">
<polygon fill="#e0e0e0" stroke="#999999" points="780.5,-20 714.25,-20 714.25,0 780.5,0 780.5,-20"/>
<text xml:space="preserve" text-anchor="middle" x="747.37" y="-6.5" font-family="Helvetica,sans-Serif" font-size="10.00">sdkconfig.h</text>
</a>
</g>
</g>
<!-- Node18&#45;&gt;Node19 -->
<g id="edge22_Node000018_Node000019" class="edge">
<title>Node18&#45;&gt;Node19</title>
<g id="a_edge22_Node000018_Node000019"><a xlink:title=" ">
<path fill="none" stroke="#63b8ff" d="M766.37,-55.59C763.47,-48.78 759.44,-39.32 755.83,-30.86"/>
<polygon fill="#63b8ff" stroke="#63b8ff" points="759.07,-29.52 751.93,-21.69 752.63,-32.26 759.07,-29.52"/>
</a>
</g>
</g>
<!-- Node20&#45;&gt;Node14 -->
<g id="edge25_Node000020_Node000014" class="edge">
<title>Node20&#45;&gt;Node14</title>
<g id="a_edge25_Node000020_Node000014"><a xlink:title=" ">
<path fill="none" stroke="#63b8ff" d="M563.83,-111.59C572.34,-103.93 584.59,-92.91 594.77,-83.75"/>
<polygon fill="#63b8ff" stroke="#63b8ff" points="596.83,-86.6 601.92,-77.31 592.14,-81.4 596.83,-86.6"/>
</a>
</g>
</g>
</g>
</svg>
