<?xml version="1.0" encoding="UTF-8" standalone="no"?>
<!DOCTYPE svg PUBLIC "-//W3C//DTD SVG 1.1//EN"
 "http://www.w3.org/Graphics/SVG/1.1/DTD/svg11.dtd">
<!-- Generated by graphviz version 14.1.2 (20260124.0452)
 -->
<!-- Title: tusb_tasks.h Pages: 1 -->
<svg width="154pt" height="84pt"
 viewBox="0.00 0.00 154.00 84.00" xmlns="http://www.w3.org/2000/svg" xmlns:xlink="http://www.w3.org/1999/xlink">
<g id="graph0" class="graph" transform="scale(1 1) rotate(0) translate(4 80)">
<title>tusb_tasks.h</title>
<!-- Node1 -->
<g id="Node000001" class="node">
<title>Node1</title>
<g id="a_Node000001"><a xlink:title=" ">
<polygon fill="#999999" stroke="#666666" points="105,-76 32.75,-76 32.75,-56 105,-56 105,-76"/>
<text xml:space="preserve" text-anchor="middle" x="68.88" y="-62.5" font-family="Helvetica,sans-Serif" font-size="10.00">tusb_tasks.h</text>
</a>
</g>
</g>
<!-- Node2 -->
<g id="Node000002" class="node">
<title>Node2</title>
<g id="a_Node000002"><a xlink:href="tinyusb_8c.html" target="_top" xlink:title=" ">
<polygon fill="white" stroke="#666666" points="55.75,-20 0,-20 0,0 55.75,0 55.75,-20"/>
<text xml:space="preserve" text-anchor="middle" x="27.88" y="-6.5" font-family="Helvetica,sans-Serif" font-size="10.00">tinyusb.c</text>
</a>
</g>
</g>
<!-- Node1&#45;&gt;Node2 -->
<g id="edge1_Node000001_Node000002" class="edge">
<title>Node1&#45;&gt;Node2</title>
<g id="a_edge1_Node000001_Node000002"><a xlink:title=" ">
<path fill="none" stroke="#63b8ff" d="M54.78,-46.44C48.09,-37.62 40.38,-27.47 34.93,-20.3"/>
<polygon fill="#63b8ff" stroke="#63b8ff" points="51.98,-48.54 60.82,-54.39 57.56,-44.31 51.98,-48.54"/>
</a>
</g>
</g>
<!-- Node3 -->
<g id="Node000003" class="node">
<title>Node3</title>
<g id="a_Node000003"><a xlink:href="tusb__tasks_8c.html" target="_top" xlink:title=" ">
<polygon fill="white" stroke="#666666" points="146,-20 73.75,-20 73.75,0 146,0 146,-20"/>
<text xml:space="preserve" text-anchor="middle" x="109.88" y="-6.5" font-family="Helvetica,sans-Serif" font-size="10.00">tusb_tasks.c</text>
</a>
</g>
</g>
<!-- Node1&#45;&gt;Node3 -->
<g id="edge2_Node000001_Node000003" class="edge">
<title>Node1&#45;&gt;Node3</title>
<g id="a_edge2_Node000001_Node000003"><a xlink:title=" ">
<path fill="none" stroke="#63b8ff" d="M82.97,-46.44C89.66,-37.62 97.37,-27.47 102.82,-20.3"/>
<polygon fill="#63b8ff" stroke="#63b8ff" points="80.19,-44.31 76.93,-54.39 85.77,-48.54 80.19,-44.31"/>
</a>
</g>
</g>
</g>
</svg>
