<?xml version="1.0" encoding="UTF-8" standalone="no"?>
<!DOCTYPE svg PUBLIC "-//W3C//DTD SVG 1.1//EN"
 "http://www.w3.org/Graphics/SVG/1.1/DTD/svg11.dtd">
<!-- Generated by graphviz version 14.1.2 (20260124.0452)
 -->
<!-- Title: tud_cdc_n_write_occupied Pages: 1 -->
<svg width="557pt" height="40pt"
 viewBox="0.00 0.00 557.00 40.00" xmlns="http://www.w3.org/2000/svg" xmlns:xlink="http://www.w3.org/1999/xlink">
<g id="graph0" class="graph" transform="scale(1 1) rotate(0) translate(4 36)">
<title>tud_cdc_n_write_occupied</title>
<!-- Node1 -->
<g id="Node000001" class="node">
<title>Node1</title>
<g id="a_Node000001"><a xlink:title=" ">
<polygon fill="#999999" stroke="#666666" points="549.25,-26 417.75,-26 417.75,-6 549.25,-6 549.25,-26"/>
<text xml:space="preserve" text-anchor="middle" x="483.5" y="-12.5" font-family="Helvetica,sans-Serif" font-size="10.00">tud_cdc_n_write_occupied</text>
</a>
</g>
</g>
<!-- Node2 -->
<g id="Node000002" class="node">
<title>Node2</title>
<g id="a_Node000002"><a xlink:href="tusb__cdc__acm_8c.html#ae56eee472acd5c32ac333dc551fd1a84" target="_top" xlink:title="Send all data from a write buffer. Use tinyusb_cdcacm_write_queue to add data to the buffer.">
<polygon fill="white" stroke="#666666" points="381.75,-32 268.25,-32 268.25,0 381.75,0 381.75,-32"/>
<text xml:space="preserve" text-anchor="start" x="276.25" y="-18.5" font-family="Helvetica,sans-Serif" font-size="10.00">tinyusb_cdcacm_write</text>
<text xml:space="preserve" text-anchor="middle" x="325" y="-6.5" font-family="Helvetica,sans-Serif" font-size="10.00">_flush</text>
</a>
</g>
</g>
<!-- Node1&#45;&gt;Node2 -->
<g id="edge1_Node000001_Node000002" class="edge">
<title>Node1&#45;&gt;Node2</title>
<g id="a_edge1_Node000001_Node000002"><a xlink:title=" ">
<path fill="none" stroke="#63b8ff" d="M406.1,-16C398.01,-16 389.89,-16 382.09,-16"/>
<polygon fill="#63b8ff" stroke="#63b8ff" points="405.98,-19.5 415.98,-16 405.98,-12.5 405.98,-19.5"/>
</a>
</g>
</g>
<!-- Node3 -->
<g id="Node000003" class="node">
<title>Node3</title>
<g id="a_Node000003"><a xlink:href="main_2main_8c.html#adcd8f7518fef8e05fa85c0afaa299c3a" target="_top" xlink:title=" ">
<polygon fill="white" stroke="#666666" points="232.25,-26 105.25,-26 105.25,-6 232.25,-6 232.25,-26"/>
<text xml:space="preserve" text-anchor="middle" x="168.75" y="-12.5" font-family="Helvetica,sans-Serif" font-size="10.00">safe_cdcacm_write_flush</text>
</a>
</g>
</g>
<!-- Node2&#45;&gt;Node3 -->
<g id="edge2_Node000002_Node000003" class="edge">
<title>Node2&#45;&gt;Node3</title>
<g id="a_edge2_Node000002_Node000003"><a xlink:title=" ">
<path fill="none" stroke="#63b8ff" d="M256.42,-16C248.51,-16 240.46,-16 232.62,-16"/>
<polygon fill="#63b8ff" stroke="#63b8ff" points="256.36,-19.5 266.36,-16 256.36,-12.5 256.36,-19.5"/>
</a>
</g>
</g>
<!-- Node4 -->
<g id="Node000004" class="node">
<title>Node4</title>
<g id="a_Node000004"><a xlink:href="main_2main_8c.html#ad159bf0147cc4f5288bae8edf3a846e5" target="_top" xlink:title=" ">
<polygon fill="#fff0f0" stroke="red" points="69.25,-26 0,-26 0,-6 69.25,-6 69.25,-26"/>
<text xml:space="preserve" text-anchor="middle" x="34.62" y="-12.5" font-family="Helvetica,sans-Serif" font-size="10.00">cdc_tx_task</text>
</a>
</g>
</g>
<!-- Node3&#45;&gt;Node4 -->
<g id="edge3_Node000003_Node000004" class="edge">
<title>Node3&#45;&gt;Node4</title>
<g id="a_edge3_Node000003_Node000004"><a xlink:title=" ">
<path fill="none" stroke="#63b8ff" d="M93.45,-16C85.18,-16 77.09,-16 69.7,-16"/>
<polygon fill="#63b8ff" stroke="#63b8ff" points="93.27,-19.5 103.27,-16 93.27,-12.5 93.27,-19.5"/>
</a>
</g>
</g>
</g>
</svg>
