<?xml version="1.0" encoding="UTF-8" standalone="no"?>
<!DOCTYPE svg PUBLIC "-//W3C//DTD SVG 1.1//EN"
 "http://www.w3.org/Graphics/SVG/1.1/DTD/svg11.dtd">
<!-- Generated by graphviz version 14.1.2 (20260124.0452)
 -->
<!-- Title: esp_tusb_deinit_console Pages: 1 -->
<svg width="424pt" height="66pt"
 viewBox="0.00 0.00 424.00 66.00" xmlns="http://www.w3.org/2000/svg" xmlns:xlink="http://www.w3.org/1999/xlink">
<g id="graph0" class="graph" transform="scale(1 1) rotate(0) translate(4 62)">
<title>esp_tusb_deinit_console</title>
<!-- Node1 -->
<g id="Node000001" class="node">
<title>Node1</title>
<g id="a_Node000001"><a xlink:title="Switch log to the default output.">
<polygon fill="#999999" stroke="#666666" points="123.25,-39 0,-39 0,-19 123.25,-19 123.25,-39"/>
<text xml:space="preserve" text-anchor="middle" x="61.62" y="-25.5" font-family="Helvetica,sans-Serif" font-size="10.00">esp_tusb_deinit_console</text>
</a>
</g>
</g>
<!-- Node2 -->
<g id="Node000002" class="node">
<title>Node2</title>
<g id="a_Node000002"><a xlink:href="vfs__tinyusb_8c.html#a28ded6da11b7ec9c6707957cdbbe3ccb" target="_top" xlink:title="Unregister TinyUSB CDC from VFS.">
<polygon fill="white" stroke="#666666" points="302.75,-58 159.25,-58 159.25,-38 302.75,-38 302.75,-58"/>
<text xml:space="preserve" text-anchor="middle" x="231" y="-44.5" font-family="Helvetica,sans-Serif" font-size="10.00">esp_vfs_tusb_cdc_unregister</text>
</a>
</g>
</g>
<!-- Node1&#45;&gt;Node2 -->
<g id="edge1_Node000001_Node000002" class="edge">
<title>Node1&#45;&gt;Node2</title>
<g id="a_edge1_Node000001_Node000002"><a xlink:title=" ">
<path fill="none" stroke="#63b8ff" d="M123.52,-35.91C131.34,-36.8 139.44,-37.72 147.53,-38.64"/>
<polygon fill="#63b8ff" stroke="#63b8ff" points="147.08,-42.11 157.41,-39.76 147.87,-35.15 147.08,-42.11"/>
</a>
</g>
</g>
<!-- Node4 -->
<g id="Node000004" class="node">
<title>Node4</title>
<g id="a_Node000004"><a xlink:href="tusb__console_8c.html#a7661cf1bcb33011636fcc0055165a133" target="_top" xlink:title="Restore output to default.">
<polygon fill="white" stroke="#666666" points="283.62,-20 178.38,-20 178.38,0 283.62,0 283.62,-20"/>
<text xml:space="preserve" text-anchor="middle" x="231" y="-6.5" font-family="Helvetica,sans-Serif" font-size="10.00">restore_std_streams</text>
</a>
</g>
</g>
<!-- Node1&#45;&gt;Node4 -->
<g id="edge3_Node000001_Node000004" class="edge">
<title>Node1&#45;&gt;Node4</title>
<g id="a_edge3_Node000001_Node000004"><a xlink:title=" ">
<path fill="none" stroke="#63b8ff" d="M123.52,-22.09C137.61,-20.49 152.63,-18.78 166.81,-17.17"/>
<polygon fill="#63b8ff" stroke="#63b8ff" points="166.93,-20.68 176.47,-16.08 166.14,-13.73 166.93,-20.68"/>
</a>
</g>
</g>
<!-- Node3 -->
<g id="Node000003" class="node">
<title>Node3</title>
<g id="a_Node000003"><a xlink:href="vfs__tinyusb_8c.html#a8e83463049730a616e99aa6477888fff" target="_top" xlink:title="Clear s_vfstusb to default values.">
<polygon fill="white" stroke="#666666" points="415.5,-58 338.75,-58 338.75,-38 415.5,-38 415.5,-58"/>
<text xml:space="preserve" text-anchor="middle" x="377.12" y="-44.5" font-family="Helvetica,sans-Serif" font-size="10.00">vfstusb_deinit</text>
</a>
</g>
</g>
<!-- Node2&#45;&gt;Node3 -->
<g id="edge2_Node000002_Node000003" class="edge">
<title>Node2&#45;&gt;Node3</title>
<g id="a_edge2_Node000002_Node000003"><a xlink:title=" ">
<path fill="none" stroke="#63b8ff" d="M303.22,-48C311.32,-48 319.43,-48 327.15,-48"/>
<polygon fill="#63b8ff" stroke="#63b8ff" points="327,-51.5 337,-48 327,-44.5 327,-51.5"/>
</a>
</g>
</g>
</g>
</svg>
