<?xml version="1.0" encoding="UTF-8" standalone="no"?>
<!DOCTYPE svg PUBLIC "-//W3C//DTD SVG 1.1//EN"
 "http://www.w3.org/Graphics/SVG/1.1/DTD/svg11.dtd">
<!-- Generated by graphviz version 14.1.2 (20260124.0452)
 -->
<!-- Title: tinyusb_cdcacm_write_queue Pages: 1 -->
<svg width="321pt" height="40pt"
 viewBox="0.00 0.00 321.00 40.00" xmlns="http://www.w3.org/2000/svg" xmlns:xlink="http://www.w3.org/1999/xlink">
<g id="graph0" class="graph" transform="scale(1 1) rotate(0) translate(4 36)">
<title>tinyusb_cdcacm_write_queue</title>
<!-- Node1 -->
<g id="Node000001" class="node">
<title>Node1</title>
<g id="a_Node000001"><a xlink:title="Write data to write buffer from a byte array.">
<polygon fill="#999999" stroke="#666666" points="312.75,-32 199.25,-32 199.25,0 312.75,0 312.75,-32"/>
<text xml:space="preserve" text-anchor="start" x="207.25" y="-18.5" font-family="Helvetica,sans-Serif" font-size="10.00">tinyusb_cdcacm_write</text>
<text xml:space="preserve" text-anchor="middle" x="256" y="-6.5" font-family="Helvetica,sans-Serif" font-size="10.00">_queue</text>
</a>
</g>
</g>
<!-- Node2 -->
<g id="Node000002" class="node">
<title>Node2</title>
<g id="a_Node000002"><a xlink:href="main_2main_8c.html#ad159bf0147cc4f5288bae8edf3a846e5" target="_top" xlink:title=" ">
<polygon fill="white" stroke="#666666" points="163.25,-26 94,-26 94,-6 163.25,-6 163.25,-26"/>
<text xml:space="preserve" text-anchor="middle" x="128.62" y="-12.5" font-family="Helvetica,sans-Serif" font-size="10.00">cdc_tx_task</text>
</a>
</g>
</g>
<!-- Node1&#45;&gt;Node2 -->
<g id="edge1_Node000001_Node000002" class="edge">
<title>Node1&#45;&gt;Node2</title>
<g id="a_edge1_Node000001_Node000002"><a xlink:title=" ">
<path fill="none" stroke="#63b8ff" d="M187.63,-16C179.36,-16 171.2,-16 163.73,-16"/>
<polygon fill="#63b8ff" stroke="#63b8ff" points="187.4,-19.5 197.4,-16 187.4,-12.5 187.4,-19.5"/>
</a>
</g>
</g>
<!-- Node3 -->
<g id="Node000003" class="node">
<title>Node3</title>
<g id="a_Node000003"><a xlink:href="main_2main_8c.html#a630544a7f0a2cc40d8a7fefab7e2fe70" target="_top" xlink:title=" ">
<polygon fill="white" stroke="#666666" points="58,-26 0,-26 0,-6 58,-6 58,-26"/>
<text xml:space="preserve" text-anchor="middle" x="29" y="-12.5" font-family="Helvetica,sans-Serif" font-size="10.00">app_main</text>
</a>
</g>
</g>
<!-- Node2&#45;&gt;Node3 -->
<g id="edge2_Node000002_Node000003" class="edge">
<title>Node2&#45;&gt;Node3</title>
<g id="a_edge2_Node000002_Node000003"><a xlink:title=" ">
<path fill="none" stroke="#63b8ff" d="M82.36,-16C74.16,-16 65.84,-16 58.31,-16"/>
<polygon fill="#63b8ff" stroke="#63b8ff" points="82.24,-19.5 92.24,-16 82.24,-12.5 82.24,-19.5"/>
</a>
</g>
</g>
</g>
</svg>
