<?xml version="1.0" encoding="UTF-8" standalone="no"?>
<!DOCTYPE svg PUBLIC "-//W3C//DTD SVG 1.1//EN"
 "http://www.w3.org/Graphics/SVG/1.1/DTD/svg11.dtd">
<!-- Generated by graphviz version 14.1.2 (20260124.0452)
 -->
<!-- Title: esp_tusb_init_console Pages: 1 -->
<!--zoomable 274 -->

<svg id="main" version="1.1" xmlns="http://www.w3.org/2000/svg" xmlns:xlink="http://www.w3.org/1999/xlink" xml:space="preserve" onload="init(evt)">

<style type="text/css"><![CDATA[
.node, .edge {opacity: 0.7;}
.node.selected, .edge.selected {opacity: 1;}
.edge:hover path { stroke: red; }
.edge:hover polygon { stroke: red; fill: red; }
]]></style>

<defs>
  <circle id="rim" cx="0" cy="0" r="7"/>
  <circle id="rim2" cx="0" cy="0" r="3.5"/>
  <g id="zoomPlus">
    <use xlink:href="#rim" fill="#404040"><set attributeName="fill" to="#808080" begin="zoomplus.mouseover" end="zoomplus.mouseout"/></use>
    <path d="M-4,0h8M0,-4v8" fill="none" stroke="white" stroke-width="1.5" pointer-events="none"/>
  </g>
  <g id="zoomMin">
    <use xlink:href="#rim" fill="#404040"><set attributeName="fill" to="#808080" begin="zoomminus.mouseover" end="zoomminus.mouseout"/></use>
    <path d="M-4,0h8" fill="none" stroke="white" stroke-width="1.5" pointer-events="none"/>
  </g>
  <g id="arrowUp" transform="translate(30 24)">
    <use xlink:href="#rim"/>
    <path pointer-events="none" fill="none" stroke="white" stroke-width="1.5" d="M0,-3.0v7 M-2.5,-0.5L0,-3.0L2.5,-0.5"/>
  </g>
  <g id="arrowRight" transform="rotate(90) translate(36 -43)">
    <use xlink:href="#rim"/>
    <path pointer-events="none" fill="none" stroke="white" stroke-width="1.5" d="M0,-3.0v7 M-2.5,-0.5L0,-3.0L2.5,-0.5"/>
  </g>
  <g id="arrowDown" transform="rotate(180) translate(-30 -48)">
    <use xlink:href="#rim"/>
    <path pointer-events="none" fill="none" stroke="white" stroke-width="1.5" d="M0,-3.0v7 M-2.5,-0.5L0,-3.0L2.5,-0.5"/>
  </g>
  <g id="arrowLeft" transform="rotate(270) translate(-36 17)">
    <use xlink:href="#rim"/>
    <path pointer-events="none" fill="none" stroke="white" stroke-width="1.5" d="M0,-3.0v7 M-2.5,-0.5L0,-3.0L2.5,-0.5"/>
  </g>
  <g id="resetDef">
    <use xlink:href="#rim2" fill="#404040"><set attributeName="fill" to="#808080" begin="reset.mouseover" end="reset.mouseout"/></use>
  </g>
</defs>
<script type="application/ecmascript">
var viewWidth = 643;
var viewHeight = 274;
var sectionId = 'dynsection-3';
</script>
<script type="application/ecmascript" xlink:href="svg.min.js"/>
<svg id="graph" class="graph">
<g id="viewport">
<title>esp_tusb_init_console</title>
<!-- Node1 -->
<g id="Node000001" class="node">
<title>Node1</title>
<g id="a_Node000001"><a xlink:title="Redirect output to the USB serial.">
<polygon fill="#999999" stroke="#666666" points="112.75,-134 0,-134 0,-114 112.75,-114 112.75,-134"/>
<text xml:space="preserve" text-anchor="middle" x="56.38" y="-120.5" font-family="Helvetica,sans-Serif" font-size="10.00">esp_tusb_init_console</text>
</a>
</g>
</g>
<!-- Node2 -->
<g id="Node000002" class="node">
<title>Node2</title>
<g id="a_Node000002"><a xlink:href="vfs__tinyusb_8c.html#ae56dd480e9fe67841a7da40fe1a0322f" target="_top" xlink:title="Register TinyUSB CDC at VFS with path.">
<polygon fill="white" stroke="#666666" points="281.75,-153 148.75,-153 148.75,-133 281.75,-133 281.75,-153"/>
<text xml:space="preserve" text-anchor="middle" x="215.25" y="-139.5" font-family="Helvetica,sans-Serif" font-size="10.00">esp_vfs_tusb_cdc_register</text>
</a>
</g>
</g>
<!-- Node1&#45;&gt;Node2 -->
<g id="edge1_Node000001_Node000002" class="edge">
<title>Node1&#45;&gt;Node2</title>
<g id="a_edge1_Node000001_Node000002"><a xlink:title=" ">
<path fill="none" stroke="#63b8ff" d="M113.12,-130.75C120.91,-131.69 129.01,-132.68 137.1,-133.66"/>
<polygon fill="#63b8ff" stroke="#63b8ff" points="136.64,-137.13 146.99,-134.85 137.48,-130.18 136.64,-137.13"/>
</a>
</g>
</g>
<!-- Node15 -->
<g id="Node000015" class="node">
<title>Node15</title>
<g id="a_Node000015"><a xlink:href="tusb__console_8c.html#adee61f8b94c7fe4cb64778123a5891c9" target="_top" xlink:title="Reopen standard streams using a new path.">
<polygon fill="white" stroke="#666666" points="275.75,-115 154.75,-115 154.75,-95 275.75,-95 275.75,-115"/>
<text xml:space="preserve" text-anchor="middle" x="215.25" y="-101.5" font-family="Helvetica,sans-Serif" font-size="10.00">redirect_std_streams_to</text>
</a>
</g>
</g>
<!-- Node1&#45;&gt;Node15 -->
<g id="edge14_Node000001_Node000015" class="edge">
<title>Node1&#45;&gt;Node15</title>
<g id="a_edge14_Node000001_Node000015"><a xlink:title=" ">
<path fill="none" stroke="#63b8ff" d="M113.12,-117.25C122.85,-116.07 133.09,-114.83 143.16,-113.61"/>
<polygon fill="#63b8ff" stroke="#63b8ff" points="143.42,-117.1 152.92,-112.43 142.57,-110.16 143.42,-117.1"/>
</a>
</g>
</g>
<!-- Node3 -->
<g id="Node000003" class="node">
<title>Node3</title>
<g id="a_Node000003"><a xlink:href="tusb__cdc__acm_8c.html#a659f81b1f0fd5b43eedd4b8bca19e427" target="_top" xlink:title="Check if the ACM initialized.">
<polygon fill="white" stroke="#666666" points="545.5,-241 420,-241 420,-221 545.5,-221 545.5,-241"/>
<text xml:space="preserve" text-anchor="middle" x="482.75" y="-227.5" font-family="Helvetica,sans-Serif" font-size="10.00">tusb_cdc_acm_initialized</text>
</a>
</g>
</g>
<!-- Node2&#45;&gt;Node3 -->
<g id="edge2_Node000002_Node000003" class="edge">
<title>Node2&#45;&gt;Node3</title>
<g id="a_edge2_Node000002_Node000003"><a xlink:title=" ">
<path fill="none" stroke="#63b8ff" d="M221.37,-153.15C233.95,-176.78 268.91,-235.09 317.75,-257 361.18,-276.48 416.82,-260.01 450.85,-245.87"/>
<polygon fill="#63b8ff" stroke="#63b8ff" points="451.93,-249.21 459.7,-242.01 449.14,-242.79 451.93,-249.21"/>
</a>
</g>
</g>
<!-- Node6 -->
<g id="Node000006" class="node">
<title>Node6</title>
<g id="a_Node000006"><a xlink:href="vfs__tinyusb_8c.html#a058be25b22153a43e2f3031bfa3f659d" target="_top" xlink:title=" ">
<polygon fill="white" stroke="#666666" points="382.5,-248 319.25,-248 319.25,-228 382.5,-228 382.5,-248"/>
<text xml:space="preserve" text-anchor="middle" x="350.88" y="-234.5" font-family="Helvetica,sans-Serif" font-size="10.00">tusb_close</text>
</a>
</g>
</g>
<!-- Node2&#45;&gt;Node6 -->
<g id="edge4_Node000002_Node000006" class="edge">
<title>Node2&#45;&gt;Node6</title>
<g id="a_edge4_Node000002_Node000006"><a xlink:title=" ">
<path fill="none" stroke="#63b8ff" d="M229.06,-153.3C248,-168.37 284.79,-197.01 317.75,-219 319.13,-219.92 320.56,-220.85 322.01,-221.77"/>
<polygon fill="#63b8ff" stroke="#63b8ff" points="320.01,-224.65 330.36,-226.9 323.67,-218.68 320.01,-224.65"/>
</a>
</g>
</g>
<!-- Node7 -->
<g id="Node000007" class="node">
<title>Node7</title>
<g id="a_Node000007"><a xlink:href="vfs__tinyusb_8c.html#a9dbd17d5f3dfbb17a9aca0b1640b9a76" target="_top" xlink:title=" ">
<polygon fill="white" stroke="#666666" points="380.25,-210 321.5,-210 321.5,-190 380.25,-190 380.25,-210"/>
<text xml:space="preserve" text-anchor="middle" x="350.88" y="-196.5" font-family="Helvetica,sans-Serif" font-size="10.00">tusb_fcntl</text>
</a>
</g>
</g>
<!-- Node2&#45;&gt;Node7 -->
<g id="edge5_Node000002_Node000007" class="edge">
<title>Node2&#45;&gt;Node7</title>
<g id="a_edge5_Node000002_Node000007"><a xlink:title=" ">
<path fill="none" stroke="#63b8ff" d="M240.76,-153.45C261.57,-162.33 291.69,-175.18 315.02,-185.13"/>
<polygon fill="#63b8ff" stroke="#63b8ff" points="313.56,-188.31 324.13,-189.02 316.3,-181.87 313.56,-188.31"/>
</a>
</g>
</g>
<!-- Node8 -->
<g id="Node000008" class="node">
<title>Node8</title>
<g id="a_Node000008"><a xlink:href="vfs__tinyusb_8c.html#ab1230dea75559df8de97fd2adb1566d7" target="_top" xlink:title=" ">
<polygon fill="white" stroke="#666666" points="380.62,-172 321.12,-172 321.12,-152 380.62,-152 380.62,-172"/>
<text xml:space="preserve" text-anchor="middle" x="350.88" y="-158.5" font-family="Helvetica,sans-Serif" font-size="10.00">tusb_fstat</text>
</a>
</g>
</g>
<!-- Node2&#45;&gt;Node8 -->
<g id="edge6_Node000002_Node000008" class="edge">
<title>Node2&#45;&gt;Node8</title>
<g id="a_edge6_Node000002_Node000008"><a xlink:title=" ">
<path fill="none" stroke="#63b8ff" d="M281.89,-152.33C291.43,-153.69 301.01,-155.05 309.84,-156.31"/>
<polygon fill="#63b8ff" stroke="#63b8ff" points="309.06,-159.73 319.45,-157.67 310.05,-152.8 309.06,-159.73"/>
</a>
</g>
</g>
<!-- Node9 -->
<g id="Node000009" class="node">
<title>Node9</title>
<g id="a_Node000009"><a xlink:href="vfs__tinyusb_8c.html#a74d8afba4fd90f354f511e61abbef1fb" target="_top" xlink:title=" ">
<polygon fill="white" stroke="#666666" points="381.38,-134 320.38,-134 320.38,-114 381.38,-114 381.38,-134"/>
<text xml:space="preserve" text-anchor="middle" x="350.88" y="-120.5" font-family="Helvetica,sans-Serif" font-size="10.00">tusb_open</text>
</a>
</g>
</g>
<!-- Node2&#45;&gt;Node9 -->
<g id="edge7_Node000002_Node000009" class="edge">
<title>Node2&#45;&gt;Node9</title>
<g id="a_edge7_Node000002_Node000009"><a xlink:title=" ">
<path fill="none" stroke="#63b8ff" d="M281.89,-133.67C291.05,-132.36 300.25,-131.06 308.78,-129.84"/>
<polygon fill="#63b8ff" stroke="#63b8ff" points="309.04,-133.34 318.45,-128.47 308.06,-126.41 309.04,-133.34"/>
</a>
</g>
</g>
<!-- Node10 -->
<g id="Node000010" class="node">
<title>Node10</title>
<g id="a_Node000010"><a xlink:href="vfs__tinyusb_8c.html#ac9106f2a10268e1f1db1e897e502ea8a" target="_top" xlink:title=" ">
<polygon fill="white" stroke="#666666" points="380.25,-96 321.5,-96 321.5,-76 380.25,-76 380.25,-96"/>
<text xml:space="preserve" text-anchor="middle" x="350.88" y="-82.5" font-family="Helvetica,sans-Serif" font-size="10.00">tusb_read</text>
</a>
</g>
</g>
<!-- Node2&#45;&gt;Node10 -->
<g id="edge8_Node000002_Node000010" class="edge">
<title>Node2&#45;&gt;Node10</title>
<g id="a_edge8_Node000002_Node000010"><a xlink:title=" ">
<path fill="none" stroke="#63b8ff" d="M257.62,-132.54C265.74,-130.06 274.1,-127.19 281.75,-124 289.9,-120.6 307.43,-110.8 322.66,-102"/>
<polygon fill="#63b8ff" stroke="#63b8ff" points="324.03,-105.26 330.92,-97.21 320.51,-99.21 324.03,-105.26"/>
</a>
</g>
</g>
<!-- Node11 -->
<g id="Node000011" class="node">
<title>Node11</title>
<g id="a_Node000011"><a xlink:href="vfs__tinyusb_8c.html#acd79cfbaa8662bf059523d76611a7eb7" target="_top" xlink:title=" ">
<polygon fill="white" stroke="#666666" points="381.38,-58 320.38,-58 320.38,-38 381.38,-38 381.38,-58"/>
<text xml:space="preserve" text-anchor="middle" x="350.88" y="-44.5" font-family="Helvetica,sans-Serif" font-size="10.00">tusb_write</text>
</a>
</g>
</g>
<!-- Node2&#45;&gt;Node11 -->
<g id="edge9_Node000002_Node000011" class="edge">
<title>Node2&#45;&gt;Node11</title>
<g id="a_edge9_Node000002_Node000011"><a xlink:title=" ">
<path fill="none" stroke="#63b8ff" d="M266.71,-132.52C272.07,-130.22 277.21,-127.42 281.75,-124 305.7,-105.99 296.26,-87.88 317.75,-67 318.48,-66.29 319.25,-65.59 320.03,-64.91"/>
<polygon fill="#63b8ff" stroke="#63b8ff" points="321.88,-67.9 327.91,-59.19 317.76,-62.24 321.88,-67.9"/>
</a>
</g>
</g>
<!-- Node13 -->
<g id="Node000013" class="node">
<title>Node13</title>
<g id="a_Node000013"><a xlink:href="vfs__tinyusb_8c.html#a8ab13f91f4811cbbc094ef53aa043e57" target="_top" xlink:title="Fill s_vfstusb.">
<polygon fill="white" stroke="#666666" points="384,-20 317.75,-20 317.75,0 384,0 384,-20"/>
<text xml:space="preserve" text-anchor="middle" x="350.88" y="-6.5" font-family="Helvetica,sans-Serif" font-size="10.00">vfstusb_init</text>
</a>
</g>
</g>
<!-- Node2&#45;&gt;Node13 -->
<g id="edge12_Node000002_Node000013" class="edge">
<title>Node2&#45;&gt;Node13</title>
<g id="a_edge12_Node000002_Node000013"><a xlink:title=" ">
<path fill="none" stroke="#63b8ff" d="M269.06,-132.6C273.68,-130.28 278.01,-127.45 281.75,-124 314.93,-93.37 288.68,-63.55 317.75,-29 318.09,-28.59 318.45,-28.19 318.81,-27.79"/>
<polygon fill="#63b8ff" stroke="#63b8ff" points="321.01,-30.52 326.44,-21.42 316.52,-25.15 321.01,-30.52"/>
</a>
</g>
</g>
<!-- Node4 -->
<g id="Node000004" class="node">
<title>Node4</title>
<g id="a_Node000004"><a xlink:href="tusb__cdc__acm_8c.html#ab24ee802c4641898cbc524df38a75dc1" target="_top" xlink:title=" ">
<polygon fill="#fff0f0" stroke="red" points="635,-197 581.5,-197 581.5,-177 635,-177 635,-197"/>
<text xml:space="preserve" text-anchor="middle" x="608.25" y="-183.5" font-family="Helvetica,sans-Serif" font-size="10.00">get_acm</text>
</a>
</g>
</g>
<!-- Node3&#45;&gt;Node4 -->
<g id="edge3_Node000003_Node000004" class="edge">
<title>Node3&#45;&gt;Node4</title>
<g id="a_edge3_Node000003_Node000004"><a xlink:title=" ">
<path fill="none" stroke="#63b8ff" d="M513.02,-220.57C530.23,-214.44 552.15,-206.63 570.51,-200.09"/>
<polygon fill="#63b8ff" stroke="#63b8ff" points="571.46,-203.47 579.71,-196.81 569.11,-196.87 571.46,-203.47"/>
</a>
</g>
</g>
<!-- Node12 -->
<g id="Node000012" class="node">
<title>Node12</title>
<g id="a_Node000012"><a xlink:href="tusb__cdc__acm_8c.html#ae29627ebf56d365729a287215fe98afe" target="_top" xlink:title="Sent one character to a write buffer.">
<polygon fill="white" stroke="#666666" points="539.5,-159 426,-159 426,-127 539.5,-127 539.5,-159"/>
<text xml:space="preserve" text-anchor="start" x="434" y="-145.5" font-family="Helvetica,sans-Serif" font-size="10.00">tinyusb_cdcacm_write</text>
<text xml:space="preserve" text-anchor="middle" x="482.75" y="-133.5" font-family="Helvetica,sans-Serif" font-size="10.00">_queue_char</text>
</a>
</g>
</g>
<!-- Node11&#45;&gt;Node12 -->
<g id="edge10_Node000011_Node000012" class="edge">
<title>Node11&#45;&gt;Node12</title>
<g id="a_edge10_Node000011_Node000012"><a xlink:title=" ">
<path fill="none" stroke="#63b8ff" d="M370.47,-58.46C374.97,-61.13 379.71,-64.08 384,-67 408.13,-83.42 434.16,-103.8 453.29,-119.32"/>
<polygon fill="#63b8ff" stroke="#63b8ff" points="450.96,-121.94 460.92,-125.56 455.39,-116.52 450.96,-121.94"/>
</a>
</g>
</g>
<!-- Node12&#45;&gt;Node4 -->
<g id="edge11_Node000012_Node000004" class="edge">
<title>Node12&#45;&gt;Node4</title>
<g id="a_edge11_Node000012_Node000004"><a xlink:title=" ">
<path fill="none" stroke="#63b8ff" d="M529.74,-159.38C543.21,-164.18 557.76,-169.37 570.57,-173.93"/>
<polygon fill="#63b8ff" stroke="#63b8ff" points="569.29,-177.19 579.88,-177.25 571.64,-170.6 569.29,-177.19"/>
</a>
</g>
</g>
<!-- Node14 -->
<g id="Node000014" class="node">
<title>Node14</title>
<g id="a_Node000014"><a xlink:href="vfs__tinyusb_8c.html#a40d9d3df1da934c51f914dab02724804" target="_top" xlink:title=" ">
<polygon fill="white" stroke="#666666" points="514.38,-20 451.12,-20 451.12,0 514.38,0 514.38,-20"/>
<text xml:space="preserve" text-anchor="middle" x="482.75" y="-6.5" font-family="Helvetica,sans-Serif" font-size="10.00">apply_path</text>
</a>
</g>
</g>
<!-- Node13&#45;&gt;Node14 -->
<g id="edge13_Node000013_Node000014" class="edge">
<title>Node13&#45;&gt;Node14</title>
<g id="a_edge13_Node000013_Node000014"><a xlink:title=" ">
<path fill="none" stroke="#63b8ff" d="M384.31,-10C401.08,-10 421.73,-10 439.71,-10"/>
<polygon fill="#63b8ff" stroke="#63b8ff" points="439.55,-13.5 449.55,-10 439.55,-6.5 439.55,-13.5"/>
</a>
</g>
</g>
</g>
</svg>

<g id="navigator" transform="translate(0 0)" fill="#404254">
  <rect fill="#f2f5e9" fill-opacity="0.5" stroke="#606060" stroke-width=".5" x="0" y="0" width="60" height="60"/>
  <use id="zoomplus" xlink:href="#zoomPlus" x="17" y="9" onmousedown="handleZoom(evt,'in')"/>
  <use id="zoomminus" xlink:href="#zoomMin" x="42" y="9" onmousedown="handleZoom(evt,'out')"/>
  <use id="reset" xlink:href="#resetDef" x="30" y="36" onmousedown="handleReset()"/>
   <use id="arrowup" xlink:href="#arrowUp" x="0" y="0" onmousedown="handlePan(0,-1)"/>
  <use id="arrowright" xlink:href="#arrowRight" x="0" y="0" onmousedown="handlePan(1,0)"/>
  <use id="arrowdown" xlink:href="#arrowDown" x="0" y="0" onmousedown="handlePan(0,1)"/>
  <use id="arrowleft" xlink:href="#arrowLeft" x="0" y="0" onmousedown="handlePan(-1,0)"/>
</g>
<svg viewBox="0 0 15 15" width="100%" height="30px" preserveAspectRatio="xMaxYMin meet">
 <g id="arrow_out" transform="scale(0.3 0.3)">
  <a xlink:href="tusb__console_8h_a9e8e981b87a77f42d60e0d5ead04fb9e_cgraph_org.svg" target="_base">
   <rect id="button" ry="5" rx="5" y="6" x="6" height="38" width="38"
        fill="#f2f5e9" fill-opacity="0.5" stroke="#606060" stroke-width="1.0"/>
   <path id="arrow"
     d="M 11.500037,31.436501 C 11.940474,20.09759 22.043105,11.32322 32.158766,21.979434 L 37.068811,17.246167 C 37.068811,17.246167 37.088388,32 37.088388,32 L 22.160133,31.978069 C 22.160133,31.978069 26.997745,27.140456 26.997745,27.140456 C 18.528582,18.264221 13.291696,25.230495 11.500037,31.436501 z"
     style="fill:#404040;"/>
  </a>
 </g>
</svg>

<style type='text/css'>
<![CDATA[
[data-mouse-over-selected='false'] { opacity: 0.7; }
[data-mouse-over-selected='true']  { opacity: 1.0; }
]]>
</style>
<script type="application/ecmascript"><![CDATA[
document.addEventListener('DOMContentLoaded', (event) => {
  highlightEdges();
  highlightAdjacentNodes();
});
]]></script>
</svg>
