<?xml version="1.0" encoding="UTF-8" standalone="no"?>
<!DOCTYPE svg PUBLIC "-//W3C//DTD SVG 1.1//EN"
 "http://www.w3.org/Graphics/SVG/1.1/DTD/svg11.dtd">
<!-- Generated by graphviz version 14.1.2 (20260124.0452)
 -->
<!-- Title: tusb_cdc_acm.c Pages: 1 -->
<!--zoomable 252 -->

<svg id="main" version="1.1" xmlns="http://www.w3.org/2000/svg" xmlns:xlink="http://www.w3.org/1999/xlink" xml:space="preserve" onload="init(evt)">

<style type="text/css"><![CDATA[
.node, .edge {opacity: 0.7;}
.node.selected, .edge.selected {opacity: 1;}
.edge:hover path { stroke: red; }
.edge:hover polygon { stroke: red; fill: red; }
]]></style>

<defs>
  <circle id="rim" cx="0" cy="0" r="7"/>
  <circle id="rim2" cx="0" cy="0" r="3.5"/>
  <g id="zoomPlus">
    <use xlink:href="#rim" fill="#404040"><set attributeName="fill" to="#808080" begin="zoomplus.mouseover" end="zoomplus.mouseout"/></use>
    <path d="M-4,0h8M0,-4v8" fill="none" stroke="white" stroke-width="1.5" pointer-events="none"/>
  </g>
  <g id="zoomMin">
    <use xlink:href="#rim" fill="#404040"><set attributeName="fill" to="#808080" begin="zoomminus.mouseover" end="zoomminus.mouseout"/></use>
    <path d="M-4,0h8" fill="none" stroke="white" stroke-width="1.5" pointer-events="none"/>
  </g>
  <g id="arrowUp" transform="translate(30 24)">
    <use xlink:href="#rim"/>
    <path pointer-events="none" fill="none" stroke="white" stroke-width="1.5" d="M0,-3.0v7 M-2.5,-0.5L0,-3.0L2.5,-0.5"/>
  </g>
  <g id="arrowRight" transform="rotate(90) translate(36 -43)">
    <use xlink:href="#rim"/>
    <path pointer-events="none" fill="none" stroke="white" stroke-width="1.5" d="M0,-3.0v7 M-2.5,-0.5L0,-3.0L2.5,-0.5"/>
  </g>
  <g id="arrowDown" transform="rotate(180) translate(-30 -48)">
    <use xlink:href="#rim"/>
    <path pointer-events="none" fill="none" stroke="white" stroke-width="1.5" d="M0,-3.0v7 M-2.5,-0.5L0,-3.0L2.5,-0.5"/>
  </g>
  <g id="arrowLeft" transform="rotate(270) translate(-36 17)">
    <use xlink:href="#rim"/>
    <path pointer-events="none" fill="none" stroke="white" stroke-width="1.5" d="M0,-3.0v7 M-2.5,-0.5L0,-3.0L2.5,-0.5"/>
  </g>
  <g id="resetDef">
    <use xlink:href="#rim2" fill="#404040"><set attributeName="fill" to="#808080" begin="reset.mouseover" end="reset.mouseout"/></use>
  </g>
</defs>
<script type="application/ecmascript">
var viewWidth = 1030;
var viewHeight = 252;
var sectionId = 'dynsection-0';
</script>
<script type="application/ecmascript" xlink:href="svg.min.js"/>
<svg id="graph" class="graph">
<g id="viewport">
<title>tusb_cdc_acm.c</title>
<!-- Node1 -->
<g id="Node000001" class="node">
<title>Node1</title>
<g id="a_Node000001"><a xlink:title=" ">
<polygon fill="#999999" stroke="#666666" points="686.38,-244 598.38,-244 598.38,-224 686.38,-224 686.38,-244"/>
<text xml:space="preserve" text-anchor="middle" x="642.38" y="-230.5" font-family="Helvetica,sans-Serif" font-size="10.00">tusb_cdc_acm.c</text>
</a>
</g>
</g>
<!-- Node2 -->
<g id="Node000002" class="node">
<title>Node2</title>
<g id="a_Node000002"><a xlink:title=" ">
<polygon fill="#e0e0e0" stroke="#999999" points="500.5,-132 452.25,-132 452.25,-112 500.5,-112 500.5,-132"/>
<text xml:space="preserve" text-anchor="middle" x="476.38" y="-118.5" font-family="Helvetica,sans-Serif" font-size="10.00">stdint.h</text>
</a>
</g>
</g>
<!-- Node1&#45;&gt;Node2 -->
<g id="edge1_Node000001_Node000002" class="edge">
<title>Node1&#45;&gt;Node2</title>
<g id="a_edge1_Node000001_Node000002"><a xlink:title=" ">
<path fill="none" stroke="#63b8ff" d="M628.22,-223.62C599.68,-204.71 534.95,-161.82 499.93,-138.61"/>
<polygon fill="#63b8ff" stroke="#63b8ff" points="502.02,-135.8 491.75,-133.19 498.16,-141.63 502.02,-135.8"/>
</a>
</g>
</g>
<!-- Node3 -->
<g id="Node000003" class="node">
<title>Node3</title>
<g id="a_Node000003"><a xlink:title=" ">
<polygon fill="#e0e0e0" stroke="#999999" points="818.12,-188 746.62,-188 746.62,-168 818.12,-168 818.12,-188"/>
<text xml:space="preserve" text-anchor="middle" x="782.38" y="-174.5" font-family="Helvetica,sans-Serif" font-size="10.00">esp_check.h</text>
</a>
</g>
</g>
<!-- Node1&#45;&gt;Node3 -->
<g id="edge2_Node000001_Node000003" class="edge">
<title>Node1&#45;&gt;Node3</title>
<g id="a_edge2_Node000001_Node000003"><a xlink:title=" ">
<path fill="none" stroke="#63b8ff" d="M666.76,-223.59C689.01,-215.01 722.14,-202.23 747.24,-192.55"/>
<polygon fill="#63b8ff" stroke="#63b8ff" points="748.32,-195.89 756.39,-189.02 745.8,-189.36 748.32,-195.89"/>
</a>
</g>
</g>
<!-- Node4 -->
<g id="Node000004" class="node">
<title>Node4</title>
<g id="a_Node000004"><a xlink:href="esp__err_8h.html" target="_top" xlink:title=" ">
<polygon fill="white" stroke="#666666" points="721.62,-76 665.12,-76 665.12,-56 721.62,-56 721.62,-76"/>
<text xml:space="preserve" text-anchor="middle" x="693.38" y="-62.5" font-family="Helvetica,sans-Serif" font-size="10.00">esp_err.h</text>
</a>
</g>
</g>
<!-- Node1&#45;&gt;Node4 -->
<g id="edge3_Node000001_Node000004" class="edge">
<title>Node1&#45;&gt;Node4</title>
<g id="a_edge3_Node000001_Node000004"><a xlink:title=" ">
<path fill="none" stroke="#63b8ff" d="M645.28,-223.7C648.12,-214.6 652.56,-200.35 656.38,-188 667.29,-152.61 679.88,-111.35 687.2,-87.3"/>
<polygon fill="#63b8ff" stroke="#63b8ff" points="690.51,-88.45 690.07,-77.87 683.81,-86.41 690.51,-88.45"/>
</a>
</g>
</g>
<!-- Node6 -->
<g id="Node000006" class="node">
<title>Node6</title>
<g id="a_Node000006"><a xlink:href="esp__log_8h.html" target="_top" xlink:title=" ">
<polygon fill="white" stroke="#666666" points="774.38,-132 716.38,-132 716.38,-112 774.38,-112 774.38,-132"/>
<text xml:space="preserve" text-anchor="middle" x="745.38" y="-118.5" font-family="Helvetica,sans-Serif" font-size="10.00">esp_log.h</text>
</a>
</g>
</g>
<!-- Node1&#45;&gt;Node6 -->
<g id="edge5_Node000001_Node000006" class="edge">
<title>Node1&#45;&gt;Node6</title>
<g id="a_edge5_Node000001_Node000006"><a xlink:title=" ">
<path fill="none" stroke="#63b8ff" d="M654.52,-223.6C665.45,-214.89 681.69,-201.31 694.38,-188 708.41,-173.27 722.55,-154.91 732.37,-141.46"/>
<polygon fill="#63b8ff" stroke="#63b8ff" points="735.09,-143.67 738.08,-133.51 729.4,-139.59 735.09,-143.67"/>
</a>
</g>
</g>
<!-- Node7 -->
<g id="Node000007" class="node">
<title>Node7</title>
<g id="a_Node000007"><a xlink:title=" ">
<polygon fill="#e0e0e0" stroke="#999999" points="106.75,-132 0,-132 0,-112 106.75,-112 106.75,-132"/>
<text xml:space="preserve" text-anchor="middle" x="53.38" y="-118.5" font-family="Helvetica,sans-Serif" font-size="10.00">freertos/FreeRTOS.h</text>
</a>
</g>
</g>
<!-- Node1&#45;&gt;Node7 -->
<g id="edge7_Node000001_Node000007" class="edge">
<title>Node1&#45;&gt;Node7</title>
<g id="a_edge7_Node000001_Node000007"><a xlink:title=" ">
<path fill="none" stroke="#63b8ff" d="M598.07,-231.73C521.8,-228.75 361.19,-219.02 229.38,-188 176.88,-175.64 118.66,-152.08 84.09,-136.97"/>
<polygon fill="#63b8ff" stroke="#63b8ff" points="85.67,-133.85 75.11,-133 82.84,-140.25 85.67,-133.85"/>
</a>
</g>
</g>
<!-- Node8 -->
<g id="Node000008" class="node">
<title>Node8</title>
<g id="a_Node000008"><a xlink:title=" ">
<polygon fill="#e0e0e0" stroke="#999999" points="914.88,-188 835.88,-188 835.88,-168 914.88,-168 914.88,-188"/>
<text xml:space="preserve" text-anchor="middle" x="875.38" y="-174.5" font-family="Helvetica,sans-Serif" font-size="10.00">freertos/task.h</text>
</a>
</g>
</g>
<!-- Node1&#45;&gt;Node8 -->
<g id="edge8_Node000001_Node000008" class="edge">
<title>Node1&#45;&gt;Node8</title>
<g id="a_edge8_Node000001_Node000008"><a xlink:title=" ">
<path fill="none" stroke="#63b8ff" d="M683.23,-223.53C722.56,-214.42 782.16,-200.6 824.54,-190.78"/>
<polygon fill="#63b8ff" stroke="#63b8ff" points="825.31,-194.2 834.26,-188.53 823.73,-187.38 825.31,-194.2"/>
</a>
</g>
</g>
<!-- Node9 -->
<g id="Node000009" class="node">
<title>Node9</title>
<g id="a_Node000009"><a xlink:title=" ">
<polygon fill="#e0e0e0" stroke="#999999" points="1022.12,-188 932.62,-188 932.62,-168 1022.12,-168 1022.12,-188"/>
<text xml:space="preserve" text-anchor="middle" x="977.38" y="-174.5" font-family="Helvetica,sans-Serif" font-size="10.00">freertos/ringbuf.h</text>
</a>
</g>
</g>
<!-- Node1&#45;&gt;Node9 -->
<g id="edge9_Node000001_Node000009" class="edge">
<title>Node1&#45;&gt;Node9</title>
<g id="a_edge9_Node000001_Node000009"><a xlink:title=" ">
<path fill="none" stroke="#63b8ff" d="M686.84,-226.04C740.15,-217.67 832.51,-203.08 920.95,-188.55"/>
<polygon fill="#63b8ff" stroke="#63b8ff" points="921.48,-192.01 930.78,-186.94 920.35,-185.11 921.48,-192.01"/>
</a>
</g>
</g>
<!-- Node10 -->
<g id="Node000010" class="node">
<title>Node10</title>
<g id="a_Node000010"><a xlink:title=" ">
<polygon fill="#e0e0e0" stroke="#999999" points="530.88,-76 487.88,-76 487.88,-56 530.88,-56 530.88,-76"/>
<text xml:space="preserve" text-anchor="middle" x="509.38" y="-62.5" font-family="Helvetica,sans-Serif" font-size="10.00">tusb.h</text>
</a>
</g>
</g>
<!-- Node1&#45;&gt;Node10 -->
<g id="edge10_Node000001_Node000010" class="edge">
<title>Node1&#45;&gt;Node10</title>
<g id="a_edge10_Node000001_Node000010"><a xlink:title=" ">
<path fill="none" stroke="#63b8ff" d="M636.78,-223.73C623.98,-202.81 591.04,-150.77 557.38,-112 548.73,-102.04 538.11,-91.91 529.06,-83.78"/>
<polygon fill="#63b8ff" stroke="#63b8ff" points="531.63,-81.38 521.81,-77.41 527.01,-86.64 531.63,-81.38"/>
</a>
</g>
</g>
<!-- Node11 -->
<g id="Node000011" class="node">
<title>Node11</title>
<g id="a_Node000011"><a xlink:href="tusb__cdc__acm_8h.html" target="_top" xlink:title=" ">
<polygon fill="white" stroke="#666666" points="326.38,-188 238.38,-188 238.38,-168 326.38,-168 326.38,-188"/>
<text xml:space="preserve" text-anchor="middle" x="282.38" y="-174.5" font-family="Helvetica,sans-Serif" font-size="10.00">tusb_cdc_acm.h</text>
</a>
</g>
</g>
<!-- Node1&#45;&gt;Node11 -->
<g id="edge11_Node000001_Node000011" class="edge">
<title>Node1&#45;&gt;Node11</title>
<g id="a_edge11_Node000001_Node000011"><a xlink:title=" ">
<path fill="none" stroke="#63b8ff" d="M598.23,-226.38C532.56,-216.53 409.2,-198.02 337.62,-187.29"/>
<polygon fill="#63b8ff" stroke="#63b8ff" points="338.5,-183.88 328.09,-185.86 337.46,-190.8 338.5,-183.88"/>
</a>
</g>
</g>
<!-- Node18 -->
<g id="Node000018" class="node">
<title>Node18</title>
<g id="a_Node000018"><a xlink:title=" ">
<polygon fill="#e0e0e0" stroke="#999999" points="472.5,-20 406.25,-20 406.25,0 472.5,0 472.5,-20"/>
<text xml:space="preserve" text-anchor="middle" x="439.38" y="-6.5" font-family="Helvetica,sans-Serif" font-size="10.00">sdkconfig.h</text>
</a>
</g>
</g>
<!-- Node1&#45;&gt;Node18 -->
<g id="edge33_Node000001_Node000018" class="edge">
<title>Node1&#45;&gt;Node18</title>
<g id="a_edge33_Node000001_Node000018"><a xlink:title=" ">
<path fill="none" stroke="#63b8ff" d="M640.37,-223.82C637.35,-210.9 630.92,-186.83 621.38,-168 593.59,-113.21 588.07,-94.72 540.38,-56 523.23,-42.08 501.09,-31.58 481.91,-24.24"/>
<polygon fill="#63b8ff" stroke="#63b8ff" points="483.34,-21.04 472.74,-20.9 480.94,-27.61 483.34,-21.04"/>
</a>
</g>
</g>
<!-- Node20 -->
<g id="Node000020" class="node">
<title>Node20</title>
<g id="a_Node000020"><a xlink:href="cdc_8h.html" target="_top" xlink:title=" ">
<polygon fill="white" stroke="#666666" points="496.38,-188 456.38,-188 456.38,-168 496.38,-168 496.38,-188"/>
<text xml:space="preserve" text-anchor="middle" x="476.38" y="-174.5" font-family="Helvetica,sans-Serif" font-size="10.00">cdc.h</text>
</a>
</g>
</g>
<!-- Node1&#45;&gt;Node20 -->
<g id="edge26_Node000001_Node000020" class="edge">
<title>Node1&#45;&gt;Node20</title>
<g id="a_edge26_Node000001_Node000020"><a xlink:title=" ">
<path fill="none" stroke="#63b8ff" d="M613.46,-223.59C583.81,-213.95 537.84,-199 507.43,-189.1"/>
<polygon fill="#63b8ff" stroke="#63b8ff" points="508.64,-185.81 498.04,-186.05 506.47,-192.47 508.64,-185.81"/>
</a>
</g>
</g>
<!-- Node5 -->
<g id="Node000005" class="node">
<title>Node5</title>
<g id="a_Node000005"><a xlink:title=" ">
<polygon fill="#e0e0e0" stroke="#999999" points="745.12,-20 697.62,-20 697.62,0 745.12,0 745.12,-20"/>
<text xml:space="preserve" text-anchor="middle" x="721.38" y="-6.5" font-family="Helvetica,sans-Serif" font-size="10.00">stdlib.h</text>
</a>
</g>
</g>
<!-- Node4&#45;&gt;Node5 -->
<g id="edge4_Node000004_Node000005" class="edge">
<title>Node4&#45;&gt;Node5</title>
<g id="a_edge4_Node000004_Node000005"><a xlink:title=" ">
<path fill="none" stroke="#63b8ff" d="M698.25,-55.59C701.87,-48.63 706.92,-38.89 711.37,-30.29"/>
<polygon fill="#63b8ff" stroke="#63b8ff" points="714.36,-32.13 715.86,-21.64 708.15,-28.91 714.36,-32.13"/>
</a>
</g>
</g>
<!-- Node6&#45;&gt;Node5 -->
<g id="edge6_Node000006_Node000005" class="edge">
<title>Node6&#45;&gt;Node5</title>
<g id="a_edge6_Node000006_Node000005"><a xlink:title=" ">
<path fill="none" stroke="#63b8ff" d="M743.33,-111.62C739.47,-93.92 731.03,-55.24 725.81,-31.32"/>
<polygon fill="#63b8ff" stroke="#63b8ff" points="729.29,-30.86 723.74,-21.83 722.45,-32.35 729.29,-30.86"/>
</a>
</g>
</g>
<!-- Node11&#45;&gt;Node2 -->
<g id="edge12_Node000011_Node000002" class="edge">
<title>Node11&#45;&gt;Node2</title>
<g id="a_edge12_Node000011_Node000002"><a xlink:title=" ">
<path fill="none" stroke="#63b8ff" d="M316.17,-167.59C351.14,-157.86 405.52,-142.72 441.05,-132.83"/>
<polygon fill="#63b8ff" stroke="#63b8ff" points="441.72,-136.28 450.41,-130.23 439.84,-129.54 441.72,-136.28"/>
</a>
</g>
</g>
<!-- Node11&#45;&gt;Node7 -->
<g id="edge13_Node000011_Node000007" class="edge">
<title>Node11&#45;&gt;Node7</title>
<g id="a_edge13_Node000011_Node000007"><a xlink:title=" ">
<path fill="none" stroke="#63b8ff" d="M242.22,-167.53C203.92,-158.5 146.05,-144.85 104.48,-135.05"/>
<polygon fill="#63b8ff" stroke="#63b8ff" points="105.49,-131.69 94.95,-132.8 103.88,-138.51 105.49,-131.69"/>
</a>
</g>
</g>
<!-- Node11&#45;&gt;Node10 -->
<g id="edge16_Node000011_Node000010" class="edge">
<title>Node11&#45;&gt;Node10</title>
<g id="a_edge16_Node000011_Node000010"><a xlink:title=" ">
<path fill="none" stroke="#63b8ff" d="M264.3,-167.51C242.45,-154.83 210.59,-131.68 227.38,-112 228.39,-110.81 402.88,-83.56 476.84,-72.05"/>
<polygon fill="#63b8ff" stroke="#63b8ff" points="476.97,-75.58 486.31,-70.58 475.89,-68.66 476.97,-75.58"/>
</a>
</g>
</g>
<!-- Node12 -->
<g id="Node000012" class="node">
<title>Node12</title>
<g id="a_Node000012"><a xlink:title=" ">
<polygon fill="#e0e0e0" stroke="#999999" points="328.62,-132 236.12,-132 236.12,-112 328.62,-112 328.62,-132"/>
<text xml:space="preserve" text-anchor="middle" x="282.38" y="-118.5" font-family="Helvetica,sans-Serif" font-size="10.00">freertos/semphr.h</text>
</a>
</g>
</g>
<!-- Node11&#45;&gt;Node12 -->
<g id="edge14_Node000011_Node000012" class="edge">
<title>Node11&#45;&gt;Node12</title>
<g id="a_edge14_Node000011_Node000012"><a xlink:title=" ">
<path fill="none" stroke="#63b8ff" d="M282.38,-167.59C282.38,-161.01 282.38,-151.96 282.38,-143.73"/>
<polygon fill="#63b8ff" stroke="#63b8ff" points="285.88,-143.81 282.38,-133.81 278.88,-143.81 285.88,-143.81"/>
</a>
</g>
</g>
<!-- Node13 -->
<g id="Node000013" class="node">
<title>Node13</title>
<g id="a_Node000013"><a xlink:title=" ">
<polygon fill="#e0e0e0" stroke="#999999" points="434,-132 346.75,-132 346.75,-112 434,-112 434,-132"/>
<text xml:space="preserve" text-anchor="middle" x="390.38" y="-118.5" font-family="Helvetica,sans-Serif" font-size="10.00">freertos/timers.h</text>
</a>
</g>
</g>
<!-- Node11&#45;&gt;Node13 -->
<g id="edge15_Node000011_Node000013" class="edge">
<title>Node11&#45;&gt;Node13</title>
<g id="a_edge15_Node000011_Node000013"><a xlink:title=" ">
<path fill="none" stroke="#63b8ff" d="M301.19,-167.59C317.73,-159.32 342.09,-147.14 361.17,-137.6"/>
<polygon fill="#63b8ff" stroke="#63b8ff" points="362.68,-140.76 370.06,-133.16 359.55,-134.5 362.68,-140.76"/>
</a>
</g>
</g>
<!-- Node14 -->
<g id="Node000014" class="node">
<title>Node14</title>
<g id="a_Node000014"><a xlink:href="tinyusb_8h.html" target="_top" xlink:title=" ">
<polygon fill="white" stroke="#666666" points="180.25,-132 124.5,-132 124.5,-112 180.25,-112 180.25,-132"/>
<text xml:space="preserve" text-anchor="middle" x="152.38" y="-118.5" font-family="Helvetica,sans-Serif" font-size="10.00">tinyusb.h</text>
</a>
</g>
</g>
<!-- Node11&#45;&gt;Node14 -->
<g id="edge17_Node000011_Node000014" class="edge">
<title>Node11&#45;&gt;Node14</title>
<g id="a_edge17_Node000011_Node000014"><a xlink:title=" ">
<path fill="none" stroke="#63b8ff" d="M259.73,-167.59C239.26,-159.09 208.86,-146.46 185.63,-136.81"/>
<polygon fill="#63b8ff" stroke="#63b8ff" points="187.17,-133.66 176.59,-133.06 184.49,-140.13 187.17,-133.66"/>
</a>
</g>
</g>
<!-- Node14&#45;&gt;Node4 -->
<g id="edge19_Node000014_Node000004" class="edge">
<title>Node14&#45;&gt;Node4</title>
<g id="a_edge19_Node000014_Node000004"><a xlink:title=" ">
<path fill="none" stroke="#63b8ff" d="M180.49,-117.47C194.56,-115.74 211.86,-113.68 227.38,-112 385.07,-94.93 573.14,-77.73 653.64,-70.52"/>
<polygon fill="#63b8ff" stroke="#63b8ff" points="653.56,-74.05 663.21,-69.67 652.94,-67.07 653.56,-74.05"/>
</a>
</g>
</g>
<!-- Node14&#45;&gt;Node10 -->
<g id="edge20_Node000014_Node000010" class="edge">
<title>Node14&#45;&gt;Node10</title>
<g id="a_edge20_Node000014_Node000010"><a xlink:title=" ">
<path fill="none" stroke="#63b8ff" d="M180.33,-114.72C185.01,-113.75 189.82,-112.81 194.38,-112 307.95,-91.9 337.27,-92.84 451.38,-76 459.53,-74.8 468.32,-73.45 476.53,-72.18"/>
<polygon fill="#63b8ff" stroke="#63b8ff" points="476.79,-75.68 486.13,-70.69 475.71,-68.77 476.79,-75.68"/>
</a>
</g>
</g>
<!-- Node15 -->
<g id="Node000015" class="node">
<title>Node15</title>
<g id="a_Node000015"><a xlink:title=" ">
<polygon fill="#e0e0e0" stroke="#999999" points="152.25,-76 96.5,-76 96.5,-56 152.25,-56 152.25,-76"/>
<text xml:space="preserve" text-anchor="middle" x="124.38" y="-62.5" font-family="Helvetica,sans-Serif" font-size="10.00">stdbool.h</text>
</a>
</g>
</g>
<!-- Node14&#45;&gt;Node15 -->
<g id="edge18_Node000014_Node000015" class="edge">
<title>Node14&#45;&gt;Node15</title>
<g id="a_edge18_Node000014_Node000015"><a xlink:title=" ">
<path fill="none" stroke="#63b8ff" d="M147.5,-111.59C143.88,-104.63 138.83,-94.89 134.38,-86.29"/>
<polygon fill="#63b8ff" stroke="#63b8ff" points="137.6,-84.91 129.89,-77.64 131.39,-88.13 137.6,-84.91"/>
</a>
</g>
</g>
<!-- Node16 -->
<g id="Node000016" class="node">
<title>Node16</title>
<g id="a_Node000016"><a xlink:title=" ">
<polygon fill="#e0e0e0" stroke="#999999" points="249.62,-20 175.12,-20 175.12,0 249.62,0 249.62,-20"/>
<text xml:space="preserve" text-anchor="middle" x="212.38" y="-6.5" font-family="Helvetica,sans-Serif" font-size="10.00">tusb_option.h</text>
</a>
</g>
</g>
<!-- Node14&#45;&gt;Node16 -->
<g id="edge21_Node000014_Node000016" class="edge">
<title>Node14&#45;&gt;Node16</title>
<g id="a_edge21_Node000014_Node000016"><a xlink:title=" ">
<path fill="none" stroke="#63b8ff" d="M157.49,-111.62C167.28,-93.68 188.83,-54.17 201.82,-30.35"/>
<polygon fill="#63b8ff" stroke="#63b8ff" points="204.83,-32.14 206.55,-21.68 198.69,-28.79 204.83,-32.14"/>
</a>
</g>
</g>
<!-- Node17 -->
<g id="Node000017" class="node">
<title>Node17</title>
<g id="a_Node000017"><a xlink:href="tusb__config_8h.html" target="_top" xlink:title=" ">
<polygon fill="white" stroke="#666666" points="282.62,-76 208.12,-76 208.12,-56 282.62,-56 282.62,-76"/>
<text xml:space="preserve" text-anchor="middle" x="245.38" y="-62.5" font-family="Helvetica,sans-Serif" font-size="10.00">tusb_config.h</text>
</a>
</g>
</g>
<!-- Node14&#45;&gt;Node17 -->
<g id="edge22_Node000014_Node000017" class="edge">
<title>Node14&#45;&gt;Node17</title>
<g id="a_edge22_Node000014_Node000017"><a xlink:title=" ">
<path fill="none" stroke="#63b8ff" d="M168.57,-111.59C182.62,-103.44 203.21,-91.48 219.53,-82"/>
<polygon fill="#63b8ff" stroke="#63b8ff" points="220.85,-85.29 227.74,-77.24 217.33,-79.23 220.85,-85.29"/>
</a>
</g>
</g>
<!-- Node19 -->
<g id="Node000019" class="node">
<title>Node19</title>
<g id="a_Node000019"><a xlink:href="tinyusb__types_8h.html" target="_top" xlink:title=" ">
<polygon fill="white" stroke="#666666" points="441.88,-76 356.88,-76 356.88,-56 441.88,-56 441.88,-76"/>
<text xml:space="preserve" text-anchor="middle" x="399.38" y="-62.5" font-family="Helvetica,sans-Serif" font-size="10.00">tinyusb_types.h</text>
</a>
</g>
</g>
<!-- Node14&#45;&gt;Node19 -->
<g id="edge25_Node000014_Node000019" class="edge">
<title>Node14&#45;&gt;Node19</title>
<g id="a_edge25_Node000014_Node000019"><a xlink:title=" ">
<path fill="none" stroke="#63b8ff" d="M180.71,-114.81C220.76,-106.05 294.7,-89.88 345.42,-78.79"/>
<polygon fill="#63b8ff" stroke="#63b8ff" points="346.01,-82.25 355.03,-76.69 344.51,-75.41 346.01,-82.25"/>
</a>
</g>
</g>
<!-- Node17&#45;&gt;Node16 -->
<g id="edge23_Node000017_Node000016" class="edge">
<title>Node17&#45;&gt;Node16</title>
<g id="a_edge23_Node000017_Node000016"><a xlink:title=" ">
<path fill="none" stroke="#63b8ff" d="M239.63,-55.59C235.32,-48.55 229.28,-38.67 223.99,-30"/>
<polygon fill="#63b8ff" stroke="#63b8ff" points="227.05,-28.3 218.85,-21.59 221.07,-31.95 227.05,-28.3"/>
</a>
</g>
</g>
<!-- Node17&#45;&gt;Node18 -->
<g id="edge24_Node000017_Node000018" class="edge">
<title>Node17&#45;&gt;Node18</title>
<g id="a_edge24_Node000017_Node000018"><a xlink:title=" ">
<path fill="none" stroke="#63b8ff" d="M279.17,-55.59C311.3,-46.65 359.82,-33.15 395.04,-23.34"/>
<polygon fill="#63b8ff" stroke="#63b8ff" points="395.82,-26.76 404.51,-20.7 393.94,-20.01 395.82,-26.76"/>
</a>
</g>
</g>
<!-- Node20&#45;&gt;Node2 -->
<g id="edge27_Node000020_Node000002" class="edge">
<title>Node20&#45;&gt;Node2</title>
<g id="a_edge27_Node000020_Node000002"><a xlink:title=" ">
<path fill="none" stroke="#63b8ff" d="M476.38,-167.59C476.38,-161.01 476.38,-151.96 476.38,-143.73"/>
<polygon fill="#63b8ff" stroke="#63b8ff" points="479.88,-143.81 476.38,-133.81 472.88,-143.81 479.88,-143.81"/>
</a>
</g>
</g>
<!-- Node20&#45;&gt;Node7 -->
<g id="edge28_Node000020_Node000007" class="edge">
<title>Node20&#45;&gt;Node7</title>
<g id="a_edge28_Node000020_Node000007"><a xlink:title=" ">
<path fill="none" stroke="#63b8ff" d="M456,-174.61C402.51,-168.29 253.4,-150.49 118.48,-132.4"/>
<polygon fill="#63b8ff" stroke="#63b8ff" points="119.01,-128.94 108.63,-131.07 118.08,-135.88 119.01,-128.94"/>
</a>
</g>
</g>
<!-- Node20&#45;&gt;Node10 -->
<g id="edge31_Node000020_Node000010" class="edge">
<title>Node20&#45;&gt;Node10</title>
<g id="a_edge31_Node000020_Node000010"><a xlink:title=" ">
<path fill="none" stroke="#63b8ff" d="M496.58,-169.42C512.22,-162.35 532.78,-150.15 542.38,-132 550.83,-116 539.54,-97.59 527.93,-84.46"/>
<polygon fill="#63b8ff" stroke="#63b8ff" points="530.59,-82.17 521.13,-77.4 525.54,-87.03 530.59,-82.17"/>
</a>
</g>
</g>
<!-- Node20&#45;&gt;Node12 -->
<g id="edge29_Node000020_Node000012" class="edge">
<title>Node20&#45;&gt;Node12</title>
<g id="a_edge29_Node000020_Node000012"><a xlink:title=" ">
<path fill="none" stroke="#63b8ff" d="M455.98,-171.32C425.66,-162.88 367.91,-146.81 327.37,-135.53"/>
<polygon fill="#63b8ff" stroke="#63b8ff" points="328.46,-132.2 317.89,-132.89 326.59,-138.94 328.46,-132.2"/>
</a>
</g>
</g>
<!-- Node20&#45;&gt;Node13 -->
<g id="edge30_Node000020_Node000013" class="edge">
<title>Node20&#45;&gt;Node13</title>
<g id="a_edge30_Node000020_Node000013"><a xlink:title=" ">
<path fill="none" stroke="#63b8ff" d="M461.39,-167.59C448.65,-159.59 430.08,-147.93 415.13,-138.54"/>
<polygon fill="#63b8ff" stroke="#63b8ff" points="417.08,-135.64 406.75,-133.28 413.36,-141.57 417.08,-135.64"/>
</a>
</g>
</g>
<!-- Node20&#45;&gt;Node19 -->
<g id="edge32_Node000020_Node000019" class="edge">
<title>Node20&#45;&gt;Node19</title>
<g id="a_edge32_Node000020_Node000019"><a xlink:title=" ">
<path fill="none" stroke="#63b8ff" d="M487.2,-167.78C501.07,-154.82 521.93,-130.7 509.38,-112 496.64,-93.04 474.35,-82.06 453.15,-75.71"/>
<polygon fill="#63b8ff" stroke="#63b8ff" points="454.25,-72.38 443.68,-73.18 452.44,-79.14 454.25,-72.38"/>
</a>
</g>
</g>
</g>
</svg>

<g id="navigator" transform="translate(0 0)" fill="#404254">
  <rect fill="#f2f5e9" fill-opacity="0.5" stroke="#606060" stroke-width=".5" x="0" y="0" width="60" height="60"/>
  <use id="zoomplus" xlink:href="#zoomPlus" x="17" y="9" onmousedown="handleZoom(evt,'in')"/>
  <use id="zoomminus" xlink:href="#zoomMin" x="42" y="9" onmousedown="handleZoom(evt,'out')"/>
  <use id="reset" xlink:href="#resetDef" x="30" y="36" onmousedown="handleReset()"/>
   <use id="arrowup" xlink:href="#arrowUp" x="0" y="0" onmousedown="handlePan(0,-1)"/>
  <use id="arrowright" xlink:href="#arrowRight" x="0" y="0" onmousedown="handlePan(1,0)"/>
  <use id="arrowdown" xlink:href="#arrowDown" x="0" y="0" onmousedown="handlePan(0,1)"/>
  <use id="arrowleft" xlink:href="#arrowLeft" x="0" y="0" onmousedown="handlePan(-1,0)"/>
</g>
<svg viewBox="0 0 15 15" width="100%" height="30px" preserveAspectRatio="xMaxYMin meet">
 <g id="arrow_out" transform="scale(0.3 0.3)">
  <a xlink:href="tusb__cdc__acm_8c__incl_org.svg" target="_base">
   <rect id="button" ry="5" rx="5" y="6" x="6" height="38" width="38"
        fill="#f2f5e9" fill-opacity="0.5" stroke="#606060" stroke-width="1.0"/>
   <path id="arrow"
     d="M 11.500037,31.436501 C 11.940474,20.09759 22.043105,11.32322 32.158766,21.979434 L 37.068811,17.246167 C 37.068811,17.246167 37.088388,32 37.088388,32 L 22.160133,31.978069 C 22.160133,31.978069 26.997745,27.140456 26.997745,27.140456 C 18.528582,18.264221 13.291696,25.230495 11.500037,31.436501 z"
     style="fill:#404040;"/>
  </a>
 </g>
</svg>

<style type='text/css'>
<![CDATA[
[data-mouse-over-selected='false'] { opacity: 0.7; }
[data-mouse-over-selected='true']  { opacity: 1.0; }
]]>
</style>
<script type="application/ecmascript"><![CDATA[
document.addEventListener('DOMContentLoaded', (event) => {
  highlightEdges();
  highlightAdjacentNodes();
});
]]></script>
</svg>
