<?xml version="1.0" encoding="UTF-8" standalone="no"?>
<!DOCTYPE svg PUBLIC "-//W3C//DTD SVG 1.1//EN"
 "http://www.w3.org/Graphics/SVG/1.1/DTD/svg11.dtd">
<!-- Generated by graphviz version 14.1.2 (20260124.0452)
 -->
<!-- Title: tusb_config.h Pages: 1 -->
<svg width="432pt" height="196pt"
 viewBox="0.00 0.00 432.00 196.00" xmlns="http://www.w3.org/2000/svg" xmlns:xlink="http://www.w3.org/1999/xlink">
<g id="graph0" class="graph" transform="scale(1 1) rotate(0) translate(4 192)">
<title>tusb_config.h</title>
<!-- Node1 -->
<g id="Node000001" class="node">
<title>Node1</title>
<g id="a_Node000001"><a xlink:title=" ">
<polygon fill="#999999" stroke="#666666" points="224.88,-188 150.38,-188 150.38,-168 224.88,-168 224.88,-188"/>
<text xml:space="preserve" text-anchor="middle" x="187.62" y="-174.5" font-family="Helvetica,sans-Serif" font-size="10.00">tusb_config.h</text>
</a>
</g>
</g>
<!-- Node2 -->
<g id="Node000002" class="node">
<title>Node2</title>
<g id="a_Node000002"><a xlink:href="tinyusb_8h.html" target="_top" xlink:title=" ">
<polygon fill="white" stroke="#666666" points="215.5,-132 159.75,-132 159.75,-112 215.5,-112 215.5,-132"/>
<text xml:space="preserve" text-anchor="middle" x="187.62" y="-118.5" font-family="Helvetica,sans-Serif" font-size="10.00">tinyusb.h</text>
</a>
</g>
</g>
<!-- Node1&#45;&gt;Node2 -->
<g id="edge1_Node000001_Node000002" class="edge">
<title>Node1&#45;&gt;Node2</title>
<g id="a_edge1_Node000001_Node000002"><a xlink:title=" ">
<path fill="none" stroke="#63b8ff" d="M187.62,-156.13C187.62,-147.9 187.62,-138.85 187.62,-132.3"/>
<polygon fill="#63b8ff" stroke="#63b8ff" points="184.13,-156.08 187.63,-166.08 191.13,-156.08 184.13,-156.08"/>
</a>
</g>
</g>
<!-- Node3 -->
<g id="Node000003" class="node">
<title>Node3</title>
<g id="a_Node000003"><a xlink:href="main_2main_8c.html" target="_top" xlink:title=" ">
<polygon fill="white" stroke="#666666" points="45.25,-20 0,-20 0,0 45.25,0 45.25,-20"/>
<text xml:space="preserve" text-anchor="middle" x="22.62" y="-6.5" font-family="Helvetica,sans-Serif" font-size="10.00">main.c</text>
</a>
</g>
</g>
<!-- Node2&#45;&gt;Node3 -->
<g id="edge2_Node000002_Node000003" class="edge">
<title>Node2&#45;&gt;Node3</title>
<g id="a_edge2_Node000002_Node000003"><a xlink:title=" ">
<path fill="none" stroke="#63b8ff" d="M148.2,-115.53C105.01,-108.65 39.83,-95.35 24.62,-76 11.93,-59.84 16.27,-33.81 19.85,-20.1"/>
<polygon fill="#63b8ff" stroke="#63b8ff" points="147.56,-118.97 157.97,-117.03 148.62,-112.05 147.56,-118.97"/>
</a>
</g>
</g>
<!-- Node4 -->
<g id="Node000004" class="node">
<title>Node4</title>
<g id="a_Node000004"><a xlink:href="tinyusb_8c.html" target="_top" xlink:title=" ">
<polygon fill="white" stroke="#666666" points="89.5,-76 33.75,-76 33.75,-56 89.5,-56 89.5,-76"/>
<text xml:space="preserve" text-anchor="middle" x="61.62" y="-62.5" font-family="Helvetica,sans-Serif" font-size="10.00">tinyusb.c</text>
</a>
</g>
</g>
<!-- Node2&#45;&gt;Node4 -->
<g id="edge3_Node000002_Node000004" class="edge">
<title>Node2&#45;&gt;Node4</title>
<g id="a_edge3_Node000002_Node000004"><a xlink:title=" ">
<path fill="none" stroke="#63b8ff" d="M155.29,-107.14C132.85,-97.52 103.55,-84.97 83.74,-76.48"/>
<polygon fill="#63b8ff" stroke="#63b8ff" points="153.72,-110.28 164.29,-111 156.47,-103.84 153.72,-110.28"/>
</a>
</g>
</g>
<!-- Node5 -->
<g id="Node000005" class="node">
<title>Node5</title>
<g id="a_Node000005"><a xlink:href="tusb__cdc__acm_8h.html" target="_top" xlink:title=" ">
<polygon fill="white" stroke="#666666" points="195.62,-76 107.62,-76 107.62,-56 195.62,-56 195.62,-76"/>
<text xml:space="preserve" text-anchor="middle" x="151.62" y="-62.5" font-family="Helvetica,sans-Serif" font-size="10.00">tusb_cdc_acm.h</text>
</a>
</g>
</g>
<!-- Node2&#45;&gt;Node5 -->
<g id="edge4_Node000002_Node000005" class="edge">
<title>Node2&#45;&gt;Node5</title>
<g id="a_edge4_Node000002_Node000005"><a xlink:title=" ">
<path fill="none" stroke="#63b8ff" d="M175.06,-102.15C169.23,-93.4 162.55,-83.39 157.82,-76.3"/>
<polygon fill="#63b8ff" stroke="#63b8ff" points="172.06,-103.96 180.51,-110.33 177.88,-100.07 172.06,-103.96"/>
</a>
</g>
</g>
<!-- Node7 -->
<g id="Node000007" class="node">
<title>Node7</title>
<g id="a_Node000007"><a xlink:href="vfs__tinyusb_8c.html" target="_top" xlink:title=" ">
<polygon fill="white" stroke="#666666" points="260.88,-20 186.38,-20 186.38,0 260.88,0 260.88,-20"/>
<text xml:space="preserve" text-anchor="middle" x="223.62" y="-6.5" font-family="Helvetica,sans-Serif" font-size="10.00">vfs_tinyusb.c</text>
</a>
</g>
</g>
<!-- Node2&#45;&gt;Node7 -->
<g id="edge10_Node000002_Node000007" class="edge">
<title>Node2&#45;&gt;Node7</title>
<g id="a_edge10_Node000002_Node000007"><a xlink:title=" ">
<path fill="none" stroke="#63b8ff" d="M195.49,-101.16C198.49,-93.37 201.85,-84.31 204.62,-76 211.19,-56.38 217.71,-33.01 221.14,-20.33"/>
<polygon fill="#63b8ff" stroke="#63b8ff" points="192.28,-99.77 191.9,-110.36 198.8,-102.32 192.28,-99.77"/>
</a>
</g>
</g>
<!-- Node8 -->
<g id="Node000008" class="node">
<title>Node8</title>
<g id="a_Node000008"><a xlink:href="tusb__console_8c.html" target="_top" xlink:title=" ">
<polygon fill="white" stroke="#666666" points="333.62,-76 251.62,-76 251.62,-56 333.62,-56 333.62,-76"/>
<text xml:space="preserve" text-anchor="middle" x="292.62" y="-62.5" font-family="Helvetica,sans-Serif" font-size="10.00">tusb_console.c</text>
</a>
</g>
</g>
<!-- Node2&#45;&gt;Node8 -->
<g id="edge8_Node000002_Node000008" class="edge">
<title>Node2&#45;&gt;Node8</title>
<g id="a_edge8_Node000002_Node000008"><a xlink:title=" ">
<path fill="none" stroke="#63b8ff" d="M216.12,-106.35C234.6,-96.84 258.14,-84.74 274.19,-76.48"/>
<polygon fill="#63b8ff" stroke="#63b8ff" points="214.55,-103.22 207.26,-110.9 217.75,-109.44 214.55,-103.22"/>
</a>
</g>
</g>
<!-- Node9 -->
<g id="Node000009" class="node">
<title>Node9</title>
<g id="a_Node000009"><a xlink:href="tusb__tasks_8c.html" target="_top" xlink:title=" ">
<polygon fill="white" stroke="#666666" points="423.75,-76 351.5,-76 351.5,-56 423.75,-56 423.75,-76"/>
<text xml:space="preserve" text-anchor="middle" x="387.62" y="-62.5" font-family="Helvetica,sans-Serif" font-size="10.00">tusb_tasks.c</text>
</a>
</g>
</g>
<!-- Node2&#45;&gt;Node9 -->
<g id="edge9_Node000002_Node000009" class="edge">
<title>Node2&#45;&gt;Node9</title>
<g id="a_edge9_Node000002_Node000009"><a xlink:title=" ">
<path fill="none" stroke="#63b8ff" d="M226.59,-110.48C263.11,-100.62 317.23,-86.01 352.47,-76.49"/>
<polygon fill="#63b8ff" stroke="#63b8ff" points="226.06,-107 217.32,-112.98 227.88,-113.76 226.06,-107"/>
</a>
</g>
</g>
<!-- Node5&#45;&gt;Node3 -->
<g id="edge5_Node000005_Node000003" class="edge">
<title>Node5&#45;&gt;Node3</title>
<g id="a_edge5_Node000005_Node000003"><a xlink:title=" ">
<path fill="none" stroke="#63b8ff" d="M118.83,-51.27C95.82,-41.64 65.64,-29.01 45.27,-20.48"/>
<polygon fill="#63b8ff" stroke="#63b8ff" points="117.18,-54.38 127.76,-55.01 119.89,-47.92 117.18,-54.38"/>
</a>
</g>
</g>
<!-- Node6 -->
<g id="Node000006" class="node">
<title>Node6</title>
<g id="a_Node000006"><a xlink:href="tusb__cdc__acm_8c.html" target="_top" xlink:title=" ">
<polygon fill="white" stroke="#666666" points="168.62,-20 80.62,-20 80.62,0 168.62,0 168.62,-20"/>
<text xml:space="preserve" text-anchor="middle" x="124.62" y="-6.5" font-family="Helvetica,sans-Serif" font-size="10.00">tusb_cdc_acm.c</text>
</a>
</g>
</g>
<!-- Node5&#45;&gt;Node6 -->
<g id="edge6_Node000005_Node000006" class="edge">
<title>Node5&#45;&gt;Node6</title>
<g id="a_edge6_Node000005_Node000006"><a xlink:title=" ">
<path fill="none" stroke="#63b8ff" d="M141.91,-45.58C137.61,-36.97 132.74,-27.24 129.27,-20.3"/>
<polygon fill="#63b8ff" stroke="#63b8ff" points="138.64,-46.86 146.25,-54.24 144.9,-43.73 138.64,-46.86"/>
</a>
</g>
</g>
<!-- Node5&#45;&gt;Node7 -->
<g id="edge7_Node000005_Node000007" class="edge">
<title>Node5&#45;&gt;Node7</title>
<g id="a_edge7_Node000005_Node000007"><a xlink:title=" ">
<path fill="none" stroke="#63b8ff" d="M173.02,-48.95C185.47,-39.61 200.74,-28.16 211.23,-20.3"/>
<polygon fill="#63b8ff" stroke="#63b8ff" points="171.28,-45.89 165.38,-54.69 175.48,-51.49 171.28,-45.89"/>
</a>
</g>
</g>
</g>
</svg>
