<?xml version="1.0" encoding="UTF-8" standalone="no"?>
<!DOCTYPE svg PUBLIC "-//W3C//DTD SVG 1.1//EN"
 "http://www.w3.org/Graphics/SVG/1.1/DTD/svg11.dtd">
<!-- Generated by graphviz version 14.1.2 (20260124.0452)
 -->
<!-- Title: tusb_cdc_acm_init Pages: 1 -->
<!--zoomable 332 -->

<svg id="main" version="1.1" xmlns="http://www.w3.org/2000/svg" xmlns:xlink="http://www.w3.org/1999/xlink" xml:space="preserve" onload="init(evt)">

<style type="text/css"><![CDATA[
.node, .edge {opacity: 0.7;}
.node.selected, .edge.selected {opacity: 1;}
.edge:hover path { stroke: red; }
.edge:hover polygon { stroke: red; fill: red; }
]]></style>

<defs>
  <circle id="rim" cx="0" cy="0" r="7"/>
  <circle id="rim2" cx="0" cy="0" r="3.5"/>
  <g id="zoomPlus">
    <use xlink:href="#rim" fill="#404040"><set attributeName="fill" to="#808080" begin="zoomplus.mouseover" end="zoomplus.mouseout"/></use>
    <path d="M-4,0h8M0,-4v8" fill="none" stroke="white" stroke-width="1.5" pointer-events="none"/>
  </g>
  <g id="zoomMin">
    <use xlink:href="#rim" fill="#404040"><set attributeName="fill" to="#808080" begin="zoomminus.mouseover" end="zoomminus.mouseout"/></use>
    <path d="M-4,0h8" fill="none" stroke="white" stroke-width="1.5" pointer-events="none"/>
  </g>
  <g id="arrowUp" transform="translate(30 24)">
    <use xlink:href="#rim"/>
    <path pointer-events="none" fill="none" stroke="white" stroke-width="1.5" d="M0,-3.0v7 M-2.5,-0.5L0,-3.0L2.5,-0.5"/>
  </g>
  <g id="arrowRight" transform="rotate(90) translate(36 -43)">
    <use xlink:href="#rim"/>
    <path pointer-events="none" fill="none" stroke="white" stroke-width="1.5" d="M0,-3.0v7 M-2.5,-0.5L0,-3.0L2.5,-0.5"/>
  </g>
  <g id="arrowDown" transform="rotate(180) translate(-30 -48)">
    <use xlink:href="#rim"/>
    <path pointer-events="none" fill="none" stroke="white" stroke-width="1.5" d="M0,-3.0v7 M-2.5,-0.5L0,-3.0L2.5,-0.5"/>
  </g>
  <g id="arrowLeft" transform="rotate(270) translate(-36 17)">
    <use xlink:href="#rim"/>
    <path pointer-events="none" fill="none" stroke="white" stroke-width="1.5" d="M0,-3.0v7 M-2.5,-0.5L0,-3.0L2.5,-0.5"/>
  </g>
  <g id="resetDef">
    <use xlink:href="#rim2" fill="#404040"><set attributeName="fill" to="#808080" begin="reset.mouseover" end="reset.mouseout"/></use>
  </g>
</defs>
<script type="application/ecmascript">
var viewWidth = 678;
var viewHeight = 332;
var sectionId = 'dynsection-12';
</script>
<script type="application/ecmascript" xlink:href="svg.min.js"/>
<svg id="graph" class="graph">
<g id="viewport">
<title>tusb_cdc_acm_init</title>
<!-- Node1 -->
<g id="Node000001" class="node">
<title>Node1</title>
<g id="a_Node000001"><a xlink:title="Initialize CDC ACM. Initialization will be finished with the tud_cdc_line_state_cb callback.">
<polygon fill="#999999" stroke="#666666" points="97.75,-226 0,-226 0,-206 97.75,-206 97.75,-226"/>
<text xml:space="preserve" text-anchor="middle" x="48.88" y="-212.5" font-family="Helvetica,sans-Serif" font-size="10.00">tusb_cdc_acm_init</text>
</a>
</g>
</g>
<!-- Node2 -->
<g id="Node000002" class="node">
<title>Node2</title>
<g id="a_Node000002"><a xlink:href="tusb__cdc__acm_8c.html#a741ac1f2bfdd0dbf9824ff83c025ded2" target="_top" xlink:title=" ">
<polygon fill="white" stroke="#666666" points="514.75,-324 460.5,-324 460.5,-304 514.75,-304 514.75,-324"/>
<text xml:space="preserve" text-anchor="middle" x="487.62" y="-310.5" font-family="Helvetica,sans-Serif" font-size="10.00">alloc_obj</text>
</a>
</g>
</g>
<!-- Node1&#45;&gt;Node2 -->
<g id="edge1_Node000001_Node000002" class="edge">
<title>Node1&#45;&gt;Node2</title>
<g id="a_edge1_Node000001_Node000002"><a xlink:title=" ">
<path fill="none" stroke="#63b8ff" d="M64.21,-226.48C80.29,-237.68 107.56,-255.02 133.75,-264 243.95,-301.78 382.93,-311.03 448.75,-313.29"/>
<polygon fill="#63b8ff" stroke="#63b8ff" points="448.55,-316.78 458.65,-313.58 448.76,-309.78 448.55,-316.78"/>
</a>
</g>
</g>
<!-- Node4 -->
<g id="Node000004" class="node">
<title>Node4</title>
<g id="a_Node000004"><a xlink:href="tusb__cdc__acm_8c.html#a7778a4c7a5f7c7f5d1324b7a8f67c682" target="_top" xlink:title=" ">
<polygon fill="white" stroke="#666666" points="512.88,-286 462.38,-286 462.38,-266 512.88,-266 512.88,-286"/>
<text xml:space="preserve" text-anchor="middle" x="487.62" y="-272.5" font-family="Helvetica,sans-Serif" font-size="10.00">free_obj</text>
</a>
</g>
</g>
<!-- Node1&#45;&gt;Node4 -->
<g id="edge3_Node000001_Node000004" class="edge">
<title>Node1&#45;&gt;Node4</title>
<g id="a_edge3_Node000001_Node000004"><a xlink:title=" ">
<path fill="none" stroke="#63b8ff" d="M79.81,-226.43C95.66,-231.57 115.56,-237.42 133.75,-241 248.09,-263.52 386.28,-271.87 450.53,-274.7"/>
<polygon fill="#63b8ff" stroke="#63b8ff" points="450.35,-278.19 460.49,-275.11 450.65,-271.2 450.35,-278.19"/>
</a>
</g>
</g>
<!-- Node5 -->
<g id="Node000005" class="node">
<title>Node5</title>
<g id="a_Node000005"><a xlink:href="tusb__cdc__acm_8c.html#ab24ee802c4641898cbc524df38a75dc1" target="_top" xlink:title=" ">
<polygon fill="white" stroke="#666666" points="379.5,-248 326,-248 326,-228 379.5,-228 379.5,-248"/>
<text xml:space="preserve" text-anchor="middle" x="352.75" y="-234.5" font-family="Helvetica,sans-Serif" font-size="10.00">get_acm</text>
</a>
</g>
</g>
<!-- Node1&#45;&gt;Node5 -->
<g id="edge5_Node000001_Node000005" class="edge">
<title>Node1&#45;&gt;Node5</title>
<g id="a_edge5_Node000001_Node000005"><a xlink:title=" ">
<path fill="none" stroke="#63b8ff" d="M98.04,-219.51C158.21,-223.9 259.88,-231.3 314.46,-235.28"/>
<polygon fill="#63b8ff" stroke="#63b8ff" points="313.94,-238.75 324.17,-235.99 314.45,-231.77 313.94,-238.75"/>
</a>
</g>
</g>
<!-- Node6 -->
<g id="Node000006" class="node">
<title>Node6</title>
<g id="a_Node000006"><a xlink:href="cdc_8c.html#a0fea5ebace85419b82be50d14552a846" target="_top" xlink:title="De&#45;initializing CDC. Clean its objects.">
<polygon fill="white" stroke="#666666" points="244.62,-160 147.62,-160 147.62,-140 244.62,-140 244.62,-160"/>
<text xml:space="preserve" text-anchor="middle" x="196.12" y="-146.5" font-family="Helvetica,sans-Serif" font-size="10.00">tinyusb_cdc_deinit</text>
</a>
</g>
</g>
<!-- Node1&#45;&gt;Node6 -->
<g id="edge7_Node000001_Node000006" class="edge">
<title>Node1&#45;&gt;Node6</title>
<g id="a_edge7_Node000001_Node000006"><a xlink:title=" ">
<path fill="none" stroke="#63b8ff" d="M66.06,-205.57C82.58,-195.26 109.21,-179.54 133.75,-169 137.79,-167.27 142.03,-165.62 146.33,-164.07"/>
<polygon fill="#63b8ff" stroke="#63b8ff" points="147.25,-167.45 155.59,-160.91 144.99,-160.83 147.25,-167.45"/>
</a>
</g>
</g>
<!-- Node10 -->
<g id="Node000010" class="node">
<title>Node10</title>
<g id="a_Node000010"><a xlink:href="cdc_8c.html#ae8ab12e178b5e70f3da27e93d8d91a90" target="_top" xlink:title="Initializing CDC basic object.">
<polygon fill="white" stroke="#666666" points="239.38,-77 152.88,-77 152.88,-57 239.38,-57 239.38,-77"/>
<text xml:space="preserve" text-anchor="middle" x="196.12" y="-63.5" font-family="Helvetica,sans-Serif" font-size="10.00">tinyusb_cdc_init</text>
</a>
</g>
</g>
<!-- Node1&#45;&gt;Node10 -->
<g id="edge14_Node000001_Node000010" class="edge">
<title>Node1&#45;&gt;Node10</title>
<g id="a_edge14_Node000001_Node000010"><a xlink:title=" ">
<path fill="none" stroke="#63b8ff" d="M59.86,-205.76C84.11,-180.88 146.41,-116.98 177.26,-85.33"/>
<polygon fill="#63b8ff" stroke="#63b8ff" points="179.54,-88 184.02,-78.4 174.53,-83.11 179.54,-88"/>
</a>
</g>
</g>
<!-- Node13 -->
<g id="Node000013" class="node">
<title>Node13</title>
<g id="a_Node000013"><a xlink:href="tusb__cdc__acm_8c.html#a486320904bb5b4cdc3fe0ab8ed1a6f19" target="_top" xlink:title="Register a callback invoking on CDC event. If the callback had been already registered,...">
<polygon fill="white" stroke="#666666" points="258.5,-210 133.75,-210 133.75,-178 258.5,-178 258.5,-210"/>
<text xml:space="preserve" text-anchor="start" x="141.75" y="-196.5" font-family="Helvetica,sans-Serif" font-size="10.00">tinyusb_cdcacm_register</text>
<text xml:space="preserve" text-anchor="middle" x="196.12" y="-184.5" font-family="Helvetica,sans-Serif" font-size="10.00">_callback</text>
</a>
</g>
</g>
<!-- Node1&#45;&gt;Node13 -->
<g id="edge20_Node000001_Node000013" class="edge">
<title>Node1&#45;&gt;Node13</title>
<g id="a_edge20_Node000001_Node000013"><a xlink:title=" ">
<path fill="none" stroke="#63b8ff" d="M98.24,-208.67C105.87,-207.52 113.9,-206.3 121.94,-205.08"/>
<polygon fill="#63b8ff" stroke="#63b8ff" points="122.42,-208.55 131.78,-203.59 121.37,-201.63 122.42,-208.55"/>
</a>
</g>
</g>
<!-- Node3 -->
<g id="Node000003" class="node">
<title>Node3</title>
<g id="a_Node000003"><a xlink:href="cdc_8c.html#a19af1be61f3d48fb87311dd61c06cbae" target="_top" xlink:title="Return interface of a CDC device.">
<polygon fill="white" stroke="#666666" points="670.25,-267 564.25,-267 564.25,-247 670.25,-247 670.25,-267"/>
<text xml:space="preserve" text-anchor="middle" x="617.25" y="-253.5" font-family="Helvetica,sans-Serif" font-size="10.00">tinyusb_cdc_get_intf</text>
</a>
</g>
</g>
<!-- Node2&#45;&gt;Node3 -->
<g id="edge2_Node000002_Node000003" class="edge">
<title>Node2&#45;&gt;Node3</title>
<g id="a_edge2_Node000002_Node000003"><a xlink:title=" ">
<path fill="none" stroke="#63b8ff" d="M512.03,-303.55C531.82,-294.71 560.42,-281.94 582.65,-272.01"/>
<polygon fill="#63b8ff" stroke="#63b8ff" points="583.9,-275.28 591.61,-268.01 581.05,-268.89 583.9,-275.28"/>
</a>
</g>
</g>
<!-- Node4&#45;&gt;Node3 -->
<g id="edge4_Node000004_Node000003" class="edge">
<title>Node4&#45;&gt;Node3</title>
<g id="a_edge4_Node000004_Node000003"><a xlink:title=" ">
<path fill="none" stroke="#63b8ff" d="M513.23,-272.34C524.61,-270.64 538.69,-268.55 552.76,-266.45"/>
<polygon fill="#63b8ff" stroke="#63b8ff" points="553.11,-269.94 562.49,-265 552.08,-263.01 553.11,-269.94"/>
</a>
</g>
</g>
<!-- Node5&#45;&gt;Node3 -->
<g id="edge6_Node000005_Node000003" class="edge">
<title>Node5&#45;&gt;Node3</title>
<g id="a_edge6_Node000005_Node000003"><a xlink:title=" ">
<path fill="none" stroke="#63b8ff" d="M379.88,-239.89C419.77,-242.78 497.05,-248.37 552.4,-252.38"/>
<polygon fill="#63b8ff" stroke="#63b8ff" points="552.11,-255.87 562.34,-253.1 552.62,-248.89 552.11,-255.87"/>
</a>
</g>
</g>
<!-- Node7 -->
<g id="Node000007" class="node">
<title>Node7</title>
<g id="a_Node000007"><a xlink:href="cdc_8c.html#a53a3cac48508654d002fa4d573f87504" target="_top" xlink:title=" ">
<polygon fill="white" stroke="#666666" points="528.25,-134 447,-134 447,-114 528.25,-114 528.25,-134"/>
<text xml:space="preserve" text-anchor="middle" x="487.62" y="-120.5" font-family="Helvetica,sans-Serif" font-size="10.00">cdc_obj_check</text>
</a>
</g>
</g>
<!-- Node6&#45;&gt;Node7 -->
<g id="edge8_Node000006_Node000007" class="edge">
<title>Node6&#45;&gt;Node7</title>
<g id="a_edge8_Node000006_Node000007"><a xlink:title=" ">
<path fill="none" stroke="#63b8ff" d="M231.25,-160.42C240.14,-163.17 249.69,-166.17 258.5,-169 274.56,-174.16 277.85,-178.3 294.5,-181 345.61,-189.29 361.9,-197.43 411,-181 433.98,-173.31 455.57,-155.58 469.75,-141.92"/>
<polygon fill="#63b8ff" stroke="#63b8ff" points="471.93,-144.69 476.5,-135.14 466.97,-139.75 471.93,-144.69"/>
</a>
</g>
</g>
<!-- Node8 -->
<g id="Node000008" class="node">
<title>Node8</title>
<g id="a_Node000008"><a xlink:href="cdc_8c.html#a4475f282177737b28e4f3c87051e10a0" target="_top" xlink:title=" ">
<polygon fill="white" stroke="#666666" points="411,-172 294.5,-172 294.5,-152 411,-152 411,-172"/>
<text xml:space="preserve" text-anchor="middle" x="352.75" y="-158.5" font-family="Helvetica,sans-Serif" font-size="10.00">tusb_cdc_deinit_comm</text>
</a>
</g>
</g>
<!-- Node6&#45;&gt;Node8 -->
<g id="edge10_Node000006_Node000008" class="edge">
<title>Node6&#45;&gt;Node8</title>
<g id="a_edge10_Node000006_Node000008"><a xlink:title=" ">
<path fill="none" stroke="#63b8ff" d="M244.78,-153.7C256.86,-154.64 270.08,-155.66 282.97,-156.66"/>
<polygon fill="#63b8ff" stroke="#63b8ff" points="282.44,-160.13 292.68,-157.42 282.98,-153.15 282.44,-160.13"/>
</a>
</g>
</g>
<!-- Node9 -->
<g id="Node000009" class="node">
<title>Node9</title>
<g id="a_Node000009"><a xlink:href="cdc_8c.html#a72a407d111850958c2a043f05798308f" target="_top" xlink:title=" ">
<polygon fill="white" stroke="#666666" points="406.88,-134 298.62,-134 298.62,-114 406.88,-114 406.88,-134"/>
<text xml:space="preserve" text-anchor="middle" x="352.75" y="-120.5" font-family="Helvetica,sans-Serif" font-size="10.00">tusb_cdc_deinit_data</text>
</a>
</g>
</g>
<!-- Node6&#45;&gt;Node9 -->
<g id="edge12_Node000006_Node000009" class="edge">
<title>Node6&#45;&gt;Node9</title>
<g id="a_edge12_Node000006_Node000009"><a xlink:title=" ">
<path fill="none" stroke="#63b8ff" d="M244.78,-141.99C258.15,-139.74 272.92,-137.25 287.11,-134.87"/>
<polygon fill="#63b8ff" stroke="#63b8ff" points="287.54,-138.35 296.83,-133.24 286.38,-131.44 287.54,-138.35"/>
</a>
</g>
</g>
<!-- Node7&#45;&gt;Node3 -->
<g id="edge9_Node000007_Node000003" class="edge">
<title>Node7&#45;&gt;Node3</title>
<g id="a_edge9_Node000007_Node000003"><a xlink:title=" ">
<path fill="none" stroke="#63b8ff" d="M498.64,-134.44C520.17,-156.87 571.1,-209.95 598.34,-238.33"/>
<polygon fill="#63b8ff" stroke="#63b8ff" points="595.78,-240.73 605.23,-245.52 600.84,-235.88 595.78,-240.73"/>
</a>
</g>
</g>
<!-- Node8&#45;&gt;Node7 -->
<g id="edge11_Node000008_Node000007" class="edge">
<title>Node8&#45;&gt;Node7</title>
<g id="a_edge11_Node000008_Node000007"><a xlink:title=" ">
<path fill="none" stroke="#63b8ff" d="M390.41,-151.52C405.51,-147.2 423.21,-142.14 439.27,-137.54"/>
<polygon fill="#63b8ff" stroke="#63b8ff" points="439.98,-140.98 448.63,-134.87 438.05,-134.25 439.98,-140.98"/>
</a>
</g>
</g>
<!-- Node9&#45;&gt;Node7 -->
<g id="edge13_Node000009_Node000007" class="edge">
<title>Node9&#45;&gt;Node7</title>
<g id="a_edge13_Node000009_Node000007"><a xlink:title=" ">
<path fill="none" stroke="#63b8ff" d="M407.03,-124C416.37,-124 426.07,-124 435.36,-124"/>
<polygon fill="#63b8ff" stroke="#63b8ff" points="435.32,-127.5 445.32,-124 435.32,-120.5 435.32,-127.5"/>
</a>
</g>
</g>
<!-- Node10&#45;&gt;Node7 -->
<g id="edge15_Node000010_Node000007" class="edge">
<title>Node10&#45;&gt;Node7</title>
<g id="a_edge15_Node000010_Node000007"><a xlink:title=" ">
<path fill="none" stroke="#63b8ff" d="M239.5,-73.63C282.77,-80.61 351.81,-92.32 411,-105 419.1,-106.73 427.65,-108.73 435.97,-110.75"/>
<polygon fill="#63b8ff" stroke="#63b8ff" points="435.09,-114.14 445.64,-113.15 436.77,-107.35 435.09,-114.14"/>
</a>
</g>
</g>
<!-- Node11 -->
<g id="Node000011" class="node">
<title>Node11</title>
<g id="a_Node000011"><a xlink:href="cdc_8c.html#a36449a7b8addc224dc809d01cc5c887c" target="_top" xlink:title=" ">
<polygon fill="white" stroke="#666666" points="405.75,-58 299.75,-58 299.75,-38 405.75,-38 405.75,-58"/>
<text xml:space="preserve" text-anchor="middle" x="352.75" y="-44.5" font-family="Helvetica,sans-Serif" font-size="10.00">tusb_cdc_comm_init</text>
</a>
</g>
</g>
<!-- Node10&#45;&gt;Node11 -->
<g id="edge16_Node000010_Node000011" class="edge">
<title>Node10&#45;&gt;Node11</title>
<g id="a_edge16_Node000010_Node000011"><a xlink:title=" ">
<path fill="none" stroke="#63b8ff" d="M239.79,-61.76C254.75,-59.92 271.89,-57.81 288.19,-55.81"/>
<polygon fill="#63b8ff" stroke="#63b8ff" points="288.31,-59.32 297.81,-54.63 287.45,-52.37 288.31,-59.32"/>
</a>
</g>
</g>
<!-- Node12 -->
<g id="Node000012" class="node">
<title>Node12</title>
<g id="a_Node000012"><a xlink:href="cdc_8c.html#aab3601e6d925be67b313996c6ed6cf37" target="_top" xlink:title=" ">
<polygon fill="white" stroke="#666666" points="401.62,-20 303.88,-20 303.88,0 401.62,0 401.62,-20"/>
<text xml:space="preserve" text-anchor="middle" x="352.75" y="-6.5" font-family="Helvetica,sans-Serif" font-size="10.00">tusb_cdc_data_init</text>
</a>
</g>
</g>
<!-- Node10&#45;&gt;Node12 -->
<g id="edge18_Node000010_Node000012" class="edge">
<title>Node10&#45;&gt;Node12</title>
<g id="a_edge18_Node000010_Node000012"><a xlink:title=" ">
<path fill="none" stroke="#63b8ff" d="M222.62,-56.64C242.18,-48.78 269.92,-37.87 294.5,-29 298.99,-27.38 303.69,-25.74 308.39,-24.13"/>
<polygon fill="#63b8ff" stroke="#63b8ff" points="309.46,-27.46 317.82,-20.95 307.23,-20.83 309.46,-27.46"/>
</a>
</g>
</g>
<!-- Node11&#45;&gt;Node7 -->
<g id="edge17_Node000011_Node000007" class="edge">
<title>Node11&#45;&gt;Node7</title>
<g id="a_edge17_Node000011_Node000007"><a xlink:title=" ">
<path fill="none" stroke="#63b8ff" d="M381.95,-58.48C391.38,-62.33 401.82,-66.99 411,-72 429.82,-82.27 449.74,-96.11 464.41,-106.93"/>
<polygon fill="#63b8ff" stroke="#63b8ff" points="461.92,-109.43 472.02,-112.62 466.11,-103.83 461.92,-109.43"/>
</a>
</g>
</g>
<!-- Node12&#45;&gt;Node7 -->
<g id="edge19_Node000012_Node000007" class="edge">
<title>Node12&#45;&gt;Node7</title>
<g id="a_edge19_Node000012_Node000007"><a xlink:title=" ">
<path fill="none" stroke="#63b8ff" d="M394.88,-20.4C400.55,-22.75 406.11,-25.58 411,-29 439.39,-48.82 462.48,-82.31 475.39,-103.78"/>
<polygon fill="#63b8ff" stroke="#63b8ff" points="472.22,-105.3 480.27,-112.19 478.28,-101.79 472.22,-105.3"/>
</a>
</g>
</g>
<!-- Node13&#45;&gt;Node5 -->
<g id="edge21_Node000013_Node000005" class="edge">
<title>Node13&#45;&gt;Node5</title>
<g id="a_edge21_Node000013_Node000005"><a xlink:title=" ">
<path fill="none" stroke="#63b8ff" d="M254.7,-210.38C274.8,-216.1 296.81,-222.37 314.77,-227.48"/>
<polygon fill="#63b8ff" stroke="#63b8ff" points="313.63,-230.79 324.21,-230.16 315.55,-224.06 313.63,-230.79"/>
</a>
</g>
</g>
</g>
</svg>

<g id="navigator" transform="translate(0 0)" fill="#404254">
  <rect fill="#f2f5e9" fill-opacity="0.5" stroke="#606060" stroke-width=".5" x="0" y="0" width="60" height="60"/>
  <use id="zoomplus" xlink:href="#zoomPlus" x="17" y="9" onmousedown="handleZoom(evt,'in')"/>
  <use id="zoomminus" xlink:href="#zoomMin" x="42" y="9" onmousedown="handleZoom(evt,'out')"/>
  <use id="reset" xlink:href="#resetDef" x="30" y="36" onmousedown="handleReset()"/>
   <use id="arrowup" xlink:href="#arrowUp" x="0" y="0" onmousedown="handlePan(0,-1)"/>
  <use id="arrowright" xlink:href="#arrowRight" x="0" y="0" onmousedown="handlePan(1,0)"/>
  <use id="arrowdown" xlink:href="#arrowDown" x="0" y="0" onmousedown="handlePan(0,1)"/>
  <use id="arrowleft" xlink:href="#arrowLeft" x="0" y="0" onmousedown="handlePan(-1,0)"/>
</g>
<svg viewBox="0 0 15 15" width="100%" height="30px" preserveAspectRatio="xMaxYMin meet">
 <g id="arrow_out" transform="scale(0.3 0.3)">
  <a xlink:href="tusb__cdc__acm_8h_aa240a058986c6de30a807ec424e6ab80_cgraph_org.svg" target="_base">
   <rect id="button" ry="5" rx="5" y="6" x="6" height="38" width="38"
        fill="#f2f5e9" fill-opacity="0.5" stroke="#606060" stroke-width="1.0"/>
   <path id="arrow"
     d="M 11.500037,31.436501 C 11.940474,20.09759 22.043105,11.32322 32.158766,21.979434 L 37.068811,17.246167 C 37.068811,17.246167 37.088388,32 37.088388,32 L 22.160133,31.978069 C 22.160133,31.978069 26.997745,27.140456 26.997745,27.140456 C 18.528582,18.264221 13.291696,25.230495 11.500037,31.436501 z"
     style="fill:#404040;"/>
  </a>
 </g>
</svg>

<style type='text/css'>
<![CDATA[
[data-mouse-over-selected='false'] { opacity: 0.7; }
[data-mouse-over-selected='true']  { opacity: 1.0; }
]]>
</style>
<script type="application/ecmascript"><![CDATA[
document.addEventListener('DOMContentLoaded', (event) => {
  highlightEdges();
  highlightAdjacentNodes();
});
]]></script>
</svg>
