<?xml version="1.0" encoding="UTF-8" standalone="no"?>
<!DOCTYPE svg PUBLIC "-//W3C//DTD SVG 1.1//EN"
 "http://www.w3.org/Graphics/SVG/1.1/DTD/svg11.dtd">
<!-- Generated by graphviz version 14.1.2 (20260124.0452)
 -->
<!-- Title: tusb_cdc_acm.h Pages: 1 -->
<svg width="786pt" height="196pt"
 viewBox="0.00 0.00 786.00 196.00" xmlns="http://www.w3.org/2000/svg" xmlns:xlink="http://www.w3.org/1999/xlink">
<g id="graph0" class="graph" transform="scale(1 1) rotate(0) translate(4 192)">
<title>tusb_cdc_acm.h</title>
<!-- Node1 -->
<g id="Node000001" class="node">
<title>Node1</title>
<g id="a_Node000001"><a xlink:title=" ">
<polygon fill="#999999" stroke="#666666" points="336.12,-188 248.12,-188 248.12,-168 336.12,-168 336.12,-188"/>
<text xml:space="preserve" text-anchor="middle" x="292.12" y="-174.5" font-family="Helvetica,sans-Serif" font-size="10.00">tusb_cdc_acm.h</text>
</a>
</g>
</g>
<!-- Node2 -->
<g id="Node000002" class="node">
<title>Node2</title>
<g id="a_Node000002"><a xlink:title=" ">
<polygon fill="#e0e0e0" stroke="#999999" points="48.25,-132 0,-132 0,-112 48.25,-112 48.25,-132"/>
<text xml:space="preserve" text-anchor="middle" x="24.12" y="-118.5" font-family="Helvetica,sans-Serif" font-size="10.00">stdint.h</text>
</a>
</g>
</g>
<!-- Node1&#45;&gt;Node2 -->
<g id="edge1_Node000001_Node000002" class="edge">
<title>Node1&#45;&gt;Node2</title>
<g id="a_edge1_Node000001_Node000002"><a xlink:title=" ">
<path fill="none" stroke="#63b8ff" d="M247.95,-169.44C203.06,-161.55 131.3,-148.37 59.62,-132.2"/>
<polygon fill="#63b8ff" stroke="#63b8ff" points="60.59,-128.84 50.07,-130.03 59.04,-135.66 60.59,-128.84"/>
</a>
</g>
</g>
<!-- Node3 -->
<g id="Node000003" class="node">
<title>Node3</title>
<g id="a_Node000003"><a xlink:title=" ">
<polygon fill="#e0e0e0" stroke="#999999" points="173.5,-132 66.75,-132 66.75,-112 173.5,-112 173.5,-132"/>
<text xml:space="preserve" text-anchor="middle" x="120.12" y="-118.5" font-family="Helvetica,sans-Serif" font-size="10.00">freertos/FreeRTOS.h</text>
</a>
</g>
</g>
<!-- Node1&#45;&gt;Node3 -->
<g id="edge2_Node000001_Node000003" class="edge">
<title>Node1&#45;&gt;Node3</title>
<g id="a_edge2_Node000001_Node000003"><a xlink:title=" ">
<path fill="none" stroke="#63b8ff" d="M262.16,-167.59C234.22,-158.82 192.29,-145.66 161.23,-135.9"/>
<polygon fill="#63b8ff" stroke="#63b8ff" points="162.35,-132.59 151.76,-132.93 160.26,-139.27 162.35,-132.59"/>
</a>
</g>
</g>
<!-- Node4 -->
<g id="Node000004" class="node">
<title>Node4</title>
<g id="a_Node000004"><a xlink:title=" ">
<polygon fill="#e0e0e0" stroke="#999999" points="284.38,-132 191.88,-132 191.88,-112 284.38,-112 284.38,-132"/>
<text xml:space="preserve" text-anchor="middle" x="238.12" y="-118.5" font-family="Helvetica,sans-Serif" font-size="10.00">freertos/semphr.h</text>
</a>
</g>
</g>
<!-- Node1&#45;&gt;Node4 -->
<g id="edge3_Node000001_Node000004" class="edge">
<title>Node1&#45;&gt;Node4</title>
<g id="a_edge3_Node000001_Node000004"><a xlink:title=" ">
<path fill="none" stroke="#63b8ff" d="M282.72,-167.59C275.21,-160.08 264.48,-149.35 255.43,-140.3"/>
<polygon fill="#63b8ff" stroke="#63b8ff" points="258.04,-137.96 248.49,-133.37 253.09,-142.91 258.04,-137.96"/>
</a>
</g>
</g>
<!-- Node5 -->
<g id="Node000005" class="node">
<title>Node5</title>
<g id="a_Node000005"><a xlink:title=" ">
<polygon fill="#e0e0e0" stroke="#999999" points="389.75,-132 302.5,-132 302.5,-112 389.75,-112 389.75,-132"/>
<text xml:space="preserve" text-anchor="middle" x="346.12" y="-118.5" font-family="Helvetica,sans-Serif" font-size="10.00">freertos/timers.h</text>
</a>
</g>
</g>
<!-- Node1&#45;&gt;Node5 -->
<g id="edge4_Node000001_Node000005" class="edge">
<title>Node1&#45;&gt;Node5</title>
<g id="a_edge4_Node000001_Node000005"><a xlink:title=" ">
<path fill="none" stroke="#63b8ff" d="M301.53,-167.59C309.04,-160.08 319.77,-149.35 328.82,-140.3"/>
<polygon fill="#63b8ff" stroke="#63b8ff" points="331.16,-142.91 335.76,-133.37 326.21,-137.96 331.16,-142.91"/>
</a>
</g>
</g>
<!-- Node6 -->
<g id="Node000006" class="node">
<title>Node6</title>
<g id="a_Node000006"><a xlink:title=" ">
<polygon fill="#e0e0e0" stroke="#999999" points="396.62,-76 353.62,-76 353.62,-56 396.62,-56 396.62,-76"/>
<text xml:space="preserve" text-anchor="middle" x="375.12" y="-62.5" font-family="Helvetica,sans-Serif" font-size="10.00">tusb.h</text>
</a>
</g>
</g>
<!-- Node1&#45;&gt;Node6 -->
<g id="edge5_Node000001_Node000006" class="edge">
<title>Node1&#45;&gt;Node6</title>
<g id="a_edge5_Node000001_Node000006"><a xlink:title=" ">
<path fill="none" stroke="#63b8ff" d="M336.56,-170.19C359.35,-164.2 385.19,-152.98 399.12,-132 408.66,-117.65 400.01,-99.01 390.54,-85.37"/>
<polygon fill="#63b8ff" stroke="#63b8ff" points="393.51,-83.49 384.67,-77.66 387.95,-87.74 393.51,-83.49"/>
</a>
</g>
</g>
<!-- Node7 -->
<g id="Node000007" class="node">
<title>Node7</title>
<g id="a_Node000007"><a xlink:href="tinyusb_8h.html" target="_top" xlink:title=" ">
<polygon fill="white" stroke="#666666" points="544,-132 488.25,-132 488.25,-112 544,-112 544,-132"/>
<text xml:space="preserve" text-anchor="middle" x="516.12" y="-118.5" font-family="Helvetica,sans-Serif" font-size="10.00">tinyusb.h</text>
</a>
</g>
</g>
<!-- Node1&#45;&gt;Node7 -->
<g id="edge6_Node000001_Node000007" class="edge">
<title>Node1&#45;&gt;Node7</title>
<g id="a_edge6_Node000001_Node000007"><a xlink:title=" ">
<path fill="none" stroke="#63b8ff" d="M331.4,-167.53C372.26,-157.68 435.86,-142.35 476.75,-132.49"/>
<polygon fill="#63b8ff" stroke="#63b8ff" points="477.53,-135.9 486.43,-130.16 475.89,-129.1 477.53,-135.9"/>
</a>
</g>
</g>
<!-- Node7&#45;&gt;Node6 -->
<g id="edge10_Node000007_Node000006" class="edge">
<title>Node7&#45;&gt;Node6</title>
<g id="a_edge10_Node000007_Node000006"><a xlink:title=" ">
<path fill="none" stroke="#63b8ff" d="M491.56,-111.59C468.33,-102.7 433.32,-89.29 407.75,-79.49"/>
<polygon fill="#63b8ff" stroke="#63b8ff" points="409.09,-76.26 398.5,-75.95 406.59,-82.8 409.09,-76.26"/>
</a>
</g>
</g>
<!-- Node8 -->
<g id="Node000008" class="node">
<title>Node8</title>
<g id="a_Node000008"><a xlink:title=" ">
<polygon fill="#e0e0e0" stroke="#999999" points="470,-76 414.25,-76 414.25,-56 470,-56 470,-76"/>
<text xml:space="preserve" text-anchor="middle" x="442.12" y="-62.5" font-family="Helvetica,sans-Serif" font-size="10.00">stdbool.h</text>
</a>
</g>
</g>
<!-- Node7&#45;&gt;Node8 -->
<g id="edge7_Node000007_Node000008" class="edge">
<title>Node7&#45;&gt;Node8</title>
<g id="a_edge7_Node000007_Node000008"><a xlink:title=" ">
<path fill="none" stroke="#63b8ff" d="M503.24,-111.59C492.41,-103.7 476.71,-92.24 463.94,-82.92"/>
<polygon fill="#63b8ff" stroke="#63b8ff" points="466.23,-80.26 456.09,-77.19 462.1,-85.91 466.23,-80.26"/>
</a>
</g>
</g>
<!-- Node9 -->
<g id="Node000009" class="node">
<title>Node9</title>
<g id="a_Node000009"><a xlink:href="esp__err_8h.html" target="_top" xlink:title=" ">
<polygon fill="white" stroke="#666666" points="544.38,-76 487.88,-76 487.88,-56 544.38,-56 544.38,-76"/>
<text xml:space="preserve" text-anchor="middle" x="516.12" y="-62.5" font-family="Helvetica,sans-Serif" font-size="10.00">esp_err.h</text>
</a>
</g>
</g>
<!-- Node7&#45;&gt;Node9 -->
<g id="edge8_Node000007_Node000009" class="edge">
<title>Node7&#45;&gt;Node9</title>
<g id="a_edge8_Node000007_Node000009"><a xlink:title=" ">
<path fill="none" stroke="#63b8ff" d="M516.12,-111.59C516.12,-105.01 516.12,-95.96 516.12,-87.73"/>
<polygon fill="#63b8ff" stroke="#63b8ff" points="519.63,-87.81 516.13,-77.81 512.63,-87.81 519.63,-87.81"/>
</a>
</g>
</g>
<!-- Node11 -->
<g id="Node000011" class="node">
<title>Node11</title>
<g id="a_Node000011"><a xlink:title=" ">
<polygon fill="#e0e0e0" stroke="#999999" points="620.38,-20 545.88,-20 545.88,0 620.38,0 620.38,-20"/>
<text xml:space="preserve" text-anchor="middle" x="583.12" y="-6.5" font-family="Helvetica,sans-Serif" font-size="10.00">tusb_option.h</text>
</a>
</g>
</g>
<!-- Node7&#45;&gt;Node11 -->
<g id="edge11_Node000007_Node000011" class="edge">
<title>Node7&#45;&gt;Node11</title>
<g id="a_edge11_Node000007_Node000011"><a xlink:title=" ">
<path fill="none" stroke="#63b8ff" d="M525.12,-111.55C533.14,-102.8 544.85,-89.19 553.12,-76 562.22,-61.51 570.21,-43.8 575.65,-30.53"/>
<polygon fill="#63b8ff" stroke="#63b8ff" points="578.75,-32.2 579.18,-21.61 572.25,-29.62 578.75,-32.2"/>
</a>
</g>
</g>
<!-- Node12 -->
<g id="Node000012" class="node">
<title>Node12</title>
<g id="a_Node000012"><a xlink:href="tusb__config_8h.html" target="_top" xlink:title=" ">
<polygon fill="white" stroke="#666666" points="674.38,-76 599.88,-76 599.88,-56 674.38,-56 674.38,-76"/>
<text xml:space="preserve" text-anchor="middle" x="637.12" y="-62.5" font-family="Helvetica,sans-Serif" font-size="10.00">tusb_config.h</text>
</a>
</g>
</g>
<!-- Node7&#45;&gt;Node12 -->
<g id="edge12_Node000007_Node000012" class="edge">
<title>Node7&#45;&gt;Node12</title>
<g id="a_edge12_Node000007_Node000012"><a xlink:title=" ">
<path fill="none" stroke="#63b8ff" d="M537.2,-111.59C556.08,-103.17 584.04,-90.69 605.59,-81.07"/>
<polygon fill="#63b8ff" stroke="#63b8ff" points="606.8,-84.37 614.5,-77.1 603.94,-77.98 606.8,-84.37"/>
</a>
</g>
</g>
<!-- Node14 -->
<g id="Node000014" class="node">
<title>Node14</title>
<g id="a_Node000014"><a xlink:href="tinyusb__types_8h.html" target="_top" xlink:title=" ">
<polygon fill="white" stroke="#666666" points="777.62,-76 692.62,-76 692.62,-56 777.62,-56 777.62,-76"/>
<text xml:space="preserve" text-anchor="middle" x="735.12" y="-62.5" font-family="Helvetica,sans-Serif" font-size="10.00">tinyusb_types.h</text>
</a>
</g>
</g>
<!-- Node7&#45;&gt;Node14 -->
<g id="edge15_Node000007_Node000014" class="edge">
<title>Node7&#45;&gt;Node14</title>
<g id="a_edge15_Node000007_Node000014"><a xlink:title=" ">
<path fill="none" stroke="#63b8ff" d="M544.31,-114.05C580.01,-105.25 642.15,-89.92 685.8,-79.16"/>
<polygon fill="#63b8ff" stroke="#63b8ff" points="686.4,-82.62 695.27,-76.83 684.73,-75.82 686.4,-82.62"/>
</a>
</g>
</g>
<!-- Node10 -->
<g id="Node000010" class="node">
<title>Node10</title>
<g id="a_Node000010"><a xlink:title=" ">
<polygon fill="#e0e0e0" stroke="#999999" points="527.88,-20 480.38,-20 480.38,0 527.88,0 527.88,-20"/>
<text xml:space="preserve" text-anchor="middle" x="504.12" y="-6.5" font-family="Helvetica,sans-Serif" font-size="10.00">stdlib.h</text>
</a>
</g>
</g>
<!-- Node9&#45;&gt;Node10 -->
<g id="edge9_Node000009_Node000010" class="edge">
<title>Node9&#45;&gt;Node10</title>
<g id="a_edge9_Node000009_Node000010"><a xlink:title=" ">
<path fill="none" stroke="#63b8ff" d="M514.03,-55.59C512.55,-48.93 510.51,-39.75 508.67,-31.44"/>
<polygon fill="#63b8ff" stroke="#63b8ff" points="512.11,-30.78 506.52,-21.78 505.27,-32.3 512.11,-30.78"/>
</a>
</g>
</g>
<!-- Node12&#45;&gt;Node11 -->
<g id="edge13_Node000012_Node000011" class="edge">
<title>Node12&#45;&gt;Node11</title>
<g id="a_edge13_Node000012_Node000011"><a xlink:title=" ">
<path fill="none" stroke="#63b8ff" d="M627.72,-55.59C620.21,-48.08 609.48,-37.35 600.43,-28.3"/>
<polygon fill="#63b8ff" stroke="#63b8ff" points="603.04,-25.96 593.49,-21.37 598.09,-30.91 603.04,-25.96"/>
</a>
</g>
</g>
<!-- Node13 -->
<g id="Node000013" class="node">
<title>Node13</title>
<g id="a_Node000013"><a xlink:title=" ">
<polygon fill="#e0e0e0" stroke="#999999" points="704.25,-20 638,-20 638,0 704.25,0 704.25,-20"/>
<text xml:space="preserve" text-anchor="middle" x="671.12" y="-6.5" font-family="Helvetica,sans-Serif" font-size="10.00">sdkconfig.h</text>
</a>
</g>
</g>
<!-- Node12&#45;&gt;Node13 -->
<g id="edge14_Node000012_Node000013" class="edge">
<title>Node12&#45;&gt;Node13</title>
<g id="a_edge14_Node000012_Node000013"><a xlink:title=" ">
<path fill="none" stroke="#63b8ff" d="M643.05,-55.59C647.48,-48.55 653.7,-38.67 659.16,-30"/>
<polygon fill="#63b8ff" stroke="#63b8ff" points="662.1,-31.91 664.46,-21.58 656.17,-28.18 662.1,-31.91"/>
</a>
</g>
</g>
</g>
</svg>
