<?xml version="1.0" encoding="UTF-8" standalone="no"?>
<!DOCTYPE svg PUBLIC "-//W3C//DTD SVG 1.1//EN"
 "http://www.w3.org/Graphics/SVG/1.1/DTD/svg11.dtd">
<!-- Generated by graphviz version 14.1.2 (20260124.0452)
 -->
<!-- Title: tinyusb_cdcacm_write_queue_char Pages: 1 -->
<svg width="536pt" height="40pt"
 viewBox="0.00 0.00 536.00 40.00" xmlns="http://www.w3.org/2000/svg" xmlns:xlink="http://www.w3.org/1999/xlink">
<g id="graph0" class="graph" transform="scale(1 1) rotate(0) translate(4 36)">
<title>tinyusb_cdcacm_write_queue_char</title>
<!-- Node1 -->
<g id="Node000001" class="node">
<title>Node1</title>
<g id="a_Node000001"><a xlink:title="Sent one character to a write buffer.">
<polygon fill="#999999" stroke="#666666" points="528.25,-32 414.75,-32 414.75,0 528.25,0 528.25,-32"/>
<text xml:space="preserve" text-anchor="start" x="422.75" y="-18.5" font-family="Helvetica,sans-Serif" font-size="10.00">tinyusb_cdcacm_write</text>
<text xml:space="preserve" text-anchor="middle" x="471.5" y="-6.5" font-family="Helvetica,sans-Serif" font-size="10.00">_queue_char</text>
</a>
</g>
</g>
<!-- Node2 -->
<g id="Node000002" class="node">
<title>Node2</title>
<g id="a_Node000002"><a xlink:href="vfs__tinyusb_8c.html#acd79cfbaa8662bf059523d76611a7eb7" target="_top" xlink:title=" ">
<polygon fill="white" stroke="#666666" points="378.75,-26 317.75,-26 317.75,-6 378.75,-6 378.75,-26"/>
<text xml:space="preserve" text-anchor="middle" x="348.25" y="-12.5" font-family="Helvetica,sans-Serif" font-size="10.00">tusb_write</text>
</a>
</g>
</g>
<!-- Node1&#45;&gt;Node2 -->
<g id="edge1_Node000001_Node000002" class="edge">
<title>Node1&#45;&gt;Node2</title>
<g id="a_edge1_Node000001_Node000002"><a xlink:title=" ">
<path fill="none" stroke="#63b8ff" d="M403.07,-16C394.74,-16 386.58,-16 379.23,-16"/>
<polygon fill="#63b8ff" stroke="#63b8ff" points="402.98,-19.5 412.98,-16 402.98,-12.5 402.98,-19.5"/>
</a>
</g>
</g>
<!-- Node3 -->
<g id="Node000003" class="node">
<title>Node3</title>
<g id="a_Node000003"><a xlink:href="vfs__tinyusb_8c.html#ae56dd480e9fe67841a7da40fe1a0322f" target="_top" xlink:title="Register TinyUSB CDC at VFS with path.">
<polygon fill="white" stroke="#666666" points="281.75,-26 148.75,-26 148.75,-6 281.75,-6 281.75,-26"/>
<text xml:space="preserve" text-anchor="middle" x="215.25" y="-12.5" font-family="Helvetica,sans-Serif" font-size="10.00">esp_vfs_tusb_cdc_register</text>
</a>
</g>
</g>
<!-- Node2&#45;&gt;Node3 -->
<g id="edge2_Node000002_Node000003" class="edge">
<title>Node2&#45;&gt;Node3</title>
<g id="a_edge2_Node000002_Node000003"><a xlink:title=" ">
<path fill="none" stroke="#63b8ff" d="M306.06,-16C298.45,-16 290.34,-16 282.21,-16"/>
<polygon fill="#63b8ff" stroke="#63b8ff" points="306.01,-19.5 316.01,-16 306.01,-12.5 306.01,-19.5"/>
</a>
</g>
</g>
<!-- Node4 -->
<g id="Node000004" class="node">
<title>Node4</title>
<g id="a_Node000004"><a xlink:href="tusb__console_8c.html#a9e8e981b87a77f42d60e0d5ead04fb9e" target="_top" xlink:title="Redirect output to the USB serial.">
<polygon fill="white" stroke="#666666" points="112.75,-26 0,-26 0,-6 112.75,-6 112.75,-26"/>
<text xml:space="preserve" text-anchor="middle" x="56.38" y="-12.5" font-family="Helvetica,sans-Serif" font-size="10.00">esp_tusb_init_console</text>
</a>
</g>
</g>
<!-- Node3&#45;&gt;Node4 -->
<g id="edge3_Node000003_Node000004" class="edge">
<title>Node3&#45;&gt;Node4</title>
<g id="a_edge3_Node000003_Node000004"><a xlink:title=" ">
<path fill="none" stroke="#63b8ff" d="M137.37,-16C129.07,-16 120.76,-16 112.79,-16"/>
<polygon fill="#63b8ff" stroke="#63b8ff" points="137.12,-19.5 147.12,-16 137.12,-12.5 137.12,-19.5"/>
</a>
</g>
</g>
</g>
</svg>
