<?xml version="1.0" encoding="UTF-8" standalone="no"?>
<!DOCTYPE svg PUBLIC "-//W3C//DTD SVG 1.1//EN"
 "http://www.w3.org/Graphics/SVG/1.1/DTD/svg11.dtd">
<!-- Generated by graphviz version 14.1.2 (20260124.0452)
 -->
<!-- Title: tud_cdc_rx_cb Pages: 1 -->
<svg width="319pt" height="28pt"
 viewBox="0.00 0.00 319.00 28.00" xmlns="http://www.w3.org/2000/svg" xmlns:xlink="http://www.w3.org/1999/xlink">
<g id="graph0" class="graph" transform="scale(1 1) rotate(0) translate(4 24)">
<title>tud_cdc_rx_cb</title>
<!-- Node1 -->
<g id="Node000001" class="node">
<title>Node1</title>
<g id="a_Node000001"><a xlink:title=" ">
<polygon fill="#999999" stroke="#666666" points="79.75,-20 0,-20 0,0 79.75,0 79.75,-20"/>
<text xml:space="preserve" text-anchor="middle" x="39.88" y="-6.5" font-family="Helvetica,sans-Serif" font-size="10.00">tud_cdc_rx_cb</text>
</a>
</g>
</g>
<!-- Node2 -->
<g id="Node000002" class="node">
<title>Node2</title>
<g id="a_Node000002"><a xlink:href="tusb__cdc__acm_8c.html#ab24ee802c4641898cbc524df38a75dc1" target="_top" xlink:title=" ">
<polygon fill="white" stroke="#666666" points="169.25,-20 115.75,-20 115.75,0 169.25,0 169.25,-20"/>
<text xml:space="preserve" text-anchor="middle" x="142.5" y="-6.5" font-family="Helvetica,sans-Serif" font-size="10.00">get_acm</text>
</a>
</g>
</g>
<!-- Node1&#45;&gt;Node2 -->
<g id="edge1_Node000001_Node000002" class="edge">
<title>Node1&#45;&gt;Node2</title>
<g id="a_edge1_Node000001_Node000002"><a xlink:title=" ">
<path fill="none" stroke="#63b8ff" d="M80.07,-10C87.91,-10 96.13,-10 103.92,-10"/>
<polygon fill="#63b8ff" stroke="#63b8ff" points="103.78,-13.5 113.78,-10 103.78,-6.5 103.78,-13.5"/>
</a>
</g>
</g>
<!-- Node3 -->
<g id="Node000003" class="node">
<title>Node3</title>
<g id="a_Node000003"><a xlink:href="cdc_8c.html#a19af1be61f3d48fb87311dd61c06cbae" target="_top" xlink:title="Return interface of a CDC device.">
<polygon fill="white" stroke="#666666" points="311.25,-20 205.25,-20 205.25,0 311.25,0 311.25,-20"/>
<text xml:space="preserve" text-anchor="middle" x="258.25" y="-6.5" font-family="Helvetica,sans-Serif" font-size="10.00">tinyusb_cdc_get_intf</text>
</a>
</g>
</g>
<!-- Node2&#45;&gt;Node3 -->
<g id="edge2_Node000002_Node000003" class="edge">
<title>Node2&#45;&gt;Node3</title>
<g id="a_edge2_Node000002_Node000003"><a xlink:title=" ">
<path fill="none" stroke="#63b8ff" d="M169.6,-10C176.81,-10 184.97,-10 193.34,-10"/>
<polygon fill="#63b8ff" stroke="#63b8ff" points="193.29,-13.5 203.29,-10 193.29,-6.5 193.29,-13.5"/>
</a>
</g>
</g>
</g>
</svg>
