<?xml version="1.0" encoding="UTF-8" standalone="no"?>
<!DOCTYPE svg PUBLIC "-//W3C//DTD SVG 1.1//EN"
 "http://www.w3.org/Graphics/SVG/1.1/DTD/svg11.dtd">
<!-- Generated by graphviz version 14.1.2 (20260124.0452)
 -->
<!-- Title: get_acm Pages: 1 -->
<svg width="659pt" height="494pt"
 viewBox="0.00 0.00 659.00 494.00" xmlns="http://www.w3.org/2000/svg" xmlns:xlink="http://www.w3.org/1999/xlink">
<g id="graph0" class="graph" transform="scale(1 1) rotate(0) translate(4 490)">
<title>get_acm</title>
<!-- Node1 -->
<g id="Node000001" class="node">
<title>Node1</title>
<g id="a_Node000001"><a xlink:title=" ">
<polygon fill="#999999" stroke="#666666" points="650.75,-244 597.25,-244 597.25,-224 650.75,-224 650.75,-244"/>
<text xml:space="preserve" text-anchor="middle" x="624" y="-230.5" font-family="Helvetica,sans-Serif" font-size="10.00">get_acm</text>
</a>
</g>
</g>
<!-- Node2 -->
<g id="Node000002" class="node">
<title>Node2</title>
<g id="a_Node000002"><a xlink:href="tusb__cdc__acm_8c.html#a8be33d0f57d8df1777b2fbd5defd22ca" target="_top" xlink:title="Read a content to the array, and defines it&#39;s size to the sz_store.">
<polygon fill="white" stroke="#666666" points="549.25,-486 438,-486 438,-466 549.25,-466 549.25,-486"/>
<text xml:space="preserve" text-anchor="middle" x="493.62" y="-472.5" font-family="Helvetica,sans-Serif" font-size="10.00">tinyusb_cdcacm_read</text>
</a>
</g>
</g>
<!-- Node1&#45;&gt;Node2 -->
<g id="edge1_Node000001_Node000002" class="edge">
<title>Node1&#45;&gt;Node2</title>
<g id="a_edge1_Node000001_Node000002"><a xlink:title=" ">
<path fill="none" stroke="#63b8ff" d="M623.07,-255.5C622.03,-298.52 613.64,-395.83 561.25,-452 555.8,-457.84 548.82,-462.27 541.44,-465.62"/>
<polygon fill="#63b8ff" stroke="#63b8ff" points="626.57,-255.78 623.18,-245.74 619.57,-255.7 626.57,-255.78"/>
</a>
</g>
</g>
<!-- Node3 -->
<g id="Node000003" class="node">
<title>Node3</title>
<g id="a_Node000003"><a xlink:href="tusb__cdc__acm_8c.html#a486320904bb5b4cdc3fe0ab8ed1a6f19" target="_top" xlink:title="Register a callback invoking on CDC event. If the callback had been already registered,...">
<polygon fill="white" stroke="#666666" points="556,-32 431.25,-32 431.25,0 556,0 556,-32"/>
<text xml:space="preserve" text-anchor="start" x="439.25" y="-18.5" font-family="Helvetica,sans-Serif" font-size="10.00">tinyusb_cdcacm_register</text>
<text xml:space="preserve" text-anchor="middle" x="493.62" y="-6.5" font-family="Helvetica,sans-Serif" font-size="10.00">_callback</text>
</a>
</g>
</g>
<!-- Node1&#45;&gt;Node3 -->
<g id="edge2_Node000001_Node000003" class="edge">
<title>Node1&#45;&gt;Node3</title>
<g id="a_edge2_Node000001_Node000003"><a xlink:title=" ">
<path fill="none" stroke="#63b8ff" d="M622.03,-212.33C619.13,-173.05 607.55,-89.64 561.25,-41 558.1,-37.69 554.47,-34.81 550.56,-32.32"/>
<polygon fill="#63b8ff" stroke="#63b8ff" points="618.53,-212.36 622.62,-222.13 625.52,-211.94 618.53,-212.36"/>
</a>
</g>
</g>
<!-- Node4 -->
<g id="Node000004" class="node">
<title>Node4</title>
<g id="a_Node000004"><a xlink:href="tusb__cdc__acm_8c.html#aa240a058986c6de30a807ec424e6ab80" target="_top" xlink:title="Initialize CDC ACM. Initialization will be finished with the tud_cdc_line_state_cb callback.">
<polygon fill="white" stroke="#666666" points="375.38,-222 277.62,-222 277.62,-202 375.38,-202 375.38,-222"/>
<text xml:space="preserve" text-anchor="middle" x="326.5" y="-208.5" font-family="Helvetica,sans-Serif" font-size="10.00">tusb_cdc_acm_init</text>
</a>
</g>
</g>
<!-- Node1&#45;&gt;Node4 -->
<g id="edge19_Node000001_Node000004" class="edge">
<title>Node1&#45;&gt;Node4</title>
<g id="a_edge19_Node000001_Node000004"><a xlink:title=" ">
<path fill="none" stroke="#63b8ff" d="M585.47,-231.21C532.11,-227.23 434.3,-219.95 375.66,-215.59"/>
<polygon fill="#63b8ff" stroke="#63b8ff" points="585.03,-234.68 595.27,-231.94 585.55,-227.7 585.03,-234.68"/>
</a>
</g>
</g>
<!-- Node6 -->
<g id="Node000006" class="node">
<title>Node6</title>
<g id="a_Node000006"><a xlink:href="tusb__cdc__acm_8c.html#ae0f3d93ac9658bf59720ce4edb7a2fbb" target="_top" xlink:title="Unregister a callback invoking on CDC event.">
<polygon fill="white" stroke="#666666" points="561.25,-360 426,-360 426,-328 561.25,-328 561.25,-360"/>
<text xml:space="preserve" text-anchor="start" x="434" y="-346.5" font-family="Helvetica,sans-Serif" font-size="10.00">tinyusb_cdcacm_unregister</text>
<text xml:space="preserve" text-anchor="middle" x="493.62" y="-334.5" font-family="Helvetica,sans-Serif" font-size="10.00">_callback</text>
</a>
</g>
</g>
<!-- Node1&#45;&gt;Node6 -->
<g id="edge5_Node000001_Node000006" class="edge">
<title>Node1&#45;&gt;Node6</title>
<g id="a_edge5_Node000001_Node000006"><a xlink:title=" ">
<path fill="none" stroke="#63b8ff" d="M611.64,-253.78C600.65,-271.49 582.55,-297.19 561.25,-314 554.68,-319.19 547.07,-323.69 539.39,-327.53"/>
<polygon fill="#63b8ff" stroke="#63b8ff" points="614.35,-256.08 616.49,-245.7 608.34,-252.48 614.35,-256.08"/>
</a>
</g>
</g>
<!-- Node7 -->
<g id="Node000007" class="node">
<title>Node7</title>
<g id="a_Node000007"><a xlink:href="tusb__cdc__acm_8c.html#ae56eee472acd5c32ac333dc551fd1a84" target="_top" xlink:title="Send all data from a write buffer. Use tinyusb_cdcacm_write_queue to add data to the buffer.">
<polygon fill="white" stroke="#666666" points="550.38,-410 436.88,-410 436.88,-378 550.38,-378 550.38,-410"/>
<text xml:space="preserve" text-anchor="start" x="444.88" y="-396.5" font-family="Helvetica,sans-Serif" font-size="10.00">tinyusb_cdcacm_write</text>
<text xml:space="preserve" text-anchor="middle" x="493.62" y="-384.5" font-family="Helvetica,sans-Serif" font-size="10.00">_flush</text>
</a>
</g>
</g>
<!-- Node1&#45;&gt;Node7 -->
<g id="edge6_Node000001_Node000007" class="edge">
<title>Node1&#45;&gt;Node7</title>
<g id="a_edge6_Node000001_Node000007"><a xlink:title=" ">
<path fill="none" stroke="#63b8ff" d="M618.6,-255.43C611.48,-284.89 594.73,-337.78 561.25,-369 557.73,-372.29 553.73,-375.15 549.49,-377.65"/>
<polygon fill="#63b8ff" stroke="#63b8ff" points="621.97,-256.38 620.75,-245.85 615.14,-254.84 621.97,-256.38"/>
</a>
</g>
</g>
<!-- Node10 -->
<g id="Node000010" class="node">
<title>Node10</title>
<g id="a_Node000010"><a xlink:href="tusb__cdc__acm_8c.html#a0f1bac102ae6fce8d7211062a899e4b5" target="_top" xlink:title="Write data to write buffer from a byte array.">
<polygon fill="white" stroke="#666666" points="383.25,-440 269.75,-440 269.75,-408 383.25,-408 383.25,-440"/>
<text xml:space="preserve" text-anchor="start" x="277.75" y="-426.5" font-family="Helvetica,sans-Serif" font-size="10.00">tinyusb_cdcacm_write</text>
<text xml:space="preserve" text-anchor="middle" x="326.5" y="-414.5" font-family="Helvetica,sans-Serif" font-size="10.00">_queue</text>
</a>
</g>
</g>
<!-- Node1&#45;&gt;Node10 -->
<g id="edge10_Node000001_Node000010" class="edge">
<title>Node1&#45;&gt;Node10</title>
<g id="a_edge10_Node000001_Node000010"><a xlink:title=" ">
<path fill="none" stroke="#63b8ff" d="M623.17,-255.55C622.17,-295.48 613.64,-380.4 561.25,-419 510.27,-456.56 434.62,-450.2 383.3,-439.5"/>
<polygon fill="#63b8ff" stroke="#63b8ff" points="626.67,-255.83 623.26,-245.8 619.67,-255.76 626.67,-255.83"/>
</a>
</g>
</g>
<!-- Node11 -->
<g id="Node000011" class="node">
<title>Node11</title>
<g id="a_Node000011"><a xlink:href="tusb__cdc__acm_8c.html#ae29627ebf56d365729a287215fe98afe" target="_top" xlink:title="Sent one character to a write buffer.">
<polygon fill="white" stroke="#666666" points="550.38,-272 436.88,-272 436.88,-240 550.38,-240 550.38,-272"/>
<text xml:space="preserve" text-anchor="start" x="444.88" y="-258.5" font-family="Helvetica,sans-Serif" font-size="10.00">tinyusb_cdcacm_write</text>
<text xml:space="preserve" text-anchor="middle" x="493.62" y="-246.5" font-family="Helvetica,sans-Serif" font-size="10.00">_queue_char</text>
</a>
</g>
</g>
<!-- Node1&#45;&gt;Node11 -->
<g id="edge12_Node000001_Node000011" class="edge">
<title>Node1&#45;&gt;Node11</title>
<g id="a_edge12_Node000001_Node000011"><a xlink:title=" ">
<path fill="none" stroke="#63b8ff" d="M585.74,-240.39C574.81,-242.26 562.62,-244.35 550.79,-246.38"/>
<polygon fill="#63b8ff" stroke="#63b8ff" points="586.26,-243.85 595.53,-238.71 585.08,-236.95 586.26,-243.85"/>
</a>
</g>
</g>
<!-- Node15 -->
<g id="Node000015" class="node">
<title>Node15</title>
<g id="a_Node000015"><a xlink:href="tusb__cdc__acm_8c.html#a8abb48ab2de042c842086bbd8e009993" target="_top" xlink:title=" ">
<polygon fill="white" stroke="#666666" points="553.75,-184 433.5,-184 433.5,-164 553.75,-164 553.75,-184"/>
<text xml:space="preserve" text-anchor="middle" x="493.62" y="-170.5" font-family="Helvetica,sans-Serif" font-size="10.00">tud_cdc_line_coding_cb</text>
</a>
</g>
</g>
<!-- Node1&#45;&gt;Node15 -->
<g id="edge15_Node000001_Node000015" class="edge">
<title>Node1&#45;&gt;Node15</title>
<g id="a_edge15_Node000001_Node000015"><a xlink:title=" ">
<path fill="none" stroke="#63b8ff" d="M597.23,-217.57C586.37,-211.01 573.44,-203.69 561.25,-198 550.44,-192.96 538.26,-188.29 527.3,-184.44"/>
<polygon fill="#63b8ff" stroke="#63b8ff" points="595.29,-220.48 605.64,-222.74 598.96,-214.52 595.29,-220.48"/>
</a>
</g>
</g>
<!-- Node16 -->
<g id="Node000016" class="node">
<title>Node16</title>
<g id="a_Node000016"><a xlink:href="tusb__cdc__acm_8c.html#a5d9795db7d6eb1685526eb07ecf0c6e6" target="_top" xlink:title=" ">
<polygon fill="white" stroke="#666666" points="550.38,-146 436.88,-146 436.88,-126 550.38,-126 550.38,-146"/>
<text xml:space="preserve" text-anchor="middle" x="493.62" y="-132.5" font-family="Helvetica,sans-Serif" font-size="10.00">tud_cdc_line_state_cb</text>
</a>
</g>
</g>
<!-- Node1&#45;&gt;Node16 -->
<g id="edge16_Node000001_Node000016" class="edge">
<title>Node1&#45;&gt;Node16</title>
<g id="a_edge16_Node000001_Node000016"><a xlink:title=" ">
<path fill="none" stroke="#63b8ff" d="M612.15,-213.77C601.49,-195.77 583.6,-170.05 561.25,-155 556.16,-151.57 550.46,-148.76 544.58,-146.45"/>
<polygon fill="#63b8ff" stroke="#63b8ff" points="608.98,-215.27 616.95,-222.25 615.07,-211.82 608.98,-215.27"/>
</a>
</g>
</g>
<!-- Node17 -->
<g id="Node000017" class="node">
<title>Node17</title>
<g id="a_Node000017"><a xlink:href="tusb__cdc__acm_8c.html#a8a10535dfe03a33af833f55b6ba33cfb" target="_top" xlink:title=" ">
<polygon fill="white" stroke="#666666" points="533.5,-108 453.75,-108 453.75,-88 533.5,-88 533.5,-108"/>
<text xml:space="preserve" text-anchor="middle" x="493.62" y="-94.5" font-family="Helvetica,sans-Serif" font-size="10.00">tud_cdc_rx_cb</text>
</a>
</g>
</g>
<!-- Node1&#45;&gt;Node17 -->
<g id="edge17_Node000001_Node000017" class="edge">
<title>Node1&#45;&gt;Node17</title>
<g id="a_edge17_Node000001_Node000017"><a xlink:title=" ">
<path fill="none" stroke="#63b8ff" d="M617.42,-212.82C609.39,-186.49 592.05,-141.98 561.25,-117 553.4,-110.64 543.53,-106.4 533.81,-103.59"/>
<polygon fill="#63b8ff" stroke="#63b8ff" points="614.03,-213.69 620.14,-222.35 620.76,-211.78 614.03,-213.69"/>
</a>
</g>
</g>
<!-- Node18 -->
<g id="Node000018" class="node">
<title>Node18</title>
<g id="a_Node000018"><a xlink:href="tusb__cdc__acm_8c.html#a16fd5ec08a1f0a7451844464121dcee5" target="_top" xlink:title=" ">
<polygon fill="white" stroke="#666666" points="551.88,-70 435.38,-70 435.38,-50 551.88,-50 551.88,-70"/>
<text xml:space="preserve" text-anchor="middle" x="493.62" y="-56.5" font-family="Helvetica,sans-Serif" font-size="10.00">tud_cdc_rx_wanted_cb</text>
</a>
</g>
</g>
<!-- Node1&#45;&gt;Node18 -->
<g id="edge18_Node000001_Node000018" class="edge">
<title>Node1&#45;&gt;Node18</title>
<g id="a_edge18_Node000001_Node000018"><a xlink:title=" ">
<path fill="none" stroke="#63b8ff" d="M620.44,-212.35C615.32,-178.86 600.7,-114.64 561.25,-79 557.41,-75.53 552.98,-72.69 548.27,-70.37"/>
<polygon fill="#63b8ff" stroke="#63b8ff" points="616.95,-212.62 621.76,-222.06 623.88,-211.68 616.95,-212.62"/>
</a>
</g>
</g>
<!-- Node19 -->
<g id="Node000019" class="node">
<title>Node19</title>
<g id="a_Node000019"><a xlink:href="tusb__cdc__acm_8c.html#a659f81b1f0fd5b43eedd4b8bca19e427" target="_top" xlink:title="Check if the ACM initialized.">
<polygon fill="white" stroke="#666666" points="389.25,-310 263.75,-310 263.75,-290 389.25,-290 389.25,-310"/>
<text xml:space="preserve" text-anchor="middle" x="326.5" y="-296.5" font-family="Helvetica,sans-Serif" font-size="10.00">tusb_cdc_acm_initialized</text>
</a>
</g>
</g>
<!-- Node1&#45;&gt;Node19 -->
<g id="edge20_Node000001_Node000019" class="edge">
<title>Node1&#45;&gt;Node19</title>
<g id="a_edge20_Node000001_Node000019"><a xlink:title=" ">
<path fill="none" stroke="#63b8ff" d="M604.99,-252.16C593.51,-262.53 577.73,-274.69 561.25,-281 505.93,-302.19 437.98,-305.43 389.63,-304.28"/>
<polygon fill="#63b8ff" stroke="#63b8ff" points="607.26,-254.83 612.11,-245.42 602.45,-249.75 607.26,-254.83"/>
</a>
</g>
</g>
<!-- Node3&#45;&gt;Node4 -->
<g id="edge3_Node000003_Node000004" class="edge">
<title>Node3&#45;&gt;Node4</title>
<g id="a_edge3_Node000003_Node000004"><a xlink:title=" ">
<path fill="none" stroke="#63b8ff" d="M429.37,-38.33C428.21,-39.19 427.09,-40.08 426,-41 371.4,-87.32 340.3,-171.98 330.72,-201.51"/>
<polygon fill="#63b8ff" stroke="#63b8ff" points="430.92,-41.49 437.48,-33.16 427.16,-35.58 430.92,-41.49"/>
</a>
</g>
</g>
<!-- Node5 -->
<g id="Node000005" class="node">
<title>Node5</title>
<g id="a_Node000005"><a xlink:href="main_2main_8c.html#a630544a7f0a2cc40d8a7fefab7e2fe70" target="_top" xlink:title=" ">
<polygon fill="white" stroke="#666666" points="58,-263 0,-263 0,-243 58,-243 58,-263"/>
<text xml:space="preserve" text-anchor="middle" x="29" y="-249.5" font-family="Helvetica,sans-Serif" font-size="10.00">app_main</text>
</a>
</g>
</g>
<!-- Node4&#45;&gt;Node5 -->
<g id="edge4_Node000004_Node000005" class="edge">
<title>Node4&#45;&gt;Node5</title>
<g id="a_edge4_Node000004_Node000005"><a xlink:title=" ">
<path fill="none" stroke="#63b8ff" d="M266.29,-217.84C219.41,-222.78 152.33,-230.56 94,-240 82.25,-241.9 69.37,-244.43 58.27,-246.75"/>
<polygon fill="#63b8ff" stroke="#63b8ff" points="266.37,-221.35 275.95,-216.83 265.64,-214.39 266.37,-221.35"/>
</a>
</g>
</g>
<!-- Node8 -->
<g id="Node000008" class="node">
<title>Node8</title>
<g id="a_Node000008"><a xlink:href="main_2main_8c.html#adcd8f7518fef8e05fa85c0afaa299c3a" target="_top" xlink:title=" ">
<polygon fill="white" stroke="#666666" points="390,-376 263,-376 263,-356 390,-356 390,-376"/>
<text xml:space="preserve" text-anchor="middle" x="326.5" y="-362.5" font-family="Helvetica,sans-Serif" font-size="10.00">safe_cdcacm_write_flush</text>
</a>
</g>
</g>
<!-- Node7&#45;&gt;Node8 -->
<g id="edge7_Node000007_Node000008" class="edge">
<title>Node7&#45;&gt;Node8</title>
<g id="a_edge7_Node000007_Node000008"><a xlink:title=" ">
<path fill="none" stroke="#63b8ff" d="M425.44,-382.61C413.49,-380.58 401.09,-378.48 389.3,-376.48"/>
<polygon fill="#63b8ff" stroke="#63b8ff" points="424.78,-386.05 435.23,-384.27 425.95,-379.14 424.78,-386.05"/>
</a>
</g>
</g>
<!-- Node9 -->
<g id="Node000009" class="node">
<title>Node9</title>
<g id="a_Node000009"><a xlink:href="main_2main_8c.html#ad159bf0147cc4f5288bae8edf3a846e5" target="_top" xlink:title=" ">
<polygon fill="white" stroke="#666666" points="195.12,-329 125.88,-329 125.88,-309 195.12,-309 195.12,-329"/>
<text xml:space="preserve" text-anchor="middle" x="160.5" y="-315.5" font-family="Helvetica,sans-Serif" font-size="10.00">cdc_tx_task</text>
</a>
</g>
</g>
<!-- Node8&#45;&gt;Node9 -->
<g id="edge8_Node000008_Node000009" class="edge">
<title>Node8&#45;&gt;Node9</title>
<g id="a_edge8_Node000008_Node000009"><a xlink:title=" ">
<path fill="none" stroke="#63b8ff" d="M278.18,-352.44C251.77,-344.87 219.47,-335.61 195.56,-328.76"/>
<polygon fill="#63b8ff" stroke="#63b8ff" points="277.07,-355.76 287.65,-355.15 279,-349.03 277.07,-355.76"/>
</a>
</g>
</g>
<!-- Node9&#45;&gt;Node5 -->
<g id="edge9_Node000009_Node000005" class="edge">
<title>Node9&#45;&gt;Node5</title>
<g id="a_edge9_Node000009_Node000005"><a xlink:title=" ">
<path fill="none" stroke="#63b8ff" d="M128.88,-303.39C104.66,-291.05 71.51,-274.16 50.42,-263.41"/>
<polygon fill="#63b8ff" stroke="#63b8ff" points="127.13,-306.43 137.63,-307.85 130.31,-300.2 127.13,-306.43"/>
</a>
</g>
</g>
<!-- Node10&#45;&gt;Node9 -->
<g id="edge11_Node000010_Node000009" class="edge">
<title>Node10&#45;&gt;Node9</title>
<g id="a_edge11_Node000010_Node000009"><a xlink:title=" ">
<path fill="none" stroke="#63b8ff" d="M289.47,-401.68C280.78,-396.25 271.54,-390.44 263,-385 232.51,-365.58 197.17,-342.46 177.26,-329.38"/>
<polygon fill="#63b8ff" stroke="#63b8ff" points="287.35,-404.48 297.69,-406.8 291.05,-398.54 287.35,-404.48"/>
</a>
</g>
</g>
<!-- Node12 -->
<g id="Node000012" class="node">
<title>Node12</title>
<g id="a_Node000012"><a xlink:href="vfs__tinyusb_8c.html#acd79cfbaa8662bf059523d76611a7eb7" target="_top" xlink:title=" ">
<polygon fill="white" stroke="#666666" points="357,-269 296,-269 296,-249 357,-249 357,-269"/>
<text xml:space="preserve" text-anchor="middle" x="326.5" y="-255.5" font-family="Helvetica,sans-Serif" font-size="10.00">tusb_write</text>
</a>
</g>
</g>
<!-- Node11&#45;&gt;Node12 -->
<g id="edge13_Node000011_Node000012" class="edge">
<title>Node11&#45;&gt;Node12</title>
<g id="a_edge13_Node000011_Node000012"><a xlink:title=" ">
<path fill="none" stroke="#63b8ff" d="M425.3,-257.22C401.69,-257.65 376.35,-258.11 357.38,-258.46"/>
<polygon fill="#63b8ff" stroke="#63b8ff" points="425.27,-260.72 435.21,-257.04 425.15,-253.73 425.27,-260.72"/>
</a>
</g>
</g>
<!-- Node13 -->
<g id="Node000013" class="node">
<title>Node13</title>
<g id="a_Node000013"><a xlink:href="vfs__tinyusb_8c.html#ae56dd480e9fe67841a7da40fe1a0322f" target="_top" xlink:title="Register TinyUSB CDC at VFS with path.">
<polygon fill="#fff0f0" stroke="red" points="227,-269 94,-269 94,-249 227,-249 227,-269"/>
<text xml:space="preserve" text-anchor="middle" x="160.5" y="-255.5" font-family="Helvetica,sans-Serif" font-size="10.00">esp_vfs_tusb_cdc_register</text>
</a>
</g>
</g>
<!-- Node12&#45;&gt;Node13 -->
<g id="edge14_Node000012_Node000013" class="edge">
<title>Node12&#45;&gt;Node13</title>
<g id="a_edge14_Node000012_Node000013"><a xlink:title=" ">
<path fill="none" stroke="#63b8ff" d="M284.42,-259C267.16,-259 246.63,-259 227.35,-259"/>
<polygon fill="#63b8ff" stroke="#63b8ff" points="284.29,-262.5 294.29,-259 284.29,-255.5 284.29,-262.5"/>
</a>
</g>
</g>
<!-- Node19&#45;&gt;Node9 -->
<g id="edge21_Node000019_Node000009" class="edge">
<title>Node19&#45;&gt;Node9</title>
<g id="a_edge21_Node000019_Node000009"><a xlink:title=" ">
<path fill="none" stroke="#63b8ff" d="M252.29,-308.48C232.51,-310.77 212.03,-313.15 195.55,-315.06"/>
<polygon fill="#63b8ff" stroke="#63b8ff" points="252.46,-311.98 262,-307.36 251.66,-305.03 252.46,-311.98"/>
</a>
</g>
</g>
<!-- Node19&#45;&gt;Node13 -->
<g id="edge22_Node000019_Node000013" class="edge">
<title>Node19&#45;&gt;Node13</title>
<g id="a_edge22_Node000019_Node000013"><a xlink:title=" ">
<path fill="none" stroke="#63b8ff" d="M272.63,-286.78C250.16,-281.16 224.33,-274.71 203.23,-269.43"/>
<polygon fill="#63b8ff" stroke="#63b8ff" points="271.67,-290.15 282.22,-289.18 273.37,-283.36 271.67,-290.15"/>
</a>
</g>
</g>
</g>
</svg>
