<?xml version="1.0" encoding="UTF-8" standalone="no"?>
<!DOCTYPE svg PUBLIC "-//W3C//DTD SVG 1.1//EN"
 "http://www.w3.org/Graphics/SVG/1.1/DTD/svg11.dtd">
<!-- Generated by graphviz version 14.1.2 (20260124.0452)
 -->
<!-- Title: tusb_tasks.h Pages: 1 -->
<svg width="80pt" height="140pt"
 viewBox="0.00 0.00 80.00 140.00" xmlns="http://www.w3.org/2000/svg" xmlns:xlink="http://www.w3.org/1999/xlink">
<g id="graph0" class="graph" transform="scale(1 1) rotate(0) translate(4 136)">
<title>tusb_tasks.h</title>
<!-- Node1 -->
<g id="Node000001" class="node">
<title>Node1</title>
<g id="a_Node000001"><a xlink:title=" ">
<polygon fill="#999999" stroke="#666666" points="72.25,-132 0,-132 0,-112 72.25,-112 72.25,-132"/>
<text xml:space="preserve" text-anchor="middle" x="36.12" y="-118.5" font-family="Helvetica,sans-Serif" font-size="10.00">tusb_tasks.h</text>
</a>
</g>
</g>
<!-- Node2 -->
<g id="Node000002" class="node">
<title>Node2</title>
<g id="a_Node000002"><a xlink:href="esp__err_8h.html" target="_top" xlink:title=" ">
<polygon fill="white" stroke="#666666" points="64.38,-76 7.88,-76 7.88,-56 64.38,-56 64.38,-76"/>
<text xml:space="preserve" text-anchor="middle" x="36.12" y="-62.5" font-family="Helvetica,sans-Serif" font-size="10.00">esp_err.h</text>
</a>
</g>
</g>
<!-- Node1&#45;&gt;Node2 -->
<g id="edge1_Node000001_Node000002" class="edge">
<title>Node1&#45;&gt;Node2</title>
<g id="a_edge1_Node000001_Node000002"><a xlink:title=" ">
<path fill="none" stroke="#63b8ff" d="M36.12,-111.59C36.12,-105.01 36.12,-95.96 36.12,-87.73"/>
<polygon fill="#63b8ff" stroke="#63b8ff" points="39.63,-87.81 36.13,-77.81 32.63,-87.81 39.63,-87.81"/>
</a>
</g>
</g>
<!-- Node3 -->
<g id="Node000003" class="node">
<title>Node3</title>
<g id="a_Node000003"><a xlink:title=" ">
<polygon fill="#e0e0e0" stroke="#999999" points="59.88,-20 12.38,-20 12.38,0 59.88,0 59.88,-20"/>
<text xml:space="preserve" text-anchor="middle" x="36.12" y="-6.5" font-family="Helvetica,sans-Serif" font-size="10.00">stdlib.h</text>
</a>
</g>
</g>
<!-- Node2&#45;&gt;Node3 -->
<g id="edge2_Node000002_Node000003" class="edge">
<title>Node2&#45;&gt;Node3</title>
<g id="a_edge2_Node000002_Node000003"><a xlink:title=" ">
<path fill="none" stroke="#63b8ff" d="M36.12,-55.59C36.12,-49.01 36.12,-39.96 36.12,-31.73"/>
<polygon fill="#63b8ff" stroke="#63b8ff" points="39.63,-31.81 36.13,-21.81 32.63,-31.81 39.63,-31.81"/>
</a>
</g>
</g>
</g>
</svg>
