<?xml version="1.0" encoding="UTF-8" standalone="no"?>
<!DOCTYPE svg PUBLIC "-//W3C//DTD SVG 1.1//EN"
 "http://www.w3.org/Graphics/SVG/1.1/DTD/svg11.dtd">
<!-- Generated by graphviz version 14.1.2 (20260124.0452)
 -->
<!-- Title: tinyusb_cdcacm_read Pages: 1 -->
<svg width="405pt" height="154pt"
 viewBox="0.00 0.00 405.00 154.00" xmlns="http://www.w3.org/2000/svg" xmlns:xlink="http://www.w3.org/1999/xlink">

<svg id="main" version="1.1" xmlns="http://www.w3.org/2000/svg" xmlns:xlink="http://www.w3.org/1999/xlink" xml:space="preserve">

<style type="text/css"><![CDATA[
.node, .edge {opacity: 0.7;}
.node.selected, .edge.selected {opacity: 1;}
.edge:hover path { stroke: red; }
.edge:hover polygon { stroke: red; fill: red; }
]]></style>
<script type="application/ecmascript" xlink:href="svg.min.js"/>
<svg id="graph" class="graph">
<g id="graph0" class="graph" transform="scale(1 1) rotate(0) translate(4 150)">
<title>tinyusb_cdcacm_read</title>
<!-- Node1 -->
<g id="Node000001" class="node">
<title>Node1</title>
<g id="a_Node000001"><a xlink:title="Read a content to the array, and defines it&#39;s size to the sz_store.">
<polygon fill="#999999" stroke="#666666" points="111.25,-80 0,-80 0,-60 111.25,-60 111.25,-80"/>
<text xml:space="preserve" text-anchor="middle" x="55.62" y="-66.5" font-family="Helvetica,sans-Serif" font-size="10.00">tinyusb_cdcacm_read</text>
</a>
</g>
</g>
<!-- Node2 -->
<g id="Node000002" class="node">
<title>Node2</title>
<g id="a_Node000002"><a xlink:href="tusb__cdc__acm_8c.html#ab24ee802c4641898cbc524df38a75dc1" target="_top" xlink:title=" ">
<polygon fill="white" stroke="#666666" points="227.75,-146 174.25,-146 174.25,-126 227.75,-126 227.75,-146"/>
<text xml:space="preserve" text-anchor="middle" x="201" y="-132.5" font-family="Helvetica,sans-Serif" font-size="10.00">get_acm</text>
</a>
</g>
</g>
<!-- Node1&#45;&gt;Node2 -->
<g id="edge1_Node000001_Node000002" class="edge">
<title>Node1&#45;&gt;Node2</title>
<g id="a_edge1_Node000001_Node000002"><a xlink:title=" ">
<path fill="none" stroke="#63b8ff" d="M75.02,-80.46C93.08,-90.51 121.59,-105.78 147.25,-117 152.47,-119.28 158.06,-121.51 163.57,-123.6"/>
<polygon fill="#63b8ff" stroke="#63b8ff" points="161.96,-126.73 172.55,-126.88 164.36,-120.16 161.96,-126.73"/>
</a>
</g>
</g>
<!-- Node4 -->
<g id="Node000004" class="node">
<title>Node4</title>
<g id="a_Node000004"><a xlink:href="tusb__cdc__acm_8c.html#a50069fbe03d1e8eca477192605031e04" target="_top" xlink:title=" ">
<polygon fill="white" stroke="#666666" points="254.75,-108 147.25,-108 147.25,-76 254.75,-76 254.75,-108"/>
<text xml:space="preserve" text-anchor="start" x="155.25" y="-94.5" font-family="Helvetica,sans-Serif" font-size="10.00">read_from_rx_unread</text>
<text xml:space="preserve" text-anchor="middle" x="201" y="-82.5" font-family="Helvetica,sans-Serif" font-size="10.00">_to_buffer</text>
</a>
</g>
</g>
<!-- Node1&#45;&gt;Node4 -->
<g id="edge3_Node000001_Node000004" class="edge">
<title>Node1&#45;&gt;Node4</title>
<g id="a_edge3_Node000001_Node000004"><a xlink:title=" ">
<path fill="none" stroke="#63b8ff" d="M111.65,-78.44C119.48,-79.65 127.6,-80.89 135.6,-82.12"/>
<polygon fill="#63b8ff" stroke="#63b8ff" points="134.87,-85.55 145.28,-83.6 135.93,-78.63 134.87,-85.55"/>
</a>
</g>
</g>
<!-- Node5 -->
<g id="Node000005" class="node">
<title>Node5</title>
<g id="a_Node000005"><a xlink:href="tusb__cdc__acm_8c.html#a03c9cbb583c44ea89a0d8c052b886fe6" target="_top" xlink:title=" ">
<polygon fill="white" stroke="#666666" points="247.25,-58 154.75,-58 154.75,-38 247.25,-38 247.25,-58"/>
<text xml:space="preserve" text-anchor="middle" x="201" y="-44.5" font-family="Helvetica,sans-Serif" font-size="10.00">ringbuf_mux_give</text>
</a>
</g>
</g>
<!-- Node1&#45;&gt;Node5 -->
<g id="edge4_Node000001_Node000005" class="edge">
<title>Node1&#45;&gt;Node5</title>
<g id="a_edge4_Node000001_Node000005"><a xlink:title=" ">
<path fill="none" stroke="#63b8ff" d="M111.65,-61.56C122.09,-59.96 133.02,-58.28 143.51,-56.67"/>
<polygon fill="#63b8ff" stroke="#63b8ff" points="143.81,-60.16 153.16,-55.19 142.75,-53.24 143.81,-60.16"/>
</a>
</g>
</g>
<!-- Node6 -->
<g id="Node000006" class="node">
<title>Node6</title>
<g id="a_Node000006"><a xlink:href="tusb__cdc__acm_8c.html#a0a6e2f846a55765e889741d4f17c60e5" target="_top" xlink:title=" ">
<polygon fill="white" stroke="#666666" points="247.62,-20 154.38,-20 154.38,0 247.62,0 247.62,-20"/>
<text xml:space="preserve" text-anchor="middle" x="201" y="-6.5" font-family="Helvetica,sans-Serif" font-size="10.00">ringbuf_mux_take</text>
</a>
</g>
</g>
<!-- Node1&#45;&gt;Node6 -->
<g id="edge5_Node000001_Node000006" class="edge">
<title>Node1&#45;&gt;Node6</title>
<g id="a_edge5_Node000001_Node000006"><a xlink:title=" ">
<path fill="none" stroke="#63b8ff" d="M78.39,-59.57C96.62,-50.97 123.41,-38.67 147.25,-29 151.08,-27.45 155.1,-25.88 159.13,-24.36"/>
<polygon fill="#63b8ff" stroke="#63b8ff" points="160.13,-27.72 168.3,-20.97 157.7,-21.15 160.13,-27.72"/>
</a>
</g>
</g>
<!-- Node3 -->
<g id="Node000003" class="node">
<title>Node3</title>
<g id="a_Node000003"><a xlink:href="cdc_8c.html#a19af1be61f3d48fb87311dd61c06cbae" target="_top" xlink:title="Return interface of a CDC device.">
<polygon fill="white" stroke="#666666" points="396.75,-146 290.75,-146 290.75,-126 396.75,-126 396.75,-146"/>
<text xml:space="preserve" text-anchor="middle" x="343.75" y="-132.5" font-family="Helvetica,sans-Serif" font-size="10.00">tinyusb_cdc_get_intf</text>
</a>
</g>
</g>
<!-- Node2&#45;&gt;Node3 -->
<g id="edge2_Node000002_Node000003" class="edge">
<title>Node2&#45;&gt;Node3</title>
<g id="a_edge2_Node000002_Node000003"><a xlink:title=" ">
<path fill="none" stroke="#63b8ff" d="M228.14,-136C242.56,-136 261.14,-136 279.13,-136"/>
<polygon fill="#63b8ff" stroke="#63b8ff" points="278.99,-139.5 288.99,-136 278.99,-132.5 278.99,-139.5"/>
</a>
</g>
</g>
</g>
</svg>
</svg>

<style type='text/css'>
<![CDATA[
[data-mouse-over-selected='false'] { opacity: 0.7; }
[data-mouse-over-selected='true']  { opacity: 1.0; }
]]>
</style>
<script type="application/ecmascript"><![CDATA[
document.addEventListener('DOMContentLoaded', (event) => {
  highlightEdges();
  highlightAdjacentNodes();
});
]]></script>
</svg>
