<?xml version="1.0" encoding="UTF-8" standalone="no"?>
<!DOCTYPE svg PUBLIC "-//W3C//DTD SVG 1.1//EN"
 "http://www.w3.org/Graphics/SVG/1.1/DTD/svg11.dtd">
<!-- Generated by graphviz version 14.1.2 (20260124.0452)
 -->
<!-- Title: tusb_tasks.c Pages: 1 -->
<svg width="780pt" height="196pt"
 viewBox="0.00 0.00 780.00 196.00" xmlns="http://www.w3.org/2000/svg" xmlns:xlink="http://www.w3.org/1999/xlink">
<g id="graph0" class="graph" transform="scale(1 1) rotate(0) translate(4 192)">
<title>tusb_tasks.c</title>
<!-- Node1 -->
<g id="Node000001" class="node">
<title>Node1</title>
<g id="a_Node000001"><a xlink:title=" ">
<polygon fill="#999999" stroke="#666666" points="487.15,-188 414.9,-188 414.9,-168 487.15,-168 487.15,-188"/>
<text xml:space="preserve" text-anchor="middle" x="451.02" y="-174.5" font-family="Helvetica,sans-Serif" font-size="10.00">tusb_tasks.c</text>
</a>
</g>
</g>
<!-- Node2 -->
<g id="Node000002" class="node">
<title>Node2</title>
<g id="a_Node000002"><a xlink:title=" ">
<polygon fill="#e0e0e0" stroke="#999999" points="122.15,-20 55.9,-20 55.9,0 122.15,0 122.15,-20"/>
<text xml:space="preserve" text-anchor="middle" x="89.02" y="-6.5" font-family="Helvetica,sans-Serif" font-size="10.00">sdkconfig.h</text>
</a>
</g>
</g>
<!-- Node1&#45;&gt;Node2 -->
<g id="edge1_Node000001_Node000002" class="edge">
<title>Node1&#45;&gt;Node2</title>
<g id="a_edge1_Node000001_Node000002"><a xlink:title=" ">
<path fill="none" stroke="#63b8ff" d="M414.57,-174.45C317.43,-166.81 56.19,-140.55 5.02,-76 -11.96,-54.57 18.91,-36.16 47.9,-24.46"/>
<polygon fill="#63b8ff" stroke="#63b8ff" points="48.89,-27.83 56.99,-21 46.4,-21.28 48.89,-27.83"/>
</a>
</g>
</g>
<!-- Node3 -->
<g id="Node000003" class="node">
<title>Node3</title>
<g id="a_Node000003"><a xlink:title=" ">
<polygon fill="#e0e0e0" stroke="#999999" points="585.4,-132 478.65,-132 478.65,-112 585.4,-112 585.4,-132"/>
<text xml:space="preserve" text-anchor="middle" x="532.02" y="-118.5" font-family="Helvetica,sans-Serif" font-size="10.00">freertos/FreeRTOS.h</text>
</a>
</g>
</g>
<!-- Node1&#45;&gt;Node3 -->
<g id="edge2_Node000001_Node000003" class="edge">
<title>Node1&#45;&gt;Node3</title>
<g id="a_edge2_Node000001_Node000003"><a xlink:title=" ">
<path fill="none" stroke="#63b8ff" d="M465.13,-167.59C477.02,-159.67 494.29,-148.16 508.3,-138.82"/>
<polygon fill="#63b8ff" stroke="#63b8ff" points="510.16,-141.78 516.54,-133.32 506.28,-135.95 510.16,-141.78"/>
</a>
</g>
</g>
<!-- Node4 -->
<g id="Node000004" class="node">
<title>Node4</title>
<g id="a_Node000004"><a xlink:title=" ">
<polygon fill="#e0e0e0" stroke="#999999" points="682.52,-132 603.52,-132 603.52,-112 682.52,-112 682.52,-132"/>
<text xml:space="preserve" text-anchor="middle" x="643.02" y="-118.5" font-family="Helvetica,sans-Serif" font-size="10.00">freertos/task.h</text>
</a>
</g>
</g>
<!-- Node1&#45;&gt;Node4 -->
<g id="edge3_Node000001_Node000004" class="edge">
<title>Node1&#45;&gt;Node4</title>
<g id="a_edge3_Node000001_Node000004"><a xlink:title=" ">
<path fill="none" stroke="#63b8ff" d="M484.47,-167.59C516.07,-158.71 563.7,-145.31 598.5,-135.52"/>
<polygon fill="#63b8ff" stroke="#63b8ff" points="599.18,-138.97 607.86,-132.89 597.29,-132.23 599.18,-138.97"/>
</a>
</g>
</g>
<!-- Node5 -->
<g id="Node000005" class="node">
<title>Node5</title>
<g id="a_Node000005"><a xlink:href="esp__log_8h.html" target="_top" xlink:title=" ">
<polygon fill="white" stroke="#666666" points="515.02,-76 457.02,-76 457.02,-56 515.02,-56 515.02,-76"/>
<text xml:space="preserve" text-anchor="middle" x="486.02" y="-62.5" font-family="Helvetica,sans-Serif" font-size="10.00">esp_log.h</text>
</a>
</g>
</g>
<!-- Node1&#45;&gt;Node5 -->
<g id="edge4_Node000001_Node000005" class="edge">
<title>Node1&#45;&gt;Node5</title>
<g id="a_edge4_Node000001_Node000005"><a xlink:title=" ">
<path fill="none" stroke="#63b8ff" d="M453.56,-167.69C457.06,-155.03 463.65,-131.69 470.02,-112 472.7,-103.72 475.87,-94.67 478.68,-86.87"/>
<polygon fill="#63b8ff" stroke="#63b8ff" points="481.9,-88.27 482.04,-77.68 475.32,-85.87 481.9,-88.27"/>
</a>
</g>
</g>
<!-- Node7 -->
<g id="Node000007" class="node">
<title>Node7</title>
<g id="a_Node000007"><a xlink:title=" ">
<polygon fill="#e0e0e0" stroke="#999999" points="771.77,-132 700.27,-132 700.27,-112 771.77,-112 771.77,-132"/>
<text xml:space="preserve" text-anchor="middle" x="736.02" y="-118.5" font-family="Helvetica,sans-Serif" font-size="10.00">esp_check.h</text>
</a>
</g>
</g>
<!-- Node1&#45;&gt;Node7 -->
<g id="edge6_Node000001_Node000007" class="edge">
<title>Node1&#45;&gt;Node7</title>
<g id="a_edge6_Node000001_Node000007"><a xlink:title=" ">
<path fill="none" stroke="#63b8ff" d="M487.4,-170.41C532.49,-162.19 611.99,-147.57 689.15,-132.54"/>
<polygon fill="#63b8ff" stroke="#63b8ff" points="689.39,-136.06 698.53,-130.71 688.04,-129.19 689.39,-136.06"/>
</a>
</g>
</g>
<!-- Node8 -->
<g id="Node000008" class="node">
<title>Node8</title>
<g id="a_Node000008"><a xlink:href="tinyusb_8h.html" target="_top" xlink:title=" ">
<polygon fill="white" stroke="#666666" points="308.9,-132 253.15,-132 253.15,-112 308.9,-112 308.9,-132"/>
<text xml:space="preserve" text-anchor="middle" x="281.02" y="-118.5" font-family="Helvetica,sans-Serif" font-size="10.00">tinyusb.h</text>
</a>
</g>
</g>
<!-- Node1&#45;&gt;Node8 -->
<g id="edge7_Node000001_Node000008" class="edge">
<title>Node1&#45;&gt;Node8</title>
<g id="a_edge7_Node000001_Node000008"><a xlink:title=" ">
<path fill="none" stroke="#63b8ff" d="M421.41,-167.59C393.28,-158.66 350.82,-145.17 319.96,-135.37"/>
<polygon fill="#63b8ff" stroke="#63b8ff" points="321.2,-132.09 310.61,-132.4 319.08,-138.76 321.2,-132.09"/>
</a>
</g>
</g>
<!-- Node15 -->
<g id="Node000015" class="node">
<title>Node15</title>
<g id="a_Node000015"><a xlink:href="tusb__tasks_8h.html" target="_top" xlink:title=" ">
<polygon fill="white" stroke="#666666" points="423.15,-132 350.9,-132 350.9,-112 423.15,-112 423.15,-132"/>
<text xml:space="preserve" text-anchor="middle" x="387.02" y="-118.5" font-family="Helvetica,sans-Serif" font-size="10.00">tusb_tasks.h</text>
</a>
</g>
</g>
<!-- Node1&#45;&gt;Node15 -->
<g id="edge17_Node000001_Node000015" class="edge">
<title>Node1&#45;&gt;Node15</title>
<g id="a_edge17_Node000001_Node000015"><a xlink:title=" ">
<path fill="none" stroke="#63b8ff" d="M439.87,-167.59C430.7,-159.85 417.47,-148.69 406.54,-139.47"/>
<polygon fill="#63b8ff" stroke="#63b8ff" points="409.1,-137.05 399.2,-133.27 404.59,-142.4 409.1,-137.05"/>
</a>
</g>
</g>
<!-- Node6 -->
<g id="Node000006" class="node">
<title>Node6</title>
<g id="a_Node000006"><a xlink:title=" ">
<polygon fill="#e0e0e0" stroke="#999999" points="471.77,-20 424.27,-20 424.27,0 471.77,0 471.77,-20"/>
<text xml:space="preserve" text-anchor="middle" x="448.02" y="-6.5" font-family="Helvetica,sans-Serif" font-size="10.00">stdlib.h</text>
</a>
</g>
</g>
<!-- Node5&#45;&gt;Node6 -->
<g id="edge5_Node000005_Node000006" class="edge">
<title>Node5&#45;&gt;Node6</title>
<g id="a_edge5_Node000005_Node000006"><a xlink:title=" ">
<path fill="none" stroke="#63b8ff" d="M479.4,-55.59C474.34,-48.39 467.19,-38.23 460.99,-29.43"/>
<polygon fill="#63b8ff" stroke="#63b8ff" points="464.05,-27.7 455.44,-21.54 458.33,-31.73 464.05,-27.7"/>
</a>
</g>
</g>
<!-- Node9 -->
<g id="Node000009" class="node">
<title>Node9</title>
<g id="a_Node000009"><a xlink:title=" ">
<polygon fill="#e0e0e0" stroke="#999999" points="364.9,-76 309.15,-76 309.15,-56 364.9,-56 364.9,-76"/>
<text xml:space="preserve" text-anchor="middle" x="337.02" y="-62.5" font-family="Helvetica,sans-Serif" font-size="10.00">stdbool.h</text>
</a>
</g>
</g>
<!-- Node8&#45;&gt;Node9 -->
<g id="edge8_Node000008_Node000009" class="edge">
<title>Node8&#45;&gt;Node9</title>
<g id="a_edge8_Node000008_Node000009"><a xlink:title=" ">
<path fill="none" stroke="#63b8ff" d="M290.78,-111.59C298.65,-104.01 309.92,-93.13 319.37,-84.02"/>
<polygon fill="#63b8ff" stroke="#63b8ff" points="321.52,-86.81 326.29,-77.35 316.66,-81.77 321.52,-86.81"/>
</a>
</g>
</g>
<!-- Node10 -->
<g id="Node000010" class="node">
<title>Node10</title>
<g id="a_Node000010"><a xlink:href="esp__err_8h.html" target="_top" xlink:title=" ">
<polygon fill="white" stroke="#666666" points="439.27,-76 382.77,-76 382.77,-56 439.27,-56 439.27,-76"/>
<text xml:space="preserve" text-anchor="middle" x="411.02" y="-62.5" font-family="Helvetica,sans-Serif" font-size="10.00">esp_err.h</text>
</a>
</g>
</g>
<!-- Node8&#45;&gt;Node10 -->
<g id="edge9_Node000008_Node000010" class="edge">
<title>Node8&#45;&gt;Node10</title>
<g id="a_edge9_Node000008_Node000010"><a xlink:title=" ">
<path fill="none" stroke="#63b8ff" d="M303.67,-111.59C324.14,-103.09 354.54,-90.46 377.77,-80.81"/>
<polygon fill="#63b8ff" stroke="#63b8ff" points="378.91,-84.13 386.8,-77.06 376.23,-77.66 378.91,-84.13"/>
</a>
</g>
</g>
<!-- Node11 -->
<g id="Node000011" class="node">
<title>Node11</title>
<g id="a_Node000011"><a xlink:title=" ">
<polygon fill="#e0e0e0" stroke="#999999" points="57.52,-76 14.52,-76 14.52,-56 57.52,-56 57.52,-76"/>
<text xml:space="preserve" text-anchor="middle" x="36.02" y="-62.5" font-family="Helvetica,sans-Serif" font-size="10.00">tusb.h</text>
</a>
</g>
</g>
<!-- Node8&#45;&gt;Node11 -->
<g id="edge11_Node000008_Node000011" class="edge">
<title>Node8&#45;&gt;Node11</title>
<g id="a_edge11_Node000008_Node000011"><a xlink:title=" ">
<path fill="none" stroke="#63b8ff" d="M252.67,-115.86C213.39,-108.58 139.99,-94.34 68.85,-76.57"/>
<polygon fill="#63b8ff" stroke="#63b8ff" points="69.94,-73.23 59.38,-74.17 68.22,-80.02 69.94,-73.23"/>
</a>
</g>
</g>
<!-- Node12 -->
<g id="Node000012" class="node">
<title>Node12</title>
<g id="a_Node000012"><a xlink:title=" ">
<polygon fill="#e0e0e0" stroke="#999999" points="285.27,-20 210.77,-20 210.77,0 285.27,0 285.27,-20"/>
<text xml:space="preserve" text-anchor="middle" x="248.02" y="-6.5" font-family="Helvetica,sans-Serif" font-size="10.00">tusb_option.h</text>
</a>
</g>
</g>
<!-- Node8&#45;&gt;Node12 -->
<g id="edge12_Node000008_Node000012" class="edge">
<title>Node8&#45;&gt;Node12</title>
<g id="a_edge12_Node000008_Node000012"><a xlink:title=" ">
<path fill="none" stroke="#63b8ff" d="M278.37,-111.73C274.74,-99.1 268,-75.81 262.02,-56 259.57,-47.88 256.81,-38.95 254.39,-31.21"/>
<polygon fill="#63b8ff" stroke="#63b8ff" points="257.75,-30.23 251.42,-21.74 251.07,-32.33 257.75,-30.23"/>
</a>
</g>
</g>
<!-- Node13 -->
<g id="Node000013" class="node">
<title>Node13</title>
<g id="a_Node000013"><a xlink:href="tusb__config_8h.html" target="_top" xlink:title=" ">
<polygon fill="white" stroke="#666666" points="253.27,-76 178.77,-76 178.77,-56 253.27,-56 253.27,-76"/>
<text xml:space="preserve" text-anchor="middle" x="216.02" y="-62.5" font-family="Helvetica,sans-Serif" font-size="10.00">tusb_config.h</text>
</a>
</g>
</g>
<!-- Node8&#45;&gt;Node13 -->
<g id="edge13_Node000008_Node000013" class="edge">
<title>Node8&#45;&gt;Node13</title>
<g id="a_edge13_Node000008_Node000013"><a xlink:title=" ">
<path fill="none" stroke="#63b8ff" d="M269.7,-111.59C260.38,-103.85 246.94,-92.69 235.85,-83.47"/>
<polygon fill="#63b8ff" stroke="#63b8ff" points="238.31,-80.96 228.38,-77.27 233.83,-86.35 238.31,-80.96"/>
</a>
</g>
</g>
<!-- Node14 -->
<g id="Node000014" class="node">
<title>Node14</title>
<g id="a_Node000014"><a xlink:href="tinyusb__types_8h.html" target="_top" xlink:title=" ">
<polygon fill="white" stroke="#666666" points="160.52,-76 75.52,-76 75.52,-56 160.52,-56 160.52,-76"/>
<text xml:space="preserve" text-anchor="middle" x="118.02" y="-62.5" font-family="Helvetica,sans-Serif" font-size="10.00">tinyusb_types.h</text>
</a>
</g>
</g>
<!-- Node8&#45;&gt;Node14 -->
<g id="edge16_Node000008_Node000014" class="edge">
<title>Node8&#45;&gt;Node14</title>
<g id="a_edge16_Node000008_Node000014"><a xlink:title=" ">
<path fill="none" stroke="#63b8ff" d="M253,-111.72C226.61,-102.97 186.82,-89.79 157.27,-80"/>
<polygon fill="#63b8ff" stroke="#63b8ff" points="158.53,-76.73 147.93,-76.91 156.33,-83.38 158.53,-76.73"/>
</a>
</g>
</g>
<!-- Node10&#45;&gt;Node6 -->
<g id="edge10_Node000010_Node000006" class="edge">
<title>Node10&#45;&gt;Node6</title>
<g id="a_edge10_Node000010_Node000006"><a xlink:title=" ">
<path fill="none" stroke="#63b8ff" d="M417.47,-55.59C422.35,-48.47 429.21,-38.45 435.2,-29.72"/>
<polygon fill="#63b8ff" stroke="#63b8ff" points="438.03,-31.77 440.8,-21.55 432.26,-27.82 438.03,-31.77"/>
</a>
</g>
</g>
<!-- Node13&#45;&gt;Node2 -->
<g id="edge15_Node000013_Node000002" class="edge">
<title>Node13&#45;&gt;Node2</title>
<g id="a_edge15_Node000013_Node000002"><a xlink:title=" ">
<path fill="none" stroke="#63b8ff" d="M193.9,-55.59C173.99,-47.13 144.47,-34.58 121.81,-24.94"/>
<polygon fill="#63b8ff" stroke="#63b8ff" points="123.28,-21.76 112.71,-21.07 120.54,-28.21 123.28,-21.76"/>
</a>
</g>
</g>
<!-- Node13&#45;&gt;Node12 -->
<g id="edge14_Node000013_Node000012" class="edge">
<title>Node13&#45;&gt;Node12</title>
<g id="a_edge14_Node000013_Node000012"><a xlink:title=" ">
<path fill="none" stroke="#63b8ff" d="M221.6,-55.59C225.77,-48.55 231.63,-38.67 236.76,-30"/>
<polygon fill="#63b8ff" stroke="#63b8ff" points="239.65,-31.99 241.74,-21.6 233.63,-28.42 239.65,-31.99"/>
</a>
</g>
</g>
<!-- Node15&#45;&gt;Node10 -->
<g id="edge18_Node000015_Node000010" class="edge">
<title>Node15&#45;&gt;Node10</title>
<g id="a_edge18_Node000015_Node000010"><a xlink:title=" ">
<path fill="none" stroke="#63b8ff" d="M391.2,-111.59C394.27,-104.7 398.53,-95.1 402.32,-86.57"/>
<polygon fill="#63b8ff" stroke="#63b8ff" points="405.41,-88.24 406.28,-77.68 399.02,-85.4 405.41,-88.24"/>
</a>
</g>
</g>
</g>
</svg>
