<?xml version="1.0" encoding="UTF-8" standalone="no"?>
<!DOCTYPE svg PUBLIC "-//W3C//DTD SVG 1.1//EN"
 "http://www.w3.org/Graphics/SVG/1.1/DTD/svg11.dtd">
<!-- Generated by graphviz version 14.1.2 (20260124.0452)
 -->
<!-- Title: usb_descriptors.c Pages: 1 -->
<svg width="202pt" height="140pt"
 viewBox="0.00 0.00 202.00 140.00" xmlns="http://www.w3.org/2000/svg" xmlns:xlink="http://www.w3.org/1999/xlink">
<g id="graph0" class="graph" transform="scale(1 1) rotate(0) translate(4 136)">
<title>usb_descriptors.c</title>
<!-- Node1 -->
<g id="Node000001" class="node">
<title>Node1</title>
<g id="a_Node000001"><a xlink:title=" ">
<polygon fill="#999999" stroke="#666666" points="158.12,-132 64.88,-132 64.88,-112 158.12,-112 158.12,-132"/>
<text xml:space="preserve" text-anchor="middle" x="111.5" y="-118.5" font-family="Helvetica,sans-Serif" font-size="10.00">usb_descriptors.c</text>
</a>
</g>
</g>
<!-- Node2 -->
<g id="Node000002" class="node">
<title>Node2</title>
<g id="a_Node000002"><a xlink:href="usb__descriptors_8h.html" target="_top" xlink:title=" ">
<polygon fill="white" stroke="#666666" points="109.12,-76 15.88,-76 15.88,-56 109.12,-56 109.12,-76"/>
<text xml:space="preserve" text-anchor="middle" x="62.5" y="-62.5" font-family="Helvetica,sans-Serif" font-size="10.00">usb_descriptors.h</text>
</a>
</g>
</g>
<!-- Node1&#45;&gt;Node2 -->
<g id="edge1_Node000001_Node000002" class="edge">
<title>Node1&#45;&gt;Node2</title>
<g id="a_edge1_Node000001_Node000002"><a xlink:title=" ">
<path fill="none" stroke="#63b8ff" d="M102.96,-111.59C96.22,-104.16 86.61,-93.58 78.46,-84.58"/>
<polygon fill="#63b8ff" stroke="#63b8ff" points="81.27,-82.47 71.95,-77.42 76.08,-87.18 81.27,-82.47"/>
</a>
</g>
</g>
<!-- Node5 -->
<g id="Node000005" class="node">
<title>Node5</title>
<g id="a_Node000005"><a xlink:title=" ">
<polygon fill="#e0e0e0" stroke="#999999" points="193.62,-76 127.38,-76 127.38,-56 193.62,-56 193.62,-76"/>
<text xml:space="preserve" text-anchor="middle" x="160.5" y="-62.5" font-family="Helvetica,sans-Serif" font-size="10.00">sdkconfig.h</text>
</a>
</g>
</g>
<!-- Node1&#45;&gt;Node5 -->
<g id="edge4_Node000001_Node000005" class="edge">
<title>Node1&#45;&gt;Node5</title>
<g id="a_edge4_Node000001_Node000005"><a xlink:title=" ">
<path fill="none" stroke="#63b8ff" d="M120.04,-111.59C126.78,-104.16 136.39,-93.58 144.54,-84.58"/>
<polygon fill="#63b8ff" stroke="#63b8ff" points="146.92,-87.18 151.05,-77.42 141.73,-82.47 146.92,-87.18"/>
</a>
</g>
</g>
<!-- Node3 -->
<g id="Node000003" class="node">
<title>Node3</title>
<g id="a_Node000003"><a xlink:title=" ">
<polygon fill="#e0e0e0" stroke="#999999" points="43,-20 0,-20 0,0 43,0 43,-20"/>
<text xml:space="preserve" text-anchor="middle" x="21.5" y="-6.5" font-family="Helvetica,sans-Serif" font-size="10.00">tusb.h</text>
</a>
</g>
</g>
<!-- Node2&#45;&gt;Node3 -->
<g id="edge2_Node000002_Node000003" class="edge">
<title>Node2&#45;&gt;Node3</title>
<g id="a_edge2_Node000002_Node000003"><a xlink:title=" ">
<path fill="none" stroke="#63b8ff" d="M55.36,-55.59C49.89,-48.39 42.18,-38.23 35.49,-29.43"/>
<polygon fill="#63b8ff" stroke="#63b8ff" points="38.31,-27.35 29.48,-21.5 32.73,-31.58 38.31,-27.35"/>
</a>
</g>
</g>
<!-- Node4 -->
<g id="Node000004" class="node">
<title>Node4</title>
<g id="a_Node000004"><a xlink:href="tinyusb__types_8h.html" target="_top" xlink:title=" ">
<polygon fill="white" stroke="#666666" points="146,-20 61,-20 61,0 146,0 146,-20"/>
<text xml:space="preserve" text-anchor="middle" x="103.5" y="-6.5" font-family="Helvetica,sans-Serif" font-size="10.00">tinyusb_types.h</text>
</a>
</g>
</g>
<!-- Node2&#45;&gt;Node4 -->
<g id="edge3_Node000002_Node000004" class="edge">
<title>Node2&#45;&gt;Node4</title>
<g id="a_edge3_Node000002_Node000004"><a xlink:title=" ">
<path fill="none" stroke="#63b8ff" d="M69.64,-55.59C75.11,-48.39 82.82,-38.23 89.51,-29.43"/>
<polygon fill="#63b8ff" stroke="#63b8ff" points="92.27,-31.58 95.52,-21.5 86.69,-27.35 92.27,-31.58"/>
</a>
</g>
</g>
</g>
</svg>
