<?xml version="1.0" encoding="UTF-8" standalone="no"?>
<!DOCTYPE svg PUBLIC "-//W3C//DTD SVG 1.1//EN"
 "http://www.w3.org/Graphics/SVG/1.1/DTD/svg11.dtd">
<!-- Generated by graphviz version 14.1.2 (20260124.0452)
 -->
<!-- Title: usb_descriptors.h Pages: 1 -->
<svg width="176pt" height="84pt"
 viewBox="0.00 0.00 176.00 84.00" xmlns="http://www.w3.org/2000/svg" xmlns:xlink="http://www.w3.org/1999/xlink">
<g id="graph0" class="graph" transform="scale(1 1) rotate(0) translate(4 80)">
<title>usb_descriptors.h</title>
<!-- Node1 -->
<g id="Node000001" class="node">
<title>Node1</title>
<g id="a_Node000001"><a xlink:title=" ">
<polygon fill="#999999" stroke="#666666" points="120.5,-76 27.25,-76 27.25,-56 120.5,-56 120.5,-76"/>
<text xml:space="preserve" text-anchor="middle" x="73.88" y="-62.5" font-family="Helvetica,sans-Serif" font-size="10.00">usb_descriptors.h</text>
</a>
</g>
</g>
<!-- Node2 -->
<g id="Node000002" class="node">
<title>Node2</title>
<g id="a_Node000002"><a xlink:href="tinyusb_8c.html" target="_top" xlink:title=" ">
<polygon fill="white" stroke="#666666" points="55.75,-20 0,-20 0,0 55.75,0 55.75,-20"/>
<text xml:space="preserve" text-anchor="middle" x="27.88" y="-6.5" font-family="Helvetica,sans-Serif" font-size="10.00">tinyusb.c</text>
</a>
</g>
</g>
<!-- Node1&#45;&gt;Node2 -->
<g id="edge1_Node000001_Node000002" class="edge">
<title>Node1&#45;&gt;Node2</title>
<g id="a_edge1_Node000001_Node000002"><a xlink:title=" ">
<path fill="none" stroke="#63b8ff" d="M58.54,-47C50.92,-38.06 42.04,-27.62 35.8,-20.3"/>
<polygon fill="#63b8ff" stroke="#63b8ff" points="55.73,-49.1 64.88,-54.44 61.06,-44.56 55.73,-49.1"/>
</a>
</g>
</g>
<!-- Node3 -->
<g id="Node000003" class="node">
<title>Node3</title>
<g id="a_Node000003"><a xlink:href="usb__descriptors_8c.html" target="_top" xlink:title=" ">
<polygon fill="white" stroke="#666666" points="167.5,-20 74.25,-20 74.25,0 167.5,0 167.5,-20"/>
<text xml:space="preserve" text-anchor="middle" x="120.88" y="-6.5" font-family="Helvetica,sans-Serif" font-size="10.00">usb_descriptors.c</text>
</a>
</g>
</g>
<!-- Node1&#45;&gt;Node3 -->
<g id="edge2_Node000001_Node000003" class="edge">
<title>Node1&#45;&gt;Node3</title>
<g id="a_edge2_Node000001_Node000003"><a xlink:title=" ">
<path fill="none" stroke="#63b8ff" d="M89.54,-47C97.32,-38.06 106.41,-27.62 112.78,-20.3"/>
<polygon fill="#63b8ff" stroke="#63b8ff" points="86.98,-44.61 83.06,-54.45 92.26,-49.21 86.98,-44.61"/>
</a>
</g>
</g>
</g>
</svg>
