<?xml version="1.0" encoding="UTF-8" standalone="no"?>
<!DOCTYPE svg PUBLIC "-//W3C//DTD SVG 1.1//EN"
 "http://www.w3.org/Graphics/SVG/1.1/DTD/svg11.dtd">
<!-- Generated by graphviz version 14.1.2 (20260124.0452)
 -->
<!-- Title: esp_vfs_tusb_cdc_register Pages: 1 -->
<svg width="636pt" height="274pt"
 viewBox="0.00 0.00 636.00 274.00" xmlns="http://www.w3.org/2000/svg" xmlns:xlink="http://www.w3.org/1999/xlink">
<g id="graph0" class="graph" transform="scale(1 1) rotate(0) translate(4 270.44)">
<title>esp_vfs_tusb_cdc_register</title>
<!-- Node1 -->
<g id="Node000001" class="node">
<title>Node1</title>
<g id="a_Node000001"><a xlink:title="Register TinyUSB CDC at VFS with path.">
<polygon fill="#999999" stroke="#666666" points="133,-153 0,-153 0,-133 133,-133 133,-153"/>
<text xml:space="preserve" text-anchor="middle" x="66.5" y="-139.5" font-family="Helvetica,sans-Serif" font-size="10.00">esp_vfs_tusb_cdc_register</text>
</a>
</g>
</g>
<!-- Node2 -->
<g id="Node000002" class="node">
<title>Node2</title>
<g id="a_Node000002"><a xlink:href="tusb__cdc__acm_8c.html#a659f81b1f0fd5b43eedd4b8bca19e427" target="_top" xlink:title="Check if the ACM initialized.">
<polygon fill="white" stroke="#666666" points="396.75,-241 271.25,-241 271.25,-221 396.75,-221 396.75,-241"/>
<text xml:space="preserve" text-anchor="middle" x="334" y="-227.5" font-family="Helvetica,sans-Serif" font-size="10.00">tusb_cdc_acm_initialized</text>
</a>
</g>
</g>
<!-- Node1&#45;&gt;Node2 -->
<g id="edge1_Node000001_Node000002" class="edge">
<title>Node1&#45;&gt;Node2</title>
<g id="a_edge1_Node000001_Node000002"><a xlink:title=" ">
<path fill="none" stroke="#63b8ff" d="M72.62,-153.15C85.2,-176.78 120.16,-235.09 169,-257 212.43,-276.48 268.07,-260.01 302.1,-245.87"/>
<polygon fill="#63b8ff" stroke="#63b8ff" points="303.18,-249.21 310.95,-242.01 300.39,-242.79 303.18,-249.21"/>
</a>
</g>
</g>
<!-- Node5 -->
<g id="Node000005" class="node">
<title>Node5</title>
<g id="a_Node000005"><a xlink:href="vfs__tinyusb_8c.html#a058be25b22153a43e2f3031bfa3f659d" target="_top" xlink:title=" ">
<polygon fill="white" stroke="#666666" points="233.75,-248 170.5,-248 170.5,-228 233.75,-228 233.75,-248"/>
<text xml:space="preserve" text-anchor="middle" x="202.12" y="-234.5" font-family="Helvetica,sans-Serif" font-size="10.00">tusb_close</text>
</a>
</g>
</g>
<!-- Node1&#45;&gt;Node5 -->
<g id="edge4_Node000001_Node000005" class="edge">
<title>Node1&#45;&gt;Node5</title>
<g id="a_edge4_Node000001_Node000005"><a xlink:title=" ">
<path fill="none" stroke="#63b8ff" d="M80.31,-153.3C99.25,-168.37 136.04,-197.01 169,-219 170.38,-219.92 171.81,-220.85 173.26,-221.77"/>
<polygon fill="#63b8ff" stroke="#63b8ff" points="171.26,-224.65 181.61,-226.9 174.92,-218.68 171.26,-224.65"/>
</a>
</g>
</g>
<!-- Node6 -->
<g id="Node000006" class="node">
<title>Node6</title>
<g id="a_Node000006"><a xlink:href="vfs__tinyusb_8c.html#a9dbd17d5f3dfbb17a9aca0b1640b9a76" target="_top" xlink:title=" ">
<polygon fill="white" stroke="#666666" points="231.5,-210 172.75,-210 172.75,-190 231.5,-190 231.5,-210"/>
<text xml:space="preserve" text-anchor="middle" x="202.12" y="-196.5" font-family="Helvetica,sans-Serif" font-size="10.00">tusb_fcntl</text>
</a>
</g>
</g>
<!-- Node1&#45;&gt;Node6 -->
<g id="edge5_Node000001_Node000006" class="edge">
<title>Node1&#45;&gt;Node6</title>
<g id="a_edge5_Node000001_Node000006"><a xlink:title=" ">
<path fill="none" stroke="#63b8ff" d="M92.01,-153.45C112.82,-162.33 142.94,-175.18 166.27,-185.13"/>
<polygon fill="#63b8ff" stroke="#63b8ff" points="164.81,-188.31 175.38,-189.02 167.55,-181.87 164.81,-188.31"/>
</a>
</g>
</g>
<!-- Node7 -->
<g id="Node000007" class="node">
<title>Node7</title>
<g id="a_Node000007"><a xlink:href="vfs__tinyusb_8c.html#ab1230dea75559df8de97fd2adb1566d7" target="_top" xlink:title=" ">
<polygon fill="white" stroke="#666666" points="231.88,-172 172.38,-172 172.38,-152 231.88,-152 231.88,-172"/>
<text xml:space="preserve" text-anchor="middle" x="202.12" y="-158.5" font-family="Helvetica,sans-Serif" font-size="10.00">tusb_fstat</text>
</a>
</g>
</g>
<!-- Node1&#45;&gt;Node7 -->
<g id="edge6_Node000001_Node000007" class="edge">
<title>Node1&#45;&gt;Node7</title>
<g id="a_edge6_Node000001_Node000007"><a xlink:title=" ">
<path fill="none" stroke="#63b8ff" d="M133.14,-152.33C142.68,-153.69 152.26,-155.05 161.09,-156.31"/>
<polygon fill="#63b8ff" stroke="#63b8ff" points="160.31,-159.73 170.7,-157.67 161.3,-152.8 160.31,-159.73"/>
</a>
</g>
</g>
<!-- Node8 -->
<g id="Node000008" class="node">
<title>Node8</title>
<g id="a_Node000008"><a xlink:href="vfs__tinyusb_8c.html#a74d8afba4fd90f354f511e61abbef1fb" target="_top" xlink:title=" ">
<polygon fill="white" stroke="#666666" points="232.62,-134 171.62,-134 171.62,-114 232.62,-114 232.62,-134"/>
<text xml:space="preserve" text-anchor="middle" x="202.12" y="-120.5" font-family="Helvetica,sans-Serif" font-size="10.00">tusb_open</text>
</a>
</g>
</g>
<!-- Node1&#45;&gt;Node8 -->
<g id="edge7_Node000001_Node000008" class="edge">
<title>Node1&#45;&gt;Node8</title>
<g id="a_edge7_Node000001_Node000008"><a xlink:title=" ">
<path fill="none" stroke="#63b8ff" d="M133.14,-133.67C142.3,-132.36 151.5,-131.06 160.03,-129.84"/>
<polygon fill="#63b8ff" stroke="#63b8ff" points="160.29,-133.34 169.7,-128.47 159.31,-126.41 160.29,-133.34"/>
</a>
</g>
</g>
<!-- Node9 -->
<g id="Node000009" class="node">
<title>Node9</title>
<g id="a_Node000009"><a xlink:href="vfs__tinyusb_8c.html#ac9106f2a10268e1f1db1e897e502ea8a" target="_top" xlink:title=" ">
<polygon fill="white" stroke="#666666" points="231.5,-96 172.75,-96 172.75,-76 231.5,-76 231.5,-96"/>
<text xml:space="preserve" text-anchor="middle" x="202.12" y="-82.5" font-family="Helvetica,sans-Serif" font-size="10.00">tusb_read</text>
</a>
</g>
</g>
<!-- Node1&#45;&gt;Node9 -->
<g id="edge8_Node000001_Node000009" class="edge">
<title>Node1&#45;&gt;Node9</title>
<g id="a_edge8_Node000001_Node000009"><a xlink:title=" ">
<path fill="none" stroke="#63b8ff" d="M92.01,-132.55C112.82,-123.67 142.94,-110.82 166.27,-100.87"/>
<polygon fill="#63b8ff" stroke="#63b8ff" points="167.55,-104.13 175.38,-96.98 164.81,-97.69 167.55,-104.13"/>
</a>
</g>
</g>
<!-- Node10 -->
<g id="Node000010" class="node">
<title>Node10</title>
<g id="a_Node000010"><a xlink:href="vfs__tinyusb_8c.html#acd79cfbaa8662bf059523d76611a7eb7" target="_top" xlink:title=" ">
<polygon fill="white" stroke="#666666" points="232.62,-58 171.62,-58 171.62,-38 232.62,-38 232.62,-58"/>
<text xml:space="preserve" text-anchor="middle" x="202.12" y="-44.5" font-family="Helvetica,sans-Serif" font-size="10.00">tusb_write</text>
</a>
</g>
</g>
<!-- Node1&#45;&gt;Node10 -->
<g id="edge9_Node000001_Node000010" class="edge">
<title>Node1&#45;&gt;Node10</title>
<g id="a_edge9_Node000001_Node000010"><a xlink:title=" ">
<path fill="none" stroke="#63b8ff" d="M80.31,-132.7C99.25,-117.63 136.04,-88.99 169,-67 170.38,-66.08 171.81,-65.15 173.26,-64.23"/>
<polygon fill="#63b8ff" stroke="#63b8ff" points="174.92,-67.32 181.61,-59.1 171.26,-61.35 174.92,-67.32"/>
</a>
</g>
</g>
<!-- Node12 -->
<g id="Node000012" class="node">
<title>Node12</title>
<g id="a_Node000012"><a xlink:href="vfs__tinyusb_8c.html#a8ab13f91f4811cbbc094ef53aa043e57" target="_top" xlink:title="Fill s_vfstusb.">
<polygon fill="white" stroke="#666666" points="235.25,-20 169,-20 169,0 235.25,0 235.25,-20"/>
<text xml:space="preserve" text-anchor="middle" x="202.12" y="-6.5" font-family="Helvetica,sans-Serif" font-size="10.00">vfstusb_init</text>
</a>
</g>
</g>
<!-- Node1&#45;&gt;Node12 -->
<g id="edge12_Node000001_Node000012" class="edge">
<title>Node1&#45;&gt;Node12</title>
<g id="a_edge12_Node000001_Node000012"><a xlink:title=" ">
<path fill="none" stroke="#63b8ff" d="M75,-132.59C90.71,-111.3 128.9,-62.01 169,-29 169.95,-28.22 170.94,-27.45 171.95,-26.69"/>
<polygon fill="#63b8ff" stroke="#63b8ff" points="173.83,-29.64 180.19,-21.17 169.94,-23.82 173.83,-29.64"/>
</a>
</g>
</g>
<!-- Node3 -->
<g id="Node000003" class="node">
<title>Node3</title>
<g id="a_Node000003"><a xlink:href="tusb__cdc__acm_8c.html#ab24ee802c4641898cbc524df38a75dc1" target="_top" xlink:title=" ">
<polygon fill="white" stroke="#666666" points="486.25,-197 432.75,-197 432.75,-177 486.25,-177 486.25,-197"/>
<text xml:space="preserve" text-anchor="middle" x="459.5" y="-183.5" font-family="Helvetica,sans-Serif" font-size="10.00">get_acm</text>
</a>
</g>
</g>
<!-- Node2&#45;&gt;Node3 -->
<g id="edge2_Node000002_Node000003" class="edge">
<title>Node2&#45;&gt;Node3</title>
<g id="a_edge2_Node000002_Node000003"><a xlink:title=" ">
<path fill="none" stroke="#63b8ff" d="M364.27,-220.57C381.48,-214.44 403.4,-206.63 421.76,-200.09"/>
<polygon fill="#63b8ff" stroke="#63b8ff" points="422.71,-203.47 430.96,-196.81 420.36,-196.87 422.71,-203.47"/>
</a>
</g>
</g>
<!-- Node4 -->
<g id="Node000004" class="node">
<title>Node4</title>
<g id="a_Node000004"><a xlink:href="cdc_8c.html#a19af1be61f3d48fb87311dd61c06cbae" target="_top" xlink:title="Return interface of a CDC device.">
<polygon fill="white" stroke="#666666" points="628.25,-197 522.25,-197 522.25,-177 628.25,-177 628.25,-197"/>
<text xml:space="preserve" text-anchor="middle" x="575.25" y="-183.5" font-family="Helvetica,sans-Serif" font-size="10.00">tinyusb_cdc_get_intf</text>
</a>
</g>
</g>
<!-- Node3&#45;&gt;Node4 -->
<g id="edge3_Node000003_Node000004" class="edge">
<title>Node3&#45;&gt;Node4</title>
<g id="a_edge3_Node000003_Node000004"><a xlink:title=" ">
<path fill="none" stroke="#63b8ff" d="M486.6,-187C493.81,-187 501.97,-187 510.34,-187"/>
<polygon fill="#63b8ff" stroke="#63b8ff" points="510.29,-190.5 520.29,-187 510.29,-183.5 510.29,-190.5"/>
</a>
</g>
</g>
<!-- Node11 -->
<g id="Node000011" class="node">
<title>Node11</title>
<g id="a_Node000011"><a xlink:href="tusb__cdc__acm_8c.html#ae29627ebf56d365729a287215fe98afe" target="_top" xlink:title="Sent one character to a write buffer.">
<polygon fill="white" stroke="#666666" points="390.75,-159 277.25,-159 277.25,-127 390.75,-127 390.75,-159"/>
<text xml:space="preserve" text-anchor="start" x="285.25" y="-145.5" font-family="Helvetica,sans-Serif" font-size="10.00">tinyusb_cdcacm_write</text>
<text xml:space="preserve" text-anchor="middle" x="334" y="-133.5" font-family="Helvetica,sans-Serif" font-size="10.00">_queue_char</text>
</a>
</g>
</g>
<!-- Node10&#45;&gt;Node11 -->
<g id="edge10_Node000010_Node000011" class="edge">
<title>Node10&#45;&gt;Node11</title>
<g id="a_edge10_Node000010_Node000011"><a xlink:title=" ">
<path fill="none" stroke="#63b8ff" d="M221.72,-58.46C226.22,-61.13 230.96,-64.08 235.25,-67 259.38,-83.42 285.41,-103.8 304.54,-119.32"/>
<polygon fill="#63b8ff" stroke="#63b8ff" points="302.21,-121.94 312.17,-125.56 306.64,-116.52 302.21,-121.94"/>
</a>
</g>
</g>
<!-- Node11&#45;&gt;Node3 -->
<g id="edge11_Node000011_Node000003" class="edge">
<title>Node11&#45;&gt;Node3</title>
<g id="a_edge11_Node000011_Node000003"><a xlink:title=" ">
<path fill="none" stroke="#63b8ff" d="M380.99,-159.38C394.46,-164.18 409.01,-169.37 421.82,-173.93"/>
<polygon fill="#63b8ff" stroke="#63b8ff" points="420.54,-177.19 431.13,-177.25 422.89,-170.6 420.54,-177.19"/>
</a>
</g>
</g>
<!-- Node13 -->
<g id="Node000013" class="node">
<title>Node13</title>
<g id="a_Node000013"><a xlink:href="vfs__tinyusb_8c.html#a40d9d3df1da934c51f914dab02724804" target="_top" xlink:title=" ">
<polygon fill="white" stroke="#666666" points="365.62,-20 302.38,-20 302.38,0 365.62,0 365.62,-20"/>
<text xml:space="preserve" text-anchor="middle" x="334" y="-6.5" font-family="Helvetica,sans-Serif" font-size="10.00">apply_path</text>
</a>
</g>
</g>
<!-- Node12&#45;&gt;Node13 -->
<g id="edge13_Node000012_Node000013" class="edge">
<title>Node12&#45;&gt;Node13</title>
<g id="a_edge13_Node000012_Node000013"><a xlink:title=" ">
<path fill="none" stroke="#63b8ff" d="M235.56,-10C252.33,-10 272.98,-10 290.96,-10"/>
<polygon fill="#63b8ff" stroke="#63b8ff" points="290.8,-13.5 300.8,-10 290.8,-6.5 290.8,-13.5"/>
</a>
</g>
</g>
</g>
</svg>
