<?xml version="1.0" encoding="UTF-8" standalone="no"?>
<!DOCTYPE svg PUBLIC "-//W3C//DTD SVG 1.1//EN"
 "http://www.w3.org/Graphics/SVG/1.1/DTD/svg11.dtd">
<!-- Generated by graphviz version 14.1.2 (20260124.0452)
 -->
<!-- Title: vfs_tinyusb.c Pages: 1 -->
<svg width="1257pt" height="252pt"
 viewBox="0.00 0.00 1257.00 252.00" xmlns="http://www.w3.org/2000/svg" xmlns:xlink="http://www.w3.org/1999/xlink">
<g id="graph0" class="graph" transform="scale(1 1) rotate(0) translate(4 248)">
<title>vfs_tinyusb.c</title>
<!-- Node1 -->
<g id="Node000001" class="node">
<title>Node1</title>
<g id="a_Node000001"><a xlink:title=" ">
<polygon fill="#999999" stroke="#666666" points="606.88,-244 532.38,-244 532.38,-224 606.88,-224 606.88,-244"/>
<text xml:space="preserve" text-anchor="middle" x="569.62" y="-230.5" font-family="Helvetica,sans-Serif" font-size="10.00">vfs_tinyusb.c</text>
</a>
</g>
</g>
<!-- Node2 -->
<g id="Node000002" class="node">
<title>Node2</title>
<g id="a_Node000002"><a xlink:title=" ">
<polygon fill="#e0e0e0" stroke="#999999" points="51.25,-188 0,-188 0,-168 51.25,-168 51.25,-188"/>
<text xml:space="preserve" text-anchor="middle" x="25.62" y="-174.5" font-family="Helvetica,sans-Serif" font-size="10.00">stdarg.h</text>
</a>
</g>
</g>
<!-- Node1&#45;&gt;Node2 -->
<g id="edge1_Node000001_Node000002" class="edge">
<title>Node1&#45;&gt;Node2</title>
<g id="a_edge1_Node000001_Node000002"><a xlink:title=" ">
<path fill="none" stroke="#63b8ff" d="M532.11,-231.35C448.14,-227.29 238.78,-215.09 65.62,-188 64.61,-187.84 63.58,-187.67 62.55,-187.49"/>
<polygon fill="#63b8ff" stroke="#63b8ff" points="63.32,-184.08 52.84,-185.6 61.98,-190.95 63.32,-184.08"/>
</a>
</g>
</g>
<!-- Node3 -->
<g id="Node000003" class="node">
<title>Node3</title>
<g id="a_Node000003"><a xlink:title=" ">
<polygon fill="#e0e0e0" stroke="#999999" points="144.5,-76 88.75,-76 88.75,-56 144.5,-56 144.5,-76"/>
<text xml:space="preserve" text-anchor="middle" x="116.62" y="-62.5" font-family="Helvetica,sans-Serif" font-size="10.00">stdbool.h</text>
</a>
</g>
</g>
<!-- Node1&#45;&gt;Node3 -->
<g id="edge2_Node000001_Node000003" class="edge">
<title>Node1&#45;&gt;Node3</title>
<g id="a_edge2_Node000001_Node000003"><a xlink:title=" ">
<path fill="none" stroke="#63b8ff" d="M532.06,-231.73C471.07,-228.79 347.29,-219.16 247.62,-188 194.89,-171.51 172.27,-174.23 136.62,-132 126.13,-119.57 121.14,-101.68 118.77,-87.82"/>
<polygon fill="#63b8ff" stroke="#63b8ff" points="122.25,-87.43 117.44,-77.99 115.31,-88.37 122.25,-87.43"/>
</a>
</g>
</g>
<!-- Node4 -->
<g id="Node000004" class="node">
<title>Node4</title>
<g id="a_Node000004"><a xlink:title=" ">
<polygon fill="#e0e0e0" stroke="#999999" points="519.25,-188 474,-188 474,-168 519.25,-168 519.25,-188"/>
<text xml:space="preserve" text-anchor="middle" x="496.62" y="-174.5" font-family="Helvetica,sans-Serif" font-size="10.00">stdio.h</text>
</a>
</g>
</g>
<!-- Node1&#45;&gt;Node4 -->
<g id="edge3_Node000001_Node000004" class="edge">
<title>Node1&#45;&gt;Node4</title>
<g id="a_edge3_Node000001_Node000004"><a xlink:title=" ">
<path fill="none" stroke="#63b8ff" d="M556.91,-223.59C546.23,-215.7 530.75,-204.24 518.14,-194.92"/>
<polygon fill="#63b8ff" stroke="#63b8ff" points="520.53,-192.33 510.41,-189.2 516.37,-197.96 520.53,-192.33"/>
</a>
</g>
</g>
<!-- Node5 -->
<g id="Node000005" class="node">
<title>Node5</title>
<g id="a_Node000005"><a xlink:title=" ">
<polygon fill="#e0e0e0" stroke="#999999" points="601.62,-188 537.62,-188 537.62,-168 601.62,-168 601.62,-188"/>
<text xml:space="preserve" text-anchor="middle" x="569.62" y="-174.5" font-family="Helvetica,sans-Serif" font-size="10.00">stdio_ext.h</text>
</a>
</g>
</g>
<!-- Node1&#45;&gt;Node5 -->
<g id="edge4_Node000001_Node000005" class="edge">
<title>Node1&#45;&gt;Node5</title>
<g id="a_edge4_Node000001_Node000005"><a xlink:title=" ">
<path fill="none" stroke="#63b8ff" d="M569.62,-223.59C569.62,-217.01 569.62,-207.96 569.62,-199.73"/>
<polygon fill="#63b8ff" stroke="#63b8ff" points="573.13,-199.81 569.63,-189.81 566.13,-199.81 573.13,-199.81"/>
</a>
</g>
</g>
<!-- Node6 -->
<g id="Node000006" class="node">
<title>Node6</title>
<g id="a_Node000006"><a xlink:title=" ">
<polygon fill="#e0e0e0" stroke="#999999" points="667.75,-188 619.5,-188 619.5,-168 667.75,-168 667.75,-188"/>
<text xml:space="preserve" text-anchor="middle" x="643.62" y="-174.5" font-family="Helvetica,sans-Serif" font-size="10.00">string.h</text>
</a>
</g>
</g>
<!-- Node1&#45;&gt;Node6 -->
<g id="edge5_Node000001_Node000006" class="edge">
<title>Node1&#45;&gt;Node6</title>
<g id="a_edge5_Node000001_Node000006"><a xlink:title=" ">
<path fill="none" stroke="#63b8ff" d="M582.51,-223.59C593.34,-215.7 609.04,-204.24 621.81,-194.92"/>
<polygon fill="#63b8ff" stroke="#63b8ff" points="623.65,-197.91 629.66,-189.19 619.52,-192.26 623.65,-197.91"/>
</a>
</g>
</g>
<!-- Node7 -->
<g id="Node000007" class="node">
<title>Node7</title>
<g id="a_Node000007"><a xlink:title=" ">
<polygon fill="#e0e0e0" stroke="#999999" points="751,-188 686.25,-188 686.25,-168 751,-168 751,-188"/>
<text xml:space="preserve" text-anchor="middle" x="718.62" y="-174.5" font-family="Helvetica,sans-Serif" font-size="10.00">sys/errno.h</text>
</a>
</g>
</g>
<!-- Node1&#45;&gt;Node7 -->
<g id="edge6_Node000001_Node000007" class="edge">
<title>Node1&#45;&gt;Node7</title>
<g id="a_edge6_Node000001_Node000007"><a xlink:title=" ">
<path fill="none" stroke="#63b8ff" d="M595.58,-223.59C619.47,-214.94 655.15,-202 681.95,-192.29"/>
<polygon fill="#63b8ff" stroke="#63b8ff" points="682.84,-195.69 691.05,-189 680.45,-189.11 682.84,-195.69"/>
</a>
</g>
</g>
<!-- Node8 -->
<g id="Node000008" class="node">
<title>Node8</title>
<g id="a_Node000008"><a xlink:title=" ">
<polygon fill="#e0e0e0" stroke="#999999" points="830.5,-188 768.75,-188 768.75,-168 830.5,-168 830.5,-188"/>
<text xml:space="preserve" text-anchor="middle" x="799.62" y="-174.5" font-family="Helvetica,sans-Serif" font-size="10.00">sys/fcntl.h</text>
</a>
</g>
</g>
<!-- Node1&#45;&gt;Node8 -->
<g id="edge7_Node000001_Node000008" class="edge">
<title>Node1&#45;&gt;Node8</title>
<g id="a_edge7_Node000001_Node000008"><a xlink:title=" ">
<path fill="none" stroke="#63b8ff" d="M607.35,-224.14C648.56,-214.47 714.41,-199.01 757.33,-188.93"/>
<polygon fill="#63b8ff" stroke="#63b8ff" points="758.12,-192.34 767.05,-186.65 756.52,-185.53 758.12,-192.34"/>
</a>
</g>
</g>
<!-- Node9 -->
<g id="Node000009" class="node">
<title>Node9</title>
<g id="a_Node000009"><a xlink:title=" ">
<polygon fill="#e0e0e0" stroke="#999999" points="909.12,-188 848.12,-188 848.12,-168 909.12,-168 909.12,-188"/>
<text xml:space="preserve" text-anchor="middle" x="878.62" y="-174.5" font-family="Helvetica,sans-Serif" font-size="10.00">sys/lock.h</text>
</a>
</g>
</g>
<!-- Node1&#45;&gt;Node9 -->
<g id="edge8_Node000001_Node000009" class="edge">
<title>Node1&#45;&gt;Node9</title>
<g id="a_edge8_Node000001_Node000009"><a xlink:title=" ">
<path fill="none" stroke="#63b8ff" d="M607.32,-227.47C657.49,-219.94 749.2,-205.62 836.79,-188.47"/>
<polygon fill="#63b8ff" stroke="#63b8ff" points="837.39,-191.92 846.52,-186.55 836.03,-185.05 837.39,-191.92"/>
</a>
</g>
</g>
<!-- Node10 -->
<g id="Node000010" class="node">
<title>Node10</title>
<g id="a_Node000010"><a xlink:title=" ">
<polygon fill="#e0e0e0" stroke="#999999" points="997.62,-188 927.62,-188 927.62,-168 997.62,-168 997.62,-188"/>
<text xml:space="preserve" text-anchor="middle" x="962.62" y="-174.5" font-family="Helvetica,sans-Serif" font-size="10.00">sys/param.h</text>
</a>
</g>
</g>
<!-- Node1&#45;&gt;Node10 -->
<g id="edge9_Node000001_Node000010" class="edge">
<title>Node1&#45;&gt;Node10</title>
<g id="a_edge9_Node000001_Node000010"><a xlink:title=" ">
<path fill="none" stroke="#63b8ff" d="M607.2,-229.07C669.36,-222.38 797.71,-207.71 916.07,-188.32"/>
<polygon fill="#63b8ff" stroke="#63b8ff" points="916.34,-191.83 925.63,-186.74 915.19,-184.92 916.34,-191.83"/>
</a>
</g>
</g>
<!-- Node11 -->
<g id="Node000011" class="node">
<title>Node11</title>
<g id="a_Node000011"><a xlink:href="esp__attr_8h.html" target="_top" xlink:title=" ">
<polygon fill="white" stroke="#666666" points="1075.38,-188 1015.88,-188 1015.88,-168 1075.38,-168 1075.38,-188"/>
<text xml:space="preserve" text-anchor="middle" x="1045.62" y="-174.5" font-family="Helvetica,sans-Serif" font-size="10.00">esp_attr.h</text>
</a>
</g>
</g>
<!-- Node1&#45;&gt;Node11 -->
<g id="edge10_Node000001_Node000011" class="edge">
<title>Node1&#45;&gt;Node11</title>
<g id="a_edge10_Node000001_Node000011"><a xlink:title=" ">
<path fill="none" stroke="#63b8ff" d="M607.25,-230.71C681.37,-225.85 851.68,-213.01 1004.49,-188.16"/>
<polygon fill="#63b8ff" stroke="#63b8ff" points="1004.67,-191.68 1013.97,-186.6 1003.54,-184.77 1004.67,-191.68"/>
</a>
</g>
</g>
<!-- Node12 -->
<g id="Node000012" class="node">
<title>Node12</title>
<g id="a_Node000012"><a xlink:href="esp__log_8h.html" target="_top" xlink:title=" ">
<polygon fill="white" stroke="#666666" points="89.62,-132 31.62,-132 31.62,-112 89.62,-112 89.62,-132"/>
<text xml:space="preserve" text-anchor="middle" x="60.62" y="-118.5" font-family="Helvetica,sans-Serif" font-size="10.00">esp_log.h</text>
</a>
</g>
</g>
<!-- Node1&#45;&gt;Node12 -->
<g id="edge11_Node000001_Node000012" class="edge">
<title>Node1&#45;&gt;Node12</title>
<g id="a_edge11_Node000001_Node000012"><a xlink:title=" ">
<path fill="none" stroke="#63b8ff" d="M532.16,-233.45C434.65,-234 175.55,-231.24 103.62,-188 86.62,-177.78 74.99,-157.94 68.15,-142.86"/>
<polygon fill="#63b8ff" stroke="#63b8ff" points="71.5,-141.78 64.43,-133.89 65.03,-144.46 71.5,-141.78"/>
</a>
</g>
</g>
<!-- Node14 -->
<g id="Node000014" class="node">
<title>Node14</title>
<g id="a_Node000014"><a xlink:title=" ">
<polygon fill="#e0e0e0" stroke="#999999" points="1152,-188 1093.25,-188 1093.25,-168 1152,-168 1152,-188"/>
<text xml:space="preserve" text-anchor="middle" x="1122.62" y="-174.5" font-family="Helvetica,sans-Serif" font-size="10.00">esp_vfs.h</text>
</a>
</g>
</g>
<!-- Node1&#45;&gt;Node14 -->
<g id="edge13_Node000001_Node000014" class="edge">
<title>Node1&#45;&gt;Node14</title>
<g id="a_edge13_Node000001_Node000014"><a xlink:title=" ">
<path fill="none" stroke="#63b8ff" d="M607.33,-231.58C691.05,-228.04 898.87,-217.03 1081.67,-188.27"/>
<polygon fill="#63b8ff" stroke="#63b8ff" points="1082.02,-191.76 1091.34,-186.73 1080.91,-184.85 1082.02,-191.76"/>
</a>
</g>
</g>
<!-- Node15 -->
<g id="Node000015" class="node">
<title>Node15</title>
<g id="a_Node000015"><a xlink:title=" ">
<polygon fill="#e0e0e0" stroke="#999999" points="1249.12,-188 1170.12,-188 1170.12,-168 1249.12,-168 1249.12,-188"/>
<text xml:space="preserve" text-anchor="middle" x="1209.62" y="-174.5" font-family="Helvetica,sans-Serif" font-size="10.00">esp_vfs_dev.h</text>
</a>
</g>
</g>
<!-- Node1&#45;&gt;Node15 -->
<g id="edge14_Node000001_Node000015" class="edge">
<title>Node1&#45;&gt;Node15</title>
<g id="a_edge14_Node000001_Node000015"><a xlink:title=" ">
<path fill="none" stroke="#63b8ff" d="M607.1,-231.52C699.16,-227.6 943.89,-215.39 1158.66,-188.11"/>
<polygon fill="#63b8ff" stroke="#63b8ff" points="1158.86,-191.61 1168.33,-186.86 1157.97,-184.67 1158.86,-191.61"/>
</a>
</g>
</g>
<!-- Node16 -->
<g id="Node000016" class="node">
<title>Node16</title>
<g id="a_Node000016"><a xlink:href="tinyusb_8h.html" target="_top" xlink:title=" ">
<polygon fill="white" stroke="#666666" points="293.5,-132 237.75,-132 237.75,-112 293.5,-112 293.5,-132"/>
<text xml:space="preserve" text-anchor="middle" x="265.62" y="-118.5" font-family="Helvetica,sans-Serif" font-size="10.00">tinyusb.h</text>
</a>
</g>
</g>
<!-- Node1&#45;&gt;Node16 -->
<g id="edge15_Node000001_Node000016" class="edge">
<title>Node1&#45;&gt;Node16</title>
<g id="a_edge15_Node000001_Node000016"><a xlink:title=" ">
<path fill="none" stroke="#63b8ff" d="M531.93,-233.89C480.69,-233.47 387.77,-226.77 320.62,-188 301.67,-177.06 286.24,-157.03 276.6,-142.08"/>
<polygon fill="#63b8ff" stroke="#63b8ff" points="279.62,-140.31 271.43,-133.6 273.65,-143.96 279.62,-140.31"/>
</a>
</g>
</g>
<!-- Node21 -->
<g id="Node000021" class="node">
<title>Node21</title>
<g id="a_Node000021"><a xlink:title=" ">
<polygon fill="#e0e0e0" stroke="#999999" points="615.75,-20 549.5,-20 549.5,0 615.75,0 615.75,-20"/>
<text xml:space="preserve" text-anchor="middle" x="582.62" y="-6.5" font-family="Helvetica,sans-Serif" font-size="10.00">sdkconfig.h</text>
</a>
</g>
</g>
<!-- Node1&#45;&gt;Node21 -->
<g id="edge34_Node000001_Node000021" class="edge">
<title>Node1&#45;&gt;Node21</title>
<g id="a_edge34_Node000001_Node000021"><a xlink:title=" ">
<path fill="none" stroke="#63b8ff" d="M532.14,-224.73C493.16,-214.45 440.88,-194.94 464.62,-168 548.74,-72.54 664.51,-227.46 748.62,-132 791.55,-83.29 689.46,-42.66 626.9,-23.26"/>
<polygon fill="#63b8ff" stroke="#63b8ff" points="628.14,-19.97 617.55,-20.43 626.11,-26.68 628.14,-19.97"/>
</a>
</g>
</g>
<!-- Node23 -->
<g id="Node000023" class="node">
<title>Node23</title>
<g id="a_Node000023"><a xlink:href="tusb__cdc__acm_8h.html" target="_top" xlink:title=" ">
<polygon fill="white" stroke="#666666" points="417.62,-188 329.62,-188 329.62,-168 417.62,-168 417.62,-188"/>
<text xml:space="preserve" text-anchor="middle" x="373.62" y="-174.5" font-family="Helvetica,sans-Serif" font-size="10.00">tusb_cdc_acm.h</text>
</a>
</g>
</g>
<!-- Node1&#45;&gt;Node23 -->
<g id="edge25_Node000001_Node000023" class="edge">
<title>Node1&#45;&gt;Node23</title>
<g id="a_edge25_Node000001_Node000023"><a xlink:title=" ">
<path fill="none" stroke="#63b8ff" d="M535.48,-223.59C503.22,-214.71 454.6,-201.31 419.07,-191.52"/>
<polygon fill="#63b8ff" stroke="#63b8ff" points="420.06,-188.16 409.49,-188.88 418.2,-194.91 420.06,-188.16"/>
</a>
</g>
</g>
<!-- Node28 -->
<g id="Node000028" class="node">
<title>Node28</title>
<g id="a_Node000028"><a xlink:href="vfs__tinyusb_8h.html" target="_top" xlink:title=" ">
<polygon fill="white" stroke="#666666" points="219.88,-132 145.38,-132 145.38,-112 219.88,-112 219.88,-132"/>
<text xml:space="preserve" text-anchor="middle" x="182.62" y="-118.5" font-family="Helvetica,sans-Serif" font-size="10.00">vfs_tinyusb.h</text>
</a>
</g>
</g>
<!-- Node1&#45;&gt;Node28 -->
<g id="edge32_Node000001_Node000028" class="edge">
<title>Node1&#45;&gt;Node28</title>
<g id="a_edge32_Node000001_Node000028"><a xlink:title=" ">
<path fill="none" stroke="#63b8ff" d="M531.93,-231.23C477.75,-227.71 375.39,-217.45 293.62,-188 260.43,-176.05 225.93,-154.09 204.38,-139.03"/>
<polygon fill="#63b8ff" stroke="#63b8ff" points="206.58,-136.3 196.41,-133.34 202.52,-142 206.58,-136.3"/>
</a>
</g>
</g>
<!-- Node13 -->
<g id="Node000013" class="node">
<title>Node13</title>
<g id="a_Node000013"><a xlink:title=" ">
<polygon fill="#e0e0e0" stroke="#999999" points="170.38,-20 122.88,-20 122.88,0 170.38,0 170.38,-20"/>
<text xml:space="preserve" text-anchor="middle" x="146.62" y="-6.5" font-family="Helvetica,sans-Serif" font-size="10.00">stdlib.h</text>
</a>
</g>
</g>
<!-- Node12&#45;&gt;Node13 -->
<g id="edge12_Node000012_Node000013" class="edge">
<title>Node12&#45;&gt;Node13</title>
<g id="a_edge12_Node000012_Node000013"><a xlink:title=" ">
<path fill="none" stroke="#63b8ff" d="M61.35,-111.73C62.81,-98.27 67.13,-73.08 79.62,-56 88.83,-43.42 102.69,-33.28 115.42,-25.83"/>
<polygon fill="#63b8ff" stroke="#63b8ff" points="116.86,-29.03 123.95,-21.16 113.5,-22.89 116.86,-29.03"/>
</a>
</g>
</g>
<!-- Node16&#45;&gt;Node3 -->
<g id="edge16_Node000016_Node000003" class="edge">
<title>Node16&#45;&gt;Node3</title>
<g id="a_edge16_Node000016_Node000003"><a xlink:title=" ">
<path fill="none" stroke="#63b8ff" d="M239.67,-111.59C215.78,-102.94 180.1,-90 153.3,-80.29"/>
<polygon fill="#63b8ff" stroke="#63b8ff" points="154.8,-77.11 144.2,-77 152.41,-83.69 154.8,-77.11"/>
</a>
</g>
</g>
<!-- Node17 -->
<g id="Node000017" class="node">
<title>Node17</title>
<g id="a_Node000017"><a xlink:href="esp__err_8h.html" target="_top" xlink:title=" ">
<polygon fill="white" stroke="#666666" points="218.88,-76 162.38,-76 162.38,-56 218.88,-56 218.88,-76"/>
<text xml:space="preserve" text-anchor="middle" x="190.62" y="-62.5" font-family="Helvetica,sans-Serif" font-size="10.00">esp_err.h</text>
</a>
</g>
</g>
<!-- Node16&#45;&gt;Node17 -->
<g id="edge17_Node000016_Node000017" class="edge">
<title>Node16&#45;&gt;Node17</title>
<g id="a_edge17_Node000016_Node000017"><a xlink:title=" ">
<path fill="none" stroke="#63b8ff" d="M252.56,-111.59C241.66,-103.74 225.87,-92.38 212.97,-83.09"/>
<polygon fill="#63b8ff" stroke="#63b8ff" points="215.18,-80.37 205.02,-77.36 211.09,-86.05 215.18,-80.37"/>
</a>
</g>
</g>
<!-- Node18 -->
<g id="Node000018" class="node">
<title>Node18</title>
<g id="a_Node000018"><a xlink:title=" ">
<polygon fill="#e0e0e0" stroke="#999999" points="513.12,-76 470.12,-76 470.12,-56 513.12,-56 513.12,-76"/>
<text xml:space="preserve" text-anchor="middle" x="491.62" y="-62.5" font-family="Helvetica,sans-Serif" font-size="10.00">tusb.h</text>
</a>
</g>
</g>
<!-- Node16&#45;&gt;Node18 -->
<g id="edge19_Node000016_Node000018" class="edge">
<title>Node16&#45;&gt;Node18</title>
<g id="a_edge19_Node000016_Node000018"><a xlink:title=" ">
<path fill="none" stroke="#63b8ff" d="M293.79,-114.77C336.15,-105.37 415.25,-87.66 458.72,-76.61"/>
<polygon fill="#63b8ff" stroke="#63b8ff" points="459.45,-80.04 468.25,-74.13 457.69,-73.26 459.45,-80.04"/>
</a>
</g>
</g>
<!-- Node19 -->
<g id="Node000019" class="node">
<title>Node19</title>
<g id="a_Node000019"><a xlink:title=" ">
<polygon fill="#e0e0e0" stroke="#999999" points="315.88,-20 241.38,-20 241.38,0 315.88,0 315.88,-20"/>
<text xml:space="preserve" text-anchor="middle" x="278.62" y="-6.5" font-family="Helvetica,sans-Serif" font-size="10.00">tusb_option.h</text>
</a>
</g>
</g>
<!-- Node16&#45;&gt;Node19 -->
<g id="edge20_Node000016_Node000019" class="edge">
<title>Node16&#45;&gt;Node19</title>
<g id="a_edge20_Node000016_Node000019"><a xlink:title=" ">
<path fill="none" stroke="#63b8ff" d="M264.81,-111.69C263.89,-99.01 262.84,-75.67 265.62,-56 266.79,-47.76 269.1,-38.91 271.46,-31.26"/>
<polygon fill="#63b8ff" stroke="#63b8ff" points="274.73,-32.52 274.56,-21.92 268.09,-30.31 274.73,-32.52"/>
</a>
</g>
</g>
<!-- Node20 -->
<g id="Node000020" class="node">
<title>Node20</title>
<g id="a_Node000020"><a xlink:href="tusb__config_8h.html" target="_top" xlink:title=" ">
<polygon fill="white" stroke="#666666" points="348.88,-76 274.38,-76 274.38,-56 348.88,-56 348.88,-76"/>
<text xml:space="preserve" text-anchor="middle" x="311.62" y="-62.5" font-family="Helvetica,sans-Serif" font-size="10.00">tusb_config.h</text>
</a>
</g>
</g>
<!-- Node16&#45;&gt;Node20 -->
<g id="edge21_Node000016_Node000020" class="edge">
<title>Node16&#45;&gt;Node20</title>
<g id="a_edge21_Node000016_Node000020"><a xlink:title=" ">
<path fill="none" stroke="#63b8ff" d="M273.64,-111.59C279.9,-104.24 288.8,-93.8 296.41,-84.87"/>
<polygon fill="#63b8ff" stroke="#63b8ff" points="298.9,-87.33 302.72,-77.45 293.57,-82.79 298.9,-87.33"/>
</a>
</g>
</g>
<!-- Node22 -->
<g id="Node000022" class="node">
<title>Node22</title>
<g id="a_Node000022"><a xlink:href="tinyusb__types_8h.html" target="_top" xlink:title=" ">
<polygon fill="white" stroke="#666666" points="452.12,-76 367.12,-76 367.12,-56 452.12,-56 452.12,-76"/>
<text xml:space="preserve" text-anchor="middle" x="409.62" y="-62.5" font-family="Helvetica,sans-Serif" font-size="10.00">tinyusb_types.h</text>
</a>
</g>
</g>
<!-- Node16&#45;&gt;Node22 -->
<g id="edge24_Node000016_Node000022" class="edge">
<title>Node16&#45;&gt;Node22</title>
<g id="a_edge24_Node000016_Node000022"><a xlink:title=" ">
<path fill="none" stroke="#63b8ff" d="M290.71,-111.59C313.69,-102.97 347.98,-90.12 373.84,-80.42"/>
<polygon fill="#63b8ff" stroke="#63b8ff" points="374.79,-83.8 382.93,-77.01 372.34,-77.25 374.79,-83.8"/>
</a>
</g>
</g>
<!-- Node17&#45;&gt;Node13 -->
<g id="edge18_Node000017_Node000013" class="edge">
<title>Node17&#45;&gt;Node13</title>
<g id="a_edge18_Node000017_Node000013"><a xlink:title=" ">
<path fill="none" stroke="#63b8ff" d="M182.96,-55.59C177.03,-48.32 168.64,-38.02 161.41,-29.15"/>
<polygon fill="#63b8ff" stroke="#63b8ff" points="164.19,-27.01 155.16,-21.47 158.76,-31.43 164.19,-27.01"/>
</a>
</g>
</g>
<!-- Node20&#45;&gt;Node19 -->
<g id="edge22_Node000020_Node000019" class="edge">
<title>Node20&#45;&gt;Node19</title>
<g id="a_edge22_Node000020_Node000019"><a xlink:title=" ">
<path fill="none" stroke="#63b8ff" d="M305.88,-55.59C301.57,-48.55 295.53,-38.67 290.24,-30"/>
<polygon fill="#63b8ff" stroke="#63b8ff" points="293.3,-28.3 285.1,-21.59 287.32,-31.95 293.3,-28.3"/>
</a>
</g>
</g>
<!-- Node20&#45;&gt;Node21 -->
<g id="edge23_Node000020_Node000021" class="edge">
<title>Node20&#45;&gt;Node21</title>
<g id="a_edge23_Node000020_Node000021"><a xlink:title=" ">
<path fill="none" stroke="#63b8ff" d="M349.31,-57.49C398.76,-47.64 485.44,-30.36 538.09,-19.87"/>
<polygon fill="#63b8ff" stroke="#63b8ff" points="538.49,-23.36 547.61,-17.98 537.12,-16.5 538.49,-23.36"/>
</a>
</g>
</g>
<!-- Node23&#45;&gt;Node16 -->
<g id="edge31_Node000023_Node000016" class="edge">
<title>Node23&#45;&gt;Node16</title>
<g id="a_edge31_Node000023_Node000016"><a xlink:title=" ">
<path fill="none" stroke="#63b8ff" d="M354.81,-167.59C338.27,-159.32 313.91,-147.14 294.83,-137.6"/>
<polygon fill="#63b8ff" stroke="#63b8ff" points="296.45,-134.5 285.94,-133.16 293.32,-140.76 296.45,-134.5"/>
</a>
</g>
</g>
<!-- Node23&#45;&gt;Node18 -->
<g id="edge30_Node000023_Node000018" class="edge">
<title>Node23&#45;&gt;Node18</title>
<g id="a_edge30_Node000023_Node000018"><a xlink:title=" ">
<path fill="none" stroke="#63b8ff" d="M362.55,-167.6C348.37,-154.43 327.16,-130.06 340.62,-112 372.14,-69.75 403.79,-89.29 458.75,-76.49"/>
<polygon fill="#63b8ff" stroke="#63b8ff" points="459.44,-79.93 468.21,-73.98 457.65,-73.17 459.44,-79.93"/>
</a>
</g>
</g>
<!-- Node24 -->
<g id="Node000024" class="node">
<title>Node24</title>
<g id="a_Node000024"><a xlink:title=" ">
<polygon fill="#e0e0e0" stroke="#999999" points="397.75,-132 349.5,-132 349.5,-112 397.75,-112 397.75,-132"/>
<text xml:space="preserve" text-anchor="middle" x="373.62" y="-118.5" font-family="Helvetica,sans-Serif" font-size="10.00">stdint.h</text>
</a>
</g>
</g>
<!-- Node23&#45;&gt;Node24 -->
<g id="edge26_Node000023_Node000024" class="edge">
<title>Node23&#45;&gt;Node24</title>
<g id="a_edge26_Node000023_Node000024"><a xlink:title=" ">
<path fill="none" stroke="#63b8ff" d="M373.62,-167.59C373.62,-161.01 373.62,-151.96 373.62,-143.73"/>
<polygon fill="#63b8ff" stroke="#63b8ff" points="377.13,-143.81 373.63,-133.81 370.13,-143.81 377.13,-143.81"/>
</a>
</g>
</g>
<!-- Node25 -->
<g id="Node000025" class="node">
<title>Node25</title>
<g id="a_Node000025"><a xlink:title=" ">
<polygon fill="#e0e0e0" stroke="#999999" points="523,-132 416.25,-132 416.25,-112 523,-112 523,-132"/>
<text xml:space="preserve" text-anchor="middle" x="469.62" y="-118.5" font-family="Helvetica,sans-Serif" font-size="10.00">freertos/FreeRTOS.h</text>
</a>
</g>
</g>
<!-- Node23&#45;&gt;Node25 -->
<g id="edge27_Node000023_Node000025" class="edge">
<title>Node23&#45;&gt;Node25</title>
<g id="a_edge27_Node000023_Node000025"><a xlink:title=" ">
<path fill="none" stroke="#63b8ff" d="M390.35,-167.59C404.85,-159.44 426.1,-147.48 442.95,-138"/>
<polygon fill="#63b8ff" stroke="#63b8ff" points="444.45,-141.17 451.45,-133.22 441.02,-135.07 444.45,-141.17"/>
</a>
</g>
</g>
<!-- Node26 -->
<g id="Node000026" class="node">
<title>Node26</title>
<g id="a_Node000026"><a xlink:title=" ">
<polygon fill="#e0e0e0" stroke="#999999" points="633.88,-132 541.38,-132 541.38,-112 633.88,-112 633.88,-132"/>
<text xml:space="preserve" text-anchor="middle" x="587.62" y="-118.5" font-family="Helvetica,sans-Serif" font-size="10.00">freertos/semphr.h</text>
</a>
</g>
</g>
<!-- Node23&#45;&gt;Node26 -->
<g id="edge28_Node000023_Node000026" class="edge">
<title>Node23&#45;&gt;Node26</title>
<g id="a_edge28_Node000023_Node000026"><a xlink:title=" ">
<path fill="none" stroke="#63b8ff" d="M410.9,-167.59C446.43,-158.63 500.13,-145.08 539.01,-135.27"/>
<polygon fill="#63b8ff" stroke="#63b8ff" points="539.75,-138.69 548.59,-132.85 538.04,-131.9 539.75,-138.69"/>
</a>
</g>
</g>
<!-- Node27 -->
<g id="Node000027" class="node">
<title>Node27</title>
<g id="a_Node000027"><a xlink:title=" ">
<polygon fill="#e0e0e0" stroke="#999999" points="739.25,-132 652,-132 652,-112 739.25,-112 739.25,-132"/>
<text xml:space="preserve" text-anchor="middle" x="695.62" y="-118.5" font-family="Helvetica,sans-Serif" font-size="10.00">freertos/timers.h</text>
</a>
</g>
</g>
<!-- Node23&#45;&gt;Node27 -->
<g id="edge29_Node000023_Node000027" class="edge">
<title>Node23&#45;&gt;Node27</title>
<g id="a_edge29_Node000023_Node000027"><a xlink:title=" ">
<path fill="none" stroke="#63b8ff" d="M417.9,-169.63C468.98,-161.12 555.8,-146.62 640.54,-132.35"/>
<polygon fill="#63b8ff" stroke="#63b8ff" points="640.89,-135.84 650.17,-130.72 639.73,-128.94 640.89,-135.84"/>
</a>
</g>
</g>
<!-- Node28&#45;&gt;Node17 -->
<g id="edge33_Node000028_Node000017" class="edge">
<title>Node28&#45;&gt;Node17</title>
<g id="a_edge33_Node000028_Node000017"><a xlink:title=" ">
<path fill="none" stroke="#63b8ff" d="M184.02,-111.59C185.01,-104.93 186.37,-95.75 187.6,-87.44"/>
<polygon fill="#63b8ff" stroke="#63b8ff" points="191.02,-88.2 189.03,-77.8 184.1,-87.17 191.02,-88.2"/>
</a>
</g>
</g>
</g>
</svg>
