<?xml version="1.0" encoding="UTF-8" standalone="no"?>
<!DOCTYPE svg PUBLIC "-//W3C//DTD SVG 1.1//EN"
 "http://www.w3.org/Graphics/SVG/1.1/DTD/svg11.dtd">
<!-- Generated by graphviz version 14.1.2 (20260124.0452)
 -->
<!-- Title: wave_gen.c Pages: 1 -->
<svg width="741pt" height="196pt"
 viewBox="0.00 0.00 741.00 196.00" xmlns="http://www.w3.org/2000/svg" xmlns:xlink="http://www.w3.org/1999/xlink">
<g id="graph0" class="graph" transform="scale(1 1) rotate(0) translate(4 192)">
<title>wave_gen.c</title>
<!-- Node1 -->
<g id="Node000001" class="node">
<title>Node1</title>
<g id="a_Node000001"><a xlink:title=" ">
<polygon fill="#999999" stroke="#666666" points="413.25,-188 344.75,-188 344.75,-168 413.25,-168 413.25,-188"/>
<text xml:space="preserve" text-anchor="middle" x="379" y="-174.5" font-family="Helvetica,sans-Serif" font-size="10.00">wave_gen.c</text>
</a>
</g>
</g>
<!-- Node2 -->
<g id="Node000002" class="node">
<title>Node2</title>
<g id="a_Node000002"><a xlink:title=" ">
<polygon fill="#e0e0e0" stroke="#999999" points="46,-132 0,-132 0,-112 46,-112 46,-132"/>
<text xml:space="preserve" text-anchor="middle" x="23" y="-118.5" font-family="Helvetica,sans-Serif" font-size="10.00">math.h</text>
</a>
</g>
</g>
<!-- Node1&#45;&gt;Node2 -->
<g id="edge1_Node000001_Node000002" class="edge">
<title>Node1&#45;&gt;Node2</title>
<g id="a_edge1_Node000001_Node000002"><a xlink:title=" ">
<path fill="none" stroke="#63b8ff" d="M344.68,-173.79C287.17,-168.07 167.54,-154.74 57.31,-132.24"/>
<polygon fill="#63b8ff" stroke="#63b8ff" points="58.31,-128.87 47.81,-130.26 56.89,-135.72 58.31,-128.87"/>
</a>
</g>
</g>
<!-- Node3 -->
<g id="Node000003" class="node">
<title>Node3</title>
<g id="a_Node000003"><a xlink:title=" ">
<polygon fill="#e0e0e0" stroke="#999999" points="112.12,-132 63.88,-132 63.88,-112 112.12,-112 112.12,-132"/>
<text xml:space="preserve" text-anchor="middle" x="88" y="-118.5" font-family="Helvetica,sans-Serif" font-size="10.00">string.h</text>
</a>
</g>
</g>
<!-- Node1&#45;&gt;Node3 -->
<g id="edge2_Node000001_Node000003" class="edge">
<title>Node1&#45;&gt;Node3</title>
<g id="a_edge2_Node000001_Node000003"><a xlink:title=" ">
<path fill="none" stroke="#63b8ff" d="M344.58,-172.04C297.01,-164.97 208.29,-150.96 123.56,-132.41"/>
<polygon fill="#63b8ff" stroke="#63b8ff" points="124.44,-129.02 113.92,-130.27 122.93,-135.85 124.44,-129.02"/>
</a>
</g>
</g>
<!-- Node4 -->
<g id="Node000004" class="node">
<title>Node4</title>
<g id="a_Node000004"><a xlink:title=" ">
<polygon fill="#e0e0e0" stroke="#999999" points="196.12,-132 129.88,-132 129.88,-112 196.12,-112 196.12,-132"/>
<text xml:space="preserve" text-anchor="middle" x="163" y="-118.5" font-family="Helvetica,sans-Serif" font-size="10.00">sdkconfig.h</text>
</a>
</g>
</g>
<!-- Node1&#45;&gt;Node4 -->
<g id="edge3_Node000001_Node000004" class="edge">
<title>Node1&#45;&gt;Node4</title>
<g id="a_edge3_Node000001_Node000004"><a xlink:title=" ">
<path fill="none" stroke="#63b8ff" d="M344.3,-168.32C307.12,-159.03 248.02,-144.26 207.47,-134.12"/>
<polygon fill="#63b8ff" stroke="#63b8ff" points="208.57,-130.78 198.02,-131.76 206.87,-137.58 208.57,-130.78"/>
</a>
</g>
</g>
<!-- Node5 -->
<g id="Node000005" class="node">
<title>Node5</title>
<g id="a_Node000005"><a xlink:title=" ">
<polygon fill="#e0e0e0" stroke="#999999" points="321.38,-132 214.62,-132 214.62,-112 321.38,-112 321.38,-132"/>
<text xml:space="preserve" text-anchor="middle" x="268" y="-118.5" font-family="Helvetica,sans-Serif" font-size="10.00">freertos/FreeRTOS.h</text>
</a>
</g>
</g>
<!-- Node1&#45;&gt;Node5 -->
<g id="edge4_Node000001_Node000005" class="edge">
<title>Node1&#45;&gt;Node5</title>
<g id="a_edge4_Node000001_Node000005"><a xlink:title=" ">
<path fill="none" stroke="#63b8ff" d="M359.67,-167.59C342.58,-159.28 317.4,-147.03 297.75,-137.47"/>
<polygon fill="#63b8ff" stroke="#63b8ff" points="299.37,-134.37 288.85,-133.14 296.31,-140.66 299.37,-134.37"/>
</a>
</g>
</g>
<!-- Node6 -->
<g id="Node000006" class="node">
<title>Node6</title>
<g id="a_Node000006"><a xlink:title=" ">
<polygon fill="#e0e0e0" stroke="#999999" points="418.5,-132 339.5,-132 339.5,-112 418.5,-112 418.5,-132"/>
<text xml:space="preserve" text-anchor="middle" x="379" y="-118.5" font-family="Helvetica,sans-Serif" font-size="10.00">freertos/task.h</text>
</a>
</g>
</g>
<!-- Node1&#45;&gt;Node6 -->
<g id="edge5_Node000001_Node000006" class="edge">
<title>Node1&#45;&gt;Node6</title>
<g id="a_edge5_Node000001_Node000006"><a xlink:title=" ">
<path fill="none" stroke="#63b8ff" d="M379,-167.59C379,-161.01 379,-151.96 379,-143.73"/>
<polygon fill="#63b8ff" stroke="#63b8ff" points="382.5,-143.81 379,-133.81 375.5,-143.81 382.5,-143.81"/>
</a>
</g>
</g>
<!-- Node7 -->
<g id="Node000007" class="node">
<title>Node7</title>
<g id="a_Node000007"><a xlink:title=" ">
<polygon fill="#e0e0e0" stroke="#999999" points="519.38,-132 436.62,-132 436.62,-112 519.38,-112 519.38,-132"/>
<text xml:space="preserve" text-anchor="middle" x="478" y="-118.5" font-family="Helvetica,sans-Serif" font-size="10.00">driver/i2s_std.h</text>
</a>
</g>
</g>
<!-- Node1&#45;&gt;Node7 -->
<g id="edge6_Node000001_Node000007" class="edge">
<title>Node1&#45;&gt;Node7</title>
<g id="a_edge6_Node000001_Node000007"><a xlink:title=" ">
<path fill="none" stroke="#63b8ff" d="M396.24,-167.59C411.34,-159.36 433.53,-147.26 450.98,-137.74"/>
<polygon fill="#63b8ff" stroke="#63b8ff" points="452.19,-141.07 459.29,-133.2 448.84,-134.92 452.19,-141.07"/>
</a>
</g>
</g>
<!-- Node8 -->
<g id="Node000008" class="node">
<title>Node8</title>
<g id="a_Node000008"><a xlink:href="esp__log_8h.html" target="_top" xlink:title=" ">
<polygon fill="white" stroke="#666666" points="614,-76 556,-76 556,-56 614,-56 614,-76"/>
<text xml:space="preserve" text-anchor="middle" x="585" y="-62.5" font-family="Helvetica,sans-Serif" font-size="10.00">esp_log.h</text>
</a>
</g>
</g>
<!-- Node1&#45;&gt;Node8 -->
<g id="edge7_Node000001_Node000008" class="edge">
<title>Node1&#45;&gt;Node8</title>
<g id="a_edge7_Node000001_Node000008"><a xlink:title=" ">
<path fill="none" stroke="#63b8ff" d="M413.53,-172.16C445.29,-166.46 492.67,-154.75 528,-132 546.48,-120.1 562.47,-100.54 572.77,-85.98"/>
<polygon fill="#63b8ff" stroke="#63b8ff" points="575.67,-87.94 578.37,-77.7 569.87,-84.02 575.67,-87.94"/>
</a>
</g>
</g>
<!-- Node10 -->
<g id="Node000010" class="node">
<title>Node10</title>
<g id="a_Node000010"><a xlink:title=" ">
<polygon fill="#e0e0e0" stroke="#999999" points="646.75,-132 575.25,-132 575.25,-112 646.75,-112 646.75,-132"/>
<text xml:space="preserve" text-anchor="middle" x="611" y="-118.5" font-family="Helvetica,sans-Serif" font-size="10.00">esp_check.h</text>
</a>
</g>
</g>
<!-- Node1&#45;&gt;Node10 -->
<g id="edge9_Node000001_Node000010" class="edge">
<title>Node1&#45;&gt;Node10</title>
<g id="a_edge9_Node000001_Node000010"><a xlink:title=" ">
<path fill="none" stroke="#63b8ff" d="M413.73,-168.92C453.62,-159.63 519.26,-144.35 563.77,-133.99"/>
<polygon fill="#63b8ff" stroke="#63b8ff" points="564.46,-137.43 573.41,-131.75 562.88,-130.61 564.46,-137.43"/>
</a>
</g>
</g>
<!-- Node11 -->
<g id="Node000011" class="node">
<title>Node11</title>
<g id="a_Node000011"><a xlink:href="wave__gen_8h.html" target="_top" xlink:title=" ">
<polygon fill="white" stroke="#666666" points="733.25,-132 664.75,-132 664.75,-112 733.25,-112 733.25,-132"/>
<text xml:space="preserve" text-anchor="middle" x="699" y="-118.5" font-family="Helvetica,sans-Serif" font-size="10.00">wave_gen.h</text>
</a>
</g>
</g>
<!-- Node1&#45;&gt;Node11 -->
<g id="edge10_Node000001_Node000011" class="edge">
<title>Node1&#45;&gt;Node11</title>
<g id="a_edge10_Node000001_Node000011"><a xlink:title=" ">
<path fill="none" stroke="#63b8ff" d="M413.63,-171.89C464.11,-164.33 561.1,-149.38 653.1,-132.48"/>
<polygon fill="#63b8ff" stroke="#63b8ff" points="653.61,-135.94 662.8,-130.68 652.33,-129.06 653.61,-135.94"/>
</a>
</g>
</g>
<!-- Node9 -->
<g id="Node000009" class="node">
<title>Node9</title>
<g id="a_Node000009"><a xlink:title=" ">
<polygon fill="#e0e0e0" stroke="#999999" points="645.75,-20 598.25,-20 598.25,0 645.75,0 645.75,-20"/>
<text xml:space="preserve" text-anchor="middle" x="622" y="-6.5" font-family="Helvetica,sans-Serif" font-size="10.00">stdlib.h</text>
</a>
</g>
</g>
<!-- Node8&#45;&gt;Node9 -->
<g id="edge8_Node000008_Node000009" class="edge">
<title>Node8&#45;&gt;Node9</title>
<g id="a_edge8_Node000008_Node000009"><a xlink:title=" ">
<path fill="none" stroke="#63b8ff" d="M591.44,-55.59C596.33,-48.47 603.19,-38.45 609.18,-29.72"/>
<polygon fill="#63b8ff" stroke="#63b8ff" points="612.01,-31.77 614.77,-21.55 606.23,-27.82 612.01,-31.77"/>
</a>
</g>
</g>
<!-- Node12 -->
<g id="Node000012" class="node">
<title>Node12</title>
<g id="a_Node000012"><a xlink:href="esp__err_8h.html" target="_top" xlink:title=" ">
<polygon fill="white" stroke="#666666" points="707.25,-76 650.75,-76 650.75,-56 707.25,-56 707.25,-76"/>
<text xml:space="preserve" text-anchor="middle" x="679" y="-62.5" font-family="Helvetica,sans-Serif" font-size="10.00">esp_err.h</text>
</a>
</g>
</g>
<!-- Node11&#45;&gt;Node12 -->
<g id="edge11_Node000011_Node000012" class="edge">
<title>Node11&#45;&gt;Node12</title>
<g id="a_edge11_Node000011_Node000012"><a xlink:title=" ">
<path fill="none" stroke="#63b8ff" d="M695.52,-111.59C692.99,-104.78 689.49,-95.32 686.36,-86.86"/>
<polygon fill="#63b8ff" stroke="#63b8ff" points="689.72,-85.88 682.97,-77.72 683.16,-88.31 689.72,-85.88"/>
</a>
</g>
</g>
<!-- Node12&#45;&gt;Node9 -->
<g id="edge12_Node000012_Node000009" class="edge">
<title>Node12&#45;&gt;Node9</title>
<g id="a_edge12_Node000012_Node000009"><a xlink:title=" ">
<path fill="none" stroke="#63b8ff" d="M669.07,-55.59C661.06,-48.01 649.58,-37.13 639.97,-28.02"/>
<polygon fill="#63b8ff" stroke="#63b8ff" points="642.58,-25.68 632.91,-21.34 637.77,-30.76 642.58,-25.68"/>
</a>
</g>
</g>
</g>
</svg>
